<svg width="230" height="160" viewBox="0 0 230 160" fill="none" xmlns="http://www.w3.org/2000/svg">
<g clip-path="url(#clip0_35_13313)">
<path fill-rule="evenodd" clip-rule="evenodd" d="M64.7449 55.4829L126.571 66.8661V125.948L64.7449 133.651V55.4829Z" fill="#79CBE8"/>
<path d="M61.4763 137.087V52.7306H66.9675L124.626 65.4817V48.871L124.953 25.8604L53.6479 41.7871L52.5039 139.627L61.4763 137.087Z" fill="#FCF163"/>
<path d="M158.456 68.0223L158.947 61.7851L216.736 60.0264L158.08 24.8997L144.156 28.4824L144.63 159.756L152.491 154.43V70.4813L159.241 73.7383V121.177L163.196 119.027L163.67 69.9276L158.456 68.0223Z" fill="#FCF163"/>
<path fill-rule="evenodd" clip-rule="evenodd" d="M152.491 71.719L160.368 74.1455V120.216L152.491 121.567V71.719Z" fill="#79CBE8"/>
<path fill-rule="evenodd" clip-rule="evenodd" d="M146.019 159.805C146.019 159.805 146.035 159.935 146.052 160H142.947C142.947 160 142.996 159.853 143.028 159.772C144.025 159.951 145.038 159.642 146.035 159.805H146.019Z" fill="#ACBAB6"/>
<path fill-rule="evenodd" clip-rule="evenodd" d="M146.019 159.805C145.022 159.642 144.009 159.967 143.012 159.772C141.459 159.625 139.956 159.267 138.469 158.86C137.57 158.616 136.654 158.388 135.707 158.323C135.167 158.274 134.693 158.062 134.203 157.834C133.451 157.476 132.52 157.492 131.768 157.118C130.509 156.466 129.153 156.548 127.845 156.271C126.62 156.01 125.508 155.294 124.806 154.137C124.74 154.023 124.659 153.844 124.691 153.747C125.1 152.835 124.381 152.037 124.43 151.157C124.43 151.011 124.364 150.913 124.234 150.815C123.564 150.359 122.992 149.073 123.335 148.421C123.694 147.754 123.645 147.037 123.564 146.435C123.433 145.49 123.792 144.529 123.302 143.601C123.122 143.259 123.433 142.673 123.498 142.201C123.58 141.663 123.662 141.126 123.335 140.605C123.106 140.246 123.515 139.937 123.482 139.497C123.351 137.771 123.384 136.029 123.351 134.286C123.335 133.276 123.727 132.283 123.498 131.241C123.204 129.954 123.449 128.684 123.596 127.397C123.629 127.153 123.613 126.876 123.531 126.632C123.335 126.03 123.122 125.46 123.547 124.824C123.694 124.613 123.613 124.206 123.547 123.896C123.318 122.887 123.286 121.893 123.58 120.867C123.678 120.509 123.253 120.004 123.351 119.63C123.678 118.359 123.253 117.138 123.286 115.9C123.318 114.809 123.155 113.702 123.498 112.627C123.645 112.187 123.269 111.813 123.269 111.406C123.286 110.494 123.302 109.582 123.449 108.686C123.531 108.181 123.564 107.758 123.367 107.286C123.057 106.553 123.482 105.836 123.498 105.103C123.498 104.973 123.613 104.81 123.564 104.696C123.073 103.377 123.335 101.96 123.417 100.674C123.531 98.7848 123.286 96.9283 123.384 95.0555C123.498 92.7593 123.417 90.4632 123.449 88.1507C123.466 86.685 123.58 85.2194 123.564 83.7537C123.547 81.767 123.335 79.7639 123.433 77.7609C123.466 77.028 123.596 76.2952 123.482 75.5787C123.286 74.2596 123.613 72.9079 123.302 71.6051C123.09 70.742 123.564 70.0581 123.662 69.2927C123.776 68.3156 123.433 67.4362 123.417 66.4754C123.417 64.8957 123.466 63.3486 123.547 61.769C123.596 61.0199 123.073 60.3359 123.237 59.538C123.662 57.4372 123.237 55.3039 123.466 53.1705C123.678 51.314 123.384 49.3924 123.351 47.5196C123.335 45.3375 123.384 43.1553 123.466 40.9568C123.498 40.1914 123.825 39.3609 123.269 38.5955C123.106 38.3675 123.286 37.9929 123.4 37.6998C123.711 36.8693 123.825 36.0387 123.4 35.2082C123.318 35.0291 123.22 34.8011 123.269 34.6382C123.564 33.1563 123.874 31.6743 124.217 30.1924C124.381 29.5084 124.887 29.085 125.574 29.2316C126.309 29.3944 126.342 30.0458 126.407 30.7298C126.538 32.2769 126.293 33.8565 126.652 35.4036C126.718 35.6967 126.554 36.0387 126.522 36.3644C126.375 37.5369 126.914 38.7257 126.652 39.8168C126.391 40.9405 127.012 41.999 126.554 43.0901C126.358 43.5298 126.407 44.1161 126.489 44.6209C126.669 45.7283 126.538 46.8357 126.571 47.943C126.652 50.3858 126.767 52.8448 126.424 55.3039C126.293 56.2647 126.603 57.2743 126.734 58.2677C126.734 58.3817 126.865 58.4794 126.849 58.5771C126.358 60.8082 126.75 63.0881 126.587 65.3191C126.44 67.3059 126.701 69.3089 126.358 71.2957C126.211 72.1425 126.571 72.9568 126.652 73.8036C126.718 74.5853 126.538 75.3344 126.522 76.0998C126.522 77.3212 126.652 78.5588 126.522 79.7476C126.407 80.7736 126.996 81.767 126.522 82.7766C126.456 82.9232 126.489 83.1186 126.522 83.2815C126.783 85.5125 126.293 87.7436 126.554 89.942C126.734 91.3425 126.277 92.7268 126.652 94.111C126.718 94.339 126.718 94.6484 126.652 94.8764C126.391 95.6581 126.391 96.4235 126.669 97.2214C126.783 97.5471 126.865 97.938 126.734 98.3125C126.375 99.4199 126.538 100.576 126.571 101.684C126.603 103.084 126.734 104.533 126.734 105.918C126.734 107.351 127.045 108.865 126.375 110.282C126.293 110.477 126.277 110.754 126.342 110.95C126.898 112.643 126.865 114.402 126.587 116.096C126.407 117.219 126.734 118.31 126.587 119.271C126.358 120.721 126.914 122.072 126.685 123.522C126.538 124.531 126.505 125.671 126.571 126.762C126.636 127.756 126.554 128.814 126.636 129.791C126.783 131.632 126.342 133.439 126.603 135.296C126.767 136.452 126.865 137.722 126.358 138.895C126.309 139.009 126.326 139.188 126.358 139.318C126.832 140.474 126.489 141.663 126.489 142.852C126.489 144.301 126.767 145.751 126.636 147.184C126.473 149.008 127.584 150.441 127.878 152.118C127.927 152.428 128.058 152.704 127.96 153.03C127.764 153.844 127.993 154.186 128.842 154.333C130.003 154.545 131.163 154.659 132.307 155.082C133.729 155.587 135.216 155.929 136.654 156.434C136.998 156.564 137.308 156.499 137.651 156.515C138.223 156.531 138.812 156.368 139.367 156.759C140.707 157.753 142.342 157.476 143.829 157.574C145.382 157.671 146.803 156.792 148.16 156.059C148.765 155.733 149.386 155.473 150.039 155.294C150.693 155.131 151.2 154.87 151.102 154.072C151.102 153.942 151.118 153.698 151.183 153.681C152.131 153.421 151.527 152.786 151.559 152.297C151.592 151.288 151.281 150.327 151.461 149.285C151.576 148.682 151.608 147.982 151.281 147.395C151.118 147.086 151.249 146.858 151.331 146.597C151.576 145.816 151.69 145.067 151.51 144.187C151.249 142.982 151.363 141.696 151.51 140.458C151.543 140.149 151.592 139.921 151.347 139.709C151.298 139.66 151.216 139.53 151.232 139.514C151.837 138.813 151.183 138.064 151.298 137.315C151.445 136.338 151.674 135.296 151.298 134.286C151.216 134.058 151.216 133.765 151.249 133.521C151.543 131.843 151.102 130.166 151.363 128.505C151.625 126.909 151.461 125.329 151.314 123.717C151.232 122.789 151.004 121.73 151.51 120.77C151.657 120.509 151.543 120.151 151.478 119.841C151.363 119.336 151.347 118.832 151.478 118.31C151.559 118.001 151.723 117.627 151.363 117.35C151.151 117.171 151.265 116.975 151.331 116.812C151.543 116.307 151.478 115.803 151.412 115.281C151.265 114.223 151.38 113.164 151.412 112.09C151.461 110.95 151.445 109.761 151.347 108.605C151.347 108.458 151.298 108.311 151.331 108.181C151.608 106.422 151.232 104.631 151.543 102.872C151.576 102.709 151.608 102.514 151.543 102.367C150.906 100.934 151.412 99.5013 151.51 98.0682C151.559 97.4006 151.134 96.8306 151.298 96.1466C151.69 94.4693 151.363 92.7919 151.216 91.1145C151.134 90.2026 151.445 89.2906 151.314 88.3461C151.167 87.1899 151.412 86.0173 151.249 84.8448C151.118 83.9492 151.2 83.0209 151.314 82.1089C151.38 81.539 151.412 80.969 151.347 80.4153C151.249 79.5359 151.347 78.6891 151.494 77.8423C151.674 76.9303 151.298 76.0346 151.396 75.1064C151.494 74.227 151.298 73.2988 151.314 72.452C151.347 71.2143 151.314 69.9766 151.347 68.739C151.363 67.8433 151.036 66.8662 151.298 66.0845C151.625 65.1563 150.824 64.2932 151.478 63.3486C151.772 62.9252 151.755 61.9644 151.478 61.2316C151.085 60.2708 151.51 59.2774 151.429 58.3003C151.396 57.828 151.429 57.3558 151.298 56.8835C151.02 55.8576 151.298 54.8153 151.281 53.7894C151.232 51.9166 151.543 50.0438 151.216 48.1385C151.069 47.2102 151.167 46.2331 151.216 45.2886C151.281 43.595 151.527 41.9176 151.412 40.1914C151.298 38.628 151.281 37.0158 151.559 35.4525C151.657 34.9151 151.151 34.3777 151.559 33.8077C151.641 33.6774 151.396 33.6285 151.265 33.5797C150.66 33.3191 150.088 33.0097 149.402 32.9446C148.961 32.8957 148.438 32.8469 148.389 32.2117C148.34 31.5766 148.895 31.3486 149.288 31.2346C151.641 30.5833 154.763 32.1303 154.468 35.0779C154.256 37.1461 154.73 39.2143 154.664 41.2499C154.632 42.0967 154.55 42.9598 154.534 43.8392C154.517 45.1257 154.681 46.4123 154.599 47.6825C154.468 49.5227 154.893 51.3629 154.485 53.2031C154.37 53.7568 154.566 54.3919 154.599 54.9944C154.664 56.0204 154.387 57.0301 154.534 58.056C154.599 58.4794 154.681 58.8214 155.155 58.8051C155.792 58.8051 156.299 59.1145 156.822 59.3914C157.851 59.9451 159.044 60.0591 160.058 60.6291C160.205 60.7105 160.45 60.6616 160.646 60.6779C162.82 60.743 164.993 60.4336 167.151 60.3196C168.948 60.2219 170.762 60.3034 172.527 59.9777C173.508 59.7985 174.456 59.8148 175.42 59.9777C176.368 60.1405 177.283 59.7985 178.199 59.6682C179.522 59.4728 180.209 60.2545 180.764 61.1013C181.663 62.453 182.611 63.6906 184.033 64.5049C184.278 64.6514 184.442 64.8469 184.556 65.0586C184.736 65.3843 184.638 65.7425 184.474 66.0357C184.245 66.4265 184.049 65.9868 183.837 65.9542C182.121 65.7425 181.222 64.3583 180.209 63.2347C179.195 62.111 178.248 61.6713 176.777 62.1273C176.172 62.3064 175.616 61.9807 175.012 61.9644C173.328 61.9481 171.678 62.1598 170.011 62.2575C168.523 62.3553 167.036 62.3553 165.549 62.5018C163.931 62.6647 162.313 62.9415 160.695 62.5344C160.336 62.453 160.205 62.7135 160.221 62.9904C160.303 64.342 159.698 65.5634 159.6 66.8825C159.551 67.6153 159.012 68.1201 158.358 68.0224C157.59 67.8922 157.59 67.3548 157.541 66.6871C157.459 65.3354 157.737 64.0489 157.819 62.7135C157.851 62.2738 157.606 61.8667 157.165 61.8504C156.282 61.8016 155.547 61.313 154.583 61.199C154.779 62.4855 154.109 63.7069 154.517 65.026C154.746 65.7425 154.207 66.5405 154.419 67.3059C154.648 68.2179 154.763 69.0972 154.419 70.0092C154.305 70.3186 154.501 70.3186 154.73 70.3512C155.629 70.4489 156.446 70.9537 157.377 70.97C157.41 70.97 157.443 70.97 157.459 70.97C158.293 71.8168 159.551 71.9145 160.45 72.6474C160.597 72.7614 160.81 72.8102 160.989 72.9079C161.447 73.1522 161.708 73.5756 161.627 74.0479C161.283 75.8392 161.431 77.6631 161.382 79.4708C161.332 81.1318 161.496 82.7929 161.496 84.4703C161.496 86.457 161.561 88.4601 161.496 90.4306C161.414 92.5965 161.414 94.7624 161.431 96.9283C161.431 98.0357 161.316 99.1756 161.594 100.299C161.823 101.244 161.447 102.27 161.463 103.279C161.512 105.136 161.578 107.009 161.431 108.833C161.234 111.047 161.496 113.23 161.48 115.412C161.48 117.04 161.218 118.636 161.202 120.281C161.48 120.265 161.741 120.281 162.003 120.216C162.64 120.086 162.999 119.939 163.114 119.043C163.31 117.35 163.228 115.721 162.967 114.076C162.934 113.881 162.934 113.62 163.032 113.49C163.686 112.757 163.294 112.008 163.114 111.275C162.95 110.591 162.852 109.956 163.049 109.256C163.261 108.507 163.016 107.742 163.065 106.976C163.212 105.168 163.228 103.345 163.277 101.537C163.277 101.195 163.065 100.902 163.065 100.544C163.13 98.6382 162.934 96.7166 163.114 94.795C163.228 93.6387 163.049 92.4662 163.114 91.31C163.179 89.9257 162.852 88.5252 162.999 87.1736C163.212 85.4311 163.016 83.7212 163.049 82.0112C163.081 80.3176 162.575 78.5425 163.408 76.8652C163.719 76.2464 163.065 75.6764 163.114 74.9761C163.179 73.885 163.817 73.0871 164.258 72.1914C164.438 71.8331 164.895 71.8494 165.271 71.9797C165.712 72.11 165.68 72.4682 165.68 72.8265C165.68 77.37 165.68 81.8972 165.68 86.4245C165.68 97.4168 165.68 108.409 165.68 119.402C165.68 119.711 165.81 120.069 165.598 120.314C164.944 121.111 164.536 122.203 163.245 122.251C162.673 122.268 162.15 122.512 161.61 122.724C160.646 123.082 159.649 122.724 158.718 122.414C158.26 122.268 158.129 121.779 158.178 121.258C158.342 119.255 158.342 117.236 158.178 115.233C158.146 114.825 158.407 114.565 158.423 114.158C158.489 112.92 157.966 111.666 158.423 110.429C158.718 109.614 158.097 108.849 158.26 108.002C158.636 106.032 158.048 104.045 158.374 102.074C158.505 101.309 158.113 100.478 158.178 99.7619C158.26 98.6382 157.966 97.5145 158.195 96.4397C158.44 95.2835 158.146 94.1436 158.211 93.0199C158.276 91.9614 157.998 90.8703 158.342 89.8117C158.554 89.1604 158.407 88.4601 158.293 87.825C158.227 87.3853 158.211 87.027 158.325 86.6362C158.44 86.2616 158.505 85.9034 158.227 85.5939C157.998 85.3334 158.08 85.024 158.129 84.7634C158.44 82.9721 158.342 81.1644 158.162 79.3731C158.129 79.0962 158.162 78.8357 158.276 78.6402C158.62 78.1191 158.554 77.5492 158.358 77.0769C157.982 76.1812 157.966 75.3018 158.26 74.4061C158.407 73.9339 158.342 73.657 157.786 73.5919C157.1 73.5268 156.479 73.2173 155.858 72.9242C154.844 72.4357 154.485 72.6799 154.436 73.7873C154.354 75.481 154.436 77.1746 154.534 78.8682C154.583 79.7151 154.697 80.6107 154.387 81.4738C154.158 82.0764 154.681 82.5975 154.615 83.2326C154.452 84.8285 154.305 86.4408 154.583 88.053C154.583 88.1018 154.583 88.167 154.583 88.2321C154.076 90.1049 154.517 91.9776 154.55 93.8667C154.566 95.2184 154.55 96.57 154.566 97.9054C154.583 99.0616 154.763 100.283 154.599 101.374C154.321 103.198 154.73 105.006 154.517 106.781C154.354 108.23 154.632 109.647 154.501 111.096C154.419 111.976 154.338 112.985 154.664 113.93C154.91 114.614 154.419 115.33 154.501 116.096C154.632 117.171 154.305 118.278 154.697 119.353C155.4 118.88 156.266 119.467 157.116 119.239C157.443 119.157 157.525 119.727 157.786 119.939C157.557 120.216 157.982 120.737 157.459 120.9C156.691 121.144 156.07 121.828 155.171 121.681C154.746 121.616 154.566 121.861 154.583 122.203C154.632 123.587 154.387 124.971 154.517 126.372C154.583 127.121 154.615 127.935 154.436 128.717C154.338 129.124 154.289 129.596 154.387 130.003C154.697 131.436 154.321 132.886 154.599 134.302C154.681 134.775 154.436 135.182 154.436 135.67C154.403 137.315 154.566 138.944 154.403 140.588C154.272 141.973 154.305 143.406 154.534 144.806C154.615 145.295 154.73 145.8 154.436 146.272C154.354 146.402 154.338 146.63 154.387 146.777C154.959 148.584 154.142 150.392 154.387 152.2C154.452 152.656 154.566 153.177 154.076 153.551C153.864 153.714 154.076 153.844 154.142 153.991C154.615 155.18 154.174 156.401 152.916 156.678C150.808 157.166 149.092 158.567 147 159.055C146.607 159.153 146.297 159.528 145.937 159.788L146.019 159.805Z" fill="#29716B"/>
<path fill-rule="evenodd" clip-rule="evenodd" d="M120.753 65.2052C120.72 65.7589 120.426 65.9869 119.87 66.0195C118.595 66.0846 117.402 65.6123 116.193 65.3355C115.441 65.1564 114.706 64.9772 113.921 64.9284C112.418 64.8632 110.996 64.4724 109.737 63.6419C109.312 63.365 108.822 63.2347 108.348 63.2184C106.861 63.1859 105.308 63.0556 103.952 62.5996C101.778 61.8505 99.5392 61.8179 97.3329 61.4108C95.5188 61.0688 93.672 60.8734 91.8416 60.5966C90.6976 60.4174 89.6189 59.9614 88.4749 59.766C86.8406 59.4892 85.19 59.2612 83.5883 58.8052C82.1175 58.3981 80.6139 58.2352 79.1594 57.7955C77.5251 57.3233 75.8744 56.9813 74.1584 56.851C72.2789 56.7044 70.5139 56.1182 68.8142 55.2551C67.8336 54.7502 66.7386 54.2128 65.5129 54.3757C65.0226 54.4408 64.5813 53.9523 64.0257 54.0826C63.8459 54.1314 63.5517 54.05 63.5844 54.3431C63.6498 55.0597 63.2739 55.6948 63.3066 56.4276C63.4046 58.4469 63.3066 60.4663 63.3556 62.5019C63.3719 63.5441 63.2902 64.5701 63.3556 65.6123C63.47 67.2897 63.5517 68.9833 63.2739 70.6607C63.2085 71.0189 63.2902 71.3446 63.3556 71.6866C63.5681 73.022 63.0124 74.3248 63.2412 75.6602C63.4373 76.8164 63.6334 77.9889 63.3883 79.1452C63.1268 80.3502 63.5844 81.5391 63.4373 82.679C63.2739 83.9492 63.2739 85.1706 63.3719 86.4083C63.4863 87.8251 63.2902 89.2093 63.2739 90.6098C63.2739 92.2709 63.2739 93.9482 63.3066 95.6093C63.3392 97.2052 63.519 98.8174 63.3392 100.446C63.2412 101.358 63.4373 102.319 63.3719 103.247C63.2085 105.543 63.3719 107.839 63.3392 110.119C63.3066 111.438 63.0287 112.79 63.4046 114.093C63.4863 114.386 63.3392 114.598 63.2902 114.826C63.0614 115.884 63.6334 116.926 63.3229 117.952C63.0451 118.881 63.6825 119.841 63.1268 120.737C63.0614 120.851 63.0287 121.03 63.0614 121.16C63.421 122.431 63.3229 123.717 63.4373 125.004C63.47 125.476 63.5844 125.883 63.3392 126.306C63.2902 126.404 63.2412 126.534 63.2575 126.632C63.421 127.951 62.996 129.287 63.3066 130.606C63.3556 130.801 63.3556 130.98 63.3066 131.192C63.2085 131.713 63.2739 131.827 63.9439 131.811C67.9153 131.664 71.7886 130.817 75.7437 130.541C76.5772 130.475 77.427 130.296 78.2278 130.085C78.7018 129.954 79.1267 130.215 79.5843 130.133C82.4443 129.629 85.3534 129.466 88.2298 129.124C90.3871 128.88 92.5934 128.798 94.7343 128.505C97.3002 128.147 99.8661 127.951 102.432 127.593C104.622 127.3 106.845 127.104 109.051 126.876C111.094 126.681 113.137 126.388 115.18 126.274C116.863 126.192 118.497 125.623 120.213 125.785C120.785 125.834 121.047 126.176 121.128 126.73C121.226 127.316 120.916 127.56 120.409 127.707C120.164 127.772 119.919 127.919 119.674 127.935C116.601 128.13 113.578 128.766 110.473 128.847C108.675 128.896 106.877 129.368 105.079 129.645C104.442 129.743 103.805 129.694 103.167 129.759C102.023 129.905 100.863 129.857 99.7516 130.068C98.5096 130.296 97.2675 130.313 96.0418 130.475C93.6884 130.785 91.3676 131.192 88.9816 131.241C87.6251 131.273 86.2849 131.599 84.9448 131.795C84.2421 131.892 83.5556 132.088 82.8366 131.941C82.0357 131.778 81.2513 132.104 80.4995 132.218C79.4535 132.381 78.3586 132.218 77.3126 132.641C76.7406 132.886 76.0051 132.755 75.3514 132.804C71.9194 133.032 68.52 133.456 65.1206 133.944C64.9736 133.96 64.8265 133.944 64.6957 133.96C63.7369 134.004 63.2793 134.498 63.3229 135.442C63.3392 135.817 63.421 136.191 63.3556 136.55C63.2412 137.038 63.421 137.706 63.0287 137.999C62.3913 138.471 61.6232 138.911 60.8551 139.074C58.7468 139.514 56.704 140.263 54.514 140.393C53.6315 140.442 52.7816 140.816 51.8337 140.702C50.9675 140.605 50.2158 140.198 49.3986 139.986C48.3526 139.709 47.3067 139.302 46.3097 138.813C45.4763 138.406 44.4303 138.374 43.4824 138.227C42.7143 138.113 41.9625 137.95 41.3088 137.527C41.0963 137.397 40.8838 137.38 40.655 137.348C38.5304 137.087 36.4549 136.55 34.3466 136.126C32.8594 135.833 31.3722 135.475 29.8359 135.296C28.6756 135.166 27.5806 134.677 26.4366 134.465C25.3906 134.286 24.41 133.846 23.315 133.83C22.6613 133.83 22.0239 133.342 21.3702 133.276C19.9974 133.146 18.7063 132.544 17.3008 132.625C16.8922 132.641 16.4509 132.348 16.026 132.185C14.3263 131.55 12.4959 131.567 10.7635 131.159C9.79929 130.931 8.88408 130.443 7.8708 130.443C6.30187 130.443 4.97808 129.433 3.37645 129.482C2.90251 129.482 2.36318 128.928 1.93826 128.554C1.67677 128.31 1.77483 127.935 2.13438 127.772C2.65736 127.544 3.22937 127.267 3.80138 127.446C4.5695 127.674 5.38666 127.74 6.15478 127.788C7.39685 127.87 8.42647 128.554 9.63586 128.652C10.404 128.717 11.1885 128.766 11.9239 128.993C12.7737 129.254 13.7216 129.189 14.4898 129.743C14.6695 129.873 14.9147 129.987 15.1108 129.971C16.3692 129.922 17.5623 130.345 18.7553 130.589C19.7522 130.785 20.8145 130.785 21.7788 131.306C22.5306 131.713 23.4458 131.599 24.2793 131.778C26.5673 132.283 28.888 132.592 31.1597 133.162C32.0749 133.39 33.0718 133.374 33.938 133.912C34.51 134.27 35.2291 133.944 35.8665 134.14C37.3374 134.579 38.8246 134.742 40.3609 134.84C41.2107 134.889 42.0442 135.312 42.8777 135.573C44.2342 135.996 45.5416 136.566 47.0288 136.452C47.1923 136.452 47.3721 136.533 47.5191 136.615C48.7449 137.217 50.085 137.543 51.2944 138.211C52.324 138.781 53.468 138.276 54.5303 138.064C54.8408 138.015 55.1023 137.869 55.4128 138.015C55.5926 138.081 55.7724 138.195 55.9849 138.048C56.6876 137.511 57.5375 137.559 58.3383 137.445C59.5313 137.283 60.4138 136.761 60.2177 135.296C60.0379 133.895 60.136 132.462 60.0216 131.062C59.9399 129.987 60.087 128.896 60.1687 127.87C60.2341 127.007 59.9072 126.144 60.2177 125.281C60.5446 124.369 60.0543 123.408 60.1197 122.496C60.2014 121.388 59.9072 120.265 60.2831 119.174C60.4465 118.685 60.2831 118.18 60.2831 117.708C60.2831 116.959 60.0706 116.226 60.185 115.493C60.3811 114.239 60.2177 112.969 60.3321 111.715C60.4138 110.771 60.136 109.728 60.2667 108.751C60.3811 107.904 60.3158 107.058 60.4629 106.195C60.5936 105.527 60.3975 104.696 60.3321 103.947C60.2831 103.377 60.2667 102.807 60.2014 102.254C60.1033 101.504 60.1033 100.755 60.2014 100.006C60.5282 97.9543 60.0543 95.8698 60.3321 93.8179C60.4138 93.1502 60.61 92.4826 60.1197 91.8637C60.0053 91.7172 59.9889 91.4078 60.0379 91.196C60.4629 89.5675 60.1523 87.9228 60.1197 86.278C60.1197 85.9849 60.1687 85.708 60.2504 85.4474C60.4792 84.5843 60.6426 83.7375 60.1197 82.907C60.0543 82.793 60.0053 82.6139 60.0543 82.4999C60.4302 81.3111 59.6294 80.0734 60.2667 78.8846C60.5282 78.396 60.136 77.8912 60.1523 77.3375C60.2504 75.5462 60.4956 73.6897 60.185 71.9472C60.0216 70.9864 60.6917 70.221 60.2831 69.2765C59.9399 68.4622 59.9562 67.42 60.2014 66.5894C60.659 65.0261 59.9399 63.5279 60.1687 61.9808C60.4629 59.994 60.3648 57.9747 60.0543 55.9716C59.9562 55.3039 60.6753 54.6851 60.3975 53.936C60.3485 53.7731 60.3975 53.594 60.3485 53.4312C60.0706 52.1772 60.2341 51.9329 61.5579 51.9492C62.9307 51.9492 64.3035 52.1446 65.66 52.1284C67.6048 52.1284 69.3045 52.9915 71.0859 53.48C71.903 53.708 72.7692 54.0826 73.57 54.4571C74.5996 54.9131 75.6783 54.6851 76.7242 54.962C77.7048 55.2225 78.7181 55.3365 79.6823 55.6948C80.712 56.0693 81.8396 56.1345 82.9346 56.395C84.2421 56.7044 85.5658 56.965 86.8733 57.2581C89.4228 57.8118 91.956 58.4632 94.5219 58.9355C96.7935 59.3426 99.0979 59.7335 101.419 59.7823C102.89 59.8149 104.262 60.4011 105.684 60.678C107.253 61.0037 108.855 61.248 110.44 61.4922C110.734 61.5411 111.012 61.5574 111.257 61.7202C112.499 62.5019 113.856 62.909 115.327 62.795C116.013 62.7299 116.569 63.2022 117.239 63.1696C118.285 63.1207 119.069 63.8698 120.099 63.9675C120.851 64.0327 121.03 64.4398 120.834 65.1075L120.736 64.9935C120.736 64.9935 120.687 65.1401 120.769 65.1889L120.753 65.2052Z" fill="#28716B"/>
<path fill-rule="evenodd" clip-rule="evenodd" d="M33.8891 73.7548C32.8594 74.5039 31.4703 74.8296 30.9636 76.2139C30.8983 76.3767 30.7022 76.5396 30.5224 76.6047C29.8523 76.8978 29.3293 77.3864 28.7246 77.7609C28.0219 78.2006 28.3324 78.4775 28.8064 78.6566C29.4764 78.9172 29.7706 79.3569 30.0975 80.0083C30.506 80.8225 31.1434 81.5716 31.7318 82.2719C32.0096 82.5976 32.8594 82.8256 33.4314 83.1024C33.791 83.2816 34.0361 83.4933 34.2486 83.819C34.886 84.7961 35.7195 85.3986 36.9452 85.0403C38.1873 84.6983 39.4294 84.9589 40.6061 85.2032C41.603 85.4149 42.3057 86.3106 42.9758 87.0922C43.6622 87.8902 43.7603 87.9065 44.5121 87.2062C45.1658 86.62 47.2904 86.6688 47.9114 87.3202C48.4507 87.8902 47.797 88.0368 47.5028 88.1019C46.8982 88.2485 46.4896 88.5579 46.0973 89.0139C45.8359 89.3233 45.8849 89.4373 46.1137 89.6978C46.653 90.2841 46.9145 91.0169 46.9635 91.8149C46.9962 92.3197 46.702 92.6454 46.2444 92.8734C45.7215 93.1503 45.6234 92.6454 45.46 92.45C44.4957 91.1961 43.1392 90.5609 41.7337 90.0073C41.1944 89.7955 41.0473 89.3559 40.9166 88.8836C40.8676 88.7045 40.982 88.4439 40.7695 88.3299C39.5601 87.6622 38.4488 86.6037 36.8962 87.3039C36.3569 87.5482 35.8502 87.3528 35.1638 87.2225C35.5887 88.0693 36.079 88.7207 36.5693 89.2093C37.2557 89.9095 37.6643 90.9029 38.6449 91.3101C38.8574 91.4078 39.0208 91.652 39.1842 91.8475C40.2465 93.134 41.3905 94.3553 42.175 95.8536C42.2894 96.049 42.4855 96.2444 42.5019 96.4398C42.6816 98.394 43.7439 100.055 44.2342 101.912C44.3486 102.335 44.5121 102.758 44.8226 103.035C46.0647 104.11 46.13 105.739 46.8164 107.074C46.9308 107.302 46.8982 107.448 46.6367 107.53C46.0483 107.693 44.9697 107.106 44.5448 106.618C43.9891 105.983 43.5478 105.283 42.8287 104.745C42.126 104.224 41.652 103.394 41.08 102.71C41.0637 102.693 41.031 102.644 41.0473 102.644C41.5703 101.26 40.1485 100.527 39.9687 99.3874C39.9523 99.2734 39.887 99.1757 39.8706 99.0617C39.7072 97.5472 39.0862 96.3095 38.0402 95.1533C37.3865 94.4205 36.7654 93.59 36.2098 92.7431C35.5397 91.7172 34.3793 91.1961 33.7093 90.2515C32.9085 89.1279 31.9115 88.1345 31.3395 86.8317C31.1924 86.4897 30.8002 86.2454 30.5224 85.9849C30.0484 85.5289 30.1301 84.7472 29.7706 84.3726C28.79 83.3467 28.2017 81.9462 26.7962 81.3274C26.4203 81.1482 25.9953 80.9202 25.8973 80.4642C25.7339 79.7151 25.3253 79.7803 24.9167 80.2037C24.3447 80.7899 23.7237 81.3599 23.5929 82.2719C23.5439 82.6139 23.3804 83.0047 23.1353 83.249C22.4326 83.9492 22.1874 84.91 21.6154 85.6592C21.1741 86.2454 20.4223 86.2454 19.8994 86.6851C18.6246 87.7762 17.3335 88.7859 16.4673 90.2841C15.7973 91.4403 14.9474 92.4989 14.1303 93.5574C13.8688 93.8994 13.4929 94.1274 13.068 94.2739C12.1364 94.6322 11.2702 95.3324 10.8616 96.0653C10.3714 96.9447 9.76666 97.5961 8.99853 98.052C7.98526 98.6546 7.10273 99.42 6.15483 100.12C5.94237 100.283 5.74626 100.413 5.45208 100.218C5.1579 100.023 5.10888 99.762 5.19059 99.4688C5.48477 98.508 5.86066 97.6449 6.54707 96.8144C7.18445 96.0653 7.96892 95.4464 8.54092 94.6322C9.01487 93.9482 9.5542 93.2805 10.4531 93.0688C10.9107 92.9548 11.3193 92.7106 11.5481 92.2871C12.3652 90.8052 13.7217 89.7304 14.5879 88.3136C15.405 86.9782 16.6308 86.05 17.8401 85.1543C18.9515 84.3401 19.5398 83.2978 20.1935 82.1416C20.7982 81.0831 21.2558 79.6826 22.6777 79.1615C23.4949 78.852 23.5275 78.2658 22.9555 77.2235C22.4162 76.2301 21.9423 75.1716 21.0761 74.3899C20.9944 74.3085 20.9617 74.162 20.88 74.1131C19.7359 73.5594 19.0495 72.5172 18.118 71.7192C17.644 71.2958 17.1374 71.0027 16.8432 70.3024C16.6144 69.765 15.7482 69.4882 15.2089 69.0159C14.4244 68.3156 13.4602 67.8271 12.8882 66.8826C12.7574 66.6709 12.594 66.4754 12.5613 66.2149C12.3652 64.9121 11.8586 63.7884 10.7799 62.9416C10.5838 62.795 10.5021 62.5182 10.3714 62.2902C10.306 62.1599 10.2733 61.9482 10.1262 61.9971C9.48882 62.2413 8.93316 61.7854 8.32846 61.8017C6.84124 61.8342 5.33768 61.8179 3.85046 61.8179C3.24576 61.8179 2.78816 61.5574 2.54301 61.0037C2.26518 60.3686 1.82391 59.9126 1.23556 59.5706C0.925044 59.3915 0.696241 59.1472 0.53281 58.8378C0.222292 58.2841 0.53281 58.0398 1.03945 57.9584C1.98735 57.7955 2.73913 58.2515 3.42554 58.8052C4.40612 59.6032 5.59917 59.7497 6.77587 59.88C7.23348 59.9289 7.74011 59.8312 8.21406 59.8149C8.76973 59.7823 8.8351 59.5543 8.58995 59.0169C7.98526 57.6816 6.75953 56.9162 5.81163 55.9065C5.43574 55.5156 3.57262 51.6887 3.57262 51.135C3.57262 50.6139 3.37651 49.9462 4.25903 49.8485C4.99447 49.7508 5.38671 50.109 5.61551 50.7279C5.82797 51.3141 6.23655 51.7212 6.77587 51.9329C7.44594 52.1935 7.75646 52.7309 7.96892 53.3172C8.24675 54.1314 8.75338 54.6851 9.45614 55.1899C9.91374 55.5319 10.3223 56.1345 10.6002 56.6556C11.0414 57.4373 11.5154 58.219 11.9403 59.0169C12.4796 60.0266 12.7411 61.2317 13.7871 61.9808C14.2937 62.3391 14.5879 62.9579 14.7676 63.5767C15.2089 65.0749 16.2385 66.1335 17.3335 67.192C18.6573 68.4622 20.0791 69.6022 21.3866 70.8724C22.4489 71.8983 23.4785 72.9732 24.6552 73.9014C25.1782 74.3248 25.3416 75.1065 26.1588 75.3019C26.8779 75.4648 27.4172 75.6113 28.0055 74.9111C28.7246 74.048 29.7379 73.478 30.6368 72.7777C31.7154 71.9309 32.9738 71.3609 34.0361 70.563C35.1965 69.6999 36.7164 69.0485 37.2884 67.5014C39.2986 66.4754 39.6091 64.163 40.982 62.6973C41.9625 61.6388 42.6163 60.4011 43.5151 59.31C43.6786 59.0983 43.8747 59.0006 44.1362 58.9192C44.8389 58.7075 45.4273 58.2678 45.8032 57.6327C46.1791 56.9976 46.8164 56.6556 47.3394 56.2159C47.8624 55.7925 48.4834 56.167 49.0554 56.2648C49.2842 56.3136 49.1208 56.5579 49.0554 56.7045C48.5161 58.0398 48.0258 59.4078 46.6694 60.1894C45.7051 60.7431 45.4273 61.8994 44.6428 62.5833C43.9237 63.2184 43.8257 64.4235 42.698 64.6841C42.5999 64.7004 42.4692 64.8795 42.4528 64.9935C42.126 66.9803 40.7532 68.3319 39.3476 69.5045C37.7133 70.8724 36.2261 72.5009 34.1179 73.2337C33.8891 73.3151 33.7093 73.4454 33.791 73.7385L33.8891 73.7548Z" fill="#29716B"/>
<path fill-rule="evenodd" clip-rule="evenodd" d="M229.156 5.92775C229.238 8.33793 229.271 10.9435 229.271 13.5328C229.271 14.6239 229.679 15.6987 229.467 16.741C229.238 17.8321 229.418 18.9395 229.271 20.0143C229.075 21.3822 229.467 22.7501 229.287 24.1018C229.189 24.9323 229.14 25.7303 229.32 26.5445C229.418 27.0331 229.385 27.5542 229.271 28.0753C229.124 28.7593 229.156 29.427 229.418 30.1598C229.663 30.8438 229.532 31.7069 229.401 32.456C229.303 32.9934 229.156 33.4982 229.205 34.0519C229.287 35.029 229.499 36.0387 229.385 36.9995C229.254 38.0417 229.32 39.1003 229.156 40.1425C229.091 40.5822 229.091 40.9893 229.156 41.4127C229.45 43.6763 229.205 45.9725 229.271 48.2524C229.271 48.8061 229.483 49.3598 229.467 49.9135C229.467 50.63 229.565 51.3629 229.254 52.0631C228.993 52.6494 229.401 53.2519 229.385 53.8708C229.287 57.1766 229.385 60.4825 229.173 63.772C229.075 65.3028 229.091 65.0911 227.849 65.1725C225.675 65.3028 224.139 64 222.439 63.0881C220.756 62.1924 219.105 61.2153 217.422 60.3196C216.278 59.7171 215.216 58.9842 214.104 58.3003C214.006 58.2351 213.908 58.1537 213.859 58.056C213.058 56.6392 211.718 55.7761 210.541 54.7501C209.839 54.1313 208.874 54.001 208.106 53.4799C207.616 53.1379 207.028 52.8774 206.652 52.4377C205.867 51.4769 204.854 51.3791 203.759 51.542C202.108 51.7863 200.768 51.1186 199.412 50.3206C198.676 49.8809 198.006 49.3761 197.222 49.0178C196.339 48.627 195.44 48.2199 194.689 47.5847C194.264 47.2265 193.724 47.0799 193.234 46.8519C191.534 46.0702 189.933 45.0606 188.299 44.1486C186.681 43.2692 185.079 42.3084 183.477 41.3802C181.255 40.0937 179.048 38.742 176.793 37.5532C175.028 36.6249 173.426 35.371 171.58 34.6545C170.599 34.2636 169.88 33.3517 168.736 33.3354C168.67 33.3354 168.589 33.2702 168.523 33.2051C166.856 31.772 164.732 31.1043 162.934 29.9155C161.512 29.0036 159.894 28.4662 158.57 27.4076C157.998 26.9517 157.312 26.8214 156.593 26.9028C154.959 27.0982 153.341 27.3099 151.723 27.6845C150.693 27.9288 149.598 27.8962 148.536 27.945C148.225 27.945 147.915 27.8636 147.588 27.945C146.852 28.0916 146.591 27.5868 146.477 27.0494C146.346 26.4305 146.689 26.2514 147.31 26.17C148.16 26.056 148.961 25.6326 149.843 25.5023C150.726 25.372 151.576 25.0789 152.491 25.1603C152.654 25.1603 152.85 25.1603 152.997 25.0952C153.619 24.7695 154.256 24.6718 154.942 24.8346C155.792 25.03 156.626 24.8672 157.475 24.8509C158.865 24.8509 160.139 25.4209 161.283 26.1537C162.967 27.2285 164.764 28.059 166.464 29.085C167.87 29.9318 169.308 30.6972 170.73 31.4952C172.282 32.3583 173.851 33.2051 175.437 34.0193C176.499 34.5568 177.512 35.2896 178.574 35.827C180.307 36.6901 181.908 37.7975 183.624 38.7094C184.589 39.2143 185.586 39.7517 186.452 40.4519C186.599 40.5659 186.779 40.7125 186.958 40.7613C188.609 41.1196 189.982 42.0967 191.338 42.9761C193.169 44.1486 195.195 44.8652 197.026 46.0051C197.075 46.0377 197.173 46.0051 197.189 46.054C197.745 47.2102 198.971 47.4219 199.984 47.6173C201.504 47.9104 202.844 48.969 204.511 48.5944C205.982 48.2687 206.864 49.2458 207.632 50.2555C208.204 51.0046 208.891 51.4443 209.839 51.5583C210.558 51.656 211.048 52.1771 211.522 52.6657C211.849 53.0076 212.176 53.2356 212.682 53.2845C213.614 53.3822 213.859 54.3593 214.48 54.8804C215.167 55.4504 215.412 56.4275 216.294 56.8835C218.272 57.9257 220.233 59.0168 222.178 60.1079C223.175 60.6616 224.139 61.2641 225.12 61.8341C225.414 62.0132 225.757 62.2738 226.067 62.111C226.345 61.9644 226.215 61.541 226.215 61.2479C226.215 58.6911 226.198 56.1507 226.165 53.5939C226.165 53.3333 226.198 53.1054 226.313 52.8611C226.525 52.3888 226.59 51.884 226.394 51.3629C226.051 50.4346 226.362 49.0667 226.329 48.0896C226.296 47.2428 226.492 46.4448 226.443 45.6631C226.362 44.2138 226.067 42.7644 226.084 41.2825C226.084 40.7776 225.904 40.2565 226.362 39.8005C226.476 39.7028 226.476 39.3283 226.362 39.0677C226.035 38.286 226.018 37.4718 226.116 36.6249C226.378 34.4428 226.018 32.2443 226.165 30.0621C226.231 29.0687 226.378 28.0753 226.084 27.0819C226.018 26.854 226.084 26.6423 226.165 26.4143C226.329 25.8606 226.411 25.3069 226.264 24.7369C226.035 23.7435 226.198 22.7501 226.427 21.773C226.492 21.4962 226.443 21.2682 226.411 21.0239C226.345 20.6331 226.215 20.226 226.264 19.8351C226.378 18.7115 226.46 17.6041 226.165 16.513C226.165 16.4641 226.149 16.399 226.165 16.3339C226.59 14.9496 226.231 13.5654 226.215 12.1649C226.215 10.683 226.394 9.20103 226.427 7.7191C226.443 6.85599 226.182 5.9766 226.28 5.12978C226.411 4.00612 226.427 2.89874 226.476 1.79136C226.476 1.35167 226.558 0.928256 226.737 0.537416C227.032 -0.146553 227.309 -0.211693 227.898 0.293142C228.437 0.765406 228.797 1.33538 228.96 2.03564C229.238 3.24072 229.401 4.4621 229.287 5.89518L229.156 5.92775Z" fill="#28716B"/>
<path fill-rule="evenodd" clip-rule="evenodd" d="M52.5039 135.084C52.9288 127.218 52.7 119.483 52.7163 111.764C52.7653 90.5282 52.749 69.2926 52.7653 48.0733C52.7653 45.9399 53.37 43.888 53.6642 41.8036C53.7296 41.3801 54.0238 40.7125 54.5467 40.8427C55.0697 40.973 55.511 41.3801 55.3476 42.1944C55.0861 43.4972 55.2985 44.8488 55.462 46.1679C55.609 47.3079 55.3475 48.4315 55.2822 49.5552C55.2168 50.6626 55.5437 51.7537 55.3476 52.8448C55.0043 54.8153 55.3802 56.802 55.4293 58.7562C55.4946 61.4758 55.1351 64.1954 55.3476 66.9313C55.4783 68.5109 55.2168 70.1231 55.2985 71.7028C55.3802 72.973 55.4129 74.2595 55.3802 75.5298C55.3312 77.2071 55.6581 78.8682 55.4456 80.5293C55.2168 82.4672 55.0861 84.4051 55.3149 86.3267C55.5273 88.0529 55.2005 89.7466 55.4293 91.4728C55.5437 92.287 55.2658 93.1501 55.3149 93.9969C55.4129 95.8046 55.2005 97.6122 55.4783 99.4036C55.4783 99.485 55.5437 99.599 55.511 99.6478C54.8899 100.609 55.4783 101.7 55.1678 102.693C55.0861 102.97 55.1678 103.312 55.2495 103.605C55.6254 105.168 55.0043 106.797 55.56 108.36C55.56 108.393 55.56 108.425 55.56 108.442C54.939 109.663 55.4293 110.982 55.2331 112.252C55.1024 113.099 55.3475 114.044 55.2822 114.939C55.1678 116.21 55.2658 117.496 55.2822 118.75C55.3149 120.053 55.0861 121.372 55.3476 122.691C55.5273 123.603 55.4293 124.596 55.3312 125.541C55.2822 126.03 55.2495 126.485 55.3802 126.974C55.6417 127.984 55.3312 128.977 55.3312 129.97C55.3312 131.452 55.3312 132.934 55.3639 134.416C55.3966 135.41 55.0861 136.208 54.2035 136.761C53.272 137.348 52.6509 137.103 52.5039 136.028C52.4548 135.654 52.4548 135.279 52.4385 135.068L52.5039 135.084Z" fill="#28716B"/>
<path fill-rule="evenodd" clip-rule="evenodd" d="M205.982 30.3226C206.194 29.0361 206.129 27.7007 205.884 26.3817C205.802 25.9745 206.096 25.6814 206.08 25.3231C206.047 24.1506 206.047 22.9781 206.014 21.8056C205.998 21.2193 205.933 20.6656 206.178 20.0957C206.276 19.8839 206.276 19.5745 206.194 19.3303C205.933 18.4672 205.965 17.6529 206.178 16.7409C206.358 15.9755 206.113 15.0799 205.982 14.2493C205.916 13.7771 205.9 13.3699 206.064 12.8814C206.276 12.2626 206.309 11.4972 206.129 10.8295C205.949 10.1618 205.688 9.39641 205.916 8.84272C206.292 7.89819 205.884 7.06766 205.916 6.23713C205.998 4.72262 205.965 3.11041 206.766 1.7099C206.93 1.41677 206.995 0.977075 207.42 0.99336C207.78 0.99336 208.008 1.31906 208.188 1.61219C208.826 2.62186 208.858 3.81066 208.924 4.93433C209.005 6.44883 209.185 7.93076 209.022 9.47784C208.924 10.4712 209.12 11.5297 209.185 12.5557C209.267 13.8096 209.185 15.0473 209.103 16.285C209.022 17.3761 209.348 18.4183 209.201 19.5257C208.907 21.659 209.414 23.8249 209.071 25.9582C209.022 26.3165 209.103 26.6422 209.136 26.9842C209.283 29.2152 209.136 31.4137 208.662 33.6122C208.515 34.3124 208.09 34.6707 207.371 34.801C206.685 34.915 206.243 34.7033 206.031 34.0682C205.9 33.6773 205.573 33.5959 205.263 33.3842C204.446 32.8468 203.661 32.1954 202.991 31.4789C202.631 31.1043 202.272 30.7623 201.847 30.4692C200.719 29.7201 199.575 28.9873 198.448 28.2056C197.712 27.6845 197.058 27.0493 196.339 26.5119C195.261 25.6977 194.28 24.7532 193.202 23.9226C192.025 23.0269 190.93 22.0173 189.704 21.1867C188.053 20.0794 186.517 18.8091 184.916 17.6529C184.213 17.1318 183.494 16.5618 182.628 16.2035C181.892 15.8941 181.238 15.3404 180.65 14.803C180.16 14.3633 179.62 13.9725 179.065 13.6305C178.362 13.2071 177.627 12.7837 177.169 12.0997C176.368 10.9272 175.093 10.3572 174.064 9.46155C173.672 9.11957 173.067 8.973 172.593 8.74501C171.972 8.45188 171.514 8.1099 171.057 7.62135C170.762 7.29565 170.338 7.06766 169.929 6.87224C168.752 6.28598 167.837 5.2926 166.726 4.60863C166.17 4.26664 166.056 3.5501 165.794 2.98013C165.712 2.80099 165.86 2.73585 166.007 2.70328C167.412 2.44272 168.818 2.58929 169.847 3.56639C171.138 4.77148 172.658 5.66715 174.015 6.75825C174.783 7.37708 175.698 7.93076 176.711 8.24018C177.479 8.46817 177.97 9.15214 178.493 9.68954C179.669 10.9109 181.042 11.8554 182.333 12.9303C183.151 13.6142 184.262 13.9399 184.948 14.6239C186.19 15.8616 187.776 16.513 189.099 17.5715C190.587 18.7603 191.845 20.3888 193.839 20.8936C194.542 22.1476 195.98 22.5384 196.911 23.5644C197.663 24.3949 198.676 24.9811 199.592 25.6814C199.869 25.8931 200.147 26.0722 200.392 26.3328C201.357 27.4239 202.582 28.173 203.857 28.8407C204.004 28.9221 204.184 29.0035 204.282 29.1338C204.707 29.7526 205.246 30.1923 205.982 30.3552V30.3226Z" fill="#29716B"/>
<path fill-rule="evenodd" clip-rule="evenodd" d="M214.513 129.335C215.543 129.824 216.785 129.466 217.994 129.677C218.664 129.791 219.367 129.677 219.972 129.172C220.821 128.505 221.851 128.375 222.897 128.456C223.42 128.505 223.632 128.912 223.714 129.417C223.829 130.133 223.289 130.508 222.864 130.687C222.227 130.931 221.639 131.257 221.018 131.518C220.266 131.827 219.351 131.811 218.501 131.811C216.899 131.811 215.297 131.746 213.712 131.68C212.486 131.632 211.212 131.355 209.953 131.159C209.479 131.094 209.185 130.768 209.12 130.296C209.005 129.547 208.924 128.814 208.891 128.049C208.793 125.671 209.675 123.31 209.234 120.997C209.022 119.857 209.038 118.75 209.054 117.675C209.087 116.324 209.054 114.972 209.169 113.62C209.201 113.213 209.071 112.839 209.054 112.432C208.989 111.21 208.973 110.005 209.414 108.833C209.496 108.621 209.577 108.311 209.463 108.165C208.597 107.057 209.201 105.836 209.185 104.68C209.152 102.97 209.071 101.26 209.185 99.5664C209.267 98.1496 208.924 96.7328 209.103 95.3486C209.365 93.3944 208.973 91.4727 209.201 89.5674C209.332 88.5903 208.76 87.7109 209.103 86.7175C209.267 86.2615 209.103 85.7567 209.365 85.203C209.561 84.7959 209.512 83.9816 209.365 83.5419C209.12 82.7114 209.447 81.9623 209.316 81.1969C209.103 79.9104 209.3 78.6239 209.201 77.3374C209.038 75.3343 209.496 73.3313 209.872 71.3445C210.068 70.3837 210.754 69.83 211.375 69.9603C212.045 70.1068 212.634 71.2305 212.568 72.0285C212.421 73.7547 212.274 75.4809 212.568 77.2234C212.683 77.9073 212.258 78.4936 212.323 79.2101C212.486 81.1481 212.519 83.1348 212.388 85.0727C212.274 86.7501 212.274 88.4274 212.307 90.0885C212.356 91.7659 212.094 93.4432 212.372 95.1206C212.454 95.658 212.339 96.2442 212.225 96.7816C212.127 97.2213 212.111 97.6447 212.225 98.0519C212.503 99.1267 212.454 100.218 212.339 101.293C212.209 102.612 212.552 103.914 212.405 105.217C212.307 106.097 212.437 107.009 212.16 107.855C212.078 108.132 212.111 108.344 212.176 108.588C212.405 109.484 212.535 110.38 212.241 111.292C212.192 111.422 212.176 111.585 212.192 111.715C212.454 114.027 212.307 116.372 212.307 118.685C212.307 120.574 212.388 122.463 212.307 124.352C212.274 125.118 212.176 125.932 212.437 126.681C212.634 127.283 212.143 127.707 212.111 128.277C212.078 128.83 211.98 129.107 212.699 129.075C213.255 129.042 213.778 129.466 214.513 129.319V129.335Z" fill="#29716B"/>
<path fill-rule="evenodd" clip-rule="evenodd" d="M142.881 78.803C142.881 78.1354 142.571 77.6305 142.015 77.2397C141.541 76.914 141.59 76.3929 141.753 75.9532C141.901 75.546 141.802 75.3995 141.459 75.2203C140.773 74.8458 140.413 74.2595 140.413 73.4616C140.413 73.0219 140.07 72.8427 139.743 72.6473C139.416 72.4519 139.171 72.2239 139.139 71.7842C138.959 69.6346 137.749 67.9735 136.475 66.3613C136.279 66.1007 136.229 65.7099 136.001 65.4819C135.167 64.6677 134.906 63.7231 135.036 62.5669C135.102 61.9806 134.366 61.5084 134.579 60.743C133.402 62.2738 131.604 63.1532 130.771 64.9119C130.575 65.3354 130.33 65.7099 129.986 66.0356C129.611 66.4102 129.218 66.3125 128.81 66.1007C128.352 65.8565 128.417 65.4168 128.581 65.1399C128.908 64.6025 128.94 63.9023 129.512 63.4952C129.578 63.4463 129.66 63.3486 129.66 63.2997C129.349 61.6549 131.049 61.4432 131.735 60.515C132.095 60.0264 132.471 59.603 132.34 59.0656C132.046 57.9583 132.536 57.0463 132.928 56.118C133.075 55.7923 132.994 55.6784 132.83 55.4992C132.389 55.0107 131.98 54.4895 131.523 54.0173C130.869 53.3496 130.934 52.4702 130.689 51.6722C130.346 50.5486 129.856 49.4738 129.48 48.3501C129.365 48.0081 129.055 47.4382 129.545 47.2753C130.052 47.0962 130.673 46.7868 131.245 47.2427C131.915 47.7801 132.405 48.4315 132.552 49.3109C132.683 50.174 132.977 50.9557 133.647 51.5745C134.089 51.9817 133.974 52.6819 134.448 53.1379C135.2 53.887 135.445 53.9033 135.935 52.9262C136.328 52.1445 136.344 51.2814 136.573 50.4509C136.851 49.4738 137.128 48.5618 137.913 47.7964C138.403 47.3079 138.714 46.6402 138.55 45.7445C138.419 44.9303 138.567 43.9369 139.4 43.3343C139.694 43.1226 139.727 42.8132 139.874 42.5527C140.168 42.0153 140.642 41.7221 141.132 41.9827C141.557 42.1944 141.966 42.7481 141.737 43.2692C141.198 44.5394 141.23 45.7608 141.655 47.031C141.753 47.3242 141.508 47.601 141.427 47.8616C141.083 49.0667 139.531 49.5715 139.662 51.0046C139.662 51.1348 139.563 51.2977 139.58 51.428C139.809 52.8936 138.991 53.887 137.995 54.7338C137.423 55.2224 137.112 55.8575 136.703 56.4112C136.475 56.7206 136.426 57.1766 136.605 57.486C137.373 58.7399 137.455 60.1404 137.586 61.541C137.749 63.202 138.534 64.6025 139.563 65.9216C140.495 67.1267 141.263 68.4784 141.753 69.9277C142.374 71.7679 143.535 73.315 144.401 75.0412C144.826 75.9043 145.757 76.2463 146.689 76.5069C147.67 76.7837 148.519 77.4188 149.5 77.7282C149.925 77.8585 149.909 78.4122 149.925 78.7705C149.941 79.0799 149.582 79.2427 149.271 79.373C148.291 79.8127 147.326 79.6661 146.395 79.3079C145.807 79.0799 145.839 79.373 145.839 79.7639C145.839 81.2458 145.888 82.744 145.774 84.2259C145.708 85.0565 145.659 85.887 145.349 86.6687C145.104 87.2712 144.842 87.9715 143.943 87.7435C143.339 87.5969 142.848 86.5547 142.816 85.887C142.75 84.6656 143.028 83.428 142.897 82.2717C142.799 81.3109 142.996 80.3013 142.603 79.3567C142.554 79.2265 142.522 79.0147 142.718 78.9008C142.767 78.9333 142.816 78.9659 142.865 78.9985C142.865 78.9333 142.865 78.8682 142.865 78.803H142.881Z" fill="#29716B"/>
<path fill-rule="evenodd" clip-rule="evenodd" d="M225.087 83.5908C224.809 85.659 225.185 87.7272 225.087 89.8117C225.022 91.4402 225.218 93.1175 225.087 94.746C225.005 95.8045 225.316 96.8631 224.972 97.9053C224.858 98.2473 224.825 98.6544 224.874 99.0127C225.25 101.911 225.005 104.826 224.972 107.725C224.972 108.246 225.201 108.767 225.152 109.24C225.005 110.347 225.169 111.438 225.087 112.546C224.972 113.865 225.054 115.2 225.169 116.535C225.234 117.382 224.907 118.229 224.972 119.092C225.071 120.379 225.136 121.681 225.234 122.984C225.316 124.206 225.234 125.378 224.564 126.453C224.057 127.235 223.338 127.3 222.733 126.583C222.194 125.964 221.851 125.313 222.047 124.401C222.178 123.75 222.096 123.033 221.982 122.365C221.622 120.46 222.145 118.555 221.982 116.682C221.916 115.933 221.802 115.053 221.884 114.402C222.014 113.392 221.704 112.415 221.9 111.454C222.178 110.054 222.112 108.702 221.884 107.334C221.786 106.748 222.358 106.243 222.194 105.608C222.031 104.908 222.194 104.159 222.08 103.491C221.769 101.814 222.439 100.136 221.916 98.4916C221.851 98.2799 221.916 98.2147 222.031 98.0682C222.161 97.889 222.358 97.6285 222.21 97.4493C221.671 96.7491 221.933 95.9185 221.933 95.202C221.949 94.0458 221.769 92.8407 222.178 91.7007C222.227 91.5542 222.26 91.4402 222.21 91.3099C221.753 89.7954 222.014 88.2972 222.129 86.7664C222.194 85.9847 222.276 85.1216 221.884 84.2748C221.622 83.7048 221.688 82.8905 221.818 82.2392C222.276 80.1221 221.884 78.0376 221.769 75.9369C221.704 74.5364 221.884 73.1684 222.505 71.8982C222.848 71.1816 223.502 71.3282 224.09 71.3771C224.678 71.4259 224.613 71.9633 224.646 72.3053C224.891 74.4875 225.218 76.6697 225.267 78.8682C225.299 80.2361 225.201 81.6366 225.169 83.0045C225.169 83.1674 225.038 83.314 224.972 83.4605C224.972 83.5419 224.972 83.6397 224.989 83.7211C225.038 83.6722 225.087 83.6397 225.136 83.5908H225.087Z" fill="#28716B"/>
<path fill-rule="evenodd" clip-rule="evenodd" d="M125.868 27.8312C124.757 27.7009 123.858 27.9777 122.975 28.1243C121.586 28.3686 120.18 28.6454 118.808 28.9874C117.369 29.3294 115.948 29.7691 114.493 30.0296C112.417 30.3879 110.342 30.8276 108.25 31.1696C106.665 31.4138 105.112 32.0001 103.56 32.4561C102.84 32.6678 102.072 32.6352 101.353 32.7818C100.275 32.9935 99.1469 32.8469 98.1173 33.368C97.006 33.938 95.7475 33.7263 94.5708 33.9869C93.0836 34.3289 91.531 34.3614 90.0928 34.964C89.3737 35.2734 88.5566 35.1105 87.7721 35.2571C85.4187 35.7294 83.0653 36.1202 80.6956 36.4948C79.4371 36.6902 78.1787 37.0159 76.904 37.195C74.2073 37.5696 71.6251 38.3838 68.9776 38.9538C68.1931 39.1166 67.4413 39.4261 66.6732 39.6378C65.0062 40.1263 63.2738 40.3869 61.5905 40.8429C60.757 41.0708 59.9398 41.0383 59.1063 40.9894C58.5343 40.9569 58.0113 40.8266 57.9133 40.2403C57.8152 39.5889 58.2892 39.2144 58.8939 39.0841C60.4465 38.7584 61.9991 38.4164 63.568 38.1558C64.3852 38.0093 65.1696 37.7324 65.9214 37.4556C67.5394 36.8367 69.2554 36.6902 70.8897 36.1691C72.8345 35.5502 74.8938 35.3711 76.8876 34.9965C77.7375 34.8337 78.669 34.7848 79.4535 34.5731C81.1695 34.1172 82.9346 34.2149 84.6669 33.71C87.0203 33.0261 89.5208 32.8144 91.9233 32.2607C94.4074 31.6907 96.9569 31.4953 99.4574 30.9253C100.552 30.6647 101.729 30.681 102.84 30.339C104.36 29.8831 105.946 29.6225 107.466 29.1665C108.626 28.8083 109.835 28.8245 111.012 28.5314C113.186 27.994 115.392 27.4892 117.566 26.968C119.134 26.5935 120.736 26.0887 122.419 26.1701C123.269 26.2189 124.119 26.0072 124.969 25.8607C125.296 25.8118 125.59 25.8281 125.917 25.8607C126.669 25.9258 126.881 26.4795 126.848 27.082C126.816 27.766 126.211 27.7823 125.884 27.8312H125.868Z" fill="#28716B"/>
<path fill-rule="evenodd" clip-rule="evenodd" d="M181.222 69.6508C179.898 69.5531 178.574 70.0091 177.234 70.0417C175.502 70.0742 173.769 70.1882 172.021 70.0091C170.288 69.83 168.54 69.9277 166.807 70.0091C165.042 70.1068 163.31 70.4651 161.545 70.4814C160.989 70.4814 160.483 70.2697 159.943 70.172C159.616 70.1231 159.306 69.8788 159.257 69.488C159.208 69.1134 159.584 69.0809 159.796 68.9017C160.695 68.0549 161.855 68.3806 162.901 68.2666C166.056 67.9083 169.226 67.7944 172.38 67.9246C174.08 67.9898 175.747 68.1689 177.414 67.8106C178.787 67.5175 180.176 67.9409 181.565 67.5664C183.412 67.0615 185.291 67.0127 187.187 67.1755C187.906 67.2407 188.658 67.029 189.393 66.915C190.113 66.8173 190.815 66.7358 191.502 67.0615C192.27 67.4035 193.038 67.0615 193.79 66.9964C195.718 66.8824 197.663 66.915 199.575 66.6381C201.259 66.4101 202.975 66.2473 204.674 66.1821C207.207 66.1007 209.741 66.2147 212.257 66.1496C214.055 66.1007 215.853 66.2636 217.651 66.0519C218.386 65.9704 219.154 66.2961 219.922 66.345C221.034 66.4264 222.031 65.8727 223.142 65.9867C223.828 66.0519 224.204 66.3124 224.319 66.9801C224.433 67.6641 223.975 67.8921 223.452 68.0386C221.884 68.4458 220.282 68.4783 218.697 68.2992C217.356 68.1526 216.016 68.1689 214.693 68.2178C212.666 68.2829 210.623 68.2503 208.597 68.2829C207.436 68.3155 206.26 68.3806 205.083 68.2341C204.396 68.1526 203.661 68.3155 202.958 68.3643C200.883 68.5109 198.823 68.804 196.748 68.918C194.77 69.0157 192.793 69.2437 190.832 68.9017C190.162 68.7877 189.541 69.0972 188.887 69.1949C188.004 69.3251 187.122 69.4554 186.239 69.3089C184.736 69.0483 183.297 69.5369 181.827 69.602C181.663 69.602 181.483 69.6183 181.255 69.6508H181.222Z" fill="#28716B"/>
<path fill-rule="evenodd" clip-rule="evenodd" d="M143.339 118.245C142.718 117.415 142.603 116.34 142.652 115.444C142.718 114.549 142.554 113.637 142.734 112.741C143.028 111.292 142.521 109.826 142.75 108.36C142.963 107.123 142.816 105.852 143.192 104.631C143.306 104.256 143.486 103.882 143.665 103.54C143.911 103.1 144.188 102.709 144.809 102.872C145.414 103.035 145.365 103.507 145.365 103.98C145.365 119.125 145.365 134.286 145.365 149.447C145.365 150.294 145.185 151.092 144.875 151.874C144.63 152.493 144.368 152.379 144.041 151.971C143.633 151.467 143.404 150.864 143.355 150.229C143.11 147.086 142.685 143.959 142.848 140.816C142.881 140.051 142.93 139.318 142.848 138.536C142.718 137.38 142.75 136.175 143.061 135.019C143.126 134.807 143.175 134.644 143.061 134.465C142.587 133.797 142.554 133.113 142.848 132.364C142.995 131.99 142.979 131.631 142.799 131.208C142.521 130.573 143.077 129.938 142.995 129.27C142.963 128.944 143.159 128.586 142.865 128.293C142.816 128.244 142.767 128.081 142.783 128.081C143.649 127.609 142.636 127.169 142.734 126.665C142.848 126.111 142.652 125.443 142.701 124.955C142.783 124.189 142.407 123.44 142.718 122.691C142.914 122.219 142.979 121.795 142.848 121.258C142.636 120.444 142.897 119.581 142.652 118.734C142.505 118.213 143.044 118.408 143.306 118.359C143.339 118.424 143.355 118.506 143.453 118.441C143.453 118.441 143.388 118.343 143.371 118.278L143.339 118.245Z" fill="#29716B"/>
<path fill-rule="evenodd" clip-rule="evenodd" d="M143.273 51.0208V34.0681C143.273 33.6284 143.159 33.1561 143.747 32.9282C143.992 32.8304 144.074 32.4396 143.829 32.2605C142.734 31.4299 143.322 30.4365 143.519 29.492C143.6 29.1175 143.927 28.808 144.14 28.4661C144.532 27.7984 145.137 28.1729 145.627 28.2055C146.084 28.2381 146.019 28.6941 146.019 29.0198C146.035 30.8111 145.823 32.6187 145.921 34.4101C146.084 37.4391 145.758 40.4518 145.954 43.4645C146.019 44.4091 146.133 45.4839 145.758 46.4447C145.659 46.689 145.758 46.8844 145.839 47.1124C145.986 47.6661 145.954 48.1872 145.823 48.7897C145.659 49.4411 145.758 50.1902 145.888 50.8579C146.101 51.835 146.068 52.7796 145.888 53.7404C145.741 54.5058 145.888 55.2874 145.954 56.0203C146.035 57.0951 145.954 58.1699 145.954 59.2121C145.954 61.2315 145.954 63.2671 145.954 65.2864C145.954 66.9801 146.003 68.6574 145.709 70.3185C145.676 70.465 145.676 70.6116 145.627 70.7419C145.414 71.2467 145.169 71.8656 144.515 71.7678C143.927 71.6701 143.911 71.035 143.829 70.5302C142.718 63.6579 143.6 56.7205 143.29 51.0371L143.273 51.0208Z" fill="#28716B"/>
<path fill-rule="evenodd" clip-rule="evenodd" d="M198.938 62.2086C195.032 62.3715 191.126 61.9969 187.22 61.8666C185.569 61.8015 183.902 61.6549 182.35 60.9547C181.876 60.743 181.582 60.4661 181.745 59.8961C181.925 59.3099 182.301 59.4239 182.791 59.375C184.376 59.2447 185.88 59.8147 187.432 59.7984C189.671 59.7984 191.878 60.2381 194.133 60.2381C196.111 60.2381 198.055 60.173 200 59.8961C200.343 59.8473 200.687 60.0753 200.997 59.8636C201.03 59.6844 200.915 59.5867 200.768 59.5542C199.69 59.2936 198.873 58.5119 197.892 58.0722C197.696 57.9745 197.467 57.828 197.369 57.6325C196.503 55.8412 194.574 55.6621 193.071 54.8804C192.45 54.5547 191.976 54.001 191.224 53.8707C191.061 53.8381 191.11 53.3984 191.224 53.1542C191.289 53.0076 191.387 52.9099 191.633 52.8447C193.365 52.3725 194.64 53.3007 195.947 54.1475C196.356 54.4244 196.797 54.6687 197.271 54.7664C198.333 54.9781 199.069 55.6295 199.739 56.3949C200.18 56.8997 200.654 57.2254 201.357 57.2743C202.223 57.3231 202.811 57.8442 203.269 58.5445C203.612 59.0656 204.021 59.2448 204.691 59.1633C205.851 59.033 207.044 58.6259 208.221 59.2285C208.646 59.4402 209.201 59.5053 209.724 59.2773C210.362 59.0005 211.048 59.1308 211.718 59.147C212.372 59.147 212.813 59.2773 212.928 60.0264C213.042 60.7755 212.421 60.9872 212.012 61.0524C210.509 61.2967 209.022 61.9643 207.42 61.2315C206.488 60.7918 205.442 61.3944 204.429 61.3129C204.364 61.3129 204.217 61.4432 204.217 61.5246C204.021 62.7786 202.926 63.2183 201.994 63.43C200.523 63.772 199.281 64.4722 198.006 65.1888C197.124 65.6773 196.192 65.4005 195.261 65.2539C196.552 64.3257 197.696 63.2671 199.085 62.5343C199.412 62.2412 199.918 62.2086 200.262 61.7852C199.673 61.7038 199.33 62.0783 198.905 62.1923L198.938 62.2086Z" fill="#29716B"/>
<path fill-rule="evenodd" clip-rule="evenodd" d="M131.196 130.101C131.13 129.514 131.196 129.189 131.49 128.879C132.176 128.147 132.471 127.251 132.667 126.241C132.993 124.548 133.484 122.886 133.99 121.242C134.138 120.786 133.974 120.541 133.696 120.411C133.353 120.248 133.124 120.493 133.075 120.867C133.043 121.079 132.846 121.111 132.716 121.193C132.029 121.698 131.294 122.154 130.624 122.691C130.052 123.147 129.463 123 128.875 122.87C128.663 122.821 128.597 122.268 128.728 121.633C128.859 120.981 129.235 120.509 129.807 120.118C131.245 119.092 131.948 117.561 132.569 115.965C132.928 115.021 133.549 114.158 134.513 113.685C134.987 113.457 134.987 112.953 135.233 112.594C135.837 111.715 136.164 110.738 136.458 109.663C136.899 107.969 137.455 106.194 139.008 105.022C139.547 104.615 140.021 104.094 140.511 103.605C140.887 103.247 141.328 102.775 141.835 103.165C142.325 103.556 142.44 104.208 142.195 104.81C142.064 105.152 141.868 105.576 141.574 105.706C140.315 106.26 140.658 107.481 140.283 108.409C139.76 109.696 139.874 111.226 138.877 112.366C138.648 112.627 138.599 113.034 138.485 113.392C138.387 113.702 138.256 114.011 137.929 114.109C137.145 114.337 136.687 114.988 136.099 115.444C135.903 115.607 135.755 115.949 135.919 116.128C136.327 116.617 136.115 117.073 136.001 117.578C135.935 117.871 136.001 118.213 136.05 118.506C136.671 121.242 136.409 123.88 135.38 126.502C134.971 127.577 134.366 128.554 134.023 129.661C133.778 130.459 132.389 131.094 131.588 130.931C130.951 130.785 131.196 130.264 131.147 130.084L131.196 130.101Z" fill="#29716B"/>
<path fill-rule="evenodd" clip-rule="evenodd" d="M86.7264 36.8693C88.4587 36.7227 89.9133 37.6184 91.4822 38.0744C92.9531 38.4978 94.3749 39.0678 95.8622 39.4749C97.3984 39.882 99.0491 39.882 100.487 40.68C100.863 40.8917 101.37 40.9405 101.827 40.9568C102.873 40.9894 103.707 41.5105 104.573 41.9991C105.08 42.2759 105.668 42.5039 106.207 42.6505C108.414 43.253 110.506 44.1975 112.679 44.8326C113.627 45.1095 114.608 45.6306 115.686 45.4352C116.667 45.2561 117.435 45.9726 118.35 46.1517C119.102 46.3146 119.69 46.9334 120.573 46.8683C120.916 46.8357 120.965 47.5848 120.965 48.0245C120.965 48.2362 120.998 48.4153 120.606 48.5945C119.216 49.2459 117.974 48.5945 116.928 48.0896C115.474 47.4057 113.921 47.4708 112.483 46.966C110.963 46.4286 109.313 46.3472 107.923 45.3701C107.531 45.0932 106.959 45.0606 106.452 44.9466C105.145 44.6372 103.87 44.2952 102.661 43.6927C101.697 43.2041 100.569 43.0087 99.5067 42.6993C96.9735 41.9665 94.4076 41.2825 91.8581 40.5986C90.7631 40.3054 89.6354 39.9309 88.6222 39.2958C88.0992 38.9701 87.3801 39.084 86.7917 38.7746C86.6773 38.7095 86.5139 38.7095 86.3832 38.6769C85.7621 38.5141 85.4353 38.1232 85.5497 37.4881C85.6804 36.8204 86.2361 36.9507 86.71 36.9019L86.7264 36.8693Z" fill="#29716B"/>
<path fill-rule="evenodd" clip-rule="evenodd" d="M160.189 2.94771C160.385 3.9411 159.943 4.91819 160.058 5.89529C160.189 7.06781 160.107 8.24033 160.319 9.41285C160.499 10.3737 160.074 11.3833 160.189 12.3767C160.352 13.7935 159.894 15.1614 160.123 16.5945C160.319 17.8322 160.254 19.1187 160.041 20.3726C159.976 20.7961 159.682 21.2358 159.241 21.3009C158.734 21.3823 158.391 20.9589 158.211 20.5518C157.884 19.819 157.753 19.021 157.672 18.223C157.329 14.966 157.623 11.6927 157.753 8.43575C157.852 5.97672 157.786 3.51769 158.44 1.09122C158.62 0.439823 158.996 0.358398 159.469 0.358398C160.009 0.358398 160.172 0.781808 160.189 1.25407C160.189 1.82405 160.189 2.37774 160.189 2.94771Z" fill="#2C726C"/>
<path fill-rule="evenodd" clip-rule="evenodd" d="M130.428 152.118C129.97 152.265 129.627 152.004 129.496 151.548C129.284 150.848 129.823 150.408 130.33 150.31C131.67 150.05 133.059 149.773 134.252 150.783C134.742 151.19 135.363 151.06 135.919 151.206C137.341 151.581 138.812 151.792 140.25 152.118C140.756 152.232 141.247 152.428 141.77 152.525C142.325 152.623 142.423 153.307 142.342 153.812C142.26 154.333 141.753 154.463 141.263 154.447C140.168 154.414 139.122 154.105 138.06 153.812C136.916 153.502 135.706 153.437 134.513 153.274C134.285 153.242 134.088 153.144 133.892 153.014C133.68 152.884 133.386 152.672 133.206 152.721C132.536 152.932 132.062 152.542 131.523 152.314C131.212 152.183 130.869 151.923 130.411 152.118H130.428Z" fill="#2C726C"/>
<path fill-rule="evenodd" clip-rule="evenodd" d="M145.529 95.4627C145.463 96.5537 145.447 97.6286 145.349 98.7197C145.234 99.9247 144.613 100.495 143.78 100.234C143.306 100.088 142.848 99.713 142.865 99.3059C142.897 98.5079 142.472 97.7426 142.767 96.9609C142.865 96.7003 142.848 96.4072 142.832 96.1141C142.75 94.4041 142.865 92.7105 143.11 91.0169C143.208 90.3817 143.502 89.8118 144.221 89.8118C144.973 89.8118 145.202 90.398 145.316 91.0169C145.594 92.4988 145.529 93.9807 145.529 95.4627Z" fill="#2C726C"/>
<path fill-rule="evenodd" clip-rule="evenodd" d="M198.938 62.2086C199.363 62.0946 199.722 61.7201 200.294 61.8015C199.951 62.2249 199.445 62.2412 199.118 62.5506C199.052 62.4366 199.003 62.3226 198.938 62.2086Z" fill="#D1D8D5"/>
<path fill-rule="evenodd" clip-rule="evenodd" d="M33.8728 73.7385L33.9055 73.7548H33.8891L33.8728 73.7385Z" fill="#29716B"/>
<path fill-rule="evenodd" clip-rule="evenodd" d="M120.753 65.2052C120.655 65.1563 120.655 65.0912 120.72 65.0098L120.818 65.1238C120.818 65.1238 120.785 65.1726 120.753 65.2052Z" fill="white"/>
<path fill-rule="evenodd" clip-rule="evenodd" d="M142.881 78.8031C142.881 78.8031 142.881 78.9334 142.881 78.9986C142.832 78.966 142.783 78.9334 142.734 78.9009C142.783 78.8683 142.832 78.8357 142.881 78.7869V78.8031Z" fill="white"/>
<path fill-rule="evenodd" clip-rule="evenodd" d="M225.087 83.5907C225.087 83.5907 224.989 83.6722 224.94 83.721C224.94 83.6396 224.94 83.5419 224.923 83.4604C224.972 83.5093 225.038 83.5419 225.087 83.5907Z" fill="white"/>
<path fill-rule="evenodd" clip-rule="evenodd" d="M143.339 118.245C143.339 118.245 143.437 118.408 143.421 118.408C143.322 118.473 143.306 118.408 143.273 118.327C143.29 118.294 143.306 118.278 143.322 118.245H143.339Z" fill="white"/>
</g>
<defs>
<clipPath id="clip0_35_13313">
<rect width="229.065" height="160" fill="white" transform="translate(0.467529)"/>
</clipPath>
</defs>
</svg>
