<svg width="190" height="91" viewBox="0 0 190 91" fill="none" xmlns="http://www.w3.org/2000/svg">
<g clip-path="url(#clip0_35_13269)">
<path fill-rule="evenodd" clip-rule="evenodd" d="M189.829 59.5442C189.503 58.8707 188.82 58.4407 188.579 57.7242C188.394 57.151 187.982 56.8357 187.527 56.5348C186.646 55.9472 185.992 55.1303 185.821 54.0985C185.722 53.511 185.494 53.3247 185.025 53.1814C183.618 52.7228 182.125 52.7085 180.676 52.3788C179.922 52.2069 179.24 52.0636 178.913 51.2467C178.799 50.9744 178.543 50.8168 178.259 50.7308C177.946 50.6448 177.605 50.6018 177.307 50.4729C177.051 50.3726 176.767 50.2436 176.781 49.8853C176.781 49.6847 176.753 49.484 176.98 49.3407C177.435 49.0398 178.984 49.1688 179.482 49.3837C180.15 49.6703 180.619 50.2292 181.287 50.4872C182.708 51.0174 184.229 51.0174 185.707 51.2037C186.162 51.2611 186.475 50.8311 186.375 50.3869C186.233 49.785 186.304 49.1974 186.248 48.6099C186.205 48.2086 186.233 47.7214 185.906 47.4491C185.039 46.7182 184.471 45.7867 184.03 44.7549C183.717 44.0097 183.263 43.3362 182.865 42.634C182.31 41.6595 181.671 40.814 180.903 40.0114C180.192 39.2806 179.354 38.693 178.629 37.9622C178.387 37.7185 178.103 37.6469 177.79 37.7042C176.88 37.8762 175.971 38.0338 175.047 37.9478C173.483 37.8189 171.863 38.0625 170.427 37.1883C170.271 37.088 170.029 37.1023 169.83 37.0593C168.238 36.7584 166.589 36.9447 165.026 36.2281C164.443 35.9559 164.059 35.5259 163.846 35.1247C163.491 34.4655 163.121 33.7059 163.206 32.8604C163.235 32.5595 163.206 32.1869 162.908 32.0149C162.339 31.6853 162.197 31.0834 161.913 30.5818C161.657 30.1089 161.316 29.7077 160.89 29.4497C159.653 28.7188 158.715 27.6297 157.492 26.8559C155.673 25.7094 153.925 24.5343 151.693 24.434C151.21 24.4196 150.698 24.4626 150.243 24.3193C148.466 23.7461 146.675 23.8177 144.856 24.004C144.174 24.0757 143.477 24.0757 142.838 24.3337C141.686 24.7922 140.492 24.6203 139.327 24.6059C138.147 24.6059 136.925 24.305 135.802 24.5056C133.854 24.8639 131.879 24.5773 129.931 24.8639C128.609 25.0645 128.254 24.7206 127.685 23.4881C127.543 23.1585 127.373 22.8146 127.159 22.5423C126.719 21.9977 126.591 21.4245 126.634 20.7366C126.676 20.0488 126.719 19.3466 126.236 18.7303C125.838 18.2288 125.454 17.6985 125.127 17.154C124.43 16.0218 123.535 14.9757 122.355 14.5458C121.09 14.0872 119.697 13.8292 118.29 13.9152C116.698 14.0155 115.177 14.6174 113.613 14.7607C112.32 14.8897 110.927 15.0617 109.79 14.0585C109.591 13.8866 109.335 13.8579 109.079 13.7863C107.331 13.299 105.582 12.8261 103.919 12.0666C102.128 11.2497 101.332 9.48704 100.949 7.89633C100.565 6.29129 99.2145 5.6894 98.6175 4.4283C98.5749 4.35665 98.447 4.31365 98.3475 4.28499C97.2814 4.0557 96.457 3.29617 95.4762 2.92357C94.3675 2.49365 93.3441 1.8631 92.1359 1.61948C91.1693 1.43318 90.2028 1.51917 89.2504 1.39019C87.3031 1.14657 85.4411 0.544677 83.5079 0.20074C82.0865 -0.0572124 80.6367 -0.157527 79.2295 0.0144411C77.7797 0.20074 76.3867 0.788299 75.0363 1.43318C74.1124 1.8631 73.1316 2.16405 72.2077 2.59397C71.6818 2.83759 70.9853 2.65129 70.6157 3.32483C70.2604 3.98405 69.5639 4.22767 68.8816 4.35665C67.4034 4.62893 65.8824 4.57161 64.3758 4.70058C63.3097 4.8009 62.1868 4.6146 61.1349 4.92987C60.012 5.27381 58.7896 5.44578 57.8799 6.30562C56.8138 7.30877 55.7478 8.29759 54.6959 9.31507C53.6441 10.3182 52.5496 11.2784 51.6115 12.4248C51.2846 12.8118 50.8866 13.2703 50.2469 13.4423C49.3088 13.6859 48.3707 14.0585 47.532 14.5171C46.864 14.8754 46.1817 14.947 45.5421 14.99C43.4242 15.1477 41.4342 14.5028 39.4868 13.7289C38.435 13.3133 37.7812 13.4853 37.0847 14.4025C36.843 14.7177 36.5872 15.1047 36.2176 15.119C35.2795 15.1333 34.384 15.42 33.4459 15.4916C32.3798 15.5633 31.3137 15.3483 30.2335 15.4486C28.2293 15.6349 26.1967 15.6206 24.2493 15.1477C22.6289 14.7607 20.9801 14.6461 19.3597 14.3595C18.9617 14.2878 18.521 14.1589 18.1088 14.3308C17.1991 14.7034 16.1899 14.8754 15.3939 15.5059C14.5695 16.1508 13.4324 16.0648 12.6222 16.7814C12.3237 17.0393 12.1247 17.4406 11.6698 17.5409C9.97836 17.8992 8.27266 17.7702 6.66647 17.2973C5.77098 17.025 4.93235 16.939 4.0795 17.111C3.59622 17.2113 3.02766 17.2543 2.62966 17.7129C2.10374 18.3434 1.5636 18.9596 1.10875 19.6618C0.582828 20.4644 0.113763 21.2239 0.525972 22.313C0.79604 23.0439 1.19403 24.0327 0.639685 24.6633C-0.113663 25.5231 0.213261 26.4976 4.97587e-05 27.3861C-0.213162 28.3033 0.412259 29.1058 1.05189 29.765C1.29353 30.0086 1.53517 30.2236 1.60624 30.5818C1.91895 31.9289 2.10374 33.2903 1.77681 34.6661C1.71996 34.9097 1.4641 35.182 1.62046 35.397C2.13217 36.0705 1.71996 36.83 1.89053 37.5179C1.89053 37.6899 1.90474 37.8475 1.89053 37.9908C1.73417 38.9366 2.08952 39.5529 2.95658 39.9685C3.56779 40.2694 4.16478 40.6563 4.70492 41.0863C6.05526 42.1754 7.46246 42.7773 9.21079 42.1611C9.5235 42.0464 9.76514 41.9604 9.86464 41.6165C10.0636 40.857 10.7175 40.3984 11.0444 39.6818C11.215 39.2949 11.7835 38.6787 11.7551 38.4207C11.5703 37.1166 12.4943 36.3858 13.0344 35.4829C13.3471 34.9527 13.8588 34.5944 14.3847 34.2505C15.1807 33.7346 15.3371 34.4511 15.6924 34.8237C16.0904 35.2393 15.7919 35.4829 15.5076 35.7839C14.868 36.4144 14.1715 37.045 14.6974 38.1055C14.7685 38.2344 14.7969 38.4207 14.7543 38.564C14.6264 38.9366 14.8112 38.994 15.1096 39.0226C15.8772 39.08 16.6163 38.8507 17.3413 38.6644C18.3363 38.4064 19.2886 37.9335 20.2409 37.5466C20.71 37.3603 20.8664 37.6755 21.0938 37.9765C21.3639 38.3348 21.1649 38.5497 20.909 38.736C19.9282 39.4382 18.6916 39.6962 17.7819 40.5417C17.7108 40.6133 17.5403 40.5847 17.4123 40.5847C16.6306 40.642 15.8204 40.7853 15.0386 40.728C14.2994 40.6707 13.603 40.3697 13.2334 41.4015C13.1481 41.6308 12.8212 41.8744 12.6648 42.204C12.2953 42.9492 12.0678 43.7804 10.9733 43.9667C9.7225 44.1817 9.73671 44.3107 10.1063 45.6004C10.1063 45.6291 10.1205 45.6434 10.1347 45.6721C10.4901 46.9905 9.66564 49.0255 8.6138 49.871C8.08788 50.2866 7.43403 50.4729 6.93653 50.8741C6.14054 51.519 5.30191 52.0779 4.39221 52.5078C4.15057 52.6225 3.96579 52.7658 3.79522 52.9664C3.35458 53.511 2.81444 53.9266 2.16059 54.1989C1.54939 54.4568 1.09454 55.3166 1.23668 55.9042C1.4641 56.893 1.4641 57.8962 1.13718 58.842C0.852896 59.7018 1.10875 60.576 0.952395 61.4359C0.881325 61.8514 1.13718 62.2097 1.37882 62.5537C1.91895 63.3418 2.71494 63.9007 3.31194 64.6316C3.80943 65.2478 4.378 65.7207 5.17399 65.9357C5.44405 66.0074 5.69991 66.165 5.91312 66.337C7.41981 67.4404 9.19658 67.942 10.9591 67.9277C12.0678 67.9277 13.0912 68.243 14.1857 68.2286C15.3797 68.2143 16.4884 68.8162 17.6398 69.1171C18.5637 69.3607 19.246 69.8766 20.0277 70.3496C21.0511 70.9801 22.0461 71.6823 23.0695 72.3272C23.6239 72.6711 24.4341 73.0724 24.5194 73.8606C24.69 75.394 25.5428 76.2538 26.9642 76.6121C27.5186 76.7554 27.8881 77.128 28.2861 77.5006C29.0963 78.2888 30.1197 78.7187 31.2 78.819C32.7636 78.9766 34.3413 78.9193 35.7343 79.8365C35.8622 79.9225 36.0755 79.8938 36.2602 79.8652C37.0989 79.7935 37.9091 80.0371 38.7051 80.2091C39.2878 80.3381 39.7285 80.7537 40.0554 81.3412C40.6382 82.4017 40.5529 83.5911 40.7235 84.7089C40.8798 85.7121 41.42 86.7726 42.415 87.1165C44.1633 87.7327 45.9685 88.0337 47.8021 87.6467C48.4133 87.5177 49.0103 87.79 49.6215 87.5177C50.9718 86.9015 52.4217 87.0305 53.8573 87.0018C55.2929 86.9732 56.7143 87.4604 58.1642 87.2741C59.3724 87.1165 60.609 87.0878 61.8172 86.8872C62.4568 86.7726 63.0823 86.6866 63.7219 86.7582C65.0438 86.8729 66.3515 86.9732 67.6734 86.6866C69.905 86.2137 71.9661 85.2392 74.0982 84.4796C75.548 83.9637 76.9268 83.2185 78.4619 82.9463C79.9402 82.6883 81.3758 82.287 82.8257 83.0322C82.9536 83.1039 83.1242 83.0896 83.2805 83.1039C84.3181 83.1899 85.3273 83.4478 86.3792 83.3905C86.7772 83.3618 87.0899 83.5051 87.36 83.7488C88.6392 84.9096 90.2454 85.5544 91.6811 86.4716C92.079 86.7296 92.4344 87.0735 92.9319 87.2025C94.8082 87.6754 96.6986 88.005 98.518 88.6929C98.9871 88.8648 99.5415 88.7932 99.9821 89.1228C100.551 89.5384 101.233 89.653 101.915 89.7963C103.152 90.04 104.417 89.8107 105.668 90.0113C106.094 90.0829 106.478 90.2836 106.933 90.2692C108.297 90.2406 109.591 89.825 110.913 89.524C112.434 89.1801 113.77 88.177 115.419 88.3059C116.072 88.3633 116.698 88.2486 117.338 88.0623C118.574 87.704 119.868 87.9047 121.133 87.704C122.639 87.4748 124.004 88.1913 125.383 88.6929C125.781 88.8362 125.965 89.2804 126.392 89.3807C128.055 89.7963 129.675 90.3839 131.395 90.4699C132.419 90.5272 133.357 91.0574 134.394 90.9285C135.091 90.8425 135.859 90.9571 136.498 90.7278C137.365 90.4269 138.389 91.2151 139.17 90.1976C139.881 89.2518 141.175 89.0225 141.999 88.1483C142.681 87.4174 142.852 87.0448 142.44 86.099C142.326 85.8267 142.326 85.5688 142.425 85.3681C142.667 84.8666 142.71 84.322 142.767 83.8061C142.852 83.0322 143.236 82.3587 143.42 81.6422C143.634 80.811 144.046 80.2234 144.913 80.0801C145.425 79.9941 145.908 79.8508 146.391 79.6932C147.187 79.4496 147.955 79.12 148.85 79.2919C149.447 79.4066 150.044 79.2059 150.627 78.8047C151.295 78.3461 151.508 77.6296 151.992 77.0707C153.541 75.308 155.318 73.9609 157.521 73.23C158.8 72.8144 160.165 72.8288 161.472 72.4562C162.51 72.1552 163.69 72.2842 164.77 72.0263C165.523 71.8543 166.405 71.9116 167.03 71.3527C167.854 70.6218 168.707 69.9053 169.56 69.1888C170.726 68.2286 172.062 67.5264 173.341 66.7812C174.151 66.3083 175.26 66.4516 176.013 65.7064C176.127 65.5918 176.34 65.5631 176.525 65.5488C177.762 65.4915 178.799 64.7176 180.036 64.603C181.301 64.474 182.538 64.1014 183.803 63.9867C185.125 63.8721 186.375 63.8291 187.569 63.0552C188.707 62.3244 189.446 61.3929 189.957 60.2034C190.071 59.9311 189.957 59.7305 189.844 59.4869L189.829 59.5442ZM164.457 66.2653C162.808 67.4691 161.216 66.7955 159.653 66.1936C158.772 65.864 157.862 65.7781 156.981 65.5201C156.369 65.3481 155.829 65.7637 155.417 66.1936C154.735 66.9245 153.953 67.3544 152.972 67.4977C151.65 67.684 150.385 67.856 149.035 67.4691C147.216 66.9532 145.425 66.3943 143.605 65.864C142.568 65.5631 141.459 65.4915 140.421 65.0615C139.711 64.7749 138.986 64.56 138.261 64.3163C137.976 64.216 137.82 64.2733 137.522 64.4883C137.052 64.8322 136.484 65.1762 135.844 65.1475C135.574 65.1475 135.333 65.1475 135.134 65.3481C134.935 65.5631 134.665 65.5488 134.494 65.4341C134.011 65.0759 133.371 65.1905 132.874 64.8322C132.532 64.5886 131.992 64.5886 131.651 64.9326C131.267 65.3338 131.21 65.95 131.424 66.38C132.006 67.5407 132.703 68.5582 134.139 68.8735C134.949 69.0455 135.716 69.4467 136.441 69.9913C137.379 70.7078 138.275 71.5103 139.341 72.0406C139.483 72.1122 139.54 72.2555 139.568 72.4132C139.838 73.6886 140.037 74.9927 140.265 76.2825C140.535 77.8159 139.583 78.9766 138.062 79.3349C137.479 79.4639 136.91 79.6359 136.342 79.8365C136.214 79.8795 136.1 79.9081 135.986 79.8508C135.063 79.4066 134.267 79.6932 133.371 80.0658C132.348 80.4814 131.495 80.9973 130.912 81.9144C130.656 82.3014 130.329 82.502 129.874 82.6166C129.263 82.7743 128.666 83.0466 128.083 83.3188C126.818 83.9207 125.482 83.9494 124.203 83.5195C123.421 83.2615 122.725 83.5625 121.971 83.4765C120.706 83.3332 119.512 83.9207 118.261 83.9351C116.94 83.9494 115.589 84.0784 114.367 83.6771H114.296L114.225 83.6341C113.67 83.4335 113.13 83.1182 112.647 82.6023C112.164 82.0864 111.268 82.1294 110.97 81.3555C110.97 81.3126 110.827 81.3126 110.756 81.3126C109.676 81.4559 108.582 81.3126 107.501 81.5275C106.677 81.6852 105.853 81.4845 105.099 81.2552C103.507 80.7537 102.057 80.94 100.565 81.6278C99.5415 82.1007 98.3759 82.2154 97.2672 82.0148C96.7555 81.9288 96.258 81.5275 95.8742 81.1549C95.1919 80.4957 94.3107 80.0944 93.6852 79.3779C93.1025 78.7187 92.207 78.7617 91.4536 78.4894C89.8759 77.9018 89.7622 76.4974 90.1033 75.136C90.1744 74.8351 90.2596 74.5485 90.2881 74.2475C90.3165 73.6743 90.1459 73.402 89.5063 73.402C88.9662 73.402 88.4402 73.2014 87.9001 73.1297C87.2178 73.0437 86.5498 73.2444 85.8959 73.3303C85.1426 73.4163 84.4034 73.488 83.6785 73.359C82.7688 73.2014 81.8449 73.1727 80.9352 73.1727C80.1961 73.1727 79.3716 73.3877 78.732 73.8892C78.1208 74.3622 77.3532 74.2332 76.6994 74.4911C75.1927 75.0787 73.5439 75.1933 72.0798 75.8096C71.1417 76.2108 70.1893 76.6264 69.2512 76.9417C68.0999 77.3286 67.1049 78.1598 65.8398 78.2171C65.783 78.2171 65.7261 78.2171 65.6834 78.2458C64.3757 79.1773 63.0823 78.5037 61.803 78.2028C61.4903 78.1311 61.2486 77.9018 61.0354 77.6152C60.6659 77.1137 60.211 76.827 59.4861 76.9274C58.747 77.0277 58.1073 76.6981 57.7093 75.9959C57.3398 75.351 56.9276 74.9784 56.0463 74.8781C54.9376 74.7634 53.8431 74.3908 52.7913 73.8606C52.1374 73.531 51.2703 73.5883 50.5028 73.5453C49.5504 73.488 48.6549 73.7459 47.731 74.0039C46.1675 74.4481 44.5897 74.1329 43.0119 73.9609C41.8037 73.8319 40.5813 73.6743 39.3589 73.6743C39.0036 73.6743 38.7477 73.445 38.4066 73.316H38.1934L38.1081 73.2444H38.0939C36.7293 73.1441 35.4643 72.6711 34.3982 71.7396C33.9149 71.3097 33.6022 70.7078 32.9626 70.4069C32.7778 70.3209 32.5219 69.633 32.6641 69.2031C32.7209 69.0168 33.1047 68.8878 33.3606 68.8018C34.1281 68.5582 34.4977 67.8703 34.5972 67.2685C34.7962 66.0503 35.6632 65.4914 36.4735 64.8466C36.9283 64.4883 37.3832 64.1157 37.9091 63.8577C38.2502 63.6858 38.3924 63.3275 38.3497 62.9263C38.3071 62.4963 37.9375 62.7543 37.7385 62.654C36.8999 62.2527 35.976 62.0091 35.251 61.3642C35.0663 61.1922 34.8673 61.1063 34.6256 61.1206C33.5027 61.1779 32.3798 61.0346 31.2569 61.0059C30.8731 61.0059 30.6315 60.791 30.3614 60.6333C29.3238 60.0171 28.1013 60.1318 27.0353 59.7018C25.7987 59.2003 24.5052 58.8563 23.2117 58.713C21.8471 58.5554 21.1506 57.9105 20.7242 56.7211C20.6816 56.5921 20.4968 56.5204 20.3689 56.4344C20.0135 56.2052 19.8714 55.8755 20.0846 55.5029C20.9659 53.9839 21.3212 52.1352 22.8421 51.0031C23.0838 50.8168 23.2685 50.6162 23.567 50.8025C23.5955 50.8025 23.5955 50.8455 23.6239 50.8598L24.8747 48.2373C24.7895 48.18 24.7042 48.0653 24.6473 47.8933C24.0788 46.317 24.5762 43.7948 25.9692 42.8919C27.0779 42.1754 28.1013 41.1866 29.6223 41.2009C30.9868 41.2009 32.1239 40.5417 32.9341 39.3522C33.4174 38.65 34.0002 38.0195 34.654 37.4463C35.0947 37.0593 35.45 36.5578 35.848 36.1135C36.3455 35.5403 36.7719 34.8954 37.1415 34.2075C37.3974 33.7059 37.9944 33.5053 38.5061 33.4766C40.5671 33.319 42.6424 32.9177 44.675 33.8063C45.5278 34.1789 46.3096 33.8063 47.0061 33.19C47.5178 32.7314 48.1575 32.4305 48.6692 31.9433C49.1667 31.4847 49.6499 30.9544 50.3464 30.7825C50.4175 30.7681 50.5028 30.7108 50.517 30.6392C51.3698 28.7618 53.0329 27.687 54.5254 26.4546C54.8097 26.2253 54.9944 25.8527 55.2929 25.6091C55.6909 25.2652 56.1742 25.1648 56.6291 24.9642C58.2779 24.2047 60.1115 24.1044 61.7461 23.3162C62.1157 23.1299 62.5848 23.1729 63.0112 23.1012C64.3615 22.8433 65.6692 22.399 67.0054 22.0837C68.3415 21.7685 69.7629 21.5535 71.1701 21.5105C71.9092 21.4962 72.4636 21.3242 72.7621 20.6077C72.8616 20.3784 72.9895 20.1491 73.1174 19.9341C73.6433 19.0313 74.4109 18.6157 75.4343 18.3434C76.6425 18.0138 77.8649 18.0138 79.0731 17.8418C80.324 17.6699 81.5748 18.0568 82.8114 18.2431C83.6643 18.3721 84.3608 18.802 85.0146 19.2606C85.6401 19.6905 86.3081 20.2351 86.5782 20.9946C87.1894 22.7 86.9193 24.434 86.5782 26.1537C85.6401 26.6696 85.3842 27.73 84.8156 28.5182C84.0054 29.6503 82.783 30.4529 82.2713 31.7713C81.9302 32.6598 81.6317 33.5913 81.1484 34.3795C80.3666 35.6119 80.6367 36.9303 80.5656 38.2201C80.5372 38.779 80.3524 39.2519 79.7981 39.7105C80.5372 39.6532 81.0773 39.8108 81.6032 39.9685C82.3282 40.1834 82.9536 39.8108 83.4227 39.3952C84.2897 38.6357 85.2989 38.0625 86.1091 37.2313C86.7346 36.5864 87.5163 36.2998 88.426 36.2281C89.7906 36.1422 91.1551 35.9702 92.5055 35.7839C92.8182 35.7409 93.1593 35.5689 93.3867 35.3396C94.5239 34.2218 96.059 34.0355 97.4236 33.4766C97.6368 33.3907 97.8216 33.3047 97.9921 33.1327C99.4135 31.6137 100.394 29.7937 100.821 27.8303C101.133 26.3829 101.347 24.7636 100.878 23.2302C100.721 22.7429 100.764 22.2557 100.792 21.7685C100.835 21.3099 101.091 21.0949 101.531 21.0519C101.944 21.0089 102.242 21.1952 102.37 21.5678C102.541 22.0981 102.939 22.571 102.896 23.1729C102.868 23.5598 103.081 23.5885 103.308 23.4165C103.706 23.1155 104.246 23.0439 104.374 22.3417C104.545 21.4675 105.398 20.9946 106.066 20.579C106.933 20.0344 107.771 19.4326 108.681 18.9453C108.937 18.8163 109.179 18.673 109.449 18.587C109.747 18.5011 110.174 18.1858 110.344 18.5154C110.543 18.9023 110.543 19.4326 110.103 19.7908C109.179 20.536 108.269 21.2669 107.331 21.9977C107.103 22.1697 106.819 22.313 106.762 22.614C106.407 24.176 104.971 24.6059 103.919 25.4228C103.678 25.6091 103.507 25.7381 103.507 26.0677C103.507 26.7126 103.493 27.3574 103.45 28.0023C103.436 28.4609 103.607 28.6042 104.062 28.5182C105.497 28.2316 106.947 28.3319 108.383 28.6042C108.71 28.6615 109.022 28.8048 109.221 29.1201C109.633 29.765 110.216 30.2666 110.628 30.9258C111.339 32.0579 112.533 32.3732 113.77 32.5738C114.95 32.7601 116.144 33.0181 117.281 33.362C118.233 33.6486 119.057 34.4081 119.924 34.9957C120.266 35.225 120.408 35.6263 120.436 35.9989C120.493 36.5721 120.735 37.002 121.204 37.2313C121.9 37.5752 122.27 38.2918 122.966 38.6357C123.904 39.1086 124.857 38.8507 125.766 38.736C127.955 38.4351 130.144 38.1628 132.362 38.2058C132.93 38.2058 133.527 38.2918 134.082 38.5497C135.475 39.2089 136.882 39.8538 138.275 40.5274C138.673 40.7137 139.042 41.0289 139.199 41.4302C139.483 42.1754 140.094 42.7343 140.251 43.5368C140.35 44.0527 140.791 44.368 141.246 44.5543C142.497 45.0272 143.733 45.5431 144.856 46.2883C145.666 46.8185 146.562 47.1481 147.429 47.5351C148.139 47.8503 148.95 47.879 149.632 48.3233C149.831 48.4522 150.044 48.5526 150.115 48.7962C150.428 49.8423 151.011 50.8025 151.139 51.9203C151.252 52.8518 151.764 53.468 152.702 53.8119C153.498 54.0985 154.109 54.8581 155.062 54.7721C156.227 55.8755 157.691 55.3166 159.027 55.4026C160.136 55.4743 161.089 55.6892 161.87 56.5061C161.941 56.5778 162.069 56.6207 162.098 56.7067C162.496 57.8818 163.363 58.8993 163.235 60.2607C163.135 61.1922 163.491 61.7511 164.315 61.9088C165.196 62.0807 165.495 62.7543 165.722 63.4422C166.007 64.345 165.182 65.7637 164.429 66.3083L164.457 66.2653Z" fill="#CFE6E4"/>
<path fill-rule="evenodd" clip-rule="evenodd" d="M79.6843 39.8253C80.4234 39.7679 80.9636 39.9256 81.4895 40.0832C82.2144 40.2982 82.8398 39.9256 83.3089 39.51C84.176 38.7505 85.1852 38.1772 85.9954 37.3461C86.6208 36.7012 87.4026 36.4146 88.3123 36.3429C89.6768 36.2569 91.0414 36.085 92.3917 35.8987C92.7044 35.8557 93.0456 35.6837 93.273 35.4544C94.4101 34.3366 95.9452 34.1503 97.3098 33.5914C97.523 33.5054 97.7078 33.4194 97.8784 33.2475C99.2998 31.7284 100.281 29.9084 100.707 27.9451C101.02 26.4977 101.233 24.8783 100.764 23.345C100.607 22.8577 100.65 22.3705 100.679 21.8832C100.721 21.4246 100.977 21.2097 101.418 21.1667C101.83 21.1237 102.128 21.31 102.256 21.6826C102.427 22.2128 102.825 22.6857 102.782 23.2876C102.754 23.6746 102.967 23.7032 103.194 23.5313C103.592 23.2303 104.133 23.1587 104.26 22.4564C104.431 21.5823 105.284 21.1094 105.952 20.6938C106.819 20.1492 107.658 19.5473 108.567 19.0601C108.823 18.9311 109.065 18.7878 109.335 18.7018C109.633 18.6158 110.06 18.3005 110.23 18.6301C110.429 19.0171 110.429 19.5473 109.989 19.9056C109.065 20.6508 108.155 21.3816 107.217 22.1125C106.99 22.2845 106.705 22.4278 106.648 22.7287C106.293 24.2908 104.857 24.7207 103.806 25.5376C103.564 25.7238 103.393 25.8528 103.393 26.1824C103.393 26.8273 103.379 27.4722 103.337 28.1171C103.322 28.5757 103.493 28.719 103.948 28.633C105.383 28.3464 106.833 28.4467 108.269 28.719C108.596 28.7906 108.909 28.9196 109.108 29.2349C109.52 29.8798 110.103 30.3813 110.515 31.0405C111.225 32.1727 112.419 32.4879 113.656 32.6886C114.836 32.8749 116.03 33.1328 117.167 33.4768C118.119 33.7634 118.944 34.5229 119.811 35.1105C120.152 35.3398 120.294 35.741 120.322 36.1136C120.379 36.6868 120.621 37.1168 121.09 37.3461C121.787 37.69 122.156 38.4065 122.853 38.7505C123.791 39.2234 124.757 38.9654 125.653 38.8508C127.842 38.5498 130.031 38.2776 132.248 38.3205C132.817 38.3205 133.414 38.4065 133.968 38.6645C135.361 39.3237 136.768 39.9686 138.161 40.6421C138.559 40.8284 138.929 41.1437 139.085 41.545C139.369 42.2902 139.981 42.849 140.137 43.6516C140.236 44.1675 140.677 44.4827 141.132 44.669C142.383 45.142 143.619 45.6579 144.742 46.4031C145.552 46.9333 146.448 47.2629 147.315 47.6498C148.026 47.9651 148.836 47.9938 149.518 48.438C149.717 48.567 149.93 48.6673 150.002 48.9109C150.314 49.9571 150.897 50.9172 151.025 52.035C151.139 52.9665 151.65 53.5828 152.588 53.9267C153.384 54.2133 153.996 54.9728 154.948 54.8868C156.114 55.9903 157.578 55.4314 158.914 55.5174C160.022 55.5891 160.975 55.804 161.757 56.6209C161.828 56.6925 161.956 56.7355 161.984 56.8215C162.382 57.9966 163.249 59.0141 163.121 60.3755C163.022 61.307 163.377 61.8659 164.201 62.0235C165.083 62.1955 165.381 62.869 165.609 63.5569C165.893 64.4598 165.068 65.8785 164.315 66.4231C162.666 67.6268 161.074 66.9533 159.511 66.3514C158.629 66.0218 157.72 65.9358 156.838 65.6779C156.227 65.5059 155.687 65.9215 155.275 66.3514C154.593 67.0823 153.811 67.5122 152.83 67.6555C151.508 67.8418 150.243 68.0138 148.893 67.6268C147.073 67.1109 145.282 66.552 143.463 66.0218C142.425 65.7209 141.317 65.6492 140.279 65.2193C139.568 64.9327 138.843 64.7177 138.119 64.4741C137.834 64.3738 137.678 64.4311 137.379 64.6461C136.91 64.99 136.342 65.3339 135.702 65.3053C135.432 65.3053 135.19 65.3053 134.991 65.5059C134.792 65.7209 134.522 65.7065 134.352 65.5919C133.868 65.2336 133.229 65.3483 132.731 64.99C132.39 64.7464 131.85 64.7464 131.509 65.0903C131.125 65.4916 131.068 66.1078 131.282 66.5377C131.864 67.6985 132.561 68.716 133.996 69.0312C134.807 69.2032 135.574 69.6045 136.299 70.149C137.237 70.8656 138.133 71.6681 139.199 72.1983C139.341 72.27 139.398 72.4133 139.44 72.5709C139.71 73.8464 139.909 75.1505 140.137 76.4402C140.407 77.9736 139.455 79.1344 137.934 79.4927C137.351 79.6216 136.782 79.7936 136.214 79.9942C136.086 80.0372 135.972 80.0659 135.858 80.0086C134.935 79.5643 134.139 79.8509 133.243 80.2235C132.22 80.6391 131.367 81.155 130.784 82.0722C130.528 82.4591 130.201 82.6598 129.746 82.7744C129.135 82.932 128.538 83.2043 127.955 83.4766C126.69 84.0785 125.354 84.1072 124.075 83.6772C123.293 83.4193 122.597 83.7202 121.843 83.6342C120.578 83.4909 119.384 84.0785 118.133 84.0928C116.158 84.1215 114.111 84.4368 112.519 82.7601C112.036 82.2442 111.14 82.2872 110.842 81.5133C110.842 81.4703 110.699 81.4703 110.628 81.4703C109.548 81.6136 108.454 81.4703 107.373 81.6853C106.549 81.8429 105.725 81.6423 104.971 81.413C103.379 80.9114 101.929 81.0977 100.437 81.7856C99.4135 82.2585 98.2479 82.3731 97.1392 82.1725C96.6275 82.0865 96.13 81.6853 95.7463 81.3127C95.064 80.6535 94.1827 80.2522 93.5573 79.5357C92.9745 78.8764 92.079 78.9194 91.3257 78.6472C89.7479 78.0596 89.6342 76.6552 89.9753 75.2938C90.0464 74.9928 90.1317 74.7062 90.1601 74.4053C90.1885 73.832 90.018 73.5598 89.3783 73.5598C88.8382 73.5598 88.3123 73.3591 87.7721 73.2875C87.0899 73.2015 86.4218 73.4021 85.7679 73.4881C85.0146 73.5741 84.2755 73.6457 83.5505 73.5168C82.6408 73.3591 81.7169 73.3305 80.8072 73.3305C80.0681 73.3305 79.2437 73.5454 78.604 74.047C77.9928 74.5199 77.2253 74.3909 76.5714 74.6489C75.0647 75.2365 73.4159 75.3511 71.9518 75.9673C71.0137 76.3686 70.0614 76.7842 69.1232 77.0994C67.9719 77.4864 66.9769 78.3176 65.7118 78.3749C65.655 78.3749 65.5981 78.3749 65.5555 78.4035C64.2478 79.335 62.9543 78.6615 61.675 78.3605C61.3623 78.2889 61.1207 78.0596 60.9075 77.7587C60.5379 77.2571 60.083 76.9705 59.3581 77.0708C58.619 77.1711 57.9794 76.8415 57.5814 76.1393C57.2118 75.4944 56.7996 75.1218 55.9183 75.0215C54.8096 74.9068 53.7151 74.5342 52.6633 74.004C52.0094 73.6744 51.1424 73.7317 50.3748 73.6887C49.4225 73.6314 48.527 73.8894 47.6031 74.1473C46.0395 74.5916 44.4617 74.2763 42.884 74.1043C41.6758 73.9753 40.4534 73.8177 39.231 73.8177C38.7761 73.8177 38.4634 73.4308 37.9659 73.3878C36.6013 73.2875 35.3363 72.8289 34.2702 71.8831C33.787 71.4531 33.4742 70.8512 32.8346 70.5503C32.6498 70.4643 32.394 69.7764 32.5361 69.3465C32.593 69.1602 32.9767 69.0313 33.2326 68.9453C34.0002 68.7016 34.3697 68.0138 34.4692 67.4119C34.6682 66.1938 35.5353 65.6349 36.3455 64.99C36.8003 64.6317 37.2552 64.2591 37.7811 64.0012C38.1223 63.8292 38.2644 63.4709 38.2218 63.0697C38.1791 62.6398 37.8095 62.8977 37.6105 62.7974C36.7719 62.3961 35.848 62.1525 35.1231 61.5076C34.9383 61.3357 34.7393 61.2497 34.4977 61.264C33.3747 61.3213 32.2518 61.178 31.1289 61.1494C30.7451 61.1494 30.5035 60.9344 30.2334 60.7768C29.1958 60.1605 27.9734 60.2752 26.9073 59.8453C25.6707 59.3437 24.3772 58.9998 23.0837 58.8564C21.7192 58.6988 21.0227 58.0539 20.5963 56.8645C20.5536 56.7355 20.3688 56.6639 20.2409 56.5779C19.8856 56.3486 19.7434 56.019 19.9566 55.6464C20.8379 54.1273 21.1932 52.2787 22.7142 51.1465C22.9558 50.9602 23.1406 50.7596 23.4391 50.9459C23.7091 51.1179 23.8655 51.3615 23.7944 51.7341C23.7234 52.1067 23.4817 52.4793 23.7944 52.8949C23.8797 53.0095 23.6381 53.2388 23.5812 53.4251C23.3538 54.113 22.7568 54.6289 22.8137 55.4457C22.8847 56.4059 23.7234 57.4377 24.6331 57.2801C25.6138 57.1081 26.4383 57.4807 27.2627 57.796C28.3572 58.2259 29.5796 58.1829 30.6172 58.7705C32.1239 59.6303 33.7585 59.4297 35.3647 59.4153C36.1038 59.4153 36.7008 59.8453 37.1273 60.2322C37.9659 61.0061 39.0177 61.0777 39.9559 61.4646C40.2828 61.5936 40.7803 61.5076 40.9082 61.9519C40.9935 62.2242 41.4341 62.2528 41.3204 62.4821C41.0788 62.9694 41.1783 63.4996 40.9793 64.0155C40.4676 65.2766 39.2736 65.8068 38.307 66.4947C37.6532 66.9533 37.2978 67.2113 37.2126 68.0711C37.1841 68.4294 37.042 69.2892 36.2886 69.4755C36.0044 69.5472 35.9475 70.0917 36.0186 70.1204C36.7861 70.407 37.1557 71.2525 37.9375 71.5105C38.9751 71.8544 40.0696 71.8114 41.1214 72.0407C42.4576 72.313 43.8079 72.356 45.144 72.5566C45.94 72.6713 46.7502 72.4563 47.4751 72.227C48.996 71.7254 50.5454 71.6251 52.0379 71.9261C52.9191 72.098 53.8999 72.098 54.7385 72.8002C55.1081 73.1155 56.0462 73.3735 56.8138 73.1298C57.3966 72.9435 57.9367 73.3161 58.4911 73.4308C59.2302 73.5741 59.4434 73.9753 59.5998 74.5486C59.8414 75.5231 60.6943 75.4227 61.3908 75.5374C61.7603 75.5947 62.1015 75.6377 62.3573 75.91C63.4944 77.1998 64.6742 76.5979 65.9393 76.1106C67.3891 75.5661 68.8105 74.9642 70.2319 74.3623C71.2411 73.9324 72.3072 73.5741 73.3306 73.4021C74.9368 73.1585 76.4008 72.5136 77.9075 72.0264C78.9167 71.7111 79.8975 71.4961 80.9209 71.4388C81.5748 71.3958 82.2144 71.5678 82.8683 71.6538C83.9485 71.8114 85.043 71.8831 86.1233 71.4818C87.4879 70.9659 88.824 71.0232 90.1885 71.6538C90.7287 71.9117 91.3967 72.012 92.0079 72.141C92.2638 72.1983 92.4912 72.27 92.5339 72.4993C92.7329 73.4308 93.1309 74.3336 92.8039 75.3368C92.3349 76.7125 92.7187 77.3574 94.1401 77.5437C94.8934 77.644 95.4335 77.9593 95.9595 78.4895C96.4143 78.9481 97.0397 79.2347 97.6083 79.5787C97.6652 79.6216 97.8073 79.5787 97.8215 79.6073C98.3759 80.6105 99.1292 79.9656 99.6978 79.7506C101.489 79.0484 103.322 79.0771 105.128 79.4497C106.847 79.8079 108.511 79.4927 110.202 79.5213C111.211 79.5213 112.178 79.7649 113.073 80.4242C114.054 81.1407 115.035 81.9719 116.243 82.2585C116.84 82.4018 117.522 82.1438 118.176 82.0865C120.351 81.8429 122.511 81.3557 124.729 81.9146C125.383 82.0865 126.108 82.0579 126.69 81.542C126.747 81.499 126.804 81.3987 126.861 81.3987C127.998 81.5563 128.424 80.6535 128.95 79.9513C129.348 79.4067 129.96 79.2777 130.471 78.9768C131.424 78.4179 132.319 77.7157 133.542 77.687C134.21 77.6727 134.863 77.644 135.489 77.8733C136.1 78.0883 136.598 77.902 137.067 77.5437C137.351 77.3144 137.493 77.0708 137.379 76.6409C137.308 76.3686 137.195 76.0676 137.28 75.695C137.337 75.4371 137.379 74.7349 136.669 74.8065C135.631 74.9212 134.679 74.5056 133.797 74.133C132.404 73.5454 130.869 73.4021 129.533 72.7142C128.652 72.27 127.998 72.356 127.145 72.7429C125.738 73.3878 124.359 74.0613 123.037 74.8639C122.611 75.1218 121.986 74.9642 121.502 75.4801C122.639 75.6664 123.606 76.1393 124.7 76.2253C125.496 76.2826 126.236 76.7412 127.046 76.9131C127.358 76.9848 127.259 77.9163 126.932 78.1026C126.52 78.3319 126.108 78.4465 125.61 78.3319C123.35 77.816 121.062 77.3431 118.802 76.8558C118.517 76.7985 118.247 76.8128 117.977 76.9275C117.138 77.2857 116.257 77.5867 115.433 77.9879C114.495 78.4609 113.485 78.3462 112.505 78.5325C112.22 78.5898 111.95 78.4179 111.837 78.1169C111.737 77.8446 111.837 77.6297 112.036 77.4147C112.306 77.0994 112.533 76.8128 113.045 76.7985C113.571 76.7842 114.011 76.4116 114.31 75.91C113.926 75.2508 113.13 75.4657 112.519 75.2365C111.581 74.8782 110.6 74.6489 109.633 74.3766C108.61 74.0757 107.587 73.789 106.563 73.4738C106.364 73.4165 106.208 73.4308 106.051 73.5168C104.417 74.4196 102.555 74.7779 100.892 75.6234C100.579 75.781 100.209 75.6664 99.8968 75.91C99.6978 76.0533 98.6317 75.2365 98.5891 74.9355C98.518 74.3336 99.0013 74.133 99.4135 73.961C99.9963 73.7031 100.636 73.5741 101.19 73.2875C101.73 73.0009 102.37 72.9579 102.896 72.5136C101.446 71.9117 99.9252 71.7111 98.4611 71.3098C97.4804 71.0375 96.5138 70.7079 95.5473 70.3927C94.3959 70.0201 93.2588 69.6331 92.1217 70.5216C91.5389 70.9659 90.8282 70.6936 90.217 70.5216C89.4494 70.2924 89.3783 69.5615 90.018 68.9453C89.4068 68.5297 88.6818 68.458 88.0138 68.3004C86.4786 67.9564 84.9862 67.4835 83.4937 67.0393C82.8114 66.8386 82.1149 66.638 81.4326 66.3944C81.2763 66.3371 81.1341 66.3944 80.992 66.4661C79.7554 67.0536 78.4477 67.5409 77.2821 68.2574C76.145 68.9739 74.9368 69.5472 73.7854 70.2207C73.9702 70.3927 74.2687 70.2207 74.4677 70.4213C74.7378 70.7223 75.0931 71.0089 75.0221 71.4531C74.951 71.9117 74.5104 71.9117 74.1834 71.9977C73.4159 72.227 72.6768 71.9834 71.9376 71.7971C71.1132 71.5964 70.3314 71.6681 69.5639 72.0264C68.8674 72.3416 68.1425 72.6139 67.446 72.9579C66.8916 73.2301 66.4794 72.9865 66.1667 72.5996C65.9535 72.3273 65.6692 71.9117 66.323 71.6538C66.7779 71.4675 67.1617 71.1522 67.7729 70.7796C66.6073 70.6076 65.655 70.45 64.7026 70.3067C63.6366 70.149 62.5279 70.0774 61.5045 69.8194C60.5237 69.5758 59.5287 69.2892 58.5337 69.0169C58.022 68.8736 57.5103 68.8306 57.0128 68.6013C55.9752 68.1141 55.1508 68.8879 54.3121 69.3035C53.4593 69.7191 52.5922 70.0774 51.7109 70.3783C51.3556 70.493 50.9292 70.321 50.7017 69.9771C50.5027 69.6761 50.6733 69.3465 50.9007 69.1316C51.3272 68.7303 51.5546 68.1571 52.0094 67.8705C51.4551 67.0679 50.517 67.2542 49.7636 67.0823C48.5838 66.8243 47.5036 66.2798 46.338 66.0075C45.6984 65.8498 45.1867 65.4342 44.6039 65.162C44.3907 65.0616 44.149 64.947 44.2059 64.6604C44.2628 64.3594 44.5186 64.2591 44.7745 64.2448C45.4994 64.2018 46.2101 64.3021 46.8639 64.5887C47.4183 64.8324 47.9584 64.9613 48.5696 64.9613C49.5788 64.9613 50.4885 65.3196 51.4124 65.6922C52.2369 66.0361 53.175 66.1794 54.0989 66.1794C55.5203 66.1794 56.6432 65.2623 57.8514 64.7177C59.3439 64.0442 60.8648 63.385 62.3147 62.5968C62.8264 62.3245 63.3097 61.9949 63.8782 61.6366C63.0254 61.2497 62.2294 60.8914 61.405 60.8484C60.8933 60.8198 60.4811 60.6908 60.0404 60.4758C59.3155 60.1032 58.4911 60.1319 57.7235 59.8883C56.5011 59.487 55.3213 58.8851 54.0136 58.7275C53.2603 58.6272 52.4785 58.5842 51.7962 58.1829C51.7394 58.1399 51.6114 58.1399 51.5688 58.1829C50.9292 58.8564 49.9484 58.7991 49.2235 59.3294C48.6833 59.7306 48.0153 59.9742 47.3614 60.1605C46.3807 60.4472 45.5704 61.092 44.5755 61.35C44.2343 61.436 43.879 61.522 43.6373 61.2353C43.3388 60.8771 43.7226 60.6048 43.9216 60.3755C44.746 59.4297 45.4852 58.3835 46.8497 58.0826C47.2335 57.9966 47.8305 57.796 47.8731 57.3231C47.93 56.7068 47.2477 56.9218 46.935 56.8215C45.7694 56.4202 44.5186 56.2483 43.3815 55.804C42.3723 55.4027 41.3204 55.2451 40.297 54.9728C39.103 54.6576 37.9943 53.984 36.7151 53.9983C36.5161 53.9983 36.3739 54.07 36.2176 54.1703C34.9241 54.9155 33.5453 55.4887 32.1523 56.0046C32.1097 56.019 32.0528 56.062 32.0102 56.0476C31.598 55.9903 31.0294 56.3056 30.8304 55.761C30.7309 55.4601 31.0294 55.0731 31.2853 54.7865C31.6833 54.3423 32.1097 53.9553 32.6925 53.7691C33.0336 53.6687 33.0052 53.2531 33.261 53.0955C33.062 52.8805 32.8062 52.8089 32.5219 52.7516C30.6456 52.3646 28.812 51.8201 26.9215 51.4618C26.3956 51.3615 25.9123 50.9746 25.4148 50.7023C25.0595 50.516 25.1163 50.2867 25.3438 50.0144C25.8555 49.3982 26.8931 49.2119 27.8312 49.5415C28.7125 49.8424 29.608 50.1147 30.5319 50.2437C31.5553 50.387 32.5361 50.6879 33.5169 51.0319C34.256 51.2898 35.0662 51.2755 35.7911 51.6338C36.047 51.7627 36.1465 51.4045 36.3597 51.3328C37.9375 50.8886 39.1883 49.7278 40.695 49.1689C42.1164 48.653 43.282 47.6928 44.6323 47.0623C45.5136 46.6467 46.4233 46.2024 47.2477 45.6292C47.5746 45.3999 47.4751 45.2566 47.2051 45.1563C46.5086 44.8983 45.8121 44.669 45.1156 44.4254C44.277 44.1245 43.3388 44.1102 42.5713 43.5656C42.1733 43.2933 41.6616 43.2933 41.2636 43.2503C40.5813 43.1643 40.0412 42.7201 39.3447 42.6771C38.6908 42.6341 38.108 42.2042 37.6532 41.6739C37.4684 41.459 37.312 41.1724 37.4968 40.9001C37.6816 40.6278 37.909 40.3985 38.3213 40.4272C39.3731 40.4988 40.3681 40.8141 41.3631 41.1437C43.6515 41.8889 45.8832 42.8061 48.2711 43.2216C48.8823 43.322 49.2661 43.9812 49.9484 43.8522C50.0621 43.8379 50.2611 43.9382 50.3037 43.8952C50.915 43.107 52.1089 43.4079 52.7059 42.5624C52.9334 42.2472 53.4166 42.2042 53.7436 42.0752C55.1081 41.5306 56.3021 40.5418 57.6951 40.1835C59.216 39.7823 60.2678 38.6072 61.7319 38.2059C61.7603 38.2059 61.7603 38.1199 61.803 38.0196C60.5663 37.604 59.4861 36.8588 58.2921 36.3286C57.6667 36.0563 56.9986 35.9273 56.3874 35.8413C55.2929 35.698 54.5253 34.9528 53.5446 34.6376C53.3171 34.5659 53.0613 34.3796 53.0613 34.093C53.0613 33.7634 53.374 33.7204 53.5872 33.6057C54.2268 33.2761 54.9091 33.3478 55.5488 33.5484C58.022 34.2793 60.4668 35.1248 62.8548 36.085C64.0488 36.5579 65.0864 36.7442 66.053 35.6694C66.252 35.4544 66.65 35.4257 66.9485 35.2968C67.9008 34.8955 68.8105 34.4083 69.6776 33.8207C69.7771 33.749 69.905 33.6631 70.0187 33.6631C71.5823 33.6917 72.3925 32.2873 73.6575 31.7571C73.757 31.7141 73.8707 31.6711 73.8423 31.5564C73.7997 31.3415 73.5722 31.3845 73.4301 31.2985C71.4686 30.2667 69.2369 29.8081 67.4886 28.3464C67.119 28.0311 66.7495 27.7015 66.5363 27.2429C66.3799 26.8846 66.3941 26.6697 66.8632 26.6124C67.9008 26.4977 68.8389 26.6983 69.6918 27.3146C70.3741 27.8161 71.2411 27.9021 71.9376 28.3894C72.961 29.0916 74.2119 29.2779 75.3206 29.8224C76.1734 30.2524 77.1542 30.41 78.0213 30.8542C78.206 30.9402 78.4193 30.9689 78.604 31.0549C79.4711 31.4418 79.8833 31.3128 80.2244 30.4387C80.5372 29.6075 80.992 28.9339 81.8306 28.547C81.9017 28.5183 82.0012 28.461 82.0012 28.4037C82.2286 27.0566 83.2947 26.1968 83.9059 25.079C84.176 24.5917 84.1333 24.1188 84.0196 23.5886C83.8348 22.7287 84.2328 21.7256 83.2805 21.052C82.5271 20.5075 81.7596 20.1922 80.8072 20.0202C79.5848 19.8053 78.3908 19.9772 77.2111 20.0202C76.1876 20.0489 75.7328 20.9804 75.2495 21.7399C74.6809 22.6571 73.5154 23.8609 72.1793 23.5742C71.1985 23.3593 70.1609 23.7462 69.1659 23.8895C67.8297 24.0901 66.522 24.5344 65.2001 24.7207C64.1483 24.864 63.1249 25.1506 62.2152 25.4946C61.2202 25.8672 59.9978 25.6809 59.1876 26.5837C59.0454 26.7413 58.7896 26.6124 58.6048 26.6267C58.1215 26.6553 57.624 26.6983 57.4677 27.3002C57.3539 27.7731 56.8565 27.6872 56.5864 27.9594C55.5345 29.0486 54.2979 29.9371 53.2745 31.1122C52.7628 31.6998 52.0521 32.2587 51.4124 32.7889C50.6022 33.4624 49.721 34.1216 49.0103 34.9385C48.5838 35.4257 47.9726 35.5117 47.4041 35.741C46.5939 36.0706 45.8689 35.956 45.1156 35.9273C44.1206 35.8843 43.1256 35.7267 42.2017 35.3111C41.4341 34.9672 39.7569 35.4544 39.2025 36.0563C38.2502 37.0594 37.7527 38.4352 36.5161 39.209C35.9901 39.5387 35.3647 39.8826 35.4358 40.6994C34.455 41.244 34.057 42.5051 32.7493 42.7057C31.8823 42.8347 30.9868 42.978 30.1339 43.193C28.8262 43.5083 27.746 44.2821 27.2342 45.6292C26.8363 46.6753 25.9834 47.3632 25.4148 48.2661C25.2301 48.567 24.7752 48.7246 24.5478 48.1084C23.9792 46.532 24.4767 44.0098 25.8697 43.107C26.9784 42.3905 28.0018 41.4016 29.5227 41.416C30.8873 41.416 32.0244 40.7568 32.8346 39.5673C33.3179 38.8651 33.9007 38.2346 34.5545 37.6613C34.9951 37.2744 35.3505 36.7728 35.7485 36.3286C36.246 35.7553 36.6724 35.1105 37.042 34.4226C37.2978 33.921 37.8948 33.7204 38.4065 33.6917C40.4676 33.5341 42.5428 33.1328 44.5755 34.0213C45.4283 34.3939 46.2101 34.0213 46.9066 33.4051C47.4183 32.9465 48.0579 32.6456 48.5696 32.1583C49.0671 31.6998 49.5504 31.1695 50.2469 30.9976C50.318 30.9832 50.4032 30.9259 50.4175 30.8542C51.2703 28.9769 52.9334 27.9021 54.4258 26.6697C54.7101 26.4404 54.8949 26.0678 55.1934 25.8242C55.5914 25.4802 56.0747 25.3799 56.5295 25.1793C58.1784 24.4198 60.012 24.3194 61.6466 23.5313C62.0162 23.345 62.4852 23.3879 62.9117 23.3163C64.262 23.0583 65.5697 22.6141 66.9058 22.2988C68.2419 21.9835 69.6634 21.7686 71.0706 21.7256C71.8097 21.7113 72.364 21.5393 72.6625 20.8227C72.762 20.5935 72.89 20.3642 73.0179 20.1492C73.5438 19.2464 74.3114 18.8308 75.3348 18.5585C76.543 18.2289 77.7654 18.2289 78.9736 18.0569C80.2244 17.885 81.4753 18.2719 82.7119 18.4582C83.5648 18.5872 84.2613 19.0171 84.9151 19.4757C85.5405 19.9056 86.2086 20.4502 86.4787 21.2097C87.0899 22.915 86.8198 24.649 86.4787 26.3687C85.5405 26.8846 85.2847 27.9451 84.7161 28.7333C83.9059 29.8654 82.6835 30.6679 82.1718 31.9864C81.8306 32.8749 81.5321 33.8064 81.0489 34.5946C80.2671 35.827 80.5372 37.1454 80.4661 38.4352C80.4377 38.9941 80.2529 39.467 79.6985 39.9256L79.6843 39.8253ZM135.787 72.4563C135.731 71.7971 135.176 71.969 134.892 71.7971C134.21 71.3815 133.613 70.7366 132.746 70.665C132.078 70.6076 131.509 70.321 130.912 69.9914C130.372 69.6905 130.215 69.1029 129.803 68.8306C129.164 68.4007 128.908 67.8131 128.623 67.1969C128.112 66.0791 128.467 64.5027 129.292 64.0155C130.372 63.3563 131.594 63.1843 132.802 63.0267C133.328 62.955 133.868 62.9407 134.366 63.2703C134.707 63.4996 135.02 63.3993 135.361 63.1843C136.683 62.3675 138.09 62.2385 139.511 62.8261C140.563 63.256 141.743 63.3276 142.71 63.9868C142.809 64.0442 142.951 64.0155 143.079 64.0442C144.586 64.2448 146.093 64.5457 147.486 65.1763C148.353 65.5632 149.277 65.7209 150.158 65.8928C151.579 66.1794 153.001 65.7925 154.195 64.8897C155.815 63.6716 157.421 63.5999 159.212 64.5457C159.966 64.947 160.861 65.162 161.771 65.1476C162.51 65.1333 162.339 64.3451 162.709 63.9868C162.88 63.8292 162.553 63.5426 162.325 63.4279C161.941 63.2273 161.643 62.8834 161.174 62.8117C160.875 62.7687 160.662 62.5251 160.577 62.1812C160.477 61.7083 160.335 61.2354 160.349 60.7338C160.364 59.8166 160.051 58.9711 159.781 58.1256C159.624 57.624 159.141 57.2801 158.644 57.2514C157.99 57.2084 157.308 57.1654 156.654 57.3804C155.801 57.6813 155.033 57.452 154.308 57.0078C153.981 56.8072 153.669 56.5922 153.285 56.4919C152.574 56.3056 151.906 56.0046 151.21 55.7753C150.016 55.4027 149.049 54.5716 148.751 53.1958C148.722 53.0525 148.722 52.7946 148.438 52.8805C148.196 52.9522 148.168 52.7516 148.211 52.6369C148.566 51.6194 147.784 50.9029 147.514 50.0574C147.4 49.6848 146.974 49.5415 146.533 49.4125C145.638 49.1689 144.714 48.8966 143.932 48.4237C143.065 47.8935 142.198 47.3346 141.274 46.9333C140.137 46.4317 139.042 45.8728 137.976 45.2279C137.678 45.0416 137.55 44.798 137.493 44.4254C137.323 43.2503 136.882 42.3331 135.716 41.7313C134.75 41.2297 133.556 41.2153 132.774 40.3412C132.675 40.2265 132.39 40.2695 132.177 40.2695C130.812 40.2695 129.419 40.0832 128.083 40.4701C127.231 40.7138 126.349 40.4415 125.511 40.6851C123.478 41.287 121.715 40.7138 120.095 39.4527C119.555 39.0227 118.901 38.7505 118.546 38.0913C118.404 37.8333 117.679 38.0626 117.878 37.3461C117.906 37.2457 117.508 36.8015 117.579 36.3859C117.593 36.2856 117.48 36.085 117.409 36.0706C116.613 35.913 116.158 35.1391 115.376 34.9672C114.992 34.8812 114.608 34.9815 114.196 34.8382C113.002 34.4083 111.794 33.9783 110.557 33.7777C109.093 33.5341 108.425 32.4736 107.786 31.3988C107.388 30.7396 107.004 30.2953 106.208 30.3097C105.668 30.3097 105.128 30.2953 104.602 30.3097C103.891 30.3383 103.081 30.4243 102.683 31.1409C102.271 31.8717 101.958 32.5883 101.219 33.1472C100.38 33.7777 99.5983 34.5086 98.7881 35.1821C98.4469 35.4687 98.1627 35.612 97.7362 35.612C97.3809 35.612 97.0539 35.784 96.7128 35.913C95.8457 36.2283 95.2914 36.9591 94.5381 37.3747C95.3483 38.1629 96.457 38.3635 97.4235 38.7505C98.9444 39.3667 100.465 39.9972 101.972 40.6421C102.711 40.9574 103.393 41.244 103.919 40.3412C103.962 40.2695 104.076 40.2122 104.175 40.1835C105.852 39.5673 107.217 38.3205 108.98 37.862C109.193 37.8046 109.378 37.6327 109.591 37.5467C110.344 37.2314 111.041 36.7585 111.922 36.8158C112.192 36.8302 112.448 36.8301 112.562 37.1311C112.689 37.4464 112.49 37.6183 112.306 37.7903C111.012 38.9798 109.619 40.0402 107.999 40.7424C107.203 41.0864 106.535 41.6023 105.696 42.1039C106.919 42.4335 107.871 43.0783 108.951 43.4939C110.515 44.0958 112.164 44.5831 113.599 45.5146C113.827 45.6579 114.125 45.6722 114.324 45.5146C115.276 44.755 116.541 44.6977 117.579 44.0528C118.176 43.6802 118.716 43.1643 119.413 42.935C120.408 42.6198 121.218 41.7456 122.398 41.9892C122.668 42.0465 122.98 41.9892 123.108 42.3188C123.236 42.6628 123.208 42.9637 123.023 43.322C122.582 44.1818 121.573 44.2248 120.962 44.927C120.408 45.5719 119.327 45.7868 118.46 46.1308C117.949 46.3314 117.48 46.6037 117.039 46.833C117.281 47.3632 117.807 46.9046 118.077 47.2056C118.659 47.8648 119.512 47.9221 120.237 48.2374C121.886 48.9539 123.62 49.4698 125.198 50.3727C125.567 50.5876 126.236 50.9889 126.619 50.5733C127.231 49.9428 128.055 49.7421 128.737 49.2835C130.088 48.395 131.594 47.7645 133.03 47.005C133.598 46.704 134.21 46.79 134.807 46.8616C135.233 46.919 135.404 47.2342 135.46 47.6068C135.532 47.9938 135.475 48.309 135.034 48.4667C134.664 48.61 134.323 48.8679 133.968 49.0542C132.419 49.8854 130.869 50.7166 129.306 51.5335C128.95 51.7198 128.993 51.992 129.292 52.078C130.144 52.3216 130.912 52.8089 131.736 53.0382C132.66 53.2961 133.513 53.6831 134.394 54.027C135.631 54.4999 136.797 55.632 138.175 54.3566C138.204 54.3279 138.275 54.3566 138.332 54.3423C139.611 53.8264 140.961 53.4394 142.042 52.5223C142.724 51.9491 143.577 52.078 144.359 52.1353C144.785 52.164 144.842 52.6799 144.97 53.0382C145.069 53.3678 144.913 53.5827 144.629 53.7404C143.264 54.5286 141.843 55.2021 140.407 55.8183C140.18 55.9187 139.853 55.976 139.739 56.3199C140.037 56.4919 140.407 56.3772 140.677 56.5922C141.786 57.4377 143.278 57.4377 144.401 58.2546C144.998 58.6845 145.908 58.4982 146.42 59.0857C146.761 59.4727 147.187 59.6303 147.599 59.7163C149.305 60.0459 150.755 60.9057 152.176 61.8372C152.702 62.1812 153.342 62.5538 153.1 63.342C152.972 63.7862 151.892 63.8005 151.181 63.3706C150.115 62.7257 148.836 62.6541 147.77 61.9949C146.931 61.479 145.865 61.4646 145.083 60.7911C144.955 60.6764 144.757 60.6621 144.6 60.5905C143.449 59.9886 142.056 59.9599 141.061 59.0141C140.99 58.9424 140.876 58.9138 140.777 58.8994C139.639 58.6702 138.644 58.0826 137.564 57.6957C137.337 57.6097 137.138 57.5094 136.853 57.6383C135.517 58.2402 134.281 59.0571 132.859 59.4727C132.646 59.53 132.319 59.6876 132.305 59.8166C132.248 60.3325 131.836 60.4758 131.509 60.6621C129.931 61.5363 128.368 62.3961 126.889 63.4853C125.397 64.6031 123.592 65.2623 121.914 66.0791C121.175 66.4374 120.266 66.4947 119.64 67.1969C125.042 68.845 130.272 70.8799 135.745 72.4133L135.787 72.4563ZM67.247 37.7187C68.2277 38.0483 69.1232 38.4352 70.0329 38.7935C71.7102 39.4383 73.4443 39.9399 75.0647 40.7281C75.4769 40.9287 75.8323 41.2583 76.2587 41.373C77.5664 41.7313 78.7746 42.3761 80.0965 42.7057C80.6367 42.8347 81.2336 42.978 81.7453 43.2216C83.5363 44.0528 85.3699 44.798 87.2462 45.3713C88.625 45.7868 89.89 46.4461 91.2688 46.8473C92.0648 47.0909 92.8466 47.0336 93.2019 46.6037C93.9695 45.6722 95.1777 45.7439 96.0305 44.97C96.7554 44.3108 97.9068 44.1245 98.7596 43.5226C99.3708 43.0783 100.039 42.7201 100.778 42.4764C99.9394 42.1468 99.2571 41.5736 98.4611 41.373C97.6367 41.1724 96.926 40.7138 96.13 40.5275C95.5472 40.3985 95.2203 39.9399 94.6944 39.7966C93.3299 39.4527 92.0506 38.8508 90.7997 38.2346C90.0748 37.8763 88.7529 37.9623 88.227 38.5785C87.7721 39.0801 87.2462 39.4813 86.7345 39.9113C85.8674 40.6708 84.844 41.373 83.778 41.5879C81.7596 42.0035 79.7554 41.4733 77.8649 40.6851C77.2111 40.4128 76.8699 39.295 77.3248 38.7361C77.7512 38.2202 77.6943 37.69 77.6233 37.1454C77.5806 36.8302 77.5948 36.5435 77.6659 36.2283C77.8365 35.3254 77.936 34.4226 78.1634 33.5341C78.2913 33.0468 78.0781 32.9609 77.7228 32.8749C76.7704 32.6599 76.0739 32.9895 75.2069 33.5198C73.4727 34.5659 71.6818 35.5547 69.8339 36.4002C68.9669 36.7872 67.9435 36.8731 67.2327 37.7187H67.247ZM39.2878 52.5223C39.2878 52.5939 39.2878 52.6656 39.2878 52.7372C40.3539 52.7086 41.292 53.1815 42.3012 53.4108C44.9735 54.0127 47.5889 54.8868 50.2185 55.6894C50.7728 55.8613 51.4835 56.0476 51.9242 55.6607C52.976 54.7579 54.369 54.6289 55.4777 53.898C55.9041 53.6114 56.5011 53.5827 56.9275 53.2961C58.1641 52.465 59.5713 51.9777 60.8364 51.2182C61.2202 50.9889 61.6182 50.7596 62.0872 50.6736C62.2578 50.645 62.4426 50.4873 62.4284 50.301C62.4284 50.1434 62.2152 50.1147 62.0872 50.0287C61.6608 49.7278 61.1207 49.8711 60.6943 49.6991C59.017 48.9969 57.2829 48.4524 55.5488 47.9365C54.6248 47.6642 53.8004 47.1053 52.8196 47.0193C52.4643 46.9906 52.1516 46.876 51.8247 46.6897C51.3982 46.4461 50.8723 46.0878 50.3748 46.3744C49.6925 46.7757 48.9676 47.1053 48.3138 47.5495C47.4751 48.1371 46.5939 48.739 45.6557 49.0972C44.3196 49.6131 43.1683 50.473 41.7895 50.9172C40.8656 51.2182 40.098 51.9634 39.2594 52.5223H39.2878ZM76.145 43.236C75.2353 43.2646 74.6383 42.8061 73.956 42.5624C72.8331 42.1612 71.7102 41.6883 70.5873 41.244C68.9953 40.6135 67.2754 40.2838 65.7687 39.381C65.0296 38.9368 64.3899 39.1087 63.6792 39.639C63.0964 40.0689 62.3431 40.3268 61.6893 40.6994C61.206 40.9861 60.6516 41.1294 60.1683 41.416C57.9083 42.7057 55.5345 43.7376 53.2319 44.927C53.7862 45.1993 54.4685 45.3856 55.0939 45.6005C55.9894 45.9158 56.8707 46.3457 57.7946 46.5177C58.7043 46.6897 59.5429 47.0766 60.3389 47.4349C61.2486 47.8361 62.2294 47.8935 63.1249 48.2804C63.5797 48.481 64.1625 48.4667 64.6031 48.825C64.8448 49.0113 65.0011 49.0686 65.2428 48.8106C65.8966 48.1514 67.0338 48.395 67.6307 47.5782C67.6592 47.5495 67.7302 47.5209 67.7729 47.5352C68.6399 47.7501 69.2369 47.0766 69.7913 46.704C70.9284 45.9302 72.2361 45.5432 73.3448 44.7694C74.155 44.2105 75.2353 44.1388 76.1166 43.2503L76.145 43.236ZM76.7278 55.1735C75.7896 54.4569 74.6952 54.2706 73.6575 53.984C72.4635 53.6687 71.3833 52.9952 70.1893 52.7946C68.7252 52.5366 67.517 51.5621 65.9961 51.4475C65.6266 51.4188 65.3423 51.3615 65.0154 51.5478C63.267 52.4793 61.4902 53.3678 59.7561 54.3279C59.216 54.6289 58.6048 54.6432 58.0789 55.0015C57.1549 55.6177 56.231 56.2913 55.1081 56.5349C54.9233 56.5779 54.6817 56.5779 54.5822 56.9791C55.7193 56.8072 56.5722 57.7816 57.7235 57.6097C57.8657 57.5953 58.1073 57.71 58.2921 57.753C58.8891 57.925 59.3013 58.5555 59.9267 58.5412C61.1065 58.5125 62.1299 59.1001 63.2954 59.2291C64.2762 59.3294 65.4418 59.5587 66.3657 60.2179C66.5505 60.3468 66.7068 60.3325 66.92 60.2179C67.6734 59.7736 68.3699 59.229 69.2512 59.0284C69.4359 58.9854 69.6634 58.8708 69.7629 58.7131C70.1182 58.1399 70.7152 57.9679 71.2696 57.7387C71.767 57.538 72.3072 57.4234 72.762 57.1654C74.0555 56.4346 75.3348 55.7037 76.7278 55.1735ZM89.3357 48.4953C87.6016 47.7931 86.1091 47.0909 84.5455 46.5894C83.0246 46.1021 81.5464 45.4859 80.0681 44.927C79.0447 44.5544 78.4477 44.2535 77.5238 45.056C76.3298 46.1021 74.7947 46.661 73.4017 47.4062C72.1224 48.0941 70.8716 48.8393 69.4644 49.2692C69.2511 49.3409 69.0379 49.4555 68.8532 49.5845C68.512 49.8138 68.5547 50.0717 68.91 50.2007C69.3649 50.3583 69.8055 50.5446 70.2461 50.7166C71.9803 51.3472 73.7854 51.8201 75.5338 52.4363C76.6709 52.8519 77.8649 53.0812 78.931 53.7117C79.13 53.8264 79.3716 53.812 79.528 53.7117C80.0112 53.3391 80.6082 53.1815 81.1199 52.8232C81.9444 52.25 82.8114 51.7198 83.7353 51.3472C84.446 51.0605 85.0999 50.7023 85.7822 50.4013C86.9477 49.8854 87.9285 49.0399 89.3499 48.481L89.3357 48.4953ZM82.5556 54.7292C83.5505 54.9442 84.375 55.3168 85.1425 55.847C85.1994 55.89 85.2705 55.933 85.3415 55.9473C87.0756 56.4346 88.8524 56.7212 90.5012 57.495C91.1409 57.796 92.0364 58.1113 92.6334 57.624C93.5715 56.8645 94.6944 56.5349 95.732 56.0476C97.4377 55.2738 98.8307 53.9124 100.693 53.4538C100.764 53.4538 100.821 53.3678 100.878 53.3105C101.119 53.0955 101.204 52.8376 100.806 52.7802C100.096 52.6942 99.5414 52.2357 98.9018 52.0064C96.9971 51.3758 95.1493 50.5876 93.2446 49.9427C92.2069 49.5988 91.5389 49.8711 90.7145 50.258C90.1743 50.516 89.7337 50.9459 89.094 51.0462C88.6392 51.1179 88.2128 51.3758 87.8148 51.7054C86.7487 52.6083 85.4268 53.0955 84.2186 53.7834C83.7069 54.0843 83.1099 54.2563 82.5413 54.7005L82.5556 54.7292ZM70.104 61.178C70.4309 61.307 70.6583 61.4503 70.8858 61.4646C72.9042 61.5506 74.6383 62.6827 76.6283 62.9694C77.5948 63.1127 78.604 63.5283 79.599 63.8292C80.2387 64.0155 80.9494 64.2018 81.2905 63.8292C82.0154 63.0267 83.0957 62.9264 83.8633 62.2385C84.2613 61.8802 84.7161 61.5076 85.1994 61.3787C86.6919 60.9774 87.9143 60.0029 89.3641 59.487C89.1935 59.2434 88.9945 59.1431 88.7813 59.0571C87.5163 58.5125 86.1517 58.2832 84.9009 57.753C83.4653 57.1368 81.8875 56.9505 80.5087 56.1909C80.1676 56.0046 79.7269 56.0476 79.3858 56.2626C77.6517 57.3947 75.6049 57.882 73.9134 59.1144C73.3732 59.5013 72.7194 59.9599 71.9803 60.0746C71.2269 60.1892 70.7436 60.7194 70.104 61.1637V61.178ZM113.5 57.7243C113.087 57.3804 112.633 57.1654 112.135 57.0221C111.097 56.7355 110.074 56.3772 109.093 55.9903C107.786 55.4744 106.449 54.9728 105.128 54.4713C104.175 54.0987 103.408 54.3279 102.597 54.9012C101.29 55.804 99.8257 56.4919 98.4043 57.1941C97.2956 57.7387 96.2722 58.3979 94.9929 59.0857C96.4001 59.3437 97.5088 59.7879 98.6459 60.1605C100.48 60.7624 102.242 61.565 104.133 62.0235C104.9 62.2098 105.54 62.0809 106.066 61.7083C106.876 61.1064 107.729 60.6765 108.71 60.5045C109.093 60.4328 109.463 60.2752 109.705 60.0172C110.074 59.616 110.543 59.4153 111.012 59.272C111.95 58.9568 112.718 58.4122 113.485 57.753L113.5 57.7243ZM106.734 52.8519C107.743 53.1815 108.809 53.3678 109.733 53.8407C111.652 54.8439 113.727 55.4314 115.731 56.2053C116.556 56.5205 117.067 56.2053 117.664 55.8613C118.659 55.2738 119.669 54.7149 120.678 54.2133C121.63 53.7404 122.54 53.3105 123.236 52.5079C123.45 52.2643 124.075 52.379 123.961 51.9204C123.862 51.5621 123.322 51.8201 123.009 51.6194C121.886 50.9172 120.578 50.6736 119.37 50.172C117.977 49.5845 116.598 48.9109 115.134 48.438C114.31 48.1801 113.784 48.3664 113.201 48.7676C112.604 49.1832 111.922 49.4555 111.353 49.9427C110.699 50.5016 109.804 50.5876 109.108 51.0605C108.297 51.6051 107.558 52.2357 106.748 52.8519H106.734ZM94.9076 48.2661C95.0924 48.3234 95.2772 48.3807 95.462 48.4667C96.6133 48.9969 97.7504 49.5128 98.9871 49.8281C99.7546 50.0144 100.536 50.3153 101.204 50.7166C101.986 51.1895 102.91 51.2468 103.664 51.7341C103.806 51.8201 103.99 51.6624 104.147 51.5621C105.199 50.9172 106.208 50.2437 107.288 49.6418C108.724 48.8536 110.188 48.0511 111.51 46.9476C110.941 46.6753 110.415 46.4031 109.875 46.1738C108.454 45.5862 106.975 45.099 105.597 44.4398C104.502 43.9095 103.621 43.365 102.313 44.0815C101.133 44.7407 99.9252 45.3999 98.6886 46.0018C97.5514 46.5607 96.5422 47.4349 95.3198 47.9078C95.1493 47.9794 94.9929 48.0511 94.9076 48.2517V48.2661ZM77.5522 65.3626C76.4293 65.0616 75.3774 64.7034 74.2972 64.5171C72.8047 64.2735 71.4686 63.4996 69.9476 63.299C69.2369 63.213 68.4552 62.869 67.7018 62.6111C67.1475 62.4248 66.65 62.5394 66.252 63.0124C65.8966 63.4279 65.4276 63.7432 64.9158 63.8722C64.262 64.0442 63.7219 64.3738 63.1249 64.6604C62.002 65.2193 60.8364 65.6922 59.6851 66.2081C59.2302 66.4231 58.7754 66.638 58.2494 66.896C58.7754 67.0679 59.2018 67.3259 59.6282 67.3402C61.2913 67.4262 62.8264 68.1141 64.5036 68.2574C66.3941 68.4007 68.2846 68.8879 70.1182 69.4612C70.4025 69.5472 70.7436 69.5185 70.9853 69.2749C71.5538 68.7303 72.2503 68.3864 72.9184 67.9994C73.5438 67.6412 74.2261 67.3546 74.752 66.8816C75.5622 66.1651 76.7988 66.2941 77.538 65.3483L77.5522 65.3626ZM83.6927 64.8897C86.5071 65.6205 89.1936 66.724 92.0079 67.2829C92.5197 67.3832 92.9887 67.7845 93.6426 67.3975C94.5807 66.853 95.732 66.724 96.6417 66.0075C97.0824 65.6635 97.7931 65.6922 98.2479 65.3626C99.3708 64.5744 100.607 64.0298 101.887 63.4566C100.607 62.6684 99.1576 62.5968 97.8642 62.0665C96.5422 61.522 95.1066 61.2497 93.7847 60.6048C93.3725 60.4042 92.8181 60.0172 92.278 60.3755C90.3449 61.6653 88.0991 62.3102 86.1517 63.5426C85.3699 64.0298 84.5597 64.4884 83.6927 64.8753V64.8897ZM107.7 63.2273C108.397 63.3993 108.965 63.5856 109.534 63.8005C111.51 64.5314 113.599 64.947 115.518 65.8785C115.987 66.1078 116.499 66.1508 117.053 65.9072C118.56 65.2193 119.996 64.3594 121.516 63.7289C122.355 63.3706 123.137 62.912 123.961 62.5538C124.828 62.1812 124.914 62.1955 124.032 61.6796C123.023 61.0777 121.914 60.9201 120.863 60.5045C119.967 60.1605 119.043 59.9313 118.247 59.3724C117.622 58.9281 116.968 58.7561 116.186 59.0141C115.532 59.229 115.134 59.8166 114.509 60.0172C113.613 60.3325 112.761 60.8054 111.808 60.9201C111.652 60.9344 111.481 60.9917 111.439 61.1637C111.311 61.7513 110.785 61.8086 110.373 62.0379C109.548 62.4821 108.553 62.5251 107.7 63.2273ZM113.841 67.4262C113.457 67.0823 112.96 67.2829 112.604 67.0679C111.353 66.3084 109.889 66.2654 108.567 65.7209C107.558 65.3053 106.492 65.0187 105.483 64.6174C105.071 64.4598 104.786 64.5027 104.417 64.732C103.919 65.033 103.422 65.3483 102.853 65.5202C101.915 65.7925 101.105 66.3801 100.209 66.767C99.6551 67.0106 99.0581 67.2256 98.518 67.5122C97.8499 67.8561 97.3524 68.544 96.4996 68.6873C97.2529 68.63 97.8499 69.1602 98.4896 69.1889C99.7973 69.2462 100.878 69.9054 102.086 70.235C103.294 70.5503 104.502 70.8942 105.71 71.2095C105.852 71.2382 106.094 71.2382 106.137 71.1522C106.378 70.7366 106.847 70.8226 107.189 70.6506C107.53 70.4787 107.899 70.3927 108.226 70.192C109.278 69.5615 110.33 68.8593 111.481 68.4867C112.32 68.2144 113.002 67.7272 113.827 67.4405L113.841 67.4262ZM119.569 57.5667C119.924 57.9106 120.422 57.882 120.749 58.0969C122.511 59.1861 124.615 59.358 126.378 60.4042C126.449 60.4472 126.577 60.4328 126.662 60.4042C127.643 59.9599 128.538 59.3437 129.491 58.8564C130.955 58.1256 132.248 56.9648 133.968 56.7928C134.124 56.7785 134.38 56.7928 134.38 56.5492C134.38 56.3772 134.195 56.3342 134.053 56.2626C133.058 55.7324 131.95 55.4457 130.912 54.9585C129.675 54.3709 128.325 54.027 127.088 53.4251C126.918 53.3391 126.761 53.2531 126.591 53.3391C125.411 53.9697 124.174 54.5429 123.066 55.2881C121.914 56.062 120.749 56.8072 119.541 57.581L119.569 57.5667ZM117.792 74.5056C117.863 74.4913 117.949 74.4913 118.02 74.4483C118.816 73.9324 119.782 73.789 120.564 73.3018C121.218 72.9005 122.042 72.9005 122.597 72.4133C123.108 71.969 123.634 71.6394 124.26 71.4675C124.445 71.4245 124.658 71.3528 124.644 71.1522C124.644 70.9516 124.388 70.9516 124.217 70.8942C121.886 70.192 119.669 69.1889 117.323 68.5297C117.138 68.4724 117.011 68.4294 116.812 68.5153C114.338 69.5472 111.979 70.7939 109.562 71.9404C109.42 71.9977 109.207 72.0264 109.264 72.2127C109.292 72.313 109.506 72.442 109.633 72.4276C110.287 72.3846 110.87 72.6712 111.467 72.8289C112.775 73.1728 114.139 73.3018 115.404 73.9037C116.115 74.2333 116.996 74.2476 117.778 74.5056H117.792Z" fill="#28716A"/>
<path fill-rule="evenodd" clip-rule="evenodd" d="M135.773 72.4562C130.301 70.9228 125.07 68.8879 119.669 67.2398C120.294 66.5376 121.204 66.4803 121.943 66.122C123.62 65.3052 125.425 64.646 126.918 63.5282C128.382 62.439 129.945 61.5792 131.537 60.705C131.864 60.5187 132.276 60.3897 132.333 59.8595C132.348 59.7162 132.689 59.5729 132.888 59.5156C134.309 59.1 135.546 58.2831 136.882 57.6812C137.18 57.5523 137.379 57.6526 137.593 57.7386C138.673 58.1255 139.668 58.7274 140.805 58.9423C140.904 58.9567 141.018 58.9997 141.089 59.057C142.084 60.0028 143.477 60.0458 144.629 60.6334C144.785 60.7194 144.984 60.7337 145.112 60.834C145.894 61.5075 146.974 61.5219 147.798 62.0378C148.864 62.697 150.144 62.7686 151.21 63.4135C151.92 63.8434 152.986 63.8291 153.129 63.3849C153.37 62.5967 152.731 62.2241 152.205 61.8801C150.783 60.9486 149.333 60.0888 147.628 59.7592C147.201 59.6732 146.775 59.5299 146.448 59.1286C145.936 58.5411 145.027 58.7274 144.43 58.2975C143.292 57.4806 141.814 57.4806 140.705 56.6351C140.435 56.4201 140.066 56.5348 139.767 56.3628C139.881 56.0189 140.194 55.9616 140.435 55.8612C141.871 55.245 143.292 54.5715 144.657 53.7833C144.927 53.6257 145.098 53.4107 144.998 53.0811C144.884 52.7228 144.828 52.2069 144.387 52.1783C143.605 52.1209 142.752 51.992 142.07 52.5652C140.975 53.4823 139.639 53.8836 138.36 54.3852C138.317 54.3995 138.246 54.3852 138.204 54.3995C136.811 55.6749 135.659 54.5428 134.423 54.0699C133.542 53.726 132.689 53.339 131.765 53.0811C130.94 52.8518 130.173 52.3645 129.32 52.1209C129.021 52.0349 128.993 51.7627 129.334 51.5764C130.883 50.7595 132.447 49.9283 133.996 49.0971C134.352 48.9108 134.679 48.6529 135.062 48.5096C135.503 48.3376 135.56 48.0223 135.489 47.6497C135.418 47.2771 135.261 46.9475 134.835 46.9046C134.238 46.8329 133.641 46.7469 133.058 47.0479C131.623 47.7931 130.102 48.4236 128.766 49.3264C128.083 49.785 127.259 49.9857 126.648 50.6162C126.25 51.0175 125.596 50.6162 125.226 50.4156C123.648 49.4984 121.914 48.9968 120.266 48.2803C119.541 47.965 118.688 47.9077 118.105 47.2485C117.835 46.9475 117.309 47.4061 117.067 46.8759C117.508 46.6466 117.977 46.3743 118.489 46.1737C119.356 45.8298 120.422 45.6148 120.99 44.9699C121.602 44.2677 122.611 44.2247 123.051 43.3649C123.236 42.9923 123.265 42.7057 123.137 42.3617C123.009 42.0178 122.71 42.0894 122.426 42.0321C121.246 41.8028 120.436 42.6627 119.441 42.9779C118.73 43.2072 118.204 43.7231 117.607 44.0957C116.584 44.7406 115.319 44.7979 114.352 45.5575C114.139 45.7294 113.841 45.7151 113.628 45.5575C112.192 44.626 110.543 44.1387 108.98 43.5368C107.913 43.1212 106.961 42.4764 105.724 42.1468C106.549 41.6452 107.217 41.1293 108.027 40.7853C109.648 40.0831 111.041 39.037 112.334 37.8332C112.519 37.6612 112.732 37.4749 112.59 37.174C112.462 36.8874 112.22 36.8874 111.95 36.8587C111.083 36.8014 110.373 37.2743 109.619 37.5896C109.406 37.6756 109.221 37.8475 109.008 37.9049C107.26 38.3634 105.881 39.6102 104.204 40.2264C104.104 40.2551 103.99 40.3124 103.948 40.3841C103.408 41.2869 102.74 41.0003 102 40.685C100.494 40.0401 98.9728 39.3953 97.4519 38.7934C96.4995 38.4064 95.3766 38.2058 94.5664 37.4176C95.3198 37.002 95.8883 36.2568 96.7412 35.9559C97.0823 35.8269 97.4092 35.6549 97.7646 35.6549C98.191 35.6549 98.4753 35.5116 98.8164 35.225C99.6266 34.5515 100.408 33.8206 101.247 33.1901C101.986 32.6312 102.299 31.9146 102.711 31.1838C103.109 30.4672 103.919 30.3812 104.63 30.3526C105.156 30.3239 105.696 30.3526 106.236 30.3526C107.032 30.3239 107.416 30.7825 107.814 31.4417C108.454 32.5165 109.122 33.577 110.586 33.8206C111.822 34.0212 113.045 34.4512 114.225 34.8811C114.637 35.0244 115.021 34.9241 115.404 35.0101C116.186 35.1964 116.641 35.9702 117.437 36.1135C117.522 36.1135 117.622 36.3285 117.607 36.4288C117.536 36.8301 117.934 37.2886 117.906 37.389C117.721 38.1198 118.432 37.8762 118.574 38.1342C118.929 38.7934 119.583 39.0657 120.123 39.4956C121.758 40.7567 123.506 41.3299 125.539 40.728C126.378 40.4844 127.259 40.771 128.112 40.5131C129.448 40.1261 130.841 40.3124 132.205 40.3124C132.404 40.3124 132.703 40.2694 132.802 40.3841C133.598 41.2726 134.778 41.2869 135.745 41.7742C136.924 42.376 137.365 43.3075 137.521 44.4683C137.578 44.8409 137.692 45.0846 138.005 45.2709C139.071 45.9014 140.165 46.4746 141.302 46.9762C142.226 47.3775 143.093 47.9364 143.96 48.4666C144.742 48.9395 145.666 49.2118 146.562 49.4554C146.988 49.5701 147.414 49.7277 147.542 50.1003C147.812 50.9458 148.594 51.6623 148.239 52.6798C148.196 52.7945 148.239 52.9951 148.466 52.9234C148.751 52.8375 148.751 53.0811 148.779 53.2387C149.078 54.6001 150.058 55.4313 151.238 55.8183C151.935 56.0332 152.617 56.3342 153.313 56.5348C153.697 56.6351 154.01 56.8501 154.337 57.0507C155.062 57.5093 155.829 57.7386 156.682 57.4233C157.322 57.194 158.004 57.2513 158.672 57.2943C159.17 57.323 159.653 57.6669 159.809 58.1685C160.079 59.014 160.392 59.8595 160.378 60.7767C160.378 61.2782 160.506 61.7368 160.605 62.2241C160.676 62.5823 160.889 62.8116 161.202 62.8546C161.671 62.9263 161.97 63.2702 162.354 63.4709C162.581 63.5855 162.908 63.8721 162.737 64.0297C162.368 64.3737 162.538 65.1619 161.799 65.1905C160.889 65.2049 159.994 64.9899 159.241 64.5886C157.45 63.6428 155.829 63.7145 154.223 64.9326C153.029 65.8354 151.622 66.2367 150.186 65.9357C149.305 65.7494 148.381 65.6061 147.514 65.2192C146.121 64.5886 144.629 64.2877 143.108 64.0871C142.98 64.0727 142.823 64.0871 142.738 64.0297C141.771 63.3705 140.592 63.2989 139.54 62.869C138.118 62.2957 136.697 62.4104 135.389 63.2272C135.048 63.4422 134.735 63.5282 134.394 63.3132C133.911 62.9836 133.357 62.9979 132.831 63.0696C131.608 63.2272 130.4 63.3992 129.32 64.0584C128.495 64.56 128.14 66.122 128.652 67.2398C128.936 67.856 129.192 68.4579 129.832 68.8735C130.244 69.1458 130.4 69.7334 130.94 70.0343C131.537 70.3639 132.106 70.6505 132.774 70.7079C133.641 70.7795 134.238 71.4101 134.92 71.84C135.219 72.012 135.773 71.84 135.816 72.4992L135.773 72.4562Z" fill="#FEFEFE"/>
<path fill-rule="evenodd" clip-rule="evenodd" d="M67.2471 37.7187C67.9436 36.8732 68.9812 36.7872 69.8482 36.4002C71.6961 35.5547 73.4871 34.5659 75.2212 33.5198C76.0882 33.0039 76.7847 32.6599 77.7371 32.8749C78.0924 32.9609 78.3056 33.0469 78.1777 33.5341C77.9503 34.4083 77.8508 35.3254 77.6802 36.2283C77.6234 36.5292 77.5949 36.8302 77.6376 37.1454C77.7087 37.69 77.7655 38.2202 77.3391 38.7362C76.8842 39.2807 77.2112 40.3985 77.8792 40.6851C79.7697 41.4733 81.7739 42.0036 83.7923 41.588C84.8726 41.373 85.8818 40.6708 86.7488 39.9113C87.2463 39.4813 87.7865 39.0944 88.2413 38.5785C88.7814 37.9766 90.0891 37.8763 90.8141 38.2346C92.0791 38.8508 93.3442 39.4527 94.7087 39.7966C95.2346 39.9256 95.5758 40.3842 96.1444 40.5275C96.9403 40.7138 97.651 41.1724 98.4755 41.373C99.2715 41.5736 99.9537 42.1469 100.792 42.4765C100.053 42.7201 99.3852 43.0784 98.774 43.5226C97.9211 44.1245 96.7698 44.3108 96.0449 44.97C95.192 45.7439 93.9838 45.6722 93.2163 46.6037C92.8751 47.0193 92.0933 47.0766 91.2831 46.8473C89.9044 46.4317 88.6251 45.7869 87.2605 45.3713C85.3843 44.798 83.5507 44.0528 81.7597 43.2217C81.2338 42.978 80.651 42.8347 80.1108 42.7058C78.7889 42.3905 77.5807 41.7456 76.273 41.373C75.8466 41.2584 75.4913 40.9288 75.079 40.7281C73.4586 39.9399 71.7245 39.4384 70.0472 38.7935C69.1375 38.4352 68.2278 38.0483 67.2613 37.7187H67.2471Z" fill="#FDFEFE"/>
<path fill-rule="evenodd" clip-rule="evenodd" d="M39.2878 52.5223C40.1265 51.9778 40.894 51.2182 41.818 50.9173C43.1967 50.473 44.3481 49.6132 45.6842 49.0973C46.6365 48.739 47.5036 48.1371 48.3422 47.5496C48.9961 47.091 49.721 46.7757 50.4033 46.3744C50.8866 46.0878 51.4267 46.4461 51.8531 46.6897C52.18 46.876 52.4928 46.9907 52.8481 47.0193C53.8289 47.1053 54.6533 47.6642 55.5772 47.9365C57.3113 48.4524 59.0455 49.0113 60.7227 49.6992C61.1491 49.8855 61.6893 49.7278 62.1157 50.0288C62.2294 50.1148 62.4426 50.1434 62.4568 50.3011C62.4568 50.4874 62.2863 50.645 62.1157 50.6737C61.6609 50.7596 61.2486 50.9746 60.8649 51.2182C59.5998 51.9778 58.1926 52.465 56.956 53.2962C56.5296 53.5828 55.9326 53.6115 55.5061 53.8981C54.3974 54.6289 53.0045 54.7579 51.9526 55.6607C51.512 56.0477 50.8155 55.8614 50.2469 55.6894C47.6173 54.8869 45.0019 54.0127 42.3297 53.4108C41.3205 53.1815 40.3823 52.7086 39.3163 52.7373C39.3163 52.6656 39.3163 52.594 39.3163 52.5223H39.2878Z" fill="#FEFEFE"/>
<path fill-rule="evenodd" clip-rule="evenodd" d="M76.1308 43.236C75.2638 44.1245 74.1835 44.1961 73.3591 44.755C72.2504 45.5289 70.9427 45.9302 69.8055 46.6897C69.2512 47.0623 68.6542 47.7358 67.7871 47.5209C67.7445 47.5209 67.6734 47.5209 67.645 47.5639C67.048 48.3807 65.9109 48.1228 65.257 48.7963C65.0012 49.0543 64.8448 48.9969 64.6174 48.8106C64.191 48.4667 63.6082 48.4667 63.1391 48.2661C62.2436 47.8791 61.2486 47.8361 60.3531 47.4206C59.5572 47.0623 58.7185 46.6754 57.8088 46.5034C56.8707 46.3314 56.0036 45.9015 55.1081 45.5862C54.4827 45.3713 53.8004 45.185 53.2461 44.9127C55.5488 43.7232 57.9225 42.6771 60.1826 41.4017C60.6659 41.1294 61.2202 40.9717 61.7035 40.6851C62.3573 40.2982 63.0965 40.0546 63.6935 39.6247C64.4042 39.0944 65.0296 38.9224 65.7829 39.3667C67.2896 40.2552 68.9953 40.5991 70.6015 41.2297C71.7244 41.6739 72.8331 42.1469 73.9703 42.5481C74.6525 42.7917 75.2353 43.2503 76.1592 43.2217L76.1308 43.236Z" fill="#FEFEFE"/>
<path fill-rule="evenodd" clip-rule="evenodd" d="M76.7279 55.1733C75.3207 55.7036 74.0414 56.4488 72.7621 57.1653C72.3073 57.4233 71.7529 57.5379 71.2696 57.7385C70.7153 57.9678 70.1183 58.1398 69.7629 58.713C69.6634 58.8707 69.436 58.9853 69.2512 59.0283C68.37 59.2289 67.6735 59.7735 66.9201 60.2178C66.7069 60.3467 66.5363 60.3611 66.3658 60.2178C65.4561 59.5442 64.2905 59.3293 63.2955 59.2289C62.13 59.1143 61.0923 58.5124 59.9268 58.5411C59.3014 58.5554 58.8891 57.9392 58.2922 57.7529C58.1074 57.6956 57.8799 57.5809 57.7236 57.6096C56.5722 57.7815 55.7194 56.7927 54.5823 56.979C54.6818 56.5634 54.9234 56.5778 55.1082 56.5348C56.2311 56.2911 57.155 55.6176 58.0789 55.0014C58.6049 54.6431 59.2161 54.6431 59.7562 54.3278C61.4903 53.3677 63.2671 52.4792 65.0154 51.5477C65.3566 51.3757 65.6266 51.4187 65.9962 51.4474C67.5029 51.562 68.7111 52.5365 70.1894 52.7944C71.3834 52.9951 72.4636 53.6686 73.6576 53.9839C74.7095 54.2562 75.8039 54.4425 76.7279 55.1733Z" fill="#FEFEFE"/>
<path fill-rule="evenodd" clip-rule="evenodd" d="M89.3358 48.4954C87.9144 49.0399 86.9194 49.8854 85.7681 50.4157C85.0858 50.7166 84.4319 51.0749 83.7212 51.3615C82.7973 51.7198 81.9303 52.2643 81.1058 52.8376C80.5941 53.1958 80.0114 53.3535 79.5139 53.7261C79.3575 53.8407 79.1159 53.855 78.9169 53.7261C77.865 53.0955 76.671 52.8519 75.5197 52.4506C73.7714 51.8201 71.9804 51.3615 70.232 50.7309C69.7914 50.5733 69.3508 50.387 68.8959 50.215C68.5406 50.0861 68.4979 49.8281 68.8391 49.5988C69.0238 49.4698 69.2371 49.3552 69.4503 49.2835C70.8433 48.8536 72.1083 48.0941 73.3876 47.4206C74.7806 46.6754 76.3157 46.1165 77.5097 45.0703C78.4336 44.2678 79.0306 44.5544 80.054 44.9413C81.5465 45.4859 83.0247 46.1021 84.5314 46.6037C86.095 47.1053 87.5875 47.8075 89.3216 48.5097L89.3358 48.4954Z" fill="#FEFEFE"/>
<path fill-rule="evenodd" clip-rule="evenodd" d="M82.5557 54.7293C83.1384 54.2851 83.7354 54.0988 84.2329 53.8122C85.4411 53.1243 86.763 52.637 87.8291 51.7342C88.2271 51.4046 88.6393 51.1466 89.1084 51.075C89.748 50.9747 90.1886 50.5448 90.7288 50.2868C91.5532 49.8999 92.2213 49.6276 93.2589 49.9715C95.1636 50.6164 97.0114 51.4046 98.9161 52.0351C99.5699 52.2501 100.11 52.7087 100.821 52.809C101.219 52.852 101.134 53.1243 100.892 53.3392C100.835 53.3966 100.778 53.4682 100.707 53.4825C98.845 53.9268 97.452 55.2882 95.7464 56.0764C94.7087 56.5493 93.5858 56.8933 92.6477 57.6528C92.0365 58.14 91.141 57.8248 90.5156 57.5238C88.8525 56.7499 87.0757 56.449 85.3558 55.9761C85.2848 55.9618 85.2137 55.9188 85.1568 55.8758C84.4035 55.3312 83.5649 54.9586 82.5699 54.758L82.5557 54.7293Z" fill="#FEFEFE"/>
<path fill-rule="evenodd" clip-rule="evenodd" d="M70.0898 61.1781C70.7295 60.7195 71.2128 60.2036 71.9661 60.089C72.7052 59.9743 73.3591 59.5157 73.8992 59.1288C75.6049 57.8964 77.6517 57.4235 79.3717 56.277C79.6986 56.062 80.1534 56.019 80.4946 56.2053C81.8733 56.9649 83.4511 57.1512 84.8867 57.7674C86.1376 58.2976 87.5021 58.5269 88.7672 59.0715C88.9804 59.1718 89.1794 59.2721 89.35 59.5014C87.9001 60.0173 86.6777 60.9775 85.1852 61.3931C84.7019 61.522 84.2329 61.8946 83.8491 62.2529C83.0958 62.9408 82.0155 63.0411 81.2763 63.8436C80.9352 64.2162 80.2245 64.0299 79.5849 63.8436C78.5899 63.557 77.5949 63.1271 76.6141 62.9838C74.6241 62.6972 72.8758 61.565 70.8716 61.479C70.6442 61.479 70.4168 61.3214 70.0898 61.1924V61.1781Z" fill="#FEFEFE"/>
<path fill-rule="evenodd" clip-rule="evenodd" d="M113.485 57.7243C112.718 58.3835 111.95 58.928 111.012 59.2433C110.543 59.401 110.088 59.6016 109.705 59.9885C109.463 60.2465 109.093 60.4041 108.71 60.4758C107.729 60.6477 106.876 61.0776 106.066 61.6795C105.54 62.0521 104.914 62.1811 104.133 61.9948C102.242 61.5362 100.48 60.7337 98.6459 60.1318C97.5088 59.7592 96.3859 59.315 94.9929 59.057C96.2722 58.3691 97.2956 57.7243 98.4043 57.1654C99.8257 56.4632 101.29 55.7753 102.597 54.8725C103.408 54.3136 104.175 54.0699 105.128 54.4425C106.449 54.9584 107.771 55.4457 109.093 55.9616C110.074 56.3485 111.098 56.7211 112.135 56.9934C112.633 57.1224 113.087 57.3517 113.5 57.6956L113.485 57.7243Z" fill="#FDFEFE"/>
<path fill-rule="evenodd" clip-rule="evenodd" d="M106.72 52.8519C107.53 52.2213 108.283 51.5908 109.079 51.0605C109.776 50.602 110.671 50.5016 111.325 49.9428C111.893 49.4698 112.576 49.1832 113.173 48.7676C113.756 48.3664 114.267 48.1801 115.106 48.438C116.57 48.8966 117.949 49.5845 119.342 50.172C120.55 50.6736 121.872 50.9172 122.98 51.6194C123.307 51.8201 123.848 51.5621 123.933 51.9204C124.047 52.3933 123.421 52.2643 123.208 52.5079C122.511 53.3105 121.602 53.7547 120.649 54.2133C119.626 54.7149 118.617 55.2738 117.636 55.8613C117.039 56.2196 116.527 56.5205 115.703 56.2053C113.699 55.4314 111.638 54.8439 109.705 53.8407C108.781 53.3535 107.715 53.1672 106.705 52.8519H106.72Z" fill="#FEFEFE"/>
<path fill-rule="evenodd" clip-rule="evenodd" d="M94.9077 48.2661C94.993 48.0655 95.1636 47.9795 95.3199 47.9222C96.5281 47.4493 97.5373 46.5751 98.6887 46.0162C99.9111 45.4143 101.119 44.7551 102.313 44.0959C103.621 43.3793 104.516 43.9239 105.597 44.4541C106.976 45.1277 108.454 45.6149 109.875 46.1882C110.415 46.4031 110.941 46.6897 111.51 46.962C110.188 48.0655 108.724 48.868 107.288 49.6562C106.208 50.2581 105.185 50.9316 104.147 51.5765C103.991 51.6768 103.806 51.8345 103.664 51.7485C102.91 51.2612 101.986 51.2039 101.205 50.731C100.537 50.3154 99.7547 50.0288 98.9872 49.8425C97.7505 49.5272 96.6134 49.0113 95.4621 48.4811C95.2915 48.3951 95.0925 48.3521 94.9077 48.2804V48.2661Z" fill="#FEFEFE"/>
<path fill-rule="evenodd" clip-rule="evenodd" d="M77.5522 65.377C76.8131 66.3371 75.5765 66.2081 74.7662 66.9103C74.2403 67.3833 73.5581 67.6699 72.9326 68.0281C72.2646 68.4151 71.5681 68.7447 70.9995 69.3036C70.7579 69.5472 70.4167 69.5759 70.1325 69.4899C68.2988 68.9167 66.4084 68.4294 64.5179 68.2861C62.8406 68.1571 61.3055 67.4692 59.6424 67.3689C59.2018 67.3403 58.7896 67.0967 58.2637 66.9247C58.7896 66.6811 59.2444 66.4518 59.6993 66.2368C60.8506 65.7209 62.0162 65.2337 63.1391 64.6891C63.7219 64.4025 64.2762 64.0729 64.9301 63.9009C65.4418 63.7576 65.9109 63.4567 66.2662 63.0411C66.6642 62.5681 67.1617 62.4535 67.7161 62.6398C68.4552 62.8834 69.2512 63.2274 69.9619 63.3277C71.497 63.5283 72.8189 64.3022 74.3114 64.5458C75.3917 64.7321 76.4435 65.0904 77.5664 65.3913L77.5522 65.377Z" fill="#FDFEFE"/>
<path fill-rule="evenodd" clip-rule="evenodd" d="M83.6926 64.9041C84.5597 64.5171 85.3699 64.0586 86.1517 63.5713C88.099 62.3389 90.359 61.694 92.2779 60.4042C92.8181 60.046 93.3724 60.4186 93.7846 60.6335C95.0923 61.2784 96.528 61.5507 97.8641 62.0952C99.1718 62.6398 100.622 62.6971 101.887 63.4853C100.607 64.0586 99.3708 64.6175 98.2479 65.3913C97.7788 65.7209 97.0823 65.6923 96.6417 66.0362C95.732 66.7384 94.5806 66.8817 93.6425 67.4263C92.9744 67.8132 92.5196 67.4119 92.0079 67.3116C89.1935 66.7384 86.507 65.6493 83.6926 64.9184V64.9041Z" fill="#FDFEFE"/>
<path fill-rule="evenodd" clip-rule="evenodd" d="M107.7 63.2417C108.553 62.5395 109.548 62.4965 110.372 62.0522C110.785 61.8229 111.325 61.7656 111.439 61.1781C111.467 61.0204 111.652 60.9631 111.808 60.9344C112.775 60.8198 113.613 60.3325 114.509 60.0316C115.12 59.8166 115.518 59.2291 116.186 59.0284C116.982 58.7705 117.636 58.9425 118.247 59.3867C119.043 59.9599 119.967 60.1892 120.862 60.5188C121.914 60.9201 123.023 61.0921 124.032 61.694C124.913 62.2242 124.828 62.1955 123.961 62.5681C123.137 62.9264 122.355 63.385 121.516 63.7432C119.995 64.3881 118.56 65.2336 117.053 65.9215C116.499 66.1795 115.987 66.1365 115.518 65.8929C113.599 64.947 111.524 64.5314 109.534 63.8149C108.965 63.5999 108.397 63.4136 107.7 63.2417Z" fill="#FDFEFE"/>
<path fill-rule="evenodd" clip-rule="evenodd" d="M113.841 67.4262C113.016 67.7128 112.334 68.2001 111.496 68.4723C110.344 68.8449 109.292 69.5472 108.241 70.1777C107.899 70.3783 107.544 70.4786 107.203 70.6363C106.862 70.8083 106.393 70.7223 106.151 71.1379C106.108 71.2238 105.853 71.2382 105.725 71.1952C104.516 70.8799 103.308 70.536 102.1 70.2207C100.892 69.9054 99.8116 69.2462 98.5039 69.1746C97.8643 69.1459 97.2673 68.6157 96.5139 68.673C97.3668 68.5297 97.85 67.8418 98.5323 67.4979C99.0725 67.2112 99.6694 66.9963 100.224 66.7527C101.119 66.3657 101.929 65.7782 102.868 65.5059C103.436 65.3339 103.934 65.033 104.431 64.7177C104.801 64.4884 105.085 64.4454 105.497 64.6031C106.521 65.0043 107.572 65.2766 108.582 65.7065C109.889 66.2511 111.368 66.3084 112.619 67.0536C112.974 67.2686 113.471 67.0536 113.855 67.4119L113.841 67.4262Z" fill="#FDFEFE"/>
<path fill-rule="evenodd" clip-rule="evenodd" d="M119.583 57.5666C120.791 56.7927 121.943 56.0475 123.108 55.2737C124.217 54.5285 125.454 53.9696 126.633 53.3247C126.804 53.2387 126.96 53.3247 127.131 53.4107C128.368 54.0126 129.718 54.3565 130.955 54.944C131.978 55.4313 133.087 55.7036 134.096 56.2481C134.238 56.3198 134.423 56.3628 134.423 56.5348C134.423 56.7784 134.181 56.764 134.011 56.7784C132.291 56.9647 130.997 58.1111 129.533 58.842C128.581 59.3149 127.685 59.9311 126.705 60.3897C126.619 60.4327 126.491 60.4327 126.42 60.3897C124.658 59.3436 122.54 59.1716 120.791 58.0825C120.45 57.8675 119.967 57.8962 119.612 57.5522L119.583 57.5666Z" fill="#FDFEFE"/>
<path fill-rule="evenodd" clip-rule="evenodd" d="M117.807 74.5056C117.025 74.2477 116.144 74.2477 115.433 73.9037C114.168 73.3018 112.803 73.1872 111.496 72.8289C110.899 72.6713 110.316 72.3847 109.662 72.4277C109.548 72.4277 109.335 72.313 109.292 72.2127C109.236 72.0264 109.449 71.9977 109.591 71.9404C112.007 70.794 114.367 69.5329 116.84 68.5154C117.025 68.4437 117.167 68.4867 117.352 68.5297C119.697 69.1746 121.929 70.1777 124.246 70.8943C124.416 70.9516 124.658 70.9516 124.672 71.1522C124.672 71.3529 124.473 71.4245 124.288 71.4675C123.649 71.6395 123.123 71.9691 122.625 72.4133C122.071 72.9006 121.246 72.9149 120.593 73.3018C119.811 73.7747 118.844 73.9324 118.048 74.4483C117.991 74.4913 117.906 74.4913 117.821 74.5056H117.807Z" fill="#FDFEFE"/>
</g>
<defs>
<clipPath id="clip0_35_13269">
<rect width="190" height="91" fill="white"/>
</clipPath>
</defs>
</svg>
