<svg width="640" height="320" viewBox="0 0 640 320" fill="none" xmlns="http://www.w3.org/2000/svg">
<g clip-path="url(#clip0_46_3111)">
<path d="M42.5796 189.881V14.8926H20.5451C15.3505 14.8926 9.90048 15.4245 6.38774 18.9349C2.85371 22.4665 0.000934513 25.594 0.000934513 30.7639V282.619C0.000934513 287.789 -0.16938 293.257 4.08849 297.512C7.60123 301.023 12.9661 302.129 20.5451 302.129H26.7616C31.7433 302.129 35.4264 301.023 39.0456 297.512C42.6648 293.98 42.5796 287.789 42.5796 282.619V189.902V189.881Z" fill="#005671"/>
<path d="M284.213 52.8263C280.679 49.2095 276.741 48.9329 271.568 48.9329H223.092C221.644 48.9329 219.281 47.4224 219.281 45.9757V16.467C219.281 11.4886 219.366 7.70161 215.747 4.06356C212.128 0.446779 207.572 0 202.611 0H193.287C188.326 0 180.705 0.106376 177.085 3.72316C173.466 7.36121 172.466 11.5099 172.466 16.467V45.9757C172.466 45.9757 171.593 48.9329 167.867 48.9329H113.43C112.813 48.9329 112.345 48.3372 112.025 47.933C111.727 47.5288 111.663 46.6139 111.876 45.9969C112.281 43.9332 112.494 41.8696 112.494 39.8059C112.494 36.9124 111.983 33.9339 110.961 30.849C108.896 26.0834 106.32 19.3391 100.806 16.8499C95.3131 14.3607 78.4307 14.8926 78.0049 14.8926H51.3932V55.3155H61.165C62.6127 55.3155 65.0822 56.6345 64.5287 60.1449C60.8031 78.782 57.8865 90.9088 54.3737 105.61C53.7563 108.503 53.4157 111.418 53.4157 114.312C53.4157 121.971 55.5446 130.034 59.9089 138.523C66.1041 150.33 69.1485 162.649 69.1485 175.478C69.1485 183.754 67.3176 189.158 64.0178 191.647C61.7398 193.306 58.5251 194.115 54.9911 194.115C52.5003 194.115 48.1359 193.945 48.0508 193.945C48.0508 193.945 51.2655 210.986 52.5215 216.794C53.5434 221.964 55.9491 226.325 59.6748 229.836C62.9959 232.942 66.7215 234.495 70.8517 234.495C71.469 234.495 72.0864 234.389 72.7251 234.176C73.747 234.176 74.6837 234.07 75.514 233.857C83.5827 232.41 89.9908 229.921 94.7809 226.389C105.532 218.73 110.939 203.837 110.939 181.69C110.939 159.543 104.382 138.31 91.332 120.503C90.2888 119.056 89.9269 117.609 90.3527 116.162C95.526 100.844 101.444 81.0797 108.278 56.8473C108.47 56.6345 108.491 56.5282 108.704 56.5282C108.917 56.5282 108.619 56.6345 108.619 56.8473V72.676C108.619 77.8459 110.067 84.4199 113.601 87.9303C117.113 91.4407 122.563 93.6108 127.758 93.6108H145.769C147.217 93.6108 147.919 93.1215 147.919 94.7809C147.727 108.865 147.344 119.205 146.833 128.417C146.322 137.629 145.364 147.926 144.023 159.309C142.682 170.691 140.681 180.371 138.083 188.349C135.486 196.306 132.101 204.54 128.077 213.028C124.032 221.517 118.753 229.134 112.536 235.857C106.32 242.58 98.6768 248.749 90.1824 254.324C86.4355 257.025 83.0717 260.536 83.0717 264.897V266.769C83.0717 270.493 101.53 291.342 106.298 292.576C107.746 293.002 109.194 293.236 110.663 293.236C113.771 293.236 116.751 292.278 119.668 290.215C140.383 276.131 155.966 259.174 166.419 238.984C176.873 218.794 184.09 195.178 188.028 167.436C188.028 167.436 189.433 157.224 190.86 145.778C192.456 132.332 193.201 106.567 193.627 94.7597C193.627 93.1002 194.372 93.5895 195.82 93.5895H271.631C276.805 93.5895 280.573 92.6747 284.107 89.1643C287.641 85.6539 287.471 77.8459 287.471 72.676V66.4637C287.471 61.5065 287.811 56.4643 284.277 52.8263H284.213Z" fill="#005671"/>
<path d="M260.646 125.524H201.717C201.717 125.524 200.589 138.289 199.865 144.926C199.013 152.479 196.672 165.946 196.672 165.946H229.585C231.245 165.946 231.969 166.223 231.756 167.67C230.096 218.39 227.094 246.111 222.751 251.685C219.856 254.792 216.236 256.791 211.872 256.791C208.338 256.791 204.612 257.408 200.695 257.408H200.057C196.331 257.408 193.436 258.089 191.349 261.195C189.902 263.259 189.178 264.578 189.178 266.855C189.178 268.301 189.391 269.748 189.795 271.003C191.03 274.726 192.18 278.684 193.223 282.407C194.457 287.577 197.055 292.363 200.993 295.895C204.74 299.406 209.083 302.065 214.044 302.065H214.363C223.879 302.065 231.139 300.278 236.099 299.023C242.103 297.98 247.191 295.47 251.321 293.193C255.473 290.917 259.496 287.279 263.435 282.088C267.991 275.875 271.312 262.876 273.377 242.814C276.89 208.241 278.657 174.818 278.657 141.905C278.657 136.736 276.89 133.034 273.377 129.502C269.864 125.97 265.606 125.481 260.625 125.481L260.646 125.524Z" fill="#005671"/>
<path d="M411.736 87.0155L404.37 75.6546L411.736 64.2936C417.463 56.124 429.279 40.6569 433.345 34.8488C438.816 27.0621 431.003 23.9772 423.744 23.9772H408.649C401.39 23.9772 394.3 24.5516 391.661 28.3173L362.111 69.4848C359.216 73.5909 359.216 78.6969 362.111 82.803L391.661 125.694C394.322 129.481 401.39 132.481 408.649 132.481H423.744C431.003 132.481 438.816 126.821 433.345 119.013C429.279 113.205 417.463 95.1426 411.736 86.9943V87.0155Z" fill="#005671"/>
<path d="M592.824 87.0155L585.457 75.6546L592.824 64.2936C598.55 56.124 610.366 40.6569 614.432 34.8488C619.904 27.0621 612.09 23.9772 604.831 23.9772H589.715C582.434 23.9772 575.366 24.5516 572.726 28.3173L543.156 69.4848C540.281 73.5909 540.281 78.6969 543.156 82.803L572.726 125.694C575.366 129.481 582.434 132.481 589.715 132.481H604.831C612.09 132.481 619.904 126.821 614.432 119.013C610.345 113.205 598.529 95.1426 592.824 86.9943V87.0155Z" fill="#005671"/>
<path d="M502.281 87.0155L494.915 75.6546L502.281 64.2936C508.008 56.124 519.802 40.6569 523.89 34.8488C529.34 27.0621 521.548 23.9772 514.267 23.9772H499.173C491.913 23.9772 484.824 24.5516 482.184 28.3173L452.613 69.4848C449.718 73.5909 449.718 78.6969 452.613 82.803L482.184 125.694C484.845 129.481 491.913 132.481 499.173 132.481H514.267C521.548 132.481 529.34 126.821 523.89 119.013C519.802 113.205 508.008 95.1426 502.281 86.9943V87.0155Z" fill="#005671"/>
<path d="M367.476 224.836L375.885 231.219C379.802 233.921 384.06 236.218 388.637 236.218H390.809C396.195 236.218 400.644 232.58 404.178 228.432C413.503 217.454 421.998 202.625 429.662 185.86C430.684 183.584 431.216 181.201 431.216 178.712C431.216 176.435 430.684 174.159 429.662 171.882C427.81 167.329 424.488 164.117 419.72 162.266L412.886 159.457C410.821 158.628 408.628 158.224 406.371 158.224C403.88 158.224 401.496 158.734 399.218 159.777C394.449 161.862 390.937 165.159 388.659 169.712C382.442 181.924 374.884 192.817 365.964 202.135C363.069 205.242 361.621 209.007 361.621 213.113C361.621 218.092 363.58 222.155 367.518 224.857L367.476 224.836Z" fill="#005671"/>
<path d="M639.085 283.045C637.616 279.535 634.933 277.471 630.995 276.854C606.555 273.748 586.5 268.003 570.874 259.621C555.226 251.239 543.261 240.516 534.98 227.368C530.701 220.581 526.06 209.029 522.526 198.476C521.312 205.688 519.503 213.539 516.82 221.347C510.987 238.346 504.196 250.409 499.959 256.983C509.795 272.769 522.228 285.555 537.3 295.321C554.396 306.384 576.814 314.532 604.575 319.702C606.022 319.915 607.47 320.021 608.918 320.021C612.643 320.021 616.156 319.085 619.477 317.234C624.267 314.745 627.972 311.022 630.675 306.065C633.166 301.703 635.636 297.47 638.127 293.321C639.362 291.47 640 289.513 640 287.428C640 285.981 639.681 284.534 639.063 283.088L639.085 283.045Z" fill="#005671"/>
<path d="M564.806 228.708L571.64 230.559C574.131 231.197 576.494 231.495 578.772 231.495C581.689 231.495 584.584 230.985 587.48 229.963C592.653 228.091 596.804 224.879 599.912 220.347C607.577 208.965 615.241 196.647 622.905 183.392C624.14 181.328 624.778 179.137 624.778 176.861C624.778 175.01 624.267 173.137 623.224 171.265C621.351 167.138 618.243 164.564 613.9 163.5L598.358 160.075C596.698 159.649 595.144 159.458 593.696 159.458C590.375 159.458 587.075 160.287 583.754 161.947C579.198 164.436 575.877 168.159 573.812 173.116C568.83 185.115 563.125 196.817 556.716 208.22C555.269 210.497 554.545 212.773 554.545 215.05C554.545 216.922 554.949 218.688 555.801 220.347C557.462 224.687 560.463 227.474 564.806 228.73V228.708Z" fill="#005671"/>
<path d="M516.629 176.116C516.224 169.074 516.31 161.415 516.31 159.968C516.31 155.628 514.755 152.309 511.647 148.99C508.326 145.458 504.196 144.735 499.214 144.735H483.971C478.798 144.735 474.348 145.458 470.601 148.99C466.876 152.501 464.811 155.819 464.385 161.011C463.767 170.116 463.022 177.882 462.213 184.286C461.362 190.711 460.021 197.583 458.168 204.944C456.295 212.305 453.825 218.496 450.717 223.581C447.609 228.666 443.628 233.942 438.752 239.431C433.877 244.92 427.98 249.622 421.04 253.558C414.078 257.494 405.797 261.323 396.195 265.046C386.551 268.769 375.523 272.088 363.09 274.982C359.152 275.812 356.448 278.194 355.021 282.13C354.596 283.577 354.383 285.024 354.383 286.47C354.383 288.747 355.107 291.023 356.554 293.3C359.045 297.023 361.43 300.852 363.708 304.81C366.198 309.554 369.818 313.086 374.586 315.362C377.695 317.022 380.803 317.851 383.911 317.851C385.572 317.851 387.339 317.532 389.191 316.915C416.548 309.66 438.603 300.597 455.379 289.747C472.155 278.875 485.014 265.77 493.913 250.451C493.913 250.451 503.11 232.346 508.262 216.73C513.414 201.136 516.608 176.137 516.608 176.137L516.629 176.116Z" fill="#005671"/>
</g>
<defs>
<clipPath id="clip0_46_3111">
<rect width="640" height="320" fill="white"/>
</clipPath>
</defs>
</svg>
