<svg width="158" height="32" viewBox="0 0 158 32" fill="none" xmlns="http://www.w3.org/2000/svg">
<path fill-rule="evenodd" clip-rule="evenodd" d="M14.163 29.2411C13.3582 29.4653 12.4956 29.2516 11.9098 28.6798L3.51399 20.4864L2.6382 21.2907L3.42617 20.389C3.36722 20.3255 3.30105 20.2692 3.23008 20.2199C2.71278 19.8653 2.40602 19.2923 2.40602 18.6876V4.70664C2.40602 3.67454 3.26617 2.83383 4.32481 2.83383C5.38226 2.83383 6.24361 3.67454 6.24361 4.70664V7.82878C6.24361 8.47692 6.78256 9.00296 7.44662 9.00296C8.11068 9.00296 8.64962 8.47692 8.64962 7.82878V4.70664C8.64962 2.37942 6.70917 0.485474 4.32481 0.485474C1.93925 0.485474 0 2.37942 0 4.70664V18.6876C0 20.0073 0.641203 21.2543 1.72271 22.0528C1.75278 22.0868 1.78286 22.1185 1.81293 22.1467L10.2075 30.3413C11.0977 31.209 12.2947 31.6775 13.523 31.6775C13.9585 31.6775 14.3976 31.6188 14.8283 31.4978C15.4659 31.3194 15.8352 30.6677 15.6511 30.0454C15.4671 29.4219 14.8042 29.0614 14.163 29.2411Z" fill="#005671"/>
<path fill-rule="evenodd" clip-rule="evenodd" d="M33.4099 0.322388C31.0746 0.322388 29.174 2.18726 29.174 4.47992V6.77373C29.174 7.41192 29.7019 7.92988 30.3523 7.92988C31.0027 7.92988 31.5305 7.41192 31.5305 6.77373V4.47992C31.5305 3.4625 32.3742 2.6347 33.4099 2.6347C34.4455 2.6347 35.2892 3.4625 35.2892 4.47992V18.2451C35.2892 18.8405 34.9875 19.4047 34.4821 19.7539L25.981 28.084C25.1409 28.9071 23.6586 28.9083 22.8197 28.084L9.9815 15.4865L9.88017 15.3975C9.87428 15.394 9.33346 14.9315 9.29222 14.2321C9.24391 13.4112 9.90138 12.5834 10.461 12.0342C10.9217 11.5822 10.9217 10.8503 10.461 10.3994C10.0004 9.94737 9.2557 9.94737 8.795 10.3994C7.48478 11.6851 6.86031 13.0204 6.94043 14.3662C7.03233 15.9339 8.05741 16.9086 8.35198 17.1571L21.1537 29.7188C22.0185 30.5674 23.1708 31.0345 24.4009 31.0345C25.6299 31.0345 26.7822 30.5674 27.647 29.7188L35.87 21.6511C35.8983 21.6222 35.9266 21.5933 35.9584 21.5586C37.0188 20.7713 37.6457 19.5434 37.6457 18.2451V4.47992C37.6457 2.18726 35.7451 0.322388 33.4099 0.322388Z" fill="#005671"/>
<path fill-rule="evenodd" clip-rule="evenodd" d="M14.8317 7.72041L18.2958 4.25647C18.667 3.88525 19.1552 3.70024 19.6422 3.70024C20.1292 3.70024 20.6175 3.88525 20.9887 4.25647C21.7312 4.99891 21.7312 6.20688 20.9887 6.94932L17.5246 10.4133C16.7822 11.1557 15.5742 11.1557 14.8317 10.4133C14.0892 9.67081 14.0892 8.46285 14.8317 7.72041ZM24.023 8.08089C24.5101 8.08089 24.9983 8.26709 25.3695 8.63832C25.7264 8.99521 25.9234 9.47386 25.9234 9.98355C25.9234 10.4944 25.7264 10.9731 25.3695 11.33L21.9054 14.7951C21.163 15.5375 19.955 15.5375 19.2125 14.7951C18.4712 14.0527 18.4712 12.8435 19.2125 12.1011L22.6766 8.63832C23.0478 8.26709 23.536 8.08089 24.023 8.08089ZM28.405 12.4615C28.8921 12.4615 29.3803 12.6466 29.7515 13.0178C30.494 13.7614 30.494 14.9694 29.7515 15.7118L26.2874 19.1757C25.5438 19.9182 24.3358 19.9182 23.5933 19.1757C22.8508 18.4333 22.8508 17.2253 23.5933 16.4829L27.0574 13.019L27.0598 13.0166C27.4298 12.6466 27.9168 12.4615 28.405 12.4615ZM16.1782 13.3568C16.2128 13.3568 16.2462 13.3472 16.2796 13.346C16.2534 14.48 16.6628 15.6199 17.5246 16.4829C18.3614 17.3196 19.4608 17.7374 20.559 17.7374C20.5936 17.7374 20.6258 17.7291 20.6604 17.7279C20.6342 18.8606 21.0436 20.0006 21.9054 20.8636C22.7422 21.7003 23.8416 22.1181 24.941 22.1181C26.0392 22.1181 27.1385 21.7003 27.9753 20.8636L31.4394 17.3996C33.1117 15.7261 33.1117 13.0034 31.4394 11.33C30.5763 10.4682 29.4352 10.0576 28.3012 10.085C28.3024 10.0516 28.3107 10.0182 28.3107 9.98355C28.3107 8.83527 27.8655 7.75741 27.0574 6.94932C26.1955 6.08751 25.0544 5.67929 23.9228 5.70555C23.949 4.57279 23.5396 3.43167 22.6766 2.56867C21.0042 0.895188 18.2802 0.893994 16.6079 2.56867L13.1438 6.0326C11.4703 7.70608 11.4703 10.4288 13.1438 12.1011C13.9806 12.939 15.08 13.3568 16.1782 13.3568Z" fill="#005671"/>
<path d="M62.4665 7.78239C62.7865 8.72239 63.1665 9.98239 63.3065 10.7424L65.6265 10.0824C65.4465 9.34239 65.0265 8.12239 64.6665 7.22239L62.4665 7.78239ZM58.3865 10.5424V12.7824H69.8465V10.5424H58.3865ZM62.2265 15.1624V17.3424H67.1865V15.1624H62.2265ZM66.3465 15.1624V15.5824C66.2065 21.0224 66.0065 23.0624 65.6265 23.5224C65.4265 23.7424 65.2465 23.8024 64.9065 23.8024C64.5065 23.8024 63.6865 23.7824 62.8065 23.7024C63.2065 24.3624 63.4865 25.3624 63.5265 26.0824C64.5465 26.1024 65.5265 26.1224 66.1265 26.0024C66.8065 25.9024 67.2665 25.7024 67.7265 25.1024C68.3265 24.3424 68.5265 22.0224 68.7265 16.1624C68.7265 15.8424 68.7265 15.1624 68.7265 15.1624H66.3465ZM60.9665 11.7424C60.8465 17.4624 60.8065 21.8024 56.2065 24.2224C56.7665 24.6424 57.4465 25.4824 57.7465 26.0624C62.8665 23.2424 63.2065 18.1224 63.3465 11.7424H60.9665ZM52.0865 8.20239V26.1424H54.3265V10.3424H57.1065V8.20239H52.0865ZM56.4465 8.20239V8.92239C56.1465 10.2024 55.4665 13.0824 54.8865 14.8824C56.0665 16.2624 56.3465 17.5224 56.3465 18.4624C56.3465 19.0424 56.2265 19.4424 55.9865 19.6224C55.8265 19.7424 55.6265 19.8024 55.4065 19.8024C55.1465 19.8024 54.8665 19.8024 54.5065 19.7824C54.8465 20.3824 55.0065 21.3024 55.0265 21.9224C55.5065 21.9224 56.0265 21.9224 56.4065 21.8824C56.8465 21.8024 57.2465 21.6624 57.5665 21.4224C58.2265 20.9624 58.5065 20.1024 58.5065 18.7824C58.5065 17.6024 58.2665 16.2024 56.9865 14.6224C57.5865 13.0424 58.2865 10.8024 58.8265 9.04239L57.1865 8.10239L56.8465 8.20239H56.4465ZM83.1465 16.1024L80.9065 16.2624C81.9465 22.3824 83.9065 25.3024 90.3865 26.2224C90.6865 25.5224 91.2665 24.4824 91.7665 23.9424C85.8465 23.4224 83.9065 21.0224 83.1465 16.1024ZM80.6865 15.0624C80.4065 19.7424 80.0465 22.5824 72.9065 23.9424C73.4065 24.4824 74.0265 25.4824 74.2465 26.1424C82.1665 24.4224 83.0065 20.6824 83.3665 15.0624H80.6865ZM76.6065 7.34239C76.0065 8.36239 74.8665 9.88239 73.8065 11.1424C75.1665 12.5624 76.3865 14.1424 77.0065 15.2624L79.3665 14.3824C78.7665 13.4624 77.6665 12.1824 76.5865 11.1024C77.3865 10.1424 78.2865 9.14239 79.0665 7.96239L76.6065 7.34239ZM82.2265 7.34239C81.5665 8.32239 80.3865 9.78239 79.2665 10.9824C80.6865 12.3624 81.9865 13.8824 82.6265 14.9624L84.9865 14.0824C84.3665 13.2224 83.2265 11.9824 82.1065 10.9624C82.9465 10.0624 83.8665 9.08239 84.7065 7.98239L82.2265 7.34239ZM87.9065 7.34239C87.1865 8.36239 85.8665 9.90239 84.6265 11.1424C86.2265 12.5824 87.6865 14.1624 88.4265 15.3024L90.7865 14.3624C90.0665 13.4424 88.8065 12.1624 87.5665 11.1224C88.4865 10.1824 89.5065 9.18239 90.4065 8.02239L87.9065 7.34239ZM87.9265 15.9824C87.4065 17.3224 86.4465 19.0624 85.6265 20.2024L87.7865 20.8424C88.6265 19.7824 89.6665 18.1824 90.5465 16.6024L87.9265 15.9824ZM74.2265 16.6624C74.8865 18.1024 75.7465 20.0224 76.1265 21.1824L78.5265 20.1224C78.1065 18.9824 77.1665 17.1224 76.4865 15.7624L74.2265 16.6624ZM98.4865 7.08239C97.5665 8.96239 95.9665 10.7424 94.3265 11.8624C94.7465 12.3024 95.4465 13.3424 95.6865 13.8024C97.5665 12.3624 99.4265 10.0824 100.566 7.78239L98.4865 7.08239ZM98.4865 9.44239L97.9065 11.5624H112.266V9.44239H98.4865ZM95.4865 14.1024V16.2424H112.366V14.1024H95.4865ZM94.8865 18.8024V20.9424H112.806V18.8024H94.8865ZM101.146 12.3024V19.9824H103.146V12.3024H101.146ZM97.6465 12.3024V20.0224H99.7665V12.3024H97.6465ZM104.686 12.3024V20.0224H106.686V12.3024H104.686ZM108.206 12.3024V20.0224H110.406V12.3024H108.206ZM100.386 22.1424C100.606 23.3824 100.746 25.0224 100.746 26.0024L103.106 25.6624C103.086 24.7024 102.866 23.1024 102.606 21.8824L100.386 22.1424ZM104.446 22.1024C104.906 23.3424 105.346 24.9424 105.486 25.9224L107.886 25.4624C107.706 24.4624 107.206 22.9024 106.706 21.7224L104.446 22.1024ZM108.526 22.0624C109.346 23.3624 110.326 25.1024 110.706 26.1824L113.066 25.1224C112.586 24.0624 111.566 22.3824 110.726 21.1624L108.526 22.0624ZM96.9665 21.3224C96.3865 22.7024 95.4265 24.3024 94.7065 25.2624L97.0665 26.2024C97.7865 25.0824 98.7265 23.3424 99.2865 21.9224L96.9665 21.3224ZM122.766 21.5824V23.5424H134.686V21.5824H122.766ZM123.426 8.70239V10.5624H134.066V8.70239H123.426ZM122.706 11.9024V13.7824H134.646V11.9024H122.706ZM127.646 19.9224V26.1224H130.006V19.9224H127.646ZM126.046 18.2424H131.346V19.1224H126.046V18.2424ZM126.046 16.0824H131.346V16.9224H126.046V16.0824ZM123.826 14.5824V20.6224H133.646V14.5824H123.826ZM124.986 10.8424C125.206 11.3624 125.406 12.0624 125.486 12.5224L127.626 11.9024C127.506 11.4824 127.246 10.8024 126.986 10.3224L124.986 10.8424ZM130.386 10.4624C130.266 10.9624 129.986 11.6824 129.786 12.2224L131.786 12.6424C132.026 12.1824 132.366 11.5824 132.706 10.8824L130.386 10.4624ZM127.226 7.72239C127.446 8.36239 127.726 9.22239 127.826 9.78239L130.066 9.14239C129.946 8.62239 129.646 7.80239 129.386 7.18239L127.226 7.72239ZM116.606 8.12239V26.0624H118.726V10.2624H121.266V8.12239H116.606ZM120.866 8.12239V8.80239C120.566 10.0624 119.926 12.6624 119.326 14.4424C120.526 15.8424 120.766 17.1424 120.766 18.1024C120.766 18.6824 120.666 19.1224 120.426 19.3024C120.266 19.4024 120.066 19.4624 119.866 19.4624C119.606 19.4824 119.306 19.4624 118.966 19.4424C119.286 20.0224 119.486 20.9224 119.486 21.5024C119.966 21.5024 120.446 21.5024 120.826 21.4624C121.266 21.3824 121.646 21.2624 121.966 21.0224C122.626 20.5224 122.886 19.6624 122.886 18.3624C122.886 17.1824 122.626 15.7624 121.366 14.1824C121.966 12.6424 122.626 10.6224 123.166 8.94239L121.586 8.04239L121.266 8.12239H120.866ZM144.766 13.9224C144.486 15.3824 144.006 16.8824 143.266 17.9224C143.706 18.1024 144.466 18.4824 144.826 18.7224C145.506 17.6224 146.126 15.9224 146.466 14.2624L144.766 13.9224ZM145.386 15.3624L144.846 17.1824H149.106V15.3624H145.386ZM143.866 19.0224V20.9224H149.266V19.0224H143.866ZM149.466 7.94239V9.74239H154.666V7.94239H149.466ZM149.346 14.1224V16.0424H155.346V14.1224H149.346ZM145.726 16.3424V19.1824C145.726 20.8024 145.506 23.3424 143.266 24.9224C143.686 25.2224 144.266 25.7824 144.526 26.1824C147.086 24.2024 147.506 21.3024 147.506 19.1824V16.3424H145.726ZM146.266 21.9424C146.846 22.6024 147.566 23.5424 147.886 24.1624L149.146 23.1024C148.826 22.5424 148.106 21.6424 147.486 21.0224L146.266 21.9424ZM154.166 7.94239V8.32239C153.706 9.24239 152.706 10.6424 151.846 11.4624C152.146 11.7224 152.686 12.2824 152.946 12.6224C154.106 11.6424 155.426 10.1424 156.346 8.82239L155.066 7.82239L154.666 7.94239H154.166ZM149.826 11.5024C151.146 12.3224 152.946 13.5224 153.786 14.2824L155.026 12.9024C154.106 12.1624 152.286 11.0424 150.986 10.2824L149.826 11.5024ZM154.766 14.1224V14.3424C154.666 15.3224 154.506 16.4824 154.366 17.2624L155.866 17.7424C156.126 16.8624 156.366 15.5424 156.586 14.4024L155.306 14.0224L155.026 14.1224H154.766ZM152.006 15.0824V24.1224L153.806 25.4224V15.0824H152.006ZM152.966 18.7824V20.6024H156.146V18.7824H152.966ZM151.106 20.4024L149.686 20.9024C150.666 24.9824 152.466 25.9024 154.706 25.9024H156.106C156.166 25.3824 156.406 24.4224 156.646 23.9624C156.206 23.9824 155.186 23.9824 154.866 23.9824C153.326 23.9824 151.826 23.4224 151.106 20.4024ZM149.746 17.5224C149.706 20.5624 149.506 23.2424 148.346 24.8224C148.766 25.1024 149.286 25.6824 149.526 26.1024C151.026 24.2024 151.306 21.0824 151.366 17.5224H149.746ZM137.806 8.24239V10.3424H143.806V8.24239H137.806ZM139.826 14.4424V16.5024H141.786V21.4824H139.826V23.5424H143.546V14.4424H139.826ZM139.606 9.38239C139.266 12.9024 138.686 16.3424 137.326 18.5224C137.706 19.0824 138.266 20.3024 138.446 20.8424C140.286 18.1424 141.206 13.9224 141.686 9.70239L139.606 9.38239ZM138.886 14.4424V25.0224H140.666V14.4424H138.886ZM144.166 7.38239V11.3224C144.166 13.0824 144.546 13.7424 146.306 13.7424C146.626 13.7424 147.646 13.7424 147.966 13.7424C148.446 13.7424 148.946 13.7024 149.246 13.6024C149.186 13.1624 149.126 12.4424 149.086 11.9624C148.786 12.0424 148.266 12.0824 147.946 12.0824C147.646 12.0824 146.686 12.0824 146.426 12.0824C146.086 12.0824 146.026 11.8824 146.026 11.3424V7.38239H144.166ZM144.766 8.92239V10.6224H148.886V8.92239H144.766Z" fill="#005671"/>
</svg>
