<svg width="385" height="443" viewBox="0 0 385 443" fill="none" xmlns="http://www.w3.org/2000/svg">
<path fill-rule="evenodd" clip-rule="evenodd" d="M383.114 269.381C381.119 259.349 368.709 247.906 368.709 247.906L360.389 238.699L344.816 222.32L330.029 207.916L311.756 188.414L308.211 183.398C308.211 183.398 304.886 177.173 302.61 176.468C300.354 175.742 295.035 176.468 295.035 176.468C295.035 176.468 287.218 170.323 282.867 166.616C278.495 162.909 271.182 154.931 271.182 154.931L270.356 153.199L273.479 136.498L276.521 121.771L276.118 110.348L274.808 97.6561C274.808 97.6561 271.404 87.3615 269.631 86.4549C267.858 85.5685 266.488 87.845 266.488 87.845L263.325 79.9477L259.135 79.2829L259.135 78.2152C259.135 78.2152 257.866 75.7372 255.972 75.8379C254.058 75.9185 252.769 78.1749 252.769 78.1749L251.157 77.9331C251.157 77.9331 249.384 78.1346 248.699 81.5191C248.034 84.9238 250.21 93.9291 250.21 93.9291L243.179 95.6617C243.179 95.6617 244.69 86.2736 244.69 83.715C244.69 81.1565 246.261 71.708 236.732 55.2688C227.223 38.8296 209.716 35.2436 209.716 35.2436C209.716 35.2436 214.088 31.8792 214.733 20.1743C215.398 8.48959 203.552 2.06299 203.552 2.06299C203.552 2.06299 187.254 -4.76653 178.772 8.65076C170.291 22.068 181.23 35.4853 181.23 35.4853L173.977 38.3662C173.977 38.3662 168.216 41.4889 163.783 44.6921C159.331 47.8953 153.892 55.2688 149.057 66.8326C144.222 78.3965 146.015 96.3668 146.015 96.3668C146.015 96.3668 145.168 95.0976 141.784 94.7954C138.399 94.4932 137.614 99.1671 137.614 99.1671L136.465 95.8027C136.465 95.8027 136.284 92.68 137.009 88.812C137.735 84.9439 138.903 82.0631 138.178 78.8598C137.452 75.6566 133.403 76.7243 133.403 76.7243C133.403 76.7243 133.403 74.0852 130.764 74.1658C128.125 74.2464 126.654 77.9532 126.654 77.9532L123.35 79.2224L119.583 85.1051L118.092 84.5007L116.339 85.2864L111.827 96.8906C111.827 96.8906 109.57 111.255 110.014 116.372C110.457 121.489 117.004 150.499 116.279 152.433C115.534 154.367 92.567 174.876 92.567 174.876C92.567 174.876 88.296 173.748 85.4151 173.567C82.5343 173.405 79.9757 177.656 79.5728 179.187C79.1497 180.718 76.0271 185.01 76.0271 185.01L60.5549 201.388L53.4836 209.286L47.883 214.644L36.44 225.382L25.9842 237.309L19.1547 244.521C19.1547 244.521 11.1768 250.948 7.04689 258.583C2.93709 266.238 0.96278 276.372 3.6825 286.445C6.40222 296.518 13.0706 298.472 23.8487 300.729C34.6269 302.985 55.6997 297.183 55.6997 297.183L76.7725 289.608L97.0998 280.482L110.839 275.788L111.081 277.48L111.827 292.751L111.343 300.809L113.237 320.149L114.969 346.319C114.969 346.319 116.702 368.379 116.702 369.366C116.702 370.353 115.634 384.758 115.634 388.223C115.634 391.688 117.427 399.344 117.246 405.549C117.065 411.754 117.427 420.618 117.427 420.618C117.427 420.618 155.886 443 192.612 443C229.339 443 269.248 421.686 269.248 421.686L269.409 418.946L269.973 402.728C269.973 402.728 271.444 391.366 271.545 388.827C271.645 386.289 271.222 385.04 270.638 377.123C270.054 369.205 271.222 359.515 271.222 359.515L272.633 336.709L273.7 322.305L275.272 305.261L275.856 297.445L276.017 282.053L276.662 278.528C276.662 278.528 297.07 286.183 314.113 293.416C331.157 300.648 347.113 302.804 354.446 303.166C361.759 303.529 371.892 302.219 378.48 297.042C385.068 291.864 385.169 279.434 383.174 269.381L383.114 269.381ZM170.774 186.843C167.49 189.401 164.73 191.497 162.051 192.927C159.371 194.357 155.463 193.995 155.463 193.995L149.298 188.233L147.727 188.072L140.313 190.389L137.755 192.927L134.37 194.317L117.347 195.788L115.131 190.389C115.131 190.389 145.994 160.451 148.291 152.03C150.608 143.609 149.862 132.448 149.862 132.448L148.553 125.297C148.553 125.297 151.917 130.232 154.154 130.313C156.39 130.394 159.251 129.245 159.251 129.245C159.251 129.245 162.796 138.391 165.919 142.501C169.042 146.611 172.345 150.157 172.91 152.715C173.494 155.274 173.494 170.585 173.494 170.585C173.494 170.585 174.078 184.325 170.774 186.883L170.774 186.843ZM270.034 197.702L270.86 200.099L270.86 200.925L260.485 199.354L250.532 196.634C250.532 196.634 247.974 194.337 247.168 193.914C246.342 193.511 243.179 192.101 240.822 192.101C238.465 192.101 235.302 195.143 235.302 195.143L232.925 196.795C232.925 196.795 224.04 194.579 221.925 191.98C219.83 189.381 218.057 187.528 217.775 182.652C217.493 177.777 216.768 159.726 217.775 155.556C218.782 151.386 225.088 140.487 225.088 140.487L230.95 129.124C230.95 129.124 232.522 130.031 234.234 129.709C235.967 129.386 237.941 129.064 237.941 129.064C237.941 129.064 236.954 132.589 236.712 137.445C236.47 142.3 236.47 150.983 239.089 156.039C241.708 161.116 251.922 171.592 251.922 171.592L271.847 193.39L270.034 197.681L270.034 197.702Z" fill="white"/>
<path fill-rule="evenodd" clip-rule="evenodd" d="M251.903 171.612C251.903 171.612 241.689 161.116 239.07 156.06C236.451 150.983 236.431 142.32 236.693 137.465C236.935 132.61 237.922 129.084 237.922 129.084C237.922 129.084 235.947 129.406 234.215 129.729C232.482 130.051 230.931 129.145 230.931 129.145L225.069 140.507C225.069 140.507 218.763 151.406 217.755 155.576C216.748 159.746 217.473 177.797 217.755 182.673C218.038 187.548 219.81 189.401 221.906 192C224.001 194.599 232.905 196.815 232.905 196.815L235.283 195.163C235.283 195.163 238.445 192.121 240.803 192.121C243.16 192.121 246.323 193.511 247.149 193.934C247.975 194.337 250.513 196.654 250.513 196.654L260.465 199.374L270.84 200.945L270.84 200.119L270.014 197.722L271.828 193.431L251.903 171.633L251.903 171.612Z" fill="#FFDB59"/>
<path fill-rule="evenodd" clip-rule="evenodd" d="M115.131 190.388L117.347 195.788L134.37 194.317L137.755 192.927L140.313 190.389L147.727 188.072L149.299 188.233L155.463 193.995C155.463 193.995 159.372 194.357 162.051 192.927C164.731 191.497 167.491 189.381 170.774 186.843C174.058 184.284 173.494 170.545 173.494 170.545C173.494 170.545 173.494 155.234 172.91 152.675C172.326 150.116 169.042 146.591 165.919 142.461C162.796 138.351 159.251 129.205 159.251 129.205C159.251 129.205 156.39 130.353 154.154 130.273C151.918 130.192 148.553 125.256 148.553 125.256L149.863 132.408C149.863 132.408 150.608 143.569 148.291 151.99C145.975 160.411 115.131 190.348 115.131 190.348L115.131 190.388Z" fill="#FFDB59"/>
<path fill-rule="evenodd" clip-rule="evenodd" d="M244.67 83.695C244.67 86.2535 243.159 95.6416 243.159 95.6416L250.19 93.909C250.19 93.909 248.014 84.9037 248.679 81.4991C249.344 78.0944 251.137 77.9131 251.137 77.9131L252.749 78.1548C252.749 78.1548 254.058 75.8984 255.952 75.8179C257.846 75.7373 259.115 78.1951 259.115 78.1951L259.115 79.2628L263.305 79.9277L266.468 87.8249C266.468 87.8249 267.838 85.5484 269.611 86.4349C271.384 87.3213 274.788 97.6361 274.788 97.6361L276.098 110.328L276.501 121.751L273.459 136.478L270.336 153.179L271.162 154.911C271.162 154.911 278.475 162.889 282.847 166.596C287.218 170.303 295.015 176.448 295.015 176.448C295.015 176.448 300.313 175.722 302.59 176.448C304.866 177.173 308.191 183.378 308.191 183.378L311.736 188.394L330.009 207.896L344.796 222.3L360.369 238.679L368.689 247.886C368.689 247.886 377.211 255.763 381.26 264.184C381.945 257.636 382.288 250.968 382.288 244.239C382.288 155.234 321.346 80.4515 238.908 59.3787C245.919 73.2593 244.65 81.358 244.65 83.695L244.67 83.695Z" fill="#FFDB59"/>
<path fill-rule="evenodd" clip-rule="evenodd" d="M7.04715 258.603C11.157 250.948 19.1549 244.541 19.1549 244.541L25.9845 237.329L36.4403 225.402L47.8832 214.665L53.4838 209.306L60.5551 201.409L76.0273 185.03C76.0273 185.03 79.15 180.739 79.573 179.208C79.9759 177.676 82.5345 173.426 85.4154 173.587C88.2963 173.748 92.5672 174.896 92.5672 174.896C92.5672 174.896 115.534 154.388 116.279 152.454C117.025 150.52 110.477 121.509 110.014 116.392C109.571 111.275 111.827 96.9108 111.827 96.9108L116.34 85.3067L118.092 84.521L119.583 85.1254L123.35 79.2427L126.654 77.9735C126.654 77.9735 128.125 74.2666 130.764 74.1861C133.403 74.1055 133.403 76.7446 133.403 76.7446C133.403 76.7446 137.453 75.6769 138.178 78.8801C138.903 82.0833 137.715 84.9642 137.009 88.8322C136.284 92.7003 136.466 95.8229 136.466 95.8229L137.614 99.1873C137.614 99.1873 138.379 94.5336 141.784 94.8156C145.169 95.1178 146.015 96.387 146.015 96.387C146.015 96.387 144.222 78.4167 149.057 66.8529C150.588 63.1863 152.179 60.0032 153.771 57.1828C66.458 74.7098 0.701155 151.789 0.701139 244.259C0.701137 253.808 1.40624 263.176 2.75603 272.343C3.36041 267.326 4.91167 262.612 7.0673 258.603L7.04715 258.603Z" fill="#FFDB59"/>
<path fill-rule="evenodd" clip-rule="evenodd" d="M117.227 405.549C117.429 399.344 115.615 391.688 115.615 388.223C115.615 384.758 116.683 370.354 116.683 369.366C116.683 368.379 114.951 346.319 114.951 346.319L113.218 320.15L111.324 300.809L111.808 292.751L111.062 277.48L110.821 275.788L97.081 280.482L76.7536 289.608L55.6808 297.183C55.6808 297.183 34.608 302.985 23.8299 300.729C16.1945 299.137 10.6342 297.667 7.06836 293.375C22.2988 350.691 63.5176 397.43 117.368 420.135C117.288 418.241 117.046 410.908 117.207 405.549L117.227 405.549Z" fill="#FFDB59"/>
<path fill-rule="evenodd" clip-rule="evenodd" d="M354.386 303.166C347.052 302.804 331.097 300.648 314.053 293.416C297.01 286.183 276.602 278.528 276.602 278.528L275.957 282.053L275.796 297.445L275.212 305.261L273.64 322.305L272.572 336.709L271.162 359.515C271.162 359.515 270.014 369.205 270.578 377.122C271.162 385.04 271.565 386.269 271.484 388.827C271.404 391.386 269.913 402.728 269.913 402.728L269.369 418.503C319.412 396.1 358.032 352.766 374.109 299.641C367.904 302.642 360.228 303.489 354.345 303.186L354.386 303.166Z" fill="#FFDB59"/>
<path fill-rule="evenodd" clip-rule="evenodd" d="M269.006 310.157C266.831 311.003 264.917 310.076 263.043 309.835C253.494 308.646 243.924 307.679 234.315 306.913C207.077 304.738 179.8 305.402 152.542 305.624C142.65 305.705 132.718 305.805 122.867 306.954C122.121 307.034 121.356 307.095 120.631 306.994C119.764 306.853 118.253 307.659 118.173 306.269C118.092 305.02 119.784 305.282 120.57 305.201C126.13 304.556 131.711 303.871 137.291 303.67C144.483 303.428 151.655 303.106 158.848 302.965C171.902 302.703 184.977 302.36 198.032 302.703C208.347 302.965 218.661 303.388 228.956 304.093C241.285 304.939 253.554 306.309 265.702 308.485C266.911 308.706 268.039 309.029 268.986 310.157L269.006 310.157Z" fill="#00ABDF"/>
<path fill-rule="evenodd" clip-rule="evenodd" d="M186.408 236.04C196.199 235.758 206.836 236.301 217.453 237.127C229.601 238.074 241.729 239.323 253.756 241.378C257.946 242.083 262.177 242.446 266.387 242.97C266.931 243.05 267.475 243.111 267.999 243.272C268.644 243.473 269.591 243.534 269.409 244.561C269.188 245.851 268.261 244.984 267.697 244.944C259.538 244.36 251.459 243.071 243.34 242.063C236.088 241.157 228.775 240.613 221.482 239.928C206.936 238.558 192.351 238.175 177.765 238.578C165.718 238.9 153.67 239.364 141.643 240.311C136.405 240.734 131.147 241.479 125.869 240.995C125.184 240.935 124.015 241.378 124.096 240.049C124.156 239.142 125.163 239.243 125.828 239.182C131.792 238.618 137.735 237.974 143.698 237.591C157.619 236.684 171.56 235.878 186.387 236.04L186.408 236.04Z" fill="#00ABDF"/>
<path fill-rule="evenodd" clip-rule="evenodd" d="M268.907 264.506C268.141 265.695 267.436 264.868 266.832 264.808C256.94 263.539 247.048 262.108 237.137 260.96C230.65 260.215 224.122 259.872 217.595 259.369C194.568 257.576 171.521 258.462 148.454 258.462C142.853 258.462 137.252 258.925 131.652 258.805C130.161 258.784 128.67 258.522 127.179 258.361C126.595 258.281 126.011 258.019 126.091 257.314C126.172 256.488 126.897 256.246 127.522 256.447C130.262 257.394 132.981 256.568 135.721 256.488C156.331 255.863 176.94 255.541 197.55 256.004C208.791 256.246 220.033 257.052 231.254 258.281C242.354 259.51 253.374 261.162 264.414 262.854C265.946 263.096 267.477 263.539 268.887 264.506L268.907 264.506Z" fill="#00ABDF"/>
<path fill-rule="evenodd" clip-rule="evenodd" d="M269.389 284.39C266.932 285.74 264.574 284.914 262.298 284.571C252.97 283.181 243.582 282.456 234.194 281.65C214.29 279.938 194.365 279.333 174.421 279.857C158.324 280.28 142.227 279.857 126.151 280.22C123.914 280.28 121.719 280.623 119.563 281.126C118.999 281.247 118.173 282.013 117.891 280.925C117.689 280.159 118.435 279.837 119.16 279.656C122.061 278.93 125.002 278.387 128.004 278.225C143.819 277.359 159.674 278.145 175.488 277.601C185.743 277.258 195.957 277.661 206.171 277.802C217.574 277.963 228.956 278.89 240.319 280.119C249.082 281.066 257.846 281.872 266.468 283.685C267.455 283.886 268.422 284.148 269.389 284.39Z" fill="#00ABDF"/>
<path fill-rule="evenodd" clip-rule="evenodd" d="M253.838 351.356C251.642 352.323 249.225 352.504 246.908 352.605C233.611 353.169 220.315 352.967 207.039 352.262C202.183 352 197.288 352.242 192.413 352.081C176.376 351.577 160.34 352.182 144.324 352.323C137.233 352.383 130.121 352.585 123.009 352.665C122.345 352.665 121.68 352.665 121.035 352.564C120.431 352.444 119.987 352 120.068 351.336C120.169 350.55 120.753 350.248 121.498 350.288C137.837 351.376 154.135 349.563 170.474 349.502C183.528 349.442 196.563 349.623 209.597 350.167C222.571 350.711 235.545 350.913 248.519 350.731C250.292 350.711 252.065 350.731 253.838 350.731C253.838 350.953 253.838 351.154 253.838 351.376L253.838 351.356Z" fill="#00ABDF"/>
<path fill-rule="evenodd" clip-rule="evenodd" d="M266.771 330.504C265.119 332.036 263.205 331.774 261.331 331.693C255.388 331.431 249.465 331.189 243.522 330.807C234.134 330.222 224.766 329.497 215.378 328.933C210.926 328.671 206.453 328.51 202.001 328.449C188.604 328.228 175.186 328.087 161.789 328.47C151.132 328.772 140.455 328.691 129.797 328.832C126.896 328.873 124.015 328.711 121.155 328.349C120.51 328.268 119.644 328.369 119.704 327.442C119.744 326.616 120.57 326.878 121.094 326.858C122.424 326.818 123.733 326.818 125.063 326.858C139.548 327.18 154.013 326.435 168.478 326.213C177.161 326.092 185.844 325.75 194.527 326.032C205.909 326.374 217.292 326.636 228.654 327.765C236.612 328.55 244.63 328.812 252.608 329.376C257.342 329.699 262.076 330.122 266.791 330.504L266.771 330.504Z" fill="#00ABDF"/>
<path fill-rule="evenodd" clip-rule="evenodd" d="M120.934 373.718C121.86 372.751 122.727 373.053 123.492 373.033C133.323 372.831 143.155 372.852 152.986 372.449C168.942 371.764 184.897 371.844 200.853 372.267C214.996 372.63 229.118 372.408 243.261 372.509C247.048 372.529 250.856 372.247 254.643 372.147C255.409 372.147 256.275 371.905 256.92 372.61C256.597 373.476 255.912 373.496 255.247 373.516C248.156 373.758 241.105 374.564 233.993 374.544C203.15 374.483 172.306 374.483 141.462 374.584C136.587 374.584 131.712 375.088 126.836 374.927C124.902 374.866 122.868 374.846 120.934 373.718Z" fill="#00ABDF"/>
<path fill-rule="evenodd" clip-rule="evenodd" d="M121.84 397.349C167.511 397.692 213.162 398.558 258.853 397.671C254.824 398.921 250.674 399.122 246.584 399.243C235.02 399.585 223.437 399.505 211.853 399.908C204.318 400.17 196.803 400.411 189.289 400.149C179.861 399.807 170.432 400.069 161.004 399.706C149.279 399.263 137.534 399.001 125.809 398.84C124.378 398.84 123.089 398.497 121.84 397.349Z" fill="#00ABDF"/>
<path fill-rule="evenodd" clip-rule="evenodd" d="M261.794 420.275C258.389 421.565 254.682 421.464 251.157 421.565C236.692 421.968 222.207 422.532 207.742 422.834C196.46 423.076 185.198 422.753 173.957 422.511C158.102 422.169 142.267 421.021 126.372 421.142C125.647 421.142 124.881 421.021 124.176 420.86C123.572 420.719 122.887 420.517 122.907 419.913C122.947 419.026 123.894 419.167 124.579 419.187C135.84 419.409 147.102 419.631 158.364 419.933C165.234 420.114 172.063 420.598 178.933 420.638C194.083 420.739 209.233 420.759 224.382 420.638C232.199 420.577 240.036 420.154 247.833 419.832C252.486 419.631 257.08 420.376 261.774 420.275L261.794 420.275Z" fill="#00ABDF"/>
<path fill-rule="evenodd" clip-rule="evenodd" d="M238.003 219.822C244.289 219.822 250.534 220.628 256.779 221.695C259.922 222.239 263.065 222.521 266.208 223.287C267.356 223.569 268.444 224.032 269.431 224.979C269.673 225.201 269.874 225.604 269.673 226.007C269.592 226.208 269.25 226.289 269.088 226.228C265.039 224.758 260.889 224.617 256.759 224.113C253.878 223.75 251.017 223.045 248.137 222.884C243.825 222.622 239.514 222.078 235.183 222.26C234.316 222.3 233.45 222.018 232.584 221.857C232.02 221.756 231.153 222.058 231.254 220.708C231.355 219.54 232.181 219.842 232.765 219.842C234.518 219.822 236.271 219.842 238.023 219.842L238.003 219.822Z" fill="#00ABDF"/>
<path fill-rule="evenodd" clip-rule="evenodd" d="M114.809 249.054C115.152 238.235 113.238 227.699 111.606 217.122C111.445 216.034 110.881 214.685 112.231 214.282C113.862 213.798 113.842 215.611 114.064 216.639C116.764 229.19 118.758 241.821 117.489 254.816C117.146 258.381 116.945 261.988 116.361 265.533C116.26 266.158 116.079 266.782 115.877 267.387C115.635 268.112 115.253 268.837 114.447 268.636C113.701 268.454 113.782 267.649 113.822 267.004C113.983 264.607 114.004 262.189 114.386 259.832C114.971 256.226 114.729 252.62 114.83 249.014L114.809 249.054Z" fill="#00ABDF"/>
<path fill-rule="evenodd" clip-rule="evenodd" d="M123.432 224.657C122.768 224.657 122.103 224.758 121.458 224.617C120.954 224.516 120.269 224.375 120.33 223.368C120.37 222.421 120.975 222.28 121.539 222.3C124.561 222.381 127.522 221.716 130.524 221.313C136.386 220.507 142.229 219.661 148.091 218.976C150.771 218.653 153.49 218.311 156.19 218.815C156.613 218.895 157.157 218.895 157.197 219.58C157.238 220.426 156.653 220.245 156.25 220.285C147.144 221.212 138.099 222.945 129.033 224.194C127.18 224.456 125.326 224.576 123.453 224.758L123.453 224.637L123.432 224.657Z" fill="#00ABDF"/>
<path fill-rule="evenodd" clip-rule="evenodd" d="M11.3993 259.268C21.2104 260.396 30.941 263.64 39.906 269.26C41.7393 270.409 43.3711 271.839 44.3784 273.914C44.7612 274.7 44.9425 275.586 44.0964 276.09C43.351 276.513 43.0891 275.627 42.6862 275.163C39.3218 271.335 34.7687 269.542 30.397 267.508C24.1115 264.586 17.4834 262.854 10.7345 261.544C9.92864 261.383 9.06235 261.262 9.18323 260.134C9.28396 259.187 10.0495 259.087 11.3792 259.288L11.3993 259.268Z" fill="#00ABDF"/>
<path fill-rule="evenodd" clip-rule="evenodd" d="M69.4392 253.526C69.4392 254.534 69.3183 255.118 68.6535 255.239C67.888 255.38 67.5253 254.695 67.2433 254.131C65.6719 250.947 63.7379 248.087 61.3002 245.548C55.1758 239.243 48.1851 234.206 40.7915 229.714C40.167 229.331 38.9582 229.17 39.341 228.162C39.7439 227.074 40.8116 227.558 41.6175 227.9C47.6411 230.54 52.8993 234.488 57.9962 238.658C62.106 242.003 66.0748 245.569 68.3916 250.665C68.855 251.693 69.1975 252.801 69.4593 253.546L69.4392 253.526Z" fill="#00ABDF"/>
<path fill-rule="evenodd" clip-rule="evenodd" d="M379.65 271.053C380.637 271.013 381.363 271.013 381.564 271.779C381.745 272.403 381.081 272.544 380.678 272.726C373.606 275.707 368.106 281.147 362.143 285.841C357.852 289.225 353.722 292.811 350.539 297.405C350.156 297.948 349.653 298.452 348.968 297.828C348.343 297.263 348.625 296.659 348.968 296.055C350.338 293.617 351.969 291.361 354.004 289.527C360.391 283.745 366.938 278.185 374.07 273.451C375.883 272.242 377.918 271.597 379.65 271.053Z" fill="#00ABDF"/>
<path fill-rule="evenodd" clip-rule="evenodd" d="M102.58 214.785C102.62 215.309 102.58 215.712 102.177 215.954C101.774 216.216 101.412 216.055 101.109 215.752C100.868 215.531 100.626 215.309 100.465 215.027C94.6425 204.974 85.9394 198.266 76.4708 192.464C76.2089 192.302 75.9067 192.141 75.6649 191.94C75.1613 191.557 75.0001 191.013 75.2016 190.409C75.4433 189.663 76.1081 189.804 76.6118 189.885C77.1356 189.986 77.6594 190.247 78.1429 190.489C86.2215 194.7 93.1517 200.482 98.9538 207.694C100.646 209.789 101.815 212.227 102.56 214.785L102.58 214.785Z" fill="#00ABDF"/>
<path fill-rule="evenodd" clip-rule="evenodd" d="M55.6795 215.188C57.2307 215.954 58.8827 216.558 60.3332 217.505C68.5125 222.944 75.2212 229.915 80.0562 238.779C80.1368 238.92 80.2375 239.041 80.298 239.202C80.721 240.089 81.3859 241.116 80.2577 241.801C79.2504 242.406 78.7467 241.358 78.2632 240.613C76.027 237.006 73.549 233.582 70.7689 230.439C66.3166 225.402 61.5823 220.688 55.337 218.069C54.6319 217.787 53.685 217.485 53.9671 216.397C54.1685 215.652 54.9139 215.37 55.6795 215.208L55.6795 215.188Z" fill="#00ABDF"/>
<path fill-rule="evenodd" clip-rule="evenodd" d="M322.193 205.196C322.979 205.317 323.805 204.954 324.047 205.78C324.268 206.525 323.523 206.727 323.04 206.868C318.487 208.278 315.122 211.582 311.738 214.785C307.809 218.492 304.062 222.38 300.194 226.168C298.582 227.759 297.313 229.633 296.044 231.527C295.621 232.171 295.077 233.38 294.049 232.715C292.961 232.01 293.546 230.922 294.049 230.096C295.923 227.014 298.24 224.314 300.818 221.836C305.049 217.767 309.32 213.697 313.672 209.749C316.19 207.452 319.01 205.659 322.234 205.196L322.193 205.196Z" fill="#00ABDF"/>
<path fill-rule="evenodd" clip-rule="evenodd" d="M85.1132 179.469C86.3018 179.973 87.8934 180.477 89.3439 181.282C98.3089 186.359 105.078 193.833 110.437 202.798C110.598 203.08 110.739 203.383 110.88 203.685C111.182 204.37 111.525 205.155 110.699 205.639C109.953 206.062 109.389 205.538 108.906 204.914C106.468 201.67 104.051 198.407 101.532 195.244C96.7778 189.26 91.0563 184.546 84.1663 181.524C83.5821 181.262 82.7964 181.162 82.9777 180.315C83.159 179.389 84.0052 179.469 85.1132 179.51L85.1132 179.469Z" fill="#00ABDF"/>
<path fill-rule="evenodd" clip-rule="evenodd" d="M27.3948 242.869C28.664 243.433 30.2152 244.017 31.6859 244.783C38.3341 248.188 45.0427 251.512 50.321 257.213C52.537 259.61 54.1487 262.431 55.2971 265.554C55.5388 266.178 56.2036 267.024 55.3575 267.528C54.4509 268.072 53.9271 267.185 53.5444 266.44C50.8045 261.061 46.8357 256.911 41.9402 253.667C37.4879 250.706 32.8543 248.067 28.0999 245.649C27.5358 245.367 26.9717 245.045 26.4277 244.722C25.9644 244.44 25.8234 243.977 25.9644 243.453C26.1255 242.849 26.5889 242.788 27.3948 242.849L27.3948 242.869Z" fill="#00ABDF"/>
<path fill-rule="evenodd" clip-rule="evenodd" d="M90.7945 225.644C90.7945 226.51 90.9355 227.296 90.1095 227.477C89.485 227.618 89.1627 227.075 88.8605 226.551C83.4815 217.263 75.1007 211.542 66.5991 205.961C66.1961 205.7 65.7529 205.518 65.35 205.276C64.7859 204.954 64.6046 204.45 64.8262 203.826C65.0478 203.262 65.5716 203.242 66.0148 203.282C67.5459 203.443 68.8957 204.189 70.1448 204.994C76.4908 209.064 82.3734 213.738 87.4905 219.419C89.1425 221.252 90.4117 223.287 90.7743 225.624L90.7945 225.644Z" fill="#00ABDF"/>
<path fill-rule="evenodd" clip-rule="evenodd" d="M44.7196 281.428C44.6793 282.214 44.2361 282.416 43.813 282.637C42.4834 283.383 41.0328 283.705 39.6025 284.188C31.544 286.948 23.3647 289.406 15.8905 293.798C15.1049 294.261 13.9767 295.309 13.2514 293.859C12.5463 292.448 13.8357 291.824 14.7624 291.24C20.6249 287.593 27.0112 285.317 33.4579 283.121C36.2985 282.154 39.1593 281.308 42.1409 280.885C43.128 280.743 43.9339 281.005 44.6994 281.408L44.7196 281.428Z" fill="#00ABDF"/>
<path fill-rule="evenodd" clip-rule="evenodd" d="M284.076 221.615C282.968 221.031 283.069 220.265 283.633 219.54C284.983 217.807 286.413 216.175 287.763 214.423C293.746 206.646 300.455 199.716 308.956 194.962C309.239 194.8 309.48 194.559 309.762 194.458C310.89 194.075 312.381 192.645 313.107 194.095C313.812 195.485 311.777 195.324 311.011 195.848C304.222 200.441 297.957 205.659 292.678 212.146C290.382 214.967 287.904 217.666 285.506 220.386C285.083 220.849 284.56 221.212 284.096 221.595L284.076 221.615Z" fill="#00ABDF"/>
<path fill-rule="evenodd" clip-rule="evenodd" d="M368.348 258.039C366.394 259.409 364.984 260.598 363.412 261.464C355.193 266.037 348.404 272.625 341.312 278.749C340.345 279.595 339.499 280.583 338.814 281.711C338.472 282.255 337.968 282.819 337.263 282.295C336.638 281.832 336.658 281.106 336.981 280.522C337.404 279.736 337.887 278.931 338.512 278.326C345.785 271.376 353.077 264.425 361.942 259.691C364.561 258.301 365.951 257.959 368.348 258.059L368.348 258.039Z" fill="#00ABDF"/>
<path fill-rule="evenodd" clip-rule="evenodd" d="M294.149 242.95C293.585 248.107 293.102 252.7 292.598 257.274C291.954 263.176 291.148 269.059 293.505 274.801C293.686 275.264 293.908 275.788 293.344 276.07C292.921 276.291 292.638 275.828 292.356 275.566C290.14 273.672 289.637 270.933 289.476 268.233C289.012 260.376 289.818 252.6 291.43 244.924C291.571 244.279 291.792 243.655 292.034 243.05C292.276 242.426 292.659 241.862 293.444 241.983C294.069 242.083 294.17 242.305 294.19 242.95L294.149 242.95Z" fill="#00ABDF"/>
<path fill-rule="evenodd" clip-rule="evenodd" d="M276.319 266.017C274.949 264.748 274.727 263.378 274.747 262.008C274.868 254.191 275.493 246.395 276.379 238.618C276.701 235.677 277.145 232.756 277.548 229.835C277.628 229.271 277.809 228.727 277.951 228.162C278.092 227.558 278.333 226.994 279.038 227.175C279.703 227.337 279.703 227.901 279.643 228.545C279.22 233.38 278.837 238.215 278.434 243.05C277.971 248.792 277.467 254.534 277.104 260.275C276.983 262.088 276.842 263.881 276.299 266.017L276.319 266.017Z" fill="#00ABDF"/>
<path fill-rule="evenodd" clip-rule="evenodd" d="M336.678 221.776C336.618 222.703 335.953 222.803 335.49 223.025C325.397 227.8 317.016 234.871 310.005 243.796C309.582 244.34 309.098 245.145 308.273 244.561C307.305 243.896 307.93 243.07 308.333 242.406C310.69 238.558 313.752 235.354 317.117 232.474C322.375 227.961 327.834 223.831 334.342 221.454C335.167 221.151 336.094 220.648 336.678 221.776Z" fill="#00ABDF"/>
<path fill-rule="evenodd" clip-rule="evenodd" d="M344.817 233.159C344.797 234.025 344.233 234.206 343.769 234.508C335.046 240.331 326.665 246.596 320.319 255.36C320.037 255.762 319.715 256.125 319.352 256.447C318.768 256.971 318.184 257.777 317.338 256.951C316.512 256.125 317.237 255.48 317.68 254.816C324.187 245.508 332.81 238.8 342.198 233.038C343.064 232.514 344.031 232.01 344.817 233.138L344.817 233.159Z" fill="#00ABDF"/>
<path fill-rule="evenodd" clip-rule="evenodd" d="M355.957 247.885C354.527 249.276 352.956 249.396 351.646 250.061C346.791 252.539 342.48 255.823 338.591 259.731C335.569 262.753 332.507 265.715 329.445 268.696C328.821 269.301 328.055 270.268 327.229 269.522C326.262 268.636 327.289 267.81 327.753 266.984C328.539 265.594 329.949 264.909 331.037 263.861C335.811 259.328 340.042 254.131 345.703 250.666C347.697 249.457 349.732 248.409 351.928 247.724C353.157 247.341 354.346 247.241 355.957 247.865L355.957 247.885Z" fill="#00ABDF"/>
<path fill-rule="evenodd" clip-rule="evenodd" d="M276.904 205.74C275.574 205.558 275.655 204.753 276.178 203.806C277.669 201.167 279.482 198.769 281.477 196.533C285.446 192.061 290.301 188.837 295.317 185.856C296.828 184.969 298.279 183.962 299.769 183.035C300.394 182.652 301.119 182.27 301.583 183.216C302.006 184.083 301.2 184.264 300.716 184.667C295.539 188.716 289.696 191.738 284.982 196.473C282.645 198.83 280.57 201.408 278.656 204.148C278.193 204.793 277.79 205.558 276.904 205.74Z" fill="#00ABDF"/>
<path fill-rule="evenodd" clip-rule="evenodd" d="M103.627 264.889C103.486 266.279 103.366 267.669 103.224 269.059C103.164 269.764 103.325 270.751 102.257 270.61C101.391 270.489 101.331 269.623 101.311 268.857C101.21 266.641 101.17 264.405 101.049 262.189C100.626 253.647 98.6916 245.468 96.4554 237.309C96.2741 236.624 95.6697 235.717 96.5763 235.375C97.5232 235.012 97.5635 236.221 97.7851 236.785C101.331 245.77 103.386 255.098 103.627 264.868L103.627 264.889Z" fill="#00ABDF"/>
<path fill-rule="evenodd" clip-rule="evenodd" d="M89.2629 271.376C89.2629 273.108 89.3636 274.841 89.2226 276.553C89.1622 277.278 88.9607 278.306 87.8325 278.185C86.8051 278.064 86.9864 277.178 86.9461 276.473C86.5633 268.918 86.4626 261.343 83.8235 254.131C83.6019 253.526 83.4205 252.761 84.2465 252.479C85.0524 252.197 85.5762 252.72 85.9589 253.405C87.6311 256.548 88.2153 260.054 88.8398 263.499C89.3233 266.097 89.4644 268.716 89.2427 271.356L89.2629 271.376Z" fill="#00ABDF"/>
<path fill-rule="evenodd" clip-rule="evenodd" d="M254.34 205.276C259.155 205.498 263.869 206.505 268.583 207.472C269.107 207.573 269.631 207.835 270.114 208.077C270.739 208.399 271.142 208.903 270.88 209.668C270.618 210.434 270.014 210.635 269.329 210.414C262.419 208.218 255.126 208.56 248.115 207.009C247.369 206.848 246.281 207.009 246.241 205.961C246.201 204.692 247.43 204.712 248.216 204.732C250.27 204.813 252.305 205.075 254.34 205.256L254.34 205.276Z" fill="#00ABDF"/>
<path fill-rule="evenodd" clip-rule="evenodd" d="M120.35 207.895C119.906 207.895 119.342 207.956 118.819 207.895C118.355 207.835 117.872 207.654 117.852 207.009C117.852 206.445 118.154 206.062 118.617 205.881C119.282 205.619 119.967 205.176 120.612 205.196C125.769 205.297 130.221 202.476 135.097 201.529C136.648 201.227 138.199 200.945 139.73 200.623C140.496 200.462 141.221 200.401 141.443 201.348C141.644 202.234 140.858 202.516 140.294 202.637C133.606 204.048 127.3 207.09 120.35 207.936L120.35 207.895Z" fill="#00ABDF"/>
<path fill-rule="evenodd" clip-rule="evenodd" d="M308.875 267.306C308.714 271.698 308.936 276.05 309.782 280.341C309.923 281.066 310.205 281.751 310.326 282.476C310.447 283.141 311.575 283.806 310.789 284.37C309.863 285.035 309.218 283.927 308.734 283.262C307.566 281.711 307.324 279.757 307.082 277.903C306.317 272.081 306.115 266.239 306.941 260.396C307.062 259.59 307.203 258.785 308.11 258.845C309.178 258.905 308.855 259.933 308.855 260.598C308.896 262.834 308.855 265.07 308.855 267.286L308.875 267.306Z" fill="#00ABDF"/>
<path fill-rule="evenodd" clip-rule="evenodd" d="M72.763 277.782C72.904 280.039 72.4608 282.456 72.0377 284.894C71.8765 285.841 71.4937 287.07 70.3253 286.868C69.0359 286.626 69.3986 285.297 69.5396 284.39C70.3857 278.951 69.9022 273.552 68.9151 268.193C68.7539 267.306 68.2099 266.279 69.3986 265.896C70.5872 265.513 71.0505 266.621 71.3326 267.568C72.3399 270.792 72.8032 274.136 72.763 277.762L72.763 277.782Z" fill="#00ABDF"/>
<path fill-rule="evenodd" clip-rule="evenodd" d="M320.159 277.238C320.199 276.654 320.199 275.909 320.32 275.183C320.441 274.539 320.924 274.257 321.549 274.257C322.214 274.257 322.496 274.66 322.596 275.324C323.12 279.233 323.644 283.121 324.188 287.029C324.248 287.432 324.49 287.835 323.946 288.057C323.523 288.218 323.161 288.016 322.899 287.694C322.536 287.17 322.113 286.646 321.912 286.042C321.005 283.242 320.219 280.401 320.139 277.258L320.159 277.238Z" fill="#00ABDF"/>
<path fill-rule="evenodd" clip-rule="evenodd" d="M53.847 289.648C53.9276 291.622 53.8068 293.577 53.2427 295.491C53.0412 296.155 52.6181 296.699 51.8727 296.498C51.1273 296.317 50.9259 295.692 51.087 294.967C51.772 291.723 51.3086 288.439 51.4295 285.176C51.4698 284.209 51.2684 282.919 52.5376 282.859C53.6859 282.799 53.1419 284.108 53.424 284.793C54.0485 286.364 53.7262 288.036 53.8672 289.648L53.847 289.648Z" fill="#00ABDF"/>
<path fill-rule="evenodd" clip-rule="evenodd" d="M235.364 52.5893C227.547 39.4943 209.356 35.5457 209.356 35.5457C209.356 35.5457 213.868 28.2931 214.614 24.3445C215.359 20.3958 214.694 14.9967 211.149 8.87227C207.623 2.74787 198.316 -1.16047 191.204 0.310187C184.092 1.78085 176.679 7.30088 175.268 17.9984C173.858 28.696 181.433 35.6061 181.433 35.6061L170.232 40.139C170.232 40.139 164.107 43.584 158.547 49.8494C152.987 56.1148 152.584 57.2228 148.817 67.2959C145.049 77.3689 145.734 92.962 145.734 92.962L146.198 96.2861C146.198 96.2861 149.481 100.235 150.146 102.209C150.791 104.183 151.315 106.077 152.282 104.747C153.269 103.418 154.518 92.962 154.518 92.962C154.518 92.962 157.56 86.898 158.305 84.0977C158.608 82.9292 158.628 82.6069 158.648 80.6729C161.287 80.2901 168.519 77.5301 177.404 72.8562L177.565 72.8562C177.565 72.8562 191.365 63.6495 197.832 58.4316C204.299 53.2138 212.236 52.6296 212.236 52.6296C212.236 52.6296 217.192 54.9866 218.945 58.7137C220.698 62.4205 222.773 67.9003 225.15 71.5266C227.527 75.1529 229.945 77.7719 231.254 78.6381C231.274 80.8744 231.274 82.7681 231.395 83.6948C231.758 86.3944 235.223 91.028 235.223 91.028C235.223 91.028 235.848 96.0645 235.848 99.6102C235.848 103.156 236.694 108.011 236.694 108.011C236.694 108.011 237.318 108.132 238.104 106.158C238.89 104.183 240.28 101.302 240.683 99.6102C241.086 97.9179 243.141 96.0444 243.141 96.0444C243.141 96.0444 244.47 84.4402 244.47 78.9202C244.47 73.4002 243.161 65.6641 235.344 52.5893L235.364 52.5893Z" fill="#00ABDF"/>
<path fill-rule="evenodd" clip-rule="evenodd" d="M253.857 108.877C253.958 108.253 254.038 107.628 254.159 107.004C255.328 101.484 255.509 96.0041 253.877 90.5042C253.112 87.9054 252.648 85.2259 252.185 82.5465C251.842 80.5319 252.326 78.5777 253.394 76.825C254.038 75.7774 254.824 74.8708 256.275 75.1932C257.624 75.4752 258.853 75.8983 259.155 77.51C259.236 77.9532 259.438 78.3964 259.639 78.9605C261.19 78.9202 262.741 79.0612 263.829 80.4715C264.958 81.9018 266.207 84.9439 266.126 86.2131C265.179 86.2332 264.998 85.4274 264.676 84.823C264.192 83.8761 263.85 82.8688 263.306 81.9623C262.983 81.4183 262.5 80.8744 261.956 80.5722C260.445 79.7059 259.035 80.4312 259.075 82.1637C259.115 83.8761 259.397 85.5886 259.78 87.2607C260.243 89.3156 260.848 91.3705 261.573 93.3448C262.198 95.0169 262.399 96.7092 262.198 98.4216C261.774 101.826 261.21 105.231 260.666 108.616C260.586 109.099 260.243 109.522 259.699 109.945C259.699 109.482 259.639 109.018 259.699 108.575C260.143 105.432 260.666 102.29 261.09 99.1469C261.412 96.7495 260.928 94.4327 260.143 92.136C259.297 89.6379 258.632 87.0794 257.947 84.5208C257.564 83.0703 257.705 81.6601 258.43 80.2901C259.196 78.8195 257.806 76.4422 256.154 76.2609C255.368 76.1803 254.905 76.5833 254.522 77.1675C253.434 78.8396 252.95 80.6729 253.333 82.6472C253.797 85.0446 254.361 87.442 254.844 89.8394C255.287 92.0353 255.771 94.2514 256.073 96.4674C256.617 100.497 255.831 104.385 254.623 108.192C254.542 108.474 254.3 108.716 254.139 108.958C254.038 108.918 253.918 108.877 253.817 108.857L253.857 108.877Z" fill="#005671"/>
<path fill-rule="evenodd" clip-rule="evenodd" d="M120.309 84.8028C120.37 84.2387 120.309 83.8963 120.43 83.6344C120.893 82.5465 121.377 81.4384 121.941 80.3908C123.251 77.9129 124.177 77.3689 127.058 77.3891C127.199 76.9257 127.401 76.4422 127.522 75.9386C127.763 74.8708 128.448 74.2463 129.456 73.8837C131.188 73.2591 132.175 73.5412 133.183 75.0924C134.613 77.2682 134.814 79.6857 134.351 82.1637C133.908 84.4402 133.505 86.7369 132.82 88.9529C131.249 94.1103 131.369 99.2677 132.336 104.486C132.498 105.392 132.679 106.299 132.84 107.205C132.84 107.266 132.8 107.326 132.639 107.648C132.336 107.105 132.054 106.722 131.893 106.299C130.12 100.799 130.04 95.2385 131.39 89.6379C132.014 87.0592 132.639 84.5007 133.203 81.9018C133.646 79.8268 133.465 77.792 132.357 75.9386C131.954 75.2737 131.531 74.5485 130.523 74.6895C129.576 74.8104 128.912 75.2737 128.549 76.14C128.287 76.7444 128.045 77.3689 127.763 78.0136C128.992 79.6857 129.194 81.4989 128.589 83.4732C127.683 86.4347 126.877 89.4566 125.93 92.3979C125.426 93.9693 125.305 95.5206 125.507 97.1121C125.91 100.255 126.413 103.398 126.877 106.54C126.957 107.105 126.978 107.689 127.018 108.374C126.071 108.072 125.99 107.346 125.89 106.742C125.386 103.68 124.903 100.597 124.5 97.515C124.137 94.8154 124.862 92.2972 125.688 89.7386C126.534 87.0995 127.018 84.3596 127.642 81.6601C127.683 81.4787 127.642 81.2571 127.663 81.0557C127.743 80.0484 127.401 79.2224 126.474 78.7389C125.749 78.3762 124.419 78.7389 123.835 79.6253C123.19 80.6125 122.747 81.7406 122.183 82.7882C121.8 83.5135 121.639 84.4402 120.289 84.7827L120.309 84.8028Z" fill="#005671"/>
<path fill-rule="evenodd" clip-rule="evenodd" d="M171.46 227.498C169.224 227.256 167.028 226.732 165.013 225.684C159.09 222.642 153.369 219.338 148.755 214.423C145.995 211.502 143.719 208.298 142.409 204.45C141.684 202.315 140.656 200.3 139.81 198.225C139.508 197.48 139.065 196.755 139.468 195.788C139.629 196.029 139.83 196.271 139.951 196.533C141.341 199.535 142.731 202.537 144.081 205.558C145.35 208.379 147.224 210.776 149.319 213.013C151.777 215.631 154.577 217.868 157.619 219.802C159.634 221.071 161.608 222.421 163.704 223.569C165.678 224.637 167.773 225.483 169.808 226.41C170.392 226.672 170.996 226.873 171.581 227.115C171.54 227.256 171.48 227.397 171.44 227.518L171.46 227.498Z" fill="#005671"/>
<path fill-rule="evenodd" clip-rule="evenodd" d="M248.014 201.449C247.39 207.19 233.55 221.635 227.445 223.025C227.969 222.542 228.231 222.239 228.533 222.018C233.429 218.371 238.163 214.524 241.93 209.668C243.361 207.835 244.61 205.901 245.98 204.027C246.624 203.141 247.33 202.315 247.994 201.469L248.014 201.449Z" fill="#005671"/>
<path fill-rule="evenodd" clip-rule="evenodd" d="M136.626 96.8906C135.598 95.702 135.498 94.3723 135.659 93.083C135.921 90.8669 136.384 88.671 136.767 86.4549C137.029 84.9037 137.351 83.3524 137.593 81.781C137.673 81.2572 137.694 80.7133 137.593 80.2096C137.351 78.5979 136.908 77.1071 134.934 76.6639C136.304 75.8379 136.787 75.8581 137.573 76.8049C138.701 78.1346 139.144 79.7261 138.943 81.4385C138.701 83.3927 138.358 85.3469 137.976 87.2809C137.673 88.8322 137.15 90.3431 136.908 91.9145C136.706 93.2643 136.807 94.6544 136.767 96.0243C136.767 96.3265 136.666 96.6085 136.606 96.9107L136.626 96.8906Z" fill="#005671"/>
<path fill-rule="evenodd" clip-rule="evenodd" d="M140.535 102.35C142.107 101.282 142.711 101.202 143.698 102.068C144.544 102.793 145.33 103.639 145.954 104.546C148.291 108.071 149.017 112.201 150.185 116.15C150.044 116.231 149.903 116.311 149.742 116.372C149.359 115.687 148.876 115.062 148.594 114.337C147.929 112.685 147.445 110.952 146.72 109.321C146.035 107.749 145.229 106.218 144.343 104.767C143.577 103.539 142.65 102.41 140.535 102.33L140.535 102.35Z" fill="#005671"/>
<path fill-rule="evenodd" clip-rule="evenodd" d="M245.98 122.214C246.181 122.818 246.342 123.08 246.302 123.282C245.959 125.276 247.128 126.485 248.437 127.674C251.741 130.655 253.615 134.483 254.763 138.714C254.844 139.036 254.864 139.358 254.884 139.681C254.884 139.721 254.824 139.781 254.683 139.983C254.401 139.399 254.139 138.895 253.917 138.371C252.366 134.503 250.251 131.058 247.188 128.177C245.093 126.203 244.811 124.813 245.959 122.214L245.98 122.214Z" fill="#005671"/>
<path fill-rule="evenodd" clip-rule="evenodd" d="M203.331 156.503C200.813 160.653 191.324 160.613 187.818 156.583C188.302 156.583 188.664 156.503 188.987 156.583C190.256 156.946 191.525 157.369 192.774 157.772C195.272 158.598 197.71 158.477 200.128 157.409C201.054 157.007 201.981 156.463 203.351 156.483L203.331 156.503Z" fill="#005671"/>
<path fill-rule="evenodd" clip-rule="evenodd" d="M131.529 138.512C131.973 137.001 132.194 135.853 132.617 134.765C134.007 131.3 135.74 128.077 138.701 125.639C139.85 124.692 140.676 123.524 140.454 121.872C140.414 121.59 140.575 121.288 140.756 120.582C141.562 122.234 141.542 123.504 140.917 124.773C140.635 125.357 140.192 125.901 139.729 126.344C136.364 129.386 134.148 133.154 132.537 137.344C132.436 137.586 132.315 137.827 132.194 138.049C132.174 138.109 132.093 138.13 131.549 138.512L131.529 138.512Z" fill="#005671"/>
<path fill-rule="evenodd" clip-rule="evenodd" d="M239.291 116.734C239.533 116.311 239.795 115.888 240.016 115.445C240.379 114.74 240.903 114.035 241.003 113.289C241.507 109.824 243.481 106.903 244.489 103.619C244.992 101.947 245.919 100.476 247.531 99.59C247.833 99.4087 248.196 99.308 248.679 99.3281C246.08 101.363 245.496 104.405 244.287 107.145C243.441 109.079 242.535 110.912 242.232 113.088C242.011 114.639 241.104 116.09 239.311 116.734L239.291 116.734Z" fill="#005671"/>
<path fill-rule="evenodd" clip-rule="evenodd" d="M121.84 125.901C126.03 122.798 131.047 121.549 135.821 119.333C134.895 120.945 134.915 121.005 129.193 123.383C126.796 124.37 124.56 125.78 121.84 125.901Z" fill="#005671"/>
<path fill-rule="evenodd" clip-rule="evenodd" d="M251.015 121.046C255.669 123.1 260.625 124.45 265.077 127.17C264.493 128.177 263.828 127.734 263.304 127.512C260.988 126.545 258.691 125.538 256.374 124.511C255.165 123.987 253.936 123.463 252.768 122.839C252.043 122.456 251.438 121.892 250.773 121.408C250.854 121.287 250.935 121.146 251.015 121.025L251.015 121.046Z" fill="#005671"/>
<path fill-rule="evenodd" clip-rule="evenodd" d="M247.812 103.277C249.081 104.385 249.182 105.714 249.021 107.084C248.759 109.502 247.792 111.678 246.402 113.632C245.495 114.901 244.488 116.11 243.541 117.339C243.42 117.258 243.279 117.198 243.158 117.117C243.299 116.734 243.42 116.352 243.601 116.009C244.568 114.276 245.576 112.584 246.523 110.832C247.671 108.696 248.336 106.44 247.651 103.982C247.61 103.821 247.731 103.639 247.792 103.297L247.812 103.277Z" fill="#005671"/>
<path fill-rule="evenodd" clip-rule="evenodd" d="M147.202 117.903C143.254 114.78 140.433 108.978 142.387 105.332C143.153 106.863 142.669 108.454 143.213 109.804C143.778 111.194 144.342 112.605 145.006 113.954C145.671 115.304 146.477 116.593 147.223 117.903L147.202 117.903Z" fill="#005671"/>
<path fill-rule="evenodd" clip-rule="evenodd" d="M196.945 97.3943C197.247 96.8302 197.529 96.4071 197.69 95.9639C198.032 95.0775 197.569 94.312 196.622 94.3321C195.796 94.3724 194.99 94.6746 194.064 94.8962C194.164 95.7423 194.245 96.3669 194.326 97.0518C193.399 97.4145 193.137 96.7295 192.875 96.1453C192.553 95.4401 192.512 94.735 193.077 94.1105C194.044 93.0226 196.884 92.5794 198.093 93.3248C198.919 93.8486 199.181 94.6343 199.06 95.5409C198.939 96.528 198.476 96.9108 196.904 97.3742L196.945 97.3943Z" fill="#005671"/>
<path fill-rule="evenodd" clip-rule="evenodd" d="M196.784 79.2224C196.845 79.6253 197.006 80.0685 196.965 80.4714C196.643 83.5739 196.28 86.6966 195.656 89.7789C194.749 86.6361 195.092 83.4933 195.575 80.3707C195.656 79.8469 195.797 79.1619 196.784 79.2224Z" fill="#005671"/>
<path fill-rule="evenodd" clip-rule="evenodd" d="M175.528 89.5977C175.367 90.2223 175.286 90.8267 175.045 91.3303C174.46 92.5189 173.07 92.5995 172.244 91.5318C171.439 90.5043 171.318 88.3688 172.124 87.3414C172.486 86.8982 173.171 86.4751 173.715 86.4751C174.118 86.4751 174.682 87.0593 174.924 87.5227C175.246 88.1674 175.347 88.9329 175.508 89.5977L175.528 89.5977Z" fill="#005671"/>
<path fill-rule="evenodd" clip-rule="evenodd" d="M223.073 225.664C220.112 227.316 217.211 229.149 213.786 229.794C213.484 229.855 213.121 229.613 212.416 229.411C216.163 227.921 219.528 226.571 222.892 225.221C222.952 225.362 223.013 225.523 223.073 225.664Z" fill="#005671"/>
<path fill-rule="evenodd" clip-rule="evenodd" d="M218.944 89.7991C218.944 89.517 218.944 89.5775 218.944 89.6581C218.904 91.2698 218.36 92.2166 217.453 92.2569C216.386 92.3174 215.398 90.9877 215.398 89.4969C215.398 88.1068 216.184 86.7369 217.05 86.6764C218.239 86.616 218.924 87.6032 218.944 89.7789L218.944 89.7991Z" fill="#005671"/>
<path fill-rule="evenodd" clip-rule="evenodd" d="M219.85 81.6804C218.822 81.4185 217.896 81.0357 216.969 80.9954C216.103 80.9752 215.236 81.358 214.37 81.5595C214.29 80.4313 214.753 79.8672 216.042 79.5852C217.674 79.2225 219.125 79.9478 219.85 81.6804Z" fill="#005671"/>
<path fill-rule="evenodd" clip-rule="evenodd" d="M170.391 81.8413C171.902 79.1619 174.319 78.7187 176.032 80.6326C174.944 80.6326 173.997 80.4916 173.09 80.6729C172.264 80.834 171.499 81.3377 170.391 81.8413Z" fill="#005671"/>
<path fill-rule="evenodd" clip-rule="evenodd" d="M174.48 229.049C176.817 228.606 177.442 228.726 178.832 229.693C177.321 230.137 176.052 230.177 174.48 229.049Z" fill="#005671"/>
<path fill-rule="evenodd" clip-rule="evenodd" d="M189.57 119.937C189.792 117.439 190.356 114.377 194.385 113.249C197.326 112.423 199.462 113.168 200.509 115.445C202.463 119.655 202.242 123.423 199.562 126.928C198.394 128.459 191.846 127.976 190.618 126.001C189.409 124.067 189.429 122.133 189.57 119.958L189.57 119.937Z" fill="#ED7255"/>
<path fill-rule="evenodd" clip-rule="evenodd" d="M192.612 127.714C192.29 128.379 189.691 126.767 189.087 124.289C188.301 120.824 188.704 117.56 190.839 114.74C192.229 112.907 194.103 112.101 196.44 112.141C198.656 112.181 200.328 113.209 201.396 115.123C203.008 118.004 203.149 121.046 202.262 124.007C201.396 126.928 198.414 128.842 195.715 128.459C195.332 128.399 194.486 128.077 194.526 127.734C194.566 127.412 195.836 127.654 196.339 127.573C199.522 127.049 201.356 124.954 201.396 121.771C201.416 120.038 200.953 117.46 200.248 115.808C198.837 112.524 194.828 112.282 192.431 114.7C190.195 116.936 189.711 119.857 190.175 122.939C190.638 126.002 192.955 127.049 192.632 127.714L192.612 127.714Z" fill="#005671"/>
</svg>
