<svg width="120" height="120" viewBox="0 0 120 120" fill="none" xmlns="http://www.w3.org/2000/svg">
<g clip-path="url(#clip0_125_16326)">
<path fill-rule="evenodd" clip-rule="evenodd" d="M4.79998 97.2711C4.79998 97.2711 4.98941 97.1974 4.98941 97.1531C5.10598 95.7369 5.30997 94.3207 5.8491 93.0078C6.30081 91.9014 6.38823 90.5737 7.46649 89.7918C7.65592 89.6591 7.77249 89.482 7.84534 89.246C8.10762 88.2576 8.95274 87.697 9.49188 86.9152C9.98729 86.2071 10.541 85.676 11.2404 85.3219C12.9452 84.4221 14.1255 82.8436 15.9323 82.0027C18.3074 80.8963 20.7699 80.3947 23.3198 80.0259C25.1121 79.7752 26.8898 79.9817 28.6674 80.0997C29.9497 80.1882 31.1882 80.557 32.3393 80.9553C33.8547 81.4864 35.4284 81.4569 36.9147 81.929C37.075 81.988 37.2789 81.8995 37.4684 81.87C38.6049 81.6782 39.6978 81.9437 40.7323 82.342C41.3734 82.5781 41.4171 83.2271 41.3589 83.7877C41.3006 84.3926 40.8197 84.4368 40.2806 84.4368C38.7361 84.4663 37.177 84.6286 35.6616 84.2745C34.3793 83.9795 33.0533 83.9647 31.8294 83.5959C30.3868 83.1681 28.9006 82.9911 27.458 82.5486C26.0738 82.106 24.5292 82.3715 23.0284 82.5486C21.3236 82.7551 19.7936 83.4779 18.322 84.2303C17.2291 84.7761 15.9614 85.1449 15.2475 86.3103C15.1309 86.4874 14.9269 86.6939 14.7229 86.7234C13.3095 86.9594 12.9889 88.3019 12.2167 89.2165C13.2658 88.8772 14.3149 88.8329 15.3932 88.8772C16.9814 88.951 18.4968 89.305 19.8811 90.1311C20.3473 90.4114 20.8428 90.5442 21.3965 90.4409C21.7025 90.3967 22.023 90.4704 22.2416 90.7212C22.533 91.0605 22.8973 91.1638 23.2907 91.1048C24.3835 90.9572 25.3744 91.385 26.3361 91.7686C27.9534 92.4177 29.6146 92.7275 31.3339 92.8013C32.2228 92.8308 33.0825 93.1258 33.9859 93.0373C34.729 92.9635 35.443 92.8603 36.0113 92.3587C36.3173 92.0932 36.6815 92.1964 37.0167 92.0489C38.2844 91.5178 39.2169 90.6769 39.9309 89.5263C39.9309 89.4968 39.96 89.482 39.9892 89.4673C41.0383 89.0395 41.898 88.0658 43.1802 88.3461C43.3697 88.3904 43.5445 88.3756 43.7339 88.2724C44.3168 87.9921 44.5499 88.5231 44.9579 88.7592C45.2348 88.9067 45.803 88.4789 46.1819 88.9362C46.7502 89.6296 46.9833 90.4114 46.721 91.2965C46.4005 92.3292 46.3276 93.3323 46.5316 94.424C46.619 94.8813 46.4587 95.4861 46.2693 96.032C45.8613 97.2416 45.4242 98.4661 44.7831 99.5282C44.1856 100.517 43.3988 101.505 42.2914 102.036C40.9072 102.7 39.7123 103.703 38.2698 104.293C36.8272 104.883 35.341 105.341 33.7965 105.591C32.3393 105.827 30.8677 106.019 29.4106 105.813C28.3323 105.65 27.2249 106.078 26.1903 105.518C26.1466 105.488 26.0738 105.503 26.0301 105.518C24.3398 105.96 22.533 105.798 20.8865 106.462C20.5076 106.609 20.1579 106.875 19.8082 107.096C18.9194 107.657 17.8994 107.834 16.9231 108.158C16.8211 108.202 16.5006 108.084 16.6171 108.394C16.6609 108.497 16.7191 108.63 16.9231 108.733C17.9723 109.25 19.1525 109.309 20.1871 110.032C21.1196 110.681 22.3436 111.064 23.655 110.961C24.8207 110.873 25.9718 111.359 27.1812 111.374C28.886 111.374 30.5762 111.374 32.2374 111.02C32.7619 110.902 33.2719 110.769 33.7965 110.725C35.5596 110.578 37.1624 109.84 38.7798 109.25C39.9163 108.837 40.8489 107.863 41.8543 107.126C41.9854 107.037 42.0583 106.889 42.2477 106.83C43.2968 106.491 44.0691 105.975 44.4771 104.78C44.6519 104.264 45.1473 103.511 45.7885 103.172C46.415 102.833 46.6627 102.184 46.9396 101.623C47.2164 101.048 47.2164 100.34 47.5516 99.7347C48.1053 98.7463 47.7701 97.5514 48.1344 96.504C48.4695 95.5894 48.353 94.7928 47.9304 93.8339C47.5807 93.0078 47.6244 91.8424 48.0033 90.8687C48.2947 90.1606 49.9267 90.3081 50.4512 91.1048C51.1798 92.1817 51.3983 93.4503 51.7918 94.6748C52.3309 96.3122 51.5732 97.8907 51.7043 99.4987C51.7043 99.543 51.6752 99.602 51.646 99.6462C50.9612 100.885 50.6552 102.316 49.9704 103.511C49.5915 104.175 49.3292 105.09 48.4987 105.459C48.4258 105.488 48.353 105.547 48.3238 105.621C47.7556 106.948 46.415 108.32 44.8996 109.029C44.5645 109.176 44.3168 109.368 44.0836 109.648C43.2822 110.622 42.0728 110.887 40.9946 111.345C39.3772 112.023 37.8035 112.879 36.0113 113.085C35.239 113.174 34.4522 113.056 33.6799 113.292C31.1591 114.059 28.5654 114.177 26.0155 113.779C24.2961 113.498 22.5476 113.498 20.8282 113.071C20.0705 112.879 19.3128 112.569 18.5114 112.466C18.1034 112.422 17.6517 112.274 17.3748 111.831C17.1417 111.433 16.6317 111.625 16.3257 111.418C15.2183 110.666 13.9798 110.135 12.8724 109.338C11.5027 108.365 10.5119 107.067 9.28788 105.99C8.48647 105.296 7.94734 104.352 7.49564 103.393C7.21878 102.788 6.69423 102.39 6.32995 101.874C5.92196 101.328 5.93653 100.723 5.70339 100.207C5.28083 99.3069 5.28083 98.289 4.7417 97.4482V97.2711H4.79998ZM11.9981 89.6148C11.5755 89.9984 11.0073 90.1754 10.8178 90.677C10.6284 91.149 10.541 91.6358 10.0019 91.8719C9.91444 91.9161 9.87072 92.1079 9.84158 92.2407C9.63759 93.5684 9.24417 94.8665 9.06931 96.209C8.83618 97.9792 8.89446 99.5134 10.1184 100.871C10.2787 101.062 10.4244 101.298 10.4681 101.549C10.6576 102.42 11.2258 103.054 11.7795 103.688C12.1001 104.042 12.377 104.396 12.6247 104.809C12.9015 105.282 13.4406 105.591 13.8778 105.96C14.3149 105.429 14.9269 105.783 15.4369 105.68C16.282 105.503 16.8648 104.839 17.5934 104.573C18.8174 104.131 20.1579 104.028 21.3965 103.615C22.3727 103.29 23.3636 103.334 24.3398 103.172C25.2578 103.024 26.2632 103.024 27.1666 103.26C27.9243 103.467 28.682 103.585 29.396 103.511C31.8148 103.231 34.3502 103.319 36.4484 101.726C36.5358 101.667 36.6524 101.638 36.7544 101.593C38.0658 101.048 39.4355 100.62 40.2369 99.2332C40.4554 98.8496 40.7906 98.5251 40.9072 98.0677C41.0237 97.5957 41.6794 97.6547 41.796 97.1531C42.0874 95.9139 42.4954 94.6895 42.6703 93.4356C42.7285 93.0225 43.1802 92.462 42.6265 92.0046C42.1603 92.3144 41.9563 92.875 41.4609 93.1848C40.6157 93.6864 39.7123 94.0994 38.8672 94.5567C37.2061 95.4271 35.5158 95.5599 33.7965 95.5599C32.0042 95.5599 30.1828 95.4124 28.4343 95.0288C27.8077 94.896 27.1229 95.0731 26.5838 94.7043C25.7532 94.1437 24.7332 94.1879 23.8298 93.9667C22.6641 93.6864 21.5713 93.1996 20.3911 92.9635C18.0742 92.5062 15.9032 91.4146 13.4698 91.2818C12.4352 91.2228 12.0855 90.7065 12.0127 89.6148H11.9981Z" fill="#E06765"/>
<path fill-rule="evenodd" clip-rule="evenodd" d="M46.3423 81.2946C46.8814 80.4243 46.6628 79.0228 47.7703 78.0344C48.3677 77.5181 48.6882 76.6625 49.0671 75.9249C50.1891 73.7268 51.7627 71.8385 53.4093 70.0683C54.371 69.0356 55.6241 68.2095 56.6441 67.1916C57.5183 66.336 58.6694 65.8934 59.5 65.1116C61.3505 63.3856 63.6673 62.6627 65.8238 61.5563C67.3247 60.7745 69.0295 60.4057 70.3992 59.373C70.7197 59.1222 71.1277 59.255 71.4628 59.2698C72.4683 59.3288 73.022 58.3994 73.9254 58.2519C76.2276 57.8831 78.3695 56.9537 80.6135 56.3636C81.8812 56.0243 83.1926 55.7735 84.402 55.1539C84.8828 54.9031 85.4657 54.8884 86.0048 54.6819C87.0539 54.2983 88.205 54.1065 89.2104 53.5755C90.2158 53.0444 91.3815 52.9264 92.3287 52.233C93.8878 51.0971 95.8112 50.4333 97.2537 49.2088C98.3174 48.309 99.9493 47.9549 100.459 46.3617C100.547 46.0519 100.94 45.7274 101.348 45.5651C102.485 45.093 103.272 44.2079 103.956 43.2195C104.102 43.013 104.262 42.8212 104.408 42.5999C104.758 42.0688 105.195 41.6263 105.865 41.8476C106.521 42.0688 106.652 42.6884 106.667 43.308C106.681 44.2374 106.565 45.152 105.676 45.6683C105.239 45.9191 105.53 46.4797 105.093 46.701C104.204 47.1436 103.621 47.8369 103.082 48.7073C102.762 49.2236 101.96 49.5039 101.494 50.0202C100.707 50.8758 99.5996 51.2446 98.7399 51.9085C97.2537 53.0591 95.5926 53.841 93.9606 54.6671C92.2704 55.5227 90.5218 56.2308 88.6713 56.7619C87.2725 57.1455 85.8445 57.7355 84.4457 58.2371C83.2509 58.6649 81.9103 58.8567 80.7009 59.2698C79.0544 59.8303 77.2184 59.7566 75.6885 60.8187C75.0911 61.2318 74.2605 61.1285 73.5465 61.4088C72.2205 61.9251 70.9383 62.53 69.6269 63.0906C68.1261 63.7396 66.5961 64.3592 65.0807 64.9936C63.915 65.4804 63.0262 66.4098 61.9916 67.1326C61.5982 67.3982 61.2922 67.7817 60.7968 67.8407C60.5345 67.8702 60.3305 68.0177 60.2868 68.2243C60.0537 69.1242 59.2231 69.3749 58.6403 69.906C57.7952 70.6731 56.5129 70.9977 56.2215 72.3696C56.1632 72.6204 55.6532 72.7384 55.4784 73.004C54.5021 74.4202 53.3218 75.6741 52.3893 77.0903C51.6753 78.1819 50.9468 79.3326 50.3931 80.5423C50.0288 81.3241 49.5188 82.0027 48.9359 82.6223C48.4114 83.1829 47.7848 83.3304 47.1 83.0796C46.4297 82.8288 46.3569 82.224 46.3714 81.3094L46.3423 81.2946Z" fill="#E06765"/>
<path fill-rule="evenodd" clip-rule="evenodd" d="M116.4 13.4055C116.473 15.8839 115.934 17.8902 115.438 19.8965C115.22 20.7963 115.249 21.711 114.855 22.5961C114.069 24.3811 113.544 26.2694 112.786 28.0544C112.262 29.3083 111.519 30.4737 110.863 31.6686C110.746 31.8899 110.644 32.1112 110.601 32.3767C110.367 33.6897 109.071 34.8108 107.774 34.8698C106.36 34.9288 105.136 33.7782 104.83 32.5242C104.539 31.3883 104.073 30.3704 103.577 29.323C103.461 29.0723 103.359 28.792 103.315 28.5264C103.213 27.9363 103.373 27.2873 102.63 26.948C102.455 26.8742 102.339 26.4169 102.368 26.1661C102.586 24.7204 102.047 23.3484 101.887 21.947C101.741 20.7668 101.712 19.6014 101.916 18.4213C102.135 17.0936 102.237 15.7659 102.31 14.4234C102.368 13.4646 102.572 12.5499 103.388 11.8418C103.883 11.414 103.971 10.6174 103.956 9.95355C103.942 9.2012 104.189 8.68488 104.714 8.19806C105.952 7.03264 107.264 5.92624 109.027 5.97049C110.367 6.01475 111.679 6.41305 112.815 7.20967C113.107 7.4162 113.398 7.60797 113.719 7.75549C114.68 8.21281 115.045 9.14219 115.438 10.0273C115.963 11.2075 116.196 12.4762 116.4 13.376V13.4055ZM105.778 24.1451C105.807 24.4549 105.748 24.8974 105.938 25.4285C106.098 25.8563 106.346 26.3874 106.302 26.9332C106.2 28.0249 107.016 28.8657 107.133 29.8984C107.162 30.1344 107.41 30.3262 107.686 30.3704C107.818 30.3999 108.051 30.3852 108.007 30.2229C107.759 29.323 108.429 28.733 108.677 28.0101C109.085 26.7709 109.814 25.635 109.945 24.3073C109.974 24.0861 110.12 23.8648 110.324 23.7763C110.688 23.6287 110.703 23.2599 110.892 23.0091C111.3 22.4633 110.834 21.7257 111.285 21.2094C111.577 20.8848 111.679 20.5308 111.766 20.103C112.029 18.7901 112.218 17.4624 112.655 16.1642C112.917 15.4118 113.223 14.4234 112.801 13.5088C112.582 13.022 112.611 12.4467 112.466 12.0041C112.203 11.1927 112.422 10.0568 111.315 9.65851C111.256 9.62901 111.227 9.52574 111.183 9.45198C110.819 8.81764 110.309 8.78814 109.668 8.97992C108.24 9.39298 107.818 10.7059 107.206 11.8123C107.002 12.1811 107.176 12.7565 106.9 13.1548C106.098 14.2612 106.288 15.6479 105.85 16.887C105.442 18.0524 105.486 19.4096 105.413 20.7078C105.355 21.829 105.85 22.8469 105.792 24.1303L105.778 24.1451Z" fill="#E06765"/>
<path fill-rule="evenodd" clip-rule="evenodd" d="M47.5807 87.5348C46.1528 87.3872 44.9288 86.9447 44.3022 85.5137C43.8068 84.3778 44.2877 83.714 45.4679 83.714C46.1819 83.714 46.5753 83.95 46.9833 84.5106C47.231 84.8794 47.7556 85.0269 48.149 85.2924C48.7027 85.6465 48.9358 86.1776 48.8193 86.8119C48.6881 87.5495 48.047 87.402 47.5807 87.5348V87.5348Z" fill="#266E69"/>
<path fill-rule="evenodd" clip-rule="evenodd" d="M108.196 37.9825C108.167 39.1332 107.278 40.2691 106.433 40.2396C105.646 40.2396 104.452 39.1922 104.452 38.5431C104.452 37.54 105.457 36.05 106.142 36.0352C107.337 35.991 108.226 36.8466 108.196 37.9825V37.9825Z" fill="#266E69"/>
</g>
<defs>
<clipPath id="clip0_125_16326">
<rect width="111.6" height="108" fill="white" transform="translate(4.7998 6)"/>
</clipPath>
</defs>
</svg>
