<svg width="121" height="120" viewBox="0 0 121 120" fill="none" xmlns="http://www.w3.org/2000/svg">
<g clip-path="url(#clip0_125_16337)">
<path fill-rule="evenodd" clip-rule="evenodd" d="M6.49988 30.5047C7.06142 30.3862 7.47932 30.0043 7.96251 29.741C10.274 28.477 12.7553 27.8581 15.341 27.687C17.4044 27.5421 19.4547 27.1998 21.5311 27.1735C22.1318 27.1735 22.7717 26.8838 23.3071 26.5678C24.3388 25.9621 25.488 25.5671 26.4675 24.8956C26.8723 24.6191 27.2118 24.0266 27.4991 23.5394C28.0738 22.5914 28.5178 21.5644 29.1054 20.6164C29.5756 19.8396 30.1894 19.2471 31.0774 18.852C31.7956 18.5229 32.6184 18.4175 33.2322 18.0357C35.4261 16.7059 37.8551 16.6795 40.245 16.3899C41.7207 16.2055 43.1702 15.8237 44.6721 15.8763C45.8996 15.9158 47.1011 15.5077 48.2895 15.6393C50.1961 15.85 52.142 15.8237 53.9964 16.482C54.7538 16.7454 55.6157 16.7585 56.4384 16.9429C58.2406 17.351 60.1342 17.7987 61.4532 19.01C62.4849 19.9449 63.83 20.8139 64.274 22.3676C64.5091 23.1971 64.274 24.0266 64.3915 24.8693C64.5482 25.791 64.5874 26.7653 64.4829 27.7001C64.1565 30.7285 64.5221 33.7569 64.3785 36.7852C64.2479 39.3001 64.3524 41.8281 64.3132 44.3298C64.3001 45.449 64.1434 46.6077 64.2871 47.7532C64.3654 48.3852 64.0128 48.9909 63.4904 49.3727C63.0595 49.7019 62.6024 49.7546 62.08 49.3727C60.9831 48.5564 60.9569 47.3714 60.7611 46.1732C60.3432 43.5925 60.6827 41.0118 60.6174 38.4443C60.5782 36.9828 60.7219 35.4554 60.6435 33.9939C60.5652 32.3217 61.0222 30.6627 60.6435 29.0037C60.6043 28.8325 60.4738 28.5823 60.6435 28.4507C61.6883 27.5948 60.4215 26.3966 61.0875 25.5013C60.3432 23.9213 60.4476 21.8146 58.4235 20.9982C58.3712 20.9851 58.3059 20.9587 58.2798 20.9192C57.2612 19.2734 55.5243 19.2339 53.9049 18.9837C53.2781 18.8784 52.7296 18.5624 52.0767 18.4439C50.3137 18.1147 48.5507 18.1674 46.7746 18.2464C45.9258 18.2859 45.09 18.3385 44.2411 18.2464C43.0135 18.1015 41.8513 18.5229 40.6498 18.6414C39.8532 18.7204 39.0827 19.0232 38.273 19.0759C37.7898 19.1022 37.3328 19.2471 36.8888 19.4972C36.4056 19.7606 35.9224 19.9449 35.3216 19.9976C34.6556 20.0634 33.9896 20.5374 33.3758 20.9061C31.8087 21.8541 31.7826 23.6974 31.0513 25.1326C31.0251 25.1985 31.0121 25.2906 31.0251 25.3565C31.6259 27.055 31.1688 28.7667 31.1688 30.4783C31.1688 32.1637 30.8031 33.9017 31.1296 35.4949C31.4169 36.8642 31.0251 38.1809 31.3516 39.4976C31.5345 40.2613 31.5345 41.183 31.3908 41.8545C30.9207 43.948 31.4822 45.9889 31.2994 48.0297C31.0774 50.5841 31.208 53.1384 31.2994 55.706C31.3255 56.3511 31.2341 57.0753 31.2733 57.681C31.3255 58.5105 31.3255 59.3532 31.2733 60.1695C31.1949 61.7364 31.4039 63.2769 31.2733 64.8437C31.1949 65.7259 31.2472 66.6608 31.2472 67.5693C31.2472 69.1229 31.5345 70.6766 31.2472 72.2303C31.1035 72.994 31.4692 73.7708 31.1949 74.5477C31.1296 74.7452 31.3516 74.7715 31.4822 74.8637C32.318 75.4825 33.3889 75.5879 34.2247 76.2725C34.7601 76.707 35.6481 76.4832 36.3664 76.6807C36.6667 76.7597 37.1108 76.6807 37.4503 76.7992C39.6051 77.5102 41.799 77.497 44.0452 77.3259C44.8418 77.26 45.7299 77.4707 46.5004 77.2205C47.8063 76.786 49.1775 77.1152 50.4704 76.707C51.1364 76.4964 51.8808 76.5095 52.599 76.4832C53.252 76.4569 53.8527 77.4707 53.5001 78.0369C53.3173 78.3265 53.1083 78.6952 52.7427 78.7479C51.3715 78.9059 50.17 79.6432 48.6943 79.6564C47.3753 79.6696 46.0302 79.6037 44.6851 79.8144C43.4967 79.9987 42.23 79.9724 41.0155 79.6696C40.48 79.5379 39.9054 79.5642 39.3569 79.5642C37.5678 79.5906 35.844 79.1824 34.1071 78.8664C33.4019 78.7347 32.7751 78.2212 32.0177 78.1027C30.5681 77.8657 29.6931 76.6675 28.5439 75.9434C28.0868 75.6537 27.8126 75.8644 27.6297 76.2199C27.4339 76.6149 27.1596 76.7465 26.7548 76.7992C26.154 76.865 25.71 77.3654 25.2007 77.5102C23.947 77.8525 22.7586 78.5109 21.4266 78.5899C20.852 78.6162 20.3035 78.8401 19.755 78.8664C18.1487 78.9454 16.5294 79.0376 14.9362 78.8664C13.9698 78.7742 13.0426 78.2607 12.0762 77.9974C11.3057 77.7867 10.8878 75.9829 11.5277 75.2323C11.9064 74.7847 11.9456 74.2712 12.0762 73.7577C12.1415 73.4943 12.2198 73.2047 12.4157 73.073C12.7944 72.8492 12.8075 72.4936 12.8728 72.1513C12.8858 72.0723 12.6769 71.8616 12.9511 71.9538C13.147 72.0196 13.3299 72.1118 13.4082 71.888C13.5127 71.5983 13.2515 71.4271 13.0426 71.3218C12.3765 70.9663 11.6975 70.624 11.0184 70.308C10.052 69.8603 9.77775 69.3731 9.89528 68.3461C10.1042 66.5159 10.8225 64.9359 12.0631 63.5797C12.5463 63.053 12.3243 62.4605 11.4885 62.0524C10.94 61.789 10.3785 61.5125 9.79081 61.3809C8.9289 61.1834 8.82442 60.6303 8.96807 59.9325C9.19008 58.9055 9.76469 58.0628 10.496 57.3386C10.7311 57.1016 10.94 56.9173 11.0314 56.5881C11.149 56.1668 11.4363 55.8771 11.7889 55.627C12.4027 55.1793 12.3374 54.6526 11.6452 54.3761C10.3524 53.8626 9.35985 52.9541 8.45876 51.9271C8.0931 51.5057 8.14534 50.9264 8.4457 50.6631C9.03337 50.1232 9.32067 49.4122 9.80387 48.8197C10.1826 48.372 11.0837 48.2535 10.7964 47.3582C10.9661 47.3055 11.1359 47.266 11.3187 47.2134C11.1359 46.713 10.6658 46.6472 10.3132 46.6604C9.71245 46.6999 9.17702 46.397 8.5763 46.4102C8.21064 46.4102 7.84498 46.16 7.8058 45.7124C7.7405 45.133 7.88416 44.5405 8.35429 44.2113C8.95501 43.79 9.45127 43.3292 9.9214 42.7498C10.3393 42.2495 10.7964 41.7623 11.3187 41.341C11.606 41.104 11.9064 40.8275 11.2665 40.5773C10.5221 40.2876 9.82998 39.9058 8.99419 39.8136C7.8711 39.6951 6.85248 38.5101 6.85248 37.6411C6.85248 37.3119 6.85248 37.0618 7.32261 37.1144C8.08004 37.1934 8.39347 36.4297 8.96807 36.1269C9.67327 35.7582 10.0912 35.0209 10.8617 34.7312C11.2665 34.5732 11.0053 34.3362 10.8617 34.1782C10.2871 33.533 9.55574 33.059 8.77219 32.8615C8.08004 32.6904 7.54462 32.4402 7.08754 31.9135C6.94389 31.7424 6.748 31.5449 6.48682 31.5317V30.5442L6.49988 30.5047ZM12.8206 59.6692C12.8206 59.6692 12.9511 59.7877 13.0426 59.7745C14.0481 59.7613 14.6619 60.7093 15.6283 60.8278C15.9809 60.8805 16.5686 62.816 16.2943 63.0399C15.7981 63.4612 15.8895 64.2644 15.1973 64.5672C15.0014 64.6462 14.8317 64.9886 14.8709 65.3441C14.91 65.8444 14.7403 66.2262 14.3354 66.6344C13.9436 67.0294 13.6563 67.6351 13.5258 68.2539C13.4605 68.5831 13.591 68.9781 13.8914 68.9254C14.7403 68.7938 15.2626 69.4389 15.9417 69.7023C16.7253 69.992 17.0779 70.9795 16.9995 71.7695C16.9473 72.3225 16.9081 72.7833 16.2813 72.915C16.3204 73.9947 15.5891 74.811 15.2757 75.759C15.1843 76.0092 15.1059 76.4042 15.4977 76.4042C16.1768 76.4042 16.8167 76.707 17.5088 76.5622C19.5983 76.154 21.8184 76.2857 23.6728 74.9295C24.4302 74.3633 25.4619 74.2317 26.141 73.4943C26.3761 73.2442 26.7287 73.1388 27.0943 73.1257C27.4469 73.1125 27.7212 72.915 27.7081 72.5068C27.6428 71.2296 27.5906 69.9393 27.5383 68.6621C27.4992 67.5561 27.6167 66.4501 27.6036 65.3572C27.6036 64.2776 27.7473 63.1452 27.6559 62.0787C27.4208 59.4585 27.6559 56.8515 27.5906 54.2313C27.5644 52.8093 27.4992 51.3477 27.7603 49.9652C28.0215 48.53 27.3294 47.1344 27.7995 45.7387C27.8517 45.5938 27.7081 45.3832 27.6428 45.212C27.5906 45.0935 27.4208 45.0408 27.4861 44.8828C27.904 43.711 27.8256 42.4996 27.695 41.3146C27.5514 39.9848 27.8387 38.6549 27.5775 37.3383C27.4861 36.9037 27.8648 36.5482 27.7734 36.0479C27.6167 35.0736 27.3555 34.1256 27.4991 33.0722C27.5906 32.4139 27.3947 31.7029 27.8518 31.0972C27.9823 30.926 27.8779 30.7812 27.8256 30.6495C27.4991 29.8463 27.5906 29.0432 27.7342 28.2268C27.7603 28.0293 27.7865 27.8186 27.6167 27.7133C27.4339 27.608 27.2771 27.7923 27.1204 27.8713C26.2063 28.3322 25.3313 28.9642 24.3649 29.1748C21.6355 29.741 18.8278 29.8595 16.0462 30.0307C14.5052 30.1228 13.0556 30.4783 11.5799 31.1762C12.4157 31.8609 13.3037 32.2164 14.0742 32.7562C15.2365 33.5725 15.5238 34.2704 14.675 35.3896C14.2701 35.9162 13.8261 36.4824 13.2646 36.7326C12.5594 37.0486 12.1937 37.4699 11.9978 38.2336C12.7161 38.0624 13.2776 38.2468 13.7608 38.6681C13.9175 38.7998 14.0873 38.9314 14.2571 38.9051C15.1451 38.7734 15.2888 39.6161 15.5499 40.077C15.7719 40.472 15.9025 41.2356 15.4585 41.6438C14.7272 42.3153 14.3485 43.3028 13.4213 43.8032C13.147 43.948 12.7683 44.3035 12.8467 44.7117C12.9381 45.1725 13.4082 45.2252 13.8 45.3173C14.3093 45.4227 14.7794 45.6728 15.0929 46.0284C15.4324 46.4102 15.0276 48.3589 14.6227 48.7276C14.5705 48.7802 14.453 48.8592 14.4268 48.8329C13.8784 48.4774 13.8392 49.0304 13.7347 49.2806C13.4996 49.8072 13.1993 50.2681 12.7553 50.6367C12.2198 51.0712 12.2329 51.4399 12.8597 51.8876C13.591 52.4274 14.4007 52.8488 15.1712 53.3228C16.438 54.0996 16.673 55.0871 15.7589 56.2458C15.3671 56.7461 14.8186 57.0226 14.3615 57.444C13.6694 58.076 13.0948 58.7475 12.7944 59.7087L12.8206 59.6692ZM27.9301 27.4763C27.9301 27.4763 27.8909 27.4236 27.8779 27.4236C27.8648 27.4236 27.8387 27.45 27.8256 27.4763C27.8387 27.4895 27.8648 27.529 27.8779 27.529C27.904 27.529 27.917 27.5026 27.9301 27.4763Z" fill="#266E69"/>
<path fill-rule="evenodd" clip-rule="evenodd" d="M50.7576 32.493C50.3136 32.6247 49.8826 32.493 49.4647 32.414C48.5637 32.2165 47.6626 32.4404 46.7615 32.414C44.8157 32.3745 42.8829 32.2692 40.9632 31.8873C38.9129 31.4792 36.8103 31.2158 34.982 30.0572C34.8253 29.9518 34.6425 29.8728 34.5119 29.7412C34.1332 29.3857 33.872 28.9116 34.0287 28.4245C34.1724 27.9768 34.6817 27.9373 35.1126 27.8583C36.0398 27.6871 36.7581 28.1611 37.4894 28.5956C37.8681 28.8195 38.2207 29.017 38.6909 28.7931C39.0304 28.6351 39.3177 28.9511 39.605 29.0696C41.2766 29.728 43.0396 29.6753 44.7634 29.8465C45.8604 29.9518 46.9443 30.0177 48.0413 30.0967C49.0338 30.1625 50.0524 29.9387 51.071 29.8202C52.6773 29.6227 54.2053 28.9248 55.8638 28.9511C56.347 28.9511 56.6735 29.0433 56.804 29.491C56.9346 29.9255 57.0261 30.36 56.5037 30.6892C55.903 31.0842 55.1716 31.2948 54.6101 31.6372C53.3564 32.414 52.0244 32.256 50.7315 32.493H50.7576Z" fill="#266E69"/>
<path fill-rule="evenodd" clip-rule="evenodd" d="M45.2209 21.4987C46.788 21.4197 48.3159 21.5251 49.8569 21.9069C50.6274 22.0912 51.3457 22.1044 51.7766 22.8944C52.299 23.8424 52.1553 24.9089 51.2151 25.4356C50.4838 25.857 49.5957 26.3573 48.8383 26.2915C47.7935 26.1993 46.7749 26.3705 45.7432 26.1993C44.8552 26.0413 43.9933 25.9755 43.1314 25.5278C42.5437 25.2249 41.7341 25.2381 41.1203 24.8299C40.4542 24.3954 40.4151 23.3816 41.1203 22.9998C41.7079 22.6706 42.2303 22.1702 42.9224 22.1439C43.7452 22.1044 44.3328 21.2222 45.2209 21.4856V21.4987Z" fill="#266E69"/>
<path fill-rule="evenodd" clip-rule="evenodd" d="M82.1523 54.1656C82.5964 53.8101 83.1057 53.7311 83.6411 53.7838C83.2624 54.4948 82.8706 54.5869 82.1523 54.1656Z" fill="#266E69"/>
<path fill-rule="evenodd" clip-rule="evenodd" d="M80.5198 52.6514C80.5198 53.3493 81.2903 53.5336 81.4731 54.1129C80.559 53.9418 80.3892 53.6916 80.5198 52.6514Z" fill="#266E69"/>
<path fill-rule="evenodd" clip-rule="evenodd" d="M27.9312 27.4765C27.9312 27.4765 27.8916 27.5291 27.8784 27.5291C27.8653 27.5291 27.8389 27.5028 27.8257 27.4765C27.8521 27.4633 27.8653 27.4238 27.8784 27.4238C27.8916 27.4238 27.918 27.4501 27.9312 27.4765Z" fill="white"/>
<path fill-rule="evenodd" clip-rule="evenodd" d="M113.86 43.619C113.155 42.7105 112.254 41.9073 111 41.5255C108.584 40.7618 105.816 41.1305 103.935 43.1713C103.4 43.7506 102.669 44.251 102.146 44.8698C101.715 45.3833 100.801 45.4097 100.736 46.1865C100.697 46.7527 100.318 46.9634 99.9784 47.2399C99.7694 47.3979 99.6258 47.5822 99.469 47.7929C98.8683 48.5565 98.2415 49.307 97.8628 50.2156C97.5102 51.0319 96.6613 51.4401 96.3871 52.4144C96.1912 53.1254 95.93 54.0866 94.9114 54.5474C94.5065 54.7318 93.7491 55.1794 93.5793 55.8905C93.3704 56.8121 92.5999 57.3256 92.0775 58.0103C91.6465 58.5896 91.0719 58.5107 90.654 58.2605C89.6615 57.6416 88.5384 57.4178 87.4806 57.036C85.7438 56.404 83.9285 56.2196 82.1525 56.0616C80.8596 55.9431 79.7365 55.5613 78.6265 54.9819C77.1508 54.2183 77.0724 53.8233 77.4511 52.1247C77.5948 51.5191 78.0388 51.1241 78.1563 50.5316C78.3392 49.6362 78.7179 48.833 79.3709 48.201C79.6843 47.8982 79.8671 47.569 80.0369 47.1609C80.2589 46.621 80.4025 46.0022 80.9771 45.5808C81.5256 45.1727 82.0088 44.4748 81.9174 43.8165C81.826 43.1845 82.1002 42.7895 82.4006 42.4866C82.8969 41.9468 83.0013 41.2358 83.3278 40.6433C83.6282 40.1034 83.9808 39.8796 84.4378 39.6426C85.0125 39.3398 85.1822 39.5636 85.2606 40.1429C85.3912 41.1041 85.1169 41.9336 84.6729 42.75C83.9938 44.014 83.7979 45.4887 82.8446 46.6737C82.5181 47.0819 82.1655 47.648 82.0088 48.1879C81.7868 48.991 81.3689 49.6889 81.0686 50.4394C80.7943 51.1241 80.4156 51.8482 80.5331 52.6514C80.5331 53.3493 81.3036 53.5336 81.4865 54.1129C81.7085 54.2841 81.9435 54.1393 82.1786 54.1656C82.6226 53.8101 83.1319 53.7311 83.6673 53.7838C84.3073 53.3756 83.9155 52.4934 84.3987 52.0589C85.1039 51.4269 85.0908 50.5052 85.4303 49.7415C85.8874 48.7277 86.3837 47.6744 86.9975 46.8185C87.559 46.0417 87.8202 45.278 88.003 44.4222C88.0291 44.2905 88.0553 44.1588 88.1336 44.0667C88.7605 43.3293 88.9955 42.4471 89.0608 41.4991C89.0869 41.1305 89.1522 40.7881 89.4134 40.5379C89.8966 40.0639 89.7921 39.5636 89.4918 39.0633C88.8649 38.0099 88.0422 37.1277 86.9975 36.5221C86.018 35.9427 85.13 35.1132 83.8371 35.1922C80.1675 35.4161 77.8952 37.6412 76.106 40.5774C75.9363 40.8539 75.8187 41.1305 75.5445 41.3543C74.5389 42.1706 73.9382 43.3425 73.1285 44.33C72.7106 44.8435 72.4364 45.515 71.8226 45.831C71.47 46.0153 71.3264 46.2787 71.2219 46.5947C71.1044 46.9897 70.817 47.2794 70.6342 47.6217C70.2555 48.28 69.4981 48.4512 69.1193 49.0042C68.375 50.1234 67.2258 50.8871 66.5206 52.0457C65.8937 53.0859 64.64 53.6389 64.2874 54.8503C64.0524 55.6403 63.6736 56.2591 63.0468 56.72C62.7073 56.9833 62.6158 57.2993 62.6942 57.6943C62.8248 58.3395 62.0935 58.4053 61.9106 58.8925C61.4274 60.2355 61.0748 61.618 60.3958 62.9215C59.795 64.0539 59.2727 65.3047 59.0768 66.6477C59.0115 67.1349 59.116 67.7406 58.5675 68.2541C58.1235 68.6754 57.797 69.5971 57.9276 70.1633C58.254 71.48 57.6011 72.5201 57.2746 73.6393C56.8437 75.114 55.825 76.3385 55.368 77.8264C55.2243 78.2872 55.1329 78.8665 54.8195 79.1562C54.0098 79.8936 53.9445 80.8811 53.6964 81.8027C53.6311 82.0397 53.6833 82.3426 53.4482 82.4479C52.7953 82.7508 52.508 83.2774 52.3513 83.9621C52.2468 84.3966 51.9856 84.8048 51.6461 85.134C50.4707 86.2795 50.301 87.7015 50.5883 89.2157C50.7711 90.1505 50.8103 91.296 51.5938 91.8227C52.521 92.4547 52.9651 93.4685 53.9053 94.0874C54.9109 94.7589 55.812 95.6411 56.8175 96.3389C57.1571 96.5759 57.5227 96.7734 57.9406 96.7603C58.3193 96.7603 58.6328 96.9314 58.9201 97.1289C59.3641 97.4186 59.782 97.5634 60.3435 97.5766C60.9312 97.5766 61.6364 97.7478 62.0543 98.1164C62.6158 98.6036 63.2166 98.7353 63.8695 98.8669C64.1438 98.9196 64.405 98.9723 64.627 99.1434C65.4236 99.815 66.4944 99.5516 67.3825 100.065C67.9962 100.421 68.8843 100.513 69.5372 100.802C71.1827 101.5 72.8673 102.066 74.5389 102.685C75.2441 102.949 76.0146 103.054 76.6545 103.423C77.1116 103.686 77.5295 103.778 78.0127 103.739C78.3392 103.712 78.6526 103.778 78.9791 103.791C80.1936 103.857 81.3689 104.305 82.6357 104.121C83.1972 104.042 83.6282 103.673 84.2028 103.673C85.4042 103.686 86.6057 103.462 87.6896 102.949C88.4079 102.606 89.2175 102.303 89.766 101.777C90.7585 100.842 91.4376 99.5779 92.6652 98.8538C92.7958 98.7748 92.9917 98.6299 92.9917 98.5114C92.9655 97.9453 93.4618 97.7873 93.7621 97.5503C94.0233 97.3528 94.2323 97.2211 94.3629 96.8788C94.833 95.6806 95.9561 94.9037 96.4001 93.6924C96.4132 93.6397 96.4524 93.587 96.4915 93.5607C97.0487 93.0253 97.3665 92.3538 97.4449 91.5462C97.4449 91.5462 97.5624 91.3882 97.5754 91.3882C98.0586 91.5857 98.0848 91.1249 98.1501 90.9142C98.8553 88.4652 100.174 86.3058 101.441 84.1596C102.003 83.1853 102.329 82.0003 103.322 81.3024C103.426 81.2234 103.491 80.9996 103.491 80.8547C103.465 80.3544 103.7 79.9594 104.001 79.6302C104.405 79.1957 104.654 78.7217 104.732 78.1424C104.863 77.3392 105.385 76.6809 105.777 76.0225C106.116 75.4695 106.299 74.6005 106.743 74.3767C107.709 73.8632 107.801 72.8888 108.167 72.1251C108.545 71.3483 108.663 70.4266 109.002 69.5708C109.263 68.9124 109.394 68.1093 109.603 67.3983C109.812 66.6872 109.877 65.9104 110.243 65.2784C110.53 64.7781 110.648 64.304 110.674 63.751C110.713 62.9874 110.739 62.171 111.196 61.5259C111.497 61.1045 111.523 60.6963 111.405 60.2355C111.353 59.9853 111.288 59.7483 111.379 59.5113C111.862 58.3131 111.967 57.0228 112.241 55.7588C112.489 54.6264 112.62 53.4546 112.789 52.3091C112.946 51.3479 113.469 50.5579 113.638 49.6099C113.795 48.754 114.122 47.885 114.317 47.0292C114.579 45.8968 114.552 44.5275 113.834 43.5926L113.86 43.619ZM109.616 47.4374C109.172 48.3459 109.76 49.6494 109.028 50.7554C108.741 51.1899 108.937 51.8482 108.859 52.4144C108.676 53.5336 108.023 54.4553 107.879 55.6008C107.788 56.3513 107.5 57.2335 107.056 57.9708C106.913 58.2078 106.939 58.5501 106.926 58.8398C106.913 59.2085 106.795 59.5508 106.56 59.8142C105.907 60.5647 105.411 61.4337 104.81 62.2237C104.497 62.6319 104.027 62.9347 103.348 62.566C102.747 62.25 102.081 62.0657 101.506 61.6444C100.814 61.144 100.592 60.5778 100.827 59.801C100.893 59.564 100.827 59.3665 100.801 59.1558C100.657 58.2868 100.958 57.5495 101.441 56.8648C102.029 56.0353 102.029 54.9819 102.42 54.0866C102.447 54.0339 102.368 53.9418 102.342 53.8759C103.322 53.5073 102.995 52.4802 103.361 51.7956C103.726 51.0977 104.196 50.4789 104.758 49.9917C105.711 49.1622 106.09 47.8982 107.083 47.1345C107.553 46.779 108.023 46.3972 108.532 46.1207C109.224 45.752 109.512 45.9363 109.629 46.7263C109.642 46.8843 109.629 47.0555 109.629 47.4242L109.616 47.4374Z" fill="#A0CD64"/>
</g>
<defs>
<clipPath id="clip0_125_16337">
<rect width="108" height="88.56" fill="white" transform="translate(6.5 15.6)"/>
</clipPath>
</defs>
</svg>
