<svg width="120" height="120" viewBox="0 0 120 120" fill="none" xmlns="http://www.w3.org/2000/svg">
<g clip-path="url(#clip0_125_16191)">
<path fill-rule="evenodd" clip-rule="evenodd" d="M100.8 98.9263C100.274 99.1746 100.332 99.7587 100.201 100.182C100.011 100.81 99.66 101.146 99.1485 101.497C97.2342 102.782 95.0861 103.337 92.8796 103.789C90.6877 104.242 88.4957 104.665 86.2746 104.884C85.0471 105.001 83.805 105.104 82.5629 105.089C81.1747 105.06 79.8595 105.571 78.4713 105.454C76.937 105.308 75.4172 105.688 73.8829 105.6C71.5448 105.454 69.2067 105.25 66.8687 105.074C66.1673 105.03 65.4366 105.308 64.8083 105.206C64.1507 105.104 63.4785 105.074 62.8355 104.928C61.8565 104.695 60.8774 104.724 59.8837 104.651C58.6416 104.549 57.3849 104.359 56.2597 103.994C54.6377 103.468 52.8696 103.249 51.4083 102.197C51.0137 101.92 50.4438 101.905 49.9616 101.759C49.3479 101.57 48.9241 101.161 48.5149 100.664C48.0911 100.153 47.9889 99.7149 47.9596 99.0432C47.945 98.386 48.0181 97.7581 48.0473 97.1155C48.0911 95.9473 48.3103 94.7206 48.1204 93.5815C47.9742 92.7345 47.682 91.9898 48.1496 91.172C48.2373 90.9967 48.1204 90.7047 48.0765 90.471C48.0473 90.2666 47.945 90.0475 47.945 89.8431C48.0765 87.7548 47.7843 85.6519 47.9158 83.5637C47.9742 82.7459 48.1058 81.9281 48.0911 81.0811C48.0911 80.6868 48.4711 80.2049 47.8135 79.9567C47.7843 79.9567 47.8281 79.65 47.8866 79.5186C48.325 78.4233 47.8573 77.1382 48.6026 76.116C48.8802 75.7363 49.0702 75.269 49.6255 75.1522C49.9616 75.0792 50.2538 74.8163 50.3123 74.5242C50.4 74.0862 50.7507 73.9401 51.0137 73.8817C52.2412 73.6627 53.1472 72.8449 54.2286 72.3338C55.3684 71.7934 56.5958 71.5452 57.8087 71.2385C58.7001 71.0195 59.6353 70.9172 60.4829 70.523C60.892 70.3331 61.3304 70.596 61.7542 70.4499C63.2739 69.9534 64.8667 69.8512 66.4157 69.5591C67.3947 69.3693 68.4176 69.4277 69.4259 69.4569C69.9374 69.4569 70.4488 69.5153 70.9603 69.3693C71.9686 69.1064 72.9769 69.4423 73.9851 69.2817C75.4172 69.048 76.8347 69.2817 78.2521 69.2817C79.012 69.2817 79.8157 69.2379 80.6048 69.4861C81.3354 69.7198 82.1245 69.4277 82.899 69.6176C83.352 69.7344 83.8635 69.7052 84.3165 69.8804C86.0262 70.5376 87.8235 70.7858 89.5625 71.3261C90.2493 71.5452 90.9945 71.5744 91.7106 71.6912C93.0111 71.8957 94.1509 72.3922 95.2323 73.0931C95.656 73.3706 96.036 73.6334 96.5328 73.6919C96.9274 73.7357 97.2196 73.9547 97.5411 74.1446C98.8563 74.9185 99.5869 76.2036 100.376 77.4303C100.434 77.5179 100.493 77.6201 100.478 77.7224C100.361 78.9198 100.581 80.1173 100.522 81.3294C100.464 82.4684 100.259 83.7097 100.697 84.8634C100.712 84.9072 100.785 84.9218 100.814 84.951V85.7688C100.566 86.1046 100.537 86.4989 100.522 86.9078C100.522 87.9447 100.756 88.9815 100.478 90.0037C100.434 90.1498 100.449 90.325 100.478 90.4856C100.814 92.1212 100.434 93.7568 100.566 95.3923C100.61 96.0203 100.244 96.7358 100.8 97.32V98.9409V98.9263ZM51.7298 82.1034C51.7298 82.1034 51.6275 81.9281 51.5252 82.0449L51.6421 82.1764C51.3352 83.2862 51.4521 84.4107 51.4813 85.5351C51.4813 86.0024 51.5982 86.4405 51.5398 86.9224C51.3352 88.3974 51.6567 89.8723 51.5398 91.3618C51.4813 92.0774 51.2475 92.7491 51.2914 93.4939C51.4229 95.4215 51.6275 97.3638 51.3644 99.306C51.3352 99.5397 51.3644 99.7733 51.6275 99.8171C52.475 99.9193 53.1472 100.533 53.9217 100.693C55.7045 101.088 57.3411 101.964 59.2262 102.081C60.7459 102.183 62.2802 102.533 63.8146 102.621C66.1527 102.738 68.4615 103.117 70.7995 103.103C72.5239 103.103 74.2482 103.351 76.0017 103.132C76.5716 103.059 77.1708 103.001 77.7553 103.015C79.3773 103.044 80.9993 103.03 82.636 102.84C84.1265 102.665 85.6024 102.446 87.0929 102.256C88.3058 102.11 89.3871 101.54 90.6146 101.511C91.316 101.511 92.0028 101.511 92.6896 101.307C94.297 100.869 95.7145 100.051 97.0735 99.1162C97.2342 99.0139 97.1758 98.9409 97.1612 98.7949C97.015 97.8019 97.4826 96.765 96.9127 95.8158C96.8835 95.772 96.9274 95.626 96.9712 95.6114C97.4973 95.4215 97.2196 95.1441 97.0589 94.8812C96.942 94.6914 96.9274 94.5015 96.942 94.2679C97.0004 93.2895 97.0735 92.311 97.0004 91.3472C96.9566 90.7193 97.2488 90.0621 97.1319 89.5656C96.8981 88.6602 96.9858 87.7548 97.0443 86.9224C97.1173 85.8126 97.1465 84.7319 96.9566 83.6513C96.7958 82.7313 96.5766 82.5999 95.7583 83.0234C94.5747 83.6367 93.3764 84.2208 92.032 84.3669C91.9005 84.3669 91.7836 84.4691 91.6667 84.5275C90.7023 85.024 89.6501 85.2285 88.598 85.4913C86.976 85.8856 85.2371 85.3745 83.6589 86.1923C83.3082 86.3821 82.8113 86.3529 82.3875 86.1923C82.0515 86.09 81.7446 86.1193 81.4377 86.2361C79.6842 86.8202 77.8576 86.6012 76.0748 86.5281C74.1167 86.4405 72.1439 86.2215 70.2004 86.3237C68.6953 86.3967 67.2632 86.0024 65.8019 86.017C64.779 86.017 63.9023 85.5059 62.9086 85.3891C61.5642 85.2431 60.1906 85.1554 58.9047 84.5713C58.0863 84.2062 57.1657 84.031 56.2744 83.8703C54.6523 83.5783 53.1764 82.9942 51.7736 82.1472L51.7298 82.1034ZM72.9476 84.2646C74.6866 84.3084 75.8702 84.3523 77.0685 84.25C79.8011 84.0018 82.5191 83.7097 85.2224 83.3154C88.1304 82.8773 90.9653 82.2056 93.6248 80.9497C94.7647 80.4094 95.8168 79.7522 96.6497 78.7884C96.7812 78.6424 97.0589 78.4671 96.9127 78.2481C96.4451 77.4887 96.3136 76.5249 95.393 76.043C93.4787 75.0354 91.6229 73.8671 89.4748 73.3706C89.0802 73.2684 88.6857 73.4144 88.2619 73.1661C87.5021 72.728 86.6399 72.3484 85.7777 72.2461C84.5795 72.1147 83.3812 71.9103 82.1537 71.9103C81.1308 71.9103 80.1079 71.735 79.0997 71.6328C77.9306 71.516 76.747 71.5598 75.5633 71.6036C72.7723 71.7058 69.9666 71.662 67.1756 71.9541C66.0065 72.0709 64.8083 72.1585 63.6831 72.363C62.6602 72.5528 61.608 72.8303 60.5851 73.0201C58.101 73.4728 55.9529 74.8017 53.571 75.5173C53.4979 75.5465 53.4541 75.6779 53.381 75.7363C53.0157 76.1014 52.7088 76.5395 52.2997 76.8024C51.6128 77.2259 51.4229 78.3357 52.0366 78.876C53.5125 80.1903 55.1199 81.1395 57.1511 81.5338C58.7439 81.8405 60.2929 82.4538 61.9149 82.5999C63.0255 82.7021 64.0192 83.2862 65.0859 83.4176C67.877 83.7681 70.6534 84.323 72.9476 84.2646V84.2646Z" fill="#236E69"/>
<path fill-rule="evenodd" clip-rule="evenodd" d="M20.3999 83.1548C20.9259 82.9503 20.8383 82.5415 20.6921 82.1618C20.4583 81.5922 20.4875 81.0227 20.736 80.5262C20.9552 80.0881 20.999 79.6646 20.8529 79.2703C20.4145 77.9852 20.736 76.7001 20.7944 75.4151C20.809 74.9916 20.8383 74.5681 20.7944 74.1446C20.7067 73.356 20.4875 72.582 20.9405 71.7934C21.1013 71.5014 20.999 70.9903 20.8821 70.6106C20.6191 69.7928 20.7067 68.975 20.7506 68.1426C20.809 67.2518 20.9552 66.3172 20.9259 65.4994C20.8967 64.8131 20.7067 64.0245 20.7213 63.2797C20.7652 61.5419 20.6191 59.8042 20.5898 58.081C20.5898 57.5406 20.9259 57.1171 20.9113 56.5622C20.8821 55.8613 20.6483 55.1603 20.6921 54.5032C20.7652 53.4809 20.5752 52.4441 20.7506 51.4365C20.8967 50.5749 20.8675 49.6257 20.7506 48.8663C20.6337 47.9901 20.736 47.1285 20.6921 46.2961C20.6483 45.4491 20.7506 44.5291 20.7506 43.6675C20.7506 42.4993 20.8236 41.331 20.8529 40.1627C20.8967 37.9723 21.4082 35.884 22.095 33.8249C22.358 33.0363 22.4603 32.1894 23.1325 31.6198C24.1846 30.7582 24.5938 29.4585 25.3682 28.4363C25.9528 27.6623 26.888 27.1366 27.7063 26.5671C28.2178 26.2166 28.7877 25.983 29.0945 25.3842C29.2553 25.0776 31.7687 24.5372 32.0902 24.6833C32.4701 24.8585 32.777 25.1506 32.8354 25.5887C32.9085 26.056 32.5139 26.2312 32.1925 26.4357C29.606 28.042 27.7209 30.2179 26.245 32.9049C25.5874 34.1024 25.3975 35.2999 25.0175 36.5119C24.8714 36.9938 24.8714 37.5049 24.3453 37.8408C24.0677 38.0161 24.17 38.498 24.1115 38.8338C23.9216 40.0313 24.0092 41.2726 23.9946 42.4701C23.9946 43.4923 23.8923 44.5729 24.2577 45.5806C24.4038 45.9748 24.0969 46.2961 24.0823 46.6758C24.0385 47.9025 23.9654 49.1292 24.2284 50.3412C24.3307 50.8231 24.1408 51.305 24.0823 51.7724C23.8923 53.1889 24.4038 54.6054 23.9654 56.0073C23.8923 56.2556 23.8923 56.5622 23.98 56.8105C24.2577 57.5406 24.0531 58.3 24.1554 59.0156C24.36 60.6657 23.8777 62.3013 24.1554 63.9807C24.3453 65.1197 24.1554 66.3464 24.1554 67.5293C24.1554 68.7414 24.4184 70.0264 24.0092 71.2385C23.9946 71.2969 23.9654 71.3407 23.98 71.3991C24.433 73.2684 24.17 75.196 24.1992 77.0798C24.2138 78.4671 24.5353 79.9275 23.9654 81.3148C23.8923 81.5046 23.8923 81.7383 23.9216 81.9573C24.2869 84.5713 24.1554 87.2291 24.3307 89.8723C24.4038 91.026 25.0906 91.5663 25.6605 92.2672C26.2742 93.0266 27.2679 93.3187 28.0424 93.9028C28.51 94.2533 29.2114 94.1657 29.8106 94.3847C31.3449 94.925 32.9523 95.3193 34.589 95.3777C36.1964 95.4361 37.8476 95.9473 39.455 95.1149C39.8788 94.8958 40.5218 95.0419 41.0479 94.8812C41.5009 94.7352 41.9538 94.6184 42.3192 94.2387C43.0498 93.5085 44.4819 93.5669 45.0664 94.2825C45.6509 94.998 45.4755 96.0349 44.5988 96.3269C42.1877 97.1155 39.7911 97.8749 37.1462 97.8165C34.7351 97.7581 32.3824 97.4076 30.0151 97.1155C29.2114 97.0279 28.4369 96.6044 27.6479 96.4438C26.172 96.1371 25.1198 95.0565 23.7754 94.5599C23.454 94.4285 23.1471 94.2679 23.0886 93.859C23.0448 93.6107 22.9133 93.4063 22.6356 93.3479C22.0511 93.2457 21.9196 92.8514 21.8027 92.3256C21.4958 90.8507 20.9405 89.4196 20.7506 87.9155C20.7213 87.6672 20.7213 87.3605 20.3853 87.2583V86.6012C20.7213 86.1923 20.7213 84.6151 20.3853 83.8411V83.184L20.3999 83.1548Z" fill="#236E69"/>
<path fill-rule="evenodd" clip-rule="evenodd" d="M100.8 97.3053C100.245 96.7358 100.61 96.0057 100.566 95.3777C100.435 93.7567 100.814 92.1066 100.478 90.471C100.449 90.325 100.435 90.1351 100.478 89.9891C100.756 88.9523 100.522 87.9154 100.522 86.8932C100.522 86.4843 100.551 86.09 100.814 85.7542V97.3053H100.8Z" fill="white"/>
<path fill-rule="evenodd" clip-rule="evenodd" d="M20.3999 83.7973C20.736 84.5713 20.736 86.1485 20.3999 86.5574V83.7973Z" fill="white"/>
<path fill-rule="evenodd" clip-rule="evenodd" d="M35.3195 93.0704C33.756 93.2895 32.3093 92.7637 30.8626 92.3695C29.7813 92.0774 28.773 91.4787 27.7501 90.9675C27.0194 90.6025 26.8148 89.8139 26.7564 89.1129C26.6979 88.4266 26.3472 87.8278 26.1573 87.2145C25.9381 86.5135 25.9088 85.8564 25.9819 85.1992C26.1573 83.7097 26.0988 82.2348 25.9965 80.7599C25.9527 80.1465 26.0257 79.5332 26.0404 78.9198C26.0696 76.8608 25.8212 74.8017 26.0404 72.728C26.0988 72.1147 25.865 71.4138 25.9235 70.7274C25.9965 69.7198 26.3034 68.7268 25.9673 67.6753C25.7481 67.0182 25.8066 66.2296 26.055 65.5432C26.1865 65.1782 26.1134 64.8423 26.0257 64.5064C25.8796 63.9953 25.8504 63.455 25.9819 62.9731C26.128 62.4327 26.1719 61.9362 26.055 61.4105C25.8504 60.5343 26.2888 59.6727 26.1134 58.7965C25.8358 57.4092 25.9381 56.0219 26.1134 54.6492C26.2888 53.2619 25.8212 51.9184 25.9381 50.5457C26.0988 48.6619 25.9381 46.778 25.8066 44.9088C25.7627 44.1932 25.7773 43.4923 25.675 42.7767C25.5727 41.9443 26.2449 41.185 26.5518 40.3818C26.8441 39.5786 27.4286 38.9799 28.2907 38.571C30.7749 37.3589 33.4783 37.1691 36.1379 36.877C38.3006 36.6434 40.4925 36.7018 42.6406 37.2859C44.0873 37.6656 45.4609 38.2059 46.7906 38.8777C47.8866 39.4326 47.945 40.411 47.945 41.3894C47.945 42.4116 47.7697 43.4485 47.7259 44.4561C47.682 45.2155 47.6528 46.1063 47.872 46.8949C48.0766 47.6396 47.6966 48.326 47.872 49.0561C48.1204 50.0346 47.5213 51.0714 48.0181 52.0352C47.4482 52.7362 48.3104 53.5832 47.7697 54.2987C47.4628 54.7076 47.7697 55.2333 47.8281 55.613C48.0327 57.1756 47.682 58.7235 47.7843 60.2569C47.8135 60.6657 47.7843 61.0746 47.872 61.4543C48.0473 62.1991 47.7551 62.9146 47.7405 63.6302C47.7112 64.667 47.6382 65.7331 47.872 66.7845C48.1642 68.128 47.6966 69.5153 47.9012 70.8734C47.9304 71.0779 47.7989 71.3407 47.9743 71.4868C48.2958 71.735 48.1496 71.8226 47.8866 71.9687C47.5943 72.1293 47.4044 72.3776 47.3459 72.728C47.1998 73.8379 46.1038 74.4804 45.9431 75.6049C45.8846 75.97 45.7531 76.3351 45.8408 76.7001C45.8846 76.9046 45.87 77.0652 45.8116 77.2405C45.3586 78.3941 45.3001 79.5916 45.3586 80.8183C45.4316 82.4976 45.5632 84.177 45.4462 85.8418C45.3586 87.1415 45.4024 88.412 45.6508 89.6825C45.6801 89.8577 45.6216 90.0475 45.4755 90.0913C44.4233 90.4564 43.8973 91.5955 42.7575 91.8437C41.6323 92.092 40.5656 92.5447 39.3819 92.5885C38.0229 92.6469 36.6785 92.8806 35.3195 93.0412V93.0704ZM36.9269 66.5071C38.9289 66.4048 40.8432 66.2296 42.7136 65.7331C43.4151 65.5432 44.0873 65.2366 44.7594 64.9445C45.1832 64.7693 45.3732 64.4042 45.2563 63.9515C45.1686 63.6594 45.0809 63.2797 44.6572 63.2797C43.9119 63.2797 43.152 63.2213 42.4068 63.382C40.2733 63.8639 38.096 64.0099 35.9187 64.1121C34.4281 64.1851 32.9669 63.9515 31.491 63.8054C30.9649 63.747 30.4242 63.8639 30.2781 64.4918C30.1466 65.0321 30.6434 65.6017 31.301 65.7331C33.1861 66.1128 35.1003 66.288 36.9269 66.4925V66.5071ZM37.4384 76.5249C38.8705 76.5979 40.624 76.1598 42.3775 75.6633C42.9767 75.4881 43.5466 75.196 44.058 74.8455C44.4818 74.5535 44.6718 74.1154 44.3503 73.6481C44.0434 73.1808 43.5904 73.1223 43.152 73.4582C42.889 73.6481 42.6406 73.7065 42.3337 73.7357C41.6323 73.7941 40.9455 73.9109 40.2441 73.9985C37.3653 74.3344 34.4866 74.4951 31.6225 73.9985C30.9357 73.8817 30.7749 74.203 30.7895 74.7287C30.8042 75.4005 31.2864 75.7217 31.8709 75.8824C33.5514 76.3497 35.2757 76.5541 37.4238 76.5395L37.4384 76.5249ZM29.3721 42.6599C29.3721 43.5945 29.9566 44.4999 30.7165 44.6021C32.5285 44.865 34.3551 45.0987 36.1817 45.2155C38.1106 45.3469 40.0103 45.011 41.9099 44.7336C42.9474 44.5875 43.8388 44.0618 44.7741 43.6383C45.2124 43.4339 45.4024 43.0396 45.1978 42.5577C44.9932 42.0466 44.6279 42.2218 44.248 42.324C43.8534 42.4263 43.4589 42.4847 43.0644 42.5723C40.887 43.0396 38.7097 43.6383 36.4447 43.4339C35.9917 43.3901 35.5387 43.3755 35.0711 43.3463C33.5221 43.2294 31.9586 43.4485 30.4388 43.025C30.1027 42.9228 29.6644 43.1272 29.3575 42.6453L29.3721 42.6599ZM36.5616 85.0824C37.5261 85.1116 38.4175 85.0824 39.2942 84.9364C40.171 84.805 40.9455 84.4399 41.6031 83.8411C41.9099 83.5637 42.0122 83.1986 41.8223 82.8043C41.6323 82.41 41.3693 82.3954 40.9601 82.5415C39.9226 82.9065 38.7974 82.9503 37.7307 82.8919C36.1232 82.8043 34.5012 82.8043 32.8938 82.6875C32.3531 82.6583 31.7978 82.6583 31.6517 83.3008C31.491 83.958 32.0316 84.1916 32.4992 84.4107C33.7998 85.0386 35.2026 85.1408 36.547 85.0824H36.5616Z" fill="#79CBE8"/>
<path fill-rule="evenodd" clip-rule="evenodd" d="M43.2691 24.5956C44.6719 24.8439 46.0017 25.428 47.1707 26.4211C48.5443 27.5747 49.6257 29.0204 50.6486 30.4662C51.2477 31.3278 51.4084 32.4814 51.8176 33.5036C52.7236 35.7525 52.7382 38.1913 53.1912 40.5424C53.4104 41.6669 53.4834 42.8935 53.4104 44.1056C53.3373 45.2739 53.1766 46.5298 53.4981 47.698C53.688 48.399 53.3812 49.0561 53.3958 49.7425C53.4542 51.7723 53.5419 53.7876 53.4104 55.8321C53.3373 57.0733 52.9866 58.373 53.4981 59.6143C53.7319 60.1692 53.5419 60.7388 53.5273 61.2937C53.4688 62.9585 53.3958 64.594 53.5419 66.2734C53.6588 67.6315 53.3812 69.0042 52.9135 70.3039C52.6797 70.961 52.2267 71.2969 51.4961 71.2823C50.7947 71.2531 50.7216 70.6982 50.5463 70.2455C49.6987 68.0988 49.9471 65.8499 49.9179 63.6302C49.9033 62.0384 49.7718 60.4467 49.9179 58.8841C50.0933 57.0295 49.8156 55.1749 49.991 53.3203C50.064 52.4879 49.8595 51.6117 49.9325 50.7355C49.9617 50.3704 49.8741 50.0053 50.0348 49.6403C50.3563 48.9247 49.8302 48.253 49.8595 47.5374C49.9179 46.5006 49.8595 45.4637 50.2102 44.4415C50.4586 43.7113 49.8887 43.0542 49.8156 42.3386C49.801 42.1634 49.6841 41.9735 49.7572 41.7983C50.1517 40.8637 50.0494 39.8999 49.8448 38.9507C49.6987 38.2643 49.6841 37.578 49.6987 36.8916C49.7133 36.3221 49.3918 35.8402 49.1727 35.3875C48.5589 34.1462 48.0913 32.8465 47.4922 31.6198C47.3314 31.3132 47.1707 31.0211 46.9369 30.7436C46.5862 30.3347 46.1332 29.9843 46.104 29.3271C46.0893 28.8744 45.461 28.816 45.1687 28.4801C44.4381 27.6185 43.7074 26.7861 42.4946 26.5379C41.8808 26.4211 41.6616 25.8369 41.8078 25.2528C41.9831 24.5372 42.6553 24.7271 43.2691 24.5956V24.5956Z" fill="#236E69"/>
<path fill-rule="evenodd" clip-rule="evenodd" d="M38.3295 23.9385C36.8974 23.9385 35.48 23.807 34.0479 23.8363C33.4926 23.8363 32.7474 23.7632 32.4843 23.2959C32.1921 22.7848 31.8706 22.1715 31.8998 21.5143C31.9729 20.3899 32.1044 19.2654 32.1774 18.141C32.2651 16.7829 33.1273 16.0381 34.4571 15.8337C36.0791 15.5854 37.6865 15.5562 39.3231 15.6438C41.1351 15.746 42.1727 16.8121 42.2749 18.6375C42.348 19.908 42.4357 21.1785 41.9973 22.4051C41.6174 23.4712 41.0328 23.8947 39.8638 23.9385C39.3524 23.9531 38.8409 23.9385 38.3149 23.9385H38.3295Z" fill="#1D6C67"/>
<path fill-rule="evenodd" clip-rule="evenodd" d="M48.0764 97.1311C48.0764 97.1311 48.0033 97.1311 47.9741 97.1311C47.9741 97.1015 47.9741 97.0867 47.9741 97.0571C48.0033 97.0867 48.0326 97.1163 48.0618 97.1459L48.0764 97.1311Z" fill="#236E69"/>
<path fill-rule="evenodd" clip-rule="evenodd" d="M51.7298 86.3091C53.1327 86.8348 54.6232 87.1999 56.2306 87.3897C57.122 87.492 58.0426 87.5942 58.8609 87.8278C60.1468 88.1929 61.5351 88.2513 62.8648 88.3389C63.8731 88.412 64.7353 88.7478 65.7582 88.7332C67.2195 88.7332 68.6515 88.9815 70.1567 88.9231C72.1148 88.8501 74.0729 88.9961 76.031 89.0545C77.8138 89.0983 79.6404 89.2443 81.394 88.8793C81.7008 88.8208 82.0223 88.7916 82.3438 88.8501C82.7676 88.9377 83.2644 88.9523 83.6151 88.8501C85.1933 88.3389 86.9322 88.6602 88.5543 88.412C89.6064 88.2513 90.6439 88.1199 91.623 87.8132C91.7399 87.784 91.8568 87.7256 91.9883 87.711C93.3473 87.6234 94.5309 87.2583 95.7146 86.8786C96.5183 86.6158 96.7521 86.7034 96.9128 87.2729C97.1028 87.9447 97.0736 88.631 97.0005 89.3174C96.942 89.8431 96.869 90.4126 97.0882 90.9675C97.2197 91.2888 96.9274 91.6977 96.9567 92.092C97.0151 92.7053 96.9567 93.3187 96.8982 93.932C96.8982 94.078 96.8982 94.1949 97.0151 94.3117C97.1759 94.4723 97.4681 94.6476 96.9274 94.7644C96.8836 94.7644 96.8398 94.8666 96.869 94.8958C97.4389 95.4945 96.9713 96.1517 97.1174 96.765C97.132 96.8527 97.1905 96.8965 97.0297 96.9695C95.6707 97.5536 94.2533 98.0647 92.6459 98.3422C91.9444 98.4736 91.2576 98.459 90.5708 98.4736C89.358 98.4882 88.262 98.8533 87.0491 98.9409C85.5732 99.0577 84.0827 99.1892 82.5922 99.306C80.9702 99.4374 79.3482 99.4374 77.7115 99.4228C77.127 99.4228 76.5279 99.452 75.958 99.4958C74.219 99.6273 72.4947 99.4666 70.7558 99.4666C68.4177 99.4666 66.1089 99.233 63.7708 99.16C62.2365 99.1016 60.7021 98.8825 59.1824 98.8241C57.2973 98.7511 55.6607 98.1962 53.8779 97.9479C53.1034 97.8457 52.4312 97.466 51.5837 97.393C51.3061 97.3784 51.2914 97.2177 51.3207 97.0717C51.5837 95.8596 51.3791 94.6476 51.2476 93.4355C51.1892 92.9682 51.4376 92.5447 51.496 92.1066C51.6129 91.172 51.2914 90.252 51.496 89.332C51.5545 89.0399 51.4522 88.7478 51.4376 88.4704C51.4083 87.7694 51.2914 87.0539 51.5983 86.3675C51.6275 86.3529 51.6568 86.3383 51.686 86.3237L51.7298 86.3091Z" fill="#79CBE8"/>
<path fill-rule="evenodd" clip-rule="evenodd" d="M72.9473 84.2646C70.6531 84.3084 67.8767 83.7681 65.0856 83.4176C64.0189 83.2862 63.0252 82.6875 61.9146 82.5998C60.278 82.4538 58.729 81.8405 57.1508 81.5338C55.1196 81.1395 53.5122 80.1903 52.0363 78.876C51.4226 78.3357 51.6272 77.2258 52.2993 76.8023C52.7231 76.5395 53.03 76.1014 53.3807 75.7363C53.4538 75.6633 53.4976 75.5319 53.5707 75.5173C55.9526 74.8017 58.1007 73.4728 60.5848 73.0201C61.6077 72.8303 62.6599 72.5382 63.6828 72.3629C64.8226 72.1585 66.0062 72.0855 67.1752 71.9541C69.9663 71.662 72.772 71.7058 75.563 71.6036C76.7467 71.5598 77.9303 71.5306 79.0993 71.6328C80.1222 71.735 81.1305 71.9249 82.1534 71.9102C83.3663 71.9102 84.5792 72.1147 85.7774 72.2461C86.6396 72.3337 87.5017 72.728 88.2616 73.1661C88.7 73.4144 89.0799 73.283 89.4745 73.3706C91.6226 73.8817 93.4638 75.0353 95.3927 76.043C96.3133 76.5249 96.4302 77.5033 96.9124 78.2481C97.0586 78.4671 96.7809 78.6424 96.6494 78.7884C95.8165 79.7522 94.7643 80.4094 93.6245 80.9497C90.9504 82.2202 88.1155 82.8919 85.2221 83.3154C82.5188 83.7097 79.7862 84.0164 77.0682 84.25C75.8699 84.3522 74.6863 84.3084 72.9473 84.2646V84.2646ZM86.5227 75.3566C85.8067 75.3128 85.1637 75.3566 84.5207 75.4734C82.4457 75.8093 80.6629 76.8315 78.8217 77.7662C78.5148 77.9268 78.0326 77.9414 78.0764 78.4817C78.1057 78.9782 78.4418 79.2411 78.8655 79.4163C79.9031 79.8544 80.9552 80.2487 82.0658 80.424C84.7399 80.8621 87.4287 81.5338 90.1174 80.424C90.7896 80.1465 91.4765 79.9713 91.7541 79.1681C92.0902 78.1604 91.7249 77.4303 90.9796 76.7439C89.6791 75.5611 88.1009 75.3712 86.5081 75.342L86.5227 75.3566ZM69.5425 81.6944C70.77 81.5776 71.9537 81.49 73.1373 81.344C73.5465 81.3002 74.0433 81.1103 74.0871 80.7014C74.1456 80.2195 73.5611 80.1903 73.2396 80.1465C71.8514 79.942 70.4631 79.7376 69.0603 79.65C66.4008 79.4747 63.7851 78.9344 61.1547 78.5985C60.7602 78.5547 60.278 78.3649 60.1611 77.9998C60.0442 77.6201 60.6141 77.5471 60.8187 77.2696C60.9794 77.0652 61.2424 77.0506 61.4762 76.9776C62.7037 76.6563 63.9312 76.3204 65.1587 76.0138C65.524 75.9115 65.8747 75.7071 65.9185 75.3712C65.9478 75.1084 65.8455 74.6995 65.5094 74.5534C65.261 74.4512 64.9833 74.3928 64.7203 74.3928C62.163 74.3636 59.8104 75.1376 57.5892 76.3204C56.654 76.8169 56.6248 78.4817 57.5308 79.0366C57.7792 79.1827 57.9545 79.3579 58.086 79.5916C58.2468 79.8544 58.466 80.0735 58.7729 80.1027C60.8479 80.2487 62.7622 81.2125 64.881 81.2417C66.4446 81.2709 67.9936 81.5338 69.5279 81.6944H69.5425ZM71.033 75.5027C71.3984 75.4442 71.9244 75.5611 72.4651 75.3858C72.9473 75.2398 73.3857 75.0792 73.3273 74.5096C73.2688 73.9839 72.8743 73.6188 72.3482 73.5896C71.1061 73.5166 69.8786 73.6188 68.6804 73.9255C68.4466 73.9839 68.1251 74.1299 68.3151 74.4074C68.6365 74.9039 68.8996 75.5173 69.6594 75.488C70.0686 75.488 70.4631 75.488 71.0477 75.488L71.033 75.5027Z" fill="white"/>
<path fill-rule="evenodd" clip-rule="evenodd" d="M51.6418 82.1764L51.5249 82.0449C51.6272 81.9135 51.671 82.0449 51.7295 82.0888C51.7003 82.118 51.671 82.1472 51.6418 82.1618V82.1764Z" fill="white"/>
<path fill-rule="evenodd" clip-rule="evenodd" d="M36.9269 66.507C35.1003 66.3026 33.186 66.1274 31.301 65.7477C30.6434 65.6162 30.1465 65.0467 30.2781 64.5064C30.4242 63.8785 30.9649 63.7762 31.4909 63.82C32.9668 63.9661 34.4427 64.1997 35.9186 64.1267C38.0959 64.0245 40.2733 63.8785 42.4067 63.3965C43.152 63.2359 43.8972 63.2943 44.6571 63.2943C45.0809 63.2943 45.1686 63.6594 45.2562 63.9661C45.3878 64.4188 45.1832 64.7839 44.7594 64.9591C44.0872 65.2512 43.415 65.5578 42.7136 65.7477C40.8432 66.2442 38.9289 66.4194 36.9269 66.5216V66.507Z" fill="white"/>
<path fill-rule="evenodd" clip-rule="evenodd" d="M37.4238 76.5249C35.2611 76.5395 33.5514 76.3351 31.8709 75.8677C31.2864 75.7071 30.8042 75.4004 30.7896 74.7141C30.7896 74.203 30.9211 73.8671 31.6225 73.9839C34.4866 74.495 37.3653 74.3198 40.2441 73.9839C40.9455 73.8963 41.6323 73.7941 42.3337 73.7211C42.6406 73.6919 42.9036 73.6334 43.152 73.4436C43.5904 73.1223 44.0434 73.1807 44.3503 73.6334C44.6572 74.1008 44.4818 74.5389 44.058 74.8309C43.5466 75.1814 42.9767 75.4735 42.3776 75.6487C40.624 76.1452 38.8559 76.5687 37.4384 76.5103L37.4238 76.5249Z" fill="white"/>
<path fill-rule="evenodd" clip-rule="evenodd" d="M29.3721 42.6599C29.6789 43.1418 30.1173 42.9374 30.4534 43.0396C31.9732 43.4631 33.5367 43.244 35.0857 43.3609C35.5387 43.3901 35.9917 43.4047 36.4593 43.4485C38.7389 43.6529 40.9016 43.0396 43.0789 42.5869C43.4735 42.4993 43.868 42.4408 44.2626 42.3386C44.6279 42.2364 45.0078 42.0612 45.2124 42.5723C45.417 43.0542 45.2124 43.4485 44.7886 43.6529C43.8534 44.0764 42.962 44.5875 41.9245 44.7482C40.0249 45.0256 38.1252 45.3615 36.1963 45.2301C34.3697 45.1132 32.5431 44.865 30.7311 44.6167C29.9858 44.5145 29.3867 43.5945 29.3867 42.6745L29.3721 42.6599Z" fill="white"/>
<path fill-rule="evenodd" clip-rule="evenodd" d="M36.5614 85.0824C35.2024 85.1554 33.8142 85.0532 32.5137 84.4107C32.0461 84.177 31.5054 83.958 31.6661 83.3008C31.8123 82.6583 32.3822 82.6437 32.9082 82.6875C34.5156 82.8043 36.1377 82.8043 37.7451 82.8919C38.8118 82.9503 39.9224 82.9065 40.9745 82.5414C41.3837 82.41 41.6467 82.41 41.8367 82.8043C42.012 83.184 41.9097 83.5637 41.6175 83.8411C40.9599 84.4399 40.1854 84.8049 39.3087 84.9364C38.4173 85.0678 37.5259 85.1116 36.576 85.0824H36.5614Z" fill="white"/>
<path fill-rule="evenodd" clip-rule="evenodd" d="M86.5081 75.3566C88.101 75.3858 89.6791 75.5757 90.9797 76.7585C91.7249 77.4449 92.0903 78.1605 91.7542 79.1827C91.4765 79.9859 90.7897 80.1611 90.1175 80.4386C87.4288 81.5338 84.74 80.8621 82.0658 80.4386C80.9553 80.2633 79.9031 79.8544 78.8656 79.4309C78.4418 79.2557 78.1204 78.9928 78.0765 78.4963C78.0327 77.956 78.5149 77.9268 78.8218 77.7808C80.6484 76.8462 82.4458 75.8385 84.5208 75.488C85.1638 75.3858 85.8067 75.3274 86.5228 75.3712L86.5081 75.3566ZM83.0595 78.2919C83.7609 78.6132 84.4039 78.4525 84.9738 78.6132C86.1574 78.9636 87.2826 78.9052 88.364 78.2919C88.5247 78.2043 88.8462 78.1897 88.7731 77.883C88.7147 77.6347 88.5101 77.5179 88.2471 77.4741C87.0488 77.2404 85.8798 77.3865 84.7108 77.6055C84.1847 77.7077 83.6294 77.883 83.0595 78.3065V78.2919Z" fill="#236E69"/>
<path fill-rule="evenodd" clip-rule="evenodd" d="M69.5279 81.6945C68.0082 81.5338 66.4446 81.271 64.881 81.2418C62.7622 81.2125 60.8479 80.2341 58.7728 80.1027C58.466 80.0881 58.2322 79.869 58.086 79.5916C57.9399 79.3579 57.7646 79.1827 57.5308 79.0367C56.6248 78.4817 56.6394 76.817 57.5892 76.3205C59.825 75.1376 62.163 74.3782 64.7203 74.3928C64.9833 74.3928 65.261 74.4512 65.5094 74.5535C65.8455 74.6995 65.9478 75.1084 65.9185 75.3712C65.8747 75.7071 65.5386 75.9116 65.1587 76.0138C63.9312 76.3351 62.7037 76.6563 61.4762 76.9776C61.2424 77.036 60.9794 77.0652 60.8186 77.2697C60.6141 77.5471 60.0295 77.6201 60.1611 77.9998C60.278 78.3503 60.7602 78.5401 61.1547 78.5986C63.7997 78.9344 66.4008 79.4894 69.0603 79.65C70.4631 79.7376 71.8514 79.9421 73.2396 80.1465C73.5611 80.1903 74.1456 80.2195 74.0871 80.7014C74.0433 81.1103 73.5465 81.3002 73.1373 81.344C71.9537 81.4754 70.77 81.5776 69.5425 81.6945H69.5279Z" fill="#236E69"/>
<path fill-rule="evenodd" clip-rule="evenodd" d="M71.0187 75.5027C70.4488 75.5027 70.0396 75.5027 69.6305 75.5027C68.8706 75.5319 68.6076 74.9039 68.2861 74.422C68.0961 74.1445 68.4176 73.9985 68.6514 73.9401C69.8497 73.6334 71.0918 73.5312 72.3192 73.6042C72.8599 73.6334 73.2398 73.9985 73.2983 74.5242C73.3567 75.0938 72.9184 75.2544 72.4361 75.4004C71.8955 75.5611 71.3548 75.4442 71.0041 75.5173L71.0187 75.5027Z" fill="#236E69"/>
<path fill-rule="evenodd" clip-rule="evenodd" d="M83.0596 78.2919C83.6295 77.8684 84.1848 77.6931 84.7108 77.5909C85.8798 77.3719 87.0635 77.2404 88.2471 77.4595C88.5248 77.5179 88.7147 77.6201 88.7732 77.8684C88.8463 78.1751 88.5248 78.1897 88.364 78.2773C87.2827 78.8906 86.1429 78.949 84.9739 78.5986C84.404 78.4379 83.7756 78.5985 83.0596 78.2773V78.2919Z" fill="white"/>
</g>
<defs>
<clipPath id="clip0_125_16191">
<rect width="80.4" height="90" fill="white" transform="translate(20.3999 15.6)"/>
</clipPath>
</defs>
</svg>
