<svg width="121" height="121" viewBox="0 0 121 121" fill="none" xmlns="http://www.w3.org/2000/svg">
<g clip-path="url(#clip0_35_10829)">
<path d="M119.311 60.5C119.311 92.9947 92.9733 119.311 60.5 119.311C28.0267 119.311 1.66748 92.9733 1.66748 60.5C1.66748 28.0267 28.0053 1.66748 60.5 1.66748C92.9947 1.66748 119.311 28.0053 119.311 60.5Z" fill="white"/>
<path d="M60.5 121C27.1288 121 0 93.8498 0 60.5C0 27.1502 27.1288 0 60.5 0C93.8712 0 121 27.1288 121 60.5C121 93.8712 93.8712 121 60.5 121ZM60.5 3.35636C28.9887 3.35636 3.35636 28.9887 3.35636 60.5C3.35636 92.0113 28.9887 117.644 60.5 117.644C92.0113 117.644 117.644 92.0113 117.644 60.5C117.644 28.9887 92.0113 3.35636 60.5 3.35636Z" fill="#1E6E67"/>
<path fill-rule="evenodd" clip-rule="evenodd" d="M82.0706 55.6044C84.2084 53.6804 86.3676 51.8633 88.9544 50.7302C90.4295 50.0889 91.8618 50.6447 93.1017 51.6067C95.2182 53.2528 97.3773 54.8135 99.4296 56.5237C101.632 58.3622 103.748 60.2862 105.864 62.2317C106.869 63.1723 107.788 64.2198 108.729 65.246C110.119 66.7852 110.055 68.923 108.644 70.4622C108.066 71.1036 107.425 71.7235 107.019 72.4718C106.249 73.9041 103.748 74.0751 102.465 73.3055C102.059 73.0703 101.696 72.7497 101.268 72.6C100.563 72.3435 99.9427 72.0442 99.0662 72.3221C97.8049 72.7283 96.4581 72.2794 95.2823 71.7235C94.192 71.2104 93.1017 70.6332 92.097 69.9705C91.0067 69.265 90.0019 68.4099 88.933 67.6189C87.8427 66.8066 86.7311 65.9942 85.6194 65.2032C84.2726 64.2626 82.9258 63.3219 81.5789 62.4027C80.3818 61.5903 79.1846 60.7779 77.9874 59.9869C77.1109 59.4311 76.3841 59.538 75.7 60.329C74.5883 61.6117 73.498 62.8944 72.7284 64.455C72.194 65.5453 71.1892 66.4431 70.5265 67.4693C69.0086 69.8209 67.4694 72.1725 66.1012 74.6309C65.5026 75.7212 64.904 76.726 63.9206 77.4742C63.8565 77.517 63.8351 77.6239 63.7924 77.688C63.0655 78.9066 62.2318 79.3341 61.0132 78.7997C60.5215 78.5859 60.0726 77.9018 59.9016 77.3246C59.3457 75.3364 59.0892 73.2627 58.4051 71.3387C57.3576 68.3672 56.7804 65.2887 56.1604 62.2103C55.7542 60.2007 55.5618 58.1271 54.9205 56.1817C54.5143 54.9631 54.9205 53.9583 55.0273 52.8894C55.0701 52.4619 55.6259 52.0771 55.968 51.7136C56.8017 50.8585 57.6355 50.0461 58.4692 49.191C58.6616 48.9986 58.8113 48.7421 59.0037 48.5497C60.0512 47.609 61.0346 46.4332 62.3814 46.0484C63.4076 45.7491 64.6902 45.7491 65.695 46.0912C67.448 46.6898 69.1369 47.5877 70.7402 48.5283C71.7664 49.1483 72.6429 50.0461 73.5622 50.8371C74.0538 51.2433 74.5028 51.7136 74.9731 52.1198C76.6834 53.5521 78.3936 54.9631 80.1252 56.3954C81.2583 57.3361 82.4341 58.2339 83.5457 59.196C84.5291 60.0511 85.4697 60.9917 86.4531 61.8682C87.2441 62.5737 88.0351 63.3006 88.8902 63.8991C89.1254 64.0702 89.6171 63.8991 90.0019 63.8778C89.9805 63.5785 90.0447 63.215 89.895 63.0013C89.4461 62.3385 88.9758 61.6544 88.3985 61.1414C86.5387 59.4739 84.6146 57.8919 82.7334 56.2672C82.4982 56.0748 82.3272 55.8182 82.1134 55.5617L82.0706 55.6044Z" fill="#A0CD64"/>
<path fill-rule="evenodd" clip-rule="evenodd" d="M38.3736 95.0898C37.3475 95.3036 36.5565 95.496 35.7655 95.6242C35.0172 95.7525 34.6966 95.496 34.5897 94.7691C34.4614 93.9567 34.3118 93.1444 34.1194 92.3534C33.8842 91.3914 34.0339 90.9852 34.9531 90.7286C35.9579 90.4507 36.984 90.2797 38.0529 90.0659C38.395 91.2845 38.6943 92.3961 38.9936 93.5078C39.0577 93.5078 39.1005 93.5078 39.1646 93.5078C39.2501 93.2726 39.357 93.0589 39.4425 92.8237C40.0411 91.37 40.6397 89.8949 41.2383 88.4412C41.3024 88.2915 41.3665 88.1633 41.4093 88.0136C41.7727 86.7523 42.1362 86.6027 43.3975 86.4103C44.8939 86.1965 46.1552 86.8165 47.4807 87.2226C49.4047 87.8212 51.3287 88.4198 53.2528 89.0184C54.172 89.2963 55.0913 89.5528 55.9464 89.8094C55.7326 88.5908 55.5402 87.4364 55.3051 86.3034C55.1127 85.4483 54.8134 84.6145 54.5996 83.7594C54.343 82.7332 54.172 81.6857 53.9369 80.6382C53.8086 80.1037 53.6162 79.5907 53.4879 79.0776C53.21 77.9446 52.9748 76.8115 52.7183 75.6785C52.59 75.0799 52.5045 74.4599 52.3763 73.8613C51.9273 71.8518 51.4784 69.8422 50.9653 67.8327C50.2598 65.2032 49.4902 62.5951 48.7634 59.9656C48.293 58.2981 47.8441 56.6306 47.4165 54.9417C47.2669 54.3218 47.0104 54.1721 46.369 54.3645C45.2787 54.6852 44.1457 54.8348 43.0554 55.0914C42.072 55.3265 41.11 55.6044 40.148 55.8824C38.6301 56.2672 37.1123 56.652 35.6158 57.0582C34.1194 57.443 32.6443 57.8705 31.1478 58.2339C28.7962 58.8112 26.4233 59.3242 24.0717 59.9442C21.3994 60.6283 18.7485 61.3979 16.0976 62.1675C14.986 62.4882 14.7081 63.0226 14.9432 64.1343C15.2639 65.6094 15.5204 67.0845 15.8411 68.5596C15.9694 69.1581 16.2473 69.714 16.4183 70.3126C16.5252 70.6974 16.5252 71.1249 16.6107 71.5311C16.8459 72.6 17.1238 73.6689 17.3803 74.7378C17.8079 76.555 18.2568 78.3721 18.6416 80.1892C19.1547 82.5836 19.6036 84.9779 20.1167 87.3509C20.3733 88.5908 20.6939 89.8094 20.9932 91.0493C21.2284 92.0327 20.865 92.4817 19.8388 92.4603C19.5395 92.4603 19.2616 92.4175 18.9837 92.4175C18.3637 92.4175 18.0858 92.1396 17.9789 91.4769C17.7224 89.959 17.3376 88.4626 17.0597 86.9661C16.6748 84.9566 16.3114 82.9256 15.9266 80.8947C15.5846 79.1845 15.2211 77.4956 14.8577 75.8067C14.8577 75.6998 14.7936 75.593 14.7722 75.5074C14.2805 73.1986 13.746 70.8684 13.2971 68.5596C13.0192 67.1272 12.8482 65.6735 12.5916 64.2412C12.4847 63.664 12.3351 63.0654 12.0786 62.5309C11.7579 61.8682 12.0786 61.5475 12.5703 61.2696C13.8102 60.6069 15.157 60.1794 16.5252 59.8801C18.043 59.538 19.5395 59.0891 21.0574 58.7043C23.0455 58.1912 25.0337 57.6995 27.0218 57.2078C28.668 56.7802 30.2927 56.3527 31.9388 55.9465C33.649 55.4975 35.3593 55.07 37.0695 54.6424C38.7798 54.2149 40.5114 53.8301 42.2217 53.3811C43.6754 53.0177 45.1291 52.526 46.5828 52.2267C47.4379 52.0557 48.3358 52.1412 49.2123 52.2267C49.4475 52.2481 49.7681 52.6543 49.8323 52.9322C50.5591 55.5617 51.2218 58.1912 51.9273 60.7993C52.248 61.9537 52.6328 63.0868 52.9535 64.2412C53.5307 66.379 54.0437 68.5168 54.621 70.6546C54.8989 71.6808 55.2623 72.6855 55.5188 73.7117C55.8823 75.2082 56.1174 76.726 56.4809 78.2011C57.0153 80.4885 57.6566 82.7546 58.1911 85.0635C58.5759 86.7523 58.8752 88.5053 59.1745 90.2156C59.2814 90.7286 59.5165 90.9211 60.0724 91.0921C61.4833 91.4769 62.8729 92.0113 64.2625 92.5458C65.0535 92.8451 65.8658 93.1444 66.5927 93.5933C67.5761 94.1919 67.9395 95.1967 67.7471 96.3083C67.5547 97.4414 67.3195 98.553 66.9775 99.6433C66.4644 101.14 65.6093 102.572 65.2886 104.09C64.8397 106.249 63.6211 108.088 63.0653 110.183C62.8943 110.845 62.5522 111.487 62.2316 112.107C61.8254 112.876 60.4144 113.325 59.6448 112.919C59.4738 112.834 59.3455 112.427 59.4097 112.214C59.9441 110.247 60.4786 108.28 61.0985 106.335C61.7826 104.218 62.595 102.123 63.3005 100.007C63.5784 99.1516 63.7066 98.2537 63.9204 97.3986C64.0487 96.8855 64.2625 96.3938 64.3694 95.8594C64.4763 95.3036 64.1556 94.9829 63.6639 94.7905C61.3123 93.9781 58.9821 93.123 56.6091 92.3748C55.6044 92.0541 54.5568 91.9472 53.5521 91.6693C53.21 91.5838 52.9107 91.2631 52.5687 91.1562C50.5805 90.5362 48.571 89.959 46.6042 89.3177C46.0911 89.168 45.6208 88.8688 45.1077 88.6763C44.7229 88.5053 44.445 88.5481 44.2526 89.0184C43.825 90.1301 43.3547 91.2203 42.9271 92.3106C42.2858 93.9995 41.6231 95.667 41.0672 97.3772C40.5756 98.8309 40.2549 100.327 39.8059 101.781C39.5066 102.722 39.1218 103.641 38.7798 104.582C38.6729 104.838 38.4377 105.073 38.395 105.33C38.2881 106.078 37.7536 106.185 37.1978 106.142C36.471 106.099 35.7441 105.458 35.8082 104.881C35.9151 103.812 36.1075 102.765 36.2786 101.717C36.3854 101.161 36.5778 100.627 36.7061 100.071C36.8771 99.3013 37.0482 98.5958 37.5826 97.8903C38.1171 97.1848 38.1384 96.0945 38.4377 95.047L38.3736 95.0898Z" fill="#26716B"/>
<path opacity="0.7" fill-rule="evenodd" clip-rule="evenodd" d="M103.064 89.8735C103.021 90.0232 103.021 90.0659 103 90.0873C101.503 91.0921 100.05 92.1182 98.5319 93.0802C97.5912 93.6574 96.5865 94.1277 95.6245 94.6408C94.1066 95.4532 92.5674 96.2228 91.0923 97.0993C89.4462 98.0827 87.8642 99.173 86.2609 100.199C85.3416 100.798 84.401 101.396 83.4817 101.995C83.2252 102.166 82.99 102.358 82.7548 102.551C81.8783 103.256 81.0018 103 79.9971 102.551C80.0826 102.23 80.0826 101.867 80.2536 101.567C80.9591 100.242 81.6646 98.8951 82.4769 97.6124C83.8451 95.4959 85.2561 93.4223 86.7098 91.37C87.4794 90.3011 88.3559 89.2322 89.8096 89.1467C91.4771 89.0398 93.166 89.0611 94.8548 89.0184C96.4796 88.9542 98.1043 88.8687 99.7077 88.8474C100.456 88.8474 101.226 88.7832 101.931 88.9756C102.38 89.0825 102.722 89.617 103.043 89.8949L103.064 89.8735Z" fill="#E06765"/>
<path fill-rule="evenodd" clip-rule="evenodd" d="M94.8337 73.6689C95.7315 73.1558 96.608 73.1131 97.5273 73.562C100.477 74.973 100.435 76.9398 99.3658 79.2914C98.639 80.8947 97.7838 82.4339 96.9715 83.9945C96.6294 84.6573 96.2874 85.32 95.9453 86.0041C95.475 86.9233 94.1282 87.6929 93.102 87.6074C92.2042 87.5219 91.7552 86.7523 92.1614 85.9613C93.2731 83.8449 94.5558 81.7926 95.5178 79.6334C95.9453 78.6714 96.7577 77.7308 96.5439 76.5336C96.5012 76.2557 96.2874 75.9564 96.0736 75.764C95.4323 75.2295 94.7695 74.7378 94.855 73.6903L94.8337 73.6689Z" fill="#26716B"/>
<path fill-rule="evenodd" clip-rule="evenodd" d="M48.2076 79.1845C48.3786 79.3769 48.5924 79.5265 48.6565 79.6975C48.9772 80.852 49.2765 82.0278 49.5758 83.1822C49.7041 83.6739 49.5544 83.9945 49.02 84.1014C48.058 84.3152 47.0746 84.5504 46.1125 84.7428C45.5567 84.8497 45.2147 84.5931 45.0864 84.0373C44.8726 83.0967 44.5733 82.156 44.4664 81.194C44.4023 80.7237 44.3809 80.0823 45.1505 79.9113C46.1339 79.6975 47.1173 79.441 48.229 79.1631L48.2076 79.1845Z" fill="#26716B"/>
<path fill-rule="evenodd" clip-rule="evenodd" d="M47.3098 75.2723C47.1388 75.4219 46.9892 75.6998 46.7754 75.7426C45.7706 75.9991 44.7445 76.2557 43.7183 76.4267C43.4618 76.4694 42.9273 76.2343 42.8846 76.0419C42.5853 74.7806 42.3715 73.5193 42.2005 72.2366C42.1791 72.0656 42.4356 71.7449 42.6067 71.7021C43.6756 71.4242 44.7445 71.1891 45.8134 70.9753C45.9416 70.9753 46.2196 71.0822 46.2409 71.1891C46.6044 72.4931 46.9464 73.8186 47.3098 75.2723Z" fill="#26716B"/>
<path fill-rule="evenodd" clip-rule="evenodd" d="M43.4618 62.3599C43.6328 62.5523 43.868 62.6806 43.9108 62.873C44.2314 64.0274 44.5307 65.2032 44.8086 66.3576C44.9369 66.8493 44.8086 67.17 44.2742 67.2982C43.3122 67.512 42.3288 67.7472 41.3668 67.9396C40.8109 68.0465 40.4689 67.7899 40.3406 67.2341C40.1268 66.2935 39.8275 65.3528 39.7206 64.3908C39.6565 63.9205 39.6351 63.2792 40.3834 63.1081C41.3668 62.873 42.3502 62.6164 43.4618 62.3599Z" fill="#26716B"/>
<path fill-rule="evenodd" clip-rule="evenodd" d="M37.4759 63.9846C37.8393 65.4383 38.16 66.721 38.4593 67.9823C38.5875 68.5168 38.4593 68.8802 37.8179 69.0085C36.9628 69.1795 36.129 69.3933 35.2953 69.5643C34.4402 69.7353 34.1195 69.4574 33.9699 68.6023C33.8202 67.7899 33.6278 66.9776 33.414 66.1652C33.2644 65.588 33.5423 64.9039 34.1195 64.7542C35.2098 64.4763 36.3001 64.2412 37.4759 63.9633V63.9846Z" fill="#26716B"/>
<path fill-rule="evenodd" clip-rule="evenodd" d="M39.8274 72.4717C40.1908 73.9468 40.5115 75.2081 40.8108 76.4908C40.9391 77.0466 40.7681 77.3887 40.1695 77.4956C39.3144 77.6666 38.4806 77.9018 37.6469 78.0514C36.7917 78.2224 36.4711 77.9231 36.3214 77.068C36.1718 76.2556 35.958 75.4433 35.7656 74.6309C35.6159 74.0537 35.8939 73.391 36.4711 73.22C37.54 72.942 38.6516 72.7069 39.8274 72.4503V72.4717Z" fill="#26716B"/>
<path fill-rule="evenodd" clip-rule="evenodd" d="M42.2005 80.8306C42.5639 82.327 42.9059 83.6739 43.2052 85.0207C43.2907 85.4269 43.1197 85.7261 42.6708 85.8117C41.7515 86.0041 40.8323 86.2606 39.913 86.4316C39.1434 86.5813 38.8227 86.282 38.6944 85.5124C38.5448 84.6786 38.331 83.8235 38.1172 83.0111C37.9676 82.4339 38.2669 81.7712 38.8655 81.6216C39.9344 81.3436 41.046 81.1085 42.2005 80.8519V80.8306Z" fill="#26716B"/>
<path fill-rule="evenodd" clip-rule="evenodd" d="M24.3497 67.0417C24.5421 67.2341 24.8414 67.3838 24.9056 67.5975C25.2262 68.7306 25.5042 69.8636 25.8034 71.018C25.9317 71.5311 25.8034 71.8732 25.2476 72.0014C24.3284 72.1938 23.4091 72.429 22.4898 72.6214C21.8057 72.7497 21.4209 72.4931 21.314 71.7449C21.1858 70.8684 20.8651 70.0133 20.7368 69.1368C20.6513 68.6237 20.6299 67.9824 21.4209 67.7899C22.3616 67.5762 23.2808 67.3196 24.3497 67.0417Z" fill="#26716B"/>
<path fill-rule="evenodd" clip-rule="evenodd" d="M29.1383 83.8663C29.3307 84.0587 29.5659 84.2083 29.6086 84.4007C29.9293 85.5551 30.2072 86.7096 30.5065 87.8854C30.6562 88.4412 30.4424 88.7191 29.9079 88.8474C29.01 89.0398 28.1335 89.2749 27.2357 89.446C26.4447 89.5956 26.1881 89.3391 26.0171 88.5267C25.8461 87.693 25.5682 86.8378 25.4399 86.0041C25.3544 85.4483 25.3116 84.8283 26.0812 84.6573C27.0646 84.4007 28.048 84.1656 29.1169 83.8877L29.1383 83.8663Z" fill="#26716B"/>
<path fill-rule="evenodd" clip-rule="evenodd" d="M26.7014 75.5288C26.8939 75.7212 27.1931 75.8709 27.2573 76.0846C27.578 77.2177 27.8559 78.3507 28.1552 79.5051C28.2834 80.0182 28.1552 80.3603 27.5993 80.4885C26.6801 80.6809 25.7608 80.9161 24.8416 81.1085C24.1575 81.2368 23.7726 80.9802 23.6658 80.232C23.5375 79.3555 23.2168 78.5004 23.0886 77.6239C23.0244 77.0894 22.9817 76.4481 23.7727 76.277C24.7133 76.0633 25.6325 75.8067 26.7014 75.5288Z" fill="#26716B"/>
<path fill-rule="evenodd" clip-rule="evenodd" d="M31.0839 91.9686C31.1908 92.0755 31.4473 92.2465 31.5115 92.4816C31.8321 93.5933 32.0887 94.705 32.388 95.8166C32.5376 96.3725 32.4093 96.7359 31.8108 96.8428C30.9129 97.0352 30.0364 97.2703 29.1385 97.4414C28.3475 97.591 28.091 97.3558 27.9199 96.5221C27.7489 95.6884 27.4924 94.8546 27.3427 93.9995C27.2572 93.465 27.2145 92.8451 27.9841 92.6313C28.433 92.503 28.882 92.332 29.3309 92.2251C29.844 92.1182 30.357 92.0755 31.0839 91.9686Z" fill="#26716B"/>
<path fill-rule="evenodd" clip-rule="evenodd" d="M36.9844 86.6026C36.792 86.7737 36.621 87.0516 36.3859 87.1157C35.4025 87.3723 34.3977 87.6074 33.3929 87.7785C32.8157 87.8853 32.4737 87.6074 32.3668 86.9875C32.2171 86.111 32.0247 85.2345 31.8109 84.3793C31.6399 83.6952 31.8751 83.0966 32.5592 82.9256C33.5212 82.6691 34.5046 82.4981 35.4666 82.327C35.5949 82.3057 35.8728 82.4125 35.8942 82.5194C36.2576 83.8235 36.5996 85.1489 36.9844 86.6026Z" fill="#26716B"/>
<path fill-rule="evenodd" clip-rule="evenodd" d="M32.2598 69.7567C32.0673 69.9278 31.8963 70.2057 31.6612 70.2698C30.6778 70.5263 29.673 70.7615 28.6896 70.9325C28.1124 71.0394 27.7704 70.7401 27.6635 70.1415C27.5138 69.265 27.3 68.3885 27.1076 67.5334C26.9366 66.8493 27.1931 66.2507 27.8559 66.0797C28.8179 65.8232 29.7799 65.6521 30.7633 65.4811C30.8916 65.4597 31.1695 65.5666 31.1908 65.6735C31.5543 66.9776 31.8963 68.303 32.2811 69.7567H32.2598Z" fill="#26716B"/>
<path fill-rule="evenodd" clip-rule="evenodd" d="M33.4781 73.8613C33.8415 75.2937 34.1835 76.555 34.4828 77.8377C34.6111 78.3721 34.4614 78.7355 33.8629 78.8638C32.965 79.0348 32.0885 79.27 31.1906 79.441C30.4424 79.5693 30.1431 79.3127 30.0148 78.5859C29.8865 77.7735 29.7369 76.9825 29.5445 76.1915C29.3093 75.2295 29.459 74.802 30.3568 74.5668C31.3616 74.3103 32.3878 74.1392 33.4781 73.9041V73.8613Z" fill="#26716B"/>
<path fill-rule="evenodd" clip-rule="evenodd" d="M49.7254 47.2884C51.1577 47.3739 52.3335 47.9083 53.4024 48.7421C53.8941 49.1055 54.3431 49.5544 54.7492 50.0248C54.8989 50.1958 54.9416 50.602 54.8347 50.773C54.7492 50.9226 54.3644 50.9013 54.1293 50.944C53.1886 51.115 52.7397 50.3454 52.1411 49.8965C51.7563 49.6186 51.4143 49.2765 50.9867 49.0841C50.3881 48.7848 49.704 48.6138 49.084 48.3359C48.8489 48.229 48.6992 47.9725 48.5068 47.7801C48.6992 47.6518 48.8916 47.4808 49.1054 47.3952C49.3192 47.3097 49.5544 47.3097 49.7468 47.2884H49.7254Z" fill="#26716B"/>
<path fill-rule="evenodd" clip-rule="evenodd" d="M101.867 83.118C102.829 82.5194 103.577 82.4553 104.283 82.8615C105.394 83.5242 106.613 84.1442 107.511 85.042C108.58 86.1109 109.478 87.415 109.713 88.997C109.756 89.2749 109.606 89.617 109.52 89.9163C109.221 89.8307 108.815 89.8521 108.601 89.6597C108.109 89.2108 107.746 88.6122 107.254 88.1419C106.014 86.9661 104.753 85.833 103.492 84.6786C102.979 84.2083 102.466 83.6952 101.846 83.118H101.867Z" fill="#26716B"/>
<path fill-rule="evenodd" clip-rule="evenodd" d="M10.8814 55.6899C11.1593 55.9251 11.4372 56.0747 11.6083 56.2885C11.8434 56.6092 11.7152 56.9085 11.4159 57.1437C10.4111 57.9346 10.0263 59.0891 9.66287 60.2435C9.57735 60.5214 9.49184 60.7993 9.36357 61.0558C9.25668 61.2269 9.02152 61.462 8.89325 61.4406C8.67947 61.3979 8.3588 61.2269 8.29467 61.0345C8.14502 60.6283 8.05951 60.2007 8.08089 59.7732C8.1664 58.405 8.6581 57.1864 9.70562 56.2885C9.98354 56.032 10.4111 55.9251 10.86 55.6899H10.8814Z" fill="#26716B"/>
<path fill-rule="evenodd" clip-rule="evenodd" d="M78.6928 89.5528C79.783 90.2369 80.7878 90.8569 81.7712 91.4769C82.2415 91.7762 82.3912 92.1396 81.985 92.6527C81.536 93.2299 81.1726 93.8498 80.7664 94.4484C80.3602 95.0256 79.8899 95.1753 79.2913 94.7049C78.6928 94.2346 78.0087 93.8712 77.3887 93.4223C76.8542 93.0588 76.5763 92.6099 77.0466 91.9472C77.6025 91.1989 78.1155 90.4079 78.6928 89.5528Z" fill="#26716B"/>
<path fill-rule="evenodd" clip-rule="evenodd" d="M89.3178 74.0751C90.4081 74.7592 91.3915 75.3578 92.3535 75.9778C92.8452 76.2984 93.0376 76.6618 92.5887 77.2177C92.1397 77.7949 91.7763 78.4149 91.3488 79.0134C90.9639 79.5693 90.515 79.6762 89.9378 79.2486C89.3178 78.7997 88.6765 78.3935 88.0352 77.9659C87.4579 77.5811 87.18 77.1322 87.6717 76.4481C88.2276 75.6998 88.7406 74.9088 89.3178 74.0751Z" fill="#26716B"/>
<path fill-rule="evenodd" clip-rule="evenodd" d="M68.8163 76.2984C69.9707 77.0466 70.9541 77.6666 71.9375 78.3079C72.3865 78.6072 72.4506 78.9707 72.0872 79.441C71.6382 80.0182 71.2748 80.6382 70.8472 81.2367C70.4411 81.7926 70.0135 82.0064 69.3935 81.4719C68.8377 81.0016 68.1536 80.6809 67.555 80.2534C67.0633 79.9113 66.6571 79.4837 67.1061 78.821C67.6619 78.0086 68.1964 77.2177 68.8163 76.2984Z" fill="#26716B"/>
<path fill-rule="evenodd" clip-rule="evenodd" d="M82.3272 84.5076C83.4816 85.2558 84.5291 85.9186 85.5553 86.6454C85.7049 86.7523 85.7904 87.244 85.6835 87.4364C85.2132 88.2274 84.7001 88.997 84.1229 89.7239C83.7809 90.1514 83.3533 90.1514 82.883 89.7666C82.3058 89.2749 81.6217 88.8687 81.0231 88.3984C80.5314 88.0136 80.168 87.586 80.6169 86.9447C81.1728 86.1537 81.7286 85.3627 82.3272 84.529V84.5076Z" fill="#26716B"/>
<path fill-rule="evenodd" clip-rule="evenodd" d="M72.3222 71.2318C73.3911 71.8732 74.289 72.4076 75.1868 72.9848C76.0633 73.5193 76.0633 73.6262 75.5075 74.4813C75.1227 75.0585 74.7379 75.6357 74.3103 76.1915C73.9469 76.6832 73.498 76.8115 72.9421 76.4053C72.3435 75.9564 71.7236 75.5502 71.125 75.1012C70.5264 74.6523 70.2057 74.1606 70.7616 73.4338C71.296 72.7283 71.7877 71.98 72.3222 71.2318Z" fill="#26716B"/>
<path fill-rule="evenodd" clip-rule="evenodd" d="M87.1372 84.9352C86.7737 84.7 86.4317 84.529 86.1324 84.3152C85.4483 83.8235 84.7856 83.3532 84.1656 82.7974C84.016 82.6691 83.9946 82.1988 84.1015 82.0064C84.5718 81.2154 85.1062 80.4671 85.6621 79.7403C85.7476 79.612 86.1324 79.5693 86.282 79.6548C87.2013 80.232 88.1206 80.8306 88.9971 81.4933C89.1895 81.6429 89.3177 82.1346 89.2108 82.3057C88.7619 83.0753 88.2274 83.8021 87.693 84.529C87.5861 84.7 87.3509 84.7855 87.1372 84.9352Z" fill="#26716B"/>
<path fill-rule="evenodd" clip-rule="evenodd" d="M75.5715 80.5313C76.7259 81.2154 77.6879 81.814 78.6713 82.3912C79.1844 82.6905 79.3126 83.0325 78.9278 83.5456C78.4789 84.1442 78.0941 84.8069 77.6451 85.4055C77.2176 85.9827 76.7686 86.2179 76.1273 85.6193C75.4646 85.0207 74.7163 84.4862 73.9895 83.9304C73.6474 83.6525 73.6261 83.3532 73.8826 82.9898C74.4384 82.1988 74.9729 81.3864 75.5715 80.5313Z" fill="#26716B"/>
<path fill-rule="evenodd" clip-rule="evenodd" d="M75.8708 65.8232C77.0252 66.5714 78.0514 67.2127 79.0134 67.9182C79.2058 68.0465 79.3341 68.5595 79.2272 68.7306C78.7569 69.5216 78.2224 70.2912 77.6666 71.018C77.3459 71.4456 76.9397 71.4456 76.4908 71.0822C75.8708 70.5905 75.1867 70.1415 74.5454 69.6712C74.0109 69.2864 73.733 68.8161 74.182 68.1747C74.7164 67.3838 75.2722 66.6355 75.8708 65.7804V65.8232Z" fill="#26716B"/>
<path fill-rule="evenodd" clip-rule="evenodd" d="M82.6477 69.9491C83.8235 70.7401 84.8711 71.4242 85.8758 72.1724C86.0255 72.3007 86.111 72.771 86.0041 72.9421C85.5765 73.6903 85.0635 74.3958 84.5504 75.1012C84.2297 75.5502 83.8235 75.5502 83.3746 75.2723C82.6691 74.8233 81.9209 74.3958 81.2582 73.8827C80.852 73.562 80.4886 73.1558 80.9161 72.5359C81.4719 71.7449 81.985 70.9325 82.6264 69.9491H82.6477Z" fill="#26716B"/>
<path fill-rule="evenodd" clip-rule="evenodd" d="M72.0445 85.4483C73.1989 86.2393 74.1823 86.902 75.1657 87.5647C75.5505 87.8212 75.636 88.1419 75.3367 88.5481C74.8664 89.2108 74.4174 89.8949 73.9471 90.5362C73.6051 91.0279 73.1775 91.0279 72.7072 90.7073C72.0231 90.2583 71.3176 89.8308 70.6549 89.3604C70.2059 89.0184 69.8639 88.5908 70.2915 87.9709C70.8473 87.1799 71.3817 86.3675 72.0017 85.4269L72.0445 85.4483Z" fill="#26716B"/>
<path fill-rule="evenodd" clip-rule="evenodd" d="M79.1419 75.3364C80.2749 76.0633 81.2583 76.7046 82.2417 77.3246C82.6265 77.5811 82.7761 77.9018 82.4768 78.3079C81.9851 79.0134 81.5148 79.7617 81.0017 80.4458C80.7025 80.8519 80.2963 80.9375 79.8473 80.5954C79.206 80.1251 78.5005 79.6975 77.8805 79.2058C77.3675 78.821 77.0254 78.3293 77.4957 77.6666C78.0516 76.897 78.586 76.1274 79.1632 75.3364H79.1419Z" fill="#26716B"/>
<path fill-rule="evenodd" clip-rule="evenodd" d="M103.94 97.2276C103.577 96.4152 103.106 95.6242 102.871 94.7691C102.679 94.1277 102.7 93.4009 102.743 92.7168C102.743 92.503 103.063 92.1609 103.299 92.1182C103.534 92.0754 103.94 92.2465 104.047 92.4389C104.496 93.2512 104.859 94.085 105.244 94.9187C105.415 95.3035 105.65 95.667 105.736 96.0731C105.821 96.3938 105.885 96.8855 105.736 97.0352C105.501 97.2703 105.052 97.3131 104.667 97.3558C104.453 97.3772 104.218 97.2703 103.961 97.2276H103.94Z" fill="#26716B"/>
<path fill-rule="evenodd" clip-rule="evenodd" d="M83.9089 109.007C83.46 108.237 82.9469 107.489 82.6048 106.655C82.3483 106.035 82.3056 105.308 82.2842 104.624C82.2842 104.389 82.5621 104.047 82.7759 103.983C82.9897 103.919 83.4172 104.047 83.5455 104.24C84.0586 104.988 84.5075 105.8 84.9564 106.613C85.1702 106.976 85.4268 107.318 85.555 107.703C85.6619 108.002 85.7902 108.494 85.6192 108.665C85.4054 108.921 84.9564 109.007 84.593 109.092C84.3792 109.135 84.1227 109.05 83.8875 109.028L83.9089 109.007Z" fill="#26716B"/>
<path fill-rule="evenodd" clip-rule="evenodd" d="M104.004 52.4405C105.757 52.2267 108.216 53.9583 108.921 55.3693C109.049 55.6258 108.964 55.9892 108.964 56.3099C108.558 56.3099 108.087 56.4168 107.767 56.2458C106.463 55.5617 105.201 54.7707 103.94 54.0224C103.705 53.8942 103.448 53.83 103.235 53.659C103.021 53.488 102.871 53.2315 102.7 53.0177C102.935 52.8253 103.171 52.5901 103.427 52.4832C103.598 52.3977 103.855 52.4832 103.983 52.4832L104.004 52.4405Z" fill="#26716B"/>
<path fill-rule="evenodd" clip-rule="evenodd" d="M56.5879 97.2703C57.5072 97.6338 58.3409 97.9117 59.1319 98.2965C59.2815 98.382 59.3671 98.8309 59.3029 99.0661C59.0678 99.9212 58.7471 100.755 58.4478 101.589C58.2768 102.038 58.0416 102.273 57.5072 102.038C56.8444 101.738 56.1176 101.567 55.4763 101.247C55.2838 101.161 55.0487 100.734 55.1128 100.541C55.3907 99.6005 55.7542 98.7027 56.1176 97.7834C56.2031 97.5696 56.4169 97.4414 56.5879 97.249V97.2703Z" fill="#26716B"/>
<path fill-rule="evenodd" clip-rule="evenodd" d="M51.7781 95.4318C52.676 95.7739 53.467 96.009 54.1724 96.3725C54.3648 96.458 54.5145 96.9283 54.4503 97.1635C54.2152 98.0186 53.8945 98.8309 53.5952 99.6861C53.4242 100.178 53.1463 100.413 52.5905 100.156C51.9491 99.8785 51.265 99.7074 50.6237 99.3868C50.4099 99.3013 50.1747 98.8951 50.2175 98.7027C50.5168 97.7407 50.8588 96.8214 51.2436 95.8808C51.3291 95.667 51.6071 95.5387 51.7353 95.4318H51.7781Z" fill="#26716B"/>
<path fill-rule="evenodd" clip-rule="evenodd" d="M49.8536 94.9615C49.4474 96.0945 49.084 97.1207 48.6778 98.1468C48.6351 98.2537 48.2716 98.3606 48.1006 98.2965C47.331 98.0613 46.5614 97.7834 45.8345 97.4627C45.6635 97.3772 45.4711 96.971 45.5139 96.8C45.7918 95.8808 46.1766 95.0043 46.4759 94.1064C46.6469 93.5719 46.9889 93.4864 47.4379 93.6574C48.0792 93.8926 48.7206 94.1064 49.3191 94.4057C49.5329 94.5126 49.6826 94.7905 49.8322 94.9615H49.8536Z" fill="#26716B"/>
<path fill-rule="evenodd" clip-rule="evenodd" d="M52.4408 44.103C53.7663 44.2099 55.0276 44.6588 55.8827 45.8988C56.0537 46.1553 56.0323 46.5615 56.0965 46.8822C55.7758 46.9463 55.4551 47.0104 55.1345 47.0318C54.5359 47.0746 54.1511 46.7539 53.7235 46.3263C53.3601 45.9415 52.8043 45.7491 52.3339 45.4712C52.2912 45.4498 52.227 45.4498 52.1629 45.4285C51.7354 45.2574 51.2009 45.1505 51.265 44.5733C51.3505 43.9961 51.9064 44.1244 52.4195 44.0816L52.4408 44.103Z" fill="#26716B"/>
<path fill-rule="evenodd" clip-rule="evenodd" d="M43.5473 104.304C43.8466 103.149 44.0817 102.166 44.381 101.204C44.4451 101.033 44.8941 100.84 45.0865 100.905C45.792 101.14 46.4974 101.439 47.1815 101.76C47.6518 101.973 47.6305 102.38 47.4808 102.829C47.267 103.449 47.0533 104.111 46.9036 104.753C46.7112 105.651 46.2409 105.95 45.4071 105.629C45.0437 105.48 44.6589 105.373 44.3382 105.137C44.0176 104.902 43.7824 104.56 43.5259 104.304H43.5473Z" fill="#26716B"/>
<path fill-rule="evenodd" clip-rule="evenodd" d="M49.5543 102.593C50.4522 103 51.2859 103.32 52.0556 103.748C52.2266 103.855 52.2693 104.368 52.2266 104.646C52.0769 105.351 51.8204 106.035 51.6494 106.719C51.457 107.51 50.9653 107.81 50.217 107.489C48.464 106.719 48.0792 107.019 48.6564 104.689C48.7847 104.154 48.913 103.62 49.1054 103.107C49.1695 102.914 49.4047 102.786 49.5971 102.572L49.5543 102.593Z" fill="#26716B"/>
<path fill-rule="evenodd" clip-rule="evenodd" d="M53.1463 108.066C53.4242 106.933 53.6593 106.014 53.8731 105.073C54.0014 104.539 54.3648 104.517 54.771 104.667C55.4124 104.902 56.0323 105.18 56.6523 105.458C57.2081 105.693 57.2722 106.078 57.0585 106.613C56.8233 107.233 56.6309 107.895 56.4813 108.537C56.2889 109.413 55.7972 109.712 54.9634 109.37C54.6 109.221 54.2152 109.114 53.8945 108.9C53.5738 108.665 53.3387 108.323 53.1035 108.066H53.1463Z" fill="#26716B"/>
<path fill-rule="evenodd" clip-rule="evenodd" d="M9.55613 52.1412C9.72716 52.1412 9.94094 52.077 10.0478 52.1412C10.2402 52.2908 10.4754 52.5046 10.5181 52.7184C10.5395 52.868 10.3471 53.1887 10.1761 53.2528C9.19271 53.6376 8.50861 54.3645 7.88864 55.1555C7.739 55.3265 7.739 55.6258 7.58935 55.7968C7.4397 55.9892 7.20454 56.1816 6.99076 56.203C6.84112 56.2244 6.58458 56.0106 6.49907 55.8396C6.0715 54.9631 6.58458 53.2742 7.46108 52.8253C8.1238 52.4832 8.82928 52.2267 9.51338 51.9274C9.53475 51.9915 9.55613 52.0343 9.57751 52.0984L9.55613 52.1412Z" fill="#26716B"/>
<path fill-rule="evenodd" clip-rule="evenodd" d="M107.062 51.4998C107.767 50.8799 108.408 51.0937 109.071 51.2006C110.824 51.4571 111.914 52.526 112.663 54.0225C112.791 54.3004 112.791 54.8348 112.62 55.0486C112.278 55.4334 111.829 55.2196 111.465 54.9417C110.461 54.1294 109.456 53.317 108.451 52.5046C108.024 52.1626 107.575 51.8847 107.062 51.5212V51.4998Z" fill="#26716B"/>
<path fill-rule="evenodd" clip-rule="evenodd" d="M106.869 78.2866C108.045 78.1155 108.836 78.2438 109.691 78.9707C110.888 79.9968 111.679 81.194 112.064 82.6905C112.128 82.947 112.064 83.3104 111.914 83.5456C111.829 83.6739 111.38 83.738 111.252 83.6311C109.328 82.2843 107.917 80.5099 106.848 78.2866H106.869Z" fill="#26716B"/>
</g>
<defs>
<clipPath id="clip0_35_10829">
<rect width="121" height="121" fill="white"/>
</clipPath>
</defs>
</svg>
