<svg width="121" height="121" viewBox="0 0 121 121" fill="none" xmlns="http://www.w3.org/2000/svg">
<g clip-path="url(#clip0_35_10811)">
<path d="M119.311 60.5C119.311 92.9947 92.9733 119.311 60.4786 119.311C27.9839 119.311 1.66748 92.9733 1.66748 60.5C1.66748 28.0267 28.0053 1.66748 60.5 1.66748C92.9947 1.66748 119.333 28.0053 119.333 60.5H119.311Z" fill="white"/>
<path d="M60.5 121C27.1288 121 0 93.8498 0 60.5C0 27.1502 27.1288 0 60.5 0C93.8712 0 121 27.1288 121 60.5C121 93.8712 93.8712 121 60.5 121ZM60.5 3.35636C28.9887 3.35636 3.35636 28.9887 3.35636 60.5C3.35636 92.0113 28.9887 117.644 60.5 117.644C92.0113 117.644 117.644 92.0113 117.644 60.5C117.644 28.9887 92.0113 3.35636 60.5 3.35636Z" fill="#1E6E67"/>
<path fill-rule="evenodd" clip-rule="evenodd" d="M100.776 56.9299C100.071 56.7802 99.3652 56.652 98.6597 56.5023C98.4887 56.4596 98.5528 56.2885 98.5528 56.1816C98.5528 56.0106 98.5956 55.8182 98.6169 55.6472C98.6811 54.9631 98.9162 54.0225 98.9162 54.0225L100.776 54.2576C100.776 54.2576 101.118 54.3431 101.118 54.5997C101.118 55.3265 101.011 56.032 100.883 56.7161C100.883 56.7802 100.819 56.823 100.755 56.9299H100.776Z" fill="#32746D"/>
<path fill-rule="evenodd" clip-rule="evenodd" d="M105.073 57.785C104.368 57.6567 103.662 57.5071 102.957 57.3574C102.786 57.3147 102.85 57.1437 102.85 57.0154C102.85 56.8444 102.892 56.652 102.914 56.4809C102.999 55.6686 103.149 54.8562 103.149 54.8562L105.094 55.0914C105.094 55.0914 105.436 55.1769 105.436 55.4334C105.436 56.1603 105.33 56.8657 105.201 57.5498C105.201 57.614 105.137 57.6781 105.073 57.7636V57.785Z" fill="#32746D"/>
<path fill-rule="evenodd" clip-rule="evenodd" d="M100.37 59.2387C100.37 59.5594 100.37 59.9014 100.327 60.2221C100.227 61.234 99.693 61.6544 98.7238 61.4834C98.5528 61.462 98.3818 61.3979 98.2108 61.3979C97.8687 61.3765 97.6977 61.2482 97.8046 60.8634C97.8687 60.671 97.8473 60.4573 97.8901 60.2649C97.9756 59.7732 97.7832 59.0035 98.1894 58.8539C98.7666 58.6615 99.4935 58.9394 100.135 59.0891C100.199 59.0891 100.263 59.1746 100.37 59.2387Z" fill="#32746D"/>
<path fill-rule="evenodd" clip-rule="evenodd" d="M99.5577 64.177C99.5577 64.5191 99.5577 64.8184 99.5149 65.1391C99.3866 66.7638 99.3653 66.7638 97.8474 66.4859C97.2346 66.3719 96.9638 65.9871 97.0351 65.3315C97.1491 64.2055 97.7548 63.7566 98.8522 63.9846C99.066 64.0274 99.2798 64.1129 99.5577 64.177Z" fill="#32746D"/>
<path fill-rule="evenodd" clip-rule="evenodd" d="M104.303 62.6164C103.577 62.4668 102.85 62.3171 102.123 62.1461C102.123 62.1461 102.08 61.9537 102.08 61.8682C102.08 61.6544 102.123 61.462 102.144 61.2482C102.315 59.5166 102.615 59.3456 104.303 59.9442C104.474 60.0083 104.645 60.0297 104.667 60.2862C104.667 61.0131 104.56 61.7185 104.432 62.4026C104.432 62.4668 104.368 62.5309 104.303 62.6164Z" fill="#32746D"/>
<path d="M60.4143 113.988H58.0627C57.4427 113.902 56.8228 113.753 56.1814 113.71C54.4926 113.603 52.8037 113.582 51.1148 113.389C50.1314 113.283 49.148 112.94 48.186 112.705C46.9033 112.385 45.6207 112.064 44.3593 111.679C43.6966 111.487 43.0767 111.123 42.4353 110.867C41.8795 110.653 41.3023 110.482 40.7678 110.225C39.8699 109.798 39.0148 109.306 38.1169 108.857C36.9625 108.28 35.8081 107.724 34.6537 107.168C34.3972 107.04 34.1834 106.869 33.9268 106.741C33.3496 106.442 32.7083 106.185 32.1738 105.822C31.2118 105.202 30.2926 104.518 29.3733 103.833C28.7106 103.342 28.0906 102.765 27.4279 102.251C27.0431 101.952 26.6583 101.503 26.2307 101.46C25.6108 101.396 25.3115 101.054 24.9908 100.648C24.8625 100.477 24.6487 100.242 24.4777 100.242C23.9219 100.242 23.6653 99.8357 23.3019 99.5578C22.853 99.2157 22.4254 98.8523 22.0406 98.4461C21.4207 97.762 20.8648 96.9924 20.2235 96.3297C19.7532 95.8166 19.1973 95.4104 18.7056 94.9187C18.4063 94.5981 18.1926 94.1919 17.9146 93.8285C17.4871 93.294 16.9954 92.8237 16.6106 92.2465C16.2899 91.7548 15.8623 91.37 15.7768 90.7073C15.7127 90.2797 15.1996 89.9163 14.8576 89.5528C14.5155 89.168 14.43 88.5053 14.7079 88.2488C15.0286 87.9495 15.3493 87.6502 15.6913 87.3509C16.6533 86.4958 17.6154 85.6193 18.556 84.7642C19.1118 84.2511 19.6035 83.6739 20.2235 83.2677C21.1427 82.6691 22.1261 82.2202 23.1095 81.7071C24.9694 80.7237 26.8079 79.7189 28.6892 78.7783C29.7367 78.2652 30.8698 77.9659 31.8959 77.4315C32.6228 77.068 33.2855 76.555 33.8841 75.9991C35.3592 74.6309 36.7487 73.1986 38.2238 71.809C39.1645 70.9111 40.1692 70.0774 41.1313 69.2009C41.6443 68.7306 42.1146 68.1961 42.6277 67.7044C43.7821 66.6569 44.9366 65.588 46.1551 64.6046C47.4164 63.5571 48.7205 62.5737 50.0673 61.6331C51.6065 60.5855 53.1885 59.5808 54.7705 58.6187C56.1601 57.7636 57.571 56.9299 59.0461 56.203C60.5212 55.4762 62.0604 54.9203 63.5783 54.2576C64.3051 53.9369 65.0106 53.5521 65.7161 53.1887C66.5498 52.7398 67.4263 52.3336 68.2173 51.8419C69.0724 51.3074 69.8848 50.7516 70.6758 50.1316C71.6805 49.3193 72.6639 48.4641 73.6259 47.609C73.8825 47.3739 74.0108 47.0104 74.2459 46.7753C74.8231 46.2408 75.4217 45.7491 76.0203 45.2361C76.8754 44.4878 77.645 43.6113 78.8422 43.3548C79.3339 43.2479 79.847 43.1838 80.2745 42.9486C81.1724 42.4997 82.0275 41.9652 82.8827 41.4735C82.9682 41.4094 83.0537 41.3239 83.1178 41.217C83.8874 40.1694 84.6143 39.0792 85.4694 38.0958C86.41 37.0269 87.5217 36.1076 88.4623 35.0387C89.3389 34.0767 90.4933 33.6277 91.6049 33.1147C92.7807 32.5588 93.9138 31.9816 95.0468 31.3617C95.3888 31.1693 95.6668 30.8486 95.9874 30.6134C96.586 30.1859 97.2487 29.8011 97.826 29.3308C98.3176 28.9246 98.7238 28.4115 99.1942 27.9839C99.9424 27.2998 101.888 27.364 102.764 27.8557C104.624 28.8818 105.757 30.6134 106.976 32.2168C107.981 33.5209 108.729 35.0173 109.456 36.5138C110.033 37.6896 110.396 38.9723 110.888 40.2122C111.145 40.8535 111.508 41.4521 111.679 42.1149C112.042 43.4831 112.171 44.894 112.641 46.2194C113.346 48.2504 113.688 50.324 114.052 52.3977C114.18 53.1459 114.287 53.9156 114.373 54.6852C114.501 55.9037 114.651 57.1009 114.715 58.3194C114.779 59.4525 114.715 60.5855 114.736 61.7186C114.736 61.8255 114.843 61.9323 114.907 62.0392V65.759C114.843 66.0156 114.779 66.2935 114.715 66.55C114.159 69.2437 113.624 71.9159 113.069 74.6096C112.983 74.9516 112.833 75.2937 112.684 75.6143C112.406 76.2129 112.064 76.7901 111.807 77.4101C111.529 78.0942 111.358 78.7997 111.08 79.4838C110.973 79.7831 110.631 80.0396 110.61 80.3389C110.567 81.6643 109.541 82.5194 109.071 83.6311C108.707 84.4862 108.258 85.2772 107.831 86.111C107.361 87.0516 106.997 88.035 106.42 88.8901C105.885 89.6384 105.009 90.0873 104.581 90.9638C104.41 91.3058 104.175 91.5838 103.94 91.9044C103.598 92.3748 103.213 92.8451 102.893 93.3154C102.444 93.9781 102.08 94.705 101.567 95.3036C100.413 96.6076 99.2369 97.8903 97.9756 99.0875C96.6715 100.306 95.2606 101.375 93.8924 102.508C93.4862 102.85 93.0159 103.128 92.6097 103.449C92.118 103.855 91.7118 104.496 91.1346 104.689C89.9802 105.052 89.2747 106.014 88.2486 106.548C87.3934 106.976 86.6452 107.617 85.7687 108.045C84.5502 108.643 83.353 109.263 82.0489 109.67C81.6641 109.798 81.3007 109.969 80.9373 110.119C79.9111 110.568 78.9277 111.145 77.8588 111.465C76.5761 111.829 75.2507 111.978 73.9466 112.214C73.626 112.278 73.3053 112.256 73.006 112.363C71.4026 112.919 69.7351 113.026 68.0676 113.154C67.8111 113.154 67.576 113.218 67.3194 113.24C66.1009 113.389 64.9037 113.582 63.6851 113.689C62.7018 113.796 61.7184 113.796 60.7563 113.838C60.6281 113.838 60.4998 113.945 60.3715 114.009L60.4143 113.988ZM36.8984 97.3558C36.8984 97.3558 36.8984 97.5055 36.9198 97.591C37.2191 97.6979 37.5184 97.8903 37.7963 97.8689C38.9934 97.8048 40.1906 97.6124 41.3878 97.591C43.9959 97.5055 46.604 97.4841 49.2122 97.4627C51.179 97.4627 53.1244 97.3986 55.0698 96.8428C57.4214 96.1587 59.8157 95.4959 62.2314 95.218C64.2196 95.0043 66.1009 94.6622 68.0035 94.1064C71.8943 92.9733 75.0369 90.6004 78.1581 88.1633C79.227 87.3295 80.189 86.3034 81.1724 85.3627C82.4124 84.2083 83.5668 82.9684 84.8708 81.8567C86.4314 80.5099 87.5645 78.821 88.8472 77.2391C89.3389 76.6405 89.4885 75.7426 89.7878 74.9944C89.6809 74.9302 89.5954 74.8447 89.4885 74.7806C87.7355 75.8067 86.4528 77.4315 84.8067 78.6714C83.4812 77.1749 81.8351 76.3626 79.7828 76.4053C79.4194 76.4053 78.9919 76.2771 78.6926 76.0633C75.4431 73.9041 71.9157 73.4338 68.1532 74.353C67.8325 74.4385 67.4691 74.4385 67.1484 74.353C64.6472 73.6048 62.1673 73.8186 59.8157 74.8661C57.5924 75.8495 55.3904 76.9825 54.6208 79.612C54.5781 79.7617 54.4712 79.8899 54.4284 80.061C54.2574 80.6809 53.7871 80.8947 53.2099 81.1085C52.2479 81.4292 51.2645 81.7926 50.388 82.327C48.4853 83.4601 47.3309 85.2558 46.4758 87.2654C46.2192 87.864 45.8772 88.2488 45.2358 88.4198C44.2738 88.6977 43.4615 89.2322 42.9056 90.13C41.8154 91.9258 40.8747 93.7216 41.3237 95.8594C39.7844 96.3725 38.3521 96.8428 36.8984 97.3131V97.3558ZM77.1747 50.773C75.0155 50.6233 73.2625 51.2647 72.1509 53.2315C72.044 53.4239 71.7661 53.5949 71.5523 53.6163C69.6069 53.8728 68.538 54.9631 68.1104 56.8444C68.0249 57.2505 67.7256 57.6567 67.4049 57.956C66.5284 58.7898 66.1222 59.7945 66.1222 60.9703C66.1222 62.0179 66.8705 62.5096 67.8539 62.3172C69.8634 61.9751 71.595 60.9703 73.3694 60.0725C74.4597 59.4952 75.6783 59.0463 76.5975 58.2553C78.094 56.9512 79.4622 55.4975 80.7662 53.9797C81.8565 52.7184 81.2793 51.3502 79.6332 51.0509C78.8208 50.9012 77.9871 50.8799 77.1747 50.7944V50.773ZM78.2436 67.7258C78.885 67.4693 79.4622 67.2769 80.018 67.0417C80.7449 66.7424 81.5572 66.5073 82.1986 66.0797C83.353 65.2887 84.4219 64.4122 85.4908 63.5143C86.3887 62.7447 87.2438 61.911 88.1203 61.0772C89.2961 59.9442 90.4291 58.7898 91.6049 57.6781C92.5669 56.7588 92.8662 55.4975 93.3579 54.3645C93.4434 54.1721 93.2724 53.8087 93.1014 53.6163C93.0159 53.5308 92.6525 53.659 92.4601 53.7445C92.2676 53.8514 92.0966 54.0225 91.947 54.1935C91.0705 55.1982 90.2367 56.2672 89.2961 57.2078C88.0562 58.4691 86.7094 59.6235 85.4053 60.8207C85.0846 61.12 84.8281 61.5048 84.486 61.7399C83.3744 62.5309 82.1986 63.2364 81.1083 64.0488C80.3173 64.6474 79.6332 65.3956 78.8422 65.9942C78.3078 66.4004 78.0298 66.8065 78.2009 67.7044L78.2436 67.7258ZM29.3947 87.4578C29.3947 87.4578 29.4588 87.4578 29.5016 87.4578C29.5016 87.7785 29.4802 88.0991 29.5016 88.4198C29.5657 88.9329 29.865 89.2108 30.3781 89.2108C31.3401 89.2108 32.3021 89.2108 33.1358 88.6122C33.5848 88.2915 34.0765 88.0564 34.5468 87.7785C35.5729 87.2013 35.7012 86.9233 35.4874 85.7475C35.4661 85.5979 35.4019 85.4482 35.3805 85.2772C35.1881 84.4221 34.7178 84.0159 33.8413 84.0587C33.2641 84.0587 32.7083 84.1869 32.1311 84.2083C30.3994 84.2511 30.3353 84.2511 29.7153 85.8758C29.5229 86.3675 29.5016 86.9447 29.3947 87.4792V87.4578ZM67.5546 102.957C67.7042 103.021 67.8111 103.085 67.8752 103.085C69.4572 102.807 71.082 102.615 72.6426 102.187C74.0535 101.802 75.4431 101.247 76.7685 100.605C77.9016 100.049 78.9705 99.3226 80.018 98.6172C80.98 97.9758 81.7496 97.0352 82.8399 96.5221C83.3102 96.3083 83.7164 95.9663 84.1012 95.6242C84.5288 95.2608 84.2722 95.0043 83.8661 94.9187C83.6309 94.876 83.353 94.8974 83.1392 94.9829C82.4979 95.2608 81.8138 95.5173 81.2366 95.9235C77.923 98.1255 74.588 100.242 70.804 101.567C70.2696 101.738 69.7138 101.888 69.1579 102.016C68.5593 102.166 67.9394 102.23 67.576 102.957H67.5546ZM19.7959 87.3509C21.3779 86.2606 22.9385 85.1917 24.4991 84.1228C26.0383 83.0753 27.5775 82.0491 29.1168 81.0016C29.074 80.9161 29.0313 80.852 28.9885 80.7664C28.7747 80.852 28.5396 80.8947 28.3044 81.0016C27.6417 81.3009 26.979 81.6216 26.3376 81.9209C23.9219 83.0753 21.5275 84.2297 19.7318 86.3247C19.3897 86.7096 19.3684 86.9447 19.7745 87.3723L19.7959 87.3509ZM97.2487 43.6968C98.0184 43.8892 98.1894 43.0769 98.6811 42.8203C99.5362 42.3714 99.3652 41.6659 99.2583 40.9818C99.1728 40.3405 98.6383 40.0198 98.0611 40.2336C97.5694 40.426 97.0991 40.6825 96.6502 40.9391C96.0516 41.2597 95.6668 42.1576 95.8378 42.9058C96.0088 43.6755 96.6074 43.7182 97.2487 43.7182V43.6968ZM39.4851 80.5313C40.5113 80.5313 41.3237 80.2961 41.9222 79.6975C42.2857 79.3127 42.4995 78.7783 42.7774 78.308C42.307 78.1797 41.8154 77.9659 41.345 77.9445C41.0244 77.9445 40.5113 78.0942 40.383 78.3507C40.0196 78.9921 39.8272 79.7189 39.4851 80.5527V80.5313ZM101.182 37.882C101.824 37.882 102.401 37.4117 102.273 37.0696C102.166 36.7917 101.802 36.5993 101.546 36.3641C101.289 36.749 100.99 37.1124 100.776 37.5186C100.755 37.5827 101.097 37.8179 101.182 37.9034V37.882ZM96.8426 68.8802C96.8426 68.8802 99.7714 66.8707 102.187 64.4763C104.603 62.082 108.066 56.5023 108.066 56.5023L109.135 52.9963C109.135 52.9963 98.8521 50.324 97.377 50.602C95.9019 50.8799 93.5076 70.6546 93.5076 70.6546L96.8426 68.923V68.8802Z" fill="#CAA891"/>
<path fill-rule="evenodd" clip-rule="evenodd" d="M39.2716 62.3599C39.6564 62.3599 40.0412 62.3599 40.4474 62.3599C40.9177 62.3599 41.2811 62.253 41.4949 61.7827C41.8156 61.12 42.5424 61.1627 43.0555 61.1841C43.932 61.2269 44.8726 61.0558 45.7064 61.5903C46.4974 62.1034 46.476 62.7233 45.7491 63.2792C43.8892 64.7115 42.0935 66.2293 40.2977 67.7258C38.9081 68.9016 37.4331 69.9919 36.1931 71.3173C35.1028 72.4931 33.6491 73.0917 32.4733 74.0751C32.0672 74.4172 31.5541 74.2461 31.5541 73.7758C31.5327 72.771 31.5755 71.7663 31.7037 70.7829C31.7892 70.1415 32.2809 69.6926 32.9009 69.4788C33.3071 69.3505 33.3926 69.094 33.3712 68.7092C33.3285 68.0037 33.585 67.4693 34.3118 67.2341C34.8677 67.0631 34.8249 66.6141 34.7822 66.1652C34.718 64.8825 34.9532 63.6426 36.1076 63.0012C36.8131 62.5951 37.7537 62.5737 38.5875 62.3813C38.8012 62.3385 39.0364 62.3813 39.2716 62.3813V62.3599Z" fill="#A0CD64"/>
<path fill-rule="evenodd" clip-rule="evenodd" d="M66.785 41.6232C67.2767 41.7728 67.7898 41.9011 68.2815 42.0721C69.5641 42.521 70.8682 42.97 72.1509 43.4403C72.8136 43.6755 73.4977 43.9106 74.1177 44.2527C74.3742 44.4023 74.4383 44.8726 74.588 45.1933C74.2887 45.2574 73.9466 45.4498 73.6687 45.3643C72.5784 45.0864 71.4882 44.723 70.4193 44.3809C69.5 44.0816 68.5807 43.7396 67.6829 43.3762C67.1912 43.1838 66.8491 43.1838 66.4857 43.7396C65.5237 45.1933 64.4334 46.5615 63.45 48.0152C63.0438 48.6138 62.7873 49.3406 62.4666 49.982C62.0604 50.7944 61.697 51.6281 61.1839 52.3763C60.8633 52.8467 60.3929 53.2315 59.8799 53.5308C59.3668 53.83 59.0247 53.5308 58.9392 52.9322C58.8751 52.4619 58.8965 52.0557 59.2171 51.6067C59.5592 51.1578 59.6875 50.5592 59.944 50.0247C60.3502 49.2124 60.7564 48.3573 61.2481 47.5876C62.0604 46.2836 62.9156 45.0223 63.7921 43.761C64.07 43.3548 64.412 43.0127 64.7541 42.6279C65.4809 41.7728 65.6092 41.73 66.785 41.6018V41.6232Z" fill="#26716B"/>
<path fill-rule="evenodd" clip-rule="evenodd" d="M55.9033 82.4553C55.8605 80.7878 56.3522 79.2486 57.5922 78.1369C58.4045 77.4101 59.4093 76.8329 60.4354 76.4694C62.0816 75.8922 63.9201 75.764 65.5448 76.2343C66.8061 76.5977 67.6185 76.1488 68.6874 75.8495C71.3597 75.1012 74.0319 75.1868 76.1697 77.1963C76.8538 77.8376 77.4524 77.9659 78.2648 77.9231C79.7185 77.8376 80.9157 78.5217 82.0487 79.27C82.8183 79.783 82.9893 80.7237 82.3907 81.4292C81.3218 82.6905 80.1888 83.8876 79.013 85.042C78.051 85.9613 77.0462 86.8164 75.9346 87.5647C74.2029 88.7191 72.3858 89.7666 70.59 90.8141C69.6066 91.3913 68.5591 91.8617 67.5543 92.3747C65.6303 93.3581 63.5139 93.3368 61.4402 93.465C59.7941 93.5719 58.2335 93.8712 56.7157 94.5553C55.2406 95.218 53.7013 95.6242 52.0552 95.6883C50.0457 95.7739 48.0148 95.8594 46.0052 95.9235C45.4922 95.9235 44.9577 95.8808 44.4233 95.838C43.7178 95.7739 43.3971 95.3891 43.4185 94.6836C43.504 92.6527 44.3164 91.0493 46.1763 90.1087C46.5397 89.9376 46.9459 89.8735 47.3521 89.8094C47.6941 89.7452 47.8651 89.6383 47.9506 89.2108C48.2713 87.2226 49.0623 85.4269 50.4519 83.9731C51.0932 83.3104 52.0125 82.9684 52.9959 82.8615C53.9365 82.776 54.8771 82.6049 55.9033 82.4553Z" fill="#A0CD64"/>
<path fill-rule="evenodd" clip-rule="evenodd" d="M67.8323 60.7779C67.2979 60.671 67.0841 60.3717 67.3406 59.9656C67.5972 59.5594 67.8751 59.1532 68.2599 58.8753C69.0081 58.3195 69.3929 57.614 69.5212 56.7375C69.6708 55.8182 70.7611 54.9631 71.7231 54.9203C72.4927 54.8776 73.241 54.8776 73.6044 53.9156C73.7754 53.4239 74.203 52.9749 74.6092 52.6543C74.9085 52.3977 75.4002 52.2695 75.8063 52.2481C76.747 52.2053 77.709 52.2053 78.6283 52.3336C79.5475 52.4619 79.7185 53.0177 79.1199 53.7018C78.5427 54.3431 77.9228 54.9631 77.2387 55.4548C75.2078 56.8871 73.1768 58.3408 71.039 59.6235C70.077 60.2007 68.9012 60.4145 67.8323 60.7993V60.7779Z" fill="#A0CD64"/>
</g>
<defs>
<clipPath id="clip0_35_10811">
<rect width="121" height="121" fill="white"/>
</clipPath>
</defs>
</svg>
