<svg width="121" height="121" viewBox="0 0 121 121" fill="none" xmlns="http://www.w3.org/2000/svg">
<g clip-path="url(#clip0_35_10881)">
<path d="M119.312 60.5C119.312 92.9947 92.9738 119.311 60.5005 119.311C28.0272 119.311 1.66797 92.9947 1.66797 60.5C1.66797 28.0053 28.0058 1.66748 60.5005 1.66748C92.9952 1.66748 119.312 28.0053 119.312 60.5Z" fill="white"/>
<path d="M60.5 121C27.1288 121 0 93.8498 0 60.5C0 27.1502 27.1288 0 60.5 0C93.8712 0 121 27.1288 121 60.5C121 93.8712 93.8712 121 60.5 121ZM60.5 3.35636C28.9887 3.35636 3.35636 28.9887 3.35636 60.5C3.35636 92.0113 28.9887 117.644 60.5 117.644C92.0113 117.644 117.644 92.0113 117.644 60.5C117.644 28.9887 92.0113 3.35636 60.5 3.35636Z" fill="#1E6E67"/>
<path fill-rule="evenodd" clip-rule="evenodd" d="M56.5029 53.1887C55.3912 53.2528 53.7451 53.1032 52.099 53.2528C51.479 53.317 50.8163 53.2528 50.175 53.2101C49.9184 53.2101 49.8115 53.2742 49.7902 53.5521C49.6833 54.45 49.7902 55.3479 49.8329 56.2458C49.8329 56.6947 49.7046 57.1223 49.8329 57.5712C49.8757 57.7209 49.7902 57.8705 49.6405 57.9346C49.2343 58.1484 48.8281 57.9133 48.4433 57.8491C48.1868 57.8064 48.0799 57.4429 48.1013 57.165C48.2723 55.7754 48.0158 54.3859 48.1868 52.9963C48.2509 52.5046 48.764 51.8633 49.2343 51.8846C50.4529 51.8846 51.6714 51.8419 52.89 51.7991C54.6216 51.7564 56.3532 51.7991 58.0849 51.7991C59.4317 51.7991 60.7785 51.8419 62.1253 51.9701C62.4032 51.9915 62.4887 52.0984 62.5101 52.3336C62.5743 52.868 62.6598 53.4025 62.6812 53.9583C62.7453 55.9465 62.788 57.9346 62.8736 59.9014C62.8736 60.3717 62.7453 60.7138 62.4246 61.0131C62.0612 61.3551 61.6978 61.3124 61.5267 60.8207C61.4626 60.6283 61.4412 60.4145 61.4412 60.2007C61.5267 58.7684 61.2916 57.336 61.313 55.9037C61.313 55.241 61.1206 54.5997 61.2702 53.9369C61.3771 53.4452 61.1847 53.1459 60.5861 53.1673C59.3889 53.1887 58.2131 53.1673 56.4815 53.1673L56.5029 53.1887Z" fill="#33746D"/>
<path fill-rule="evenodd" clip-rule="evenodd" d="M52.2913 54.4072C52.9184 54.4072 53.2105 54.7136 53.1678 55.3265C53.1678 55.4761 53.0823 55.6258 53.125 55.754C53.4243 56.5664 52.8899 56.5237 52.3768 56.4809C52.1844 56.4809 51.992 56.4809 51.821 56.4809C51.3079 56.5237 51.201 56.2671 51.3079 55.8182C51.3293 55.7113 51.3506 55.5616 51.3079 55.4548C51.201 54.4286 51.201 54.4286 52.2699 54.4286L52.2913 54.4072Z" fill="#33746D"/>
<path fill-rule="evenodd" clip-rule="evenodd" d="M54.7281 55.5189C54.7281 54.7778 55.0488 54.4072 55.6902 54.4072C56.5239 54.4072 56.6094 54.5141 56.588 55.5403C56.588 56.1674 56.2032 56.4809 55.4336 56.4809C54.9491 56.4809 54.7139 56.1602 54.7281 55.5189Z" fill="#33746D"/>
<path fill-rule="evenodd" clip-rule="evenodd" d="M58.1487 55.4334C58.1487 55.4334 58.1487 55.3906 58.1487 55.3692C58.2128 55.0699 57.9777 54.5996 58.2983 54.45C58.6618 54.3003 59.1107 54.4072 59.5383 54.4286C59.7307 54.4286 59.7307 54.621 59.7734 54.7493C59.9872 55.2623 59.7307 55.7754 59.8162 56.2885C59.8376 56.4168 59.7093 56.4595 59.6024 56.4595H58.4052C58.1914 56.4595 58.1273 56.3099 58.1273 56.1175V55.4334H58.1487Z" fill="#33746D"/>
<path fill-rule="evenodd" clip-rule="evenodd" d="M58.9827 59.6663C58.0848 59.6235 58.0634 59.6235 58.1489 58.5118C58.2131 57.5712 58.9399 58.1484 59.3461 58.0629C60.0302 57.9133 59.8378 58.4905 59.8378 58.8539C59.8378 59.709 59.8164 59.709 58.9827 59.6876V59.6663Z" fill="#33746D"/>
<path fill-rule="evenodd" clip-rule="evenodd" d="M56.5882 58.5332C56.5882 59.2173 56.3745 59.4097 55.7331 59.3028C55.5407 59.2814 55.3269 59.2814 55.1131 59.2387C54.6428 59.1318 54.6856 58.7684 54.6856 58.4049C54.6856 57.9988 54.9421 58.0415 55.1987 58.0415C55.4979 58.0415 55.7759 58.0629 56.0752 58.0415C56.5027 57.9988 56.631 58.1912 56.5882 58.5332Z" fill="#33746D"/>
<path fill-rule="evenodd" clip-rule="evenodd" d="M78.6071 71.2104C78.7211 72.3363 78.2223 72.8993 77.1106 72.8993C76.961 72.8993 76.8113 72.8779 76.6617 72.8993C75.8066 73.0703 75.6142 72.6 75.6569 71.8945C75.6569 71.7235 75.6569 71.5311 75.6783 71.3601C75.8493 69.0085 75.55 69.4788 77.752 69.3933C78.3719 69.3933 78.6498 69.5857 78.6071 70.2056C78.5857 70.5263 78.6071 70.8684 78.6071 71.2104Z" fill="#33746D"/>
<path fill-rule="evenodd" clip-rule="evenodd" d="M75.8074 87.2868C75.7361 86.2036 76.2421 85.662 77.3252 85.662H77.4107C78.3371 85.662 78.8074 86.1181 78.8217 87.0302C78.8217 87.0302 78.8217 87.0944 78.8217 87.1157C78.672 87.7357 79.2493 88.6122 78.672 88.9115C78.0735 89.2108 77.197 89.0398 76.4487 88.997C76.0639 88.997 75.8074 88.7405 75.8501 88.2915C75.8715 87.9709 75.8501 87.6288 75.8074 87.2868Z" fill="#33746D"/>
<path fill-rule="evenodd" clip-rule="evenodd" d="M75.8499 76.6405C75.8499 75.5858 76.3701 75.0585 77.4105 75.0585C77.6457 75.0585 77.9022 75.0799 78.1374 75.0585C78.7787 74.973 78.9498 75.2936 78.8643 75.8709C78.8429 76.0419 78.8215 76.2343 78.8001 76.4053C78.7146 77.0039 79.1208 77.9231 78.6505 78.1155C77.9022 78.3935 76.983 78.2224 76.1279 78.2224C75.8286 78.2224 75.8499 77.9659 75.8499 77.7521C75.8499 77.3887 75.8499 77.0253 75.8499 76.6618V76.6405Z" fill="#33746D"/>
<path fill-rule="evenodd" clip-rule="evenodd" d="M78.7996 81.9422C78.7568 82.9826 78.201 83.5028 77.1321 83.5028C76.2912 83.5028 75.8637 83.0895 75.8494 82.2629C75.8494 82.2629 75.8494 82.1987 75.8494 82.1774C75.9135 81.6002 75.3577 80.7664 75.9135 80.4885C76.6618 80.1037 77.6452 80.3602 78.5003 80.3816C78.7996 80.3816 78.7996 80.6595 78.7996 80.8519C78.7996 81.2154 78.7996 81.5788 78.7996 81.9422Z" fill="#33746D"/>
<path fill-rule="evenodd" clip-rule="evenodd" d="M60.2648 71.2318C60.2861 69.3078 60.0082 69.6284 61.975 69.5429C63.2363 69.5002 63.2363 69.5429 63.2577 70.7615C63.2791 72.8138 63.2791 72.771 61.2909 72.8351C60.4358 72.8565 60.1365 72.6 60.2648 71.7876C60.2861 71.6166 60.2648 71.4242 60.2648 71.2532V71.2318Z" fill="#33746D"/>
<path fill-rule="evenodd" clip-rule="evenodd" d="M65.6099 71.2746C65.6099 69.2864 65.5886 69.7353 67.1492 69.6712C68.6242 69.5857 68.6243 69.6284 68.5815 71.1677C68.553 72.3363 68.0257 72.9207 66.9995 72.9207C65.9734 72.9207 65.5102 72.3791 65.6099 71.2959V71.2746Z" fill="#33746D"/>
<path fill-rule="evenodd" clip-rule="evenodd" d="M65.3955 76.5763C65.4383 74.6095 65.2031 75.0157 67.063 74.9088C68.3029 74.8447 68.3243 74.8875 68.3243 76.1274C68.3243 77.3816 67.7186 78.0158 66.5072 78.03C65.7661 78.03 65.4026 77.5455 65.4169 76.5763H65.3955Z" fill="#33746D"/>
<path fill-rule="evenodd" clip-rule="evenodd" d="M70.6765 71.1677C70.7406 69.1581 70.5696 69.5643 72.344 69.5002C73.648 69.4574 73.648 69.5002 73.6267 70.7401C73.5981 72.037 72.9497 72.6855 71.6812 72.6855C70.9829 72.6855 70.648 72.1796 70.6765 71.1677Z" fill="#33746D"/>
<path fill-rule="evenodd" clip-rule="evenodd" d="M61.4193 89.0397C60.4217 89.0397 59.9229 88.5409 59.9229 87.5433C59.9229 86.1109 60.0297 85.9827 61.5476 85.9613C63.1082 85.9399 63.0013 85.5551 63.0013 87.4578C63.0013 87.4791 63.0013 87.5219 63.0013 87.5433C62.9443 88.5409 62.417 89.0397 61.4193 89.0397Z" fill="#33746D"/>
<path fill-rule="evenodd" clip-rule="evenodd" d="M68.3464 87.5219C68.3322 88.5338 67.8048 89.0398 66.7644 89.0398C66.6148 89.0398 66.4651 89.0398 66.3155 89.0398C65.5886 89.1467 65.3107 88.8687 65.4176 88.1419C65.4604 87.9067 65.4176 87.6716 65.4176 87.415C65.4319 86.4174 65.9307 85.9257 66.9141 85.9399C67.0851 85.9399 67.2775 86.0041 67.4485 85.9613C68.1968 85.8544 68.4319 86.1751 68.325 86.8806C68.3036 87.0944 68.325 87.3081 68.325 87.5219H68.3464Z" fill="#33746D"/>
<path fill-rule="evenodd" clip-rule="evenodd" d="M73.4985 87.5219C73.4985 89.0397 73.4985 89.0397 71.9593 89.0397C70.4414 89.0397 70.6338 89.2535 70.6338 87.6715C70.6338 86.004 70.6338 86.0041 72.3013 86.0254C73.128 86.0397 73.5341 86.5385 73.5199 87.5219H73.4985Z" fill="#33746D"/>
<path fill-rule="evenodd" clip-rule="evenodd" d="M60.1366 76.448C60.1366 74.5668 59.987 74.8874 61.7186 74.8233C63.0654 74.7592 63.0654 74.7805 63.0654 76.1487C63.0654 77.3602 62.4739 77.9659 61.291 77.9659C60.5214 77.9659 60.1295 77.4671 60.1152 76.4694L60.1366 76.448Z" fill="#33746D"/>
<path fill-rule="evenodd" clip-rule="evenodd" d="M65.2463 82.2629C65.2463 80.4244 65.0966 80.745 66.871 80.6595C68.1109 80.5954 68.1323 80.6595 68.1109 81.8995C68.0967 83.0824 67.5836 83.6738 66.5717 83.6738C65.5598 83.6738 65.118 83.2035 65.2463 82.2629Z" fill="#33746D"/>
<path fill-rule="evenodd" clip-rule="evenodd" d="M70.6123 76.2984C70.6123 74.6523 70.6123 74.695 72.2798 74.6523C73.0922 74.6309 73.3915 74.9088 73.2632 75.6998C73.2632 75.7853 73.2632 75.8922 73.2632 75.9777C73.2204 77.859 72.8356 78.1583 70.9971 77.7949C70.6764 77.7307 70.6123 77.5597 70.6123 77.3032C70.6123 76.9825 70.6123 76.6405 70.6123 76.2984Z" fill="#33746D"/>
<path fill-rule="evenodd" clip-rule="evenodd" d="M73.3483 82.0919C73.3269 83.6739 73.3269 83.6097 71.7449 83.6739C70.8043 83.7166 70.5264 83.2891 70.5264 82.4767C70.5264 82.0277 70.5905 81.5788 70.5905 81.1299C70.5905 80.6809 70.7401 80.4458 71.2105 80.4671C71.296 80.4671 71.3815 80.4671 71.4884 80.4458C73.3055 80.1892 73.391 80.2747 73.3483 82.1133V82.0919Z" fill="#1F6F68"/>
<path fill-rule="evenodd" clip-rule="evenodd" d="M60.0939 82.1774C60.1152 80.4671 59.7732 80.7664 61.9538 80.6168C63.0868 80.5313 62.9799 81.2367 62.9799 81.9422C62.9799 83.6525 62.9799 83.6525 61.9324 83.6738C60.7067 83.6738 60.0939 83.1821 60.0939 82.1988V82.1774Z" fill="#33746D"/>
<path fill-rule="evenodd" clip-rule="evenodd" d="M45.1938 74.8447C46.7758 74.8447 46.4765 74.7378 46.6047 76.2984C46.6903 77.2604 46.2199 77.4956 45.4503 77.3459C44.8517 77.2177 43.8042 77.8804 43.847 76.4694C43.8897 74.8661 43.847 74.8661 45.1938 74.8447Z" fill="#33746D"/>
<path fill-rule="evenodd" clip-rule="evenodd" d="M40.7684 79.1203C42.2221 79.1844 42.0084 78.821 42.1366 80.7237C42.2008 81.6643 41.6236 81.5574 41.0464 81.5574C40.0059 81.5574 39.4929 80.9945 39.5071 79.8685C39.5071 79.3697 39.9276 79.1203 40.7684 79.1203Z" fill="#33746D"/>
<path fill-rule="evenodd" clip-rule="evenodd" d="M40.8327 74.7592C42.1795 74.7592 42.1154 74.7592 42.2009 76.1487C42.2436 77.0252 41.9016 77.3245 41.132 77.1749C40.5334 77.0466 39.4859 77.7307 39.5286 76.2984C39.5714 74.7592 39.5286 74.7592 40.8327 74.7378V74.7592Z" fill="#33746D"/>
<path fill-rule="evenodd" clip-rule="evenodd" d="M35.9794 74.7378C37.3048 74.7378 37.2621 74.7378 37.3262 76.2343C37.369 77.0894 36.9414 77.1535 36.3001 77.1535C34.7822 77.1535 34.7822 77.1535 34.7822 76.106C34.7822 75.2081 35.1813 74.752 35.9794 74.7378Z" fill="#33746D"/>
<path fill-rule="evenodd" clip-rule="evenodd" d="M43.8041 80.4671C43.8041 79.8685 43.5903 79.2058 44.6806 79.2913C46.7329 79.441 46.3694 79.0562 46.5191 80.8092C46.6046 81.8139 46.0488 81.7926 45.3647 81.7712C43.8041 81.7284 43.8041 81.7712 43.8255 80.4671H43.8041Z" fill="#1F6F68"/>
<path fill-rule="evenodd" clip-rule="evenodd" d="M34.7609 80.1037C34.7609 79.5265 34.5257 78.8852 35.5732 78.9707C37.4545 79.0989 37.1552 78.7783 37.2835 80.4244C37.3476 81.194 37.0697 81.4292 36.3215 81.4078C34.7395 81.365 34.7395 81.4078 34.7395 80.1251L34.7609 80.1037Z" fill="#33746D"/>
<path d="M114.565 58.4263C112.941 58.2553 111.359 58.5332 109.755 58.8325C108.024 59.1532 106.271 59.3028 104.603 59.8373C102.743 60.4359 100.755 60.5427 98.9166 61.291C97.6767 61.8041 96.2658 61.7399 94.9831 62.1889C93.4652 62.7019 91.8405 62.8516 90.2799 63.1295C88.6124 63.4288 86.9235 63.9846 85.1492 63.6853C84.6147 63.5998 84.0375 64.006 83.3961 63.9419C83.0755 63.9205 82.7334 63.8563 82.6479 63.6853C82.4983 63.3433 82.7548 63.044 83.0755 62.873C83.5244 62.6378 83.9734 62.3385 84.465 62.2316C86.3249 61.8041 88.078 61.0344 89.9165 60.5427C92.0757 59.9655 94.2135 59.3242 96.5009 59.4311C97.2705 59.4738 98.0188 59.4311 98.767 58.9821C98.0829 58.1698 97.0995 58.0415 96.223 57.956C94.2562 57.7422 92.375 57.2078 90.3654 57.1864C87.0946 57.1436 83.952 57.7208 80.8522 58.576C78.8854 59.1318 76.9827 59.9014 74.9946 60.4359C72.0444 61.2268 69.0728 61.7613 65.9944 61.8896C63.6855 61.9965 61.505 61.4406 59.2389 61.3337C56.7804 61.2268 54.5571 60.2007 52.2055 59.6662C49.7898 59.1104 47.4382 58.4049 44.9583 58.0843C43.3977 57.8705 41.8799 57.2291 40.2979 56.9726C39.2718 56.8016 38.2242 56.4381 37.2408 56.4168C35.4878 56.374 33.7348 55.8182 31.9818 56.1602C30.7419 56.4168 29.502 56.1816 28.2407 56.2671C27.3 56.3313 26.2739 56.1175 25.3546 56.2244C23.8795 56.374 22.4258 56.2244 20.9507 56.5023C17.8937 57.1436 14.7938 57.6567 11.8009 58.6401C10.112 59.1959 8.63696 60.329 7.41841 61.6972C6.99085 62.1889 6.86258 62.8943 6.71293 63.5571C6.69155 63.6426 6.67017 63.7495 6.6488 63.8563L6.32812 64.7542V65.1177C6.32812 65.2887 6.39226 65.4383 6.43502 65.6094C6.81982 68.4526 8.4018 78.1155 13.2119 85.662C18.9198 94.598 27.2787 102.273 27.2787 102.273C27.2787 102.273 42.4785 114.031 60.7995 114.031C79.1205 114.031 91.8619 104.09 91.8619 104.09C92.375 104.133 92.5246 103.641 92.9308 103.491C94.641 102.914 105.929 93.0802 109.648 84.5717C114.886 72.6427 116.318 58.6187 114.501 58.4263H114.565ZM56.759 84.6145C56.8232 82.8829 56.8018 81.1512 56.759 79.4196C56.7163 77.4956 56.9514 75.5715 56.8659 73.6475C56.8018 72.1297 56.8232 70.5905 56.7804 69.0726C56.7804 68.4526 56.9514 67.8541 56.9087 67.1913C56.8659 66.6569 57.5073 66.2721 58.2128 66.2079C59.9444 66.0155 61.676 66.2293 63.3863 66.2079C66.3792 66.1866 69.3935 66.0797 72.3864 66.1652C73.7119 66.2079 75.0373 66.1652 76.3414 66.1224C77.6454 66.1224 78.9281 66.2721 80.2108 66.2293C81.1087 66.2079 81.5149 66.6783 81.6645 67.5548C82.0066 69.5643 81.7714 71.5525 81.8569 73.4551C81.7928 75.4647 81.7073 77.3887 81.7714 79.2913C81.8569 81.4933 81.8569 83.6952 81.7928 85.8758C81.75 87.0302 81.8355 88.1632 81.7287 89.339C81.5576 90.921 81.8356 92.5671 81.8569 94.1705C81.8569 94.5767 82.1348 94.6194 82.37 94.6836C83.8237 94.9615 85.2347 95.5601 86.7525 95.4959C87.2656 95.4959 87.8214 95.5601 87.8214 96.2014C87.8214 96.8 87.2656 96.8855 86.8167 96.8641C84.6575 96.8214 82.541 96.4152 80.4674 95.7952C78.6288 95.2394 76.9186 94.4698 75.187 93.6788C73.8615 93.0588 72.3651 92.8023 70.9541 92.332C69.6287 91.883 68.2391 91.712 66.8923 91.37C65.0324 90.8783 63.1939 91.0707 61.3553 91.1562C59.9871 91.2203 58.6403 91.3486 57.3149 91.6906C56.759 91.8403 56.8232 91.4127 56.8232 91.1134C56.7804 88.9328 56.6735 86.7737 56.759 84.5931V84.6145ZM49.1484 80.3175C49.1484 81.7926 49.1484 83.2677 49.1484 84.7214C49.1484 85.2131 49.0416 85.2986 48.5926 85.1489C46.2624 84.3793 43.9749 83.5456 41.602 82.9256C38.6732 82.1774 35.7016 82.3484 32.7942 83.1821C32.1956 83.3532 31.9177 83.3318 31.9177 82.5836C31.9177 79.5051 32.0887 76.4053 31.8108 73.3268C31.7681 72.8993 31.9605 72.7924 32.3239 72.7924C34.4403 72.7924 36.5567 72.6641 38.6732 72.7496C40.6827 72.8351 42.7136 72.7924 44.7232 72.7496C45.8348 72.7496 46.9465 72.8779 48.0795 72.6641C48.7636 72.5359 49.3836 72.8779 49.1057 73.733C49.234 75.9777 49.1484 78.1369 49.1057 80.2961L49.1484 80.3175ZM31.3191 69.4574C34.1838 68.132 36.8347 66.379 39.5711 64.8184C40.8751 64.0701 41.9226 64.6046 42.8633 65.3742C44.3384 66.5927 46.1341 67.0417 47.823 67.7472C49.2126 68.3244 50.5594 68.9657 51.9276 69.5857C52.2696 69.7353 52.5476 69.9919 52.4193 70.4408C52.2696 70.9539 51.8421 70.8256 51.5 70.7829C49.1912 70.4622 46.9893 69.885 44.8514 68.9016C43.526 68.303 42.1792 67.7044 40.6827 67.8541C39.229 67.7044 38.1173 68.3671 37.0912 69.2436C36.3643 69.8636 35.381 69.8636 34.5044 70.1201C33.6921 70.3553 32.9011 70.7187 32.046 70.6973C31.9818 70.6973 31.9391 70.7615 31.8749 70.7615C31.3405 70.7615 30.6992 70.6118 30.5281 70.2484C30.3357 69.8422 30.9984 69.6284 31.3619 69.4574H31.3191ZM17.402 64.7542C18.3854 63.7067 19.6039 62.9371 20.8011 62.1889C22.1907 61.3337 23.623 61.4834 25.1195 62.1247C26.4235 62.6806 27.5138 63.5571 28.8179 64.1343C29.2882 64.3267 29.673 64.6901 30.1861 65.0108C29.6302 65.5025 29.1172 65.3956 28.6255 65.2459C27.0007 64.6901 25.3119 64.4977 23.6658 64.0701C22.8961 63.8563 22.1907 63.9846 21.5279 64.4763C20.8011 65.0108 19.9887 65.4383 19.1336 65.7804C18.7702 65.93 18.3854 66.0369 17.9792 66.0369C17.5516 66.0369 17.0813 65.9942 16.8675 65.5666C16.611 65.0749 17.1882 64.9894 17.402 64.7542ZM101.717 83.1608C101.546 83.3959 101.033 83.4387 100.67 83.3104C99.7504 83.0111 98.8525 82.6263 97.9119 82.3698C96.3299 81.9422 94.812 81.9208 93.1873 82.6477C91.5198 83.3959 89.6813 83.8876 87.7787 83.5028C87.5649 83.4601 87.2228 83.3959 87.1587 83.0539C87.1159 82.7973 87.287 82.6049 87.458 82.5408C90.1516 81.4291 92.6315 79.7189 95.1327 79.5479C97.976 79.5479 99.6863 80.8306 101.397 82.0919C101.739 82.3484 101.931 82.8187 101.696 83.1394L101.717 83.1608ZM106.42 68.8161C106.271 69.094 105.822 69.0512 105.587 68.9657C104.967 68.7092 104.304 68.6237 103.705 68.3671C103.15 68.132 102.594 68.1106 102.145 68.0465C100.712 68.0037 99.6007 68.6878 98.3822 69.0298C97.5698 69.2436 96.8002 69.1154 95.9879 69.094C95.8168 69.094 95.5603 68.9657 95.5389 68.7733C95.4961 68.5595 95.6886 68.3885 95.8596 68.303C97.6553 67.5548 99.3442 66.5072 101.29 66.1652C102.145 66.0155 102.978 66.1652 103.769 66.55C104.582 66.9562 105.351 67.4051 106.057 67.9609C106.335 68.1747 106.57 68.5168 106.399 68.8374L106.42 68.8161Z" fill="#79CBE8"/>
<path fill-rule="evenodd" clip-rule="evenodd" d="M18.0649 45.3857C18.7276 45.5353 18.749 46.0698 18.7063 46.7111C18.4925 49.0627 18.2787 51.4357 18.1077 53.7659C18.0649 54.3217 17.8511 54.7279 17.4663 55.0913C17.0388 55.4761 16.6967 55.412 16.5898 54.8989C16.5257 54.6638 16.5043 54.4072 16.5684 54.1507C16.9746 52.2694 16.7608 50.3881 17.0815 48.5069C17.167 48.0793 16.9532 47.6731 17.0815 47.2028C17.167 46.9249 16.9105 46.8821 16.6753 46.818C15.3071 46.476 13.8534 46.6042 12.4425 46.5828C11.7156 46.5828 10.9888 46.5615 10.2405 46.6256C9.49229 46.6897 9.15024 46.1339 8.65855 45.7919C8.46615 45.6636 8.44477 45.3429 8.57304 45.0864C8.72268 44.8085 8.91509 44.6161 9.27851 44.6161C10.326 44.6161 11.3522 44.6802 12.4211 44.5519C13.1266 44.4878 13.7679 44.7871 14.4948 44.5519C14.9651 44.4023 15.3713 44.7443 15.8202 44.8298C16.5898 44.9795 17.5091 44.6802 18.0863 45.3857H18.0649Z" fill="#1E6E68"/>
<path fill-rule="evenodd" clip-rule="evenodd" d="M32.6232 34.547C33.2859 34.6966 33.3073 35.2311 33.2646 35.8724C33.0508 38.224 33.2004 40.7466 33.0294 43.0982C32.9867 43.6541 32.7087 54.1293 32.3239 54.4927C31.8964 54.8776 31.5971 54.3003 31.4688 53.7873C31.4047 53.5521 31.5971 43.9961 31.6398 43.7182C32.046 41.8369 31.9605 39.6564 31.9605 37.8392C31.9605 36.0221 31.4474 36.0221 31.2336 35.9793C29.8654 35.6373 25.5898 35.3807 24.1575 35.3594C23.4306 35.3594 15.6918 35.3166 15.6918 35.3166C15.6918 35.3166 15.5635 34.1408 15.6918 33.8843C15.8414 33.6064 23.4734 33.7774 23.8368 33.7774C24.8844 33.7774 25.9105 33.8415 26.9794 33.7132C27.6849 33.6491 28.3262 33.9484 29.0531 33.7132C29.5234 33.5636 29.9296 33.9056 30.3785 33.9912C31.1481 34.1408 32.0674 33.8415 32.6446 34.547H32.6232Z" fill="#1E6E68"/>
<path fill-rule="evenodd" clip-rule="evenodd" d="M15.1576 48.571C15.3286 48.6993 15.2431 50.3882 15.0507 50.6233C14.9011 50.8157 13.3618 50.9226 13.1908 50.773C12.977 50.5806 13.0626 48.9986 13.2977 48.6779C13.426 48.5069 14.9438 48.4214 15.1576 48.5924V48.571Z" fill="#32746D"/>
<path fill-rule="evenodd" clip-rule="evenodd" d="M15.1576 52.2267C15.3286 52.3549 15.2431 54.0438 15.0507 54.279C14.9011 54.4714 13.3618 54.5782 13.1908 54.4286C12.977 54.2362 13.0626 52.6328 13.2977 52.3335C13.426 52.1625 14.9438 52.077 15.1576 52.248V52.2267Z" fill="#32746D"/>
<path fill-rule="evenodd" clip-rule="evenodd" d="M11.309 52.2267C11.48 52.3549 11.3945 54.0438 11.2021 54.279C11.0524 54.4714 9.51321 54.5782 9.34219 54.4286C9.12841 54.2362 9.21392 52.6328 9.44908 52.3335C9.57735 52.1625 11.1166 52.077 11.309 52.248V52.2267Z" fill="#32746D"/>
<path fill-rule="evenodd" clip-rule="evenodd" d="M11.309 48.571C11.48 48.6993 11.3945 50.3882 11.2021 50.6233C11.0524 50.8157 9.51321 50.9226 9.34219 50.773C9.12841 50.5806 9.21392 48.9986 9.44908 48.6779C9.57735 48.5069 11.1166 48.4214 11.309 48.5924V48.571Z" fill="#32746D"/>
<path fill-rule="evenodd" clip-rule="evenodd" d="M14.1737 45.2788C14.1737 45.2788 14.6654 36.0007 14.9433 35.7228C15.2212 35.4449 15.6915 35.2952 15.6915 35.2952L16.0336 33.7774C16.0336 33.7774 15.2212 33.8415 14.6868 34.098C14.1523 34.3546 13.7461 34.7608 13.6179 35.4235C13.4896 36.0862 13.3613 37.7537 13.4041 37.9889C13.4468 38.2026 13.4041 39.6777 13.4041 39.6777C13.4041 39.6777 13.1903 42.4355 13.1262 43.141C13.062 43.8465 13.1262 44.8298 13.1262 44.8298L14.2164 45.236L14.1737 45.2788Z" fill="#1E6E68"/>
<path fill-rule="evenodd" clip-rule="evenodd" d="M18.7062 39.8915C18.1076 39.8274 17.509 39.7846 16.9104 39.7205C16.7607 39.7205 16.8035 39.5495 16.8035 39.464C16.8035 39.3143 16.8035 39.1647 16.8035 39.015C16.8035 38.4378 16.9104 37.6468 16.9104 37.6468L18.4924 37.6896C18.4924 37.6896 18.7917 37.7323 18.813 37.9461C18.8772 38.5661 18.8558 39.1433 18.813 39.7419C18.813 39.806 18.7703 39.8488 18.7275 39.9343L18.7062 39.8915Z" fill="#32746D"/>
<path fill-rule="evenodd" clip-rule="evenodd" d="M22.34 40.2336C21.7415 40.1908 21.1429 40.1267 20.5443 40.0626C20.3946 40.0626 20.4374 39.8915 20.416 39.7846C20.416 39.635 20.416 39.4853 20.416 39.3357C20.416 38.6516 20.4588 37.9675 20.4588 37.9675H22.1049C22.1049 37.9675 22.4042 38.0316 22.4256 38.2454C22.4897 38.844 22.4683 39.4426 22.4256 40.0412C22.4256 40.1053 22.3828 40.1481 22.34 40.2336Z" fill="#32746D"/>
<path fill-rule="evenodd" clip-rule="evenodd" d="M18.5776 41.8369C18.5776 42.0935 18.6204 42.3928 18.6204 42.6493C18.6204 43.5044 18.2142 43.9035 17.4019 43.8465C17.2522 43.8465 17.1026 43.8037 16.9529 43.8251C16.675 43.8251 16.504 43.7396 16.5681 43.3975C16.5895 43.2265 16.5681 43.0555 16.5681 42.8845C16.6109 42.4783 16.3543 41.8369 16.6964 41.6873C17.1667 41.4735 17.7867 41.6445 18.3425 41.7087C18.4066 41.7087 18.4494 41.7514 18.5563 41.8155L18.5776 41.8369Z" fill="#32746D"/>
<path fill-rule="evenodd" clip-rule="evenodd" d="M25.91 38.2027C25.91 38.4806 25.9528 38.7371 25.9742 38.9936C25.9884 39.9058 25.5609 40.3262 24.6915 40.2549C24.1784 40.2122 23.9219 39.92 23.9219 39.3784C23.9219 37.9675 23.9219 37.9675 25.3328 38.0958C25.5039 38.0958 25.6963 38.1599 25.9314 38.2027H25.91Z" fill="#32746D"/>
<path fill-rule="evenodd" clip-rule="evenodd" d="M29.4802 38.502C29.4802 38.7799 29.523 39.0364 29.523 39.2929C29.5373 40.2051 29.1097 40.6255 28.2403 40.5542C27.7272 40.5115 27.4707 40.2193 27.4707 39.6777C27.4707 38.7371 27.941 38.3095 28.8817 38.3951C29.0527 38.3951 29.2451 38.4592 29.4802 38.502Z" fill="#32746D"/>
<path fill-rule="evenodd" clip-rule="evenodd" d="M22.1262 44.2954C21.5062 44.2313 20.8862 44.1671 20.2663 44.103C20.2663 44.103 20.2235 43.9534 20.2021 43.8678C20.2021 43.6968 20.2021 43.5258 20.2021 43.3548C20.2021 41.9011 20.4159 41.73 21.891 42.0721C22.0407 42.1148 22.1903 42.1148 22.2117 42.3286C22.2758 42.9272 22.2544 43.5258 22.2117 44.1244C22.2117 44.1885 22.1689 44.2313 22.1262 44.3168V44.2954Z" fill="#32746D"/>
<path fill-rule="evenodd" clip-rule="evenodd" d="M25.6966 42.2431C25.6966 42.6279 25.7394 42.9486 25.7394 43.2693C25.7394 44.4237 25.7394 44.4237 24.6277 44.3382C23.6871 44.2527 23.6871 44.2527 23.6871 43.2906C23.6871 41.7942 23.4733 42.1148 24.9056 42.1362C25.1408 42.1362 25.3973 42.2004 25.6752 42.2431H25.6966Z" fill="#32746D"/>
<path fill-rule="evenodd" clip-rule="evenodd" d="M29.4808 42.4569C29.4808 42.8417 29.5236 43.1624 29.5236 43.483C29.5236 44.2527 29.153 44.609 28.4119 44.5519C27.4713 44.4664 27.4713 44.4664 27.4713 43.5044C27.4713 42.0293 27.2575 42.35 28.6898 42.35C28.925 42.35 29.1815 42.4141 29.4594 42.4355L29.4808 42.4569Z" fill="#32746D"/>
<path fill-rule="evenodd" clip-rule="evenodd" d="M22.2121 48.2504C21.6135 48.2076 21.0149 48.1435 20.4164 48.0793C20.2667 48.0793 20.3095 47.9083 20.2881 47.8014C20.2881 47.6518 20.2881 47.5021 20.2881 47.3525C20.2881 46.6684 20.3308 45.9843 20.3308 45.9843H21.977C21.977 45.9843 22.2762 46.0484 22.2976 46.2622C22.3618 46.8608 22.3404 47.4594 22.2976 48.058C22.2976 48.1221 22.2549 48.1648 22.2121 48.2504Z" fill="#32746D"/>
<path fill-rule="evenodd" clip-rule="evenodd" d="M25.7821 46.2194C25.7821 46.4974 25.8249 46.7539 25.8462 47.0104C25.8605 47.9226 25.4329 48.343 24.5636 48.2717C24.0505 48.229 23.7939 47.9368 23.7939 47.3952C23.7939 45.9843 23.7939 45.9843 25.2049 46.1125C25.3759 46.1125 25.5683 46.1767 25.8035 46.2194H25.7821Z" fill="#32746D"/>
<path fill-rule="evenodd" clip-rule="evenodd" d="M29.3308 46.5187C29.3308 46.7967 29.3736 47.0532 29.3736 47.3097C29.3878 48.2219 28.9603 48.6423 28.0909 48.571C27.5778 48.5283 27.3213 48.2361 27.3213 47.6945C27.3213 46.7539 27.7916 46.3263 28.7322 46.4118C28.9033 46.4118 29.0957 46.476 29.3308 46.5187Z" fill="#32746D"/>
<path fill-rule="evenodd" clip-rule="evenodd" d="M21.9982 52.3122C21.3783 52.2481 20.7583 52.1839 20.1384 52.1198C20.1384 52.1198 20.0956 51.9701 20.0742 51.8846C20.0742 51.7136 20.0742 51.5426 20.0742 51.3716C20.0742 49.9178 20.288 49.7468 21.7631 50.0889C21.9127 50.1316 22.0624 50.1316 22.0838 50.3454C22.1479 50.944 22.1265 51.5426 22.0838 52.1412C22.0838 52.2053 22.041 52.2481 21.9982 52.3336V52.3122Z" fill="#32746D"/>
<path fill-rule="evenodd" clip-rule="evenodd" d="M25.5687 50.2599C25.5687 50.6447 25.6114 50.9654 25.6114 51.286C25.6114 52.4405 25.6114 52.4405 24.4998 52.355C23.5591 52.2694 23.5591 52.2694 23.5591 51.3074C23.5591 49.811 23.3454 50.1316 24.7777 50.153C25.0129 50.153 25.2694 50.2171 25.5473 50.2599H25.5687Z" fill="#32746D"/>
<path fill-rule="evenodd" clip-rule="evenodd" d="M29.3314 50.4737C29.3314 50.8585 29.3741 51.1792 29.3741 51.4998C29.3741 52.2694 29.0036 52.6257 28.2625 52.5687C27.3218 52.4832 27.3218 52.4832 27.3218 51.5212C27.3218 50.0461 27.1081 50.3668 28.5404 50.3668C28.7756 50.3668 29.0321 50.4309 29.31 50.4523L29.3314 50.4737Z" fill="#32746D"/>
</g>
<defs>
<clipPath id="clip0_35_10881">
<rect width="121" height="121" fill="white"/>
</clipPath>
</defs>
</svg>
