<svg width="122" height="114" viewBox="0 0 122 114" fill="none" xmlns="http://www.w3.org/2000/svg">
<g clip-path="url(#clip0_125_19726)">
<path fill-rule="evenodd" clip-rule="evenodd" d="M119.297 67.5624C119.183 68.0895 118.984 68.6165 118.97 69.1578C118.899 71.266 117.59 73.0893 115.599 73.7873C115.386 73.8585 115.158 74.0152 115.059 74.2004C114.476 75.2403 113.48 75.6676 112.47 76.1092C110.835 76.8357 109.285 77.7473 107.635 78.4026C105.971 79.0436 104.364 79.7273 102.828 80.639C101.661 81.337 100.268 81.6504 98.9733 82.1204C98.2479 82.3768 97.5084 82.6048 96.7831 82.8327C96.6835 82.8612 96.527 82.8897 96.4986 82.9609C95.9297 84.3141 94.6497 84.1859 93.5261 84.4423C92.175 84.7415 90.8665 84.5848 89.5581 84.2429C89.302 84.1717 88.9749 84.0292 88.8612 83.8156C88.3065 82.8042 87.8229 81.7501 87.2967 80.7102C87.1687 80.4538 86.9838 80.2259 86.7847 80.0122C86.1589 79.3427 86.1447 78.9439 86.7278 78.2174C85.8602 76.4511 84.3526 75.1548 83.5704 73.3457C83.3855 72.9184 82.8451 72.605 82.518 72.1207C81.3659 70.3544 80.0859 68.6877 78.8486 66.9926C77.597 65.2832 76.317 63.5881 75.0654 61.8788C74.9374 61.7078 74.8947 61.4657 74.7667 61.2805C74.5107 60.8817 74.2405 60.497 73.9703 60.1124C73.8707 59.9842 73.7285 59.8845 73.6289 59.7563C72.7614 58.6452 71.652 57.6196 71.1258 56.3661C70.4004 54.6567 68.8502 53.5741 68.1533 51.879C67.8404 51.1098 67.0439 50.54 66.5462 49.8278C66.1906 49.3007 66.0199 48.6455 65.6786 48.1042C65.2235 47.3777 64.6404 46.7367 64.171 46.0102C63.3461 44.7709 62.6208 43.4747 61.7532 42.2496C61.2981 41.6086 60.7861 40.9961 59.7763 41.0246C58.7807 41.0531 57.7851 40.7112 56.7896 40.5973C55.7087 40.4691 54.6278 40.3693 53.5469 40.3693C52.1957 40.3693 50.9584 39.999 49.8917 39.244C49.337 38.8452 48.9957 38.1614 48.5406 37.6344C47.8437 36.8367 47.0899 36.2526 45.9379 36.0247C44.6294 35.7683 43.3067 35.4549 42.0694 34.7997C41.4009 34.4436 40.6756 34.1872 40.0071 33.7456C39.0826 33.1331 39.1253 32.1644 39.2249 31.4379C39.3244 30.6545 38.9973 30.2699 38.6275 29.8425C37.9306 29.0591 36.9919 28.6745 35.9964 28.4466C34.3181 28.062 32.6541 27.6774 30.9759 27.307C30.5919 27.2215 30.1794 27.2927 29.8238 27.1503C28.7714 26.7514 27.7616 26.2244 26.6949 25.8683C25.5144 25.4694 24.7322 24.3441 23.6798 24.0022C21.6886 23.347 21.3331 21.5379 20.3801 20.1562C20.2521 19.971 20.2948 19.6291 20.3375 19.3727C20.4939 18.518 20.4939 17.6206 19.9393 16.9511C19.4415 16.3528 18.7303 15.9113 18.0761 15.4697C17.5499 15.1136 16.8957 14.9284 16.3836 14.5295C16.0281 14.2589 15.7863 13.7888 15.5587 13.3757C15.4876 13.2475 15.5587 12.9056 15.6725 12.8344C16.6539 12.2219 17.3081 11.1251 18.645 11.0253C19.797 10.9399 20.9348 10.6123 22.0868 10.4128C23.1393 10.2419 24.206 10.1564 25.2584 9.92851C25.6851 9.82879 26.0549 9.44419 26.4816 9.27325C27.7474 8.78893 27.6194 7.87728 27.4629 6.79468C27.278 5.44144 27.9465 4.50129 29.1696 3.8033C30.4923 3.04834 31.9145 3.04834 33.3368 2.83467C34.4746 2.66373 35.6266 2.47855 36.7644 2.25064C38.4284 1.93725 40.0782 1.50991 41.7422 1.26775C42.6667 1.13955 43.648 1.35322 44.6009 1.32473C46.777 1.26775 48.953 1.1538 51.129 1.05408C51.2713 1.05408 51.4277 0.940127 51.5699 0.883148H51.9255C52.9068 0.954371 53.8882 1.05408 54.8695 1.09682C55.8509 1.12531 56.9034 0.840414 57.7851 1.13955C58.9087 1.50991 59.9896 2.2079 60.9141 2.97711C61.3692 3.36172 62.0945 3.94575 61.7105 4.87165C61.6536 4.99986 61.9523 5.45568 62.1372 5.49842C64.1283 5.85453 65.5364 7.57814 67.6555 7.6921C68.5657 7.73483 69.4618 8.24764 70.3578 8.53253C70.8129 8.67498 71.2965 8.77469 71.7516 8.94563C72.8609 9.37297 73.956 9.84304 75.0654 10.2846C76.4165 10.8259 77.7819 11.353 79.133 11.88C80.1428 12.2646 81.1526 12.635 82.1482 13.0338C82.6175 13.219 83.158 13.3615 83.542 13.6891C85.4335 15.3415 87.2825 17.0366 89.1314 18.7317C89.4158 19.0024 89.6718 19.3015 89.8994 19.6291C90.3829 20.3129 90.8381 21.0251 91.3216 21.7088C91.9759 22.6063 92.687 23.4752 93.3412 24.3868C94.1661 25.5264 94.9341 26.7087 95.759 27.8483C96.4844 28.8454 97.2808 29.7856 98.0346 30.7684C98.7315 31.6659 99.4142 32.5918 100.097 33.5034C100.58 34.1444 101.078 34.7569 101.519 35.4264C101.974 36.1244 102.33 36.8936 102.813 37.5631C103.596 38.6742 104.52 39.6856 105.274 40.8109C106.867 43.204 108.389 45.6541 109.953 48.0757C110.949 49.6141 111.973 51.1241 112.954 52.6767C113.637 53.7451 114.234 54.8704 114.945 55.9245C115.528 56.7934 116.211 57.5911 116.865 58.4173C118.145 60.0412 118.771 61.8503 118.686 63.9727C118.643 64.742 119.112 65.5397 119.354 66.3231V67.5624H119.297Z" fill="white"/>
<path fill-rule="evenodd" clip-rule="evenodd" d="M10.4818 5.27051C10.5387 6.06821 10.7378 6.83742 10.6098 7.5639C10.5529 7.92002 9.98403 8.30462 9.55735 8.46131C7.52355 9.25901 5.54663 8.81743 3.72616 7.8203C3.32793 7.60663 3.04348 6.70922 3.14304 6.2249C3.22837 5.8403 3.95372 5.39871 4.43728 5.32749C5.91641 5.12806 7.42399 5.05684 8.91734 4.99986C9.40091 4.98562 9.89869 5.1708 10.4676 5.27051H10.4818Z" fill="white"/>
<path fill-rule="evenodd" clip-rule="evenodd" d="M43.3209 54.5285C42.9796 53.2465 41.7138 52.9189 40.8178 52.3206C39.7511 51.6084 38.4142 51.3235 37.1768 50.8677C36.7502 50.711 36.2808 50.6398 35.8257 50.5116C34.2044 50.0557 32.5688 49.6426 30.9901 49.0871C29.9519 48.7167 29.0274 48.0045 27.9749 47.6769C27.2923 47.4632 26.4674 47.6056 25.742 47.7623C25.5145 47.8051 25.4433 48.4318 25.2585 48.7737C25.1731 48.9446 25.0024 49.0871 24.8887 49.258C24.718 49.5144 24.5047 49.7708 24.4193 50.07C23.9642 51.6369 23.5518 53.2038 23.1109 54.7707C22.6273 56.4801 22.0157 58.1752 21.6317 59.9273C21.2619 61.6509 21.0913 63.4315 20.8779 65.1978C20.7215 66.4798 20.5793 67.7618 20.5082 69.0581C20.4513 70.0695 21.1624 71.0808 20.5366 72.1065C20.4797 72.1919 20.5366 72.3344 20.5366 72.4626C20.5793 73.7731 20.6504 75.0836 20.6504 76.3941C20.6504 76.9781 20.7499 77.377 21.4042 77.4625C21.902 77.5194 22.414 77.5907 22.9829 77.6619C23.0966 77.961 23.2246 78.3314 23.3953 78.8014C22.9686 78.8014 22.5846 78.7587 22.2291 78.8014L25.1731 80.8812C25.1731 80.7672 25.1731 80.639 25.1731 80.5535C25.1731 80.4681 25.5002 80.2829 25.6425 80.3114C26.7376 80.4966 27.4771 79.9125 28.1883 79.2145C28.8994 78.5166 29.639 77.8613 30.3216 77.1348C30.8052 76.622 31.2461 76.038 31.6728 75.4682C32.0994 74.9127 32.4692 74.3286 32.9101 73.7873C33.3226 73.2745 33.8346 72.8472 34.1901 72.3059C34.5884 71.6934 34.8159 70.9669 35.2142 70.3401C36.2382 68.7732 37.3617 67.2775 38.3431 65.6821C39.04 64.5568 39.5662 63.3175 40.2062 62.1637C40.7609 61.1666 41.4436 60.2407 41.9414 59.215C42.5245 58.0185 42.9796 56.765 43.4347 55.5114C43.5343 55.2408 43.392 54.8704 43.3067 54.5713L43.3209 54.5285Z" fill="white"/>
<path fill-rule="evenodd" clip-rule="evenodd" d="M17.1947 111.365L20.5086 102.818L24.9602 91.7783L26.2118 80.8384L21.7033 78.5878L17.1947 80.8384L8.95996 104.428V108.345L9.67108 111.365L13.7671 112.262L17.1947 111.365Z" fill="#E06765"/>
<path fill-rule="evenodd" clip-rule="evenodd" d="M79.7734 22.8057C79.7734 22.8057 80.1859 18.2474 82.3761 16.4526C84.5806 14.6577 88.122 14.1734 88.6056 16.4526C89.0891 18.7317 116.695 55.4544 118.473 61.4942L120.25 67.5481L117.406 70.3971H111.361L79.7734 22.8057Z" fill="#E06765"/>
<path fill-rule="evenodd" clip-rule="evenodd" d="M90.6394 43.5601C90.426 44.9846 89.6865 46.3236 90.1558 47.7766C90.2554 48.0757 90.1558 48.3891 89.8714 48.56C89.146 48.9874 88.3496 48.8022 87.61 48.7167C87.0695 48.6597 87.0695 48.033 86.8846 47.6056C86.1877 46.1099 86.97 44.6997 87.098 43.261C87.2118 41.9647 87.3398 40.6685 87.4251 39.3722C87.482 38.4321 86.9558 37.6201 86.4438 36.9649C85.05 35.1131 83.8979 33.1046 82.6321 31.1673C82.0348 30.2699 81.4801 29.344 81.3521 28.2614C81.2241 27.2927 80.5272 26.6945 79.9441 26.0392C78.1236 23.9595 77.9814 21.3385 78.5787 19.0024C79.0908 17.0081 80.769 15.4412 83.0873 14.8999C85.1637 14.4156 87.0411 14.5865 88.9327 15.6121C89.9282 16.1534 90.6678 16.9226 91.2936 17.7346C92.9434 19.8855 94.4225 22.1647 95.987 24.4011C97.9639 27.2215 99.8982 30.0562 101.932 32.8339C103.397 34.8424 105.175 36.6372 106.483 38.7312C107.777 40.7824 109.143 42.7909 110.551 44.7567C112.656 47.7053 114.561 50.7964 116.567 53.7878C117.363 54.9844 118.032 56.2379 118.743 57.4772C119.482 58.7592 120.265 60.027 121.047 61.2663C122.114 62.9329 122.014 64.6992 122 66.4513C121.971 68.9726 120.336 70.5965 118.316 71.7361C115.898 73.0893 113.338 72.9754 110.807 71.8785C110.508 71.7503 110.323 71.5936 110.153 71.3515C109.171 69.8415 108.275 68.2461 107.137 66.8502C105.658 65.0268 104.705 62.8474 103.198 61.0526C101.576 59.1296 100.268 56.9501 98.8457 54.8846C97.5515 53.0044 96.0723 51.2095 95.0341 49.1583C94.6501 48.4033 94.2519 48.4033 93.7399 49.1156C93.4554 49.5002 93.2421 49.9275 92.9434 50.2979C92.5452 50.7822 92.0047 50.7964 91.4785 50.5828C90.9523 50.3691 90.7958 49.899 90.9096 49.4005C91.2225 48.1327 90.8527 46.7652 91.4643 45.5402C91.9052 44.657 91.1229 44.1869 90.6394 43.5744V43.5601ZM117.463 61.5796C115.856 59.3717 115.159 56.8789 113.609 54.8134C112.044 52.7195 110.793 50.3976 109.299 48.2609C107.365 45.5117 105.331 42.8337 103.397 40.0702C102.245 38.4178 101.107 36.7654 99.8697 35.17C98.8173 33.8168 97.8359 32.4066 96.8119 31.0391C95.8448 29.7571 95.1479 28.3184 94.1096 27.0791C92.0332 24.572 90.4545 21.7088 88.378 19.2018C87.6669 18.3471 86.8562 17.7346 86.0313 17.0793C85.7753 16.8799 85.434 16.7517 85.0357 16.8657C82.7317 17.5494 81.2952 20.2559 81.9495 22.6347C82.3335 24.045 83.4428 25.0991 83.8126 26.4666C84.1824 27.8198 84.8793 28.9594 85.6331 30.0847C85.8606 30.4266 86.0029 30.8254 86.202 31.1958C87.1833 32.9621 88.4918 34.5005 89.4873 36.2526C90.5398 38.0902 91.9905 39.6998 93.1141 41.5089C94.9488 44.486 96.9968 47.335 99.1017 50.0984C102.188 54.1582 105.175 58.2606 107.877 62.5768C108.46 63.5027 109.399 64.1294 109.783 65.1266C110.423 66.8359 111.731 68.0752 112.812 69.4712C113.452 70.2974 114.903 70.511 115.742 70.0267C117.065 69.2575 117.989 68.1322 118.501 66.6935C118.714 66.0809 118.231 64.8132 117.634 64.4713C116.908 64.044 116.61 64.8132 116.14 65.0838C115.671 65.3687 115.358 65.8103 115.202 66.3374C115.045 66.8502 114.633 67.0781 114.177 67.2633C113.793 67.4342 113.353 67.5909 112.997 67.306C112.641 67.0069 112.727 66.551 112.798 66.1237C113.068 64.3431 115.258 62.0782 117.434 61.5654L117.463 61.5796Z" fill="#31736D"/>
<path fill-rule="evenodd" clip-rule="evenodd" d="M61.526 3.16232C63.4887 3.04836 65.9491 4.17369 68.4381 5.05686C71.1688 6.01125 73.8568 7.12233 76.5591 8.17643C78.2231 8.83169 79.7307 9.78608 81.1814 10.8402C81.4658 11.0539 81.7076 11.3245 81.9067 11.6236C82.1769 12.0225 82.3476 12.4926 82.0632 12.9626C81.7787 13.447 81.2667 13.4754 80.7974 13.4042C80.1005 13.3045 79.4178 13.2333 78.8347 12.692C77.4409 11.3672 75.6773 10.6693 73.9137 9.95702C72.1075 9.23054 70.3297 8.40435 68.5234 7.67787C66.5323 6.88017 64.5269 6.15369 62.4362 5.68362C61.6682 5.51268 61.2842 5.49844 61.0566 6.43859C60.6442 8.16219 60.3455 9.91428 59.9615 11.6379C59.4353 14.0167 59.3642 16.4526 58.8948 18.8314C58.1695 22.5351 57.7428 26.3099 57.2166 30.0562C57.0601 31.21 57.6859 32.2357 57.8708 33.3467C58.2548 35.6829 59.6202 37.6059 60.8433 39.5574C62.3935 42.0075 64.0576 44.3864 65.7927 46.694C68.3385 50.0557 70.0168 53.9445 72.5626 57.292C75.1368 60.6822 77.0853 64.4856 79.6169 67.9185C80.8827 69.6421 81.736 71.6364 82.9592 73.3315C84.2676 75.1548 85.3343 77.1348 86.7139 78.9154C87.4535 79.884 88.0792 80.9524 88.6908 82.0065C88.961 82.4908 89.2597 82.9324 89.6722 83.26C91.0375 84.3711 90.4402 84.5136 92.3886 83.7443C94.3798 82.9609 96.4278 82.3626 98.2483 81.2088C100.751 79.6276 103.454 78.4453 106.085 77.1063C107.962 76.1519 109.925 75.3258 111.802 74.3144C112.556 73.9013 113.324 74.1719 114.064 74.2716C114.803 74.3714 115.017 75.0124 114.533 75.6106C114.163 76.0665 113.708 76.4796 113.21 76.793C111.987 77.5337 110.792 78.2744 109.456 78.8015C107.55 79.5564 105.829 80.7387 103.951 81.5222C102.088 82.3056 100.595 83.7728 98.5896 84.2287C98.1061 84.3426 97.7789 84.713 97.3807 84.9551C95.2473 86.3226 92.9006 86.8924 90.3691 86.8497C88.2641 86.8212 87.2828 85.3825 86.4294 83.7871C86.3014 83.5449 86.3299 83.1888 86.0739 83.0036C83.7414 81.1945 82.8738 78.3599 81.2525 76.038C80.8116 75.4112 80.2569 74.8984 79.8445 74.2432C78.5644 72.1207 77.1991 70.0837 76.0613 67.8758C75.5493 66.8929 74.7386 66.0667 74.127 65.1123C72.6479 62.8474 71.1688 60.611 69.7323 58.3034C68.9643 57.0783 68.1394 55.8106 67.1581 54.7137C66.8309 54.3434 66.646 53.9303 66.4327 53.5029C65.2807 51.1811 63.7162 49.1298 62.2655 46.9789C60.2602 44.016 57.8566 41.281 56.349 38.0047C55.2254 35.5404 54.045 33.0761 53.8885 30.2841C53.8601 29.928 53.8601 29.5862 53.8885 29.23C54.3579 25.4695 54.6992 21.6661 55.3534 17.934C55.8939 14.8999 56.1357 11.8373 56.8041 8.81745C57.0886 7.54967 57.5721 6.35312 57.8139 5.05686C58.0984 3.48994 58.781 3.17656 61.526 3.14807V3.16232Z" fill="#31736D"/>
<path fill-rule="evenodd" clip-rule="evenodd" d="M14.4072 113.957C12.3592 114.185 10.5102 113.345 8.7751 112.547C7.76531 112.077 7.13952 110.667 6.58485 109.484C5.9875 108.202 6.32884 107.191 6.82663 105.966C7.40975 104.57 7.77953 103.046 8.17776 101.564C8.49065 100.368 8.83199 99.1713 9.24444 98.0317C10.0836 95.7098 10.6525 93.3025 11.6623 91.0091C12.4587 89.2 13.0134 87.2628 14.1227 85.5676C14.6205 84.8127 14.1654 83.6589 15.1467 83.0891C15.1894 81.0094 17.0241 80.0265 18.0908 78.6163C19.0437 77.3342 20.8357 77.3912 22.4144 77.6904C22.9975 77.8043 23.5807 77.9752 24.1069 78.2316C25.2162 78.7587 26.6669 78.9724 27.1789 80.1832C27.7336 81.4937 28.2883 82.9039 28.1176 84.4281C27.9043 86.4081 27.378 88.3311 26.994 90.2684C26.2971 93.7298 25.0313 96.9776 23.8509 100.254C22.6989 103.416 21.6322 106.621 19.9824 109.584C19.8686 109.784 19.769 110.011 19.6837 110.225C18.5601 113.217 17.4934 113.986 14.4356 113.957H14.4072ZM14.4783 111.45C13.7956 110.482 13.1129 109.883 12.1743 109.57C11.6907 109.413 11.3067 109.143 11.3778 108.544C11.4489 107.875 11.9467 107.675 12.5156 107.647C13.7103 107.59 14.8623 107.604 15.8294 108.53C16.4837 109.157 16.8677 109.043 17.1237 108.231C17.7495 106.279 18.5459 104.399 19.2144 102.476C19.9824 100.297 20.8357 98.1599 21.5895 95.9947C22.8695 92.2911 24.1353 88.616 24.6189 84.713C24.7611 83.6019 24.3487 82.6048 24.1353 81.5791C23.9931 80.8527 21.8597 79.8983 21.1344 80.0407C20.7931 80.1119 20.6224 80.3399 20.4802 80.582C19.6126 81.9638 18.617 83.2743 17.9486 84.7415C16.5974 87.7044 15.417 90.7242 14.2081 93.7441C13.8098 94.727 13.5681 95.7668 13.2267 96.7782C12.16 99.912 11.4774 103.16 10.2258 106.237C9.07377 109.057 11.1645 111.778 14.4925 111.45H14.4783Z" fill="#31736D"/>
<path fill-rule="evenodd" clip-rule="evenodd" d="M18.5458 69.7276C18.432 66.8217 19.0435 64.0725 19.3991 61.309C19.9538 57.1068 20.8925 52.9759 21.8454 48.8449C22.016 48.09 22.2863 47.3635 22.5849 46.6513C23.2107 45.1698 23.9645 44.8422 25.529 45.2553C25.5859 45.2553 25.6427 45.298 25.6996 45.3123C29.1272 46.4233 32.5833 47.4205 35.8829 48.9304C36.9922 49.429 38.2154 49.8705 39.4243 50.0842C40.747 50.3121 41.7283 51.2665 43.0368 51.5229C43.947 51.7081 44.4164 52.7052 44.2315 53.6596C43.7479 56.0812 43.0083 58.3889 41.8421 60.6253C41.0172 62.2064 40.1781 63.8446 39.6092 65.5967C39.0261 67.42 37.874 69.0581 36.9354 70.7675C35.5558 73.2888 33.7353 75.4967 31.9006 77.7046C31.7157 77.9325 31.5166 78.1604 31.2748 78.3456C30.8339 78.7017 29.4686 78.7017 29.0988 78.3456C28.5015 77.7331 29.0988 77.32 29.3264 76.793C29.7388 75.8528 30.2935 75.0836 31.0046 74.3571C31.6446 73.7161 32.1566 72.8044 32.4268 72.0352C33.3797 69.2718 35.2856 67.0496 36.3522 64.3574C37.1487 62.3489 38.2154 60.4401 39.1825 58.5028C39.7229 57.406 40.3203 56.1809 40.5194 54.8704C40.747 53.4175 40.6047 53.2323 39.1967 52.8192C37.5611 52.3349 35.9825 51.6654 34.3895 51.0813C31.7868 50.127 29.1841 49.1726 26.5672 48.2182C26.1548 48.0615 25.8703 48.1469 25.7281 48.5743C25.4721 49.4147 25.145 50.2409 24.9316 51.1098C24.3627 53.4745 23.9645 55.8676 23.5378 58.2607C23.3103 59.5997 23.0543 60.9386 22.784 62.2634C22.5423 63.4742 22.6276 64.7562 22.4285 65.91C22.2151 67.1493 22.0445 68.3744 22.0587 69.5994C22.0587 71.38 21.4756 72.9896 20.8782 74.6135C20.5511 75.4967 20.0533 75.5252 19.4275 74.8272C18.8871 74.2147 18.7591 73.4312 18.6026 72.6905C18.4035 71.6934 18.4035 70.6678 18.5173 69.7561L18.5458 69.7276Z" fill="#31736D"/>
<path fill-rule="evenodd" clip-rule="evenodd" d="M46.6637 2.40729C46.0237 2.32182 45.0708 2.35031 44.1321 2.47851C41.5152 2.82039 38.9267 2.36456 36.3098 2.36456C34.66 2.36456 33.0102 2.56398 31.3319 2.45002C30.1657 2.36456 29.0421 2.99132 28.0181 3.60384C27.2074 4.08816 27.0083 5.09953 27.3639 6.1109C28.203 8.48976 27.1363 10.2703 24.6901 10.8971C22.8554 11.3672 20.978 11.5809 19.1291 11.9512C18.2331 12.1221 17.4509 12.521 16.7255 13.0623C15.8011 13.746 15.8437 14.615 16.8393 15.1563C17.3513 15.4412 17.9344 15.6263 18.4891 15.8115C20.0962 16.3528 21.0207 17.2787 21.1771 19.1305C21.4047 22.0364 22.4145 22.9481 25.3585 23.4609C26.0128 23.5749 26.6528 23.6888 27.2501 23.9737C27.819 24.2444 28.3026 24.6717 28.1746 25.3554C28.0466 26.0677 27.3781 26.2956 26.795 26.2101C25.515 26.0392 24.1781 26.0392 22.9834 25.4124C22.6136 25.2272 22.258 24.9281 21.874 24.8711C19.5558 24.5008 17.8633 22.1077 17.7495 19.6861C17.6784 18.1049 17.6215 18.1619 16.1566 17.6491C14.9335 17.2075 13.7815 16.6377 13.0846 15.3842C12.2312 13.8458 12.7006 12.1791 14.2224 11.3244C16.8677 9.843 19.7691 9.3017 22.6847 8.76041C24.107 8.504 24.3772 8.13364 23.9932 6.70918C23.2109 3.76053 25.0314 1.95146 27.1932 0.897356C28.8146 0.0854109 30.5924 -0.085525 32.3986 0.0426769C35.5987 0.270591 38.8129 0.0426769 42.013 0.0996555C45.5259 0.170879 49.0389 0.128145 52.5376 0.170879C53.0638 0.170879 53.6043 0.313325 54.1163 0.427283C54.671 0.54124 54.8985 0.96858 54.8843 1.48139C54.8843 1.97995 54.4576 2.17938 54.0594 2.29333C53.7181 2.39305 53.3483 2.42153 53.0069 2.42153C50.9873 2.42153 48.982 2.42153 46.6495 2.42153L46.6637 2.40729Z" fill="#31736D"/>
<path fill-rule="evenodd" clip-rule="evenodd" d="M52.2676 42.0787C50.3618 41.8793 48.3849 41.1955 47.4747 38.7739C46.8773 37.1928 45.4267 36.9506 44.0044 36.6942C42.6675 36.4378 41.2879 36.737 39.9368 36.2954C37.7608 35.5974 37.0496 34.3011 37.8177 32.1074C38.3012 30.7115 37.9599 29.9992 36.5234 29.6004C35.6701 29.3582 34.7741 29.2443 33.9207 29.0021C32.9251 28.7315 32.4274 28.1902 32.6122 27.6061C32.8683 26.8369 33.5367 26.723 34.2194 26.7657C36.0683 26.8939 37.8461 27.3355 39.4959 28.2044C41.4302 29.2158 41.999 30.6687 41.3164 32.7342C40.847 34.1444 40.8897 34.2726 42.4257 34.2014C44.0613 34.1159 45.6684 34.4151 47.1618 34.8852C48.6125 35.341 50.1627 36.1244 50.6321 37.905C50.9592 39.187 51.6987 39.8138 53.0783 39.6856C53.5903 39.6429 54.1308 39.885 54.657 39.9847C55.1264 40.056 55.425 40.2981 55.4961 40.7682C55.5815 41.338 55.2259 41.6229 54.7708 41.8508C54.0881 42.1927 53.377 42.1072 52.2676 42.0787Z" fill="#31736D"/>
<path fill-rule="evenodd" clip-rule="evenodd" d="M8.4908 9.48694C8.00724 9.37298 7.58057 9.51543 7.12545 9.70061C5.73165 10.2704 4.38052 10.1707 3.08628 9.316C2.70228 9.0596 2.21871 8.9314 1.80626 8.71773C0.782247 8.19067 -0.113766 6.68074 1.33384e-05 5.69786C0.128015 4.77196 1.28003 3.70361 2.46049 3.46145C4.3663 3.04835 6.2721 2.53554 8.24902 2.56403C9.7566 2.59252 11.1931 2.80619 12.402 3.83181C13.7673 4.99987 13.8669 6.31038 12.6438 7.60664C11.4206 8.90291 10.0126 9.54392 8.4908 9.47269V9.48694ZM6.1441 7.60664C7.21079 7.63513 7.99302 7.09383 8.87481 6.96563C9.52904 6.86592 9.96994 6.35311 9.87038 5.68361C9.72816 4.84318 9.00281 4.75771 8.33436 4.90016C7.39568 5.11383 6.44277 5.09958 5.50409 5.1993C4.77875 5.27052 3.6694 5.15656 3.59829 6.05397C3.5414 6.80894 4.53697 7.15081 5.26231 7.42146C5.58943 7.54966 5.95921 7.56391 6.15833 7.60664H6.1441Z" fill="#31736D"/>
<path fill-rule="evenodd" clip-rule="evenodd" d="M6.1444 7.59238C5.94529 7.54964 5.5755 7.5354 5.24839 7.4072C4.52304 7.13655 3.52747 6.79468 3.58436 6.03971C3.65548 5.1423 4.76483 5.25626 5.49017 5.18503C6.42885 5.08532 7.38175 5.09956 8.32043 4.88589C8.98889 4.74345 9.72845 4.82892 9.85646 5.66935C9.97023 6.3246 9.51512 6.85166 8.86089 6.95137C7.9791 7.07957 7.19686 7.62087 6.13018 7.59238H6.1444Z" fill="#FDFDFD"/>
</g>
<defs>
<clipPath id="clip0_125_19726">
<rect width="122" height="114" fill="white"/>
</clipPath>
</defs>
</svg>
