<svg width="176" height="122" viewBox="0 0 176 122" fill="none" xmlns="http://www.w3.org/2000/svg">
<g clip-path="url(#clip0_125_19801)">
<path d="M105.212 0H110.093C110.25 0.128994 110.407 0.37265 110.535 0.343985C112.162 0.100329 113.618 1.13228 115.288 0.917293C116.187 0.802632 117.2 1.41894 118.156 1.73426C119.741 2.2359 121.296 2.80921 122.895 3.26786C123.951 3.56884 125.05 3.71217 126.106 3.99883C127.347 4.32848 128.561 4.71546 129.788 5.10244C131.629 5.67575 133.442 6.27773 135.268 6.86537C136.981 7.42434 138.751 7.83999 140.363 8.61396C141.134 8.97227 141.805 9.38792 142.675 9.30193C142.761 9.30193 142.847 9.45959 142.947 9.51692C143.603 9.91823 144.245 10.3912 144.945 10.6922C146.229 11.2368 147.556 11.6812 148.884 12.1541C149.94 12.5268 151.01 12.8708 152.081 13.2148C153.037 13.5301 154.036 13.7881 154.978 14.1607C156.605 14.82 158.217 15.508 159.787 16.2676C161.657 17.1562 163.498 18.1165 165.339 19.0625C166.609 19.7218 167.865 20.3954 169.121 21.0691C170.52 21.8144 171.904 22.574 173.303 23.305C173.631 23.477 174.045 23.4913 174.387 23.6346C174.687 23.7636 175.158 23.9356 175.187 24.1506C175.358 25.0822 175.372 26.0282 175.472 26.9742C175.501 27.3038 175.615 27.6335 175.686 27.9631V35.0435C175.586 36.6057 175.486 38.1823 175.401 39.7446C175.358 40.4326 175.344 41.1205 175.401 41.8085C175.458 42.5825 175.6 43.3421 175.7 44.1161V46.481C175.629 47.1116 175.486 47.7422 175.486 48.3729C175.486 49.1325 175.629 49.8922 175.7 50.6518V84.778C175.643 84.9213 175.529 85.0789 175.529 85.2223C175.529 86.6125 175.529 88.0172 175.529 89.4074C175.529 89.5651 175.643 89.7084 175.7 89.8517V100.014C175.629 100.773 175.486 101.519 175.486 102.278C175.486 103.038 175.629 103.797 175.7 104.557V117.629C175.643 118.202 175.6 118.775 175.501 119.348C175.443 119.635 175.329 120.065 175.129 120.137C174.43 120.395 173.888 121.326 172.946 120.724C172.875 120.681 172.732 120.782 172.618 120.81C171.462 121.083 170.32 121.369 169.15 121.599C168.379 121.756 167.608 121.857 166.838 121.971H163.94C163.098 121.785 162.242 121.599 161.4 121.427C160.801 121.298 160.187 121.169 159.587 121.068C158.446 120.868 157.29 120.71 156.148 120.509C155.691 120.423 155.235 120.323 154.821 120.151C153.593 119.649 152.152 120.151 151.01 119.305C150.939 119.248 150.725 119.248 150.682 119.305C150.225 119.864 149.811 119.363 149.383 119.277C149.183 119.234 148.998 119.133 148.798 119.148C146.557 119.234 144.331 119.363 142.09 119.434C140.963 119.477 139.85 119.377 138.722 119.463C137.395 119.563 136.082 119.764 134.769 119.936C132.913 120.18 131.087 120.524 129.217 120.696C127.419 120.853 125.592 120.839 123.78 120.925C121.439 121.025 119.084 121.197 116.744 121.24C115.045 121.269 113.333 121.14 111.62 121.097C108.98 121.025 106.368 120.724 103.742 120.395C101.944 120.165 100.117 120.022 98.3043 120.036C96.3491 120.036 94.3796 119.879 92.4101 120.137C91.568 120.251 90.726 119.879 89.7698 119.979C86.9725 120.28 84.1324 120.266 81.3066 120.366C81.1211 120.366 80.9498 120.366 80.7643 120.38C79.1373 120.552 77.5103 120.796 75.869 120.882C74.2278 120.968 72.5865 120.896 70.9452 120.882C69.9462 120.882 68.9329 120.954 67.9339 120.853C65.1937 120.595 62.4535 120.251 59.7133 119.979C57.3728 119.75 55.0322 119.549 52.6916 119.406C49.2093 119.191 45.7555 118.761 42.2589 118.933C40.4607 119.033 38.6481 118.933 36.8356 118.861C34.5949 118.775 32.3543 118.589 30.1136 118.531C29.4285 118.503 28.7435 118.775 28.0442 118.818C26.8025 118.89 25.5609 118.847 24.3335 118.918C22.4068 119.019 20.5087 119.234 18.582 119.32C17.0977 119.377 15.6134 119.219 14.1292 119.262C12.9446 119.291 11.8742 118.933 10.7753 118.589C9.94752 118.331 9.07694 118.173 8.22063 117.973C8.02083 117.93 7.8353 117.858 7.63549 117.815C6.97899 117.686 6.33675 117.557 5.66598 117.442C5.42336 117.399 5.15219 117.442 4.90957 117.385C3.86773 117.17 2.82589 116.912 1.78405 116.726C0.94201 116.568 0.185604 115.851 0.171332 115.006C0.142788 113.515 0.199875 112.01 0.171332 110.505C0.15706 109.617 0.0428854 108.714 -0.0284736 107.825V105.102C0.0857009 105.044 0.299778 104.973 0.299778 104.93C0.271234 103.468 0.214147 102.02 0.15706 100.558C0.15706 100.386 0.0428854 100.2 -0.0142018 100.028V99.8416C0.15706 99.1393 0.442496 98.4514 0.456768 97.7491C0.485312 97.0038 0.285506 96.2298 0.15706 95.4845C0.128516 95.2982 0.0428854 95.1262 -0.0284736 94.9398V94.3952C0.0571572 94.2519 0.214147 94.0942 0.214147 93.9509C0.242691 93.1769 0.256963 92.4173 0.242691 91.6577C0.228419 90.3534 0.15706 89.0634 0.15706 87.7592C0.15706 86.1109 0.256963 84.477 0.256963 82.8287C0.256963 81.3524 0.242691 79.8618 0.185604 78.3856C0.171332 77.9699 0.0286136 77.5686 -0.0570172 77.1673V73.3548C0.0428854 72.9821 0.242691 72.5952 0.242691 72.2225C0.185604 71.0902 0.0571572 69.9579 -0.0570172 68.8257V68.281C0.0143418 68.1664 0.128516 68.0517 0.128516 67.9227C0.185604 66.3604 0.256963 64.8125 0.271234 63.2502C0.271234 61.086 0.199875 58.9074 0.185604 56.7432C0.185604 56.0266 0.256963 55.3099 0.285506 54.6363C0.142788 54.7223 0.0428854 54.7796 -0.0570172 54.8513V45.0477C6.99982e-05 44.7467 0.114244 44.4457 0.114244 44.1447C0.15706 41.4072 0.214147 38.6696 0.214147 35.9321C0.214147 35.3445 0.0286136 34.7425 -0.0712891 34.1548V33.7965C-0.0712891 33.7965 0.0571572 33.7392 0.0714291 33.6962C0.15706 31.9333 0.256963 30.1703 0.285506 28.3931C0.285506 27.2895 0.15706 26.1715 0.142788 25.0679C0.114245 23.348 0.142788 21.6137 0.128516 19.8938C0.128516 19.6215 0.0143418 19.3492 -0.0427454 19.0768V14.5334C0.428224 13.9601 0.842107 13.3151 1.39871 12.8421C1.94104 12.3548 2.58327 11.8245 3.25404 11.6955C4.63841 11.4232 6.05132 11.4088 7.46423 11.2798C8.50607 11.1938 9.54791 11.1365 10.5755 11.0075C12.0598 10.8212 13.544 10.5632 15.0283 10.3769C16.3128 10.2192 17.6115 10.1476 18.896 10.0186C20.6086 9.84657 22.3212 9.60291 24.0481 9.47392C25.989 9.31626 27.93 9.55992 29.8567 8.80028C31.1269 8.29864 32.6254 8.3273 34.0241 8.19831C36.3361 7.98332 38.6481 7.81133 40.9602 7.63933C42.9154 7.49601 44.7993 6.8367 46.8116 6.89403C48.2531 6.93703 49.7088 6.72204 51.1645 6.56438C53.1483 6.34939 55.1178 6.07707 57.0873 5.84774C58.1862 5.71875 59.2852 5.57542 60.3841 5.48943C61.7542 5.3891 63.1386 5.41776 64.5087 5.27444C66.2213 5.10244 67.9196 4.84446 69.618 4.5578C70.2174 4.45747 70.774 4.14215 71.3591 4.07049C72.3867 3.92716 73.4428 3.94149 74.4704 3.8125C77.1535 3.48285 79.8223 3.08153 82.5054 2.76621C84.7318 2.50822 87.0153 2.60855 89.2132 2.03524C89.8982 1.86325 90.569 1.60526 91.254 1.50493C92.1817 1.37594 93.1236 1.37594 94.0513 1.28994C96.8914 1.00329 99.7172 0.702303 102.557 0.386983C103.414 0.286654 104.284 0.143327 105.141 0.0286654L105.212 0Z" fill="white"/>
<path fill-rule="evenodd" clip-rule="evenodd" d="M0 77.153C0.0856309 77.5543 0.214077 77.9699 0.242621 78.3712C0.285436 79.8475 0.328252 81.3381 0.31398 82.8144C0.31398 84.4626 0.214077 86.1109 0.214077 87.7448C0.214077 89.0491 0.285436 90.339 0.299708 91.6433C0.299708 92.403 0.299708 93.1769 0.271164 93.9366C0.271164 94.0942 0.114175 94.2375 0.0285436 94.3809V77.1386L0 77.153Z" fill="white"/>
<path fill-rule="evenodd" clip-rule="evenodd" d="M0.000223313 19.0625C0.0573106 19.3348 0.171485 19.6071 0.171485 19.8795C0.185757 21.5994 0.171485 23.3193 0.185757 25.0536C0.200029 26.1572 0.342747 27.2751 0.328475 28.3788C0.314203 30.156 0.200029 31.9189 0.114398 33.6819C0.114398 33.7105 0.0287669 33.7392 -0.0283203 33.7822V19.0625H0.000223313Z" fill="white"/>
<path fill-rule="evenodd" clip-rule="evenodd" d="M0 54.8226C0.0999027 54.7653 0.199805 54.7079 0.342524 54.6076C0.299708 55.2812 0.228349 55.9979 0.242621 56.7145C0.256893 58.8931 0.328252 61.0573 0.328252 63.2216C0.328252 64.7838 0.256893 66.3318 0.185534 67.894C0.185534 68.0087 0.0713591 68.1377 0 68.2523V54.8226H0Z" fill="white"/>
<path fill-rule="evenodd" clip-rule="evenodd" d="M0 34.1262C0.0999027 34.7138 0.285436 35.3158 0.285436 35.9034C0.285436 38.641 0.228349 41.3785 0.185534 44.1161C0.185534 44.4171 0.0713591 44.718 0.0142718 45.019V34.1262H0Z" fill="white"/>
<path fill-rule="evenodd" clip-rule="evenodd" d="M175.714 44.1161C175.615 43.3421 175.472 42.5825 175.415 41.8085C175.372 41.1205 175.386 40.4326 175.415 39.7446C175.5 38.168 175.6 36.6057 175.7 35.0435V44.1161H175.714Z" fill="white"/>
<path fill-rule="evenodd" clip-rule="evenodd" d="M-0.000376624 100.028C0.0567106 100.2 0.170885 100.386 0.170885 100.558C0.242244 102.02 0.28506 103.468 0.313603 104.93C0.313603 104.987 0.0995261 105.044 -0.0146484 105.102V100.014L-0.000376624 100.028Z" fill="white"/>
<path fill-rule="evenodd" clip-rule="evenodd" d="M0 68.8113C0.0999027 69.9436 0.242621 71.0759 0.299708 72.2082C0.299708 72.5808 0.114175 72.9678 0 73.3405V68.797V68.8113Z" fill="white"/>
<path fill-rule="evenodd" clip-rule="evenodd" d="M175.715 104.571C175.644 103.812 175.501 103.052 175.501 102.293C175.501 101.533 175.644 100.788 175.715 100.028V104.571Z" fill="white"/>
<path fill-rule="evenodd" clip-rule="evenodd" d="M175.714 89.8661C175.657 89.7084 175.543 89.5651 175.543 89.4218C175.543 88.0315 175.543 86.6269 175.543 85.2366C175.543 85.079 175.657 84.9356 175.714 84.7923V89.8804V89.8661Z" fill="white"/>
<path fill-rule="evenodd" clip-rule="evenodd" d="M175.715 50.6518C175.644 49.8922 175.515 49.1325 175.501 48.3729C175.501 47.7423 175.644 47.1116 175.715 46.481V50.6518Z" fill="white"/>
<path fill-rule="evenodd" clip-rule="evenodd" d="M1.12793 106.306L77.1824 94.4095V3.43985H70.86L71.4166 89.7514L2.34103 101.089L1.12793 106.306Z" fill="#79CBE8"/>
<path opacity="0.7" fill-rule="evenodd" clip-rule="evenodd" d="M119.983 69.1553C118.955 69.1553 118.327 69.1553 117.714 69.1553C117.214 69.1553 116.986 69.2986 116.857 69.9293C116.629 71.0472 117.014 72.0648 117.014 73.1398C117.014 73.5984 117.385 73.6844 117.756 73.6414C119.812 73.3691 121.952 73.5841 123.85 72.4088C124.15 72.2225 124.493 72.1938 124.835 72.1938C125.263 72.1938 125.634 72.3085 125.791 72.7671C125.977 73.2974 125.763 73.6988 125.363 74.0141C124.792 74.4441 124.15 74.6304 123.465 74.7307C119.726 75.304 115.972 75.7913 112.19 75.777C109.179 75.777 106.196 75.562 103.299 74.6447C102.643 74.4441 102.115 74.2577 101.915 73.3404C101.372 70.7462 101.301 70.7606 99.1032 72.1508C99.0033 72.2082 98.9176 72.2942 98.8177 72.3515C97.8187 72.9965 97.1051 74.745 97.7759 75.6767C98.7178 77.0096 99.0032 78.4142 99.1174 79.9908C99.2459 81.8971 99.5599 83.789 99.6598 85.6952C99.8596 89.7084 100.074 93.7072 101.058 97.6057C101.558 99.5836 102.186 101.49 103.784 102.837C104.484 103.425 105.183 104.012 105.825 104.657C106.724 105.603 107.852 105.947 109.051 106.062C111.348 106.277 113.66 106.306 115.93 106.621C118.256 106.951 120.311 105.704 122.552 105.618C122.923 105.603 123.322 105.36 123.622 105.102C124.978 103.912 126.234 102.651 126.89 100.845C127.347 99.5836 127.847 98.394 127.904 96.9751C127.975 94.8968 128.846 92.9333 128.66 90.7977C128.46 88.4328 129.174 86.0822 129.003 83.7173C128.846 81.6248 129.145 79.5465 129.231 77.4683C129.245 77.1099 129.231 76.68 129.516 76.465C130.487 75.7483 130.344 74.7021 130.344 73.6988C130.344 71.7638 128.146 70.0869 126.405 70.7176C125.763 70.9469 125.135 70.9899 124.707 70.3736C124.164 69.5996 123.422 69.4563 122.637 69.3703C121.624 69.2556 120.611 69.0836 119.997 69.141L119.983 69.1553Z" fill="#E06765"/>
<path opacity="0.7" fill-rule="evenodd" clip-rule="evenodd" d="M107.167 69.6283C106.568 69.27 105.812 69.9866 104.941 69.8146C104.299 69.7 103.4 69.8146 103.157 70.3449C102.829 71.0902 103.243 71.9645 103.585 72.7242C103.813 73.2258 104.37 73.1971 104.827 73.3405C105.968 73.7131 107.153 73.7418 108.338 73.8421C108.951 73.8994 109.208 73.6128 109.18 73.0108C109.137 72.0648 109.108 71.1046 109.08 70.1586C109.065 69.786 108.809 69.657 108.48 69.6426C108.124 69.6283 107.767 69.6426 107.153 69.6426L107.167 69.6283Z" fill="#E06765"/>
<path fill-rule="evenodd" clip-rule="evenodd" d="M176 118.918C175.344 119.606 174.573 119.578 173.774 119.262C172.675 118.832 171.548 118.431 170.52 117.858C168.907 116.969 167.166 116.382 165.482 115.679C162.299 114.361 159.245 112.755 156.034 111.537C152.466 110.176 149.141 108.312 145.501 107.108C143.603 106.478 141.805 105.503 139.95 104.715C138.223 103.969 136.482 103.238 134.741 102.522C134.584 102.45 134.384 102.436 134.227 102.393C133.599 102.192 133.456 101.576 133.456 101.103C133.47 100.458 134.127 100.587 134.584 100.53C135.782 100.358 136.796 101.017 137.823 101.404C140.649 102.45 143.461 103.597 146.144 105.001C148.47 106.22 150.996 106.965 153.38 108.069C159.859 111.05 166.567 113.472 172.96 116.668C173.974 117.184 175.23 117.199 175.986 118.23V118.947L176 118.918Z" fill="#31736D"/>
<path fill-rule="evenodd" clip-rule="evenodd" d="M97.405 102.923C96.1919 100.845 95.3499 98.824 94.9503 96.6168C94.3937 93.5639 93.7943 90.511 93.8371 87.4008C93.8514 86.1396 93.7657 84.8783 93.5517 83.66C93.2948 82.2411 93.6944 80.8221 93.2662 79.3889C93.0093 78.5432 92.7096 77.7693 92.3528 76.9666C91.8676 75.906 91.2682 74.8741 91.5821 73.5125C91.7819 72.7098 91.996 72.0792 92.5954 71.5345C93.937 70.3163 95.3356 69.1983 97.1624 68.8257C97.9902 68.6537 98.19 68.2524 98.0758 67.4354C97.562 63.9525 97.0911 60.4697 96.6058 56.9868C96.1919 53.977 95.6924 50.9814 95.3785 47.9572C95.0787 45.105 94.7362 42.2528 94.0654 39.4723C93.9085 38.813 94.0654 38.1967 93.9513 37.5517C93.5088 34.7998 93.252 32.0193 92.8809 29.2531C92.4385 25.9995 91.9389 22.7603 91.4965 19.5211C91.1825 17.2709 91.0255 14.992 90.6545 12.7561C90.3548 10.9645 91.2539 9.86091 92.5812 9.04394C94.8789 7.65367 97.3765 6.77937 100.045 6.2634C103.642 5.57543 107.267 5.28877 110.892 5.31744C115.702 5.36044 120.54 5.4321 125.235 6.77937C127.09 7.30968 128.76 8.19831 130.244 9.43092C131.315 10.3196 131.857 11.2368 131.329 12.8421C130.915 14.0747 130.944 15.5367 130.844 16.8839C130.401 22.7173 129.831 28.5508 129.174 34.3698C128.817 37.5804 128.66 40.8196 128.289 44.0301C127.904 47.4269 127.59 50.8238 127.276 54.2206C127.119 55.8832 127.176 57.5745 126.905 59.2227C126.577 61.172 126.562 63.1499 126.291 65.0992C126.263 65.3285 126.191 65.5721 126.163 65.8158C125.977 67.4067 126.02 67.5214 127.604 68.109C129.517 68.8113 131.215 69.7 132.271 71.6205C133.184 73.2831 133.056 75.0891 132.285 76.3933C131.386 77.9269 131.329 79.4605 131.229 81.0085C131.044 83.918 131.229 86.8562 131.015 89.7657C130.715 94.0942 130.359 98.437 128.389 102.436C127.233 104.758 125.563 106.406 123.137 107.481C120.611 108.599 117.985 108.9 115.316 109.058C111.862 109.258 108.451 109.015 105.083 108.097C103.214 107.581 101.615 106.592 100.003 105.589C99.3888 105.202 98.8608 105.059 98.1757 105.302C96.4346 105.933 96.2205 106.836 97.5192 108.155C98.4612 109.101 99.4459 109.86 100.873 110.018C102.043 110.133 103.214 110.462 104.341 110.863C106.125 111.508 107.995 111.408 109.822 111.465C110.821 111.494 111.834 111.408 112.847 111.551C113.846 111.68 114.859 111.652 115.873 111.523C118.527 111.193 121.196 110.992 123.851 110.648C125.849 110.391 127.761 109.703 129.631 108.957C131.372 108.269 131.429 107.037 129.902 105.919C129.659 105.747 129.374 105.618 129.174 105.403C128.589 104.772 128.874 103.984 129.716 103.797C131.129 103.468 132.985 104.371 133.827 105.775C134.412 106.75 134.355 108.671 133.456 109.502C132.642 110.233 131.757 110.992 130.63 111.293C128.703 111.824 126.748 112.254 124.807 112.684C119.926 113.759 115.031 113.888 110.107 113.773C105.354 113.658 100.759 112.598 96.3775 110.72C94.9217 110.104 93.8799 108.843 93.2662 107.381C92.8809 106.463 93.4232 105.575 94.0084 104.815C94.8219 103.769 96.0064 103.353 97.3908 102.938L97.405 102.923ZM93.8799 14.7054C93.8085 14.648 93.6944 14.519 93.6658 14.5334C93.4946 14.648 93.5517 14.7914 93.6658 14.9204C94.0369 18.0019 94.3937 21.0834 94.779 24.1506C94.9646 25.6412 95.0645 27.1318 95.3927 28.5938C95.9065 30.8727 95.9921 33.1946 96.3632 35.5021C96.5773 36.8494 96.6629 37.0357 97.9616 36.7491C99.189 36.4767 100.402 36.1901 101.63 35.9751C102.329 35.8604 103.256 35.8031 103.356 36.7491C103.471 37.7524 102.514 37.7954 101.815 37.7954C100.773 37.7954 99.8455 38.1967 98.8608 38.469C98.0615 38.684 97.9046 39.3576 97.8189 39.9596C97.7333 40.5902 98.2756 40.8196 98.8322 41.0059C100.188 41.4502 101.53 41.8658 103 41.9088C104.355 41.9518 105.726 42.1955 107.081 42.3675C107.452 42.4248 107.766 42.6398 107.766 43.0698C107.766 43.5141 107.41 43.6574 107.053 43.7291C105.982 43.9441 104.926 43.7721 103.856 43.7148C101.687 43.5858 99.5744 43.1271 97.2623 42.5681C98.0473 48.2152 98.8037 53.633 99.5601 58.9934C100.074 59.1654 100.374 58.9361 100.716 58.8501C102.343 58.4631 103.956 58.0188 105.597 57.7465C106.254 57.6318 107.238 57.6461 107.324 58.5778C107.395 59.4807 106.482 59.3661 105.854 59.4807C104.184 59.7674 102.529 60.097 101.087 61.0717C101.258 61.4873 101.544 61.5446 101.829 61.6593C103.157 62.204 104.541 62.5193 105.968 62.7199C106.396 62.7773 106.767 63.0066 106.753 63.5369C106.753 64.1245 106.296 64.1962 105.883 64.1962C104.684 64.1962 103.485 64.2249 102.343 63.7949C101.687 63.5512 101.03 63.4079 100.259 63.4222C100.259 65.0705 100.559 66.5181 100.83 68.1377C102.571 67.6934 104.241 67.3637 105.968 67.2634C107.153 67.1917 107.709 66.6901 107.724 65.4575C107.724 64.1389 108.223 63.0209 108.637 61.8456C109.322 59.8677 109.836 57.8611 109.593 55.7256C109.351 53.762 107.552 52.3001 105.668 52.7874C104.512 53.0884 103.656 52.6297 102.614 52.3144C103.271 51.2538 104.441 51.3684 105.326 50.7235C104.07 50.0928 103.142 49.2472 101.986 48.7455C101.401 48.4875 100.916 47.9859 100.445 47.5416C100.131 47.2406 100.017 46.782 100.259 46.3806C100.531 45.922 100.987 46.0653 101.387 46.1657C101.601 46.223 101.772 46.4523 101.986 46.5383C104.427 47.4269 106.439 49.0752 108.608 50.4511C110.05 51.3684 111.249 52.6727 111.677 54.3066C112.262 56.5569 112.519 58.9074 111.548 61.172C110.221 64.2535 109.879 67.5071 109.879 70.8179C109.879 71.6492 109.893 72.4948 110.278 73.2831C110.407 73.5555 110.435 73.8134 110.792 73.9138C112.219 74.3581 112.919 73.8134 112.776 72.3658C112.776 72.3085 112.762 72.2512 112.747 72.1938C112.219 68.152 112.662 64.2822 114.431 60.5414C115.273 58.7354 115.901 56.8005 116.415 54.8226C117.086 52.1997 117.842 49.5912 119.812 47.5559C120.782 46.567 121.724 45.6067 123.208 45.2484C123.408 46.309 122.68 46.9539 122.224 47.6706C121.125 49.4335 119.997 51.1248 119.498 53.246C119.141 54.7939 119.013 56.4279 118.242 57.8898C117.585 59.1368 117.086 60.484 116.586 61.817C116.115 63.1069 115.573 64.3682 115.273 65.7298C115.102 66.5324 115.345 66.8478 116.144 66.8621C118.499 66.8908 120.868 66.8621 123.28 67.3781C123.48 66.2171 123.637 65.1852 123.822 64.1102C123.066 64.0815 122.566 64.3109 122.052 64.3969C120.768 64.5832 119.526 65.1565 118.171 64.7695C117.757 64.6548 117.286 64.6405 117.257 64.1102C117.229 63.5369 117.642 63.2502 118.156 63.1642C118.984 63.0209 119.812 62.9349 120.64 62.7916C121.681 62.6196 122.723 62.4333 123.551 61.516C122.395 60.8137 121.353 60.1544 120.012 60.1974C119.441 60.2117 118.884 59.9107 118.97 59.2514C119.041 58.6494 119.541 58.3914 120.169 58.4201C121.068 58.4631 121.924 58.7211 122.78 58.9791C124.051 59.3517 124.236 59.1797 124.35 57.9328C124.721 54.2063 125.107 50.4798 125.478 46.7533C125.62 45.3344 125.749 43.9154 125.892 42.4535C123.009 43.4424 120.254 44.5747 117.229 44.3741C116.544 44.3311 115.373 44.6751 115.402 43.5284C115.43 42.6971 116.472 42.7115 117.172 42.7115C118.998 42.7401 120.668 41.9662 122.424 41.6938C123.066 41.5935 123.679 41.3069 124.15 40.7909C124.564 40.3466 124.579 39.9739 124.022 39.6299C123.494 39.3146 122.952 39.114 122.352 38.985C121.924 38.899 121.467 38.8703 121.524 38.2827C121.582 37.738 122.067 37.6807 122.466 37.609C123.551 37.437 124.593 37.7667 125.592 38.1393C126.191 38.3543 126.42 38.3113 126.462 37.566C126.748 32.6212 127.176 27.6765 127.704 22.746C127.99 20.0945 128.161 17.4429 128.403 14.7197C127.79 14.7484 127.347 14.6767 126.976 14.82C124.422 15.7516 121.767 15.9666 119.098 16.1673C117.371 16.2963 115.644 16.411 113.918 16.1673C113.489 16.11 113.061 15.9523 113.004 15.4507C112.947 14.82 113.461 14.6767 113.918 14.5334C114.146 14.476 114.389 14.476 114.631 14.4904C118.656 14.605 122.595 14.0317 126.448 12.9568C127.304 12.7131 128.632 12.7848 128.703 11.5808C128.774 10.5345 127.676 10.0902 126.834 9.64591C124.365 8.35597 121.724 7.69667 118.955 7.51034C116.872 7.36701 114.788 7.30968 112.719 7.20935C108.038 6.99436 103.442 7.49601 98.8893 8.48497C97.3051 8.82895 95.8494 9.44526 94.5364 10.4342C93.9655 10.8642 93.8371 11.3515 93.8799 11.9821C93.937 12.6271 94.5079 12.6558 94.9218 12.8134C96.8056 13.4727 98.7466 13.7307 100.73 13.7307C102.1 13.7307 103.471 13.7881 104.855 13.8311C105.426 13.8454 105.74 14.175 105.754 14.734C105.754 15.336 105.34 15.551 104.826 15.6227C104.598 15.6513 104.355 15.594 104.113 15.5797C100.716 15.5223 97.3337 15.3503 93.9798 14.734L93.8799 14.7054ZM118.47 69.055C117.386 69.055 116.729 69.055 116.073 69.055C115.545 69.055 115.302 69.1983 115.159 69.8433C114.917 70.9612 115.316 71.9789 115.316 73.0538C115.316 73.5125 115.716 73.5985 116.101 73.5555C118.27 73.2831 120.54 73.4981 122.538 72.3228C122.866 72.1365 123.208 72.1079 123.58 72.1079C124.036 72.1079 124.422 72.2225 124.593 72.6812C124.793 73.2115 124.564 73.6128 124.136 73.9281C123.537 74.3581 122.852 74.5444 122.138 74.6447C118.185 75.2181 114.232 75.7054 110.235 75.691C107.067 75.691 103.913 75.476 100.845 74.5587C100.16 74.3581 99.5886 74.1718 99.3746 73.2545C98.7894 70.6602 98.7323 70.6746 96.406 72.0648C96.3061 72.1222 96.2062 72.2082 96.1063 72.2655C95.0502 72.9105 94.3081 74.6591 95.0074 75.5907C96.0064 76.9236 96.3061 78.3282 96.4203 79.9048C96.563 81.8111 96.8913 83.703 96.9912 85.6093C97.2052 89.6224 97.4193 93.6212 98.4754 97.5197C99.0035 99.4977 99.66 101.404 101.344 102.751C102.086 103.339 102.828 103.926 103.485 104.571C104.441 105.517 105.626 105.861 106.882 105.976C109.308 106.191 111.748 106.22 114.146 106.535C116.601 106.865 118.77 105.618 121.139 105.532C121.524 105.517 121.953 105.274 122.267 105.016C123.694 103.826 125.021 102.565 125.72 100.759C126.206 99.4977 126.734 98.308 126.791 96.8891C126.862 94.8109 127.79 92.8473 127.59 90.7117C127.376 88.3468 128.132 85.9962 127.947 83.6313C127.775 81.5388 128.089 79.4605 128.175 77.3823C128.189 77.024 128.175 76.594 128.475 76.379C129.502 75.6624 129.345 74.6161 129.345 73.6128C129.345 71.6779 127.019 70.0009 125.178 70.6316C124.493 70.8609 123.836 70.9039 123.394 70.2876C122.823 69.5136 122.038 69.3703 121.196 69.2843C120.126 69.1696 119.055 68.9977 118.413 69.055H118.47ZM105.412 69.528C104.812 69.1696 104.056 69.8863 103.185 69.7143C102.543 69.5996 101.644 69.7143 101.401 70.2446C101.073 70.9899 101.487 71.8642 101.829 72.6238C102.058 73.1255 102.614 73.0968 103.071 73.2401C104.213 73.6128 105.397 73.6415 106.582 73.7418C107.196 73.7991 107.452 73.5125 107.424 72.9105C107.381 71.9645 107.352 71.0042 107.324 70.0583C107.31 69.6856 107.053 69.5566 106.725 69.5423C106.368 69.528 106.011 69.5423 105.397 69.5423L105.412 69.528Z" fill="#31736D"/>
<path fill-rule="evenodd" clip-rule="evenodd" d="M77.9099 10.8499C77.6958 16.5829 78.2382 22.316 77.9242 28.0348C77.6958 32.3203 78.124 36.6057 77.9242 40.8769C77.7815 43.7864 77.8956 46.696 77.8814 49.5912C77.8814 52.73 77.6388 55.8832 77.9099 59.0364C78.0812 61.043 77.8386 63.0926 77.8956 65.1278C77.967 67.9227 77.8956 70.7176 77.9099 73.5268C77.9242 78.6579 78.0669 83.789 77.9099 88.9201C77.8671 90.5397 78.0812 92.1306 77.9385 93.7359C77.7957 95.3125 77.6102 95.5705 76.0689 95.8141C71.2022 96.6168 66.3212 97.3047 61.4688 98.1934C58.486 98.738 55.4746 99.1536 52.4918 99.7413C48.4672 100.53 44.3854 101.003 40.3465 101.662C34.8804 102.551 29.4286 103.511 23.9767 104.414C20.2803 105.03 16.5554 105.603 12.859 106.205C9.97609 106.678 7.09318 107.151 4.22455 107.639C3.21125 107.811 2.21222 107.882 1.21319 107.581C0.927757 107.495 0.642321 107.323 0.628049 106.979C0.599505 106.621 0.87067 106.449 1.14183 106.32C2.72601 105.575 4.45289 105.302 6.15124 105.044C10.39 104.399 14.6287 103.726 18.8532 102.937C21.365 102.465 23.9054 102.121 26.4458 101.705C31.8548 100.816 37.2638 99.8703 42.6871 99.0247C47.511 98.265 52.3063 97.2474 57.173 96.7458C58.9427 96.5594 60.6696 96.0291 62.4393 95.7711C66.207 95.2265 69.9605 94.5529 73.7283 93.9509C75.2268 93.7072 75.1697 93.7216 75.2554 92.1593C75.4552 88.6478 75.3124 85.1363 75.2982 81.6391C75.2696 76.035 75.3553 70.4453 75.2696 64.8412C75.2125 61.8886 75.1983 58.9361 75.2982 55.9836C75.3838 53.0167 74.9414 50.0641 75.2125 47.1116C75.4409 44.6894 75.1126 42.2815 75.3124 39.8449C75.4837 37.7237 75.2125 35.5594 75.2839 33.4239C75.3981 30.07 75.4694 26.6875 75.3267 23.3623C75.1983 20.3811 75.3695 17.3999 75.1697 14.4187C75.0555 12.6844 75.2696 10.8929 75.6835 9.1586C75.7549 8.87195 75.8833 8.58529 76.0689 8.35597C76.6112 7.63933 77.3533 7.73966 77.7244 8.55663C77.8956 8.94361 78.0241 9.34493 77.9813 9.77491C77.9527 10.1332 77.9242 10.4915 77.8956 10.8499H77.9099Z" fill="#31736D"/>
<path fill-rule="evenodd" clip-rule="evenodd" d="M69.1325 35.2585C69.2038 34.1548 69.3751 32.7932 69.3323 31.4316C69.3037 30.1273 69.2752 28.8231 69.2324 27.5475C69.1039 24.1649 69.2324 20.7968 69.161 17.4142C69.1039 15.2213 69.4893 13.0571 69.3465 10.8785C69.318 10.3052 69.6177 9.84657 69.7604 9.33059C69.8889 8.84328 70.1172 8.34163 70.6738 8.3703C71.2161 8.38463 71.4445 8.91494 71.6015 9.35926C72.0011 10.4342 72.1866 11.5665 72.2294 12.6988C72.2723 13.9601 72.3436 15.2213 72.2865 16.4683C71.9868 22.961 72.3008 29.4394 72.1438 35.9321C72.0582 39.4293 72.1866 42.9551 72.1724 46.4523C72.1724 48.7025 72.1866 50.9814 72.1724 53.2317C72.1581 56.4852 72.0439 59.7531 72.1581 63.0209C72.2152 64.9128 72.2865 66.8334 72.1724 68.7397C72.0296 71.1762 72.0724 73.6271 72.0867 76.0637C72.1153 80.0338 72.3722 84.004 72.0725 87.9742C71.9583 89.4074 71.4017 90.1527 69.9602 90.4394C67.22 90.984 64.4513 91.3997 61.6968 91.8583C58.8139 92.3313 55.9453 92.8186 53.0624 93.2199C49.5801 93.6929 46.2262 94.7965 42.6868 94.9398C41.3595 94.9972 40.0322 95.4702 38.6764 95.6852C35.0371 96.2871 31.4406 97.1757 27.787 97.5627C23.4627 98.0357 19.2525 99.0677 14.9709 99.77C11.56 100.329 8.16327 100.945 4.73804 101.476C3.93881 101.605 3.02542 101.734 2.35464 101.074C2.01212 100.73 1.78377 100.329 2.54018 100.014C3.93881 99.4403 5.43736 99.2397 6.89308 98.9817C11.8739 98.0644 16.8834 97.2187 21.8785 96.3731C28.2294 95.2982 34.5804 94.2375 40.9171 93.1626C46.2119 92.274 51.4782 91.285 56.7873 90.4824C60.5551 89.9091 64.3086 89.2498 68.0906 88.6621C68.9755 88.5188 69.2324 88.1891 69.2181 87.2575C69.1753 82.757 68.9897 78.2566 69.2752 73.7561C69.4607 70.9039 69.3037 68.0087 69.161 65.1422C69.0611 63.2359 69.3465 61.3583 69.1895 59.4521C69.0183 57.3165 69.161 55.1666 69.161 53.031C69.161 50.5944 69.1467 48.1579 69.1325 45.7213C69.1325 42.3245 69.1325 38.9133 69.1325 35.2441V35.2585Z" fill="#31736D"/>
<path fill-rule="evenodd" clip-rule="evenodd" d="M91.1823 99.4403C91.3679 99.4117 91.5391 99.3543 91.7104 99.383C92.3526 99.469 93.1661 99.512 93.2375 100.329C93.3231 101.103 92.6381 101.375 91.9816 101.619C91.0111 101.963 90.012 102.121 89.013 102.235C85.8875 102.594 82.8048 103.081 79.7221 103.754C78.4519 104.027 77.1246 104.07 75.8259 104.17C74.099 104.299 72.4577 104.844 70.7308 105.03C67.6053 105.374 64.5083 106.048 61.3828 106.492C57.087 107.108 52.8054 107.854 48.5239 108.556C44.0568 109.287 39.5469 109.846 35.0798 110.534C31.6689 111.05 28.2865 111.695 24.8612 112.168C20.0802 112.813 15.3562 113.83 10.5609 114.404C8.5628 114.647 6.57902 115.092 4.58097 115.407C3.68184 115.55 2.78272 115.536 1.94068 115.178C1.59816 115.034 1.28418 114.834 1.28418 114.418C1.28418 114.002 1.55534 113.73 1.89787 113.63C2.64 113.4 3.38214 113.128 4.15281 113.028C12.0879 112.053 19.9517 110.577 27.8583 109.373C33.6241 108.484 39.3899 107.524 45.1557 106.635C48.0386 106.191 50.9501 105.962 53.7902 105.374C56.4733 104.829 59.1992 104.514 61.8966 104.055C65.3646 103.468 68.8612 102.966 72.3293 102.422C76.2112 101.82 80.0931 101.218 83.9608 100.601C86.3727 100.229 88.7704 99.813 91.1823 99.426C91.1823 99.4547 91.1823 99.469 91.1823 99.4833V99.4403Z" fill="#31736D"/>
<path fill-rule="evenodd" clip-rule="evenodd" d="M46.8544 25.9709C46.883 26.3865 46.5547 26.5872 46.3264 26.8595C44.8278 28.5364 43.3293 30.2133 41.845 31.9046C41.7308 32.0336 41.5738 32.1483 41.4882 32.3059C40.532 33.8252 39.2333 35.0291 37.9488 36.2617C34.5949 39.5009 31.2839 42.7975 28.0299 46.137C25.8749 48.3442 23.7198 50.5801 21.8787 53.074C21.3507 53.7906 20.6942 54.4499 20.0805 55.0376C18.4963 56.5425 17.169 58.3054 15.7133 59.9107C14.386 61.387 12.859 62.7342 11.7458 64.4685C10.8609 65.8588 9.37664 66.8047 7.93518 67.6647C7.6212 67.851 7.27868 67.9227 6.89334 67.851C6.22256 67.7364 6.0513 67.3064 6.37955 66.7044C7.07887 65.4145 8.29198 64.6118 9.20537 63.5225C11.2748 61.086 13.3299 58.6494 15.4422 56.2559C17.0406 54.4213 18.582 52.5437 20.3374 50.8381C21.3221 49.8921 22.05 48.7312 22.9919 47.7279C25.2897 45.277 27.4448 42.7401 29.9709 40.5042C31.6264 39.0423 33.2962 37.48 34.7234 35.7171C35.5797 34.6565 36.6215 33.7679 37.592 32.8076C39.5758 30.844 41.3883 28.7084 43.4863 26.8595C44.157 26.2575 44.8421 25.6555 45.6413 25.2542C46.3264 24.9102 46.8972 25.2972 46.8544 25.9852V25.9709Z" fill="#31736D"/>
<path fill-rule="evenodd" clip-rule="evenodd" d="M60.0561 62.1609C59.842 62.8202 59.4566 63.4222 59.057 64.0242C57.4871 66.4178 55.5319 68.496 53.5481 70.5312C50.9506 73.1971 48.2818 75.8057 46.0411 78.8012C45.4845 79.5609 44.6853 80.1342 43.986 80.7791C42.5874 82.0834 41.1887 83.402 39.7901 84.692C39.4904 84.9643 39.1336 85.2223 38.7625 85.3799C38.4771 85.4946 38.106 85.3656 38.1631 84.9643C38.2487 84.2046 38.4485 83.5023 38.9766 82.8574C41.203 80.0768 43.7434 77.5686 45.9412 74.7737C47.083 73.3261 48.396 72.0362 49.6662 70.7032C52.1495 68.0947 54.647 65.5005 57.1732 62.9206C57.7868 62.2899 58.4291 61.602 59.3996 61.5446C59.7992 61.516 60.1131 61.6306 60.0561 62.1753V62.1609Z" fill="#31736D"/>
<path fill-rule="evenodd" clip-rule="evenodd" d="M35.751 17.0989C35.6369 17.9875 35.0374 18.6039 34.5094 19.2345C31.9119 22.3017 29.1004 25.1396 26.246 27.9488C23.8769 30.2993 21.3508 32.4636 18.6677 34.4415C18.4821 34.5848 18.2823 34.7281 18.0683 34.8428C17.6258 35.0865 17.112 35.6741 16.6553 35.1438C16.1987 34.6135 16.4984 33.9542 17.0407 33.5959C18.1111 32.9079 18.6249 31.7183 19.4954 30.844C20.2233 30.0987 20.9654 29.3247 21.6933 28.5794C23.0206 27.2465 24.2622 25.7989 25.718 24.6379C27.0452 23.5773 28.3154 22.445 29.5285 21.2697C30.7131 20.1375 31.8263 18.9335 32.9538 17.7439C33.5389 17.1276 34.1811 16.6116 35.0517 16.5256C35.4371 16.4969 35.7939 16.5543 35.7225 17.0989H35.751Z" fill="#31736D"/>
<path fill-rule="evenodd" clip-rule="evenodd" d="M24.7756 19.4065C23.9479 19.4065 23.691 19.0338 23.9764 18.3459C24.1477 17.9016 24.4331 17.5146 24.7471 17.1419C26.2028 15.3933 28.2294 14.3327 29.8707 12.7848C30.1989 12.4695 30.6556 12.4695 31.041 12.7131C31.412 12.9568 31.3407 13.3438 31.1694 13.6734C29.8992 16.1386 28.0153 17.9732 25.532 19.2058C25.2751 19.3348 24.9612 19.3635 24.8042 19.4065H24.7756Z" fill="#31736D"/>
<path fill-rule="evenodd" clip-rule="evenodd" d="M93.6657 14.9347C93.5515 14.8057 93.4944 14.6624 93.6657 14.5477C93.6942 14.5334 93.8084 14.6624 93.8798 14.7197C93.8084 14.7914 93.7371 14.863 93.6657 14.9347Z" fill="#FDFDFD"/>
<path fill-rule="evenodd" clip-rule="evenodd" d="M109.251 31.8043C109.237 28.8947 109.807 26.3435 109.907 23.7636C109.993 21.3844 109.679 18.9908 109.551 16.6116C109.508 15.7086 109.408 14.8057 109.722 13.9314C109.936 13.3151 110.35 13.2721 110.707 13.8024C110.906 14.0891 111.149 14.3327 111.22 14.7054C111.934 18.5035 112.904 22.3017 112.334 26.2002C111.962 28.6941 112.034 31.2023 112.034 33.6819C112.034 37.007 111.834 40.3609 112.619 43.6574C112.976 45.191 113.133 46.8106 112.89 48.4159C112.819 48.8745 112.89 49.4622 112.205 49.4765C111.62 49.5052 111.42 49.0465 111.263 48.5592C110.492 46.1083 109.836 43.6718 109.665 41.0775C109.422 37.5804 108.352 34.3555 106.011 31.6036C104.584 29.9124 103.028 28.3931 101.387 26.9312C101.002 26.5872 100.402 26.2289 100.802 25.6412C101.216 25.0392 101.944 24.9676 102.572 25.3402C104.37 26.4295 105.811 27.9344 107.181 29.4824C107.795 30.1847 108.394 30.9013 109.265 31.7756L109.251 31.8043Z" fill="#31736D"/>
<path fill-rule="evenodd" clip-rule="evenodd" d="M119.056 33.6389C119.669 33.6819 119.94 33.3522 120.24 33.0799C120.468 32.8792 120.697 32.6786 120.954 32.5496C121.653 32.1913 122.895 32.4062 123.037 32.9079C123.251 33.6962 122.652 34.0975 122.124 34.4558C120.04 35.8174 117.971 37.179 116.786 39.5153C116.715 39.6729 116.587 39.8163 116.444 39.9309C116.116 40.1889 115.744 40.4612 115.302 40.2462C114.788 40.0026 114.988 39.5296 115.088 39.1426C115.359 38.0963 115.716 37.093 115.973 36.0468C116.387 34.3125 116.9 32.5782 116.9 30.7723C116.9 30.0987 117.272 29.7977 117.871 29.6974C118.57 29.5827 118.542 30.1847 118.727 30.6003C119.141 31.575 118.684 32.6212 119.041 33.6532L119.056 33.6389Z" fill="#31736D"/>
<path fill-rule="evenodd" clip-rule="evenodd" d="M118.071 23.3623C118.1 23.5773 118.114 23.6346 118.114 23.692C118.143 25.1109 117.786 26.0282 117.201 25.9279C116.173 25.7559 116.145 24.7526 115.859 24.0073C115.716 23.6346 115.716 23.1903 115.731 22.7747C115.745 21.8574 116.23 21.2841 116.915 21.3271C117.6 21.3701 118.1 21.9577 118.128 22.8033C118.128 23.0327 118.086 23.2763 118.071 23.3623Z" fill="#A0CD64"/>
<path fill-rule="evenodd" clip-rule="evenodd" d="M120.054 24.9819C119.969 24.1649 120.169 23.4626 120.454 22.8177C120.768 22.1297 121.624 21.9004 122.252 22.2874C122.709 22.5597 122.994 22.961 122.595 23.4483C122.124 24.0073 121.91 24.6809 121.567 25.3116C121.325 25.7559 121.082 26.3722 120.397 26.1429C119.783 25.9422 120.126 25.3259 120.04 24.9962L120.054 24.9819Z" fill="#A0CD64"/>
<path fill-rule="evenodd" clip-rule="evenodd" d="M106.924 21.0977C105.64 20.3524 104.855 19.3205 104.612 17.9446C104.484 17.1993 105.04 16.8553 105.74 17.1706C106.51 17.5289 106.824 18.2599 107.024 19.0052C107.181 19.6215 107.238 20.2808 106.939 21.0977H106.924Z" fill="#A0CD64"/>
<path fill-rule="evenodd" clip-rule="evenodd" d="M107.938 14.5334C106.953 13.9744 106.368 13.1861 106.183 12.1255C106.083 11.5665 106.511 11.2942 107.039 11.5378C107.638 11.8101 107.867 12.3691 108.009 12.9281C108.138 13.4011 108.181 13.9027 107.938 14.5334Z" fill="#A0CD64"/>
<path fill-rule="evenodd" clip-rule="evenodd" d="M123.123 21.0977C124.108 20.5388 124.693 19.7505 124.879 18.6899C124.979 18.1309 124.55 17.8586 124.022 18.1022C123.423 18.3745 123.195 18.9335 123.052 19.4925C122.923 19.9655 122.881 20.4671 123.123 21.0977Z" fill="#A0CD64"/>
<path fill-rule="evenodd" clip-rule="evenodd" d="M99.5748 25.9279C98.6186 25.5695 97.9764 24.9676 97.6481 24.0646C97.4769 23.5773 97.8194 23.2763 98.3189 23.4053C98.8898 23.5486 99.1752 24.0073 99.3893 24.4946C99.5748 24.8959 99.689 25.3259 99.5606 25.9279H99.5748Z" fill="#A0CD64"/>
<path fill-rule="evenodd" clip-rule="evenodd" d="M101.63 19.2775C100.673 18.9192 100.031 18.3172 99.7028 17.4142C99.5316 16.9269 99.8741 16.6259 100.374 16.7549C100.944 16.8983 101.23 17.3569 101.444 17.8442C101.63 18.2455 101.744 18.6755 101.615 19.2775H101.63Z" fill="#A0CD64"/>
<path fill-rule="evenodd" clip-rule="evenodd" d="M107.796 40.8482C106.839 40.4899 106.197 39.8879 105.869 38.985C105.698 38.4976 106.04 38.1967 106.54 38.3256C107.11 38.469 107.396 38.9276 107.61 39.4149C107.796 39.8163 107.91 40.2462 107.781 40.8482H107.796Z" fill="#A0CD64"/>
<path fill-rule="evenodd" clip-rule="evenodd" d="M122.638 29.8837C121.724 29.9267 121.339 29.4967 121.539 28.8804C121.753 28.2068 122.038 27.5331 122.552 27.0171C123.023 26.5298 123.651 26.4582 124.165 26.8595C124.679 27.2608 124.536 27.8914 124.15 28.2928C123.608 28.8661 123.394 29.855 122.652 29.8694L122.638 29.8837Z" fill="#A0CD64"/>
<path fill-rule="evenodd" clip-rule="evenodd" d="M105.926 22.9753C103.985 23.0183 102.714 22.4593 101.773 21.1694C101.501 20.7968 101.63 20.4814 102.115 20.4241C102.415 20.3811 102.729 20.3381 103 20.4241C104.227 20.8254 105.012 21.7284 105.926 22.9753Z" fill="#A0CD64"/>
<path fill-rule="evenodd" clip-rule="evenodd" d="M100.673 29.0811C99.5315 28.7801 98.8607 28.2354 98.5324 27.3181C98.4325 27.0602 98.561 26.8882 98.8607 26.9312C99.0319 26.9598 99.2317 26.9885 99.3887 27.0745C100.045 27.5188 100.359 28.1781 100.687 29.0667L100.673 29.0811Z" fill="#A0CD64"/>
<path fill-rule="evenodd" clip-rule="evenodd" d="M99.6321 31.231C98.4475 31.2596 97.6626 30.9156 97.0917 30.1274C96.9347 29.898 97.0061 29.7117 97.3058 29.6687C97.4913 29.64 97.6768 29.6114 97.8481 29.6687C98.6045 29.9124 99.0755 30.4713 99.6321 31.231Z" fill="#A0CD64"/>
<path fill-rule="evenodd" clip-rule="evenodd" d="M100.445 30.586C101.216 30.3423 101.943 30.3853 102.671 30.7293C103.199 30.973 103.485 31.3886 103.556 31.9476C103.585 32.1769 103.542 32.4922 103.256 32.4922C102.657 32.4922 102.158 32.1053 101.629 31.8759C100.83 31.5033 100.83 31.489 100.431 30.586H100.445Z" fill="#A0CD64"/>
<path fill-rule="evenodd" clip-rule="evenodd" d="M118.998 21.5707C118.827 20.7824 118.955 20.0515 119.384 19.3635C119.683 18.8618 120.126 18.6182 120.682 18.6039C120.925 18.6039 121.21 18.6755 121.182 18.9478C121.11 19.5498 120.682 20.0085 120.397 20.5101C119.954 21.2697 119.926 21.2554 118.998 21.5707Z" fill="#A0CD64"/>
<path fill-rule="evenodd" clip-rule="evenodd" d="M111.934 13.4298C111.777 12.7131 111.905 12.0395 112.276 11.4088C112.548 10.9502 112.961 10.7209 113.475 10.7209C113.689 10.7209 113.96 10.7925 113.932 11.0362C113.875 11.5808 113.475 11.9965 113.204 12.4695C112.79 13.1718 112.776 13.1574 111.92 13.4441L111.934 13.4298Z" fill="#A0CD64"/>
<path fill-rule="evenodd" clip-rule="evenodd" d="M119.013 40.3036C118.884 39.7016 118.984 39.1426 119.298 38.6266C119.526 38.2397 119.855 38.0533 120.297 38.0533C120.468 38.0533 120.697 38.1107 120.682 38.3113C120.625 38.77 120.297 39.114 120.083 39.5009C119.74 40.0886 119.726 40.0742 119.013 40.3036Z" fill="#A0CD64"/>
<path fill-rule="evenodd" clip-rule="evenodd" d="M116.643 13.2004C116.515 12.5985 116.615 12.0395 116.929 11.5235C117.157 11.1365 117.485 10.9502 117.928 10.9502C118.099 10.9502 118.327 11.0075 118.313 11.2082C118.256 11.6668 117.928 12.0108 117.714 12.3978C117.371 12.9854 117.357 12.9711 116.643 13.2004Z" fill="#A0CD64"/>
<path fill-rule="evenodd" clip-rule="evenodd" d="M123.993 24.8529C123.822 24.0646 123.951 23.3337 124.379 22.6457C124.678 22.144 125.121 21.9004 125.677 21.886C125.92 21.886 126.205 21.9577 126.177 22.23C126.106 22.832 125.677 23.2907 125.392 23.7923C124.95 24.5519 124.921 24.5376 123.993 24.8529Z" fill="#A0CD64"/>
<path fill-rule="evenodd" clip-rule="evenodd" d="M101.458 35.0291C100.687 34.6422 99.7883 34.4845 99.2888 33.6532C99.1175 33.3809 99.1033 33.0942 99.3316 32.8506C99.5314 32.6356 99.7598 32.7502 99.9738 32.8506C100.716 33.2232 101.401 33.6819 101.915 34.3412C102 34.4558 102.029 34.7138 101.958 34.8141C101.872 34.9288 101.658 34.9575 101.458 35.0291Z" fill="#A0CD64"/>
<path fill-rule="evenodd" clip-rule="evenodd" d="M106.753 36.7921C105.982 36.4051 105.083 36.2474 104.584 35.4161C104.412 35.1438 104.398 34.8571 104.627 34.6135C104.826 34.3985 105.055 34.5132 105.269 34.6135C106.011 34.9861 106.696 35.4448 107.21 36.1041C107.295 36.2188 107.324 36.4767 107.253 36.5771C107.167 36.6917 106.953 36.7204 106.753 36.7921Z" fill="#A0CD64"/>
<path fill-rule="evenodd" clip-rule="evenodd" d="M99.3751 20.6964C98.6044 20.3095 97.7053 20.1518 97.2058 19.3205C97.0345 19.0482 97.0203 18.7615 97.2486 18.5179C97.4484 18.3029 97.6768 18.4175 97.8908 18.5179C98.633 18.8905 99.318 19.3492 99.8318 20.0085C99.9174 20.1231 99.946 20.3811 99.8746 20.4814C99.789 20.5961 99.5749 20.6248 99.3751 20.6964Z" fill="#A0CD64"/>
<path fill-rule="evenodd" clip-rule="evenodd" d="M112.348 80.0482C108.58 79.9048 104.427 79.7472 100.317 79.3172C99.6032 79.2455 98.8468 79.0735 98.3616 78.6579C97.8478 78.2136 98.0761 77.8553 98.9324 77.8409C99.6888 77.8409 100.46 77.8553 101.187 77.9699C105.954 78.6722 110.807 78.7152 115.659 78.7152C116.33 78.7152 117.315 78.5289 117.443 79.0592C117.586 79.6325 116.53 79.7042 115.859 79.8762C114.845 80.1342 113.789 79.9335 112.362 80.0338L112.348 80.0482Z" fill="white"/>
<path fill-rule="evenodd" clip-rule="evenodd" d="M121.967 79.3602C121.453 79.3315 120.468 79.4749 120.354 78.9445C120.226 78.2996 121.325 78.3569 121.995 78.2566C122.837 78.1276 123.694 78.0272 124.55 77.9556C125.178 77.9126 125.692 78.0272 125.792 78.5146C125.892 78.9875 125.392 79.0592 124.85 79.1022C123.936 79.1882 123.051 79.3889 121.953 79.3459L121.967 79.3602Z" fill="white"/>
</g>
<defs>
<clipPath id="clip0_125_19801">
<rect width="176" height="122" fill="white"/>
</clipPath>
</defs>
</svg>
