<svg width="100" height="100" viewBox="0 0 100 100" fill="none" xmlns="http://www.w3.org/2000/svg">
<g clip-path="url(#clip0_125_12972)">
<path fill-rule="evenodd" clip-rule="evenodd" d="M11.1937 26.745L16.222 23.7438L22.5164 19.8952C22.5164 19.8952 21.3045 37.5317 29.5885 42.4925C37.8544 47.4533 50.009 48.7598 50.009 48.7598C50.009 48.7598 60.6805 40.0916 62.7244 36.0841C64.7682 32.0942 64.3703 22.4904 64.3703 22.4904L59.7038 14.3342C59.7038 14.3342 67.8069 14.7932 71.6052 21.643C75.4035 28.4928 88.8243 67.1201 88.8243 67.1201V74.27L86.1474 76.5827L82.3852 78.048L41.2367 89.8233C41.2367 89.8233 34.255 91.7299 32.6091 90.6707C30.9631 89.6114 27.5808 79.372 27.5808 79.372L18.4286 53.3851L11.1937 34.813V26.745Z" fill="#A0CD64"/>
<path fill-rule="evenodd" clip-rule="evenodd" d="M61.5849 33.789C59.5591 33.8067 54.8383 52.8379 54.8383 52.8379C54.8383 52.8379 68.5123 63.5539 70.3029 62.4594C72.0936 61.3648 77.4655 47.1532 77.4655 47.1532C77.4655 47.1532 63.6106 33.7714 61.5668 33.789H61.5849Z" fill="white"/>
<path fill-rule="evenodd" clip-rule="evenodd" d="M64.8406 79.1072C64.8406 79.1072 68.9464 63.1126 70.2848 62.4594C71.6233 61.8062 85.9665 73.8286 85.9665 73.8286L83.7237 77.7655L70.1582 81.5082L64.8406 79.1249V79.1072Z" fill="white"/>
<path fill-rule="evenodd" clip-rule="evenodd" d="M30.4386 43.2693C28.4129 43.287 23.6921 62.3181 23.6921 62.3181C23.6921 62.3181 37.3661 73.0342 39.1567 71.9396C40.9473 70.8451 46.3193 56.6335 46.3193 56.6335C46.3193 56.6335 32.4644 43.2517 30.4386 43.2693Z" fill="white"/>
<path fill-rule="evenodd" clip-rule="evenodd" d="M33.6943 88.5875C33.6943 88.5875 37.8001 72.5928 39.1386 71.9396C40.4771 71.2864 54.8203 83.3089 54.8203 83.3089L52.5774 87.2458L39.012 90.9884L33.6943 88.6051V88.5875Z" fill="white"/>
<path fill-rule="evenodd" clip-rule="evenodd" d="M42.5209 9.17914C43.371 9.2321 44.2211 9.07321 45.0712 9.10852C46.8799 9.14383 48.5801 9.47926 50.1718 10.2384C51.4922 10.8563 52.8306 11.4389 54.2415 11.8449C54.3862 11.8802 54.5489 11.9332 54.6936 11.9508C55.4714 11.9861 56.213 12.1097 56.8098 12.604C57.7866 13.3985 58.908 13.1513 60.0113 13.116C60.9518 13.0807 61.8743 12.9395 62.851 13.1866C63.6287 13.3632 64.5331 13.063 65.2928 13.4867C66.378 14.1046 67.5175 14.5813 68.5304 15.3757C70.0678 16.5762 70.7913 18.1827 71.5329 19.8069C72.4553 21.8195 73.2512 23.9027 74.2279 25.8976C75.3312 28.1397 76.0547 30.523 77.1218 32.7827C77.4836 33.5595 77.7187 34.4069 78.3156 35.0601C78.5327 35.2896 78.4784 35.625 78.5508 35.9075C78.804 36.8432 79.1295 37.7435 79.6179 38.5909C79.9073 39.0852 80.0339 39.6678 80.1967 40.2151C80.3956 40.9389 80.8117 41.5568 81.0287 42.2806C81.2819 43.1104 81.5894 43.9225 81.7522 44.7699C81.8426 45.2465 82.2586 45.5467 82.4033 46.0057C82.8193 47.4356 83.2353 48.9009 83.8322 50.2603C84.2482 51.196 84.5015 52.2199 85.1164 53.1026C85.7314 53.9853 85.7495 55.0799 86.1112 56.0685C86.5996 57.3396 87.0698 58.6284 87.3231 59.9524C87.5401 60.994 87.9561 61.965 88.1551 63.0066C88.3721 64.1365 88.8786 65.231 89.1318 66.3609C89.5116 68.0557 90.0362 69.7858 89.9638 71.4982C89.9095 72.5222 89.9096 73.652 89.4212 74.676C89.0594 75.4351 88.9328 76.2825 88.5349 77.0416C88.1551 77.7478 87.8657 78.3657 86.9432 78.7188C85.7495 79.1778 84.4834 79.5309 83.3439 80.1311C83.2353 80.1841 83.1087 80.237 82.9821 80.237C80.9564 80.1841 79.2019 81.1374 77.357 81.7729C76.2537 82.1437 75.1865 82.638 74.0108 82.7792C73.8661 82.7969 73.7034 82.8498 73.5948 82.9381C72.184 83.9797 70.52 84.015 68.856 84.0503C67.8069 84.068 66.7578 84.3151 65.7992 84.6682C64.1533 85.2861 62.4531 85.7804 60.8433 86.5042C60.373 86.7161 59.8485 86.7867 59.3602 86.8397C57.8589 87.0162 56.4481 87.4752 55.0735 88.0225C53.8616 88.4992 52.6498 88.711 51.3656 88.7993C50.1899 88.8699 49.1228 89.4172 48.0013 89.735C46.8257 90.0704 45.7224 90.6353 44.5105 90.9354C43.3529 91.2179 42.1772 91.2885 41.0377 91.5886C39.8982 91.8888 38.6502 91.7828 37.4384 91.7475C35.7382 91.6946 34.1646 91.1649 32.591 90.6353C31.9579 90.4235 31.4153 90.0527 30.945 89.5761C30.0949 88.7463 29.0278 88.0755 28.4128 87.0515C27.8883 86.1865 27.1286 85.4097 27.0744 84.2622C27.0382 83.3442 26.4956 82.5497 26.0072 81.7729C25.6455 81.208 25.7902 80.5371 25.5189 79.9193C25.0124 78.7717 24.922 77.4477 24.4698 76.2825C23.9272 74.9055 23.3303 73.5285 22.7515 72.1691C22.2089 70.8627 21.3226 69.6975 21.0875 68.2675C21.0332 67.9144 20.9971 67.5261 20.563 67.3142C20.4363 67.2612 20.2916 67.0141 20.3097 66.8728C20.4906 65.3722 19.2968 64.26 19.1702 62.8477C19.1521 62.6535 18.9532 62.4593 18.8085 62.2828C18.4648 61.8414 18.1573 61.4177 18.1393 60.8175C18.1393 60.4114 17.9041 60.0584 17.6871 59.6876C17.0359 58.6284 16.8008 57.4102 16.4933 56.2274C16.4752 56.1391 16.4391 56.0332 16.3848 55.9449C15.6251 54.6209 15.191 53.1732 14.8293 51.7256C14.5218 50.5075 13.9792 49.3599 13.7802 48.1065C13.6717 47.418 13.6355 46.4823 12.8759 45.8997C12.5322 45.6349 12.4418 45.1936 12.6588 44.7346C12.7312 44.5933 12.7312 44.3638 12.6588 44.2226C12.1885 43.1633 12.2066 41.9629 11.7545 40.886C11.1214 39.3854 10.6511 37.7612 10.5607 36.19C10.4522 34.5128 9.72868 32.924 10.0543 31.2115C10.3436 29.6756 10.1989 28.0338 11.1757 26.692C11.5374 26.1801 11.6459 25.4209 12.0439 25.1385C12.8216 24.5912 13.5632 23.991 14.4495 23.5673C15.5347 23.0376 16.6018 22.5433 17.8137 22.3491C18.1393 22.2962 18.4648 22.0667 18.7542 21.8725C19.2607 21.537 19.8033 21.3075 20.4183 21.1839C21.2864 21.0251 22.0461 20.7426 22.4983 19.8422C22.8781 19.0655 23.5654 18.4652 24.4155 18.1121C25.2295 17.7767 25.7721 16.9646 26.6222 16.8057C27.6713 16.5939 28.232 16.0113 28.5756 15.1109C28.6118 15.005 28.6841 14.8991 28.7927 14.9344C29.2991 15.0933 29.4981 14.6872 29.7151 14.4224C30.9089 12.9748 32.6091 12.1097 34.2188 11.28C35.702 10.5209 37.3118 9.77938 39.1205 9.72642C39.6812 9.72642 40.2419 9.46161 40.8026 9.30272C41.3633 9.14383 41.9421 9.02025 42.539 9.12618L42.5209 9.17914ZM60.8252 15.2345C61.5306 15.7465 61.6572 16.5586 62.1637 17.1588C62.7786 17.8826 63.1223 18.783 63.3574 19.6304C63.6287 20.619 64.1533 21.5017 64.3522 22.4904C64.7321 24.3087 65.4917 26.0565 65.1843 27.9808C65.13 28.3515 65.0396 28.7223 65.0938 29.0753C65.3109 30.1169 64.9672 31.1056 64.7321 32.0766C64.6236 32.5532 64.7502 33.1358 64.4065 33.4889C63.6468 34.248 63.7192 35.5015 62.7063 36.084C62.652 36.1193 62.652 36.2782 62.6159 36.3665C62.435 36.9491 62.2722 37.4964 61.82 38.0083C60.572 39.4383 59.8847 41.2567 58.5462 42.669C58.1664 43.0751 57.5876 43.2869 57.3525 43.7636C57.045 44.3815 56.5385 44.8405 56.1587 45.3701C55.6703 46.0586 55.0916 45.9704 54.4223 45.8644C54.2957 45.8468 54.1691 45.7408 54.0787 45.7585C53.4999 45.9174 53.5541 45.582 53.5903 45.2289C53.6808 44.152 54.2234 43.2869 54.9288 42.5101C55.598 41.7687 56.3938 41.0095 56.8098 40.1798C57.6057 38.6086 58.6186 37.1786 59.5953 35.7486C60.2645 34.76 60.7348 33.6654 61.1689 32.6415C61.6753 31.388 62.5797 30.011 61.9105 28.4751C61.8562 28.3515 61.8562 28.1573 61.9285 28.0338C62.3626 27.2923 62.1275 26.5508 61.9466 25.8093C61.8743 25.5092 61.5668 25.3503 61.5849 25.0855C61.7296 23.9203 61.404 22.9141 60.9337 21.8548C60.3911 20.619 59.9028 19.3656 59.4144 18.0945C58.9441 16.8763 57.7142 16.2761 56.9726 15.2698C56.9184 15.1992 56.7737 15.1109 56.7194 15.1286C56.014 15.411 55.7246 14.8108 55.3448 14.4754C54.8745 14.0693 54.35 13.9458 53.7712 13.8045C53.0477 13.6456 52.3242 13.5044 51.655 13.2749C51.04 13.063 50.3346 12.9924 49.7739 12.5687C48.9419 11.9332 47.8928 11.7213 46.9161 11.4918C45.0531 11.0328 43.154 10.9092 41.2729 11.4212C40.2962 11.686 39.2109 11.7037 38.3247 12.0921C36.3531 12.9571 34.454 14.0164 32.7719 15.411C32.0845 15.976 31.5058 16.6468 30.6557 17.0705C29.697 17.5472 28.9916 18.324 27.9787 18.8183C26.8935 19.3479 25.9891 20.3012 24.9401 20.9898C24.6688 21.1663 24.6326 21.4135 24.5602 21.6783C24.2708 22.8787 24.2889 24.0792 24.4155 25.2974C24.5241 26.3743 24.4879 27.4512 24.7773 28.5281C24.9943 29.3578 24.8316 30.2935 25.139 31.1585C25.4827 32.1119 25.754 33.0828 26.0434 34.0538C26.17 34.5128 26.2966 35.0071 26.6403 35.3249C27.1648 35.8369 27.3999 36.5077 27.9245 37.0197C28.25 37.3375 28.7203 37.514 28.9193 37.9201C29.3172 38.7498 30.0769 39.3677 30.7461 39.8444C32.2473 40.9036 33.1155 42.5808 34.8338 43.4282C35.6116 43.8166 36.4074 44.2932 37.2213 44.6816C37.981 45.0523 38.9035 45.2112 39.5546 45.7055C40.2962 46.2528 41.2186 46.2175 41.9783 46.7295C42.34 46.9766 42.7199 47.0473 42.7379 47.5769C42.756 48.1242 42.4124 48.3007 41.9783 48.336C40.4951 48.4596 39.1024 48.0712 37.8001 47.4356C36.8415 46.959 35.8829 46.3941 34.9062 46.1292C34.1646 45.935 33.6762 45.3878 32.8804 45.2112C31.9218 44.9994 31.1259 43.9754 30.3843 43.2516C29.2629 42.1571 27.9606 41.239 26.9478 40.0209C26.3328 39.2971 25.555 38.7322 25.0848 37.8848C24.7773 37.3022 24.5241 36.596 24.1261 36.2076C23.5654 35.6603 23.3484 35.0954 23.0952 34.4246C22.5887 33.1181 22.1365 31.7941 21.9195 30.4171C21.7929 29.6756 21.4854 28.9165 21.4854 28.1926C21.4854 27.4159 21.5035 26.6744 21.2141 25.9506C21.0513 25.5445 21.1237 25.1385 21.3407 24.803C21.6301 24.344 21.4854 23.8497 21.5578 23.3907C21.0513 23.3907 20.6172 23.4966 20.1289 23.6908C19.4415 23.9733 18.9894 24.6442 18.1935 24.7148C17.3796 24.7854 16.8008 25.2267 16.2582 25.7917C16.1677 25.88 16.0411 25.9329 15.9326 26.0035C14.8474 26.5861 13.726 27.1157 13.8345 28.6163C13.8345 28.7752 13.7441 29.0047 13.6174 29.0753C13.111 29.3402 13.2376 29.7815 13.2376 30.1876C13.2376 30.6289 13.2195 31.0703 13.2014 31.5116C13.1291 33.1005 13.2557 34.6717 13.6355 36.2253C13.7441 36.6843 14.1601 37.108 13.9611 37.567C13.7441 38.079 13.8888 38.5556 14.1058 38.9264C14.558 39.7208 14.8293 40.5858 14.9559 41.4509C15.2815 43.64 16.0954 45.7055 16.638 47.824C17.1264 49.6777 18.0488 51.4255 18.3744 53.3498C18.4287 53.6852 18.5734 54.003 18.7361 54.3031C19.333 55.3447 19.5862 56.5275 20.0023 57.6221C20.5268 58.9814 20.7619 60.4467 21.5939 61.7002C21.9014 62.1592 22.1004 62.6712 22.3355 63.1655C22.6249 63.7834 22.4802 64.5602 22.9505 65.0721C23.475 65.6547 23.7101 66.3785 23.8548 67.0317C24.3432 69.062 25.4827 70.8274 26.1519 72.7693C26.4413 73.6344 27.1286 74.3759 27.1105 75.3645C27.1105 75.8235 27.6351 75.9824 27.7798 76.4414C28.25 77.8184 28.4852 79.2307 28.8831 80.6254C29.2087 81.72 29.7513 82.7263 30.0407 83.8385C30.2577 84.6682 30.5652 85.6215 31.2525 86.2218C32.4101 87.2281 33.1698 88.6934 34.8338 89.1347C35.1051 89.2053 35.4307 89.2936 35.7201 89.4172C36.9138 89.8762 38.198 89.7703 39.4099 89.6114C40.5132 89.4701 41.6165 89.2583 42.7199 89.0288C43.9498 88.7816 45.1074 88.3756 46.3011 88.0225C47.6758 87.6165 48.9057 86.8397 50.407 86.7514C51.5826 86.6808 52.8126 86.6455 53.8797 85.9923C54.2595 85.7628 54.6394 85.5156 55.1096 85.4097C56.9726 85.0566 58.8537 84.7388 60.6263 83.9444C61.6211 83.503 62.6159 82.9911 63.7554 82.8498C65.0757 82.6733 66.2514 81.9142 67.6441 82.0378C68.3676 82.1084 69.1092 82.0378 69.8146 81.8612C70.5743 81.6847 71.2977 81.4199 71.9851 81.0844C72.6362 80.7666 73.3054 80.3429 74.0289 80.3076C74.6982 80.29 75.2589 80.0958 75.8377 79.831C76.6697 79.4602 77.4836 78.8424 78.3337 78.7894C79.7264 78.7011 80.9925 78.2068 82.3491 77.9949C82.8555 77.9243 83.3439 77.6595 83.7961 77.3947C85.7676 76.2648 86.2559 74.3229 86.6357 72.3456C86.7081 71.9396 86.9252 71.5159 86.8166 71.1275C86.3464 69.6622 86.6177 68.091 86.0751 66.6433C85.7495 65.7606 85.4058 64.8603 85.3335 63.9423C85.2973 63.4833 84.6642 63.2714 84.9356 62.8654C85.1164 62.6005 85.0079 62.4417 84.9356 62.2651C84.5015 61.2412 84.1035 60.1996 83.8141 59.1403C83.4705 57.8516 83.1268 56.5628 82.6566 55.3094C81.8788 53.2615 81.1191 51.2136 80.3776 49.1658C80.269 48.848 80.3414 48.389 80.1424 48.1771C79.636 47.6651 79.8892 46.6765 78.9848 46.447C78.9668 46.447 78.9487 46.2352 78.9848 46.1822C79.1657 45.9527 79.0029 45.7762 78.9306 45.5643C78.6412 44.6639 78.4603 43.7636 77.99 42.8985C77.4655 41.9452 77.0857 40.8683 76.8144 39.7738C76.5069 38.538 75.7653 37.4081 75.4216 36.1723C75.1142 35.0601 74.4449 34.0891 74.0289 33.0299C73.4501 31.5469 73.1246 29.9404 72.0393 28.687C71.4424 28.0161 71.6052 27.1334 71.2616 26.3919C70.8275 25.4209 70.2125 24.5382 69.9231 23.4966C69.8327 23.1612 69.8146 22.7905 69.6337 22.4904C68.6027 20.672 68.0782 18.5888 66.577 17.0176C66.4323 16.8763 66.2695 16.7704 66.1248 16.6468C65.546 16.1702 64.8587 15.8877 64.2075 15.517C63.1042 14.8991 61.9828 15.058 60.771 15.1815L60.8252 15.2345ZM60.6263 15.2169C60.6263 15.2169 60.5901 15.2345 60.572 15.2522C60.572 15.2522 60.5901 15.2875 60.6082 15.2875C60.6082 15.2875 60.6443 15.2698 60.6443 15.2522C60.6443 15.2522 60.6263 15.2169 60.6082 15.1992L60.6263 15.2169Z" fill="#1E6E67"/>
<path fill-rule="evenodd" clip-rule="evenodd" d="M60.6255 15.1992C60.6255 15.1992 60.661 15.2345 60.661 15.2522L60.6255 15.2875L60.5901 15.2522C60.5901 15.2522 60.6255 15.2345 60.6433 15.2169L60.6255 15.1992Z" fill="white"/>
<path fill-rule="evenodd" clip-rule="evenodd" d="M47.6577 41.0979C48.0375 40.1092 48.6887 39.2971 49.0866 38.3615C49.2855 37.8848 49.8281 37.5141 49.9548 37.0374C50.3165 35.7663 51.0943 34.6541 51.3475 33.33C51.5103 32.4473 52.1433 31.6529 52.2699 30.7878C52.487 29.2872 52.8487 27.8043 52.7945 26.2507C52.7764 25.4916 52.903 24.6795 53.0839 23.991C53.4456 22.6493 53.12 21.3252 53.319 20.0012C53.4094 19.3833 53.4275 18.7477 53.6988 18.1828C53.8797 17.8121 54.151 17.6002 54.5851 17.5649C55.0373 17.5472 55.2905 17.7944 55.4895 18.1298C55.8512 18.7301 55.9416 19.3833 56.014 20.0718C56.1225 21.3076 55.7969 22.561 56.2672 23.7792C56.3757 24.0616 56.231 24.45 56.1587 24.8031C55.7608 26.8686 55.5437 28.9518 55.4533 31.035C55.4352 31.5999 55.0915 32.006 54.9288 32.5003C54.5128 33.8244 54.1691 35.1837 53.518 36.4019C52.903 37.567 52.4689 38.8028 51.9624 40.0033C51.9263 40.0739 51.8901 40.1445 51.8358 40.1975C50.8229 40.886 50.5697 42.0512 50.1356 43.0398C49.7015 44.0108 49.593 45.1407 49.8824 46.2176C50.0995 47.0826 50.2622 47.983 50.8229 48.7421C51.2028 49.2541 51.1485 49.8896 51.2751 50.4722C51.5103 51.6021 52.0167 52.6437 52.4146 53.6853C52.903 54.9917 53.3371 56.3157 53.8073 57.6398C54.3319 59.1051 54.9107 60.5527 54.983 62.1592C55.0192 62.8831 55.3809 63.6598 55.6161 64.4013C55.815 64.9839 55.9778 65.5312 56.0502 66.1491C56.1225 66.767 56.2672 67.3849 56.6832 67.8968C57.045 68.3558 57.045 68.9384 57.1354 69.4327C57.4791 71.2335 58.2387 72.9106 58.7271 74.6584C59.2878 76.6356 60.1741 78.5423 60.3007 80.6608C60.3368 81.3846 59.8485 82.1437 59.0346 82.2496C58.1483 82.3732 57.7142 82.0025 57.4791 81.208C57.0992 79.831 57.045 78.3481 56.0502 77.1653C55.9959 77.0946 55.9597 76.9887 55.9416 76.8828C55.7246 76.0001 55.4533 75.1174 55.2182 74.2347C54.9288 73.0872 54.5489 71.9926 54.0244 70.951C53.8616 70.5979 53.9882 70.1389 53.9159 69.8211C53.7531 69.0797 53.735 68.3205 53.4275 67.6144C52.903 66.4139 52.6317 65.1604 52.5051 63.8717C52.4689 63.448 52.4327 63.0066 52.2518 62.6359C51.673 61.4531 51.655 60.1114 51.1123 58.9109C51.0038 58.6637 50.9134 58.3989 50.7868 58.1518C50.4612 57.4809 49.9909 56.863 50.0452 56.0509C50.0633 55.7331 49.9186 55.433 49.7377 55.1506C49.4302 54.6915 49.1951 54.2149 49.2313 53.6146C49.2674 53.0144 48.6886 52.6084 48.544 52.0258C48.1279 50.3486 47.7119 48.6715 46.9884 47.0826C46.4277 45.8468 46.2107 44.4521 46.7714 43.0928C46.9161 42.7573 46.9523 42.3866 47.0608 41.9099C46.283 42.1924 45.6319 41.804 44.9265 41.7687C44.2934 41.7334 43.9679 41.1332 43.6604 40.6742C43.4614 40.374 43.2986 40.1975 42.9369 40.0916C42.2315 39.8797 41.5804 39.5796 41.0377 38.997C40.3685 38.2732 39.5184 37.7083 38.7045 37.1433C38.3066 36.8609 37.9267 36.5784 37.6192 36.2077C36.9138 35.3779 35.9733 34.813 35.1955 34.0715C34.671 33.5772 34.0018 33.2241 33.839 32.4297C33.839 32.3414 33.7124 32.2708 33.64 32.2178C32.6814 31.6882 32.0484 30.8055 31.1983 30.1523C30.529 29.6403 30.0768 28.9165 29.6789 28.2103C29.2448 27.4512 28.5937 26.8686 28.25 26.0565C28.0149 25.5093 27.7255 24.9796 27.5808 24.3794C27.3276 23.3201 27.7979 22.4021 28.7746 21.9255C29.2629 21.696 29.3895 22.102 29.48 22.3668C29.896 23.6026 30.5471 24.6972 31.2887 25.7388C32.6995 27.7513 34.3093 29.5874 36.118 31.2645C36.8234 31.9354 37.3841 32.7651 38.1438 33.4183C38.7407 33.9303 39.5003 34.2304 40.061 34.813C40.9654 35.731 42.0144 36.5254 42.9731 37.3905C43.2263 37.62 43.4253 37.9025 43.8232 37.9554C44.0945 37.9907 44.4381 38.2026 44.5648 38.4321C45.0531 39.3678 45.7947 39.915 46.7895 40.1975C47.2236 40.3211 47.3683 40.7095 47.5853 41.1155L47.6577 41.0979Z" fill="#1E6E67"/>
<path fill-rule="evenodd" clip-rule="evenodd" d="M36.8415 20.3189C36.7691 20.0012 36.9862 19.8599 37.2394 19.7717C39.5003 19.0478 41.707 18.1298 44.0764 17.7238C44.7456 17.6002 45.1616 17.7414 45.234 18.4829C45.2521 18.8007 45.3606 19.1185 45.451 19.4362C45.7585 20.5308 45.7223 20.7073 44.6371 21.0604C42.8284 21.6783 41.0016 22.2609 39.1567 22.7905C38.0353 23.126 37.2937 22.6493 37.0766 21.5724C36.9862 21.1487 36.9319 20.7426 36.8415 20.3189Z" fill="#1E6E67"/>
<path fill-rule="evenodd" clip-rule="evenodd" d="M58.0759 56.916C58.1121 56.6158 58.1302 56.0862 58.2568 55.5742C58.4558 54.7622 59.1069 54.5327 59.8485 54.974C60.988 55.6449 61.6934 58.0635 61.0784 59.211C60.6624 59.9878 59.2154 60.1114 58.6728 59.4052C58.1664 58.7343 58.094 57.9399 58.0759 56.916Z" fill="#1E6E67"/>
<path fill-rule="evenodd" clip-rule="evenodd" d="M66.161 74.9938C66.161 75.6647 65.9439 76.2296 65.2566 76.4944C64.6959 76.7239 63.7192 76.4061 63.3393 75.9118C62.8329 75.2056 62.5073 74.4112 62.435 73.5638C62.3807 72.8753 62.8872 72.4163 63.3574 72.0279C63.6649 71.7807 65.0034 72.2927 65.347 72.6988C65.7811 73.2107 66.1248 74.2523 66.1429 74.9938H66.161Z" fill="#1E6E67"/>
</g>
<defs>
<clipPath id="clip0_125_12972">
<rect width="80" height="82.7273" fill="white" transform="translate(10 9.09091)"/>
</clipPath>
</defs>
</svg>
