<svg width="201" height="100" viewBox="0 0 201 100" fill="none" xmlns="http://www.w3.org/2000/svg">
<g clip-path="url(#clip0_125_12990)">
<path fill-rule="evenodd" clip-rule="evenodd" d="M84.6654 25.8781C84.6654 25.8781 73.8833 15.4902 72.9193 15.0417C71.9732 14.5932 68.4208 14.037 68.4208 14.037L5.35284 45.2905L3.96045 49.1299L37.6455 85.6042L39.9662 86.268L89.4316 61.8322L75.597 52.754L75.9719 47.5152L77.8105 38.4908L77.4357 32.2652L78.3104 29.1793L81.5057 27.2596L84.6654 25.8781Z" fill="#9CD7ED"/>
<path fill-rule="evenodd" clip-rule="evenodd" d="M38.5737 87.1651C38.4309 86.8063 38.0917 86.7704 37.7704 86.6987C36.9849 86.4834 36.2173 86.2681 35.8246 85.4249C35.6818 85.1019 35.2712 84.9763 35.0035 84.779C33.9503 83.9716 33.0041 83.0746 32.1116 82.1057C31.4332 81.3881 30.6121 80.814 29.9695 80.0963C29.3625 79.4146 28.6663 78.7866 28.0594 78.0869C27.631 77.6025 27.1847 77.154 26.6134 76.7772C26.0422 76.4005 25.5959 75.7725 25.2032 75.1984C24.2928 73.9066 23.1325 72.9557 21.9007 72.0228C21.4188 71.664 21.1153 71.1078 20.8118 70.6234C20.3477 69.8878 19.6872 69.4393 19.0981 68.8831C18.1877 68.0219 17.1881 67.2325 16.5276 66.1202C16.3848 65.8869 16.2062 65.6716 15.9742 65.5461C15.2423 65.1514 14.8139 64.4875 14.3676 63.8237C14.0284 63.3214 13.6 62.8369 13.0823 62.4602C12.761 62.2269 12.5111 61.7784 12.2076 61.4555C11.8863 61.0967 11.6364 60.6661 11.2258 60.3611C11.0651 60.2355 10.9402 60.0561 10.9759 59.8228C11.0116 59.5896 10.8688 59.482 10.7081 59.3743C9.65488 58.6925 9.06579 57.634 8.38745 56.6114C7.72696 55.6246 6.92366 54.7634 6.0668 53.9381C5.69193 53.5793 5.28136 53.2384 4.97789 52.772C4.54946 52.0902 4.08533 51.4264 3.60335 50.7626C3.17492 50.1705 3.12137 49.417 2.7822 48.7711C2.56799 48.3943 2.31807 47.9996 2.35377 47.4973C2.37162 47.1026 2.53228 47.0308 2.8536 47.1026C3.26418 47.1923 3.5855 47.4076 3.83541 47.7305C4.28169 48.2867 4.71012 48.8429 5.13855 49.417C5.53127 49.9193 6.28102 50.1705 6.24532 50.9958C6.24532 51.2111 6.54878 51.1393 6.67374 51.3726C7.19143 52.3055 8.01258 52.9873 8.81588 53.669C8.94083 53.7767 9.06579 53.9023 9.1372 54.0458C9.44067 54.5661 9.76199 55.0505 10.244 55.4452C10.6188 55.7502 10.8331 56.2167 11.083 56.6293C11.4221 57.2034 11.797 57.7596 12.2433 58.262C12.8502 58.9437 13.6 59.5358 14.0998 60.2714C14.4747 60.8096 14.921 61.3299 15.2958 61.8502C15.6529 62.3167 16.0634 62.8369 16.5633 63.2137C16.8132 63.4111 17.0452 63.6084 17.1881 63.8775C17.6522 64.649 18.4019 65.2052 18.9732 65.869C19.5087 66.479 20.1692 67.0711 20.794 67.6452C21.508 68.2911 22.4006 68.8293 22.704 69.834C22.7397 69.9416 22.7933 70.0313 22.9004 70.0493C23.4895 70.2287 23.9179 70.749 24.1857 71.1796C24.5606 71.7896 25.471 71.951 25.5245 72.7943C25.5424 73.1352 25.9351 73.0813 26.1136 73.2787C26.9348 74.1578 28.0058 74.7857 28.6306 75.8981C28.8805 76.3466 29.4696 76.5081 29.8623 76.9028C31.0941 78.1228 32.3079 79.3249 33.504 80.5807C34.2716 81.406 35.1641 82.1237 36.0567 82.8054C36.6636 83.2899 37.1813 83.864 37.7525 84.3663C38.7344 85.2096 39.5555 85.5863 40.6801 84.9225C41.18 84.6354 41.7333 84.5816 42.251 84.3663C42.9829 84.0793 43.6791 83.7563 44.3575 83.3437C44.8573 83.0387 45.4285 82.8772 45.9462 82.6081C46.3211 82.4287 46.6603 82.1954 46.9994 81.9622C47.1958 81.8187 47.3743 81.729 47.6064 81.711C48.0705 81.6572 48.4811 81.5854 48.8024 81.1369C48.9809 80.9037 49.445 80.8499 49.7842 80.7781C50.1234 80.7243 50.4268 80.6166 50.6946 80.3834C50.8731 80.2219 51.0873 80.1681 51.3729 80.2219C51.605 80.2578 51.8728 80.2757 52.0334 79.9169C52.1227 79.7196 52.4262 79.6299 52.6761 79.576C53.1938 79.4863 53.64 79.2531 54.1042 79.0019C55.9964 78.0331 57.96 77.154 59.8165 76.1134C60.834 75.5393 61.923 75.2163 62.994 74.7857C63.9401 74.409 64.7791 73.781 65.7431 73.4581C66.5285 73.2069 67.1176 72.5431 68.0637 72.5072C68.5279 72.5072 69.0991 71.9331 69.6525 71.664C70.4379 71.2872 71.2055 70.8566 71.9553 70.3902C72.4908 70.0493 73.1156 69.8878 73.6333 69.4572C74.0617 69.0984 74.6687 68.9908 75.1149 68.6678C75.9896 68.0578 77.15 67.9861 77.8819 67.1249C78.6316 67.1966 79.1314 66.6405 79.7205 66.3534C80.506 65.9766 81.4521 65.9049 81.9876 65.0616C82.1126 64.8643 82.3803 65.0258 82.5231 64.9361C83.3622 64.4337 84.2904 64.0749 85.1294 63.5905C85.5757 63.3393 85.9506 62.8369 86.5575 62.8728C86.7182 62.8728 86.9324 62.8369 86.9502 62.6575C86.9859 62.4781 86.9502 62.2628 86.7182 62.1911C85.8435 61.904 85.3079 61.0249 84.3261 60.8993C83.9512 60.8455 83.6299 60.4687 83.3265 60.2175C82.2911 59.3384 81.2557 58.4414 80.2025 57.5622C79.5063 56.9702 78.7209 56.432 77.8283 56.0911C77.2392 55.8758 76.8108 55.4452 76.3824 54.9608C75.9004 54.4226 75.3827 53.9023 74.865 53.382C74.508 53.0231 74.3116 52.7002 74.2581 52.144C74.1867 51.4802 74.0439 50.7626 73.7761 50.1167C73.5262 49.5426 73.4726 49.0043 73.7761 48.4302C74.0617 47.892 73.7761 47.282 73.9725 46.7258C74.3295 45.7032 74.3116 44.6267 74.5973 43.5861C74.8472 42.6532 75.222 41.7202 75.4898 40.8052C75.7576 39.9082 75.7754 38.9214 76.3467 38.114C76.6144 37.7373 76.2931 37.2708 76.4002 36.8402C76.5787 36.1046 76.8465 35.369 76.5252 34.5976C76.1682 33.7543 76.4002 32.8393 76.2217 31.9961C75.9539 30.6864 76.186 29.5202 76.7215 28.3541C76.8108 28.1567 76.9179 28.0491 77.15 28.0132C77.5784 27.9594 77.8462 27.5826 78.2032 27.3673C78.7209 27.0444 79.3099 26.7573 79.8276 26.6138C80.5595 26.4164 81.3271 26.255 82.059 26.0397C82.2554 25.9858 82.541 25.9679 82.5767 25.7885C82.6124 25.5911 82.4339 25.3758 82.2554 25.2144C81.5949 24.5685 80.8808 23.9585 80.2918 23.2408C79.6313 22.4335 78.8815 21.6441 78.1318 20.9623C77.15 20.0653 76.4359 18.935 75.3113 18.1635C74.6508 17.715 73.8832 17.2306 73.4905 16.4411C73.4905 16.4411 73.4726 16.4053 73.4548 16.3873C72.4194 15.9209 71.5269 15.1853 70.3665 15.0059C69.9203 14.9341 69.4918 14.7726 69.0277 14.8085C67.7781 14.9341 66.6714 15.5082 65.511 15.885C64.7434 16.1361 64.1722 16.7461 63.351 16.9256C62.9405 17.0153 62.5299 17.3741 62.0479 17.4458C61.9587 17.4458 61.8694 17.5535 61.8159 17.6253C61.316 18.3608 60.4949 18.5223 59.7451 18.7914C59.0668 19.0426 58.3527 19.2041 57.8886 19.8679C57.7279 20.1191 57.3709 20.0653 57.1032 20.137C56.2642 20.3703 55.6037 20.9264 54.8361 21.2494C54.2113 21.5185 53.6579 21.967 52.9617 22.0926C52.6225 22.1464 52.3012 22.272 52.1048 22.6308C51.962 22.8641 51.6764 22.9358 51.4086 23.0255C50.1769 23.4741 49.0345 24.0841 47.9098 24.8017C47.4993 25.0708 46.9459 25.4835 46.3211 25.3758C46.2497 25.3758 46.1069 25.3758 46.089 25.4117C45.7855 26.2191 44.893 25.8961 44.3753 26.3267C43.5542 27.0085 42.4831 27.152 41.5548 27.6723C40.6623 28.1926 39.7162 28.6949 38.7701 29.1435C37.5919 29.6996 36.4316 30.3814 35.2177 30.8838C34.0395 31.3682 32.9684 32.1576 31.6832 32.337C31.4154 32.3729 31.3797 32.642 31.1833 32.7496C30.7549 32.9829 30.3979 33.4135 29.8266 33.2879C29.2554 34.0952 28.22 34.0773 27.506 34.6693C27.0419 35.0282 26.4706 35.387 25.8815 35.6023C25.4174 35.7638 24.9354 35.9252 24.6677 36.4096C24.6141 36.4993 24.4535 36.5352 24.3463 36.5352C23.6145 36.5352 23.2039 37.1632 22.6148 37.3964C21.9186 37.6655 21.4188 38.2935 20.6333 38.4729C20.187 38.5805 19.8479 38.9393 19.4551 39.2264C18.8839 39.639 18.1877 39.8902 17.5272 40.1773C17.2416 40.3029 16.956 40.3746 16.7775 40.6617C16.5811 40.9487 16.2955 41.1102 15.9206 41.1999C15.51 41.3255 15.0638 41.469 14.7603 41.8279C14.6889 41.8996 14.5818 41.9714 14.4925 41.9714C13.2965 42.0073 12.5646 42.9582 11.6007 43.4246C10.6902 43.8732 9.79769 44.3396 8.90513 44.824C8.31605 45.147 7.65555 45.3623 7.01291 45.7032C7.38779 46.2234 7.83407 46.7258 7.94117 47.3896C7.95902 47.4973 8.13753 47.587 8.24464 47.6767C8.56596 47.9099 8.81588 48.179 8.99439 48.5558C9.38711 49.3811 9.9762 50.0987 10.4046 50.942C10.7081 51.5699 11.315 52.0364 11.8149 52.5567C12.4754 53.2384 13.0466 53.9561 13.6178 54.7096C14.0463 55.2837 14.5104 55.8758 15.1887 56.2346C15.4029 56.3423 15.4922 56.6114 15.6886 56.7908C16.6347 57.6161 17.5094 58.549 18.509 59.3025C19.0981 59.7511 19.6158 60.2893 20.2941 60.6481C21.1331 61.0787 21.99 61.5093 22.7397 62.0117C23.5252 62.5499 24.4178 62.7652 25.1675 63.2496C26.1136 63.8416 27.1847 64.1825 28.2022 64.4696C29.2376 64.7566 30.3265 64.9361 31.3975 65.1872C32.4151 65.4205 33.4683 65.1872 34.4679 65.5102C34.6286 65.564 34.825 65.5461 35.0213 65.5281C37.574 65.4922 40.1446 65.4564 42.6973 65.4384C44.0361 65.4384 45.3928 65.4564 46.6424 66.0663C47.1065 66.2816 47.6242 66.4431 47.9098 66.9993C48.124 67.4299 48.5882 67.699 48.9273 68.0399C49.2487 68.3628 49.5343 68.7755 49.6414 69.1163C49.8913 69.7981 50.3911 70.2287 50.8017 70.7131C52.4797 72.6866 54.0863 74.7857 56.8354 75.3957C57.0496 75.4496 57.4245 75.4675 57.3709 75.7905C57.3352 76.0596 57.0317 76.0775 56.7818 76.0955C56.1927 76.1493 55.5858 76.221 54.9967 76.2928C54.7468 76.3287 54.4969 76.3287 54.3541 76.0416C54.3541 76.0057 54.3184 75.9519 54.2827 75.9519C53.2473 75.7366 52.4797 74.9652 51.5336 74.5525C51.1409 74.3731 51.0159 73.9425 50.6946 73.6734C50.3376 73.3684 49.9449 73.0275 49.6771 72.6687C49.3379 72.2381 48.8916 71.8972 48.6417 71.4487C48.3918 70.9822 48.0169 70.6772 47.6956 70.3005C47.3386 69.8878 47.053 69.3675 46.7674 68.8831C46.1247 67.8425 45.3393 67.5375 44.1611 67.4478C42.9651 67.3581 41.8226 67.6093 40.6266 67.4837C39.5019 67.3761 38.3595 67.4837 37.217 67.5196C36.4316 67.5375 35.664 67.6452 34.8785 67.394C34.2894 67.1966 33.6468 67.3581 33.0398 67.3043C32.4151 67.2325 31.826 67.0711 31.2369 66.9455C29.666 66.6225 28.1129 66.2099 26.5599 65.7613C25.1675 65.3666 23.9179 64.6311 22.6148 64.0211C21.6865 63.5905 20.7404 63.1599 19.8836 62.6396C19.2588 62.2628 18.4733 62.0117 18.0449 61.3658C17.5629 60.6481 16.7953 60.3611 16.1884 59.8408C15.7778 59.482 15.4743 58.9617 14.921 58.7822C14.4211 58.6028 13.9927 58.3517 13.7249 57.9031C13.243 57.1317 12.4397 56.6293 11.9577 55.9296C11.5828 55.3914 11.2079 54.9608 10.6902 54.584C10.4582 54.4225 10.2618 54.1534 10.119 53.8843C9.88694 53.4537 9.63703 53.0052 9.15505 52.772C9.04794 52.7181 8.92298 52.6284 8.88728 52.5208C8.56596 51.4264 7.65555 50.7446 7.06647 49.8476C6.85225 49.5246 6.70944 49.1658 6.49523 48.8249C5.76334 47.6587 4.90648 46.5643 4.40665 45.2726C4.21029 44.7523 4.4245 44.1961 4.92433 43.8911C5.24565 43.6937 5.54912 43.5323 5.94185 43.5143C6.19176 43.5143 6.42383 43.4067 6.60234 43.1376C6.70944 42.9761 6.97721 42.8505 7.17357 42.8326C7.99473 42.7429 8.67307 42.4199 9.2443 41.8279C9.45852 41.5946 9.81554 41.774 10.0833 41.5587C10.8152 40.9667 11.6721 40.5899 12.5111 40.1414C13.2073 39.7826 13.9749 39.5493 14.5996 39.1008C15.51 38.4729 16.5633 38.2038 17.4558 37.5938C17.8128 37.3426 18.1163 37.0914 18.5804 37.1632C18.5983 37.1632 18.634 37.1632 18.634 37.1632C18.9375 36.302 19.83 36.3738 20.4548 36.0149C20.5976 35.9252 20.6869 35.8176 20.794 35.7099C21.0796 35.7996 21.3117 35.5843 21.4366 35.4588C22.115 34.777 22.9718 34.4899 23.8287 34.1849C23.9001 34.167 23.9893 34.1132 24.025 34.0414C24.4178 33.5211 25.0961 33.4135 25.5781 33.0008C25.8994 32.7317 26.3814 32.642 26.7563 32.5164C27.3453 32.337 27.8452 32.032 28.3093 31.7091C28.8448 31.3323 29.4161 31.117 29.9873 30.8479C30.987 30.3635 32.1294 30.1302 32.9506 29.3049C33.2719 28.982 33.6646 29.1076 34.0038 28.9461C34.8785 28.5155 35.8068 28.1926 36.5208 27.4749C36.7172 27.2597 37.092 27.3673 37.3777 27.2597C37.5919 27.1879 37.8954 27.152 38.0382 26.9905C38.6629 26.3447 39.5734 26.2729 40.2696 25.8064C41.1264 25.2323 42.0904 24.9811 42.9829 24.5147C43.8576 24.0661 44.768 23.6176 45.6427 23.2229C46.4282 22.882 47.0708 22.29 47.9455 22.0926C48.7667 21.9132 49.4093 21.2135 50.1591 20.8008C50.5339 20.5855 51.0338 20.5855 51.4265 20.3523C52.6404 19.6167 54.0328 19.222 55.2109 18.3608C55.4787 18.1635 55.8893 17.9303 56.2285 17.8764C56.6747 17.8226 56.996 17.5714 57.2281 17.3203C57.6565 16.8717 58.1921 16.7103 58.7276 16.495C59.1917 16.2976 59.638 16.0464 60.1735 16.0644C60.1914 16.0644 60.2271 16.0644 60.2271 16.0644C60.7983 15.1853 62.0479 15.4185 62.6549 14.5932C62.7441 14.4676 62.9405 14.36 63.1725 14.36C63.4046 14.36 63.6902 14.2882 63.8687 14.1447C64.5828 13.6064 65.4396 13.445 66.2608 13.14C66.8499 12.9247 67.4211 12.835 68.028 12.7453C68.867 12.6197 69.5632 13.0323 70.3308 13.1579C71.5447 13.3732 72.6336 13.8576 73.7404 14.36C74.4723 14.7009 75.1685 15.1673 75.6326 15.885C75.8825 16.2797 76.2931 16.495 76.6501 16.7641C77.2928 17.2306 77.8819 17.715 78.346 18.3608C78.6138 18.7197 79.0779 18.917 79.4171 19.222C80.3989 20.0473 81.0594 21.1417 81.9519 22.0388C82.8266 22.9179 83.7549 23.7432 84.5939 24.6761C84.6296 24.73 84.6653 24.7838 84.701 24.8197C85.1116 25.4117 85.4864 25.4835 86.1469 25.1605C86.5039 24.9811 86.9324 24.8555 87.3073 24.9632C87.7357 25.0708 88.0927 24.9991 88.3962 24.7658C88.9496 24.3711 89.6279 24.4788 90.217 24.2635C90.4847 24.1558 90.7347 24.0123 90.9846 23.9405C92.3234 23.5638 93.5908 23.0076 95.0011 22.8282C96.8754 22.6129 98.732 22.3079 100.481 21.5185C101.535 21.052 102.695 20.7111 103.873 20.6394C104.801 20.5855 105.658 20.9982 106.533 21.2135C107.782 21.5364 107.961 22.5232 108.389 23.492C109.014 24.8735 108.979 26.3626 109.264 27.8158C109.478 28.9641 110.121 29.897 110.889 30.7044C112.192 32.0499 113.37 33.4673 114.191 35.1717C114.459 35.7279 115.101 36.0688 115.28 36.7146C115.441 37.3067 115.762 37.827 115.976 38.3832C116.208 38.9752 116.297 39.639 116.672 40.1952C116.922 40.572 117.047 41.0564 116.94 41.5408C116.922 41.6305 116.922 41.7561 116.94 41.8458C117.636 43.299 116.94 44.6446 116.637 46.0081C116.476 46.6899 116.333 47.3896 116.101 48.0176C115.691 49.094 115.78 50.2961 115.084 51.2828C114.78 51.7134 114.691 52.2696 114.37 52.7181C113.709 53.6511 113.013 54.5302 112.263 55.3914C111.567 56.1987 110.942 57.0778 110.264 57.8852C109.585 58.6925 109.353 59.6972 108.711 60.4867C108.318 60.9711 108.122 61.5631 108.104 62.209C108.104 62.8549 107.658 63.3752 107.336 63.8955C107.247 64.039 107.176 64.1646 107.14 64.3261C106.89 65.7434 105.944 66.479 104.641 66.8916C104.087 67.0711 103.516 67.2325 102.998 67.5734C102.659 67.8066 102.195 67.6811 101.802 67.8425C100.499 68.4346 99.1247 68.0937 97.7859 68.0937C96.3935 68.0937 95.1974 67.5016 93.9479 67.0352C93.3231 66.8019 92.9661 66.1202 92.3413 65.7972C91.8593 65.5461 91.4844 65.1514 91.1809 64.6849C90.9489 64.2902 90.449 64.2722 90.1277 64.0211C89.6636 63.6622 89.3958 64.0928 89.021 64.2543C88.5925 64.4516 88.1284 64.5952 87.7178 64.8105C86.9681 65.2231 86.1648 65.4922 85.4686 66.0305C85.0045 66.3713 84.3975 66.7302 83.7549 66.9275C83.0051 67.1428 82.3268 67.5196 81.7377 68.0578C81.702 68.0937 81.6306 68.1475 81.5949 68.1475C80.7916 67.9861 80.3096 68.614 79.7027 68.919C79.667 68.9369 79.6313 68.9908 79.5956 68.9908C78.7923 68.7934 78.4709 69.6366 77.864 69.8519C77.2392 70.0852 76.7215 70.5875 76.1146 70.7849C74.7222 71.1975 73.6868 72.2919 72.3123 72.7225C72.0445 72.8122 71.7768 72.9199 71.509 73.0096C71.2055 73.0993 70.9199 73.189 70.8128 73.5478C70.7771 73.7093 70.5986 73.7631 70.4736 73.781C69.6346 73.9066 69.0456 74.5705 68.2958 74.8575C67.671 75.0907 67.0641 75.3778 66.4214 75.5931C65.7609 75.8084 65.2076 76.3287 64.5471 76.4902C63.3332 76.7952 62.3514 77.5846 61.1911 77.9972C60.6734 78.1766 60.1021 78.4637 59.5845 78.661C58.5491 79.0557 57.7815 79.899 56.7818 80.2399C55.5323 80.6704 54.4612 81.4778 53.1581 81.8546C52.2834 82.1057 51.4086 82.5722 50.5518 83.0028C50.0341 83.2719 49.5521 83.6487 48.9273 83.7204C48.3918 83.7743 47.9634 84.151 47.4814 84.4201C46.9994 84.7072 46.5174 85.066 45.9819 85.2096C45.1786 85.4428 44.4289 85.8016 43.6613 86.1066C43.0186 86.3578 42.3224 86.5013 41.7333 86.8601C40.8943 87.3804 40.0732 87.2728 39.1985 87.0754C39.02 87.0395 38.8236 87.0216 38.6629 87.1651C38.6272 87.1651 38.5915 87.1472 38.538 87.1293L38.5737 87.1651ZM76.5787 48.1611C76.1681 49.1299 76.3467 50.1526 76.4716 51.1573C76.6144 52.3055 77.4356 53.077 78.1853 53.8664C78.578 54.279 78.8815 54.8531 79.5063 54.9428C80.1668 55.0505 80.6666 55.3914 81.1486 55.8399C81.6484 56.3064 82.059 56.8805 82.6303 57.2034C83.1658 57.5084 83.5942 57.8672 83.9869 58.3337C84.094 58.4772 84.2369 58.567 84.3975 58.6746C85.7364 59.6255 87.218 60.3072 88.6639 61.0608C88.9317 61.1864 89.1995 61.3837 89.5208 61.2402C89.6279 61.1864 89.7529 61.2043 89.8421 61.3299C90.4312 62.0834 91.3595 62.3705 92.0556 63.0164C93.0196 63.9134 94.1264 64.649 95.0189 65.6178C95.1082 65.7255 95.2153 65.7614 95.3224 65.8152C96.1614 66.1381 97.054 66.2099 97.9287 66.2458C99.2496 66.2816 100.535 66.0663 101.785 65.6178C102.356 65.4205 102.838 64.9899 103.463 64.9181C103.944 64.8643 104.194 64.5772 104.462 64.2005C104.891 63.5905 104.712 62.7831 105.248 62.1911C105.39 62.0296 105.605 61.8143 105.622 61.4555C105.676 60.7558 105.962 60.0561 106.229 59.3922C106.39 58.9796 106.729 58.5849 106.926 58.1364C107.265 57.347 107.747 56.6652 108.336 56.0552C108.782 55.5887 109.211 55.1043 109.675 54.6378C110.371 53.9381 110.942 53.077 111.478 52.2337C111.763 51.7852 112.299 51.5161 112.442 51.1034C112.674 50.4037 113.066 49.722 113.138 49.0043C113.263 47.6408 113.763 46.4029 114.102 45.1111C114.245 44.5729 114.655 44.1423 114.673 43.6399C114.673 42.8505 114.744 42.0073 114.477 41.2358C113.995 39.8543 113.566 38.437 112.941 37.1273C112.584 36.3558 112.174 35.5485 111.656 34.9026C111.103 34.2029 110.728 33.3596 110.067 32.7855C109.193 32.0141 108.8 30.812 107.729 30.2558C107.604 30.1841 107.604 30.0047 107.55 29.8791C107.193 29.0538 107.283 28.1388 106.819 27.3314C106.64 27.0085 106.479 26.5241 106.497 26.2549C106.551 25.5194 106.176 24.8735 106.176 24.1558C106.176 23.51 105.498 22.5411 105.123 22.6488C104.534 22.8103 103.873 22.6667 103.391 22.9358C102.374 23.492 101.195 23.5458 100.16 23.9944C99.9458 24.0841 99.6959 23.9226 99.4996 24.0841C98.6784 24.7658 97.6966 24.712 96.7148 24.6941C96.3756 24.6941 96.0364 24.73 95.6973 24.8197C94.8404 25.035 94.0014 25.322 93.1624 25.6091C92.9125 25.6988 92.609 25.4655 92.3948 25.7347C91.9842 26.3088 91.288 26.3626 90.7525 26.4164C89.5743 26.5241 88.4676 26.9008 87.3073 27.0264C85.9327 27.1699 84.6296 27.7082 83.255 27.9235C82.3089 28.067 81.4699 28.5514 80.506 28.5514C80.3453 28.5514 80.2382 28.7308 80.1311 28.8564C79.8098 29.2511 79.4171 29.6279 78.9708 29.8073C78.3281 30.0585 78.2567 30.4352 78.3103 31.0452C78.3995 31.9602 78.8101 32.7855 78.9529 33.6826C79.0957 34.6335 79.2028 35.5485 79.1136 36.5352C79.0422 37.4861 79.0422 38.419 78.703 39.334C78.2567 40.4643 78.2032 41.7382 77.6498 42.8326C77.3285 43.4605 77.4534 44.1961 77.0429 44.842C76.7572 45.2905 76.7929 45.9723 76.7394 46.5284C76.7037 47.0667 76.7394 47.6229 76.5966 48.2149L76.5787 48.1611Z" fill="#1E6E67"/>
<path fill-rule="evenodd" clip-rule="evenodd" d="M50.1592 78.2483C47.66 77.2078 45.5179 76.3107 44.3932 74.068C44.1969 73.6733 43.6971 73.4581 43.6078 72.9736C43.4828 72.2022 42.9473 72.5251 42.5189 72.5072C41.9298 72.5072 41.3764 72.6148 40.823 72.8122C40.3946 72.9557 39.9662 72.7404 39.5556 72.7763C37.7348 72.9736 35.9318 72.9557 34.2003 72.256C33.397 71.9331 32.5401 71.7357 31.6654 71.7357C31.5226 71.7357 31.3798 71.6819 31.2548 71.6101C30.5586 71.2692 29.8267 71.0898 29.0948 70.8566C27.9524 70.4978 26.8277 70.0672 25.7745 69.4572C25.0248 69.0266 24.2036 68.7036 23.4717 68.2192C22.8469 67.8066 22.365 67.2684 21.9722 66.6404C21.8294 66.4072 21.9722 66.1022 22.115 65.9587C22.2757 65.7972 22.4899 65.6357 22.8112 65.7972C23.8288 66.3175 24.7392 67.0172 25.7745 67.5195C27.4347 68.3448 29.1305 69.0625 30.9335 69.5289C31.5404 69.6904 32.1117 70.1389 32.7186 70.1569C33.7183 70.1928 34.5394 70.8386 35.5391 70.7669C36.5031 70.6951 37.4492 70.8386 38.4131 70.8925C39.8055 70.9822 41.1443 70.6413 42.4653 70.3542C43.7685 70.0672 44.5896 70.7131 45.2679 71.6101C45.7678 72.256 46.107 73.0454 46.4818 73.781C47.0174 74.8395 47.9099 75.3777 48.981 75.8263C50.3377 76.4004 51.8015 76.4722 53.1938 76.813C53.5152 76.8848 53.7472 77.0104 53.7115 77.3692C53.6758 77.6922 53.7115 78.051 53.2474 78.1407C52.1049 78.3739 50.9446 78.338 50.2127 78.2125L50.1592 78.2483Z" fill="#1E6E67"/>
<path fill-rule="evenodd" clip-rule="evenodd" d="M20.7755 35.7267C20.7755 35.7267 20.7224 35.7267 20.687 35.7267V35.674L20.7578 35.7442L20.7755 35.7267Z" fill="#1E6E67"/>
<path fill-rule="evenodd" clip-rule="evenodd" d="M103.641 51.9107C103.998 49.9552 105.248 47.9816 106.337 45.9543C106.819 45.0393 107.8 44.5728 108.586 43.9269C109.121 43.4963 109.746 43.1913 110.282 42.7608C110.871 42.2763 111.621 42.2225 112.281 41.9355C112.549 41.8099 112.62 42.0252 112.638 42.2046C112.674 42.5813 112.513 42.9043 112.388 43.2631C112.245 43.6399 111.978 43.7475 111.674 43.9449C111.228 44.2499 110.692 44.519 110.371 44.9675C110.121 45.3084 109.925 45.7031 109.568 45.9543C108.479 46.7257 108.193 48.0893 107.354 49.0402C106.479 50.0269 106.604 51.4084 105.855 52.4131C105.283 53.2025 105.283 54.1713 104.98 55.0325C104.784 55.5707 104.784 56.3063 104.73 56.9522C104.659 58.0107 104.212 58.9975 104.32 60.0919C104.355 60.379 104.087 60.7557 103.695 60.7378C103.338 60.7378 102.981 60.6481 102.856 60.1637C102.534 58.8719 102.463 57.5622 102.713 56.2704C102.963 54.9428 103.284 53.6151 103.641 51.9287V51.9107Z" fill="#1E6E67"/>
<path fill-rule="evenodd" clip-rule="evenodd" d="M85.7544 52.3593C86.5041 52.5746 87.3431 52.5925 87.9322 53.1307C89.0033 54.1175 90.4849 54.5122 91.3596 55.7681C91.8237 56.4319 92.2343 57.2034 92.7877 57.7595C93.3232 58.2978 93.6624 58.9437 94.0551 59.5357C94.7335 60.5584 94.9655 61.7425 94.7156 62.9804C94.6442 63.3751 94.3765 63.2316 94.1265 63.1598C93.3411 62.8907 92.9662 62.2628 92.6985 61.5451C92.5021 61.0428 92.0915 60.6301 91.8951 60.1816C91.3239 58.9078 90.0565 58.1722 89.5209 56.8984C89.4674 56.7728 89.3781 56.719 89.2889 56.6293C88.9676 56.2704 88.6105 55.8398 88.2892 55.6425C87.236 54.9787 86.3077 54.0098 84.8797 54.0816C84.0942 54.1175 83.2909 54.0816 82.4876 54.0996C81.9164 54.1175 81.4344 53.7049 80.9167 53.4537C80.6489 53.3281 80.6132 53.059 80.6846 52.754C80.7739 52.4131 81.0238 52.2157 81.3094 52.2337C82.7911 52.3054 84.3084 51.9825 85.7722 52.3772L85.7544 52.3593Z" fill="#1E6E67"/>
<path fill-rule="evenodd" clip-rule="evenodd" d="M81.7378 38.3652C81.4879 38.2575 81.3094 38.1858 81.113 38.0961C80.9166 37.9884 80.8274 37.7911 80.8274 37.5758C80.8274 37.3246 80.9881 37.2169 81.2201 37.1452C82.0056 36.894 82.8446 37.0734 83.6479 36.8761C83.8799 36.8222 84.1834 36.8222 84.4155 36.7505C85.2545 36.4634 86.1292 36.6428 86.9682 36.5172C88.1463 36.3378 89.3245 36.6787 90.4848 36.3916C90.7169 36.3378 90.9847 36.3378 91.2346 36.3916C91.663 36.4814 92.0022 36.4455 92.4128 36.2302C92.8591 35.9969 93.3767 36.1225 93.8587 36.2302C94.0372 36.2661 94.18 36.3916 94.3942 36.3558C94.6442 36.3019 94.8584 36.4275 94.9298 36.6787C95.019 36.9658 94.8405 37.1452 94.5906 37.2708C93.7873 37.6655 92.9305 37.809 92.0915 38.0243C90.824 38.3293 89.5566 38.3472 88.2713 38.2934C86.5041 38.2037 84.7546 38.6343 82.9874 38.4908C82.5589 38.4549 82.1305 38.4011 81.7378 38.3652Z" fill="#1E6E67"/>
<path fill-rule="evenodd" clip-rule="evenodd" d="M104.998 32.7137C105.551 32.624 105.337 33.0187 105.23 33.3417C105.051 33.8978 104.623 34.2387 104.141 34.4899C102.624 35.2972 100.999 35.8893 99.3926 36.4993C98.6786 36.7684 97.911 36.6069 97.1791 36.4634C96.9292 36.4275 96.6971 36.2122 96.7863 35.9969C96.8756 35.7816 96.8221 35.4766 97.2505 35.3869C98.0538 35.2255 98.8392 34.9384 99.589 34.6334C99.946 34.4899 100.285 34.2746 100.678 34.2567C101.106 34.2208 101.374 33.8619 101.731 33.7184C102.195 33.5211 102.677 33.3237 103.07 33.0187C103.641 32.5522 104.23 32.5522 104.98 32.7317L104.998 32.7137Z" fill="#1E6E67"/>
<path fill-rule="evenodd" clip-rule="evenodd" d="M90.342 29.3946C90.4491 29.1075 90.4491 28.6949 90.7169 28.6769C91.0203 28.659 91.3595 28.8922 91.5023 29.2152C91.8951 30.0943 92.2699 31.0093 92.3592 31.9781C92.3949 32.3369 92.3592 32.8034 91.9308 32.9111C91.5202 33.0187 91.1096 32.9111 90.824 32.5522C90.0385 31.5834 90.1456 30.4711 90.3599 29.3946H90.342Z" fill="#1E6E67"/>
<path fill-rule="evenodd" clip-rule="evenodd" d="M86.8789 32.6778C86.6468 32.929 86.8789 33.6646 86.0934 33.5211C85.4865 33.4314 85.1295 33.1084 85.0938 32.3908C85.0759 31.7808 84.8974 31.2067 84.7725 30.6325C84.6832 30.2378 84.7011 29.7714 85.1116 29.6817C85.4687 29.592 86.022 29.4305 86.2363 30.0764C86.3077 30.3275 86.5219 30.5249 86.6647 30.7581C87.0396 31.3322 87.1467 31.9422 86.8789 32.6778Z" fill="#1E6E67"/>
<path fill-rule="evenodd" clip-rule="evenodd" d="M102.517 25.9678C102.57 25.5731 102.695 25.5193 103.088 25.6987C103.802 26.0037 104.159 26.4702 104.266 27.2417C104.319 27.6543 104.355 28.0849 104.48 28.4975C104.587 28.8205 104.391 29.1255 104.034 29.269C103.695 29.4125 103.57 29.2331 103.391 28.9999C102.677 28.1028 102.302 27.1161 102.499 25.9499L102.517 25.9678Z" fill="#1E6E67"/>
<path fill-rule="evenodd" clip-rule="evenodd" d="M99.8031 29.7175C99.7495 30.1661 99.6067 30.1661 99.1783 30.0225C98.5 29.7893 98.0358 29.4125 97.9466 28.6949C97.893 28.2105 97.661 27.6722 98.018 27.2058C98.3215 26.7931 98.6785 26.7752 99.0712 27.1161C99.9102 27.8337 99.9281 28.7487 99.8031 29.7355V29.7175Z" fill="#1E6E67"/>
<path fill-rule="evenodd" clip-rule="evenodd" d="M154.267 72.4533C153.589 72.4533 152.91 72.4892 152.232 72.4892C152.178 72.4892 152.125 72.5251 152.107 72.4892C151.679 72.0228 151.036 72.3636 150.572 72.0766C150.393 71.9689 150.286 71.7716 150.125 71.6639C149.661 71.3589 149.144 71.1257 148.697 70.8028C148.251 70.4619 147.858 70.0492 147.376 69.5828C146.698 69.6545 145.93 69.7442 145.145 69.8339C144.306 69.9236 143.485 70.0672 142.646 70.1031C141.45 70.1389 140.236 70.1031 139.022 70.1031C137.88 70.1031 136.755 70.1031 135.613 70.0492C135.023 70.0133 134.416 69.8519 133.827 69.7442C133.167 69.6186 132.506 69.5289 131.882 69.3316C131.31 69.1522 130.739 68.9189 130.204 68.6319C129.49 68.2372 128.74 67.8604 128.169 67.3222C127.758 66.9454 127.24 66.6404 127.062 65.9945C126.955 65.5281 126.616 65.1334 126.455 64.6848C126.08 63.716 126.312 62.7651 126.741 61.8681C126.99 61.3298 127.365 60.8454 127.722 60.361C128.079 59.8587 128.436 59.3742 128.954 58.9975C129.293 58.7643 129.454 58.2978 129.722 57.939C129.757 57.8851 129.882 57.8672 129.936 57.8134C130.15 57.6519 130.364 57.4725 130.579 57.2931C130.632 57.2393 130.668 57.1854 130.739 57.1495C131.614 56.701 132.506 56.2704 133.381 55.8219C134.167 55.4272 134.934 55.0146 135.72 54.6378C136.38 54.3328 137.058 54.0457 137.737 53.7587C138.022 53.6331 138.29 53.4896 138.576 53.364C138.826 53.2563 138.897 53.0949 138.826 52.8257C138.719 52.4131 138.629 51.9825 138.54 51.5519C138.451 50.9778 138.522 50.4575 138.915 49.9551C139.201 49.5784 139.272 49.0402 139.468 48.484C139.968 48.4302 140.45 48.1072 140.789 47.551C140.807 47.5152 140.861 47.4793 140.896 47.4613C141.628 47.3716 141.914 46.6002 142.557 46.349C142.842 46.2413 143.092 46.026 143.36 45.8646C144.038 45.3981 144.717 44.9496 145.377 44.4652C145.823 44.1422 146.216 43.7475 146.645 43.4246C147.251 42.976 147.841 42.4019 148.537 42.1508C149.376 41.8458 149.786 41.0743 150.5 40.6437C150.982 40.3566 151.518 40.1234 151.911 39.7466C152.303 39.3699 152.803 39.2443 153.214 38.9393C153.767 38.5266 154.356 38.1499 154.999 37.9166C155.267 37.809 155.57 37.7372 155.766 37.5578C156.409 36.9478 157.302 36.7863 157.962 36.1943C158.194 35.9969 158.48 35.8175 158.765 35.7278C159.462 35.5125 160.033 35.1358 160.604 34.6514C161.05 34.2746 161.675 34.1131 162.246 33.8978C163.157 33.539 164.085 33.2161 165.013 32.8752C166.049 32.4984 167.066 31.9781 168.137 31.7628C169.083 31.5834 169.922 31.0811 170.904 31.0093C172.279 30.9375 173.635 30.6146 174.992 30.4172C175.653 30.3096 176.331 30.2019 176.991 30.1302C177.884 30.0405 178.777 29.9687 179.687 29.9149C179.937 29.9149 180.187 29.9867 180.437 30.0225C180.687 30.0584 180.937 30.0943 181.169 30.1481C181.811 30.3275 182.507 30.3275 182.936 31.0093C183.293 31.5655 183.418 31.6911 184.078 31.2067C184.632 30.8119 185.096 30.3096 185.614 29.8611C186.22 29.3228 186.845 28.8205 187.47 28.2822C187.541 28.2105 187.631 28.1028 187.631 28.0131C187.631 27.6005 187.97 27.5646 188.238 27.4211C188.541 27.2596 188.862 27.0981 189.112 26.8828C189.648 26.3984 190.326 26.219 190.969 26.0037C191.719 25.7525 192.522 25.609 193.307 25.4655C193.593 25.4117 193.896 25.5193 194.2 25.5014C194.575 25.5014 194.932 25.3937 195.289 25.3937C196.646 25.3758 197.645 25.9678 198.288 27.1878C198.538 27.6722 198.966 28.0849 199.109 28.5872C199.591 30.2199 199.966 31.8884 199.163 33.5569C198.984 33.9158 198.984 34.3464 198.877 34.7231C198.788 35.0461 198.627 35.3331 198.52 35.6381C198.127 36.8222 197.52 37.8987 196.967 39.0111C196.788 39.3519 196.699 39.7287 196.521 40.0875C196.164 40.8052 195.735 41.4869 195.449 42.2405C195.217 42.8146 194.825 43.1734 194.378 43.5322C194.289 43.604 194.253 43.7655 194.2 43.891C194.057 44.2499 194.021 44.6805 193.557 44.824C193.522 44.824 193.486 44.9137 193.468 44.9675C193.289 45.5596 192.79 45.8825 192.397 46.2952C192.254 46.4387 192.129 46.6719 192.111 46.8872C192.076 47.4434 191.504 47.6228 191.308 48.0354C191.237 48.1969 191.201 48.3763 191.112 48.5199C191.076 48.5916 190.987 48.6813 190.897 48.7172C190.755 48.771 190.612 48.771 190.469 48.8069C190.523 49.3452 190.808 49.9731 190.594 50.314C190.255 50.8701 190.594 51.2649 190.576 51.7134C190.576 51.7672 190.576 51.839 190.558 51.8928C190.166 52.5566 189.773 53.2384 189.38 53.9022C189.344 53.956 189.309 54.0098 189.309 54.0637C189.255 54.9248 188.684 55.4272 188.113 56.0013C187.149 56.9881 185.971 57.6878 184.971 58.6028C184.667 58.8719 184.275 59.0154 183.936 59.2307C183.525 59.4998 183.097 59.751 182.686 60.0201C182.008 60.4687 181.329 60.9351 180.633 61.3298C179.705 61.8501 178.759 62.3345 177.813 62.8189C177.277 63.106 176.742 63.3751 176.206 63.6442C175.581 63.9492 174.956 64.2542 174.332 64.5772C173.921 64.7745 173.546 65.0078 173.136 65.1872C172.404 65.5281 171.672 65.8331 170.922 66.1381C170.226 66.4431 169.512 66.7122 168.798 67.0172C168.744 67.0351 168.673 67.0531 168.637 67.0889C167.495 68.1116 166.049 68.6319 164.71 69.2957C164.032 69.6186 163.353 70.0851 162.514 70.0133C162.461 70.0133 162.353 70.0672 162.336 70.121C162.175 70.5516 161.8 70.5516 161.443 70.6413C161.05 70.731 160.675 70.8566 160.301 70.9642C159.747 71.1257 159.158 71.2154 158.64 71.4486C157.801 71.8433 156.909 71.8613 156.034 72.0586C155.713 72.1304 155.392 72.1663 155.088 72.2201C154.927 72.256 154.785 72.3098 154.624 72.3636C154.535 72.3636 154.445 72.3816 154.356 72.3995L154.267 72.4533ZM186.899 43.5322C186.792 43.0119 186.792 42.4378 186.31 42.061C186.256 42.0252 186.22 41.9355 186.203 41.8637C186.078 40.9846 185.81 40.1593 185.417 39.3519C185.132 38.7958 185.007 38.1499 184.739 37.5758C184.507 37.0734 184.132 36.6249 183.864 36.1225C183.186 34.8308 182.311 33.6825 181.329 32.6061C180.597 31.8167 179.669 31.5655 178.669 31.6193C178.027 31.6552 177.402 31.8346 176.777 31.9064C176.099 31.9781 175.403 31.9781 174.724 32.0678C173.011 32.2652 171.315 32.5702 169.655 33.0546C168.726 33.3237 167.852 33.7364 166.959 34.1131C166.031 34.4899 165.085 34.7949 164.21 35.2972C162.818 36.0866 161.3 36.6608 159.836 37.3246C159.64 37.4143 159.426 37.4861 159.247 37.5937C158.516 38.0422 157.784 38.5266 157.052 38.9572C156.695 39.1725 156.302 39.3161 155.945 39.5134C155.659 39.6749 155.445 39.944 155.16 40.1055C154.142 40.6975 153.053 41.1819 152.196 42.0431C151.911 42.3302 151.554 42.5455 151.232 42.7787C150.411 43.3349 149.59 43.891 148.769 44.4472C148.447 44.6625 148.162 44.9316 147.841 45.1469C147.091 45.6493 146.359 46.1516 145.681 46.7437C145.163 47.1922 144.627 47.6946 144.003 47.9099C143.324 48.1431 143.092 48.789 142.539 49.094C142.485 49.1299 142.449 49.2375 142.449 49.2913C142.432 49.686 142.128 49.8116 141.825 49.9372C141.753 49.9731 141.646 50.009 141.61 50.0628C141.2 50.619 140.95 51.229 141.129 51.9287C141.236 52.3593 141.414 52.7899 141.486 53.2204C141.646 54.2251 142.092 55.1401 142.503 56.0551C143.128 57.5084 143.842 58.9437 144.556 60.3431C145.199 61.599 145.895 62.801 146.591 64.0389C146.966 64.7028 147.359 65.3487 147.733 65.9945C148.037 66.4969 148.34 66.9992 148.68 67.4657C148.929 67.8066 149.197 68.1295 149.554 68.4166C150.001 68.7754 150.393 69.2598 150.857 69.6545C151.589 70.2825 152.339 70.8028 153.357 70.6951C154.16 70.6054 154.981 70.6233 155.749 70.426C156.927 70.1389 158.051 69.7083 159.212 69.3495C159.337 69.3136 159.479 69.3136 159.622 69.2778C159.961 69.1881 160.318 69.0984 160.658 68.9728C161.14 68.7754 161.622 68.5242 162.104 68.3269C162.514 68.1654 162.978 68.0757 163.389 67.8783C163.907 67.6272 164.371 67.3042 164.888 67.0351C165.834 66.5148 166.798 66.0125 167.762 65.4922C168.173 65.2769 168.584 65.0257 168.994 64.8284C170.208 64.2901 171.44 63.7878 172.654 63.2316C173.064 63.0522 173.475 62.8369 173.832 62.5678C174.171 62.3345 174.564 62.3525 174.939 62.0834C175.67 61.5451 176.617 61.276 177.438 60.8634C178.08 60.5404 178.723 60.1816 179.33 59.8048C179.919 59.446 180.455 59.0334 181.044 58.6745C181.383 58.4593 181.918 58.531 182.008 57.9748C182.008 57.939 182.079 57.939 182.115 57.9031C182.954 57.329 183.811 56.7369 184.632 56.1448C184.864 55.9834 185.06 55.786 185.274 55.6245C185.596 55.3554 186.006 55.1581 186.22 54.8172C186.506 54.3866 187.024 54.0278 186.863 53.3819C186.863 53.3101 186.988 53.2204 187.042 53.1307C187.327 52.6822 187.773 52.2696 187.881 51.7851C188.059 50.8881 188.059 49.9372 188.095 49.0043C188.095 48.8069 187.863 48.6096 187.827 48.3943C187.666 47.6587 187.524 46.9231 187.399 46.1875C187.327 45.7928 187.345 45.3981 187.256 45.0034C187.167 44.4831 187.006 43.9628 186.881 43.4425L186.899 43.5322ZM139.451 54.9428C139.218 55.1222 139.076 55.2657 138.915 55.3554C138.112 55.7322 137.273 56.091 136.469 56.4857C135.952 56.719 135.47 57.006 134.952 57.2393C134.238 57.5443 133.47 57.7416 132.828 58.1722C132.078 58.6745 131.435 59.3204 130.793 59.9663C130.4 60.3431 130.097 60.8275 129.757 61.276C129.686 61.3657 129.704 61.5092 129.668 61.6348C129.632 61.7604 129.597 61.9039 129.525 61.9757C128.954 62.5319 128.954 63.3034 128.883 64.0031C128.793 64.9181 129.436 65.5819 130.007 66.1022C130.668 66.6942 131.56 67.0172 132.381 67.4119C132.703 67.5733 133.06 67.6451 133.417 67.7348C134.238 67.9501 135.059 68.1833 135.898 68.3448C136.434 68.4525 137.005 68.3807 137.558 68.4166C137.773 68.4166 137.987 68.5242 138.201 68.5242C138.594 68.5242 138.986 68.4345 139.379 68.4345C140.093 68.4345 140.807 68.4704 141.521 68.4704C142.396 68.4704 143.253 68.4704 144.128 68.4166C144.717 68.3807 145.288 68.291 145.859 68.2013C145.93 68.2013 146.038 68.0039 146.02 67.9142C146.002 67.7707 145.913 67.6451 145.823 67.5016C145.538 67.0351 145.002 66.7122 145.056 66.0663C145.056 66.0304 145.056 65.9766 145.056 65.9766C144.574 65.8331 144.752 65.3486 144.556 65.0616C144.377 64.7925 144.163 64.5413 143.985 64.2542C143.77 63.8775 143.592 63.4828 143.396 63.106C143.199 62.7292 143.092 62.2269 142.789 61.9757C142.128 61.4195 142.146 60.5584 141.682 59.8766C141.2 59.1948 141.057 58.2619 140.504 57.5443C140.307 57.2931 140.361 56.8266 140.165 56.5754C139.79 56.091 139.468 55.6245 139.451 54.9428ZM184.846 33.234C185.346 34.0772 185.881 34.9743 186.399 35.8893C186.667 36.3558 186.952 36.8402 187.202 37.3425C187.577 38.0961 187.97 38.8675 188.291 39.6569C188.505 40.1952 188.612 40.7872 188.791 41.3434C189.13 42.4199 189.487 43.4963 189.826 44.5549C189.844 44.6266 189.826 44.6984 189.844 44.7881C189.88 45.129 189.916 45.4878 189.969 45.8287C190.273 45.4699 190.415 45.0572 190.701 44.7702C190.915 44.5549 191.183 44.4293 191.147 44.0705C191.147 44.0705 191.201 44.0525 191.219 44.0346C191.415 43.8731 191.629 43.7296 191.79 43.5502C191.951 43.3708 192.04 43.1375 192.183 42.9402C192.522 42.4378 192.879 41.9713 193.165 41.451C193.397 41.0384 193.522 40.554 193.754 40.1413C193.896 39.8722 194.325 39.6569 194.307 39.4237C194.289 38.8675 194.61 38.5805 194.896 38.2216C194.932 38.1678 194.95 38.0781 194.985 38.0063C195.11 37.6834 195.253 37.3425 195.378 37.0196C195.432 36.894 195.574 36.7505 195.557 36.6608C195.378 36.2122 195.789 35.9969 195.896 35.674C195.949 35.4766 196.039 35.2972 196.11 35.1178C196.146 35.0461 196.181 34.9743 196.217 34.9025C196.288 34.759 196.413 34.6334 196.449 34.4899C196.646 33.5749 196.824 32.6599 197.003 31.7449C197.056 31.4758 197.163 31.1887 197.11 30.9375C196.913 30.2019 196.61 29.4843 196.431 28.7487C196.342 28.3361 196.235 27.9772 195.86 27.762C195.717 27.6722 195.485 27.6722 195.414 27.5467C195.128 27.0622 194.646 27.0981 194.236 27.134C192.611 27.2417 191.112 27.6722 189.862 28.8025C189.523 29.1075 188.952 29.1793 189.005 29.8072C189.005 29.8431 189.005 29.879 188.97 29.8969C188.648 30.2019 188.327 30.5069 187.988 30.8119C187.47 31.2605 186.952 31.709 186.399 32.1396C185.899 32.5343 185.364 32.9111 184.828 33.3237L184.846 33.234Z" fill="#1E6E67"/>
<path fill-rule="evenodd" clip-rule="evenodd" d="M147.841 52.8616C147.698 52.6463 147.537 52.431 147.394 52.1978C147.323 52.2337 147.216 52.2875 147.091 52.3413C147.234 52.0004 147.359 51.7134 147.484 51.4263C147.501 51.3725 147.555 51.3366 147.609 51.3007C148.412 50.7625 149.215 50.2422 150.001 49.704C150.465 49.399 150.982 49.1657 151.375 48.771C152.178 47.9457 153.303 47.569 154.124 46.8334C154.945 46.0978 155.999 45.9005 156.873 45.3443C157.07 45.2187 157.195 44.9496 157.409 44.8419C158.069 44.501 158.748 44.2319 159.426 43.9269C159.622 43.8372 159.783 43.6578 159.979 43.5502C160.533 43.2631 161.122 43.0119 161.675 42.7249C162.443 42.3302 163.193 41.9175 163.942 41.5228C164.121 41.4331 164.317 41.3793 164.531 41.3075C164.906 41.1819 165.299 41.164 165.585 40.7872C165.727 40.5719 166.031 40.4822 166.281 40.3746C167.066 40.0158 167.87 39.6749 168.655 39.3161C169.44 38.9752 170.226 38.6522 171.011 38.3113C171.44 38.114 171.85 37.8987 172.279 37.7014C172.618 37.5399 172.957 37.3605 173.314 37.2708C174.582 36.9299 175.867 36.6069 177.152 36.3019C177.527 36.2122 177.92 36.284 178.134 36.6966C178.295 37.0196 178.437 37.3784 178.08 37.6475C177.92 37.7731 177.688 37.8449 177.491 37.8987C176.099 38.3472 174.689 38.7778 173.296 39.2263C172.957 39.334 172.618 39.5313 172.314 39.7108C171.815 40.0337 171.297 40.3028 170.672 40.2849C170.636 40.2849 170.601 40.2849 170.583 40.2849C170.065 40.5899 169.548 40.8769 169.03 41.1819C168.905 41.2537 168.762 41.3613 168.619 41.3972C167.495 41.7202 166.513 42.3302 165.513 42.9402C164.835 43.3349 164.067 43.5681 163.353 43.909C162.532 44.3037 161.729 44.7343 160.908 45.1469C160.158 45.5416 159.39 45.9184 158.64 46.349C158.069 46.6719 157.552 47.0846 156.998 47.4255C156.588 47.6766 156.177 47.8919 155.749 48.0713C154.856 48.4302 154.16 49.076 153.392 49.6143C152.357 50.3678 151.429 51.2649 150.411 52.0184C149.929 52.3772 149.322 52.5387 148.769 52.7719C148.733 52.7719 148.68 52.7719 148.644 52.736C148.346 52.6045 148.073 52.6344 147.823 52.8257L147.841 52.8616Z" fill="#1E6E67"/>
<path fill-rule="evenodd" clip-rule="evenodd" d="M152.25 59.2307C151.875 59.2307 151.482 59.2487 151.107 59.2666C150.732 59.2666 150.554 59.0513 150.482 58.7284C150.411 58.4054 150.482 58.1543 150.822 58.0287C151.268 57.8851 151.732 57.7595 152.16 57.5622C152.607 57.3648 153.017 57.1137 153.464 56.8804C153.517 56.8446 153.553 56.7907 153.606 56.7728C154.231 56.396 154.856 56.0013 155.499 55.6425C156.052 55.3375 156.623 55.0504 157.177 54.7634C157.659 54.5122 158.212 54.3507 158.587 53.9919C159.158 53.4357 159.89 53.2025 160.551 52.8616C161.318 52.4669 162.086 52.0901 162.853 51.7134C163.942 51.1751 165.067 50.6907 166.102 50.0807C167.03 49.5246 168.012 49.1119 168.958 48.6275C169.405 48.3943 169.797 48.0534 170.208 47.7663C170.369 47.6587 170.529 47.4793 170.69 47.4613C171.672 47.3357 172.368 46.654 173.189 46.2055C174.153 45.6852 175.117 45.1828 176.063 44.6087C176.331 44.4472 176.581 44.3755 176.866 44.3216C177.206 44.2678 177.491 43.9987 177.813 43.8372C178.419 43.5322 179.009 43.2272 179.633 42.9581C179.883 42.8505 180.169 42.8505 180.437 42.8684C180.883 42.8684 181.329 43.4425 181.258 43.891C181.24 43.9987 181.133 44.1063 181.044 44.1781C180.49 44.519 179.919 44.8419 179.348 45.1469C178.848 45.416 178.312 45.6493 177.795 45.9184C177.206 46.2234 176.617 46.5284 176.045 46.8513C175.135 47.3537 174.26 47.9099 173.243 48.1969C172.975 48.2687 172.779 48.5916 172.511 48.7531C171.957 49.094 171.404 49.4349 170.833 49.7399C170.369 49.991 169.887 50.1884 169.405 50.4216C168.762 50.7446 168.137 51.0854 167.512 51.4084C166.995 51.6775 166.459 51.9466 165.924 52.1978C165.87 52.2337 165.799 52.2337 165.745 52.2696C164.942 52.7001 164.139 53.1307 163.317 53.5434C162.907 53.7587 162.496 53.9201 162.086 54.1175C161.836 54.2431 161.622 54.4046 161.39 54.5481C160.586 55.0146 159.801 55.5169 158.997 55.9654C158.551 56.2166 158.034 56.3781 157.587 56.6293C156.837 57.0419 156.106 57.5084 155.374 57.939C154.392 58.5131 153.428 59.159 152.25 59.2487V59.2307Z" fill="#1E6E67"/>
<path fill-rule="evenodd" clip-rule="evenodd" d="M159.087 64.0928C158.73 64.2184 158.355 64.2901 158.016 64.4516C156.677 65.0616 155.267 64.9898 153.856 64.9181C153.553 64.9181 153.374 64.7566 153.374 64.4695C153.374 64.2363 153.267 63.9672 153.66 63.7878C154.428 63.4469 155.249 63.2854 156.052 63.1778C157.034 63.0342 157.909 62.6216 158.801 62.2448C159.408 61.9757 160.051 61.7784 160.676 61.5093C161.657 61.0966 162.639 60.6481 163.603 60.2175C164.424 59.8407 165.263 59.4819 166.067 59.0872C166.352 58.9437 166.584 58.7104 166.834 58.531C166.923 58.4593 167.031 58.4234 167.138 58.3695C167.637 58.1184 168.137 57.8851 168.637 57.634C169.333 57.2931 170.03 56.9522 170.744 56.5934C171.136 56.396 171.493 56.1448 171.886 56.0013C172.297 55.8578 172.725 55.7681 173.153 55.6963C173.707 55.6066 174.242 56.0372 174.135 56.5216C174.082 56.7907 173.707 57.1137 173.421 57.2034C172.529 57.4546 171.904 58.1363 171.083 58.5131C170.458 58.8001 169.851 59.141 169.244 59.4819C168.762 59.751 168.316 60.1637 167.798 60.3072C167.298 60.4507 166.923 60.7557 166.495 60.9531C165.585 61.3837 164.728 61.886 163.799 62.2807C162.711 62.7292 161.568 63.0701 160.461 63.4828C160.14 63.6084 159.837 63.8237 159.515 63.9672C159.39 64.0389 159.23 64.0569 159.087 64.1107V64.0569V64.0928Z" fill="#1E6E67"/>
<path fill-rule="evenodd" clip-rule="evenodd" d="M183.793 50.924C183.168 51.3725 182.525 51.8031 181.883 52.2516C181.436 52.5746 180.99 52.8796 180.562 53.2384C179.919 53.7946 179.134 53.8125 178.384 53.8484C178.098 53.8484 177.741 53.7228 177.723 53.3281C177.706 52.9513 177.759 52.5746 178.17 52.3951C178.509 52.2337 178.884 52.126 179.187 51.9107C179.598 51.6237 179.973 51.2828 180.33 50.9419C180.883 50.4037 181.365 49.7399 182.293 49.9013C182.365 49.9013 182.454 49.9013 182.525 49.8654C183.186 49.6502 183.489 49.8116 183.686 50.4754C183.721 50.601 183.757 50.7446 183.811 50.924H183.793Z" fill="#1E6E67"/>
</g>
<defs>
<clipPath id="clip0_125_12990">
<rect width="197.273" height="74.5455" fill="white" transform="translate(2.31824 12.7273)"/>
</clipPath>
</defs>
</svg>
