<svg width="101" height="100" viewBox="0 0 101 100" fill="none" xmlns="http://www.w3.org/2000/svg">
<g clip-path="url(#clip0_125_12987)">
<path d="M45.9693 76.703H45.451C45.308 76.5237 45.1293 76.452 44.8969 76.452C44.1641 76.452 43.5029 76.1831 43.0382 75.6274C42.6986 75.1971 42.3054 74.9282 41.8228 74.731C41.5726 74.6234 41.3224 74.48 41.09 74.3186C40.0713 73.6733 39.1955 72.7948 38.0874 72.2749C37.6763 72.0777 37.1938 72.006 36.8184 71.755C36.5146 71.5578 36.2286 71.4861 35.9248 71.5937C35.5495 71.7192 35.2278 71.5937 34.8882 71.4502C33.6013 70.8049 32.1715 70.6435 30.7774 70.4284C30.2234 70.3387 29.6515 70.2312 29.0974 70.1774C28.4182 70.1057 27.7927 69.5499 27.0063 69.7292C26.9884 69.7292 26.9527 69.7292 26.9348 69.7292C26.5416 69.1914 25.916 69.6037 25.4335 69.3707C24.8616 69.0838 24.1824 69.1735 23.5926 69.1735C22.8241 69.1735 22.2164 68.5639 21.4657 68.6715C20.9474 68.7432 20.5542 68.5639 20.1431 68.3129C19.9287 68.1695 19.6963 68.044 19.464 67.9185C18.4274 67.3628 17.2656 67.0939 16.3541 66.2513C15.8716 65.8031 15.4605 65.3908 15.3175 64.7633C15.1924 64.2255 14.6562 63.6518 15.2639 63.0602C15.2996 63.0243 15.1924 62.845 15.2281 62.8271C15.532 62.5761 15.2281 62.0742 15.6928 61.8411C16.7294 61.3571 17.8018 61.4467 18.8921 61.5901C19.607 61.6977 20.3219 61.7156 21.0189 62.0921C21.8411 62.5403 22.7704 62.1817 23.6641 62.1459C24.4505 62.11 25.219 62.1459 26.0054 62.3252C26.3807 62.4148 27.0242 62.6837 27.0063 61.8232C27.0063 61.7515 27.0957 61.6798 27.1493 61.626C27.5961 61.2495 27.5246 60.8372 27.2923 60.389C27.042 59.9049 26.7382 59.4388 26.3271 59.0803C25.5586 58.3811 24.933 57.5564 24.3432 56.7318C23.5568 55.6382 22.9313 54.4371 22.2879 53.2538C21.6266 52.0706 20.8759 50.9233 20.1253 49.7759C19.464 48.772 18.9278 47.6963 18.0342 46.8358C16.926 45.7601 15.8537 44.6307 14.7277 43.5551C13.423 42.2822 12.4757 40.7584 11.6893 39.1449C11.1531 38.0334 11.1531 36.7068 13.137 36.4199C13.3872 36.3841 13.6196 36.3303 13.7626 36.1152C13.9413 35.8104 14.12 35.7745 14.3881 36.0255C14.5132 36.1331 14.7098 36.1869 14.8707 36.1869C15.9252 36.1869 16.515 37.1908 17.4801 37.3521C18.3201 38.4816 19.321 39.4497 20.2683 40.4715C20.8581 41.1169 21.5551 41.6189 22.127 42.2643C22.5202 42.7125 23.1815 42.7483 23.4854 43.2503C23.7534 43.6806 24.2181 43.7702 24.5398 44.075C24.7722 44.2901 24.8437 44.2005 24.6113 44.4156C24.093 44.8817 24.1645 45.4912 24.8258 45.6526C26.7382 46.1545 27.8463 44.9713 27.6855 43.4116C27.5782 42.4436 27.2744 41.5293 26.8276 40.6687C25.4335 37.89 23.8607 35.2188 22.1985 32.5834C21.43 31.3644 20.7508 30.0736 20.1789 28.7649C19.8751 28.0657 20.0717 27.0438 20.447 26.6494C21.144 25.9144 22.0734 26.004 22.9134 25.9144C24.1466 25.771 24.9509 26.7032 25.7016 27.4741C26.4522 28.245 26.9884 29.2489 27.7033 30.0557C28.168 30.5576 28.4182 31.2389 28.9008 31.6512C29.6336 32.2787 30.134 33.1392 31.0098 33.677C31.9213 34.2328 32.4039 35.416 33.5477 35.7207C33.5656 35.7207 33.5835 35.7387 33.6013 35.7566C34.2984 36.4558 35.1027 36.886 36.1035 36.9757C36.2644 36.9757 36.4074 37.3163 36.5861 37.0295C36.7291 36.7964 36.6933 36.5633 36.5325 36.2944C36.032 35.5056 35.9784 34.6272 36.1035 33.7129C36.8363 34.7527 37.2116 35.9179 37.4082 37.1549C37.5512 38.0513 37.158 38.4637 36.2465 38.4278C35.9784 38.4278 35.7282 38.3382 35.4959 38.2306C35.1205 38.0692 34.7094 37.9438 34.4592 38.3919C34.1911 38.8581 34.5307 39.1808 34.8703 39.4317C35.6567 40.0413 37.2474 39.9516 38.0874 39.3062C38.6415 38.876 38.9274 38.3382 38.8917 37.6031C38.8202 36.4378 38.5521 35.3084 38.0517 34.2507C37.2831 32.5476 36.3716 30.9341 35.2635 29.4282C33.7086 27.3127 32.7971 24.9105 32.2073 22.3648C31.9749 21.3608 32.1 20.4465 33.1545 19.9087H33.8158C33.9767 20.1417 34.209 20.0342 34.4056 20.0342C34.8524 20.0342 35.3707 20.1955 35.5495 20.4824C35.9248 21.1098 36.5325 21.558 36.9257 22.1676C37.301 22.7412 37.8193 23.2432 38.1053 23.8527C38.4449 24.5519 38.5878 25.3587 38.8738 26.0937C39.5887 27.9402 40.4645 29.7509 41.0722 31.6333C41.7156 33.6053 42.359 35.5953 43.1275 37.5135C43.5029 38.4457 43.9318 39.378 44.3786 40.2923C44.8076 41.1707 45.0935 42.1209 45.5761 42.9814C45.8442 43.4834 46.291 43.8598 46.5055 44.3618C47.1489 45.8677 47.7208 47.3736 48.4 48.8616C48.7574 49.6325 49.2579 50.3317 49.3651 51.2101C49.383 51.3894 49.4187 51.5507 49.4902 51.7121C49.7583 52.4112 49.2936 53.4869 48.5608 53.5945C47.9532 53.702 47.3455 53.8992 46.6663 53.8096C46.005 53.72 45.3974 53.4152 44.7003 53.469C44.3607 53.5048 44.0569 53.3614 43.7531 53.2001C43.0918 52.8953 42.4126 52.6264 41.7156 52.483C40.393 52.214 39.0525 52.0706 37.7121 52.1423C37.3546 52.1603 36.9793 52.2858 36.6576 52.5547C36.1214 53.0029 36.0142 53.5586 35.9427 54.204C35.8533 54.9749 35.8354 55.7278 36.0857 56.4808C36.4074 57.4309 36.8721 58.3273 37.5333 59.0803C38.0874 59.7257 38.3019 60.5503 38.9632 61.1599C40.107 62.2176 41.376 63.096 42.5377 64.1179C43.5743 65.0143 44.8433 65.588 45.9693 66.3409C46.9165 66.9684 47.9532 67.4883 48.8289 68.2233C49.097 68.4564 49.526 68.4564 49.7583 68.779C50.0622 69.2093 50.4017 69.6396 50.7235 70.0519V70.8407C50.3303 71.1813 50.366 71.7371 50.1873 72.1673C49.7226 73.2968 49.1328 74.3545 48.4715 75.3764C48.3821 75.5198 48.2391 75.6274 48.0783 75.6991C47.3812 75.9859 46.7021 76.3086 46.005 76.6134L45.9693 76.703Z" fill="#E06765"/>
<path fill-rule="evenodd" clip-rule="evenodd" d="M45.9693 76.703C46.6663 76.3982 47.3455 76.0755 48.0425 75.7887C48.2213 75.717 48.3464 75.6094 48.4357 75.466C49.097 74.4441 49.6689 73.3864 50.1515 72.257C50.3302 71.8267 50.2945 71.271 50.6877 70.9303C50.6877 72.741 50.6877 74.5696 50.6877 76.3803C50.6877 76.6671 50.6341 76.7209 50.3481 76.7209C48.8825 76.7209 47.417 76.7209 45.9514 76.7209L45.9693 76.703Z" fill="#E06765"/>
<path fill-rule="evenodd" clip-rule="evenodd" d="M94.1364 77.0257C93.6717 77.5994 93.2428 78.2089 92.6708 78.7109C91.8308 79.4459 90.687 79.5176 89.7397 80.0017C89.5431 80.0913 89.3823 80.1272 89.2214 80.3244C88.8997 80.7367 88.4171 80.9697 87.9167 81.1669C86.5047 81.6868 85.0749 82.135 83.7166 82.8521C83.0195 83.2286 82.251 83.6768 81.3931 83.7664C80.8927 83.8202 80.4816 84.1429 79.999 84.2863C79.0875 84.5552 78.1045 84.5015 77.2288 84.9317C76.5317 85.2723 75.9598 85.8281 75.1913 86.0432C74.8874 86.1329 74.6372 86.3121 74.2976 86.348C73.8329 86.4018 73.3504 86.4914 72.9751 86.85C72.4746 87.3161 71.7954 87.3878 71.2235 87.6926C69.9903 88.3917 68.6498 88.8041 67.2558 89.055C66.5409 89.1805 65.8438 88.8399 65.1468 88.6965C64.4319 88.5531 63.9136 88.1049 63.7348 87.334C63.6991 87.1547 63.5204 87.0472 63.3416 87.0113C63.1986 86.9934 63.1093 86.9217 63.0735 86.7783C62.8948 85.7385 62.162 84.9496 61.8582 83.9816C61.6437 83.2645 61.5365 82.4757 61.3756 81.7227C61.3399 81.5255 61.3041 81.3462 61.179 81.1849C60.8931 80.7725 60.5713 79.5355 60.5892 78.9798C60.5892 78.442 60.3569 77.9579 60.0888 77.5277C59.6777 76.8643 59.5169 75.9501 58.8734 75.5556C58.1585 75.1254 57.5509 74.5338 57.0147 73.9959C56.4785 73.4581 55.7636 73.2968 55.2453 72.7948C54.9236 72.49 54.4052 72.3825 53.9763 72.1853C53.0469 71.755 52.1533 71.2172 51.1881 70.9124C50.0264 70.5359 49.2758 69.4961 48.114 69.1735C47.9174 69.1197 47.7208 68.9583 47.56 68.8328C46.3625 67.8647 45.0935 66.9684 43.9854 65.9286C43.4671 65.4445 42.9667 64.8888 42.3947 64.5482C41.7156 64.1358 41.1973 63.5621 40.5717 63.096C39.964 62.6299 39.5351 62.0025 39.0525 61.4288C38.5164 60.8013 37.9623 60.2097 37.3904 59.636C37.1402 59.385 36.8721 59.1341 36.7827 58.8293C36.5146 57.9688 35.9069 57.3592 35.4244 56.6601C35.2993 56.4808 35.2099 56.2477 35.2278 56.1581C35.4601 55.4051 35.1741 54.7418 34.9954 54.0606C34.8524 53.5407 35.1741 53.218 35.4601 52.8774C35.5495 52.7519 35.6746 52.6622 35.7639 52.5367C35.9605 52.3216 35.8533 51.8376 35.9784 51.8196C36.6933 51.7121 37.3189 51.2997 38.0338 51.246C39.4636 51.1205 40.8934 51.0667 42.3054 51.1563C43.1633 51.2101 43.9497 51.6045 44.7003 52.0527C45.3259 52.4292 46.0229 52.967 46.6842 52.967C47.56 52.967 48.3821 53.5765 49.2936 53.0925C49.3473 52.9849 49.2043 52.8415 49.1149 52.716C48.5251 51.8555 48.5608 50.7619 47.9174 49.9014C47.131 48.8616 46.6842 47.6067 45.9693 46.4952C45.594 45.9036 45.1829 45.1865 45.022 44.4335C44.9148 43.8598 44.7897 43.322 44.3071 42.8917C44.1105 42.7125 44.0212 42.4615 44.1284 42.1209C44.2535 41.7444 43.9675 41.3679 43.8067 41.0273C43.199 39.7544 42.9845 38.3561 42.5199 37.0474C42.3769 36.635 42.0552 36.2765 41.9837 35.8283C41.8407 34.8602 41.0722 34.0356 41.3581 32.9599C41.376 32.8703 41.4296 32.7986 41.3581 32.7269C40.4287 31.8484 40.5717 30.468 39.8211 29.4999C39.7853 29.464 39.7674 29.3744 39.7853 29.3206C39.9998 28.3346 39.3921 27.4741 39.41 26.5419C39.41 25.3407 39.4457 24.1396 39.6066 22.9743C39.6781 22.4903 39.964 21.9883 40.1785 21.5042C40.5717 20.6079 41.2509 20.1059 42.2696 20.07C42.8237 20.07 43.3777 19.8728 43.9318 19.8191C44.7182 19.7653 45.3974 20.0342 46.0408 20.4824C46.8629 21.074 47.8459 21.4505 48.3821 22.3827C48.9719 23.3866 49.6332 24.3547 50.1158 25.4304C50.3303 25.8965 50.4196 26.4343 50.9737 26.7928C51.3311 27.0259 51.3847 27.7072 51.5813 28.1733C52.1175 29.4103 52.5465 30.6831 53.1363 31.9022C53.458 32.5476 53.5295 33.3185 53.8512 33.9818C53.9406 34.179 54.0299 34.3583 54.1372 34.6092C54.5482 33.8742 54.3695 33.175 54.1014 32.5834C53.2256 30.6652 52.618 28.6573 51.9567 26.6674C51.8316 26.3088 52.0639 25.7351 51.3847 25.6813C51.349 25.6813 51.2954 25.4841 51.3133 25.3945C51.5456 24.1934 51.0273 23.1536 50.5447 22.1138C50.3124 21.6297 50.3124 21.0919 50.223 20.6079C49.9907 19.4067 49.2221 18.3311 49.4009 17.0224C49.4366 16.8072 49.4009 16.4308 49.3115 16.126C49.0255 15.0503 49.5617 14.136 50.0979 13.3114C50.7949 12.2357 51.9209 11.8413 53.172 11.7158C53.7976 11.6441 54.4589 11.5545 55.0129 11.7158C55.9244 11.9847 57.0683 11.8951 57.6223 12.9887C57.8011 13.3472 58.1049 13.652 58.516 13.8313C58.5696 13.8492 58.6411 13.8851 58.6768 13.9388C59.4454 15.3372 60.6428 16.4845 61.1075 18.0622C61.2326 18.4924 61.3756 18.9406 61.6616 19.2992C61.751 19.4246 61.7688 19.4964 61.7331 19.6398C61.6437 19.9983 61.751 20.321 61.9654 20.6258C62.1084 20.823 62.1978 21.0919 62.2693 21.3429C62.591 22.544 63.0914 23.6555 63.6633 24.7491C63.8421 25.0897 63.9672 25.4483 64.0744 25.8785C64.1816 25.6455 64.2531 25.4304 64.1816 25.2511C63.5561 23.9962 64.0208 22.4723 63.1808 21.2533C62.8948 20.8409 62.8591 20.2672 62.9484 19.7294C63.0378 19.2095 62.7876 18.7255 62.6088 18.2952C62.1978 17.3271 62.162 16.3053 62.0012 15.3193C61.8761 14.5304 62.1442 13.6699 62.2335 12.8273C62.2335 12.7915 62.2335 12.7377 62.2871 12.7018C63.0557 12.0564 63.5561 11.0167 64.8251 11.1063C65.2719 11.1421 65.8081 11.1959 66.237 10.8912H67.2915C67.792 11.3214 68.3281 11.7158 69.0073 11.8772C69.2218 11.931 69.5256 11.9847 69.615 12.2178C69.9009 13.0604 70.5801 13.652 70.9912 14.4049C71.4201 15.1938 71.5274 16.1081 71.9384 16.8789C72.5461 18.0084 73.0465 19.1737 73.4397 20.3927C73.7972 21.5222 74.2619 22.5978 74.5836 23.7631C74.9232 25.018 75.5845 26.2012 75.7275 27.5279C75.7275 27.6534 75.8347 27.7609 75.9062 27.8685C76.0313 28.0119 75.8347 28.2629 76.0849 28.3525C76.1028 28.478 76.0313 28.6035 76.1743 28.7111C76.2458 28.5677 76.3709 28.4063 76.0849 28.3525C76.2815 28.1374 76.0849 27.9581 76.0313 27.7609C75.7632 26.6494 76.0313 25.52 75.8168 24.3906C75.513 22.8488 75.8704 21.2712 75.7811 19.7115C75.7275 18.7434 75.9955 17.6678 76.6211 16.7893C76.8534 16.4666 77.0679 16.0364 77.479 16.0364C78.6586 16.0005 79.9097 15.7316 80.8391 16.8431C81.2323 17.3092 81.7684 17.6857 82.2331 18.098C83.2698 18.9765 83.9668 20.088 84.3421 21.3787C84.7711 22.8129 85.1643 24.2471 85.3787 25.771C85.6826 27.9581 86.0579 30.1811 86.5941 32.3324C86.7013 32.7627 86.5405 33.2288 86.755 33.6053C87.023 34.0893 87.2196 34.5913 87.2554 35.1291C87.309 36.1689 87.595 37.1549 87.7201 38.1768C87.8988 39.5034 87.9524 40.8301 88.2741 42.1388C88.5244 43.2144 88.4707 44.3618 88.7388 45.4195C89.1678 47.2123 89.3823 49.0229 89.4716 50.8336C89.4895 51.246 89.6682 51.6583 89.6503 52.0527C89.561 53.8096 90.0793 55.4768 90.3831 57.162C90.5619 58.2018 90.7585 59.1878 90.6691 60.2635C90.6155 60.9806 90.5082 61.7335 90.6333 62.4865C90.7406 63.114 90.9014 64.0283 90.5797 64.3689C89.9363 65.0501 90.0078 65.5342 90.4367 66.1796C90.4546 66.2154 90.4725 66.2513 90.4904 66.3051C90.8121 67.3807 91.4734 68.295 91.7415 69.4065C91.9738 70.3387 92.7245 71.0917 92.6708 72.1494C92.6708 72.257 92.7602 72.4004 92.8317 72.49C93.35 73.2788 93.4751 74.229 93.8504 75.0716C94.0828 75.6094 93.9219 76.219 94.2258 76.703V76.9719L94.1364 77.0257ZM76.7641 35.8821C76.4424 35.4877 75.8347 35.0754 75.8526 34.681C75.8883 33.6412 75.2806 32.8523 74.8874 32.0635C74.5121 31.3106 74.4227 30.2887 73.547 29.8047C73.4755 29.7688 73.5112 29.6075 73.4576 29.5178C73.1002 28.9262 73.1717 28.227 72.9393 27.6175C72.6712 26.9363 72.2423 26.3267 72.5104 25.52C72.5461 25.4124 72.4746 25.269 72.4389 25.1435C71.992 23.6197 70.9376 22.311 70.8482 20.6616C70.8482 20.6258 70.8124 20.5899 70.7946 20.5362C69.7937 18.6717 69.0073 16.6817 68.2388 14.7276C67.8277 13.7237 67.1128 13.2217 66.2191 12.8273C65.9332 12.7018 65.5757 12.7735 65.4506 13.0066C65.0395 13.6878 64.5927 14.5125 64.7536 15.2296C65.1289 17.0044 65.2183 18.833 65.8974 20.5362C66.0404 20.9126 66.1298 21.325 66.237 21.7194C66.6838 23.5838 66.5587 25.5738 67.506 27.3307C67.5239 27.3665 67.5596 27.4024 67.5596 27.4562C67.6311 28.4243 67.9707 29.3206 68.1852 30.2349C68.3281 30.8265 68.5426 31.4002 68.5962 31.9739C68.6856 32.9061 68.5962 33.8384 68.7035 34.7706C68.7749 35.3443 68.5069 35.5056 67.9885 35.5953C67.2021 35.7387 66.4336 35.5594 65.683 35.5235C65.2004 35.5056 64.557 35.3084 64.3604 34.7168C63.8599 33.2826 63.3238 31.8843 62.8591 30.4321C62.5731 29.5537 62.3229 28.6394 61.9297 27.8147C61.5722 27.0618 61.4292 26.255 61.0718 25.52C61.0003 25.3766 61.036 25.1794 61.0539 25.0001C61.0539 24.8208 61.0539 24.6595 60.9824 24.4981C60.7322 23.8527 60.2854 23.3149 60.0709 22.5978C59.6062 21.1278 58.9271 19.7473 58.5696 18.2235C58.5517 18.1159 58.516 17.9904 58.4445 17.9367C57.8547 17.4168 57.6581 16.6459 57.2113 16.0364C56.8717 15.5523 56.3891 15.1579 56.1568 14.638C55.8172 13.8851 55.3346 13.5086 54.5304 13.5265C54.2444 13.5265 53.8869 13.1859 53.6903 13.4369C53.3686 13.8313 52.9039 14.0285 52.5822 14.387C52.332 14.6739 52.0639 15.0324 52.0639 15.4089C52.046 16.5921 52.332 17.7395 52.618 18.8689C53.0112 20.3748 53.458 21.8628 53.8691 23.3687C54.3338 25.0539 54.8699 26.7211 55.424 28.3884C56.1925 30.6473 57.2291 32.7986 57.533 35.2188C57.7296 36.8502 57.8368 38.4278 57.39 40.0233C57.3185 40.2923 57.2113 40.4715 56.9611 40.5253C56.2104 40.7046 55.4955 40.5612 54.8342 40.2205C54.5482 40.0771 54.2623 39.8261 54.2265 39.4138C54.2265 39.127 54.012 38.9118 53.7618 38.8222C53.5474 38.7505 53.4759 38.5891 53.3865 38.4278C52.9218 37.6031 52.7788 36.5813 51.9924 35.9538C51.3847 35.4698 51.3669 34.7527 51.1167 34.1431C50.7056 33.0854 50.652 31.8843 49.8119 31.0237C49.9013 30.1632 49.4366 29.5178 49.0434 28.7828C48.7038 28.1733 48.6145 27.4382 48.0068 26.9901C47.7923 26.8287 47.6851 26.5598 47.56 26.2909C46.9344 24.9822 46.6485 23.4225 45.2901 22.5799C44.7361 22.2393 44.2893 21.558 43.4671 21.8807C42.8058 22.1317 42.3947 22.8309 42.5377 23.548C42.5735 23.6735 42.5377 23.799 42.502 23.9245C42.3233 24.8029 42.0552 25.6634 42.3233 26.5777C42.4662 27.0438 42.4662 27.5279 42.5735 27.9761C42.7165 28.6394 42.5735 29.3744 42.9667 29.9839C43.3777 30.5756 43.6637 31.2209 43.628 31.9739C43.628 32.1711 43.5922 32.4221 43.7531 32.5296C44.325 32.8882 44.0927 33.5515 44.325 34.0535C44.5395 34.4837 44.5752 35.0395 44.8433 35.4877C45.2365 36.1331 45.2365 36.9219 45.6476 37.6031C45.8799 37.9975 45.6297 38.6967 46.1123 39.127C46.1123 39.127 46.1123 39.1628 46.1123 39.1808C46.3446 40.0592 46.5234 40.9735 47.0238 41.7623C47.1668 41.9774 47.2025 42.2284 47.274 42.4794C47.4527 43.1248 47.6136 43.806 47.9889 44.3618C48.7038 45.4195 48.9183 46.6924 49.7583 47.7322C50.509 48.6465 50.9201 49.8476 51.3847 50.9591C51.7958 51.9451 52.1354 52.9849 52.3677 54.0426C52.2784 54.1323 52.2784 54.2398 52.2963 54.3653C52.3678 54.7777 52.1354 54.9211 51.7779 54.939C51.5992 54.939 51.3847 54.8852 51.2775 55.0466C50.652 55.925 49.7941 55.3693 49.0613 55.3514C48.1676 55.3155 47.3276 54.8673 46.4519 54.7418C45.2901 54.5805 44.2356 54.0964 43.2348 53.6482C41.9658 53.0566 40.7147 52.6981 39.3206 52.8415C38.3912 52.9311 38.0695 53.3255 37.9623 54.2398C37.8729 55.0645 38.0517 55.8713 38.427 56.4987C38.8381 57.1979 39.0883 58.0225 39.8389 58.5604C40.25 58.8651 40.7683 59.2416 40.9471 59.7436C41.233 60.5683 42.0194 60.9089 42.5377 61.4826C43.0918 62.0921 43.9854 62.3789 44.325 63.2395C44.3786 63.3829 44.5395 63.4187 44.6467 63.4367C44.9505 63.4904 45.1293 63.6876 45.3259 63.9028C45.7012 64.2792 46.0765 64.6916 46.5412 64.9426C47.2919 65.3728 47.8817 66.0003 48.5072 66.556C49.8298 67.7572 51.4205 68.4563 52.8861 69.3886C53.4937 69.783 54.2623 69.9802 54.9236 70.3208C55.7993 70.769 56.8359 71.0379 57.533 71.7192C58.4624 72.6514 59.7313 73.0637 60.625 74.0139C60.9824 74.3904 61.5186 74.6413 62.0012 74.8744C62.2693 74.9999 62.3765 75.0716 62.3765 75.4122C62.3765 76.0038 62.448 76.6313 62.8948 77.0974C62.9663 77.1691 63.0378 77.2408 63.0557 77.3663C63.2344 78.9619 64.0208 80.3781 64.3604 81.9558C64.6285 83.2465 65.2719 84.4477 65.7187 85.7026C65.9153 86.2404 66.4157 86.5273 66.7017 86.9934C66.7732 87.1009 66.9341 87.1727 67.1128 87.101C68.2388 86.6707 69.4005 86.2942 70.4371 85.6667C70.741 85.4875 71.0627 85.3799 71.4022 85.2544C72.2244 84.9497 73.0465 84.6449 73.8508 84.3043C75.1913 83.7306 76.353 82.7266 77.8901 82.7087C78.7122 82.7087 79.445 82.386 80.1956 82.1171C81.554 81.651 82.8051 80.9697 84.074 80.3244C85.0749 79.8045 86.3618 79.8582 87.0945 78.8184C87.0945 78.8005 87.1839 78.8184 87.2196 78.8005C88.1669 78.2627 89.2929 78.1551 90.258 77.6532C90.7406 77.4022 91.1695 76.6492 91.1517 76.0935C91.1338 75.0357 90.5976 74.1035 90.2938 73.1354C89.9721 72.1315 89.5788 71.1455 89.2393 70.1415C88.8461 68.9942 88.435 67.8647 87.9703 66.7532C87.5592 65.7852 87.4877 64.835 87.7022 63.8131C87.8452 63.1677 87.9524 62.4865 87.9524 61.8232C87.9524 59.8512 87.9524 57.8791 87.3626 55.9788C87.023 54.9032 86.9873 53.8275 86.9337 52.716C86.8979 51.8913 87.0052 51.0667 86.7192 50.2241C86.5584 49.74 86.469 49.1126 86.469 48.5389C86.469 48.2879 86.6835 48.0907 86.5405 47.8039C86.1473 47.0688 86.1473 46.2442 86.04 45.4554C85.8792 44.1825 85.9328 42.8738 85.629 41.601C85.5039 41.099 85.2536 40.6687 85.2179 40.1309C85.1822 39.5572 85.2894 38.9477 85.1821 38.4278C84.9677 37.2984 84.6996 36.151 84.3779 35.0574C84.0025 33.8204 84.0383 32.5296 83.6093 31.3285C83.3949 30.7548 83.5379 30.1274 83.4485 29.5358C83.3234 28.7828 83.1625 28.0478 83.2161 27.2948C83.234 26.8825 83.1268 26.5239 82.8944 26.2012C82.8051 26.0578 82.6263 25.9503 82.6621 25.7531C82.7872 24.8388 82.3225 24.0141 82.1795 23.1536C81.8578 21.2712 80.9284 19.6219 79.3735 18.4028C79.0697 18.1518 78.6765 17.8829 78.4084 18.0442C78.0509 18.2594 78.2475 18.7613 78.3726 19.1199C78.5692 19.7115 78.7837 20.2672 78.748 20.9126C78.748 21.1457 78.5871 21.325 78.605 21.5759C78.748 23.2253 78.7301 24.8746 78.8731 26.5239C78.9624 27.5817 79.1054 28.6394 79.2841 29.6612C79.5344 30.9879 80.0527 32.2607 79.8739 33.6232C79.7846 34.3403 80.1599 35.0933 79.6595 35.7566C79.4807 35.7925 79.3735 35.9179 79.3556 36.0972C78.9088 36.402 78.4084 36.2586 77.9437 36.2944C77.9079 36.2944 77.8543 36.2944 77.8186 36.2944C77.5862 36.2406 77.3717 36.0255 77.1037 36.2586C77.0322 36.3124 76.7283 36.3482 76.8892 36.0434C76.9607 36.0076 76.9785 35.9717 76.9428 35.9L76.7641 35.8821Z" fill="#1E6E67"/>
<path fill-rule="evenodd" clip-rule="evenodd" d="M6.86365 36.9398C7.16748 36.886 7.07812 36.5992 7.06025 36.4558C6.93514 34.9319 8.11474 34.0714 9.36583 33.8025C10.5812 33.5336 11.8323 33.5874 12.9583 33.9997C13.6732 34.2507 14.406 34.6451 15.0672 35.0753C15.7822 35.5415 16.4971 35.9179 17.1226 36.5633C17.8554 37.3163 18.5167 38.2306 19.3388 38.8043C20.3397 39.5034 20.8402 40.5791 21.7695 41.3141C22.2342 41.6906 22.681 42.2464 23.0564 42.8021C23.3602 43.2682 23.9679 43.5551 24.5219 43.9674C24.6471 43.2503 24.3075 42.7125 24.0573 42.2284C23.5032 41.1528 22.9313 40.0592 22.1091 39.1628C21.0189 37.9975 20.5721 36.4737 19.6784 35.2008C19.2137 34.5375 18.6775 33.928 18.1414 33.3364C17.9626 33.1213 18.1414 32.8882 18.0163 32.7268C17.4086 31.9022 17.0869 30.8624 16.3005 30.1632C16.0324 29.9302 15.9073 29.733 16.0324 29.3565C16.229 28.7828 15.5498 28.5497 15.4426 28.0478C15.4068 27.9044 15.2996 27.7609 15.3175 27.5458C15.3353 27.2948 15.3353 26.9901 15.246 26.7749C14.7634 25.7889 14.9243 24.7491 15.2102 23.799C15.4068 23.1894 16.1217 22.7592 16.7115 22.4006C17.8018 21.7194 19.1601 21.6118 20.2146 21.9704C21.3942 22.3827 22.7883 22.6157 23.6462 23.7631C23.8249 24.0141 24.1824 24.1934 24.4683 24.3726C25.2726 24.8925 25.6122 25.7889 26.2377 26.4343C26.8454 27.0438 27.1135 27.9044 27.8642 28.4243C28.2574 28.6932 28.4897 29.1951 28.7578 29.6075C29.3118 30.5397 29.7587 31.5257 30.6523 32.207C30.9204 32.4221 30.9025 32.8344 31.0991 33.1213C31.9213 34.2686 32.9221 35.2188 33.9945 36.0972C34.4771 36.4916 34.9596 36.904 35.4601 37.4956C35.4601 36.5454 35.1741 35.7566 34.6915 35.2008C33.7979 34.161 33.2617 32.9958 32.7434 31.7767C32.5111 31.203 32.0643 30.8086 31.7783 30.2887C31.4208 29.6433 30.8132 29.1413 30.7774 28.2988C30.7774 28.0657 30.6344 27.7251 30.4557 27.5996C29.9553 27.2948 29.8123 26.7391 29.705 26.2909C29.4191 25.1614 28.6684 24.2651 28.3288 23.1715C28.0965 22.4544 27.8999 21.7014 27.8642 20.9664C27.8463 20.4644 27.882 19.9445 27.7033 19.5143C27.4709 18.9406 27.6139 18.4028 27.7033 17.8829C27.7927 17.2554 28.311 16.8072 28.8114 16.61C29.9195 16.1618 31.0991 16.0543 32.2966 16.2873C32.6898 16.377 32.9758 16.6638 33.2796 16.8789C34.5307 17.7215 35.8175 18.4386 36.5861 19.9087C36.9435 20.5899 37.4261 21.307 38.0338 21.8807C38.4091 22.2213 38.5878 22.7233 38.695 23.2073C38.7487 23.4404 38.8738 23.8348 38.4984 23.9603C38.141 24.0858 37.7478 24.3726 37.3546 24.0499C37.301 24.0141 37.2652 23.9244 37.2295 23.9244C35.9069 24.0858 35.7818 22.8129 35.1384 22.1676C34.3877 21.4146 33.9409 20.4465 33.3153 19.586C33.1545 19.3529 32.9221 19.1916 32.6719 19.0482C32.2609 18.8151 31.8319 18.6 31.4745 18.2594C31.0455 17.847 30.5093 18.0801 30.4914 18.6896C30.4378 19.8908 30.6344 21.074 30.9204 22.2213C31.4744 24.4264 32.5468 26.4164 33.5834 28.4243C33.7979 28.8366 34.1375 29.1951 34.4235 29.5895C35.1205 30.5397 35.5852 31.5974 35.9605 32.7268C35.9963 32.8344 36.0141 32.9599 36.1035 33.0137C37.0686 33.6412 37.3546 34.7168 37.8908 35.6311C38.3197 36.3661 38.3912 37.1908 38.5878 37.9796C38.7308 38.5533 38.3733 39.1807 38.3018 39.8261C38.2661 40.2743 37.5154 40.3819 36.9614 40.3998C35.8533 40.4357 34.9239 40.1309 34.1554 39.2883C33.9051 39.0194 33.5477 38.7863 33.1545 38.7146C33.0473 38.6967 32.8685 38.5891 32.8507 38.4995C32.7077 37.7465 32.0106 37.6748 31.4923 37.388C31.1527 37.1908 31.0455 36.8143 30.9025 36.4916C30.7417 36.1331 30.4914 35.8642 30.1876 35.6311C29.2761 34.914 28.5791 33.9997 28.0786 32.9778C27.9178 32.6551 27.6497 32.5834 27.4709 32.3324C26.5416 31.1134 25.8981 29.6971 24.8258 28.5856C24.379 28.1195 23.8964 27.6175 23.6998 26.9183C23.5389 26.3984 22.9313 26.2909 22.6453 25.8248C21.9661 24.7491 20.7687 24.3009 19.6963 23.781C18.9278 23.4225 17.9984 24.0499 17.9448 25.0897C17.8733 26.2371 18.1592 27.2948 18.6418 28.3346C19.0529 29.231 19.4639 30.1991 20.018 30.97C20.6972 31.8843 20.8938 33.0137 21.7159 33.8384C22.413 34.5375 22.7883 35.5594 23.3423 36.4199C23.8428 37.2087 24.379 37.9617 25.0045 38.6788C25.362 39.0732 25.773 39.5572 25.9339 40.1668C26.2377 41.2783 27.0063 42.1746 27.4531 43.2324C27.7569 43.9853 27.7927 44.7562 27.6139 45.4374C27.3816 46.3517 26.0769 46.7641 25.1117 46.5489C24.0215 46.3159 23.0206 45.8677 22.2521 45.1327C21.5908 44.5231 20.7508 44.057 20.3397 43.1965C20.3218 43.1607 20.3397 43.0889 20.304 43.071C19.4818 42.7662 19.178 41.9057 18.5524 41.4217C18.3916 41.2962 18.3022 41.1886 18.195 41.0094C17.9984 40.6508 17.7303 40.346 17.355 40.113C16.6579 39.7006 16.3541 38.8939 15.7464 38.3561C14.4953 37.2446 13.1191 36.3123 11.6357 35.5594C11.028 35.2546 10.4203 35.4877 9.95564 35.8821C9.61605 36.1689 9.68754 36.7068 9.77691 37.1012C9.97351 38.123 10.3667 39.0553 10.8314 40.0054C11.4391 41.2245 12.3863 42.1746 13.1012 43.3041C13.5481 44.0032 13.9591 44.8996 14.8885 45.3478C15.4604 45.6346 15.8358 46.3159 16.3183 46.8179C16.783 47.3019 17.355 47.7142 17.7303 48.27C18.4452 49.2739 19.5176 49.9552 20.0538 51.1205C20.3218 51.6941 20.6257 52.2858 21.1082 52.7339C21.287 52.8953 21.3585 53.1283 21.43 53.3614C21.5729 53.8992 21.8232 54.3833 22.2342 54.7597C22.4666 54.9928 22.6632 55.2438 22.7704 55.5665C23.2887 57.3054 24.7364 58.3273 25.8981 59.5464C26.5237 60.2276 27.2029 60.8551 28.0071 61.2495C28.454 61.4826 28.6684 61.7694 28.7578 62.2176C28.9008 62.8809 28.5254 63.4008 27.8642 63.2574C26.9169 63.0602 26.0233 63.4187 25.0939 63.3649C24.1824 63.3112 23.2887 63.3649 22.3772 63.4187C21.4121 63.4546 20.5363 62.9347 19.6069 62.7554C18.2307 62.5044 16.8724 61.9128 15.4247 62.1817C15.1566 62.2355 14.7098 62.1279 14.817 62.7016C14.817 62.7733 14.5489 62.8809 14.406 62.9705C13.7447 63.3829 13.1549 64.6199 13.5838 65.4087C13.7625 65.7493 14.1379 65.8569 14.3702 66.1437C15.2102 67.2014 16.3541 67.8468 17.6052 68.3309C17.7482 68.3846 17.8911 68.4205 18.0163 68.5101C19.321 69.3527 20.7865 69.7113 22.27 70.1057C23.3602 70.3925 24.5219 70.4642 25.5407 70.9483C26.1662 71.253 26.756 71.5937 27.4352 71.6654C28.0608 71.7371 28.722 71.6654 29.2761 72.006C30.4021 72.6514 31.6889 72.7769 32.8864 73.1534C33.8694 73.4761 34.8703 73.8346 35.8533 74.1573C36.729 74.4441 37.712 74.6593 38.4627 75.3047C38.6057 75.4301 38.7487 75.5377 38.981 75.5377C39.1955 75.5377 39.3921 75.6094 39.5708 75.7528C40.2678 76.3803 41.233 76.7926 41.2509 77.94C41.2509 78.1193 41.3938 78.2089 41.5189 78.2806C42.3947 78.7826 42.9845 79.6073 43.6458 80.3064C44.3786 81.1132 45.3795 81.4896 46.1837 82.1709C46.6306 82.5474 47.3991 82.4757 47.828 81.7765C48.1319 81.2745 48.5787 80.8622 48.6859 80.2347C48.6859 80.2168 48.6859 80.1809 48.7038 80.1809C49.4723 80.1451 49.5974 79.679 49.6511 79.0156C49.7047 78.442 50.3481 78.1551 50.6162 77.5994C50.9379 76.954 51.5634 76.4699 52.3141 76.2369C52.8145 76.0755 53.2435 76.2727 53.4937 76.6851C53.7082 77.0615 53.6188 77.4022 53.4401 77.8683C53.172 78.5675 52.6179 79.0694 52.4213 79.8045C52.2426 80.4857 51.6349 80.9697 51.2239 81.5434C50.8128 82.0992 50.2587 82.5294 50.0085 83.2107C49.9728 83.3183 49.9191 83.4437 49.794 83.3362C49.4723 83.0852 49.3651 83.4258 49.24 83.5692C48.5251 84.2863 47.7029 84.4835 46.6842 84.4656C45.862 84.4656 45.2722 84.0353 44.5573 83.8561C44.0926 83.7306 43.6816 83.3541 43.4135 82.9238C43.2884 82.7266 43.2347 82.5115 42.9488 82.6549C42.913 82.6729 42.8058 82.6549 42.7879 82.6191C42.4305 81.9199 41.4653 81.884 41.1794 81.0952C40.8934 80.3423 40.25 79.912 39.6423 79.41C39.1419 78.9977 38.5878 78.5854 38.3555 77.8504C38.1946 77.3663 37.7657 76.8106 37.0686 76.8285C36.8363 76.8285 36.6576 76.7209 36.4788 76.6134C35.3886 75.9859 34.2447 75.5556 32.9936 75.3047C32.2251 75.1612 31.4566 74.8923 30.7417 74.5876C30.2234 74.3724 29.705 74.2649 29.1867 74.1752C27.6675 73.9242 26.3092 73.2251 24.8437 72.8307C23.807 72.5438 22.7704 72.2749 21.7517 71.9522C20.2146 71.4861 18.6954 71.0021 17.1762 70.518C16.783 70.3925 16.4435 70.1236 16.1039 69.9085C15.389 69.4603 14.4953 69.2631 13.9234 68.5639C13.5302 68.0978 12.9404 67.9365 12.4221 67.6675C12.0289 67.4703 11.7429 67.2194 11.6357 66.7712C11.5999 66.6277 11.5821 66.4305 11.4748 66.3588C10.5812 65.6059 10.742 64.6019 10.7599 63.598C10.7599 62.4506 11.5284 61.9128 12.4042 61.4646C12.6544 61.3391 12.5472 61.0344 12.7974 60.9089C13.7089 60.4965 14.6204 60.2276 15.6571 60.1738C16.6579 60.1201 17.5873 60.389 18.5524 60.4069C19.0529 60.4069 19.4282 60.9089 19.9286 60.8551C20.715 60.7655 21.3585 61.2136 22.0734 61.3929C22.967 61.608 23.8249 61.3033 24.7364 61.3929C24.5934 61.2854 24.4326 61.1599 24.2717 61.0523C22.6989 60.0663 21.7874 58.5066 20.6793 57.0903C20.018 56.2477 19.6606 55.2796 19.1065 54.4012C18.6954 53.7379 18.4095 52.9849 17.9626 52.3216C17.5158 51.6762 17.1584 50.9591 16.4971 50.5289C15.9788 50.1882 15.6928 49.6325 15.3711 49.1484C14.7634 48.27 13.9234 47.6963 13.1012 47.0868C12.5472 46.6565 12.2612 45.9753 11.7608 45.4912C11.4927 45.2223 11.2782 44.8638 10.9386 44.6666C10.742 44.5411 10.5633 44.4514 10.6705 44.1646C10.6884 44.1108 10.6348 43.9495 10.5812 43.9315C9.91989 43.6985 9.97351 42.838 9.36583 42.5511C9.31222 42.5332 9.2586 42.4615 9.24073 42.4077C9.062 41.1528 7.90027 40.4715 7.52494 39.3242C7.34621 38.7684 7.4177 38.123 6.89939 37.6748V36.886L6.86365 36.9398Z" fill="#1E6E67"/>
<path fill-rule="evenodd" clip-rule="evenodd" d="M79.4985 35.7387C79.5522 35.9897 79.4092 36.0614 79.1947 36.0793C79.1947 35.8821 79.3198 35.7745 79.4985 35.7387Z" fill="#1E6E67"/>
<path fill-rule="evenodd" clip-rule="evenodd" d="M52.2784 54.0247C52.4929 54.1861 52.3141 54.2578 52.2069 54.3474C52.2069 54.2398 52.1711 54.1144 52.2784 54.0247Z" fill="#1E6E67"/>
<path fill-rule="evenodd" clip-rule="evenodd" d="M75.9776 27.8147C76.0313 28.0119 76.2279 28.1912 76.0313 28.4063C75.7989 28.2988 75.9776 28.0478 75.8525 27.9043C75.8883 27.8685 75.924 27.8326 75.9598 27.8147H75.9776Z" fill="white"/>
<path fill-rule="evenodd" clip-rule="evenodd" d="M76.0312 28.3884C76.3172 28.4422 76.1921 28.5856 76.1206 28.7469C75.9955 28.6394 76.067 28.496 76.0312 28.3884Z" fill="white"/>
<path fill-rule="evenodd" clip-rule="evenodd" d="M76.7104 36.0076C76.7104 36.0076 76.7462 35.9179 76.7641 35.8642C76.7998 35.9359 76.7819 35.9717 76.7104 36.0076Z" fill="#1E6E67"/>
<path fill-rule="evenodd" clip-rule="evenodd" d="M77.7649 36.2765C77.7649 36.2765 77.6934 36.3482 77.6576 36.3661C77.6576 36.3303 77.6576 36.2944 77.6398 36.2586C77.6755 36.2586 77.7291 36.2586 77.7649 36.2586V36.2765Z" fill="#1E6E67"/>
<path fill-rule="evenodd" clip-rule="evenodd" d="M76.21 79.8941C76.2279 80.7008 75.9241 80.9877 75.3343 80.8084C74.7087 80.6291 74.1725 80.3064 73.8508 79.7148C73.3325 78.7288 72.9572 77.689 72.7606 76.5775C72.6355 75.8604 72.8321 75.1971 72.975 74.5158C73.0465 74.2111 73.261 74.1931 73.4576 74.1931C73.7436 74.1931 74.0295 74.1035 74.2619 74.4441C74.5836 74.9461 74.7802 75.5019 74.9768 76.0576C75.4594 77.3842 76.3351 78.6033 76.21 79.8941Z" fill="#1E6E67"/>
<path fill-rule="evenodd" clip-rule="evenodd" d="M67.2021 78.0476C67.3273 77.3305 67.1307 76.5416 68.1494 76.8643C68.6856 76.3265 69.186 76.6492 69.3469 77.1333C69.5792 77.8862 70.1333 78.5854 70.0797 79.3563C70.0082 80.6112 70.5265 81.6151 70.9912 82.6728C71.2771 83.3182 71.1699 83.4258 70.455 83.3362C70.1333 83.3003 69.7937 83.2286 69.5614 82.9776C68.2924 81.5076 67.5953 79.7686 67.2021 78.0476Z" fill="#1E6E67"/>
<path fill-rule="evenodd" clip-rule="evenodd" d="M78.9982 72.9741C79.016 72.8307 79.0875 72.5259 79.1233 72.2211C79.1948 71.755 79.4629 71.5399 79.9276 71.4861C80.3565 71.4502 80.6425 71.6474 80.8212 72.006C81.2323 72.7769 81.7506 73.5119 81.8757 74.4083C81.9114 74.6951 82.108 74.964 82.2689 75.2329C82.5548 75.7349 82.4834 76.2727 82.4297 76.8106C82.4297 76.9002 82.3761 76.954 82.2868 76.9898C81.2144 77.5097 80.3208 77.2408 79.9633 76.1293C79.731 75.4122 79.3735 74.7489 79.1411 74.0139C79.0518 73.7091 78.9982 73.4223 78.9982 72.9562V72.9741Z" fill="#1E6E67"/>
<path fill-rule="evenodd" clip-rule="evenodd" d="M86.7728 74.7848C86.7013 74.982 87.0052 75.3943 86.5583 75.5377C85.9328 75.7349 85.2358 75.5019 85.0034 75.0895C84.4672 74.1214 84.2706 73.0279 83.9668 71.9881C83.8953 71.755 83.8953 71.4502 83.8417 71.1813C83.7344 70.6973 83.7166 70.1774 84.3243 69.9264C84.7711 69.7471 85.4145 69.9981 85.6468 70.518C86.2366 71.8626 86.7371 73.243 86.7728 74.8027V74.7848Z" fill="#1E6E67"/>
<path fill-rule="evenodd" clip-rule="evenodd" d="M81.268 52.483C81.5361 52.8774 80.9642 52.9849 80.982 53.2718C80.982 53.2897 80.9284 53.3255 80.8927 53.3435C80.7139 53.3973 79.445 52.8415 79.3556 52.6622C78.8194 51.6404 78.5156 50.5289 78.4262 49.4174C78.3369 48.3776 78.6764 47.8218 79.3199 47.7859C79.5701 47.7859 79.7309 47.8397 79.856 48.0369C80.0348 48.3417 80.2314 48.6285 80.3565 48.9512C80.8212 50.0986 81.0178 51.3177 81.268 52.5009V52.483Z" fill="#1E6E67"/>
<path fill-rule="evenodd" clip-rule="evenodd" d="M75.3878 56.929C75.3878 56.6242 75.3699 56.3374 75.7631 56.194C76.3351 55.9967 76.764 56.194 77.0679 56.6242C77.7291 57.5385 78.0151 58.6321 78.2117 59.7257C78.2653 60.0125 78.1224 60.4248 77.5862 60.2814C77.1393 60.1559 76.7462 59.9587 76.4423 59.5822C75.7989 58.8114 75.5487 57.915 75.4057 56.9469L75.3878 56.929Z" fill="#1E6E67"/>
<path fill-rule="evenodd" clip-rule="evenodd" d="M84.2885 60.8909C84.2527 61.0164 84.2527 61.4646 84.074 61.5722C83.6629 61.8411 82.6978 61.5901 82.5191 61.2316C82.108 60.4069 81.6612 59.6002 81.8399 58.6142C81.8757 58.3632 81.8042 57.9508 82.108 57.9688C82.5727 58.0046 83.0731 57.4489 83.52 58.148C84.0919 59.0444 84.2527 59.3671 84.2885 60.873V60.8909Z" fill="#1E6E67"/>
</g>
<defs>
<clipPath id="clip0_125_12987">
<rect width="87.2727" height="78.1818" fill="white" transform="translate(6.86365 10.9091)"/>
</clipPath>
</defs>
</svg>
