<svg width="101" height="100" viewBox="0 0 101 100" fill="none" xmlns="http://www.w3.org/2000/svg">
<g clip-path="url(#clip0_125_12978)">
<path fill-rule="evenodd" clip-rule="evenodd" d="M62.62 68.0899C62.4042 69.9358 63.1415 71.6205 63.3033 73.3948C63.3213 73.6099 63.3573 73.807 63.4112 74.0221C63.5191 74.3626 63.8068 74.6135 64.1305 74.6852C64.4721 74.7748 64.616 74.4164 64.7778 74.2013C65.2633 73.5561 65.1015 72.8392 64.9217 72.1582C64.598 70.9395 64.5441 69.7029 64.5441 68.4662C64.5441 67.8569 64.616 67.2296 64.6879 66.6023C64.7958 65.527 65.1914 64.4517 64.9217 63.3405C64.7419 62.5699 64.7958 61.7275 64.4002 60.9927C64.1664 60.5447 64.3103 60.2758 64.7958 60.1145C66.1804 59.6665 66.5581 59.8099 67.1874 61.1361C67.3313 61.4408 67.5111 61.7275 67.655 62.0322C67.8348 62.4444 68.2124 62.552 68.572 62.4623C69.3992 62.2473 70.2264 62.0322 70.9816 61.5483C72.2044 60.7777 73.6609 60.3475 74.7758 59.4156C75.3692 58.9138 76.1605 58.4836 76.5021 57.8564C76.9337 57.0857 77.2034 56.1179 76.9337 55.1681C76.7539 54.5587 76.8618 53.9673 76.9337 53.3758C77.0056 52.9457 78.3722 52.6231 78.8757 52.874C79.6849 53.2862 80.1884 54.021 80.5121 54.7738C81.0336 55.9925 81.4472 57.2829 81.4112 58.6449C81.4112 59.1109 81.7169 59.541 82.0586 59.7561C82.9397 60.3296 83.2813 61.2974 83.9647 62.0143C84.1265 62.1756 84.2164 62.4086 84.4142 62.534C85.5291 63.2868 85.9247 64.4875 86.2843 65.6883C86.3742 65.993 86.5181 66.2797 86.8058 66.441C89.3952 67.8748 90.5101 70.2584 91.2294 72.9826C91.6789 74.6494 91.1215 76.119 90.8158 77.714C90.4741 79.4345 89.2334 80.2231 88.0466 81.0117C86.8598 81.8003 85.3493 81.9616 83.9467 81.6927C82.3283 81.3881 80.7279 80.9938 79.2893 80.1514C78.4622 79.6675 77.7788 79.0044 77.2034 78.2875C76.8438 77.8395 76.3403 77.6961 75.9447 77.3556C75.8008 77.2301 75.585 77.3018 75.4412 77.4273C73.7688 78.879 71.9706 78.1262 70.2444 77.6244C68.9497 77.2301 67.619 76.8896 66.4142 76.2086C66.0006 75.9756 65.4072 76.2444 64.9936 76.5132C64.4002 76.8896 63.7529 76.9255 63.1055 76.9971C61.6669 77.1405 60.2464 77.3735 58.8078 77.4452C56.614 77.5527 54.4202 77.9112 52.2084 77.6244C50.7159 77.4273 49.1874 77.4631 47.6769 77.3556C46.4542 77.2481 45.2314 77.2301 44.0086 77.2122C43.1814 77.2122 42.4082 76.7642 41.563 76.8C39.8188 76.8538 38.1824 76.0831 36.4382 76.1369C35.647 76.1548 34.9636 75.7784 34.2623 75.5455C33.3273 75.2408 32.3203 75.2049 31.4392 74.8644C29.7129 74.1834 27.8068 73.9504 26.2244 72.8751C25.9367 72.6779 25.5411 72.66 25.2174 72.4808C23.5451 71.5488 21.9626 70.4377 20.2903 69.4878C18.9596 68.7351 17.7369 67.7135 16.622 66.5844C15.3632 65.312 14.0865 64.0753 13.2054 62.5161C12.558 61.3332 12.0366 60.0787 11.4072 58.8779C10.8857 57.8564 10.5441 56.7452 10.3283 55.6699C10.0945 54.4153 9.62698 53.1966 9.59102 51.8345C9.55505 50.5083 10.0765 49.3255 9.96864 48.053C9.91469 47.5153 10.2024 46.9597 10.2923 46.4042C10.3642 45.9561 10.4362 45.526 10.3283 45.0958C10.1844 44.5582 10.4721 44.3252 10.8857 44.2356C11.4252 44.1281 11.3173 44.612 11.3173 44.8808C11.4252 47.8917 13.1335 50.2574 14.4641 52.7844C16.7479 57.1216 20.2723 60.2758 24.3722 62.7491C28.1305 65.0073 32.1584 66.7099 36.5461 67.4805C38.7219 67.8569 40.8258 68.5738 43.0376 68.8605C45.6989 69.201 48.3603 69.2907 51.0216 69.1652C51.8308 69.1294 52.64 69.1114 53.4671 69.201C55.5171 69.4161 57.4951 69.1114 59.3832 68.3408C60.1205 68.0361 60.8937 67.9107 61.6669 68.1616C62.0086 68.2691 62.2603 68.0899 62.602 68.1078L62.62 68.0899ZM72.9057 62.1935C72.9057 62.1935 72.8518 62.2473 72.8338 62.2831C72.8697 62.2652 72.8877 62.2294 72.9237 62.2114C72.9237 62.1935 72.9597 62.1577 72.9776 62.1397C72.9417 62.1577 72.9237 62.1756 72.9057 62.1935ZM71.1794 63.3047C70.8378 63.3405 70.4601 63.2151 70.1724 63.4839C70.5141 63.4301 70.8917 63.5735 71.1794 63.3047C71.3952 63.3047 71.611 63.3405 71.7189 63.0538C71.4132 62.9462 71.2154 63 71.1794 63.3047ZM67.3852 64.0933C67.7808 64.1112 68.1405 63.9857 68.4821 63.8065C68.1225 63.9678 67.619 63.4301 67.3852 64.0933C67.3672 64.0933 67.3493 64.0933 67.3313 64.1112V64.147C67.3493 64.1291 67.3672 64.0933 67.4032 64.0753L67.3852 64.0933ZM85.8348 70.8499C84.7379 70.8499 83.4971 71.5309 83.0835 72.5345C82.3643 74.2192 81.9866 75.9577 82.652 77.7857C83.0656 78.9327 85.0256 79.9543 86.1944 79.5779C87.1475 79.2732 87.7409 78.5384 88.2264 77.732C88.7299 76.9255 88.7838 75.9756 89.0356 75.0795C89.5571 73.0901 88.2803 70.7423 85.8348 70.8499ZM79.4691 65.7421C78.3003 65.6883 76.9696 66.7278 76.5381 68.0361C76.1065 69.3265 75.621 70.581 75.3513 71.9252C75.1714 72.8213 75.0815 73.5203 75.7469 74.2013C75.8548 74.3088 75.8907 74.506 76.0526 74.506C76.2863 74.506 76.3043 74.2551 76.3223 74.0758C76.4122 72.9468 76.4841 71.7997 76.8617 70.7244C77.4012 69.1114 77.7968 67.4268 79.1275 66.2081C79.2713 66.0826 79.5051 65.993 79.4871 65.7242L79.4691 65.7421ZM57.5131 75.9397C56.9197 75.7426 56.5601 75.653 56.1824 76.0294C56.596 76.119 56.9377 76.1369 57.5131 75.9397ZM72.4022 62.6595C72.4022 62.6595 72.3842 62.6236 72.3662 62.6057L72.3123 62.6416C72.3123 62.6416 72.3483 62.6774 72.3662 62.7132C72.3662 62.6953 72.3662 62.6774 72.3842 62.6595H72.4022Z" fill="#1E6E67"/>
<path fill-rule="evenodd" clip-rule="evenodd" d="M22.1244 27.6396C22.592 27.6576 22.61 27.2453 22.7718 27.0124C23.4911 26.0087 24.4981 25.3098 25.523 24.7004C26.1704 24.324 26.9616 24.0911 27.7348 23.9656C28.1304 23.8939 28.4002 24.0731 28.6159 24.3599C28.8857 24.7183 28.526 24.8796 28.3642 25.0768C26.3862 27.4963 25.9546 30.3817 25.8287 33.3747C25.8108 33.9661 26.2783 34.45 26.2963 35.0773C26.3142 35.4895 26.2243 35.8479 25.9366 35.9555C25.3252 36.2064 24.8757 36.6903 24.3182 36.995C22.9336 37.6939 21.8367 38.7872 20.596 39.7012C19.9666 40.1672 19.3912 40.7048 18.564 40.8124C17.8267 40.902 17.2513 40.5614 17.1254 39.8266C16.8557 38.4646 16.9996 37.1025 17.0535 35.7225C17.1254 33.9661 17.8807 32.389 17.9886 30.6685C18.0066 30.1846 18.5101 29.9874 18.6179 29.4677C18.9596 27.8905 19.7328 26.4926 20.8297 25.2739C21.6389 24.3599 22.4841 23.4817 23.4551 22.7469C23.9047 22.4064 24.4082 22.2092 24.9296 22.03C25.8467 21.7253 26.548 21.0443 27.3932 20.5963C29.551 19.503 31.8347 19.1804 34.1904 19.0908C36.2943 19.0191 38.3622 19.4134 40.3402 19.9869C41.581 20.3453 42.8577 20.7576 44.0086 21.4924C44.602 21.8687 45.3572 22.0121 46.0405 22.263C48.2883 23.0874 50.4641 24.0552 52.4241 25.4531C53.1254 25.955 53.9346 26.3134 54.6539 26.7794C56.0385 27.7113 57.3872 28.697 58.538 29.9157C58.8977 30.2921 59.3292 30.4713 59.6889 30.7939C60.8757 31.8692 61.8108 33.1776 62.9616 34.2708C63.8967 35.149 64.7059 36.1347 65.551 37.0846C65.9286 37.4968 66.3962 37.8194 66.7378 38.3033C67.6729 39.7191 68.7338 41.0633 69.7588 42.4253C70.568 43.5186 71.4132 44.6298 71.9706 45.8126C72.6719 47.3181 73.8587 48.5368 74.2903 50.1677C74.3262 50.329 74.4521 50.5082 74.578 50.6337C75.7648 51.8524 75.8727 53.4653 76.2503 54.9887C76.4121 55.6698 75.9806 56.7092 75.3872 57.1035C74.2543 57.8563 73.2473 58.824 72.0605 59.4334C71.1254 59.9173 70.1185 60.5625 68.8777 60.4191C68.5001 60.3653 68.3922 60.1861 68.2483 59.9711C67.547 58.9137 66.8997 57.8383 66.3962 56.6734C65.3712 54.3077 63.8967 52.2108 62.7278 49.9526C62.2783 49.0924 61.8287 48.2142 61.3792 47.3539C61.0915 46.7804 60.588 46.2786 60.2463 45.6872C59.8507 45.0061 59.1674 44.576 58.9516 43.7337C58.7538 42.9272 57.8367 42.5508 57.3872 41.8518C56.7938 40.9557 56.2363 40.0596 55.517 39.2711C54.564 38.2137 53.7908 36.977 52.568 36.1885C51.9926 35.8121 51.8307 35.0952 51.2733 34.683C50.3382 33.984 49.4571 33.1955 48.612 32.4248C47.7129 31.6004 46.7598 30.8298 45.8427 30.0053C44.548 28.8583 43.0195 28.0518 41.545 27.1378C40.3582 26.4209 39.1174 25.8295 37.9306 25.1485C36.5101 24.324 34.9456 23.8401 33.3093 23.5176C32.0865 23.2846 30.8277 23.1591 29.6589 22.6214C29.2633 22.4422 28.8317 22.6573 28.4361 22.6752C27.4651 22.729 26.602 23.1233 25.6849 23.3383C25.1814 23.4459 24.6779 23.7147 24.4261 24.109C23.7069 25.2918 22.1065 25.9012 22.1244 27.6217V27.6396ZM51.3992 28.7329C51.3992 28.7329 51.3632 28.697 51.3272 28.6791L51.3992 28.7508C51.3992 28.7508 51.4531 28.7866 51.4711 28.8046L51.3992 28.7329ZM52.9816 30.0053L52.9097 29.9337C52.9097 29.9337 52.9456 29.9695 52.9816 30.0053C52.9996 30.0233 53.0355 30.0412 53.0535 30.077C53.0355 30.0591 53.0175 30.0233 52.9816 30.0053ZM50.9137 28.4282C50.9137 28.4282 50.9676 28.464 50.9856 28.482C50.9676 28.464 50.9496 28.4461 50.9137 28.4103C50.8597 28.3744 50.8058 28.3207 50.7338 28.2848C50.7338 28.2848 50.7159 28.3207 50.6979 28.3386C50.7698 28.3565 50.8417 28.3924 50.9137 28.4103V28.4282ZM53.7188 30.8477C53.7908 30.7401 53.9886 30.6147 53.9706 30.5251C53.9346 30.3279 53.7548 30.1846 53.521 30.2025C53.3412 30.2025 53.3232 30.3459 53.3952 30.4713C53.4671 30.6147 53.4851 30.8298 53.7368 30.8477H53.7188ZM50.3922 28.016C50.3922 28.016 50.3922 28.0518 50.3922 28.0698C50.3922 28.0698 50.4281 28.0698 50.4461 28.0698C50.4461 28.0339 50.4461 28.016 50.4461 27.9801H50.3922V28.016Z" fill="#1E6E67"/>
<path fill-rule="evenodd" clip-rule="evenodd" d="M14.554 39.2174C15.3992 39.092 15.7768 39.5579 15.8847 40.2031C15.9926 40.9738 16.5321 41.4935 16.8737 42.1208C17.1435 42.6047 18.582 42.6764 19.0316 42.2104C19.7508 41.4577 20.7758 41.1709 21.567 40.5257C22.9516 39.3966 24.552 38.5722 25.9726 37.5327C26.5301 37.1384 27.1594 36.7621 27.609 36.1348C27.8967 35.7405 28.0406 35.4179 27.8248 35.0057C27.4651 34.2888 27.7708 33.5182 27.573 32.8013C27.5371 32.6938 27.573 32.4608 27.6629 32.4249C28.3283 32.1382 28.5081 31.2779 29.3532 31.1704C30.2883 31.027 31.1694 30.5969 32.1045 30.4894C33.6509 30.2922 35.2154 30.2205 36.7618 30.1488C37.9487 30.0951 39.1534 30.0234 40.3223 30.3997C41.6709 30.8478 43.0376 31.0808 44.3143 31.9052C45.1594 32.4608 46.1485 32.9447 47.0116 33.5361C47.9646 34.1813 48.7738 34.9878 49.601 35.7764C50.4641 36.6008 51.3632 37.3894 52.2444 38.2138C52.4601 38.4288 52.6939 38.6977 52.586 39.0382C52.4422 39.4325 52.0645 39.3249 51.7768 39.3787C50.9676 39.5221 50.3023 39.1816 49.5471 38.8769C48.3782 38.393 47.1195 38.0704 45.8428 37.8553C42.624 37.3356 39.3872 36.9055 36.1325 37.1205C34.3163 37.2281 32.5001 37.5327 30.7558 38.2138C29.5331 38.6977 28.3103 39.2174 27.1055 39.7371C24.8937 40.6691 22.8078 41.9416 21.0456 43.5904C19.8408 44.7374 18.8877 46.1174 18.0426 47.5691C17.611 48.286 17.0535 48.9491 16.64 49.6839C16.2623 50.4008 15.0396 50.4187 14.626 49.7377C13.7628 48.2681 12.9536 46.7984 12.558 45.0958C12.4322 44.5761 12.3423 43.9309 11.8388 43.5187C11.605 43.3036 11.623 43.0169 11.6949 42.7122C11.9826 41.5652 12.6479 40.6332 13.2773 39.6834C13.565 39.2712 14.0685 39.092 14.5361 39.1995L14.554 39.2174Z" fill="#1E6E67"/>
<path fill-rule="evenodd" clip-rule="evenodd" d="M77.491 51.3686C76.8976 51.512 76.6459 51.1356 76.4301 50.6158C75.5849 48.5907 74.4701 46.7268 72.9955 45.0958C72.8517 44.9166 72.6898 44.7195 72.6359 44.5044C72.564 44.2356 72.7258 43.9668 72.9056 43.8055C73.1034 43.6262 73.3552 43.8055 73.553 43.9309C75.6569 45.0062 77.1674 46.7088 78.4081 48.6623C78.534 48.8595 78.6419 49.0746 78.7498 49.2896C79.4691 50.5621 78.9835 51.3865 77.4731 51.4044L77.491 51.3686Z" fill="#1E6E67"/>
<path fill-rule="evenodd" clip-rule="evenodd" d="M57.531 75.9218C56.9556 76.119 56.6139 76.101 56.2003 76.0114C56.5779 75.653 56.9376 75.7247 57.531 75.9218Z" fill="#1E6E67"/>
<path fill-rule="evenodd" clip-rule="evenodd" d="M67.3851 64.0932C67.6189 63.4301 68.1404 63.9678 68.482 63.8065C68.1404 63.9857 67.7807 64.1291 67.3851 64.0932Z" fill="#1E6E67"/>
<path fill-rule="evenodd" clip-rule="evenodd" d="M71.1794 63.3047C70.8916 63.5735 70.514 63.4301 70.1724 63.4839C70.4601 63.2151 70.8377 63.3405 71.1794 63.3047Z" fill="#1E6E67"/>
<path fill-rule="evenodd" clip-rule="evenodd" d="M71.1793 63.3047C71.2153 63 71.3951 62.9462 71.7188 63.0538C71.6289 63.3405 71.3951 63.3047 71.1793 63.3047Z" fill="#1E6E67"/>
<path fill-rule="evenodd" clip-rule="evenodd" d="M72.4201 62.6595C72.4201 62.6595 72.4201 62.6953 72.4021 62.7132C72.3841 62.6953 72.3661 62.6774 72.3481 62.6416L72.4021 62.6057C72.4021 62.6057 72.4201 62.6416 72.4381 62.6595H72.4201Z" fill="#1E6E67"/>
<path fill-rule="evenodd" clip-rule="evenodd" d="M72.9416 62.1935C72.9416 62.1935 72.8876 62.2473 72.8517 62.2652C72.8697 62.2294 72.9056 62.2114 72.9236 62.1756L72.9416 62.1935Z" fill="#1E6E67"/>
<path fill-rule="evenodd" clip-rule="evenodd" d="M72.9236 62.1756C72.9236 62.1756 72.9775 62.1397 72.9955 62.1218C72.9775 62.1397 72.9595 62.1756 72.9416 62.1935L72.9236 62.1756Z" fill="#1E6E67"/>
<path fill-rule="evenodd" clip-rule="evenodd" d="M67.3852 64.0933C67.3852 64.0933 67.3492 64.147 67.3132 64.1649V64.1291C67.3132 64.1291 67.3492 64.1291 67.3672 64.1112L67.3852 64.0933Z" fill="#1E6E67"/>
<path fill-rule="evenodd" clip-rule="evenodd" d="M50.3922 28.0161H50.4463C50.4463 28.0161 50.4463 28.052 50.4463 28.07C50.4282 28.07 50.4102 28.07 50.3922 28.07C50.3922 28.07 50.3922 28.0341 50.3922 28.0161Z" fill="#1E6E67"/>
<path fill-rule="evenodd" clip-rule="evenodd" d="M50.9137 28.4283C50.9137 28.4283 50.7698 28.3746 50.6979 28.3566C50.6979 28.3387 50.7338 28.3029 50.7338 28.3029C50.7878 28.3387 50.8597 28.3746 50.9137 28.4283Z" fill="#1E6E67"/>
<path fill-rule="evenodd" clip-rule="evenodd" d="M51.3992 28.733L51.4711 28.8047C51.4711 28.8047 51.4172 28.7688 51.3992 28.7509V28.733Z" fill="#1E6E67"/>
<path fill-rule="evenodd" clip-rule="evenodd" d="M51.3992 28.7509L51.3273 28.6792C51.3273 28.6792 51.3632 28.7151 51.3992 28.733V28.7509Z" fill="#1E6E67"/>
<path fill-rule="evenodd" clip-rule="evenodd" d="M50.9316 28.4104C50.9316 28.4104 50.9676 28.4642 51.0036 28.4821C50.9856 28.4642 50.9496 28.4462 50.9316 28.4283V28.4104Z" fill="#1E6E67"/>
</g>
<defs>
<clipPath id="clip0_125_12978">
<rect width="81.8182" height="62.7273" fill="white" transform="translate(9.59094 19.0909)"/>
</clipPath>
</defs>
</svg>
