<svg width="101" height="100" viewBox="0 0 101 100" fill="none" xmlns="http://www.w3.org/2000/svg">
<g clip-path="url(#clip0_125_12965)">
<path fill-rule="evenodd" clip-rule="evenodd" d="M5.04541 11.5298C5.3485 11.7065 5.61593 11.5651 5.66942 11.3C5.77639 10.7875 6.18645 10.4517 6.36474 10.0099C6.5252 9.6211 6.86395 9.51506 7.22052 9.40903C8.73597 9.00255 10.3049 9.12626 11.856 9.09091C12.1413 9.09091 12.4979 9.14393 12.5692 9.49739C12.7118 10.2397 13.3001 10.6992 13.5676 11.3707C14.1916 12.9436 15.0652 14.4282 15.6714 16.0187C16.545 18.3516 17.7395 20.543 18.4705 22.9112C19.0767 24.8906 20.1286 26.7286 20.4852 28.7963C20.5921 29.3795 20.8596 30.0157 21.3231 30.5106C21.5905 30.7933 21.7332 31.2528 21.8401 31.6416C22.4642 33.7094 23.2843 35.7064 24.2827 37.6151C24.6571 38.3397 24.5858 39.2057 25.0672 39.8949C25.816 40.973 26.2439 42.2278 26.6896 43.4295C27.3671 45.2852 28.5438 46.9111 28.9895 48.8905C29.2569 50.0392 30.0057 51.1173 30.1662 52.2837C30.4336 54.2454 31.2359 56.1187 31.129 58.1335C31.129 58.3279 31.2181 58.5399 31.2894 58.7343C31.7173 60.0068 32.0026 61.2969 31.8599 62.6401C31.7886 63.453 31.0755 64.0009 30.2732 64.0009C28.9895 64.0009 27.9733 63.4707 27.0105 62.7284C26.9392 62.6577 26.8144 62.5871 26.8144 62.5164C26.7966 61.8625 26.3687 61.403 25.9764 60.9788C24.8532 59.8124 24.0687 58.4162 23.0525 57.1791C22.5533 56.5782 21.7688 56.2071 21.3588 55.4825C21.2875 55.3588 21.127 55.2881 21.0913 55.1114C20.8774 53.4324 20.0929 51.9479 19.5759 50.375C18.9519 48.4663 17.9891 46.699 17.3473 44.808C16.8481 43.3588 16.2776 41.8566 15.4218 40.5312C15.19 40.16 15.1009 39.7005 14.9761 39.2764C14.8334 38.7992 14.7265 38.322 14.2986 37.9863C13.8707 37.6328 14.0846 37.0849 13.9242 36.6431C13.4963 35.5474 13.0327 34.4693 12.587 33.4089C11.8204 31.571 11.0359 29.733 10.2871 27.8773C9.8057 26.6932 9.41347 25.4914 9.00341 24.2897C8.45071 22.6814 7.64842 21.1792 7.22052 19.518C6.89961 18.2809 6.45389 17.0084 5.86554 15.8243C5.56245 15.2234 5.45547 14.5342 5.25936 13.898C5.11673 13.2264 5.3485 12.5018 5.08107 11.8479V11.5298H5.04541ZM8.29025 13.0143C8.2546 13.3501 8.14762 13.7036 8.32591 13.9687C8.94992 14.8346 9.14604 15.842 9.48478 16.814C10.1088 18.599 10.715 20.4193 11.4103 22.1866C12.5335 25.0496 13.4784 27.9833 14.7443 30.7757C15.2791 31.9598 15.5466 33.2676 16.3489 34.3633C16.6876 34.8228 16.7233 35.4944 16.9194 36.0599C17.7039 38.4634 18.7558 40.7432 19.8968 42.9877C20.0751 43.3412 20.2712 43.677 20.3069 44.0834C20.3604 45.1615 20.9309 46.1158 21.2875 47.0702C21.8401 48.6077 22.5711 50.1276 23.2308 51.6298C23.3913 52.0186 23.4626 51.9656 23.7835 51.8242C24.5145 51.4884 25.2989 51.2587 26.1012 51.1703C26.2439 51.1703 26.4578 51.2233 26.4043 50.9582C26.2439 50.1806 26.1547 49.3677 25.8516 48.6431C25.3881 47.5297 24.3362 46.6814 24.461 45.2852C24.5501 44.4015 23.6409 43.9244 23.3734 43.1468C23.0882 42.2808 22.6781 41.4502 22.2502 40.6372C21.5371 39.2941 20.9665 37.8625 20.4852 36.4487C20.0394 35.1586 19.1302 34.0805 18.9162 32.7197C18.7558 31.677 17.9356 30.9171 17.793 29.8567C17.6682 28.9554 17.3651 28.0717 16.9729 27.2411C16.5628 26.3751 15.9923 25.5798 16.0636 24.5371C16.0636 24.272 15.9388 23.9009 15.7427 23.7595C14.7086 22.9642 14.8513 21.6564 14.3342 20.649C13.8528 19.7124 13.6746 18.599 13.1219 17.7153C12.587 16.8494 12.2482 15.9304 12.0165 14.9937C11.8382 14.2691 11.6242 13.6152 11.125 13.1027C10.8576 12.8199 10.715 12.6432 10.7685 12.219C10.8754 11.5298 9.91267 10.8936 9.34215 11.3C8.7538 11.7065 7.96933 12.0776 8.27242 13.032L8.29025 13.0143ZM27.1888 53.8566C27.2066 53.2204 27.0996 53.1497 26.4756 53.2734C25.7981 53.4148 25.5129 54.051 24.9602 54.3514C24.5501 54.5812 24.5858 54.8109 24.871 55.1644C25.6199 56.0657 26.5469 56.8257 26.957 57.9744C27.0283 58.1865 27.2601 58.3455 27.4206 58.5046C27.581 58.6637 27.795 58.699 28.0089 58.5753C28.2407 58.4339 28.2763 58.2042 28.1694 58.0274C27.7771 57.3912 27.8663 56.6313 27.6345 55.942C27.4027 55.2881 27.0996 54.5989 27.1888 53.8566Z" fill="#1E6E67"/>
<path fill-rule="evenodd" clip-rule="evenodd" d="M5.04541 11.8479C5.31284 12.5195 5.08107 13.2264 5.2237 13.898H5.04541V11.8479Z" fill="#FCFDFE"/>
<path fill-rule="evenodd" clip-rule="evenodd" d="M25.2812 64.0186C25.1564 65.2203 24.7641 66.2984 24.1758 67.3941C23.5339 68.6136 22.7138 69.7976 22.4464 71.2115C22.3929 71.5119 22.3751 71.7063 22.6781 71.724C23.944 71.83 24.8354 72.7844 25.9765 73.1378C26.9392 73.4383 27.902 73.8271 28.7578 74.3573C29.5066 74.8344 30.291 75.2586 31.0933 75.6121C32.0739 76.0362 33.0902 76.372 34.0708 76.7431C34.9265 77.0612 35.8715 77.2733 36.6559 77.7328C37.7791 78.4044 38.9559 79.0583 40.1504 79.4824C41.3627 79.9066 42.3968 80.6135 43.52 81.1437C45.606 82.1334 47.7633 82.9287 49.8492 83.9007C51.436 84.6253 53.0049 85.4206 54.6809 85.9508C56.4816 86.4986 58.1218 87.3823 59.8512 88.1069C60.4574 88.3543 61.1527 88.3896 61.7589 88.7254C62.1511 88.9375 62.3472 88.2836 62.4542 88.0008C63.0782 86.3926 64.0231 84.9257 64.5045 83.2468C64.7185 82.4868 65.5386 82.098 65.7704 81.3204C66.02 80.5075 66.4657 79.7475 66.8401 79.0053C67.4106 77.8565 67.5354 76.3897 68.8369 75.6297C68.9439 75.559 69.0865 75.4353 69.0687 75.347C68.9261 74.3043 69.6749 73.5266 69.9067 72.59C70.1384 71.6887 70.709 70.8934 71.0477 70.0274C71.8143 68.1364 73.0802 66.5281 73.9716 64.7255C74.2925 64.0539 74.5778 63.2586 75.0235 62.7815C76.4142 61.2616 76.9134 59.3176 77.9118 57.621C78.4467 56.7196 78.8032 55.6946 79.2846 54.7579C79.766 53.8389 80.3187 52.9553 80.7822 52.0363C81.2101 51.2233 81.531 50.3397 81.9589 49.5444C82.6008 48.378 83.1891 47.1762 83.9379 46.0451C84.5085 45.1792 84.9542 44.1895 85.3286 43.1821C85.6317 42.3515 86.0774 41.5916 86.4874 40.8316C86.844 40.1247 87.2363 39.4354 87.5037 38.6755C87.8781 37.5975 88.6091 36.7138 89.0726 35.7064C89.8749 33.9922 91.1229 32.5253 91.7113 30.705C91.8539 30.2455 92.2105 29.8213 92.6384 29.5386C93.1019 29.2381 92.9237 28.9907 92.5671 28.8847C91.3012 28.5135 90.2315 27.7183 88.9478 27.3825C87.8781 27.082 86.9332 26.3044 85.8634 25.9863C84.7402 25.6505 83.8844 24.8022 82.7077 24.6078C81.9233 24.4841 81.2101 23.9362 80.5148 23.5474C78.7676 22.5754 76.8064 22.0806 75.0235 21.1793C74.2925 20.8081 73.3833 20.5784 72.5631 20.2779C71.3864 19.8361 70.2811 19.1822 69.1578 18.599C67.7494 17.8744 66.2518 17.3442 64.8968 16.4606C63.8627 15.789 62.5255 15.6653 61.3488 15.1704C60.2256 14.6933 59.1915 14.004 58.0327 13.6682C56.749 13.2971 55.608 12.5548 54.253 12.3251C53.8429 12.2544 53.308 12.219 52.898 11.8479C52.5236 11.5121 51.5965 11.8302 51.4182 12.3251C50.8833 13.8096 49.9562 15.0467 48.9043 16.1601C48.5656 16.5136 48.8508 16.7787 48.6904 17.0968C47.8881 18.7404 46.8718 20.2603 45.9804 21.8508C45.8556 22.0629 45.7486 22.2573 45.713 22.4871C45.6773 22.7168 45.5703 23.0703 45.4277 23.1056C44.6789 23.2647 44.6432 23.9186 44.5006 24.4311C44.3223 25.085 43.8409 25.5091 43.5557 26.0393C43.2704 26.5872 42.9852 27.2057 42.8069 27.8066C42.486 28.867 41.648 29.6269 41.2379 30.6343C41.131 30.8994 40.9527 31.1291 41.024 31.4296C41.0596 31.6063 41.024 31.8007 40.8457 31.9244C40.3822 32.1895 40.293 32.6137 40.1682 33.0908C39.8651 34.2926 39.2411 35.3707 38.5993 36.431C38.1179 37.191 37.9931 38.2337 37.2621 38.7639C36.4955 39.3294 37.0125 40.4958 35.9963 40.8493C35.7288 40.9377 36.0141 41.3795 35.9071 41.6622C35.711 42.1748 35.4614 42.6696 35.1583 43.1291C34.2134 44.5429 33.3041 45.9568 32.377 47.3706C32.2879 47.512 32.1809 47.618 32.0739 47.7418C31.4321 48.4664 30.7189 48.6961 30.2197 48.2543C29.5957 47.7064 29.8453 47.0879 30.1128 46.4163C30.7368 44.7727 31.9135 43.3765 32.3948 41.6799C32.7158 40.5665 33.5537 39.7005 33.8568 38.6402C34.1421 37.6505 35.0157 37.0673 35.3009 36.1129C35.7645 34.5577 36.9234 33.3206 37.2978 31.6947C37.5117 30.7934 38.1001 29.9451 38.7241 29.1851C38.7954 29.0967 38.9202 29.0261 38.9202 28.9554C39.0093 27.895 39.8295 27.1527 40.1504 26.1984C40.2752 25.8449 40.7922 25.7035 40.7031 25.2264C41.2736 25.2264 41.2023 24.7138 41.2379 24.4311C41.3984 23.4237 42.3077 22.8052 42.5573 21.8508C42.9673 20.2072 44.5719 19.1645 44.8215 17.4149C44.875 17.0438 45.3029 16.7963 45.4812 16.6373C46.2478 15.9304 46.3726 14.9584 46.7649 14.1101C47.1749 13.2441 47.6741 12.3781 48.2625 11.6712C48.6904 11.1587 49.1718 10.6992 49.5462 10.116C49.7423 9.81552 50.3841 9.72715 50.8298 9.67413C53.0584 9.40904 55.1266 9.92155 57.1412 10.8582C58.5854 11.5298 60.0117 12.2897 61.5806 12.6432C62.472 12.8553 63.2922 13.3501 64.1123 13.7212C65.0572 14.1454 66.0913 14.2514 66.9827 14.7463C67.5176 15.0467 68.1416 15.1528 68.5695 15.6476C68.7478 15.8597 69.0509 16.0364 69.3183 16.0718C70.3345 16.2131 71.2438 16.6903 72.0818 17.1675C73.4368 17.9274 74.8274 18.6167 76.2537 19.1999C77.1273 19.5533 77.9831 19.8714 78.8389 20.2956C79.659 20.7021 80.5861 20.8965 81.3349 21.4974C81.638 21.7448 82.1194 21.7801 82.5295 21.9038C82.993 22.0452 83.4744 22.1689 83.831 22.4871C84.6154 23.2116 85.7386 23.2116 86.6123 23.7418C87.2541 24.1306 88.0564 24.2013 88.6626 24.7138C89.0013 24.9966 89.5718 24.6255 89.9284 24.9966C91.0695 26.1984 92.9236 26.057 94.1182 27.2057C94.4748 27.5592 95.1523 27.5239 95.6336 27.842C95.9546 28.054 96.0437 28.2308 95.8654 28.6019C95.2414 30.0511 94.5817 31.4826 94.0825 32.9848C93.7794 33.8685 93.0484 34.6107 92.6206 35.4767C91.5865 37.5975 90.2315 39.5768 89.4114 41.8213C89.1618 42.5282 88.5556 43.1998 88.3951 43.889C88.092 45.1792 87.2184 46.1512 86.7371 47.3176C86.4161 48.1129 85.8813 48.8198 85.489 49.5974C84.8829 50.7815 84.2767 52.0009 83.51 53.0967C83.0465 53.7682 82.5829 54.4928 82.369 55.1644C82.0124 56.2955 81.2458 57.1791 80.9249 58.2925C80.5861 59.4413 79.7838 60.3603 79.249 61.403C78.4288 62.9935 77.68 64.6018 76.7351 66.104C76.2359 66.9169 75.6297 67.6769 75.1662 68.5075C74.5243 69.6739 73.9181 70.8757 73.5437 72.1658C73.3833 72.696 72.7949 72.9965 72.7236 73.5266C72.5631 74.6577 71.957 75.5944 71.4578 76.5664C70.7268 78.0156 70.1206 79.5178 69.3183 80.9316C68.7656 81.9036 68.3021 82.911 67.7672 83.9007C67.2323 84.8904 66.9292 85.9861 66.3231 86.9758C65.7882 87.8241 65.289 88.7254 64.7898 89.6091C64.6828 89.7858 64.7363 90.0686 64.7185 90.2983C64.6472 91.5884 63.9518 92.0833 62.7751 91.6061C61.0101 90.8992 59.2807 90.1216 57.4978 89.4147C55.911 88.7784 54.3064 88.2129 52.7197 87.612C51.2221 87.0465 49.7601 86.3926 48.2981 85.7387C46.6044 84.9787 44.8928 84.2718 43.1813 83.5472C42.4681 83.2468 41.7193 83.017 41.1488 82.5045C40.4535 81.8683 39.4729 81.939 38.7419 81.4618C37.0303 80.3307 35.1227 79.5708 33.3219 78.6518C32.6445 78.316 31.7887 78.104 31.022 77.8212C30.4337 77.6091 29.774 77.5561 29.3105 77.0436C29.2391 76.9552 29.0787 76.8845 28.9539 76.8845C28.2942 76.8845 27.8128 76.6017 27.2602 76.2306C26.4222 75.6828 25.4594 75.3116 24.5323 74.8875C23.32 74.3219 22.1255 73.7034 20.824 73.3676C20.093 73.1732 19.8255 72.2365 19.0054 72.0598C18.8806 72.0244 18.9698 71.6887 19.0411 71.4766C19.5224 69.886 20.1286 68.3308 21.0557 66.9876C21.9828 65.6622 22.4107 64.0363 23.6231 62.8875C23.8905 62.6401 24.0153 62.2159 24.5858 62.428C25.1029 62.6224 25.1564 62.9935 25.2455 63.4C25.2812 63.5768 25.2455 63.7712 25.2455 63.9479L25.2812 64.0186Z" fill="#1E6E67"/>
<path fill-rule="evenodd" clip-rule="evenodd" d="M8.29024 13.0143C7.98715 12.06 8.77162 11.6888 9.35997 11.2824C9.93049 10.8935 10.8932 11.5121 10.7863 12.2013C10.715 12.6255 10.8754 12.8022 11.1428 13.085C11.6242 13.5975 11.8382 14.2514 12.0343 14.976C12.2661 15.895 12.6226 16.8317 13.1397 17.6976C13.6924 18.5813 13.8707 19.6947 14.352 20.6314C14.8691 21.6564 14.7443 22.9465 15.7605 23.7418C15.9566 23.9009 16.0993 24.272 16.0814 24.5194C16.0101 25.5621 16.5806 26.3397 16.9907 27.2234C17.3829 28.0363 17.686 28.9377 17.8108 29.839C17.9535 30.8994 18.7736 31.6593 18.934 32.702C19.148 34.0628 20.0751 35.1409 20.503 36.431C20.9844 37.8449 21.5549 39.2764 22.268 40.6195C22.6959 41.4325 23.106 42.2631 23.3912 43.1291C23.6587 43.9067 24.5679 44.4015 24.4788 45.2675C24.354 46.6637 25.4059 47.512 25.8694 48.6254C26.1725 49.35 26.2438 50.1629 26.4221 50.9405C26.4756 51.2056 26.2617 51.1349 26.119 51.1526C25.3168 51.241 24.5323 51.4707 23.8013 51.8065C23.4804 51.9479 23.4091 52.0009 23.2486 51.6121C22.5889 50.0922 21.858 48.59 21.3053 47.0525C20.9487 46.0805 20.3782 45.1438 20.3247 44.0658C20.3069 43.6593 20.1107 43.3235 19.9146 42.97C18.7736 40.7256 17.7217 38.4457 16.9372 36.0422C16.7589 35.4767 16.7054 34.8051 16.3667 34.3456C15.5644 33.2499 15.297 31.9421 14.7621 30.758C13.4963 27.9657 12.5513 25.0319 11.4281 22.1689C10.7328 20.4016 10.1444 18.5813 9.5026 16.7963C9.16385 15.8243 8.96773 14.8169 8.34373 13.951C8.14761 13.6859 8.27241 13.3324 8.30807 12.9966L8.29024 13.0143Z" fill="#EFE452"/>
<path fill-rule="evenodd" clip-rule="evenodd" d="M27.1888 53.8566C27.0997 54.5989 27.4028 55.2881 27.6346 55.942C27.8663 56.6313 27.7772 57.3912 28.1694 58.0274C28.2764 58.2042 28.2407 58.4339 28.009 58.5753C27.795 58.699 27.5989 58.6637 27.4206 58.5046C27.2423 58.3455 27.0284 58.1865 26.9571 57.9744C26.547 56.8257 25.6199 56.048 24.8711 55.1644C24.5858 54.8109 24.5502 54.5812 24.9602 54.3514C25.5129 54.051 25.7982 53.4148 26.4757 53.2734C27.0997 53.132 27.2067 53.2027 27.1888 53.8566Z" fill="#FCFDFE"/>
</g>
<defs>
<clipPath id="clip0_125_12965">
<rect width="90.9091" height="82.7273" fill="white" transform="translate(5.04541 9.09091)"/>
</clipPath>
</defs>
</svg>
