<svg width="101" height="100" viewBox="0 0 101 100" fill="none" xmlns="http://www.w3.org/2000/svg">
<g clip-path="url(#clip0_125_12953)">
<path fill-rule="evenodd" clip-rule="evenodd" d="M83.7201 72.4673V76.9485C83.7201 80.4814 76.9199 84.3203 76.9199 84.3203L58.9642 95.3475C58.9642 95.3475 54.7771 95.011 55.2814 92.5333C55.801 90.0557 59.9117 83.9074 59.9117 83.9074L79.6094 72.6814L83.7201 72.4673Z" fill="#9CD7ED"/>
<path fill-rule="evenodd" clip-rule="evenodd" d="M24.9172 64.9425L23.5724 59.3448L27.7289 55.3224C27.7289 55.3224 26.048 55.98 27.7289 58.0448C29.4099 60.1095 56.5191 86.4615 56.5191 86.4615L54.8993 94.3075L24.9172 64.9425Z" fill="#9CD7ED"/>
<path fill-rule="evenodd" clip-rule="evenodd" d="M15.3207 21.568C15.3207 21.568 15.2443 21.5374 15.1984 21.5374C15.1526 21.3998 15.1068 21.2621 15.0609 21.1245C15.4582 21.1245 15.4735 20.8339 15.4582 20.5586C15.3971 19.7174 15.6416 18.968 15.932 18.1727C16.1306 17.6221 16.5432 17.0409 16.4515 16.3527C16.4362 16.1844 16.421 15.8326 16.7724 15.7715C17.2614 15.695 17.3531 15.3279 17.5671 14.9303C18.0714 13.9667 18.6673 12.9726 19.8898 12.7279C20.3177 12.6361 20.5469 12.2844 20.8984 12.1314C21.5402 11.8256 22.2279 11.535 22.9308 11.4585C24.5812 11.2903 26.2163 11.0303 27.882 11.0914C28.7072 11.122 29.4713 11.4126 30.2659 11.535C31.1981 11.6726 32.0386 12.1008 32.9402 12.3303C33.093 12.3761 33.2764 12.3914 33.3833 12.4832C34.5141 13.5844 36.1493 13.8903 37.3106 14.9609C37.5399 15.175 37.8149 15.3738 38.197 15.3738C38.3956 15.3738 38.6401 15.4809 38.7929 15.6338C40.0154 16.7809 41.4519 17.6374 42.7661 18.6621C43.0259 18.8609 43.2704 19.0292 43.576 19.1056C43.8511 19.1668 44.1567 19.2892 44.2331 19.5339C44.4165 20.115 44.8902 20.1303 45.3334 20.2527C46.617 20.6198 47.8854 21.0174 49.1996 21.2315C50.1012 21.3845 51.0181 21.2774 51.9044 21.1398C52.2253 21.0939 52.5768 21.0786 52.8824 20.9562C54.0285 20.4974 54.7467 19.7174 54.7773 18.4327C54.7773 18.1727 54.869 17.9433 54.9454 17.7138C55.0982 17.255 54.8384 16.9338 54.3494 16.9491C53.3867 16.995 52.7296 16.475 52.7907 15.5115C52.8671 14.3032 52.7601 13.095 52.9894 11.8714C53.1269 11.1526 52.9894 10.3726 53.188 9.63847C53.3408 9.10317 53.3256 8.46081 54.0743 8.29258C54.3036 8.24669 54.273 8.03257 54.2883 7.84904C54.2883 7.37492 54.3341 6.9008 54.3188 6.44197C54.3036 5.90667 54.6245 5.46314 54.762 4.97372C54.9148 4.45372 55.6178 4.57607 56.1373 4.54548C56.932 4.51489 57.7113 4.62195 58.4448 4.88196C58.6893 4.97372 59.0102 5.05019 58.9797 5.40196C58.9185 6.02903 59.1478 6.65609 58.995 7.26786C58.8116 8.04787 59.3311 8.59846 59.6062 9.24082C59.7437 9.54671 59.9271 9.80671 59.9118 10.1738C59.8354 11.8867 59.6521 13.615 59.7285 15.3432C59.7437 15.7256 59.5451 16.1538 59.484 16.5821C59.4381 16.9338 59.0866 16.888 58.8269 16.9338C57.6196 17.1327 57.6655 17.1327 57.4668 18.3715C57.1765 20.1762 56.2749 21.7056 54.7009 22.6539C54.0132 23.0668 53.0505 23.0974 52.2253 23.1892C51.1403 23.2962 50.0401 23.3727 48.9245 23.1892C46.7698 22.8527 44.6457 22.4398 42.7508 21.2927C42.2924 21.0174 42.0173 20.4515 41.4213 20.4209C41.1616 20.4209 40.9629 20.3139 40.749 20.1915C39.2972 19.2892 38.2122 17.8362 36.623 17.1632C35.2477 16.5821 34.2544 15.4044 32.879 14.8385C32.497 14.6856 32.2067 14.3032 31.8093 14.1503C30.6938 13.7373 29.563 13.3397 28.4321 13.0185C27.8973 12.8656 27.3319 13.1562 26.7665 13.1103C25.1466 12.9726 23.6338 13.3397 22.182 14.0738C21.4638 14.4409 20.7914 14.7315 20.5011 15.5574C20.44 15.7256 20.2413 15.7868 20.0732 15.8632C19.6453 16.0621 19.3244 16.3679 19.3703 16.888C19.4161 17.3468 19.0035 17.5915 18.8507 17.9738C18.5604 18.7844 18.4839 19.6103 18.2394 20.4209C18.1172 20.8186 17.9797 21.308 18.1172 21.6751C18.5604 22.9598 18.377 24.4127 19.1105 25.6363C19.6912 26.5998 20.0274 27.7163 21.0207 28.4198C21.3569 28.6645 21.5402 29.1387 21.7695 29.521C22.2737 30.4081 22.885 31.1881 23.6338 31.9069C24.0617 32.3199 24.6118 32.8399 24.8104 33.5128C24.8563 33.6811 24.9785 33.834 25.1008 33.9564C25.9107 34.6905 26.4456 35.6693 27.2096 36.4187C27.8362 37.0305 28.2335 37.7799 28.7989 38.407C29.2726 38.9423 29.7158 39.5388 30.1589 40.1199C30.7091 40.8388 31.2745 41.4964 32.1455 41.8176C32.2066 41.8329 32.2983 41.8635 32.3136 41.9094C32.6651 42.9035 33.4292 42.7047 34.1932 42.6129C35.3546 42.46 35.9964 43.3929 36.8064 43.9741C36.9439 44.0812 37.0509 44.2341 37.1731 44.3717C37.9677 45.2129 39.0833 45.1518 39.8168 44.2341C40.046 43.9435 40.4433 43.8059 40.6726 43.7447C41.4061 43.5306 42.0632 43.1482 42.6744 42.7505C43.6371 42.1082 44.7374 41.7717 45.7001 41.1294C46.4795 40.6246 47.3352 40.0741 48.4355 40.0893C49.7039 40.1199 50.9722 40.2729 52.2253 40.3799C52.7143 40.4258 53.1116 40.7623 53.4631 41.0529C53.7382 41.2823 53.9979 41.527 54.3341 41.6647C55.5414 42.1388 56.2749 43.1635 57.1765 44.02C57.7877 44.6012 58.3379 45.32 58.9797 45.7788C59.6826 46.2835 60.0341 47.0177 60.6606 47.5377C61.2872 48.0577 61.8067 48.7459 62.418 49.22C63.503 50.0612 64.3129 51.1624 65.3215 52.0801C65.9938 52.6765 66.7579 53.273 67.3386 54.0224C67.6137 54.3895 68.0416 54.6495 68.3472 55.0013C69.4169 56.2095 70.67 57.2495 71.8008 58.4119C72.8093 59.4519 73.8791 60.446 74.8876 61.4707C75.7587 62.3578 76.6144 63.2602 77.5924 64.0402C78.4176 64.6978 79.1359 65.5084 79.8082 66.319C80.5723 67.2367 81.6267 67.8484 82.2685 68.8884C82.4519 69.1943 82.8951 69.2555 83.1396 69.5767C83.5369 70.0967 84.1329 70.4638 84.2246 71.2132C84.2704 71.5496 84.576 71.8708 84.8817 72.0391C85.2943 72.2838 85.5388 72.6508 85.5846 73.0638C85.7527 74.2873 85.9666 75.572 85.5846 76.7497C85.4012 77.285 85.3707 77.7897 85.279 78.3097C85.2484 78.4474 85.2331 78.5697 85.1414 78.6921C84.194 79.9615 83.2771 81.3074 81.9782 82.225C80.8474 83.0356 79.8694 84.0756 78.6468 84.7639C77.7147 85.2839 76.8742 85.911 75.9573 86.4463C75.6517 86.6145 75.4378 86.8592 75.1933 87.0733C75.071 87.1651 74.9946 87.3639 74.8723 87.3945C73.2372 87.9298 72.0147 89.1686 70.5019 89.8722C69.2793 90.4381 68.2555 91.2792 67.1705 92.0287C66.7121 92.3498 66.1925 92.564 65.7341 92.8393C63.6558 94.0628 61.4858 95.1181 59.0408 95.3628C58.995 95.3628 58.9491 95.4393 58.9033 95.4852H57.1459C57.1917 95.2557 57.0389 95.2557 56.8708 95.2099C56.1832 95.0569 55.3733 95.164 55.0065 94.3228C55.0065 94.2922 54.9301 94.2769 54.8843 94.2769C53.8451 94.3228 53.4936 93.3593 52.8518 92.8393C51.9044 92.0745 51.2473 90.9734 50.3304 90.2545C49.3524 89.5051 48.5578 88.5874 47.7784 87.7004C46.8921 86.7063 45.6543 86.0792 44.9972 84.8709C44.9972 84.8557 44.9666 84.8251 44.9513 84.8251C43.6371 84.3662 43.2857 82.7756 41.9867 82.2862C41.9256 82.2709 41.8798 82.2097 41.8492 82.1486C41.3297 81.0933 40.153 80.6039 39.5876 79.6097C39.2208 78.9674 38.4109 78.9215 38.09 78.2638C37.601 77.285 36.6688 76.6579 35.9048 75.985C34.942 75.1438 34.1627 74.1344 33.2152 73.2779C32.3747 72.5132 31.5037 71.7332 30.6785 70.9532C29.9908 70.3108 29.6088 69.3014 28.6155 68.9802C28.2793 68.8731 28.4321 68.4143 28.096 68.2461C27.4236 67.9096 27.0721 67.252 26.5831 66.7014C26.0788 66.1202 25.6051 65.4472 24.9938 64.9578C24.2909 64.3766 24.352 63.566 24.0922 62.8625C23.9853 62.6025 24.1228 62.2354 23.7102 62.0978C23.6185 62.0672 23.6338 61.8837 23.7102 61.7307C23.8783 61.4095 23.863 61.1495 23.5574 60.8284C23.2823 60.5378 23.481 60.0025 23.5115 59.5742C23.5115 59.4978 23.6643 59.3754 23.6491 59.3601C22.8239 58.3048 23.9088 57.3719 23.9241 56.3624C23.9241 55.766 24.1686 54.8177 24.948 54.4048C25.4217 54.1601 25.6968 53.6707 25.9871 53.3036C26.6901 52.4471 27.8362 52.3401 28.4933 51.5142C29.1504 50.673 30.2965 50.4589 30.9383 49.5718C31.0605 49.4036 31.305 49.3271 31.4884 49.2047C32.2219 48.7459 32.2372 48.7459 31.7176 48.0424C31.4884 47.7365 31.2134 47.4612 30.9383 47.2012C30.052 46.3294 29.9144 45.5035 30.5257 44.4788C30.7091 44.1576 30.8619 43.9282 30.3576 43.8211C30.2201 43.7906 30.0978 43.6682 30.0214 43.5153C29.563 42.6894 28.7225 42.2305 28.1571 41.4964C27.4389 40.5482 26.4914 39.7988 25.819 38.8046C25.055 37.6729 24.0464 36.7399 23.2976 35.5928C23.0837 35.2717 22.4877 35.2564 22.4113 34.8434C22.2432 33.9716 21.6014 33.574 21.0207 33.0387C20.44 32.5034 20.1343 31.6622 19.737 30.9434C19.6453 30.7904 19.5689 30.6375 19.4314 30.5151C18.3464 29.4751 17.6129 28.221 16.8947 26.921C16.5891 26.3551 16.2529 25.8351 16.0389 25.1927C15.7333 24.2751 15.7791 23.2657 15.3513 22.3786C15.5958 22.0115 15.5958 21.8127 15.3513 21.568H15.3207ZM49.7803 42.1235C48.8939 42.0164 48.1452 42.5211 47.3047 42.9188C46.0669 43.5153 44.8902 44.2647 43.576 44.6623C43.1023 44.8 43.0412 45.3506 42.5522 45.4423C41.9103 45.5494 41.4519 46.0541 40.8712 46.2835C40.1988 46.5588 39.6487 47.0482 39.0069 47.3694C38.2581 47.7518 37.5093 48.1494 36.7758 48.6083C36.0881 49.0518 35.5838 49.74 34.7739 50C33.9946 50.2447 33.3069 50.7647 32.7109 51.2083C32.008 51.7283 31.2439 52.2789 30.6479 52.9518C30.4493 53.1812 30.2506 53.3954 30.0367 53.5942C29.3337 54.2671 28.1571 54.2977 27.7445 55.3071C27.5153 55.873 26.8123 56.2401 26.7512 56.7448C26.5831 58.0142 26.1094 59.2836 26.5372 60.5837C26.6137 60.8131 26.6595 61.0578 26.7053 61.2872C26.9498 62.6943 27.393 63.9943 28.4627 65.0343C28.8447 65.4013 29.1962 65.8296 29.5477 66.2272C30.1895 66.9614 31.1217 67.4202 31.5496 68.3531C31.5496 68.3837 31.626 68.4143 31.6565 68.4143C32.1914 68.4143 32.2983 68.8731 32.5581 69.1943C32.8179 69.5308 33.1235 69.852 33.4444 70.1273C34.3002 70.8461 34.942 71.7791 35.8283 72.4673C36.409 72.9261 36.7147 73.6144 37.3565 74.0426C37.6621 74.2414 38.1358 74.4556 38.2734 74.8838C38.3956 75.2967 38.686 75.4956 39.0222 75.6944C39.2819 75.8473 39.557 76.0156 39.7709 76.245C40.9018 77.3921 41.9103 78.6615 43.1329 79.7321C43.3315 79.9003 43.5302 80.0838 43.7288 80.2521C44.4623 80.8486 45.0889 81.5674 45.7154 82.2709C46.1127 82.7145 46.6629 82.9592 47.0143 83.418C48.2521 84.9933 49.8872 86.1404 51.2473 87.578C52.2711 88.6639 53.3103 89.7498 54.4105 90.7745C54.7314 91.0651 54.9912 91.4016 55.3427 91.7075C55.9387 92.1969 56.5958 92.6098 57.1612 93.1146C57.421 93.344 57.6349 93.4204 57.9711 93.4204C59.3923 93.4204 60.6148 92.824 61.8526 92.2581C62.1735 92.1051 62.5402 92.0287 62.7847 91.7381C63.1668 91.2945 63.7016 91.0345 64.1906 90.8051C65.4437 90.2239 66.6204 89.5204 67.7665 88.7404C68.7139 88.098 69.7378 87.5627 70.7464 86.9968C71.6174 86.4921 72.4884 85.911 73.3289 85.3298C74.5973 84.4427 75.7739 83.418 77.1951 82.7756C77.3326 82.7145 77.4549 82.6074 77.5771 82.5003C78.3259 81.858 79.0136 81.1239 79.9458 80.7262C80.0375 80.6803 80.1444 80.6038 80.2056 80.5121C80.4959 80.038 81.0613 79.7015 81.0307 79.0438C81.0307 78.8909 81.1072 78.7379 81.2294 78.7379C81.8712 78.7838 81.9171 78.2638 82.0699 77.8815C82.2838 77.3003 82.3755 76.6885 82.6506 76.1073C82.9104 75.6026 82.8645 74.9909 82.7117 74.4556C82.2991 73.0944 81.3975 72.0238 80.6029 70.8767C79.8694 69.8214 78.6927 69.1943 78.0203 68.0931C77.6536 67.4661 76.8436 67.2978 76.4616 66.7167C75.9268 65.8908 75.2391 65.1566 74.5514 64.5908C73.5123 63.7496 72.7482 62.5872 71.5104 61.9754C71.3729 61.899 71.2048 61.7919 71.159 61.6695C70.9909 61.1343 70.5324 60.8284 70.181 60.446C69.7225 59.9413 68.8209 59.8495 68.8056 58.9319C68.8056 58.8248 68.5917 58.7483 68.4694 58.7636C68.2861 58.7942 68.1332 58.7025 68.0721 58.5801C67.2775 57.0966 65.7341 56.3471 64.7255 55.0471C63.992 54.0989 62.9987 53.3801 62.1582 52.5083C61.2872 51.6212 60.4314 50.7342 59.4992 49.893C58.9338 49.3883 58.2309 49.0059 57.8947 48.2718C57.8336 48.1494 57.6502 48.073 57.5279 47.9965C56.7944 47.5529 56.5346 46.5894 55.6789 46.2835C55.6789 46.2835 55.6789 46.2376 55.6789 46.2223C55.5719 45.7635 55.1899 45.5035 54.8079 45.3812C54.4869 45.2894 54.3341 45.0906 54.273 44.8612C54.1049 44.2341 53.6923 43.8823 53.1422 43.607C52.6532 43.347 52.1642 43.0564 51.7363 42.7047C51.1709 42.2305 50.5596 42.0776 49.7803 42.1541V42.1235ZM55.251 12.5444C55.251 13.4009 55.251 13.9973 55.251 14.5785C55.251 15.0068 55.2969 15.4197 55.8164 15.5115C56.5499 15.6491 57.3293 15.3126 57.3598 14.7468C57.4668 13.355 57.7419 11.9632 57.5891 10.5561C57.5279 9.95965 57.0389 9.69965 56.1832 9.68435C55.5719 9.68435 55.358 10.0514 55.2816 10.5561C55.1593 11.3055 55.2663 12.0397 55.251 12.5138V12.5444ZM35.8283 46.4976C35.3088 45.9165 34.8351 45.3506 34.346 44.8C34.2544 44.7082 34.1627 44.5553 34.0251 44.6623C33.6889 44.9529 33.1541 45.2282 33.1083 45.5647C33.0318 46.2223 33.8418 46.4212 34.1321 46.9412C34.2391 47.14 34.4836 47.2777 34.6364 47.1247C35.0031 46.7729 35.5533 46.7882 35.8283 46.4823V46.4976ZM56.2596 7.29845C56.2596 7.60433 56.2137 7.89493 56.5805 7.9714C56.7333 8.00199 56.9931 8.00199 56.9778 7.84904C56.9473 7.22198 57.3293 6.6408 57.1001 6.01373C57.0084 5.75373 56.7792 5.81491 56.5805 5.79961C56.3513 5.79961 56.3513 5.95255 56.3513 6.12079C56.3207 6.51844 56.2901 6.91609 56.2596 7.29845Z" fill="#1E6E67"/>
<path fill-rule="evenodd" clip-rule="evenodd" d="M15.0454 21.1244C15.0913 21.2621 15.1371 21.3997 15.1829 21.5374C15.1371 21.5374 15.0913 21.5374 15.0454 21.5374V21.1397V21.1244Z" fill="#1E6E67"/>
<path fill-rule="evenodd" clip-rule="evenodd" d="M15.3204 21.568C15.5802 21.8127 15.5802 22.0115 15.3204 22.3786C15.3204 22.1033 15.3204 21.8433 15.3204 21.568Z" fill="#1E6E67"/>
<path fill-rule="evenodd" clip-rule="evenodd" d="M55.2814 88.098C55.4647 86.5227 55.9538 85.3603 56.9623 84.3356C57.3749 83.9074 57.8486 83.525 58.246 83.0815C58.3835 82.9285 58.521 82.9132 58.6586 82.8368C59.01 82.6532 59.3768 82.5156 59.5449 82.0873C59.7283 81.6132 60.2937 81.6438 60.6451 81.3379C61.0577 80.9709 61.4551 80.5426 62.1122 80.4509C62.3872 80.4203 62.8609 80.2214 62.9221 79.7626C62.9526 79.625 63.029 79.5791 63.136 79.5485C64.603 79.0285 65.6422 77.8202 67.0786 77.2085C67.7968 76.9026 68.5303 76.3826 69.2027 75.8779C69.9362 75.3426 70.8378 75.0673 71.6325 74.6237C73.1912 73.752 74.9027 73.1402 76.3239 72.0084C76.9657 71.5037 77.7756 71.4578 78.5091 71.2896C78.9828 71.1825 79.4718 71.6108 79.7622 72.0849C79.915 72.3296 79.7622 72.5131 79.6094 72.6814C79.2885 73.0331 78.8911 73.2931 78.4785 73.5226C76.9504 74.3943 75.4834 75.4038 73.8177 76.0002C73.0078 76.2908 72.5494 77.0708 71.7089 77.2697C71.1435 77.4073 70.5169 77.392 70.2113 78.172C70.0738 78.5085 69.432 78.6461 69.0346 78.8908C67.7052 79.7473 66.2534 80.4203 64.9545 81.3685C63.839 82.1944 62.6776 83.0509 61.4245 83.7238C60.6299 84.1521 60.0033 84.9474 59.3921 85.6662C58.6127 86.5839 58.0167 87.6392 57.4513 88.7098C57.3444 88.8933 57.1915 89.0768 56.9776 88.9698C56.6567 88.8168 56.3205 88.8321 55.9996 88.7556C55.587 88.6639 55.2661 88.4039 55.3119 88.0827L55.2814 88.098Z" fill="#1E6E67"/>
<path fill-rule="evenodd" clip-rule="evenodd" d="M73.9705 68.7355C73.9705 69.4696 73.2523 70.4025 72.4424 70.6931C72.3813 70.7084 72.3049 70.7237 72.2437 70.739C71.7547 70.8461 71.2657 71.3814 70.792 71.1367C69.8446 70.6472 68.7901 70.2802 68.2094 69.2555C67.9955 68.8578 67.858 68.4907 67.9955 68.0319C68.2706 67.0684 68.4998 66.0284 69.6612 65.8295C70.3488 65.7072 71.0518 65.4472 71.8159 65.7225C73.1912 66.2272 73.94 67.1907 73.9552 68.7355H73.9705ZM70.5017 69.1637C71.0976 69.1637 71.663 68.6437 71.6478 68.1543C71.6325 67.6954 71.3421 67.466 70.9143 67.4354C70.5017 67.3896 69.7987 68.0013 69.8293 68.3837C69.8598 68.8272 70.0891 69.1484 70.5017 69.179V69.1637Z" fill="#1E6E67"/>
<path fill-rule="evenodd" clip-rule="evenodd" d="M61.1036 56.6683C61.883 56.6683 62.6012 57.4024 62.5859 58.1977C62.5859 58.7636 61.883 59.3907 61.2564 59.3907C60.5382 59.3907 59.8658 58.6718 59.8964 57.9224C59.927 57.2036 60.4465 56.6683 61.1036 56.6836V56.6683Z" fill="#1E6E67"/>
<path fill-rule="evenodd" clip-rule="evenodd" d="M65.4129 63.4589C65.2448 63.4284 65.1531 63.3825 65.0615 63.3978C64.4808 63.5048 64.1446 63.3213 64.1751 62.6789C64.1904 62.0978 64.6336 61.6083 65.1531 61.593C66.0242 61.5777 66.4062 61.9142 66.7118 62.7095C66.9564 63.3366 66.4062 63.2754 66.1923 63.3978C65.9631 63.5201 65.6269 63.4436 65.4129 63.4589Z" fill="#1E6E67"/>
</g>
<defs>
<clipPath id="clip0_125_12953">
<rect width="70.7071" height="90.9091" fill="white" transform="translate(15.0454 4.54544)"/>
</clipPath>
</defs>
</svg>
