<svg width="100" height="100" viewBox="0 0 100 100" fill="none" xmlns="http://www.w3.org/2000/svg">
<g clip-path="url(#clip0_125_12984)">
<path fill-rule="evenodd" clip-rule="evenodd" d="M48.3551 73.0449C48.4974 71.9051 48.4262 70.4448 48.6397 68.9488C48.871 67.3816 49.1379 65.8144 49.7784 64.4075C50.3833 63.054 50.3477 61.4156 51.6109 60.3649C51.6465 60.3293 51.7177 60.2758 51.7177 60.2402C51.4152 58.8155 52.8385 58.1387 53.1232 56.9455C53.3723 55.966 53.995 55.1112 54.6889 54.3632C55.2938 53.7221 55.4539 52.8851 55.8809 52.1727C57.4999 49.4123 59.7595 47.2574 62.1435 45.2094C63.8159 43.7846 65.5061 42.3955 67.4632 41.327C68.762 40.6324 70.0963 40.4187 71.5375 40.6858C71.9289 40.7571 72.1602 40.9352 72.2669 41.2735C72.4626 41.8791 72.605 42.4668 72.4804 43.1435C72.089 45.1737 70.6123 46.456 69.2957 47.8273C68.3706 48.789 67.0718 49.3589 66.3067 50.4986C65.435 51.7809 64.0472 52.6357 63.5135 54.1851C63.3534 54.6303 62.9975 55.0756 62.6417 55.3961C61.7521 56.1797 61.4141 57.2839 60.7558 58.1744C60.3288 58.7442 60.2576 59.2607 60.1331 59.884C59.973 60.6142 59.3325 61.1841 59.0656 61.9321C58.3717 63.9089 57.3042 65.7788 56.8061 67.7913C56.3791 69.4831 55.7919 71.175 55.8097 72.9915C55.8097 73.6861 55.4361 74.3094 55.3472 75.0217C55.2404 75.9656 55.2226 76.9273 55.0625 77.8712C54.9024 78.9041 54.6711 79.9192 54.5465 80.9522C54.4932 81.3618 54.0128 81.8248 53.3901 81.9138C51.7355 82.181 50.4723 81.5933 49.5293 80.0617C48.6397 78.6192 48.3729 77.0163 48.3373 75.3779C48.3373 74.7012 48.3373 74.0244 48.3373 73.0271L48.3551 73.0449Z" fill="#1E6E67"/>
<path fill-rule="evenodd" clip-rule="evenodd" d="M70.043 86.9538C69.8117 86.1168 70.3099 85.4578 70.7725 84.8523C71.1817 84.3359 71.5019 83.766 71.8222 83.2139C72.1069 82.7509 72.2492 81.9138 73.0854 81.8604C73.2455 81.8604 73.37 81.7357 73.4234 81.5398C73.7259 80.2576 74.5087 79.2425 75.3449 78.263C75.4161 78.1739 75.4872 78.0849 75.5228 77.978C76.3768 75.9656 76.8572 73.8107 77.5511 71.7449C78.5118 68.8242 78.583 65.8323 78.8143 62.8403C78.8854 61.9321 79.4903 60.9704 78.8143 60.0443C78.8143 60.0443 78.8143 59.9731 78.8143 59.9553C79.7216 58.8511 79.0633 57.551 79.2235 56.3578C79.3658 55.3071 79.2768 54.1673 78.9388 53.1166C78.7787 52.6357 78.7431 52.1905 78.9032 51.7275C79.1701 50.9083 79.0811 50.1068 78.9388 49.2698C78.7787 48.415 79.01 47.5423 79.1523 46.6875C79.3302 45.5299 80.113 44.96 80.9848 44.5148C82.1057 43.9627 83.3511 43.838 84.2941 45.4231C85.1658 46.9012 85.3438 48.5396 85.6106 50.1603C85.8953 51.959 85.5217 53.7577 85.753 55.592C85.8953 56.714 85.7174 57.9428 85.8241 59.1004C85.8953 59.7772 85.5751 60.4005 85.8241 61.0594C86.0554 61.6827 85.6996 62.3239 85.664 62.965C85.5928 64.2472 85.7708 65.5295 85.4327 66.8474C85.1836 67.7734 85.1481 68.8242 85.1125 69.8215C85.0947 70.8188 84.6677 71.7271 84.3296 72.6175C84.045 73.3655 84.0094 74.1669 83.7069 74.8971C83.2444 75.9834 83.1554 77.3013 82.5327 78.2452C81.4652 79.848 80.8781 81.7536 79.5081 83.1783C79.1701 83.5345 79.3658 84.0331 79.1523 84.4427C78.2449 86.188 76.6793 87.2209 75.0958 88.2183C74.1529 88.8238 73.1388 89.1799 71.9823 89.0375C71.3774 88.9662 70.8259 88.8059 70.3455 88.432C69.8295 88.0402 69.9719 87.4881 70.043 86.936V86.9538Z" fill="#1E6E67"/>
<path fill-rule="evenodd" clip-rule="evenodd" d="M90.272 20.6328C89.3469 21.5233 88.8843 22.5562 88.5107 23.5535C88.2438 24.2659 88.0125 24.9961 87.71 25.7084C87.0695 27.2578 86.3045 28.736 86.002 30.4456C85.8953 31.0868 85.5217 31.8704 85.1303 32.4937C84.7922 33.028 83.4223 33.0814 82.675 32.6362C82.0523 32.28 81.821 31.5142 82.1413 30.784C82.3014 30.4278 82.5149 30.0895 82.7818 29.8045C83.4223 29.1278 83.9738 28.4688 84.2585 27.4893C84.5431 26.4564 85.3438 25.5303 85.7174 24.533C86.3045 23.0014 87.1763 21.6123 87.6922 20.0629C87.8879 19.4752 87.9591 18.7985 88.4395 18.2998C88.5462 18.193 88.6174 18.0149 88.4395 17.8012C87.7278 18.1752 87.1941 18.7985 86.7137 19.3862C85.2548 21.1493 83.6714 22.8234 82.1057 24.4796C81.3051 25.3166 80.8247 26.3495 80.0419 27.1866C79.8818 27.3647 79.7928 27.614 79.7572 27.8811C79.6505 28.4866 79.3658 28.9675 78.9744 29.4661C78.0848 30.6059 77.8001 31.995 78.1382 33.3663C78.583 35.1828 78.7431 37.0528 79.3124 38.8515C79.7572 40.2406 79.8818 41.7366 80.1664 43.1791C80.2376 43.5175 80.1664 43.8737 79.7928 43.8737C79.1879 43.8737 78.5296 43.8737 78.0492 43.4463C77.3376 42.8051 76.1811 42.7339 75.4517 43.3394C75.1492 43.5887 73.6191 43.4463 73.4768 43.1257C73.2811 42.6805 73.37 42.3243 73.8504 42.0215C74.7934 41.4516 75.932 41.3804 76.8928 40.8639C77.2308 40.6858 77.3376 40.579 77.1596 40.2584C77.0885 40.116 76.9817 39.9557 76.9461 39.8132C76.5903 38.6022 76.1989 38.4953 75.1848 39.3858C74.4197 40.0625 73.6903 40.1694 72.8007 39.6885C72.5694 39.5639 72.3559 39.4214 72.3737 39.1187C72.3915 38.6734 72.694 38.3707 73.0498 38.246C74.2062 37.8364 75.0602 36.9459 76.1633 36.4473C76.448 36.3226 76.2879 36.0733 76.3057 35.8596C76.3946 34.7554 75.594 33.865 75.7007 32.743C75.7719 31.995 75.7185 31.2292 75.7363 30.4634C75.7363 29.7689 75.9854 29.199 76.3234 28.5757C76.8394 27.5784 77.2842 26.5633 78.0492 25.744C78.6186 25.1385 79.2235 24.5686 79.6683 23.8385C80.7357 22.1288 82.3726 20.8644 83.529 19.2437C83.9204 18.6916 84.6143 18.6204 85.0591 18.104C85.6996 17.3738 86.1444 16.5011 86.9984 15.9312C87.8879 15.3435 89.3646 15.0764 90.3076 15.5573C92.2469 16.5368 92.7628 17.6409 92.6561 19.8849C92.6027 20.9178 92.5493 21.9863 92.3536 22.9658C91.9088 25.2454 91.8021 27.5962 91.0548 29.8223C90.7702 30.6772 90.6634 31.621 90.5211 32.5115C90.0763 35.3787 88.5284 37.5515 86.2689 39.2789C85.237 40.0625 84.5787 41.042 84.9346 42.4489C85.0591 42.8942 84.8456 43.2682 84.383 43.3038C83.2088 43.3928 82.4971 43.3216 82.3726 42.0215C82.1591 39.7242 81.5719 37.4802 81.6965 35.1472C81.7321 34.5595 81.572 33.7047 82.337 33.6156C83.0842 33.5266 83.191 34.3814 83.4401 34.9513C83.8849 35.9843 83.8315 37.124 84.0272 38.2104C84.3119 38.246 84.4898 38.1035 84.6321 37.9254C85.3971 36.9638 86.3935 36.2514 87.0695 35.2185C87.3364 34.8267 87.5321 34.3458 87.6389 33.954C88.1548 32.0306 88.4751 30.0538 88.9554 28.1126C89.3291 26.6167 89.507 25.0673 89.8806 23.5535C90.1119 22.6631 90.3254 21.6836 90.2186 20.5438L90.272 20.6328Z" fill="#1E6E67"/>
<path fill-rule="evenodd" clip-rule="evenodd" d="M45.1526 54.3098L57.1797 66.6515L57.8913 64.8171L47.2342 50.7302L45.1526 54.3098Z" fill="white"/>
<path fill-rule="evenodd" clip-rule="evenodd" d="M8.46647 23.5C8.67997 23.0547 8.48426 22.6273 8.3953 22.1999C8.16401 21.2026 8.09285 20.1697 8.30634 19.2258C8.62659 17.7654 9.07138 16.2695 10.2634 15.2188C11.0462 14.542 11.6689 13.705 12.5229 13.0817C13.1812 12.583 13.8395 12.1556 14.6046 11.9063C15.6543 11.5679 16.7395 11.372 17.7892 11.0692C19.2659 10.624 20.5113 11.2473 21.6678 11.9953C22.4684 12.5118 23.2335 13.0995 23.7672 14.0077C24.0875 14.5598 24.8881 14.7735 25.3684 15.29C26.8096 16.8572 28.0728 18.5312 29.3004 20.2587C29.3893 20.3656 29.4605 20.5615 29.5672 20.5793C30.3501 20.6505 30.5814 21.3451 30.955 21.8615C31.9691 23.3041 33.3746 24.426 34.4955 25.7795C35.9722 27.5604 37.4667 29.3235 38.9256 31.1223C40.3133 32.8319 41.363 34.6663 42.1637 36.6965C42.5195 37.5691 42.7152 38.4774 42.7686 39.4035C42.8575 40.9885 43.2312 42.431 44.3164 43.6598C44.7256 44.1229 45.0103 44.6749 45.3661 45.1736C45.8821 45.9394 45.5263 47.5778 44.7257 48.0587C44.6723 48.0765 44.6189 48.1299 44.5833 48.1299C43.587 47.8806 42.7686 48.4327 41.879 48.6464C41.1318 48.8245 40.9716 49.1985 40.7048 49.6971C40.6692 49.7683 40.6514 49.8574 40.6336 49.9464C40.2778 51.2821 39.7974 51.5314 38.4096 51.389C37.1464 51.2643 36.2035 50.6232 35.4207 49.7149C34.9225 49.1272 34.4065 48.9491 33.5881 49.1272C32.6452 49.3409 31.72 49.5012 30.7059 48.7354C30.0298 48.219 29.2114 47.7203 28.4642 47.2216C27.628 46.6696 27.0231 45.7435 26.258 45.0668C25.5819 44.4612 24.9414 43.7845 24.4789 43.0721C23.7672 41.9858 22.6819 41.2912 21.9703 40.2227C21.3476 39.2966 20.7426 38.2993 19.7819 37.6226C19.2837 37.2664 19.0169 36.6787 18.661 36.2513C17.7359 35.0581 16.6328 34.0073 15.8678 32.6538C15.4941 31.9949 14.6579 31.5319 14.1598 30.8551C13.6794 30.1962 13.0389 29.6619 12.5407 28.9852C11.7757 28.0057 10.815 27.1864 10.299 26.011C10.0677 25.5124 9.40942 25.2809 9.26709 24.6576C9.21371 24.4795 8.98242 24.2123 8.66218 24.3548L8.48426 23.5178L8.46647 23.5ZM17.9849 17.338C17.7359 17.4449 17.7714 17.5874 17.896 17.8011C18.5543 18.9408 19.0702 20.2053 19.8709 21.2382C21.3831 23.1794 23.0555 25.0137 24.6924 26.8481C25.5819 27.8454 26.6316 28.6824 27.4323 29.751C28.4998 31.1579 29.7452 32.4223 30.955 33.7224C31.2752 34.0786 31.6844 34.3279 32.1292 34.5416C32.574 34.7553 33.09 34.8443 33.3568 34.4169C33.5881 34.0607 33.2501 33.6511 32.9654 33.3484C28.7488 28.9317 24.8881 24.1945 20.9028 19.5642C20.2623 18.8162 19.5328 18.1394 18.6966 17.6052C18.4831 17.4627 18.2696 17.3202 18.0027 17.3558L17.9849 17.338ZM27.9482 37.9966C27.8059 37.4801 27.5212 37.1061 27.201 36.7321C23.1267 31.888 18.8212 27.2577 14.6046 22.5383C14.5156 22.4314 14.4088 22.3424 14.2843 22.2711C14.0886 22.1465 13.8751 21.9684 13.6794 22.1287C13.4659 22.3068 13.626 22.5383 13.715 22.7342C14.2309 23.9986 15.0849 25.0494 15.9745 26.0289C17.7181 27.9879 19.1414 30.1962 20.8138 32.2086C21.7034 33.2771 22.5396 34.3991 23.4825 35.4142C24.5322 36.5362 25.7065 37.5691 26.8096 38.6199C27.0231 38.8158 27.1832 39.172 27.5568 38.9582C27.966 38.7445 28.0194 38.3527 27.9482 37.9609V37.9966ZM35.8832 39.1898C35.6875 38.6555 35.3851 38.6199 34.9225 38.9226C33.2145 40.0446 32.0225 41.6118 31.1329 43.4105C30.955 43.7489 30.8838 44.1585 30.8127 44.5325C30.7415 44.9421 30.9906 45.2092 31.3642 45.3695C31.7912 45.5654 31.9335 45.2448 32.1648 44.9955C32.7164 44.4256 32.8587 43.6242 33.2857 42.9831C33.9618 41.9502 34.7446 41.0063 35.5452 40.0802C35.7587 39.8309 35.9722 39.5459 35.8832 39.1719V39.1898ZM40.0465 38.8514C40.2778 38.7801 40.4557 38.7623 40.598 38.6911C41.0606 38.4952 41.3275 38.1568 41.1673 37.6404C40.9894 37.0883 40.598 37.1417 40.1532 37.302C39.8686 37.391 39.5483 37.391 39.2458 37.391C38.8366 37.391 38.4096 37.4089 38.3919 37.9609C38.3919 38.4774 38.6765 38.8158 39.1925 38.8692C39.4949 38.9048 39.7974 38.8692 40.0465 38.8514Z" fill="#E06765"/>
<path fill-rule="evenodd" clip-rule="evenodd" d="M70.6302 81.6111C70.7903 80.8453 70.4522 80.3288 70.043 79.8124C69.7584 79.4384 68.9755 79.385 69.3314 78.5835C69.367 78.5123 68.9755 78.1739 68.7443 78.0493C68.086 77.6753 67.7479 77.0698 67.3743 76.4287C66.805 75.467 66.2712 74.4518 65.1859 73.9354C64.4921 73.6148 64.4387 72.7422 63.8694 72.2435C63.5491 71.9586 63.1399 71.7627 62.8197 71.5312C62.0368 70.9613 62.1258 69.7503 61.0227 69.4475C60.5601 69.3228 60.4534 68.6105 60.1331 68.1831C59.5638 67.3995 58.5675 66.9364 58.3896 65.8679C58.3718 65.761 58.1227 65.672 57.9804 65.6185C57.411 65.4226 57.162 64.9418 56.8417 64.4788C56.3435 63.7486 56.0233 62.8225 55.0981 62.4485C54.9202 62.3773 54.7779 62.217 54.7423 62.0033C54.7245 61.7896 54.6533 61.6115 54.4754 61.5047C53.2656 60.8457 52.6429 59.6703 51.9312 58.5662C51.5398 57.9785 50.8815 57.6935 50.4545 57.1058C50.0453 56.5359 49.5116 56.0729 49.1202 55.4496C48.6576 54.7194 47.8748 54.1851 47.1987 53.6152C46.6649 53.1344 46.06 52.7248 45.8643 51.9768C45.7398 51.5138 45.2772 51.3179 44.9569 51.0151C44.6189 50.6946 44.3876 50.1959 44.7257 49.9288C45.0993 49.6438 45.5441 49.0739 46.2024 49.537C46.8251 49.9644 47.43 50.4452 47.9459 50.9973C51.522 54.8619 54.9558 58.8511 58.3362 62.8938C61.6454 66.8474 64.9902 70.7654 68.3706 74.6477C69.0823 75.467 69.8295 76.2684 70.5412 77.0876C71.7332 78.4411 72.5872 80.0439 72.694 81.9317C72.7474 82.7865 72.2848 83.4098 71.4842 83.3742C69.4381 83.2851 67.6056 82.6084 66.1823 81.0768C64.9013 79.7055 63.8694 78.1205 62.7485 76.6246C62.5706 76.3752 62.3215 76.2506 62.0546 76.1615C61.6454 76.019 61.343 75.7341 61.2362 75.3601C61.0761 74.8258 60.6847 74.5053 60.2933 74.2203C59.5638 73.6861 58.7632 73.2408 58.6209 72.2079C58.6209 72.1189 58.4785 71.9942 58.3896 71.9764C57.7135 71.7805 57.411 71.264 57.0908 70.6941C56.5392 69.6968 55.3472 69.1804 55.0448 67.9693C55.0092 67.8625 54.7779 67.7734 54.6356 67.72C54.1018 67.5241 53.8349 67.1145 53.5325 66.6515C53.0165 65.9035 52.7141 64.9418 51.7533 64.55C51.5754 64.4788 51.4331 64.3185 51.3975 64.1048C51.3797 63.9089 51.3085 63.713 51.1306 63.6061C49.9208 62.9472 49.2981 61.7718 48.5864 60.6854C48.195 60.0977 47.5367 59.8128 47.1097 59.2251C46.7005 58.6552 46.1846 58.1744 45.7754 57.5689C45.2772 56.8209 44.4588 56.3044 43.7827 55.6811C43.3023 55.2359 42.7152 54.8797 42.5551 54.1495C42.4483 53.7043 42.0036 53.455 41.6655 53.17C41.2741 52.8316 41.0072 52.3508 41.3986 51.9412C41.7545 51.585 42.2171 51.1398 42.8753 51.6384C43.4803 52.1015 44.0852 52.5467 44.6011 53.1166C48.195 56.999 51.6466 61.0238 55.0448 65.0843C58.5675 69.305 62.1436 73.4724 65.7553 77.6041C66.5381 78.4945 67.4099 79.3315 68.0504 80.3645C68.6197 81.2727 69.6338 81.433 70.648 81.6823L70.6302 81.6111Z" fill="#1E6E67"/>
</g>
<defs>
<clipPath id="clip0_125_12984">
<rect width="84.5455" height="78.1818" fill="white" transform="translate(8.18176 10.9091)"/>
</clipPath>
</defs>
</svg>
