<svg width="224" height="298" viewBox="0 0 224 298" fill="none" xmlns="http://www.w3.org/2000/svg">
<path d="M52.7333 233.34L36.4 225.843L29.4 233.34L47.1333 242.711L52.7333 250.208L5.13335 285.349L14.9333 294.252L60.2 261.921L52.7333 233.34Z" fill="white"/>
<path d="M57.4 68.4088L74.6667 38.4214C48.5334 25.3019 32.3556 43.8879 27.5334 54.8208L57.4 68.4088Z" fill="white"/>
<path d="M210.467 121.355C183.96 46.012 143.111 24.9895 126 23.8963C122.733 15.9308 112.093 0.656 95.6667 3.2799C79.24 5.9038 82.6 22.4906 86.3333 30.456C63.6222 97.6153 27.72 238.494 65.8 264.733C103.88 290.972 167.222 269.418 194.133 255.362C210.622 242.086 236.973 196.699 210.467 121.355Z" fill="white"/>
<path fill-rule="evenodd" clip-rule="evenodd" d="M46.3856 60.0846C46.3856 60.0846 35.7002 53.7052 28.117 56.4251C20.5337 59.145 13.4922 98.5585 12.9013 115.422C12.3104 132.285 12.9013 209.925 12.9013 209.925L29.4957 233.168L34.2229 225.354C34.2229 225.354 23.5375 162.797 25.7041 140.197C27.8707 117.598 32.401 90.6956 34.863 83.9701C37.2759 77.2446 46.4348 60.0846 46.4348 60.0846H46.3856Z" fill="#9CD7ED"/>
<path fill-rule="evenodd" clip-rule="evenodd" d="M110.35 262.246C110.35 262.246 104.392 264.076 102.816 259.18C101.241 254.284 102.423 225.849 102.423 213.535C102.423 201.172 108.282 193.112 111.237 191.084C114.191 189.056 91.7371 191.529 90.1614 201.766C88.5857 211.953 87.8963 244.542 87.8963 244.542C87.8963 244.542 86.7637 252.405 91.097 259.625C95.4303 266.845 104.441 265.312 104.441 265.312L112.074 265.46L110.4 262.246H110.35Z" fill="#9CD7ED"/>
<path fill-rule="evenodd" clip-rule="evenodd" d="M100.354 43.6169C100.354 43.6169 81.6919 61.222 74.995 78.382C68.2981 95.5419 65.2452 145.044 65.2452 145.044C65.2452 145.044 61.1581 224.712 69.283 246.372C77.4078 268.032 76.9647 271.939 76.9647 271.939C76.9647 271.939 64.1126 269.268 60.3703 258.29C56.6771 247.262 51.2113 226.442 51.2113 226.442L41.4615 170.759L46.3364 124.818L60.3703 60.1835L84.7448 33.2814C84.7448 33.2814 84.3509 32.8858 91.4909 31.5506C98.631 30.2154 117.983 38.4244 117.983 38.4244L100.207 43.7159L100.354 43.6169Z" fill="#9CD7ED"/>
<path fill-rule="evenodd" clip-rule="evenodd" d="M3.05176e-05 289.494C3.15149 290.829 5.66283 292.857 7.97717 295.33C9.01125 296.417 10.0946 298.049 11.7688 298.049C14.9202 298.049 18.1702 298.198 20.8785 295.972C21.1739 295.725 21.6663 295.428 21.7156 295.132C22.011 292.61 24.3746 291.868 25.7041 290.236C25.7534 290.186 26.0488 290.236 26.0488 290.187C26.2458 286.379 30.0374 286.032 32.1055 284.005C35.2078 280.939 39.2948 279.356 43.3819 278.071C45.4993 277.378 47.6659 276.933 49.7833 276.093C53.0825 274.757 56.1847 273.373 58.0559 270.208C58.9915 268.675 60.9119 267.933 61.4536 266.054C62.4384 266.449 62.9308 267.389 63.6694 268.032C66.5254 270.356 69.6277 272.285 73.2223 273.323C75.2904 273.917 76.7677 275.549 78.8358 276.29C82.2335 277.576 85.6804 278.219 89.1766 278.862C91.4417 279.258 93.6575 279.752 96.0211 279.801C101.093 279.95 106.165 280.395 111.237 280.593C118.377 280.889 125.221 278.714 132.361 278.961C135.513 279.109 138.566 277.972 141.619 276.933C145.361 275.697 149.399 275.351 153.24 274.312C158.115 272.977 163.039 271.988 167.52 269.565C168.652 268.922 170.031 268.774 171.312 268.329C177.861 266.252 183.425 262.098 189.728 259.427C190.762 258.982 191.599 258.092 192.584 257.597C196.376 255.471 200.266 253.542 203.959 251.267C205.485 250.328 206.618 248.646 207.849 247.262C210.902 243.85 212.281 239.448 214.201 235.443C214.841 234.058 215.334 232.179 215.383 230.448C215.481 226.887 216.614 223.574 217.943 220.409C218.485 219.025 218.78 217.739 218.78 216.453C218.78 214.821 220.356 214.129 220.356 212.398C220.356 209.629 220.947 206.859 221.587 204.139C222.769 198.749 222.966 193.309 223.508 187.87C223.852 184.26 224.295 180.6 224 176.99C223.754 174.171 223.705 171.303 223.655 168.534C223.606 164.182 222.227 159.978 222.72 155.676C222.818 154.786 222.08 154.242 222.129 153.451C222.227 150.929 221.587 148.456 221.144 145.983C220.996 145.044 221.046 144.055 220.307 143.214C219.716 142.522 219.962 141.434 219.716 140.544C218.928 137.626 218.633 134.51 217.697 131.692C217.106 129.961 216.565 128.23 216.466 126.45C216.368 123.977 214.447 122.246 214.102 119.823C214.004 118.982 213.659 118.092 213.758 117.301C214.004 115.273 212.527 113.938 211.788 112.455C210.557 109.933 210.508 107.163 209.425 104.592C208.44 102.267 207.997 99.5971 206.716 97.3717C204.944 94.4046 203.417 91.2891 202.088 88.223C200.807 85.2064 198.197 83.08 197.36 80.0139C196.769 77.9369 195.44 76.2555 194.258 74.9203C193.027 73.5357 193.323 71.2608 191.304 70.5685C190.614 70.3213 190.811 69.3817 190.565 68.7882C189.58 66.464 186.872 65.2277 186.675 62.31C186.675 61.766 185.493 61.3704 184.853 60.7769C183.179 59.1945 183.08 56.524 180.815 55.2877C179.584 54.5954 179.289 52.8151 178.353 51.6283C177.368 50.3919 175.743 49.5513 175.251 48.4138C173.971 45.5456 170.031 45.6445 169.293 42.2323C169.096 41.3422 167.372 39.9575 165.698 39.6113C164.073 39.2652 163.137 37.6827 161.906 36.6936C159.444 34.7155 156.785 33.1331 154.077 31.6C153.338 31.155 152.501 30.8583 151.91 30.2648C150.778 29.0285 149.153 28.7318 147.823 27.99C145.115 26.457 142.407 24.9734 139.403 24.2316C135.956 23.3415 132.805 21.6601 129.308 21.0667C128.816 20.9678 128.619 20.77 128.324 20.2754C127.093 18.0995 125.911 15.8742 124.335 13.9455C120.987 9.79155 117.54 5.5881 112.566 3.26383C109.563 1.87917 106.214 1.58245 103.063 0.543954C100.207 -0.395641 97.3999 0.148335 94.7409 0.692311C92.1311 1.23629 89.5705 2.07698 87.3054 3.80781C85.5327 5.14302 84.0554 6.7255 82.6767 8.35743C78.8851 12.8081 78.2449 18.2479 79.3282 23.6877C79.7222 25.5669 79.5745 28.3362 82.0858 29.523C82.6767 29.8198 82.7259 30.7099 82.0858 31.0561C79.5745 32.5891 77.3586 34.6166 73.8132 33.3309C69.8246 31.8968 65.6391 30.9077 61.4536 30.2154C58.0066 29.6714 54.215 29.0285 50.9158 29.8692C47.075 30.8088 42.8895 31.6495 39.6888 34.2705C36.7835 36.6442 33.4843 38.6223 30.973 41.4905C30.7268 41.7872 30.4314 41.985 30.2344 42.3807C28.8556 45.5951 26.8367 48.3644 24.3254 50.7876C23.9315 51.1832 23.5868 51.7766 23.3405 52.3206C20.3368 59.4417 17.53 66.6123 15.5111 74.1291C14.5755 77.5413 14.1324 81.1513 12.7044 84.4646C12.7044 84.5141 12.6059 84.613 12.6059 84.6624C12.9506 89.4593 10.5377 93.9595 11.2271 98.9047C11.5226 101.081 9.94684 103.355 9.99608 105.729C9.99608 106.669 9.89758 107.559 9.84834 108.498C10.2423 112.603 9.15898 116.559 8.86353 120.614C9.45442 122.543 9.79912 124.422 9.35594 126.499C9.01125 127.983 9.15897 129.516 9.15897 131.049C9.15897 136.538 9.35593 142.027 8.71579 147.516C8.51883 149.049 7.82945 150.681 8.66656 152.264C8.76505 152.214 8.81429 152.115 8.91277 152.066V152.264C8.91277 152.264 8.71581 152.264 8.66656 152.264C8.22339 155.132 9.01125 158 8.71579 160.918C8.51883 162.748 8.37111 164.577 8.02641 166.407C7.28778 170.71 8.71579 175.111 7.33704 179.364C7.33704 179.463 7.38628 179.611 7.43552 179.71C8.27263 181.243 7.92793 182.974 8.12489 184.606C8.71579 190.54 8.17413 196.573 9.70062 202.458C10.8824 207.008 10.6855 211.903 12.7044 216.354C14.5755 220.558 14.9695 225.256 18.4164 229.014C20.8292 231.635 23.1436 234.058 26.1966 235.838C26.5413 236.036 26.7875 236.185 26.9844 236.58C27.7231 237.965 28.9541 239.053 30.3328 239.498C35.5032 241.08 40.3781 243.306 45.1053 245.828C46.0901 246.372 46.3856 246.767 46.0902 247.954C45.1546 251.861 42.6925 254.828 40.2796 257.795C39.4918 258.735 38.8516 259.477 37.3744 259.328C36.1434 259.18 34.7154 259.328 33.5828 260.367C33.0904 260.812 32.4502 261.059 31.7116 260.96C29.0033 260.565 26.6397 261.85 24.4239 263.037C21.0262 264.867 17.5793 266.796 15.4619 270.257C15.3142 270.554 14.7725 270.554 14.4278 270.801C12.1627 272.433 8.96199 273.076 8.27261 276.439C8.27261 276.637 7.92793 276.785 7.68172 276.933C5.76131 278.17 4.53026 280.049 3.34845 281.928C2.16666 283.807 2.06819 286.28 0.0492859 287.664C0.0492859 288.357 3.05176e-05 289 -0.0492096 289.692L3.05176e-05 289.494ZM49.2909 240.586C48.4045 239.498 47.2227 238.805 45.9424 238.41C43.5296 237.619 41.4122 236.234 38.6547 235.937C34.5676 235.492 33.4843 232.377 35.7002 228.866C35.9464 228.47 36.5373 228.124 36.6358 228.371C37.4236 230.349 39.738 230.151 40.969 231.388C42.9879 233.465 45.45 233.959 48.1583 233.712C48.7985 233.662 48.8477 233.86 48.8477 234.305C48.9462 236.432 49.4386 238.509 49.2416 240.685C49.3401 240.685 49.4386 240.685 49.4878 240.685C49.4878 240.734 49.4878 240.833 49.4878 240.932C49.4386 240.833 49.3401 240.784 49.2909 240.685V240.586ZM45.2531 55.3866C41.2645 52.8151 36.8327 52.5184 32.3518 52.8151C32.7457 51.6777 33.5828 50.7876 34.6661 50.2436C35.3063 49.8974 35.7494 49.304 35.7002 48.7106C35.6017 47.5732 36.3403 47.0292 37.079 46.7325C40.2304 45.6445 41.363 42.2818 44.0713 40.6004C45.1053 39.9575 45.8932 38.5728 47.1243 37.8805C49.3401 36.5947 51.6052 35.309 54.215 35.3584C59.3854 35.4573 64.3588 36.4464 69.1845 38.375C70.0708 38.7212 70.2678 39.0179 69.7261 39.9575C69.1352 40.9465 68.3966 41.6389 67.6087 42.3807C65.9345 43.9631 64.9005 46.139 62.6846 47.1775C61.8475 47.5732 61.6505 48.4138 61.6505 49.2051C61.6505 53.5569 59.1392 56.9197 57.1203 60.4802C56.9233 60.8264 56.3817 61.8649 55.7908 61.3209C54.5597 60.233 52.6885 60.3813 51.7529 58.8978C50.3249 56.6229 47.3212 56.9197 45.5977 55.1394C45.647 55.2383 45.6962 55.3866 45.7455 55.4855C45.5977 55.4855 45.45 55.4361 45.3023 55.3866H45.2531ZM91.3432 273.125C89.1766 273.571 87.3546 272.235 85.385 271.84C84.4986 271.642 83.4645 271.84 82.6767 271.197C78.6881 267.982 73.6162 266.647 69.5292 263.532C68.7905 262.938 68.2489 262.444 67.855 261.504C67.0671 259.872 65.9838 258.339 64.8512 256.955C62.8815 254.482 62.98 254.531 61.8475 251.267C61.1581 249.24 60.5672 247.212 59.9763 245.234C59.2869 242.91 58.9915 240.586 58.4498 238.262C57.7112 235.195 57.7604 231.932 57.0218 228.866C56.3324 225.948 55.8892 223.03 55.3968 220.112C55.0029 217.64 54.7567 215.118 54.2643 212.695C53.3779 208.59 52.0976 204.535 51.6052 200.332C51.359 198.452 51.162 196.524 50.6696 194.645C50.4234 193.705 49.3401 192.914 49.3894 192.024C49.3894 189.501 47.5182 187.326 48.3553 184.705C48.503 184.26 48.1583 183.666 48.0598 183.172C47.4689 179.759 45.6962 176.495 46.6318 172.836C46.7303 172.539 46.7796 171.995 46.2379 171.847C45.647 171.649 45.6962 171.204 45.7947 170.71C46.5333 166.506 45.647 162.303 46.0902 158.099C46.2871 156.269 47.1242 154.588 46.878 152.659C46.6318 150.434 46.7795 148.209 47.4197 145.983C48.306 143.016 49.2416 139.95 49.0447 136.736C49.0447 136.093 48.503 135.203 48.7492 134.857C50.2757 132.977 49.2416 130.604 50.0787 128.477C51.5067 124.768 51.1128 120.565 52.0976 116.609C52.8855 113.444 53.5749 110.081 53.4764 106.718C53.3779 104.987 54.3135 103.553 54.412 101.921C54.609 98.5586 55.643 95.3441 56.3817 92.1297C57.3172 88.223 58.3513 84.3163 59.6808 80.5084C60.4195 78.4314 59.8286 75.9094 60.9611 74.3269C62.8815 71.607 62.0937 68.1948 64.1618 65.5244C65.2944 64.0408 65.9838 61.8649 66.7224 59.9363C67.1656 58.6999 67.1656 57.3647 67.9042 56.1779C69.1352 54.2492 70.2186 52.2217 71.4003 50.293C72.8776 47.8699 74.4533 45.1994 76.3245 43.3697C79.5745 40.3037 83.4153 37.5838 87.5023 35.4079C88.9304 34.6661 90.1122 33.4298 91.3924 32.3913C91.6879 32.1935 91.7371 31.7979 91.6386 31.4517C91.1955 28.9791 89.9152 26.7043 88.8319 24.5778C87.5023 21.9568 86.8622 19.4348 87.6008 16.7643C88.4379 13.451 90.7523 11.0279 93.3129 8.9014C95.5287 7.02221 97.9908 5.39029 101.044 6.18152C103.407 6.77495 106.066 6.67605 107.938 8.75305C108.824 9.69264 110.35 9.49483 111.286 10.4839C115.225 14.6873 118.623 19.2369 120.937 24.5284C121.43 25.6163 122.168 26.2097 123.301 26.3581C124.877 26.5559 126.502 26.6548 128.028 27.1493C129.456 27.5944 131.13 27.3471 132.411 28.2867C134.971 30.1165 138.221 30.3143 140.88 31.9957C142.259 32.8858 144.13 33.0836 145.46 34.2705C147.282 35.8529 150.138 35.9519 151.172 38.5728C153.141 38.5728 154.175 40.2048 155.554 41.1443C158.213 42.9246 159.887 45.9412 162.99 47.1775C163.187 47.227 163.384 47.3753 163.482 47.5237C165.403 50.5898 168.702 52.2711 170.967 54.9416C172.346 56.5735 173.724 58.2054 174.808 60.0352C175.743 61.5682 176.383 63.3979 177.664 64.5848C179.683 66.464 181.012 68.9366 182.046 71.2114C183.474 74.228 185.592 76.7006 187.217 79.5194C188.201 81.2008 188.645 83.4756 190.86 84.3657C191.057 84.4152 191.254 85.0581 191.107 85.2559C190.417 86.3933 191.254 86.8878 191.895 87.3329C192.584 87.7779 192.929 88.3714 193.027 89.1132C193.421 92.1792 197.065 93.6628 196.917 97.0255C196.917 97.1244 197.065 97.2728 197.163 97.3223C198.099 97.7673 198.247 98.6575 198.247 99.4982C198.247 100.19 198.394 100.932 198.838 101.377C200.709 103.207 200.463 105.828 201.595 108.004C202.58 109.933 203.22 112.356 203.565 114.729C203.909 116.905 204.451 119.131 205.436 121.208C206.076 122.444 206.864 123.977 206.864 125.461C206.864 129.071 209.72 131.988 209.08 135.648C209.08 135.697 209.129 135.796 209.178 135.846C210.557 138.615 210.754 141.73 211.591 144.698C212.281 147.269 213.315 149.89 212.871 152.709C212.871 152.808 212.97 152.956 213.019 153.055C214.496 157.11 214.152 161.413 214.693 165.567C215.137 168.731 214.496 171.946 215.038 175.16C215.284 176.644 215.53 178.276 215.334 179.908C215.087 181.886 215.186 183.913 214.792 185.891C214.102 189.848 214.94 193.853 213.709 197.859C212.921 200.529 211.591 203.398 212.871 206.365C212.97 206.612 212.724 207.205 212.428 207.453C211.443 208.244 211.591 209.381 211.345 210.469C210.656 213.436 210.754 216.552 209.572 219.47C208.834 221.349 207.307 223.03 207.455 225.206C207.455 226.047 207.356 226.739 207.012 227.481C206.076 229.459 206.47 231.882 204.993 233.662C204.894 233.811 204.894 234.107 204.993 234.256C206.076 236.63 204.205 238.262 203.319 239.992C202.137 242.267 199.872 243.8 198.099 245.63C195.489 248.3 192.436 250.377 189.235 252.207C188.201 252.801 186.921 252.85 185.986 253.74C181.849 257.746 176.039 258.488 171.213 261.059C169.046 262.246 166.732 263.186 164.368 263.977C161.66 264.867 159.001 266.35 156.293 267.043C153.141 267.834 150.039 269.12 146.691 269.614C144.82 269.862 142.702 270.059 140.979 270.999C139.501 271.79 137.975 271.691 136.35 271.79C134.036 271.889 131.278 270.01 129.456 273.027C129.358 273.175 128.816 273.027 128.521 273.027C126.699 273.224 124.778 272.631 123.006 273.373C120.199 274.51 117.146 274.114 114.241 274.856C111.237 275.598 108.036 274.362 104.786 274.807C102.423 275.104 99.862 273.966 97.3507 274.213C95.2333 274.411 93.5098 272.68 91.3432 273.027V273.125ZM42.6925 72.3983C42.2493 69.5795 43.7266 68.1948 45.0069 66.909C47.4197 64.4364 47.0257 63.6452 49.3401 67.1563C49.734 67.7003 50.3249 68.0959 50.6696 68.6399C51.4575 69.8762 52.6393 71.1125 52.8363 72.4477C53.0332 73.8324 52.3438 75.3654 51.9007 76.7995C51.0143 79.7667 50.1772 82.7832 49.0939 85.7009C48.2568 87.9758 48.3553 90.4484 47.5182 92.6737C46.1886 96.1848 45.5485 99.9432 45.0561 103.553C44.5144 107.509 43.9728 111.466 43.2342 115.372C42.397 119.724 41.8062 124.175 40.8706 128.477C40.4274 130.703 39.7872 133.027 39.935 135.203C40.1812 138.763 38.4577 141.978 38.5562 145.588C38.6054 147.615 38.0638 149.94 37.6698 152.115C37.2267 154.786 37.7683 157.605 37.3744 160.226C36.882 163.242 36.685 166.209 37.3744 169.177C37.4729 169.721 37.6698 170.264 37.4729 170.71C36.4881 173.034 38.31 175.408 37.2267 177.732C37.0297 178.177 37.4729 178.375 37.7683 178.671C38.31 179.116 38.7532 179.908 38.6054 180.452C38.0145 182.825 39.2948 184.853 39.5903 187.029C39.738 188.216 40.4766 189.403 40.3289 190.491C40.0827 192.716 41.3137 194.546 41.5107 196.623C41.8061 199.639 43.5296 202.409 43.6773 205.524C43.7266 206.909 44.8099 208.442 44.5637 209.233C43.8743 211.607 44.7607 213.733 45.3515 215.563C46.4349 218.926 47.4197 222.239 47.5182 225.8C47.5182 226.195 47.6659 226.64 47.3705 226.937C47.0258 227.234 46.6318 226.937 46.2871 226.739C43.9728 225.453 41.7569 223.97 39.5903 222.387C36.3896 220.112 35.4047 216.75 34.0752 213.486C33.7305 212.645 34.6169 212.2 34.1737 211.31C33.0904 209.134 32.0563 206.958 32.0071 204.387C32.0071 201.321 32.0071 198.255 30.973 195.287C30.5791 194.101 30.1359 192.666 30.4313 191.578C31.7608 186.732 30.0866 181.836 31.0715 177.039C31.5146 174.765 30.7268 172.391 31.2192 170.017C31.5146 168.583 31.5639 167.001 31.5639 165.517C31.5639 161.759 31.3177 158 31.3669 154.242C31.3669 151.324 30.5791 148.407 31.8101 145.588C31.8593 145.439 31.8593 145.192 31.8101 144.994C30.8253 140.445 33.2874 136.39 33.9275 132.087C34.4692 128.181 35.257 124.323 35.8479 120.417C35.8972 120.021 35.8479 119.378 35.7002 119.279C34.3214 118.686 35.1585 118.043 35.6509 117.449C37.8668 114.581 37.916 111.169 37.7191 107.905C37.5221 104.938 37.8668 102.02 38.113 99.152C38.3592 96.4816 39.6888 93.7122 39.2456 91.1902C38.8024 88.6681 38.8517 86.3438 39.1964 84.0196C39.6395 80.9535 39.6395 77.7391 41.363 74.9698C41.9539 73.9313 42.8402 73.0411 42.6925 72.2993V72.3983ZM36.4388 58.8483C37.2267 58.7494 38.0638 58.9472 38.9009 59.1945C40.2797 59.5901 40.6244 60.1341 39.541 61.3209C37.7191 63.299 36.4881 65.6727 35.5032 68.1948C34.5184 70.7663 33.4843 73.3378 32.4995 75.9094C31.3177 78.7776 31.0715 81.7448 30.776 84.7119C30.1851 90.8934 30.4314 97.1244 29.4465 103.257C28.7079 107.707 29.4465 112.306 28.0185 116.658C27.92 116.955 27.8215 117.4 28.0185 117.647C28.6586 118.883 28.0185 119.971 27.6738 121.158C26.9844 123.878 25.9503 126.499 25.8026 129.318C25.5072 134.807 24.9163 140.247 22.9959 145.489C22.7989 145.983 22.7496 146.577 22.7989 147.071C23.2913 149.989 22.9958 152.907 22.7989 155.824C22.7004 156.962 22.5527 158.05 22.6019 159.187C22.7496 163.935 23.5868 168.682 22.7989 173.528C22.5527 175.111 23.1436 176.842 22.0603 178.276C22.011 178.375 22.0603 178.523 22.0603 178.671C22.9959 181.144 22.3557 183.765 22.208 186.188C22.011 189.254 22.405 192.271 22.4542 195.287C22.5527 198.996 23.3898 202.656 23.7837 206.365C23.9314 207.997 23.9807 209.629 24.6208 211.211C25.064 212.398 25.9503 213.387 26.0488 214.722C26.2458 217.096 26.9844 219.173 28.5602 221.003C30.5298 223.376 30.4313 223.475 28.6094 225.75C27.3784 227.333 26.2458 227.085 25.3595 225.206C24.1284 222.635 21.8141 220.459 22.4542 217.195C22.4542 217.195 22.3557 217.096 22.3557 217.046C21.2724 214.574 20.2876 212.101 20.2876 209.332C20.2876 208.541 19.8936 207.601 19.4012 206.958C18.6134 205.92 18.4656 204.733 18.7119 203.595C18.8103 203.101 18.6626 202.755 18.7119 202.458C19.0073 200.628 17.727 199.194 17.53 197.513C17.1853 194.645 17.53 191.776 17.0376 188.859C16.496 185.446 16.2005 181.836 17.0376 178.325C17.2346 177.435 17.1361 176.495 16.8899 175.556C16.5945 174.369 16.1513 173.083 16.6437 171.847C17.3823 169.819 16.8407 167.891 16.496 165.913C16.3975 165.319 16.1513 164.825 16.496 164.182C17.2346 162.649 17.5793 161.066 16.8899 159.336C16.102 157.456 17.4808 155.775 17.4315 153.747C17.2346 147.912 18.2194 142.027 18.0224 136.093C17.8747 132.087 18.6626 128.131 18.3179 124.076C18.1702 122.246 18.2687 120.417 18.0224 118.587C17.727 115.916 18.5641 113.098 18.6134 110.279C18.7118 105.581 19.6474 100.883 19.6967 96.1849C19.6967 95.7398 19.6967 95.2452 19.7952 94.8002C20.8292 89.8055 21.8141 84.7613 22.9959 79.7667C23.636 77.1951 23.1436 74.228 25.261 72.0521C25.4087 71.8543 25.6057 71.5081 25.5564 71.3597C24.867 69.7773 25.8026 68.6893 26.5905 67.5025C27.0829 66.7607 27.5261 65.92 27.8215 65.0793C29.0033 61.4693 32.7949 58.6999 36.6358 58.8483H36.4388ZM10.2423 286.032C10.4885 285.686 10.7347 285.142 11.1286 284.648C11.621 284.054 12.3597 283.609 12.6551 282.966C13.5415 280.889 14.8217 279.06 16.7422 277.823C19.1058 276.29 20.7307 274.016 22.9959 272.334C26.5413 269.614 30.2344 267.438 34.4691 266.103C36.7343 265.411 38.9501 264.867 41.3137 264.422C46.4841 263.532 49.0447 259.032 52.3438 255.619C52.6885 255.273 52.59 254.185 53.4764 254.581C54.1165 254.878 55.1014 254.828 55.0521 256.064C55.0029 256.806 55.2983 257.498 55.84 258.092C56.4801 258.735 56.2832 259.328 55.8892 260.07C55.0521 261.801 53.5257 263.087 52.6393 264.719C50.5712 268.526 47.1242 270.603 43.2834 271.79C39.935 272.829 36.4881 273.571 33.1889 274.708C29.3973 276.043 26.689 278.714 23.833 281.285C22.0603 282.917 20.0414 284.401 18.6626 286.329C17.5793 287.813 16.2498 289.049 15.3142 290.582C15.1172 290.928 14.7725 291.126 14.2801 291.027C13.246 290.78 10.2915 287.219 10.39 286.032H10.2423Z" fill="#1E6E67"/>
<path fill-rule="evenodd" clip-rule="evenodd" d="M8.61726 120.565H8.91272C9.20817 116.559 10.3407 112.554 9.89755 108.449C9.70059 108.449 9.45438 108.449 9.25741 108.449C9.06044 112.504 8.86347 116.559 8.61726 120.565Z" fill="#1E6E67"/>
<path fill-rule="evenodd" clip-rule="evenodd" d="M8.6173 152.116C8.6173 152.116 8.81428 152.116 8.86353 152.116V151.918C8.86353 151.918 8.71579 152.066 8.6173 152.116Z" fill="#1E6E67"/>
<path fill-rule="evenodd" clip-rule="evenodd" d="M150.039 135.747C149.891 133.423 149.744 129.961 149.448 126.45C149.301 124.867 149.793 124.224 151.369 123.829C154.914 122.988 158.46 122.147 161.906 120.862C162.251 120.713 162.645 120.565 163.039 120.466C166.437 119.922 166.683 119.922 166.535 116.46C166.338 110.724 165.747 105.037 163.975 99.5476C163.137 96.9267 162.005 96.7783 159.444 97.1739C156.096 97.7179 152.846 99.0037 149.35 99.1026C147.528 99.1026 147.183 98.2619 146.986 96.9761C146.248 91.8825 145.41 86.8878 143.933 81.9426C142.998 78.8271 141.619 77.8875 138.418 78.382C136.99 78.6293 135.562 78.4809 134.134 78.5304C130.096 78.6293 126.354 80.1623 122.464 80.7063C120.691 80.9535 120.199 82.5855 120.297 84.2174C120.543 88.0747 121.134 91.8825 122.07 95.6409C122.513 97.4706 123.203 99.2509 123.153 101.229C123.153 102.366 122.661 103.009 121.725 103.009C116.801 103.108 112.271 104.839 107.691 106.174C106.116 106.619 104.245 107.262 104.54 109.438C105.426 115.422 105.131 121.554 106.854 127.439C107.297 128.922 107.79 129.367 109.316 129.071C113.896 128.131 118.525 127.439 123.252 127.34C124.434 127.34 124.68 127.34 124.828 128.725C124.926 130.109 125.468 131.642 125.96 133.076C126.6 134.857 126.945 136.983 126.994 139.011C126.994 140.89 127.733 142.621 127.93 144.45C127.979 145.093 128.668 144.895 129.112 144.846C132.312 144.45 135.562 144.5 138.714 143.857C140.733 143.412 142.801 143.016 144.82 142.621C149.104 141.829 149.793 141.137 150.236 135.598L150.039 135.747Z" fill="#E06765"/>
<path fill-rule="evenodd" clip-rule="evenodd" d="M111.286 267.34C114.29 267.191 117.343 266.647 120.347 265.856C121.381 265.559 122.415 265.46 123.498 265.361C125.96 265.065 128.57 264.867 130.835 263.927C134.233 262.493 137.827 261.9 141.176 260.416C144.081 259.13 147.232 259.032 150.335 258.537C152.944 258.141 155.21 256.757 157.672 256.064C160.084 255.372 162.399 254.531 164.959 254.086C167.077 253.74 169.49 253.542 171.213 251.861C171.952 251.169 172.986 251.02 173.774 250.872C176.137 250.427 177.91 248.498 180.372 248.548C180.963 248.548 181.603 248.3 182.046 247.954C184.755 246.075 187.857 244.839 190.713 243.256C192.633 242.218 194.307 240.882 195.834 239.646C197.213 238.509 199.33 237.619 199.625 235.344C199.625 235.097 200.019 234.651 200.266 234.651C202.826 234.651 202.629 232.624 202.974 230.992C203.122 230.151 203.713 229.558 204.057 228.866C204.845 227.431 205.19 225.602 205.239 223.92C205.239 221.843 205.042 219.865 206.224 217.937C206.766 216.997 206.667 215.612 206.716 214.425C206.815 211.755 208.144 209.233 207.898 206.661C207.652 204.09 209.474 201.815 208.39 199.293C208.194 198.799 208.292 198.205 208.784 197.809C209.375 197.315 209.425 196.573 209.425 195.93C209.425 193.458 209.425 190.936 209.08 188.463C208.981 187.424 208.834 186.435 208.932 185.347C209.129 183.369 208.292 181.49 207.504 179.66C207.307 179.166 206.815 178.721 207.012 178.177C207.8 175.952 206.224 174.567 204.993 173.479C201.891 170.71 198.444 168.336 194.357 167.248C191.501 166.506 188.595 166.407 185.592 166.902C182.785 167.347 179.88 167.149 177.024 167.644C173.823 168.188 170.524 168.435 167.323 169.028C163.482 169.721 159.543 170.264 155.751 171.303C152.6 172.193 149.448 172.935 146.346 174.072C143.342 175.21 140.388 177.237 136.892 176.693C136.547 176.644 136.104 176.891 135.759 177.089C132.312 178.721 128.57 179.364 124.877 180.303C121.775 181.045 118.672 182.133 115.619 182.924C112.763 183.666 110.006 184.556 107.347 185.595C104.638 186.683 101.832 187.721 99.5666 189.798C98.7295 190.54 97.6462 190.837 96.7106 191.578C93.3621 194.298 91.3925 197.711 90.063 201.667C88.8319 205.227 88.2903 208.936 87.7978 212.645C87.7486 213.239 87.7486 213.931 87.9456 214.425C88.5365 215.711 89.0289 217.244 90.7031 217.343C92.3773 217.492 93.6084 216.354 94.1008 214.92C95.1841 211.804 96.7106 208.936 97.1537 205.524C97.4984 202.606 100.059 200.579 101.487 198.057C102.964 195.485 105.919 194.595 108.036 192.815C110.892 190.342 114.536 190.293 117.737 188.908C124.483 185.99 131.524 184.606 138.664 183.32C141.126 182.875 143.589 181.54 146.001 180.551C149.153 179.265 152.403 178.276 155.653 177.435C158.066 176.842 160.429 176.001 162.842 175.655C167.126 175.061 171.262 174.122 175.497 173.429C179.141 172.836 182.834 172.243 186.478 172.341C190.023 172.44 194.012 172.44 196.179 176.397C196.573 177.138 197.262 177.732 197.902 178.276C198.148 178.474 198.394 178.523 198.493 178.919C199.724 182.875 200.512 186.93 200.463 191.084C200.463 191.875 200.463 192.666 200.167 193.408C199.97 193.952 199.625 194.694 199.822 195.139C200.857 197.859 199.822 200.43 199.379 203.051C199.035 204.931 198.936 206.81 198.788 208.738C198.493 213.387 197.607 217.937 196.523 222.437C196.031 224.415 195.932 226.541 195.292 228.519C195.046 229.212 194.948 230.003 194.307 230.448C192.092 232.031 191.107 234.849 188.448 236.036C185.001 237.668 182.539 241.08 178.452 241.674C177.073 241.872 176.433 243.602 174.758 243.701C171.706 243.899 169.096 245.729 166.24 246.668C160.035 248.745 153.486 249.883 147.479 252.801C146.248 253.394 144.82 252.85 143.539 253.344C140.142 254.63 136.35 254.976 133.248 257.004C131.032 258.438 128.521 257.746 126.157 258.29C123.35 258.982 120.543 259.823 117.786 260.663C115.324 261.455 112.714 261.207 110.301 262.098C109.71 262.345 108.972 262.246 108.43 262.691C107.642 263.383 107.347 264.372 107.396 265.411C107.494 266.449 108.479 266.499 109.169 266.796C109.76 267.043 110.498 267.043 111.237 267.142L111.286 267.34Z" fill="#1E6E67"/>
<path fill-rule="evenodd" clip-rule="evenodd" d="M77.0139 83.9206C75.8813 83.1788 76.7184 82.3381 77.0139 81.6953C78.3434 78.7281 79.2298 75.5632 81.1009 72.7938C81.2979 72.4971 81.5934 72.2004 81.5441 71.9037C81.3472 68.5409 84.3017 67.0574 85.7789 64.6836C86.4683 63.6451 87.4531 62.7056 87.847 61.5681C88.5364 59.689 89.7675 58.5516 91.4417 57.7603C92.6235 57.1669 93.3129 56.0789 94.2977 55.2877C95.9719 53.903 98.0401 53.2107 99.7143 51.826C100.699 50.9853 101.782 50.1941 102.964 49.6501C107.199 47.672 111.434 45.4467 116.062 44.7049C120.79 43.9631 125.369 43.0235 130.392 43.7653C133.986 44.3093 137.236 46.3368 140.929 45.8917C142.111 45.7434 143.244 45.8917 144.327 45.1005C145.312 44.4082 145.164 43.518 145.214 42.6279C145.214 41.5894 144.376 41.7378 143.835 41.4905C141.52 40.452 139.501 38.6222 136.744 38.8201C130.441 39.2157 124.237 37.0398 117.983 38.2761C115.422 38.7706 112.763 39.7102 110.301 39.908C105.673 40.2542 102.127 43.073 98.0401 44.5071C96.3166 45.1005 93.9038 45.8918 92.8204 48.0677C92.6235 48.4633 92.1803 48.8589 91.7371 48.9083C88.7334 49.5512 87.1084 52.2217 84.7448 53.8536C82.529 55.3866 80.6578 57.6614 79.279 60.0846C78.6881 61.1725 77.654 61.8649 77.0139 62.8539C74.9457 66.0683 73.2223 69.3816 71.6466 72.8927C69.6277 77.4918 67.9042 82.1898 67.1163 87.135C66.5747 90.6956 64.999 94.0584 64.9497 97.7178C64.9497 98.2618 64.5558 98.8552 64.3588 99.3992C64.1126 100.141 63.5217 100.982 63.6202 101.674C64.1126 104.592 62.3399 107.163 62.5861 109.933C62.8816 113.938 61.1089 117.697 61.1089 121.554C61.1089 125.609 60.8627 129.615 60.518 133.571C60.2718 136.835 60.518 139.95 60.7642 143.165C61.2073 148.308 60.8134 153.401 60.5672 158.495C60.4687 160.918 60.2718 163.341 60.321 165.764C60.3702 168.484 61.6505 170.314 63.2262 170.561C64.9005 170.759 66.5747 169.177 67.4118 166.556C67.658 165.764 67.7072 164.973 67.4118 164.083C66.9686 162.451 66.5254 160.77 67.3625 158.989C67.9534 157.654 67.1163 156.171 67.4118 154.638C68.2489 150.137 68.7413 145.588 68.6921 140.989C68.6921 139.653 67.9534 138.467 68.3474 137.082C68.5936 136.34 68.4459 135.549 69.086 134.906C69.4799 134.51 69.7754 133.868 69.086 133.373C68.9875 133.422 68.889 133.472 68.8398 133.521C68.8398 133.472 68.8398 133.422 68.8398 133.324C68.9383 133.324 69.0368 133.324 69.1352 133.422C68.889 129.763 70.1693 126.301 70.0708 122.642C70.0216 120.614 70.7602 118.587 69.9231 116.609C69.8246 116.361 69.6769 116.065 69.7261 115.867C71.5481 112.455 71.3019 108.795 71.4004 105.037C71.4988 102.07 72.3852 99.053 73.37 96.2343C74.4533 93.1682 75.6351 90.1516 75.4874 86.8383C75.4382 85.5525 76.3245 84.8108 76.8169 83.7723L77.0139 83.9206Z" fill="#1E6E67"/>
<path fill-rule="evenodd" clip-rule="evenodd" d="M111.237 214.524C112.714 215.118 114.241 213.684 115.718 214.772C115.866 214.871 116.259 214.673 116.456 214.524C120.248 211.409 124.975 211.903 129.358 211.112C133.002 210.42 136.695 209.777 140.289 208.936C143.589 208.145 146.888 207.106 150.138 206.068C154.028 204.832 157.819 203.2 161.808 202.359C164.467 201.815 167.077 201.024 169.834 200.925C170.868 200.925 171.705 200.233 172.641 199.936C177.861 198.452 183.031 196.722 188.349 195.634C190.713 195.139 192.978 194.15 195.489 194.101C196.72 194.101 198.05 192.073 197.459 191.034C196.917 190.095 195.637 189.551 194.455 189.501C191.698 189.353 188.989 189.501 186.183 190.045C181.899 190.985 177.713 192.37 173.478 193.458C169.933 194.298 166.338 194.991 162.842 195.881C159.346 196.771 155.653 197.167 152.403 198.947C152.255 199.046 152.058 199.145 151.861 199.145C146.691 199.491 142.161 202.062 137.236 203.348C132.952 204.436 128.521 204.832 124.237 205.821C121.036 206.563 117.737 206.859 114.585 207.997C112.96 208.59 111.335 209.332 109.513 209.381C107.987 209.431 107.101 210.618 107.051 212.299C107.051 213.832 108.332 213.733 109.218 214.178C109.957 214.524 110.646 214.574 111.335 214.425L111.237 214.524Z" fill="#1E6E67"/>
<path fill-rule="evenodd" clip-rule="evenodd" d="M84.9418 241.624C84.6464 246.223 84.8433 250.773 85.6805 255.273C86.0251 257.152 86.2714 259.13 87.8963 260.515C88.0933 260.663 88.3395 260.911 88.3887 261.158C89.2751 264.916 92.5743 265.51 95.381 266.894C97.4492 267.883 99.3204 266.894 101.29 266.894C102.373 266.894 102.767 265.559 102.817 264.57C102.817 263.383 102.521 262.147 101.044 261.9C98.9264 261.554 97.4 260.317 96.1197 258.784C95.6765 258.29 95.0364 257.746 94.9871 257.202C94.8886 254.235 93.0667 251.416 94.0023 248.3C94.4947 246.569 94.0023 244.641 93.6576 243.256C92.8697 240.536 93.6576 238.014 93.5591 235.393C93.4606 232.772 93.0667 230.3 92.2296 227.926C91.9341 227.135 91.5402 226.442 90.8508 225.948C89.3243 224.86 88.2903 225.157 87.5516 226.887C86.8623 228.42 86.7145 230.151 86.4683 231.783C85.9759 235.047 85.5327 238.311 85.0896 241.575L84.9418 241.624Z" fill="#1E6E67"/>
<path fill-rule="evenodd" clip-rule="evenodd" d="M77.0139 83.8712C77.0139 83.8712 77.2109 83.9207 77.2601 83.9701C77.2601 83.9701 77.2601 83.8712 77.3093 83.8218C77.2108 83.8218 77.1124 83.9207 77.0139 83.9207V83.8712Z" fill="#1E6E67"/>
<path fill-rule="evenodd" clip-rule="evenodd" d="M69.3322 133.423C69.3322 133.423 69.1353 133.373 69.0368 133.324C69.0368 133.373 69.0368 133.472 69.0368 133.521C69.1353 133.521 69.2337 133.422 69.283 133.373L69.3322 133.423Z" fill="#1E6E67"/>
<path fill-rule="evenodd" clip-rule="evenodd" d="M101.487 15.7753C98.04 15.4291 96.9567 17.8523 96.0704 20.5722C95.2333 23.0942 95.5287 25.7647 96.3658 28.3362C96.809 29.6714 98.434 30.4132 99.7635 30.067C100.699 29.8198 101.782 30.067 102.718 29.7703C105.18 28.8802 107.642 27.8911 110.006 26.7043C111.581 25.9625 112.123 23.9349 111.138 22.5503C109.661 20.3744 107.888 18.4457 105.574 17.1599C104.343 16.4676 102.816 16.1709 101.438 15.7258L101.487 15.7753ZM104.737 24.1822C104.097 24.4789 103.752 24.6273 103.358 24.8251C102.62 25.1712 101.832 26.1108 101.142 25.0723C100.601 24.3305 100.157 23.292 100.207 22.4019C100.305 20.9183 101.635 20.4238 102.718 21.5118C103.457 22.2535 103.998 23.1931 104.737 24.1822Z" fill="#1E6E67"/>
</svg>
