<svg width="392" height="320" viewBox="0 0 392 320" fill="none" xmlns="http://www.w3.org/2000/svg">
<path fill-rule="evenodd" clip-rule="evenodd" d="M309.253 320C308.876 319.9 308.499 319.775 308.097 319.7C306.765 319.501 305.433 319.276 304.102 319.151C301.765 318.926 299.378 319.051 297.091 318.577C294.377 318.002 291.462 318.402 288.924 316.804C287.969 316.204 286.638 316.254 285.482 315.93C284.778 315.73 284.1 315.405 283.446 315.031C281.763 314.007 280.23 312.659 278.421 311.984C276.687 311.31 274.702 311.335 272.817 311.061C272.139 310.961 271.485 310.886 270.807 310.761C268.445 310.386 266.058 310.037 263.696 309.587C261.384 309.138 259.474 307.989 258.142 306.041C257.489 305.117 258.142 303.045 259.273 302.695C260.504 302.321 260.957 301.372 261.509 300.473C262.238 299.299 262.942 298.076 263.57 296.852C264.273 295.504 264.801 294.055 265.555 292.732C266.384 291.309 267.414 289.985 268.269 288.562C269.55 286.389 270.706 284.142 272.013 281.995C273.068 280.222 274.325 278.599 275.405 276.851C276.938 274.403 278.37 271.881 279.828 269.384C281.009 267.312 282.265 265.264 283.296 263.092C284.049 261.519 284.527 259.771 285.08 258.073C285.833 255.7 286.562 253.328 287.266 250.956C287.643 249.632 287.919 248.309 288.246 246.986C288.648 245.288 289.1 243.59 289.477 241.892C289.779 240.568 289.955 239.245 290.181 237.896C290.558 235.699 290.909 233.526 291.286 231.329C291.839 228.158 292.392 224.986 292.945 221.815C293.146 220.567 293.472 219.318 293.472 218.094C293.472 217.445 293.07 216.571 292.568 216.222C290.985 215.123 289.251 214.199 287.567 213.25C285.833 212.276 284.778 210.753 284.25 208.905C283.899 207.682 283.446 206.408 283.421 205.16C283.421 203.936 283.999 202.712 284.225 201.464C284.577 199.591 284.828 197.718 285.13 195.87C285.306 194.822 285.406 193.723 285.708 192.724C286.487 190.252 286.964 187.755 286.813 185.183C286.738 184.134 286.336 183.085 286.286 182.037C286.21 180.888 286.411 179.739 286.411 178.566C286.411 177.392 286.587 176.119 286.185 175.045C285.331 172.723 285.507 170.425 285.457 168.053C285.406 165.981 285.205 163.933 285.281 161.835C285.331 160.437 284.904 159.014 284.803 157.565C284.703 156.317 284.652 155.018 284.803 153.77C285.457 148.851 286.562 144.031 288.723 139.536C290.96 134.842 293.271 130.197 295.608 125.553C296.061 124.654 296.764 123.905 297.593 122.731C297.342 121.832 297.443 121.732 299.83 120.858C300.408 119.435 299.378 118.611 298.724 117.612C297.794 116.114 297.041 114.516 296.161 112.968C295.056 111.045 293.146 110.695 291.362 111.994C291.06 112.219 290.759 112.518 290.432 112.568C288.673 112.918 286.914 113.292 285.13 113.517C283.145 113.767 281.16 113.892 279.149 114.016C277.416 114.141 275.782 113.592 274.124 113.167C271.008 112.343 269.073 110.146 267.038 107.973C266.058 106.925 264.877 104.228 264.349 102.455C264.047 101.456 263.369 100.557 262.866 99.6083C262.665 99.2337 262.464 98.8592 262.288 98.4846C260.906 95.3633 259.499 92.2419 258.142 89.1206C257.715 88.1217 257.614 86.9232 256.986 86.1241C256.258 85.1752 255.051 84.6009 254.172 83.7519C253.669 83.2774 253.343 82.5782 252.991 81.904C252.765 81.6044 252.312 81.3047 252.338 81.0301C252.614 78.1335 251.885 75.2368 252.564 72.2653C253.091 70.018 253.217 67.5958 253.468 65.2735C253.619 63.7503 254.046 62.1272 253.544 60.4042C253.091 58.856 253.644 57.0581 253.544 55.3601C253.468 53.5622 253.167 51.7893 252.991 49.9914C252.916 49.1424 252.916 48.2934 252.865 47.4444C252.765 44.6976 252.488 41.9259 252.991 39.1791C253.368 37.1065 254.272 35.2837 255.403 33.5607C255.881 32.8365 256.057 32.462 255.403 31.7378C253.971 30.2146 253.845 28.3418 253.77 26.2692C253.644 22.6984 255.227 19.7019 256.459 16.6305C257.388 14.2833 258.846 12.1358 260.906 10.4877C261.258 10.213 261.409 9.71362 261.66 9.31409C264.072 5.49357 267.414 3.2462 272.566 4.12018C274.3 4.41983 276.033 4.81936 277.792 4.94421C278.597 4.99415 279.401 4.39486 280.23 4.22006C281.989 3.8455 283.748 3.57082 285.507 3.22123C285.683 3.17129 285.909 2.9965 286.009 2.8217C286.713 1.59813 287.844 0.998837 289.15 0.649246H291.186C292.417 1.44831 293.573 2.37223 294.88 2.97153C296.262 3.62076 297.769 4.09521 299.277 4.39486C301.815 4.8693 304.378 5.06907 306.916 5.49357C307.971 5.66837 309.052 6.41749 310.032 6.29263C311.69 6.0679 313.123 6.46743 314.58 7.0917C315.837 7.64105 317.093 8.24035 318.349 8.78971C319.556 9.31409 320.862 9.71362 321.993 10.3629C324.43 11.7862 326.818 13.3344 329.18 14.9075C330.537 15.8065 331.768 16.8802 333.074 17.8791C333.728 18.3535 334.632 18.6781 334.984 19.3024C336.391 21.8744 337.824 24.4963 338.854 27.2181C339.809 29.7152 340.261 32.412 340.965 35.009C341.291 36.2326 341.869 37.4062 342.096 38.6547C342.447 40.6524 342.673 42.7 342.874 44.7226C343.151 47.5693 343.478 50.391 343.553 53.2376C343.578 54.4112 342.95 55.5599 342.749 56.7585C342.472 58.4315 342.196 60.1295 342.171 61.8276C342.171 64.7991 340.311 67.0964 339.357 69.6933C338.678 71.5162 337.522 73.1892 336.467 74.8623C335.889 75.7862 335.135 76.6851 334.331 77.4343C331.969 79.6067 330.436 82.2536 329.657 85.35C329.406 86.3738 329.33 87.4975 328.828 88.3715C327.923 89.8947 328.426 91.4179 328.476 92.9161C328.526 94.4393 329.004 95.9376 329.356 97.4358C329.456 97.8354 329.632 98.2599 329.883 98.5845C330.863 99.883 331.868 101.181 332.873 102.455C334.105 103.978 335.336 105.501 336.592 107C337.271 107.824 337.899 108.748 338.753 109.372C341.643 111.494 344.96 113.068 347.096 116.189C348.579 118.336 350.539 120.159 352.147 122.232C352.599 122.831 352.574 123.78 352.875 124.929C353.554 125.753 354.559 126.876 355.439 128.1C355.765 128.574 355.539 129.573 355.916 129.823C357.424 130.847 358.027 132.445 358.806 133.943C360.188 136.59 361.62 139.212 362.977 141.884C363.329 142.608 363.48 143.407 363.831 144.156C364.912 146.578 366.57 148.751 366.947 151.473C367.048 152.172 367.173 152.896 367.475 153.52C368.304 155.418 369.385 157.216 370.088 159.163C370.892 161.336 371.37 163.633 371.998 165.881C372.35 167.179 372.702 168.478 373.079 169.776C373.556 171.374 374.084 172.972 374.486 174.57C374.963 176.468 375.315 178.391 375.767 180.289C376.295 182.461 376.973 184.609 377.375 186.781C378.104 190.627 378.079 194.597 379.712 198.268C379.838 198.542 379.637 198.942 379.712 199.267C380.114 201.239 380.542 203.187 380.969 205.16C381.12 205.884 381.371 206.558 381.471 207.282C381.622 208.306 381.647 209.38 381.748 210.428C381.823 211.277 381.949 212.126 382.049 212.975C382.451 216.097 382.828 219.193 383.23 222.29C383.306 222.889 383.457 223.488 383.482 224.112C383.582 226.06 383.582 227.983 383.708 229.931C383.808 231.554 384.034 233.177 384.135 234.8C384.236 236.048 384.16 237.297 384.236 238.545C384.336 240.268 384.537 241.991 384.638 243.714C384.738 245.662 384.638 247.635 384.763 249.583C384.839 251.206 385.115 252.829 385.216 254.477C385.442 257.598 385.618 260.719 385.793 263.841C385.944 266.388 386.12 268.96 386.246 271.532C386.397 274.728 386.497 277.949 386.698 281.146C386.849 283.668 388.005 286.115 387.276 288.712C387.201 288.961 387.402 289.261 387.427 289.536C387.653 291.833 387.929 294.105 388.055 296.403C388.13 297.526 387.829 298.675 387.854 299.824C387.879 301.647 387.854 303.519 388.181 305.317C388.507 307.065 387.326 309.063 388.985 310.586V312.908C387.728 314.456 386.196 315.605 384.185 316.13C381.974 316.704 379.813 317.528 377.577 318.102C376.044 318.502 374.486 318.702 372.903 318.901C371.495 319.051 370.063 319.276 368.681 319.126C366.344 318.851 364.058 318.252 361.721 317.927C359.384 317.603 356.997 317.528 354.66 317.253C352.976 317.053 351.292 316.454 349.609 316.429C346.418 316.379 343.201 316.604 340.01 316.704C338.879 316.754 337.748 316.654 336.643 316.804C334.532 317.078 332.421 317.578 330.31 317.803C326.792 318.177 323.249 318.302 319.731 318.727C317.369 319.026 315.032 319.65 312.721 320.15H309.228L309.253 320Z" fill="white"/>
<path fill-rule="evenodd" clip-rule="evenodd" d="M390.593 305.192C390.266 303.419 390.291 301.547 390.266 299.699C390.266 298.55 390.543 297.402 390.467 296.278C390.342 293.981 390.065 291.708 389.839 289.411C389.839 289.136 389.613 288.837 389.688 288.587C390.392 285.99 389.261 283.543 389.11 281.021C388.909 277.824 388.834 274.628 388.683 271.407C388.557 268.835 388.382 266.288 388.231 263.716C388.03 260.595 387.879 257.473 387.653 254.352C387.527 252.729 387.276 251.106 387.175 249.458C387.075 247.51 387.15 245.537 387.05 243.59C386.974 241.867 386.748 240.144 386.648 238.421C386.572 237.172 386.648 235.924 386.547 234.675C386.447 233.052 386.221 231.429 386.12 229.806C385.994 227.858 385.994 225.935 385.894 223.988C385.869 223.388 385.718 222.789 385.643 222.165C385.241 219.068 384.864 215.972 384.462 212.851C384.361 212.002 384.235 211.153 384.16 210.304C384.06 209.255 384.009 208.206 383.858 207.157C383.758 206.433 383.507 205.734 383.356 205.035C382.929 203.062 382.502 201.114 382.1 199.142C382.024 198.817 382.225 198.417 382.1 198.143C380.466 194.472 380.491 190.502 379.788 186.656C379.386 184.459 378.682 182.336 378.18 180.164C377.727 178.266 377.401 176.318 376.898 174.446C376.496 172.822 375.943 171.249 375.491 169.651C375.114 168.353 374.762 167.054 374.41 165.756C373.782 163.508 373.28 161.211 372.501 159.039C371.797 157.091 370.716 155.293 369.862 153.395C369.586 152.771 369.435 152.047 369.334 151.348C368.957 148.626 367.299 146.453 366.219 144.031C365.892 143.307 365.741 142.483 365.364 141.759C364.007 139.112 362.575 136.465 361.193 133.818C360.414 132.32 359.811 130.747 358.303 129.698C357.926 129.448 358.152 128.425 357.826 127.975C356.946 126.751 355.941 125.628 355.263 124.804C354.986 123.655 355.011 122.706 354.534 122.107C352.926 120.034 350.966 118.211 349.483 116.064C347.347 112.943 344.03 111.37 341.141 109.247C340.412 108.723 339.859 107.949 339.281 107.224C326.415 113.592 302.946 125.253 300.257 126.602C299.503 126.976 297.694 128.624 295.307 130.972C293.9 133.793 292.492 136.615 291.135 139.462C289 143.956 287.894 148.776 287.215 153.695C287.04 154.943 287.115 156.217 287.215 157.49C287.316 158.914 287.743 160.337 287.693 161.76C287.617 163.833 287.818 165.906 287.869 167.978C287.919 170.35 287.743 172.673 288.597 174.97C288.974 176.019 288.824 177.292 288.824 178.491C288.824 179.689 288.623 180.813 288.698 181.962C288.773 183.011 289.175 184.059 289.226 185.108C289.276 186.057 289.226 186.981 289.125 187.88C293.523 174.146 298.724 158.065 300.257 154.094C303.046 146.803 312.117 135.891 321.541 135.366C330.964 134.842 336.617 151.597 339.13 162.834C341.643 174.071 336.517 224.087 336.517 224.087L328.024 223.188C328.024 223.188 325.31 246.511 323.023 256.275C321.038 264.865 289.326 303.195 281.637 312.384C283.094 313.108 284.401 314.182 285.808 315.031C286.436 315.405 287.115 315.73 287.818 315.93C288.949 316.279 290.306 316.204 291.261 316.804C293.799 318.402 296.714 318.002 299.428 318.577C301.689 319.051 304.102 318.951 306.438 319.151C307.77 319.276 309.102 319.501 310.459 319.7C310.861 319.775 311.238 319.9 311.615 320H315.108C317.445 319.526 319.782 318.876 322.119 318.577C325.636 318.127 329.18 318.027 332.697 317.653C334.833 317.428 336.919 316.929 339.03 316.654C340.135 316.504 341.266 316.579 342.397 316.554C345.588 316.454 348.805 316.229 351.996 316.279C353.68 316.304 355.363 316.904 357.047 317.103C359.384 317.378 361.746 317.478 364.083 317.778C366.42 318.102 368.706 318.702 371.043 318.976C372.425 319.126 373.883 318.901 375.265 318.752C376.823 318.552 378.406 318.352 379.938 317.952C382.15 317.378 384.336 316.579 386.547 315.98C388.557 315.455 390.09 314.307 391.347 312.759V310.436C389.688 308.913 390.869 306.915 390.543 305.167L390.593 305.192Z" fill="#79CBE8"/>
<path d="M137.476 228.183C136.145 230.305 131.873 227.558 129.636 228.907C127.827 230.03 126.118 231.379 124.51 232.752C122.927 234.101 121.671 235.849 119.987 236.997C119.032 237.647 118.203 238.67 116.771 238.82C115.791 238.92 114.861 239.669 113.956 240.218C113.052 240.743 112.248 241.442 111.343 241.966C111.192 242.041 110.614 241.742 110.489 241.467C109.559 239.469 108.805 237.422 108.855 235.174C108.906 233.077 108.956 230.954 109.006 228.857C109.056 227.034 109.408 225.161 109.107 223.388C108.554 220.267 107.448 217.22 106.895 214.099C106.569 212.301 106.242 210.428 107.046 208.581C107.473 207.557 107.699 206.383 107.775 205.259C107.85 203.861 107.649 202.463 107.549 201.064C107.498 200.24 107.373 199.441 107.272 198.617C107.147 197.344 106.116 196.869 105.161 196.32C103.955 195.621 102.975 194.547 101.845 193.698L50.9097 177.192C47.3666 176.993 43.8487 176.768 40.3056 176.843C36.9636 176.943 34.2246 178.691 32.6164 181.762C32.2897 182.361 32.34 183.235 31.9379 183.71C30.6061 185.283 30.3548 187.106 30.4302 189.004C30.5307 192.15 31.0836 195.346 30.8825 198.467C30.6564 201.814 32.1389 204.61 32.8677 207.657C32.943 207.906 33.1441 208.231 33.3702 208.331C34.9784 209.155 36.26 210.229 37.3907 211.727C38.4712 213.175 38.7979 213.799 37.5666 215.223C37.1897 215.647 36.8128 216.097 36.5866 216.596C35.481 218.869 34.501 221.216 33.2948 223.438C32.3651 225.136 31.0836 226.634 30.1538 228.307C29.2492 229.906 28.5456 231.629 27.8169 233.327C26.9374 235.374 26.1584 237.447 25.3292 239.519C24.6005 241.342 23.8969 243.165 23.1682 244.988C22.8918 245.662 22.54 246.286 22.3389 246.961C21.9369 248.109 21.56 249.283 21.2836 250.457C21.1077 251.181 21.3841 252.105 21.0323 252.654C19.5497 254.851 19.9266 257.798 17.9666 259.746C17.841 259.87 17.9666 260.245 17.9164 260.445C17.6148 261.294 17.2882 262.143 16.9615 262.992C16.8359 263.316 16.66 263.641 16.5595 263.991C16.2579 265.214 16.082 266.463 15.68 267.636C14.9512 269.709 14.0718 271.732 13.2677 273.779C12.2625 276.451 11.2574 279.098 10.3779 281.795C9.87535 283.368 9.77484 285.066 9.2974 286.639C8.76971 288.387 7.94048 290.035 7.38766 291.758C6.78458 293.631 6.30714 295.554 5.77945 297.476C5.3774 298.925 5.02561 300.398 4.5733 301.821C4.44766 302.246 3.97022 302.52 3.64355 302.895V304.343C4.24663 304.693 4.89996 305.018 5.47791 305.417C7.66407 306.94 9.69945 308.713 12.0364 310.012C14.4236 311.335 17.0871 312.209 19.6 313.308C20.203 313.583 20.7559 314.032 21.3841 314.132C23.9723 314.606 26.5605 315.056 29.1487 315.355C32.1892 315.705 35.2297 315.905 38.2702 316.179C39.6774 316.304 41.1097 316.554 42.5169 316.479C47.2159 316.179 51.9148 315.755 56.6138 315.355C60.2071 315.056 63.7753 314.631 67.3436 314.506C70.5348 314.407 73.7512 314.631 76.9425 314.781C79.6312 314.906 82.32 315.231 85.0087 315.33C87.4713 315.43 89.9338 315.33 92.3964 315.38C95.1856 315.43 97.9748 315.555 100.764 315.63C103.352 315.705 105.89 315.48 108.378 314.556C109.458 314.157 110.715 313.932 111.871 313.957C113.077 314.007 114.233 314.681 115.439 314.681C117.851 314.756 120.314 314.731 122.726 314.432C124.51 314.207 126.294 313.632 128.003 312.983C129.385 312.459 130.767 311.81 131.923 310.911C134.084 309.213 136.019 307.265 138.13 305.517C139.059 304.743 140.366 304.343 141.195 303.469C142.075 302.52 143.105 302.121 144.236 301.721C146.246 300.997 147.327 299.424 148.106 297.501C148.457 296.627 148.91 295.504 149.638 295.154C151.372 294.33 151.9 292.607 152.629 291.234C153.91 288.837 154.564 286.09 155.518 283.518C156.046 282.094 156.8 280.746 157.227 279.323C157.83 277.225 158.157 275.028 158.685 272.88C159.489 269.784 160.343 266.712 161.223 263.641C161.398 263.042 161.625 262.492 161.851 261.893C162.605 259.945 163.333 257.998 164.087 256.025C164.087 255.975 164.087 255.925 164.087 255.875C164.238 254.252 164.288 252.629 164.615 251.031C165.143 248.509 165.821 246.012 166.474 243.515C166.826 242.191 167.253 240.918 167.63 239.594C167.781 238.995 167.806 238.371 167.932 237.746C168.284 236.098 168.635 234.45 169.012 232.802C169.063 232.577 169.238 232.378 169.414 232.203L149.764 222.764L141.296 225.81L137.602 228.108L137.476 228.183Z" fill="#EA8888"/>
<path d="M191.025 191.526C189.668 191.201 189.24 190.402 189.416 189.103C189.517 188.279 189.592 187.43 189.542 186.606C189.467 185.308 189.19 184.159 188.411 182.961C187.406 181.412 187.255 181.088 185.295 181.313C184.743 181.387 184.039 181.712 183.536 180.763C182.933 179.615 181.903 178.741 181.149 177.667C179.893 175.869 178.134 176.044 176.35 176.393C175.546 176.543 173.988 180.813 172.957 181.213C172.731 181.113 170.771 178.366 170.143 178.241C168.535 177.916 169.113 176.044 167.479 176.044C166.851 176.044 166.198 177.068 165.645 177.692C164.539 178.94 163.76 180.389 163.61 182.037C163.333 184.734 162.831 185.558 162.63 188.254C162.63 188.529 160.67 190.477 160.594 190.726C160.042 192.674 159.464 193.149 158.86 195.096C158.408 196.57 158.559 200.14 157.931 201.963C157.076 200.865 157.88 199.841 157.504 199.067C156.8 197.643 156.398 196.07 155.669 194.672C154.89 193.224 153.584 192.474 151.825 192.699C150.568 192.849 149.337 193.823 148.96 195.271C148.809 195.87 149.035 196.769 148.684 197.069C147.402 198.143 147.503 199.566 147.678 200.89C147.854 202.213 146.874 203.187 146.95 204.435C146.95 204.635 146.623 204.885 146.372 205.06C145.492 205.684 144.537 206.233 143.683 206.933C141.623 208.631 140.693 211.053 139.587 213.35C138.909 214.723 138.381 216.222 138.13 217.72C137.703 220.292 135.843 222.065 134.587 224.087C133.984 225.061 133.129 225.86 132.199 226.584L138.858 230.954L146.397 224.112H150.166L167.203 236.123C167.429 235.05 167.655 233.976 167.907 232.902C167.957 232.677 168.133 232.478 168.309 232.303C169.138 231.529 170.043 230.805 170.796 229.956C172.028 228.607 173.259 227.209 174.365 225.735C175.37 224.387 176.098 222.814 177.129 221.465C178.662 219.518 180.37 217.695 181.978 215.822C183.034 214.574 184.064 213.275 185.094 212.002C185.195 211.902 185.32 211.802 185.371 211.677C185.974 210.453 186.552 209.23 187.205 208.031C187.582 207.357 188.286 206.858 188.537 206.158C189.643 203.337 190.623 200.465 191.703 197.618C192.005 196.794 192.507 196.02 192.884 195.221C193.286 194.372 192.105 191.75 191.1 191.526H191.025Z" fill="white"/>
<path d="M98.0754 192.849C97.7488 192.699 97.4221 192.574 97.0703 192.474L98.0754 192.849Z" fill="white"/>
<path d="M30.6314 138.363C30.6314 138.363 30.6816 138.288 30.7067 138.238H30.7821C31.2093 140.161 31.4606 142.108 32.0637 143.931C32.8175 146.229 33.7724 148.451 34.7273 150.673C35.1796 151.697 35.657 152.771 36.3355 153.645C38.0944 155.892 39.9539 158.015 41.7883 160.187C42.5673 161.111 43.3462 162.06 44.2257 162.909C44.9293 163.583 45.7334 164.258 46.6129 164.682C47.8442 165.281 49.176 165.606 50.4575 166.13C51.0355 166.355 51.5632 166.73 52.0657 167.079C53.096 167.778 54.2519 168.403 55.1314 169.252C56.1868 170.3 57.0411 171.524 57.9206 172.723C58.4985 173.522 59.1267 174.371 59.4785 175.27C59.8052 176.094 58.5991 177.667 57.7447 177.642C57.217 177.642 56.6893 177.592 56.1616 177.567C66.1375 181.013 74.078 184.059 74.078 184.059L95.5878 191.925C95.3365 191.625 95.1355 191.226 95.1103 190.926C94.9596 189.403 95.035 187.88 95.035 186.382C95.035 185.657 94.8591 184.808 95.1355 184.209C95.8391 182.711 95.4621 180.788 97.0703 179.689C97.1709 179.615 97.2211 179.44 97.2714 179.315C97.598 178.641 97.7991 177.867 98.2765 177.317C99.8847 175.444 101.619 173.746 104.383 173.871C104.609 173.871 104.91 173.796 105.036 173.647C106.066 172.498 107.574 172.847 108.755 172.847C110.79 172.847 114.258 171.474 115.138 169.801C115.489 169.127 115.866 168.478 116.193 167.778C116.922 166.23 118.078 164.732 118.228 163.134C118.53 159.663 118.379 156.167 118.304 152.671C118.253 150.848 117.952 149.05 117.751 147.227C117.65 146.378 117.575 145.529 117.474 144.68C117.273 142.957 117.198 141.235 116.846 139.561C116.469 137.689 118.052 137.464 118.48 135.591C118.731 134.542 121.219 132.47 121.193 131.421C121.168 129.948 117.399 127.85 115.916 126.776C115.062 126.152 114.459 125.203 113.755 124.379C112.851 123.306 111.971 122.232 111.067 121.158C109.986 119.909 108.855 118.686 107.8 117.412C106.493 115.789 105.74 113.892 104.86 112.019C103.93 110.021 102.774 108.098 102.121 105.951C101.593 104.153 100.84 102.405 100.236 100.632C100.111 100.233 100.111 99.7082 100.236 99.3336C100.965 97.6106 102.297 95.9626 102.398 94.2146C102.523 91.9672 103.126 89.6949 102.322 87.3477C101.543 85.0254 100.287 83.2025 98.2765 81.8791C95.4621 80.0063 92.4216 80.231 89.2806 80.6805C87.798 80.8802 86.215 81.0051 84.7826 80.6805C82.9483 80.231 81.2144 79.5568 79.2544 79.357C75.1585 78.9825 71.7411 80.5806 68.2734 82.2786C65.635 83.5771 63.3232 85.4998 60.157 85.8244C58.976 85.9493 57.7447 85.5997 56.6642 86.0242C53.8498 87.1479 50.8093 87.2727 48.0955 89.0207C45.8339 90.469 44.0498 92.192 42.3662 94.1647C41.9391 94.6641 41.7129 95.3133 41.2857 95.7878C39.8032 97.4358 37.7426 98.4097 36.1847 100.033C35.2801 100.982 34.8026 102.605 33.1693 102.805C33.0939 102.805 32.9934 103.054 33.0185 103.179C33.3703 104.577 31.9883 105.327 31.3852 105.926C29.8021 107.549 29.576 109.572 29.3247 111.419C29.0232 113.617 29.6011 115.939 29.8021 118.211C29.9026 119.36 30.8575 120.559 29.5257 121.608C29.4252 121.682 29.5257 121.982 29.4755 122.157C29.1991 123.281 28.9729 124.404 28.6462 125.528C28.1688 127.201 28.3196 128.824 28.7467 130.472C29.4252 133.119 30.0283 135.791 30.6314 138.338V138.363Z" fill="white"/>
<path d="M56.1365 168.453L62.5191 162.21L56.1365 155.343C56.1365 155.343 54.7544 147.427 56.1365 144.606C57.4934 141.784 65.5344 144.606 65.5344 144.606L69.5801 141.934C69.5801 141.934 72.1683 132.67 72.1683 127.376C72.1683 122.082 71.0375 119.135 71.0375 119.135L76.9678 115.465L82.6216 107.899L89.9591 105.651L94.9847 102.08H98.1006L100.236 99.3336C100.965 97.6106 102.297 95.9626 102.398 94.2146C102.523 91.9672 103.126 89.6949 102.322 87.3477C101.543 85.0254 100.287 83.2025 98.2765 81.8791C95.4621 80.0063 92.4216 80.231 89.2806 80.6805C87.798 80.8802 86.215 81.0051 84.7827 80.6805C82.9483 80.231 81.2144 79.5568 79.2544 79.357C75.1586 78.9825 71.7411 80.5806 68.2734 82.2786C65.635 83.5771 63.3232 85.4998 60.157 85.8244C58.976 85.9493 57.7447 85.5997 56.6642 86.0242C53.8498 87.1479 50.8093 87.2727 48.0955 89.0207C45.8339 90.469 44.0498 92.192 42.3662 94.1647C41.9391 94.6641 41.7129 95.3133 41.2857 95.7878C39.8032 97.4358 37.7426 98.4097 36.1847 100.033C35.2801 100.982 34.8026 102.605 33.1693 102.805C33.0939 102.805 32.9934 103.054 33.0185 103.179C33.3703 104.577 31.9883 105.327 31.3852 105.926C29.8021 107.549 29.576 109.572 29.3247 111.419C29.0232 113.617 29.6011 115.939 29.8021 118.211C29.9026 119.36 30.8575 120.559 29.5257 121.608C29.4252 121.682 29.5257 121.982 29.4755 122.157C29.1991 123.281 28.9729 124.404 28.6462 125.528C28.1688 127.201 28.3196 128.824 28.7467 130.472C29.4252 133.119 30.0283 135.791 30.6314 138.338C30.6314 138.313 30.6816 138.263 30.7067 138.213H30.7821C31.2093 140.136 31.4606 142.084 32.0637 143.906C32.8175 146.204 33.7724 148.426 34.7273 150.648C35.1796 151.672 35.657 152.746 36.3355 153.62C38.0944 155.867 39.9539 157.99 41.7883 160.162C42.5673 161.086 43.3462 162.035 44.2257 162.884C44.9293 163.558 45.7334 164.233 46.6129 164.657C47.8442 165.256 49.176 165.581 50.4575 166.105C51.0355 166.33 51.5632 166.705 52.0657 167.054C53.096 167.753 54.2519 168.378 55.1314 169.227L56.1868 168.453H56.1365Z" fill="#6BB3A9"/>
<path d="M341.543 50.4908C341.819 52.7382 341.342 54.9856 341.442 57.208C341.492 58.5814 340.512 59.4803 340.462 60.7288C340.311 64.9239 338.452 68.5946 336.391 72.1155C335.939 72.9146 335.436 73.6887 335.009 74.5127C334.331 75.8861 334.004 77.659 332.924 78.508C331.366 79.7316 331.014 81.4546 330.059 82.9029C329.582 83.652 329.33 83.7768 328.602 83.4272C327.044 82.7031 325.511 81.8791 323.676 82.2037C323.023 82.3285 322.144 82.1537 321.993 82.9778C321.842 83.8517 322.596 84.4011 323.3 84.6758C324.003 84.9505 324.606 85.3001 325.134 85.7995C325.712 86.3488 326.24 86.8982 327.169 86.9731C327.823 87.023 328.401 87.4725 327.999 88.4713C327.446 89.8198 327.245 91.3929 327.622 92.7164C328.677 96.2622 329.707 99.883 331.818 102.979C332.773 104.378 334.23 105.352 335.813 106.026C336.366 106.25 337.497 106.275 337.17 105.501C336.668 104.253 336.592 102.854 335.864 101.756C334.306 99.3835 333.677 96.6867 333.577 94.0398C333.502 91.9922 333.15 89.8447 334.004 87.7222C334.431 86.6984 335.185 85.8494 335.411 84.8006C335.889 82.778 337.17 81.1299 338.05 79.3071C339.105 77.1346 341.316 75.5615 341.744 72.9146C341.794 72.59 342.121 72.2404 342.422 72.0156C343.905 70.9169 344.382 69.169 344.684 67.6457C345.262 64.9239 346.644 62.277 346.041 59.3555C346.041 59.2556 346.116 59.0808 346.216 58.9809C347.85 57.0581 347.649 54.4862 347.548 52.4635C347.347 48.9177 347.548 45.2969 346.543 41.801C345.915 39.6535 345.789 37.3063 346.267 35.009C346.794 32.5868 344.784 30.9388 344.206 28.8662C344.156 28.7413 343.829 28.5416 343.779 28.5665C343.101 29.041 343.126 28.3418 342.9 28.0671C342.246 27.2681 342.146 26.2942 341.819 25.3453C341.09 23.1978 341.241 20.8256 339.884 18.803C338.251 16.3059 335.688 14.9575 333.25 13.7589C331.466 12.8849 329.28 12.4105 327.22 11.961C325.662 11.6364 324.229 11.112 323.099 9.88842C322.118 8.83965 321.39 7.64105 319.731 7.16661C317.646 6.59228 315.56 5.94304 313.525 5.26883C310.208 4.14515 306.941 4.12018 303.574 4.27C301.589 4.36989 299.403 4.99415 298.071 2.64691C297.719 2.04761 296.89 1.87281 296.136 1.77293C295.759 1.72299 295.332 1.72299 295.03 1.52322C292.467 -0.299642 289.628 -0.274671 286.763 0.474451C285.758 0.724159 284.803 1.12369 283.798 1.3734C282.165 1.77293 280.431 1.9727 278.923 2.89661C278.22 3.32112 277.29 3.54585 276.461 2.9965C276.033 2.72182 275.556 2.74679 275.104 2.62193C272.842 2.07258 270.606 2.29732 268.344 2.69685C265.831 3.14632 263.168 3.22123 261.585 5.76825C261.409 6.0679 261.007 6.34258 260.68 6.44246C259.097 6.86696 258.795 8.9645 257.087 9.18924C256.986 9.18924 256.986 9.63871 256.911 9.83848C256.157 11.7862 255.127 13.6091 254.096 15.407C252.815 17.7043 251.081 19.7768 250.88 22.5486C250.855 22.9731 250.88 23.4475 250.704 23.8221C249.875 25.7948 251.106 28.4167 253.192 29.016C253.518 29.1159 253.845 29.2158 254.172 29.2907C254.574 29.3906 254.901 29.2407 254.825 28.7913C254.574 26.8935 255.68 25.2704 256.031 23.4975C256.283 22.2739 256.609 20.8006 257.464 20.0265C259.298 18.3535 259.147 15.5568 261.183 14.1085C261.007 12.0359 262.741 10.9871 263.771 9.66368C265.856 6.9169 269.098 6.39252 272.289 5.8931C272.515 5.86813 272.767 5.96801 272.993 6.01796C275.782 6.74211 278.571 6.9169 281.411 6.3176C283.949 5.76825 286.336 4.71948 288.874 4.14515C290.382 3.79556 291.94 3.87047 293.121 4.94421C295.432 7.01679 298.171 7.81585 301.187 7.96567C301.915 8.01561 302.644 8.06556 303.373 8.04059C306.237 7.91573 309.127 7.54117 311.866 8.73977C312.344 8.9645 312.896 8.9645 313.399 9.06439C315.61 9.48889 317.646 10.5377 319.053 12.1857C320.485 13.8588 322.194 14.9575 324.154 15.382C326.34 15.8564 328.35 16.7054 330.411 17.4795C331.516 17.904 332.748 18.2286 333.652 18.9528C336.04 20.8755 336.19 23.7222 336.416 26.494C336.517 27.7175 337.195 28.7413 338.05 29.4405C338.502 29.8151 338.879 30.2895 339.331 30.6141C341.291 32.0125 339.331 34.6344 341.115 36.0328C341.141 36.0578 341.015 36.2825 340.99 36.4073C340.688 38.1054 340.286 39.6785 340.94 41.5263C341.919 44.2981 341.492 47.3196 341.819 50.2411C341.744 50.316 341.668 50.391 341.568 50.4659L341.543 50.4908ZM69.6052 140.336C69.6052 141.384 69.5549 142.458 69.6052 143.507C69.6554 144.481 70.0826 144.805 71.1631 144.481C73.7011 143.757 74.078 141.359 74.6057 139.512C75.2339 137.339 74.9826 134.892 75.2339 132.595C75.4852 130.147 75.1334 127.65 75.1836 125.178C75.1836 123.905 75.1836 122.606 74.1031 121.458C73.5252 120.883 73.1985 119.235 73.9523 118.836C75.5103 118.012 76.8421 116.988 78.0482 115.764C79.5057 114.241 81.0888 112.768 82.2195 111.02C82.898 109.971 83.4759 109.497 84.657 109.497C88.0995 109.497 91.0144 108.298 93.3262 105.626C93.9041 104.952 94.5575 103.728 95.6631 103.878C96.7436 104.028 97.8241 104.003 98.8795 103.928C101.066 103.778 103.151 103.304 104.885 101.656C106.594 100.033 107.096 97.9352 107.85 95.9126C108.881 93.1409 107.85 90.3691 106.82 87.9719C105.011 83.7768 101.82 80.6805 97.0703 79.6567C96.5426 79.5568 96.0149 79.5318 95.5123 79.357C93.678 78.7078 91.7934 78.4581 89.959 79.1822C88.3759 79.8065 86.9436 80.1061 85.3103 79.2322C82.7975 77.8837 79.9831 77.5591 77.1687 77.1846C76.7164 77.1346 76.3144 77.2095 75.8872 77.2844C73.7011 77.659 71.5903 78.3082 69.5046 79.0324C67.8713 79.6067 66.1375 79.9813 64.8811 81.4046C64.1272 82.2536 63.1723 82.9778 62.3431 83.8018C61.6646 84.476 60.76 84.9754 59.378 84.5759C57.619 84.0765 55.6841 84.5759 53.8246 84.8006C49.7539 85.3 46.5877 87.7222 43.1703 89.57C40.3308 91.0933 38.9236 93.89 38.0441 96.8116C37.6421 98.16 36.7123 98.6844 35.7323 99.1588C33.0939 100.432 31.4103 101.906 29.8523 104.528C29.0985 105.801 28.5959 107.174 28.0431 108.523C27.5657 109.622 28.1939 110.795 27.9677 111.944C27.5405 114.116 28.7718 116.389 30.6564 117.188C32.2144 117.837 32.7672 117.487 32.7672 115.839C32.7672 112.094 32.8175 108.348 35.1293 105.152C36.2852 103.554 37.5416 101.981 39.577 101.306C41.7128 100.607 43.1954 99.3336 43.2708 96.9364C43.2708 96.6617 43.2708 96.2872 43.4216 96.1124C44.9544 94.5392 45.5323 92.192 47.8441 91.2181C48.7739 90.8186 49.8041 90.3941 50.6334 89.7698C52.5431 88.3465 54.7293 88.2716 56.84 88.5962C60.4585 89.1705 63.5744 88.746 66.1626 85.8494C67.3185 84.5509 68.8764 83.4272 70.3339 82.6532C74.0026 80.7304 78.0482 80.7304 81.8175 82.6282C84.0036 83.7519 86.1898 83.9516 88.4011 83.3274C91.14 82.5533 93.5775 82.6032 96.2159 83.9516C98.2513 84.9754 99.6082 86.4737 100.89 88.1217C103.151 91.0433 102.724 94.3145 101.87 97.5857C101.242 99.9579 99.558 100.857 97.2211 100.208C94.3816 99.4085 92.12 99.5334 90.2354 102.505C89.0041 104.428 87.3457 106.325 84.4559 105.501C83.9031 105.352 83.3252 105.252 82.7221 105.252C81.8175 105.252 80.8375 105.252 80.3852 106.275C79.5811 108.073 78.1488 109.397 76.7416 110.72C76.3647 111.07 75.8621 111.394 75.6862 111.819C74.7816 113.941 72.9723 115.115 71.0877 116.064C68.4241 117.387 67.5949 119.16 68.7508 121.857C69.4795 123.53 70.3087 125.328 70.0826 127.051C69.4795 131.496 70.2082 135.941 69.6554 140.361L69.6052 140.336ZM284.351 165.107C284.301 167.154 284.527 169.152 284.904 171.149C285.13 172.273 286.411 172.723 287.19 171.899C287.919 171.124 288.472 170.126 288.422 169.052C288.346 167.004 289.1 165.107 289.402 163.134C289.804 160.412 290.859 157.84 291.613 155.193C292.517 152.022 293.045 148.776 293.849 145.579C294.126 144.481 294.176 143.207 294.729 142.358C295.282 141.534 295.508 140.71 295.86 139.861C296.337 138.712 296.161 137.339 296.814 136.34C298.875 133.219 300.031 129.398 303.674 127.501C303.75 127.451 303.85 127.401 303.901 127.326C305.257 125.853 307.192 125.328 308.826 124.279C310.283 123.355 311.942 122.756 313.5 121.982C315.434 121.008 317.294 119.835 319.279 119.011C321.214 118.211 323.073 117.213 325.109 116.638C326.868 116.139 328.375 115.04 329.984 114.316C331.793 113.517 333.376 112.194 335.361 111.744C336.04 111.594 336.592 111.195 336.517 110.321C336.442 109.497 335.788 109.122 335.16 109.022C333.527 108.798 331.818 108.698 330.335 109.422C328.25 110.421 326.265 111.644 324.078 112.418C323.45 112.643 323.45 113.567 322.546 113.417C320.41 113.092 318.751 114.566 317.043 115.365C315.258 116.214 313.298 116.713 311.59 117.737C309.152 119.21 306.363 120.009 304.051 121.707C303.574 122.057 303.222 121.957 303.197 121.333C303.147 119.86 301.89 119.011 301.237 117.862C300.508 116.538 299.252 115.515 298.347 114.291C297.719 113.442 296.965 112.843 296.01 112.468C293.095 111.27 290.03 111.195 286.989 111.719C284.074 112.194 281.235 113.068 278.22 112.568C277.365 112.418 276.511 111.919 275.707 112.019C273.445 112.343 272.088 110.745 271.033 109.472C268.646 106.575 267.791 102.854 266.61 99.3336C265.856 97.0613 264.324 95.1885 262.389 93.7651C261.157 92.8662 259.851 93.7152 259.876 95.2134C259.876 95.8876 260.027 96.5369 260.253 97.1861C260.68 98.3847 261.233 99.5583 261.459 100.857C261.685 102.13 262.137 103.354 262.464 104.602C262.715 105.526 263.746 105.851 263.922 106.975C264.374 109.871 266.359 111.994 268.696 113.442C271.108 114.915 273.646 116.389 276.737 116.314C280.556 116.214 284.351 116.738 288.12 115.39C289.929 114.741 292.04 114.716 293.497 116.688C294.678 118.311 296.814 119.285 296.89 121.657C296.89 121.907 297.216 121.957 297.392 122.107C298.448 123.006 298.674 124.754 297.794 125.503C296.337 126.727 295.483 128.425 294.276 129.823C292.995 131.321 292.316 133.194 291.914 135.167C291.462 137.464 289.728 139.262 289.251 141.534C288.849 143.532 287.492 145.305 287.793 147.502C287.818 147.702 287.643 147.952 287.567 148.176C286.864 150.449 286.06 152.671 285.507 154.968C284.703 158.29 284.426 161.71 284.326 165.131L284.351 165.107ZM257.866 39.5537C257.966 38.8295 257.916 38.1054 257.74 37.3812C257.514 36.4073 257.011 35.6582 255.956 35.5084C254.976 35.3835 254.272 35.9329 253.845 36.7569C253.468 37.4811 252.966 38.1303 252.714 38.9294C251.559 42.8248 251.257 51.6645 252.287 55.5599C252.79 57.3828 251.835 59.1057 252.111 60.9286C252.212 61.5279 252.765 62.1022 252.513 62.6017C251.785 63.975 252.086 65.4233 251.961 66.8467C251.961 67.1713 251.835 67.6957 251.634 67.7706C250.905 67.9953 251.006 68.5447 251.156 68.9692C251.383 69.4936 251.232 69.8931 251.081 70.3426C250.051 73.3141 249.423 76.4105 248.669 79.4569C248.116 81.6793 249.548 84.3012 251.207 85.8994C252.714 87.3227 254.498 87.048 256.132 87.4975C257.062 87.7722 258.544 87.3227 258.745 86.224C258.946 85.2251 258.418 84.0016 256.911 83.9516C256.66 83.9516 256.509 83.7269 256.333 83.602C255.001 82.6032 255.177 81.2048 254.85 79.7815C254.323 77.4842 256.182 76.1108 256.207 74.0632C256.207 73.3141 256.785 72.1904 257.011 71.1916C257.363 69.6184 258.016 68.0702 258.067 66.4971C258.192 63.2509 258.142 59.9797 257.866 56.7335C257.765 55.51 258.318 54.1615 257.74 53.0878C256.81 51.3898 256.76 49.517 256.232 47.7441C256.031 47.0948 256.132 46.5704 256.182 45.9462C256.383 43.7238 257.69 41.7761 257.841 39.5537H257.866ZM324.707 64.5494C324.707 64.025 324.832 63.4507 324.707 62.9762C323.777 60.0796 322.747 57.3578 320.535 54.9606C317.872 52.039 314.781 53.1128 311.841 53.1377C310.132 53.1627 308.449 54.2115 307.192 55.5599C305.735 57.1081 304.102 58.5564 303.8 60.8787C303.649 61.9274 303.775 62.8514 304.579 63.4756C305.433 64.1498 306.313 63.5755 307.117 63.126C309.027 62.0773 309.73 59.9797 311.163 58.5065C312.846 56.7335 314.63 55.7846 316.289 57.5825C317.545 58.931 318.751 60.5041 318.701 62.6266C318.651 64 318.701 65.4983 319.003 66.6968C319.455 68.4448 318.249 69.6184 318.123 71.1167C317.972 72.9395 316.364 74.5876 315.61 76.3855C314.932 77.9836 313.675 78.8576 312.218 79.5318C311.615 79.8065 311.012 80.1311 310.434 80.3808C309.303 80.8802 309.378 81.6044 309.956 82.4534C310.635 83.4522 314.128 84.3262 315.183 83.7019C318.525 81.7542 320.51 78.6329 322.294 75.3617C323.023 73.9883 323.199 72.2903 323.727 70.9169C324.556 68.7445 324.204 66.597 324.757 64.4745L324.707 64.5494ZM51.9149 151.073C51.5631 152.446 52.92 153.97 53.3472 155.693C53.6487 156.841 54.1262 157.89 55.1062 158.864C57.6693 161.411 60.358 163.558 63.8005 164.807C66.0621 165.606 68.0472 165.306 70.0323 164.282C71.2887 163.633 71.3139 162.959 70.3088 161.96C69.8062 161.461 69.2031 161.536 68.5749 161.536C66.5395 161.511 64.6046 160.911 62.9713 159.813C59.579 157.54 57.4682 154.394 56.7898 150.299C56.4631 148.276 57.1667 146.928 59.0764 146.154C61.8154 145.03 64.278 145.579 66.6652 147.053C67.1426 147.352 67.5949 147.153 68.0472 147.028C68.2734 146.953 68.3739 146.753 68.2985 146.453C67.9216 144.805 64.8559 142.108 63.097 141.859C61.74 141.659 60.4082 141.284 59.0262 141.185C57.5687 141.085 56.2621 141.309 55.1816 142.258C52.6436 144.456 52.1411 147.452 51.9149 151.123V151.073ZM123.43 131.171C123.103 129.748 122.5 128.4 121.47 127.301C119.258 124.954 116.821 122.781 114.71 120.334C111.996 117.213 109.559 113.892 108.277 109.871C107.976 108.947 107.674 108.048 107.272 107.174C106.795 106.126 105.941 105.451 104.734 105.701C103.604 105.926 103.654 107 103.428 107.874C103.101 109.147 103.981 110.146 104.131 111.32C104.408 113.692 105.262 116.039 106.795 117.787C108.353 119.56 109.534 121.558 110.79 123.455C111.946 125.203 113.554 126.302 115.037 127.551C116.143 128.474 117.072 129.423 117.6 130.722C117.826 131.271 118.655 131.621 118.128 132.495C117.625 133.294 117.374 134.243 116.947 135.092C116.645 135.666 116.62 136.215 116.972 136.715C117.776 137.814 121.168 137.514 121.872 136.315C122.802 134.742 123.631 133.144 123.43 131.196V131.171ZM301.111 52.6134C300.734 51.6894 301.941 49.8416 299.754 49.2673C299.654 49.2673 299.578 49.0425 299.553 48.8927C299.302 47.4194 298.046 46.8201 297.041 45.9711C296.186 45.272 295.307 44.3231 295.131 43.3492C294.678 40.977 293.598 38.8045 292.945 36.5072C292.744 35.7831 292.442 35.034 292.115 34.3597C291.764 33.6606 291.135 33.1362 290.356 33.4109C289.603 33.6855 288.723 33.8354 288.623 35.1089C288.472 37.3063 288.723 39.4538 289.201 41.5763C289.829 44.2981 290.532 46.8701 293.146 48.5431C294.553 49.4421 295.96 50.7905 295.734 52.6134C295.483 54.5361 296.111 56.2591 296.262 58.0819C296.387 59.755 297.694 59.6052 298.85 59.8299C299.905 60.0297 300.006 59.2306 300.207 58.7062C300.935 56.8584 301.312 54.9107 301.136 52.5884L301.111 52.6134ZM70.1077 214.798C67.4441 214.673 64.9313 215.023 62.4688 216.322C60.0062 217.57 58.0462 219.243 56.4631 221.416C54.6287 223.963 53.1713 226.734 52.719 229.906C52.6687 230.28 52.2918 230.805 53.0457 230.904C54.4277 231.054 55.5585 230.43 56.6893 229.781C57.1918 229.481 56.84 228.782 57.3175 228.432C59.2523 226.934 60.2575 224.712 61.74 222.864C62.9713 221.341 64.3534 220.017 66.037 219.143C67.4441 218.419 69.0775 217.745 70.7359 218.294C71.8918 218.669 73.098 218.594 74.2539 218.918C75.5605 219.268 76.0129 218.169 76.4652 217.245C76.4903 217.171 76.6913 217.021 76.817 216.896C75.7364 216.896 75.8621 215.522 74.9072 215.323C73.299 214.973 71.6908 214.823 70.0575 214.798H70.1077ZM271.284 27.5927C270.405 27.4928 269.726 27.4428 269.123 27.8424C268.445 28.2919 267.842 28.8662 267.138 29.2158C265.53 30.0148 264.299 32.1373 264.5 33.8603C264.55 34.3597 264.851 34.4846 265.228 34.6095C266.56 35.0589 268.294 34.5595 269.198 33.4608C269.701 32.8615 270.128 32.6617 271.033 32.9864C272.164 33.4109 272.566 34.6594 273.646 34.959C276.109 35.6083 278.647 35.9828 280.958 34.6344C282.994 33.4608 284.878 31.9626 286.788 30.5892C287.266 30.2396 287.065 28.2419 286.537 28.2169C285.08 28.142 283.522 27.6926 282.165 28.5665C281.587 28.9411 280.958 29.1409 280.456 29.4655C279.576 30.0148 278.37 30.2146 277.792 31.0137C277.139 31.8876 276.561 31.5131 276.109 31.1635C275.38 30.6141 274.526 30.2645 274.073 29.2407C273.596 28.142 272.616 27.2431 271.309 27.5927H271.284ZM59.8554 203.686C61.0616 203.686 62.7703 203.736 64.4539 203.686C65.9113 203.636 67.2934 203.262 68.5749 202.588C69.2031 202.263 69.8816 201.988 69.5046 200.965C69.2031 200.066 68.7257 199.791 67.8211 199.741C66.1626 199.666 64.5544 199.941 62.9211 200.016C58.7246 200.24 54.5282 199.716 50.3318 199.716C48.397 199.716 46.4621 199.666 44.5272 199.716C43.698 199.716 42.9441 200.016 42.718 200.965C42.4416 202.163 43.3713 202.438 44.2005 202.687C44.9293 202.912 45.7082 203.112 46.4621 203.112C50.759 203.212 55.0308 204.036 59.8554 203.686ZM110.489 155.618C110.338 155.043 110.237 154.569 110.087 154.119C109.283 151.697 108.855 149.375 111.418 147.602C111.795 147.352 112.147 146.878 111.896 146.354C111.695 145.929 111.318 145.679 110.79 145.554C108.328 145.08 105.79 147.053 105.765 149.775C105.765 151.822 105.538 153.895 106.644 155.867C107.75 157.84 109.785 159.188 112.072 158.789C112.6 158.689 113.228 158.614 113.63 158.09C114.987 156.342 114.786 154.344 114.459 152.346C114.333 151.597 113.73 151.273 112.926 151.373C112.122 151.448 111.77 151.822 111.921 152.596C112.197 153.895 111.569 154.769 110.464 155.593L110.489 155.618ZM288.045 91.2431C287.969 88.746 286.864 86.7733 285.733 84.7257C284.376 82.2536 282.416 80.5306 280.255 78.9325C279.803 78.6079 279.25 78.3582 278.697 78.2084C277.968 78.0086 277.164 78.2084 276.712 78.7577C276.26 79.332 276.888 79.8315 277.214 80.256C279.501 83.1775 281.737 86.1491 283.496 89.4202C283.974 90.2942 284.25 91.3679 285.105 91.9672C285.833 92.4667 286.512 93.3906 287.567 92.991C288.472 92.6415 287.944 91.7425 288.045 91.2181V91.2431ZM272.666 95.2134C273.621 95.2134 274.274 94.9138 274.877 94.4893C276.435 93.4155 277.415 91.8923 278.245 90.2443C278.622 89.4951 278.948 88.8209 278.32 88.1217C277.692 87.4226 276.863 87.7722 276.134 87.922C275.581 88.0468 275.104 88.4214 274.752 88.8958C273.596 90.5189 271.937 91.4179 270.103 92.0921C269.701 92.2419 269.324 92.4667 268.947 92.6664C268.52 92.8662 267.992 93.016 268.093 93.6652C268.193 94.2645 268.671 94.5392 269.224 94.6391C270.455 94.8638 271.661 95.0636 272.691 95.2134H272.666ZM101.166 128.874C101.091 127.176 100.789 125.778 99.759 124.554C98.779 123.38 97.5729 123.705 96.4421 123.98C95.4621 124.204 95.0349 125.004 94.9846 126.027C94.9093 127.775 95.3113 129.373 96.6682 130.572C97.598 131.396 98.8795 131.646 100.035 131.246C101.166 130.872 101.066 129.648 101.166 128.874ZM95.4872 113.192C92.4467 112.993 90.0595 114.566 88.1498 117.038C87.7729 117.537 87.4713 118.137 87.5216 118.761C87.5718 119.46 87.3457 120.284 88.4011 120.634C89.7077 121.058 90.6375 120.659 91.0647 119.235C91.5672 117.587 92.5221 116.314 94.2057 115.789C95.06 115.54 96.0149 115.54 96.9195 115.44C97.3718 115.39 97.9247 115.44 97.9749 114.741C97.9749 114.166 97.8241 113.692 97.2713 113.442C96.7687 113.217 96.2662 113.092 95.5123 113.167L95.4872 113.192ZM273.118 48.0187C273.596 48.0187 273.998 48.0687 274.375 48.0187C274.852 47.9438 275.606 48.4932 275.707 47.769C275.807 47.1697 275.606 46.3956 274.978 45.9711C274.501 45.6465 273.923 45.5217 273.32 45.5217C272.49 45.5217 271.661 45.5716 270.857 45.5217C268.068 45.2969 265.731 46.2208 263.746 48.0937C263.318 48.4932 262.615 48.9177 263.067 49.6418C263.545 50.366 264.248 49.9914 264.902 49.8166C267.641 49.0925 270.254 47.794 273.118 48.0687V48.0187ZM271.963 63.2009C271.912 61.2283 271.435 59.755 270.128 58.6563C268.822 57.5576 267.465 58.032 267.138 59.6801C266.836 61.2532 266.686 62.7764 267.54 64.3496C268.193 65.5482 269.224 65.748 270.254 65.8978C271.008 65.9977 271.334 65.0488 271.636 64.4245C271.862 63.9501 271.912 63.4257 271.937 63.2009H271.963ZM263.695 26.5938C263.746 25.0207 262.942 24.4963 261.66 24.8209C260.152 25.2205 258.117 28.6914 258.544 30.1896C258.695 30.764 259.022 31.2634 259.725 31.2634C260.353 31.2634 261.057 31.9126 261.585 31.1135C262.59 29.6153 263.896 28.192 263.695 26.5938ZM63.1472 152.521C63.0718 154.993 66.2631 157.341 68.8262 156.866C69.3036 156.791 69.9318 156.691 69.9067 156.117C69.9067 155.618 69.8564 154.993 69.1277 154.744C67.3436 154.119 66.1375 152.946 65.5846 151.073C65.3836 150.399 64.7554 150.199 64.0518 150.249C63.2729 150.299 63.3482 150.923 63.2729 151.423C63.1975 151.847 63.1723 152.272 63.1472 152.521ZM263.444 82.0539C262.615 82.3785 261.936 82.9278 261.71 83.8268C261.585 84.4261 263.117 85.35 264.072 85.2501C264.675 85.1752 265.329 85.0254 265.329 84.1764C265.329 83.5022 264.022 82.0539 263.419 82.0539H263.444Z" fill="#15787A"/>
<path fill-rule="evenodd" clip-rule="evenodd" d="M62.5693 176.393C62.6195 176.968 62.7954 177.542 62.72 178.116C62.6195 178.791 63.097 178.84 63.4739 179.115C65.9113 180.838 68.8513 180.588 71.5652 181.263C74.4047 181.962 77.219 182.786 80.0334 183.635C83.1493 184.584 86.1647 185.832 89.3811 186.506C90.3108 186.706 90.9893 187.505 92.0698 187.43C93.2759 187.33 93.7282 186.631 93.7534 185.183C93.7534 183.21 94.5575 181.462 95.5123 179.739C95.9898 178.89 97.4472 178.391 96.7185 176.993C96.618 176.818 96.7939 176.593 97.0452 176.668C97.9498 176.943 98.2262 176.293 98.8041 175.794C101.041 173.896 103.553 172.922 106.644 172.773C109.358 172.648 112.273 171.973 114.56 170.35C115.967 169.352 117.525 168.028 117.826 166.08C118.077 164.507 118.153 162.909 118.203 161.311C118.279 158.914 118.429 156.517 118.253 154.144C118.103 151.697 117.6 149.25 117.248 146.828C117.072 145.679 117.248 144.631 117.876 143.657C118.505 142.683 119.284 142.558 120.188 143.332C120.641 143.707 121.068 144.131 121.269 144.68C122.4 147.852 123.631 150.998 123.681 154.444C123.706 157.341 124.058 160.262 123.606 163.134C123.304 165.057 123.078 167.129 122.148 168.752C121.118 170.55 119.485 172.098 117.5 173.122C114.71 174.545 111.795 175.769 108.705 176.044C106.795 176.219 105.212 176.768 104.106 178.041C102.699 179.64 101.267 181.362 100.538 183.41C100.01 184.933 99.6083 186.506 99.1811 188.055C98.98 188.779 99.1308 189.253 99.8847 189.803C101.066 190.652 102.599 190.502 103.654 191.276C106.066 193.049 109.107 194.322 109.861 197.743C109.986 198.343 110.062 198.892 109.986 199.516C109.71 202.263 109.835 204.985 109.056 207.732C108.227 210.678 108.227 213.824 108.956 216.971C110.011 221.49 111.544 225.86 112.524 230.355C113.052 232.802 113.253 235.524 112.449 238.421C113.982 237.422 115.464 236.798 116.444 235.724C117.826 234.201 119.661 233.327 121.244 232.128C123.128 230.68 124.561 228.832 126.37 227.359C127.576 226.385 129.033 225.835 130.541 225.586C130.868 225.511 131.27 225.586 131.345 225.261C131.747 223.913 132.878 222.964 132.878 221.341C132.878 219.143 133.958 217.121 134.562 215.048C135.29 212.576 135.567 209.879 137.175 207.831C138.281 206.433 139.185 204.81 140.768 203.761C141.572 203.237 142.125 202.288 143.306 202.463C143.809 202.538 143.759 201.988 143.784 201.714C143.909 200.79 144.135 199.891 144.135 198.942C144.186 196.894 144.889 194.922 145.593 192.999C146.322 190.976 148.206 190.677 150.015 190.776C151.724 190.851 153.383 191.276 154.815 192.4C155.343 192.799 155.72 193.199 155.971 193.798C156.122 194.172 156.172 194.772 156.725 194.747C157.277 194.747 157.177 194.123 157.378 193.773C157.931 192.824 157.604 191.725 158.006 190.751C159.212 187.93 159.715 184.883 160.72 181.962C161.373 180.064 162.077 178.241 162.906 176.418C163.56 174.945 164.464 174.196 165.997 173.996C167.907 173.746 169.641 173.846 170.872 175.594C171.5 176.493 171.977 177.467 172.38 178.541C174.239 175.869 176.676 174.221 179.943 174.67C182.054 174.97 183.486 176.543 184.014 178.691C184.24 179.664 184.491 179.964 185.597 179.714C187.833 179.165 189.542 180.389 189.994 182.661C190.346 184.409 190.597 186.107 189.844 187.855C189.467 188.729 189.592 189.353 190.924 189.278C193.085 189.153 193.713 190.002 193.864 192.125C193.965 193.623 194.09 195.071 193.864 196.595C193.412 199.316 192.557 201.913 191.603 204.485C190.824 206.583 189.919 208.656 188.763 210.503C187.23 212.926 186.15 215.597 184.341 217.87C183.109 219.418 182.355 221.316 180.999 222.839C179.692 224.312 178.611 225.96 177.43 227.533C175.445 230.105 173.108 232.303 170.947 234.7C170.646 235.05 170.771 235.399 170.796 235.774C170.997 237.522 171.098 239.27 170.269 240.943C170.093 241.292 170.168 241.817 170.269 242.216C170.52 243.115 170.671 243.964 169.942 244.763C169.766 244.963 169.791 245.437 169.892 245.737C170.42 247.21 169.615 248.459 169.389 249.832C169.063 251.705 168.384 253.528 168.384 255.501C168.384 256.225 167.831 256.899 167.58 257.648C166.902 259.696 165.947 261.693 166.324 263.941C166.449 264.69 165.57 264.89 165.419 265.589C165.042 267.262 164.791 268.985 164.288 270.583C163.786 272.131 163.107 273.654 162.454 275.178C161.197 278.074 159.69 280.871 158.785 283.942C158.182 285.99 157.353 288.062 155.745 289.686C155.142 290.31 154.941 291.284 154.639 292.058C154.036 293.656 153.081 295.004 152.176 296.353C150.82 298.325 149.664 300.473 147.603 301.996C146.673 302.67 145.618 303.619 145.166 304.993C144.739 306.291 143.105 306.716 142.15 307.714C141.522 308.364 140.793 308.938 140.341 309.737C140.215 309.937 140.19 310.212 139.939 310.286C138.08 310.911 136.999 312.734 135.114 313.333C134.361 313.558 133.607 313.957 133.154 314.506C131.999 315.93 130.139 316.404 128.707 316.654C126.068 317.128 123.53 318.202 120.816 318.177C120.716 318.177 120.615 318.327 120.49 318.402H115.816C114.183 318.077 112.574 317.678 110.916 317.803C110.69 317.803 110.413 317.803 110.237 317.678C109.283 317.029 108.177 317.004 107.071 316.954C105.488 316.879 104.081 316.379 102.573 315.755C99.2816 314.382 96.5426 312.034 93.1503 310.861C92.1954 310.536 91.517 309.712 90.738 309.088C88.8031 307.565 86.7929 306.191 84.9334 304.618C83.5262 303.419 82.2698 301.996 80.9631 300.673C80.8626 300.573 80.8375 300.348 80.737 300.323C77.5959 299.524 76.6913 296.203 74.2036 294.63C74.0277 294.505 73.8518 294.255 73.8267 294.03C73.7262 292.807 72.9975 292.033 72.0677 291.384C70.8365 290.51 69.8062 289.286 69.2534 288.037C68.0723 285.341 65.5344 283.543 64.5544 280.896C63.4739 277.974 60.9611 276.027 59.9811 273.13C56.6893 270.533 55.6088 266.438 53.3723 263.142C51.9903 261.119 51.1862 258.572 50.558 256.1C50.3821 255.376 50.4072 254.227 51.0857 254.052C52.0908 253.803 53.3724 253.203 54.277 254.477C55.3826 256.05 56.5385 257.548 57.3929 259.296C58.4985 261.643 60.157 263.766 61.137 266.163C62.0165 268.361 64.0518 269.709 64.8559 271.931C64.9816 272.281 65.8611 272.631 66.1877 273.405C66.3636 273.829 66.6149 274.478 66.9918 274.853C69.5047 277.525 70.1329 281.345 72.8216 283.992C74.7565 285.89 76.0631 288.412 77.6211 290.659C78.3247 291.658 79.179 292.557 80.0334 293.431C81.139 294.53 81.918 295.853 83.3 296.777C84.9836 297.876 86.3406 299.449 87.8734 300.773C88.6021 301.397 89.4313 301.921 89.8585 302.845C89.959 303.045 90.2103 303.27 90.3862 303.295C93.4267 303.469 95.1354 305.892 97.397 307.415C99.96 309.163 102.674 310.711 105.463 311.984C107.272 312.808 109.333 313.433 111.343 313.982C114.032 314.706 116.746 314.656 119.284 314.482C122.877 314.232 126.797 314.182 129.611 311.11C130.039 310.636 130.717 310.286 131.345 310.112C133.707 309.387 135.466 307.789 137.225 306.216C138.306 305.242 138.984 303.819 140.266 302.945C141.371 302.196 141.698 300.673 142.954 300.023C144.085 299.424 144.161 298.051 145.04 297.202C145.945 296.353 146.221 295.029 147.226 294.13C148.231 293.206 148.457 291.633 149.513 290.634C149.865 290.31 149.915 289.661 150.166 289.211C151.272 287.089 152.403 284.991 153.508 282.869C153.76 282.419 153.659 281.92 153.709 281.47C153.86 280.097 154.538 279.023 155.242 277.849C155.87 276.851 156.599 275.752 156.8 274.603C157.152 272.656 158.333 271.057 158.634 269.01C158.861 267.387 159.564 265.564 160.419 263.991C160.544 263.741 160.62 263.466 160.645 263.192C160.821 261.843 160.795 260.545 161.499 259.171C162.404 257.398 162.002 255.101 163.384 253.378C163.484 253.278 163.333 253.029 163.333 252.829C163.233 251.53 163.384 250.282 163.811 248.983C164.439 247.011 165.017 244.988 164.54 242.865C164.313 241.892 165.117 241.142 165.268 240.194C165.796 237.072 163.509 234.101 161.223 233.077C159.062 232.103 156.775 231.254 154.865 229.981C153.408 228.982 151.573 228.657 150.342 227.334C149.639 226.584 148.608 226.185 147.704 225.91C147 225.686 145.719 225.286 145.442 226.784C145.442 226.884 145.266 227.009 145.141 227.084C143.407 227.758 142.628 229.306 141.799 230.755C141.296 231.629 140.416 232.103 139.788 232.852C138.054 235 137.25 237.597 135.717 239.819C134.687 241.342 133.883 242.99 133.18 244.713C132.752 245.812 132.074 247.036 131.144 248.009C130.34 248.833 129.863 250.057 129.511 251.181C128.983 252.854 127.802 254.027 126.847 255.376C124.184 259.171 121.696 263.042 119.359 267.037C118.655 268.236 118.153 269.509 116.67 270.108C116.092 270.333 115.841 271.082 115.489 271.657C114.233 273.754 112.65 275.502 110.112 276.027C109.182 276.226 108.504 275.402 107.649 275.178C107.122 275.028 106.845 274.029 107.071 273.255C107.122 273.055 106.82 272.805 107.222 272.68C108.328 272.381 108.654 271.182 109.433 270.633C110.991 269.534 110.614 268.361 109.886 267.262C108.529 265.189 108.177 262.667 106.468 260.719C105.614 259.771 105.488 258.197 104.935 256.949C104.106 255.126 102.473 253.828 101.719 251.88C100.488 248.684 98.2513 246.012 96.8944 242.791C95.7385 240.094 94.8841 237.122 92.9744 234.85C92.0698 233.776 91.6929 232.702 91.3662 231.454C91.2154 230.904 90.9641 230.355 90.5118 229.856C89.7831 229.082 89.3811 228.083 89.2806 226.959C89.1549 225.561 88.3759 224.337 87.8985 223.014C87.6221 222.24 86.9185 221.316 87.8482 220.641C88.7277 220.017 89.557 220.666 90.3611 221.166C92.2708 222.339 93.1503 224.287 94.2559 226.06C95.4872 228.033 96.1154 230.355 97.2713 232.253C98.6031 234.45 99.4826 236.847 100.89 238.995C102.272 241.092 103.277 243.44 104.609 245.712C105.011 245.138 105.564 244.588 105.388 243.939C104.86 242.041 106.016 240.643 106.669 239.12C106.946 238.471 107.348 237.971 106.72 237.372C106.594 237.247 106.519 236.972 106.569 236.847C107.499 234.875 107.348 232.752 107.448 230.68C107.448 230.43 107.725 230.23 107.448 229.931C105.388 227.309 104.835 224.137 104.282 221.016C104.006 219.518 103.503 218.069 103.327 216.546C103.126 214.823 103.428 213.075 103.252 211.452C103.026 209.355 103.679 207.432 103.729 205.434C103.729 204.385 104.584 203.487 104.408 202.438C104.156 200.94 104.483 199.441 104.006 197.943C103.679 196.894 102.875 196.42 101.995 196.045C101.292 195.746 100.689 195.546 100.337 194.672C99.9349 193.723 98.6534 193.373 97.799 193.224C94.7082 192.724 91.7431 191.875 88.8282 190.727C86.2149 189.703 83.4508 188.979 80.7621 188.105C77.8221 187.156 74.857 186.382 71.917 185.458C68.4744 184.384 64.9062 183.785 61.4636 182.786C60.157 182.411 59.0262 181.762 57.7949 181.338C54.4529 180.139 51.0103 179.689 47.5426 179.39C45.3816 179.19 43.2206 178.94 41.0595 179.015C39.0241 179.09 37.2652 180.214 35.5565 181.313C34.7523 181.812 34.1995 182.411 33.8477 183.335C33.4708 184.309 33.0185 185.283 32.2898 186.082C31.8375 186.556 31.5862 187.256 31.6616 187.805C31.8877 189.528 31.1339 191.276 31.9129 193.024C32.2898 193.898 32.1641 195.071 31.1339 195.746C30.5308 196.145 30.9831 196.57 31.0585 196.994C31.4103 199.067 32.3903 201.014 32.2395 203.187C32.2395 203.387 32.34 203.611 32.2395 203.761C31.2847 205.185 31.4103 206.508 32.34 207.981C33.6216 210.004 35.5062 211.078 37.7426 211.427C40.758 211.902 43.7985 212.126 46.839 212.376C48.9247 212.551 51.1108 212.052 53.2467 211.827C56.1867 211.527 58.9759 210.329 61.9662 210.478C63.7503 210.553 64.6047 211.053 64.8057 212.301C64.9565 213.225 64.6549 213.725 63.6498 213.899C60.1318 214.524 56.6641 215.398 53.1462 215.847C50.1559 216.222 47.0903 216.446 44.0749 215.847C42.4667 215.522 40.9841 216.122 39.5267 216.396C38.6472 216.546 37.7426 217.77 37.2149 218.644C35.9585 220.741 34.3503 222.614 33.32 224.837C32.139 227.409 30.4052 229.656 29.5006 232.428C28.797 234.55 27.6159 236.623 26.5103 238.645C25.8318 239.894 25.279 241.018 24.9524 242.391C24.8518 242.89 24.1985 243.64 23.8467 244.014C22.8667 244.963 23.8467 246.811 22.138 247.285C21.9872 247.31 21.8867 248.034 21.9872 248.359C22.3641 249.632 21.7611 250.432 20.957 251.355C19.4493 253.103 18.997 255.301 18.5195 257.523C18.1677 259.171 17.64 260.769 16.66 262.193C16.2077 262.842 16.8862 263.666 16.459 264.34C15.7303 265.539 15.3282 266.812 15.4288 268.261C15.4539 268.635 15.2026 268.985 14.8508 269.21C14.298 269.534 14.0718 270.133 14.097 270.658C14.1975 272.031 13.3682 273.13 13.1672 274.403C13.117 274.803 12.8908 275.103 13.117 275.577C13.2677 275.902 13.1924 276.601 12.9662 276.801C11.5339 277.999 11.5088 279.847 11.2324 281.32C10.9057 283.068 9.47338 284.442 9.8503 286.464C10.1016 287.788 9.0462 289.111 8.54363 290.46C7.81492 292.407 8.09133 294.505 7.41287 296.453C6.80979 298.201 6.68415 300.048 6.1062 301.771C5.72928 302.92 5.90517 304.144 5.35235 305.242C4.59851 306.791 3.86979 307.365 2.8144 307.015C0.452353 306.216 -0.0250834 305.167 0.0503012 303.37C0.150814 301.222 1.2062 299.249 0.829276 297.077C0.779019 296.877 0.929788 296.602 1.05543 296.403C2.3621 294.205 2.73902 291.683 3.69389 289.386C3.99543 288.662 2.78928 288.437 3.29184 287.938C5.07594 286.24 3.71902 283.418 5.60363 281.77C5.07594 279.822 5.95543 278.124 6.7344 276.501C7.53851 274.803 7.28722 272.83 8.46825 271.232C9.2221 270.233 9.12158 268.86 9.34774 267.636C9.6744 265.664 10.5036 263.816 10.9811 261.918C11.4836 259.97 12.6395 258.148 13.117 256.125C13.1672 255.925 13.318 255.85 13.4688 255.725C14.1221 255.201 14.097 254.327 14.3734 253.728C15.0267 252.279 14.6247 250.581 15.6298 249.258C16.3836 248.284 16.9616 247.21 17.64 246.187C18.0672 245.562 17.9165 244.813 18.0672 244.189C18.5447 242.216 18.997 240.169 20.2031 238.521C21.3088 237.022 22.2385 235.549 22.4144 233.676C22.4647 233.077 22.9924 232.727 23.2436 232.278C24.5503 229.881 25.7313 227.409 26.9877 225.011C27.7416 223.588 28.7216 222.314 29.4754 220.891C30.3047 219.293 31.5862 217.945 32.5662 216.421C33.2949 215.298 32.0636 214.848 31.5108 214.474C28.1939 212.276 26.3344 209.23 25.7313 205.359C25.6559 204.81 25.7313 204.211 25.9575 203.861C26.4852 203.087 26.3847 202.338 26.1836 201.539C25.6308 199.416 25.6811 197.219 25.1031 195.071C24.6508 193.398 25.078 191.551 25.7816 189.878C26.0329 189.278 25.3544 188.704 25.7816 188.229C26.9375 186.831 26.5103 185.008 27.2893 183.385C28.5206 180.838 30.7067 179.49 32.4657 177.592C33.0939 176.943 33.9482 176.693 34.7523 176.443C38.1949 175.444 41.6626 175.02 45.2559 175.519C48.8493 175.994 52.4929 176.243 56.0611 176.893C56.3375 176.943 56.6139 176.943 56.8903 176.943C56.3877 174.071 54.1262 172.972 52.0154 171.624C48.3718 169.302 44.1252 167.878 41.0344 164.732C39.6272 163.284 37.5918 162.41 36.838 160.337C36.7375 160.112 36.4611 159.888 36.2098 159.763C34.4508 158.964 33.697 157.465 33.2698 155.693C32.9934 154.519 31.6616 154.144 31.36 152.921C30.958 151.223 29.978 149.725 29.8272 147.927C29.7267 146.478 29.0231 145.03 28.8472 143.707C28.3447 140.136 25.6057 137.364 25.5554 133.718C25.5554 131.471 25.2036 129.174 26.5606 127.126C27.2139 126.102 27.2139 124.754 28.42 123.98C29.199 123.48 29.978 123.281 30.8324 123.156C31.5108 123.056 31.938 123.355 32.2898 123.88C32.6667 124.429 32.3903 124.879 32.1893 125.453C31.4103 127.476 30.6816 129.573 30.8072 131.796C30.9831 135.291 32.8677 138.288 33.8477 141.559C34.3503 143.132 34.6518 144.705 34.8277 146.378C35.0288 148.176 35.9082 149.949 36.7626 151.597C37.4913 152.996 38.1698 154.444 38.999 155.767C40.0293 157.391 41.6124 158.714 43.0447 160.062C45.3062 162.21 48.1708 163.633 50.4324 165.781C52.2918 167.554 55.0057 167.379 56.6641 165.456C57.5436 164.457 59.2524 164.133 60.1318 164.907C60.9359 165.631 61.539 166.43 60.3831 167.404C60.0313 167.703 59.8303 168.178 59.5036 168.553C58.2724 169.926 58.4231 170.375 60.0313 171.449C61.6144 172.498 62.8959 173.921 63.3734 175.869C63.4739 176.243 63.3231 176.418 62.9462 176.368C62.8457 176.318 62.7703 176.293 62.6949 176.243C62.6949 176.343 62.6949 176.468 62.6949 176.568L62.5693 176.393ZM190.271 194.797C190.271 194.073 190.271 193.398 190.271 192.724C190.246 192.175 189.969 192.025 189.542 192.449C188.587 193.398 187.733 194.397 187.356 195.746C186.677 198.168 185.547 200.39 184.24 202.513C183.562 203.586 182.682 204.51 181.627 205.21C180.999 205.634 180.295 205.584 179.767 205.06C179.415 204.71 179.415 204.186 179.692 203.736C181.451 201.039 182.305 197.968 183.637 195.096C184.542 193.174 184.617 191.051 185.748 189.178C186.627 187.68 186.577 185.757 186.778 183.984C186.853 183.335 186.577 182.611 185.999 182.386C185.346 182.137 185.069 182.911 184.692 183.31C183.134 184.983 183.335 187.405 181.953 189.278C180.747 190.951 180.37 193.224 179.616 195.221C178.963 197.019 177.857 198.542 176.501 199.866C175.847 200.49 175.144 200.29 174.515 199.916C174.038 199.641 173.963 199.217 174.164 198.667C175.948 193.873 177.782 189.103 179.39 184.284C179.918 182.761 180.395 181.138 180.069 179.465C179.968 178.915 179.893 178.216 179.29 178.016C178.662 177.817 178.109 178.141 177.581 178.566C175.998 179.889 174.993 181.562 174.49 183.51C173.762 186.282 172.681 188.904 171.626 191.526C170.746 193.723 169.867 195.895 168.384 197.818C167.605 198.817 166.701 198.243 165.871 198.143C165.243 198.068 165.092 197.394 165.268 196.869C165.997 194.872 165.871 192.749 166.223 190.702C166.399 189.653 166.5 188.579 166.927 187.63C168.057 185.183 168.284 182.561 168.635 179.964C168.711 179.515 168.56 178.99 168.409 178.541C168.158 177.842 167.655 177.492 166.851 177.517C166.047 177.517 165.846 177.917 165.57 178.566C164.288 181.412 163.61 184.459 162.831 187.455C161.273 193.348 159.288 199.142 158.358 205.21C158.232 206.084 158.107 207.707 156.75 207.782C155.418 207.856 154.915 206.508 154.513 205.459C153.961 204.061 153.835 202.563 153.584 201.089C153.307 199.441 153.106 197.793 152.252 196.245C151.599 195.071 150.618 194.847 149.639 194.997C148.583 195.171 148.684 196.295 148.608 197.144C148.231 202.063 149.01 206.933 149.412 211.827C149.513 213.2 150.568 214.399 150.568 215.522C150.568 218.044 151.548 220.267 152.076 222.614C152.151 222.939 152.151 223.288 152.528 223.463C154.488 224.487 155.996 226.235 158.132 226.934C159.916 227.533 161.6 228.432 163.258 229.256C164.741 229.981 166.248 230.979 167.505 232.178C168.057 232.677 168.359 232.677 168.862 232.028C169.967 230.555 171.374 229.356 172.555 227.908C174.264 225.835 176.149 223.863 177.707 221.64C179.265 219.393 180.722 217.071 182.205 214.748C183.511 212.676 184.818 210.553 185.974 208.406C187.23 206.108 188.361 203.636 189.065 201.014C189.643 198.942 190.02 196.869 190.321 194.822L190.271 194.797ZM110.815 255.451C110.765 256.549 110.589 257.648 111.368 258.622C112.197 259.646 112.65 260.869 113.127 262.068C113.479 262.942 113.605 263.941 114.384 264.615C114.71 264.915 114.735 265.114 115.313 264.74C116.922 263.691 116.645 261.519 118.178 260.47C119.057 259.87 118.253 258.422 118.856 257.923C120.113 256.899 120.113 255.126 121.394 254.152C121.696 253.927 121.922 253.353 121.847 253.004C121.696 252.304 121.997 251.955 122.525 251.805C123.053 251.655 123.204 251.231 123.254 250.856C123.505 249.283 124.686 248.134 125.239 246.661C125.566 245.787 126.093 244.538 127.023 243.864C127.752 243.34 128.079 242.591 128.506 241.842C129.461 240.219 129.988 238.471 130.566 236.698C130.943 235.524 132.375 235.149 132.727 233.901C132.903 233.252 133.28 232.577 133.984 232.203C134.461 231.928 134.486 231.454 133.908 231.454C133.305 231.454 133.406 230.979 133.129 230.755C131.521 229.456 131.471 229.481 129.913 230.854C129.435 231.279 129.159 231.853 128.656 232.203C126.219 233.901 123.983 235.899 121.595 237.672C119.233 239.419 116.896 241.192 114.183 242.466C110.966 243.989 109.81 245.712 110.489 248.634C111.042 250.956 110.841 253.178 110.74 255.451H110.815ZM144.11 207.732C143.432 208.83 141.924 209.33 141.698 210.453C141.271 212.626 140.215 214.648 140.04 216.871C139.939 218.169 138.859 219.068 138.783 220.442C138.708 221.89 138.331 223.313 136.924 224.212C136.396 224.562 136.27 225.236 135.994 225.785C135.516 226.734 136.471 227.109 136.898 227.508C137.502 228.058 137.527 227.109 137.828 226.834C138.582 226.085 139.261 225.211 140.14 224.637C141.748 223.588 143.583 222.964 145.467 222.564C145.769 222.489 146.472 222.664 146.146 222.04C145.769 221.316 145.92 220.517 145.668 219.767C145.115 217.945 144.713 216.047 144.738 214.149C144.738 213.275 145.065 212.376 144.738 211.527C144.261 210.354 144.186 209.13 144.135 207.782L144.11 207.732Z" fill="#15787A"/>
<path fill-rule="evenodd" clip-rule="evenodd" d="M364.661 150.199C365.415 149.6 364.409 149.475 364.309 149.125C363.806 147.552 362.977 146.079 362.751 144.431C362.65 143.632 361.947 143.307 361.645 142.633C360.339 139.561 358.957 136.515 357.097 133.693C354.685 129.998 351.82 126.627 349.458 122.906C348.956 122.107 348.126 121.757 347.523 121.208C345.99 119.86 345.463 117.937 344.156 116.489C343.277 115.54 341.769 114.766 341.97 113.043C342.096 111.844 342.9 111.22 343.955 111.744C346.493 113.018 349.006 114.141 350.639 116.788C352.046 119.085 354.107 121.058 356.067 122.981C356.896 123.805 357.072 124.879 357.801 125.728C360.112 128.499 361.897 131.596 363.605 134.767C364.962 137.314 366.043 140.011 367.475 142.458C369.435 145.779 370.189 149.5 371.898 152.821C373.405 155.767 374.285 158.914 375.516 161.935C376.622 164.607 377.25 167.454 377.828 170.3C378.28 172.448 379.662 174.346 379.863 176.543C380.064 178.491 380.768 180.314 381.019 182.236C381.17 183.485 382.024 184.584 382.049 185.882C382.125 187.905 383.381 189.703 383.004 191.825C382.904 192.425 383.23 193.124 383.406 193.773C384.009 195.97 384.914 198.068 384.939 200.49C384.939 202.088 385.391 203.736 385.618 205.384C386.346 210.828 388.13 216.122 388.181 221.615C388.181 223.663 388.683 225.661 388.532 227.708C388.457 228.932 389.136 230.005 389.035 231.254C388.935 232.403 389.387 233.576 388.859 234.725C388.708 235.025 388.809 235.524 388.96 235.849C389.94 237.871 389.311 240.044 389.688 242.091C390.116 244.314 389.588 246.611 390.417 248.783C390.744 249.682 390.367 250.556 390.467 251.48C390.719 254.052 391.171 256.624 391.02 259.171C390.844 262.118 391.422 265.089 390.844 268.011C390.719 268.735 390.819 269.459 391.171 270.208C391.598 271.082 392.126 272.156 391.271 273.18C391.121 273.355 391.146 273.729 391.171 274.004C391.623 278.149 391.347 282.319 391.699 286.464C391.749 287.014 391.372 287.313 391.221 287.763C390.995 288.537 391.146 288.887 391.975 288.837V289.711C391.372 290.11 391.347 290.684 391.372 291.309C391.472 293.231 391.648 295.154 391.422 297.102C391.297 298.051 391.246 299.05 391.422 299.974C391.774 301.771 391.523 303.469 391.146 305.217C390.97 305.967 391.246 306.741 391.322 307.49C391.548 309.512 391.447 311.56 391.397 313.583C391.397 314.132 391.347 314.631 390.719 314.831C390.04 315.056 389.412 315.181 388.784 314.706C388.231 314.257 387.955 313.657 387.703 313.008C386.371 309.537 385.969 305.892 385.693 302.221C385.492 299.724 385.969 297.227 385.442 294.73C385.241 293.756 385.517 292.632 385.693 291.608C386.246 288.687 385.718 285.79 385.643 282.869C385.592 281.695 385.995 280.596 385.969 279.398C385.969 278.199 385.794 276.975 385.718 275.802C385.618 273.804 385.316 271.782 385.341 269.809C385.341 268.46 385.09 267.062 385.542 265.714C385.819 264.89 385.266 263.991 385.366 263.267C385.693 260.969 385.216 258.847 384.738 256.674C384.638 256.2 384.587 255.7 384.688 255.251C385.115 253.428 384.487 251.63 384.487 249.882C384.487 247.16 383.733 244.538 383.984 241.842C384.06 240.943 383.834 240.144 383.758 239.295C383.532 237.072 383.281 234.825 383.457 232.602C383.582 230.68 382.954 228.907 382.828 227.059C382.678 224.787 382.828 222.489 382.502 220.192C382.326 219.018 382.376 217.795 381.798 216.696C381.597 216.322 381.296 215.997 381.823 215.597C382.326 215.223 381.823 214.798 381.672 214.449C381.069 213.175 380.567 211.902 380.894 210.428C381.12 209.455 380.491 208.556 380.366 207.682C380.014 204.985 378.858 202.413 379.135 199.641C379.185 199.042 379.185 198.492 378.908 197.943C378.004 196.22 378.18 194.222 377.652 192.45C377.049 190.427 376.622 188.379 376.295 186.357C375.792 183.385 374.511 180.688 374.235 177.617C374.033 175.469 373.179 173.297 372.677 171.124C372.224 169.202 371.144 167.504 370.867 165.531C370.792 165.057 370.641 164.582 370.139 164.357C369.787 164.208 369.636 163.833 369.611 163.533C369.385 160.712 367.827 158.364 366.972 155.767C366.646 154.744 366.47 153.67 366.018 152.671C365.616 151.797 365.515 150.773 364.636 150.149L364.661 150.199Z" fill="#15787A"/>
<path fill-rule="evenodd" clip-rule="evenodd" d="M342.447 169.077C342.673 171.449 341.844 173.896 342.698 176.293C343.025 177.242 342.598 178.291 342.472 179.29C342.271 180.838 342.12 182.361 342.749 183.86C342.774 183.934 342.749 184.059 342.749 184.134C342.648 186.407 342.975 188.679 342.95 190.926C342.95 192.724 342.648 194.572 342.698 196.42C342.724 197.519 342.749 198.617 342.824 199.691C342.975 202.188 342.899 204.66 342.522 207.157C342.347 208.406 342.648 209.829 342.422 211.128C341.995 213.824 341.065 216.471 340.889 219.168C340.738 221.341 339.608 222.964 338.829 224.812C338.477 225.636 337.447 225.91 336.668 225.785C334.733 225.486 332.748 226.21 330.838 225.411C330.461 225.261 329.431 225.211 329.782 226.41C330.009 227.209 329.983 228.033 329.481 228.857C328.702 230.155 328.878 231.703 328.802 233.152C328.727 234.5 328.652 235.849 328.049 237.072C327.848 237.497 327.923 237.896 327.923 238.321C327.923 239.619 328.4 241.018 327.094 242.066C326.842 242.266 326.943 242.591 326.968 242.89C327.27 244.763 326.742 246.486 326.013 248.184C325.888 248.509 325.712 248.833 325.837 249.158C326.239 250.282 325.335 251.505 325.586 252.254C326.114 254.027 325.008 255.376 324.531 256.549C323.425 259.171 323.048 262.193 320.887 264.415C320.183 265.139 319.405 266.113 319.002 267.162C318.274 269.06 316.741 270.308 315.56 271.856C314.605 273.105 313.726 274.528 312.871 275.852C311.565 277.849 310.308 279.922 308.775 281.795C307.82 282.943 306.639 283.967 306.162 285.44C305.81 286.514 304.78 287.238 304.076 287.963C302.544 289.461 301.212 291.034 299.88 292.707C298.749 294.13 297.317 295.329 296.312 296.827C294.678 299.249 292.744 301.397 290.708 303.469C290.18 303.994 290.055 304.718 289.728 305.317C289.1 306.466 288.07 307.09 287.266 307.964C285.481 309.837 284.602 312.509 282.089 313.782C281.411 314.132 280.808 314.432 280.054 314.332C277.767 314.057 277.415 313.183 278.32 311.11C279.149 309.188 280.632 307.689 281.938 306.291C283.32 304.793 284.15 302.92 285.607 301.597C287.391 299.998 288.622 297.951 290.356 296.328C290.532 296.178 290.784 296.003 290.809 295.803C290.985 294.53 292.216 293.98 292.743 292.957C293.321 291.758 294.754 291.159 295.181 290.21C296.086 288.237 297.895 287.288 299.126 285.74C300.232 284.367 301.388 283.018 302.342 281.57C303.147 280.322 303.976 279.073 304.654 277.725C305.534 275.952 307.067 274.628 308.449 273.205C308.7 272.955 309.806 272.655 308.549 272.181C308.449 272.131 308.826 271.657 309.077 271.432C311.112 269.534 312.796 267.337 314.102 264.915C314.831 263.566 315.836 262.517 316.741 261.319C316.867 261.144 317.218 260.919 317.193 260.819C316.515 259.096 318.45 258.073 318.349 256.599C318.249 255.226 319.857 254.826 319.857 253.603C319.857 252.404 320.284 251.181 320.209 250.057C320.108 248.659 320.586 247.435 320.887 246.211C321.566 243.54 321.817 240.818 322.319 238.146C322.571 236.847 323.651 235.274 322.596 233.726C322.395 233.426 323.098 232.927 323.149 232.353C323.35 230.08 324.179 227.883 324.279 225.586C324.279 225.011 324.179 224.762 323.626 224.762C320.209 224.812 316.967 223.588 313.499 223.663C310.283 223.713 306.966 223.538 303.875 222.739C301.589 222.14 299.151 221.915 296.99 220.766C295.809 220.142 294.804 220.616 294.528 221.915C293.799 225.561 292.869 229.181 292.593 232.852C292.341 235.774 291.764 238.645 291.437 241.542C291.085 244.663 290.256 247.76 289.829 250.931C289.653 252.304 289.326 253.927 288.12 255.051C287.844 255.301 287.768 255.825 287.668 256.225C287.115 258.397 286.864 260.645 285.054 262.368C284.552 262.842 284.326 263.916 284.225 264.715C284.024 266.088 283.195 267.412 282.491 268.136C281.31 269.334 280.732 270.733 280.28 272.081C279.576 274.104 278.094 275.802 277.566 277.725C277.013 279.772 275.48 281.046 274.601 282.769C274.199 283.568 274.4 284.442 273.922 285.291C273.118 286.739 271.912 287.963 271.209 289.386C270.379 291.134 269.374 292.732 268.369 294.33C267.741 295.354 266.962 296.328 266.384 297.376C265.605 298.825 264.474 300.023 263.519 301.347C263.117 301.896 260.755 305.717 260.378 306.191C259.7 306.99 258.871 306.865 258.142 306.541C257.237 306.166 257.916 305.442 258.041 304.918C259.197 300.773 260.831 296.777 262.992 293.107C264.499 290.51 265.505 287.588 267.414 285.316C268.545 283.967 268.319 281.97 269.952 280.971C270.631 280.546 269.801 279.647 270.58 278.998C271.359 278.324 271.912 277.225 272.239 276.226C272.842 274.453 274.4 273.23 274.877 271.482C275.732 268.41 277.44 265.814 279.275 263.266C279.375 263.167 279.501 263.042 279.501 262.917C279.35 260.969 280.732 259.771 281.762 258.422C282.215 257.823 281.411 257.373 281.712 256.699C282.717 254.577 283.823 252.479 283.898 250.007C283.898 249.508 284.451 248.758 284.627 248.084C285.356 245.437 285.23 242.641 285.909 240.019C286.487 237.671 286.361 235.274 287.039 232.877C287.492 231.304 287.894 229.481 288.019 227.758C288.17 225.735 288.522 223.713 288.447 221.69C288.421 220.841 289.025 220.217 289.226 219.443C289.628 217.92 289.477 217.245 288.019 216.771C285.481 215.947 283.069 214.898 280.933 213.275C279.853 212.476 278.772 209.704 279.174 208.456C279.727 206.658 280.255 204.835 280.657 202.987C280.958 201.614 281.335 200.265 281.838 198.967C283.471 194.772 284.351 190.352 285.783 186.107C286.537 183.909 287.14 181.637 287.994 179.465C289.125 176.543 290.608 173.696 291.236 170.575C291.613 168.677 292.743 167.154 293.548 165.456C293.698 165.156 293.874 164.957 293.824 164.582C293.774 164.108 293.698 163.458 293.95 163.184C295.96 161.111 295.583 158.04 297.141 155.767C297.468 155.268 297.442 154.569 297.694 154.02C298.247 152.771 298.749 151.448 299.503 150.349C300.734 148.576 301.312 146.428 302.795 144.78C304.277 143.107 305.458 141.234 307.418 139.936C308.75 139.062 309.78 137.689 311.087 136.69C311.916 136.066 312.695 135.466 313.751 135.466C314.655 135.466 315.183 134.692 315.937 134.517C318.123 133.968 320.259 133.494 322.596 134.118C323.299 134.318 324.154 134.792 325.083 134.417C325.385 134.293 325.963 134.592 326.34 134.942C326.817 135.341 327.32 135.741 327.898 135.991C331.617 137.539 334.029 140.435 336.065 143.707C338.351 147.352 339.407 151.472 340.839 155.468C341.643 157.69 341.517 159.988 341.919 162.235C342.321 164.482 342.698 166.78 342.522 169.127L342.447 169.077ZM337.095 198.867C338.301 196.994 336.291 195.046 337.246 193.174C337.246 193.099 337.246 192.949 337.195 192.924C335.914 192.275 336.843 191.376 336.944 190.602C336.994 190.177 337.07 189.778 337.045 189.353C336.919 187.48 336.843 185.607 336.818 183.735C336.818 183.036 336.944 182.361 336.818 181.637C336.517 179.989 336.718 178.316 336.994 176.668C337.145 175.694 337.522 174.57 337.17 173.746C336.316 171.674 336.969 169.526 336.542 167.404C335.914 164.282 336.115 160.961 335.612 157.79C335.185 155.168 334.205 152.646 333.527 150.074C333.3 149.2 332.371 148.726 332.295 147.827C332.145 146.054 330.964 144.88 330.009 143.557C329.255 142.533 327.898 142.258 327.245 141.409C326.114 139.911 324.581 139.262 323.123 138.313C320.862 136.84 318.55 137.589 317.042 138.613C314.429 140.41 312.142 142.708 309.353 144.331C309.278 144.381 309.202 144.481 309.177 144.556C308.65 146.179 307.619 147.452 306.288 148.476C305.458 149.1 305.961 150.174 305.584 150.623C303.951 152.671 303.147 155.118 302.292 157.441C301.161 160.512 300.031 163.583 298.85 166.605C298.196 168.278 297.719 170.076 296.638 171.699C295.784 172.997 295.432 174.87 295.03 176.493C294.327 179.29 292.316 181.612 292.266 184.609C290.859 185.757 291.06 187.33 290.934 188.904C290.859 190.177 290.155 191.376 289.829 192.649C289.401 194.247 288.522 195.746 288.522 197.494C288.522 197.843 288.572 198.168 288.371 198.467C287.165 200.265 287.341 202.488 286.537 204.385C286.059 205.459 286.662 206.658 285.984 207.707C284.878 209.455 285.079 210.079 286.864 211.053C289.753 212.626 292.769 214.024 295.658 215.547C298.749 217.171 301.94 218.344 305.232 218.744C310.208 219.343 315.183 220.092 320.158 220.666C323.124 221.016 326.089 221.141 329.054 221.166C330.31 221.166 331.441 220.342 332.722 220.766C333.979 221.166 334.708 220.616 335.009 219.343C335.562 217.046 335.738 214.673 336.24 212.401C336.467 211.377 336.492 210.428 336.617 209.405C336.718 208.631 338.15 208.006 336.718 207.132C336.718 207.132 336.768 206.783 336.844 206.758C337.522 206.508 337.12 206.083 337.045 205.709C336.944 205.11 336.642 204.41 336.818 203.886C337.396 202.238 336.291 200.54 337.095 198.917V198.867Z" fill="#15787A"/>
<path fill-rule="evenodd" clip-rule="evenodd" d="M341.794 50.2661C341.492 47.3445 341.894 44.3231 340.914 41.5513C340.261 39.7035 340.638 38.1303 340.965 36.4323C340.965 36.3074 341.141 36.0827 341.09 36.0577C339.281 34.6594 341.241 32.0125 339.306 30.6391C338.854 30.3145 338.477 29.84 338.025 29.4655C337.196 28.7663 336.492 27.7425 336.391 26.5189C336.165 23.7472 335.989 20.9005 333.627 18.9778C332.723 18.2536 331.517 17.904 330.386 17.5045C328.325 16.7304 326.315 15.8814 324.129 15.4069C322.144 14.9824 320.46 13.8837 319.028 12.2107C317.621 10.5626 315.585 9.53882 313.374 9.08935C312.846 8.98947 312.319 8.96449 311.841 8.76473C309.102 7.54116 306.212 7.94069 303.348 8.06555C302.619 8.09052 301.89 8.04058 301.162 7.99064C298.146 7.81584 295.407 7.04175 293.096 4.96918C291.889 3.89544 290.331 3.82052 288.849 4.17011C286.311 4.74444 283.924 5.81818 281.386 6.34257C278.546 6.94186 275.757 6.76707 272.968 6.04292C272.742 5.99298 272.49 5.86812 272.264 5.91806C269.073 6.41748 265.831 6.94186 263.746 9.68865C262.716 11.0371 260.982 12.0858 261.158 14.1334C259.147 15.6067 259.298 18.3785 257.439 20.0515C256.584 20.8256 256.258 22.2989 256.006 23.5224C255.654 25.2954 254.574 26.9185 254.8 28.8162C254.85 29.2657 254.549 29.4155 254.147 29.3156C253.82 29.2407 253.493 29.1409 253.167 29.041C251.081 28.4417 249.875 25.8197 250.679 23.8471C250.83 23.4725 250.83 22.998 250.855 22.5735C251.056 19.8018 252.765 17.7292 254.071 15.4319C255.102 13.6091 256.132 11.8112 256.886 9.86344C256.986 9.6387 256.986 9.2142 257.062 9.2142C258.796 8.98947 259.072 6.89192 260.655 6.46742C261.007 6.36754 261.384 6.09286 261.56 5.79321C263.118 3.2462 265.806 3.17128 268.319 2.72181C270.581 2.32228 272.817 2.09754 275.079 2.6469C275.531 2.74678 276.008 2.74678 276.436 3.02146C277.265 3.57082 278.194 3.32111 278.898 2.92158C280.406 1.99766 282.14 1.82286 283.773 1.39836C284.803 1.14865 285.758 0.749122 286.738 0.499415C289.603 -0.249707 292.442 -0.274678 295.005 1.54819C295.282 1.74795 295.734 1.74795 296.111 1.79789C296.84 1.89778 297.694 2.07257 298.046 2.67187C299.378 5.04409 301.564 4.39485 303.549 4.29497C306.916 4.12017 310.183 4.14514 313.5 5.2938C315.535 5.99298 317.621 6.61725 319.706 7.19157C321.365 7.66602 322.093 8.86461 323.073 9.91338C324.229 11.1369 325.637 11.6613 327.195 11.986C329.255 12.4354 331.441 12.9099 333.225 13.7838C335.663 14.9824 338.201 16.3309 339.859 18.8279C341.216 20.8755 341.065 23.2228 341.794 25.3703C342.096 26.2942 342.221 27.293 342.874 28.0921C343.101 28.3668 343.076 29.0659 343.754 28.5915C343.804 28.5416 344.156 28.7413 344.181 28.8911C344.759 30.9887 346.769 32.6368 346.242 35.0339C345.739 37.3312 345.865 39.6535 346.518 41.826C347.548 45.3469 347.347 48.9676 347.523 52.4885C347.624 54.5111 347.825 57.0831 346.191 59.0058C346.091 59.1057 345.99 59.2805 346.016 59.3804C346.619 62.302 345.237 64.9489 344.659 67.6707C344.332 69.1939 343.854 70.9419 342.397 72.0406C342.096 72.2653 341.769 72.6149 341.719 72.9395C341.317 75.5614 339.105 77.1346 338.025 79.332C337.12 81.1299 335.864 82.803 335.386 84.8256C335.135 85.8744 334.381 86.7234 333.979 87.7472C333.125 89.8697 333.451 92.0172 333.552 94.0648C333.652 96.7117 334.281 99.4335 335.839 101.781C336.567 102.879 336.643 104.303 337.145 105.526C337.472 106.325 336.341 106.275 335.788 106.051C334.205 105.377 332.773 104.403 331.793 103.004C329.682 99.9079 328.652 96.2872 327.597 92.7413C327.22 91.4179 327.421 89.8447 327.973 88.4963C328.376 87.4725 327.798 87.048 327.144 86.998C326.215 86.9231 325.687 86.3988 325.109 85.8244C324.581 85.325 323.978 84.9754 323.274 84.7007C322.571 84.4261 321.817 83.8767 321.968 83.0027C322.119 82.1787 322.998 82.3285 323.651 82.2286C325.486 81.904 327.019 82.7281 328.577 83.4522C329.28 83.7768 329.531 83.652 330.034 82.9278C330.989 81.4795 331.366 79.7565 332.899 78.533C333.979 77.684 334.331 75.911 334.984 74.5377C335.386 73.7136 335.889 72.9395 336.366 72.1405C338.427 68.6196 340.261 64.9739 340.437 60.7538C340.487 59.5053 341.467 58.6063 341.417 57.2329C341.317 55.0105 341.794 52.7632 341.518 50.5158C341.593 50.5907 341.668 50.6656 341.744 50.7405C341.895 50.5907 341.844 50.4409 341.744 50.2911L341.794 50.2661Z" fill="#15787A"/>
<path fill-rule="evenodd" clip-rule="evenodd" d="M69.6051 140.336C70.1579 135.916 69.4292 131.471 70.0323 127.026C70.2584 125.303 69.4292 123.505 68.7005 121.832C67.5446 119.135 68.3738 117.362 71.0374 116.039C72.9471 115.09 74.7312 113.917 75.6359 111.794C75.8118 111.345 76.3143 111.045 76.6912 110.695C78.0733 109.372 79.5056 108.073 80.3348 106.25C80.7871 105.227 81.7671 105.202 82.6718 105.227C83.2497 105.227 83.8277 105.302 84.4056 105.476C87.2953 106.3 88.9538 104.428 90.1851 102.48C92.0697 99.5334 94.3312 99.4085 97.1707 100.183C99.4825 100.832 101.191 99.9329 101.819 97.5607C102.674 94.2895 103.101 90.9934 100.839 88.0968C99.5579 86.4487 98.201 84.9505 96.1656 83.9267C93.5271 82.6032 91.0897 82.5533 88.3507 83.3024C86.1394 83.9267 83.9533 83.7269 81.7671 82.6032C77.9979 80.7054 73.9523 80.7054 70.2835 82.6282C68.8261 83.4023 67.2682 84.501 66.1123 85.8244C63.5492 88.721 60.4333 89.1455 56.7897 88.5712C54.7041 88.2466 52.4928 88.2965 50.583 89.7448C49.7538 90.3691 48.7236 90.7936 47.7938 91.1931C45.482 92.167 44.9041 94.5143 43.3712 96.0874C43.2205 96.2622 43.2205 96.6368 43.2205 96.9114C43.1451 99.3336 41.6625 100.582 39.5266 101.281C37.5164 101.956 36.26 103.529 35.0789 105.127C32.7671 108.323 32.6918 112.069 32.7169 115.814C32.7169 117.487 32.1641 117.837 30.6061 117.163C28.7215 116.364 27.4902 114.066 27.9174 111.919C28.1435 110.745 27.5405 109.572 27.9928 108.498C28.5707 107.149 29.0482 105.776 29.802 104.503C31.36 101.906 33.0435 100.407 35.682 99.1338C36.662 98.6594 37.5918 98.135 37.9938 96.7866C38.8733 93.865 40.2805 91.0683 43.12 89.5451C46.5374 87.6972 49.7035 85.2751 53.7743 84.7757C55.6338 84.5509 57.5687 84.0515 59.3277 84.5509C60.7097 84.9505 61.6143 84.451 62.2928 83.7768C63.122 82.9528 64.0769 82.2286 64.8307 81.3796C66.0871 79.9563 67.821 79.5817 69.4543 79.0074C71.54 78.2833 73.6507 77.634 75.8369 77.2595C76.2641 77.1846 76.641 77.1096 77.1184 77.1596C79.9077 77.5341 82.722 77.8588 85.26 79.2072C86.8933 80.0812 88.3256 79.7815 89.9087 79.1572C91.7682 78.4331 93.6277 78.6828 95.462 79.332C95.9646 79.5068 96.4923 79.5318 97.02 79.6317C101.769 80.6555 104.96 83.7519 106.77 87.947C107.8 90.3441 108.83 93.1159 107.8 95.8876C107.046 97.8853 106.544 100.008 104.835 101.631C103.101 103.279 101.04 103.753 98.8292 103.903C97.7738 103.978 96.7184 104.003 95.6128 103.853C94.5071 103.703 93.8789 104.927 93.2759 105.601C90.9389 108.273 88.0492 109.472 84.6066 109.472C83.4256 109.472 82.8477 109.946 82.1692 110.995C81.0384 112.743 79.4553 114.216 77.9979 115.739C76.8169 116.963 75.46 117.987 73.902 118.811C73.1733 119.21 73.4748 120.858 74.0528 121.433C75.1584 122.556 75.1584 123.88 75.1333 125.153C75.1082 127.625 75.4348 130.123 75.1835 132.57C74.9323 134.892 75.1835 137.314 74.5553 139.487C74.0277 141.334 73.6507 143.707 71.1128 144.456C70.0323 144.755 69.6302 144.456 69.5548 143.482C69.5046 142.433 69.5548 141.359 69.5548 140.311L69.6051 140.336Z" fill="#15787A"/>
<path fill-rule="evenodd" clip-rule="evenodd" d="M284.351 165.107C284.451 161.686 284.728 158.265 285.532 154.943C286.085 152.646 286.889 150.424 287.592 148.151C287.668 147.927 287.844 147.702 287.819 147.477C287.517 145.305 288.874 143.532 289.276 141.509C289.728 139.237 291.487 137.439 291.94 135.142C292.317 133.169 293.02 131.296 294.302 129.798C295.533 128.375 296.387 126.702 297.82 125.478C298.724 124.729 298.498 122.981 297.418 122.082C297.242 121.932 296.915 121.882 296.915 121.632C296.814 119.26 294.704 118.286 293.523 116.663C292.09 114.691 289.954 114.741 288.145 115.365C284.376 116.688 280.557 116.189 276.762 116.289C273.671 116.364 271.108 114.915 268.721 113.417C266.409 111.969 264.399 109.846 263.947 106.95C263.771 105.826 262.741 105.501 262.489 104.577C262.163 103.329 261.71 102.105 261.484 100.832C261.258 99.5334 260.705 98.3847 260.278 97.1612C260.052 96.5119 259.926 95.8627 259.901 95.1885C259.901 93.6902 261.208 92.8412 262.414 93.7402C264.349 95.1635 265.882 97.0113 266.635 99.3087C267.817 102.83 268.671 106.55 271.058 109.447C272.113 110.72 273.47 112.318 275.732 111.994C276.511 111.894 277.39 112.393 278.245 112.543C281.235 113.043 284.1 112.169 287.014 111.694C290.055 111.195 293.121 111.245 296.035 112.443C296.965 112.843 297.744 113.417 298.372 114.266C299.277 115.515 300.533 116.538 301.262 117.837C301.915 118.986 303.172 119.835 303.222 121.308C303.222 121.957 303.599 122.057 304.077 121.682C306.388 119.984 309.178 119.16 311.615 117.712C313.324 116.688 315.284 116.189 317.068 115.34C318.777 114.541 320.435 113.068 322.571 113.392C323.475 113.542 323.475 112.618 324.104 112.393C326.29 111.619 328.275 110.421 330.361 109.397C331.843 108.673 333.552 108.798 335.185 108.997C335.839 109.072 336.467 109.472 336.542 110.296C336.618 111.145 336.065 111.569 335.386 111.719C333.401 112.169 331.818 113.467 330.009 114.291C328.401 115.015 326.893 116.139 325.134 116.613C323.099 117.188 321.239 118.187 319.304 118.986C317.294 119.81 315.434 120.983 313.525 121.957C311.967 122.756 310.308 123.33 308.851 124.254C307.218 125.278 305.283 125.828 303.926 127.301C303.85 127.376 303.775 127.426 303.7 127.476C300.056 129.373 298.9 133.194 296.84 136.315C296.186 137.289 296.362 138.663 295.885 139.836C295.533 140.685 295.307 141.509 294.754 142.333C294.176 143.182 294.126 144.456 293.874 145.554C293.07 148.751 292.518 151.997 291.638 155.168C290.909 157.815 289.829 160.387 289.427 163.109C289.125 165.082 288.371 166.979 288.447 169.027C288.472 170.101 287.944 171.1 287.215 171.874C286.437 172.698 285.155 172.273 284.929 171.124C284.552 169.127 284.326 167.129 284.376 165.082L284.351 165.107Z" fill="#15787A"/>
<path fill-rule="evenodd" clip-rule="evenodd" d="M257.866 39.5537C257.715 41.776 256.408 43.7238 256.207 45.9462C256.157 46.5704 256.057 47.0948 256.258 47.7441C256.785 49.517 256.861 51.3898 257.765 53.0878C258.343 54.1615 257.79 55.485 257.891 56.7335C258.142 59.9797 258.192 63.2509 258.092 66.4971C258.042 68.0702 257.388 69.6184 257.037 71.1916C256.81 72.1904 256.232 73.3141 256.232 74.0632C256.232 76.0858 254.373 77.4592 254.875 79.7815C255.202 81.2298 255.026 82.6032 256.358 83.602C256.534 83.7519 256.685 83.9516 256.936 83.9516C258.444 84.0016 258.971 85.2251 258.77 86.224C258.544 87.3227 257.062 87.7721 256.157 87.4975C254.524 87.048 252.714 87.3227 251.232 85.8993C249.573 84.3262 248.141 81.6793 248.694 79.4569C249.448 76.4105 250.076 73.3141 251.106 70.3426C251.257 69.8931 251.408 69.4936 251.182 68.9692C251.006 68.5697 250.93 68.0203 251.659 67.7706C251.86 67.6957 251.961 67.1713 251.986 66.8467C252.111 65.4233 251.81 63.975 252.539 62.6016C252.815 62.1022 252.237 61.5279 252.137 60.9286C251.86 59.1057 252.815 57.3828 252.312 55.5599C251.257 51.6645 251.559 42.8248 252.74 38.9294C252.991 38.1303 253.468 37.4561 253.87 36.7569C254.323 35.9329 255.001 35.3835 255.981 35.5084C257.037 35.6332 257.539 36.4073 257.765 37.3812C257.916 38.1054 257.991 38.8045 257.891 39.5537H257.866Z" fill="#15787A"/>
<path fill-rule="evenodd" clip-rule="evenodd" d="M324.707 64.5743C324.154 66.6719 324.506 68.8443 323.676 71.0168C323.149 72.4151 322.973 74.1132 322.244 75.4616C320.485 78.7078 318.475 81.8291 315.133 83.8018C314.102 84.4261 310.61 83.5521 309.906 82.5533C309.328 81.7043 309.228 80.9801 310.383 80.4807C310.987 80.206 311.59 79.9064 312.168 79.6317C313.6 78.9325 314.856 78.0835 315.56 76.4854C316.339 74.6875 317.922 73.0144 318.073 71.2166C318.198 69.6933 319.379 68.5447 318.952 66.7967C318.651 65.5981 318.626 64.0999 318.651 62.7265C318.726 60.604 317.495 59.0308 316.238 57.6824C314.58 55.8845 312.796 56.8334 311.112 58.6063C309.705 60.0796 309.001 62.1771 307.067 63.2259C306.262 63.6754 305.383 64.2747 304.529 63.5755C303.725 62.9512 303.599 62.0273 303.75 60.9785C304.051 58.6563 305.685 57.2329 307.142 55.6598C308.398 54.3114 310.082 53.2626 311.791 53.2376C314.731 53.1877 317.821 52.1389 320.485 55.0605C322.696 57.4577 323.727 60.1795 324.656 63.0761C324.807 63.5505 324.656 64.1249 324.656 64.6492L324.707 64.5743Z" fill="#15787A"/>
<path fill-rule="evenodd" clip-rule="evenodd" d="M51.9149 151.073C52.1662 147.402 52.6436 144.406 55.1816 142.208C56.2621 141.284 57.5939 141.06 59.0262 141.135C60.4083 141.235 61.74 141.609 63.097 141.809C64.8811 142.084 67.9216 144.755 68.2985 146.403C68.3739 146.703 68.2734 146.928 68.0472 146.978C67.5949 147.128 67.1426 147.302 66.6652 147.003C64.278 145.529 61.8154 144.955 59.0765 146.104C57.1667 146.903 56.4631 148.251 56.7898 150.249C57.4683 154.344 59.579 157.515 62.9713 159.763C64.6047 160.862 66.5395 161.461 68.5749 161.486C69.2031 161.486 69.8062 161.411 70.3088 161.91C71.3139 162.909 71.2888 163.583 70.0324 164.233C68.0472 165.256 66.0621 165.556 63.8006 164.757C60.3329 163.508 57.6441 161.336 55.1062 158.814C54.1262 157.84 53.6488 156.816 53.3472 155.643C52.8949 153.92 51.5631 152.396 51.9149 151.023V151.073Z" fill="#15787A"/>
<path fill-rule="evenodd" clip-rule="evenodd" d="M123.405 131.171C123.606 133.119 122.777 134.717 121.847 136.29C121.143 137.489 117.776 137.789 116.947 136.69C116.595 136.215 116.62 135.666 116.922 135.067C117.349 134.218 117.6 133.269 118.103 132.47C118.63 131.596 117.801 131.246 117.575 130.697C117.047 129.423 116.118 128.474 115.012 127.526C113.529 126.277 111.921 125.178 110.765 123.43C109.509 121.533 108.303 119.535 106.77 117.762C105.237 116.014 104.383 113.692 104.106 111.295C103.981 110.121 103.076 109.122 103.403 107.849C103.629 106.975 103.579 105.901 104.709 105.676C105.916 105.426 106.77 106.101 107.247 107.149C107.649 108.023 107.976 108.922 108.252 109.846C109.534 113.867 111.946 117.188 114.685 120.309C116.821 122.731 119.233 124.929 121.445 127.276C122.475 128.35 123.053 129.723 123.405 131.146V131.171Z" fill="#15787A"/>
<path fill-rule="evenodd" clip-rule="evenodd" d="M301.111 52.6134C301.287 54.9356 300.91 56.8834 300.181 58.7312C299.98 59.2556 299.88 60.0546 298.825 59.8549C297.669 59.6301 296.387 59.755 296.236 58.1069C296.086 56.2841 295.482 54.5611 295.709 52.6383C295.935 50.8155 294.528 49.467 293.12 48.5681C290.507 46.8951 289.804 44.3231 289.175 41.6013C288.698 39.4788 288.447 37.3562 288.597 35.1338C288.698 33.8603 289.577 33.7105 290.331 33.4358C291.085 33.1612 291.738 33.7105 292.09 34.3847C292.442 35.0589 292.718 35.7831 292.919 36.5322C293.573 38.8295 294.653 41.002 295.106 43.3742C295.307 44.348 296.161 45.272 297.015 45.9961C298.02 46.8201 299.277 47.4194 299.528 48.9177C299.528 49.0425 299.629 49.2673 299.729 49.2923C301.915 49.8666 300.709 51.7144 301.086 52.6383L301.111 52.6134Z" fill="#15787A"/>
<path fill-rule="evenodd" clip-rule="evenodd" d="M70.1077 214.798C71.7411 214.798 73.3493 214.948 74.9575 215.323C75.9124 215.547 75.7616 216.921 76.8672 216.896C76.7667 217.021 76.5657 217.195 76.5154 217.245C76.038 218.194 75.6108 219.293 74.3042 218.918C73.1483 218.594 71.9421 218.694 70.7862 218.294C69.1277 217.745 67.5195 218.419 66.0872 219.143C64.4036 220.017 63.0216 221.316 61.7903 222.864C60.3077 224.712 59.3026 226.934 57.3677 228.432C56.8903 228.782 57.2672 229.481 56.7395 229.781C55.6088 230.43 54.4529 231.054 53.0959 230.904C52.3421 230.805 52.6939 230.28 52.7693 229.906C53.2216 226.734 54.679 223.963 56.5134 221.416C58.0713 219.243 60.0565 217.57 62.519 216.321C64.9816 215.048 67.4944 214.673 70.158 214.798H70.1077Z" fill="#15787A"/>
<path fill-rule="evenodd" clip-rule="evenodd" d="M271.284 27.5927C272.591 27.2181 273.546 28.142 274.048 29.2407C274.5 30.2645 275.355 30.6141 276.084 31.1635C276.536 31.5131 277.114 31.8876 277.767 31.0137C278.345 30.2146 279.551 30.0148 280.431 29.4655C280.958 29.1409 281.587 28.9411 282.139 28.5665C283.496 27.6926 285.054 28.142 286.512 28.2169C287.014 28.2419 287.24 30.2396 286.763 30.5892C284.853 31.9875 282.969 33.4608 280.933 34.6344C278.621 35.9579 276.084 35.6083 273.621 34.959C272.54 34.6844 272.138 33.4109 271.008 32.9864C270.128 32.6617 269.676 32.8615 269.173 33.4608C268.269 34.5595 266.535 35.0589 265.203 34.6094C264.826 34.4846 264.525 34.3597 264.474 33.8603C264.273 32.1373 265.53 30.0148 267.113 29.2158C267.841 28.8662 268.445 28.2919 269.098 27.8424C269.701 27.4428 270.379 27.4928 271.259 27.5927H271.284Z" fill="#15787A"/>
<path fill-rule="evenodd" clip-rule="evenodd" d="M59.8555 203.686C55.056 204.011 50.7843 203.212 46.4622 203.112C45.7084 203.112 44.9294 202.912 44.2007 202.687C43.3966 202.438 42.4668 202.163 42.7181 200.965C42.9443 200.016 43.6981 199.741 44.5273 199.716C46.4622 199.666 48.3971 199.716 50.3319 199.716C54.5284 199.716 58.7248 200.24 62.9212 200.016C64.5545 199.916 66.1627 199.641 67.8212 199.741C68.7258 199.791 69.2032 200.066 69.5048 200.965C69.8566 201.988 69.1781 202.263 68.575 202.588C67.2935 203.287 65.9114 203.636 64.454 203.686C62.7704 203.736 61.0617 203.686 59.8555 203.686Z" fill="#15787A"/>
<path fill-rule="evenodd" clip-rule="evenodd" d="M110.489 155.618C111.594 154.794 112.197 153.92 111.946 152.621C111.795 151.872 112.147 151.472 112.951 151.398C113.755 151.298 114.359 151.647 114.484 152.371C114.811 154.344 115.012 156.367 113.655 158.115C113.253 158.639 112.625 158.714 112.097 158.814C109.81 159.213 107.775 157.865 106.669 155.892C105.539 153.92 105.765 151.847 105.79 149.799C105.79 147.053 108.353 145.08 110.815 145.579C111.368 145.679 111.72 145.954 111.921 146.378C112.172 146.903 111.821 147.377 111.444 147.627C108.881 149.4 109.308 151.722 110.112 154.144C110.263 154.594 110.363 155.068 110.514 155.643L110.489 155.618Z" fill="#15787A"/>
<path fill-rule="evenodd" clip-rule="evenodd" d="M288.045 91.2681C287.919 91.7924 288.472 92.6914 287.567 93.041C286.512 93.4405 285.833 92.5416 285.105 92.0172C284.25 91.4179 283.974 90.3441 283.497 89.4702C281.738 86.174 279.501 83.2275 277.215 80.3059C276.888 79.8814 276.26 79.382 276.712 78.8077C277.164 78.2333 277.968 78.0585 278.697 78.2583C279.25 78.4081 279.803 78.6578 280.255 78.9825C282.441 80.5806 284.401 82.3036 285.733 84.7757C286.864 86.8233 287.969 88.796 288.045 91.293V91.2681Z" fill="#15787A"/>
<path fill-rule="evenodd" clip-rule="evenodd" d="M272.666 95.2384C271.636 95.0636 270.405 94.8888 269.198 94.6641C268.646 94.5642 268.193 94.2645 268.068 93.6902C267.967 93.066 268.495 92.9161 268.922 92.6914C269.324 92.4916 269.676 92.2669 270.078 92.1171C271.912 91.4429 273.571 90.5439 274.727 88.9208C275.078 88.4214 275.556 88.0718 276.109 87.947C276.837 87.7971 277.667 87.4475 278.295 88.1467C278.898 88.8459 278.571 89.5201 278.219 90.2692C277.39 91.9423 276.41 93.4405 274.852 94.5142C274.249 94.9388 273.596 95.2384 272.641 95.2384H272.666Z" fill="#15787A"/>
<path fill-rule="evenodd" clip-rule="evenodd" d="M101.166 128.899C101.066 129.673 101.166 130.897 100.036 131.271C98.8797 131.671 97.6232 131.421 96.6684 130.597C95.3115 129.423 94.9094 127.825 94.9848 126.052C95.035 125.028 95.7638 123.605 96.7689 123.38C97.8996 123.131 98.754 123.405 99.7591 124.579C100.789 125.803 101.091 127.176 101.166 128.899Z" fill="#15787A"/>
<path fill-rule="evenodd" clip-rule="evenodd" d="M95.4872 113.217C96.2411 113.117 96.7688 113.267 97.2462 113.492C97.8242 113.742 97.9749 114.216 97.9498 114.79C97.9247 115.515 97.3718 115.44 96.8944 115.49C95.9898 115.615 95.0349 115.59 94.1806 115.839C92.497 116.339 91.5421 117.612 91.0395 119.285C90.6124 120.709 89.6826 121.108 88.3759 120.684C87.3206 120.334 87.5467 119.51 87.4965 118.811C87.4462 118.186 87.7477 117.587 88.1247 117.088C90.0344 114.616 92.4216 113.067 95.4621 113.242L95.4872 113.217Z" fill="#15787A"/>
<path fill-rule="evenodd" clip-rule="evenodd" d="M273.119 48.0187C270.254 47.7441 267.641 49.0425 264.902 49.7667C264.248 49.9415 263.545 50.316 263.067 49.5919C262.615 48.8927 263.319 48.4432 263.746 48.0437C265.731 46.1709 268.093 45.247 270.857 45.4717C271.661 45.5466 272.49 45.4717 273.32 45.4717C273.897 45.4717 274.475 45.5966 274.978 45.9212C275.606 46.3457 275.807 47.1198 275.707 47.7191C275.581 48.4432 274.827 47.9189 274.375 47.9688C273.998 48.0187 273.596 47.9688 273.119 47.9688V48.0187Z" fill="#15787A"/>
<path fill-rule="evenodd" clip-rule="evenodd" d="M271.963 63.2009C271.912 63.4257 271.862 63.975 271.661 64.4245C271.36 65.0737 271.008 65.9977 270.279 65.8978C269.274 65.7729 268.219 65.5482 267.565 64.3496C266.711 62.7764 266.836 61.2532 267.163 59.6801C267.49 58.007 268.847 57.5576 270.153 58.6563C271.46 59.755 271.937 61.2283 271.988 63.2009H271.963Z" fill="#15787A"/>
<path fill-rule="evenodd" clip-rule="evenodd" d="M263.695 26.5938C263.897 28.2169 262.615 29.6153 261.585 31.1136C261.057 31.9126 260.353 31.2634 259.725 31.2634C259.022 31.2634 258.695 30.764 258.544 30.1896C258.117 28.6914 260.178 25.2205 261.66 24.8209C262.942 24.4963 263.746 25.0207 263.695 26.5938Z" fill="#15787A"/>
<path fill-rule="evenodd" clip-rule="evenodd" d="M63.1473 152.521C63.1473 152.272 63.1976 151.847 63.273 151.423C63.3483 150.923 63.2729 150.324 64.0519 150.249C64.7555 150.199 65.3837 150.399 65.5847 151.073C66.1376 152.921 67.3437 154.119 69.1278 154.744C69.8565 154.993 69.8817 155.618 69.9068 156.117C69.9319 156.691 69.3288 156.791 68.8263 156.866C66.2632 157.341 63.0719 154.993 63.1473 152.521Z" fill="#15787A"/>
<path fill-rule="evenodd" clip-rule="evenodd" d="M263.444 82.0539C264.047 82.0539 265.354 83.5022 265.354 84.1764C265.354 85.0254 264.701 85.1752 264.097 85.2501C263.117 85.35 261.585 84.4261 261.735 83.8268C261.962 82.9278 262.64 82.4035 263.469 82.0539H263.444Z" fill="#15787A"/>
<path fill-rule="evenodd" clip-rule="evenodd" d="M364.684 150.173C364.684 150.173 364.56 150.124 364.51 150.099C364.51 150.099 364.56 150.099 364.585 150.099C364.61 150.124 364.634 150.173 364.659 150.198L364.684 150.173Z" fill="#15787A"/>
<path fill-rule="evenodd" clip-rule="evenodd" d="M62.5693 176.393C62.5693 176.393 62.5693 176.169 62.5693 176.069C62.6447 176.119 62.7452 176.169 62.8206 176.194C62.7452 176.268 62.6698 176.318 62.5945 176.393H62.5693Z" fill="#15787A"/>
<path fill-rule="evenodd" clip-rule="evenodd" d="M341.794 50.2661C341.894 50.4159 341.945 50.5657 341.794 50.7156C341.718 50.6407 341.643 50.5657 341.568 50.4908C341.643 50.4159 341.718 50.341 341.819 50.2661H341.794Z" fill="#15787A"/>
</svg>
