<svg width="200" height="200" viewBox="0 0 200 200" fill="none" xmlns="http://www.w3.org/2000/svg">
<g clip-path="url(#clip0_125_16955)">
<circle cx="101.047" cy="100" r="96.8586" fill="white"/>
<path fill-rule="evenodd" clip-rule="evenodd" d="M7.57594 94.0367C8.59366 88.6105 32.0577 70.0895 48.5296 73.236C65.0203 76.3636 78.4957 88.6293 78.4957 88.6293L86.1474 100.009L83.6219 103.552L79.2872 104.663L76.6487 107.998L72.1443 99.7645C72.1443 99.7645 67.8096 106.943 66.8673 109.562C65.925 112.181 64.3607 115.459 64.3607 115.459H58.9517L57.2932 119.265C57.2932 119.265 57.1425 126.01 56.8409 132.284C56.5394 138.559 52.9208 144.965 52.9208 144.965C52.9208 144.965 41.0663 139.991 40.124 150.466C39.1817 160.942 46.3999 163.768 46.3999 163.768C46.3999 163.768 44.8356 170.834 43.8933 171.776C42.951 172.718 22.2197 158.512 14.9073 138.408C7.59479 118.304 6.59592 99.463 7.59479 94.0556L7.57594 94.0367Z" fill="#6BB3A9"/>
<path fill-rule="evenodd" clip-rule="evenodd" d="M76.3853 106.114C77.158 104.833 78.1569 104.569 79.2877 104.644C79.4761 104.644 79.6646 104.607 79.8531 104.588C82.435 104.249 83.9993 101.536 82.9816 99.105C82.0581 96.8818 81.0969 94.6962 80.1358 92.4917C80.0604 92.3222 80.0038 92.1149 79.8907 91.983C77.6857 89.3264 75.4241 86.6886 72.8044 84.4654C70.4486 82.4682 67.7159 80.9609 64.9643 79.529C63.5696 78.813 62.1373 78.1347 60.7615 77.3622C59.9134 76.8912 59.0653 76.552 58.1229 76.3448C54.4667 75.5535 50.867 74.5549 47.0788 74.5172C42.8384 74.4795 38.7675 75.365 34.7532 76.6839C33.2454 77.1738 31.7189 77.5506 30.2488 78.1724C27.0826 79.4724 23.9729 80.8478 21.1836 82.845C19.0728 84.3523 16.9431 85.8031 15.0019 87.5177C14.1539 88.2713 13.6638 89.3076 12.7215 89.9859C12.1373 90.4192 11.6284 90.5323 10.9688 90.4004C9.98876 90.212 9.68721 89.8728 10.0076 88.9684C10.328 88.0264 10.6484 87.122 11.4776 86.3872C13.1361 84.9364 14.8135 83.4668 16.5474 82.1667C18.8467 80.4522 21.504 79.2087 24.0106 77.7767C27.158 75.9868 30.6258 75.2331 33.9239 73.9896C36.6567 72.9534 39.6156 72.1997 42.6499 72.2562C43.2907 72.2562 43.9315 72.2562 44.5534 72.162C46.8904 71.8229 49.2274 71.8794 51.5455 72.3316C53.9578 72.8026 56.3891 73.2548 58.7826 73.8954C61.7603 74.6868 64.5308 76.0433 67.2447 77.5318C69.8832 79.0014 72.5594 80.3768 74.9341 82.2798C76.4418 83.5045 78.0815 84.5973 79.118 86.3307C79.4007 86.8017 79.9473 87.1031 80.3242 87.5177C81.9262 89.1568 83.057 91.0975 84.2255 93.057C85.6013 95.3368 86.2986 97.805 87.0148 100.292C87.5802 102.214 86.1667 105.21 84.3574 106.039C83.2831 106.528 82.2466 107.113 80.9273 106.962C79.9096 106.83 79.2877 107.772 78.6469 108.45C77.1768 109.995 75.3487 109.882 74.0672 108.224C72.8987 106.698 72.5783 104.889 72.1637 103.081C72.0317 102.459 71.9186 101.837 71.8433 101.196C71.7867 100.688 71.3909 99.9717 72.1448 99.7268C72.8044 99.5195 73.6148 99.5384 74.0106 100.273C74.6137 101.385 75.443 102.402 75.5749 103.721C75.6503 104.494 76.046 105.134 76.3853 106.095V106.114Z" fill="#2B726C"/>
<path fill-rule="evenodd" clip-rule="evenodd" d="M94.7791 148.865C94.7791 146.02 94.4776 143.25 94.7414 140.48C94.798 139.802 94.7791 139.049 95.533 138.653C96.1361 138.314 96.7392 138.201 97.1161 138.954C97.3611 139.463 97.6438 140.009 97.6627 140.556C97.7569 143.947 98.6615 147.282 98.2846 150.73C97.9642 153.65 97.9265 156.571 96.9277 159.416C96.0042 162.035 94.308 163.787 91.8391 164.936C88.899 166.312 85.8082 167.254 82.7927 168.403C81.6619 168.837 80.5311 169.27 79.5322 169.929C78.1941 170.815 77.0068 171.644 76.4226 173.472C75.7441 175.544 75.0845 177.711 74.0667 179.633C73.1998 181.291 72.8229 183.194 71.6167 184.644C70.9382 185.436 69.0724 185.511 68.3751 184.795C68.0735 184.475 68.0735 184.136 68.2431 183.759C69.4305 181.14 70.2597 178.37 71.5601 175.789C71.9182 175.073 72.0502 174.244 72.314 173.472C73.671 169.496 76.6487 167.423 80.3992 166.161C83.6973 165.049 87.0143 163.976 90.1617 162.468C90.859 162.129 91.5187 161.79 91.8956 161.074C92.7249 159.454 93.573 157.89 93.9876 156.062C94.4211 154.14 94.5153 152.219 94.7226 150.278C94.7791 149.769 94.9488 149.298 94.7791 148.865Z" fill="#2B726C"/>
<path fill-rule="evenodd" clip-rule="evenodd" d="M61.5911 116.458C59.3672 116.081 58.5002 117.965 57.2752 119.246C57.0113 119.529 57.2187 119.981 57.2187 120.358C57.294 122.073 57.9348 123.693 58.1798 125.37C58.406 127.028 58.9148 128.686 58.406 130.4C58.2552 130.89 58.5945 131.512 58.6321 132.058C58.8018 135.676 58.4814 139.275 57.539 142.779C57.1056 144.437 56.2009 145.944 54.222 146.321C53.864 146.397 53.487 146.717 53.1855 146.34C52.8462 145.944 52.6766 145.492 52.9028 144.927C53.242 144.041 53.619 143.156 53.8451 142.252C54.844 138.182 55.0324 134.018 55.0513 129.873C55.0513 127.16 54.3351 124.484 53.7509 121.828C53.6943 121.583 53.619 121.338 53.5436 121.093C52.8839 119.303 53.619 117.927 54.8817 116.722C56.7286 114.969 58.7452 113.688 61.4591 113.858C62.7219 113.933 63.5134 113.33 64.1353 112.143C65.1342 110.221 65.5488 108.092 66.3216 106.095C66.5854 105.379 66.8681 104.682 67.3016 104.06C67.8481 103.288 68.6208 103.363 69.1297 104.192C69.5443 104.87 69.6385 105.662 69.6197 106.397C69.5632 109.392 68.5266 112.106 66.7927 114.48C65.5865 116.119 63.683 116.552 61.6099 116.439L61.5911 116.458Z" fill="#2B726C"/>
<path fill-rule="evenodd" clip-rule="evenodd" d="M51.4705 166.105C48.6623 166.161 46.1369 165.332 43.7245 163.938C42.9895 163.504 42.4618 162.958 41.9529 162.28C40.0871 159.812 39.0694 156.985 38.2402 154.046C37.8444 152.614 38.2967 151.258 38.5417 149.92C39.0694 147.018 40.2944 144.588 43.1026 143.099C45.2888 141.95 47.3619 142.195 49.4916 142.93C49.9816 143.099 50.302 143.552 50.5093 144.023C50.8862 144.833 50.5847 145.436 49.6989 145.492C49.0769 145.53 48.3231 145.605 47.8331 145.304C46.2123 144.268 45.0626 145.36 44.1957 146.284C41.7456 148.921 41.331 152.162 42.4052 155.478C42.8576 156.891 43.5549 158.267 44.2711 159.623C45.9296 162.751 48.7189 163.58 51.8662 163.674C52.7897 163.693 53.487 163.862 54.0713 164.465C54.599 165.012 54.4105 165.69 53.6755 165.973C52.9593 166.255 52.1866 166.161 51.4328 166.142L51.4705 166.105Z" fill="#2B726C"/>
<path fill-rule="evenodd" clip-rule="evenodd" d="M99.2835 130.287C99.2081 131.324 99.2458 132.077 98.982 132.831C98.6427 133.829 97.9454 134.395 96.9466 134.583C95.5331 134.847 94.7604 134.037 95.043 132.624C95.1373 132.19 95.2692 131.776 95.3634 131.342C95.8911 128.931 94.6284 127.423 92.8192 126.142C90.878 124.767 89.4833 122.92 88.541 120.735C87.8437 119.114 87.429 117.381 86.2982 115.949C86.0532 115.629 86.0344 115.12 85.9025 114.706C85.4124 113.142 85.1486 111.503 84.0932 110.165C83.6786 109.637 83.3959 108.921 83.8293 108.413C84.3382 107.772 85.1486 108.055 85.7517 108.413C87.2594 109.298 88.3714 110.485 88.9556 112.219C89.8414 114.837 90.746 117.475 91.8957 120C92.5553 121.47 93.5353 122.826 94.9111 123.844C96.3435 124.88 97.6062 126.142 98.6993 127.537C99.3966 128.441 99.4908 129.515 99.3024 130.344L99.2835 130.287Z" fill="#2B726C"/>
<path fill-rule="evenodd" clip-rule="evenodd" d="M46.0986 153.01C46.2306 152.369 46.2871 151.917 46.4002 151.503C46.551 150.862 47.0033 150.561 47.6252 150.485C48.266 150.391 48.7749 150.636 49.0576 151.201C49.4156 151.936 49.6983 152.708 49.981 153.481C50.5276 154.969 51.0741 156.42 52.2426 157.588C52.7515 158.097 53.1661 158.87 52.5819 159.642C52.0542 160.339 51.2438 160.452 50.358 159.868C49.3779 159.209 48.4733 158.474 47.8325 157.4C46.9656 155.968 46.7394 154.348 46.0986 153.029V153.01Z" fill="#2B726C"/>
<path fill-rule="evenodd" clip-rule="evenodd" d="M76.6868 124.032C76.6868 123.844 76.6491 123.523 76.6868 123.222C76.8376 122.299 77.2334 121.526 78.1946 121.225C79.0426 120.942 79.6834 121.432 80.23 121.96C81.3231 123.015 81.9073 124.315 82.0204 125.841C82.1146 127.122 81.6623 128.008 80.7577 128.347C79.8719 128.686 78.2699 128.196 77.7045 127.367C77.0449 126.425 76.536 125.389 76.6868 124.051V124.032Z" fill="#2B726C"/>
<path fill-rule="evenodd" clip-rule="evenodd" d="M85.1864 149.487C84.3006 149.43 83.3959 149.411 82.6232 148.884C82.3028 148.658 81.9448 148.469 81.9636 148.017C82.0013 147.508 82.3594 147.244 82.8117 147.094C83.1132 147 83.4336 146.905 83.7352 146.868C85.0921 146.698 86.2795 146.114 87.3726 145.304C88.1453 144.739 88.9745 144.098 89.9546 144.739C90.6142 145.153 90.388 146.265 89.5022 147.471C88.5411 148.771 86.9579 149.505 85.1864 149.468V149.487Z" fill="#2B726C"/>
<path fill-rule="evenodd" clip-rule="evenodd" d="M77.2338 112.388C77.2338 112.388 77.4788 112.388 77.6673 112.407C78.063 112.426 78.4588 112.463 78.4965 112.972C78.5342 113.424 78.2704 113.669 77.8746 113.82C77.46 113.971 77.0642 114.178 76.6307 114.291C74.8026 114.781 73.521 115.949 72.541 117.513C72.3714 117.777 72.2206 118.097 71.9944 118.285C71.561 118.606 71.1087 118.549 70.9956 117.946C70.7694 116.74 71.1463 115.704 71.9379 114.8C73.2949 113.217 75.0287 112.426 77.2526 112.388H77.2338Z" fill="#2B726C"/>
<path opacity="0.4" fill-rule="evenodd" clip-rule="evenodd" d="M76.7247 132.737C77.2524 134.828 75.6693 137.033 73.1815 137.673C70.6938 138.314 68.2437 137.127 67.6971 135.035C67.1694 132.944 68.7526 130.721 71.2403 130.099C73.728 129.458 76.1781 130.645 76.7247 132.737Z" fill="#E06765"/>
<path d="M97.3618 200C95.7975 199.962 94.5725 198.662 94.6102 197.098C94.6479 195.535 95.9483 194.31 97.5125 194.348C99.0768 194.385 100.302 195.685 100.264 197.249C100.226 198.775 98.9637 200 97.4371 200H97.3618ZM104.957 197.117C104.825 195.553 105.993 194.197 107.558 194.084C109.103 193.952 110.479 195.12 110.592 196.665C110.724 198.229 109.556 199.586 108.01 199.717H107.784C106.314 199.717 105.07 198.606 104.957 197.117ZM86.7511 199.171C85.2057 198.964 84.1126 197.551 84.3199 196.006C84.5272 194.461 85.9407 193.368 87.4861 193.575C89.0316 193.764 90.1247 195.195 89.9362 196.74C89.7477 198.154 88.5227 199.19 87.1281 199.19C86.9961 199.19 86.8831 199.19 86.7511 199.171ZM115.247 196.043C114.964 194.517 115.963 193.029 117.509 192.746C119.035 192.464 120.524 193.462 120.807 195.007C121.09 196.533 120.091 198.022 118.545 198.304C118.357 198.342 118.187 198.361 118.018 198.361C116.68 198.361 115.492 197.4 115.228 196.043H115.247ZM76.2913 197.23C74.7647 196.854 73.8412 195.327 74.1993 193.82C74.5762 192.294 76.1028 191.371 77.6294 191.729C79.1371 192.106 80.0606 193.632 79.7025 195.139C79.3821 196.439 78.2325 197.306 76.9509 197.306C76.7436 197.306 76.5174 197.287 76.2913 197.23ZM125.368 193.895C124.915 192.388 125.764 190.824 127.271 190.372C128.76 189.92 130.343 190.768 130.777 192.256C131.229 193.745 130.4 195.327 128.892 195.78C128.628 195.855 128.346 195.893 128.082 195.893C126.857 195.893 125.745 195.101 125.368 193.895ZM66.0953 194.159C64.6252 193.632 63.8525 192.011 64.3802 190.561C64.9079 189.091 66.5287 188.318 67.9988 188.846C69.4688 189.374 70.2415 190.994 69.7138 192.464C69.2803 193.613 68.2061 194.329 67.0376 194.329C66.7361 194.329 66.3968 194.272 66.0953 194.159ZM135.206 190.655C134.584 189.223 135.262 187.565 136.713 186.943C138.146 186.34 139.804 187.018 140.407 188.45C141.029 189.882 140.351 191.54 138.918 192.162C138.542 192.313 138.183 192.388 137.807 192.388C136.713 192.388 135.658 191.729 135.206 190.655ZM56.2762 190.033C54.8627 189.355 54.2785 187.659 54.9569 186.265C55.6543 184.852 57.3316 184.268 58.7451 184.946C60.1397 185.624 60.724 187.32 60.0455 188.733C59.5555 189.732 58.5566 190.316 57.5012 190.316C57.0866 190.316 56.672 190.221 56.2762 190.033ZM144.629 186.397C143.875 185.021 144.365 183.307 145.722 182.553C147.098 181.781 148.813 182.289 149.567 183.646C150.34 185.002 149.831 186.736 148.474 187.489C148.04 187.734 147.569 187.847 147.098 187.847C146.118 187.847 145.138 187.32 144.629 186.397ZM46.9471 184.889C45.6279 184.06 45.2321 182.308 46.0613 180.989C46.8906 179.67 48.6245 179.256 49.9437 180.085C51.2818 180.914 51.6776 182.666 50.8484 183.985C50.3207 184.833 49.3972 185.304 48.4549 185.304C47.946 185.304 47.4183 185.172 46.9471 184.889ZM153.543 181.159C152.658 179.878 152.959 178.106 154.222 177.221H154.241C155.503 176.317 157.275 176.618 158.18 177.899C159.065 179.162 158.764 180.933 157.482 181.837C156.992 182.176 156.427 182.346 155.862 182.346C154.976 182.346 154.109 181.931 153.543 181.159ZM38.24 178.766C37.015 177.805 36.7888 176.034 37.75 174.79C38.73 173.566 40.5016 173.358 41.7266 174.319C42.9517 175.28 43.1778 177.051 42.2166 178.295C41.6512 178.992 40.822 179.369 39.9927 179.369C39.3708 179.369 38.7489 179.18 38.24 178.766ZM161.855 174.998C160.837 173.811 160.95 172.04 162.137 171.003C163.306 169.967 165.078 170.08 166.114 171.267C167.151 172.435 167.019 174.225 165.85 175.261C165.323 175.714 164.663 175.959 163.984 175.959C163.212 175.959 162.42 175.619 161.855 174.998ZM30.2114 171.776C29.0994 170.683 29.0806 168.893 30.1548 167.781C31.2479 166.651 33.0384 166.632 34.1503 167.706C35.2811 168.799 35.2999 170.589 34.2257 171.719C33.6603 172.285 32.9253 172.567 32.1903 172.567C31.4741 172.567 30.7768 172.303 30.2114 171.776ZM169.488 167.989C168.338 166.934 168.263 165.144 169.318 163.994C170.392 162.845 172.164 162.77 173.314 163.825C174.463 164.899 174.539 166.689 173.483 167.819C172.918 168.422 172.164 168.742 171.391 168.742C170.713 168.742 170.015 168.497 169.488 167.989ZM22.9931 163.957C21.9943 162.77 22.145 160.98 23.3512 159.981C24.5574 158.983 26.329 159.152 27.3278 160.339C28.3267 161.545 28.1759 163.335 26.9698 164.334C26.442 164.767 25.8013 164.974 25.1605 164.974C24.3501 164.974 23.5397 164.635 22.9931 163.957ZM176.31 160.207C175.066 159.284 174.802 157.513 175.726 156.251C176.668 155.007 178.44 154.743 179.684 155.685C180.946 156.609 181.21 158.38 180.268 159.623C179.721 160.377 178.873 160.773 178.006 160.773C177.422 160.773 176.819 160.584 176.31 160.207ZM16.623 155.44C15.756 154.14 16.0953 152.388 17.3957 151.521C18.6961 150.655 20.4488 150.994 21.3346 152.294C22.1827 153.594 21.8435 155.346 20.5431 156.213C20.0531 156.533 19.5065 156.703 18.9788 156.703C18.0553 156.703 17.1695 156.251 16.623 155.44ZM182.284 151.766C180.946 150.975 180.494 149.242 181.286 147.904C182.077 146.547 183.792 146.095 185.149 146.905C186.487 147.697 186.94 149.43 186.148 150.768C185.62 151.653 184.678 152.162 183.698 152.162C183.227 152.162 182.718 152.03 182.266 151.766H182.284ZM11.1952 146.284C10.4601 144.908 11.0067 143.194 12.3825 142.459C13.7771 141.743 15.4733 142.27 16.2084 143.665C16.9245 145.04 16.3968 146.755 15.0022 147.471C14.5875 147.697 14.1352 147.791 13.7018 147.791C12.684 147.791 11.704 147.244 11.1952 146.284ZM187.335 142.723C185.922 142.082 185.281 140.405 185.922 138.992C186.563 137.56 188.24 136.938 189.653 137.579C191.086 138.22 191.708 139.896 191.067 141.328C190.577 142.365 189.559 142.986 188.485 142.986C188.089 142.986 187.693 142.892 187.317 142.723H187.335ZM6.76621 136.599C6.20081 135.148 6.91698 133.509 8.36817 132.925C9.81936 132.36 11.459 133.076 12.0433 134.527C12.6275 135.977 11.9113 137.617 10.4601 138.201C10.1209 138.333 9.76282 138.389 9.42358 138.389C8.29278 138.389 7.23737 137.711 6.78506 136.599H6.76621ZM191.387 133.208C189.899 132.718 189.088 131.116 189.597 129.628C190.087 128.158 191.67 127.348 193.159 127.838C194.648 128.328 195.439 129.929 194.949 131.399C194.572 132.586 193.46 133.34 192.273 133.34C191.972 133.34 191.67 133.302 191.387 133.208ZM3.41152 126.5C2.99689 124.993 3.88268 123.429 5.39041 123.015C6.89814 122.619 8.44356 123.505 8.85818 125.012C9.27281 126.519 8.38702 128.064 6.87929 128.479C6.63428 128.535 6.38928 128.573 6.14427 128.573C4.9004 128.573 3.75076 127.744 3.41152 126.5ZM194.403 123.297C192.857 122.977 191.896 121.47 192.217 119.944C192.556 118.417 194.064 117.456 195.59 117.777C197.098 118.097 198.078 119.604 197.758 121.131C197.475 122.468 196.287 123.373 194.987 123.373C194.799 123.373 194.591 123.373 194.403 123.297ZM1.14993 116.1C0.904921 114.555 1.94148 113.104 3.4869 112.859C5.03232 112.595 6.48351 113.651 6.72852 115.196C6.97352 116.74 5.93696 118.191 4.39154 118.436C4.24077 118.436 4.08999 118.474 3.93922 118.474C2.58227 118.474 1.37609 117.475 1.14993 116.1ZM196.325 113.142C194.761 112.972 193.649 111.578 193.8 110.033C193.969 108.469 195.364 107.358 196.909 107.508C198.474 107.678 199.604 109.072 199.435 110.617C199.284 112.068 198.04 113.161 196.627 113.161C196.514 113.161 196.419 113.161 196.325 113.161V113.142ZM0.0191309 105.511C-0.0751021 103.966 1.13108 102.628 2.6765 102.553C4.24077 102.459 5.56003 103.646 5.65426 105.21C5.74849 106.773 4.54231 108.092 2.97805 108.187H2.82727C1.33839 108.187 0.0945172 107.018 0.0191309 105.511ZM194.327 100.009C194.327 100.009 194.327 99.8776 194.327 99.8022C194.327 99.8022 194.327 99.6703 194.327 99.6138C194.327 98.05 195.59 96.7876 197.154 96.7876C198.7 96.7876 199.981 98.0311 199.981 99.5949V99.7834C199.981 99.7834 199.981 99.9341 199.981 100.009C199.981 101.554 198.7 102.836 197.154 102.836C195.571 102.836 194.309 101.554 194.309 100.009H194.327ZM2.6765 97.8427C1.11223 97.7673 -0.0939487 96.4485 0.00028427 94.8846C0.0756706 93.3208 1.39493 92.115 2.9592 92.1903C4.52347 92.2845 5.7108 93.6034 5.63541 95.1672C5.56003 96.6745 4.31615 97.8427 2.82727 97.8427H2.6765ZM193.762 89.5902C193.592 88.0452 194.723 86.6322 196.269 86.4626C197.814 86.293 199.209 87.4235 199.378 88.9685C199.548 90.5135 198.436 91.9266 196.891 92.0961H196.57C195.157 92.0961 193.932 91.041 193.762 89.5902ZM3.43036 87.5365C1.90379 87.2916 0.848381 85.8408 1.09339 84.2958C1.33839 82.7509 2.77073 81.6957 4.31615 81.9407C5.86157 82.1856 6.91698 83.6364 6.67198 85.1814C6.44582 86.5756 5.25848 87.5554 3.88268 87.5554C3.73191 87.5554 3.58114 87.5554 3.43036 87.5365ZM192.141 79.6797C191.802 78.1536 192.763 76.6463 194.29 76.3071C195.816 75.968 197.324 76.9478 197.663 78.4739C198.003 80 197.041 81.5073 195.515 81.8276C195.307 81.8842 195.1 81.903 194.893 81.903C193.592 81.903 192.424 80.9986 192.141 79.6797ZM5.29618 77.3434C3.78845 76.9477 2.90266 75.3839 3.29844 73.8955C3.71306 72.3882 5.25848 71.4838 6.76621 71.8983C8.27394 72.294 9.15973 73.8578 8.76395 75.3651C8.42471 76.6274 7.27507 77.4565 6.03119 77.4565C5.80503 77.4565 5.54118 77.4188 5.29618 77.3434ZM189.465 69.9953C188.975 68.5257 189.767 66.9242 191.255 66.4343C192.725 65.9256 194.327 66.7358 194.836 68.2054C195.326 69.6939 194.535 71.2954 193.046 71.7852C192.744 71.8794 192.443 71.936 192.141 71.936C190.973 71.936 189.861 71.1823 189.465 69.9953ZM8.23624 67.4329C6.78506 66.8677 6.05004 65.2285 6.63428 63.7589C7.19968 62.3081 8.82049 61.5921 10.2905 62.1574C11.7417 62.7226 12.4579 64.3618 11.8925 65.8126C11.459 66.943 10.3848 67.6213 9.25396 67.6213C8.91472 67.6213 8.57548 67.5648 8.23624 67.4329ZM185.771 60.6689C185.111 59.2558 185.771 57.5789 187.166 56.9195C188.579 56.26 190.257 56.9195 190.916 58.3137C191.557 59.7268 190.916 61.4037 189.522 62.0631C189.145 62.2327 188.73 62.3081 188.353 62.3081C187.279 62.3081 186.242 61.7052 185.771 60.6689ZM12.2317 57.8804C10.8371 57.1644 10.2905 55.4499 11.0067 54.0745C11.7229 52.6802 13.4379 52.1338 14.8137 52.8498C16.2084 53.5846 16.7549 55.2803 16.0387 56.6746C15.5299 57.6355 14.5499 58.1819 13.5133 58.1819C13.0798 58.1819 12.6463 58.0876 12.2317 57.8804ZM181.097 51.7758C180.306 50.4381 180.739 48.7047 182.096 47.9134C183.434 47.1032 185.149 47.5554 185.96 48.8931C186.751 50.2308 186.318 51.9642 184.98 52.7744C184.527 53.0382 184.018 53.1701 183.528 53.1701C182.567 53.1701 181.625 52.6802 181.097 51.7758ZM17.2072 48.7989C15.9068 47.9322 15.5487 46.18 16.3968 44.8799C17.2638 43.5799 19.0165 43.2219 20.3169 44.0886C21.6173 44.9553 21.9754 46.7075 21.1273 48.0076C20.5808 48.8366 19.6761 49.2699 18.7526 49.2699C18.2249 49.2699 17.6784 49.1192 17.2072 48.7989ZM175.519 43.448C174.576 42.1856 174.821 40.4145 176.084 39.4913C177.328 38.5493 179.099 38.7942 180.042 40.0566C180.965 41.3001 180.72 43.0712 179.476 44.0132C178.967 44.39 178.364 44.5785 177.78 44.5785C176.913 44.5785 176.065 44.1828 175.519 43.448ZM23.125 40.3203C21.9189 39.3218 21.7492 37.5318 22.7481 36.3448C23.7281 35.139 25.5186 34.9506 26.7247 35.9492C27.9309 36.9478 28.1005 38.7377 27.1017 39.9247C26.5363 40.603 25.7259 40.9609 24.9155 40.9609C24.2747 40.9609 23.6528 40.7537 23.125 40.3203ZM169.073 35.7419C168.018 34.5926 168.074 32.8027 169.224 31.7476C170.355 30.6736 172.145 30.749 173.219 31.8983C174.275 33.0288 174.218 34.8187 173.068 35.8738C172.522 36.3825 171.825 36.6463 171.146 36.6463C170.392 36.6463 169.62 36.326 169.073 35.7419ZM29.9098 32.5012C28.7979 31.3707 28.8356 29.5997 29.9475 28.5069C31.0595 27.4141 32.8499 27.4329 33.943 28.5445C35.0361 29.6562 35.0172 31.4461 33.9053 32.5389C33.3399 33.0853 32.6237 33.3491 31.9264 33.3491C31.1914 33.3491 30.4564 33.0665 29.9098 32.5012ZM161.855 28.7518C160.667 27.7344 160.554 25.9445 161.572 24.7575C162.59 23.5893 164.38 23.4574 165.568 24.4937C166.736 25.5111 166.868 27.301 165.831 28.4692C165.285 29.1286 164.493 29.4489 163.702 29.4489C163.042 29.4489 162.382 29.2228 161.855 28.7518ZM37.4673 25.4357C36.5061 24.2111 36.7134 22.44 37.9385 21.4602C39.1635 20.4993 40.9351 20.7066 41.8962 21.9313C42.8763 23.1559 42.669 24.927 41.4439 25.9068C40.9162 26.3213 40.3131 26.5097 39.6912 26.5097C38.8619 26.5097 38.0327 26.1517 37.4673 25.4357ZM153.939 22.5719C152.639 21.6863 152.337 19.9153 153.223 18.634C154.128 17.3528 155.88 17.0514 157.162 17.9369C158.444 18.8413 158.764 20.5935 157.859 21.8747C157.313 22.6661 156.427 23.0806 155.541 23.0806C154.995 23.0806 154.429 22.911 153.939 22.5719ZM45.741 19.2181C44.9117 17.8992 45.3075 16.1658 46.6267 15.318C47.946 14.489 49.6987 14.8846 50.528 16.2035C51.3572 17.5224 50.9615 19.2746 49.6422 20.1037C49.171 20.4051 48.6433 20.537 48.1345 20.537C47.1921 20.537 46.2687 20.0848 45.741 19.2181ZM145.402 17.2586C144.026 16.505 143.536 14.7904 144.29 13.4339C145.044 12.0584 146.759 11.5686 148.134 12.3222C149.491 13.0759 150 14.7904 149.246 16.147C148.719 17.0891 147.758 17.6166 146.759 17.6166C146.306 17.6166 145.835 17.5036 145.402 17.2586ZM54.6177 13.9237C53.9392 12.5106 54.5046 10.8149 55.9181 10.1366C57.3128 9.43951 59.0089 10.0236 59.7063 11.4367C60.3848 12.8309 59.8005 14.5266 58.4059 15.2049C58.0101 15.4122 57.5766 15.5064 57.162 15.5064C56.1254 15.5064 55.1077 14.9223 54.6177 13.9237ZM136.355 12.9063C134.923 12.3034 134.245 10.6454 134.848 9.19457C135.451 7.76264 137.09 7.08435 138.542 7.68727C139.974 8.29019 140.652 9.94822 140.049 11.3802C139.597 12.473 138.56 13.1136 137.448 13.1136C137.09 13.1136 136.713 13.057 136.355 12.9063ZM64.0221 9.59024C63.4944 8.12062 64.2483 6.50027 65.7183 5.97272C67.1695 5.42632 68.7903 6.17997 69.3369 7.64959C69.8646 9.11921 69.1107 10.7396 67.6407 11.286C67.3203 11.399 66.9999 11.4555 66.6795 11.4555C65.5299 11.4555 64.4368 10.7396 64.0221 9.59024ZM126.894 9.51487C125.405 9.08153 124.539 7.49886 124.991 6.0104C125.443 4.52194 127.007 3.65524 128.515 4.10743C130.004 4.54078 130.852 6.12345 130.419 7.61191C130.042 8.85543 128.93 9.64676 127.705 9.64676C127.441 9.64676 127.158 9.60908 126.894 9.51487ZM73.8224 6.29302C73.4643 4.76688 74.3878 3.24073 75.8955 2.86391C77.4221 2.48708 78.9486 3.41031 79.3256 4.93645C79.6837 6.44375 78.7602 7.98873 77.2525 8.34672C77.0263 8.40324 76.8001 8.44092 76.574 8.44092C75.2924 8.44092 74.1428 7.57422 73.8224 6.29302ZM117.132 7.17856C115.586 6.89594 114.569 5.42632 114.87 3.88134C115.153 2.3552 116.623 1.33777 118.15 1.62039C119.695 1.90301 120.713 3.37262 120.43 4.91761C120.166 6.27418 118.979 7.23508 117.641 7.23508C117.471 7.23508 117.301 7.21624 117.132 7.17856ZM83.943 4.05091C83.7168 2.50593 84.8099 1.09283 86.3554 0.866736C87.9008 0.659482 89.3331 1.75228 89.5404 3.29726C89.7477 4.84224 88.6546 6.27418 87.1092 6.48143C86.9773 6.50027 86.8454 6.50027 86.7134 6.50027C85.3188 6.50027 84.1126 5.48284 83.9241 4.05091H83.943ZM107.181 5.89735C105.617 5.76546 104.448 4.40889 104.561 2.86391C104.693 1.30009 106.05 0.131927 107.595 0.263816C109.16 0.376863 110.328 1.73343 110.196 3.27842C110.083 4.76688 108.858 5.89735 107.388 5.89735H107.181ZM94.2144 2.92043C94.1767 1.35661 95.4017 0.0565618 96.966 3.80176e-05C98.5303 -0.0376445 99.8307 1.18704 99.8684 2.75086C99.9249 4.31469 98.681 5.61473 97.1356 5.65242H97.0414C95.5148 5.65242 94.2709 4.44658 94.2144 2.92043Z" fill="#376B77"/>
<path fill-rule="evenodd" clip-rule="evenodd" d="M164.606 80.6218C164.21 80.829 163.795 80.9421 163.343 80.9421C154.711 81.0928 146.08 81.0174 137.429 80.9797C131.737 80.9609 126.046 80.9797 120.373 80.9609C111.496 80.9421 102.601 81.0174 93.7049 80.9797C90.9156 80.9797 88.1075 80.7536 85.3182 81.0363C84.4512 81.1116 83.7162 80.6971 82.9058 80.6218C82.3216 80.5652 82.0766 80.0754 82.0389 79.5101C81.9446 77.626 81.3792 75.8172 81.6431 73.8766C81.8693 72.0678 81.5677 70.2025 81.6619 68.3749C81.9258 63.7211 81.6619 59.0485 81.7185 54.3947C81.7562 51.87 81.775 49.3453 81.4169 46.8205C81.3792 46.5756 81.3792 46.3118 81.4169 46.048C81.6996 44.5784 81.907 43.1653 81.7562 41.6203C81.6054 40.0565 82.2462 39.5855 83.8858 39.2652C85.959 38.8507 88.0698 39.0014 90.1429 38.9826C95.4765 38.926 100.81 39.0956 106.125 39.1145C111.44 39.1145 116.773 38.9826 122.088 38.9826C126.46 38.9826 130.852 39.0768 135.224 39.0768C138.183 39.0768 141.161 38.9826 144.12 38.9826C148.115 38.9826 152.11 39.1145 156.087 39.0579C158.123 39.0391 160.139 38.9826 162.175 39.2275C163.079 39.3406 163.871 39.5855 164.587 40.0942V50.0235C164.022 50.5323 164.04 51.041 164.587 51.5497V80.5841L164.606 80.6218ZM121.654 62.6284C121.014 63.1182 121.108 63.8719 120.901 64.5313C120.241 66.7734 119.638 69.0532 118.959 71.2953C118.79 71.8606 118.658 72.6142 117.791 72.5765C116.943 72.5389 116.038 72.7461 115.265 72.1809C115.586 71.1823 115.831 70.2779 116.17 69.3924C117.056 67.0184 117.734 64.6067 118.243 62.1196C118.375 61.4979 118.601 60.8196 118.281 60.2544C117.527 58.8978 116.943 57.4093 115.906 56.26C115.755 56.2977 115.68 56.3165 115.642 56.3542C115.548 56.4296 115.435 56.5238 115.378 56.618C114.493 58.4268 113.305 59.8022 111.044 59.7268C110.007 59.6891 109.8 60.4428 109.894 61.2718C110.215 64.2487 109.951 67.2445 110.101 70.2214C110.139 70.8055 110.252 71.333 110.535 71.8417C111.779 74.0462 113.381 76.0245 114.813 78.1159C115.039 78.455 115.265 78.7376 115.699 78.7188C116.66 78.6623 117.621 78.5869 118.79 78.4927C117.565 76.797 116.509 75.3085 115.586 73.6128C116.377 73.1983 117.056 73.1606 117.829 73.1606C118.752 73.1606 119.204 73.3867 119.732 74.2534C120.373 75.3085 121.164 76.326 121.881 77.3622C122.408 78.097 123.03 78.3797 123.916 78.5304C124.934 78.7 125.951 78.6246 126.95 78.6434C129.608 78.7188 132.284 78.6057 135.017 78.5681C134.809 77.7014 134.338 77.268 133.942 76.7781C132.736 75.3274 131.568 73.8389 130.38 72.3505C130.022 71.8983 129.702 71.4649 129.74 70.8243C129.796 69.8822 129.74 68.9213 129.777 67.9793C129.815 66.6415 129.683 66.4343 128.307 66.585C126.781 66.7546 125.254 66.6792 123.728 66.6792C122.352 66.6792 122.257 66.5662 122.069 65.1908C121.937 64.3429 122.163 63.4197 121.598 62.6472L121.654 62.6284ZM122.22 54.7904C122.597 55.6948 122.917 56.5238 123.256 57.334C123.765 58.5586 124.557 59.6891 124.821 61.008C125.009 61.8747 124.726 62.9487 125.311 63.5893C126.008 64.3241 127.101 63.7211 128.025 63.7965C129.758 63.9284 129.834 63.7965 129.834 62.082C129.815 56.7499 129.796 51.4366 129.758 46.1046C129.758 44.7857 129.758 44.7668 128.439 44.7668C125.273 44.7668 122.088 44.7668 118.922 44.7857C116.377 44.7857 113.833 44.8422 111.308 44.7857C110.252 44.7668 110.007 45.219 110.007 46.1234C110.026 48.0264 110.007 49.9105 110.007 51.8135C110.007 53.2642 109.97 54.7339 110.007 56.1846C110.045 57.3716 110.591 57.6354 111.553 56.9571C112.344 56.3919 112.872 55.6006 113.362 54.7715C114.361 53.057 115.85 52.1149 117.847 51.983C119.751 51.8512 121.654 51.8135 123.558 51.9077C124.067 51.9265 124.594 51.9077 125.009 52.2845C126.083 53.2831 127.082 54.357 127.78 55.6571C128.062 56.2035 128.062 56.8064 127.478 57.1832C126.969 57.5035 126.347 57.5601 125.895 57.089C125.461 56.6368 125.047 56.147 124.726 55.6006C124.161 54.6208 123.407 54.3194 122.182 54.7904H122.22ZM96.023 54.3194C93.8368 53.7918 93.1584 53.7918 92.4045 54.6585C91.0852 56.2035 89.8414 57.805 88.5598 59.4065C88.1452 59.9152 88.1263 60.3674 88.5786 60.9326C89.7471 62.3646 90.8779 63.8154 91.8014 65.4169C92.0841 65.9067 92.4045 66.1894 93.0076 66.1705C93.818 66.1328 94.6284 66.2647 95.5142 66.0198C94.9299 64.2487 93.3091 63.2124 92.7437 61.3283C93.5918 61.3283 94.2892 61.3283 94.9865 61.3283C97.7946 61.3283 100.584 61.3283 103.392 61.3095C103.807 61.3095 104.391 61.479 104.579 60.9703C104.824 60.3109 104.806 59.5761 104.579 58.9166C104.372 58.276 103.712 58.5398 103.241 58.521C100.377 58.4644 97.5119 58.4833 94.6472 58.4268C94.2515 58.4268 93.7426 58.6528 93.4788 58.0122C94.2703 56.7687 95.3634 55.6948 96.0042 54.2817L96.023 54.3194ZM134.998 59.0862C134.998 59.0862 135.035 59.0862 135.073 59.0862C135.073 60.1602 135.054 61.2341 135.073 62.3081C135.092 63.0052 135.412 63.5704 136.204 63.5893C137.599 63.6081 138.993 63.6269 140.388 63.5893C140.859 63.5893 141.255 63.2878 141.217 62.7414C141.179 62.2138 140.803 61.9689 140.313 61.9501C139.483 61.9124 138.673 61.9124 137.844 61.9312C137.222 61.9312 136.713 61.8935 136.732 61.0457C136.751 60.179 137.335 60.2167 137.9 60.2167C138.466 60.2167 139.05 60.2167 139.615 60.2167C140.199 60.1978 140.859 60.1413 140.878 59.3877C140.878 58.634 140.275 58.521 139.672 58.521C138.974 58.521 138.277 58.521 137.58 58.521C137.071 58.521 136.732 58.3702 136.732 57.7673C136.732 57.1832 137.033 56.9948 137.561 56.9948C138.39 56.9948 139.201 56.9948 140.03 56.9948C140.576 56.9948 141.104 56.8441 141.161 56.2223C141.217 55.4498 140.595 55.3179 139.992 55.2991C138.729 55.2803 137.448 55.2991 136.185 55.2991C135.431 55.2991 134.998 55.6948 134.998 56.4673C134.998 57.3528 134.998 58.2383 134.998 59.1239V59.0862ZM145.326 61.5921C145.929 61.8935 146.098 62.553 146.513 63.024C146.89 63.4574 147.323 63.6835 147.832 63.4008C148.492 63.024 148.341 62.4399 148.04 61.9124C147.757 61.4225 147.455 60.9326 147.097 60.4804C146.551 59.8022 146.457 59.1616 147.022 58.4456C147.418 57.9557 147.719 57.3905 148.002 56.8252C148.247 56.3354 148.266 55.8078 147.7 55.5064C147.173 55.2049 146.739 55.4498 146.381 55.8832C145.985 56.3542 145.816 57.0137 145.25 57.3716C144.666 57.1267 144.496 56.5426 144.157 56.0904C143.78 55.6194 143.347 55.1861 142.725 55.5629C142.009 56.0151 142.254 56.6368 142.593 57.2209C142.895 57.7108 143.196 58.1818 143.554 58.634C144.006 59.2181 144.063 59.7456 143.592 60.3486C143.328 60.7065 143.102 61.0834 142.895 61.479C142.518 62.1196 141.914 62.8733 142.838 63.4385C143.648 63.9284 144.063 63.1748 144.459 62.5907C144.704 62.2327 144.855 61.7805 145.307 61.5732L145.326 61.5921ZM155.635 60.2544H155.672C155.672 61.0834 155.635 61.9124 155.672 62.7226C155.71 63.2124 155.993 63.5704 156.539 63.5139C156.973 63.4762 157.218 63.1748 157.274 62.7791C157.331 62.4023 157.312 62.0254 157.312 61.6298C157.312 60.4804 157.331 59.3311 157.312 58.2007C157.312 57.5035 157.482 57.089 158.254 57.1267C158.499 57.1267 158.763 57.1267 159.008 57.0702C159.423 56.9948 159.725 56.7499 159.743 56.3165C159.762 55.789 159.442 55.4498 158.933 55.4498C157.463 55.4122 156.012 55.431 154.542 55.4498C154.052 55.4498 153.656 55.6759 153.599 56.1846C153.524 56.731 153.92 57.0702 154.391 57.0702C155.597 57.0702 155.654 57.8238 155.616 58.7282C155.578 59.2369 155.616 59.7456 155.616 60.2544H155.635ZM150.113 59.4253C150.113 60.3862 150.113 61.3283 150.113 62.2892C150.113 62.7791 150.358 63.1559 150.885 63.2124C151.432 63.269 151.752 62.8921 151.752 62.4211C151.79 60.3862 151.79 58.3514 151.752 56.3165C151.752 55.8267 151.451 55.4498 150.904 55.4875C150.377 55.5064 150.113 55.8832 150.113 56.3731C150.094 57.3905 150.113 58.4079 150.113 59.4253Z" fill="#1D6F68"/>
<path fill-rule="evenodd" clip-rule="evenodd" d="M164.605 51.5874C164.059 51.0787 164.04 50.5699 164.605 50.0612V51.5874Z" fill="#2B726C"/>
<path fill-rule="evenodd" clip-rule="evenodd" d="M121.635 62.6284C122.201 63.4008 121.975 64.3241 122.106 65.1719C122.314 66.5473 122.389 66.6604 123.765 66.6604C125.291 66.6604 126.818 66.7358 128.345 66.5662C129.72 66.4155 129.852 66.6227 129.815 67.9604C129.796 68.9025 129.852 69.8634 129.777 70.8055C129.739 71.4461 130.06 71.8983 130.418 72.3316C131.605 73.8201 132.774 75.2897 133.98 76.7593C134.376 77.2492 134.847 77.6825 135.054 78.5492C132.321 78.5869 129.645 78.6999 126.988 78.6246C125.989 78.6057 124.971 78.6811 123.953 78.5115C123.068 78.3608 122.427 78.097 121.918 77.3434C121.202 76.3071 120.41 75.2897 119.769 74.2346C119.242 73.3679 118.789 73.1418 117.866 73.1418C117.093 73.1418 116.396 73.1795 115.623 73.594C116.528 75.3085 117.602 76.7781 118.827 78.4739C117.659 78.5492 116.697 78.6434 115.736 78.7C115.303 78.7376 115.077 78.4362 114.85 78.097C113.418 76.0057 111.816 74.0462 110.572 71.8229C110.271 71.3142 110.158 70.7866 110.139 70.2025C109.988 67.2256 110.252 64.2299 109.932 61.2529C109.837 60.4051 110.045 59.6703 111.081 59.708C113.343 59.7645 114.53 58.4079 115.416 56.5992C115.472 56.4861 115.586 56.4107 115.68 56.3354C115.717 56.2977 115.793 56.2977 115.944 56.2412C116.98 57.4093 117.564 58.8789 118.318 60.2355C118.639 60.8196 118.412 61.4979 118.281 62.1008C117.772 64.569 117.093 66.9995 116.207 69.3735C115.887 70.2591 115.623 71.1634 115.303 72.162C116.057 72.7273 116.961 72.52 117.828 72.5577C118.695 72.5954 118.827 71.8417 118.997 71.2765C119.675 69.0344 120.259 66.7546 120.938 64.5125C121.126 63.8719 121.051 63.0994 121.692 62.6095L121.635 62.6284Z" fill="white"/>
<path fill-rule="evenodd" clip-rule="evenodd" d="M122.201 54.7904C123.426 54.3194 124.18 54.6208 124.745 55.6006C125.066 56.147 125.48 56.6368 125.914 57.089C126.385 57.5601 126.988 57.5035 127.497 57.1832C128.081 56.8064 128.081 56.2035 127.798 55.6571C127.101 54.357 126.102 53.2831 125.028 52.2845C124.613 51.9077 124.086 51.9454 123.577 51.9077C121.673 51.8135 119.77 51.8512 117.866 51.983C115.869 52.1149 114.38 53.057 113.381 54.7716C112.891 55.6006 112.363 56.4107 111.572 56.9571C110.61 57.6354 110.083 57.3716 110.026 56.1846C109.97 54.7339 110.026 53.2643 110.026 51.8135C110.026 49.9294 110.026 48.0264 110.026 46.1234C110.026 45.219 110.252 44.7668 111.327 44.7857C113.871 44.8611 116.415 44.7857 118.941 44.7857C122.126 44.7857 125.292 44.7668 128.458 44.7668C129.758 44.7668 129.777 44.7668 129.777 46.1046C129.815 51.4367 129.834 56.7499 129.853 62.082C129.853 63.7965 129.777 63.9473 128.043 63.7965C127.12 63.7212 126.027 64.3241 125.33 63.5893C124.745 62.9675 125.028 61.8747 124.84 61.008C124.557 59.6891 123.784 58.5586 123.275 57.334C122.936 56.5238 122.597 55.6948 122.239 54.7904H122.201ZM115.247 51.2859C116.509 51.3236 117.546 50.4004 117.546 49.2699C117.546 47.8945 116.547 46.9524 115.096 46.9336C113.795 46.9336 113.042 47.6119 112.985 48.8366C112.928 50.2873 113.814 51.2482 115.247 51.2859Z" fill="white"/>
<path fill-rule="evenodd" clip-rule="evenodd" d="M96.0228 54.3194C95.382 55.7325 94.2889 56.8064 93.4973 58.0499C93.7612 58.6905 94.27 58.4456 94.6658 58.4644C97.5305 58.5021 100.395 58.5021 103.26 58.5586C103.712 58.5586 104.391 58.3137 104.598 58.9543C104.824 59.6138 104.824 60.3674 104.598 61.008C104.41 61.4979 103.825 61.3283 103.411 61.3472C100.621 61.366 97.8132 61.366 95.0051 61.366C94.3077 61.366 93.6104 61.366 92.7623 61.366C93.3277 63.2313 94.9485 64.2864 95.5328 66.0575C94.647 66.3024 93.8366 66.1705 93.0262 66.2082C92.4419 66.227 92.1027 65.9444 91.82 65.4545C90.8965 63.853 89.7657 62.3834 88.5972 60.9703C88.1449 60.4239 88.1638 59.9529 88.5784 59.4442C89.8599 57.8615 91.1038 56.2412 92.4231 54.6962C93.1769 53.8295 93.8366 53.8106 96.0416 54.357L96.0228 54.3194Z" fill="white"/>
<path fill-rule="evenodd" clip-rule="evenodd" d="M115.247 51.2859C113.795 51.2482 112.928 50.3062 112.985 48.8365C113.042 47.6119 113.814 46.9336 115.096 46.9336C116.547 46.9336 117.546 47.8945 117.546 49.2699C117.546 50.4004 116.509 51.3048 115.247 51.2859Z" fill="#2B726C"/>
</g>
<defs>
<clipPath id="clip0_125_16955">
<rect width="200" height="200" fill="white"/>
</clipPath>
</defs>
</svg>
