<svg width="192" height="251" viewBox="0 0 192 251" fill="none" xmlns="http://www.w3.org/2000/svg">
<path opacity="0.5" d="M134 33.5C155.585 5.98988 162.833 1.33337 164.5 3.00004C175.5 3.00004 177.833 44.6667 178 60.5L161 93C143.5 85 108.5 66 134 33.5Z" fill="#FEFEFE"/>
<path d="M6 164L58 133L117 182L119 219.5L113 226H44.5L6 164Z" fill="#FEFEFE"/>
<path d="M151.21 85.7173C151.21 85.7173 143.189 85.1184 133.669 76.8486C124.172 68.5789 121.014 53.3063 121.014 53.3063L131.594 35.638L136.112 30.2708C136.112 30.2708 135.213 56.4622 144.433 63.1425C153.653 69.8228 156.719 71.919 156.719 71.919L156.857 82.262L151.21 85.6943V85.7173Z" fill="#79CBE8"/>
<path d="M2.48948 163.992L66.1083 218.241L115.044 184.655L117.28 210.731V214.901L106.4 204.397L102.689 209.004L114.445 222.848L113.477 229.874L107.553 223.977L69.8655 250.514L64.9097 247.151C64.9097 247.151 47.3684 235.425 30.6339 219.185C13.8994 202.945 2.46643 193.178 2.46643 193.178L1.65967 164.706" fill="#79CBE8"/>
<path fill-rule="evenodd" clip-rule="evenodd" d="M191.479 183.78C191.11 183.826 191.11 184.102 191.11 184.379C191.041 187.834 190.649 191.243 189.958 194.652C189.266 198.085 188.782 201.54 188.114 204.972C187.537 207.898 186.615 210.731 185.624 213.495C184.794 215.868 183.918 218.287 182.489 220.475C181.775 221.581 180.991 222.687 180.346 223.815C179.769 224.806 178.755 225.589 178.571 226.833C178.525 227.086 178.294 227.662 177.557 227.455C177.211 227.363 177.372 228.1 177.095 228.469C176.358 229.436 175.367 230.081 174.514 230.91C172.716 232.661 171.056 234.596 169.074 236.047C167.507 237.199 165.801 238.259 163.98 239.088C161.975 240.009 160.061 241.046 157.941 241.714C155.728 242.428 153.515 243.142 151.21 243.58C147.407 244.317 143.58 244.847 139.708 244.294C138.117 244.064 136.504 243.787 135.029 243.211C132.032 242.06 129.128 240.7 126.2 239.411C125.255 238.996 124.402 238.443 123.734 237.637C123.158 236.969 122.12 236.992 121.59 236.255C120.599 234.849 119.078 234.158 117.718 233.237C116.704 232.569 116.22 231.44 115.252 230.772C114.698 230.381 114.214 229.966 113.477 229.851C112.762 229.736 112.001 229.459 111.863 228.515C111.817 228.238 111.633 228.1 111.402 228.054C110.111 227.87 109.604 226.649 108.728 225.912C108.152 225.428 107.829 225.52 107.391 225.866C105.893 226.994 104.418 228.146 102.943 229.275C100.937 230.795 98.6783 232.016 96.7421 233.606C95.5204 234.596 94.2066 235.564 92.9849 236.577C92.0629 237.36 91.1179 238.374 89.7118 238.789C88.6745 239.088 87.5912 239.871 86.6461 240.562C85.0326 241.691 83.3038 242.589 81.6442 243.626C80.2612 244.501 78.9242 245.377 77.3799 245.976C76.9189 246.16 76.6192 246.897 75.9968 247.197C73.9454 248.256 71.94 249.408 69.8655 250.445C68.9204 250.905 67.8601 251.066 66.7998 250.721C65.1863 250.214 63.5727 249.892 61.9131 249.684C61.6365 249.638 61.383 249.477 61.1294 249.27C59.0549 247.519 56.9804 245.791 54.7675 244.179C52.67 242.635 50.5263 241.046 48.7514 239.088C47.8063 238.028 46.4233 237.591 45.3169 236.738C43.9108 235.656 42.597 234.458 41.1909 233.352C39.416 231.924 37.8717 230.265 36.0737 228.86C34.9904 228.031 33.6535 227.478 32.985 226.096C32.5931 225.267 31.5328 224.944 30.8183 224.299C29.2509 222.917 27.9831 221.235 26.3235 219.945C24.7099 218.678 23.3269 217.112 21.8287 215.684C20.6992 214.601 19.5236 213.588 18.4863 212.436C16.8267 210.616 14.7983 209.211 13.3461 207.184C12.816 206.447 11.9401 206.009 11.2486 205.364C9.08183 203.268 6.93816 201.171 4.77143 199.098C3.27316 197.67 2.3742 195.804 0.922032 194.353C0.76068 194.192 0.55322 193.8 0.645422 193.639C1.38303 192.188 -0.207434 190.805 0.507125 189.354C0.507125 189.308 0.207474 189.078 0.0230713 188.963V188.041C0.437977 187.488 0.368819 186.843 0.48407 186.221C0.668473 185.07 0.645418 183.987 0.299664 182.858C0.230513 182.651 0.276623 182.397 0.345774 182.19C0.945082 180.163 -0.0230335 178.136 0.414922 176.132C0.461023 175.971 0.414919 175.602 0.0691642 175.51V174.819C0.875925 174.174 0.922022 173.321 0.71457 172.446C0.461016 171.317 0.461025 170.235 0.507125 169.083C0.553226 168.138 0.20747 167.171 0.829828 166.296C1.17558 165.789 1.59048 165.351 1.70573 164.683C1.75183 164.384 2.18979 164.015 2.51249 163.946C3.73416 163.693 4.63313 163.048 5.34769 162.057C5.39379 161.988 5.43989 161.919 5.50904 161.896C7.28391 161.827 8.06762 160.145 9.47369 159.523C10.972 158.855 12.2858 157.865 13.6919 157.081C15.0519 156.321 16.3657 155.492 17.7026 154.663C19.4545 153.58 21.1602 152.428 22.9581 151.392C24.6638 150.401 26.4848 149.572 28.0753 148.443C29.0664 147.752 30.3573 147.476 31.141 146.37C31.6711 145.633 32.8928 145.702 33.5382 144.942C34.7599 143.49 36.7652 143.26 38.0791 141.947C38.471 141.555 38.9781 141.648 39.416 141.417C40.8451 140.68 42.2282 139.874 43.4498 138.814C44.2335 138.123 45.2708 137.778 46.1698 137.294C49.1433 135.658 51.9784 133.723 54.998 132.203C56.0122 131.696 57.3492 131.834 58.5247 131.742C60.1843 131.627 61.5213 132.226 62.7429 133.401C63.5497 134.161 64.8175 134.414 65.6473 135.244C66.7537 136.395 68.3211 136.948 69.2662 138.4C69.8194 139.275 71.1793 139.574 72.0322 140.427C73.9454 142.316 76.1121 143.928 78.0944 145.748C78.9473 146.508 79.9845 147.337 80.9296 148.075C83.2577 149.917 85.7932 151.553 87.9369 153.695C88.9511 154.709 90.0806 155.976 91.6249 156.459C91.8554 156.529 92.086 156.736 92.2473 156.943C93.5151 158.625 95.5435 159.431 96.9265 160.974C99.1854 163.531 102.113 165.351 104.51 167.793C106.008 169.29 107.53 170.834 109.166 172.216C110.941 173.713 112.785 175.164 114.353 176.915C115.182 177.836 116.335 178.62 117.119 179.61C118.479 181.292 119.654 183.135 119.193 185.507C119.124 185.784 119.101 186.106 119.17 186.406C119.562 188.479 119.216 190.575 119.331 192.648C119.447 194.814 119.078 196.956 119.331 199.121C119.539 200.918 119.424 202.761 119.331 204.558C119.262 205.617 119.631 206.654 119.424 207.691C119.032 209.51 119.585 211.353 119.193 213.15C118.963 214.21 119.193 214.762 119.931 215.523C121.129 216.743 122.328 218.149 122.996 219.692C123.734 221.351 125.071 222.042 126.362 223.009C127.445 223.815 128.206 225.082 129.451 225.75C130.718 226.418 131.871 227.363 133.323 227.731C135.029 228.169 136.389 229.367 138.071 229.966C139.062 230.311 140.031 230.288 140.999 230.542C143.281 231.164 145.701 230.887 147.937 230.381C150.288 229.828 152.685 229.252 154.921 228.169C156.512 227.386 158.102 226.58 159.669 225.75C160.73 225.175 161.767 224.506 162.389 223.378C162.666 222.871 163.242 222.595 163.657 222.18C165.109 220.752 166.17 218.978 167.115 217.273C167.898 215.868 169.12 214.624 169.351 212.85C169.443 212.229 170.48 211.653 170.595 210.754C170.78 209.28 171.494 207.921 172.117 206.654C172.854 205.088 172.831 203.314 173.822 201.909C173.891 201.816 174.007 201.701 173.984 201.632C173.569 199.766 174.629 198.131 174.883 196.357C175.113 194.791 175.067 193.109 175.828 191.658C176.104 191.128 175.736 190.621 175.782 190.068C176.127 186.751 176.427 183.411 176.565 180.071C176.611 178.965 176.404 177.859 176.773 176.731C176.934 176.224 176.45 175.579 176.266 175.026C175.759 173.506 176.381 171.939 175.874 170.465C175.09 168.162 174.906 165.72 174.26 163.393C173.822 161.781 173.016 160.26 172.485 158.671C171.886 156.851 170.849 155.262 170.157 153.511C169.627 152.175 168.359 151.276 167.806 149.94C167.507 149.203 166.999 148.766 166.308 148.443C165.639 148.121 165.686 147.268 165.225 146.785C164.326 145.863 163.45 144.896 162.574 143.928C160.776 141.924 159.024 139.897 157.249 137.87C156.742 137.294 156.465 136.488 155.659 136.165C155.52 136.119 155.313 135.889 155.474 135.589C155.567 135.428 155.613 135.152 155.428 135.082C154.644 134.76 154.598 133.908 154.184 133.447C152.777 131.834 151.948 129.992 151.348 127.988C151.072 127.089 150.518 126.329 150.127 125.5C149.32 123.772 148.997 121.998 148.536 120.201C148.006 118.128 147.775 116.078 147.568 113.982C147.453 112.784 147.084 111.54 147.384 110.434C148.029 108.108 147.153 105.758 147.706 103.432C147.96 102.395 147.637 101.082 147.937 100.068C148.283 98.9397 147.822 97.6497 148.674 96.6131C149.458 95.6917 149.112 94.4708 149.366 93.3881C149.458 92.9735 149.274 92.3976 149.965 92.2363C150.081 92.2133 150.242 91.7295 150.196 91.6604C149.228 90.6699 150.403 89.4951 149.942 88.4585C149.85 88.2742 149.942 87.8826 150.127 87.6983C151.925 85.533 152.247 82.8148 152.939 80.2578C153.308 78.8757 154.322 77.8852 155.059 76.7104C155.543 75.9271 156.95 76.457 157.387 77.5857C158.033 79.2212 157.572 80.7416 156.996 82.331C156.258 84.4042 155.682 86.5465 155.082 88.6658C154.944 89.1496 155.221 89.5412 155.613 89.8406C156.788 90.716 158.194 91.1076 159.554 91.4992C160.476 91.7756 161.052 90.739 161.214 90.071C161.513 88.7349 162.251 87.6523 162.827 86.4544C163.334 85.3948 163.542 84.1508 163.865 82.9991C164.233 81.64 165.017 81.1332 166.4 81.3866C166.538 81.3866 166.7 81.4096 166.838 81.4096C168.06 81.4096 168.636 81.9394 168.475 83.0682C168.198 85.0032 167.576 86.823 166.538 88.4815C166.239 88.9422 165.985 89.4029 165.893 89.8867C165.524 91.7065 164.556 93.1117 163.288 94.4017C163.104 94.5859 162.896 94.8624 162.92 95.0697C163.081 96.59 162.205 97.8109 161.675 99.1009C161.099 100.529 161.076 102.026 161.122 103.432C161.168 104.998 160.753 106.403 160.545 107.877C160.499 108.131 160.338 108.43 160.407 108.638C160.914 110.319 160.269 112.047 160.591 113.728C160.753 114.535 160.937 115.318 161.191 116.101C161.421 116.838 161.56 117.552 161.56 118.336C161.56 119.51 162.482 120.455 162.804 121.584C163.634 124.348 165.547 126.513 166.746 129.07C166.953 129.485 167.391 129.784 167.714 130.153C169.904 132.664 171.932 135.313 173.868 138.031C174.698 139.183 175.643 140.242 176.611 141.279C176.819 141.509 176.934 141.717 177.049 141.97C177.303 142.592 177.718 143.053 178.202 143.583C179.354 144.826 180.392 146.209 181.221 147.66C181.89 148.812 182.167 150.171 183.181 151.161C183.734 151.714 183.665 152.566 183.918 153.258C185.002 156.068 186.316 158.786 187.353 161.642C188.275 164.245 188.736 166.895 189.427 169.521C189.934 171.479 190.603 173.483 190.626 175.487C190.626 177.675 191.364 179.794 191.179 181.983C191.133 182.444 191.271 182.996 191.64 183.365V183.826L191.479 183.78ZM105.686 222.618C103.888 221.028 102.551 219.162 100.753 217.688C99.6004 216.72 98.3787 215.407 97.9869 213.611C97.7563 212.551 97.4336 211.722 98.056 210.662C98.517 209.879 99.0702 208.981 99.2316 208.22C99.5773 206.746 100.753 206.147 101.491 205.111C101.79 204.696 102.159 204.419 102.528 204.35C104.464 204.028 106.308 202.876 108.359 204.604C110.342 206.239 112.209 207.921 113.892 209.856C114.099 210.086 114.237 210.501 114.537 210.432C114.998 210.363 114.837 209.879 114.837 209.579C114.814 207.483 114.652 205.41 114.698 203.314C114.767 200.25 114.56 197.163 114.975 194.123C115.136 192.902 114.56 191.704 114.744 190.598C115.09 188.617 114.283 186.613 115.044 184.701C115.09 184.609 115.044 184.448 114.998 184.379C113.822 182.789 113.108 180.9 111.587 179.541C110.549 178.597 109.351 177.813 108.475 176.754C107.115 175.118 105.34 173.99 103.865 172.515C101.905 170.557 99.7848 168.737 97.7333 166.895C95.9354 165.282 94.1144 163.716 92.4317 161.988C90.4494 159.961 87.96 158.487 85.7932 156.667C84.8251 155.837 83.5804 155.331 82.8428 154.225C82.5431 153.764 82.1283 153.511 81.7133 153.188C80.3764 152.129 78.7398 151.438 77.5873 150.125C77.0802 149.572 76.2735 149.272 75.7664 148.72C75.0288 147.867 73.8532 147.637 73.2308 146.831C71.8478 145.034 70.0268 143.813 68.2289 142.5C67.9984 142.339 67.6757 142.085 67.6526 141.832C67.5604 141.141 67.1455 140.957 66.5693 140.91C66.2466 140.864 66.0391 140.634 65.8317 140.427C64.8866 139.505 64.4026 137.962 62.6738 138.1C62.5585 138.1 62.3972 137.962 62.328 137.824C61.6596 136.58 60.5071 136.004 59.2854 135.451C58.2712 135.013 55.7356 135.221 55.1363 136.142C54.6753 136.833 54.0299 136.994 53.4076 137.294C53.1079 137.432 52.7621 137.501 52.4855 137.685C50.2497 139.114 48.0368 140.588 45.7779 141.97C44.1874 142.961 42.6661 144.043 40.8682 144.734C39.5543 145.241 38.3327 146.116 37.2032 146.992C36.3273 147.683 35.3822 148.144 34.4372 148.673C33.0081 149.48 31.8325 150.701 30.1959 151.184C29.5274 151.392 28.7668 151.829 28.421 152.29C27.8678 153.073 27.0841 153.119 26.3926 153.396C25.6319 153.718 25.4937 154.548 24.7099 154.893C23.4422 155.446 22.1744 156.091 21.1371 156.966C20.1229 157.819 18.9243 158.625 17.8409 159.016C15.6742 159.8 14.1068 161.412 12.1245 162.403C9.95775 163.485 8.06761 165.121 5.97004 166.342C5.78563 166.457 5.55513 166.572 5.55513 166.848C5.53208 168.323 4.28738 169.659 5.04804 171.248C5.16329 171.479 5.14023 171.893 5.02498 172.124C4.58703 172.976 4.77142 173.851 4.90972 174.681C5.07108 175.671 5.46294 176.593 4.79448 177.56C4.67923 177.721 4.74838 177.998 4.72533 178.228C4.67923 181.246 5.09413 184.263 4.93278 187.304C4.84058 189.078 4.93277 190.875 4.65617 192.648C4.61007 192.948 4.79447 193.155 4.97887 193.339C6.47714 194.929 7.56051 196.864 9.35843 198.177C9.75029 198.453 10.3265 198.661 10.5801 199.144C11.3408 200.734 12.9773 201.563 13.9224 202.991C14.1299 203.291 14.4064 203.452 14.7061 203.636C16.0661 204.373 16.8267 205.779 17.9793 206.769C18.4403 207.184 18.7399 207.898 19.2931 208.266C20.63 209.142 21.6212 210.409 22.7276 211.514C24.7791 213.542 26.8997 215.5 28.9742 217.504C29.343 217.849 29.9885 217.849 30.1498 218.448C30.3342 219.162 30.8874 219.462 31.5098 219.669C32.4779 219.968 33.1463 220.66 33.6304 221.443C34.5063 222.894 35.751 223.977 37.0649 224.99C37.9639 225.681 38.8398 226.418 39.6696 227.179C40.9604 228.376 42.3204 229.505 43.5881 230.726C44.3027 231.417 45.1556 231.901 45.9162 232.523C47.5758 233.836 49.1433 235.333 50.8951 236.485C51.7018 236.992 52.4855 237.545 53.2232 238.12C55.2055 239.641 56.6116 241.829 59.0088 242.866C59.6081 243.119 60.2305 243.626 60.5301 244.179C61.1986 245.423 62.3972 245.883 63.4805 246.575C63.9185 246.851 64.2873 247.519 64.9558 247.243C65.7856 246.897 66.7306 247.058 67.3761 247.335C68.5286 247.842 69.1509 247.058 69.8885 246.667C70.1882 246.505 70.4648 246.252 70.8105 246.091C72.2166 245.4 73.7379 244.847 74.9365 243.902C76.2043 242.889 77.449 241.875 78.9012 241.115C80.7452 240.148 82.2435 238.581 84.2258 237.867C85.1017 237.545 85.5397 236.692 86.3234 236.393C87.6142 235.886 88.6515 234.965 89.8731 234.343C90.0345 234.251 90.1728 234.112 90.265 233.951C90.7721 232.914 91.7633 232.477 92.7083 231.993C93.1693 231.74 93.6534 231.601 93.9992 231.118C94.4832 230.404 95.1747 229.92 96.0276 229.62C97.4567 229.068 98.6092 228.008 99.8078 227.133C100.453 226.672 101.352 226.372 101.721 225.727C102.666 224.161 104.349 223.746 105.732 222.71L105.686 222.618ZM186.223 178.366C186.039 176.201 185.855 174.036 185.371 171.893C184.794 169.313 184.126 166.779 183.642 164.176C183.434 163.071 182.581 162.31 182.489 161.251C182.328 159.731 181.429 158.487 181.083 157.012C180.899 156.229 180.415 155.262 179.954 154.801C179.101 153.972 178.916 152.866 178.525 151.968C178.041 150.862 177.395 149.894 176.819 148.881C176.081 147.568 174.906 146.508 174.237 145.218C173.177 143.145 171.609 141.509 170.296 139.667C169.397 138.377 168.06 137.409 167.23 136.073C166.677 135.152 165.87 134.46 165.34 133.493C164.648 132.249 163.404 131.351 162.643 130.084C161.721 128.54 160.499 127.135 159.785 125.523C159.208 124.21 158.309 123.035 158.056 121.468C157.825 120.132 157.019 118.865 156.973 117.414C156.95 115.963 156.12 114.65 156.097 113.153C156.097 112.001 156.627 110.895 156.143 109.72C155.774 108.799 155.912 107.808 156.12 106.841C156.373 105.62 156.489 104.399 156.65 103.178C156.719 102.625 157.134 102.026 156.442 101.543C156.373 101.497 156.396 101.243 156.442 101.128C157.157 99.815 157.157 98.3407 157.526 96.9356C157.641 96.4749 157.48 95.899 158.171 95.6686C158.655 95.5074 158.171 95.0006 158.286 94.632C158.379 94.3556 158.056 94.4017 157.895 94.4017C156.857 94.3556 155.889 94.0561 154.921 93.7797C154.183 93.5724 153.584 93.7336 153.515 94.7011C153.4 96.3597 152.893 97.9491 152.455 99.5616C152.247 100.345 151.579 101.105 152.339 101.934C152.386 101.98 152.293 102.142 152.247 102.234C151.556 103.685 151.694 105.274 151.717 106.772C151.763 108.615 151.625 110.411 151.417 112.231C151.371 112.531 151.325 112.83 151.464 113.107C151.948 114.074 152.063 115.157 151.994 116.193C151.878 117.783 152.501 119.234 152.8 120.708C153.146 122.344 153.676 124.048 154.46 125.661C155.474 127.78 156.558 129.853 157.848 131.765C158.909 133.355 159.762 135.106 161.283 136.488C162.505 137.593 163.381 139.114 164.741 140.196C165.132 140.519 165.478 141.003 165.639 141.486C165.801 141.947 166.031 142.177 166.377 142.477C167.345 143.306 168.406 144.135 169.005 145.195C169.858 146.669 171.172 147.729 171.978 149.249C172.739 150.678 173.938 151.991 174.629 153.396C175.897 156.022 177.003 158.74 178.064 161.481C178.87 163.6 179.101 165.858 179.539 168.069C180.046 170.603 180.276 173.183 180.899 175.717C181.014 176.224 180.945 176.754 180.876 177.284C180.76 177.975 180.622 178.712 180.76 179.357C181.268 181.891 180.76 184.402 180.668 186.935C180.645 187.673 180.507 188.41 180.53 189.17C180.553 189.815 180.714 190.598 180.438 191.105C179.331 193.109 179.723 195.436 179.009 197.532C178.386 199.329 178.455 201.287 177.81 203.176C177.142 205.064 176.45 206.976 176.012 208.981C175.459 211.514 174.122 213.841 172.877 216.052C171.448 218.632 169.996 221.305 167.875 223.516C166.124 225.336 164.28 227.017 162.205 228.469C160.315 229.805 158.125 230.358 156.143 231.417C154.921 232.085 153.515 232.569 152.132 232.73C150.403 232.938 148.744 233.583 146.992 233.398C146.024 233.306 145.148 233.905 144.203 233.859C141.437 233.721 138.671 233.536 136.066 232.477C135.167 232.108 134.153 232.362 133.415 231.878C132.562 231.302 131.686 230.864 130.787 230.45C128.99 229.62 127.33 228.492 125.67 227.409C123.688 226.142 122.028 224.46 120.115 223.124C119.677 222.825 119.562 222.871 119.262 223.124C118.225 224.092 117.695 225.313 117.372 226.626C117.234 227.179 117.372 227.685 117.741 228.215C119.354 230.358 121.775 231.532 123.665 233.306C124.794 234.389 126.316 234.919 127.537 235.84C129.865 237.591 132.493 238.766 135.236 239.572C138.164 240.447 141.206 241.069 144.318 241.207C146.9 241.322 149.412 241.115 151.902 240.309C153.031 239.94 154.183 239.618 155.313 239.203C157.157 238.512 159.047 237.798 160.753 236.807C162.666 235.702 164.648 234.711 166.4 233.191C168.106 231.694 169.835 230.242 171.425 228.63C172.001 228.054 172.37 227.294 172.993 226.741C173.384 226.372 174.237 226.557 174.26 225.958C174.283 225.244 174.744 224.875 175.021 224.368C175.62 223.263 176.104 222.088 177.257 221.397C177.556 221.212 177.764 220.959 177.833 220.59C178.133 219.024 179.124 217.734 179.654 216.26C180 215.292 180.899 214.693 181.175 213.68C181.291 213.265 181.291 212.781 181.452 212.367C181.798 211.376 182.697 210.754 182.927 209.626C183.089 208.842 183.227 207.806 183.803 207.138C184.241 206.608 184.472 206.009 184.356 205.502C184.034 204.212 184.564 203.014 184.633 201.77C184.771 199.628 185.463 197.532 185.509 195.367C185.555 193.662 186.339 192.165 186.385 190.437C186.431 188.94 186.246 187.35 186.638 185.922C187.076 184.332 186.523 182.858 186.592 181.315C186.615 180.347 186.408 179.357 186.293 178.389L186.223 178.366ZM113.246 225.151C113.431 224.207 114.03 223.585 114.468 222.848C115.205 221.604 115.828 220.153 117.51 219.853C118.456 219.692 118.041 219.416 117.718 218.932C116.911 217.688 115.736 216.813 114.698 215.776C112.532 213.588 110.204 211.584 108.244 209.165C107.875 208.704 107.368 208.359 106.953 207.921C106.377 207.322 105.547 207.253 104.741 207.391C103.127 207.644 101.191 210.8 101.905 212.275C102.482 213.449 103.219 214.624 104.164 215.477C106.377 217.458 108.175 219.807 110.273 221.857C111.241 222.802 112.186 223.931 113.223 225.151H113.246Z" fill="#26716B"/>
<path fill-rule="evenodd" clip-rule="evenodd" d="M0.0460929 175.556C0.391847 175.625 0.437952 176.017 0.391851 176.178C-0.0461048 178.205 0.945061 180.232 0.322703 182.236C0.253552 182.444 0.230509 182.72 0.27661 182.904C0.645415 184.01 0.668452 185.093 0.460999 186.267C0.368798 186.912 0.437956 187.534 0 188.087V175.556H0.0460929Z" fill="#FEFEFE"/>
<path fill-rule="evenodd" clip-rule="evenodd" d="M120.991 57.5908C120.991 56.1626 120.876 54.7344 121.014 53.3293C121.152 51.9471 121.014 50.565 121.475 49.1829C121.752 48.3075 121.706 47.3631 121.913 46.4416C122.19 45.1977 122.558 44.092 123.457 43.1245C124.034 42.4795 124.103 41.489 124.633 40.7519C125.762 39.1854 126.523 37.3426 128.044 36.0526C128.644 35.5458 129.082 34.8317 129.404 34.2098C130.004 33.0349 131.779 33.058 131.871 31.5376C132.747 31.5146 133.046 30.6853 133.623 30.2937C135.236 29.2571 136.435 27.7828 137.864 26.5389C138.578 25.917 139.132 25.1798 139.524 24.3045C139.662 24.028 139.846 23.6825 140.1 23.5443C141.275 22.8532 141.782 21.7706 142.174 20.5266C142.405 19.7895 143.096 19.2597 143.534 18.5917C144.064 17.8084 144.733 17.0252 145.033 16.1729C145.77 14.0997 147.706 12.7406 148.306 10.5983C148.375 10.391 148.559 9.97636 148.974 9.79207C150.265 9.21618 150.634 7.74191 151.648 6.84352C153.354 5.34621 154.276 2.99658 156.696 2.25944C157.641 1.98302 158.194 0.992489 159.278 0.739098C160.453 0.462671 161.537 0.0249966 162.804 0.00196109C164.026 -0.0210745 165.178 0.163209 166.377 0.324457C167.184 0.439635 167.806 0.78517 168.382 1.26892C169.673 2.42069 170.987 3.54944 172.163 4.81639C173.43 6.17549 173.984 7.94923 174.514 9.65386C175.044 11.3815 175.574 13.0862 175.92 14.8829C176.266 16.6336 176.243 18.3383 176.45 20.0659C176.681 21.9548 176.796 23.8668 177.303 25.7327C177.764 27.4834 178.11 29.2802 178.179 31.0769C178.294 33.6799 178.755 36.2369 178.87 38.8169C178.963 40.9131 178.363 42.779 177.349 44.5758C176.842 45.4741 176.058 45.2438 175.344 45.1056C174.629 44.9674 174.445 44.3684 174.491 43.7234C174.537 42.8251 174.744 41.9036 174.652 40.9822C174.468 39.1163 174.353 37.2274 174.168 35.3615C173.892 32.6664 173.407 29.9712 173.039 27.2991C172.555 23.8438 172.001 20.4115 171.909 16.9101C171.909 16.4033 171.679 15.9195 171.448 15.5279C170.618 14.1458 171.494 12.5563 170.78 11.1281C170.434 10.414 169.95 9.69993 169.789 8.87065C169.719 8.50208 169.443 8.66333 169.258 8.75547C167.576 9.58475 166.193 10.8517 164.741 11.9804C163.311 13.0631 162.758 14.8829 161.076 15.6661C160.615 15.8735 160.407 16.6567 160.038 17.1174C158.747 18.7299 157.941 20.6418 156.857 22.3695C156.373 23.1527 155.751 23.8438 155.29 24.627C154.045 26.7462 152.247 28.4509 150.956 30.5241C150.495 31.2382 149.504 31.6298 148.974 32.3208C148.029 33.5878 146.462 34.1637 145.609 35.5458C145.217 36.1908 144.433 36.4442 143.788 36.8358C141.736 38.1028 140.238 40.0378 138.302 41.466C137.357 42.157 137.265 43.4009 136.619 44.3224C136.32 44.737 135.951 45.1286 135.72 45.5893C135.259 46.4877 134.913 47.4552 134.568 48.3766C134.061 49.6666 134.014 50.9336 133.784 52.2005C133.461 53.9973 133.761 55.748 134.061 57.4987C134.176 58.1207 134.337 58.6966 133.738 58.996C133.092 59.3185 132.401 59.7101 131.64 59.1112C130.488 58.2128 129.589 57.0841 129.451 55.6328C129.266 53.7439 129.036 51.7859 129.358 49.943C129.773 47.5013 130.557 45.0134 132.217 43.1015C133.116 42.0649 134.038 40.9361 134.867 39.8995C136.873 37.3426 139.593 35.7762 141.944 33.703C142.912 32.8507 143.88 31.9292 144.825 31.0769C145.678 30.3168 145.931 29.0498 147.153 28.6121C147.43 28.4969 147.845 27.7368 148.144 27.253C149.274 25.5023 150.657 23.9359 151.878 22.2543C152.363 21.6093 152.57 20.757 153.031 20.089C154.045 18.6608 154.598 16.9101 156.097 15.8274C156.581 15.4819 156.512 14.7678 156.95 14.261C157.364 13.7772 157.526 13.0631 158.31 12.9479C158.402 12.9479 158.517 12.8328 158.563 12.7406C159.739 10.3449 161.998 9.0319 164.003 7.55762C165.017 6.79745 166.17 6.12942 167.345 5.64567C168.014 5.36925 167.714 5.208 167.46 5.04675C166.4 4.40175 165.501 3.48033 164.326 3.01962C164.164 2.95051 163.934 2.85837 163.795 2.92748C162.389 3.54944 160.776 3.71068 159.623 4.93157C159.001 5.5996 158.102 5.9221 157.388 6.56709C155.728 8.08744 154.345 9.88421 153.1 11.704C151.925 13.4547 150.703 15.2054 149.643 17.0713C148.283 19.49 147.107 22.07 145.263 24.1893C143.534 26.1934 141.829 28.1975 139.961 30.1094C138.809 31.2842 137.472 32.2057 136.296 33.3574C135.674 33.9564 134.844 34.2098 134.153 34.7626C133.208 35.5458 132.954 36.7667 132.101 37.5499C130.672 38.8629 129.704 40.4063 128.874 42.157C128.505 42.9402 127.676 43.7695 127.353 44.5527C126.546 46.4416 125.463 48.2845 125.739 50.542C125.901 51.855 125.509 53.1911 125.509 54.5502C125.509 56.4851 125.601 58.3971 125.97 60.309C126.592 63.3267 127.606 66.2522 129.197 68.8322C130.557 71.0206 131.963 73.255 134.084 74.9366C135.536 76.0884 136.504 77.8161 138.117 78.8066C140.422 80.2118 142.797 81.5478 145.586 81.7091C146.346 81.7551 146.877 82.1698 147.314 82.6305C147.96 83.2985 147.637 84.1278 146.761 84.4503C146.139 84.6807 145.494 84.7267 144.848 84.6346C141.621 84.1969 138.648 83.1142 135.789 81.5018C134.222 80.6264 133.046 79.4746 131.779 78.2537C129.358 75.858 127.284 73.1629 125.186 70.5138C124.241 69.3159 123.849 67.7265 123.365 66.2292C122.743 64.2942 122.19 62.3592 121.429 60.4703C121.083 59.5949 121.152 58.5814 121.014 57.6139C121.014 57.6139 120.968 57.6139 120.945 57.6139L120.991 57.5908Z" fill="#26716B"/>
<path fill-rule="evenodd" clip-rule="evenodd" d="M175.459 58.5814C175.689 57.4757 175.805 56.3469 175.759 55.1951C175.712 54.0894 175.597 52.7994 175.136 52.0393C174.537 50.9796 173.845 49.5054 172.209 49.3902C171.656 49.3441 171.633 49.1138 171.84 48.63C172.462 47.2018 173.384 46.7872 174.929 47.0175C178.087 47.5013 179.239 49.8279 179.723 52.4539C180.115 54.5732 180.507 56.7616 179.977 59.019C179.585 60.6546 179.4 62.3592 178.594 63.8565C178.363 64.2942 178.064 64.6858 178.386 65.2386C178.432 65.3308 178.386 65.6072 178.294 65.6533C177.234 66.137 177.234 67.3349 176.634 68.0951C176.634 68.0951 176.565 68.1181 176.542 68.1411C177.142 69.0625 175.574 69.1547 175.805 70.007C175.874 70.2604 175.735 70.675 175.459 70.9284C173.984 72.2645 173.269 74.1073 172.347 75.7889C171.748 76.8486 170.826 77.125 169.788 76.5952C168.982 76.1805 168.774 75.3513 169.281 74.2225C169.397 73.9461 169.627 73.7388 169.742 73.4623C169.996 72.8634 170.134 72.2645 169.304 72.0341C168.106 71.7116 167.092 70.9975 166.031 70.3986C165.04 69.8458 163.911 69.5463 162.989 68.74C162.343 68.1872 161.974 69.2699 161.813 69.7536C161.421 70.9054 160.776 71.6656 159.485 71.7347C158.54 71.7807 157.664 71.4582 156.973 70.8363C156.581 70.5138 156.465 70.03 156.973 69.4772C157.526 68.8783 157.825 68.049 158.033 67.2427C158.379 65.9067 159.508 65.1235 160.914 65.1235C162.343 65.1235 163.634 65.5842 164.994 65.9527C166.515 66.3674 167.714 67.3579 169.028 68.1181C169.719 68.5327 170.572 68.5097 171.148 69.1317C171.31 69.3159 171.563 69.1547 171.54 68.9474C171.494 68.3715 172.163 68.2793 172.232 67.8877C172.462 66.5977 173.384 65.6302 173.753 64.4094C174.122 63.1424 174.514 61.8754 175.067 60.6776C175.39 59.9635 175.505 59.2724 175.528 58.5123L175.459 58.5814Z" fill="#26716B"/>
<path fill-rule="evenodd" clip-rule="evenodd" d="M156.189 54.0434C156.258 52.7764 156.535 51.5786 156.857 50.3346C157.226 48.9295 157.848 47.7777 158.632 46.672C160.43 44.092 162.528 43.1015 165.778 43.7925C166.953 44.0459 168.106 44.4145 169.212 44.8983C170.18 45.3129 170.503 46.004 170.595 46.9023C170.641 47.4322 170.411 47.7547 169.765 47.962C167.991 48.5148 166.492 47.7547 164.948 47.1788C163.45 46.6029 163.611 46.672 162.666 47.8929C161.283 49.6666 161.375 51.855 160.638 53.79C160.176 55.0339 160.891 55.9323 162.228 56.3239C163.173 56.6003 164.141 56.8076 164.787 57.66C165.155 58.1667 165.386 58.7887 165.155 59.3646C164.902 59.9865 164.256 59.9405 163.68 59.9405C161.26 59.9405 159.093 59.1342 157.157 57.706C156.12 56.9458 156.558 55.7019 156.189 54.7114C156.12 54.5041 156.189 54.2507 156.189 54.0434Z" fill="#26716B"/>
<path fill-rule="evenodd" clip-rule="evenodd" d="M148.006 79.3134C146.185 78.8066 143.88 79.0369 142.151 77.3784C142.036 77.2862 141.875 77.148 141.759 77.1711C140.261 77.1711 139.57 75.9041 138.809 75.0057C138.21 74.2916 137.311 74.4529 136.78 73.7388C136.25 73.0707 135.605 72.5179 135.328 71.6425C135.052 70.8363 134.522 70.1222 133.876 69.5463C132.724 68.5327 132.562 67.0815 132.216 65.7454C132.147 65.469 132.009 65.1695 131.963 64.9161C131.894 64.4785 131.179 63.9717 132.032 63.511C132.862 63.0733 133.507 62.7969 134.037 63.9026C134.614 65.1004 135.397 66.1831 136.158 67.2888C138.002 69.9149 140.192 72.1032 142.981 73.7848C144.249 74.568 145.332 75.6737 146.807 76.1345C147.13 76.2266 147.43 76.4109 147.775 76.3648C148.882 76.2496 149.32 77.0559 149.643 77.8621C150.011 78.8527 149.55 79.2903 148.029 79.3134H148.006Z" fill="#26716B"/>
<path fill-rule="evenodd" clip-rule="evenodd" d="M173.43 53.7209C173.43 54.6884 173.131 55.4947 172.601 56.37C171.656 58.0055 170.48 59.5489 169.973 61.4148C169.696 62.3823 169.074 63.1194 168.405 63.8796C167.668 64.7319 166.792 64.6859 165.893 64.4785C164.856 64.2251 164.74 63.6262 165.063 62.5896C165.593 60.862 166.308 59.1573 167.207 57.7061C168.336 55.9093 168.475 53.6057 170.203 52.1545C170.826 51.6247 171.31 50.6802 172.232 51.0718C173.154 51.4404 173.43 52.3849 173.407 53.3524C173.407 53.4675 173.407 53.5827 173.407 53.6979L173.43 53.7209Z" fill="#26716B"/>
<path fill-rule="evenodd" clip-rule="evenodd" d="M156.719 71.942C158.056 71.8729 159.024 72.4949 159.831 73.0247C162.159 74.5681 164.602 75.812 167.253 76.6873C168.152 76.9868 168.913 77.6088 169.604 78.2768C169.973 78.6454 170.157 79.1752 169.881 79.6359C169.65 80.0736 169.12 80.0505 168.659 79.9584C167.092 79.6589 165.547 79.3825 163.98 79.1061C163.519 79.0139 163.15 78.7836 162.735 78.5532C161.652 77.9543 160.637 77.1941 159.278 77.3093C159.139 77.3093 158.955 77.2402 158.886 77.125C158.263 76.1345 157.203 75.6738 156.304 75.0288C155.636 74.545 155.267 73.9461 155.474 73.0708C155.659 72.2875 155.935 71.6656 156.719 71.942Z" fill="#26716B"/>
<path fill-rule="evenodd" clip-rule="evenodd" d="M186.223 178.343C186.339 179.311 186.546 180.301 186.523 181.269C186.454 182.789 187.007 184.263 186.569 185.876C186.177 187.304 186.339 188.894 186.316 190.391C186.246 192.095 185.463 193.616 185.44 195.32C185.394 197.486 184.702 199.605 184.564 201.724C184.495 202.945 183.964 204.166 184.287 205.456C184.425 205.986 184.172 206.562 183.734 207.092C183.181 207.783 183.019 208.796 182.858 209.579C182.627 210.708 181.729 211.307 181.383 212.321C181.244 212.735 181.221 213.219 181.106 213.634C180.83 214.647 179.931 215.246 179.585 216.214C179.055 217.688 178.064 218.955 177.764 220.544C177.695 220.913 177.487 221.166 177.188 221.351C176.035 222.042 175.551 223.217 174.952 224.322C174.675 224.829 174.214 225.198 174.191 225.912C174.191 226.511 173.315 226.326 172.923 226.695C172.301 227.271 171.909 228.008 171.356 228.584C169.765 230.196 168.037 231.648 166.331 233.145C164.579 234.688 162.597 235.656 160.684 236.761C158.978 237.752 157.111 238.466 155.244 239.157C154.137 239.572 152.962 239.894 151.832 240.263C149.343 241.069 146.853 241.276 144.249 241.161C141.137 241.023 138.117 240.401 135.167 239.526C132.447 238.719 129.796 237.545 127.468 235.794C126.223 234.849 124.725 234.32 123.596 233.26C121.706 231.486 119.285 230.311 117.672 228.169C117.28 227.639 117.165 227.156 117.303 226.58C117.626 225.244 118.179 224.023 119.193 223.078C119.493 222.802 119.608 222.756 120.046 223.078C121.959 224.414 123.596 226.073 125.601 227.363C127.284 228.423 128.92 229.574 130.718 230.404C131.64 230.841 132.516 231.256 133.346 231.832C134.06 232.316 135.098 232.085 135.997 232.431C138.578 233.49 141.367 233.675 144.133 233.813C145.079 233.859 145.931 233.26 146.923 233.352C148.674 233.536 150.357 232.891 152.063 232.684C153.446 232.523 154.852 232.016 156.074 231.371C158.056 230.311 160.246 229.759 162.136 228.423C164.21 226.948 166.054 225.29 167.806 223.47C169.927 221.258 171.356 218.586 172.808 216.006C174.053 213.795 175.39 211.468 175.943 208.934C176.381 206.93 177.072 205.018 177.741 203.13C178.386 201.264 178.317 199.283 178.939 197.486C179.654 195.39 179.262 193.086 180.369 191.059C180.645 190.552 180.484 189.769 180.461 189.124C180.438 188.364 180.553 187.627 180.599 186.889C180.714 184.379 181.221 181.868 180.691 179.311C180.553 178.643 180.691 177.906 180.807 177.238C180.899 176.708 180.968 176.178 180.83 175.671C180.207 173.16 179.977 170.58 179.47 168.023C179.032 165.812 178.801 163.554 177.994 161.435C176.957 158.694 175.828 155.976 174.56 153.35C173.868 151.921 172.67 150.631 171.909 149.203C171.102 147.683 169.765 146.623 168.936 145.149C168.336 144.089 167.253 143.237 166.308 142.431C165.962 142.131 165.709 141.901 165.57 141.44C165.432 140.957 165.086 140.473 164.671 140.15C163.334 139.068 162.435 137.547 161.214 136.442C159.692 135.059 158.863 133.309 157.779 131.719C156.488 129.807 155.405 127.734 154.391 125.615C153.63 124.002 153.077 122.321 152.731 120.662C152.432 119.188 151.809 117.737 151.924 116.147C151.994 115.111 151.901 114.028 151.394 113.06C151.233 112.761 151.302 112.485 151.348 112.185C151.556 110.365 151.694 108.569 151.648 106.726C151.602 105.228 151.487 103.639 152.178 102.188C152.224 102.096 152.316 101.911 152.27 101.888C151.533 101.059 152.201 100.276 152.385 99.5156C152.8 97.9031 153.331 96.3367 153.446 94.6551C153.515 93.6876 154.114 93.5494 154.852 93.7336C155.843 94.0101 156.811 94.3095 157.825 94.3556C157.987 94.3556 158.309 94.3095 158.217 94.586C158.102 94.9545 158.586 95.4613 158.102 95.6226C157.41 95.876 157.572 96.4288 157.457 96.8895C157.111 98.2947 157.111 99.792 156.373 101.082C156.304 101.197 156.304 101.451 156.373 101.497C157.065 101.98 156.65 102.579 156.581 103.132C156.419 104.353 156.304 105.597 156.051 106.795C155.866 107.785 155.705 108.753 156.074 109.674C156.558 110.849 156.004 111.955 156.027 113.107C156.027 114.604 156.88 115.894 156.903 117.368C156.926 118.819 157.756 120.086 157.987 121.422C158.24 122.989 159.139 124.141 159.715 125.477C160.43 127.112 161.652 128.517 162.574 130.038C163.334 131.282 164.579 132.18 165.271 133.447C165.801 134.414 166.608 135.106 167.161 136.027C167.991 137.386 169.304 138.33 170.226 139.62C171.54 141.486 173.108 143.122 174.168 145.172C174.836 146.462 176.012 147.522 176.75 148.835C177.326 149.848 177.994 150.816 178.455 151.921C178.847 152.82 179.009 153.926 179.885 154.755C180.369 155.216 180.83 156.183 181.014 156.966C181.36 158.417 182.259 159.661 182.42 161.205C182.512 162.241 183.365 163.025 183.573 164.13C184.08 166.71 184.725 169.267 185.301 171.847C185.785 173.99 185.97 176.155 186.154 178.32L186.223 178.343Z" fill="#FEFEFE"/>
<path fill-rule="evenodd" clip-rule="evenodd" d="M98.6092 178.804C98.6553 180.716 98.0099 182.305 97.2262 183.918C96.212 185.991 94.6907 187.419 92.6853 188.433C92.1551 188.686 91.7863 189.239 91.4175 189.654C90.2189 191.082 88.8359 192.119 87.1071 192.741C86.9227 192.81 86.7383 192.879 86.6 192.994C84.2719 194.814 81.99 196.772 79.247 197.97C77.2647 198.822 75.2823 199.743 73.277 200.573C71.1794 201.448 69.0587 202.162 66.8459 202.438C63.5958 202.83 60.1613 203.337 57.718 200.411C56.5194 198.983 55.4591 197.255 56.2889 195.205C56.6346 194.376 56.2197 193.455 56.8651 192.694C57.6258 191.773 58.156 190.644 59.078 189.861C59.6081 189.423 59.5159 188.732 59.8847 188.179C60.5762 187.143 61.6135 186.567 62.4203 185.715C64.9789 183.066 67.9754 181.015 71.1563 179.173C71.6404 178.896 71.8478 178.343 72.378 178.044C74.4064 176.892 76.6884 176.247 78.6246 174.98C79.7541 174.243 80.9988 174.22 82.1744 173.828C85.1709 172.769 88.2596 172.239 91.4175 172.216C93.8839 172.216 96.0967 173.022 97.6872 175.164C98.5401 176.339 98.6553 177.583 98.5862 178.827L98.6092 178.804ZM94.2758 178.574C94.5524 177.652 93.6534 177.284 93.446 176.639C93.0772 175.533 92.3626 174.98 91.2331 175.141C89.3661 175.395 87.4759 175.602 85.6319 176.132C82.4049 177.053 79.27 178.136 76.3196 179.818C75.4667 180.301 75.1671 181.269 74.2451 181.522C73.0695 181.845 72.1244 182.49 71.4329 183.503C71.3407 183.618 71.2255 183.78 71.1102 183.803C69.612 184.125 68.5747 185.139 67.5144 186.129C66.6846 186.913 65.7165 187.534 65.0249 188.502C64.4717 189.285 63.9185 190.137 63.204 190.736C61.1986 192.441 60.5993 194.583 60.7145 197.071C60.7837 198.638 61.6596 199.559 63.227 199.697C64.587 199.835 65.97 199.49 67.1917 199.075C68.8744 198.522 70.6262 198.154 72.2627 197.325C73.5305 196.657 74.8674 196.035 76.1121 195.297C77.5643 194.468 79.0395 193.662 80.4456 192.764C81.2063 192.28 82.013 191.727 82.7506 191.289C83.7648 190.69 84.4794 189.792 85.5167 189.262C86.7153 188.663 87.7986 187.765 88.7206 186.913C90.3111 185.461 92.3626 184.425 93.1924 182.098C93.6073 180.9 93.9761 179.702 94.2758 178.528V178.574Z" fill="#26716B"/>
<path fill-rule="evenodd" clip-rule="evenodd" d="M10.3265 167.609C10.6723 167.655 11.0642 167.77 11.3869 168.069C13.0695 169.682 14.9827 170.995 16.5732 172.723C18.3711 174.635 20.5148 176.224 22.5893 177.837C22.8198 178.021 23.0273 178.251 23.2117 178.505C24.1567 179.702 25.3553 180.578 26.6692 181.315C27.499 181.776 27.7756 182.835 28.6515 183.342C29.5735 183.872 30.5877 184.402 30.8413 185.623C30.8413 185.715 31.0026 185.784 31.0949 185.83C33.1233 186.751 33.9992 188.871 35.6819 190.161C37.1801 191.312 38.4709 192.717 39.9692 193.869C41.8824 195.32 43.6112 196.91 45.386 198.499C46.6538 199.651 48.0138 200.711 49.3737 201.793C50.5724 202.761 51.8632 203.636 52.8774 204.903C53.5228 205.71 54.4909 206.331 55.3207 207.023C57.1186 208.497 58.7322 210.178 60.484 211.699C61.4752 212.551 62.6277 213.15 63.6188 213.979C64.3103 214.555 64.9327 215.2 65.6703 215.73C66.6615 216.421 66.3618 217.389 66.0622 218.195C65.8317 218.817 64.9557 218.817 64.5869 218.494C64.149 218.08 63.8954 218.08 63.4575 218.333C62.9734 218.632 62.3972 218.425 62.2819 218.034C61.8209 216.605 60.0921 216.882 59.4006 215.707C58.7552 214.578 57.741 213.795 56.4963 213.311C55.8509 213.058 55.4821 212.344 54.998 211.86C53.9838 210.869 53.0618 209.764 51.794 209.027C51.0103 208.566 50.4341 207.783 49.8348 207.069C49.6734 206.884 49.6042 206.562 49.3737 206.47C47.8985 205.94 47.1148 204.489 45.847 203.705C45.1325 203.245 44.7406 202.392 43.98 201.932C41.1448 200.25 39.0011 197.67 36.3964 195.712C35.4975 195.044 34.5524 194.261 33.9761 193.201C33.6073 192.533 32.7545 192.602 32.2474 192.003C30.2881 189.677 27.8217 187.811 25.7933 185.576C24.2028 183.803 22.0361 182.789 20.4687 180.946C19.6158 179.933 18.4172 178.942 17.1494 178.182C16.3196 177.698 15.9047 176.685 15.098 176.04C13.5997 174.842 12.2628 173.414 10.9489 171.985C10.1882 171.179 9.51977 170.235 8.96657 169.29C8.41336 168.346 9.08181 167.586 10.3496 167.586L10.3265 167.609Z" fill="#26716B"/>
<path fill-rule="evenodd" clip-rule="evenodd" d="M72.3089 217.481C71.9631 217.411 71.3407 217.435 70.8106 217.181C70.073 216.813 70.2804 216.145 70.5109 215.5C70.8797 214.44 71.8248 213.772 72.5855 213.173C73.5997 212.367 74.4295 211.054 75.9738 211.1C76.6654 211.1 76.8037 210.777 76.8728 210.247C76.8728 210.132 76.9189 209.971 76.9881 209.948C78.348 209.625 78.9935 208.266 80.2382 207.69C81.2524 207.207 82.2205 206.493 83.1195 205.802C84.6869 204.581 86.577 203.867 88.1214 202.669C89.0203 202.001 89.804 201.148 90.8182 200.596C92.4779 199.697 93.7687 198.223 95.5205 197.463C96.0507 197.232 96.189 196.656 96.65 196.403C98.5401 195.297 100.2 193.823 102.021 192.625C103.634 191.566 105.179 190.299 106.7 189.032C107.968 187.995 109.466 187.143 111.31 187.373C112.025 187.465 112.393 187.811 112.601 188.456C112.808 189.078 112.716 189.446 112.14 189.976C111.01 190.99 109.558 191.427 108.475 192.533C106.4 194.675 103.358 195.597 101.398 197.9C101.306 198.016 101.168 198.108 101.03 198.177C97.7103 199.72 95.0595 202.208 92.1091 204.304C90.703 205.295 89.2739 206.101 87.7526 206.884C86.5078 207.552 85.3784 208.566 84.2489 209.487C83.3269 210.247 82.4279 211.077 81.4368 211.699C79.4314 212.966 77.6104 214.509 75.6281 215.753C74.66 216.352 73.9685 217.596 72.3089 217.481Z" fill="#26716B"/>
<path fill-rule="evenodd" clip-rule="evenodd" d="M62.789 235.425C62.5815 232.177 63.4574 228.998 63.4574 225.773C63.4574 224.507 63.9876 223.355 64.4256 222.18C64.61 221.65 65.071 221.927 65.3937 221.857C65.8086 221.788 66.2696 221.788 66.454 222.295C66.7767 223.17 67.2377 224 66.915 225.013C66.6615 225.82 67.0994 226.672 66.9842 227.524C66.915 228.054 67.0994 228.584 66.8919 229.16C66.477 230.288 66.8458 231.463 66.8458 232.615C66.8458 235.356 66.6845 238.097 66.938 240.816C67.0072 241.599 66.7767 242.451 66.6384 243.234C66.454 244.294 65.3245 243.926 64.633 244.018C63.8954 244.133 63.5727 243.396 63.4344 242.774C63.0886 241.092 62.8351 239.411 62.812 237.683C62.812 236.923 62.812 236.163 62.812 235.402L62.789 235.425Z" fill="#26716B"/>
</svg>
