<svg width="676" height="315" viewBox="0 0 676 315" fill="none" xmlns="http://www.w3.org/2000/svg">
<path d="M478.46 182.407L484.47 162.16H486.109L488.841 188.426C497.145 187.113 498.857 194.445 498.675 198.276L535.826 182.407L523.26 140.272C506.651 135.456 508.691 123.308 511.787 117.836L544.021 88.2872H563.142L589.913 116.742L595.376 117.836L594.284 133.158L601.386 140.272L599.747 179.124L613.952 222.353H474.636L469.172 196.087L478.46 182.407Z" fill="#FEFEFE"/>
<ellipse cx="641.71" cy="77.9325" rx="31.0242" ry="31.064" fill="white"/>
<path d="M75.1111 7.08477C21.1182 10.1367 16.3285 53.4083 20.6827 74.6626L50.6179 162.405L12.5181 300.285H181.79C166.369 256.323 136.179 167.201 121.375 162.405C106.57 157.609 107.949 138.244 112.666 129.161C117.928 124.801 129.866 111.939 135.526 95.372C141.187 78.8045 128.45 49.9567 121.375 37.6038C128.451 26.1592 117.02 -7.62977 75.1111 7.08477Z" fill="white"/>
<path opacity="0.4" fill-rule="evenodd" clip-rule="evenodd" d="M88.609 69.1576C89.1108 71.342 86.3758 73.8779 82.4866 74.7818C78.5973 75.7108 75.0343 74.6814 74.5074 72.4719C73.9805 70.2875 76.7155 67.7516 80.6047 66.8477C84.4939 65.9187 88.0569 66.9481 88.5839 69.1576H88.609Z" fill="#E06765"/>
<path opacity="0.4" fill-rule="evenodd" clip-rule="evenodd" d="M137.387 54.6703C137.914 56.8547 135.179 59.3906 131.289 60.2945C127.4 61.2235 123.837 60.1941 123.31 57.9846C122.783 55.8002 125.518 53.2643 129.407 52.3604C133.297 51.4314 136.86 52.4608 137.387 54.6703Z" fill="#E06765"/>
<path d="M12.1285 301.607C12.1285 301.607 2.2172 302.461 5.07766 262.238C7.93813 221.99 20.5593 181.491 28.5385 171.247C36.5177 161.003 45.5758 161.48 45.5758 161.48L50.2429 164.97L28.5385 258.195L21.0862 274.189L12.1285 301.582V301.607Z" fill="#EFE452"/>
<path d="M46.5797 311.5C46.5797 311.5 66.6782 313.483 77.9194 312.68C89.1605 311.876 101.656 310.094 111.091 312.881C120.525 315.668 153.772 312.027 153.772 312.027L157.761 310.947C157.761 310.947 132.469 291.388 121.629 265.602C110.79 239.816 97.9677 222.015 97.9677 222.015C97.9677 222.015 90.8918 223.22 87.2786 215.186C83.6654 207.151 73.2272 204.289 73.2272 204.289L68.9867 202.18L66.0509 211.52C66.0509 211.52 65.8753 267.787 66.0509 275.696C66.2266 283.605 58.8496 301.632 58.8496 301.632L46.6048 311.525L46.5797 311.5Z" fill="#EFE452"/>
<path d="M177.082 301.03C177.082 301.03 178.738 295.305 174.322 286.517C169.906 277.729 113.474 219.68 109.008 215.186C104.542 210.666 99.7994 185.734 99.7994 185.734C99.7994 185.734 105.646 184.654 110.463 178.503C115.281 172.351 118.217 161.505 118.217 161.505C118.217 161.505 138.717 165.673 147.9 176.519C157.109 187.391 182.552 271.026 182.552 271.026L184.71 286.743L177.082 301.03Z" fill="#EFE452"/>
<path fill-rule="evenodd" clip-rule="evenodd" d="M164.311 312.68C162.128 312.102 159.945 311.5 157.736 310.947C155.98 310.52 154.274 310.069 152.793 308.964C151.589 308.06 149.908 308.01 148.779 306.955C147.675 305.951 146.345 305.273 145.442 303.992C144.689 302.913 143.108 302.687 142.205 301.582C141.753 301.03 141.151 300.603 140.9 299.875C140.749 299.423 140.498 298.895 140.122 298.644C137.713 297.037 136.634 294.276 134.702 292.242C133.598 291.087 132.795 289.48 132.068 287.999C131.214 286.266 129.734 285.061 128.831 283.429C127.501 280.994 125.619 278.884 124.615 276.273C124.038 274.767 122.583 273.988 122.156 272.356C121.554 269.996 120.174 267.887 118.744 266.054C116.636 263.343 116.009 259.878 113.725 257.266C112.822 256.237 112.546 254.655 111.969 253.35C111.166 251.542 109.61 250.186 108.983 248.253C108.807 247.751 108.506 247.324 108.557 246.721C108.607 246.018 108.356 245.466 107.804 244.938C106.173 243.306 105.796 241.022 104.893 238.988C104.567 238.21 104.316 237.381 103.538 236.979C102.785 236.578 102.961 235.774 102.886 235.297C102.509 233.539 100.577 232.585 100.628 230.652C100.628 230.2 100.251 229.598 99.8748 229.271C99.3479 228.794 99.097 228.292 99.0719 227.639C99.0719 227.037 98.57 226.71 98.3442 226.258C97.4409 224.526 95.8852 224.124 94.2041 223.546C92.4226 222.944 90.6661 221.99 89.261 220.534C87.5798 218.776 85.2212 217.696 84.1674 215.361C82.9128 212.549 80.3534 210.892 78.2708 208.858C77.2671 207.854 76.3136 206.724 75.2347 205.77C73.8546 204.565 72.5499 203.611 70.7432 203.335C68.8363 203.033 67.7071 201.426 66.1013 200.573C64.8467 199.92 63.8179 198.941 62.5382 198.313C59.4268 196.731 57.3944 194.22 56.8424 190.705C56.742 190.128 56.9177 189.349 57.1435 188.923C57.6704 187.918 57.0933 187.466 56.5413 186.939C55.7384 186.186 55.0358 185.307 54.1325 184.604C52.7273 183.524 52.5266 180.863 53.6055 179.432C54.2579 178.603 54.3583 178.076 53.6055 177.072C52.6019 175.716 52.2506 173.958 51.7989 172.226C50.7702 173.356 50.996 174.762 51.0211 175.992C51.0211 177.473 50.6949 178.955 49.8669 179.909C49.3149 180.587 48.6625 181.265 48.7127 181.943C48.8632 184.202 47.5584 186.136 47.3577 188.37C47.1821 190.103 46.6551 192.036 45.9525 193.794C45.3253 195.375 44.9991 197.133 44.698 198.84C44.1961 201.728 43.3179 204.515 42.9415 207.402C42.5401 210.741 41.2102 213.93 41.3858 217.37C41.4109 217.998 41.0095 218.65 40.8338 219.303C40.1563 221.714 39.4538 224.149 39.1778 226.66C39.1025 227.313 38.8767 228.141 38.3999 228.493C37.4213 229.246 37.7977 230.049 37.873 230.978C37.9483 232.108 37.8479 233.313 37.5217 234.418C36.9697 236.176 37.0199 238.109 35.9409 239.716C35.7904 239.942 35.6649 240.243 35.6398 240.519C35.4642 243.005 34.7365 245.416 34.3852 247.851C33.9085 251.215 32.8546 254.479 32.6037 257.869C32.403 260.355 32.1019 262.815 32.2022 265.326C32.3026 267.862 32.0266 270.398 31.8761 272.959C31.7255 275.168 31.5499 277.378 31.575 279.587C31.575 279.939 31.5499 280.29 31.4495 280.617C31.2488 281.219 30.9477 281.973 30.3204 282.048C29.7934 282.123 29.5927 281.345 29.392 280.868C28.4887 278.734 27.2341 276.725 26.7824 274.44C26.4311 272.658 26.7824 270.825 26.6319 269.017C26.5566 268.138 26.2304 267.31 26.2555 266.406C26.2555 266.205 26.2053 266.004 25.9544 266.004C25.7286 266.004 25.578 266.18 25.5529 266.356C25.4275 268.465 24.198 270.147 23.3448 271.93C22.1906 274.39 21.7641 277.077 20.8858 279.613C20.5095 280.768 20.1582 282.098 19.8571 283.329C19.3553 285.362 19.004 287.471 18.4018 289.48C17.5236 292.393 17.0217 295.431 15.9428 298.268C15.7671 298.745 15.8675 299.774 15.0896 299.523C14.1111 299.197 12.5805 299.724 12.2794 297.992C11.9532 296.109 12.6307 294.301 12.5303 292.493C12.4048 289.982 13.7849 287.697 13.3332 285.212C13.2579 284.835 13.1827 284.182 13.8351 283.981C14.0358 283.906 14.1863 283.705 14.086 283.529C13.0572 281.621 14.7133 280.29 15.1147 278.709C15.1398 278.558 15.2653 278.433 15.2904 278.307C15.466 274.817 17.6741 271.98 18.477 268.691C20.108 267.737 19.3302 265.552 20.8106 264.347C21.6637 263.644 21.9899 262.012 22.291 260.807C22.9434 258.271 24.4489 256.363 26.1049 254.53C26.7824 253.776 27.3595 252.998 27.8112 252.119C28.0872 251.567 27.5352 250.914 27.761 250.261C28.5639 247.977 28.9654 245.616 29.2916 243.206C29.4923 241.775 29.8938 240.193 30.4458 238.712C30.9477 237.381 31.575 235.95 31.575 234.468C31.575 232.485 31.9764 230.652 32.9299 228.92C33.2059 228.417 33.3314 227.74 33.0052 227.087C32.5535 226.233 32.8045 225.379 33.3816 224.701C33.6576 224.375 33.5321 224.124 33.5823 223.798C33.6576 223.195 33.2561 222.442 34.31 222.09C34.6612 221.99 34.9373 220.885 34.862 220.282C34.5609 217.696 35.69 215.336 36.0162 212.85C36.4929 209.16 37.4715 205.519 38.1992 201.853C38.4752 200.397 38.425 198.916 38.8767 197.459C39.253 196.179 39.7298 194.898 40.1814 193.668C42.0131 188.571 42.4397 183.198 43.6692 178.001C43.7696 177.599 43.8448 177.172 43.9452 176.77C44.6478 174.159 45.802 171.749 46.63 169.188C47.0566 167.907 47.2071 166.526 47.4581 165.196C47.7592 163.488 47.1319 162.258 45.5762 161.48C44.4972 160.927 43.5437 160.325 42.8663 159.145C42.2139 158.015 40.9593 157.261 39.9807 156.358C37.321 153.897 34.8118 151.286 32.6037 148.373C31.5499 146.967 30.4458 145.511 28.84 144.607C28.5388 144.431 28.0621 144.256 28.1123 143.954C28.3883 142.423 27.2341 142.121 26.2806 141.544C25.7537 141.243 25.3271 140.69 25.0009 140.163C24.2231 138.908 23.1943 137.903 22.1404 136.874C20.5597 135.317 19.0291 133.233 18.728 131.225C18.4018 129.015 18.0254 126.655 18.3767 124.194C18.753 121.734 19.1294 119.097 18.9287 116.536C18.7029 113.348 19.2047 110.209 19.8822 107.121C19.9575 106.744 20.2084 106.343 20.4091 105.966C20.9611 105.037 21.6386 104.133 20.8858 102.802C20.0578 101.346 19.7818 99.6387 18.7029 98.1824C17.8748 97.0526 17.8999 95.3452 17.3981 93.9643C16.5199 91.6042 16.7959 89.0934 16.3944 86.683C16.0431 84.5237 16.4697 82.264 16.9213 80.1298C17.2475 78.6233 17.1723 76.9913 18.0003 75.5351C18.3516 74.8823 18.4018 74.0788 19.1294 73.6017C19.6062 73.3004 19.6564 72.723 19.7818 72.1957C19.9825 71.2165 20.2836 70.2875 21.3375 69.8355C21.8644 69.6096 22.567 69.484 22.3161 68.6555C22.1906 68.1784 22.5168 68.4295 22.6925 68.3542C23.6459 67.9022 24.4489 67.3248 25.1264 66.446C25.6031 65.8183 26.4813 65.4668 27.2592 65.1153C29.2665 64.2114 31.2237 63.3577 33.4819 62.9058C36.1668 62.3785 38.6759 62.6045 41.0597 63.433C43.6692 64.362 46.5548 65.1404 48.3112 67.7014C48.3614 67.7767 48.4115 67.9022 48.4868 67.9273C52.2004 69.233 53.5805 72.6476 55.5125 75.5602C55.8638 76.1125 56.0395 76.8156 56.8675 75.6857C58.4483 73.5766 59.0254 71.091 59.3014 68.6806C59.5272 66.6971 59.9036 64.6131 59.4018 62.5542C59.2261 61.8763 59.4519 61.1231 60.4305 60.9222C61.7102 60.646 62.9146 60.0434 64.1441 59.6166C65.4489 59.1647 66.5027 58.1603 67.5566 57.0807C69.0119 55.5742 69.9403 53.8167 70.6429 51.9587C71.3204 50.2011 71.6716 48.2678 71.7218 46.3094C71.772 44.2505 72.2237 43.4471 74.2812 43.0203C76.966 42.493 78.7224 40.7354 80.504 38.9528C86.0241 33.429 88.4079 26.2481 90.8418 19.1175C90.9672 18.7409 91.0676 18.3642 91.2432 18.0127C91.6698 17.1339 92.6484 17.0084 93.1502 17.8621C93.9531 19.2681 94.2542 20.8248 93.6019 22.3815C92.9997 23.8378 93.3259 25.4447 92.8491 26.926C92.6986 27.378 92.7738 27.9304 92.5229 28.3321C91.3185 30.3407 91.1178 32.726 89.9134 34.7597C88.4581 37.2203 87.078 39.5051 84.8699 41.5138C82.7622 43.4471 80.7047 45.2046 78.1453 46.46C77.8944 46.5856 77.8442 46.8116 77.794 47.0626C77.3926 48.6695 77.1918 50.3267 76.5645 51.8331C75.862 53.5405 75.5358 55.3734 74.6576 57.0807C73.5786 59.1396 71.9727 60.2443 70.3167 61.4746C69.3381 62.2027 68.2842 62.8053 66.9544 62.8555C65.5242 62.956 65.2732 63.6088 65.2732 65.0901C65.2983 67.626 64.9219 70.1368 64.1943 72.5974C63.5168 74.8823 62.0364 76.6398 60.5058 78.3723C60.1545 78.774 59.6778 79.3766 59.2763 79.3766C57.3191 79.3766 57.8461 80.5064 58.097 81.6112C58.6239 84.0969 59.2512 86.5575 59.1257 89.1185C59.0254 91.3782 58.925 93.6379 57.9966 95.7721C57.8461 96.1236 57.3944 96.1989 57.269 96.45C56.9929 97.0024 56.3907 97.6803 57.4446 98.1322C61.3087 99.7894 62.0364 101.07 61.5095 105.238C61.4091 106.016 61.108 106.794 61.8858 107.422C62.0113 107.523 62.1117 107.598 61.8858 107.824C61.2836 108.477 61.2836 108.627 62.1368 108.828C64.2445 109.28 64.9721 110.636 65.1227 112.67C65.223 114.026 66.1264 115.206 66.026 116.712C66.0009 117.29 65.5492 117.541 65.5242 118.168C65.3485 121.081 67.5566 122.612 68.9115 124.621C69.0621 124.847 69.4636 124.998 69.5388 125.224C70.0407 127.283 71.7469 128.513 72.7757 130.17C73.3779 131.124 73.9048 132.053 74.9336 132.605C75.9623 133.158 76.5896 134.087 77.2169 135.041C78.1453 136.522 79.6257 137.451 81.2065 137.878C82.16 138.154 83.3142 137.476 84.2928 137.024C87.354 135.593 90.365 135.794 93.627 136.472C96.8136 137.15 98.7708 139.41 100.602 141.393C103.212 144.205 105.997 147.118 107.377 150.909C108.105 152.893 109.259 154.952 109.209 156.935C109.159 159.371 109.736 161.881 108.657 164.367C107.979 165.924 107.578 167.631 106.875 169.238C106.625 169.79 106.424 170.393 105.947 170.669C104.241 171.648 103.187 173.481 101.104 173.983C100.377 174.159 99.7995 174.963 98.9715 175.189C98.5199 175.314 98.6202 175.766 98.7959 176.067C99.9501 177.976 100.176 180.235 101.104 182.219C101.305 182.646 101.405 182.671 101.807 182.545C103.538 181.993 105.194 181.591 106.474 179.934C107.327 178.829 108.456 177.8 109.41 176.67C111.166 174.561 112.546 172.201 113.751 169.74C114.252 168.711 114.98 167.857 115.758 167.028C116.46 166.275 117.314 166.25 117.991 166.677C118.769 167.154 118.995 168.083 118.719 169.037C118.367 170.318 117.64 171.447 117.464 172.879C117.339 173.858 116.335 174.887 115.783 175.942C115.281 176.946 114.654 178.176 113.926 178.779C112.797 179.708 112.371 181.164 111.091 181.892C109.661 182.671 108.782 184.102 107.453 185.056C106.248 185.935 104.793 186.186 103.513 186.788C102.861 187.09 102.886 187.24 102.986 187.743C103.388 190.002 104.718 191.91 105.345 194.07C105.972 196.179 106.951 198.213 107.026 200.497C107.026 200.648 107.026 200.799 107.101 200.924C109.109 204.64 109.284 209.034 111.492 212.65C112.822 214.834 114.278 216.893 116.134 218.676C117.565 220.031 118.694 221.789 120.249 222.894C121.529 223.798 122.859 224.676 123.712 225.907C125.77 228.92 128.806 230.978 131.114 233.765C132.118 234.971 133.573 236.1 134.552 237.281C136.233 239.264 138.692 240.62 139.695 243.131C139.972 243.809 140.624 243.984 141.05 244.436C142.481 245.893 143.509 247.675 144.915 249.081C146.119 250.312 147.323 251.667 148.854 252.622C149.055 252.747 149.281 252.898 149.406 253.099C150.134 254.254 151.388 255.032 152.116 256.036C153.596 258.07 155.554 259.652 157.109 261.61C158.439 263.242 159.694 265.025 161.224 266.506C163.859 269.017 165.741 272.105 167.949 274.942C170.684 278.433 172.44 282.475 174.272 286.467C174.975 287.999 174.975 289.756 174.975 291.464C174.975 292.116 174.799 292.091 174.147 292.141C172.691 292.242 171.838 291.514 171.085 290.484C170.307 289.405 169.63 288.275 169.229 286.994C168.752 285.538 167.848 284.308 167.096 282.977C165.816 280.717 164.06 278.834 162.805 276.575C161.826 274.842 160.095 273.737 158.79 272.281C152.894 265.678 147.047 259.024 141.301 252.32C139.344 250.035 137.211 247.926 135.304 245.616C134.426 244.562 133.598 243.507 132.62 242.528C129.734 239.666 126.874 236.778 124.364 233.565C123.662 232.686 122.583 232.259 121.755 231.481C120.249 230.075 118.518 228.568 117.514 226.986C116.31 225.103 114.528 224.325 113.173 222.869C111.593 221.161 109.786 219.554 108.557 217.671C106.248 214.131 103.965 210.566 103.087 206.172C102.409 202.707 101.255 199.267 99.925 195.928C98.9464 193.517 98.7457 190.755 97.5162 188.496C96.0107 185.734 96.1612 182.545 94.455 179.884C93.3259 178.126 92.8491 175.992 91.7702 174.159C91.2934 173.331 90.9923 172.477 89.8632 172.402C89.5621 172.402 89.2108 172.15 88.985 171.899C87.1784 170.016 84.6943 169.765 82.3858 169.238C77.9697 168.259 73.5033 167.48 69.0872 166.577C67.8075 166.3 66.7035 165.472 65.2732 165.873C64.5205 166.074 63.4164 166.049 63.4917 166.953C63.5419 167.807 64.0186 168.761 65.2732 168.987C67.8326 169.439 70.3167 170.267 72.851 170.845C74.6576 171.247 76.5395 171.648 78.2457 172.803C79.1992 173.456 80.0774 174.486 81.4825 174.686C82.7873 174.887 83.9164 175.866 84.8448 176.921C84.9954 177.097 85.1961 177.273 85.3718 177.448C85.9238 178.026 85.6478 178.628 85.4972 179.256C85.2965 179.984 84.7194 179.884 84.1674 179.859C83.791 179.859 83.3393 179.859 83.0131 179.708C80.2029 178.227 77.1417 177.398 74.3565 175.791C72.5499 174.762 70.392 174.26 68.2843 173.933C67.4813 173.808 66.8289 173.582 66.1264 173.23C63.9183 172.125 61.6349 171.623 59.2261 172.753C57.8712 173.406 57.5951 175.415 58.8748 176.218C59.5774 176.67 60.3302 177.197 61.2585 177.172C62.9899 177.122 64.5456 177.775 66.1013 178.478C67.682 179.181 69.313 179.808 71.0443 180.21C72.6 180.562 74.1306 181.164 75.6612 181.641C78.07 182.369 80.5541 182.897 82.9379 183.826C84.0921 184.278 84.1423 185.182 84.2677 186.035C84.3932 187.04 83.4899 187.115 82.7622 187.291C81.4073 187.617 80.1527 187.04 78.8981 186.763C77.2922 186.412 75.6361 186.035 74.1808 185.433C72.3993 184.704 70.4672 184.83 68.7108 183.725C67.3308 182.846 65.4238 182.395 63.6925 182.143C62.463 181.968 61.5847 180.813 60.2298 181.064C59.7029 181.164 59.1007 180.888 58.7745 181.491C58.4734 182.068 58.8497 182.47 59.201 182.897C61.6098 185.809 64.9219 187.265 68.3595 188.395C70.9189 189.224 73.3528 190.304 75.5358 191.785C76.9409 192.714 78.5217 193.166 79.9268 194.02C80.3785 194.296 80.9556 194.371 81.2818 194.873C81.7334 195.576 81.9091 196.48 81.5327 197.108C81.0811 197.861 79.977 197.685 79.3497 197.51C75.9623 196.53 72.4244 195.802 69.5137 193.618C67.9581 192.463 66.0511 192.212 64.2947 191.584C63.8179 191.408 63.5419 190.831 62.8644 190.956C62.7891 192.262 62.488 193.643 64.4201 193.969C64.5958 193.969 64.7463 194.145 64.8969 194.296C67.2555 196.706 70.2163 198.112 73.2273 199.468C76.0125 200.748 78.9483 201.929 80.8552 204.389C82.4611 206.448 84.6692 207.754 86.3754 209.612C87.8809 211.218 89.1606 213.076 90.3399 214.934C92.1465 217.797 94.7812 219.379 97.8675 220.383C98.821 220.684 99.7243 220.96 99.8748 222.191C99.925 222.592 100.176 223.044 100.452 223.346C104.14 227.438 106.374 232.485 109.084 237.205C110.162 239.088 111.568 240.771 112.27 242.829C113.249 245.742 115.206 248.152 116.46 250.939C117.188 252.571 118.167 254.128 119.145 255.634C120.099 257.091 120.35 258.798 121.278 260.279C123.185 263.267 125.218 266.205 126.623 269.469C128.178 273.034 130.688 275.972 132.569 279.336C132.946 280.014 133.222 280.768 133.673 281.42C135.304 283.856 137.161 286.141 138.566 288.702C139.67 290.685 141.703 292.041 142.255 294.451C142.456 295.38 143.861 295.657 144.538 296.586C146.094 298.745 147.951 300.728 150.134 302.26C152.367 303.817 154.7 305.323 157.184 306.453C160.346 307.909 163.608 309.315 167.271 308.386C169.429 307.859 170.784 306.127 172.44 304.871C173.645 303.967 174.598 302.737 175.702 301.682C176.856 300.578 177.91 300.879 178.287 302.411C178.412 302.963 178.538 303.641 178.362 304.168C177.584 306.654 176.455 308.863 173.896 310.119C171.913 311.098 169.831 311.826 167.823 312.705H164.285L164.311 312.68ZM52.6019 171.247C53.0535 171.196 53.2292 171.247 53.3295 171.171C54.81 170.292 55.7383 168.384 57.9464 168.861C58.4734 168.962 58.2224 168.384 58.1221 168.083C57.5701 166.376 58.373 164.367 59.8283 163.338C61.3338 162.258 62.9146 161.53 64.7714 161.655C65.5743 161.706 65.5994 161.028 66.026 160.726C65.0976 159.797 65.9507 158.416 65.3736 157.563C64.0437 155.554 64.0939 152.767 61.936 151.236C61.8357 151.16 61.7855 150.984 61.7604 150.859C61.4342 148.825 60.28 147.243 58.9752 145.712C58.1723 144.758 57.269 143.703 56.8926 142.598C56.2904 140.816 57.0682 138.958 57.6202 137.225C57.8712 136.422 58.2224 135.694 58.0468 134.84C57.9213 134.187 58.097 133.585 58.1973 132.957C58.4232 131.526 58.3981 130.019 58.6741 128.613C59.201 126.002 58.6741 123.316 59.5272 120.754C59.9789 119.399 60.3051 118.018 60.6313 116.637C60.832 115.833 60.5811 115.055 59.8032 114.779C59.1257 114.528 58.6741 115.13 58.3228 115.708C58.1723 115.959 57.9966 116.21 57.8712 116.461C55.9893 120.403 54.4838 124.496 53.4801 128.739C53.1288 130.27 52.7775 131.802 52.2506 133.283C52.0248 133.936 51.6735 134.539 51.3222 135.116C50.7953 136.02 49.9171 135.669 49.2145 135.468C48.5872 135.292 48.261 134.815 48.3363 134.011C48.5621 132.103 48.261 130.095 49.0639 128.287C49.6912 126.881 49.1141 125.399 49.5658 123.968C50.1931 121.935 50.5694 119.826 51.5229 117.892C51.6986 117.541 51.6233 117.013 51.8491 116.737C52.7775 115.532 53.8314 114.427 53.8063 112.77C53.8063 111.716 54.9605 111.289 55.1111 110.536C55.4874 108.452 56.8173 106.619 56.466 104.309C56.3907 103.907 56.6166 103.33 56.1649 103.053C55.5878 102.702 55.1362 103.179 54.835 103.631C54.2078 104.635 53.4801 105.514 52.6521 106.393C50.9709 108.175 50.0927 110.536 48.5872 112.494C47.9599 113.297 47.157 114.226 47.0817 115.356C46.8559 119.273 45.4758 122.864 43.9201 126.404C43.2677 127.86 42.2139 128.915 40.8589 129.668C40.4575 129.894 39.7298 130.195 39.6294 129.542C39.504 128.739 38.5505 128.212 39.1025 127.082C39.3283 126.605 39.6043 125.851 39.8302 125.299C40.6331 123.29 39.8302 121.131 40.6331 119.122C40.8589 118.595 41.3106 117.942 41.16 117.39C40.5327 115.181 41.6869 113.222 42.6906 111.741C44.3216 109.305 45.2751 106.393 47.6839 104.409C49.0639 103.279 49.7665 101.446 51.1466 100.241C51.5229 99.9149 51.4978 99.6136 51.4226 99.0863C51.2469 98.0569 50.8705 97.0526 50.996 95.9729C51.0964 95.2197 50.8204 94.6422 50.2432 94.1652C49.6912 93.7132 49.1141 94.0647 48.7628 94.3409C47.4079 95.4708 45.9526 96.5002 45.1998 98.2076C44.8987 98.8604 44.4972 99.3625 43.7194 99.6136C41.963 100.166 41.2604 101.873 40.4825 103.279C39.9556 104.259 39.5291 105.338 38.7763 106.142C37.6221 107.372 37.3712 108.929 36.8693 110.41C36.242 112.293 36.6435 114.302 35.6398 116.21C34.5358 118.319 33.6827 120.604 32.4532 122.688C32.1521 123.19 31.9011 123.893 31.2237 123.793C30.5462 123.692 29.9691 123.215 29.6429 122.587C29.4171 122.11 29.116 121.608 29.2665 121.031C29.8436 119.122 29.7683 117.139 30.1447 115.206C30.5964 112.871 30.9728 110.536 31.6 108.251C31.8761 107.221 32.0015 106.217 32.8045 105.414C33.7078 104.535 34.5358 103.581 34.5609 102.2C34.5609 101.924 34.6863 101.798 34.9623 101.698C36.0413 101.371 36.518 100.467 36.8693 99.4881C37.0701 98.8604 37.3712 98.3582 38.0486 98.1322C38.4752 97.9816 38.7763 97.6803 38.9268 97.2032C39.3785 95.7721 40.332 94.4916 41.436 93.7634C42.791 92.8596 41.8375 91.9306 41.7371 91.3029C41.6117 90.4994 40.7586 91.4535 40.1814 91.4535C39.7047 91.4535 39.4036 91.9054 39.0774 92.2821C37.9985 93.5124 36.8191 94.6673 35.6398 95.8223C34.4605 96.9773 33.0052 97.9314 32.0517 99.2621C31.2488 100.367 29.4422 100.693 29.5676 102.476C28.2879 102.802 28.1374 104.058 27.5101 104.936C27.2843 105.263 27.1839 105.715 26.6821 105.891C26.1049 106.091 26.0297 106.669 25.7788 107.196C25.0009 108.778 25.7787 110.611 24.8754 112.168C24.7249 112.444 24.4489 112.77 24.5743 113.247C25.302 116.16 24.4238 119.047 24.2732 121.935C24.1478 124.119 24.3234 126.278 24.198 128.463C23.9721 131.928 26.3057 134.438 28.5138 136.824C29.5927 137.979 31.2739 138.732 32.0266 140.063C33.0805 141.946 34.5609 143.327 35.9158 144.883C36.6435 145.737 37.6472 146.264 38.2745 147.243C39.8051 149.553 41.5866 151.688 43.6943 153.495C43.9703 153.721 44.3216 153.897 44.5725 154.073C46.0027 155.178 46.7555 156.96 48.3865 157.814C50.3185 158.843 51.5982 160.601 52.8026 162.233C53.8565 163.664 53.7561 165.648 53.0535 167.405C52.8779 167.857 52.6521 168.284 53.0033 168.786C53.5805 169.589 53.4048 170.393 52.5517 171.322L52.6019 171.247ZM29.116 78.2969C28.2377 79.0502 28.9152 79.8034 28.7647 80.5064C28.4134 82.2138 28.5388 83.9964 28.8149 85.6787C29.1912 87.8129 29.9189 89.8717 30.8724 91.8301C31.048 92.2067 31.0731 92.8596 31.4746 92.8596C31.9764 92.8596 32.403 92.4327 32.7041 91.9306C33.0805 91.2777 33.4568 90.5998 34.1343 90.1479C35.1129 89.47 35.138 88.767 34.1092 88.2648C32.4281 87.4362 31.7506 85.8544 31.3742 84.2726C30.8724 82.1887 30.0444 80.2805 29.0909 78.2969H29.116Z" fill="#22706A"/>
<path fill-rule="evenodd" clip-rule="evenodd" d="M38.0486 160.902C39.5792 160.5 40.5327 161.153 41.0345 162.71C41.2854 163.463 41.0345 163.89 40.4825 164.116C38.3748 164.97 36.8191 166.627 34.887 167.757C33.4568 168.61 32.2022 169.74 31.324 171.121C30.5712 172.276 29.8436 173.456 28.9152 174.46C27.9868 175.465 27.761 176.996 26.4311 177.699C26.3307 177.775 26.2304 177.925 26.1802 178.051C25.7536 180.562 24.4739 182.771 23.5706 185.106C22.7928 187.09 21.8644 189.023 21.2371 191.032C20.4342 193.568 19.0541 195.878 18.7781 198.614C18.6275 200.171 17.8497 201.602 17.5235 203.159C17.3479 203.962 17.4482 204.841 17.1471 205.594C15.742 209.034 15.7671 212.75 14.9641 216.29C14.387 218.826 14.2114 221.563 13.2579 223.873C12.5051 225.681 13.2077 227.664 11.928 229.296C11.3007 230.1 11.8277 231.38 11.6018 232.485C11.0247 235.523 10.4476 238.586 10.5229 241.725C10.548 242.905 10.3723 244.185 9.94578 245.416C9.64468 246.269 9.19303 247.324 9.61959 248.378C9.84541 248.956 9.66977 249.533 9.51922 250.111C9.19303 251.341 9.36867 252.797 9.01739 253.827C8.18936 256.337 9.04248 258.898 8.16426 261.409C7.41151 263.594 7.98862 266.079 7.63734 268.414C7.33623 270.448 7.63734 272.507 7.18568 274.566C6.8344 276.123 7.1355 277.83 6.98495 279.437C6.60857 283.153 7.48679 286.793 7.46169 290.434C7.46169 293.447 8.79156 295.933 9.51922 298.619C9.82032 299.699 10.9996 300.829 12.1037 301.657C13.2579 302.536 13.5088 303.967 12.8062 305.122C12.2793 305.951 11.2506 305.926 10.6734 305.75C8.41518 305.097 6.40784 303.992 5.32889 301.682C4.77687 300.452 4.04921 299.322 3.52228 298.042C2.5437 295.657 2.64407 293.07 1.71567 290.71C1.16365 289.304 1.91641 287.898 1.56512 286.417C0.887644 283.605 1.51494 280.617 1.08838 277.78C0.787277 275.62 1.69058 273.712 1.66549 271.729C1.6404 270.021 1.59021 268.339 1.74076 266.632C1.89132 264.899 2.2426 263.066 2.14223 261.485C2.04187 259.978 3.44701 258.698 2.46843 257.116C1.99168 256.337 2.59389 255.057 2.81971 254.279C3.22118 252.998 2.76953 251.768 3.22118 250.563C3.87357 248.855 3.52228 247.022 3.7732 245.265C4.19976 242.578 4.90233 239.892 5.0027 237.18C5.10307 234.669 5.98128 232.334 6.18201 229.849C6.38275 227.313 6.73403 224.526 7.88825 222.04C8.01371 221.789 8.23954 221.437 8.16426 221.237C7.51188 219.655 8.56573 218.299 8.76647 216.843C9.21812 213.604 10.0211 210.44 10.5731 207.201C10.7738 205.996 11.4764 204.916 11.652 203.787C12.0033 201.753 12.4048 199.694 12.9819 197.786C13.7095 195.25 14.0107 192.613 15.4911 190.178C16.4947 188.496 17.4482 186.512 17.8748 184.529C18.2763 182.771 19.1796 181.29 19.8821 179.758C20.2836 178.905 20.5847 177.976 20.936 177.122C22.1655 174.184 24.7248 172.15 25.9794 169.263C26.2053 168.761 26.6569 168.46 27.1086 168.158C28.2377 167.405 29.3166 166.351 29.9941 165.422C31.7004 163.087 34.3601 162.534 36.4678 161.028C36.8191 160.777 37.3711 160.651 37.9733 160.927L38.0486 160.902Z" fill="#26716B"/>
<path fill-rule="evenodd" clip-rule="evenodd" d="M117.213 160.45C120.45 160.551 123.26 161.379 126.045 162.409C127.049 162.785 128.178 162.81 129.232 162.986C131.415 163.363 133.498 164.041 135.505 164.894C137.914 165.924 140.348 167.003 142.481 168.46C144.965 170.167 147.198 172.251 149.456 174.26C150.937 175.59 151.463 177.624 152.668 179.131C155.328 182.47 156.683 186.487 158.339 190.304C159.769 193.568 161.174 196.882 162.102 200.372C162.554 202.079 162.905 203.912 163.909 205.519C164.612 206.649 164.662 208.18 164.963 209.561C165.891 213.579 167.296 217.445 168.551 221.387C169.53 224.526 170.182 227.79 171.06 230.978C171.788 233.64 172.842 236.226 173.444 238.913C174.247 242.428 175.401 245.867 176.104 249.383C176.856 253.224 178.337 256.815 178.964 260.706C179.466 263.845 181.323 266.732 182.201 269.846C183.104 273.009 184.459 275.997 185.011 279.311C185.262 280.742 186.391 282.073 186.366 283.58C186.266 286.618 186.868 289.706 185.613 292.669C184.685 294.903 182.653 296.837 180.72 296.786C180.093 296.786 179.315 296.987 179.039 296.008C178.788 295.079 178.814 294.175 179.391 293.497C180.143 292.593 180.57 291.689 180.57 290.535C180.57 288.551 180.645 286.593 180.72 284.609C180.771 283.63 180.419 282.676 180.168 281.847C179.366 279.211 179.14 276.399 177.885 273.888C177.082 272.256 176.706 270.473 176.329 268.716C176.329 268.615 176.304 268.49 176.229 268.44C174.347 267.084 175.175 264.623 173.971 263.016C173.444 262.288 173.62 261.66 173.77 260.932C173.896 260.254 173.971 259.551 173.067 259.25C172.365 259.024 172.315 258.296 172.29 257.794C172.064 253.299 170.332 249.132 169.053 244.938C168.426 242.804 168.451 240.394 167.071 238.511C167.497 235.423 165.716 232.786 165.164 229.899C164.285 225.379 162.654 221.086 161.199 216.717C160.647 215.01 160.446 212.976 159.719 211.444C158.715 209.285 158.765 206.975 157.812 204.866C156.683 202.431 156.833 199.619 155.102 197.258C153.822 195.501 153.345 193.116 152.618 191.007C152.241 189.927 151.363 189.073 151.012 188.144C150.535 186.839 149.858 185.633 149.406 184.328C149.08 183.349 148.277 182.595 147.9 181.767C147.348 180.587 146.244 179.733 145.968 178.377C145.768 177.373 144.914 176.896 144.187 176.318C143.886 176.067 143.409 175.917 143.284 175.615C142.33 173.28 140.047 172.628 138.19 171.447C136.709 170.518 135.304 169.514 133.673 168.811C132.068 168.108 130.386 167.656 128.73 167.204C126.773 166.652 124.967 165.673 122.884 165.422C121.127 165.196 119.421 164.618 117.69 164.216C117.414 164.141 117.113 164.116 116.837 164.041C115.783 163.714 114.729 163.262 114.93 161.906C115.156 160.5 116.536 160.877 117.188 160.5L117.213 160.45Z" fill="#26716B"/>
<path fill-rule="evenodd" clip-rule="evenodd" d="M68.9868 209.21C69.037 211.369 68.5101 213.554 68.6104 215.637C68.7359 218.224 68.4097 220.76 68.4097 223.321C68.4097 227.338 67.9831 231.405 68.4097 235.397C68.8363 239.239 68.3344 243.005 68.5602 246.822C68.7861 250.462 69.0119 254.178 68.7108 257.869C68.5352 260.154 69.0119 262.564 68.5351 264.724C68.1086 266.782 67.8075 268.816 67.7824 270.9C67.7573 275.194 66.8038 279.361 66.2267 283.605C66.026 285.036 66.0762 286.492 65.7751 287.898C65.4489 289.606 65.2983 291.338 64.6459 293.02C64.1441 294.301 64.2695 295.807 63.7175 297.113C62.8644 299.147 62.0615 301.231 61.1331 303.239C60.8822 303.766 60.5058 304.469 59.6025 304.344C59.0254 304.269 59.0755 304.871 59.0755 305.122C59.0755 306.026 58.4984 306.177 57.821 306.478C56.6918 306.98 55.6881 307.733 54.6092 308.361C52.0749 309.792 49.4152 311.098 46.5547 311.5C42.264 312.077 37.9483 312.429 33.6325 311.901C31.5248 311.65 29.417 311.424 27.2842 311.173C27.0835 311.173 26.8828 311.123 26.7322 310.998C24.4238 309.215 21.6386 308.386 19.1043 307.081C17.9752 306.503 17.1722 305.449 16.3944 304.444C15.9929 303.917 15.9929 303.264 16.3693 302.787C16.6955 302.36 17.2977 302.511 17.8497 302.586C19.8822 302.888 21.6135 303.967 23.4201 304.821C29.2163 307.508 35.2634 308.713 41.6367 308.211C45.4507 307.909 48.9636 306.679 52.1753 304.62C53.1037 304.018 53.8564 303.264 54.4085 302.21C55.1612 300.829 56.4911 299.749 57.1686 298.343C57.8962 296.837 58.2224 295.129 58.5486 293.472C58.7243 292.669 58.7243 291.89 59.1759 291.137C60.029 289.656 59.8032 287.948 59.8032 286.367C59.8032 285.513 60.2799 284.961 60.4556 284.283C60.9825 282.4 60.7065 280.516 60.7316 278.633C60.7316 277.303 60.5058 275.871 61.5094 274.742C61.9109 274.265 61.5094 273.788 61.4342 273.411C61.0829 271.201 61.936 269.143 62.0615 266.983C62.1869 264.623 62.2622 262.288 62.3375 259.953C62.3375 258.924 62.7389 257.794 62.6637 256.789C62.5633 255.132 62.9146 253.475 62.6637 251.818C62.6135 251.542 62.488 251.115 62.6135 250.964C63.6172 249.86 62.8393 248.73 62.8393 247.625C62.8393 246.068 62.3626 244.512 62.8393 242.93C63.4415 240.771 62.7891 238.561 62.8393 236.377C62.8393 235.397 62.7139 234.443 63.015 233.489C63.0902 233.263 63.1906 232.912 63.0902 232.786C62.1116 231.707 62.5131 230.476 62.5884 229.246C62.7389 226.534 62.7139 223.798 62.8142 221.086C62.8895 218.726 63.1404 216.391 63.04 214.031C62.9397 211.721 63.6673 209.436 63.4666 207.076C63.3662 205.795 65.0725 204.289 66.0009 204.54C66.7034 204.741 67.4562 203.711 68.1086 204.69C68.8613 205.795 69.037 207.025 69.0119 208.331C69.0119 208.632 69.0119 208.934 69.0119 209.21H68.9868Z" fill="#26716B"/>
<path fill-rule="evenodd" clip-rule="evenodd" d="M138.29 72.271C138.29 72.271 138.29 72.4719 138.29 72.5723C139.169 75.5602 139.169 78.6484 139.369 81.6865C139.47 83.2432 138.993 84.8501 138.767 86.4068C138.717 86.6579 138.466 86.9592 138.566 87.0847C139.746 88.8172 138.516 90.5747 138.491 92.3072C138.491 94.6171 137.939 97.0024 137.237 99.237C136.659 101.07 136.333 102.978 135.706 104.786C135.38 105.74 134.778 106.594 134.351 107.422C133.272 109.481 132.946 111.791 131.541 113.774C130.11 115.783 128.58 117.742 127.3 119.901C126.246 121.683 124.39 122.939 122.809 124.37C119.873 127.031 116.159 128.739 113.65 131.953C112.245 133.735 111.693 135.769 111.267 137.903C110.865 139.837 110.614 141.77 110.238 143.703C110.037 144.758 109.661 145.787 108.381 145.862C107.227 145.938 106.424 145.185 106.022 144.18C105.495 142.95 105.219 141.695 105.746 140.364C106.198 139.184 105.847 137.828 106.474 136.648C107.503 134.715 107.628 132.379 108.732 130.547C109.41 129.417 109.761 127.935 111.191 127.207C112.973 126.303 114.328 124.772 115.833 123.516C118.443 121.357 121.378 119.399 123.235 116.461C124.44 114.553 126.296 113.046 126.723 110.661C126.798 110.259 127.35 109.983 127.601 109.581C128.755 107.774 129.232 105.69 129.96 103.706C130.688 101.698 131.24 99.6387 131.566 97.5296C131.892 95.2448 132.519 93.0353 132.82 90.7505C133.222 87.6622 133.121 84.5237 133.523 81.4354C133.774 79.4519 133.397 77.3679 133.147 75.3593C132.745 72.1204 132.444 68.8312 131.591 65.6425C130.989 63.433 130.361 61.2486 129.508 59.1145C128.856 57.4573 128.203 55.8253 127.401 54.2435C127.2 53.8418 126.949 53.0634 127.702 52.6868C128.304 52.4106 128.806 52.4357 129.433 52.8877C132.068 54.7457 133.724 57.3067 134.953 60.1941C136.584 64.0858 138.165 67.9776 138.341 72.271H138.29Z" fill="#26716B"/>
<path fill-rule="evenodd" clip-rule="evenodd" d="M13.9103 54.6955C13.6343 53.3145 14.1362 51.7327 14.0358 50.1007C13.9605 49.0964 14.8889 48.2427 14.9893 47.1631C15.1649 45.28 15.8926 43.4471 16.5701 41.7397C17.3479 39.7562 17.3228 37.4463 19.0291 35.8143C19.6062 35.2619 19.8571 34.2576 19.9825 33.429C20.2335 31.9476 21.3877 31.1944 22.1906 30.1399C22.9183 29.1858 23.9471 28.533 24.3234 27.2525C24.5994 26.2984 25.8038 25.9971 26.5315 25.3191C28.3632 23.6118 29.4923 21.327 31.4997 19.7954C33.9085 17.9876 36.0915 15.8534 38.5756 14.1963C40.884 12.6647 43.067 10.9072 45.8522 10.0786C48.6374 9.25005 51.1716 7.66825 54.0321 7.06566C57.8963 6.23709 61.66 5.03191 65.5994 4.37911C67.1802 4.12803 68.6104 4.63019 70.1661 4.37911C71.1698 4.20335 71.8975 5.45875 71.9477 6.68904C71.9978 7.89422 71.1949 8.04487 70.3167 8.09508C68.8614 8.19552 67.406 8.24573 65.9507 8.27084C65.3485 8.27084 64.7965 8.52192 64.2947 8.79811C63.7426 9.0994 63.1655 9.14962 62.5131 9.12451C61.0076 9.07429 59.5774 9.70199 58.1973 10.2544C57.6704 10.4552 57.2439 10.7816 56.6166 10.8319C54.559 11.0076 52.6019 11.6604 50.72 12.3383C48.8632 13.0414 47.1821 14.2465 45.4507 15.2509C43.0921 16.6067 41.2353 18.5902 39.0774 20.172C37.3461 21.4274 35.9911 23.1096 34.2096 24.2646C33.3063 24.8421 32.9299 25.8966 32.2524 26.675C30.3956 28.8091 28.1123 30.7425 27.0082 33.3537C26.2053 35.287 24.6998 36.7182 23.922 38.7017C23.3198 40.2584 22.5921 41.8653 22.0401 43.4973C20.384 48.4185 18.9287 53.3898 19.1043 58.7127C19.2047 61.2737 19.1294 63.8348 19.7316 66.3204C20.0076 67.4252 19.7316 68.1533 18.4269 68.4044C17.2475 68.6304 16.545 68.5802 16.0933 67.2243C14.7635 63.2322 14.0609 59.1396 13.8852 54.7206L13.9103 54.6955Z" fill="#26716B"/>
<path fill-rule="evenodd" clip-rule="evenodd" d="M89.9385 1.34104C91.8956 1.46658 93.8026 0.989529 95.7598 1.08996C98.018 1.2155 100.101 1.71766 102.183 2.4709C103.714 3.02327 105.32 3.37478 106.875 3.92716C107.653 4.20335 108.406 4.45443 109.109 4.90637C111.041 6.13666 113.023 7.31673 114.855 8.62235C117.64 10.6059 119.597 13.4682 121.73 16.1798C124.54 19.7452 125.368 23.7624 125.995 27.9806C126.071 28.4074 126.096 28.8594 125.995 29.2862C125.795 30.3909 125.744 31.8723 124.314 31.8221C123.285 31.7719 122.508 30.6671 122.106 29.5875C121.905 28.9849 121.88 28.307 121.604 27.7546C120.4 25.1685 119.045 22.6828 117.69 20.172C116.511 17.9876 115.231 15.9288 113.65 14.0708C111.241 11.2336 108.331 9.14962 104.843 7.61803C102.133 6.43796 99.2977 6.03623 96.5878 5.03191C95.6594 4.70551 94.7561 4.80594 93.8277 4.85615C90.0639 5.03191 86.4256 5.78515 82.8877 7.04055C81.608 7.49249 80.1276 6.94012 78.8479 6.53839C77.5682 6.13666 77.5933 4.75572 78.7224 3.92716C78.9984 3.7263 79.2745 3.425 79.5756 3.39989C83.0633 2.94795 86.2249 0.838881 89.9134 1.34104H89.9385Z" fill="#26716B"/>
<path fill-rule="evenodd" clip-rule="evenodd" d="M99.8748 19.3183C101.957 18.7158 103.764 20.4231 105.822 20.7997C108.506 21.2517 110.438 22.959 112.345 24.4153C114.052 25.7209 116.159 26.8005 117.364 28.7087C118.117 29.939 119.145 30.9182 120.099 31.9476C122.809 34.9104 124.49 38.3251 125.167 42.267C125.343 43.2964 124.967 43.3467 124.063 43.3467C121.755 43.3467 121.203 41.3882 120.4 39.9069C118.919 37.145 117.414 34.4333 114.88 32.5753C112.145 30.5918 109.911 28.0559 107.026 26.223C104.994 24.9174 102.635 24.3399 100.678 22.9339C100.452 22.7832 100 22.8586 99.674 22.8586C98.2689 22.8586 96.9139 21.9045 96.9139 20.9504C96.9139 19.946 98.0431 19.243 99.8497 19.3183H99.8748Z" fill="#26716B"/>
<path fill-rule="evenodd" clip-rule="evenodd" d="M121.504 79.3515C121.504 80.1298 121.504 80.9333 121.203 81.6865C120.952 82.4146 120.5 82.8415 119.672 82.7411C118.894 82.6657 118.543 82.2389 118.468 81.5108C118.393 80.6571 118.016 79.929 117.74 79.1506C117.439 78.2969 117.138 78.6485 116.736 79.0502C116.084 79.6779 116.285 80.5064 116.059 81.2346C115.231 83.9462 115.156 86.683 115.908 89.4198C116.034 89.8215 116.059 90.3739 116.561 90.4994C117.238 90.6752 117.113 89.9721 117.339 89.6708C118.066 88.7167 118.217 87.3609 117.966 86.457C117.615 85.1012 118.694 85.1263 119.145 84.9506C119.873 84.6744 120.676 84.9254 121.102 85.8042C122.181 87.9886 121.228 92.3825 119.296 93.7885C118.468 94.3911 117.489 94.0396 116.586 93.9894C115.632 93.9392 114.679 93.6379 113.751 93.437C113.048 93.2864 112.722 92.7591 112.421 92.1816C111.568 90.5245 111.191 88.6916 110.664 86.9341C110.539 86.5072 110.639 86.0804 110.865 85.6536C111.041 85.3272 111.266 84.8501 110.94 84.5739C110.162 83.9462 110.438 83.5194 111.091 83.0675C111.292 82.9419 111.542 82.8164 111.467 82.5151C110.714 79.2008 112.797 77.3428 115.105 75.6857C116.511 74.6814 118.267 74.7567 119.747 75.3844C121.378 76.0874 121.554 77.7948 121.504 79.4268V79.3515Z" fill="#26716B"/>
<path fill-rule="evenodd" clip-rule="evenodd" d="M114.177 60.3448C114.026 59.2902 114.277 58.2608 114.328 57.2565C114.478 54.7206 112.998 53.1388 111.342 51.8834C109.159 50.2514 107.628 48.0921 105.696 46.2592C104.216 44.8531 103.488 42.97 102.058 41.5389C101.355 40.8359 101.706 39.8064 102.61 39.3796C104.065 38.6766 105.721 39.3043 106.875 40.5095C109.134 42.9198 110.815 45.8072 113.5 47.8912C115.281 49.2721 116.887 51.0548 118.292 52.9128C119.973 55.1474 119.346 60.8971 117.238 62.7551C116.761 63.182 116.209 63.4581 115.632 63.1066C115.03 62.7551 114.177 62.6045 114.152 61.6504C114.152 61.1984 114.152 60.7716 114.152 60.3699L114.177 60.3448Z" fill="#26716B"/>
<path fill-rule="evenodd" clip-rule="evenodd" d="M107.578 72.1706C107.026 73.7022 106.474 75.3091 105.872 76.916C104.14 81.3852 103.337 86.1055 102.384 90.7505C102.083 92.1063 101.656 93.3868 101.104 94.6673C100.778 95.3955 100.276 95.6968 99.5235 95.6214C98.7708 95.5461 98.1937 95.0942 98.1184 94.3409C97.9678 92.508 97.8675 90.7003 98.0682 88.8674C98.2439 87.1852 98.4446 85.5029 98.5952 83.8207C98.6453 83.419 98.5952 82.9419 99.0468 82.8415C99.5486 82.7159 99.5486 82.3142 99.5235 82.0631C99.3479 80.3558 99.8497 78.8995 101.004 77.619C101.205 77.393 101.155 76.9662 101.23 76.6398C101.681 74.3299 102.886 72.3966 104.416 70.6892C104.968 70.0615 105.822 69.7602 106.675 70.1369C107.478 70.4884 107.377 71.342 107.603 72.1706H107.578Z" fill="#26716B"/>
<path fill-rule="evenodd" clip-rule="evenodd" d="M84.6189 55.3232C84.4433 54.2435 85.0706 53.2643 86.3001 52.8877C87.3288 52.5864 88.458 52.5864 89.3613 53.415C90.7664 54.7206 91.4941 56.3526 91.3686 58.2859C91.2432 60.3448 89.286 61.4746 87.4543 60.5707C85.3968 59.5664 84.6691 57.7837 84.6189 55.3483V55.3232Z" fill="#26716B"/>
<path fill-rule="evenodd" clip-rule="evenodd" d="M119.145 46.7613C118.97 45.7068 119.572 44.7778 120.801 44.3259C121.83 43.9493 122.809 44.3008 123.587 45.0289C124.891 46.2592 126.046 47.5899 125.92 49.5734C125.795 51.808 123.812 52.963 121.855 51.9587C119.898 50.9293 119.196 49.1717 119.12 46.7865L119.145 46.7613Z" fill="#26716B"/>
<path fill-rule="evenodd" clip-rule="evenodd" d="M110.162 61.3491C110.162 62.7551 109.435 63.4581 107.954 63.4832C106.85 63.4832 105.922 62.4287 105.947 61.1984C105.997 59.7422 107.402 57.9846 108.531 58.0097C109.36 58.0348 110.162 59.7171 110.137 61.324L110.162 61.3491Z" fill="#26716B"/>
<path fill-rule="evenodd" clip-rule="evenodd" d="M52.6018 171.247C53.4549 170.318 53.6306 169.539 53.0535 168.711C52.7022 168.209 52.928 167.782 53.1037 167.33C53.8062 165.572 53.8815 163.589 52.8527 162.158C51.6483 160.526 50.3937 158.743 48.4366 157.739C46.8307 156.885 46.0529 155.102 44.6226 153.997C44.3717 153.822 43.9953 153.646 43.7444 153.42C41.6367 151.587 39.8552 149.478 38.3246 147.168C37.6722 146.214 36.6936 145.662 35.966 144.808C34.611 143.251 33.1055 141.87 32.0767 139.987C31.3491 138.656 29.6679 137.928 28.5639 136.748C26.3558 134.363 24.0223 131.827 24.2481 128.387C24.3986 126.203 24.223 124.044 24.3234 121.859C24.4739 118.972 25.3521 116.084 24.6245 113.172C24.499 112.695 24.775 112.368 24.9256 112.092C25.854 110.561 25.0259 108.728 25.8289 107.121C26.0798 106.619 26.1802 106.016 26.7322 105.815C27.234 105.64 27.3344 105.188 27.5602 104.861C28.1875 103.982 28.3381 102.727 29.6177 102.401C29.4923 100.618 31.2989 100.292 32.1018 99.1868C33.0553 97.856 34.4855 96.9019 35.69 95.747C36.8693 94.6171 38.0486 93.4621 39.1275 92.2067C39.4537 91.8301 39.7548 91.3782 40.2316 91.3782C40.8087 91.3782 41.6367 90.4241 41.7873 91.2275C41.8876 91.8552 42.8411 92.8093 41.4862 93.6881C40.3821 94.4162 39.4035 95.6968 38.977 97.1279C38.8264 97.605 38.5253 97.8811 38.0988 98.0569C37.4464 98.308 37.1202 98.8101 36.9195 99.4127C36.5933 100.392 36.1165 101.296 35.0125 101.622C34.7365 101.723 34.611 101.848 34.611 102.124C34.611 103.505 33.7579 104.459 32.8546 105.338C32.0516 106.142 31.9262 107.121 31.6502 108.175C31.0229 110.46 30.6716 112.82 30.1949 115.13C29.8185 117.064 29.8687 119.047 29.3166 120.955C29.1661 121.508 29.4672 122.035 29.693 122.512C29.9941 123.14 30.5963 123.642 31.2738 123.717C31.9513 123.818 32.2022 123.115 32.5033 122.612C33.7328 120.529 34.5859 118.269 35.69 116.135C36.6936 114.252 36.2671 112.218 36.9195 110.335C37.4213 108.828 37.6722 107.297 38.8264 106.066C39.5792 105.263 40.0057 104.183 40.5327 103.204C41.3105 101.798 42.0382 100.091 43.7695 99.5383C44.5725 99.2872 44.9739 98.8101 45.2499 98.1322C46.0027 96.4249 47.458 95.3704 48.813 94.2656C49.1642 93.9643 49.7414 93.6128 50.2934 94.0898C50.8454 94.5669 51.1465 95.1695 51.0461 95.8976C50.9207 96.9773 51.2971 97.9816 51.4727 99.011C51.548 99.5132 51.5731 99.8396 51.1967 100.166C49.8166 101.371 49.1141 103.204 47.734 104.334C45.3252 106.317 44.3717 109.205 42.7407 111.665C41.7622 113.147 40.6079 115.105 41.2101 117.315C41.3607 117.867 40.909 118.52 40.6832 119.047C39.8552 121.031 40.6832 123.215 39.8803 125.224C39.6545 125.776 39.3784 126.529 39.1526 127.006C38.6006 128.161 39.5541 128.689 39.6795 129.467C39.7799 130.095 40.5076 129.818 40.909 129.592C42.264 128.814 43.3179 127.785 43.9702 126.328C45.5259 122.788 46.8809 119.198 47.1318 115.281C47.2071 114.151 48.01 113.222 48.6373 112.419C50.1428 110.46 51.021 108.1 52.7022 106.317C53.5302 105.439 54.2579 104.56 54.8852 103.556C55.1612 103.104 55.6128 102.627 56.215 102.978C56.6667 103.254 56.4409 103.832 56.5161 104.233C56.8674 106.543 55.5376 108.376 55.1612 110.46C55.0357 111.213 53.8313 111.64 53.8564 112.695C53.9066 114.352 52.8277 115.457 51.8993 116.662C51.6734 116.963 51.7487 117.465 51.5731 117.817C50.6196 119.75 50.2181 121.859 49.6159 123.893C49.1893 125.324 49.7664 126.806 49.1141 128.212C48.3111 130.019 48.6122 132.028 48.3864 133.936C48.286 134.765 48.6373 135.217 49.2646 135.392C49.9672 135.593 50.8203 135.945 51.3723 135.041C51.7236 134.463 52.0749 133.861 52.3007 133.208C52.8277 131.727 53.1789 130.195 53.5302 128.664C54.5339 124.42 56.0394 120.328 57.9213 116.386C58.0467 116.11 58.2224 115.884 58.3729 115.632C58.6991 115.055 59.1508 114.452 59.8534 114.703C60.6061 114.98 60.857 115.758 60.6814 116.561C60.3552 117.942 60.0039 119.323 59.5773 120.679C58.7242 123.24 59.2511 125.952 58.7242 128.538C58.4482 129.969 58.4733 131.45 58.2475 132.882C58.1471 133.509 57.9464 134.112 58.0969 134.765C58.2726 135.618 57.9213 136.347 57.6704 137.15C57.1183 138.882 56.3405 140.766 56.9427 142.523C57.3191 143.628 58.2224 144.707 59.0253 145.636C60.3552 147.168 61.4843 148.725 61.8105 150.784C61.8356 150.909 61.8858 151.085 61.9862 151.16C64.1691 152.717 64.0939 155.479 65.4237 157.487C66.0008 158.366 65.1728 159.722 66.0761 160.651C65.6496 160.952 65.6245 161.63 64.8215 161.58C62.9647 161.454 61.384 162.208 59.8784 163.262C58.4231 164.292 57.6202 166.3 58.1722 168.008C58.2726 168.309 58.4984 168.886 57.9966 168.786C55.7885 168.309 54.8601 170.217 53.3797 171.096C53.2793 171.146 53.1287 171.121 52.652 171.171L52.6018 171.247Z" fill="white"/>
<path fill-rule="evenodd" clip-rule="evenodd" d="M29.1159 78.2969C30.0693 80.2805 30.8974 82.1887 31.3992 84.2726C31.7756 85.8544 32.4531 87.4362 34.1342 88.2648C35.163 88.767 35.1379 89.47 34.1593 90.1479C33.5069 90.5998 33.1055 91.2778 32.7291 91.9306C32.428 92.4327 32.0014 92.8847 31.4996 92.8596C31.0981 92.8596 31.073 92.1816 30.8974 91.8301C29.9439 89.8717 29.1911 87.8128 28.8398 85.6787C28.5387 83.9964 28.4133 82.2138 28.7897 80.5064C28.9402 79.8034 28.2627 79.0502 29.141 78.2969H29.1159Z" fill="white"/>
<path d="M517.932 299.725L511.614 257.985C511.614 257.985 502.978 292.244 482.274 284.478C461.571 276.711 473.07 224.886 473.07 224.886C473.07 224.886 489.686 228.299 490.626 224.886C495.698 206.51 498.037 197.519 503 195.244C506.913 189.097 532.798 182.709 532.798 182.709L544.276 191.153L550.31 185.4L558.967 191.547L572.478 182.709C572.478 182.709 578.162 184.743 584.218 187.259L585.574 183.737L603.129 184.896C603.129 184.896 613.776 223.399 616.071 250.635C618.367 277.871 598.516 268.945 598.516 268.945L595.63 299.178L560.957 304.779L542.505 305.173L517.954 299.769L517.932 299.725Z" fill="#E98482"/>
<path fill-rule="evenodd" clip-rule="evenodd" d="M670.508 62.5421C670.268 62.9359 670.618 63.1765 670.771 63.4172C671.732 64.7954 672.17 66.3705 672.673 67.9237C672.957 68.7987 673.001 69.8051 673.919 70.352C674.094 70.4613 674.094 70.7239 674.006 70.9207C673.46 72.2552 674.115 73.3928 674.553 74.5741C674.859 75.3835 674.553 76.2148 674.793 77.0242C675.099 78.0524 674.465 79.1244 674.881 80.1744C674.946 80.3276 674.946 80.5463 674.881 80.6557C674.203 81.9683 674.553 83.5215 673.875 84.856C673.525 85.5341 673.766 86.4092 673.46 87.1749C672.76 88.8375 672.782 90.8501 671.077 92.0314C670.967 93.6065 669.656 94.5909 669 95.8816C668.431 96.9973 667.885 98.4412 666.551 99.1631C665.72 99.6225 665.48 100.716 664.605 101.263C663.272 102.095 662.069 103.101 660.779 103.998C659.643 104.807 658.571 105.66 657.413 106.426C655.314 107.804 653.15 108.964 650.592 109.204C649.892 109.27 649.236 109.511 648.624 109.882C648.012 110.233 647.312 110.276 646.678 110.233C644.776 110.101 642.962 110.714 641.103 110.801C640.207 110.845 639.245 111.086 638.371 110.539C638.13 110.386 637.868 110.386 637.605 110.386C635.703 110.342 633.889 110.189 632.031 109.62C630.806 109.248 629.582 108.767 628.511 108.242C625.734 106.885 622.783 105.595 621.121 102.685C620.837 102.204 620.378 101.723 620.728 101.132C621.121 100.498 621.777 100.738 622.368 100.826C624.182 101.066 625.734 101.832 626.98 103.188C627.155 103.385 627.418 103.495 627.636 103.648C631.003 105.967 634.785 107.279 638.808 107.564C641.06 107.717 643.377 108.045 645.695 107.345C646.46 107.104 647.531 106.907 648.515 107.148C649.061 107.279 649.542 106.732 650.067 106.579C651.138 106.295 652.144 105.923 653.171 105.551C655.139 104.807 656.997 103.91 658.615 102.488C660.036 101.241 661.72 100.323 663.075 98.9662C664.037 98.0255 664.562 96.8223 665.414 95.9035C666.398 94.8316 666.66 93.344 667.819 92.4252C668.366 91.9877 668.409 91.1345 668.694 90.4782C669.284 89.1 669.94 87.7874 670.29 86.2561C670.574 84.8778 670.661 83.4778 670.858 82.1214C671.12 80.1526 671.251 78.1181 670.814 76.1054C670.311 73.6772 670.421 71.1395 669.437 68.755C668.453 66.3705 667.054 64.2485 665.611 62.1921C663.49 59.1513 660.954 56.4167 658.112 54.0103C655.554 51.8227 652.647 50.2914 649.52 49.1538C648.996 48.9569 648.405 48.9132 647.859 48.9132C646.963 48.9132 646.132 48.4975 645.192 48.5413C644.514 48.5413 643.771 48.1475 642.962 48.2131C641.082 48.3663 639.18 47.885 637.299 48.41C636.491 48.6506 635.66 48.8913 634.851 48.8475C633.299 48.7819 632.031 49.5695 630.675 50.0507C628.511 50.8383 626.521 51.954 624.576 53.179C622.214 54.6885 620.269 56.6355 618.257 58.5606C615.984 60.7264 614.716 63.4828 613.382 66.1955C613.185 66.5892 613.142 67.0924 613.098 67.5518C612.967 68.8862 612.595 70.1332 611.983 71.3145C611.917 71.4239 611.852 71.577 611.852 71.6864C611.939 72.999 611.852 74.2897 611.699 75.6023C611.524 76.9586 611.852 78.4025 611.896 79.8025C612.005 82.7121 612.683 85.4685 613.579 88.2468C614.213 90.1719 615.262 91.747 616.268 93.4096C616.662 94.0659 617.077 94.7659 616.465 95.4222C615.809 96.1004 614.978 95.9254 614.257 95.4222C612.07 93.869 610.934 91.5501 609.884 89.1875C609.316 87.9405 608.944 86.6061 608.769 85.2935C608.616 84.2653 608.747 83.2152 607.96 82.3621C607.785 82.1652 608.07 81.9245 608.157 81.7277C608.551 80.8526 608.398 80.0432 607.917 79.2775C607.698 78.9494 607.676 78.6431 607.829 78.2712C608.245 77.1336 608.419 75.9961 608.288 74.771C608.157 73.6772 608.638 72.5833 608.616 71.5114C608.616 70.4613 609.294 69.7394 609.403 68.8206C609.644 66.8299 610.475 65.0141 611.283 63.2422C612.07 61.5139 613.317 60.0263 614.585 58.5825C616.137 56.7886 617.951 55.3011 619.678 53.7041C620.422 53.0259 621.253 52.479 622.04 51.8665C622.193 51.7571 622.411 51.6696 622.302 51.4071C622.586 51.2102 622.848 51.0352 623.133 50.8383C623.264 50.9258 623.373 50.9258 623.483 50.8383C625.406 49.2632 627.833 48.6288 629.932 47.3162C631.353 46.4193 633.189 45.9599 635.004 45.7411C635.966 45.6098 636.972 45.4786 637.933 45.3036C639.114 45.1067 640.273 44.4941 641.563 44.8004C642.612 45.0411 643.771 44.2973 644.82 44.9973C645.432 45.413 646.154 45.413 646.853 45.4567C649.083 45.588 651.204 46.113 653.193 47.0974C658.069 49.5038 662.397 52.6321 665.939 56.8324C666.507 57.5106 666.945 58.3856 667.863 58.7356C667.972 58.9106 668.081 59.0638 668.213 59.2388C668.584 60.3545 669.262 61.2733 670.158 62.039C670.268 62.214 670.399 62.3671 670.508 62.5421Z" fill="#27716B"/>
<path fill-rule="evenodd" clip-rule="evenodd" d="M604.943 109.795C605.184 109.204 605.818 108.92 606.299 108.482C606.517 108.285 606.78 108.089 607.305 108.176C607.567 108.22 607.851 108.176 607.982 108.023C608.813 107.235 609.994 106.776 610.955 106.098C611.305 105.835 611.502 105.376 611.83 105.07C612.551 104.392 612.77 103.385 613.426 102.685C613.907 102.16 614.563 101.744 615.153 101.307C615.306 101.176 615.568 101.176 615.874 101.394C616.268 101.657 616.749 101.919 616.858 102.335C616.902 102.488 616.946 102.663 616.88 102.795C616.312 104.085 616.071 105.573 614.869 106.492C613.404 107.629 612.005 108.832 610.365 109.795C609.207 110.473 607.96 111.151 605.774 110.648C605.49 110.364 605.228 110.079 604.943 109.795Z" fill="#27716B"/>
<path fill-rule="evenodd" clip-rule="evenodd" d="M670.18 62.039C669.284 61.2733 668.628 60.3545 668.234 59.2388C668.89 60.1795 669.524 61.0983 670.18 62.039Z" fill="#A1B1AD"/>
<path fill-rule="evenodd" clip-rule="evenodd" d="M619.766 248.71C619.329 248.6 619.373 248.841 619.394 249.147C619.547 251.007 619.526 252.844 619.066 254.66C618.717 256.06 618.52 257.548 618.017 258.86C617.383 260.457 617.011 262.164 615.984 263.651C615.175 264.811 614.541 266.101 613.47 267.086C611.59 268.814 609.338 269.645 606.845 269.798C605.031 269.93 603.216 269.864 601.446 269.405C600.855 269.251 600.768 269.558 600.615 269.995C600.374 270.717 600.702 271.417 600.615 272.117C600.331 275.18 600.134 278.243 599.85 281.305C599.39 286.162 599.063 291.018 597.948 295.787C597.838 296.312 597.707 296.816 597.532 297.341C596.811 299.55 595.521 300.294 593.247 299.747C592.504 299.572 592.22 299.222 592.22 298.303C592.22 294.912 593.313 291.653 593.466 288.328C593.553 285.987 594.275 283.734 594.056 281.393C593.947 280.124 594.428 278.965 594.493 277.696C594.624 274.611 594.996 271.548 595.28 268.464C595.324 268.092 595.39 267.72 595.499 267.348C595.63 266.845 595.499 266.451 595.018 266.079C593.422 264.811 592.176 263.279 591.629 261.245C591.52 260.829 591.214 260.435 590.93 260.085C589.64 258.554 589.224 256.826 589.531 254.879C589.618 254.244 591.214 253.785 591.76 254.266C592.394 254.813 592.963 255.426 593.4 256.169C594.646 258.401 596.242 260.348 597.882 262.295C599.369 264.089 601.161 265.073 603.194 265.883C605.14 266.648 607.108 266.211 608.551 265.007C609.556 264.176 610.453 262.907 610.999 261.639C611.677 260.063 612.53 258.51 612.77 256.76C612.901 255.819 613.229 254.922 613.579 254.047C614.213 252.494 613.754 250.81 613.994 249.191C614.169 247.988 613.448 246.872 613.623 245.647C613.863 244.159 613.688 242.65 613.492 241.162C613.339 240.003 612.683 238.975 612.53 237.793C612.18 234.84 611.961 231.843 611.284 228.955C610.759 226.724 610.824 224.449 610.343 222.239C609.556 218.717 608.944 215.173 608.42 211.585C608.179 209.901 607.108 208.545 606.845 206.86C606.692 205.788 606.364 204.76 606.124 203.688C605.49 200.997 604.79 198.307 604.222 195.616C603.61 192.772 602.298 190.169 601.686 187.325C601.467 186.296 600.964 185.268 600.571 184.262C600.199 183.321 599.237 183.628 598.691 183.868C596.33 184.918 593.859 184.59 591.389 184.656C590.121 184.678 588.918 184.262 587.672 184.131C586.317 183.999 586.011 184.174 586.12 185.487C586.251 187.128 586.251 188.812 586.229 190.431C586.207 193.756 586.47 197.06 586.645 200.363C586.732 202.244 586.973 204.169 587.016 206.029C587.104 209.573 588.284 212.964 588.241 216.53C588.197 219.723 588.459 222.983 588.94 226.155C589.356 228.89 589.596 231.646 589.815 234.381C590.077 237.465 590.711 240.44 591.214 243.481C591.454 244.991 591.17 246.325 590.296 247.572C589.465 248.753 588 248.731 587.257 247.441C586.951 246.916 586.688 246.347 586.557 245.756C585.989 243.459 585.355 241.184 584.983 238.865C584.568 236.284 584.655 233.615 584.437 231.012C584.24 228.693 584.131 226.352 583.671 224.055C583.453 222.961 583.278 221.802 583.453 220.664C583.65 219.395 583.365 218.192 583.037 216.989C582.928 216.595 582.775 216.158 582.819 215.764C583.256 212.789 582.272 209.945 582.185 206.991C582.141 205.701 581.988 204.41 581.791 203.141C581.398 200.625 581.485 198.066 581.42 195.528C581.354 192.531 580.851 189.578 581.157 186.581C581.267 185.487 580.501 184.415 579.212 184.328C577.834 184.24 576.654 183.518 575.255 183.387C573.943 183.256 573.199 183.824 572.303 184.371C569.92 185.859 567.996 187.872 565.897 189.687C564.957 190.497 563.821 191.109 562.727 191.744C561.766 192.291 559.907 191.853 559.033 191.197C557.677 190.19 556.912 188.725 555.95 187.412C555.622 186.975 555.272 186.428 554.66 186.734C554.004 187.084 554.376 187.653 554.595 188.134C555.229 189.425 554.464 190.737 554.617 192.05C554.791 193.384 554.267 194.719 554.77 196.097C555.098 196.994 554.726 197.978 554.617 198.919C554.529 199.816 554.617 200.625 554.966 201.457C555.272 202.201 555.163 203.01 554.966 203.776C554.813 204.344 554.726 204.935 554.945 205.46C555.207 206.073 555.163 206.707 555.076 207.254C554.813 209.135 554.857 210.995 555.076 212.876C555.163 213.686 554.748 214.495 554.682 215.326C554.638 215.808 554.507 216.289 554.638 216.77C555.076 218.323 554.77 219.92 554.748 221.474C554.748 223.092 554.092 223.924 552.824 224.186C551.359 224.493 550.528 223.924 550.375 222.436C550.069 219.395 550.004 216.333 550.004 213.292C550.004 206.685 550.004 200.079 550.004 193.472C550.004 191.962 550.004 190.453 550.004 188.943C550.004 188.418 549.96 187.872 550.2 187.368C550.485 186.734 550.091 186.165 549.698 185.925C549.238 185.662 548.954 186.231 548.714 186.646C548.014 187.784 547.336 188.943 546.593 190.059C545.872 191.153 545.041 192.094 543.511 192.028C542.811 192.006 542.286 191.7 541.718 191.394C539.226 189.994 537.258 187.915 535.137 186.056C533.935 185.006 532.601 184.24 531.268 183.518C530.393 183.037 529.256 183.431 528.36 183.715C526.83 184.196 525.212 184.678 523.944 185.793C523.66 186.056 523.266 186.143 522.873 186.165C522.61 186.165 522.282 186.143 522.107 186.275C520.184 187.565 517.757 187.631 515.789 188.856C515.243 189.206 514.609 189.097 514.018 189.206C512.401 189.469 511.307 190.737 509.843 191.284C508.618 191.744 507.525 192.597 506.301 193.034C505.164 193.45 504.727 194.544 503.787 195.113C503.743 195.156 503.699 195.244 503.699 195.309C503.94 197.191 502.235 198.219 501.776 199.794C501.754 199.86 501.666 199.925 501.666 199.991C501.797 201.566 500.617 202.726 500.398 204.213C500.092 206.401 498.759 208.107 497.403 209.813C496.288 211.235 495.173 212.701 494.08 214.101C493.074 215.37 493.162 216.945 492.091 218.083C491.763 218.433 491.938 219.242 491.741 219.833C491.588 220.248 492.003 220.292 492.331 220.27C493.468 220.183 494.124 220.839 494.452 221.802C494.867 223.049 495.501 224.252 495.239 225.652C495.108 226.418 495.873 226.943 495.916 227.73C496.244 231.799 496.113 235.868 496.441 239.915C496.616 242.059 497.25 244.203 497.272 246.347C497.338 249.191 498.278 251.882 498.365 254.682C498.409 256.016 498.452 257.329 498.584 258.641C498.737 260.238 498.474 261.792 497.294 262.995C496.397 263.914 495.545 263.804 494.845 262.732C494.299 261.923 494.124 260.982 494.058 260.02C493.84 257.482 493.752 254.901 493.424 252.385C492.637 246.522 491.697 240.681 491.347 234.753C491.26 233.462 491.15 232.171 491.041 230.859C490.976 230.137 490.91 229.437 490.582 228.758C489.992 227.577 490.21 226.243 490.189 224.843C489.03 225.149 488.112 225.893 486.975 226.046C484.57 226.374 482.253 226.44 479.87 225.739C478.361 225.302 476.787 225.149 475.344 224.493C475.038 224.361 474.754 224.471 474.863 224.821C475.257 226.243 474.47 227.555 474.513 228.955C474.579 231.099 474.076 233.221 473.989 235.387C473.945 236.371 474.032 237.596 473.355 238.537C473.267 238.646 473.245 238.822 473.245 238.975C473.376 241.097 472.874 243.175 472.633 245.253C472.48 246.588 472.327 247.988 472.349 249.366C472.349 252.538 472.502 255.732 472.589 258.904C472.655 261.442 473.158 263.914 473.092 266.429C473.092 267.064 473.245 267.545 473.53 268.026C473.879 268.595 474.142 269.23 474.12 269.842C474.054 272.139 475.563 273.692 476.678 275.442C477.006 275.946 477.487 276.339 477.836 276.843C478.536 277.827 479.607 278.308 480.504 279.008C482.384 280.474 484.636 281.065 486.8 281.765C488.352 282.268 490.145 281.787 491.828 281.502C493.883 281.152 495.654 280.058 497.228 278.899C498.518 277.958 499.655 276.58 500.726 275.246C501.907 273.78 502.41 272.139 503.022 270.52C503.59 268.989 504.005 267.37 504.552 265.861C505.58 262.973 505.776 259.91 506.848 257.066C507.219 256.082 507.11 254.901 508.028 254.069C508.378 253.741 508.4 253.041 508.444 252.45C508.531 250.919 508.75 249.453 509.668 248.119C510.258 247.266 510.892 246.916 511.854 247.135C512.816 247.353 513.494 247.966 513.734 248.906C513.931 249.672 513.953 250.482 514.062 251.269C514.412 253.785 515.483 256.169 515.439 258.773C515.439 259.363 515.702 259.954 515.811 260.501C516.205 262.142 516.139 263.804 516.248 265.467C516.445 268.223 516.882 270.98 517.363 273.649C517.954 276.711 517.604 279.862 518.609 282.859C519.375 285.156 519.134 287.606 519.528 289.968C519.637 290.734 520.096 291.325 520.227 292.09C520.49 293.6 520.315 295.131 520.643 296.619C520.839 297.516 520.555 298.456 520.205 299.31C519.834 300.272 518.282 300.535 517.473 299.769C517.21 299.506 517.014 299.178 516.839 298.828C516.248 297.778 515.942 296.641 515.308 295.569C514.805 294.716 514.696 293.359 514.477 292.2C513.669 288.153 513.625 283.996 512.619 279.993C512.379 279.096 512.422 278.111 512.335 277.171C512.138 275.377 511.723 273.605 511.504 271.833C511.176 269.339 510.695 266.845 510.586 264.286C510.411 265.948 509.537 267.37 509.121 268.945C508.859 269.908 508.269 270.87 508.05 271.811C507.678 273.386 506.848 274.721 506.17 276.099C505.23 278.024 504.137 279.861 502.125 281.108C500.223 282.268 498.518 283.734 496.332 284.368C493.533 285.177 490.713 285.396 487.784 285.243C486.231 285.156 484.701 284.74 483.149 284.784C482.996 284.784 482.821 284.827 482.712 284.762C480.066 283.077 477.049 282.071 474.644 279.861C473.07 278.396 472.065 276.668 470.775 275.071C470.01 274.108 469.944 272.97 469.572 271.899C469.157 270.695 468.589 269.58 468.304 268.311C468.239 267.983 468.02 267.655 468.02 267.283C468.086 265.27 467.583 263.301 467.386 261.31C467.168 259.254 466.862 257.219 467.058 255.097C467.233 253.15 467.211 251.16 467.058 249.169C466.927 247.353 467.343 245.384 467.561 243.503C467.714 242.147 468.501 240.878 468.108 239.456C468.02 239.15 468.108 238.756 468.195 238.45C468.785 236.743 468.545 234.949 468.851 233.221C469.354 230.29 468.982 227.271 469.682 224.405C470.075 222.808 470.797 221.277 470.906 219.592C470.95 218.914 471.759 218.608 471.759 217.82C471.759 215.436 471.234 213.161 470.6 210.864C469.966 208.545 469.113 206.291 468.545 203.951C467.889 201.26 467.386 198.569 467.211 195.813C467.146 194.828 467.408 193.866 467.998 192.881C468.742 191.678 469.354 190.387 470.141 189.206C471.278 187.522 472.568 185.946 473.748 184.284C474.295 183.496 475.169 183.474 475.912 183.146C476.7 182.774 477.049 182.293 477.071 181.396C477.159 177.83 477.574 174.286 478.645 170.852C478.908 169.999 478.93 169.058 478.973 168.161C479.061 165.93 480.154 164.048 480.919 162.036C481.181 161.379 482.1 161.182 482.734 160.854C485.554 159.454 488.33 161.27 488.964 164.333C489.423 166.586 489.227 168.839 489.817 171.092C490.363 173.105 490.079 175.336 490.254 177.458C490.342 178.465 490.101 179.471 490.429 180.455C490.516 180.696 490.495 181.068 490.363 181.243C489.03 182.818 490.67 184.459 490.254 186.056C490.167 186.428 490.538 186.515 490.888 186.428C493.446 185.75 495.501 187.062 497.447 188.331C498.256 188.856 498.737 189.884 499.305 190.715C499.808 191.437 500.661 191.634 501.207 190.912C502.388 189.381 504.071 188.79 505.689 187.959C507.416 187.084 509.143 186.275 510.914 185.531C512.991 184.656 515.09 183.868 517.254 183.19C518.347 182.84 519.331 182.206 520.446 181.856C522.064 181.374 523.528 180.455 525.234 180.237C525.846 180.171 526.392 179.974 526.742 179.362C526.895 179.099 527.267 178.749 527.529 178.749C528.907 178.749 528.819 177.48 529.278 176.736C529.541 176.321 529.06 175.643 529.562 175.14C529.759 174.921 529.409 174.811 529.234 174.68C527.792 173.608 526.349 172.471 525.43 170.917C524.49 169.32 524.097 167.527 523.725 165.711C523.375 163.983 523.572 162.32 523.55 160.614C523.55 158.514 524.162 156.523 525.365 154.795C525.89 154.029 526.196 153.373 525.365 152.694C524.469 151.951 524.359 150.813 524.031 149.872C523.463 148.21 522.523 146.766 521.998 145.06C521.605 143.791 520.643 142.434 518.959 142.084C518.019 141.888 516.97 142.063 516.292 140.816C515.899 140.094 514.499 140.028 513.625 139.459C510.564 137.468 508.597 134.69 507.613 131.234C506.498 127.252 506.651 123.315 508.465 119.486C508.924 118.524 509.712 117.845 510.389 117.08C510.87 116.555 511.592 116.708 512.16 117.145C512.969 117.78 513.231 119.442 512.554 120.23C512.138 120.689 512.466 121.192 512.313 121.586C511.635 123.402 512.073 125.283 511.963 127.121C511.898 128.368 512.466 129.877 513.188 130.927C514.346 132.59 515.352 134.428 517.123 135.565C518.325 136.353 519.353 137.228 520.883 137.622C522.326 137.972 523.747 138.759 525.234 139.24C525.671 139.372 525.78 139.722 525.868 140.116C526.677 143.528 528.666 146.285 530.546 149.15C532.186 151.644 534.394 153.504 536.624 155.341C537.826 156.348 538.941 157.332 539.881 158.579C540.188 158.995 540.231 159.41 540.231 159.848C540.231 162.254 540.231 164.661 540.231 167.067C540.231 169.386 540.581 169.802 542.745 170.524C544.145 170.983 545.719 171.005 547.03 171.53C548.889 172.252 550.681 171.792 552.496 172.077C553.83 172.296 555.119 171.924 556.322 171.246C556.65 171.071 556.978 170.917 557.393 170.917C558.858 170.896 560.213 170.545 561.263 169.408C561.328 169.32 561.481 169.211 561.525 169.233C563.034 169.824 562.771 168.467 562.902 167.855C563.187 166.389 563.536 164.88 563.361 163.436C563.165 161.729 564.258 160.526 564.498 159.06C564.498 158.973 564.629 158.864 564.717 158.82C566.969 157.967 568.63 156.304 570.27 154.685C571.56 153.438 572.806 152.104 574.249 151.032C575.386 150.179 578.403 151.01 579.277 150.551C579.365 150.507 579.365 150.157 579.365 150.157C579.365 150.157 579.408 147.816 579.824 146.7C579.933 146.416 579.999 146.088 579.933 145.803C579.583 144.053 579.824 142.303 580.064 140.575C580.064 140.466 580.042 140.356 579.999 140.247C579.037 137.468 580.501 135.609 582.513 134.625C583.737 134.034 584.152 133.093 584.131 132.043C584.087 130.359 584.852 128.849 584.961 127.23C585.093 125.108 585.617 123.008 586.142 120.996C586.688 118.939 587.213 116.423 589.99 115.833C591.192 115.57 592.307 115.373 593.553 115.942C594.996 116.62 596.395 117.32 597.029 118.83C597.773 120.602 597.991 122.483 598.013 124.43C598.035 127.012 597.095 129.418 597.007 131.978C597.007 132.481 596.898 133.137 596.57 133.443C595.827 134.187 596.417 134.45 596.92 134.69C600.396 136.462 602.692 139.306 604.091 142.872C604.594 144.141 604.856 145.519 604.943 146.919C605.096 148.975 605.512 151.141 604.747 153.066C604.135 154.663 604.025 156.282 603.654 157.879C603.194 159.892 602.604 161.882 602.254 163.939C601.992 165.558 601.533 167.155 601.118 168.774C600.265 172.142 600.003 175.446 601.555 178.705C601.773 179.165 602.101 179.077 602.364 179.099C602.867 179.165 603.282 179.34 603.763 179.537C604.922 180.018 605.424 181.024 605.643 182.074C606.124 184.328 607.348 186.318 607.851 188.55C608.551 191.547 609.906 194.347 610.278 197.431C610.387 198.307 611.065 198.963 611.24 199.86C611.786 202.638 612.289 205.438 613.011 208.173C614.06 212.089 614.935 216.048 615.656 220.052C616.509 224.908 617.558 229.721 618.214 234.599C618.673 237.99 619.438 241.359 619.416 244.816C619.416 245.756 619.504 246.806 619.919 247.725V248.644L619.766 248.71ZM480.722 205.504C480.023 205.766 479.454 205.154 478.82 205.198C478.361 205.198 477.836 205.066 477.924 204.607C478.011 204.082 477.661 203.338 478.536 203.054C479.782 202.638 480.46 201.719 480.919 200.494C481.4 199.182 481.159 198.11 479.891 197.585C479.039 197.213 478.514 196.513 477.858 195.944C477.443 195.572 477.268 194.894 477.64 194.369C478.033 193.822 478.623 193.931 479.192 194.172C481.466 195.156 483.761 196.053 485.051 198.372C485.313 198.832 485.51 198.853 485.86 198.372C487.04 196.6 486.647 194.828 484.854 193.581C483.521 192.684 482.253 191.7 481.094 190.584C480.81 190.322 480.372 190.059 480.81 189.556C481.203 189.075 481.619 189.031 482.1 189.403C483.214 190.3 484.701 190.497 485.772 191.459C485.86 191.547 486.057 191.591 486.166 191.547C486.712 191.284 486.844 189.753 486.428 189.315C484.898 187.762 482.93 186.931 481.028 186.012C479.454 185.246 478.667 185.487 477.399 186.712C475.322 188.703 473.836 191.131 472.589 193.669C471.999 194.894 471.387 196.228 471.649 197.716C472.043 199.86 472.502 201.982 473.136 204.06C473.77 206.138 474.185 208.26 474.863 210.317C475.869 213.423 476.962 216.508 476.656 219.855C476.612 220.292 476.962 220.424 477.159 220.686C478.055 221.867 479.432 222.195 480.722 222.436C482.078 222.699 483.477 223.027 484.876 222.655C485.597 222.458 486.319 222.13 486.428 221.364C486.603 220.205 486.887 219.045 486.734 217.82C486.559 216.486 487.74 215.589 487.959 214.32C488.177 213.095 489.27 212.395 490.036 211.498C491.894 209.31 493.118 206.751 494.277 204.126C495.785 200.735 496.725 197.388 495.479 193.734C495.435 193.625 495.457 193.494 495.414 193.406C495.042 192.05 494.495 190.803 493.162 190.103C492.506 189.753 491.806 189.425 491.194 190.103C490.56 190.825 489.992 191.569 489.773 192.553C489.358 194.413 490.56 195.55 492.418 195.025C493.14 194.828 494.058 195.484 493.774 196.141C493.424 196.928 493.271 198.066 492.025 198.11C491.041 198.132 490.648 198.766 490.429 199.597C490.123 200.691 489.533 201.435 488.374 201.807C487.39 202.113 486.472 202.594 485.401 202.507C484.832 202.463 484.745 202.901 484.526 203.229C483.608 204.585 482.406 205.438 480.744 205.548L480.722 205.504ZM586.995 174.899C586.841 175.358 586.995 175.818 587.126 176.233C587.497 177.327 587.629 178.508 587.935 179.624C588.153 180.368 588.35 180.499 588.94 180.696C590.799 181.287 592.701 181.287 594.603 181.068C596.33 180.871 596.723 180.368 596.395 178.662C596.264 177.962 596.177 177.218 595.849 176.518C595.543 175.861 595.324 175.315 595.499 174.396C595.871 172.361 596.264 170.305 596.505 168.248C596.745 166.192 597.313 164.245 597.707 162.254C598.035 160.614 598.625 159.06 598.713 157.376C598.866 154.729 599.303 152.104 599.478 149.479C599.522 148.932 600.09 148.647 599.915 148.057C599.609 147.072 599.565 146.044 599.347 145.038C599.15 143.988 598.975 142.763 598.341 141.997C597.051 140.466 595.914 138.781 594.056 137.709C592.548 136.856 591.017 135.937 589.378 135.784C587.738 135.631 585.442 135.609 584.371 137.25C584.174 137.556 583.912 137.819 584.174 138.409C584.437 138.978 585.049 138.781 585.486 138.672C587.082 138.278 588.678 138.54 590.165 138.978C592.154 139.569 593.794 140.837 594.996 142.588C595.499 143.331 596.002 144.119 596.089 145.081C596.199 146.153 595.696 146.525 594.646 146.263C593.4 145.957 592.613 145.06 591.717 144.25C590.733 143.353 589.705 142.434 588.437 141.975C586.842 141.406 585.246 141.45 583.715 142.281C582.906 142.719 582.863 143.419 582.928 144.141C583.016 144.885 583.671 144.381 584.043 144.556C584.458 144.753 584.874 144.447 585.355 144.556C587.279 144.906 589.181 145.366 590.667 146.678C591.651 147.553 592.963 148.232 593.247 149.741C593.291 149.938 593.466 150.179 593.641 150.288C594.297 150.682 594.406 151.207 594.034 151.819C593.619 152.519 592.985 152.651 592.241 152.388C591.629 152.169 591.214 151.732 590.82 151.272C589.552 149.741 587.913 148.669 586.164 147.86C585.202 147.422 584.087 147.116 582.906 147.357C582.316 147.466 581.748 148.057 581.857 148.429C581.988 148.866 582.119 149.347 582.797 149.435C584.131 149.61 585.18 150.288 586.076 151.141C587.388 152.366 588.284 153.832 588.153 155.779C588.088 156.829 587.738 156.763 587.06 156.238C586.054 155.451 585.333 154.401 584.218 153.657C583.3 153.066 581.66 152.826 581.223 153.591C580.786 154.357 581.179 154.576 581.835 155.101C582.185 155.385 582.578 155.626 582.95 155.91C583.803 156.588 584.896 157.113 585.464 157.967C586.885 160.089 588.022 162.123 586.973 165.12C586.142 167.483 585.836 170.305 586.667 172.974C586.842 173.586 587.126 174.199 587.038 174.877L586.995 174.899ZM570.226 179.055C570.226 179.055 570.139 178.727 570.073 178.421C569.702 176.715 568.127 175.599 567.887 173.805C567.843 173.477 567.537 172.93 566.991 173.411C566.422 173.914 565.788 174.068 565.001 174.002C564.367 173.936 563.711 174.133 563.187 174.549C561.94 175.555 560.432 175.883 558.902 176.036C558.289 176.102 557.327 176.102 557.349 176.627C557.393 177.327 557.043 178.158 557.59 178.749C558.136 179.318 558.18 180.018 558.399 180.674C558.727 181.659 558.639 182.971 560.104 183.234C560.279 183.256 560.388 183.474 560.279 183.693C559.82 184.546 560.366 185.246 560.629 185.968C560.804 186.471 561.11 186.406 561.525 186.143C564.258 184.415 566.859 182.512 569.461 180.587C569.92 180.259 570.292 179.93 570.248 179.034L570.226 179.055ZM537.673 173.214C537.345 173.346 537.105 173.696 537.061 173.98C536.952 175.096 536.274 175.883 535.684 176.758C535.247 177.415 534.897 178.202 535.006 179.012C535.072 179.668 535.968 179.537 536.318 179.974C536.449 180.127 536.58 180.259 536.711 180.39C537.127 180.827 537.433 181.506 537.936 181.681C539.204 182.096 539.532 183.562 540.953 183.999C541.805 184.24 542.877 185.115 543.511 186.121C543.707 186.45 544.166 186.603 544.319 186.165C544.56 185.509 545.172 185.115 545.413 184.437C546.243 182.162 547.074 179.887 547.621 177.502C547.949 176.058 547.205 176.255 546.528 176.124C545.128 175.861 543.598 175.993 542.483 174.921C541.149 173.63 539.073 174.593 537.783 173.258C537.783 173.258 537.695 173.258 537.651 173.258L537.673 173.214ZM485.291 183.474C485.313 181.637 485.335 179.712 485.27 177.787C485.182 175.271 485.357 172.777 485.357 170.261C485.357 168.861 485.248 167.439 485.182 166.039C485.182 165.58 485.007 165.186 484.504 165.098C484.002 165.011 483.739 165.339 483.564 165.755C483.28 166.455 483.105 167.198 482.93 167.942C482.493 169.999 482.515 172.099 482.274 174.199C482.143 175.402 481.64 176.561 481.706 177.808C481.772 179.055 481.815 180.302 481.159 181.462C481.006 181.746 480.919 182.14 481.356 182.162C482.777 182.227 483.63 183.671 485.248 183.474H485.291ZM574.927 174.133C575.451 175.424 575.408 177.108 577.113 178.246C578.337 179.055 579.496 180.062 580.676 180.959C581.288 181.418 581.879 181.265 582.469 180.959C582.71 180.849 583.103 180.674 582.95 180.302C582.163 178.202 582.076 175.905 581.288 173.783C581.092 173.236 580.917 172.733 581.179 172.142C581.289 171.924 581.223 171.377 580.808 171.508C579.889 171.771 579.43 171.136 578.796 170.721C578.425 170.502 577.944 169.911 577.528 170.567C577.003 171.399 576.326 172.011 575.517 172.536C575.08 172.821 574.927 173.324 574.905 174.111L574.927 174.133ZM591.717 132.678C591.717 130.337 592.854 128.193 592.897 125.874C592.941 123.883 593.335 121.893 592.198 120.055C592.045 119.792 591.979 119.399 591.629 119.377C591.28 119.377 591.389 119.836 591.214 119.967C590.383 120.667 590.733 121.696 590.449 122.549C589.443 125.502 589.028 128.587 588.372 131.628C588.219 132.284 588.547 132.459 589.05 132.503C589.902 132.59 590.755 132.612 591.695 132.678H591.717ZM581.179 167.57C582.666 164.595 583.803 163.829 581.31 161.095C581.966 163.195 580.305 163.086 580.239 165.142C580.217 166.148 580.152 167.002 581.179 167.592V167.57Z" fill="#257069"/>
<path fill-rule="evenodd" clip-rule="evenodd" d="M552.868 74.2459C553.764 75.2303 554.988 74.9897 556.103 75.1209C557.852 75.3397 559.689 74.9678 561.285 76.0616C561.809 76.4116 562.422 76.0398 562.946 76.2804C563.755 76.6742 564.87 76.5429 565.351 77.593C565.417 77.7242 565.701 77.8117 565.854 77.7899C567.69 77.5273 568.74 78.9056 570.03 79.7587C571.473 80.7213 573.09 81.4651 574.337 82.7339C575.605 84.0027 576.763 85.3809 578.097 86.5623C579.256 87.5905 579.715 89.2531 581.289 89.9312C581.485 90.0187 582.119 90.8063 582.207 91.3313C582.469 92.8845 583.759 93.8033 584.393 95.1159C585.115 96.691 586.011 98.1567 586.667 99.7756C587.826 102.685 588.613 105.66 589.137 108.745C589.421 110.495 589.421 112.245 589.028 113.973C588.809 114.892 588.438 115.614 587.366 115.92C586.142 116.27 585.399 117.43 584.393 118.174C583.475 118.874 582.513 119.333 581.354 119.18C580.655 119.092 580.261 118.808 580.174 117.955C579.89 115.308 579.911 112.617 578.993 110.057C578.906 109.817 578.993 109.532 578.949 109.27C578.796 108.482 578.447 107.87 577.55 107.717C576.916 107.607 576.282 107.498 575.867 106.907C575.67 106.623 575.277 106.579 574.949 106.513C572.478 106.12 570.183 105.354 568.018 103.998C566.838 103.254 565.395 102.86 564.324 101.985C562.706 100.651 560.694 99.9943 559.142 98.5286C558.158 97.5879 557.197 96.691 556.3 95.6409C555.666 94.8971 554.507 94.5909 553.895 93.6721C553.633 93.2783 553.546 92.797 553.043 92.5126C551.928 91.8782 551.403 91.8563 550.485 92.797C550.113 93.1689 549.807 93.6064 549.282 93.8033C549.086 93.8908 548.845 94.0877 548.801 94.2627C548.211 96.4941 545.959 97.1067 544.626 98.6161C544.451 98.813 544.167 98.9005 544.232 99.2287C544.254 99.3818 544.298 99.6224 544.145 99.6224C542.308 99.7099 541.543 101.394 540.297 102.313C538.745 103.429 537.083 104.085 535.378 104.763C534.853 104.982 534.547 105.201 534.657 105.704C534.788 106.251 535.247 105.945 535.597 105.901C537.542 105.682 539.335 106.163 541.04 107.06C541.434 107.279 541.543 107.76 541.565 108.11C541.565 108.439 541.04 108.482 540.756 108.57C540.45 108.679 540.078 108.57 539.75 108.57C539.335 108.154 538.832 108.023 538.264 108.067C537.258 107.782 536.274 107.826 535.291 108.067C535.05 107.979 534.831 107.979 534.635 108.176C534.219 108.11 533.826 108.242 533.476 108.46C533.214 108.395 532.995 108.46 532.798 108.635C532.23 108.592 531.683 108.46 531.202 108.132C531.246 107.126 532.405 107.214 532.733 106.557C531.53 106.645 530.525 107.235 529.672 108.089C529.563 108.089 529.453 108.11 529.322 108.132C529.082 108.023 528.95 108.132 528.819 108.329C528.688 108.373 528.557 108.417 528.426 108.439C527.967 108.46 527.529 108.482 527.136 108.767C526.83 108.789 526.589 108.986 526.371 109.204C526.108 109.204 525.868 109.161 525.846 109.532C525.496 109.576 525.19 109.729 524.993 110.057C524.163 110.473 523.135 110.517 522.523 111.348C522.37 111.786 522.129 112.201 522.195 112.704C522.195 113.164 522.195 113.645 522.195 114.105C521.998 114.389 522.064 114.717 522.064 115.045C521.714 115.527 521.911 116.095 521.78 116.62C521.627 117.605 521.189 118.589 521.408 119.639C521.321 119.858 521.233 120.099 521.146 120.317C520.555 120.471 520.009 120.842 519.353 120.733C519.2 120.558 519.025 120.471 518.785 120.536C516.467 119.442 514.981 117.452 513.756 115.373C512.772 113.733 512.554 111.633 513.013 109.817C513.603 107.476 514.106 105.113 514.456 102.707C514.5 102.379 514.543 101.876 514.74 101.744C516.03 101.023 515.768 99.6443 516.161 98.5505C516.423 97.7848 516.948 97.1942 517.342 96.5597C517.998 95.4441 518.872 94.4377 519.375 93.2345C520.14 91.3969 521.342 89.8656 522.479 88.2249C523.66 86.4966 525.496 85.6216 526.83 84.1559C527.092 83.8496 527.464 83.5215 527.748 83.2152C529.366 81.3557 531.443 80.1088 533.323 78.5993C533.432 78.5118 533.563 78.3149 533.651 78.3368C534.963 78.4899 535.728 77.5273 536.668 76.8929C537.061 76.6304 537.608 76.7617 538.067 76.5648C538.526 76.3898 539.029 76.346 539.291 75.8429C539.357 75.7335 539.532 75.5804 539.641 75.6022C541.368 75.9304 542.855 74.9459 544.516 74.7928C546.112 74.6615 547.708 74.7709 549.304 74.5522C549.545 74.5084 549.873 74.6397 549.938 74.2459H552.912H552.868Z" fill="#257069"/>
<path fill-rule="evenodd" clip-rule="evenodd" d="M547.62 137.753C547.686 136.703 547.708 135.325 548.495 134.099C548.998 133.312 549.61 132.656 550.506 132.459C553.698 131.715 556.125 132.218 556.912 135.806C557.327 137.6 557.633 139.394 556.955 141.209C556.431 142.609 554.485 144.163 553.173 144.184C549.785 144.206 547.664 142.128 547.62 138.694C547.62 138.497 547.62 138.322 547.62 137.797V137.753ZM553.348 138.759C553.348 137.556 553.195 137.184 552.758 136.506C552.452 136.046 552.255 136.068 551.927 136.44C551.206 137.25 550.987 139.284 551.555 140.181C551.774 140.509 552.124 140.662 552.539 140.684C552.714 140.684 552.955 140.706 552.955 140.444C552.955 139.809 553.654 139.35 553.326 138.759H553.348Z" fill="#257069"/>
<path fill-rule="evenodd" clip-rule="evenodd" d="M551.949 114.695C552.168 116.555 551.752 118.502 551.687 120.471C551.643 121.739 551.249 123.118 551.949 124.386C552.364 125.152 552.233 125.961 551.599 126.443C550.878 126.968 550.003 126.815 549.26 126.268C548.014 125.371 547.795 123.949 547.708 122.614C547.533 119.88 548.079 117.167 548.626 114.476C548.735 113.886 548.998 113.317 549.216 112.748C549.457 112.092 549.96 111.807 550.637 111.807C551.381 111.807 551.556 112.376 551.774 112.879C552.015 113.426 551.971 113.995 551.949 114.695Z" fill="#257069"/>
<path fill-rule="evenodd" clip-rule="evenodd" d="M532.033 118.939C532.076 118.392 532.076 117.758 532.295 117.124C532.732 115.833 533.301 115.308 534.656 115.308C535.749 115.308 536.514 115.877 536.995 116.97C537.498 118.13 537.345 119.267 537.17 120.361C536.952 121.652 535.727 122.461 534.612 122.33C532.907 122.133 532.098 121.324 532.033 119.705C532.033 119.486 532.033 119.246 532.033 118.917V118.939Z" fill="#257069"/>
<path fill-rule="evenodd" clip-rule="evenodd" d="M565.569 119.771C565.569 119.092 565.569 118.414 565.81 117.736C566.269 116.445 566.815 115.942 568.193 115.964C569.242 115.986 570.029 116.489 570.466 117.539C571.057 118.983 570.969 120.405 570.335 121.761C569.898 122.658 569.067 123.161 567.974 122.964C566.487 122.68 565.722 122.046 565.569 120.908C565.526 120.536 565.569 120.142 565.569 119.771Z" fill="#257069"/>
<path fill-rule="evenodd" clip-rule="evenodd" d="M516.817 126.924C516.817 126.355 516.817 125.787 516.97 125.218C517.123 124.736 517.255 124.277 517.91 124.255C518.523 124.255 519.091 124.277 519.353 124.933C519.616 125.568 519.791 126.224 520.053 126.858C520.621 128.127 520.906 129.506 521.846 130.643C522.174 131.037 522.633 131.89 521.824 132.459C521.124 132.918 520.359 133.181 519.616 132.634C517.648 131.256 516.795 129.309 516.839 126.946L516.817 126.924Z" fill="#257069"/>
<path fill-rule="evenodd" clip-rule="evenodd" d="M562.159 108.898C561.635 108.942 561.744 108.504 561.831 108.198C562.072 107.148 563.493 106.054 564.608 106.032C564.826 106.032 565.089 106.076 565.286 105.988C567.1 105.135 568.74 106.032 570.401 106.47C571.101 106.667 571.473 107.301 571.822 107.892C571.953 108.11 571.91 108.526 571.8 108.767C571.669 109.029 571.341 108.964 571.079 108.854C568.281 107.717 565.504 107.914 562.684 108.767C562.531 108.81 562.378 108.832 562.159 108.876V108.898Z" fill="#257069"/>
<path fill-rule="evenodd" clip-rule="evenodd" d="M546.353 202.551C546.353 203.36 546.353 204.148 546.09 204.913C545.893 205.526 545.544 206.007 544.866 206.116C544.145 206.226 543.598 205.898 543.204 205.351C542.155 203.885 542.483 201.501 543.882 200.385C544.429 199.947 545.063 199.86 545.719 200.057C546.353 200.275 546.287 200.888 546.353 201.413C546.396 201.785 546.353 202.179 546.353 202.551Z" fill="#257069"/>
<path fill-rule="evenodd" clip-rule="evenodd" d="M546.637 219.833C546.593 221.999 545.85 222.874 544.319 222.633C543.751 222.545 543.335 222.283 543.073 221.758C542.57 220.73 543.007 218.039 543.816 217.23C544.691 216.354 545.806 216.551 546.287 217.689C546.593 218.389 546.68 219.155 546.615 219.833H546.637Z" fill="#257069"/>
<path fill-rule="evenodd" clip-rule="evenodd" d="M557.328 124.452C557.328 125.458 556.781 126.312 556.082 126.202C555.076 126.049 555.032 125.108 554.901 124.343C554.77 123.577 555.295 123.227 556.016 123.249C556.759 123.271 557.393 123.511 557.35 124.452H557.328Z" fill="#257069"/>
<path fill-rule="evenodd" clip-rule="evenodd" d="M529.606 108.132C530.458 107.279 531.464 106.688 532.667 106.601C532.339 107.257 531.18 107.17 531.136 108.176C530.633 107.76 530.109 108.176 529.606 108.132Z" fill="#FDFEFE"/>
<path fill-rule="evenodd" clip-rule="evenodd" d="M522.436 111.37C523.048 110.539 524.075 110.495 524.906 110.079C524.25 110.823 523.288 111.02 522.436 111.37Z" fill="#FDFEFE"/>
<path fill-rule="evenodd" clip-rule="evenodd" d="M521.714 116.642C521.845 116.117 521.648 115.548 521.998 115.067C522.326 115.68 522.151 116.183 521.714 116.642Z" fill="#FDFEFE"/>
<path fill-rule="evenodd" clip-rule="evenodd" d="M522.129 114.126C522.129 113.667 522.129 113.186 522.129 112.726C522.545 113.186 522.567 113.645 522.129 114.126Z" fill="#FDFEFE"/>
<path fill-rule="evenodd" clip-rule="evenodd" d="M527.048 108.811C527.442 108.548 527.901 108.526 528.338 108.482C528.119 109.445 527.485 108.767 527.048 108.811Z" fill="#FDFEFE"/>
<path fill-rule="evenodd" clip-rule="evenodd" d="M538.198 108.089C538.767 108.045 539.27 108.176 539.685 108.592C539.16 108.482 538.592 108.548 538.198 108.089Z" fill="#FDFEFE"/>
<path fill-rule="evenodd" clip-rule="evenodd" d="M534.569 108.22C534.766 108.023 534.985 108.023 535.225 108.11C535.05 108.46 534.832 108.46 534.569 108.22Z" fill="#FDFEFE"/>
<path fill-rule="evenodd" clip-rule="evenodd" d="M532.732 108.679C532.929 108.504 533.148 108.46 533.41 108.504C533.279 108.92 533.038 108.942 532.732 108.679Z" fill="#FDFEFE"/>
<path fill-rule="evenodd" clip-rule="evenodd" d="M525.759 109.576C525.759 109.204 526.021 109.226 526.283 109.248C526.24 109.554 525.977 109.532 525.759 109.576Z" fill="#FDFEFE"/>
<path fill-rule="evenodd" clip-rule="evenodd" d="M521.08 120.339C521.168 120.121 521.255 119.88 521.342 119.661C521.583 120.011 521.495 120.23 521.08 120.339Z" fill="#FDFEFE"/>
<path fill-rule="evenodd" clip-rule="evenodd" d="M518.719 120.536C518.959 120.471 519.134 120.536 519.287 120.733C519.069 120.755 518.85 120.777 518.719 120.536Z" fill="#FDFEFE"/>
<path fill-rule="evenodd" clip-rule="evenodd" d="M528.753 108.373C528.884 108.198 529.016 108.067 529.256 108.176C529.147 108.373 528.95 108.395 528.753 108.373Z" fill="#FDFEFE"/>
<path fill-rule="evenodd" clip-rule="evenodd" d="M651.86 71.6427C651.816 75.0992 649.892 77.6587 647.881 80.1088C646.634 81.6183 645.76 83.2153 645.323 85.1185C645.148 85.8404 644.82 86.5186 644.492 87.1968C644.033 88.0937 643.333 88.6406 642.24 88.4C641.191 88.1593 640.426 87.6343 640.141 86.4749C639.376 83.2372 640.338 80.5026 642.437 78.0525C642.743 77.6806 642.983 77.243 643.224 76.8493C643.617 76.1492 643.836 75.1867 644.448 74.771C645.388 74.1147 645.279 73.2834 645.279 72.4521C645.279 70.5708 645.257 68.7331 643.967 67.0705C643.18 66.0424 642.306 65.6705 641.191 65.6267C639.311 65.5611 636.731 67.6175 636.206 69.4332C635.856 70.6801 635.419 71.8396 633.845 72.1021C632.162 72.3646 631.134 71.7083 630.916 69.9363C630.522 66.6111 631.987 64.161 634.523 62.1702C636.993 60.2451 639.835 59.8295 642.83 60.0701C643.618 60.1357 644.47 60.3983 645.104 60.8577C647.728 62.7172 650.307 64.6641 651.269 67.9237C651.619 69.105 651.663 70.3739 651.86 71.6208V71.6427Z" fill="#E06765"/>
<path fill-rule="evenodd" clip-rule="evenodd" d="M645.716 95.991C645.716 97.9161 644.711 98.9662 642.809 98.9881C641.147 98.9881 640.076 97.8943 640.054 96.1442C640.054 94.3722 641.06 92.8408 642.306 92.8846C644.12 92.9502 646.022 94.5034 645.716 96.0129V95.991Z" fill="#E06765"/>
<path opacity="0.4" d="M534.05 130.136C534.05 131.536 532.411 132.674 530.399 132.674C528.388 132.674 526.748 131.536 526.748 130.136C526.748 128.736 528.388 127.598 530.399 127.598C532.411 127.598 534.05 128.736 534.05 130.136Z" fill="#E06765"/>
<path opacity="0.4" d="M577.053 130.136C577.053 131.536 575.413 132.674 573.402 132.674C571.391 132.674 569.751 131.536 569.751 130.136C569.751 128.736 571.391 127.598 573.402 127.598C575.413 127.598 577.053 128.736 577.053 130.136Z" fill="#E06765"/>
<ellipse cx="225.333" cy="71.9377" rx="43.5427" ry="43.5986" fill="white"/>
<path fill-rule="evenodd" clip-rule="evenodd" d="M271.227 72.0953C270.649 72.3966 270.925 72.9489 270.976 73.3507C271.227 75.6857 270.7 77.9203 270.273 80.18C270.047 81.4354 269.395 82.6908 270.173 83.9964C270.323 84.2475 270.123 84.5488 269.897 84.7497C268.316 86.0051 268.341 87.8631 268.09 89.6206C267.914 90.8007 266.986 91.6293 266.735 92.7842C266.409 94.2656 264.929 95.1444 264.703 96.7011C264.678 96.927 264.527 97.2032 264.377 97.3037C262.645 98.4586 262.018 100.593 260.312 101.773C259.408 102.375 259.132 103.606 258.229 104.334C256.247 105.916 254.917 108.401 252.031 108.678C250.827 110.536 248.544 110.837 246.862 111.992C245.407 112.996 243.751 114.377 241.618 114.377C240.263 114.377 239.26 115.582 237.804 115.658C235.621 115.758 233.438 116.185 231.255 116.411C229.323 116.637 227.416 116.938 225.459 117.089C221.921 117.365 218.484 117.34 215.172 115.884C214.268 115.482 213.29 115.356 212.311 115.381C211.332 115.381 210.429 114.98 209.676 114.503C207.418 113.046 204.784 112.569 202.425 111.414C201.296 110.862 199.941 110.485 199.238 109.255C199.063 108.929 198.736 108.728 198.41 108.527C196.102 107.196 193.969 105.74 192.087 103.807C190.833 102.526 189.653 101.095 188.675 99.714C186.191 96.1738 183.43 92.5834 183.38 87.8882C183.38 87.1098 183.104 86.1808 183.957 85.7289C184.886 85.2016 185.513 85.98 186.191 86.457C188.273 87.9886 189.653 89.9721 190.28 92.4829C190.381 92.8344 190.607 93.1609 190.782 93.4873C193.342 98.6344 197.131 102.802 201.848 105.865C204.508 107.598 207.142 109.556 210.479 110.284C211.583 110.51 213.014 111.013 214.067 111.967C214.645 112.494 215.623 112.168 216.376 112.343C217.881 112.72 219.362 112.971 220.892 113.197C223.828 113.624 226.689 113.774 229.649 113.122C232.234 112.569 234.944 112.569 237.528 111.841C239.335 111.339 240.79 110.209 242.471 109.657C244.403 109.004 245.708 107.372 247.766 107.02C248.744 106.845 249.372 105.84 250.149 105.238C251.806 103.957 253.537 102.777 254.967 101.12C256.272 99.6387 257.326 97.9565 258.48 96.3998C260.136 94.1652 261.667 91.7297 262.495 88.9929C263.523 85.6536 265.38 82.6155 265.782 79.0251C266.183 75.4346 265.907 71.8944 265.531 68.3542C265.004 63.1819 263.724 58.1101 261.867 53.2141C260.211 48.7951 257.677 44.9285 254.616 41.3882C254.114 40.8108 253.411 40.3337 252.734 39.9571C251.605 39.3545 250.877 38.3 249.698 37.6723C248.87 37.2203 248.217 36.216 247.189 35.7389C244.78 34.6593 242.773 32.7511 240.113 32.1485C238.984 31.8723 237.779 31.6212 236.801 31.0186C234.944 29.8888 232.836 29.9892 230.854 29.6879C227.667 29.1858 224.455 29.2109 221.244 29.4117C217.329 29.6628 213.591 30.7425 209.827 31.7217C205.561 32.8515 202.149 35.3623 198.636 37.7978C198.109 38.1493 197.733 38.7519 197.381 39.2792C196.328 40.8108 194.998 42.0913 193.467 43.1458C193.317 43.2462 193.116 43.3467 193.041 43.4973C192.238 45.1795 191.284 46.7111 190.18 48.2176C189.026 49.7743 188.474 51.7578 187.571 53.5154C185.739 57.1811 184.71 60.9976 183.907 65.0399C183.38 67.852 183.606 70.4884 183.706 73.2251C183.757 74.3048 183.757 75.4346 182.577 75.8364C181.323 76.2381 180.394 75.4597 179.867 74.355C178.236 70.9654 178.412 67.3499 178.713 63.7343C178.864 61.801 179.315 59.943 179.968 58.1855C180.495 56.8045 181.348 55.6245 180.971 54.0427C180.871 53.666 181.398 53.5656 181.624 53.3898C182.703 52.5864 183.054 51.4816 183.004 50.2262C182.979 49.6739 183.129 49.2972 183.581 48.9206C184.836 47.8159 185.839 46.5354 186.492 44.9285C187.069 43.4973 188.399 42.4679 189.101 41.1623C189.804 39.8567 191.134 39.4549 191.911 38.3753C193.568 36.1156 195.826 34.4333 198.009 32.8013C200.142 31.2195 202.701 30.2152 205.235 29.2862C208.347 28.1563 211.608 27.5286 214.795 26.7503C216.15 26.4239 217.555 26.2984 218.935 26.0975C219.186 26.0473 219.538 26.0975 219.588 25.6958C220.064 25.6455 220.516 25.5953 220.993 25.5702C221.068 25.7711 221.244 25.8464 221.444 25.7962C224.882 25.1685 228.295 26.0473 231.757 25.8464C234.116 25.7209 236.675 26.3988 239.059 27.3529C240.339 27.855 241.643 28.3572 242.948 28.8091C244.554 29.3615 246.386 29.4117 247.741 30.6671C248.87 31.6966 250.802 31.5459 251.605 33.1277C252.082 34.0567 252.96 34.5338 253.788 35.061C256.422 36.7433 258.681 38.8523 260.462 41.3882C264.803 47.6652 268.04 54.4444 269.52 62.0019C269.771 63.2322 269.721 64.6131 270.624 65.6425C270.649 65.9187 270.675 66.1949 270.7 66.4962C270.399 68.1282 270.599 69.71 271.176 71.2667C271.176 71.5429 271.227 71.8191 271.277 72.1204L271.227 72.0953Z" fill="#27716B"/>
<path fill-rule="evenodd" clip-rule="evenodd" d="M150.585 91.6042C151.714 90.876 153.069 90.6501 154.324 90.2232C154.901 90.0224 155.553 89.8466 156.231 90.0977C156.582 90.2232 157.109 90.2232 157.46 90.0977C159.744 89.2691 162.127 88.9678 164.461 88.315C165.339 88.0639 166.217 87.4865 167.096 87.1601C169.078 86.457 170.709 85.1514 172.616 84.3731C174.046 83.7956 175.527 83.419 177.007 82.967C177.408 82.8415 177.785 82.9168 177.986 83.2934C178.211 83.7705 178.613 84.2726 178.262 84.8501C178.136 85.1012 177.935 85.3523 177.71 85.4778C175.15 87.0847 172.867 89.0432 169.856 89.947C166.167 91.0769 162.504 92.3072 158.74 93.1609C156.105 93.7383 153.345 94.3158 150.686 92.9851C150.635 92.508 150.585 92.0561 150.56 91.5791L150.585 91.6042Z" fill="#27716B"/>
<path fill-rule="evenodd" clip-rule="evenodd" d="M271.126 71.2667C270.549 69.71 270.348 68.1282 270.649 66.4962C270.8 68.078 270.976 69.6849 271.126 71.2667Z" fill="#A1B1AD"/>
<path d="M224.23 44.125H224.857C225.008 44.6021 225.334 44.8029 225.785 44.7025C227.291 44.3259 228.019 45.1795 228.646 46.3596C230.026 48.996 229.9 51.8834 230.051 54.6704C230.176 56.8296 230.051 59.014 230.402 61.1482C229.825 64.588 229.75 68.078 229.298 71.5178C229.047 73.4009 227.743 75.1836 228.52 77.2173C228.621 77.4433 228.42 77.6943 228.169 77.845C227.743 78.1463 227.642 78.6736 227.692 79.1004C227.918 80.7073 226.764 81.0588 225.66 81.1844C224.506 81.3099 223.201 81.0839 222.749 79.8285C221.445 76.1879 220.792 72.4217 220.566 68.5802C220.441 66.672 220.566 64.588 220.14 62.8555C219.462 60.2192 219.588 57.7084 219.538 55.1223C219.538 54.3439 219.839 53.3898 218.96 52.7873V51.2306C220.09 50.6531 219.788 49.3977 220.215 48.4687C220.968 46.8116 221.595 45.1544 223.628 44.7276C223.929 44.6523 224.18 44.4765 224.205 44.0999L224.23 44.125Z" fill="#E06765"/>
<path fill-rule="evenodd" clip-rule="evenodd" d="M229.223 92.5331C229.223 94.5418 227.642 96.1738 225.585 96.1989C223.377 96.1989 221.369 94.818 221.545 93.0604C221.771 90.6501 223.126 88.0137 226.061 88.0137C228.244 88.0137 229.173 89.3444 229.223 92.5583V92.5331Z" fill="#E06765"/>
</svg>
