<svg width="41" height="41" viewBox="0 0 41 41" fill="none" xmlns="http://www.w3.org/2000/svg">
<path d="M24.4666 28.2801L22.2833 30.3801V20.9801C22.2833 20.5381 22.1077 20.1142 21.7951 19.8016C21.4825 19.4891 21.0586 19.3135 20.6166 19.3135C20.1746 19.3135 19.7506 19.4891 19.4381 19.8016C19.1255 20.1142 18.9499 20.5381 18.9499 20.9801V30.2968L16.7999 28.1301C16.6445 27.9747 16.4601 27.8515 16.257 27.7674C16.054 27.6833 15.8364 27.64 15.6166 27.64C15.3968 27.64 15.1792 27.6833 14.9762 27.7674C14.7731 27.8515 14.5887 27.9747 14.4333 28.1301C14.2779 28.2855 14.1546 28.47 14.0705 28.6731C13.9864 28.8761 13.9431 29.0937 13.9431 29.3135C13.9431 29.5332 13.9864 29.7509 14.0705 29.9539C14.1546 30.1569 14.2779 30.3414 14.4333 30.4968L19.4333 35.4968C19.589 35.6513 19.7737 35.7735 19.9768 35.8564C20.1798 35.9394 20.3973 35.9814 20.6166 35.9801C21.0457 35.9784 21.4576 35.8113 21.7666 35.5135L26.7666 30.6801C26.9434 30.5342 27.0883 30.3534 27.192 30.1489C27.2958 29.9444 27.3563 29.7208 27.3697 29.4919C27.383 29.263 27.349 29.0338 27.2698 28.8186C27.1906 28.6035 27.0678 28.407 26.9091 28.2414C26.7505 28.0759 26.5594 27.9449 26.3478 27.8566C26.1362 27.7682 25.9087 27.7245 25.6794 27.7282C25.4502 27.7318 25.2241 27.7827 25.0155 27.8777C24.8068 27.9726 24.6199 28.1097 24.4666 28.2801Z" fill="white"/>
<path d="M30.0668 12.6468C29.3867 10.6819 28.1111 8.97781 26.4173 7.77171C24.7236 6.56562 22.696 5.91748 20.6168 5.91748C18.5375 5.91748 16.5099 6.56562 14.8162 7.77171C13.1225 8.97781 11.8468 10.6819 11.1668 12.6468C9.66936 12.8473 8.25463 13.4512 7.07394 14.3938C5.89324 15.3363 4.99099 16.5821 4.46371 17.9979C3.93643 19.4137 3.80395 20.9462 4.08045 22.4315C4.35694 23.9167 5.03201 25.2989 6.03344 26.4301C6.1544 26.6432 6.32086 26.827 6.52095 26.9684C6.72104 27.1098 6.94985 27.2053 7.19108 27.2482C7.43232 27.2911 7.68004 27.2803 7.91661 27.2165C8.15318 27.1527 8.37278 27.0376 8.55977 26.8793C8.74676 26.7209 8.89655 26.5233 8.99846 26.3005C9.10038 26.0777 9.15191 25.8352 9.1494 25.5902C9.14688 25.3452 9.09038 25.1037 8.98392 24.8831C8.87745 24.6624 8.72364 24.4679 8.53344 24.3134C7.88863 23.5925 7.46675 22.7001 7.31892 21.7443C7.17109 20.7884 7.30366 19.8102 7.70056 18.9282C8.09747 18.0462 8.74166 17.2983 9.55509 16.775C10.3685 16.2517 11.3163 15.9756 12.2834 15.9801H12.4501C12.84 15.988 13.2203 15.8589 13.5249 15.6152C13.8294 15.3716 14.0389 15.0289 14.1168 14.6468C14.4228 13.1397 15.2404 11.7848 16.4311 10.8116C17.6218 9.8384 19.1123 9.30676 20.6501 9.30676C22.1879 9.30676 23.6784 9.8384 24.8691 10.8116C26.0598 11.7848 26.8774 13.1397 27.1834 14.6468C27.2614 15.0289 27.4708 15.3716 27.7753 15.6152C28.0799 15.8589 28.4602 15.988 28.8501 15.9801H28.9501C29.9173 15.9756 30.865 16.2517 31.6785 16.775C32.4919 17.2983 33.1361 18.0462 33.533 18.9282C33.9299 19.8102 34.0625 20.7884 33.9146 21.7443C33.7668 22.7001 33.3449 23.5925 32.7001 24.3134C32.5533 24.4781 32.4406 24.6702 32.3686 24.8787C32.2966 25.0872 32.2668 25.308 32.2807 25.5281C32.2947 25.7483 32.3522 25.9634 32.4499 26.1612C32.5477 26.3589 32.6837 26.5353 32.8501 26.6801C33.154 26.9481 33.545 27.0962 33.9501 27.0968C34.1868 27.0965 34.4206 27.0458 34.6361 26.9481C34.8517 26.8504 35.0439 26.7079 35.2001 26.5301C36.2293 25.4008 36.9282 24.0104 37.2205 22.5107C37.5127 21.011 37.387 19.4598 36.8572 18.0267C36.3273 16.5936 35.4136 15.3338 34.216 14.385C33.0185 13.4362 31.5831 12.8348 30.0668 12.6468Z" fill="white"/>
</svg>
