<svg width="756" height="624" viewBox="0 0 756 624" fill="none" xmlns="http://www.w3.org/2000/svg">
<path fill-rule="evenodd" clip-rule="evenodd" d="M742.549 90.4035C742.549 86.7185 745.538 83.752 749.2 83.752C752.862 83.752 755.852 86.7417 755.852 90.4035C755.852 94.0653 752.862 97.0551 749.2 97.0551C745.538 97.0551 742.549 94.0653 742.549 90.4035Z" fill="#FFDB59"/>
<path d="M583.236 62.2679C583.236 62.2679 586.11 64.4464 591.139 68.2705C593.689 70.1246 596.655 72.5581 600.062 75.3855C601.777 76.7993 603.585 78.2825 605.485 79.8585C607.339 81.504 609.286 83.219 611.303 85.0267C613.319 86.8576 615.474 88.6654 617.583 90.7049C619.692 92.7444 621.871 94.8534 624.119 97.0088C626.39 99.141 628.592 101.459 630.863 103.823C633.111 106.21 635.475 108.574 637.746 111.1C642.242 116.199 646.994 121.413 651.42 127.022C656.032 132.491 660.273 138.401 664.654 144.218C668.802 150.198 673.02 156.131 676.775 162.249C680.738 168.229 684.098 174.44 687.598 180.327C689.197 183.339 690.773 186.329 692.303 189.226C693.068 190.686 693.832 192.123 694.574 193.56C695.269 195.02 695.965 196.457 696.637 197.848C697.981 200.675 699.302 203.433 700.577 206.098C701.759 208.81 702.894 211.429 703.983 213.932C705.05 216.458 706.139 218.845 707.043 221.186C707.947 223.527 708.781 225.728 709.569 227.814C710.357 229.9 711.098 231.847 711.794 233.655C712.419 235.486 712.976 237.154 713.509 238.684C715.548 244.756 716.707 248.232 716.707 248.232C717.727 251.268 716.104 254.559 713.068 255.579C710.032 256.599 706.741 254.977 705.722 251.94C705.698 251.871 705.675 251.801 705.652 251.732L705.583 251.477C705.583 251.477 704.609 248.07 702.871 242.114C702.431 240.631 701.944 238.985 701.434 237.177C700.831 235.393 700.206 233.492 699.51 231.43C698.815 229.367 698.097 227.189 697.332 224.894C696.544 222.6 695.594 220.236 694.667 217.733C693.716 215.253 692.72 212.657 691.7 209.969C690.564 207.327 689.406 204.592 688.201 201.788C687.598 200.374 686.995 198.96 686.37 197.5C685.698 196.086 685.025 194.649 684.33 193.189C682.94 190.292 681.549 187.326 680.112 184.313C676.96 178.426 673.924 172.215 670.309 166.189C666.902 160.048 663.008 154.068 659.207 148.019C655.152 142.132 651.235 136.153 646.924 130.591C642.799 124.89 638.372 119.559 634.131 114.344C631.999 111.749 629.751 109.315 627.642 106.882C625.509 104.448 623.424 102.061 621.268 99.8594C619.136 97.6345 617.073 95.456 615.08 93.347C613.087 91.238 611.024 89.3607 609.101 87.4602C607.177 85.583 605.323 83.7984 603.562 82.0834C601.731 80.4379 600.016 78.8851 598.393 77.425C595.149 74.4816 592.298 71.9555 589.842 69.9855C584.998 65.9529 582.217 63.6585 582.217 63.6585C581.869 63.3572 581.823 62.8473 582.101 62.4997C582.379 62.152 582.889 62.1056 583.236 62.3606L583.236 62.2679Z" fill="#EDD953"/>
<path d="M613.783 506.483C613.783 506.483 612.509 508.291 610.284 511.42C609.171 512.996 607.804 514.896 606.251 517.098C605.463 518.187 604.652 519.369 603.771 520.597C602.844 521.826 601.801 523.077 600.735 524.421C598.603 527.063 596.309 529.937 593.875 532.973C592.693 534.526 591.372 536.009 590.005 537.469C588.637 538.976 587.247 540.482 585.856 542.058C583.005 545.141 580.178 548.432 576.957 551.445C573.805 554.504 570.606 557.633 567.408 560.738C564.024 563.658 560.641 566.578 557.326 569.429C554.082 572.372 550.559 574.899 547.245 577.448C545.576 578.723 543.954 579.951 542.355 581.179C540.779 582.408 539.203 583.59 537.58 584.609C534.405 586.742 531.392 588.735 528.635 590.589C527.244 591.516 525.946 592.42 524.648 593.231C523.35 593.996 522.099 594.714 520.917 595.409C518.576 596.777 516.56 597.959 514.868 598.932C511.507 600.879 509.607 602.015 509.607 602.015C508.865 602.455 507.915 602.2 507.475 601.458C507.058 600.74 507.266 599.836 507.961 599.373L508.054 599.326C508.054 599.326 509.885 598.098 513.083 595.966C514.683 594.9 516.606 593.602 518.831 592.118C519.944 591.377 521.125 590.589 522.377 589.755C523.605 588.897 524.834 587.9 526.131 586.927C528.75 584.934 531.578 582.802 534.568 580.507C536.097 579.395 537.58 578.167 539.041 576.869C540.524 575.594 542.053 574.273 543.606 572.929C546.689 570.24 549.98 567.575 552.993 564.516C556.075 561.526 559.204 558.49 562.309 555.454C565.253 552.233 568.173 549.011 571.047 545.859C574.013 542.777 576.563 539.416 579.135 536.241C580.41 534.665 581.661 533.089 582.89 531.583C584.141 530.076 585.323 528.57 586.343 527.04C588.475 524.027 590.515 521.177 592.369 518.558C593.296 517.237 594.199 516.008 595.034 514.78C595.822 513.505 596.587 512.277 597.305 511.141C598.719 508.87 599.97 506.877 600.99 505.232C603.03 501.964 604.188 500.086 604.188 500.086C605.88 497.375 609.449 496.541 612.184 498.232C614.896 499.924 615.73 503.493 614.038 506.205C613.969 506.298 613.922 506.414 613.853 506.483L613.783 506.483Z" fill="#FFDB59"/>
<path d="M485.108 604.888C481.946 604.888 479.383 607.451 479.383 610.612C479.383 613.774 481.946 616.337 485.108 616.337C488.269 616.337 490.832 613.774 490.832 610.612C490.832 607.451 488.269 604.888 485.108 604.888Z" fill="#FFDB59"/>
<path d="M583.237 62.2679C583.237 62.2679 586.11 64.4464 591.14 68.2705C593.689 70.1245 596.656 72.558 600.062 75.3855C601.777 76.7992 603.585 78.2825 605.486 79.8585C607.34 81.504 609.286 83.219 611.303 85.0267C613.319 86.8576 615.474 88.6654 617.584 90.7048C619.693 92.7443 621.871 94.8534 624.119 97.0087C626.39 99.1409 628.615 101.459 630.863 103.822C633.111 106.21 635.475 108.574 637.747 111.1C642.266 116.198 646.994 121.413 651.42 127.022C656.033 132.491 660.274 138.401 664.654 144.218C668.803 150.198 673.021 156.131 676.752 162.249C680.715 168.229 684.099 174.44 687.575 180.327C689.174 183.339 690.75 186.306 692.303 189.226C693.068 190.686 693.833 192.123 694.574 193.56C695.27 195.02 695.965 196.434 696.637 197.848C698.004 200.675 699.302 203.433 700.577 206.098C701.759 208.81 702.894 211.429 703.984 213.932C705.05 216.458 706.139 218.845 707.043 221.186C707.924 223.527 708.781 225.728 709.569 227.814C710.357 229.9 711.099 231.847 711.794 233.655C712.42 235.486 712.999 237.154 713.509 238.684C715.549 244.756 716.707 248.232 716.707 248.232C717.727 251.268 716.082 254.559 713.069 255.579C710.033 256.599 706.742 254.977 705.722 251.94C705.722 251.871 705.676 251.801 705.652 251.732L705.583 251.477C705.583 251.477 704.609 248.07 702.871 242.114C702.431 240.631 701.944 238.985 701.434 237.177C700.832 235.393 700.206 233.492 699.511 231.43C698.815 229.367 698.097 227.189 697.332 224.894C696.544 222.6 695.594 220.236 694.644 217.733C693.694 215.253 692.697 212.657 691.677 209.969C690.542 207.327 689.383 204.592 688.178 201.788C687.575 200.374 686.973 198.96 686.347 197.523C685.675 196.109 685.003 194.673 684.307 193.212C682.917 190.315 681.526 187.349 680.089 184.336C676.937 178.449 673.901 172.238 670.286 166.212C666.879 160.071 662.985 154.091 659.184 148.042C655.152 142.156 651.235 136.176 646.924 130.614C642.799 124.913 638.372 119.582 634.131 114.368C631.999 111.772 629.751 109.338 627.642 106.905C625.51 104.471 623.447 102.084 621.268 99.8826C619.136 97.6577 617.074 95.4791 615.08 93.3701C613.087 91.2611 611.025 89.3838 609.101 87.4834C607.177 85.6061 605.323 83.8216 603.562 82.1065C601.731 80.461 600.016 78.9082 598.394 77.4481C595.172 74.5048 592.322 71.9786 589.842 70.0087C584.975 65.976 582.217 63.6816 582.217 63.6816C581.869 63.3803 581.823 62.8704 582.101 62.5228C582.379 62.1751 582.889 62.1288 583.237 62.3837L583.237 62.2679Z" fill="#FFDB59"/>
<path d="M557.373 50.6569C557.373 47.5049 559.922 44.9324 563.074 44.9324C566.226 44.9324 568.799 47.4818 568.799 50.6569C568.799 53.832 566.249 56.3813 563.074 56.3813C559.899 56.3813 557.373 53.832 557.373 50.6569Z" fill="#FFDB59"/>
<path fill-rule="evenodd" clip-rule="evenodd" d="M244.092 38.2282C244.092 34.5432 247.081 31.5767 250.743 31.5767C254.405 31.5767 257.395 34.5664 257.395 38.2282C257.395 41.89 254.405 44.8798 250.743 44.8798C247.081 44.8798 244.092 41.89 244.092 38.2282Z" fill="#FFDB59"/>
<path fill-rule="evenodd" clip-rule="evenodd" d="M388.617 5.1465C388.617 2.43491 391.143 -0.0680978 393.785 0.00143103C396.474 0.0709589 398.861 2.59714 398.791 5.33191C398.722 8.04351 396.428 10.1757 393.623 10.1525C390.842 10.1525 388.594 7.88128 388.617 5.16968L388.617 5.1465Z" fill="#EFEFEF"/>
<path fill-rule="evenodd" clip-rule="evenodd" d="M87.5007 14.5715C87.5471 9.44956 92.275 4.72165 97.2578 4.8607C102.357 4.99976 106.853 9.77406 106.714 14.896C106.575 19.9947 102.264 24.0273 96.9334 23.9809C91.7188 23.9346 87.4544 19.6934 87.5007 14.5715Z" fill="#EFEFEF"/>
<path d="M504.878 99.674C501.461 99.674 498.69 102.445 498.69 105.862C498.69 109.28 501.461 112.05 504.878 112.05C508.296 112.05 511.066 109.28 511.066 105.862C511.066 102.445 508.296 99.674 504.878 99.674Z" fill="#EFEFEF"/>
<path fill-rule="evenodd" clip-rule="evenodd" d="M708.317 290.83C708.317 287.423 711.075 284.642 714.505 284.642C717.935 284.642 720.693 287.4 720.693 290.83C720.693 294.26 717.935 297.018 714.505 297.018C711.075 297.018 708.317 294.26 708.317 290.83Z" fill="#EFEFEF"/>
<path d="M74.731 345.363C77.9293 345.363 80.6873 347.773 80.6873 350.972C80.6873 360.914 81.2899 370.718 82.3096 380.475C83.3294 390.232 84.6735 400.082 86.713 409.7C88.7525 419.318 91.0006 428.959 94.0599 438.345C97.1191 447.731 100.804 456.84 104.837 465.901C106.135 468.822 104.767 472.113 101.847 473.411C98.9268 474.708 95.7285 473.457 94.4306 470.537C90.2358 461.104 86.4118 451.579 83.2598 441.868C80.1079 432.157 77.489 422.168 75.38 412.11C73.271 402.052 71.3473 391.993 70.2812 381.749C69.2151 371.505 68.9834 361.308 68.9834 350.972C68.9834 347.773 71.5559 345.363 74.7542 345.363L74.731 345.363Z" fill="#EFEFEF"/>
<path d="M76.6083 318.803C73.4084 318.803 70.8143 321.397 70.8143 324.597C70.8143 327.797 73.4084 330.391 76.6083 330.391C79.8083 330.391 82.4023 327.797 82.4023 324.597C82.4023 321.397 79.8083 318.803 76.6083 318.803Z" fill="#EFEFEF"/>
<path fill-rule="evenodd" clip-rule="evenodd" d="M132.393 168.623C132.393 165.401 134.989 162.806 138.21 162.806C141.432 162.806 144.027 165.401 144.027 168.623C144.027 171.844 141.432 174.44 138.21 174.44C134.989 174.44 132.393 171.844 132.393 168.623Z" fill="#EFEFEF"/>
<path d="M158.559 147.301C162.012 143.824 160.876 144.589 165.28 140.162C167.435 137.914 170.077 135.203 173.322 132.259C174.944 130.799 176.636 129.2 178.444 127.555C180.321 126.002 182.407 124.472 184.47 122.757C188.525 119.234 193.323 115.943 198.236 112.235C200.647 110.335 203.103 108.318 205.768 106.488C208.48 104.726 211.192 102.803 214.112 101.111C216.986 99.3725 219.906 97.5648 222.849 95.7571C225.816 93.9725 229.176 92.7905 232.259 91.0755C233.811 90.2412 235.295 89.2446 236.871 88.4103C238.47 87.6455 240.092 86.9038 241.714 86.1158C244.959 84.6094 247.995 82.5699 251.309 81.2025C254.624 79.7888 258.007 78.5373 261.298 77.1467C264.612 75.7793 267.996 74.6205 271.333 73.369C273.002 72.7664 274.624 72.0248 276.27 71.4222C277.939 70.8892 279.677 70.5184 281.345 70.0085C284.683 69.0119 287.927 67.8068 291.195 66.9261C297.754 65.2806 304.081 63.4265 310.2 62.3373C313.236 61.7347 316.272 61.387 319.122 60.8076C322.019 60.3673 324.847 60.1587 327.535 59.7416C332.889 58.8377 337.849 58.4668 342.252 58.0265C344.454 57.8179 346.493 57.6093 348.394 57.4008C350.294 57.3081 352.032 56.7982 353.608 56.7286C359.959 56.4273 358.591 56.4737 363.574 56.242C366.772 56.0797 369.461 58.6754 369.6 61.8737C369.762 65.072 367.329 67.9227 364.13 68.0617C364.038 68.0617 363.968 67.6909 363.875 67.6909C363.713 67.6909 363.713 67.6445 363.574 67.6445C358.777 67.6445 360.074 68.0153 353.979 68.0153C352.45 68.0153 350.758 68.1081 348.927 68.1081C347.096 68.2008 345.103 68.2008 342.971 68.3166C338.706 68.5484 333.862 68.363 328.671 69.012C326.052 69.2901 323.41 70.078 320.582 70.3561C317.778 70.7733 314.858 70.9124 311.868 71.3759C305.889 72.1639 299.701 73.6703 293.258 74.9681C290.06 75.6866 286.838 76.66 283.547 77.4712C281.902 77.8884 280.187 78.1201 278.541 78.5605C276.896 79.0703 275.366 79.9047 273.697 80.4145C270.406 81.4806 266.999 82.2918 263.708 83.4738C260.417 84.6789 257.103 85.9073 253.812 87.1124C250.498 88.3176 247.254 89.6618 244.009 91.006C242.387 91.7013 240.764 92.3734 239.165 93.0455C237.589 93.8103 236.222 94.9691 234.669 95.7339C231.563 97.2867 228.18 98.2369 225.167 99.8592C222.177 101.505 219.442 103.521 216.545 105.12C213.602 106.65 210.682 108.11 207.947 109.732C205.235 111.424 202.64 113.185 200.16 114.947C195.131 118.354 190.333 121.552 186.162 124.843C184.029 126.442 181.828 127.763 179.904 129.223C178.05 130.776 176.52 132.537 174.875 133.928C171.537 136.663 168.756 139.189 166.485 141.344C161.896 145.562 162.87 144.635 159.254 147.949C159.069 148.135 158.466 148.042 158.281 147.857C158.119 147.671 158.466 147.463 158.628 147.301L158.559 147.301Z" fill="#EFEFEF"/>
<path d="M712.002 411.253C712.002 406.664 715.71 402.956 720.299 402.956C724.888 402.956 728.596 406.664 728.596 411.253C728.596 415.841 724.888 419.55 720.299 419.55C715.71 419.55 712.002 415.841 712.002 411.253Z" fill="#EFEFEF"/>
<path fill-rule="evenodd" clip-rule="evenodd" d="M439.892 5.16228L436.045 42.9624L404.039 41.989L429.973 56.1264L419.057 74.9221L439.892 69.6148L450.553 102.061L456.903 69.9161L484.46 71.5385L460.241 54.5736L493.174 19.2301L451.156 40.1581L439.892 5.16228Z" fill="#EFEFEF"/>
<path fill-rule="evenodd" clip-rule="evenodd" d="M141.261 549.472C141.307 544.351 146.035 539.623 151.018 539.762C156.116 539.901 160.612 544.675 160.473 549.797C160.334 554.896 156.024 558.928 150.693 558.882C145.479 558.836 141.214 554.594 141.261 549.472Z" fill="#EFEFEF"/>
<path d="M666.021 550.633C668.454 549.892 670.934 549.359 673.437 548.988C694.643 515.823 710.519 479.321 720.137 441.266C720.925 438.16 719.047 435.008 715.942 434.22C715.455 434.104 714.992 434.035 714.528 434.035C711.932 434.035 709.568 435.796 708.92 438.415C700.808 470.56 688.015 501.57 671.258 530.308L666.067 550.61L666.021 550.633Z" fill="#EFEFEF"/>
<path fill-rule="evenodd" clip-rule="evenodd" d="M681.457 40.4362C681.457 33.0894 687.413 27.11 694.76 27.11C702.107 27.11 708.086 33.0663 708.086 40.4362C708.086 47.8062 702.13 53.7625 694.76 53.7625C687.39 53.7624 681.457 47.8062 681.457 40.4362Z" fill="#00ABDF"/>
<path fill-rule="evenodd" clip-rule="evenodd" d="M644.977 380.544C644.977 376.489 648.268 373.174 652.347 373.174C656.426 373.174 659.717 376.465 659.717 380.544C659.717 384.623 656.426 387.914 652.347 387.914C648.268 387.914 644.977 384.623 644.977 380.544Z" fill="#00ABDF"/>
<path fill-rule="evenodd" clip-rule="evenodd" d="M26.4319 204.082C26.4319 200.026 29.7229 196.712 33.8019 196.712C37.8809 196.712 41.1719 200.003 41.1719 204.082C41.1719 208.161 37.8809 211.452 33.8019 211.452C29.7229 211.452 26.4319 208.161 26.4319 204.082Z" fill="#00ABDF"/>
<path d="M184.493 30.8182C186.509 30.8182 188.549 31.5367 189.615 33.4139C191.191 36.195 190.218 39.9264 187.436 41.5023C171.978 50.3324 156.821 60.1127 142.823 71.1909C105.509 100.648 75.2644 136.895 52.2274 178.357C50.6747 181.161 46.7579 182.32 43.9536 180.767C41.1493 179.214 40.4077 175.46 41.9605 172.655C65.7623 129.849 97.0499 92.4432 135.568 62.0131C150.03 50.5874 165.697 40.4826 181.666 31.3744C182.569 30.8646 183.52 30.8182 184.493 30.8182Z" fill="#00ABDF"/>
<path d="M117.259 618.191C117.259 618.191 114.501 615.572 109.657 610.983C107.247 608.689 104.303 605.908 100.943 602.71C97.6751 599.395 94.1523 595.456 90.2355 591.238C88.2655 589.129 86.2493 586.927 84.1403 584.632C82.1935 582.222 80.154 579.742 78.0913 577.193C74.0123 572.025 69.354 566.833 65.3677 560.854C63.2818 557.91 61.1728 554.944 59.0174 551.908C57.9513 550.401 56.8621 548.872 55.796 547.342C54.7299 545.789 53.8028 544.167 52.8062 542.568C50.8131 539.346 48.82 536.102 46.8269 532.834C44.8337 529.566 42.7247 526.345 41.0097 522.891C39.2019 519.485 37.4174 516.101 35.6328 512.694C34.7521 511.002 33.8482 509.31 32.9444 507.618L31.6234 505.092L30.4646 502.497C27.4054 495.567 24.2766 488.799 21.4491 482.148C18.9461 475.357 16.5358 468.799 14.2414 462.587C13.9633 461.799 13.662 461.035 13.3839 460.27C13.1289 459.482 12.8972 458.671 12.6422 457.883C12.1787 456.376 11.7152 454.87 11.2516 453.41C10.3478 450.443 9.39753 447.685 8.67908 444.835C7.17263 439.203 5.68939 434.035 4.716 429.446C3.67307 424.857 2.67649 420.871 2.09709 417.533C0.822413 410.882 0.103992 407.081 0.103992 407.081C-0.498585 403.929 1.56406 400.893 4.716 400.313C7.86794 399.711 10.904 401.774 11.5066 404.925C11.5066 404.995 11.5066 405.041 11.5298 405.111L11.5761 405.343C11.5761 405.343 12.1555 409.051 13.1521 415.517C13.5924 418.762 14.4267 422.655 15.2843 427.151C16.0722 431.671 17.3238 436.607 18.5521 442.077C19.1315 444.788 19.989 447.685 20.777 450.652C21.171 452.135 21.5881 453.641 22.0053 455.171C22.2139 455.913 22.3993 456.654 22.6079 457.396C22.8628 458.161 23.0946 458.902 23.3495 459.667C25.3659 465.809 27.498 472.275 29.6997 478.973C32.2259 485.555 35.0303 492.276 37.7882 499.159L38.8311 501.732L40.0363 504.258C40.8475 505.927 41.6586 507.618 42.4698 509.31C44.1153 512.694 45.7376 516.078 47.3831 519.485C48.9359 522.938 50.9058 526.159 52.7367 529.427C54.5908 532.695 56.4449 535.94 58.2758 539.184C59.2029 540.783 60.0603 542.429 61.0569 543.982C62.0767 545.511 63.0733 547.041 64.0698 548.57C66.063 551.607 68.0329 554.619 69.9797 557.586C73.711 563.635 78.0913 568.896 81.9385 574.134C83.9085 576.729 85.8089 579.256 87.6398 581.689C89.6329 584.007 91.5566 586.232 93.3875 588.387C97.1188 592.651 100.41 596.661 103.539 600.068C106.783 603.382 109.611 606.279 111.952 608.643C116.61 613.394 119.275 616.129 119.275 616.129C119.831 616.685 119.808 617.589 119.275 618.145C118.719 618.678 117.838 618.678 117.282 618.145L117.259 618.191Z" fill="#00ABDF"/>
<path d="M591.117 167.371C592.832 167.371 594.547 168.136 595.683 169.596C636.519 221.811 658.119 284.526 658.119 350.971C658.119 354.17 655.523 356.765 652.325 356.765C649.127 356.765 646.531 354.17 646.531 350.971C646.531 287.145 625.789 226.887 586.552 176.734C584.582 174.208 585.022 170.569 587.548 168.599C588.614 167.765 589.866 167.371 591.117 167.371Z" fill="#00ABDF"/>
</svg>
