<svg width="369" height="84" viewBox="0 0 369 84" fill="none" xmlns="http://www.w3.org/2000/svg">
<g clip-path="url(#clip0_125_21444)">
<path d="M326 78.5H293L301 71.5L303 73.5H314V54H339.5L342.5 52C341.5 51.1667 340.8 49.1 346 47.5C351.2 45.9 351.833 48.1667 351.5 49.5C352.833 50 355.5 51.9 355.5 55.5C355.5 59.1 354.5 60.3334 354 60.5H352.5L348.5 63H345L325 61L326 78.5Z" fill="white"/>
<path d="M131 79H96L105 72L109 73L127.5 69L135 54H174.5L176.5 53V50L181 47L186 47.5V50.5C191.6 53.3 190.667 58.3333 189.5 60.5L186.5 61C183.7 63.8 180.333 63.1667 179 62.5L180 69L181 72.5L191.5 75C195.9 73.8 197.333 75.8333 197.5 77C192.667 77.3333 182.2 78 179 78C175.8 78 174.667 73.3333 174.5 71L173.5 63.5H159V79H138.5L146 74.5H152.5L142.5 67.5L131 79Z" fill="white"/>
<path d="M1 68.5002L6 65.5002L15 51L7.5 30.5C15.9 13.7 26.6667 11.1667 31 12L34.5 10.5002C34.5 6.66687 36.2 -0.699801 43 0.500199C49.8 1.7002 48.8333 6.33353 47.5 8.5002L46.5 13.0002L42.5 16.0002L40 14.5002L36.5 15.5002L35.5 17.5002L38.5 27.5002L37.5 29.0002L38.5 38.0002L45 47.5002C48.3647 47.5002 49.402 49.5002 49.5 50.5002L48 52.0002H45L43 50.0002L35.5 41.5002L31 31.0002H29L24 40.5002L32 71.0002L30 73.5002V78.0002L35.5 82.5002H25V73.5002L22.5 72.5002L21 63.0002L11 70.0002L9 68.5002L6 71.0002L7 79.0002H5L1 68.5002Z" fill="white"/>
<path fill-rule="evenodd" clip-rule="evenodd" d="M110.754 71.6541V79.0028H129.797C129.797 79.0028 134.475 78.3285 136.069 76.9279C137.663 75.5446 143.077 68.2996 143.077 68.2996H144.145L151.275 73.8328L152.765 79.0028C152.765 79.0028 162.12 80.5763 163.083 78.0518C164.047 75.5273 164.467 74.6973 163.714 72.2766C162.96 69.8558 157.197 62.7838 157.197 62.7838L147.351 56.2305L138.907 49.9365C138.907 49.9365 134.597 53.291 133.529 56.2305C132.46 59.17 127.362 67.8846 127.362 67.8846L119.076 70.0806L110.772 71.6541H110.754Z" fill="#FCF163"/>
<path fill-rule="evenodd" clip-rule="evenodd" d="M8.98724 33.3374L23.8783 41.3259C23.8783 41.3259 30.2551 55.2798 30.9033 58.5305C31.534 61.7812 30.9033 71.8619 30.9033 71.8619L26.436 72.8129L22.3016 72.1904L20.6898 61.176C20.6898 61.176 17.2912 65.274 16.1174 66.104C14.9437 66.9512 10.9143 69.0435 10.9143 69.0435L8.35656 65.7927L6.00903 61.3835L9.09235 59.0665L11.7552 56.127L13.9976 53.9311L14.5232 50.6803L12.2983 46.5478C12.2983 46.5478 8.46167 40.9109 8.46167 39.2337C8.46167 37.5564 8.98724 33.3547 8.98724 33.3547V33.3374Z" fill="#FCF163"/>
<path opacity="0.8" fill-rule="evenodd" clip-rule="evenodd" d="M273.452 28.1672C274.486 28.098 276.15 28.0288 277.779 28.098C280.95 28.2017 284.104 28.1499 287.257 28.1672C294.159 28.2017 301.079 28.2017 307.982 28.2017C317.319 28.2017 326.657 28.2017 335.994 28.2017C341.565 28.2017 347.136 28.2017 352.69 28.2017C354.389 28.2017 356.089 28.2017 357.805 28.2017C361.222 28.2017 364.638 28.2017 368.071 28.1672C368.72 28.1672 369.053 28.3746 369.018 29.1009C368.965 30.1556 368.982 31.2104 369.018 32.2651C369.035 32.8876 368.755 33.2161 368.177 33.0778C366.915 32.7839 365.619 33.1124 364.34 32.8357C363.674 32.6974 362.938 33.0778 362.203 33.0086C362.01 33.0086 362.045 33.1816 362.063 33.3026C362.29 34.4092 361.887 35.4986 362.01 36.5879C362.29 39.1297 361.835 41.6542 362.01 44.1787C362.203 46.9798 362.133 49.7983 362.063 52.5821C361.992 55.5908 362.168 58.6167 362.098 61.6254C362.063 63.1643 361.94 64.7205 362.098 66.2767C362.238 67.8329 361.94 69.4409 362.027 71.0144C362.115 72.4842 362.115 73.9712 362.08 75.4409C362.045 76.6513 362.255 77.8444 362.133 79.0375C362.045 79.9193 361.502 80.3516 360.626 80.1441C360.188 80.0403 359.785 79.9885 359.312 80.1095C358.822 80.2478 358.173 79.6772 358.156 79.0893C358.103 78.121 358.121 77.1527 358.121 76.1671C358.103 71.4121 358.068 66.6398 358.068 61.8847C358.068 58.4784 358.191 55.0893 358.138 51.683C358.086 48.3804 358.138 45.0778 358.051 41.7579C357.998 40.3055 358.156 38.8357 358.068 37.3833C357.998 36.1729 358.173 34.9625 358.103 33.7522C358.051 32.9395 357.753 32.6801 356.947 32.8703C356.036 33.0778 355.143 32.9222 354.232 32.9568C352.077 33.0432 349.939 32.853 347.785 32.9222C346.401 32.9568 344.999 32.8876 343.615 32.8876C341.636 32.8876 339.656 32.9049 337.676 32.853C333.875 32.7666 330.056 32.9568 326.254 32.8012C323.924 32.7147 321.559 33.0432 319.229 32.9741C314.832 32.8357 310.434 32.9049 306.037 32.8703C301.728 32.8357 297.4 32.8703 293.091 32.8876C290.778 32.8876 288.466 32.8184 286.153 32.9049C284.366 32.9741 282.562 32.8184 280.775 33.0086C280.302 33.0605 279.864 32.6974 279.321 32.8357C278.883 32.9395 278.743 33.1297 278.743 33.5101C278.743 34.3919 278.743 35.2738 278.743 36.1556C278.743 37.5043 278.743 38.853 278.743 40.1844C278.743 43.487 278.69 46.7896 278.69 50.0922C278.69 53.5331 278.725 56.9741 278.725 60.415C278.725 62.7147 278.673 64.9971 278.673 67.2968C278.673 68.8703 278.725 70.4438 278.725 72.0173C278.725 74.2651 278.725 76.513 278.708 78.7608C278.69 79.7983 278.27 80.0922 277.201 79.9885C276.938 79.9539 276.658 79.9885 276.413 80.0231C275.151 80.2824 274.696 79.9885 274.713 78.7262C274.748 77.2565 274.836 75.7868 274.766 74.2997C274.678 72.3977 274.854 70.4957 274.748 68.5937C274.696 67.4006 274.748 66.1729 274.784 64.9453C274.854 63.0087 274.748 61.0548 274.696 59.1182C274.661 57.6138 274.801 56.0922 274.731 54.5879C274.643 52.4092 274.748 50.2133 274.661 48.0173C274.608 46.9971 274.661 45.9769 274.661 44.9914C274.713 43.6254 274.766 42.2421 274.748 40.8761C274.713 39.2334 274.678 37.5908 274.766 35.9481C274.819 35.049 274.573 34.1326 274.731 33.2161C274.766 33.0259 274.713 32.9741 274.486 32.9395C272.997 32.7493 271.49 32.9741 270.001 32.8876C269.861 32.8876 269.738 32.8876 269.598 32.8876C268.383 32.9452 267.776 32.3631 267.776 31.1412C267.776 30.4323 267.811 29.7233 267.776 29.0144C267.741 28.3574 268.039 28.1153 268.669 28.1153C270.053 28.1153 271.437 28.1153 273.435 28.1153L273.452 28.1672Z" fill="#E06765"/>
<path fill-rule="evenodd" clip-rule="evenodd" d="M340.479 70.7549C340.83 71.3428 341.075 71.948 341.11 72.5705C341.18 73.6079 341.811 74.4552 342.038 75.4408C342.231 76.2362 342.687 76.7376 343.44 77.0834C344.263 77.4638 345.069 77.3255 345.91 77.3082C347.504 77.2563 349.116 77.3947 350.693 77.2217C353.11 76.9624 355.581 77.4465 357.998 77.2217C359.189 77.1007 361.204 77.1526 362.413 76.7376C363.044 76.5128 362.641 75.6483 362.448 75.337C361.852 73.556 359.838 74.0748 358.857 74.4206C356.859 75.1295 354.95 75.4235 353.075 74.8529C351.446 74.3514 349.799 73.9019 348.135 73.5042C347.452 73.3313 346.646 73.3658 346.12 72.8817C345.385 72.2246 345.139 71.2563 344.964 70.3226C344.859 69.7347 344.684 69.5964 344.141 69.8212C342.967 70.288 341.776 70.6857 340.497 70.7895L340.479 70.7549Z" fill="white"/>
<path fill-rule="evenodd" clip-rule="evenodd" d="M303.847 50.5073L317.495 59.1356C317.495 59.1356 326.99 67.4526 327.988 70.392C328.987 73.3315 329.845 77.4295 327.655 78.2595C325.466 79.1067 317.389 79.3142 317.389 79.3142L305.371 78.3632L304.951 75.9425L305.266 70.8243L307.491 70.0635L313.553 70.8243L305.582 66.2941C305.582 66.2941 300.046 61.7984 300.256 57.6831C300.484 53.5678 303.83 50.5073 303.83 50.5073H303.847Z" fill="#FCF163"/>
<path fill-rule="evenodd" clip-rule="evenodd" d="M303.847 50.8533C303.847 50.8533 311.976 54.5363 315.182 57.1645C318.371 59.7927 324.274 65.2048 324.274 65.2048L327.673 64.7899L336.222 65.7063L337.816 70.4267C337.816 70.4267 339.095 71.3778 341.758 70.4267C344.421 69.4757 346.103 68.957 346.103 68.957L341.618 56.0233L337.606 52.5997C337.606 52.5997 330.494 48.5535 324.958 47.0319C319.422 45.5103 314.394 46.3057 311.853 47.0319C309.296 47.7582 303.83 50.8705 303.83 50.8705L303.847 50.8533Z" fill="#79CBE8"/>
<path fill-rule="evenodd" clip-rule="evenodd" d="M138.89 49.0548C138.89 49.0548 146.598 44.369 154.779 45.735C162.978 47.0837 174.908 55.0894 174.908 55.0894L181.023 68.369L172.771 70.9626L171.089 64.8762H167.148L159.965 64.4612L148.035 57.3027L138.907 49.0548H138.89Z" fill="#79CBE8"/>
<path fill-rule="evenodd" clip-rule="evenodd" d="M36.8948 18.2421L38.8219 28.1499L31.2362 30.8819L29.642 30.3113L28.731 33.9251L26.7339 37.0202L24.947 41.3084L7.46313 31.6772C7.46313 31.6772 11.6501 20.7493 18.2548 16.3055C24.8419 11.879 30.588 10.8242 30.588 10.8242L36.9124 18.2075L36.8948 18.2421Z" fill="#79CBE8"/>
<path opacity="0.8" fill-rule="evenodd" clip-rule="evenodd" d="M148.77 28.167C149.769 28.0806 151.398 28.0979 153.01 28.0979C154.569 28.0979 156.146 28.167 157.705 28.167C166.447 28.1843 175.189 28.2016 183.931 28.1843C193.566 28.1843 203.184 28.1497 212.819 28.1324C217.795 28.1324 222.787 28.1497 227.763 28.167C229.602 28.167 231.442 28.167 233.264 28.167C236.627 28.167 239.991 28.167 243.355 28.1497C243.968 28.1497 244.283 28.3399 244.266 29.0316C244.213 30.1036 244.231 31.193 244.266 32.265C244.266 32.8529 244.02 33.1641 243.477 33.0431C242.216 32.7664 240.92 33.095 239.641 32.7837C238.94 32.6281 238.187 33.0604 237.416 32.9566C237.311 32.9566 237.276 33.095 237.311 33.1987C237.556 34.2189 237.17 35.2391 237.276 36.2419C237.538 38.8875 237.1 41.5157 237.276 44.144C237.451 47.0662 237.416 49.9711 237.346 52.876C237.276 55.7636 237.468 58.6339 237.381 61.5215C237.328 63.0431 237.223 64.5647 237.363 66.1036C237.503 67.6598 237.241 69.2679 237.311 70.8414C237.381 72.3457 237.416 73.8673 237.363 75.3543C237.311 76.6339 237.556 77.9134 237.398 79.193C237.311 79.9019 236.68 80.2996 235.874 80.0921C235.471 79.9883 235.103 79.9711 234.7 80.0402C234.105 80.144 233.474 79.7809 233.456 79.1757C233.404 77.2909 233.404 75.3889 233.386 73.5042C233.386 72.2592 233.439 70.997 233.404 69.752C233.351 66.9336 233.281 64.0979 233.334 61.2794C233.404 58.0806 233.351 54.8817 233.404 51.6829C233.439 48.3803 233.421 45.0604 233.351 41.7578C233.316 40.2881 233.456 38.7837 233.351 37.314C233.281 36.1209 233.456 34.9451 233.386 33.7693C233.334 32.8875 233.071 32.6281 232.195 32.8529C231.424 33.0604 230.636 32.9566 229.865 32.9566C226.799 32.9566 223.734 32.801 220.668 32.8183C219.406 32.8183 218.127 32.9048 216.884 32.9048C215.359 32.9048 213.8 32.9739 212.276 32.801C211.313 32.6973 210.367 32.7664 209.403 32.8183C207.108 32.9394 204.813 32.8183 202.518 32.7837C200.416 32.7664 198.314 32.8529 196.211 32.9394C193.864 33.0258 191.516 32.8529 189.169 32.8356C186.558 32.8183 183.948 32.8875 181.338 32.8356C177.028 32.7664 172.701 32.7837 168.391 32.8702C166.131 32.9221 163.872 32.6973 161.612 32.8529C159.737 32.9912 157.863 32.7837 156.006 32.9566C155.55 33.0085 155.147 32.6627 154.639 32.7837C154.184 32.8875 154.008 33.0777 154.008 33.51C154.008 34.3572 154.008 35.2218 154.008 36.069C154.008 37.4177 154.008 38.7664 154.008 40.0979C154.008 43.4005 153.956 46.703 153.956 50.0056C153.956 53.4466 153.991 56.8875 153.991 60.3284C153.991 62.6281 153.956 64.9105 153.938 67.2102C153.938 68.8183 153.991 70.4091 153.991 72.0172C153.991 74.265 153.991 76.5128 153.956 78.7607C153.956 79.7636 153.5 80.0575 152.502 79.9538C152.204 79.9192 151.871 79.9365 151.556 80.0229C150.557 80.2823 150.032 79.8846 149.979 78.899C149.962 78.4322 150.014 77.9653 150.014 77.4811C150.014 75.8558 150.014 74.2304 150.014 72.6051C150.014 71.1872 149.962 69.7693 149.997 68.3688C150.067 65.3082 149.962 62.265 149.944 59.2045C149.944 57.6483 150.049 56.0748 149.997 54.5186C149.909 52.0287 149.909 49.5215 149.927 47.0143C149.927 44.9739 150.049 42.9336 150.032 40.8932C150.032 39.2506 149.944 37.6079 150.049 35.9653C150.119 35.0489 149.839 34.0979 150.014 33.1468C150.049 32.9394 149.927 32.9394 149.734 32.9221C147.842 32.7146 145.95 32.8183 144.075 33.0085C143.427 33.0777 143.007 32.9048 143.059 32.1094C143.112 31.0892 143.112 30.0517 143.059 29.0316C143.024 28.3399 143.322 28.0806 143.988 28.0806C145.372 28.0806 146.756 28.0806 148.753 28.0806L148.77 28.167Z" fill="#E06765"/>
<path fill-rule="evenodd" clip-rule="evenodd" d="M304.11 72.8818C304.215 72.1901 304.32 71.5331 304.425 70.8587C304.531 70.1844 305.126 69.7521 305.809 69.7694C307.228 69.7867 308.647 69.7694 310.102 69.6311C309.734 69.4236 309.401 69.1642 309.015 69.0259C307.737 68.5763 306.72 67.729 305.599 67.0201C304.688 66.4322 303.76 65.8616 303.076 65.0143C302.13 63.8385 300.887 62.974 300.116 61.5561C299.292 60.0345 299.257 58.5475 299.292 57.0259C299.327 55.4524 300.186 54.0345 300.974 52.7204C301.622 51.6311 302.463 50.5071 303.742 49.9365C304.145 49.7636 304.338 49.3832 304.653 49.1239C306.44 47.6714 308.577 46.9971 310.697 46.2881C312.256 45.7694 313.903 45.5792 315.55 45.4063C316.846 45.2852 318.143 45.1123 319.439 45.1296C321.086 45.1469 322.715 45.2679 324.309 45.7867C326.832 46.6167 329.355 47.4812 331.702 48.6916C332.981 49.3486 334.19 50.144 335.381 50.9394C335.784 51.2161 336.257 51.3544 336.678 51.5619C337.449 51.9596 337.992 52.6858 338.833 52.9798C339.971 53.3947 340.287 53.3429 341.092 52.4437C341.408 52.0979 341.723 51.7694 341.39 51.1469C341.04 50.4899 341.355 49.7809 341.881 49.193C343.142 47.7752 344.789 47.0835 346.611 46.6512C347.96 46.34 349.274 46.2535 350.623 46.5129C351.639 46.7031 352.199 47.412 352.707 48.1901C352.953 48.5705 352.655 48.9509 352.585 49.3141C352.392 50.559 351.429 51.2852 350.167 51.389C349.326 51.4581 348.503 51.6656 347.68 51.8386C346.874 52.0115 346.155 52.0806 345.507 51.4063C345.069 50.9567 343.895 51.3717 343.422 52.0979C343.16 52.4956 343.037 52.9798 342.511 53.2564C342.844 53.4639 343.125 53.6022 343.387 53.7752C344.193 54.2939 344.824 54.3976 345.612 53.5331C346.331 52.7723 347.469 52.6339 348.52 53.0489C349.326 53.3602 349.554 54.0518 349.642 54.8299C351.464 53.8097 353.321 55.193 353.443 56.6628C353.513 57.4927 353.864 58.2881 353.829 59.1354C353.829 59.5158 353.741 59.6887 353.373 59.7579C352.935 59.8443 352.602 59.5504 352.62 59.2391C352.672 58.219 352.164 57.3544 352.007 56.4034C351.867 55.5388 351.516 55.3832 350.763 55.902C350.167 56.3169 349.554 56.6109 348.766 56.4898C348.275 56.4207 348.1 56.2478 348.17 55.7982C348.31 55.1066 348.24 54.3458 347.522 54.121C346.769 53.8962 346.313 54.5878 345.893 55.1411C345.805 55.2449 345.77 55.3832 345.717 55.487C345.209 56.4553 345.227 56.3515 344.246 55.9192C343.405 55.5216 342.669 55.0201 341.881 54.5532C341.618 54.3976 341.303 54.2766 340.987 54.4668C340.987 54.8126 341.163 55.1066 341.373 55.3141C342.809 56.8184 343.44 58.7377 344.158 60.6051C344.333 61.0374 344.544 61.4524 344.736 61.8847C344.982 62.4553 345.735 62.4553 346.19 62.4898C347.084 62.5417 347.977 62.7319 348.958 62.3515C349.869 61.9884 350.57 61.487 351.236 60.8472C351.411 60.6916 351.551 60.4495 351.744 60.363C352.042 60.2247 352.41 60.1037 352.725 60.363C353.04 60.6397 352.795 60.9164 352.672 61.1584C352.199 62.1613 351.306 62.7665 350.377 63.2852C348.958 64.0633 347.417 63.8904 345.893 63.5965C345.717 63.5619 345.525 63.5965 345.314 63.5965C345.279 63.9596 345.507 64.2362 345.647 64.5302C346.208 65.7233 346.663 66.9509 346.786 68.2651C346.786 68.3342 346.856 68.438 346.821 68.4726C345.735 69.7694 347.031 70.7896 347.294 71.9135C347.347 72.1037 347.942 72.1728 348.293 72.2593C350.272 72.7262 352.269 73.0893 354.197 73.7118C354.897 73.9365 355.668 73.9365 356.281 74.3688C356.509 74.5244 356.684 74.3688 356.877 74.3169C358.173 73.0374 360.871 72.6051 362.571 73.2622C363.657 73.6945 363.569 74.7319 363.797 75.8213C363.92 76.4264 363.114 77.8443 362.448 77.9826C361.309 78.1901 360.819 78.2074 359.662 78.1901C358.471 78.1556 357.28 78.3285 356.106 78.2247C353.601 77.9826 351.148 78.657 348.678 78.5187C347.452 78.4495 346.278 78.6916 345.069 78.6397C343.755 78.5878 342.511 78.2593 341.443 77.4812C341.04 77.1873 340.865 76.7031 340.619 76.2708C339.691 74.7492 339.516 73.0028 338.92 71.3775C338.85 71.1873 338.762 71.0143 338.535 71.0316C337.098 71.1008 336.783 70.0288 336.467 68.9913C336.205 68.1094 335.977 67.2276 335.732 66.3458C335.662 66.0518 335.592 65.8789 335.206 65.9481C333.384 66.3112 331.58 66.1037 329.775 65.706C328.584 65.4293 327.375 65.2391 326.201 64.9625C325.851 64.876 325.571 64.9625 325.431 65.2045C325.29 65.4466 325.641 65.585 325.781 65.7406C327.655 67.7982 329.127 70.0633 329.828 72.7953C330.056 73.6945 330.301 74.559 330.266 75.4754C330.213 76.5475 329.898 77.6195 329.092 78.2939C328.041 79.1584 326.815 79.8674 325.343 79.8501C323.766 79.8501 322.19 79.7809 320.63 79.8501C316.619 80.0576 312.642 79.5561 308.647 79.3832C307.701 79.3486 306.738 79.4351 305.792 79.2103C305.389 79.1239 304.969 79.1239 304.688 78.6916C304.478 78.3803 304.093 78.5532 303.795 78.5705C301.745 78.7607 299.695 78.9509 297.646 79.2103C296.962 79.2968 296.279 79.4178 295.613 79.5388C294.597 79.7463 293.634 79.5388 292.67 79.2968C292.04 79.1411 291.847 78.363 292.337 77.6714C293.108 76.6166 293.879 75.5273 295.053 74.853C295.613 74.5244 295.929 73.9884 296.314 73.5216C297.173 72.5014 298.294 71.8962 299.415 71.3429C300.326 70.8933 301.36 71.0143 302.341 71.4293C302.533 71.5158 302.533 71.6368 302.621 71.7579C302.989 72.2939 303.427 72.7262 304.163 72.8299L304.11 72.8818ZM305.266 50.6282C305.582 50.7146 305.809 50.6973 305.915 50.8011C306.668 51.5792 307.701 51.8731 308.665 52.2535C309.331 52.5302 310.014 52.8069 310.54 53.2564C311.924 54.4495 313.483 55.3659 314.867 56.5417C316.408 57.8558 318.073 59.0143 319.474 60.4841C319.86 60.8818 320 61.3313 319.632 61.7463C319.246 62.1786 318.879 61.7118 318.511 61.5734C318.388 61.5216 318.3 61.4005 318.213 61.3141C317.53 60.7262 316.846 60.1383 316.198 59.5504C314.236 57.7694 312.029 56.3169 309.979 54.6397C309.313 54.0864 308.525 53.6368 307.772 53.3256C306.738 52.8933 305.757 52.34 304.793 51.804C304.128 51.4409 303.76 51.6656 303.514 52.1498C303.147 52.9106 302.568 53.5504 302.13 54.2766C301.184 55.8328 301.044 57.4581 301.114 59.1527C301.114 59.6541 301.272 60.2593 301.57 60.6051C302.201 61.2968 302.586 62.144 303.234 62.8357C303.987 63.6656 304.793 64.4783 305.617 65.2045C307.456 66.8299 309.646 68.0057 311.924 68.9913C312.589 69.2852 313.167 69.804 313.973 69.6311C314.078 69.6138 314.236 69.7175 314.306 69.8213C314.797 70.4783 315.585 70.6512 316.268 70.9452C316.636 71.1008 316.986 71.291 317.284 71.5331C317.407 71.6368 317.582 71.706 317.53 71.8962C317.477 72.0864 317.284 72.0518 317.127 72.0691C316.023 72.2074 315.024 71.9999 314.096 71.3775C313.588 71.0489 312.992 70.8069 312.379 70.8933C310.662 71.1354 308.945 71.1527 307.211 70.9625C306.58 70.8933 306.317 71.1527 306.177 71.7406C305.739 73.608 305.897 75.51 305.862 77.3947C305.862 77.8789 306.107 78.1037 306.58 78.121C309.488 78.2247 312.414 78.2593 315.322 78.5187C316.584 78.6397 317.81 78.3112 319.054 78.363C321.191 78.4322 323.328 78.4322 325.466 78.4668C326.885 78.5014 328.426 77.1873 328.409 75.8386C328.374 73.6253 327.831 71.5331 326.692 69.6311C325.396 67.4697 323.591 65.6887 321.944 63.804C321.664 63.4927 321.524 63.0777 321.156 62.8184C320.876 62.6109 320.473 62.3515 320.788 61.9365C321.086 61.5388 321.489 61.6599 321.874 61.8847C322.593 62.2996 323.206 62.853 323.766 63.4409C323.959 63.6483 324.152 63.8904 324.502 63.8213C326.289 63.4236 327.988 64.0633 329.67 64.4437C331.317 64.8069 332.946 64.8587 334.61 64.7896C335.066 64.7723 335.241 64.6339 335.013 64.1844C334.628 63.389 334.645 62.5071 334.558 61.6426C334.54 61.4178 334.435 61.1411 334.733 61.0201C335.048 60.8991 335.224 61.1584 335.381 61.3659C335.697 61.7636 335.889 62.2305 336.065 62.6973C336.678 64.34 336.94 66.121 337.869 67.6599C338.009 67.8847 338.114 68.1267 338.184 68.3688C338.465 69.5446 338.465 69.5792 339.638 69.5273C341.373 69.4581 342.967 68.7665 344.596 68.2651C344.912 68.1613 345.052 67.9538 344.894 67.6599C344.456 66.8991 344.333 66.0172 344.001 65.2045C343.387 63.7175 342.844 62.1959 342.319 60.6743C341.863 59.3083 341.11 58.0288 340.374 56.7665C339.673 55.5734 338.762 54.6397 337.484 53.9135C336.45 53.3256 335.451 52.5821 334.418 51.9769C333.051 51.1815 331.667 50.3861 330.248 49.6945C328.952 49.0547 327.585 48.536 326.306 47.8789C325.448 47.4466 324.432 47.4812 323.591 47.0662C322.295 46.461 320.911 46.4956 319.562 46.4092C317.74 46.2881 315.918 46.5475 314.113 46.7723C313.01 46.9106 311.976 47.3083 310.89 47.5331C310.207 47.6714 309.506 48.121 308.805 48.3803C307.509 48.8472 306.405 49.5734 305.249 50.5936L305.266 50.6282ZM340.479 70.7723C340.83 71.3602 341.075 71.9654 341.11 72.5878C341.18 73.6253 341.811 74.4726 342.038 75.4581C342.231 76.2535 342.687 76.755 343.44 77.1008C344.263 77.4812 345.069 77.3429 345.91 77.3256C347.504 77.2737 349.116 77.412 350.693 77.2391C353.11 76.9798 355.528 77.2737 357.946 77.0489C359.137 76.9279 360.889 77.17 362.08 76.755C362.868 76.3054 362.203 75.0086 362.01 74.6973C360.784 73.608 358.646 74.9048 357.665 75.2507C356.492 75.8213 354.932 75.4409 353.075 74.8703C351.446 74.3688 349.799 73.9192 348.135 73.5216C347.452 73.3486 346.646 73.3832 346.12 72.8991C345.385 72.242 345.139 71.2737 344.964 70.34C344.859 69.7521 344.684 69.6138 344.141 69.8386C342.967 70.3054 341.776 70.7031 340.497 70.8069L340.479 70.7723ZM301.29 77.6368C301.517 77.6022 301.885 77.5331 302.253 77.4985C304.233 77.3775 304.215 77.3775 304.058 75.4927C304.04 75.1988 304.11 74.8875 304.145 74.5763C304.215 74.144 304.022 73.9365 303.585 73.9711C302.621 74.0403 301.92 73.6772 301.465 72.8126C301.219 72.3458 300.501 72.242 300.151 72.536C299.24 73.2968 298.329 74.0576 297.4 74.8011C296.349 75.6483 295.368 76.5648 294.51 77.6195C294.387 77.7752 294.124 77.8962 294.229 78.1383C294.335 78.3976 294.597 78.2593 294.79 78.2939C295.351 78.4322 295.876 78.2074 296.402 78.1383C297.978 77.8962 299.538 77.4639 301.29 77.6368ZM343.002 50.3861C343.493 50.2996 343.983 50.2478 344.211 49.9365C344.859 49.0893 345.385 49.487 345.928 50.023C346.015 50.1094 346.12 50.2132 346.225 50.2824C346.418 50.438 346.593 50.7146 346.909 50.4899C347.171 50.2996 347.101 50.023 347.031 49.7636C346.961 49.487 346.593 49.193 347.031 48.9509C347.487 48.7089 347.697 49.1066 347.925 49.3832C348.03 49.5043 348.135 49.6253 348.188 49.7636C348.45 50.3688 348.748 50.7838 349.484 50.2305C349.712 50.0576 350.097 50.0922 350.43 50.1786C350.693 50.2478 350.903 50.1786 350.973 49.8847C351.236 48.9682 350.85 48.2593 349.957 47.7924C348.801 47.1873 347.715 47.6714 346.611 47.8962C346.173 47.9999 345.77 48.242 345.332 48.2939C344.281 48.4322 343.317 49.2276 343.02 50.3861H343.002Z" fill="#1E6E67"/>
<path opacity="0.8" fill-rule="evenodd" clip-rule="evenodd" d="M68.1484 29.1184C69.7602 29.0492 71.4069 29.0146 73.0012 29.0665C75.2961 29.1356 77.5736 29.1011 79.851 29.1184C84.5636 29.1529 89.2762 29.1184 93.9888 29.1184C95.0925 29.1184 95.2326 29.2913 95.3903 30.346C95.5129 31.2106 95.4604 32.0751 95.5479 32.9224C95.6355 33.7869 95.1275 33.7869 94.5318 33.7869C93.4457 33.7869 92.377 33.7869 91.2909 33.8388C89.8018 33.908 88.2951 33.7005 86.8235 33.7869C84.7914 33.8907 82.7416 33.8388 80.7095 33.8388C78.7824 33.8388 76.8553 34.0463 74.9282 33.7351C74.4727 33.6659 73.8771 33.7869 73.9297 34.5305C74.1048 37.1933 73.9297 39.8561 73.9822 42.5189C74.0348 44.7495 73.9472 46.98 73.9297 49.2106C73.9297 51.4065 73.9297 53.6198 73.9297 55.8331C73.9297 57.6659 73.9297 59.516 73.9297 61.3489C73.9297 63.6486 73.8771 65.931 73.8771 68.2307C73.8771 69.8388 73.9297 71.4296 73.9297 73.0377C73.9297 75.2855 73.9297 77.5333 73.8946 79.7812C73.8771 80.7841 73.4391 81.078 72.4406 80.9743C72.1427 80.9397 71.8274 80.9743 71.4945 81.0434C70.496 81.3028 69.9704 80.9051 69.9178 79.9022C69.9003 79.4354 69.9529 78.9685 69.9529 78.5016C69.9529 76.8763 69.9529 75.2509 69.9529 73.6256C69.9529 72.2077 69.9003 70.7898 69.9354 69.3892C70.0054 66.3287 69.8653 63.2855 69.9003 60.225C69.9003 58.738 69.9879 57.2509 69.9529 55.7639C69.8828 53.1529 69.8828 50.542 69.8653 47.9483C69.8653 45.908 70.0054 43.8676 69.9879 41.8273C69.9879 40.2192 69.9178 38.5939 70.023 36.9858C70.093 36.0521 69.7952 35.1184 70.0405 34.1673C70.093 33.9771 69.9704 33.908 69.7602 33.8907C67.8506 33.8215 65.9411 33.8215 64.0315 34.029C63.0855 34.1328 62.7176 33.7524 62.7176 32.8532C62.7176 32.2135 62.8577 31.591 62.4898 30.9512C62.192 30.4152 63.2432 29.1356 63.8913 29.1356C65.2929 29.1356 66.7119 29.1356 68.1134 29.1356L68.1484 29.1184Z" fill="#E06765"/>
<path fill-rule="evenodd" clip-rule="evenodd" d="M177.396 53.2565C177.834 53.4813 178.132 53.6369 178.43 53.7925C178.762 53.9654 179.148 54.3112 179.411 54.2248C179.814 54.121 180.182 53.7579 180.479 53.4294C181.338 52.5476 182.406 52.7723 183.405 52.9107C184.298 53.0317 184.474 53.8098 184.544 54.5879C184.544 54.6571 184.579 54.7435 184.579 54.8127C186.208 53.8963 187.872 54.8127 188.275 56.2824C188.521 57.1643 188.731 58.098 188.748 59.0663C188.748 59.5159 188.643 59.7233 188.205 59.7752C187.767 59.8098 187.487 59.4986 187.522 59.17C187.61 58.098 186.996 57.1989 186.874 56.1787C186.786 55.5562 186.331 55.4352 185.735 55.8847C184.982 56.4553 184.176 56.611 183.265 56.4726C182.879 56.4208 182.722 56.317 182.879 55.9193C182.95 55.781 182.967 55.6081 182.985 55.4525C183.072 54.8818 182.844 54.2939 182.389 54.121C181.863 53.9308 181.303 54.3631 181.128 54.8646C180.935 55.3833 180.462 55.6427 180.234 56.1095C180.059 56.4553 179.691 56.2651 179.393 56.1095C178.535 55.6081 177.624 55.1931 176.835 54.5879C176.608 54.415 176.275 54.2594 175.889 54.4669C175.854 54.7954 176.047 55.0893 176.275 55.3141C177.694 56.8184 178.342 58.7378 179.06 60.6052C179.236 61.0375 179.428 61.487 179.638 61.8847C179.936 62.4553 180.707 62.3343 181.25 62.5245C181.373 62.5591 181.636 62.5245 181.828 62.5591C183.107 62.732 184.158 62.317 185.122 61.4525C185.682 60.951 186.12 60.2075 187.066 60.2248C187.522 60.2248 187.715 60.415 187.907 60.7954C188.118 61.2104 187.785 61.2795 187.557 61.4352C187.049 61.8156 186.664 62.317 186.12 62.6974C185.052 63.4409 184.001 63.9251 182.634 63.7695C181.846 63.683 181.04 63.6657 180.217 63.5274C180.164 63.9078 180.374 64.1671 180.497 64.4265C181.11 65.6369 181.53 66.8818 181.688 68.2305C181.688 68.2997 181.758 68.4035 181.741 68.438C180.655 69.7349 181.968 70.7378 182.179 71.879C182.179 71.9481 182.441 72 182.599 72.0346C184.771 72.5706 186.961 73.0893 189.116 73.6945C189.817 73.8847 190.57 73.9366 191.201 74.3343C191.429 74.4899 191.604 74.3343 191.797 74.2997C193.478 73.8329 195.143 73.6254 196.842 74.2997C197.928 74.732 198.611 75.4582 198.909 76.5476C199.084 77.2392 198.419 77.9136 197.56 77.9481C195.896 78.0173 194.232 77.9827 192.585 78.0173C191.131 78.0519 189.677 77.7925 188.24 78.0865C186.488 78.4669 184.719 78.536 182.914 78.4496C182.021 78.3977 181.145 78.6052 180.234 78.6225C178.815 78.6398 177.519 78.2939 176.362 77.4986C175.924 77.1873 175.767 76.6686 175.504 76.219C174.593 74.7147 174.418 72.9856 173.822 71.3948C173.735 71.17 173.629 71.0144 173.384 71.0144C172.018 71.0663 171.702 70.0807 171.387 69.0778C171.124 68.1787 170.861 67.2623 170.634 66.3631C170.546 66.0173 170.459 65.879 170.038 65.9654C168.269 66.3112 166.499 66.1038 164.747 65.7406C163.521 65.4986 162.312 65.2565 161.103 64.9625C160.771 64.8761 160.49 64.9452 160.333 65.1873C160.175 65.4467 160.508 65.5677 160.648 65.7233C162.54 67.781 164.029 70.0461 164.712 72.7954C164.905 73.5562 165.15 74.2824 165.185 75.0778C165.238 76.2709 164.765 77.2738 164.134 78.2075C163.433 79.245 162.365 79.8329 161.174 79.9712C159.457 80.1787 157.722 80.5591 155.988 80.0404C155.708 79.9712 155.462 79.9885 155.41 79.6599C155.357 79.2968 155.655 79.1931 155.883 79.1412C156.233 79.072 156.619 79.0548 156.987 79.0893C158.125 79.1585 159.299 79.1758 160.403 78.8646C161.384 78.5879 162.277 78.1383 162.803 76.9971C163.749 74.9568 163.048 73.1758 162.4 71.3257C161.752 69.4582 160.438 68.0231 159.194 66.5533C158.09 65.2565 156.934 64.0115 155.83 62.6974C155.673 62.5072 155.515 62.2997 155.725 62.0576C155.918 61.8329 156.181 61.7118 156.514 61.8329C157.144 62.0749 157.74 62.4553 158.125 62.9741C158.756 63.8213 159.562 63.9769 160.525 63.8559C161.506 63.7522 162.417 64.1153 163.363 64.3055C165.448 64.7205 167.533 65.1354 169.688 64.8588C170.161 64.8069 170.108 64.5994 169.968 64.2882C169.618 63.4928 169.583 62.6628 169.53 61.8156C169.53 61.5562 169.337 61.1931 169.758 61.0893C170.108 60.9856 170.266 61.3141 170.424 61.5389C171.002 62.3516 171.299 63.3026 171.51 64.2363C171.808 65.6023 172.421 66.8127 172.999 68.0403C173.034 68.1095 173.104 68.1787 173.104 68.2478C173.174 68.7666 173.174 69.4755 173.612 69.6484C173.962 69.804 174.575 69.6484 175.066 69.5793C176.608 69.3372 178.079 68.8357 179.551 68.3343C179.849 68.2306 180.006 68.0749 179.884 67.7464C179.095 65.6542 178.342 63.5793 177.536 61.5043C177.133 60.4496 176.695 59.3948 176.187 58.3746C175.627 57.268 175.101 56.1095 174.225 55.2104C173.77 54.7435 173.209 54.3977 172.631 54.0692C171.737 53.5677 170.861 53.0317 170.021 52.4438C169.302 51.9251 168.514 51.562 167.796 51.0951C166.587 50.317 165.308 49.5908 163.959 49.1066C162.593 48.6225 161.419 47.7579 159.947 47.5159C158.616 47.2911 157.372 46.6167 155.97 46.5994C155.743 46.5994 155.515 46.4784 155.305 46.3919C155.042 46.2709 154.762 46.1153 154.797 45.7695C154.849 45.3718 155.2 45.3891 155.48 45.3545C156.759 45.1988 157.985 45.4409 159.211 45.8213C161.804 46.634 164.344 47.5331 166.762 48.7781C168.006 49.4352 169.197 50.2133 170.371 50.9914C170.774 51.268 171.247 51.4063 171.667 51.6138C172.596 52.0807 173.227 52.9452 174.26 53.2219C174.768 53.3602 175.154 53.4294 175.381 52.9107C175.592 52.4784 176.135 52.513 176.362 52.098C176.538 51.7695 176.608 51.5965 176.31 51.3026C175.802 50.8012 175.854 50.1268 176.345 49.6599C176.748 49.2795 177.203 48.951 177.571 48.5533C178.482 47.585 179.709 47.2219 180.917 46.8588C182.459 46.3919 184.018 46.2017 185.63 46.5476C186.628 46.7723 187.294 47.4294 187.662 48.2594C187.872 48.7435 187.662 49.4006 187.399 49.902C186.944 50.7839 186.453 51.5447 185.174 51.4409C184.386 51.3718 183.598 51.6484 182.827 52.0461C182.196 52.3746 181.373 52.1844 180.795 51.7349C179.936 51.0951 178.99 51.2161 178.377 52.1499C178.132 52.5303 178.027 53.0144 177.414 53.2738L177.396 53.2565ZM175.469 70.7723C175.416 71.049 175.732 71.0663 175.767 71.3084C176.012 72.7954 176.538 74.2133 177.028 75.6311C177.238 76.2536 177.606 76.7723 178.272 77.049C179.025 77.3602 179.761 77.4294 180.567 77.3429C182.494 77.1527 184.439 77.4813 186.383 77.049C187.995 76.6859 189.677 76.6513 191.341 76.8415C192.235 76.9452 193.128 76.5994 194.039 76.7032C194.81 76.7723 195.563 76.8242 196.351 76.7378C197.122 76.6513 196.982 76.3919 196.684 75.9597C196.229 75.2853 194.81 74.8876 193.776 75.2334C191.832 75.8732 189.94 75.4409 188.118 74.8876C186.436 74.3689 184.736 73.902 183.02 73.5043C182.354 73.3487 181.583 73.366 181.075 72.8991C180.339 72.2248 180.094 71.2738 179.919 70.3401C179.814 69.7522 179.638 69.5965 179.095 69.8213C177.922 70.2882 176.73 70.6859 175.469 70.7896V70.7723ZM178.027 50.4035C178.605 50.2651 179.148 50.1095 179.551 49.6427C179.831 49.3314 180.111 49.2795 180.514 49.5389C180.847 49.7464 181.198 49.8847 181.338 50.2997C181.39 50.4726 181.548 50.5591 181.723 50.4899C181.898 50.438 181.933 50.2478 181.951 50.1095C181.951 49.9539 181.898 49.7983 181.828 49.6599C181.706 49.3833 181.671 49.1239 181.968 48.9856C182.266 48.83 182.494 48.951 182.722 49.2104C182.967 49.5043 183.177 49.7983 183.335 50.1268C183.51 50.4726 183.79 50.6974 184.158 50.4208C184.544 50.1441 184.929 50.1095 185.367 50.196C185.682 50.2651 185.875 50.1787 185.945 49.8501C186.226 48.415 184.754 47.2392 183.265 47.5331C182.109 47.7579 181.022 48.2594 179.849 48.3631C179.148 48.4323 178.114 49.6427 178.044 50.4208L178.027 50.4035Z" fill="#1E6E67"/>
<path fill-rule="evenodd" clip-rule="evenodd" d="M139.643 49.4354C140.974 50.0752 141.99 50.8533 142.884 51.6833C143.97 52.6689 145.266 53.3778 146.283 54.4498C146.983 55.1934 147.964 55.6429 148.507 56.5766C148.875 57.1991 148.63 57.3029 148.034 57.3029C147.264 57.3029 146.545 57.0089 146.09 56.5075C144.723 54.9859 143.059 53.8447 141.482 52.5824C141.062 52.2539 140.659 51.9081 140.291 51.5276C139.38 50.5766 138.855 50.6285 138.136 51.7351C137.681 52.3922 137.015 52.8764 136.525 53.4988C135.719 54.5017 134.773 55.3663 133.984 56.3519C132.968 57.6141 132.548 59.1876 131.637 60.519C131.374 60.9167 131.199 61.5565 131.129 62.0752C130.971 63.0608 130.305 63.787 129.955 64.6689C129.657 65.3951 129.552 66.2078 128.974 66.8302C128.536 67.3317 128.221 67.9542 127.783 68.4556C127.415 68.9052 126.907 69.0608 126.294 69.1991C124.366 69.6141 122.404 69.8216 120.53 70.4095C119.777 70.6516 118.953 70.5478 118.182 70.6862C117.114 70.8591 116.062 71.0666 114.994 71.2222C114.328 71.3259 113.645 71.3951 112.979 71.4124C111.981 71.4124 111.455 72.0349 111.595 73.055C111.823 74.7323 111.7 76.4268 111.718 78.104C111.718 78.5882 111.77 78.7438 112.348 78.7784C115.327 78.9513 118.305 78.7784 121.301 78.7784C123.753 78.7957 126.206 78.8475 128.659 78.7784C129.955 78.7265 131.374 78.7265 132.46 78.1905C133.792 77.5334 135.316 77.2222 136.384 75.9253C136.91 75.2683 137.488 74.5766 138.154 73.9715C138.802 73.4008 138.96 72.4325 139.643 71.8447C140.554 71.0493 140.922 69.8735 141.693 68.9743C142.236 68.3346 142.201 67.7813 141.623 67.1934C140.694 66.2251 139.625 65.3951 138.732 64.4095C137.961 63.5449 137.243 62.5766 136.84 61.4354C136.717 61.1069 136.647 60.7092 136.998 60.5017C137.313 60.3115 137.681 60.3634 138.014 60.6055C138.399 60.8994 138.627 61.2798 138.89 61.6775C139.59 62.7841 140.116 64.0118 141.342 64.7553C141.92 65.1184 142.358 65.7409 142.796 66.2769C143.392 67.0204 144.268 67.4354 144.864 68.1789C145.214 68.6285 145.81 68.9225 146.3 69.1818C147.036 69.5622 147.544 70.2366 148.315 70.5651C148.648 70.7034 148.805 71.1876 148.7 71.5334C148.578 71.9311 148.122 71.8447 147.789 71.8101C146.861 71.7063 146.283 70.9801 145.617 70.4614C145.021 69.9945 144.285 69.8043 143.707 69.3547C143.48 69.1818 143.48 69.3547 143.392 69.4931C142.358 70.9801 141.412 72.5363 140.239 73.9196C138.767 75.6487 137.471 77.5161 135.193 78.4671C133.809 79.055 132.39 79.4527 130.989 79.9196C130.218 80.1789 129.394 80.006 128.606 80.006C123.088 80.0406 117.587 80.006 112.068 80.0406C110.929 80.0406 109.931 79.5392 108.792 79.5738C106.532 79.6429 104.272 79.5738 101.995 79.5565C100.436 79.5565 98.8765 79.5565 97.3173 79.5565C96.1085 79.5565 95.618 78.9859 95.7056 77.7928C95.7056 77.5853 95.7932 77.4815 95.9859 77.3605C97.1947 76.6516 98.4385 76.0118 99.6298 75.2856C100.716 74.6112 101.995 74.0752 102.766 72.934C103.204 72.2942 103.922 71.8619 104.588 71.568C105.464 71.1703 106.515 71.0493 107.321 71.9657C107.618 72.2942 108.021 72.5363 108.442 72.7092C108.792 72.8475 109.108 72.6746 109.458 72.64C110.054 72.5882 109.808 72.1732 109.878 71.8792C110.054 70.9628 110.807 70.3749 112.173 70.202C113.732 69.9945 115.292 69.8562 116.833 69.6141C119.391 69.2164 121.931 68.7495 124.472 68.2308C125.032 68.1098 125.593 68.1271 126.136 67.7985C127.169 67.1415 127.415 66.0349 127.94 65.0838C128.448 64.1674 128.781 63.1472 129.097 62.1962C129.447 61.1242 130.235 60.2596 130.393 59.1011C130.481 58.496 130.936 57.8216 131.339 57.3893C132.04 56.6285 132.18 55.5565 133.038 54.8994C134.107 54.0867 134.755 52.8591 135.771 51.9599C136.507 51.3029 137.033 50.4383 137.873 49.8504C137.909 49.8158 137.979 49.7813 137.979 49.7467C137.716 48.0521 139.38 48.1732 140.204 47.7063C141.272 47.0838 142.481 46.5478 143.742 46.2885C144.811 46.0637 145.862 45.8043 146.913 45.5968C147.316 45.5277 147.421 45.8735 147.526 46.1847C147.649 46.5824 147.369 46.6689 147.106 46.7034C146.055 46.8764 145.109 47.3778 144.093 47.6026C142.569 47.9311 141.342 48.8994 139.695 49.4354H139.643ZM97.5275 78.1213C97.5275 78.1213 97.5626 78.2423 97.5801 78.2942C99.0342 78.2942 100.488 78.2942 101.96 78.2942C104.43 78.2942 106.9 78.2942 109.37 78.3634C109.896 78.3634 110.071 78.2942 109.948 77.7755C109.721 76.8072 109.773 75.8389 109.913 74.8879C110.054 74.006 110.018 73.9369 109.108 73.9887C108.179 74.0406 107.286 74.006 106.585 73.2106C106.147 72.7092 105.394 72.7784 104.956 73.2106C103.659 74.5421 102.012 75.3893 100.471 76.3749C99.5072 76.9801 98.5086 77.5334 97.5275 78.104V78.1213Z" fill="#1E6E67"/>
<path fill-rule="evenodd" clip-rule="evenodd" d="M143.655 79.9884C142.604 79.902 141.272 80.1613 139.958 79.8674C139.555 79.7809 139.152 79.6426 138.749 79.4697C138.241 79.2622 138.101 78.8126 138.154 78.2939C138.189 77.8097 138.487 77.4985 138.925 77.291C140.291 76.6685 141.693 76.1671 143.147 75.804C143.935 75.6138 144.583 74.8703 145.249 74.3342C145.95 73.7809 147.579 73.608 148.35 74.0576C148.648 74.2305 148.893 74.4726 148.788 74.8184C148.7 75.1815 148.35 75.1642 148.069 75.095C146.633 74.7146 145.897 75.925 144.899 76.461C143.935 76.9798 142.954 77.4293 141.868 77.6023C141.272 77.6887 140.747 77.8962 140.239 78.2074C140.116 78.2766 139.993 78.3285 140.011 78.5014C140.046 78.7089 140.203 78.7262 140.361 78.7089C141.535 78.6397 142.709 78.8818 143.9 78.7435C144.951 78.6224 146.002 78.9337 147.071 78.7435C147.491 78.6743 147.964 78.9855 147.929 79.487C147.894 79.9884 147.439 79.9884 147.018 79.9711C145.985 79.9538 144.951 79.9711 143.62 79.9711L143.655 79.9884Z" fill="#1E6E67"/>
<path fill-rule="evenodd" clip-rule="evenodd" d="M189.116 60.9855C189.116 60.9855 188.713 61.0892 188.538 60.7953C188.363 60.5013 188.591 60.2419 188.766 60.0172C189.957 58.582 190.29 57.0604 189.624 55.2448C189.396 54.6569 189.326 53.9653 189.064 53.3428C188.853 52.8068 188.608 52.3572 188.17 51.9941C187.89 51.752 187.715 51.4754 187.785 51.095C187.855 50.6627 188.048 50.4206 188.538 50.6281C189.659 51.1123 190.5 51.8212 190.833 53.0489C191.026 53.7924 191.464 54.5013 191.586 55.2448C191.744 56.2477 192.024 57.216 191.674 58.2881C191.359 59.2909 191.026 60.1555 190.115 60.778C189.852 60.9509 189.642 61.0546 189.116 60.9855Z" fill="#1E6E67"/>
<path fill-rule="evenodd" clip-rule="evenodd" d="M356.597 56.5073C356.509 58.0635 356.124 59.6197 354.477 60.5361C354.232 60.6745 353.934 61.003 353.654 60.6572C353.408 60.3632 353.671 60.1212 353.864 59.8964C354.985 58.6687 355.213 57.199 354.862 55.6946C354.529 54.2768 354.249 52.7897 353.005 51.7523C352.672 51.4756 352.69 51.0261 352.97 50.6802C353.286 50.2825 353.618 50.5938 353.881 50.7667C355.23 51.5967 355.843 52.9108 356.281 54.3459C356.474 55.003 356.579 55.6774 356.597 56.49V56.5073Z" fill="#1E6E67"/>
<path fill-rule="evenodd" clip-rule="evenodd" d="M346.769 59.6368C347.522 59.5504 347.855 60.1729 348.345 60.536C348.503 60.6397 348.38 60.7608 348.345 60.8645C348.293 61.072 348.117 61.072 347.977 61.0374C347.294 60.8472 346.821 60.2766 346.155 60.0518C346.12 60.0518 346.103 59.8443 346.155 59.7752C346.313 59.5331 346.576 59.6541 346.804 59.6368H346.769Z" fill="#1E6E67"/>
<path fill-rule="evenodd" clip-rule="evenodd" d="M181.811 60.0002C182.284 60.1385 182.774 60.1731 183.142 60.5189C183.3 60.6746 183.335 60.8302 183.23 61.0031C183.107 61.1933 182.932 61.2279 182.757 61.1068C182.371 60.8648 181.933 60.7437 181.513 60.6227C181.32 60.5708 181.057 60.6227 181.057 60.3114C181.057 59.9656 181.373 60.1385 181.548 60.0694C181.636 60.0348 181.741 60.0175 181.828 59.9829L181.811 60.0002Z" fill="#1E6E67"/>
<path fill-rule="evenodd" clip-rule="evenodd" d="M349.799 59.7927C349.502 59.7409 349.239 59.6025 349.291 59.2913C349.361 58.8417 349.642 58.5478 350.115 58.4786C350.465 58.444 350.745 58.6688 350.658 58.9801C350.553 59.3777 350.255 59.7063 349.799 59.7927Z" fill="#1E6E67"/>
<path fill-rule="evenodd" clip-rule="evenodd" d="M185.84 58.8241C185.753 59.3774 185.315 59.5157 184.894 59.6195C184.666 59.6713 184.421 59.533 184.439 59.3082C184.491 58.8587 184.771 58.5647 185.244 58.4955C185.525 58.461 185.77 58.4955 185.84 58.8241Z" fill="#1E6E67"/>
<path fill-rule="evenodd" clip-rule="evenodd" d="M49.4383 81.1989C49.5083 80.7667 49.5784 80.3517 49.6485 79.9194C49.6485 79.8157 49.5609 79.7465 49.4733 79.7119C49.4733 79.6773 49.4733 79.66 49.4383 79.6427C49.4383 79.5563 49.4032 79.5044 49.3507 79.4525C49.3507 79.2623 49.3507 79.0894 49.3507 78.8992C49.4908 78.6572 49.7886 78.4324 49.4908 78.1211L49.4383 78.0001C49.2981 77.7407 49.4383 77.5159 49.4908 77.2739C49.3682 77.0145 49.3331 76.7551 49.3857 76.4785C49.5784 76.392 49.5434 76.3056 49.3857 76.2191C49.3682 76.1327 49.3507 76.0635 49.3156 75.9943C49.4207 75.6485 49.2631 75.32 49.3156 74.9742C49.4207 74.7148 49.2806 74.4035 49.4733 74.1615C49.4733 73.9367 49.631 73.6773 49.3857 73.4871C49.3682 73.1067 49.3507 72.7263 49.3331 72.3459C49.4207 72.1038 49.6835 71.8791 49.2981 71.6543C49.2981 71.637 49.2981 71.6197 49.2631 71.6024C49.2981 71.2047 49.3156 70.807 49.3507 70.4093C49.3507 70.3574 49.3507 70.2883 49.3507 70.2364C49.3507 70.0808 49.3857 69.9425 49.3857 69.7868C49.5784 69.735 49.5434 69.5621 49.5258 69.441C49.4558 68.9569 49.3156 68.49 49.5258 68.0059C49.5784 67.8675 49.4733 67.7465 49.3507 67.66C49.3507 67.5736 49.3156 67.4871 49.2981 67.3834C49.2806 67.2623 49.2631 67.124 49.228 67.003C49.2981 66.7609 49.6485 66.6053 49.4733 66.294C49.4733 65.6889 49.4733 65.0664 49.4733 64.4612C49.5258 64.2537 49.5784 64.0289 49.4733 63.8214C49.4733 63.32 49.5609 62.8358 49.4733 62.3344V62.2479C49.4207 61.7638 49.6485 61.2451 49.3507 60.7955C49.3507 60.6744 49.3507 60.5534 49.3507 60.4151C49.4032 60.0001 49.3507 59.5678 49.4733 59.1528C49.5784 59.0318 49.5258 58.9108 49.5083 58.7897C49.5083 58.6687 49.4908 58.5476 49.4733 58.4266C49.4032 57.4237 49.3682 56.4036 49.5959 55.418C49.6835 55.0548 49.6835 54.7436 49.4908 54.4151L49.4383 54.294C49.4032 54.1384 49.3682 53.9828 49.3507 53.8445C49.3507 53.7753 49.3507 53.7234 49.3331 53.6543C49.1229 53.1874 49.3682 52.8762 49.7536 52.7033C50.0865 52.5476 50.4543 52.4785 50.7522 52.8416L50.8573 52.9281C50.9274 53.0664 51.0325 53.1701 51.1025 53.3257C51.2777 53.7407 51.3478 54.1557 51.4004 54.588C51.6632 55.124 51.4704 55.6946 51.558 56.2306V56.4381C51.5055 56.5592 51.523 56.6802 51.558 56.784V57.441C51.4354 57.856 51.5405 58.2883 51.558 58.7033C51.558 59.7753 51.523 60.8474 51.5055 61.9194C51.5055 62.8185 51.4354 63.735 51.4529 64.6341C51.488 65.6024 51.558 66.5707 51.3828 67.5217C51.3303 67.8502 51.5405 67.9367 51.7507 68.0577V69.3373C51.558 69.3891 51.5931 69.5621 51.6106 69.6831C51.7157 70.6168 51.5055 71.5505 51.6106 72.5015C51.6631 72.8992 51.7157 73.3142 51.488 73.6946C51.4179 73.7984 51.3828 74.0059 51.4354 74.0923C51.6456 74.369 51.5405 74.6283 51.523 74.9396C51.488 75.4064 51.488 75.8733 51.4704 76.3574C51.4704 76.7724 51.6456 77.2393 51.5756 77.5678C51.4354 78.294 51.6281 79.003 51.5405 79.7119C51.5405 79.7638 51.5405 79.8329 51.5405 79.8848V80.3517C51.5055 80.5246 51.3303 80.6802 51.4179 80.8877C51.4004 80.9742 51.4179 81.026 51.5055 81.0606V81.2508C51.523 81.4756 51.5055 81.6831 51.5055 81.9079C51.5055 82.1154 51.488 82.3402 51.4704 82.5476C51.3303 82.7378 51.3478 82.9108 51.488 83.0837C51.488 84.2249 51.6281 84.0693 50.4719 84.0693C50.2967 84.0693 50.1215 84.0347 49.9638 84.0693C49.5784 84.1211 49.4383 83.9482 49.4558 83.5851C49.2981 82.8243 49.3331 82.0462 49.3857 81.2854L49.4383 81.1989Z" fill="#1E6E67"/>
<path fill-rule="evenodd" clip-rule="evenodd" d="M4.87024 62.1961C4.62498 61.1759 5.37829 60.2595 6.32431 60.052C6.81484 59.9482 7.18273 59.5678 7.44552 59.1528C7.72582 58.7378 8.11123 58.4612 8.51417 58.2191C8.98718 57.9425 9.33756 57.5448 9.74049 57.2162C10.4938 56.6283 11.142 55.9021 11.9829 55.4525C12.3158 55.2623 12.5085 55.0203 12.526 54.6226C12.526 54.2767 12.7537 53.9482 12.8939 53.6716C13.0516 53.3257 12.999 53.0491 13.034 52.7378C13.0866 52.1845 13.2968 51.6485 13.4895 51.1298C13.7523 50.369 13.4895 49.4007 12.8764 48.9165C12.8413 48.8992 12.7713 48.8646 12.7713 48.8646C12.9815 48.1557 12.2457 47.9655 11.9479 47.5851C11.615 47.1182 11.2822 46.6514 11.0018 46.1672C10.7916 45.8214 10.5113 45.5102 10.231 45.1989C9.72297 44.6283 9.285 44.0059 9.05725 43.3142C8.89958 42.8301 8.60176 42.4151 8.44409 41.9309C8.40906 41.8272 8.32146 41.7926 8.2689 41.7407C8.09372 41.4986 7.95357 41.2739 8.04116 40.928C8.12875 40.5995 8.00612 40.2364 7.7083 39.9943C7.428 39.7523 7.35792 39.4756 7.51559 39.1471C7.55063 39.0779 7.62071 39.0087 7.56815 38.9396C7.27033 38.5938 7.37544 38.1269 7.13018 37.7638C7.11266 37.7292 7.04258 37.6773 7.0601 37.66C7.28785 37.2278 7.0601 36.8474 7.00755 36.4497C6.97251 36.1557 7.00755 35.7753 6.97251 35.4641C6.91995 34.7206 7.02506 34.0116 7.11266 33.2854C7.18273 32.7494 7.27033 32.1269 6.55206 31.8157C6.39439 31.7465 6.30679 31.539 6.27175 31.3488C6.27175 31.245 6.2192 31.1759 6.09656 31.245C6.09656 30.6917 6.07905 30.1211 6.27175 29.5678C6.37687 29.2739 6.44694 28.9453 6.83236 28.8589C7.11266 28.7897 7.09514 28.5649 7.04258 28.392C6.93747 27.9943 7.02506 27.7177 7.41048 27.5448C7.55063 27.4929 7.62071 27.3546 7.63823 27.2162C7.67326 26.8877 7.90101 26.6283 7.9886 26.3344C8.21635 25.5909 8.67184 25.0721 9.32004 24.6744C9.37259 24.6399 9.44267 24.5534 9.44267 24.5015C9.30252 23.8099 9.86312 23.5159 10.231 23.1182C10.9493 22.3574 11.5625 21.5102 12.2107 20.6975C12.7187 20.0577 13.3319 19.4698 14.0326 18.9857C14.3655 18.7436 14.7334 18.5534 14.7158 18.0693C14.7158 18.0001 14.821 17.9309 14.891 17.8618C15.364 17.4468 15.8195 16.9972 16.3451 16.6514C17.659 15.7523 18.8853 14.7494 20.2518 13.9367C20.5496 13.7638 20.8825 13.6255 21.1978 13.4698C22.1439 12.9857 23.0548 12.3978 24.0534 12.052C25.2797 11.637 26.506 11.222 27.7849 10.9799C28.2755 10.8762 28.766 10.807 29.239 10.7033C29.9748 10.5476 30.6755 10.8243 31.3763 10.8589C31.569 10.8589 31.7792 10.9626 31.7967 11.1528C31.8668 11.6543 32.2873 11.9482 32.5501 12.294C32.953 12.8301 33.3034 13.4352 33.7764 13.9367C34.0742 14.2652 34.0742 14.611 33.7939 14.6975C33.5837 14.7667 33.3384 14.8185 33.1457 14.784C32.1822 14.5765 31.3588 14.1442 31.0084 13.1413C30.8682 12.7263 30.4653 12.5361 30.2901 12.1557C30.2376 12.0347 30.0799 12.0693 29.9397 12.0865C28.7485 12.1903 27.6448 12.6053 26.5236 12.9857C25.3673 13.3834 24.3337 14.0231 23.1249 14.2825C22.7745 14.369 22.4592 14.6456 22.1263 14.8531C20.9 15.6312 19.6562 16.3747 18.4649 17.2047C17.8692 17.6197 17.3787 18.1557 16.8532 18.6572C16.1874 19.3142 15.5568 19.9886 14.9086 20.6456C14.5056 21.0779 14.1202 21.5275 13.6122 21.856C13.5946 21.856 13.5596 21.8906 13.5596 21.9252C13.3143 22.7897 12.526 23.3084 12.1406 24.0865C11.8603 24.6572 11.2296 24.9857 11.0018 25.6082C10.8442 26.0404 10.6164 26.4208 10.1609 26.6283C10.1084 26.6456 10.0558 26.7148 10.0558 26.7667C9.91568 27.4756 9.39011 27.977 9.07477 28.5995C9.02222 28.7033 8.95214 28.8243 8.95214 28.9453C8.95214 29.2566 8.98718 29.5332 8.67184 29.7926C8.49665 29.9482 8.51417 30.3805 8.53169 30.6917C8.53169 30.9165 8.82951 30.9684 9.02222 31.0548C9.75801 31.3661 10.3186 31.9194 10.9318 32.3863C11.4573 32.8012 12.0355 33.0433 12.6136 33.32C13.0165 33.5102 13.437 33.6485 13.7523 33.977C14.0501 34.2883 14.5231 34.2537 14.891 34.4439C15.5042 34.7724 16.0122 35.2566 16.678 35.5159C17.4838 35.8272 18.1846 36.3805 18.9905 36.709C19.1306 36.7609 19.2708 36.8646 19.3408 37.003C19.6387 37.5736 20.1817 37.7119 20.7423 37.8329C21.1628 37.9194 21.5307 38.1096 21.8635 38.369C22.5117 38.8531 23.2651 39.0779 24.0184 39.3373C24.2286 39.4064 24.2812 39.3373 24.3863 39.1644C24.8067 38.4727 24.649 37.66 24.8593 36.9338C24.9118 36.7436 24.9118 36.5707 25.087 36.4151C25.2272 36.2767 25.5075 36.0865 25.2272 35.8099C25.2097 35.7926 25.1921 35.7061 25.2097 35.6888C25.6301 35.3603 25.6126 34.7724 26.1206 34.4266C26.6287 34.0981 26.9966 33.5793 27.2944 32.9914C27.6448 32.2998 27.6798 31.4525 28.3105 30.8819C28.3981 30.7955 28.4857 30.6917 28.4156 30.5188C27.9776 29.6197 27.7324 28.6514 27.4521 27.7004C27.3995 27.5448 27.3995 27.3718 27.2243 27.2681C27.1893 27.2508 27.1367 27.1298 27.1542 27.1298C27.4696 26.8012 27.1192 26.5073 27.0842 26.2133C27.0842 26.1269 27.0141 26.0231 27.0316 25.954C27.2068 25.1067 27.0316 24.2422 26.8389 23.4468C26.5411 22.2883 26.6112 21.1125 26.4185 19.954C26.3484 19.539 26.1206 19.0894 26.3309 18.6226C26.5586 18.0865 26.9966 17.9828 27.3995 18.4324C27.5922 18.6572 27.7674 18.8992 27.8024 19.1932C27.9426 20.3863 28.3631 21.5102 28.5558 22.686C28.6959 23.5851 28.9762 24.4497 28.8536 25.3834C28.8185 25.7119 28.8886 26.0404 29.0288 26.3517C29.2565 26.8185 29.1164 27.3546 29.3091 27.856C29.5719 28.5303 29.7646 29.2393 29.9748 29.9309C30.0449 30.1557 30.2025 30.173 30.3602 30.1384C31.0084 29.9828 31.6741 29.8445 32.2873 29.5851C32.9705 29.2912 33.7238 29.1874 34.4421 28.9972C35.1078 28.807 35.8086 28.7206 36.4568 28.392C36.7371 28.2364 37.105 28.2191 37.4378 28.1499C37.8758 28.0462 37.9809 27.9079 37.7882 27.5102C37.6305 27.1816 37.5955 26.8531 37.613 26.49C37.6656 25.7984 37.3677 25.1759 37.1926 24.5361C37.0524 24.0347 37.0349 23.5332 36.9123 23.0318C36.7196 22.2883 36.2991 21.6485 36.0714 20.9223C36.0013 20.7148 35.8962 20.5419 35.9662 20.3171C35.9838 20.2306 36.0013 20.1269 35.9662 20.0404C35.5808 19.2623 35.4757 18.3805 34.9151 17.6888C34.7574 17.4986 34.7049 17.2739 34.7574 17.0491C34.845 16.6341 35.2129 16.4958 35.5107 16.7897C36.4042 17.6024 37.2451 18.5015 37.6305 19.6427C37.9108 20.4727 38.1911 21.3027 38.5766 22.0981C38.6466 22.2537 38.6116 22.4612 38.6291 22.6341C38.6641 22.9108 38.6992 23.2047 38.962 23.3949C39.0496 23.4641 39.1021 23.5678 39.1021 23.6716C39.1021 24.4842 39.3999 25.2278 39.5576 26.0059C39.6627 26.5073 39.8029 27.0087 39.7153 27.562C39.6802 27.8387 39.8029 28.1327 39.6978 28.4439C39.5576 28.8589 39.2948 29.0664 38.8744 29.1182C38.7167 29.1182 38.5766 29.1874 38.4364 29.2566C38.2262 29.3776 38.1911 29.4641 38.2087 29.7407C38.3138 30.9338 38.524 32.0923 38.6466 33.2854C38.7693 34.392 38.8043 35.5332 39.0671 36.6399C39.3474 37.8502 39.8905 38.905 40.5737 39.8906C40.9766 40.4785 41.4672 40.9799 41.8876 41.5851C42.5358 42.5361 43.1315 43.5217 43.9023 44.4035C44.3578 44.9396 44.7607 45.5102 45.1461 46.0981C45.5315 46.6514 45.952 47.0318 46.7053 47.0491C47.3535 47.0491 48.1068 47.1528 48.6149 47.4814C49.0528 47.758 49.6134 48.173 49.701 48.7955C49.7711 49.2796 49.8937 49.7292 50.0689 50.1961C50.2091 50.5938 50.139 50.9914 49.7186 51.2854C49.2105 51.6485 48.7375 52.0808 48.4572 52.6687C48.282 53.0318 47.9667 52.9626 47.7039 52.8935C47.4061 52.807 47.0206 52.686 47.0382 52.3056C47.0382 51.9597 47.0557 51.5793 47.5287 51.3718C47.9141 51.1989 48.1769 50.8704 48.1243 50.3171C48.0718 49.5736 47.844 49.003 47.2659 48.5361C47.0557 48.3632 46.863 48.2422 46.6002 48.294C46.0396 48.3805 45.4965 48.2076 44.9709 48.1038C44.8133 48.0693 44.6906 47.9828 44.5855 47.8791C43.8848 47.2047 43.2891 46.4266 42.6935 45.6658C42.2906 45.1471 41.9227 44.6283 41.5197 44.1269C41.4321 44.0059 41.3445 43.8848 41.2745 43.7465C40.9942 43.1067 40.5562 42.5707 40.1007 42.0347C39.8729 41.7753 39.6978 41.4641 39.5051 41.1701C39.3299 40.8762 39.1196 40.6168 38.8393 40.4093C38.6466 40.2537 38.524 40.0808 38.5065 39.7868C38.4714 39.4237 38.1561 39.1816 37.9634 38.8877C37.4203 38.1096 37.0699 37.2623 36.9999 36.3113C36.9999 36.1384 36.8772 35.9309 36.9298 35.7753C37.0699 35.1874 36.667 34.6514 36.8071 34.0808C36.9298 33.5966 36.8422 33.1125 36.8071 32.6283C36.7371 31.8157 36.4393 31.0376 36.4743 30.2076C36.4743 29.9482 36.2991 29.9482 36.1239 30.0174C35.0728 30.3632 33.9691 30.4669 32.9705 30.9684C32.9004 31.003 32.8304 31.0376 32.7603 31.0548C32.3223 31.1586 32.1822 31.3661 32.3048 31.7984C32.5325 32.6975 32.7953 33.5966 33.0931 34.4958C33.2508 34.9626 33.2333 35.4986 33.4786 35.9482C33.899 36.7263 34.1268 37.5736 34.3895 38.4035C34.5822 39.0087 34.8275 39.5793 35.1253 40.1499C35.2129 40.3229 35.318 40.5131 35.4757 40.6168C36.0538 41.0145 36.2991 41.6889 36.7371 42.1903C37.1225 42.6226 37.5079 43.0721 37.8057 43.5563C38.1386 44.1096 38.7517 44.4208 38.997 45.0606C39.1021 45.3546 39.4875 45.4756 39.7153 45.735C40.2058 46.3056 40.7139 46.8589 41.292 47.343C41.6599 47.637 42.0278 47.9136 42.3606 48.2422C42.6234 48.4842 42.8687 48.709 43.0439 49.0203C43.1665 49.2105 43.3417 49.3661 43.5344 49.5044C43.9023 49.7984 44.0074 50.369 43.7621 50.7667C43.4994 51.2335 42.9738 51.3027 42.5709 50.9569C41.9927 50.4727 41.5898 49.8502 41.0818 49.2969C40.4861 48.6572 39.9255 47.9828 39.2248 47.4641C38.5065 46.928 37.9284 46.2537 37.3327 45.6139C36.7546 44.9914 36.2465 44.3344 35.7385 43.6773C35.4056 43.245 35.0027 42.8301 34.81 42.3113C34.7925 42.2595 34.7574 42.173 34.7049 42.1557C34.0917 42.0693 33.899 41.4814 33.7063 41.0837C33.3559 40.392 32.7077 39.856 32.6552 39.0087C32.6377 38.611 32.3924 38.2652 32.1822 37.9367C31.9895 37.6255 31.9194 37.3315 31.9019 36.9511C31.8843 36.5534 31.6566 36.1557 31.5515 35.7407C31.4639 35.4122 31.3413 35.101 31.4639 34.7206C31.5865 34.392 31.3938 34.0981 31.1135 33.8906C30.8858 33.7177 30.7106 33.4756 30.7631 33.1816C30.8507 32.6629 30.5354 32.2306 30.4828 31.7465C30.4828 31.5909 30.3952 31.5217 30.2376 31.539C29.9923 31.5736 29.677 31.4007 29.5543 31.7465C29.3266 32.3863 28.9412 32.9396 28.766 33.5966C28.6784 33.9252 28.5558 34.2364 28.328 34.4958C27.5922 35.343 27.2594 36.3805 26.9791 37.4352C26.8915 37.7811 26.5411 38.0577 26.6462 38.4554C26.8739 39.2854 26.2608 39.8387 25.9805 40.4958C25.9104 40.686 25.7177 40.7206 25.5075 40.7378C25.2447 40.7551 25.2097 40.8762 25.3498 41.101C25.6651 41.637 25.9104 42.173 26.0155 42.8128C26.0856 43.2278 26.3834 43.6427 26.6637 43.9886C26.8389 44.1961 26.9966 44.3517 26.9615 44.6456C26.9265 45.0606 27.3119 45.3027 27.417 45.6658C27.5046 45.9252 27.6798 46.1672 27.6623 46.4439C27.6623 47.1355 28.2579 47.5678 28.3806 48.1903C28.5207 48.8819 28.8886 49.4871 29.204 50.1096C29.3616 50.4208 29.3091 50.8704 29.5368 51.0779C30.0624 51.5966 30.0624 52.3229 30.3952 52.8762C30.8858 53.6716 31.061 54.6053 31.604 55.3488C31.6216 55.3834 31.6566 55.4353 31.6566 55.4698C31.6741 56.49 32.1296 57.4064 32.2873 58.3747C32.4274 59.1528 32.7778 59.9136 32.6727 60.7436C32.6727 60.7955 32.6552 60.8474 32.6727 60.8819C33.2683 61.6255 32.8829 62.5419 33.1457 63.3718C33.3384 64.0116 33.2158 64.7551 33.1807 65.4641C33.1807 65.6889 33.1107 65.8963 33.1807 66.1384C33.3034 66.588 33.0406 67.003 33.0931 67.4698C33.1457 67.8156 33.1107 68.1615 33.1457 68.5073C33.1632 68.7321 33.0056 68.9914 33.0756 69.2681C33.3734 70.2191 32.8479 71.1009 32.7428 72.0001C32.6727 72.5188 32.2698 73.003 32.007 73.4871C31.9544 73.5909 31.8318 73.66 31.7442 73.6427C31.3062 73.5217 30.9383 73.7984 30.5179 73.8156C30.2726 73.8156 30.15 73.9367 30.185 74.1961C30.185 74.369 30.185 74.5246 30.2201 74.6975C30.3602 75.6139 30.5179 76.5303 30.658 77.4468C30.7106 77.7753 30.9033 77.9482 31.131 78.173C31.7792 78.7782 32.6552 79.0376 33.3209 79.6254C33.4085 79.7119 33.5311 79.7465 33.6537 79.7984C34.4071 80.075 34.9677 80.6629 35.6859 81.0087C36.1765 81.2508 36.3166 81.856 36.7371 82.2018C36.8597 82.2883 36.8947 82.5822 36.7371 82.7551C36.3166 83.222 35.2129 83.9309 34.3895 83.7061C33.8114 83.5332 33.1282 83.637 32.4975 83.6197C31.9895 83.6024 31.4814 83.637 30.9909 83.5159C30.9208 83.4986 30.8157 83.4986 30.7807 83.5332C30.185 84.0001 29.5543 83.6889 28.9412 83.6543C28.3806 83.6197 27.8024 83.6543 27.2418 83.6197C26.5936 83.5851 25.998 83.343 25.3848 83.1701C25.052 83.0664 24.8242 82.5995 24.7191 82.2364C24.5439 81.6658 24.2461 81.1125 24.2286 80.49C24.2286 80.1788 23.9658 79.8157 24.4388 79.5736C24.5965 79.4871 24.4388 79.2105 24.3337 79.0375C24.2812 78.9511 24.1235 78.8992 24.1936 78.7782C24.5965 78.0347 24.2461 77.2566 24.3337 76.5131C24.4213 75.8906 24.3863 75.2508 24.4213 74.6283C24.4213 74.5073 24.4038 74.4381 24.2987 74.3517C23.9308 74.0404 23.5103 73.8502 23.0373 73.8156C22.4592 73.7638 22.0037 73.2969 21.811 72.7436C21.4957 71.8618 21.4431 70.9108 21.1978 70.0116C21.0402 69.4583 21.2329 68.8877 21.1978 68.3344C21.1628 68.0059 21.1978 67.66 20.9876 67.3661C20.9175 67.2623 20.8475 67.0894 20.8825 66.9857C21.0402 66.4842 20.7423 66.052 20.6022 65.637C20.4971 65.3257 20.4445 65.0491 20.5146 64.7551C20.5496 64.5995 20.5496 64.4439 20.462 64.3229C20.3569 64.1672 20.2693 64.1154 20.1292 64.3229C19.5511 65.3084 18.7277 66.0347 17.6941 66.5188C17.5364 66.588 17.3787 66.6399 17.3437 66.7955C17.2386 67.3661 16.748 67.5217 16.3101 67.6254C15.8721 67.7292 15.5392 67.954 15.294 68.2825C14.7509 69.0087 13.8749 69.2854 13.1917 69.8214C12.8588 70.0808 12.4034 70.1327 12.0355 70.4093C11.7201 70.6514 11.1595 70.4785 10.7215 70.4785C10.0558 70.4785 9.49522 70.2191 9.10981 69.6312C8.96966 69.4064 8.49665 69.6312 8.3565 69.977C8.16379 70.4439 7.90101 70.8416 7.49807 71.1701C7.09514 71.4986 7.11266 72.0347 7.20025 72.4842C7.30537 72.9511 7.27033 73.418 7.32289 73.8848C7.48056 75.0433 7.60319 76.2191 7.83093 77.3776C7.93605 77.8963 7.90101 78.4669 7.428 78.8819C7.39296 78.9165 7.428 79.0203 7.39296 79.1067C7.32289 79.3834 7.18273 79.5909 6.90243 79.6427C6.16664 79.7811 5.43085 79.7811 4.74761 79.418C4.53739 79.3142 4.30964 79.1759 4.2746 78.8992C4.23956 78.6053 3.92423 78.5707 3.74904 78.3805C3.18843 77.7926 2.99572 76.9972 2.59279 76.3401C2.34753 75.9425 2.36505 75.4583 2.08474 75.0952C1.06865 73.7292 0.753309 72.1211 0.420451 70.5131C0.385413 70.3747 0.385413 70.2364 0.332856 70.1154C0.0175166 69.2854 0.297819 68.4727 0.455488 67.66C0.455488 67.5736 0.595639 67.418 0.648196 67.418C1.24384 67.5217 1.45406 66.8992 1.96211 66.7955C2.45264 66.6917 2.90813 66.5015 3.32858 66.2076C3.92422 65.7926 4.6425 65.5332 5.13303 64.9626C5.27318 64.807 5.46589 64.8589 5.64107 64.7897C5.50092 64.4093 5.39581 64.0462 5.2907 63.6831C5.22062 63.441 4.95784 63.2162 4.87024 62.9396C4.81769 62.7494 4.62498 62.49 4.97536 62.3517C5.01039 62.369 5.04543 62.4208 5.06295 62.4208C5.13303 62.3863 5.09799 62.3344 5.06295 62.2825L4.87024 62.1961ZM23.23 70.7724C23.1424 71.2739 23.3877 71.6716 23.4227 72.1038C23.4578 72.5361 23.7205 72.6744 24.0884 72.6917C24.3337 72.6917 24.579 72.709 24.8242 72.7436C25.5951 72.8646 26.3834 73.003 27.1542 72.9857C27.82 72.9684 28.5032 72.8819 29.1514 72.6744C29.3091 72.6226 29.4317 72.5188 29.6244 72.5188C30.2726 72.5188 30.3952 72.3113 30.6405 71.7061C30.8332 71.2047 30.7807 70.686 30.9383 70.2191C31.1661 69.562 30.9033 68.9396 31.0434 68.2825C31.1836 67.5909 30.9383 66.8301 31.1135 66.1557C31.2537 65.6197 31.0084 65.1701 31.0259 64.686C31.0259 64.2191 31.2011 63.7004 30.9033 63.2335C30.8507 63.1644 30.9383 63.0606 31.0084 62.9914C31.096 62.905 31.061 62.8012 31.0259 62.6975C30.6755 61.7119 31.0084 60.6399 30.5354 59.6716C30.5354 59.6716 30.5354 59.637 30.5354 59.6197C30.5354 59.1874 30.4303 58.7551 30.2901 58.3401C29.9923 57.3891 29.8346 56.4035 29.4317 55.4525C29.1514 54.7782 28.9237 54.0347 28.6258 53.3603C28.1879 52.392 27.9076 51.3718 27.382 50.4554C26.7513 49.3488 26.3659 48.1211 25.9104 46.928C25.6651 46.2883 25.2797 45.7004 25.0695 45.0433C24.9118 44.5765 24.8943 44.0059 24.3687 43.7119C24.3512 43.7119 24.3337 43.6255 24.3512 43.6082C24.649 43.3142 24.3162 43.124 24.2286 42.8992C24.0534 42.3286 23.5804 41.9136 23.3001 41.3949C23.1424 41.0837 23.2125 40.6687 22.7395 40.4785C22.1263 40.2364 21.5482 39.9079 20.9175 39.7177C20.2693 39.5275 19.6387 39.32 19.1481 38.8012C19.043 38.6975 18.9029 38.6283 18.7627 38.5592C18.1671 38.3344 17.624 38.0231 17.1335 37.6255C16.9232 37.4525 16.6955 37.3661 16.4677 37.2278C15.8371 36.8819 15.0837 36.6744 14.5582 36.2422C13.7348 35.5505 12.6311 35.4122 11.8252 34.7378C11.4749 34.4439 10.9493 34.4439 10.669 34.1154C10.3186 33.7177 9.82808 33.6139 9.44267 33.3373C9.26748 33.2162 9.0047 33.1816 9.02222 33.562C9.05725 34.1672 8.88206 34.7551 8.95214 35.3776C9.02222 35.879 9.02222 36.3805 8.96966 36.8819C8.93462 37.1932 9.37259 37.2969 9.24996 37.5563C9.07477 37.9367 9.30252 38.2652 9.35507 38.5938C9.51274 39.4756 9.72297 40.3574 10.0909 41.1874C10.5288 42.173 11.1595 43.0376 11.65 43.9886C12.0355 44.7494 12.5435 45.4237 13.0866 46.0808C13.3844 46.4266 13.7348 46.7378 13.9625 47.1528C14.2604 47.7061 14.4005 48.3632 15.0487 48.6744C15.0837 48.6917 15.1188 48.7436 15.1363 48.7782C15.2239 49.4352 15.767 49.8502 16.1349 50.3344C16.9407 51.3546 17.7466 52.392 18.5525 53.4122C18.8153 53.758 19.2357 53.9655 19.3934 54.3632C19.5686 54.8301 19.8839 55.1586 20.2168 55.5044C20.3744 55.6773 20.5146 55.8502 20.6197 56.0577C20.865 56.5592 21.1803 57.026 21.2329 57.5966C21.2679 57.8906 21.4081 58.1327 21.4606 58.4266C21.5832 59.1528 21.6008 59.8791 21.7059 60.6226C21.776 61.0894 22.0738 61.5217 21.9511 61.9886C21.776 62.7667 22.1614 63.4929 22.1964 64.2537C22.2139 64.7378 22.1263 65.3257 22.5818 65.7407C22.6169 65.7753 22.6169 65.9136 22.5818 65.9482C22.3366 66.2422 22.5468 66.5361 22.6519 66.7609C22.757 66.9857 22.792 67.1932 22.792 67.418C22.792 68.0404 22.7045 68.6802 23.1249 69.2335C23.4928 69.735 22.9672 70.2883 23.2125 70.7551L23.23 70.7724ZM6.76228 62.5765C6.67469 62.8877 6.76228 63.1816 6.99003 63.4064C7.48056 63.8733 7.3404 64.686 7.93605 65.101C7.9886 65.1355 7.97108 65.2393 7.97108 65.3257C7.97108 65.4468 8.00612 65.5159 8.12875 65.5678C8.40905 65.6888 8.56672 65.9309 8.67184 66.2076C8.81199 66.5361 8.88206 66.9165 9.16237 67.1759C9.39011 67.4007 9.54778 67.66 9.68793 67.954C9.86312 68.3344 10.196 68.6283 10.4588 68.9569C10.5288 69.0433 10.669 69.0952 10.7566 69.0433C11.0544 68.8877 11.5449 68.8012 11.6325 68.611C11.8428 68.1442 12.2982 68.0577 12.6136 67.7811C12.7713 67.6427 12.9464 67.4525 13.1917 67.3834C13.7173 67.2278 14.2078 67.003 14.5932 66.5707C14.891 66.2595 15.294 66.052 15.6268 65.7926C16.713 64.9799 17.9043 64.2883 18.4999 62.9914C18.57 62.8358 18.6751 62.6975 18.8853 62.7321C19.0605 62.7667 19.1306 62.6283 19.1656 62.49C19.2357 62.1442 19.4635 61.9367 19.7613 61.7811C19.919 61.6946 19.989 61.6254 19.9014 61.4352C19.6912 60.9511 19.5861 60.4324 19.5511 59.8963C19.516 59.3949 19.4109 58.8935 19.4985 58.3574C19.5861 57.7177 19.0956 57.1298 18.7977 56.5419C18.3247 55.6255 17.3787 55.0548 16.9583 54.0693C16.6955 53.4641 15.9947 53.1528 15.6794 52.5303C15.6268 52.4266 15.5042 52.3747 15.3991 52.2883C15.294 52.1845 15.2239 52.1845 15.1713 52.3401C14.9611 53.0491 14.6458 53.7407 14.5231 54.4669C14.383 55.3142 13.8749 55.8848 13.2968 56.4035C12.1756 57.4237 10.7566 58.0808 9.79305 59.2739C9.74049 59.343 9.65289 59.4122 9.5653 59.4295C9.285 59.5159 9.12733 59.7234 8.93462 59.9136C8.40905 60.4151 8.00612 61.0721 7.20025 61.2278C7.0601 61.2623 6.99003 61.4007 6.91995 61.5217C6.76228 61.8329 6.62213 62.1615 6.69221 62.5419L6.76228 62.5765ZM28.2054 74.7667C28.2054 74.1442 28.2054 74.1788 27.5572 74.2133C27.1017 74.2306 26.6287 74.4727 26.1907 74.1615C26.0681 74.075 25.998 74.1615 25.998 74.2998C25.998 74.8704 25.9454 75.4583 26.033 76.0116C26.1206 76.5649 26.0681 77.101 26.1557 77.6543C26.2608 78.2767 26.1031 78.9165 26.0506 79.539C26.0155 79.9886 26.1031 80.4554 26.0506 80.905C25.998 81.4064 26.7864 82.2883 27.2418 82.2883C27.9601 82.2883 28.6609 82.3401 29.3616 82.3056C30.0974 82.271 30.7982 81.9425 31.5865 82.1154C32.1822 82.2537 32.8479 82.1499 33.461 82.1672C33.7063 82.1672 33.9341 82.3401 34.1793 82.2537C34.2844 82.2191 34.3895 82.1672 34.4246 82.0635C34.4421 81.9597 34.4071 81.8906 34.3195 81.8387C33.8465 81.562 33.3734 81.2508 32.8829 81.026C32.5325 80.8704 32.1997 80.7321 31.9369 80.4727C31.6391 80.1788 31.2537 80.0058 30.9033 79.8329C29.7821 79.3142 29.0288 78.4842 28.5733 77.3776C28.5207 77.2566 28.4331 77.1355 28.4506 76.9453C28.4506 76.4958 28.5207 76.0116 28.3455 75.5793C28.2404 75.3027 28.2054 75.026 28.2054 74.7321V74.7667ZM5.39581 77.7753C5.50092 77.5851 5.65859 77.4986 5.65859 77.2739C5.62356 76.6514 5.81626 75.9943 5.39581 75.4064C5.30822 75.3027 5.32573 75.1125 5.32573 74.9569C5.25566 74.1269 5.2031 73.2969 5.13303 72.4842C5.13303 72.3978 5.13303 72.294 5.08047 72.2249C4.80017 71.8272 5.13303 71.3949 4.99288 70.9799C4.99288 70.928 5.09799 70.8416 5.15055 70.7724C5.50092 70.3056 5.9389 69.9079 6.37687 69.5102C6.79732 69.1125 6.97251 68.5419 7.428 68.196C7.74334 67.9713 7.69078 67.7811 7.428 67.5736C7.0601 67.2796 6.83236 66.8819 6.58709 66.5015C6.2192 65.9655 6.04401 65.9309 5.67611 66.4669C5.53596 66.6571 5.37829 66.7782 5.16806 66.8128C4.97536 66.8473 4.83521 66.9338 4.67754 67.0548C4.18701 67.4352 3.73152 67.8502 2.99572 67.7292C2.61031 67.66 2.24241 68.1096 2.18986 68.5246C2.08474 69.2681 1.99715 69.9943 2.25993 70.7378C2.47016 71.343 2.57527 71.9828 2.7855 72.5707C3.11836 73.4698 3.67896 74.2652 3.97678 75.1989C4.06438 75.4756 4.29212 75.7177 4.34468 76.0116C4.37972 76.2537 4.74761 76.1672 4.78265 76.4093C4.85273 76.8935 5.13303 77.2912 5.39581 77.758V77.7753Z" fill="#1E6E67"/>
<path fill-rule="evenodd" clip-rule="evenodd" d="M34.9502 7.97126C35.0027 8.59373 35.4232 9.14705 36.0188 9.52745C36.3166 9.71765 36.4217 9.97702 36.4918 10.271C36.5619 10.6168 36.2816 10.9107 35.9487 10.807C35.5458 10.686 35.3005 10.8762 35.0553 11.1009C34.6348 11.4813 34.1443 11.7061 33.6012 11.8272C33.1632 11.9309 32.9705 11.5678 32.8128 11.2566C32.6727 10.9972 32.7428 10.807 33.0406 10.6514C33.3209 10.4958 33.5486 10.2364 33.7764 9.99431C33.9341 9.8214 33.9516 9.6312 33.8114 9.38912C33.0581 8.00584 33.0932 6.74359 34.0567 5.5678C34.0917 5.51592 34.1618 5.46405 34.1618 5.42947C34.1092 4.85886 34.5472 4.4093 34.5297 3.83869C34.5297 3.54474 34.6523 3.26809 34.9502 3.07788C35.2129 2.92227 35.3706 2.6629 35.5633 2.43812C36.5093 1.3142 37.7357 0.899211 39.1547 0.847337C39.5751 0.830046 39.873 0.536098 40.2584 0.415061C40.854 0.224859 41.4321 0.0865306 42.0803 0.0346575C42.7285 -0.0172157 43.3592 0.121113 43.9899 0.103822C45.4965 0.0692396 46.6878 0.795464 47.7389 1.71189C48.8251 2.6629 49.5609 3.87327 49.701 5.34301C49.7536 5.84446 49.4207 6.25944 49.2981 6.70901C49.2455 6.86463 48.9302 6.98567 48.7375 6.9165C48.4572 6.81275 48.1944 6.62255 48.1594 6.27673C48.0543 5.49863 48.0543 4.68595 47.5287 4.0116C46.863 3.16434 46.2673 2.23062 45.2337 1.78105C44.603 1.5044 43.9198 1.24503 43.2366 1.19316C42.4132 1.12399 41.5723 1.3142 40.854 1.76376C40.4861 2.00584 40.1182 2.21333 39.6102 2.14417C38.9795 2.05771 38.3838 2.24791 37.8232 2.48999C37.4203 2.68019 37.2451 3.12976 36.9648 3.47558C36.6495 3.85598 36.5093 4.34013 36.194 4.72054C36.1064 4.84157 36.0889 5.03177 36.3692 5.13552C36.8597 5.30843 37.3853 5.42947 37.7181 5.87904C37.8583 6.05195 37.9634 6.22486 38.016 6.44964C38.051 6.67443 38.086 6.95108 37.8232 7.05483C37.578 7.15858 37.3327 7.33149 37.0524 7.08941C36.9123 6.98566 36.7371 6.89921 36.5619 6.83005C35.756 6.48422 34.9677 7.02025 34.9677 8.00584L34.9502 7.97126Z" fill="#1E6E67"/>
<path fill-rule="evenodd" clip-rule="evenodd" d="M48.0193 9.45832C47.9142 10.4612 47.739 11.516 47.2835 12.4843C47.266 12.5361 47.2134 12.588 47.2134 12.6572C47.1258 13.7638 46.2674 14.3171 45.5316 14.9569C44.8834 15.5102 44.1301 15.9079 43.3943 16.3229C42.8337 16.6341 42.3257 16.3575 41.8001 16.3402C41.73 16.3402 41.66 16.2364 41.6074 16.2364C40.9767 16.3056 40.5037 15.9425 39.9781 15.7177C39.0146 15.32 38.1737 15.6485 37.3678 16.15C36.9649 16.392 36.562 16.5995 36.0364 16.5131C35.5984 16.4439 35.5459 16.2364 35.5634 15.8906C35.5809 15.4929 35.8262 15.1817 36.159 15.0952C36.6846 14.9742 37.0875 14.6283 37.5781 14.4554C38.2087 14.2479 38.8569 14.0577 39.5051 14.0577C40.0657 14.0577 40.5913 14.2825 41.0468 14.6456C41.695 15.1471 42.3607 15.2162 43.079 14.7494C43.517 14.4554 44.06 14.3517 44.4279 13.9194C45.0411 13.2278 45.6192 12.5188 45.9346 11.6543C46.2849 10.6687 46.5302 9.63123 46.828 8.62834C46.9156 8.35169 47.0558 8.07503 47.3536 8.05774C47.6689 8.05774 47.8616 8.35169 47.9317 8.62834C48.0018 8.85313 47.9843 9.11249 48.0193 9.42373V9.45832Z" fill="#1E6E67"/>
<path fill-rule="evenodd" clip-rule="evenodd" d="M41.8527 3.83863C42.1505 3.95967 42.3432 3.73488 42.5709 3.75218C43.0264 3.80405 43.4644 3.82134 43.9199 3.97696C44.4104 4.14987 44.936 4.35736 45.4791 4.40924C46.0397 4.46111 46.4952 4.80693 46.9331 5.13546C47.1784 5.30837 47.1784 5.65419 47.0382 5.89627C46.8806 6.17292 46.5302 6.2248 46.2674 6.13834C45.8995 6.01731 45.4966 5.91356 45.1637 5.68877C44.9009 5.51586 44.5856 5.42941 44.2527 5.37754C43.7797 5.30837 43.3242 5.11817 42.8688 5.0663C42.0979 4.96255 41.8001 5.15275 41.5373 5.86169C41.3446 6.39771 41.0468 6.84728 40.6439 7.24497C40.311 7.5735 39.3124 7.50434 39.0321 7.14122C38.8044 6.86457 38.8219 6.57062 39.1372 6.39771C39.6628 6.10376 39.803 5.61961 39.8905 5.11817C39.9781 4.53027 40.2584 4.11529 40.8541 3.99425C41.2045 3.92509 41.5373 3.87321 41.8351 3.82134L41.8527 3.83863Z" fill="#1E6E67"/>
<path fill-rule="evenodd" clip-rule="evenodd" d="M44.7956 55.8329C44.6204 55.7983 44.3927 55.66 44.1299 55.8675C44.0774 55.9193 43.7445 55.5908 43.5343 55.4525C43.3241 55.3142 43.1664 55.2104 43.2715 54.8819C43.3766 54.5361 43.324 54.1557 43.324 53.7925C43.324 52.6168 43.8321 51.6657 44.5854 50.8185C44.8657 50.5072 45.7241 50.4381 46.092 50.6629C46.2322 50.7493 46.2497 50.8704 46.2147 51.026C46.0745 51.5274 45.9344 52.0289 45.8117 52.5303C45.6716 53.1874 45.2161 53.7753 45.4263 54.5361C45.4789 54.6917 45.4438 54.9856 45.4789 55.2104C45.5139 55.5908 45.2686 55.8329 44.7956 55.8329Z" fill="#1E6E67"/>
<path fill-rule="evenodd" clip-rule="evenodd" d="M41.397 13.0029C41.2743 12.9683 41.0992 12.9511 41.0116 12.8473C40.8889 12.7263 41.0816 12.6225 41.1342 12.5015C41.5021 11.5851 42.2204 11.0145 43.0788 10.5649C43.5343 10.3228 43.6919 10.4093 43.8671 10.8761C43.9547 11.1182 43.8847 11.2911 43.6744 11.4121C43.4992 11.5159 43.3416 11.6369 43.1664 11.7061C42.6233 11.8963 42.343 12.3632 41.9751 12.7436C41.8174 12.8992 41.6422 12.9511 41.4145 13.0029H41.397Z" fill="#1E6E67"/>
<path fill-rule="evenodd" clip-rule="evenodd" d="M43.4468 8.2652C43.4293 8.09229 43.4994 7.93667 43.5694 7.76376C43.657 7.52168 43.8147 7.36606 44.095 7.41794C44.3578 7.46981 44.4629 7.66001 44.4629 7.91938C44.4629 8.02312 44.4979 8.12687 44.5155 8.23062C44.533 8.55915 44.5505 8.90497 44.095 8.95684C43.6395 9.00871 43.4468 8.80122 43.4468 8.2652Z" fill="#1E6E67"/>
<path fill-rule="evenodd" clip-rule="evenodd" d="M6.13172 31.1931L6.02661 31.245V31.2104H6.13172V31.1931Z" fill="#1E6E67"/>
<path fill-rule="evenodd" clip-rule="evenodd" d="M4.87031 62.196C4.87031 62.196 4.94038 62.2998 4.87031 62.3344C4.87031 62.3344 4.81775 62.2825 4.78271 62.2652C4.80023 62.2479 4.83527 62.2133 4.85279 62.196H4.87031Z" fill="white"/>
<path fill-rule="evenodd" clip-rule="evenodd" d="M60.1597 21.8387C59.8794 22.1153 59.6692 22.4611 59.4239 22.7551C58.8283 23.4813 58.4078 24.3459 57.5669 24.8819C57.3742 25.0029 57.2691 25.1931 57.0238 25.2796C56.5508 25.4525 56.218 25.2796 55.8676 25.0202C55.0967 24.4496 54.5712 23.6715 54.0106 22.9107C53.6777 22.4611 53.3974 21.977 53.2573 21.4237C53.2222 21.2335 53.2047 21.0952 53.4675 21.0433C53.9755 20.9568 54.1332 21.0433 54.4661 21.4064C54.7989 21.7695 55.1143 22.1499 55.4471 22.513C55.5698 22.6513 55.6398 22.5822 55.7099 22.4784C55.7625 22.392 55.7625 22.2709 55.7625 22.1672C55.7625 21.8732 55.78 21.562 55.7625 21.2681C55.7099 20.7666 55.8501 20.3171 56.0603 19.8848C56.2004 19.5908 56.5508 19.4006 56.9362 19.4698C57.2165 19.5217 57.3392 19.7637 57.3742 20.0058C57.4793 20.6629 57.4793 21.3372 57.4968 22.0116C57.4968 22.1326 57.3917 22.2537 57.4092 22.392C57.4092 22.4784 57.4443 22.5822 57.5319 22.6168C57.637 22.6513 57.6195 22.5303 57.672 22.4957C58.0925 22.1326 58.3903 21.6658 58.7932 21.2681C59.1086 20.9568 59.4239 21.026 59.7568 21.0087C59.9144 21.0087 60.0195 21.1297 60.0721 21.2854C60.0896 21.3372 60.0546 21.441 60.1422 21.4583V21.8214L60.1597 21.8387Z" fill="#1E6E67"/>
<path fill-rule="evenodd" clip-rule="evenodd" d="M57.4618 3.40642C57.4618 3.61391 57.4618 3.80411 57.4268 4.0116C57.3742 4.47846 57.0589 4.73783 56.5684 4.72054C56.218 4.72054 55.9026 4.39201 55.8851 3.97702C55.8676 3.56204 55.8151 3.16434 55.8851 2.74936C55.8851 2.64561 55.8851 2.54186 55.8676 2.43812C55.78 2.09229 56.0253 1.79835 56.1129 1.48711C56.1654 1.29691 56.5333 1.26232 56.7611 1.36607C57.0939 1.52169 57.2866 1.78106 57.3392 2.12688C57.4093 2.55915 57.4793 2.97414 57.4618 3.40642Z" fill="#1E6E67"/>
<path fill-rule="evenodd" clip-rule="evenodd" d="M55.7799 16.807C55.7799 16.5476 55.7799 16.3056 55.7799 16.0462C55.7799 15.6139 56.0077 15.4064 56.4281 15.4237C56.5858 15.4237 56.7435 15.4237 56.9012 15.4237C57.1289 15.4237 57.3391 15.5966 57.3742 15.8041C57.5143 16.4612 57.4968 17.1355 57.4793 17.8099C57.4793 18.0693 57.1464 18.3632 56.8661 18.3632C56.7084 18.3632 56.5683 18.3632 56.4106 18.3459C56.0427 18.3113 55.7975 18.0693 55.7624 17.6716C55.7449 17.3776 55.7624 17.101 55.7624 16.807H55.7799Z" fill="#1E6E67"/>
<path fill-rule="evenodd" clip-rule="evenodd" d="M55.78 12.3978C55.78 12.0174 55.7625 11.637 55.9026 11.2739C56.0778 10.7898 56.6034 10.565 57.0764 10.7725C57.2516 10.8416 57.3392 10.9973 57.3742 11.1875C57.4093 11.3604 57.4268 11.5506 57.4443 11.7408C57.4618 12.2249 57.4968 12.6918 57.4968 13.1759C57.4968 13.539 57.3041 13.7292 56.9362 13.7292C56.7961 13.7292 56.6559 13.7292 56.5158 13.7292C56.0953 13.7811 55.8851 13.6255 55.7975 13.0549C55.7625 12.8474 55.7975 12.6226 55.7975 12.3978H55.78Z" fill="#1E6E67"/>
<path fill-rule="evenodd" clip-rule="evenodd" d="M57.4968 7.5736C57.5494 7.954 57.4968 8.35169 57.4968 8.74939C57.4968 9.09521 57.2691 9.25083 56.9362 9.25083C56.7961 9.25083 56.6559 9.25083 56.5158 9.21625C56.2004 9.18166 55.9902 9.00875 55.9376 8.69751C55.9026 8.47273 55.85 8.26524 55.9026 8.02316C55.9376 7.86754 55.9026 7.71192 55.8676 7.5563C55.815 7.15861 55.8851 6.77821 56.0953 6.41509C56.2355 6.17302 56.4632 6.06927 56.761 6.08656C57.0413 6.10385 57.199 6.25947 57.3216 6.50155C57.4793 6.83008 57.4618 7.1759 57.4968 7.5563V7.5736Z" fill="#1E6E67"/>
<path fill-rule="evenodd" clip-rule="evenodd" d="M137.436 37.9019C137.716 38.1785 138.066 38.386 138.364 38.6281C139.1 39.216 139.976 39.631 140.519 40.4609C140.642 40.6511 140.834 40.7549 140.922 40.997C141.097 41.4638 140.922 41.7923 140.659 42.1382C140.081 42.899 139.293 43.4177 138.522 43.971C138.066 44.2996 137.576 44.5762 137.015 44.7145C136.822 44.7491 136.682 44.7664 136.63 44.507C136.542 44.0056 136.63 43.85 136.998 43.5215C137.366 43.1929 137.751 42.8817 138.119 42.5532C138.259 42.4321 138.189 42.3629 138.084 42.2938C137.996 42.2419 137.874 42.2419 137.768 42.2419C137.471 42.2419 137.155 42.2246 136.857 42.2419C136.349 42.2938 135.894 42.1555 135.456 41.948C135.158 41.8096 134.965 41.4638 135.036 41.0834C135.088 40.8068 135.333 40.6857 135.579 40.6511C136.244 40.5474 136.928 40.5474 137.611 40.5301C137.733 40.5301 137.856 40.6338 137.996 40.6166C138.084 40.6166 138.189 40.582 138.206 40.4955C138.241 40.3918 138.119 40.4091 138.084 40.3572C137.716 39.9422 137.243 39.6483 136.84 39.2506C136.525 38.9393 136.595 38.6281 136.56 38.2995C136.56 38.1439 136.682 38.0402 136.84 37.9883C136.91 37.971 136.98 38.0056 137.015 37.9191H137.383L137.436 37.9019Z" fill="#1E6E67"/>
<path fill-rule="evenodd" clip-rule="evenodd" d="M118.76 40.5647C118.971 40.5647 119.163 40.5647 119.374 40.5993C119.847 40.6512 120.109 40.9624 120.092 41.4465C120.092 41.7924 119.759 42.1036 119.339 42.1209C118.918 42.1382 118.515 42.1901 118.095 42.1209C117.99 42.1209 117.885 42.1209 117.779 42.1382C117.412 42.2246 117.131 41.9826 116.816 41.8961C116.623 41.8442 116.588 41.4811 116.693 41.2563C116.851 40.9278 117.114 40.7376 117.464 40.6857C117.902 40.6166 118.322 40.5474 118.76 40.5647Z" fill="#1E6E67"/>
<path fill-rule="evenodd" clip-rule="evenodd" d="M132.338 42.2246C132.075 42.2246 131.83 42.2246 131.567 42.2246C131.129 42.2246 130.919 41.9999 130.936 41.5849C130.936 41.4293 130.936 41.2736 130.936 41.118C130.936 40.8932 131.111 40.6857 131.321 40.6512C131.987 40.5128 132.67 40.5301 133.354 40.5474C133.616 40.5474 133.914 40.8759 133.914 41.1526C133.914 41.3082 133.914 41.4465 133.897 41.6022C133.862 41.9653 133.616 42.2074 133.214 42.2419C132.916 42.2592 132.635 42.2419 132.338 42.2419V42.2246Z" fill="#1E6E67"/>
<path fill-rule="evenodd" clip-rule="evenodd" d="M127.87 42.2247C127.485 42.2247 127.099 42.242 126.732 42.1036C126.241 41.9307 126.013 41.412 126.224 40.9451C126.294 40.7722 126.451 40.6858 126.644 40.6512C126.819 40.6166 127.012 40.5993 127.205 40.582C127.695 40.5647 128.168 40.5302 128.659 40.5302C129.027 40.5302 129.219 40.7204 129.219 41.0835C129.219 41.2218 129.219 41.3601 129.219 41.4985C129.272 41.9134 129.114 42.1209 128.536 42.2074C128.326 42.242 128.098 42.2074 127.87 42.2074V42.2247Z" fill="#1E6E67"/>
<path fill-rule="evenodd" clip-rule="evenodd" d="M122.982 40.5301C123.368 40.4783 123.771 40.5301 124.174 40.5301C124.524 40.5301 124.682 40.7549 124.682 41.0834C124.682 41.2218 124.682 41.3601 124.647 41.4984C124.612 41.8097 124.437 42.0172 124.121 42.069C123.893 42.1036 123.683 42.1555 123.438 42.1036C123.28 42.069 123.123 42.1036 122.965 42.1382C122.562 42.1901 122.177 42.1209 121.809 41.9134C121.563 41.7751 121.441 41.5503 121.476 41.2564C121.493 40.9797 121.669 40.8241 121.896 40.703C122.229 40.5474 122.58 40.5647 122.965 40.5301H122.982Z" fill="#1E6E67"/>
</g>
<defs>
<clipPath id="clip0_125_21444">
<rect width="369" height="84" fill="white"/>
</clipPath>
</defs>
</svg>
