<svg width="353" height="83" viewBox="0 0 353 83" fill="none" xmlns="http://www.w3.org/2000/svg">
<g clip-path="url(#clip0_125_21542)">
<path d="M50 71.5H57.5L52.5 66.5L48.5 46L45 44L32 43.5V35.5L45 19L49 16.5H53.5C55.9 16.5 57.1667 11.5 57.5 9C58 6.16667 57.6 0.5 52 0.5C46.4 0.5 44.6667 3.83333 44.5 5.5C43.5 5.5 41.3 6 40.5 8C39.7 10 41.5 10.8333 42.5 11V13.5L30 25L25 31L29 48.5H32L35.5 53.5H44L50 71.5Z" fill="white"/>
<path d="M187 76H194.5L189.5 71L185.5 50.5L182 48.5L169 48V40L186 28.5L188.5 32C189 32 193 31 193 31C193 31 193 26.5 198 20.5C198.5 17.6667 198.6 10 193 10C187.4 10 185.667 13.3333 185.5 15C184.5 15 182.3 14.5 181.5 16.5C180.7 18.5 182 19.8333 183 20L182.5 22L167 29.5L162 35.5L166 53H169L172.5 58H181L187 76Z" fill="white"/>
<path d="M330 75H337.5L332.5 70L328.5 49.5L325 47.5L312 47V39L331 33.5L328.5 40C328.75 40 332.562 42 335 40C337.438 38 338.5 32 338.5 32C338.5 32 349.5 24.5 343 18C343 17 345.1 10.5 339.5 10.5C333.9 10.5 334.5 17.5 332 19C331 19 328.3 18 327.5 20C326.7 22 327.5 23.3333 328.5 23.5L328 25.5L310 28.5L305 34.5L309 52H312L315.5 57H324L330 75Z" fill="white"/>
<path fill-rule="evenodd" clip-rule="evenodd" d="M44.3373 42.1547C44.3373 42.1547 44.6701 44.4762 44.3373 48.107C44.0045 51.7377 43.5665 54.1465 43.5665 54.1465L37.5755 54.3909L32.0924 48.2815L32.6179 46.4312L30.4282 43.9177V41.3692L33.5814 39.9902L44.3373 42.1721V42.1547Z" fill="#69ACA3"/>
<path fill-rule="evenodd" clip-rule="evenodd" d="M16.5542 45.0871L27.1875 42.9576L25.3831 30.4596L29.8502 25.3801L34.2121 28.6617L29.5348 32.7986L30.4107 41.3866L33.5639 40.0076L34.142 36.5864L37.8382 32.6415L42.3929 30.0057L44.057 23.2854L45.0731 19.0962L43.5315 15.2909L42.6206 12.7948C42.6206 12.7948 31.7246 13.3185 25.6284 20.9115C19.5322 28.5046 15.0652 33.7412 15.0652 33.7412V40.9328L16.5542 45.122V45.0871Z" fill="#CE7D80"/>
<path fill-rule="evenodd" clip-rule="evenodd" d="M-6.03851e-05 18.8693C0.805756 17.5776 2.15462 18.1536 3.24072 18.0663C3.95895 18.014 4.74725 17.8045 5.50051 18.1013C5.79831 18.2234 6.09611 18.2933 6.27129 18.59C6.70923 19.3057 6.30633 20.0912 5.37789 20.1435C4.76476 20.1784 4.13413 20.3006 3.52101 20.0213C3.29327 19.9166 3.04803 20.0737 2.8203 20.1086C1.78675 20.2832 0.840791 20.0737 -0.0175781 19.4628V18.8867L-6.03851e-05 18.8693Z" fill="#1E6E67"/>
<path fill-rule="evenodd" clip-rule="evenodd" d="M26.9423 44.8776C26.8897 43.8128 26.697 42.8702 26.3642 41.9975C26.0138 41.0549 25.8562 40.0949 25.5934 39.1348C25.5058 38.8381 25.4007 38.681 25.0504 38.6984C23.4387 38.7857 21.8271 38.6984 20.2155 38.7682C19.0593 38.8032 17.8506 38.6984 16.6769 38.6984C14.6448 38.681 12.5953 38.7333 10.5632 38.7333C9.66979 38.7333 8.88149 38.1224 8.82894 37.3544C8.72383 36.0103 9.40702 35.2597 10.4581 34.9106C11.7544 34.4742 13.0507 34.8059 14.347 34.7361C15.5207 34.6837 16.6944 34.6313 17.8856 34.6139C18.8491 34.6139 19.8126 34.6488 20.7936 34.6488C21.9848 34.6488 23.1935 34.6488 24.3847 34.7012C24.7175 34.7012 24.8577 34.5615 24.7701 34.2648C24.4372 33.1476 24.7175 31.9781 24.4723 30.861C24.3847 30.477 24.4898 30.1279 24.7701 29.7788C25.4182 28.9584 25.8737 27.9983 26.627 27.2303C27.2226 26.6194 27.7831 25.991 28.4313 25.4149C28.8867 25.0135 29.3072 24.6644 28.9919 23.9661C28.7992 23.5123 28.9393 23.1108 29.3247 22.7268C29.8327 22.2206 30.2356 21.6097 30.7261 21.0686C32.0399 19.5674 33.599 18.363 35.4559 17.5426C35.7187 17.4204 35.9289 17.4553 36.1041 17.6473C36.3668 17.9266 36.069 18.0837 35.9289 18.2408C35.0705 19.2008 34.1596 20.0736 33.126 20.8591C32.075 21.662 31.2341 22.7268 30.4458 23.7916C30.3057 23.9661 30.3407 24.0883 30.4984 24.228C32.1275 25.572 33.7567 26.9335 35.3683 28.2951C35.5785 28.4696 35.7537 28.5569 35.9814 28.2951C36.9624 27.2827 38.0836 26.375 38.9069 25.2404C39.8529 23.9312 41.1492 22.849 41.7798 21.2955C41.9024 20.9813 42.1652 20.7718 42.5331 20.9289C42.9009 21.0686 42.7433 21.3828 42.6732 21.6097C42.3754 22.7617 41.9725 23.809 41.2192 24.8215C40.2032 26.1481 39.1346 27.4223 38.0485 28.6965C37.6807 29.1329 37.3128 29.5344 36.8398 29.8486C36.3318 30.1802 35.8413 30.2326 35.3858 29.7962C35.053 29.4646 34.8253 29.4122 34.4224 29.7613C33.599 30.477 32.8808 31.3323 31.8823 31.821C31.3743 32.0654 30.9714 32.3971 30.6035 32.8334C30.3057 33.2 30.2356 33.5666 30.3582 34.0553C30.4809 34.5266 30.7261 34.6837 31.1816 34.6663C32.1801 34.6488 33.1786 34.6488 34.1771 34.6313C35.1056 34.6313 35.8238 35.0677 36.3668 35.7485C37.0851 36.6387 36.5245 38.0177 35.2807 38.3842C34.072 38.7333 32.8107 38.873 31.5494 38.8381C30.9538 38.8206 30.7962 39.0301 30.8663 39.6061C31.0239 40.7756 31.129 41.9626 31.2516 43.1495C31.3042 43.6383 31.4794 44.0223 31.9173 44.3714C32.583 44.8776 33.3713 45.3314 33.4414 46.3439C33.4589 46.658 33.5465 46.9548 33.3713 47.2341C32.9859 47.8974 33.2837 48.3687 33.7041 48.8923C35.0355 50.5157 36.5946 51.9645 37.4004 53.9893C37.8208 55.0366 38.2938 56.049 38.6091 57.1312C39.2748 59.3481 39.7828 62.5598 39.3098 64.9163C39.047 66.1905 38.7317 67.4997 37.9785 68.6343C37.6456 69.123 37.5055 69.734 37.2953 70.2925C36.9449 71.27 36.4019 72.1952 35.7362 72.8236C34.6151 73.8883 33.6691 75.1277 32.2677 75.9132C30.3933 76.9779 28.5014 77.9554 26.3817 78.3744C24.8752 78.6711 23.3511 78.7584 21.7745 78.7234C20.198 78.6885 18.6564 78.514 17.1148 78.3394C16.2389 78.2347 15.5382 77.6587 14.6974 77.3794C12.823 76.751 11.2464 75.599 9.80993 74.3073C8.95156 73.5392 8.28589 72.5443 7.69028 71.497C7.02461 70.3449 6.34142 69.2278 5.95603 67.9361C5.55312 66.5571 5.32539 65.1258 5.08014 63.7119C4.83489 62.3504 5.02759 61.0238 5.08014 59.6972C5.15021 58.0215 5.7283 56.4679 6.21879 54.8795C6.58667 53.71 7.35745 52.8023 7.69028 51.6503C7.83043 51.1964 8.25085 50.7775 8.60121 50.4284C9.63475 49.3636 10.5982 48.1767 11.7894 47.3388C12.858 46.6057 13.9792 45.8551 15.2755 45.4536C16.6594 45.0173 18.0258 44.511 19.4972 44.319C21.5643 44.0397 23.6139 43.7256 25.646 44.4412C26.0138 44.5634 26.4518 44.4936 26.8722 44.8602L26.9423 44.8776ZM22.8782 45.9249C22.3526 46.0297 21.8271 45.7504 21.284 45.9249C20.233 46.2566 19.0768 46.1518 18.0608 46.6406C17.4827 46.9199 16.782 46.8326 16.274 47.1643C15.3806 47.7403 14.347 48.0196 13.4361 48.6654C12.5427 49.3113 11.7719 50.0095 11.0537 50.795C9.93255 51.9994 9.19681 53.4656 8.46106 54.9144C7.98809 55.8221 7.65525 56.7996 7.58518 57.7596C7.46255 59.4353 7.12972 61.0936 7.46255 62.7868C7.69028 63.9563 7.79539 65.1607 8.07567 66.3127C8.25085 67.0109 8.61872 67.6393 8.7939 68.3201C9.51213 71.1304 11.3515 73.1028 13.6989 74.5342C15.8711 75.8433 18.3761 76.4892 20.9512 76.5765C22.9307 76.6463 24.9628 76.6986 26.8547 75.7735C27.9233 75.2498 29.1145 74.988 30.1305 74.2898C30.6911 73.9058 31.0765 73.3298 31.7071 73.0156C33.2136 72.2475 34.0895 70.8511 34.8603 69.4896C35.526 68.355 35.999 67.0458 36.2617 65.7018C36.3493 65.2829 36.6296 64.8988 36.6121 64.4974C36.577 63.5897 36.7697 62.6995 36.7697 61.7918C36.7697 59.9415 36.4719 58.2135 35.8588 56.4505C35.0004 54.0416 33.599 52.0168 32.0049 50.0967C31.7421 49.7826 31.3918 49.416 30.9538 49.3985C29.7802 49.3287 28.7992 48.9272 28.151 47.9148C27.7306 47.269 27.4153 46.7279 26.4693 46.5708C25.2781 46.3613 24.1394 45.7853 22.8782 45.9249ZM30.3758 48.0196C31.3568 47.9847 31.6195 47.8276 31.8472 46.9548C31.9874 46.3613 32.0399 45.6107 31.4093 45.314C30.078 44.6856 29.8152 43.5685 29.6751 42.2942C29.4999 40.6185 29.3247 38.9428 29.2021 37.2671C29.132 36.3769 29.0094 35.4168 28.7992 34.5092C28.5714 33.5142 28.7291 32.5367 29.4648 31.7512C30.5509 30.5992 32.0399 29.901 33.126 28.714C33.4238 28.3823 33.5465 28.3125 33.1611 27.9983C32.4253 27.4048 31.7246 26.7939 30.9714 26.2179C30.621 25.956 30.4809 26.0433 30.2707 26.2179C29.0794 27.2477 27.9583 28.3125 26.9248 29.4646C26.5219 29.9184 26.0664 30.4072 26.0839 31.0355C26.1189 32.1876 26.2065 33.3571 26.3817 34.4742C26.7321 36.6387 26.8547 38.8555 27.4503 40.9851C27.7831 42.1895 28.1335 43.3939 28.5189 44.546C28.8342 45.4536 29.2021 46.3962 29.4473 47.3214C29.6225 48.0196 29.8677 48.0021 30.3582 47.9847L30.3758 48.0196Z" fill="#1E6E67"/>
<path fill-rule="evenodd" clip-rule="evenodd" d="M56.3545 70.7465C56.2144 70.4847 55.9691 70.3276 55.7063 70.1879C54.1823 69.385 52.886 68.2853 51.6597 67.0983C51.1692 66.627 51.2393 65.8939 51.0817 65.283C50.6262 63.6073 50.5912 61.8617 50.2934 60.1511C50.0481 58.7721 49.8554 57.3757 49.6627 55.9793C49.3474 53.4832 48.7168 51.0394 48.2087 48.5608C48.0861 47.9499 47.9285 47.3389 47.7183 46.7629C47.3153 45.6283 46.4745 44.9126 45.2833 44.5286C45.038 45.3316 45.2833 46.1694 45.2132 46.9898C45.1081 48.3339 45.1081 49.6954 45.003 51.0394C44.9154 52.1217 44.6526 53.2214 44.1797 54.2338C44.022 54.5829 43.6892 54.6527 43.3914 54.6876C42.3228 54.8272 41.2892 55.1938 40.1856 55.0193C39.9754 54.9843 39.7652 54.9843 39.5375 54.9145C39.2221 54.7923 38.9769 54.6702 38.9944 54.2687C39.0295 53.8498 39.3973 53.9719 39.59 53.9021C40.4134 53.6577 41.2542 53.9545 42.0951 53.745C42.6907 53.6054 42.9009 53.2039 42.9885 52.7501C43.2162 51.5456 43.1812 50.3063 43.3213 49.1194C43.479 47.7404 43.2863 46.3614 43.6717 44.9999C43.8118 44.4413 43.5665 43.6559 43.4965 42.9751C43.4614 42.6609 43.2162 42.4165 42.8133 42.4689C41.8148 42.5736 40.8338 42.3292 39.8528 42.3118C39.0645 42.3118 38.3638 42.1198 38.1886 41.1423C38.5565 40.8455 39.082 40.8805 39.4849 40.9677C40.9739 41.2994 42.498 41.3343 44.0045 41.5263C44.6877 41.6136 45.1081 41.9103 45.0906 42.626C45.0906 43.01 45.2658 43.1496 45.5986 43.2893C46.8949 43.8129 48.1562 44.3715 48.962 45.6283C49.2248 46.0472 49.4525 46.4836 49.5576 46.9374C50.0306 49.1019 50.4861 51.2664 50.889 53.4308C51.3094 55.7524 51.7123 58.0739 51.9751 60.4129C52.0977 61.4254 52.3605 62.4901 52.4831 63.5025C52.5707 64.2182 52.6933 64.9164 52.8159 65.6321C52.886 66.0336 53.0261 66.3128 53.3064 66.6096C54.0422 67.4125 54.9356 68.006 55.7764 68.6868C56.4421 69.2279 57.3355 69.4723 57.8785 70.2054C57.9486 70.2927 58.0712 70.3625 58.1413 70.4498C58.7719 71.2352 58.5442 71.8113 57.5457 71.9334C57.1778 71.9858 56.81 71.9684 56.4596 71.9334C55.4961 71.8811 54.5327 72.0905 53.5517 71.9334C53.2188 71.8811 52.8685 71.8636 52.5531 71.7938C52.3254 71.7414 52.0276 71.6542 52.0802 71.34C52.1152 71.0432 52.3605 70.9036 52.6583 70.9036C53.5341 70.9036 54.41 70.9036 55.2859 70.8861C55.6012 70.8861 55.9166 70.8687 56.2319 70.8687C56.3019 70.8687 56.372 70.8512 56.4246 70.8338C56.3895 70.7989 56.3545 70.7639 56.337 70.729L56.3545 70.7465Z" fill="#1E6E67"/>
<path fill-rule="evenodd" clip-rule="evenodd" d="M41.0266 13.912C40.1857 14.1913 39.0646 13.9644 38.031 14.488C37.1376 14.9419 36.069 14.9419 35.1581 15.4481C33.9669 16.0939 32.7056 16.5827 31.5495 17.2983C30.0079 18.2758 28.4488 19.2708 27.17 20.5799C25.8912 21.8716 24.3146 22.7967 23.176 24.263C22.4753 25.1707 21.6694 26.0958 20.706 26.7766C20.3556 27.0209 20.3031 27.4573 20.0578 27.789C18.9367 29.3076 17.728 30.7913 17.0097 32.5717C16.8521 32.9557 16.5718 33.2525 16.3441 33.5841C16.0112 34.0903 15.5207 33.9507 15.0828 33.7238C14.6448 33.4969 14.8375 33.1827 14.9426 32.7986C15.2229 31.8037 15.5382 30.8262 16.1514 30.0058C17.255 28.5046 18.3586 26.986 19.5848 25.5896C20.5133 24.5248 21.4067 23.4077 22.4227 22.4302C23.3161 21.5574 24.3497 20.8418 25.2606 19.9864C25.6109 19.6548 26.0138 19.3406 26.2941 18.974C26.5043 18.6947 26.7321 18.4678 27.0299 18.3107C28.3612 17.6125 29.57 16.7048 30.7086 15.7273C31.2867 15.2386 32.0224 15.1513 32.6531 14.8895C33.4414 14.5404 34.2472 14.1564 35.1056 13.8771C36.1216 13.528 37.1726 13.3185 38.1887 13.0218C39.4675 12.6552 40.7638 12.5854 42.0776 12.6203C42.2703 12.6203 42.4455 12.725 42.6207 12.7774C42.8834 12.8647 42.9185 13.0567 42.9535 13.2836C42.9885 13.5803 42.7783 13.6676 42.5681 13.7374C42.1302 13.8771 41.6747 13.9469 41.009 13.912H41.0266Z" fill="#1E6E67"/>
<path fill-rule="evenodd" clip-rule="evenodd" d="M51.2393 73.225C51.2393 75.4593 49.5226 77.0827 47.4029 77.6412C45.4584 78.1474 43.987 77.4143 42.3578 76.8034C41.6221 76.5241 41.5695 75.8608 41.3067 75.372C40.9389 74.7262 40.5885 73.9756 40.536 73.1901C40.4133 71.2351 41.0265 69.5594 42.6381 68.3375C43.0235 68.0408 43.2862 67.8837 42.9534 67.2902C42.5505 66.592 42.7607 65.6843 42.5855 64.8814C42.3928 63.9912 42.3753 63.066 42.1301 62.1758C41.9199 61.4427 41.6045 60.8143 40.7462 60.7445C40.3783 60.7096 40.1856 60.5699 40.2031 60.2383C40.2031 59.8717 40.5184 59.767 40.7812 59.7146C41.5695 59.5401 42.9359 60.2732 43.4089 60.919C43.8643 61.5125 43.7417 62.1933 43.8818 62.8217C44.1972 64.1657 44.3373 65.5272 44.5125 66.8887C44.5475 67.2553 44.6176 67.395 45.0906 67.3251C47.0701 67.0109 48.6817 67.6044 49.908 69.2627C50.8014 70.4671 51.2218 71.7762 51.2218 73.2425L51.2393 73.225ZM42.1126 72.073C42.0775 72.9108 42.2877 73.644 42.4979 74.2898C42.7257 74.988 42.9534 75.8259 43.8293 76.1401C44.6351 76.4193 45.4584 76.5415 46.2993 76.5939C47.8934 76.6812 49.6101 74.8833 49.5926 73.1727C49.5751 71.3224 48.997 69.9609 47.5431 68.8437C46.2292 67.8313 43.3738 68.6168 42.8658 70.2053C42.7607 70.5195 42.6381 70.7464 42.4454 71.0082C42.2177 71.3399 42.0075 71.7239 42.095 72.073H42.1126Z" fill="#1E6E67"/>
<path fill-rule="evenodd" clip-rule="evenodd" d="M39.5025 8.51825C39.52 6.65053 41.009 5.23665 42.9185 5.30648C43.4265 5.32393 43.7068 5.13192 43.8294 4.69554C44.6002 2.14706 46.4746 0.698273 48.9621 0.244435C50.9241 -0.104671 52.9561 -0.174492 54.9181 0.645907C56.2845 1.22193 57.248 2.12961 58.0188 3.29911C58.8246 4.50353 58.3691 6.23161 57.2129 7.06946C56.2495 7.76767 55.2334 7.71531 54.2174 7.43602C53.5693 7.27893 53.1663 7.48839 52.7459 7.95968C52.0802 8.71026 51.327 9.37356 50.1883 9.35611C49.8205 9.35611 49.6278 9.21646 49.5051 8.93718C49.3825 8.64044 49.6453 8.43098 49.838 8.36115C50.7489 8.0295 51.2919 7.33129 51.835 6.58071C52.1678 6.10942 52.7985 5.98723 53.4291 6.12687C54.34 6.33634 55.2334 6.3887 56.1619 6.0396C56.81 5.79522 56.9852 5.3763 56.8976 4.80027C56.6874 3.54349 55.8466 2.758 54.848 2.05979C54.1649 1.57104 53.3766 1.32666 52.5883 1.16957C51.5547 0.977558 50.4686 1.04738 49.4701 1.36158C49.0847 1.48376 48.6643 1.55358 48.2964 1.71068C46.9826 2.2518 46.1417 3.2642 45.6337 4.57335C45.4936 4.97482 45.2834 5.35884 45.0907 5.74286C45.0556 5.83013 44.9505 5.93487 44.8805 5.93487C43.8819 5.91741 43.2513 6.89491 42.2353 6.87745C41.6922 6.87745 41.7623 7.47093 41.5521 7.80258C40.9039 8.86736 41.3068 10.1416 42.4805 10.5954C42.9535 10.7874 43.1112 11.1016 42.9885 11.4682C42.8659 11.9046 42.4104 11.8697 42.0601 11.7649C40.3258 11.2413 39.6251 10.3685 39.485 8.46589L39.5025 8.51825Z" fill="#1E6E67"/>
<path fill-rule="evenodd" clip-rule="evenodd" d="M46.0366 20.2657C46.0716 20.9116 45.9315 21.4178 45.5461 21.9065C45.1257 22.4476 44.9505 23.1458 44.933 23.8091C44.8804 24.9263 44.7403 26.0434 44.2848 27.0384C43.5841 28.5395 42.8484 29.9883 41.2017 30.8087C40.4134 31.2102 39.6952 31.9084 38.9594 32.4844C38.066 33.1826 37.1726 33.8983 35.9113 33.6714C35.7712 33.6539 35.561 33.8285 35.4734 33.5667C35.4033 33.3572 35.5785 33.1652 35.7362 33.0954C36.3843 32.7637 36.9274 32.2924 37.4704 31.8211C38.5215 30.896 39.7828 30.2501 40.8864 29.4123C41.6046 28.8712 41.9199 28.0333 42.3053 27.2478C42.936 26.0085 43.0936 24.6121 43.3739 23.3029C43.6367 22.116 44.1972 21.0337 44.3374 19.8468C44.425 19.0438 44.1622 18.3107 43.8994 17.595C43.6717 17.019 43.5316 16.443 43.3914 15.8495C43.3389 15.6401 43.2338 15.3084 43.5666 15.2386C43.8469 15.1862 44.2673 15.0466 44.4425 15.3957C45.1782 16.9667 46.1417 18.4678 46.0541 20.2483L46.0366 20.2657Z" fill="#1E6E67"/>
<path opacity="0.8" fill-rule="evenodd" clip-rule="evenodd" d="M10.4932 31.4197C10.6508 29.9709 10.4406 28.7839 10.4756 27.6319C10.5107 26.1656 10.4056 24.6819 10.6508 23.2331C10.7209 22.8491 10.4932 22.6396 10.388 22.3603C9.95011 21.1908 9.23188 20.2657 7.9706 19.8817C7.72535 19.8119 7.55018 19.6373 7.35748 19.4977C7.16478 19.3406 7.09471 19.1311 7.1823 18.9042C7.28741 18.6249 7.55018 18.6947 7.74287 18.7296C8.81145 18.9216 9.86252 19.1486 10.7209 19.8817C11.2289 20.3006 11.5267 20.8243 11.772 21.4178C12.3851 22.8316 12.315 24.2979 12.3325 25.7816C12.3325 26.602 12.2975 27.4398 12.35 28.2777C12.4201 29.2552 12.1048 30.2501 12.2624 31.2276C12.3676 31.9084 12.3325 32.5717 12.2449 33.235C12.1924 33.5841 12.0698 33.9332 11.6493 33.9332C11.2289 33.9332 10.9486 33.6714 10.9486 33.2525C10.9486 32.5193 10.3705 31.9084 10.4756 31.4197H10.4932Z" fill="#E06765"/>
<path fill-rule="evenodd" clip-rule="evenodd" d="M50.381 15.6225C50.8715 15.6574 51.362 15.6574 51.8349 15.7447C53.6042 16.0764 54.4976 14.9941 55.3735 13.7374C56.1793 12.5679 56.2494 11.1889 56.5297 9.87974C56.6698 9.23389 56.9326 8.71023 57.2479 8.16912C57.4581 7.80255 57.7559 7.85492 58.0362 8.13421C58.264 8.37858 58.3515 8.71023 58.3165 9.00697C58.0012 11.3111 57.4581 13.5279 56.0392 15.448C54.848 17.0364 53.394 17.8044 51.4145 17.0888C50.4335 16.7222 49.5927 16.9317 48.7518 17.4903C48.2263 17.8394 47.5957 18.0139 46.9475 18.0314C46.8249 18.0314 46.7022 18.1012 46.6147 17.979C46.5446 17.8568 46.6147 17.7346 46.7022 17.6648C47.7883 16.7397 48.7168 15.5178 50.3985 15.64L50.381 15.6225Z" fill="#30716A"/>
<path opacity="0.8" fill-rule="evenodd" clip-rule="evenodd" d="M35.9989 47.2691C35.9289 46.4661 36.069 45.6283 35.9464 44.7555C35.8588 44.0398 36.104 43.2544 36.069 42.5038C35.9989 41.439 36.3142 40.3044 35.7011 39.292C35.4909 38.9603 35.7011 38.7334 35.9814 38.5938C36.2792 38.4541 36.542 38.5065 36.7522 38.7683C37.523 39.7807 37.9259 40.8804 37.7682 42.207C37.6456 43.3067 37.8908 44.4239 37.8383 45.541C37.7682 46.8501 37.7682 48.1593 37.7507 49.4684C37.7507 49.9921 37.4704 50.4459 37.0149 50.5332C36.542 50.6205 36.3318 50.1143 36.2091 49.7303C35.9464 48.9448 35.8938 48.1244 35.9814 47.2516L35.9989 47.2691Z" fill="#E06765"/>
<path fill-rule="evenodd" clip-rule="evenodd" d="M45.511 60.2034C45.476 60.0463 45.4409 59.8892 45.3884 59.7321C45.3183 59.5052 45.1957 59.2958 45.1782 59.0688C45.0555 57.9866 44.495 57.0091 44.3723 55.9269C44.3373 55.5952 44.2672 55.1763 44.7752 55.0541C45.2657 54.9494 45.3358 55.3334 45.4935 55.6301C46.2292 57.0091 46.6321 58.5277 46.9474 60.0289C47.3679 61.9839 48.016 63.8516 48.5065 65.7891C48.5416 65.9113 48.6116 66.0335 48.5941 66.1382C48.5591 66.4524 49.0496 66.8714 48.454 67.0459C47.9284 67.1856 47.4905 66.8714 47.4029 66.4001C47.2277 65.5273 46.7548 64.7244 46.6672 63.869C46.5971 63.1359 46.2292 62.5774 45.8789 62.0013C45.546 61.4428 45.6862 60.8144 45.5285 60.2383L45.511 60.2034Z" fill="#30716A"/>
<path fill-rule="evenodd" clip-rule="evenodd" d="M46.8074 11.9918C46.1242 11.9918 45.5986 12.5329 44.933 12.7249C44.7578 12.7773 44.6001 12.9169 44.4074 12.9868C44.0396 13.1089 43.6717 12.9868 43.5666 12.6376C43.479 12.306 43.7418 12.1314 44.1271 12.0616C45.0381 11.9045 45.3359 11.311 45.003 10.5081C44.7928 10.0019 44.7228 9.47824 44.7403 8.93712C44.7753 8.13418 45.3534 7.47087 46.2118 7.19159C47.2278 6.87739 48.0686 7.0694 48.5942 7.75016C48.8044 8.01199 48.962 8.32618 48.7518 8.60547C48.5241 8.90221 48.2088 8.90221 47.8584 8.69275C47.3854 8.41346 46.8599 8.23891 46.422 8.79748C46.0015 9.32114 46.1417 9.8448 46.492 10.3335C46.6847 10.6128 46.9475 10.8223 47.2278 11.0318C47.473 11.2238 47.5781 11.5031 47.4906 11.8172C47.3854 12.114 47.1402 12.1314 46.8249 11.9918H46.8074Z" fill="#30716A"/>
<path fill-rule="evenodd" clip-rule="evenodd" d="M53.394 72.7014C54.883 72.7887 56.3895 72.876 57.8786 72.9632C58.3165 72.9982 58.7544 73.1203 58.772 73.6265C58.772 74.1677 58.2639 74.1502 57.8961 74.1677C56.2144 74.3073 54.5327 74.3248 52.8685 74.0106C52.3955 73.9233 51.8875 73.8709 51.94 73.2425C51.9926 72.649 52.5181 72.7014 52.9561 72.684C53.0962 72.684 53.2539 72.684 53.394 72.684V72.7014Z" fill="#1E6E67"/>
<path opacity="0.8" fill-rule="evenodd" clip-rule="evenodd" d="M11.9996 43.3417C11.9996 44.1446 11.9996 44.9475 11.9996 45.733C11.9996 46.1869 11.8594 46.4138 11.3865 46.4312C10.9135 46.4312 10.7033 46.2916 10.6858 45.7505C10.6507 44.2319 10.6332 42.6958 10.6858 41.1772C10.6858 41.0026 10.7383 40.8455 10.7558 40.671C10.8259 40.2695 11.0887 40.0775 11.4741 40.095C11.8945 40.1124 11.9295 40.479 11.947 40.7932C11.9646 41.6485 11.947 42.4863 11.947 43.3242H11.9821L11.9996 43.3417Z" fill="#E06765"/>
<path fill-rule="evenodd" clip-rule="evenodd" d="M15.4507 40.0076C16.2915 39.7981 16.2215 40.5313 16.1864 40.9327C16.1164 41.7706 16.3266 42.5386 16.5017 43.3241C16.5718 43.6034 16.6594 43.935 16.3966 44.1445C16.0288 44.4587 15.5908 44.2492 15.2054 44.1794C14.8551 44.1096 14.9777 43.7605 14.9076 43.5336C14.6273 42.7306 14.4346 41.9277 14.4697 41.0724C14.5047 40.2869 14.785 39.9378 15.4507 39.9901V40.0076Z" fill="#30716A"/>
<path fill-rule="evenodd" clip-rule="evenodd" d="M53.4816 11.7649C53.7794 11.7474 53.832 11.922 53.902 12.0616C54.0072 12.2711 54.0072 12.4456 53.7969 12.5678C53.2013 12.882 52.6583 13.266 52.2379 13.7897C52.0802 13.9992 51.7999 14.0515 51.5722 13.8944C51.2744 13.685 51.6072 13.5104 51.6773 13.3708C52.0452 12.5504 52.7984 12.1489 53.4816 11.7649Z" fill="#30716A"/>
<path fill-rule="evenodd" clip-rule="evenodd" d="M54.4801 9.84488C54.4801 10.1765 54.445 10.4384 54.0246 10.4384C53.6042 10.4384 53.5516 10.1416 53.5691 9.84488C53.5867 9.53069 53.6217 9.14667 54.0246 9.11176C54.5677 9.07685 54.375 9.5656 54.4801 9.84488Z" fill="#30716A"/>
<path fill-rule="evenodd" clip-rule="evenodd" d="M56.3545 70.7465C56.3545 70.7465 56.4246 70.8163 56.4421 70.8512C56.372 70.8512 56.3195 70.8687 56.2494 70.8861C56.2844 70.8337 56.3195 70.7988 56.3545 70.7465Z" fill="white"/>
<path fill-rule="evenodd" clip-rule="evenodd" d="M22.5629 48.2116C22.4052 50.3063 22.633 52.3835 22.4578 54.4955C22.4052 55.2461 22.5103 56.0316 22.3352 56.7822C22.2476 57.1662 22.1425 57.6026 21.652 57.5851C21.1615 57.5851 21.0388 57.1488 21.0213 56.7473C20.9688 55.7872 20.7936 54.8621 20.9513 53.8497C21.1089 52.8373 20.9513 51.7202 20.8812 50.6379C20.8111 49.5208 20.8637 48.3862 20.9162 47.2516C20.9513 46.7279 21.4943 46.8152 21.8271 46.693C22.1775 46.5708 22.2651 46.885 22.3702 47.1294C22.5279 47.4785 22.5103 47.8451 22.5454 48.1942L22.5629 48.2116Z" fill="#30716A"/>
<path fill-rule="evenodd" clip-rule="evenodd" d="M22.1074 67.7266C22.0724 69.3151 22.1775 71.0082 22.0023 72.6839C21.9498 73.2774 22.0724 73.8884 22.0724 74.4818C22.0724 74.988 21.8271 75.3022 21.3892 75.3721C20.9512 75.4419 20.671 75.0928 20.6009 74.6738C20.4082 73.3647 20.2856 72.073 20.4432 70.7464C20.5483 69.9085 20.3907 69.0707 20.4257 68.2328C20.4432 67.587 20.5834 66.9935 20.7936 66.4C20.8812 66.1382 20.9863 65.9287 21.3542 65.9811C21.687 66.0335 21.9147 66.1382 21.9673 66.4873C22.0198 66.8713 22.0549 67.2553 22.1074 67.7266Z" fill="#30716A"/>
<path fill-rule="evenodd" clip-rule="evenodd" d="M14.8901 50.2189C14.8901 49.9397 14.855 49.608 15.2229 49.608C15.5557 49.608 15.9411 49.5906 16.1338 50.0269C16.6418 51.2139 17.3601 52.2961 17.9031 53.4831C18.4462 54.6526 18.8491 55.9094 19.5498 57.0265C19.7425 57.3407 19.795 57.812 19.9352 58.2135C19.9877 58.388 19.9877 58.5626 19.795 58.6499C19.6198 58.7371 19.4622 58.6848 19.322 58.5626C18.7965 58.0913 18.2885 57.62 17.9206 56.9916C16.817 55.1413 16.0813 53.1165 15.1178 51.1964C14.9601 50.8822 14.9076 50.5506 14.9076 50.2189H14.8901Z" fill="#30716A"/>
<path fill-rule="evenodd" clip-rule="evenodd" d="M24.0169 57.6549C24.0869 57.4629 24.0869 57.0789 24.2796 56.8869C24.9278 56.2236 25.1205 55.3159 25.5935 54.5828C25.7686 54.3035 25.8913 53.9544 26.119 53.71C26.9248 52.8547 27.3277 51.7899 27.9233 50.8124C28.2386 50.2713 28.7817 50.376 29.1846 50.4633C29.5875 50.5331 29.57 50.9346 29.4474 51.3535C29.2897 51.9121 28.9394 52.3659 28.624 52.7674C27.6606 53.9718 27.1701 55.4555 26.2416 56.6599C25.8387 57.1836 25.4183 57.6898 24.9804 58.1611C24.8052 58.3531 24.5249 58.4753 24.2446 58.3531C23.9994 58.2484 24.0169 58.004 24.0169 57.6724V57.6549Z" fill="#30716A"/>
<path fill-rule="evenodd" clip-rule="evenodd" d="M23.9992 61.8094C24.1919 62.8916 23.4036 63.8167 22.2124 63.4851C21.9847 63.4327 21.7745 63.4327 21.7044 63.1709C21.6343 62.909 21.8796 62.8392 22.0197 62.7345C22.5803 62.2632 22.738 61.7046 22.3526 61.0937C22.1774 60.8144 22.0022 60.3431 21.4767 60.5351C21.0212 60.7097 20.7935 61.4079 21.0387 61.8966C21.1964 62.1934 21.4066 62.4552 21.4767 62.8043C21.5643 63.2058 21.3015 63.2931 21.0387 63.2931C20.4431 63.2931 19.4446 62.5425 19.287 61.9839C19.1293 61.4952 19.6899 60.2558 20.1278 59.9242C20.9336 59.3133 21.827 59.1736 22.738 59.4354C23.281 59.61 23.6839 60.0813 23.8591 60.6573C23.9817 61.0413 24.0868 61.4603 24.0343 61.8094H23.9992Z" fill="#30716A"/>
<path fill-rule="evenodd" clip-rule="evenodd" d="M23.4037 65.8066C23.4037 65.5972 23.3511 65.3528 23.5964 65.283C23.8942 65.2131 24.1219 65.3702 24.2795 65.5972C24.7 66.2605 25.0854 66.9412 25.3656 67.6743C26.1014 69.6468 26.8722 71.6018 27.6605 73.5568C27.8181 73.9233 27.7481 74.2201 27.4327 74.3423C27.1349 74.4645 26.732 74.5168 26.4868 74.1328C25.0503 71.6542 24.262 68.9311 23.4562 66.2081C23.4212 66.0685 23.4212 65.9114 23.4037 65.8066Z" fill="#30716A"/>
<path fill-rule="evenodd" clip-rule="evenodd" d="M25.5234 63.7468C25.9788 63.9214 26.4693 64.0087 26.8723 64.2879C28.7116 65.5273 30.5159 66.8015 32.3203 68.0757C32.4079 68.1456 32.548 68.2154 32.5655 68.3027C32.6356 68.6867 33.2312 69.0009 32.8458 69.3849C32.4604 69.7689 31.9524 69.4547 31.532 69.2802C30.9539 69.0358 30.6035 68.4947 30.078 68.163C29.6576 67.8837 29.2722 67.5521 28.8167 67.3252C27.6781 66.7666 26.7496 65.9462 25.7686 65.1433C25.5935 65.0036 25.4533 64.7767 25.2256 64.672C24.9803 64.5498 24.8052 64.3752 24.9103 64.0959C24.9979 63.869 25.2256 63.7468 25.5059 63.7294L25.5234 63.7468Z" fill="#1E6E67"/>
<path fill-rule="evenodd" clip-rule="evenodd" d="M25.8912 60.57C25.681 60.57 25.2431 60.57 25.173 60.0638C25.1029 59.575 25.5759 59.5227 25.9087 59.4179C26.5219 59.2085 26.8722 58.6324 27.4503 58.3531C28.7466 57.6898 30.0604 57.044 31.1816 56.084C31.5845 55.7523 32.11 55.4905 32.6881 55.4905C32.9859 55.4905 33.126 55.6301 33.2136 55.8745C33.3187 56.1538 33.2136 56.3109 33.0034 56.4854C31.7597 57.5502 30.2707 58.2135 28.8868 59.0688C28.2912 59.4354 27.6955 59.8019 27.1525 60.2383C26.8197 60.5001 26.4868 60.6223 25.8912 60.5874V60.57Z" fill="#30716A"/>
<path fill-rule="evenodd" clip-rule="evenodd" d="M32.005 62.7519C30.6211 62.8567 28.8342 62.5425 27.0825 62.8043C26.5394 62.8916 26.0314 62.7694 25.5059 62.717C25.2081 62.6821 25.0154 62.5774 25.0154 62.2283C25.0154 61.8792 25.1906 61.7919 25.5234 61.7744C27.1175 61.7395 28.6941 61.5475 30.2882 61.6872C31.094 61.757 31.9174 61.757 32.7407 61.6522C33.494 61.5475 34.2647 61.5999 35.018 61.6173C35.4384 61.6173 35.8413 61.7919 35.8238 62.2632C35.8238 62.717 35.3684 62.7519 35.0005 62.7694C34.1246 62.7694 33.2487 62.7694 32.005 62.7694V62.7519Z" fill="#30716A"/>
<path fill-rule="evenodd" clip-rule="evenodd" d="M19.6898 65.3877C19.8649 65.8415 19.7774 66.0859 19.7248 66.3128C19.2168 68.3202 18.7263 70.3625 17.5526 72.1254C17.2373 72.5967 16.9045 73.0331 16.4315 73.3648C16.2213 73.5219 16.011 73.7837 15.6607 73.5219C15.3279 73.26 15.468 72.9982 15.6432 72.7713C16.1162 72.0382 16.3264 71.2003 16.6942 70.4323C17.2198 69.3151 17.7803 68.2155 18.2884 67.0983C18.5862 66.435 19.462 66.3303 19.6723 65.4052L19.6898 65.3877Z" fill="#30716A"/>
<path fill-rule="evenodd" clip-rule="evenodd" d="M11.9469 69.9086C11.6666 69.9086 11.4389 69.8213 11.3338 69.6119C11.2287 69.4024 11.4564 69.2802 11.544 69.1231C12.1221 68.0409 13.3659 67.7791 14.2067 66.9936C14.8549 66.3826 15.4154 65.6844 16.1337 65.1608C16.5891 64.8291 16.992 64.4626 17.4475 64.1484C17.6227 64.0262 17.8854 63.9389 18.0606 64.1135C18.2533 64.3055 18.1657 64.5673 18.0431 64.7768C17.6927 65.3877 17.2723 65.9637 16.7818 66.4699C15.4505 67.8314 13.9089 68.9137 12.2272 69.8039C12.1221 69.8563 11.9995 69.8912 11.9469 69.9086Z" fill="#30716A"/>
<path fill-rule="evenodd" clip-rule="evenodd" d="M14.7149 62.717C13.6288 62.8567 12.5778 62.717 11.5092 62.8392C10.6508 62.944 9.73991 62.7519 8.8465 62.6996C8.58374 62.6996 8.16331 62.6123 8.19835 62.1585C8.2509 61.7046 8.60126 61.6697 8.95161 61.6697C11.1063 61.6348 13.2785 61.5475 15.4332 61.5999C16.1339 61.6174 16.9222 61.3904 17.5879 61.949C17.9382 62.2457 17.9207 62.3156 17.5353 62.525C16.7996 62.909 16.0113 62.5948 15.258 62.7345C15.0828 62.7694 14.8726 62.717 14.6974 62.6996L14.7149 62.717Z" fill="#30716A"/>
<path fill-rule="evenodd" clip-rule="evenodd" d="M17.0447 59.8369C16.0112 59.6798 14.9426 59.3307 13.9791 58.8245C12.7529 58.1612 11.4916 57.5851 10.1778 57.1313C9.80988 56.9917 9.3369 56.8695 9.49456 56.3807C9.65222 55.9443 10.2478 55.8571 10.5631 55.9793C12.2273 56.6076 13.8915 57.2535 15.4681 58.0564C16.1163 58.3881 16.9571 58.4928 17.3951 59.2085C17.4827 59.3656 17.7629 59.4703 17.6403 59.6798C17.5352 59.8369 17.3075 59.8718 17.0447 59.8543V59.8369Z" fill="#30716A"/>
<path fill-rule="evenodd" clip-rule="evenodd" d="M45.7388 71.9334C46.2993 71.8461 46.5796 72.1428 46.5971 72.5967C46.5971 72.876 46.457 73.3996 46.019 73.2251C45.6512 73.0854 44.9505 73.4345 44.968 72.7014C44.968 72.2999 45.1256 71.7937 45.7388 71.9334Z" fill="#30716A"/>
<path fill-rule="evenodd" clip-rule="evenodd" d="M331.208 33.776C331.418 33.1302 328.072 31.0181 328.072 31.0181L328.212 25.7291C328.212 25.7291 318.683 22.0286 308.803 26.4273C298.905 30.8261 295.367 38.7508 295.367 38.7508L295.086 41.0549L296.26 41.5785H295.332L296.523 49.8873C296.523 49.8873 299.816 49.5382 303.25 49.1716C306.683 48.805 308.295 50.5331 308.295 50.5331L307.016 46.3264L307.314 46.466L310.852 45.5583L314.496 45.1569C312.884 40.0599 319.156 43.1146 321.415 40.7756C323.062 39.0824 323.167 38.6635 323.08 38.5588L327.389 40.7756C327.389 40.7756 330.945 34.5266 331.19 33.7935L331.208 33.776Z" fill="#CE7D80"/>
<path fill-rule="evenodd" clip-rule="evenodd" d="M306.963 45.9249C306.893 46.1169 306.841 46.3264 306.823 46.5184C306 46.658 304.266 46.9722 302.724 47.461C300.604 48.1243 297.556 49.7651 297.556 49.7651C297.556 49.7651 302.654 48.9621 304.038 49.1541C305.422 49.3462 307.979 50.2887 307.979 50.2887L307.909 49.9047L317.281 58.964L323.991 58.7371L324.884 46.7453C324.884 46.7453 313.795 43.8826 306.946 45.9249H306.963Z" fill="#69ACA3"/>
<path fill-rule="evenodd" clip-rule="evenodd" d="M351.563 16.0589C349.391 17.2633 347.149 16.7746 345.064 16.9317C344.066 16.4255 341.263 16.6524 340.405 16.7571C339.248 16.8968 341.753 10.735 340.615 10.6478C335.832 10.3859 337.794 16.6 337.269 16.5302C336.218 16.408 335.184 16.2858 334.133 16.2335C332.241 16.1462 330.367 15.9891 328.545 15.5352C327.161 15.1861 325.76 14.9243 324.551 14.069C324.253 13.8595 323.833 13.5628 323.955 13.1788C324.113 12.7249 324.323 12.2536 324.814 11.9394C326.653 10.7699 328.668 10.3685 330.717 10.1939C331.821 10.1066 332.942 10.159 334.046 10.2288C336.13 10.3685 338.18 10.7699 340.317 10.2288C342.437 9.70517 344.469 10.159 346.466 10.927C348.34 11.6427 350.057 12.5678 351.423 14.1388C351.633 14.3832 351.809 14.6625 351.931 14.9592C352.124 15.4305 352.141 15.7098 351.528 16.0414L351.563 16.0589Z" fill="#FCF163"/>
<path fill-rule="evenodd" clip-rule="evenodd" d="M280.319 22.9363C281.125 21.6446 282.473 22.2206 283.56 22.1333C284.243 22.081 284.996 21.9239 285.749 22.1333C286.415 22.3253 286.73 22.6744 286.73 23.3377C286.73 24.0709 286.117 24.1407 285.679 24.1756C285.084 24.2105 284.453 24.3676 283.84 24.036C283.682 23.9487 283.384 24.1058 283.139 24.1407C282.106 24.3327 281.16 24.1232 280.301 23.4948V22.9188L280.319 22.9363Z" fill="#1E6E67"/>
<path fill-rule="evenodd" clip-rule="evenodd" d="M342.262 9.09424V9.23388C342.016 9.47825 341.736 9.44334 341.438 9.32116C341.368 9.26879 341.351 9.18151 341.386 9.11169H342.262V9.09424Z" fill="#1E6E67"/>
<path fill-rule="evenodd" clip-rule="evenodd" d="M302.969 42.7481C299.693 42.7481 296.4 42.8004 293.124 42.7481C292.143 42.7481 291.162 42.8528 290.181 42.6259C289.498 42.4688 289.253 41.98 289.183 41.4913C289.008 40.2519 289.568 39.3094 290.882 38.9253C292.161 38.5588 293.422 38.873 294.701 38.7857C295.875 38.7159 297.048 38.6984 298.222 38.6461C298.993 38.6111 299.763 38.6461 300.534 38.681C302.864 38.7857 305.194 38.7333 307.524 38.8381C308.943 38.9079 310.362 38.7682 311.781 38.8206C312.621 38.8381 313.497 38.681 314.373 38.6635C315.179 38.6635 316.248 39.1697 316.598 40.1298C316.966 41.1596 316.37 42.3117 315.284 42.5386C313.795 42.8528 312.271 42.9575 310.765 42.9575C309.573 42.9575 308.4 42.7306 307.173 42.7655C305.947 42.8004 304.686 42.8877 303.442 42.6957C303.285 42.6433 303.144 42.7481 303.004 42.7481H302.969Z" fill="#1E6E67"/>
<path fill-rule="evenodd" clip-rule="evenodd" d="M329.561 58.0215C329.333 57.5851 329.333 57.0964 329.263 56.6426C329.001 54.7574 328.58 52.8897 328.072 51.0568C327.722 49.8175 326.881 48.9448 325.532 48.5782C325.304 49.3811 325.532 50.219 325.462 51.0394C325.357 52.3835 325.357 53.745 325.252 55.089C325.164 56.1538 324.919 57.2535 324.446 58.2659C324.288 58.615 323.955 58.6848 323.675 58.7197C322.642 58.8419 321.626 59.2259 320.54 59.0514C320.277 59.0165 320.014 59.0165 319.769 58.9117C319.453 58.7896 319.296 58.5975 319.313 58.2659C319.313 57.8819 319.664 58.0041 319.856 57.9342C320.662 57.6724 321.521 57.9517 322.361 57.7771C323.027 57.6375 323.202 57.2186 323.307 56.6949C323.57 55.5254 323.483 54.3035 323.64 53.134C323.815 51.7725 323.623 50.411 323.991 49.0495C324.148 48.4909 323.85 47.7054 323.815 47.0247C323.798 46.6756 323.5 46.4836 323.062 46.501C322.011 46.5708 320.96 46.3788 319.909 46.309C319.751 46.309 319.576 46.2741 319.418 46.2043C318.998 46.0472 318.63 45.733 318.7 45.2966C318.77 44.8602 319.243 44.9824 319.594 45.0173C320.277 45.0871 320.96 45.2268 321.661 45.2617C322.572 45.2966 323.465 45.4886 324.376 45.5933C325.042 45.6632 325.409 45.9774 325.392 46.6581C325.392 47.0421 325.532 47.1643 325.882 47.3214C326.723 47.6705 327.582 47.9847 328.282 48.5782C329.123 49.3113 329.631 50.1841 329.929 51.2838C330.507 53.5355 330.735 55.8571 331.418 58.0913C331.611 58.7023 331.523 59.4005 331.663 60.0463C332.066 61.949 332.224 63.904 332.557 65.824C332.679 66.5921 332.802 67.4125 332.837 68.2329C332.89 69.4024 333.31 70.5195 334.361 71.3748C335.587 72.3872 337.041 73.0505 338.162 74.1851C338.285 74.3073 338.408 74.4121 338.513 74.5517C339.038 75.3023 338.863 75.8434 337.952 75.8958C336.305 75.9656 334.659 76.1052 333.03 75.8434C332.767 75.8085 332.382 75.7212 332.417 75.3546C332.452 74.9532 332.802 74.9183 333.135 74.9183C334.326 74.9183 335.5 74.9183 336.778 74.9183C336.586 74.5517 336.358 74.3597 336.078 74.22C334.519 73.4346 333.222 72.3 331.979 71.113C331.471 70.6417 331.558 69.8737 331.401 69.2453C330.945 67.6045 331.015 65.8764 330.595 64.2007C330.384 63.3105 330.384 62.3679 330.087 61.4777C330.017 61.2508 330.087 61.0413 330.192 60.8493C330.192 59.9765 329.789 59.1387 329.876 58.2484C329.876 58.0913 329.736 58.0913 329.631 58.039L329.561 58.0215Z" fill="#1E6E67"/>
<path fill-rule="evenodd" clip-rule="evenodd" d="M327.669 25.9736C326.811 26.0085 326.04 25.6244 325.287 25.3626C324.113 24.9611 322.939 25.031 321.783 24.9961C317.789 24.8215 313.918 25.3452 310.134 26.7765C307.541 27.754 305.036 28.8537 302.794 30.4421C301.235 31.5418 299.851 32.816 298.73 34.4045C298.064 35.3471 297.276 36.2198 296.645 37.1973C296.347 37.6686 295.91 37.529 295.559 37.337C295.156 37.11 295.472 36.7784 295.559 36.5166C296.558 34.0379 298.537 32.3273 300.412 30.5643C301.918 29.1504 303.687 28.1031 305.474 27.0907C306 26.794 306.578 26.3925 307.296 26.4623C307.489 26.4623 307.699 26.3227 307.909 26.2354C309.328 25.6594 310.677 24.9437 312.219 24.6819C313.217 24.5248 314.181 24.1757 315.162 23.9487C317.124 23.4774 319.103 23.5298 321.1 23.5298C323.307 23.5298 325.462 23.8615 327.529 24.6819C327.739 24.7691 327.879 24.9262 328.055 25.0484C328.3 25.2404 328.265 25.4673 328.195 25.7117C328.107 25.991 327.862 25.9561 327.652 25.9561L327.669 25.9736Z" fill="#1E6E67"/>
<path opacity="0.8" fill-rule="evenodd" clip-rule="evenodd" d="M290.794 35.4517C290.987 33.968 290.724 32.7985 290.794 31.6465C290.864 30.1628 290.707 28.6791 290.987 27.1954C291.04 26.9161 290.829 26.759 290.759 26.5321C290.409 25.5546 289.813 24.7516 288.973 24.1407C288.657 23.9138 288.202 24.0011 287.886 23.7043C287.659 23.4948 287.396 23.3028 287.536 22.9886C287.694 22.6221 288.009 22.8141 288.289 22.8665C289.165 23.0236 289.989 23.2156 290.777 23.7392C291.986 24.5247 292.301 25.764 292.581 26.9685C292.879 28.2601 292.651 29.6217 292.721 30.9657C292.791 32.3796 292.581 33.8109 292.634 35.2423C292.651 35.9056 292.704 36.5689 292.599 37.2322C292.546 37.6162 292.441 38.0002 291.968 37.9653C291.548 37.9478 291.302 37.6511 291.302 37.2322C291.302 36.4991 290.689 35.9056 290.829 35.4343L290.794 35.4517Z" fill="#E06765"/>
<path opacity="0.8" fill-rule="evenodd" clip-rule="evenodd" d="M317.964 45.2791C318.192 45.8377 317.999 46.6406 318.07 47.4261C318.14 48.264 318.245 49.1367 318.105 49.9746C317.912 51.1441 318.14 52.2961 318.017 53.4482C317.964 53.9893 317.754 54.478 317.264 54.5653C316.808 54.6526 316.598 54.1289 316.475 53.7449C316.055 52.5056 316.213 51.2139 316.3 49.9571C316.353 49.2938 316.16 48.648 316.248 47.9672C316.44 46.4835 316.335 44.9824 316.248 43.4987C316.248 43.2543 316.335 43.0797 316.545 42.975C316.703 42.8877 316.843 42.975 316.931 43.0623C317.421 43.6557 318.017 44.1794 317.929 45.2791H317.964Z" fill="#E06765"/>
<path fill-rule="evenodd" clip-rule="evenodd" d="M328.931 70.6417C329.018 71.0083 328.72 71.0606 328.493 71.0432C328.055 71.0083 327.634 70.7639 327.582 70.3275C327.477 69.2976 326.828 68.4074 326.828 67.3601C326.828 66.9412 326.478 66.627 326.303 66.2953C325.637 64.9862 325.48 63.5898 325.374 62.1759C325.357 61.8442 324.937 62.0013 324.954 61.6871C324.989 60.9889 324.551 60.3954 324.569 59.6798C324.569 59.3307 324.691 59.1387 325.007 59.0514C325.357 58.9641 325.48 59.2259 325.602 59.4529C326.461 61.0587 326.899 62.8043 327.266 64.5498C327.634 66.3302 328.282 68.0409 328.703 69.8039C328.773 70.0831 328.843 70.3624 328.913 70.6417H328.931Z" fill="#1E6E67"/>
<path fill-rule="evenodd" clip-rule="evenodd" d="M336.253 41.0549C336.884 40.9501 337.286 40.6534 337.707 40.0948C338.145 39.5013 338.162 38.7508 338.653 38.2096C338.881 37.9653 338.846 37.5813 338.916 37.2496C339.161 36.2023 339.476 35.155 339.756 34.1077C339.809 33.8982 339.932 33.7411 340.142 33.7411C340.317 33.7411 340.422 33.9331 340.475 34.0902C340.527 34.2997 340.597 34.5266 340.562 34.7186C340.194 36.8307 339.984 38.9951 338.951 40.9327C338.513 41.7531 337.794 42.5211 336.621 42.2418C336.376 42.1895 336.148 42.1022 335.955 41.9625C335.71 41.7705 335.395 41.5785 335.535 41.212C335.657 40.8454 335.99 41.0549 336.235 41.0549H336.253Z" fill="#1E6E67"/>
<path fill-rule="evenodd" clip-rule="evenodd" d="M333.643 76.6812C335.132 76.7684 336.621 76.8557 338.11 76.943C338.232 76.943 338.338 76.9779 338.46 77.0128C338.828 77.0826 339.021 77.327 339.003 77.6761C338.986 77.9903 338.688 78.0776 338.425 78.1125C337.216 78.1998 335.99 78.3394 334.764 78.1998C334.168 78.1299 333.573 78.0427 332.96 77.9554C332.557 77.903 332.171 77.7808 332.171 77.2746C332.171 76.6986 332.627 76.6637 333.047 76.6462C333.24 76.6462 333.433 76.6462 333.625 76.6462L333.643 76.6812Z" fill="#1E6E67"/>
<path opacity="0.8" fill-rule="evenodd" clip-rule="evenodd" d="M292.301 47.3214C292.301 48.1418 292.301 48.9622 292.301 49.7826C292.301 50.2015 292.143 50.4284 291.723 50.4284C291.337 50.4284 291.04 50.3586 291.022 49.8349C290.97 48.264 290.97 46.693 291.022 45.1046C291.022 44.93 291.092 44.7729 291.127 44.6158C291.197 44.2318 291.495 44.1271 291.828 44.1445C292.213 44.162 292.266 44.5111 292.266 44.7904C292.283 45.6282 292.266 46.4835 292.266 47.3214H292.301Z" fill="#E06765"/>
<path fill-rule="evenodd" clip-rule="evenodd" d="M295.734 44.0398C296.523 43.8477 296.523 44.511 296.47 44.9649C296.383 45.7853 296.61 46.5184 296.75 47.2864C296.82 47.6006 296.943 47.9323 296.68 48.1592C296.312 48.4559 295.875 48.2639 295.489 48.1767C295.139 48.1068 295.279 47.7403 295.209 47.5134C294.929 46.7279 294.718 45.9598 294.771 45.122C294.806 44.3365 295.086 43.9525 295.734 44.0048V44.0398Z" fill="#1E6E67"/>
<path fill-rule="evenodd" clip-rule="evenodd" d="M341.403 26.5321C341.386 27.0209 340.878 27.6493 340.492 27.6144C340.212 27.5969 339.984 27.4573 339.967 27.1256C339.967 26.759 340.58 26.0085 340.895 26.0608C341.158 26.0957 341.438 26.1656 341.403 26.5321Z" fill="#1E6E67"/>
<path fill-rule="evenodd" clip-rule="evenodd" d="M329.561 58.0215C329.701 57.9691 329.736 57.6724 329.964 57.812C330.157 57.9342 330.104 58.0739 329.999 58.231C329.701 58.6499 329.999 59.0688 330.052 59.4703C330.104 59.9241 330.139 60.3605 330.122 60.8144C329.982 60.1336 329.841 59.4354 329.719 58.7546C329.684 58.5102 329.719 58.231 329.561 58.004V58.0215Z" fill="#1E6E67"/>
<path fill-rule="evenodd" clip-rule="evenodd" d="M302.969 42.748C303.092 42.5735 303.25 42.5386 303.407 42.6957C303.267 42.7306 303.144 43.0448 302.969 42.748Z" fill="#1E6E67"/>
<path fill-rule="evenodd" clip-rule="evenodd" d="M319.664 65.1955C319.436 63.7642 319.401 62.298 318.875 60.8666C318.367 59.5226 317.842 58.1785 317.176 56.9217C316.458 55.5428 315.389 54.3383 314.321 53.2212C313.094 51.947 311.693 50.7775 310.187 49.7476C308.155 48.3512 305.947 48.1068 303.705 48.037C301.48 47.9672 299.22 48.2464 297.083 48.9796C296.295 49.2414 295.384 49.3985 294.753 49.8174C293.65 50.568 292.406 51.0917 291.39 52.0517C289.726 53.6052 288.237 55.2286 287.221 57.2708C286.958 57.7945 286.888 58.388 286.66 58.8593C285.96 60.2906 285.627 61.7743 285.504 63.3453C285.381 64.7941 285.224 66.2254 285.451 67.6917C285.714 69.4372 286.03 71.1478 286.625 72.8061C287.011 73.8534 287.659 74.7436 288.202 75.7036C288.762 76.6811 289.481 77.5539 290.251 78.3743C291.18 79.3693 292.511 79.8231 293.51 80.7308C293.632 80.8355 293.79 80.9402 293.948 80.9752C294.929 81.2021 295.804 81.6559 296.698 82.0574C297.276 82.3192 297.837 82.389 298.45 82.4414C299.08 82.4938 299.728 82.4938 300.342 82.7381H304.721C304.826 82.5985 304.966 82.616 305.106 82.581C306.228 82.3716 307.401 82.3716 308.47 81.8654C309.433 81.4115 310.432 81.045 311.378 80.5562C312.324 80.0675 313.235 79.5787 313.97 78.7932C314.426 78.3045 314.881 77.6936 315.389 77.3794C316.475 76.6986 316.966 75.5989 317.439 74.6214C318.035 73.3646 318.613 72.0729 319.068 70.7289C319.699 68.8961 319.961 67.0633 319.646 65.1781L319.664 65.1955ZM316.861 68.4771C316.861 69.0357 316.545 69.5943 316.405 70.1529C316.125 71.3049 315.687 72.422 315.144 73.4345C314.426 74.7436 313.55 76.0528 312.219 76.8732C311.658 77.2223 311.203 77.6936 310.695 78.095C309.643 78.9154 308.312 79.2122 307.121 79.7882C305.264 80.6959 303.302 80.5911 301.375 80.5737C298.747 80.5388 296.207 79.8056 293.948 78.514C292.126 77.4841 290.584 75.9655 289.743 74.0279C289.095 72.4919 288.394 70.9558 288.184 69.2277C287.974 67.5869 287.571 65.9636 287.694 64.2879C287.799 62.8565 287.904 61.4078 288.254 60.0113C288.394 59.4702 288.727 58.964 288.99 58.4578C289.866 56.817 290.812 55.246 292.196 53.9369C293.124 53.0641 294.14 52.3659 295.244 51.8073C296.277 51.2837 297.416 51.0218 298.502 50.6204C299.518 50.2538 300.569 50.1491 301.603 49.992C303.144 49.7476 304.721 49.9222 306.228 50.4284C307.384 50.8124 308.61 51.0393 309.573 51.8946C309.714 52.0168 309.941 51.9819 310.011 52.1913C311.29 53.1514 312.481 54.1813 313.357 55.5602C313.778 56.2235 314.391 56.7297 314.776 57.4454C315.319 58.4403 315.635 59.5226 316.125 60.5524C316.913 62.2107 317.054 63.9737 317.054 65.789C317.054 66.6967 316.878 67.5869 316.878 68.4946L316.861 68.4771Z" fill="#1E6E67"/>
<path fill-rule="evenodd" clip-rule="evenodd" d="M309.976 52.1914C309.784 52.1565 309.626 52.0692 309.538 51.8946C309.678 51.9994 310.151 51.6153 309.976 52.1914Z" fill="#1E6E67"/>
<path fill-rule="evenodd" clip-rule="evenodd" d="M352.387 13.9468C352.072 13.5279 351.721 13.2312 351.353 12.882C349.882 11.5031 348.077 10.77 346.221 10.0717C344.942 9.60045 343.593 9.47826 342.279 9.21643C341.981 9.23389 341.701 9.32116 341.403 9.21643C341.105 9.25134 340.808 9.30371 340.527 9.21643C340.212 9.58299 339.774 9.39098 339.389 9.4608C337.514 9.80991 335.657 9.56554 333.783 9.42589C332.364 9.32116 330.91 9.42589 329.474 9.56554C328.177 9.68772 327.039 10.1939 325.83 10.5779C325.059 10.8223 324.341 11.2587 323.903 11.922C323.15 13.0566 323.71 14.4356 325.112 15.1163C326.32 15.6923 327.599 16.0589 328.896 16.3557C330.192 16.6698 331.541 16.8619 333.082 17.1586C332.522 17.2459 332.382 17.5252 332.206 17.8219C331.926 18.3106 331.541 18.555 330.963 18.2059C330.297 17.8044 329.614 17.8219 328.878 18.0837C327.634 18.5027 326.758 19.2881 326.513 20.5798C326.25 21.9588 326.653 23.1458 327.88 23.9836C328.212 24.2105 328.615 24.4375 328.896 24.0534C329.123 23.7567 329.053 23.3727 328.685 23.041C327.88 22.3079 327.862 21.1908 328.545 20.318C329.351 19.3056 330.069 19.166 331.173 19.8118C331.663 20.0911 332.154 20.1085 332.574 19.6896C332.995 19.2881 333.45 18.9216 333.801 18.4677C334.291 17.8394 334.974 17.5426 335.64 17.211C335.973 17.0364 336.183 17.0713 336.043 17.595C335.675 18.9565 335.377 20.3355 335.027 21.7493C334.676 21.4701 334.344 21.313 333.993 21.2257C332.837 20.9289 331.768 21.3828 331.401 22.3428C331.208 22.8141 331.05 23.3378 331.138 23.8265C331.243 24.4025 330.893 24.5596 330.49 24.6469C330.227 24.6993 329.964 24.6993 329.684 24.6644C329.228 24.612 329.053 24.9088 329.018 25.2579C328.983 25.6244 329.246 25.8339 329.579 25.9037C329.736 25.9386 329.912 25.8513 330.087 25.8688C330.91 25.9386 331.751 25.4499 332.557 25.991C332.767 26.1306 332.977 25.9735 333.047 25.7117C333.117 25.415 333.065 25.1531 332.872 24.8913C332.592 24.5073 332.452 24.0709 332.487 23.5821C332.522 23.0934 332.784 22.7792 333.222 22.6047C333.66 22.4301 333.958 22.657 334.256 22.9188C334.589 23.2156 334.536 23.5123 334.449 23.9487C334.256 24.996 333.783 25.9386 333.555 26.9685C333.363 27.8063 333.135 28.6442 332.96 29.4995C332.872 29.9533 332.697 30.1977 332.189 30.3024C331.558 30.4246 330.945 30.7039 330.332 30.9308C330.069 31.0181 329.894 31.2101 329.929 31.5069H329.982C330.63 31.5069 331.278 31.7163 331.944 31.6465C332.241 31.6116 332.241 31.8211 332.189 32.0305C332.119 32.3098 332.031 32.5891 331.944 32.9207C331.208 32.5367 330.56 32.1003 329.982 31.5592C329.982 31.5592 329.947 31.5592 329.929 31.5418C329.316 31.2799 328.931 30.9657 328.948 30.1628C328.983 29.1679 328.913 28.1205 328.405 27.1954C328.265 26.9336 328.055 26.5845 327.687 26.7067C327.301 26.8288 327.389 27.1954 327.407 27.5096C327.477 28.2602 327.529 29.0282 327.407 29.8486C326.145 29.1155 324.972 28.3998 323.78 27.7191C323.307 27.4398 322.817 27.1779 322.239 27.1081C321.906 27.0732 321.678 27.2478 321.503 27.4921C321.275 27.8063 321.661 27.8762 321.783 28.0507C322.204 28.6616 322.939 28.7838 323.518 29.1329C325.585 30.3897 327.354 32.1178 329.544 33.1651C330.139 33.4444 330.139 33.776 329.947 34.2997C329.316 36.0452 328.335 37.6337 327.599 39.3443C327.354 39.9029 326.846 39.7981 326.426 39.641C326.215 39.5538 326.005 39.4316 325.777 39.3268C324.288 38.6461 322.782 37.913 321.556 36.8307C320.575 35.9754 319.541 35.2423 318.437 34.579C318.28 34.4917 318.122 34.2997 317.929 34.5266C317.754 34.7361 317.702 34.9456 317.877 35.1899C318.21 35.6089 318.472 36.0802 318.84 36.4642C319.559 37.2147 320.329 37.913 321.17 38.5239C321.503 38.7508 321.573 39.0301 321.38 39.3967C320.837 40.4265 320.032 41.0724 318.858 41.2818C318.42 41.3517 317.982 41.4389 317.649 41.7531C317.474 41.9277 317.316 42.1371 317.421 42.399C317.509 42.6259 317.719 42.7306 317.947 42.6957C318.893 42.5561 319.839 42.4164 320.767 42.1546C321.836 41.8579 322.134 40.7931 322.782 40.0774C323.115 39.7109 323.272 39.7632 323.588 39.9727C324.201 40.3742 324.779 40.7931 325.427 41.1422C326.741 41.8229 327.336 42.3117 328.598 40.8105C328.738 40.6534 328.913 40.4614 329.158 40.6534C330.087 41.3691 331.225 41.4738 332.311 41.596C333.257 41.7008 334.221 41.7008 335.062 41.0375C335.325 40.828 335.412 40.4963 335.692 40.3742C337.024 39.7632 337.146 38.4192 337.567 37.2846C338.057 35.9405 338.373 34.5266 338.548 33.1127C338.583 32.8858 338.705 32.7811 338.898 32.6764C341.158 31.5592 342.542 29.6042 343.768 27.5096C343.943 27.2129 344.083 26.8987 344.066 26.5496C344.066 26.2703 343.996 26.0084 343.698 25.8862C343.453 25.7815 343.295 25.9735 343.12 26.0957C342.262 26.6543 341.824 27.5445 341.386 28.3824C340.825 29.4646 339.967 30.1803 338.968 30.8785C338.986 28.5744 339.599 26.4623 339.704 24.2978C339.721 23.8091 339.949 23.8265 340.3 24.036C340.773 24.3327 341.298 24.5771 341.789 24.8389C342.717 25.3451 343.575 24.996 344.381 24.7517C345.257 24.4724 345.958 22.7792 345.748 21.8541C345.432 20.4402 344.977 19.0787 343.733 18.1535C343.558 18.0139 343.278 17.8917 343.225 17.6124C343.558 17.4204 343.891 17.4204 344.241 17.4728C345.432 17.6473 346.623 17.7172 347.797 17.979C349.286 18.2932 350.583 17.8219 351.809 17.1237C353 16.4429 353.28 15.3432 352.264 13.9643L352.387 13.9468ZM335.938 15.9367C333.765 15.7971 331.558 15.8494 329.439 15.2909C328.23 14.9767 326.951 14.8021 325.882 14.0865C325.585 13.8945 325.147 13.6501 325.252 13.2835C325.374 12.8471 325.637 12.4631 326.093 12.1838C327.757 11.1714 329.596 10.8572 331.453 10.6827C332.487 10.5954 333.52 10.6652 334.554 10.6827C335.219 10.7001 335.903 10.8223 336.533 10.8921C336.341 12.2013 336.06 13.5104 336.218 14.8545C336.235 15.0989 336.253 15.3432 336.271 15.5702C336.288 15.832 336.288 15.9367 335.938 15.9018V15.9367ZM339.862 14.4007C339.406 15.064 339.143 15.9716 339.091 16.7746C339.021 18.2059 338.618 19.5674 338.478 20.9813C338.338 22.5523 338.162 24.1233 338.022 25.7117C337.97 26.2354 337.865 26.759 337.795 27.2827C337.637 28.4522 337.549 29.6566 337.444 30.8436C337.392 31.4719 337.304 32.0829 337.146 32.6938C336.761 34.1601 336.428 35.6612 335.973 37.11C335.5 38.6286 334.571 39.8156 333.03 40.3916C332.417 40.6185 331.803 40.252 331.19 40.2869C331.138 40.2869 331.103 40.252 331.05 40.252C329.509 39.8854 329.351 39.6759 330.034 38.3493C330.577 37.2846 331.085 36.2372 331.418 35.0852C331.506 34.7885 331.751 34.8408 331.944 34.771C332.802 34.5092 333.363 33.9855 333.643 33.0953C334.466 30.4595 335.132 27.7889 335.868 25.1357C336.323 23.4949 336.919 21.8541 337.094 20.126C337.164 19.3231 337.427 18.5376 337.602 17.7521C338.197 16.0415 337.392 14.2261 337.952 12.498C338.18 11.8173 338.53 11.3285 339.249 11.0667C339.757 10.8747 340.107 11.154 340.177 11.4507C340.37 12.4282 340.562 13.3882 339.879 14.3657L339.862 14.4007ZM344.048 20.8068C344.294 21.4177 344.364 22.0112 344.241 22.6396C344.118 23.3203 343.786 23.7742 343.05 23.6171C341.841 23.6694 340.983 22.9887 340.054 22.4825C339.984 22.4476 339.914 22.3254 339.914 22.2555C340.159 20.8417 340.177 19.3929 340.562 17.9965C340.72 17.4204 341.035 17.4553 341.421 17.7346C342.524 18.555 343.505 19.4802 344.031 20.8068H344.048ZM350.723 15.7447C349.812 16.3382 348.761 16.4255 347.745 16.6175C347.114 16.7397 346.431 16.5477 345.818 16.4429C344.276 16.1811 342.752 16.1636 341.105 16.2684C341.438 15.256 341.894 14.3657 342.051 13.3708C342.209 12.3235 341.859 11.4333 341.298 10.5779C343.418 10.2463 345.31 10.9445 347.202 11.6602C348.515 12.1489 349.689 12.8297 350.653 13.8595C350.775 13.9817 350.915 14.0865 351.02 14.2086C351.669 15.0116 351.581 15.2211 350.74 15.7447H350.723Z" fill="#1E6E67"/>
<path fill-rule="evenodd" clip-rule="evenodd" d="M329.824 72.8585C328.878 71.8112 327.792 71.2003 326.355 71.2526C325.882 71.2701 325.304 71.497 324.954 71.2876C324.499 71.0257 324.761 70.345 324.656 69.8562C324.393 68.6169 324.061 67.3427 324.061 66.0859C324.061 64.5498 321.993 63.4327 320.96 63.677C320.732 63.7294 320.434 63.8516 320.452 64.1832C320.452 64.48 320.557 64.672 320.925 64.6895C321.853 64.7593 322.169 65.4226 322.396 66.2081C322.642 67.0808 322.642 67.971 322.834 68.8438C323.027 69.6991 322.834 70.6243 323.272 71.4272C323.482 71.8112 323.395 71.9334 323.08 72.1603C321.293 73.4346 320.575 75.215 320.837 77.3271C320.942 78.13 321.223 79.0028 321.766 79.6661C322.029 79.9978 321.941 80.5214 322.414 80.696C324.078 81.2545 325.602 82.3891 327.582 81.5687C328.23 81.3069 329.018 81.3418 329.614 80.8182C330.717 79.8407 331.576 78.7759 331.523 77.7635C331.488 75.5467 330.98 74.0979 329.841 72.8411L329.824 72.8585ZM329.544 78.5141C329.036 79.7359 328.09 80.4691 326.741 80.5563C325.83 80.6262 324.919 80.4516 324.061 80.1199C323.132 79.7359 322.922 78.8283 322.677 77.9904C322.554 77.6064 322.537 77.1875 322.379 76.8034C322.256 76.3671 322.239 75.9307 322.379 75.4943C322.677 75.0405 323.062 74.6564 323.15 74.0804C323.185 73.8884 323.377 73.7139 323.535 73.5742C324.428 72.7887 325.409 72.1778 326.671 72.3349C327.722 72.4571 328.44 73.2076 328.966 73.9582C329.911 75.3197 330.209 76.9082 329.544 78.5315V78.5141Z" fill="#1E6E67"/>
<path fill-rule="evenodd" clip-rule="evenodd" d="M322.379 75.4768C322.379 75.9132 322.379 76.3496 322.379 76.786C322.046 76.3496 321.923 75.9132 322.379 75.4768Z" fill="#1E6E67"/>
<path fill-rule="evenodd" clip-rule="evenodd" d="M301.095 54.6351C301.13 53.6576 301.217 52.6626 301.165 51.6852C301.13 50.8997 301.62 50.7775 302.146 50.7426C302.724 50.7077 302.724 51.3011 302.759 51.6328C302.829 52.4357 302.829 53.2561 302.812 54.0765C302.777 56.2061 302.847 58.3531 302.671 60.4826C302.671 60.6048 302.636 60.727 302.601 60.8492C302.514 61.1983 302.409 61.6172 301.953 61.5998C301.463 61.5998 301.34 61.1808 301.305 60.7794C301.252 59.8193 301.112 58.8942 301.235 57.8818C301.358 56.8519 301.375 55.7173 301.077 54.6526L301.095 54.6351Z" fill="#1E6E67"/>
<path fill-rule="evenodd" clip-rule="evenodd" d="M302.339 71.9158C302.339 74.0454 302.339 76.1749 302.339 78.3219C302.339 78.8631 302.181 79.282 301.655 79.3344C301.13 79.3867 300.902 78.9329 300.85 78.479C300.727 77.2223 300.552 75.9829 300.727 74.7087C300.85 73.8883 300.692 73.033 300.71 72.1951C300.71 71.5493 300.867 70.9558 301.077 70.3623C301.165 70.1354 301.218 69.9085 301.568 69.9434C301.883 69.9783 302.163 70.0481 302.216 70.3972C302.286 70.9034 302.339 71.3922 302.391 71.8984H302.321L302.339 71.9158Z" fill="#1E6E67"/>
<path fill-rule="evenodd" clip-rule="evenodd" d="M295.752 53.6402C296.102 53.5879 296.26 53.8497 296.47 54.1639C297.311 55.4905 297.837 56.9917 298.642 58.3532C298.888 58.7547 298.993 59.2434 299.168 59.6798C299.483 60.4478 299.834 61.2158 300.149 61.9839C300.237 62.2108 300.342 62.4901 300.079 62.6472C299.816 62.8217 299.641 62.5774 299.448 62.4377C298.292 61.5999 297.749 60.3082 297.188 59.1038C296.593 57.8295 295.962 56.5553 295.419 55.2461C295.244 54.8621 295.191 54.4606 295.191 54.0417C295.191 53.7101 295.367 53.553 295.769 53.6402H295.752Z" fill="#1E6E67"/>
<path fill-rule="evenodd" clip-rule="evenodd" d="M308.96 54.4606C309.678 54.3908 309.871 54.6701 309.731 55.2635C309.591 55.857 309.223 56.3283 308.873 56.7472C307.909 57.9517 307.436 59.4354 306.508 60.6398C306.122 61.146 305.737 61.6347 305.317 62.0886C305.106 62.3155 304.809 62.5075 304.476 62.298C304.178 62.106 304.265 61.7744 304.336 61.4951C304.581 60.7096 305.211 60.1161 305.474 59.3306C305.842 58.3008 306.7 57.5327 307.173 56.5552C307.489 55.8919 307.997 55.3334 308.277 54.6351C308.382 54.3908 308.785 54.4257 308.96 54.4606Z" fill="#1E6E67"/>
<path fill-rule="evenodd" clip-rule="evenodd" d="M304.336 65.9462C304.476 66.9236 303.635 67.7964 302.549 67.4822C302.339 67.4124 302.093 67.4822 302.006 67.2204C301.883 66.9236 302.163 66.8538 302.321 66.7142C302.934 66.1905 303.004 65.405 302.461 64.8465C302.304 64.6894 302.198 64.3403 301.831 64.4974C301.515 64.637 301.323 64.8814 301.252 65.1956C301.182 65.4923 301.217 65.8065 301.428 66.0858C301.638 66.4 302.006 66.8364 301.655 67.168C301.27 67.5171 300.744 67.168 300.412 66.9586C299.22 66.1905 299.343 64.6545 300.534 63.8515C301.34 63.3279 302.181 63.1882 303.022 63.4675C303.652 63.677 304.09 64.2355 304.195 64.9512C304.248 65.2829 304.301 65.6145 304.353 65.9462H304.336Z" fill="#1E6E67"/>
<path fill-rule="evenodd" clip-rule="evenodd" d="M303.687 69.7863C303.687 69.5943 303.617 69.3674 303.863 69.2801C304.16 69.1928 304.388 69.3674 304.546 69.5943C304.949 70.2401 305.369 70.8685 305.597 71.6191C306.228 73.6614 307.209 75.564 307.927 77.5714C308.067 77.9728 307.927 78.2347 307.664 78.3569C307.401 78.4791 306.998 78.514 306.788 78.1474C305.334 75.6164 304.493 72.8584 303.723 70.0656C303.687 69.9783 303.705 69.8736 303.687 69.7689V69.7863Z" fill="#1E6E67"/>
<path fill-rule="evenodd" clip-rule="evenodd" d="M305.807 67.7791C306.63 67.9536 307.401 68.3202 308.067 68.8438C309.346 69.8737 310.66 70.8163 312.096 71.6018C312.551 71.8636 312.849 72.2825 313.112 72.7364C313.235 72.9284 313.287 73.1727 313.13 73.3473C312.989 73.4869 312.779 73.5393 312.534 73.5044C311.623 73.3822 311.097 72.6665 310.414 72.1952C309.941 71.8636 309.486 71.5145 308.96 71.2527C307.892 70.6941 306.981 69.8911 306.035 69.1406C305.86 68.9835 305.72 68.774 305.492 68.6693C305.247 68.5471 305.071 68.39 305.177 68.1107C305.282 67.8663 305.509 67.7965 305.79 67.7965L305.807 67.7791Z" fill="#1E6E67"/>
<path fill-rule="evenodd" clip-rule="evenodd" d="M306.245 64.5672C306 64.5497 305.527 64.5672 305.457 64.0784C305.387 63.5897 305.842 63.5198 306.175 63.4326C306.788 63.258 307.086 62.682 307.664 62.3853C308.978 61.7394 310.309 61.0586 311.448 60.0811C311.833 59.7495 312.324 59.5051 312.884 59.4877C313.2 59.4877 313.392 59.5924 313.48 59.8891C313.568 60.1684 313.427 60.3081 313.235 60.4826C312.079 61.5125 310.642 62.0885 309.381 62.9438C308.715 63.3802 308.032 63.7642 307.384 64.2355C307.068 64.4624 306.753 64.5846 306.245 64.5672Z" fill="#1E6E67"/>
<path fill-rule="evenodd" clip-rule="evenodd" d="M314.023 66.7491C311.781 66.8364 309.521 66.5571 307.279 66.8015C306.771 66.8538 306.28 66.7491 305.79 66.7142C305.492 66.6967 305.282 66.5745 305.299 66.2254C305.299 65.8763 305.457 65.8065 305.79 65.7891C307.366 65.7367 308.943 65.5621 310.537 65.6843C311.343 65.7541 312.166 65.7541 312.989 65.6494C313.778 65.5447 314.601 65.5796 315.407 65.6145C315.757 65.6145 316.108 65.8414 316.073 66.2429C316.037 66.6793 315.635 66.7142 315.302 66.7316C314.864 66.7665 314.443 66.7316 314.005 66.7316L314.023 66.7491Z" fill="#1E6E67"/>
<path fill-rule="evenodd" clip-rule="evenodd" d="M299.921 69.6816C300.149 70.6417 299.676 71.4446 299.448 72.2999C299.063 73.7662 298.537 75.1975 297.609 76.4194C297.329 76.7859 297.031 77.1525 296.645 77.3969C296.453 77.5191 296.277 77.7111 295.997 77.5016C295.717 77.2922 295.752 77.0652 295.91 76.8034C296.418 76.0528 296.628 75.1626 297.013 74.3597C297.539 73.2774 298.082 72.1952 298.572 71.0955C298.853 70.4497 299.658 70.3275 299.921 69.6642V69.6816Z" fill="#1E6E67"/>
<path fill-rule="evenodd" clip-rule="evenodd" d="M292.248 73.8883C291.968 73.8883 291.758 73.801 291.653 73.609C291.548 73.3996 291.775 73.2774 291.863 73.1203C292.424 72.0555 293.65 71.8111 294.473 71.0431C295.139 70.4147 295.699 69.6816 296.47 69.1754C296.978 68.8437 297.293 68.2677 297.924 68.0932C298.432 67.9535 298.59 68.1979 298.415 68.6168C298.274 68.9659 298.047 69.2976 297.801 69.6118C296.383 71.462 294.508 72.7363 292.476 73.8185C292.389 73.8709 292.301 73.8883 292.248 73.9058V73.8883Z" fill="#1E6E67"/>
<path fill-rule="evenodd" clip-rule="evenodd" d="M296.698 66.6967C295.069 66.8713 293.44 66.6618 291.793 66.8538C290.935 66.9411 290.024 66.7665 289.13 66.7142C288.867 66.6967 288.465 66.5745 288.517 66.1381C288.57 65.7367 288.92 65.7018 289.235 65.6843C291.39 65.5272 293.545 65.7192 295.699 65.6319C296.365 65.597 297.136 65.4748 297.802 65.9112C298.239 66.1905 298.257 66.3476 297.766 66.6094C297.399 66.8014 297.048 66.6793 296.698 66.7142V66.6967Z" fill="#1E6E67"/>
<path fill-rule="evenodd" clip-rule="evenodd" d="M297.328 63.834C296.277 63.6769 295.226 63.3278 294.263 62.8042C293.037 62.1409 291.775 61.5648 290.462 61.111C290.076 60.9714 289.621 60.8492 289.813 60.3604C289.971 59.9415 290.549 59.8542 290.882 59.9764C292.511 60.6048 294.158 61.2332 295.699 62.0361C296.365 62.3852 297.241 62.4551 297.679 63.2056C297.766 63.3627 298.047 63.45 297.907 63.6595C297.801 63.8166 297.574 63.834 297.328 63.834Z" fill="#1E6E67"/>
<path fill-rule="evenodd" clip-rule="evenodd" d="M301.095 54.6351C301.042 54.8271 301.007 55.0192 300.709 55.0541C300.709 54.7573 300.972 54.7573 301.095 54.6351Z" fill="#1E6E67"/>
<path fill-rule="evenodd" clip-rule="evenodd" d="M326.881 76.3845C326.881 76.8209 326.531 77.17 326.093 77.17C325.655 77.17 325.304 76.8209 325.304 76.3845C325.304 75.9481 325.655 75.599 326.093 75.599C326.531 75.599 326.881 75.9481 326.881 76.3845Z" fill="#1E6E67"/>
<path fill-rule="evenodd" clip-rule="evenodd" d="M166.909 45.1744C167.47 43.6209 180.958 46.3788 180.958 46.3788L180.065 58.3706L173.356 58.5975L168.416 53.4308L169.572 51.3536L167.049 48.1942C167.049 48.1942 166.366 46.7279 166.909 45.1744Z" fill="#69ACA3"/>
<path opacity="0.8" fill-rule="evenodd" clip-rule="evenodd" d="M152.58 49.5033L151.388 41.1946H161.654L164.369 50.1317C164.369 50.1317 162.757 48.4036 159.324 48.7702C155.89 49.1542 152.597 49.4859 152.597 49.4859L152.58 49.5033Z" fill="#E06765"/>
<path fill-rule="evenodd" clip-rule="evenodd" d="M164.054 49.9222L163.388 46.0646C163.388 46.0646 160.9 46.4311 158.798 47.077C156.696 47.7228 153.631 49.3811 153.631 49.3811C153.631 49.3811 158.728 48.5781 160.112 48.7702C161.496 48.9622 164.054 49.9047 164.054 49.9047V49.9222Z" fill="#69ACA3"/>
<path fill-rule="evenodd" clip-rule="evenodd" d="M203.924 8.13416C202.067 9.63531 199.842 9.58295 197.88 10.1066C196.847 9.80987 195.989 10.1066 195.2 10.351C192.625 11.1365 189.962 11.0143 187.335 11.3634C185.513 11.6078 183.709 11.7998 181.869 11.695C180.485 11.6078 179.101 11.6252 177.788 11.0317C177.472 10.8921 177.017 10.6826 177.052 10.3161C177.104 9.86223 177.227 9.39094 177.647 9.00692C179.189 7.59304 181.046 6.85992 182.973 6.33626C184.006 6.05697 185.092 5.89988 186.161 5.77769C188.176 5.55077 190.208 5.55077 192.152 4.678C194.079 3.82269 196.094 3.87506 198.161 4.24162C200.088 4.57327 201.892 5.13184 203.469 6.35371C203.714 6.54572 203.942 6.77264 204.117 7.03447C204.38 7.43594 204.45 7.69777 203.924 8.1167V8.13416Z" fill="#FCF163"/>
<path fill-rule="evenodd" clip-rule="evenodd" d="M151.161 37.5988C151.161 37.5988 156.241 28.8362 166.121 24.4375C176.018 20.0387 182.658 21.7668 182.658 21.7668C182.658 21.7668 183.901 24.9437 183.674 26.4797C183.603 28.1904 188.701 25.5197 188.491 26.1481C188.246 26.8812 188.911 31.2101 188.631 31.8909C188.281 32.7811 181.764 31.8909 181.764 31.8909C181.764 31.8909 181.992 33.9506 179.715 36.2896C177.437 38.6286 168.906 39.676 170.535 44.7729L166.892 45.1744C166.892 45.1744 165.297 40.1996 166.103 38.8556C166.909 37.494 169.852 35.9754 169.852 35.9754L171.604 35.2074L167.855 30.5643L161.111 35.2249L160.795 38.8556L150.162 39.0127L151.126 37.5988H151.161Z" fill="#CE7D80"/>
<path fill-rule="evenodd" clip-rule="evenodd" d="M183.726 24.2455C183.621 23.7916 183.218 23.844 182.903 23.8265C182.552 23.8265 182.587 24.1407 182.587 24.3677C182.587 24.8739 182.587 25.3975 182.692 25.8863C183.043 27.3874 182.85 28.7489 181.939 30.0232C181.326 30.8785 181.028 31.8734 180.59 32.7986C180.31 33.4095 180.1 34.0554 179.732 34.6314C178.926 35.9056 178.085 37.1275 176.544 37.6337C175.3 38.0352 174.109 38.5763 173.023 39.2919C172.76 39.4665 172.462 39.4665 172.147 39.2396C171.709 38.9254 171.183 38.873 170.623 38.8381C169.869 38.8032 169.134 39.0127 168.38 38.8381C168.24 38.6985 168.1 38.6985 167.943 38.8207C167.82 38.8207 167.715 38.8381 167.592 38.8556C167.277 38.9079 167.137 38.6286 166.927 38.489C167.084 38.3319 167.224 38.1399 167.417 38.0003C167.662 37.8257 167.978 37.8955 168.258 37.7908C169.309 37.3893 170.22 36.7435 171.183 36.2024C171.534 36.0103 171.709 36.0802 171.919 36.3071C172.602 37.0228 173.706 37.0751 174.389 36.3769C175.738 34.9805 177.42 34.003 178.804 32.624C179.662 31.7687 180.275 30.8436 180.766 29.7963C180.871 29.5868 181.081 29.2901 180.678 29.1155C180.345 28.9584 180.1 29.1155 179.925 29.3773C179.014 30.7912 177.525 31.5767 176.334 32.6938C175.318 33.6539 174.021 34.3172 172.865 35.1201C172.532 35.347 172.392 35.1201 172.217 34.8932C171.446 33.9332 170.675 32.9731 169.887 32.0131C169.379 31.3847 168.818 30.7738 168.363 30.1105C168.24 29.9359 168.118 29.8137 168.31 29.6392C169.309 28.7315 170.342 27.8413 171.569 27.2478C172.725 26.6892 173.758 26.0085 174.774 25.2404C174.95 25.1008 175.265 25.0135 175.055 24.6818C174.915 24.4549 174.722 24.4026 174.424 24.4549C172.445 24.8913 170.693 25.7641 169.099 27.0034C168.538 27.4398 168.048 27.946 167.47 28.3126C166.944 28.6442 166.734 29.098 166.874 29.5868C167.067 30.2152 166.611 30.4945 166.313 30.669C164.912 31.4371 163.598 32.3447 162.477 33.4619C161.969 33.9681 161.163 34.3695 161.146 35.155C161.093 36.3769 160.585 37.5464 160.76 38.7857C160.427 38.9777 160.042 38.7508 159.709 38.9079C158.798 38.873 157.87 38.8207 156.959 38.8032C156.136 38.7857 155.312 38.7683 154.506 38.7857C153.333 38.8032 152.159 38.8381 150.985 38.9079C149.724 38.9952 148.463 38.6636 147.166 39.0476C145.853 39.449 145.292 40.3916 145.467 41.6135C145.537 42.1022 145.8 42.591 146.483 42.7306C147.464 42.9401 148.463 42.8354 149.426 42.8528C152.702 42.9052 155.995 42.8528 159.289 42.8528C159.429 42.8528 159.587 42.7656 159.727 42.8005C160.34 42.8005 160.935 42.8528 161.549 42.8354C161.916 42.8354 162.092 42.9226 162.197 43.3067C162.459 44.2143 162.582 45.1395 162.932 46.0297C163.283 46.9374 163.493 47.8974 163.528 48.8924C162.6 48.648 161.759 48.4036 160.9 48.2116C159.727 47.9498 158.536 48.2116 157.362 48.2814C155.435 48.4036 153.596 48.9273 151.809 49.6779C151.476 49.8175 151.108 49.835 150.775 50.0793C149.707 50.8474 148.48 51.3885 147.482 52.3311C146.361 53.3784 145.222 54.4432 144.416 55.6825C143.575 56.9567 142.927 58.4055 142.524 59.9067C142.209 61.0587 141.841 62.1933 141.789 63.4326C141.736 64.8989 141.543 66.3651 141.754 67.8488C141.999 69.5944 142.332 71.305 142.927 72.9632C143.313 73.9931 143.943 74.8659 144.469 75.791C145.064 76.8209 145.8 77.7111 146.623 78.5664C147.569 79.5439 148.883 80.0152 149.882 80.9229C149.987 81.0101 150.127 81.0974 150.25 81.1323C151.231 81.3418 152.106 81.8131 153 82.232C153.543 82.4764 154.086 82.5811 154.682 82.616C155.347 82.6684 156.013 82.6858 156.644 82.9128H161.023C161.128 82.7731 161.268 82.7731 161.408 82.7557C162.985 82.6335 164.492 82.2495 165.928 81.5687C166.524 81.2894 167.084 80.9752 167.68 80.7134C168.643 80.277 169.537 79.7534 170.272 78.9679C170.763 78.4617 171.201 77.8158 171.744 77.4842C172.812 76.8209 173.285 75.7386 173.741 74.7786C174.389 73.4694 175.055 72.1254 175.44 70.6766C175.685 69.7689 176.018 68.8787 176.088 67.9361C176.228 65.9462 175.668 63.9912 175.633 62.0188C175.633 61.9489 175.633 61.8442 175.58 61.8093C174.862 61.2158 174.967 60.2732 174.669 59.5226C173.706 56.9916 172.024 54.9843 170.272 53.0118C169.852 52.5405 169.537 52.0692 169.922 51.4234C170.097 51.1266 170.045 50.8124 170.01 50.4633C169.922 49.4509 169.134 49.032 168.486 48.4909C168.17 48.2291 167.907 47.9847 167.872 47.5658C167.732 46.2217 167.575 44.8776 167.435 43.5336C167.399 43.2019 167.505 42.9925 167.925 42.9925C168.818 42.9925 169.694 42.9226 170.588 42.8005C171.621 42.6608 172.848 42.4863 173.075 41.3866C173.285 40.4091 173.793 40.1996 174.547 40.0076C174.687 39.9727 174.809 39.868 174.915 39.7981C175.703 39.2745 176.579 38.9428 177.42 38.5239C178.436 38.0352 179.417 37.6686 180.187 36.7435C181.168 35.5914 181.922 34.3346 182.36 32.9208C182.657 31.9607 182.955 31.0705 183.744 30.3723C184.024 30.1279 184.146 29.709 184.234 29.2901C184.672 27.4922 184.059 25.8339 183.656 24.1407L183.726 24.2455ZM172.48 60.7271C173.145 62.4377 173.391 64.1658 173.391 65.9811C173.391 66.8888 173.215 67.779 173.233 68.6867C173.233 69.1231 172.935 69.4896 172.865 69.9435C172.637 71.2701 172.112 72.5792 171.481 73.7138C170.728 75.0753 169.817 76.4543 168.328 77.2398C167.785 77.5365 167.435 78.0427 166.944 78.3918C165.875 79.1773 164.597 79.4741 163.423 80.0326C161.496 80.9403 159.464 80.8705 157.449 80.8007C154.979 80.7134 152.579 80.0326 150.425 78.8108C148.883 77.938 147.569 76.6987 146.606 75.1452C145.642 73.6091 145.117 71.8985 144.626 70.1878C144.329 69.1231 144.329 67.9536 144.118 66.8713C143.786 65.1956 144.171 63.5897 144.241 61.9838C144.276 61.0413 144.609 60.0812 145.082 59.191C145.853 57.7248 146.571 56.2411 147.71 55.0192C148.445 54.2511 149.216 53.5355 150.092 52.9071C150.985 52.2612 152.019 51.982 152.912 51.4059C153.42 51.0743 154.121 51.1441 154.699 50.8823C155.715 50.411 156.854 50.4983 157.905 50.1841C158.448 50.027 158.956 50.2364 159.481 50.1841C161.076 49.835 162.424 50.8648 163.931 51.0045C164.089 51.0045 164.229 51.1092 164.316 51.3361C164.719 52.2962 165.332 53.0118 166.383 53.3958C167.014 53.6228 167.75 53.4657 168.275 54.0242C168.503 54.2511 168.678 54.513 168.888 54.7399C170.518 56.4854 171.604 58.5277 172.462 60.7445L172.48 60.7271ZM167.68 49.3113C168.38 49.7302 168.696 50.3935 168.503 51.1266C168.275 51.982 167.96 52.2263 166.997 52.2612C166.454 52.3136 166.226 52.2438 166.051 51.5456C165.823 50.5855 165.367 49.6429 165.105 48.7004C164.719 47.2865 164.159 45.925 163.861 44.4936C163.563 43.0972 163.125 41.7357 162.757 40.3742C162.372 38.9428 162.389 37.4068 162.687 35.9405C162.81 35.3296 163.353 34.9281 163.826 34.579C165.052 33.6713 166.348 32.8335 167.68 32.0654C167.96 31.9083 168.118 31.856 168.433 32.1876C169.064 32.8858 169.642 33.6364 170.237 34.3521C170.448 34.6139 170.588 34.7536 170.15 34.9805C169.081 35.5565 168.065 36.1849 166.927 36.6387C165.437 37.2148 165.122 38.1399 165.473 39.7458C165.665 40.636 165.788 41.5262 165.875 42.4339C166.016 43.6732 165.946 44.9649 166.278 46.2042C166.401 46.6755 166.471 47.1468 166.506 47.6356C166.559 48.456 167.049 48.9622 167.697 49.3462L167.68 49.3113Z" fill="#1E6E67"/>
<path fill-rule="evenodd" clip-rule="evenodd" d="M136.638 23.1108C137.444 21.8191 138.793 22.3952 139.879 22.3079C140.562 22.2555 141.316 22.0984 142.069 22.3079C142.735 22.5173 143.05 22.849 143.05 23.5298C143.05 24.2629 142.437 24.3327 141.999 24.3676C141.403 24.4025 140.755 24.5596 140.159 24.228C140.002 24.1407 139.704 24.2978 139.459 24.3327C138.425 24.5247 137.479 24.3152 136.621 23.6869V23.1108H136.638Z" fill="#1E6E67"/>
<path fill-rule="evenodd" clip-rule="evenodd" d="M193.098 75.1276C192.87 74.7087 192.59 74.5342 192.292 74.3771C190.786 73.5567 189.472 72.4744 188.263 71.2875C187.773 70.8162 187.878 70.0481 187.703 69.4023C187.247 67.779 187.23 66.0858 186.949 64.4275C186.739 63.2231 186.529 62.0013 186.354 60.7794C185.968 58.0913 185.39 55.4555 184.865 52.8023C184.742 52.1914 184.602 51.563 184.357 51.0044C183.779 49.6778 183.603 49.5556 181.904 48.7352C181.712 49.6254 181.904 50.5157 181.834 51.3884C181.712 52.715 181.764 54.0591 181.624 55.3682C181.501 56.4156 181.291 57.4978 180.818 58.4753C180.66 58.8244 180.345 58.8942 180.047 58.9291C178.979 59.0688 177.945 59.4353 176.842 59.2782C176.544 59.2433 176.264 59.2084 176.001 59.0862C175.773 58.9815 175.668 58.772 175.668 58.4927C175.668 58.1436 175.966 58.2309 176.141 58.1785C176.526 58.0738 176.929 58.0214 177.35 58.0738C179.101 58.2658 179.627 57.8818 179.82 56.1537C180.03 54.3035 180.135 52.4532 180.117 50.6029C180.117 50.3935 180.17 50.1666 180.258 49.9745C180.573 49.1018 180.065 48.2465 180.205 47.3737C180.275 47.0071 179.942 46.6755 179.434 46.7104C178.278 46.7802 177.139 46.5708 175.983 46.4835C175.668 46.466 175.3 46.4137 175.125 46.0296C175.037 45.8202 174.81 45.5234 174.88 45.4013C175.02 45.1743 175.37 45.1569 175.65 45.1743C176.456 45.2267 177.245 45.4013 178.05 45.4711C178.926 45.5583 179.802 45.6805 180.696 45.7678C181.344 45.8376 181.764 46.1344 181.729 46.8151C181.729 47.2341 181.904 47.3737 182.272 47.5133C183.533 48.037 184.812 48.5432 185.583 49.8C185.863 50.2364 186.109 50.6728 186.214 51.1615C186.687 53.3434 187.142 55.5253 187.545 57.7247C187.965 59.9939 188.351 62.2805 188.614 64.5672C188.736 65.5796 189.016 66.6269 189.104 67.6568C189.174 68.4248 189.402 69.1579 189.472 69.9085C189.507 70.2402 189.682 70.4845 189.927 70.7638C190.663 71.5668 191.557 72.1777 192.397 72.841C193.081 73.3996 193.991 73.6614 194.57 74.3945C194.71 74.5865 194.885 74.7611 195.008 74.9705C195.305 75.4768 195.218 75.9306 194.605 76.0004C192.8 76.2099 190.996 76.3146 189.192 75.983C188.981 75.948 188.666 75.8433 188.754 75.5117C188.824 75.2149 189.069 75.1102 189.367 75.1102C190.576 75.1102 191.784 75.1102 193.116 75.1102L193.098 75.1276Z" fill="#1E6E67"/>
<path fill-rule="evenodd" clip-rule="evenodd" d="M179.872 21.9937C178.628 21.5224 177.245 22.0286 175.861 22.1683C174.266 22.3254 172.707 22.7617 171.166 23.3552C169.677 23.9312 168.223 24.5247 166.804 25.2579C166.068 25.6419 165.473 26.2353 164.719 26.5321C162.495 27.4398 160.743 29.0107 158.851 30.4072C156.784 31.9258 154.909 33.6713 153.403 35.7834C153.175 36.1151 152.825 36.3594 152.509 36.6038C152.072 36.9529 151.686 36.6562 151.336 36.4118C150.968 36.15 151.213 35.8707 151.336 35.539C151.651 34.7361 152.299 34.1601 152.632 33.3746C152.702 33.2 152.947 33.1127 153.105 32.9731C154.506 31.7512 155.838 30.4072 157.344 29.3075C158.641 28.3649 159.832 27.2478 161.268 26.4623C162.547 25.7641 163.843 25.0658 165.035 24.228C165.911 23.6171 166.892 23.425 167.785 22.9887C168.363 22.7094 168.976 22.4825 169.502 22.1508C170.886 21.313 172.497 21.3653 173.969 20.9289C174.862 20.6671 175.861 20.5798 176.842 20.5798C178.488 20.5624 180.135 20.4576 181.747 20.8766C181.974 20.9289 182.149 21.0337 182.342 21.1384C182.587 21.278 182.675 21.4875 182.64 21.7493C182.605 22.081 182.342 22.0984 182.097 22.1159C181.659 22.1683 181.221 22.1334 180.801 22.0286C180.538 21.9588 180.275 21.9064 179.837 21.9763L179.872 21.9937Z" fill="#1E6E67"/>
<path opacity="0.8" fill-rule="evenodd" clip-rule="evenodd" d="M147.184 35.4168C147.324 34.2124 147.061 33.0255 147.114 31.8385C147.184 30.3548 147.026 28.8536 147.307 27.3874C147.377 27.0557 147.114 26.8463 147.026 26.5844C146.676 25.6244 146.063 24.8389 145.222 24.2978C144.907 24.0883 144.416 24.1058 144.083 23.8091C143.873 23.617 143.698 23.3901 143.856 23.1108C144.013 22.849 144.276 22.9537 144.504 23.0236C145.31 23.233 146.133 23.3203 146.886 23.7916C147.99 24.4724 148.428 25.5371 148.761 26.6717C149.041 27.719 148.971 28.7838 148.988 29.866C148.988 30.7912 148.988 31.7163 149.023 32.6414C149.058 33.584 148.796 34.5615 148.936 35.5216C149.023 36.1849 148.988 36.8133 148.918 37.4417C148.866 37.8082 148.761 38.2097 148.288 38.1748C147.867 38.1748 147.622 37.878 147.622 37.4417C147.622 36.726 147.061 36.15 147.202 35.4168H147.184Z" fill="#E06765"/>
<path fill-rule="evenodd" clip-rule="evenodd" d="M186.214 27.2478C186.003 27.2303 185.846 27.2129 185.706 27.1954C185.565 27.178 185.39 27.2129 185.355 27.0209C185.338 26.8463 185.478 26.759 185.6 26.6718C187.107 25.7117 188.596 24.9961 190.488 25.7641C192.362 26.5321 193.501 26.0085 194.85 24.5073C195.761 23.4775 196.111 22.2381 196.637 21.0512C196.899 20.4577 197.25 19.9689 197.67 19.5151C197.951 19.1834 198.231 19.2882 198.441 19.6198C198.651 19.9515 198.634 20.3355 198.511 20.6846C197.67 23.0236 196.602 25.223 194.552 26.8289C193.168 27.9111 191.749 28.0158 190.278 27.1431C189.367 26.6194 188.491 26.567 187.527 26.986C187.107 27.1605 186.634 27.1605 186.231 27.2303L186.214 27.2478Z" fill="#1E6E67"/>
<path fill-rule="evenodd" clip-rule="evenodd" d="M189.332 30.093C189.279 31.4196 189.279 31.4196 190.4 31.1752C191.294 30.9832 192.135 30.7563 192.783 30.0406C192.94 29.8661 193.028 29.6915 193.063 29.4646C193.063 29.325 193.011 29.1504 193.063 29.0282C193.186 28.6966 193.116 28.1555 193.641 28.1729C194.219 28.1904 194.184 28.7315 194.202 29.1155C194.202 29.4995 194.167 29.8835 194.097 30.2675C193.992 30.9308 193.624 31.4894 192.993 31.6989C191.889 32.0829 190.751 32.3622 189.577 32.5018C189.437 32.5018 189.279 32.5018 189.139 32.5716C187.527 33.3048 185.881 33.2524 184.199 32.8335C183.919 32.7637 183.656 32.6589 183.674 32.3447C183.691 32.0305 183.989 31.9782 184.252 31.9083C185.128 31.6814 186.003 31.9956 186.879 31.856C187.405 31.7687 187.79 31.3498 187.703 30.8087C187.563 30.0581 187.703 29.325 187.773 28.5744C187.79 28.3126 187.913 28.1031 188.211 28.0682C188.491 28.0333 188.736 28.0682 188.911 28.3475C189.297 28.9235 189.472 29.5344 189.314 30.0406L189.332 30.093Z" fill="#1E6E67"/>
<path opacity="0.8" fill-rule="evenodd" clip-rule="evenodd" d="M172.62 51.4932C172.532 50.7077 172.672 49.8699 172.585 49.0146C172.497 48.264 172.777 47.4261 172.707 46.6232C172.62 45.6108 172.953 44.546 172.34 43.586C172.147 43.2892 172.217 43.0274 172.55 42.8703C172.918 42.7132 173.163 42.783 173.408 43.0972C174.196 44.1271 174.512 45.2442 174.372 46.5359C174.266 47.653 174.512 48.7876 174.442 49.9397C174.372 51.2139 174.389 52.4882 174.354 53.7799C174.354 54.2512 174.074 54.6875 173.636 54.7748C173.198 54.8621 172.988 54.3908 172.865 54.0417C172.585 53.2387 172.532 52.3834 172.602 51.4932H172.62Z" fill="#E06765"/>
<path fill-rule="evenodd" clip-rule="evenodd" d="M181.449 59.2608C181.834 59.2259 181.922 59.5052 182.027 59.7321C182.868 61.3205 183.306 63.0486 183.656 64.7592C184.024 66.5222 184.672 68.1979 185.075 69.9434C185.11 70.0831 185.198 70.2227 185.18 70.3624C185.162 70.6591 185.618 71.0431 185.075 71.2177C184.602 71.3748 184.182 71.1304 184.024 70.6766C183.709 69.7514 183.428 68.8088 183.236 67.8663C183.165 67.5172 183.008 67.2728 182.868 66.976C182.465 66.1207 182.044 65.2829 182.044 64.253C182.044 63.5897 181.904 62.7868 181.641 62.2456C181.256 61.4427 181.116 60.6572 180.976 59.8368C180.906 59.4528 181.186 59.3481 181.449 59.2608Z" fill="#1E6E67"/>
<path fill-rule="evenodd" clip-rule="evenodd" d="M187.44 16.408C188.298 16.408 189.051 16.8793 189.314 17.56C189.419 17.8393 189.489 18.1535 189.192 18.3455C188.929 18.5201 188.666 18.4851 188.403 18.2582C187.965 17.8742 187.492 17.56 186.932 18.0488C186.354 18.5375 186.459 19.131 186.757 19.707C186.879 19.9688 187.107 20.1609 187.265 20.4052C187.44 20.6496 187.51 20.9463 187.352 21.2256C187.195 21.5049 186.949 21.3478 186.704 21.2954C185.951 21.1034 185.303 21.5747 184.584 21.662C184.392 21.6795 184.217 21.7842 184.024 21.8017C183.691 21.8017 183.411 21.6096 183.393 21.3129C183.393 21.0162 183.621 20.8067 183.989 20.8416C184.409 20.8765 184.742 20.7369 185.057 20.475C185.338 20.2481 185.408 20.0387 185.285 19.6721C185.075 19.0612 185.075 18.3979 185.303 17.8044C185.67 16.8094 186.091 16.5301 187.44 16.4429V16.408Z" fill="#1E6E67"/>
<path fill-rule="evenodd" clip-rule="evenodd" d="M190.05 76.8906C191.451 77.1175 192.94 77.0128 194.429 77.1699C194.885 77.2223 195.375 77.3096 195.375 77.8507C195.375 78.3743 194.85 78.3569 194.482 78.3743C192.8 78.514 191.119 78.5314 189.454 78.2172C189.016 78.13 188.526 78.095 188.561 77.5016C188.578 76.8906 189.087 76.9081 189.524 76.8906C189.665 76.8906 189.822 76.8906 190.05 76.8906Z" fill="#1E6E67"/>
<path opacity="0.8" fill-rule="evenodd" clip-rule="evenodd" d="M148.62 47.5483C148.62 48.3512 148.62 49.1367 148.62 49.9397C148.62 50.376 148.498 50.6379 148.025 50.6379C147.552 50.6379 147.342 50.4808 147.324 49.9571C147.289 48.4211 147.272 46.9024 147.324 45.3664C147.324 45.2093 147.377 45.0347 147.412 44.8602C147.482 44.4587 147.762 44.3016 148.148 44.3365C148.533 44.3714 148.568 44.7031 148.585 44.9824C148.603 45.8202 148.585 46.6755 148.585 47.5134H148.62V47.5483Z" fill="#E06765"/>
<path fill-rule="evenodd" clip-rule="evenodd" d="M152.072 44.2492C152.86 44.0572 152.86 44.7205 152.807 45.1744C152.72 45.9948 152.947 46.7279 153.088 47.4959C153.158 47.8101 153.28 48.1418 153.017 48.3861C152.667 48.6829 152.212 48.4909 151.826 48.421C151.476 48.3512 151.616 48.0021 151.528 47.7752C151.248 46.9897 151.055 46.2217 151.091 45.3838C151.126 44.5983 151.406 44.2143 152.054 44.2492H152.072Z" fill="#1E6E67"/>
<path fill-rule="evenodd" clip-rule="evenodd" d="M191.504 24.1407C191.224 24.1582 191.084 24.1407 190.978 24.0011C190.838 23.8265 191.031 23.7392 191.101 23.6345C191.574 22.8839 192.362 22.6221 193.133 22.3428C193.308 22.273 193.483 22.2905 193.571 22.4825C193.641 22.657 193.764 22.9188 193.571 23.0236C192.853 23.4076 192.029 23.6345 191.504 24.1407Z" fill="#2C6F68"/>
<path fill-rule="evenodd" clip-rule="evenodd" d="M194.692 20.2831C194.587 20.6497 194.71 21.121 194.167 21.121C193.869 21.121 193.676 20.929 193.711 20.6148C193.764 20.2482 193.869 19.8642 194.272 19.7944C194.622 19.742 194.675 20.0562 194.692 20.2831Z" fill="#3F7771"/>
<path fill-rule="evenodd" clip-rule="evenodd" d="M159.306 42.94C159.447 42.7655 159.587 42.7306 159.744 42.8877C159.604 42.9226 159.482 43.2368 159.306 42.94Z" fill="#6E8C87"/>
<path fill-rule="evenodd" clip-rule="evenodd" d="M204.835 6.33628C204.257 5.76026 203.591 5.25405 202.873 4.93986C200.561 3.85763 198.143 3.14196 195.551 3.19433C195.253 3.19433 194.92 3.26415 194.692 3.00232H194.394C194.342 3.24669 194.114 3.24669 193.939 3.26415C193.151 3.35143 192.397 3.49107 191.627 3.71799C190.803 3.96236 189.997 4.36383 189.139 4.43365C187.79 4.55584 186.441 4.66057 185.093 4.81767C183.779 4.97477 182.447 5.28896 181.151 5.65553C179.872 6.00463 178.821 6.73776 177.665 7.33124C176.947 7.6978 176.386 8.25637 176.036 8.97204C175.738 9.54806 175.913 10.159 176.123 10.7176C176.369 11.3983 177.157 11.6427 177.665 11.8173C179.031 12.2885 180.503 12.4282 181.957 12.4806C183.183 12.5155 184.427 12.4806 185.653 12.4806C185.46 12.8122 185.373 13.0042 185.285 13.2486C185.093 13.8421 184.742 14.2086 184.041 13.9293C183.271 13.6326 182.57 13.8246 181.887 14.2086C180.766 14.837 180.082 15.7796 180.082 17.0713C180.082 18.4328 180.678 19.5325 181.974 20.1434C182.342 20.318 182.763 20.4925 183.008 20.0911C183.236 19.7071 183.008 19.3929 182.623 19.0787C181.712 18.363 181.309 17.3157 182.342 16.1462C182.605 15.8494 182.675 15.2734 183.288 15.413C184.234 15.6225 185.022 14.7847 185.968 14.9767C186.038 14.9767 186.144 14.8894 186.196 14.8196C186.459 14.453 186.687 14.0515 186.949 13.685C187.58 12.8122 188.281 11.9918 189.489 12.0791C190.943 12.1838 192.327 12.0093 193.729 11.6427C193.974 11.5729 194.202 11.6078 194.429 11.7649C195.095 12.2187 195.883 12.4806 196.462 13.1089C197.267 13.9817 197.968 14.8719 197.933 16.1462C197.915 16.8095 197.653 17.2109 196.899 17.2982C195.989 17.403 195.148 17.2109 194.342 16.8618C193.764 16.6 193.116 16.5476 192.678 16.9317C191.977 17.56 191.364 18.1884 190.365 18.3106C190.155 18.3455 189.805 18.5026 189.892 18.8517C189.962 19.131 190.155 19.2881 190.505 19.3579C191.592 19.5849 192.415 19.0612 193.256 18.4852C193.624 18.2408 193.939 17.8393 194.465 18.1186C194.955 18.3804 195.498 18.4503 196.006 18.6248C197.005 18.9914 197.81 18.5026 198.546 18.1186C199.457 17.6124 199.755 15.8843 199.369 14.8894C198.756 13.3184 197.793 12.0616 196.181 11.3634C196.462 10.9445 196.882 10.9794 197.25 10.9619C198.424 10.9096 199.597 10.8048 200.771 10.8572C202.295 10.927 203.486 10.2114 204.607 9.3386C205.571 8.58802 205.623 7.15668 204.817 6.35374L204.835 6.33628ZM203.434 8.02945C201.647 9.39096 199.51 9.3386 197.635 9.80989C196.637 9.53061 195.831 9.80989 195.06 10.0368C192.59 10.7525 190.033 10.6477 187.51 10.9619C185.758 11.1889 184.024 11.3634 182.255 11.2587C180.923 11.1889 179.592 11.1889 178.331 10.6652C178.015 10.5256 177.595 10.351 177.63 10.0019C177.683 9.58297 177.805 9.14659 178.191 8.81494C179.68 7.5407 181.449 6.8774 183.306 6.38865C184.304 6.12682 185.338 6.00463 186.371 5.88245C188.316 5.67298 190.26 5.67298 192.117 4.88749C193.956 4.102 195.901 4.15437 197.88 4.48602C199.72 4.80022 201.454 5.30642 202.978 6.40611C203.206 6.58066 203.434 6.79012 203.591 7.01704C203.836 7.3836 203.907 7.61052 203.416 7.99454L203.434 8.02945Z" fill="#1E6E67"/>
<path fill-rule="evenodd" clip-rule="evenodd" d="M186.179 73.0504C185.215 72.0206 184.129 71.4096 182.693 71.462C182.22 71.4795 181.641 71.6889 181.291 71.4969C180.888 71.27 181.133 70.6067 181.028 70.1354C180.766 68.8961 180.485 67.6393 180.398 66.3651C180.293 64.9686 178.734 63.6071 177.367 63.9039C177.104 63.9562 176.789 64.0784 176.807 64.445C176.807 64.7592 176.964 64.8988 177.297 64.9337C178.173 65.0036 178.506 65.6494 178.734 66.4C178.996 67.2727 179.014 68.163 179.189 69.0357C179.347 69.8561 179.259 70.7638 179.574 71.4969C179.837 72.1079 179.644 72.265 179.259 72.5442C177.665 73.7661 177.052 75.4244 177.157 77.3794C177.192 78.1823 177.7 78.8282 177.893 79.5787C177.98 79.9453 178.383 80.1722 178.453 80.626C178.488 80.9228 178.944 80.9402 179.224 81.0799C180.293 81.5861 181.379 82.1447 182.587 82.0923C183.498 82.0574 184.514 81.9352 185.285 81.4988C186.827 80.626 187.913 79.3518 187.878 77.3968C187.808 75.756 187.352 74.2898 186.196 73.033L186.179 73.0504ZM185.916 78.7234C185.408 79.9453 184.444 80.6784 183.113 80.7657C182.202 80.8355 181.291 80.661 180.433 80.3293C179.504 79.9453 179.294 79.0376 179.049 78.1998C178.926 77.8157 178.909 77.3968 178.751 77.0128C178.628 76.5764 178.611 76.14 178.751 75.7037C179.049 75.2498 179.434 74.8658 179.522 74.2898C179.557 74.0978 179.75 73.9058 179.907 73.7661C180.801 72.9806 181.782 72.3697 183.043 72.5268C184.094 72.649 184.83 73.3996 185.338 74.1501C186.284 75.5116 186.582 77.1001 185.916 78.7234Z" fill="#1E6E67"/>
<path fill-rule="evenodd" clip-rule="evenodd" d="M178.751 75.7212C178.751 76.1576 178.751 76.594 178.751 77.0303C178.418 76.594 178.296 76.1576 178.751 75.7212Z" fill="#32726D"/>
<path fill-rule="evenodd" clip-rule="evenodd" d="M157.467 54.8621C157.502 53.7973 157.555 52.75 157.537 51.6852C157.537 51.0219 158.045 51.0743 158.43 50.9521C158.886 50.8124 158.974 51.1964 159.026 51.4932C159.166 52.2787 159.219 53.0467 159.149 53.8671C159.061 54.9144 159.201 55.9792 159.149 57.0265C159.079 58.2833 159.254 59.5401 159.009 60.7794C158.974 60.954 158.921 61.1111 158.886 61.2681C158.816 61.5823 158.623 61.8093 158.29 61.8267C157.957 61.8267 157.73 61.5823 157.712 61.2856C157.625 60.2557 157.327 59.2608 157.59 58.1611C157.747 57.4978 157.695 56.6599 157.52 55.9094C157.467 55.5603 157.449 55.2286 157.449 54.8795L157.467 54.8621Z" fill="#1E6E67"/>
<path fill-rule="evenodd" clip-rule="evenodd" d="M158.711 78.1299C158.711 79.1074 158.413 79.6136 157.958 79.5787C157.485 79.5613 157.239 79.0027 157.134 78.2172C156.906 76.5764 157.134 74.9356 157.064 73.2774C157.029 72.4221 156.994 71.4969 157.414 70.6591C157.555 70.3972 157.59 70.118 158.01 70.1703C158.395 70.2227 158.571 70.3972 158.641 70.7463C158.798 71.5318 158.868 72.3522 158.798 73.0854C158.711 74.1327 158.921 75.18 158.711 76.2099C158.571 76.8906 158.781 77.5539 158.728 78.095L158.711 78.1299Z" fill="#1E6E67"/>
<path fill-rule="evenodd" clip-rule="evenodd" d="M152.107 53.8496C152.457 53.7972 152.615 54.0591 152.825 54.3733C153.666 55.7173 154.191 57.201 154.997 58.5625C155.242 58.964 155.347 59.4528 155.523 59.8891C155.838 60.6572 156.188 61.4252 156.504 62.2107C156.591 62.4376 156.696 62.7169 156.433 62.874C156.171 63.0311 155.996 62.8042 155.803 62.6645C154.647 61.8092 154.104 60.535 153.526 59.3306C152.93 58.0389 152.299 56.7821 151.739 55.4729C151.581 55.0889 151.511 54.6875 151.511 54.2685C151.511 53.9369 151.686 53.7798 152.089 53.8671L152.107 53.8496Z" fill="#1E6E67"/>
<path fill-rule="evenodd" clip-rule="evenodd" d="M160.638 61.8966C160.69 61.722 160.708 61.338 160.883 61.1285C161.566 60.3605 161.829 59.3655 162.372 58.5102C162.495 58.3008 162.6 58.0739 162.757 57.8993C163.546 57.0789 163.914 55.9967 164.527 55.0715C164.719 54.7923 165.473 54.4606 165.805 54.6526C166.191 54.8621 166.156 55.1763 166.033 55.5777C165.893 56.1189 165.543 56.5378 165.227 56.9218C164.246 58.1437 163.756 59.6448 162.81 60.8842C162.407 61.4078 161.987 61.8966 161.549 62.3853C161.373 62.5773 161.093 62.6821 160.813 62.5424C160.603 62.4377 160.603 62.2282 160.603 61.8966H160.638Z" fill="#1E6E67"/>
<path fill-rule="evenodd" clip-rule="evenodd" d="M160.673 66.1207C160.673 67.4124 160.06 67.9186 158.798 67.6917C158.588 67.6568 158.413 67.6219 158.343 67.395C158.255 67.1331 158.5 67.0633 158.623 66.9586C159.271 66.4 159.341 65.6145 158.763 65.0385C158.606 64.8814 158.518 64.5847 158.185 64.6894C157.852 64.7941 157.66 65.0559 157.572 65.3527C157.502 65.6494 157.502 65.9636 157.712 66.2429C157.94 66.5746 158.29 67.0284 157.992 67.3426C157.642 67.7092 157.099 67.3775 156.731 67.168C155.505 66.4524 155.593 64.8639 156.801 64.061C157.625 63.5199 158.5 63.3628 159.359 63.6595C159.972 63.869 160.427 64.445 160.515 65.1781C160.55 65.4923 160.603 65.8065 160.655 66.1033L160.673 66.1207Z" fill="#1E6E67"/>
<path fill-rule="evenodd" clip-rule="evenodd" d="M163.773 78.6362C163.476 78.6362 163.265 78.6013 163.09 78.3046C161.689 75.8958 160.936 73.26 160.147 70.6242C160.042 70.2577 159.762 69.7166 160.252 69.5246C160.708 69.35 160.883 69.8911 161.128 70.2228C161.794 71.0955 162.004 72.1778 162.407 73.1553C162.845 74.2724 163.318 75.3721 163.773 76.4718C163.966 76.9431 164.141 77.4144 164.316 77.8857C164.492 78.3919 164.159 78.5315 163.791 78.6188L163.773 78.6362Z" fill="#1E6E67"/>
<path fill-rule="evenodd" clip-rule="evenodd" d="M162.232 68.0059C162.6 68.1455 163.125 68.2502 163.528 68.5295C165.332 69.7514 167.119 71.0082 168.906 72.265C169.011 72.3522 169.134 72.4046 169.204 72.5966C169.309 72.9283 169.799 73.2599 169.432 73.609C169.064 73.9407 168.538 73.7487 168.17 73.5043C167.417 72.9981 166.716 72.4395 165.998 71.8635C165.858 71.7587 165.735 71.6889 165.578 71.6017C164.386 71.0431 163.405 70.1703 162.389 69.3499C162.179 69.1928 162.022 68.9659 161.794 68.8437C161.566 68.739 161.443 68.5644 161.514 68.3201C161.601 68.0582 161.846 67.9884 162.214 67.9884L162.232 68.0059Z" fill="#1E6E67"/>
<path fill-rule="evenodd" clip-rule="evenodd" d="M162.6 64.7766C162.337 64.7592 161.881 64.7766 161.811 64.2704C161.741 63.7817 162.214 63.7119 162.53 63.6246C163.143 63.45 163.441 62.8566 164.019 62.5773C165.332 61.9314 166.664 61.2332 167.802 60.2732C168.188 59.9415 168.678 59.6971 169.239 59.6797C169.554 59.6797 169.729 59.7844 169.835 60.0812C169.922 60.3604 169.782 60.5001 169.572 60.6746C168.416 61.7045 166.979 62.2805 165.718 63.1358C165.052 63.5722 164.351 63.9562 163.721 64.4275C163.406 64.6545 163.09 64.7766 162.582 64.7592L162.6 64.7766Z" fill="#1E6E67"/>
<path fill-rule="evenodd" clip-rule="evenodd" d="M170.623 66.9586C168.293 67.0633 165.963 66.784 163.651 67.0284C163.108 67.0807 162.617 66.9585 162.092 66.9411C161.759 66.9236 161.636 66.7316 161.654 66.4C161.671 66.0858 161.829 66.0334 162.127 66.016C163.703 65.9636 165.28 65.789 166.874 65.9112C167.68 65.9811 168.503 65.9811 169.344 65.8763C170.132 65.7716 170.956 65.8065 171.761 65.824C172.112 65.824 172.462 66.0334 172.462 66.4349C172.462 66.8887 172.042 66.9411 171.726 66.9411C171.359 66.9411 171.008 66.9411 170.64 66.9411L170.623 66.9586Z" fill="#1E6E67"/>
<path fill-rule="evenodd" clip-rule="evenodd" d="M156.241 69.8387C156.486 70.1704 156.398 70.4497 156.328 70.6766C155.768 72.5967 155.365 74.5691 154.226 76.2798C153.876 76.8034 153.49 77.3096 152.947 77.6762C152.737 77.8158 152.562 77.9555 152.299 77.746C152.071 77.5365 152.089 77.3445 152.229 77.1002C152.65 76.367 152.895 75.5466 153.263 74.7786C153.753 73.7487 154.349 72.7887 154.717 71.689C154.962 70.9035 155.855 70.6417 156.241 69.8562V69.8387Z" fill="#1E6E67"/>
<path fill-rule="evenodd" clip-rule="evenodd" d="M148.568 74.1152C148.288 74.1152 148.077 74.028 147.972 73.8185C147.885 73.644 148.06 73.5218 148.148 73.3821C148.743 72.3174 149.969 72.0206 150.81 71.2526C151.476 70.6416 152.036 69.8911 152.807 69.3849C153.298 69.0532 153.631 68.5295 154.191 68.3375C154.366 68.2677 154.594 68.1804 154.734 68.3724C154.857 68.5295 154.804 68.739 154.717 68.931C154.647 69.0881 154.542 69.2278 154.454 69.3674C153.035 71.497 150.985 72.8585 148.796 74.0629C148.708 74.1152 148.621 74.1327 148.568 74.1327V74.1152Z" fill="#1E6E67"/>
<path fill-rule="evenodd" clip-rule="evenodd" d="M151.528 66.9586C149.426 66.9236 147.622 67.1331 145.818 66.9236C145.66 66.9062 145.502 66.9236 145.327 66.8713C145.047 66.784 144.819 66.6793 144.837 66.3476C144.837 65.9985 145.169 65.9112 145.415 65.8938C146.378 65.8414 147.359 65.7192 148.305 65.824C149.269 65.9461 150.215 65.8414 151.161 65.824C151.949 65.824 152.737 65.9287 153.525 65.8763C153.543 65.8763 153.578 65.8763 153.596 65.8763C154.016 65.9112 154.436 66.1731 154.419 66.4873C154.419 66.784 153.928 66.9586 153.543 66.9236C152.772 66.8538 152.001 67.0633 151.528 66.9586Z" fill="#1E6E67"/>
<path fill-rule="evenodd" clip-rule="evenodd" d="M153.683 64.0435C152.632 63.8864 151.581 63.5373 150.618 63.0311C149.391 62.3678 148.13 61.7918 146.816 61.338C146.431 61.2158 145.975 61.0761 146.151 60.5874C146.308 60.151 146.886 60.0637 147.219 60.1859C148.848 60.8143 150.495 61.4427 152.037 62.2456C152.702 62.5947 153.561 62.682 154.016 63.4152C154.104 63.5722 154.384 63.677 154.261 63.8864C154.174 64.0435 153.928 64.0785 153.683 64.061V64.0435Z" fill="#1E6E67"/>
<path fill-rule="evenodd" clip-rule="evenodd" d="M182.325 76.1401C182.868 76.0353 183.183 76.3146 183.201 76.7685C183.201 77.0652 183.078 77.5714 182.64 77.4143C182.272 77.2747 181.554 77.6412 181.571 76.9081C181.571 76.559 181.659 75.9655 182.307 76.1401H182.325Z" fill="#1E6E67"/>
<path fill-rule="evenodd" clip-rule="evenodd" d="M208.671 32.3622C208.391 32.6415 208.181 32.9906 207.936 33.2873C207.34 34.0204 206.92 34.8932 206.079 35.4343C205.886 35.5565 205.781 35.7485 205.536 35.8358C205.063 36.0104 204.73 35.8358 204.379 35.574C203.609 34.9979 203.083 34.2125 202.523 33.4444C202.19 32.9906 201.909 32.5018 201.769 31.9433C201.734 31.7513 201.717 31.6116 201.98 31.5593C202.488 31.472 202.645 31.5593 202.978 31.9258C203.311 32.2924 203.626 32.6938 203.959 33.043C204.082 33.1826 204.152 33.1302 204.222 33.008C204.274 32.9208 204.274 32.7986 204.274 32.6938C204.274 32.3971 204.292 32.0829 204.274 31.7862C204.222 31.28 204.362 30.8261 204.572 30.3897C204.712 30.093 205.063 29.901 205.448 29.9708C205.728 30.0232 205.851 30.2676 205.886 30.5119C205.991 31.1752 205.991 31.856 206.009 32.5367C206.009 32.6589 205.904 32.7811 205.921 32.9208C205.921 33.008 205.956 33.1128 206.044 33.1477C206.149 33.1826 206.131 33.0604 206.184 33.0255C206.604 32.6589 206.902 32.1876 207.305 31.7862C207.62 31.472 207.936 31.5418 208.268 31.5069C208.426 31.5069 208.531 31.6291 208.584 31.7862C208.601 31.8385 208.566 31.9258 208.654 31.9607V32.3273L208.671 32.3622ZM205.974 13.7548C205.974 13.9643 205.974 14.1563 205.939 14.3658C205.886 14.8371 205.571 15.0989 205.08 15.0814C204.73 15.0814 204.415 14.7498 204.397 14.3309C204.379 13.9119 204.327 13.5105 204.397 13.0915C204.397 12.9868 204.397 12.8821 204.379 12.7773C204.292 12.4108 204.537 12.1315 204.625 11.8173C204.677 11.6253 205.045 11.5904 205.273 11.6951C205.606 11.8522 205.798 12.114 205.851 12.4631C205.921 12.8995 205.991 13.3185 205.974 13.7548ZM204.292 27.2827C204.292 27.0209 204.292 26.7765 204.292 26.5147C204.292 26.0783 204.52 25.8688 204.94 25.8863C205.098 25.8863 205.255 25.8863 205.413 25.8863C205.641 25.8863 205.851 26.0608 205.886 26.2703C206.026 26.9336 206.009 27.6318 205.991 28.2951C205.991 28.5569 205.658 28.8537 205.378 28.8537C205.22 28.8537 205.08 28.8537 204.923 28.8362C204.555 28.8013 204.309 28.5569 204.274 28.1555C204.257 27.8587 204.274 27.5794 204.274 27.2827H204.292ZM204.292 22.8316C204.292 22.4476 204.274 22.0636 204.415 21.697C204.59 21.2083 205.115 20.9813 205.588 21.1908C205.763 21.2606 205.851 21.4177 205.886 21.6097C205.921 21.7843 205.939 21.9763 205.956 22.1683C205.974 22.657 206.009 23.1283 206.009 23.6171C206.009 23.9836 205.816 24.1757 205.448 24.1757C205.308 24.1757 205.168 24.1757 205.028 24.1757C204.607 24.228 204.397 24.0709 204.309 23.4949C204.274 23.2854 204.309 23.0585 204.309 22.8316H204.292ZM206.009 17.9616C206.061 18.3456 206.009 18.7471 206.009 19.1485C206.009 19.4976 205.781 19.6547 205.448 19.6547C205.308 19.6547 205.168 19.6547 205.028 19.6198C204.712 19.5849 204.502 19.4104 204.45 19.0962C204.415 18.8692 204.362 18.6598 204.415 18.4154C204.45 18.2583 204.415 18.1012 204.379 17.9441C204.327 17.5426 204.397 17.1412 204.607 16.7921C204.747 16.5477 204.975 16.4255 205.273 16.4604C205.553 16.4779 205.711 16.6524 205.833 16.8793C205.991 17.211 205.974 17.5601 206.009 17.9441V17.9616Z" fill="#15787A"/>
<path fill-rule="evenodd" clip-rule="evenodd" d="M56.4596 39.868C56.0567 39.868 55.6713 39.9553 55.2859 40.0077C54.34 40.1124 53.429 40.4266 52.4656 40.2171C52.2553 40.1648 52.0276 40.2171 51.7999 40.1124C51.3444 39.9029 51.2218 39.5364 51.1692 39.1174C51.0466 38.1748 51.2218 37.2323 51.3619 36.2897C51.4495 35.7311 51.5897 35.19 51.8875 34.7012C51.9926 34.5441 52.0802 34.422 52.3079 34.579C52.7283 34.8583 52.7809 35.0329 52.7458 35.5391C52.7108 36.0453 52.6583 36.534 52.6407 37.0228C52.6407 37.1973 52.7283 37.2148 52.8509 37.1799C52.9561 37.145 53.0436 37.0752 53.1137 37.0053C53.3239 36.7959 53.5517 36.5864 53.7444 36.3595C54.0597 35.9755 54.4801 35.7486 54.9531 35.574C55.2684 35.4693 55.6538 35.574 55.864 35.9057C56.0217 36.1326 55.9341 36.3944 55.7939 36.6039C55.391 37.1624 54.918 37.6337 54.4451 38.1225C54.3575 38.2098 54.1998 38.2098 54.1122 38.3319C54.0597 38.4018 54.0071 38.489 54.0422 38.5763C54.0772 38.681 54.1648 38.5763 54.2173 38.5763C54.7779 38.6112 55.3209 38.489 55.899 38.489C56.337 38.489 56.5122 38.7683 56.7749 38.9778C56.8975 39.0825 56.8625 39.2571 56.7749 39.3967C56.7399 39.4491 56.6523 39.484 56.6873 39.5713C56.5997 39.6585 56.5122 39.7458 56.4246 39.8331L56.4596 39.868Z" fill="#1E6E67"/>
<path fill-rule="evenodd" clip-rule="evenodd" d="M56.9676 33.1826C57.1428 33.0081 57.3355 32.8161 57.5106 32.6415C57.826 32.3448 58.1238 32.3448 58.4216 32.6415C58.5267 32.7462 58.6493 32.8684 58.7544 32.9731C58.9121 33.1302 58.9471 33.3921 58.8245 33.5841C58.4391 34.1601 57.9486 34.6314 57.4581 35.1027C57.2654 35.2947 56.8099 35.2598 56.6348 35.0678C56.5297 34.9631 56.4245 34.8409 56.337 34.7361C56.0917 34.4569 56.0917 34.1077 56.3545 33.7936C56.5472 33.5666 56.7574 33.3746 56.9676 33.1652V33.1826Z" fill="#1E6E67"/>
<path fill-rule="evenodd" clip-rule="evenodd" d="M60.1383 30.0406C60.4186 29.7788 60.6638 29.4821 61.0142 29.325C61.4871 29.1155 62.0127 29.325 62.2054 29.7963C62.2754 29.9708 62.2229 30.1454 62.1353 30.3025C62.0302 30.4596 61.9251 30.5992 61.7849 30.7389C61.4521 31.1054 61.1368 31.4545 60.7864 31.8036C60.5237 32.0655 60.2434 32.0655 59.9806 31.8036C59.8755 31.6989 59.7879 31.5942 59.6828 31.5069C59.35 31.2451 59.3149 31.0007 59.6653 30.5119C59.7879 30.3374 59.9806 30.1977 60.1383 30.0406Z" fill="#1E6E67"/>
<path fill-rule="evenodd" clip-rule="evenodd" d="M64.7981 27.8063C64.5704 28.1031 64.255 28.3649 63.9397 28.6442C63.677 28.8711 63.4142 28.8537 63.1865 28.5918C63.0989 28.4871 62.9938 28.3824 62.9062 28.2776C62.7135 28.0158 62.696 27.754 62.8711 27.4921C62.9938 27.3001 63.1164 27.1081 63.3266 26.9859C63.4667 26.8987 63.5368 26.759 63.6419 26.6368C63.8872 26.3052 64.22 26.0957 64.6229 25.991C64.9032 25.9212 65.1484 25.991 65.3411 26.2354C65.5163 26.4448 65.5163 26.6718 65.4287 26.9336C65.3061 27.2827 65.0433 27.5271 64.7981 27.8238V27.8063Z" fill="#1E6E67"/>
</g>
<defs>
<clipPath id="clip0_125_21542">
<rect width="353" height="83" fill="white"/>
</clipPath>
</defs>
</svg>
