<svg width="120" height="120" viewBox="0 0 120 120" fill="none" xmlns="http://www.w3.org/2000/svg">
<g clip-path="url(#clip0_125_16217)">
<path fill-rule="evenodd" clip-rule="evenodd" d="M18 54.9681C18.3951 54.9023 18.3457 54.5895 18.3457 54.3097C18.3457 53.1409 18.2798 51.9722 18.2634 50.8199C18.2305 48.8775 18.3128 46.9022 18.9547 45.0257C19.037 44.7788 19.0535 44.5318 19.0864 44.2685C19.251 43.215 20.1893 42.8364 20.8477 42.2273C22.3786 40.7787 24.1399 41.3878 25.8518 41.7829C28.1235 42.3261 30.428 42.9516 32.7654 42.8857C35.07 42.8199 37.3909 42.8857 39.6955 42.6717C40.8642 42.5565 41.9506 42.2931 43.0535 41.9475C44.2222 41.5853 45.4403 41.3878 46.642 41.2232C47.1193 41.1573 47.5802 40.9927 48.0905 40.9433C50 40.7623 50.6584 42.0462 51.3004 43.3796C52.502 45.8158 52.749 48.4002 52.2716 51.0339C52.1893 51.4784 52.7325 51.7582 52.4527 52.1368C52.0082 52.7623 52.2058 53.6842 51.1687 54.1286C50.5926 54.3591 49.9506 54.8858 49.4239 55.3796C48.716 56.0381 48.7819 57.0422 48.6667 57.9146C48.0247 63.0999 48.4691 68.318 48.3704 73.5197C48.321 76.565 48.3374 79.5938 48.321 82.6391C48.321 83.3634 48.502 83.9724 47.4156 84.4169C46.6749 84.7296 45.8848 85.1411 45.0946 85.4374C43.2181 86.1288 41.3086 86.458 39.2839 86.5897C37.3745 86.7049 35.4815 86.5568 33.6049 86.5897C32.0741 86.5897 30.4444 86.4416 28.9136 86.0465C27.2346 85.6185 25.4732 85.4868 23.8601 84.8119C22.823 84.3839 21.7366 83.923 21.1605 82.8201C20.93 82.3757 20.4362 82.5732 20.1235 82.1782C19.07 80.8119 18.428 79.3469 18.3951 77.602C18.3951 77.0094 18.4774 76.351 18.0165 75.8407V70.4908C18.6091 69.602 18.0988 68.5649 18.3621 67.6431C18.4938 67.1822 18.3621 66.8365 18.0165 66.5237V65.141C18.5103 63.8406 18.4609 62.4908 18.3292 61.141C18.3128 60.9764 18.2634 60.7295 18.0165 60.6636V59.1163C18.5103 59.0834 18.4609 58.5895 18.3951 58.4085C18.0658 57.3385 18.4444 56.2027 18.0165 55.1492V54.9681H18ZM22.0494 52.071C21.8354 52.9105 22.1975 53.7006 22.0988 54.4743C21.9012 56.071 22.0658 57.6842 22.0658 59.2644C22.0658 61.2562 21.9835 63.2645 22.0658 65.2727C22.1152 66.1122 22.0658 66.7213 22.9877 67.034C23.7613 67.2974 24.1564 68.2851 25.144 68.2028C26.2469 68.104 27.3169 68.4003 28.3868 68.6143C29.9506 68.9435 31.5309 69.2234 33.144 69.0258C34.8066 68.8283 36.4691 68.5978 38.1152 68.3345C38.5926 68.2686 39.3004 68.1369 39.3498 67.6925C39.4815 66.4414 39.7613 65.1739 39.5309 63.89C39.2016 62.0957 39.7448 60.2686 39.5309 58.4579C39.465 57.7994 39.3992 57.1574 39.5473 56.499C39.7613 55.5113 39.4979 54.5401 39.3498 53.5689C39.3169 53.2891 39.2016 53.2562 38.9383 53.1739C37.9177 52.8611 36.9794 53.3879 35.9918 53.4372C34.5103 53.5196 33.0453 53.536 31.5967 53.2726C31.3004 53.2233 31.0206 53.2068 30.7572 53.2726C29.8848 53.4702 29.0288 53.2068 28.2058 53.0751C27.3004 52.927 26.4115 52.713 25.5062 52.7294C24.321 52.7459 23.1852 52.5319 22.0165 52.0545L22.0494 52.071Z" fill="#E06765"/>
<path fill-rule="evenodd" clip-rule="evenodd" d="M69.6706 100.269C68.6006 99.8244 67.3989 99.9067 66.3455 99.4293C66.115 99.3306 65.8187 99.3635 65.6212 99.2153C64.0409 98.1454 62.1479 98.1289 60.4031 97.6022C59.3166 97.2729 58.2631 96.8943 57.1932 96.5486C56.1726 96.203 55.1026 96.1371 54.0491 95.9396C53.687 95.8737 53.3084 95.775 52.9957 95.6104C51.4483 94.7873 49.6541 94.5733 48.1397 93.668C47.8928 93.5198 47.6952 93.3881 47.6952 93.0918C47.7117 91.0671 47.3989 89.0095 48.008 87.0177C48.222 86.3099 49.3084 85.8161 50.0162 86.063C50.3948 86.1947 50.4607 86.4745 50.4771 86.8037C50.5265 87.7749 50.543 88.7461 50.5924 89.7173C50.6088 90.1453 50.6253 90.5733 50.7076 91.0013C50.8722 91.8573 51.4319 92.2688 52.2878 92.4992C53.4072 92.7955 54.543 93.1083 55.5965 93.6021C55.7775 93.6844 55.9751 93.7997 56.1561 93.7832C57.4236 93.6844 58.5265 94.3099 59.7117 94.5075C61.4566 94.8202 62.9216 96.1042 64.7817 95.9396C65.0944 95.9067 65.3578 96.1042 65.6212 96.2688C66.757 96.9602 68.0245 97.2565 69.3249 97.3223C69.7693 97.3388 70.2467 97.3882 70.5924 96.7791C70.8887 96.2524 71.6952 96.1371 72.1891 95.7585C73.0944 95.0672 74.2302 94.8038 74.971 93.7832C75.4648 93.1083 76.5018 92.8285 77.078 92.1206C77.9504 91.0342 79.399 90.7708 80.2878 89.7338C80.864 89.0589 81.7364 88.6309 82.0492 87.742C82.1973 87.3305 82.7405 86.9025 82.1808 86.3922C82.0821 86.3099 82.1315 86.063 82.1315 85.8819C82.0985 84.2523 82.0492 82.6226 82.0821 80.993C82.0821 80.5979 81.9175 80.0383 82.5594 79.742C82.8064 79.6267 82.6253 79.1494 82.4442 78.886C82.115 78.3757 82.1315 77.9148 82.5101 77.4374C82.757 77.1247 82.5594 76.8284 82.4607 76.5485C82.1973 75.6267 81.8846 74.7049 82.5924 73.8324C82.6418 73.7831 82.6582 73.6514 82.6418 73.6185C81.8681 72.5485 82.4442 71.3633 82.3619 70.2275C82.2302 68.5485 82.0492 66.8694 82.4278 65.174C82.5594 64.5814 82.1479 63.7912 82.3455 63.1493C82.7241 61.9311 82.2631 60.7789 82.2302 59.6101C82.2302 58.82 82.2796 58.0463 82.1644 57.2562C82.115 56.9928 82.2796 56.6472 82.4278 56.4002C82.8887 55.643 82.7899 55.2809 82.0327 54.8694C81.0286 54.3426 79.8763 54.1615 79.0203 53.3385C78.7734 53.108 78.3619 53.0422 77.9833 52.9599C76.5512 52.6307 75.1191 52.285 73.9669 51.2644C73.6541 50.9846 73.2261 51.0669 72.8475 50.9681C71.4483 50.606 70.1479 49.9804 68.9627 49.1409C68.7981 49.0257 68.5677 48.9269 68.4031 48.9599C67.7775 49.1245 67.2508 48.9599 66.7076 48.6471C66.5924 48.5813 66.3948 48.5813 66.2961 48.6471C64.9298 49.536 63.3166 49.8488 61.8187 50.4249C60.5183 50.9352 59.0697 51.1492 57.7035 51.5278C57.2426 51.6595 56.7817 51.3303 56.4031 51.0504C56.1891 50.8858 55.9586 50.8364 55.7282 50.7377C56.5018 49.7006 57.5882 49.1739 58.6911 48.6471C60.8146 47.6265 63.0533 46.8529 65.259 46.0792C66.0821 45.7994 67.152 45.9475 68.1068 46.2603C69.4566 46.7047 70.9051 46.9022 72.1726 47.5936C73.2261 48.1697 74.4936 48.2027 75.4648 49.0916C76.0409 49.6183 76.9792 49.6677 77.7364 49.9804C78.5759 50.3097 79.3331 50.9846 80.3537 50.8858C80.5348 50.8858 80.7817 50.9681 80.9463 51.1821C81.3413 51.6759 81.9339 51.8735 82.5101 51.9722C84.0409 52.2027 84.6994 53.322 85.4401 54.5072C86.2138 55.7583 86.329 57.0916 86.2467 58.4414C86.1644 59.5278 86.4771 60.713 86.1315 61.6678C85.5389 63.3139 86.4113 64.8118 86.1808 66.3427C85.9504 67.8736 86.3619 69.3715 86.2632 70.8859C86.1973 71.8571 86.4113 72.8283 85.901 73.7666C85.7035 74.1287 86.0162 74.5897 86.0656 75.0176C86.2631 76.4333 86.2302 77.8489 86.2138 79.2646C86.1973 80.6144 86.0985 81.9477 86.1479 83.2975C86.1644 83.8078 86.5265 84.3181 86.3948 84.8613C86.0985 85.9642 86.3125 87.0671 86.3619 88.17C86.3948 88.9766 85.5718 89.2564 85.1273 89.7667C83.9257 91.1494 82.2631 91.9725 81.045 93.3388C80.7487 93.6844 80.3537 93.9972 79.9422 94.1618C79.5471 94.3264 79.1356 94.3429 79.2014 94.919C78.4113 94.919 78.2961 95.9067 77.6047 96.0384C76.6006 96.2194 76.0409 97.0589 75.3002 97.6186C74.0985 98.5075 73.0121 99.5939 71.3989 99.6762C71.0039 99.6927 70.5924 99.8079 70.3948 100.219H69.7035L69.6706 100.269Z" fill="#266E69"/>
<path fill-rule="evenodd" clip-rule="evenodd" d="M18 60.6472C18.2469 60.713 18.2798 60.9599 18.3128 61.1246C18.4444 62.4744 18.5103 63.8242 18 65.1246V60.6472Z" fill="white"/>
<path fill-rule="evenodd" clip-rule="evenodd" d="M18 55.1328C18.428 56.1698 18.0494 57.3221 18.3786 58.392C18.4444 58.5731 18.4938 59.0669 18 59.0999V55.1328Z" fill="white"/>
<path fill-rule="evenodd" clip-rule="evenodd" d="M18 66.5073C18.3292 66.8036 18.4774 67.1493 18.3457 67.6266C18.0823 68.5485 18.6091 69.5855 18 70.4744V66.5073Z" fill="white"/>
<path fill-rule="evenodd" clip-rule="evenodd" d="M62.3621 85.4868C59.7284 84.9601 57.0123 84.7461 54.7407 83.0835C54.4444 82.8695 54.4279 82.6391 54.4279 82.3592C54.4279 78.6061 54.4279 74.8366 54.395 71.0834C54.395 70.425 54.6584 70.2604 55.2345 70.4579C56.2716 70.8201 57.3086 71.1164 58.3292 71.5279C59.7942 72.104 61.2592 72.6966 62.8065 73.0423C63.3004 73.1575 63.6296 73.3551 63.3333 73.9312C63.3168 73.9806 63.3004 74.0464 63.3168 74.0958C63.7284 75.1329 63.2016 76.2193 63.4321 77.2563C63.7119 78.5238 63.251 79.7913 63.4979 81.0588C63.5637 81.3551 63.3168 81.7337 63.1851 82.0629C63.0699 82.3592 63.0864 82.6885 63.2839 82.8695C63.6296 83.1823 63.4814 83.5115 63.465 83.8572C63.465 84.1864 63.1358 84.4827 63.5144 84.8613C63.6954 85.0424 63.3662 85.421 63.0205 85.4868C62.8065 85.5362 62.5596 85.4868 62.3292 85.4868H62.3621Z" fill="#79CBE8"/>
<path fill-rule="evenodd" clip-rule="evenodd" d="M67.8931 87.1988C68.0577 83.709 68.2223 80.2193 68.3704 76.7131C68.4363 75.4785 68.4692 74.244 68.4692 73.0094C68.4692 71.7583 68.7655 70.5731 69.2099 69.4044C69.4075 68.8612 69.7861 68.4003 70.428 68.5484C71.0371 68.6966 71.1029 69.3221 71.1194 69.8159C71.1688 72.3016 71.1194 74.8036 71.2182 77.2892C71.2346 77.8654 70.8231 78.2275 70.889 78.8201C70.9877 79.6267 71.1194 80.4168 71.1029 81.2563C71.0042 84.565 70.675 87.8572 70.7408 91.1659C70.7408 91.5939 70.7408 92.0218 70.642 92.4498C70.461 93.421 70.1482 93.6186 69.1606 93.5527C68.6173 93.5198 68.3704 93.3058 68.2552 92.7461C67.8931 90.9025 67.926 89.0424 67.926 87.1658L67.8931 87.1988Z" fill="#266E69"/>
<path fill-rule="evenodd" clip-rule="evenodd" d="M77.2098 42.9022C74.7901 42.9845 72.6008 42.8364 70.4115 42.7211C69.0782 42.6388 67.679 42.6059 66.4279 42.1944C65.1111 41.7664 63.6954 41.8323 62.4444 41.1738C61.572 40.7129 60.5349 40.7129 59.5967 40.3837C58.395 39.9557 57.3086 39.3302 56.1893 38.754C55.6296 38.4742 55.8107 37.2396 56.4362 36.9269C56.93 36.68 57.3745 36.5812 58 36.8446C60.074 37.7499 62.2633 38.3261 64.4197 39.001C66.0164 39.4948 67.6461 39.5277 69.2263 39.9063C70.5926 40.2355 72.0247 39.9886 73.3415 40.5318C73.8683 40.7458 74.4115 40.4989 74.9547 40.4824C76.5514 40.4495 78.1646 40.4001 79.7777 40.3014C80.7654 40.2355 81.5391 41.1573 81.2263 42.1121C81.144 42.3919 80.8971 42.4578 80.6337 42.5236C79.4321 42.8199 78.2304 43.0339 77.2098 42.9022V42.9022Z" fill="#266E69"/>
<path fill-rule="evenodd" clip-rule="evenodd" d="M84.7491 54.1451C86.494 54.1451 88.0742 53.9311 89.6545 53.7336C90.6092 53.6019 91.6298 53.5196 92.5022 53.0587C93.424 52.5813 94.4611 52.5977 95.3335 51.8899C95.9426 51.3961 96.6833 51.3632 97.3582 51.001C98.2142 50.5237 98.9549 49.8652 99.745 49.2562C100.124 48.9599 99.9426 47.7418 99.4817 47.4455C99.1195 47.215 98.7903 47.1327 98.3459 47.429C96.8973 48.4002 95.3335 49.0586 93.8026 49.7994C92.6668 50.3591 91.4817 50.4414 90.3788 50.8693C89.4076 51.2479 88.3541 51.0504 87.4323 51.643C87.0701 51.8735 86.6586 51.643 86.2635 51.643C85.0948 51.643 83.9426 51.6759 82.7738 51.643C82.0495 51.6265 81.5393 52.5648 81.8191 53.5031C81.9014 53.7665 82.066 53.8323 82.2635 53.8982C83.1524 54.1451 84.0249 54.3262 84.7656 54.1615L84.7491 54.1451Z" fill="#266E69"/>
<path fill-rule="evenodd" clip-rule="evenodd" d="M53.5557 57.8488C54.7244 57.3879 55.531 58.4908 56.568 58.9023C56.8479 59.0175 57.1442 59.1986 57.4405 59.2151C58.8067 59.2809 59.959 59.9887 61.2265 60.318C61.5228 60.4003 61.8191 60.4826 62.1318 60.5155C62.9384 60.5813 63.7779 60.5813 64.3541 61.3385C64.601 61.6513 65.0125 61.783 65.4075 61.8982C66.1977 62.1451 66.6586 62.7871 67.1195 63.3962C67.3006 63.6266 67.4322 63.9394 67.1689 64.1698C66.9384 64.3838 66.708 64.746 66.2964 64.6143C64.9137 64.1863 63.5145 63.7748 62.1483 63.2974C60.8643 62.8365 59.5969 62.3756 58.2306 62.2439C58.1154 62.2439 58.0001 62.211 57.9014 62.178C56.173 61.6513 54.5269 60.927 52.8643 60.2357C52.1401 59.9229 52.0907 59.1821 52.173 58.606C52.2388 58.0957 52.7656 57.7665 53.5392 57.8653L53.5557 57.8488Z" fill="#266E69"/>
<path fill-rule="evenodd" clip-rule="evenodd" d="M69.6709 62.6883C69.5557 61.3879 70.6586 61.2068 71.4323 60.7459C72.3376 60.2027 73.3582 59.8241 74.0825 59.0011C74.1812 58.8858 74.3788 58.7706 74.5269 58.7706C75.5475 58.8035 76.2389 58.0628 76.9961 57.6183C77.9343 57.0751 79.8273 56.7624 80.7162 57.2562C81.21 57.5196 81.1607 58.0299 81.2594 58.4414C81.3417 58.7871 80.9467 58.8529 80.7162 59.0011C79.7944 59.5772 78.922 60.285 77.9179 60.6801C76.9631 61.0587 76.2553 61.8159 75.2677 62.0793C75.0701 62.1287 74.8726 62.2768 74.6915 62.4085C73.2923 63.3797 71.7779 63.8735 70.0495 63.4949C69.5228 63.3797 69.7203 62.9846 69.6874 62.6883H69.6709Z" fill="#266E69"/>
<path fill-rule="evenodd" clip-rule="evenodd" d="M87.7942 41.2232C87.0206 41.0915 86.2305 41.4042 85.8189 40.5154C85.4733 39.7746 85.6379 39.2479 86.4115 39.0668C88.1235 38.6882 89.7202 37.9804 91.3004 37.2561C92.1564 36.861 93.0288 37.1408 93.8354 37.289C94.3128 37.3713 94.4445 38.112 94.4774 38.5894C94.4938 38.8693 94.2469 39.2643 93.7037 39.4289C92.7654 39.6923 91.893 40.252 91.0206 40.68C90.0329 41.1573 88.8313 41.2396 87.7942 41.2232V41.2232Z" fill="#266E69"/>
<path fill-rule="evenodd" clip-rule="evenodd" d="M102 70.6061L101.654 67.1987C101.523 64.9106 101.737 62.639 101.654 60.3509C101.605 58.7542 101.654 57.141 101.523 55.5278C101.424 54.2768 101.654 52.9928 101.704 51.7088C101.737 50.9023 101.753 50.0792 101.704 49.2726C101.572 47.8076 101.605 46.359 101.671 44.8775C101.737 43.2808 101.803 41.6347 101.49 40.0215C101.457 39.9063 101.375 39.7746 101.407 39.6923C101.984 38.326 101.523 36.8939 101.687 35.5112L100.552 31.7581C99.9754 30.754 99.7285 29.6017 98.6421 28.828C97.9178 28.3177 97.3252 27.5605 96.5351 27.0667C95.2346 26.2601 94.0001 25.3877 92.4363 25.0749C91.926 24.9762 91.3334 25.0749 90.9219 24.8445C90.1647 24.4329 89.391 24.3013 88.6009 24.0708C87.3993 23.7087 86.1647 23.6428 84.963 23.3959C83.3499 23.0502 81.7202 22.7375 80.0083 22.9679C78.9383 23.0996 77.8025 22.7704 76.6997 22.6552C74.3951 22.4082 72.1235 22.5564 69.8519 22.8033C68.4527 22.9515 67.07 23.3959 65.6544 23.5111C63.6462 23.6922 61.8519 24.5317 59.9589 25.0585C58.8725 25.3548 58.0659 26.1613 57.0289 26.5564C56.321 26.8198 55.6297 27.2972 55.2511 27.9062C54.8725 28.5153 54.4774 29.0256 53.9013 29.3712C52.9466 29.9474 52.8807 30.8692 53.0124 31.7746C53.1112 32.4659 52.3375 33.5359 53.7861 33.8157C54.1976 33.898 55.2182 33.898 55.3992 33.47C55.5968 32.9762 55.8437 32.5976 56.3375 32.3672C56.6009 32.2519 56.6338 31.9556 56.7326 31.6758C56.9795 30.9515 57.2099 30.112 58.0659 29.8486C58.889 29.6182 59.3992 29.0256 59.9918 28.4824C60.1071 28.3671 60.1564 28.219 60.3375 28.1531C61.9836 27.5276 63.5309 26.721 65.2922 26.3095C67.1688 25.8815 69.0618 25.5194 70.9383 25.1737C72.6503 24.8445 74.461 25.042 76.2223 25.1408C77.9342 25.2395 79.6297 25.5523 81.3581 25.5029C82.4445 25.4371 83.4816 25.7004 84.5351 25.9638C86.9219 26.5564 89.3252 27.0996 91.6626 27.8568C92.6174 28.1531 93.2429 29.0091 94.2799 29.1408C94.5598 29.1737 94.9219 29.2231 95.07 29.5852C95.3663 30.3424 96.0742 30.8034 96.3705 31.6429C96.8643 33.0256 97.7038 34.2602 97.8684 35.7746C97.9342 36.3343 97.7861 36.8445 97.7367 37.3713C97.5886 38.754 98.0495 40.1038 97.8355 41.4866C97.5886 43.0174 97.6379 44.5648 97.7696 46.1286C97.8684 47.429 98.247 48.8446 97.605 50.145C97.5063 50.3426 97.6709 50.5236 97.6873 50.7212C97.7532 51.4948 98.2635 52.2685 98.033 53.0093C97.5721 54.4908 97.6873 55.9558 97.9013 57.4208C97.9342 57.6183 98.033 57.8323 97.9013 57.997C97.4733 58.4743 97.6544 58.9846 97.7532 59.5114C97.8355 60.0381 98.0824 60.5319 97.9672 61.0916C97.6544 62.7377 97.819 64.4167 97.7861 66.0793C97.7696 67.034 98.0495 68.0052 97.9836 68.96C97.9178 69.9641 97.819 71.0341 97.0289 71.8242C96.4528 72.3839 95.6791 72.6473 94.9877 73.0423C94.4774 73.3386 93.8684 73.4209 93.3087 73.5855C92.5844 73.7995 92.0577 74.4744 91.2346 74.4086C90.675 74.3757 90.2305 74.7213 89.7532 74.9518C89.2758 75.1822 89.1441 75.5444 89.2758 75.9724C89.4075 76.4333 89.7861 76.6473 90.2635 76.6144C90.675 76.5979 91.0207 76.6637 91.4157 76.8448C91.7449 76.993 92.2058 77.0753 92.5844 76.8777C93.2758 76.5156 94.0659 76.5321 94.7902 76.2851C96.3046 75.7913 97.6215 74.9353 99.0371 74.2769C99.6626 73.9971 99.8272 73.174 100.568 73.1246C101.358 73.0917 101.556 72.532 101.621 71.9065C101.654 71.5937 101.589 71.281 101.556 70.9682C101.523 70.6061 101.605 70.4086 102.033 70.5402L102 70.6061Z" fill="#266E69"/>
<path fill-rule="evenodd" clip-rule="evenodd" d="M51.5473 35.0668C51.0206 35.577 51.1687 36.3178 50.9218 36.9269C50.5432 37.898 49.4239 38.573 48.4033 38.3754C48.2716 38.3425 48.107 38.4248 47.9918 38.3754C47.6955 38.2273 47.2675 38.0956 47.1687 37.8487C47.0041 37.4701 47.0535 37.0421 47.4486 36.6799C47.7449 36.4001 47.9588 36.005 48.1235 35.61C48.2881 35.2478 48.3045 34.8198 48.4527 34.4577C48.6831 33.9309 48.7325 33.4865 48.535 32.8939C48.3539 32.3178 48.5844 31.6099 48.6008 30.968C48.6008 30.6058 48.5185 30.2272 48.4856 29.8651C48.4362 29.0585 48.4198 28.2519 48.3539 27.4453C48.3539 27.2313 48.2222 27.0338 48.1728 26.8198C48.107 26.5564 48.0905 26.2766 48.0082 26.0132C47.9259 25.7498 47.8107 25.4865 47.6625 25.2889C47.1193 24.5811 46.4938 24.005 45.572 23.8404C45.5226 23.8404 45.4568 23.8404 45.4239 23.791C44.7325 23.1161 43.7942 23.1325 42.9547 22.9021C42.2963 22.7045 41.6049 22.6552 40.9136 22.5399C40.6502 22.4906 40.3868 22.3918 40.1235 22.3589C39.4321 22.3095 38.7407 22.2601 38.0494 22.2601C37.1276 22.2601 36.2058 22.293 35.3004 22.3424C34.5761 22.3918 33.8354 22.4906 33.1111 22.5399C32.2222 22.5893 31.3333 22.5399 30.4609 22.6716C29.6872 22.7868 28.9465 23.0996 28.1893 23.2971C27.6296 23.4453 27.037 23.5276 26.5103 23.7251C25.572 24.0873 24.6337 24.4494 23.7778 24.9762C23.2675 25.2889 22.9218 25.8815 22.5926 26.4083C22.4115 26.6881 22.3621 27.0832 22.3127 27.4289C22.2304 28.0379 22.214 28.6634 22.1646 29.2889C22.1481 29.5194 22.0823 29.7499 22.0494 29.9803C22.0165 30.1778 21.9012 30.3918 21.9341 30.5894C22.1975 32.005 22.0165 33.4207 21.9835 34.8363C21.9506 36.0544 22.5761 36.8116 23.4156 37.4536C23.8272 37.7828 23.9753 38.1943 23.9259 38.6059C23.8765 39.0009 23.465 39.1326 23.037 39.182C22.1481 39.2808 21.3745 39.0832 20.6996 38.4742C20.5844 38.3754 20.4362 38.3096 20.3045 38.2437C19.8601 38.0133 19.8436 37.5853 19.6955 37.1738C19.4815 36.6141 19.2346 36.0709 19.1852 35.4783C19.1029 34.5071 19.1193 33.5194 19.0699 32.5482C19.0535 32.219 18.9383 31.8898 18.856 31.577V31.4783C19.0041 30.9515 19.2675 30.4741 19.1358 29.8486C19.0041 29.2231 19.037 28.5482 19.1358 27.9062C19.2016 27.4124 19.4979 26.9679 19.6461 26.4906C19.7448 26.1778 19.6625 25.7334 19.8601 25.5194C20.5185 24.7786 20.9465 23.8733 21.9012 23.3465C22.7243 22.9021 23.5638 22.5564 24.4362 22.2272C24.93 22.0296 25.4897 22.0132 25.9835 21.7827C26.5926 21.5029 27.1523 21.2231 27.8436 21.1572C28.8148 21.0749 29.7695 20.828 30.7407 20.7292C32.0576 20.5811 33.3909 20.4988 34.7243 20.4165C35.1029 20.3835 35.4815 20.3506 35.8601 20.4165C36.7654 20.5646 37.6708 20.5317 38.5926 20.4494C40.4527 20.2848 42.2469 20.6963 44.0576 21.0914C44.3539 21.1572 44.6667 21.1901 44.9465 21.2889C45.9506 21.6675 46.9712 22.0296 47.9588 22.4741C48.5679 22.7375 49.1934 23.0502 49.6708 23.4782C50.0329 23.791 50.1811 24.3342 50.428 24.7951C50.9877 25.8157 51.2016 26.935 51.465 28.0379C51.4979 28.219 51.4486 28.4165 51.4321 28.5976C51.4156 28.8939 51.3827 29.1902 51.3827 29.4865C51.3827 29.7828 51.3827 30.0955 51.4156 30.3918C51.4156 30.4741 51.5309 30.5564 51.5967 30.6387V35.0503L51.5473 35.0668Z" fill="#266E69"/>
<path fill-rule="evenodd" clip-rule="evenodd" d="M28.1729 26.6717C28.8314 26.8198 29.6709 26.9021 30.4281 27.1984C31.0371 27.4453 31.5803 27.1984 32.14 27.2313C32.2552 27.2313 32.3869 27.1655 32.5022 27.1819C33.819 27.4124 35.1359 27.1819 36.4528 27.2643C37.391 27.3301 38.2799 27.1819 39.1688 27.0503C39.9096 26.9186 40.6338 26.5894 41.3746 26.4247C41.9507 26.2931 42.5433 26.3095 43.1194 26.1943C43.5968 26.112 43.7943 26.4412 43.8931 26.7375C43.9754 26.9844 43.9425 27.4124 43.7779 27.5935C43.1359 28.3342 42.4116 29.0256 41.391 29.2396C40.996 29.3219 40.5845 29.3383 40.1894 29.3877C40.0742 29.3877 39.926 29.3548 39.8273 29.3877C38.889 29.7663 37.9178 29.7005 36.9466 29.6676C35.8273 29.6346 34.7079 29.6182 33.605 29.6017C33.3746 29.6017 33.1112 29.6017 32.9466 29.7169C32.568 29.9968 32.2223 29.8651 31.8273 29.7828C30.7244 29.5359 29.605 29.3383 28.4857 29.1408C27.9589 29.042 27.4651 28.8939 27.1359 28.4165C26.889 28.0379 26.7902 27.6593 27.0042 27.2313C27.2347 26.8033 27.5803 26.5894 28.2059 26.6387L28.1729 26.6717Z" fill="#266E69"/>
</g>
<defs>
<clipPath id="clip0_125_16217">
<rect width="84" height="79.8688" fill="white" transform="translate(18 20.4)"/>
</clipPath>
</defs>
</svg>
