<svg width="120" height="120" viewBox="0 0 120 120" fill="none" xmlns="http://www.w3.org/2000/svg">
<g clip-path="url(#clip0_125_16351)">
<path fill-rule="evenodd" clip-rule="evenodd" d="M62.8668 48.1287L58.8192 43.0152C58.8192 43.0152 56.1833 37.6112 57.7533 36.7396C59.3378 35.868 62.6507 30.5948 62.6507 30.5948L61.9305 27.2972L58.6896 27.4279L55.7511 29.1857L51.9196 32.6431L51.041 36.7396L48.7507 41.8386L50.1623 42.8409C50.1623 42.8409 46.1004 49.0729 42.0384 48.8986C37.9765 48.7243 35.4269 48.8986 35.4269 48.8986V56.5543C35.4269 56.5543 32.0996 59.4015 31.7827 62.2488C31.4658 65.0961 31.7827 74.7128 31.7827 74.7128L29.6941 78.8675C29.6941 78.8675 32.3877 80.3202 34.5771 79.2888C36.7521 78.2719 36.0463 85.7387 36.0463 85.7387L28.2825 88.7603L10.5654 43.175L69.8384 18.0872L83.1766 47.6348L62.8668 48.1287Z" fill="#79CBE8"/>
<path fill-rule="evenodd" clip-rule="evenodd" d="M108.297 82.0489L108.845 48.1142H36.0461L35.4268 102.633L79.1865 100.585C79.1865 100.585 75.9743 96.3288 76.1328 91.1282C76.2912 85.913 74.2747 82.0344 74.2747 82.0344L68.7003 75.8459C68.7003 75.8459 65.3729 77.3858 60.0002 75.8459C54.6274 74.3061 54.2385 71.1828 54.541 69.5558C54.8435 67.9288 60.9797 66.4906 60.9797 66.4906L64.7535 63.7596C64.7535 63.7596 69.867 60.5492 72.1428 61.1448C74.4043 61.7404 81.9376 67.3622 81.9376 67.3622L87.2384 72.3014L88.0594 76.1074C88.0594 76.1074 94.2964 80.6107 97.5949 81.2063C100.893 81.8019 108.312 82.0344 108.312 82.0344L108.297 82.0489Z" fill="#FCF163"/>
<path fill-rule="evenodd" clip-rule="evenodd" d="M34.7499 87.235C33.8856 87.6708 32.9206 87.8306 32.2004 88.2809C31.0048 89.0218 29.6796 89.414 28.4841 90.0968C27.519 90.6488 27.375 90.6197 26.9141 89.6029C26.4963 88.7022 26.0786 87.8015 25.6177 86.9299C25.4304 86.5813 25.6177 86.2472 25.5025 85.913C25.0703 84.809 24.7246 83.6323 24.2349 82.5719C23.6155 81.2644 23.3995 79.8408 22.7225 78.5624C22.0455 77.2841 21.8726 75.7878 21.2244 74.5385C20.6195 73.3618 20.2738 72.0835 19.6832 70.9068C19.2655 70.0788 18.963 69.12 18.6317 68.2048C18.1708 66.9119 18.0555 65.4883 17.1481 64.3407C16.8456 63.963 16.932 63.2947 16.6727 62.8153C16.4567 62.4231 16.6439 61.7839 15.9957 61.6532C16.1398 60.7961 15.3331 60.3167 15.2035 59.634C15.0019 58.5735 14.3393 57.7309 14.0656 56.7141C13.9215 56.2056 13.7631 55.6391 13.5038 55.2033C12.6252 53.8232 12.8412 52.0509 11.8041 50.7145C11.4296 50.2351 11.156 49.5233 11.2568 48.7969C11.2712 48.6807 11.2856 48.5209 11.228 48.4338C10.3205 47.3733 10.5942 45.8189 9.68673 44.7294C9.48508 44.4679 9.65793 43.9885 10.0324 43.5963C10.9543 42.6521 12.2507 42.2744 13.2157 41.3882C13.7055 40.9379 14.4977 40.8362 15.1027 40.4876C16.2406 39.8048 17.5802 39.7031 18.7613 39.093C20.4898 38.1923 22.3191 37.4805 24.0764 36.6234C25.0415 36.144 26.0354 35.7228 26.9861 35.2579C27.5766 34.9674 28.1384 34.7349 28.7722 34.6332C28.9162 34.6042 29.0603 34.5461 29.1611 34.4444C29.9965 33.6454 31.0768 33.442 32.1283 33.0934C33.0502 32.7883 34.0297 32.5414 34.8219 31.9313C34.966 31.815 35.11 31.7715 35.2828 31.7279C36.2911 31.5245 37.2706 31.0596 38.1349 30.5948C39.0423 30.1009 40.0218 29.7958 40.9149 29.2874C41.9952 28.6627 43.2483 28.3722 44.4007 27.8492C45.6538 27.2827 46.979 26.8323 48.1313 26.0333C48.1889 26.0043 48.261 25.9898 48.333 25.9752C49.3413 25.83 50.1335 25.2053 51.0265 24.7986C51.6171 24.5371 52.2797 24.2756 52.8559 24.0141C54.2963 23.3749 55.8807 23.0844 57.1915 22.1837C57.4508 22.0094 57.7533 22.0385 58.0269 21.9222C59.0928 21.4429 60.1299 20.8618 61.2247 20.5277C62.5066 20.1354 63.5581 19.2493 64.8977 18.9442C65.6899 18.7699 66.3957 18.1598 67.2456 18.0145C68.1098 17.8693 68.9741 18.0436 69.8383 18.0436C70.3569 18.0436 71.0483 18.5375 71.3363 19.1912C71.7541 20.1354 72.2438 21.0652 72.7335 21.9513C73.497 23.3459 73.8715 24.8857 74.6349 26.2367C75.3263 27.486 75.672 28.9097 76.5506 30.0573C76.7667 30.3478 76.8819 30.6674 76.9828 31.0451C77.2852 32.2508 77.8614 33.3549 78.4088 34.4734C79.0858 35.8244 79.8924 37.1464 80.3101 38.6281C80.3677 38.846 80.4253 39.0494 80.5694 39.2237C81.3904 40.2842 81.6785 41.5626 82.1826 42.7683C82.6868 43.9885 83.0757 45.3105 84.0552 46.2983C84.2136 46.4581 84.3145 46.7341 84.3577 46.9665C84.5017 47.5767 84.9482 47.78 85.4524 47.6929C86.864 47.4459 88.2756 47.751 89.6728 47.7655C92.8561 47.8236 96.025 47.998 99.1939 48.1432C100.274 48.1868 101.326 47.9544 102.392 47.8527C102.608 47.8382 102.824 47.8091 103.04 47.8236C104.394 47.8963 105.733 47.8527 107.073 47.751C107.591 47.7074 108.254 47.8817 108.859 48.0851C110.357 48.5645 110.314 49.5378 110.371 50.7871C110.444 52.3705 110.429 53.9685 110.285 55.4938C110.083 57.5711 110.343 59.6049 110.285 61.6387C110.227 63.2076 109.781 64.8055 110.256 66.389C110.343 66.6504 110.17 66.8683 110.112 67.1008C109.968 67.6092 109.954 68.1031 110.055 68.6261C110.227 69.5703 110.055 70.5146 110.155 71.4733C110.299 72.7372 110.199 74.0155 110.155 75.2794C110.127 76.3108 110.415 77.3713 110.227 78.3155C109.954 79.6374 110.314 80.9594 109.954 82.2523C109.839 82.6735 109.968 83.1384 110.011 83.5742C110.098 84.5475 109.968 85.5208 109.954 86.4941C109.954 87.6563 110.155 88.8329 109.781 89.9951C109.565 90.6488 109.954 91.317 109.867 91.9998C109.767 92.9005 109.983 93.8302 109.709 94.7308C109.522 95.3264 109.997 95.8349 109.968 96.445C109.882 98.1446 109.896 99.8443 109.853 101.544C109.853 101.907 109.594 102.038 109.291 102.11C108.787 102.212 108.268 102.256 107.764 102.227C106.396 102.154 105.056 102.096 103.702 102.459C103.227 102.575 102.68 102.517 102.176 102.517C100.505 102.474 98.8338 102.793 97.1917 102.648C96.0394 102.546 94.8727 102.372 93.7203 102.459C91.3437 102.633 88.967 102.459 86.6047 102.357C84.4585 102.256 82.3267 102.662 80.1805 102.517C79.1722 102.445 78.1351 102.561 77.1124 102.662C74.9374 102.88 72.7768 102.575 70.6305 102.285C69.2621 102.096 67.8794 102.328 66.4966 102.357C65.1714 102.401 63.8462 102.677 62.4922 102.386C61.4839 102.169 60.4036 102.474 59.3521 102.416C56.6441 102.285 53.9218 102.198 51.2138 102.198C50.2631 102.198 49.298 102.343 48.333 102.401C47.3535 102.445 46.3596 102.517 45.3945 102.343C44.7463 102.227 44.199 102.503 43.594 102.59C42.4849 102.75 41.3326 102.59 40.2379 102.953C39.9066 103.069 39.6041 102.924 39.316 102.851C38.6246 102.677 37.9908 102.735 37.3282 102.982C36.8817 103.142 36.3776 103.331 36.0031 102.764C35.8734 102.575 35.6429 102.633 35.4701 102.604C34.8939 102.488 34.6203 102.038 34.7931 101.442C34.9227 101.021 34.6059 100.701 34.6347 100.251C34.7643 98.871 34.9371 97.4909 34.8651 96.0673C34.8075 95.1376 34.6347 94.1643 34.7211 93.2927C34.8795 91.8836 34.289 90.4309 34.9516 89.0508C35.2396 88.4552 34.8651 87.8596 34.8075 87.1914L34.7499 87.235ZM107.289 49.901C106.886 50.0172 106.554 50.0317 106.209 50.0172C105.344 49.9736 104.466 49.9591 103.602 49.9736C101.974 50.0172 100.332 50.3368 98.7042 50.0172C98.5745 49.9881 98.4161 50.0317 98.272 50.0608C97.595 50.1625 96.8892 50.3077 96.2122 50.1625C95.204 49.9591 94.1525 49.8574 93.173 49.93C91.3581 50.0608 89.572 49.7121 87.7714 49.7848C86.7055 49.8283 85.654 49.6831 84.5593 49.7848C83.6231 49.8864 82.6292 49.9736 81.6497 49.8429C80.483 49.6976 79.3162 49.5669 78.1495 49.7557C77.2996 49.8864 76.4498 49.7266 75.6432 49.6685C74.1019 49.5523 72.5607 49.6831 71.0627 49.8138C68.9165 50.0027 66.7702 49.901 64.6384 50.0317C63.2844 50.1189 61.9305 49.8138 60.5621 49.7848C60.274 49.7848 59.9427 49.7412 59.6114 49.7848C58.8912 49.8864 58.1854 50.177 57.4508 50.0317C56.6297 49.8864 55.7943 50.1334 54.9589 50.0027C54.2675 49.901 53.5329 49.8429 52.8559 49.9445C51.185 50.2206 49.5141 50.0608 47.8864 49.9155C46.2156 49.7702 44.5735 50.0898 42.9314 49.9445C42.096 49.8719 41.2606 50.1189 40.4683 49.9881C39.6905 49.8574 38.9271 49.9881 38.1493 49.9445C37.7315 49.9155 37.285 50.177 37.357 50.6418C37.4867 51.5425 37.069 52.4432 37.4002 53.3438C37.5155 53.6634 37.4291 54.0847 37.3426 54.4479C37.0978 55.4793 37.1842 56.5397 37.1266 57.5711C37.069 58.6607 37.4291 59.7502 37.4435 60.8978C37.4435 61.8856 37.5731 62.9025 37.6019 63.8903C37.6595 66.0112 37.7748 68.1322 37.6595 70.2531C37.5587 72.1125 37.5875 73.9865 37.6307 75.8605C37.6451 76.4851 37.3714 77.0952 37.5011 77.6763C37.9188 79.6665 37.5155 81.6857 37.8756 83.705C38.0628 84.7654 37.7892 85.9566 37.9188 87.0752C38.0196 87.8742 37.8036 88.586 37.6595 89.3123C37.5299 89.9515 37.7892 90.5181 37.746 91.0846C37.5875 93.2782 37.89 95.4572 37.746 97.6507C37.6883 98.5514 37.7171 99.4811 37.7604 100.411C37.7604 100.614 37.7604 100.948 38.0772 100.919C38.8407 100.861 39.6185 100.876 40.3675 100.803C41.952 100.643 43.522 100.454 45.1065 100.44C46.4748 100.425 47.8288 100.367 49.1828 100.338C50.2343 100.324 51.3146 100.28 52.3805 100.266C54.2819 100.237 56.1976 100.266 58.099 100.382C59.6978 100.469 61.2967 100.382 62.8955 100.556C63.5005 100.629 64.1199 100.6 64.7249 100.513C66.7126 100.237 68.6716 100.091 70.6882 100.324C72.9784 100.571 75.2543 100.963 77.5877 100.658C78.7401 100.513 79.9644 100.701 81.1023 100.469C82.7732 100.135 84.4153 100.367 86.0718 100.338C87.6418 100.324 89.2119 100.643 90.7819 100.469C91.5165 100.382 92.2511 100.367 92.9857 100.382C94.1236 100.382 95.2904 100.658 96.4139 100.614C98.1568 100.542 99.9141 100.614 101.671 100.382C103.27 100.149 104.912 100.251 106.54 100.207C106.77 100.207 106.972 100.266 106.958 99.9024C106.915 98.5369 107.03 97.1423 106.842 95.7913C106.583 93.8883 106.569 91.9707 106.785 90.0968C106.915 88.9927 106.554 87.7579 107.289 86.712C107.447 86.4796 107.231 86.2036 107.145 85.9421C106.9 85.2158 106.641 84.4458 106.886 83.705C107.217 82.6881 106.929 81.6421 107.001 80.6253C107.102 79.2162 107.174 77.7635 107.044 76.3108C106.929 75.0179 107.203 73.6814 107.044 72.3304C106.886 70.9794 107.217 69.5849 107.044 68.2048C106.929 67.3041 107.289 66.4616 107.26 65.5754C107.26 65.1251 106.814 64.6603 107.116 64.3116C107.635 63.716 107.404 63.1059 107.347 62.5103C107.26 61.6387 107.231 60.7525 107.131 59.8809C106.987 58.7333 107.131 57.5421 107.131 56.3654C107.131 55.305 107.548 54.2881 107.404 53.1986C107.361 52.8499 107.03 52.6175 107.203 52.1962C107.491 51.4699 107.145 50.6999 107.275 49.901H107.289ZM79.3306 47.8091C79.8204 47.8091 80.3101 47.8382 80.7999 47.8382C81.4192 47.8382 81.5489 47.6638 81.1888 47.1554C80.5118 46.1821 80.0364 45.1216 79.7772 43.9595C79.7051 43.6544 79.7483 43.3348 79.5323 43.0443C78.9849 42.3325 78.9561 41.3156 78.2647 40.6619C78.1639 40.5602 78.1063 40.3423 78.1207 40.1825C78.1783 39.645 78.0775 39.2383 77.5157 38.9913C77.3285 38.9187 77.1268 38.7008 77.098 38.4248C77.0116 37.4224 76.5074 36.5217 76.0033 35.7663C75.3407 34.764 74.9806 33.6745 74.5197 32.614C74.174 31.8296 73.785 31.0596 73.4538 30.2897C72.9928 29.2147 72.1862 28.2705 71.9413 27.0793C71.8117 26.4692 71.466 25.9607 71.2067 25.4377C70.9618 24.9293 71.0339 24.4063 70.7746 23.927C70.184 22.8084 69.4638 21.777 68.9453 20.6148C68.7868 20.2371 68.5564 19.9611 68.0522 20.1936C67.2168 20.5858 66.3381 20.8908 65.5315 21.3412C64.7825 21.7625 63.9182 22.0239 63.0684 22.1837C62.1897 22.3581 61.6136 23.0408 60.8069 23.3459C59.9283 23.68 59.0064 23.956 58.1854 24.3918C56.9322 25.06 55.5206 25.278 54.2819 26.0188C53.3312 26.5854 52.2221 26.9921 51.113 27.3408C49.9606 27.7039 48.8659 28.4012 47.8 29.0114C45.6682 30.2171 43.3059 30.7982 41.1165 31.8731C40.1514 32.3525 39.0567 32.7593 38.0917 33.2387C36.1903 34.1684 34.1449 34.7349 32.258 35.6937C31.4658 36.1005 30.5583 36.667 29.5356 36.5944C29.3772 36.5944 29.1611 36.667 29.0603 36.7832C28.0808 37.9308 26.4387 37.7129 25.344 38.6427C24.8399 39.0785 24.0332 39.0785 23.5723 39.4707C22.0887 40.7491 20.1585 40.9234 18.5021 41.7514C16.8168 42.5794 15.0451 43.2622 13.4318 44.2791C12.8412 44.6422 12.8268 45.049 13.0141 45.6155C13.3742 46.7051 13.8783 47.751 14.1232 48.8986C14.4113 50.2787 15.4484 51.3827 15.6212 52.8063C15.7221 53.6053 16.3991 54.0847 16.5143 54.8401C16.7448 56.2783 17.3497 57.6583 18.0123 58.8786C18.9054 60.5056 19.5247 62.2488 20.2017 63.9339C21.2244 66.4761 22.0455 69.1055 23.0682 71.6477C23.5867 72.9696 23.8748 74.3787 24.5518 75.628C24.9263 76.3253 25.3872 76.9645 25.488 77.7635C25.5601 78.2864 25.8337 78.7368 25.9634 79.2162C26.2371 80.2476 26.7844 81.1337 27.1589 82.1215C27.6343 83.3708 27.8503 84.7364 28.5417 85.8985C28.7578 86.2617 28.5849 86.8573 28.9738 86.988C29.3339 87.1042 29.6508 86.5958 30.0686 86.5086C30.6735 86.3924 31.3793 86.3634 31.8115 86.0147C32.6037 85.3755 33.4823 85.085 34.4186 84.8235C34.6491 84.7654 34.8795 84.5911 34.9083 84.2424C35.0236 83.1094 34.6059 82.0344 34.6635 80.9013C34.7211 79.6955 34.3898 78.5189 34.6203 77.2986C34.7643 76.4851 34.8651 75.6426 34.7931 74.8C34.7499 74.2916 34.433 73.8558 34.5338 73.2892C34.6059 72.9115 34.8075 72.5629 34.7931 72.1561C34.7499 70.8777 34.7931 69.5703 34.7355 68.292C34.6491 66.6359 34.8507 64.9653 34.577 63.3238C34.433 62.4231 34.6635 61.4934 34.5338 60.6218C34.2313 58.588 34.5194 56.5688 34.4042 54.5496C34.3322 53.3148 34.6923 52.08 34.4618 50.8307C34.361 50.3222 34.3898 49.7993 34.4042 49.2763C34.4042 48.8986 34.577 48.6081 34.966 48.4192C35.5565 48.1432 36.2191 48.2159 36.7953 48.0706C37.8036 47.8091 38.8407 47.8527 39.7481 47.9544C41.2173 48.1142 42.6722 47.9398 44.127 47.9544C47.0654 47.9689 50.0183 48.1868 52.9567 48.1432C54.8292 48.1142 56.6874 48.0851 58.5599 47.9108C61.5992 47.6203 64.6384 48.1287 67.6921 47.9834C70.4289 47.8527 73.1801 47.7365 75.9169 47.7946C77.0692 47.8091 78.2359 47.8236 79.3882 47.8672L79.3306 47.8091Z" fill="#266E69"/>
<path fill-rule="evenodd" clip-rule="evenodd" d="M55.6212 72.0399C56.3703 73.3183 57.1769 74.2625 58.358 74.8436C60.4322 75.875 62.5064 75.628 64.595 74.9453C65.2 74.7419 65.8338 74.5966 66.4243 74.3497C66.8853 74.1608 67.2742 74.5676 67.7063 74.4368C68.3833 74.2189 68.9018 74.6257 69.4636 74.8581C70.3999 75.2358 71.1057 75.8314 71.7394 76.6304C72.258 77.2986 73.1222 77.7199 73.54 78.4172C74.5627 80.1168 75.9454 81.7293 76.0607 83.8212C76.1759 85.884 76.5792 87.9032 76.8385 89.937C76.9537 90.8086 76.8961 91.6511 76.9969 92.5082C77.1266 93.6994 77.8036 94.7018 78.2213 95.7913C78.423 96.3143 78.5958 96.8663 78.7398 97.4038C78.8839 97.9558 78.5958 98.2609 78.0484 98.1882C77.3859 98.0865 76.4352 98.2899 76.2479 97.4473C76.0751 96.6338 75.4125 96.0237 75.4413 95.1521C75.4413 95.0504 75.4413 94.9487 75.3837 94.8616C74.6203 93.1329 74.4618 91.3025 74.2458 89.4431C74.1737 88.7312 74.217 87.9904 74.0153 87.264C73.6696 86.0728 73.756 84.7945 73.2951 83.6178C73.079 83.0948 72.9638 82.5283 72.7045 82.0053C72.114 80.8286 71.2497 79.8263 70.5583 78.7077C70.5007 78.606 70.4143 78.4898 70.3278 78.4317C69.55 77.8652 68.9162 77.1098 68.0376 76.674C67.7639 76.5432 67.5334 76.5868 67.2598 76.6594C66.0066 76.9935 64.7823 77.4584 63.5147 77.5601C61.743 77.7054 59.9137 77.8361 58.2428 76.9354C58.0843 76.8483 57.9115 76.8628 57.753 76.8192C56.3703 76.4125 55.3188 75.599 54.613 74.3061C53.7631 72.7226 53.547 71.0811 53.8207 69.2943C53.9792 68.292 54.7282 67.9433 55.4052 67.6528C56.7015 67.1153 58.0843 66.7957 59.4239 66.3599C60.6339 65.9677 61.6134 65.3285 62.1031 64.0356C62.3192 63.469 63.0394 63.3238 63.5147 62.9751C63.8028 62.7718 64.3213 62.7572 64.2493 62.1907C64.2349 62.0745 64.3789 62.0309 64.523 62.0164C65.0847 61.9437 65.5889 61.6822 66.0066 61.3191C66.4099 60.9559 66.9429 61.0576 67.4038 60.9559C68.3257 60.7671 69.2043 60.3603 70.1838 60.3458C72.0131 60.3167 73.828 60.215 75.3549 61.5079C75.4413 61.5806 75.5565 61.6387 75.6718 61.6822C77.1122 62.1471 78.3941 62.917 79.5897 63.8032C80.2379 64.268 81.0301 64.6602 81.3758 65.4883C81.4478 65.6771 81.6207 65.7933 81.8223 65.8514C82.0096 65.9096 82.24 65.9531 82.3553 66.0839C83.1907 67.2024 84.6167 67.5511 85.4954 68.6842C85.8555 69.149 86.5757 69.4541 86.9934 69.9625C88.0593 71.2119 88.9812 72.5338 88.6067 74.3206C88.549 74.5966 88.5635 74.7564 88.8803 74.8872C89.4277 75.1051 89.8598 75.5118 90.2199 76.0057C90.58 76.4851 91.1562 76.703 91.6315 77.0081C93.4897 78.1993 95.3766 79.3324 97.5084 80.0151C98.7904 80.4219 100.029 80.9739 101.354 81.1628C102.118 81.2644 102.91 81.0901 103.702 81.1337C104.293 81.1628 104.48 81.4388 104.61 81.9763C104.768 82.6009 104.394 82.7026 103.976 82.8043C103.14 83.0222 102.276 83.1094 101.441 82.9931C99.2081 82.7026 97.0619 82.0489 94.9589 81.2499C93.5905 80.7269 92.1645 80.233 91.0698 79.3759C90.1767 78.6641 88.9524 78.5189 88.2754 77.502C88.0017 77.0952 87.3391 77.0081 87.051 76.5142C87.0222 76.4706 86.8061 76.5142 86.7197 76.5432C85.3369 77.2696 83.9541 76.8919 82.5857 76.5432C81.2606 76.2091 80.4251 75.1196 79.3304 74.4223C78.3077 73.7686 77.7748 72.7517 77.141 71.822C76.7089 71.1828 76.2767 70.5291 75.7726 69.9335C75.5565 69.6865 75.5133 69.2943 75.6574 69.1055C75.9166 68.8004 76.3776 68.7859 76.7953 68.8004C78.7254 68.8295 79.5465 70.1659 80.2091 71.7203C80.4683 72.3304 81.0445 72.7227 81.5198 73.0713C82.2544 73.6233 82.9891 74.2044 83.7237 74.7419C84.4727 75.2939 85.02 74.5821 85.5818 74.3642C85.9851 74.2044 85.7547 73.5507 85.6394 73.0858C85.1785 71.2554 83.6084 70.4419 82.3553 69.3088C81.3902 68.4372 80.3099 67.7254 79.4024 66.7957C78.6822 66.0548 77.7604 65.5754 76.9681 64.9072C76.6657 64.6602 76.2911 64.9508 75.9887 64.7038C75.6142 64.3842 75.2396 64.0356 74.8651 63.7596C73.9289 63.0768 72.935 62.2633 71.6818 62.3941C70.6015 62.5103 69.4924 62.5103 68.4409 62.8589C67.7639 63.0768 67.1589 63.3964 66.6836 63.9049C66.1651 64.4569 65.6465 64.9798 64.9551 65.314C64.5086 65.5319 64.2925 65.9386 64.1485 66.4035C63.9612 67.0136 63.5147 67.246 62.8953 67.4639C62.1175 67.7399 61.3829 68.2048 60.5907 68.4953C60.3602 68.5825 60.1585 68.7132 59.9137 68.7713C59.0206 68.9747 58.5885 69.6575 58.3724 70.4565C57.9835 71.9091 57.6378 72.1852 56.1254 72.0835C56.0246 72.0835 55.9381 72.0835 55.6356 72.0544L55.6212 72.0399ZM56.3847 70.8342C56.716 70.7906 56.9032 70.4419 57.004 70.0788C57.0184 70.0061 57.1337 69.5122 56.7736 69.5848C56.4135 69.6575 55.8661 69.6284 55.8085 70.1804C55.7797 70.4419 55.8085 70.8051 56.3847 70.8342Z" fill="#266E69"/>
<path fill-rule="evenodd" clip-rule="evenodd" d="M68.7003 67.6964C68.6427 68.3936 68.2394 68.8295 67.6776 68.7859C66.7269 68.7132 66.2372 68.1322 66.3092 67.1734C66.3812 66.4035 67.0294 65.895 67.8792 65.9677C68.4842 66.0258 68.7867 66.665 68.7147 67.6964H68.7003Z" fill="#266E69"/>
<path fill-rule="evenodd" clip-rule="evenodd" d="M50.6234 41.3156C51.0987 41.1994 51.358 41.0396 51.502 40.6328C51.7037 40.0372 52.1646 39.5578 52.1934 38.8751C52.2078 38.4829 52.5967 38.4683 52.8704 38.4393C53.2593 38.3812 53.461 38.6572 53.5762 38.9768C53.9795 40.0518 53.2881 42.0419 52.3519 42.7102C51.574 43.2622 50.8394 43.8868 50.3065 44.6713C49.6583 45.6155 48.7364 46.1385 47.7425 46.5888C47.2816 46.7922 46.8207 46.6034 46.4606 46.2983C46.0861 45.9787 46.2157 45.6882 46.6478 45.4412C47.4545 45.0054 48.2611 44.526 49.0245 44.0031C49.471 43.698 49.4566 43.175 49.0533 42.8554C48.8661 42.7102 48.8373 42.4342 48.8229 42.2744C48.65 40.9379 48.5924 39.6305 49.4422 38.4247C49.7735 37.9308 49.9752 37.2335 49.932 36.5944C49.8888 35.9697 49.9752 35.3596 49.9752 34.7495C49.9752 33.8778 50.4217 33.2241 50.897 32.5123C51.5308 31.5535 52.3807 30.9434 53.2881 30.4205C54.3396 29.8103 55.492 29.3455 56.6011 28.8225C56.6587 28.7934 56.7883 28.808 56.8027 28.7644C57.1628 27.9218 58.0847 27.8928 58.7185 27.457C60.1013 26.5127 62.089 26.4256 62.7804 28.6627C63.0397 29.4617 62.766 30.4059 62.4636 31.2485C61.9162 32.7738 60.8071 33.936 59.842 35.1707C58.5744 36.8123 58.3152 38.4683 58.8769 40.4004C59.2514 41.6933 60.0005 42.8119 60.3606 44.0902C60.519 44.6568 60.6342 45.2378 60.7495 45.8189C60.7927 46.0804 60.663 46.2838 60.375 46.3564C59.6259 46.5453 58.9345 46.1385 58.5888 45.4412C57.9263 44.0902 57.8254 42.5794 57.2637 41.2139C56.99 40.5311 56.7307 39.8774 56.6299 39.1366C56.4426 37.8437 56.7307 36.6815 57.2781 35.5049C57.7822 34.4589 58.56 33.6745 59.2658 32.8174C60.1733 31.7133 60.9511 30.5802 60.8503 29.0549C60.8071 28.3867 60.7495 28.3286 60.1589 28.5901C58.8625 29.1711 57.7102 30.0137 56.4858 30.74C55.9385 31.0742 55.3479 31.3502 54.7429 31.5245C53.9651 31.7424 53.3313 32.1927 52.9424 32.8029C52.6111 33.3258 52.0926 33.7471 52.107 34.5751C52.1214 35.5339 51.9053 36.5072 51.9053 37.4805C51.9053 37.8582 51.5596 38.0616 51.43 38.3521C51.0123 39.2673 50.7098 40.2261 50.6378 41.3446L50.6234 41.3156Z" fill="#266E69"/>
<path fill-rule="evenodd" clip-rule="evenodd" d="M29.5356 78.1993C29.5789 78.025 29.5789 77.8652 29.6365 77.7344C30.5295 75.6716 30.4863 73.5071 30.4143 71.3136C30.3567 69.7447 30.4575 68.1612 30.3711 66.5923C30.2703 64.5876 30.4863 62.6555 31.0337 60.7235C31.365 59.5759 31.9987 58.6752 32.935 57.9634C33.1655 57.7891 33.3815 57.4985 33.6984 57.7891C34.0153 58.0651 34.1018 58.4428 33.9001 58.8059C33.3815 59.7502 33.2375 60.8542 32.7478 61.7985C31.8403 63.5272 32.5173 65.3285 32.4741 67.1008C32.4165 69.3524 32.7046 71.6041 32.4741 73.8703C32.4021 74.6111 32.3589 75.3956 32.4021 76.151C32.4741 77.2115 31.8691 77.9523 31.3218 78.7368C31.0913 79.0709 30.0254 79.1 29.6941 78.8675C29.4204 78.6787 29.7229 78.3736 29.55 78.2138L29.5356 78.1993Z" fill="#266E69"/>
<path fill-rule="evenodd" clip-rule="evenodd" d="M53.9793 34.0522C54.0513 32.9627 54.3826 32.5559 55.1172 32.6431C55.7078 32.7012 55.679 33.2677 55.751 33.6454C55.823 34.1248 55.1892 34.8947 54.8579 34.793C54.4546 34.6768 53.7488 34.793 53.9793 34.0522Z" fill="#266E69"/>
<path fill-rule="evenodd" clip-rule="evenodd" d="M56.385 70.8342C55.8233 70.8196 55.7801 70.4419 55.8089 70.1805C55.8665 69.6284 56.3995 69.6575 56.774 69.5849C57.1197 69.5122 57.0188 70.0061 57.0044 70.0788C56.9036 70.4565 56.7163 70.8051 56.385 70.8342Z" fill="white"/>
</g>
<defs>
<clipPath id="clip0_125_16351">
<rect width="100.8" height="85.2" fill="white" transform="translate(9.6001 18)"/>
</clipPath>
</defs>
</svg>
