<svg width="122" height="120" viewBox="0 0 122 120" fill="none" xmlns="http://www.w3.org/2000/svg">
<path fill-rule="evenodd" clip-rule="evenodd" d="M22.3058 91.7914C22.4072 91.7767 22.5375 91.7472 22.4217 91.6148C21.7991 90.9964 21.9873 90.2604 22.1755 89.5832C22.4506 88.641 22.8415 87.7577 23.189 86.8302C23.2904 86.5358 23.3772 86.2413 23.6668 86.0647C23.7682 86.0058 23.8405 85.9027 23.8405 85.7703C23.8405 84.9311 24.4776 84.6072 25.0278 84.2245C25.0712 84.195 25.1291 84.1509 25.1581 84.1067C25.6214 83.2676 26.5046 82.8406 27.0403 82.0309C27.3009 81.6482 27.6918 81.236 28.1841 80.9563C28.604 80.7207 28.7198 80.0877 29.1542 79.7491C29.9071 79.1897 30.3414 78.3064 31.0509 77.6881C31.5431 77.2611 31.7169 76.5545 32.2092 76.0687C32.9041 75.3768 33.3964 74.4787 34.0914 73.8015C34.8587 73.0507 35.3944 72.0349 36.3645 71.4902C36.4224 71.4461 36.4948 71.3872 36.5238 71.3136C36.9436 70.2536 37.8703 69.65 38.6521 68.9287C39.6222 68.0454 40.6212 67.1915 41.3596 66.0432C41.765 65.4102 42.3876 64.7772 43.097 64.3502C43.6327 64.0263 43.9223 63.4228 44.4146 63.0106C45.124 62.4511 45.79 61.8328 46.4561 61.2587C47.0497 60.7287 47.513 60.0368 48.2659 59.654C48.5699 59.4921 48.8016 59.1682 49.0188 58.8002C49.2794 58.3438 49.7427 57.9463 50.1047 57.5046C50.5245 56.9894 51.234 56.798 51.4656 56.0619C51.5525 55.7969 52.0013 55.6644 52.1896 55.4142C52.9135 54.3689 54.0718 53.8095 55.0853 53.2501C56.2291 52.6023 57.5322 52.0429 59.009 52.2343C60.4568 52.4257 61.6441 53.0881 62.8023 53.8831C63.0774 54.0745 63.3815 54.2364 63.6855 54.3395C64.4384 54.5898 64.9017 55.267 65.6546 55.5172C66.393 55.7675 66.8419 56.4594 67.4644 56.9158C67.7106 57.0924 67.9422 57.2985 68.2173 57.4458C68.782 57.7402 69.3032 58.0641 69.7086 58.5793C69.8824 58.8149 70.0995 59.0063 70.4181 59.0799C70.5773 59.1093 70.7511 59.2271 70.8669 59.3449C71.9673 60.5079 73.2559 61.4501 74.4576 62.4806C75.3553 63.2461 76.2384 64.0411 77.1072 64.8655C77.889 65.6163 78.6998 66.3229 79.221 67.2946C79.4092 67.6626 79.7278 67.9717 79.8291 68.3545C79.945 68.8256 80.22 69.2967 79.8002 69.8561C79.5685 70.1653 79.6264 70.7394 79.5251 71.1958C79.4237 71.608 79.2645 71.9613 79.0183 72.241C78.1641 73.2421 77.4112 74.3315 76.6294 75.3915C76.4846 75.5829 76.2819 75.7006 76.1226 75.8626C74.8051 77.1728 73.4441 78.4241 72.2279 79.808C71.7501 80.3527 71.2723 80.9268 70.809 81.4862C70.2298 82.1929 69.6362 82.8701 68.8399 83.3853C68.5359 83.5914 68.2463 83.9595 68.0291 84.2834C67.7106 84.7103 67.3341 85.1225 66.9722 85.4464C66.1903 86.153 65.756 87.1394 64.9307 87.8018C64.4239 88.1993 64.1489 88.8618 63.6566 89.3329C63.1354 89.8334 62.7155 90.4959 62.2232 90.9817C61.6585 91.5411 61.1952 92.2036 60.6016 92.7336C59.8487 93.4255 59.2117 94.2647 58.4298 94.9124C57.7638 95.4571 57.5901 96.3551 56.9096 96.8409C56.316 97.2679 56.0264 98.0481 55.4907 98.4309C54.7233 98.9903 54.3034 99.8147 53.594 100.374C53.2465 100.639 53.1017 101.037 52.8266 101.331C52.3054 101.89 51.6828 102.317 51.0892 102.774C50.9154 102.906 50.6838 103.024 50.6114 103.201C50.3942 103.819 49.9599 104.217 49.4386 104.54C49.1635 104.717 49.178 105.041 48.9753 105.276C48.4686 105.836 47.7591 106.071 47.1945 106.528C46.0362 107.426 44.6462 107.706 43.2563 107.912C42.0111 108.103 40.7805 107.823 39.6511 107.337C39.1878 107.131 38.6087 106.955 38.2612 106.484C38.0874 106.248 37.7544 106.395 37.4794 106.219C36.7699 105.762 36.046 105.306 35.3655 104.835C34.8732 104.496 34.5547 103.878 33.8597 103.819C33.4109 102.906 32.325 102.759 31.7458 102.082C31.4128 101.699 30.9061 101.552 30.6744 101.066C30.4717 100.639 29.965 100.462 29.5596 100.271C28.908 99.9472 28.6764 99.2553 28.1696 98.8284C27.9814 98.6517 27.6484 98.5339 27.5905 98.2689C27.4602 97.6654 27.0258 97.5181 26.548 97.2973C26.1861 97.1354 26.0992 96.5907 25.7517 96.2962C25.1002 95.7221 24.5355 95.0596 23.855 94.5002C23.5944 94.2941 23.4351 93.9408 23.3338 93.5286C23.1745 92.9103 22.7112 92.3656 22.3782 91.7914H22.3058ZM74.8775 68.384C74.6603 67.6626 74.197 67.1768 73.7192 66.7057C72.807 65.7929 71.6487 65.2335 70.6787 64.4238C69.3322 63.2755 67.9133 62.2303 66.4944 61.1998C65.727 60.6404 65.032 59.9632 64.1344 59.6098C63.3525 59.286 62.6431 58.756 62.1219 58.1524C61.4848 57.4163 60.674 56.9894 59.9211 56.4594C59.7763 56.3564 59.6026 56.3269 59.4144 56.3269C58.5891 56.3269 57.8507 56.6361 57.1991 57.0777C56.5187 57.5341 55.9685 58.2113 55.2735 58.6235C54.1876 59.2565 53.5505 60.4637 52.3633 60.9642C52.3199 60.979 52.2475 61.0231 52.233 61.082C51.8855 62.0831 50.901 62.4511 50.206 63.0694C49.5834 63.6289 49.0622 64.2619 48.4541 64.8213C48.1066 65.1452 47.7157 65.4838 47.4406 65.9254C47.1655 66.3524 46.5719 66.5732 46.4126 67.1473C46.4126 67.1915 46.2823 67.2209 46.2099 67.2357C45.7321 67.3534 45.5149 67.7362 45.3557 68.1484C45.2543 68.4134 45.1095 68.6637 44.8779 68.8109C43.8065 69.5175 43.1115 70.6069 42.1994 71.4755C41.765 71.8877 41.2293 72.2116 40.9976 72.8593C40.9397 73.0507 40.6646 73.301 40.3027 73.301C39.9986 73.301 39.767 73.5807 39.6511 73.8604C39.3326 74.6701 38.6811 75.2148 38.1164 75.8331C37.8558 76.1128 37.5807 76.3925 37.3925 76.7017C36.9871 77.3789 36.4948 77.9825 36.017 78.6008C35.8143 78.8658 35.4668 78.9688 35.2641 79.2633C34.685 80.073 34.1493 80.9121 33.2806 81.4715C33.1647 81.5451 33.0779 81.6776 33.0923 81.8248C33.0923 82.1487 32.8896 82.3107 32.7014 82.5168C32.1512 83.1204 31.6155 83.7092 31.0364 84.2686C30.7179 84.5778 30.2835 84.8575 30.0953 85.2108C29.603 86.1383 28.8791 86.8891 28.271 87.7282C27.9669 88.1404 27.938 88.6557 27.5036 89.0237C26.91 89.5243 26.8087 90.334 26.6928 91.07C26.6639 91.2909 26.7652 91.5411 26.9824 91.6884C27.0982 91.762 27.2141 91.8797 27.243 91.9975C27.4457 92.8661 27.938 93.4991 28.5606 94.1322C29.5306 95.0891 30.8047 95.6927 31.6011 96.8409C31.6011 96.8409 31.63 96.8557 31.659 96.8704C32.3395 97.4004 32.9765 98.004 33.6425 98.5634C34.5981 99.3878 35.5827 100.212 36.5093 101.066C37.074 101.581 37.6241 102.17 38.3336 102.538C38.7535 102.774 39.1878 103.053 39.5208 103.407C40.6791 104.599 42.0256 104.481 43.4156 104.04C44.2987 103.76 45.1385 103.363 45.8335 102.715C46.3692 102.214 46.9773 101.787 47.542 101.331C47.9184 101.022 48.1501 100.58 48.5265 100.301C49.3518 99.6969 49.902 98.8136 50.7417 98.2101C51.2919 97.8273 51.4946 97.1354 52.0013 96.7085C52.566 96.2226 53.1741 95.7368 53.6664 95.2068C54.4193 94.3677 55.3604 93.7347 55.9829 92.7778C56.1712 92.4833 56.5621 92.4244 56.6924 92.0858C56.9964 91.2909 57.648 90.7462 58.2416 90.2309C58.98 89.5979 59.5302 88.8176 60.1817 88.1257C60.8043 87.478 61.369 86.7419 61.9626 86.05C62.73 85.1667 63.4828 84.2834 64.2357 83.4001C66.4944 80.7502 68.9702 78.3064 71.142 75.5829C72.503 73.8604 74.197 72.3883 74.8485 70.1506C75.0222 69.5322 75.1526 68.9434 74.8775 68.384V68.384Z" fill="#E06765"/>
<path fill-rule="evenodd" clip-rule="evenodd" d="M76.2093 54.4278C76.4989 55.2081 76.2383 56.1061 75.6012 56.6214C75.4275 56.7686 75.3117 56.6803 75.1958 56.5772C74.0665 55.5761 72.8358 54.7076 71.4749 54.0598C71.1998 53.9273 71.1418 53.7654 71.3735 53.5298C71.5183 53.3679 71.6341 53.1765 71.7789 53.0293C72.0106 52.7937 72.1553 52.2638 72.4449 52.3374C73.0241 52.4699 73.748 52.3963 74.1679 52.8379C74.6891 53.3973 75.3406 53.7212 75.9342 54.1481C76.0501 54.2365 76.1659 54.2953 76.1949 54.4426L76.2093 54.4278Z" fill="#266E69"/>
<path fill-rule="evenodd" clip-rule="evenodd" d="M70.0849 55.0461C70.1717 55.0756 70.2731 55.105 70.36 55.1492C71.7933 55.8706 73.1398 56.7391 74.3416 57.8285C74.5443 58.0052 74.5732 58.1377 74.4284 58.388C73.8927 59.3154 73.4294 59.551 72.7344 58.9621C72.3725 58.653 71.9671 58.4174 71.6341 58.1082C71.4169 57.9021 71.1997 57.7844 70.9681 57.7108C70.1428 57.4752 69.4768 57.0483 69.0279 56.2975C68.9845 56.2239 68.8397 56.1208 68.9411 56.0767C69.3899 55.8117 69.7519 55.4436 70.0993 55.0461H70.0849Z" fill="#266E69"/>
<path fill-rule="evenodd" clip-rule="evenodd" d="M22.3217 91.8066H22.2915L22.3066 91.7914L22.3217 91.8066Z" fill="#1F6D67"/>
<path fill-rule="evenodd" clip-rule="evenodd" d="M108.222 32.3159C106.238 32.5662 104.385 33.0372 102.517 33.5967C102.503 33.6261 102.474 33.6408 102.459 33.6556C101.894 34.5389 100.852 34.7744 100.07 35.3633C99.1001 36.1141 98.0576 36.7913 97.0297 37.4243C95.4515 38.4107 94.0181 39.662 92.3097 40.4275C92.0056 40.56 91.7305 40.7956 91.5423 40.987C90.9342 41.6053 90.1958 42.0175 89.5008 42.4297C88.7624 42.8566 88.1543 43.4749 87.329 43.7988C86.0984 44.2699 84.9256 44.8882 83.7963 45.5948C83.304 45.904 82.8262 46.2573 82.2615 46.4045C82.0154 46.4781 81.8851 46.6842 81.6969 46.8167C80.9729 47.332 80.2345 47.8473 79.4961 48.3478C79.3513 48.4508 79.2066 48.4803 79.0763 48.3478C78.9315 48.2006 78.9749 48.0681 79.1052 47.9356C79.1486 47.8914 79.1921 47.8178 79.1776 47.7736C78.9315 47.0523 79.4961 46.5517 79.6264 45.9334C79.6988 45.5948 80.0898 45.5065 80.1911 45.1385C80.3069 44.741 80.4662 44.3729 80.4228 43.9607C80.3938 43.6663 80.5241 43.4602 80.7413 43.2835C81.0598 43.0333 81.277 42.7241 81.2336 42.2825C81.2336 42.2383 81.2336 42.1941 81.2625 42.1794C82.1023 41.3108 81.9575 39.9123 82.9565 39.132C83.2316 38.9112 83.2026 38.4401 83.3619 38.0868C83.5212 37.7482 83.6804 37.4096 83.8687 37.0857C82.5077 37.4096 81.1612 37.7923 79.7857 38.0868C79.4527 39.0879 79.0039 40.03 78.4826 40.9428C78.222 41.4139 78.1641 41.9586 77.889 42.4591C77.7153 42.7683 77.7587 43.3424 77.5705 43.7841C77.223 44.579 77.2954 45.4771 76.89 46.272C76.6873 46.6842 76.6728 47.1848 76.2095 47.4498C76.0647 47.5381 75.9199 47.7589 76.0068 47.965C76.1371 48.2595 76.0068 48.5244 75.9055 48.76C75.7028 49.2016 75.5869 49.658 75.5869 50.1586C75.5869 50.3647 75.529 50.556 75.4277 50.718C75.3118 50.9094 74.9354 51.0271 75.196 51.351C75.3697 51.5718 75.5435 51.8515 75.7751 51.9252C76.7307 52.2343 77.6429 52.4551 78.6709 51.9988C79.8726 51.4688 80.9006 50.7033 81.8996 49.8936C83.0434 48.9808 84.2885 48.2153 85.5047 47.4056C86.4314 46.7873 87.5173 46.4045 88.2701 45.5359C88.4149 45.374 88.5308 45.1532 88.7769 45.0649C90.1379 44.5643 91.1948 43.5485 92.4255 42.8272C93.6127 42.1352 94.6841 41.2519 95.9583 40.6631C97.2468 40.0742 98.4051 39.2056 99.6213 38.4695C100.982 37.6451 102.199 36.5999 103.559 35.7608C103.965 35.5105 104.443 35.3191 104.819 34.9363C105.442 34.3328 106.108 33.7586 106.919 33.3317C107.599 32.9636 108.337 32.6545 108.96 32.1687C108.714 32.1981 108.468 32.2128 108.222 32.2423V32.3159Z" fill="#1F6D67"/>
<path fill-rule="evenodd" clip-rule="evenodd" d="M95.7265 18.8161C95.2632 19.0811 94.9447 19.5227 94.4958 19.7877C93.743 20.2294 93.41 21.1127 92.6136 21.5102C92.1358 21.7604 91.6291 22.0549 91.2961 22.4671C90.8038 23.1001 90.2392 23.6595 89.66 24.1895C88.9361 24.852 88.3425 25.647 87.5896 26.28C87.2566 26.5597 87.1118 26.9719 86.8077 27.2663C85.8811 28.2233 84.969 29.1949 84.2595 30.3285C83.8541 30.9762 83.3618 31.5503 83.0578 32.3012C82.8985 32.6986 82.6669 33.1108 82.4062 33.4936C83.6659 33.1845 84.9545 33.0225 86.2286 33.0961C86.2286 33.0667 86.2286 33.0225 86.272 32.9931C86.5326 32.6839 86.7209 32.3306 87.0394 32.0803C87.3724 31.8301 87.633 31.5798 87.7199 31.0645C87.8068 30.6229 88.3425 30.2401 88.6899 29.8574C88.7623 29.7837 88.8926 29.7249 88.9361 29.6218C89.3849 28.3557 90.5432 27.7227 91.3395 26.7658C92.1793 25.7647 93.0914 24.8373 94.047 23.9392C94.4958 23.5123 94.8578 23.0707 95.408 22.7468C95.6976 22.5701 96.0016 22.2021 96.3201 21.9371C97.7101 20.7741 99.2448 19.8025 100.722 18.7719C100.939 18.6247 101.17 18.4775 101.388 18.3303C99.4909 18.4775 97.5798 18.5953 95.6831 18.7719L95.7265 18.8161Z" fill="#1F6D67"/>
<path fill-rule="evenodd" clip-rule="evenodd" d="M121.484 17.182C121.484 16.6962 121.325 16.2104 121.296 15.7099C121.209 15.489 121.136 15.2535 121.05 15.0327C120.775 14.7235 120.398 14.5027 120.253 14.0905C120.022 13.3838 119.471 13.06 118.878 12.7214C118.429 12.4564 117.98 12.5594 117.546 12.4269C116.547 12.1325 115.519 12.1325 114.491 12.0294C114.143 12 113.825 12.2061 113.448 12.1178C112.652 11.9117 111.798 12 111.088 12.2061C110.538 12.368 109.974 12.4564 109.423 12.5594C110.567 12.7802 111.61 13.2513 112.493 14.0463C112.768 14.0316 113.057 14.0316 113.333 14.0463C114.694 14.1199 116.04 14.3555 117.314 14.9443C117.98 15.2535 118.255 15.916 118.458 16.5343C118.588 16.917 118.661 17.2851 118.704 17.6531C119.254 18.1389 119.775 18.772 120.239 19.4344C120.586 19.8466 121.151 19.4639 121.484 18.8014C121.745 18.3009 121.513 17.712 121.484 17.182V17.182Z" fill="#1F6D67"/>
<path fill-rule="evenodd" clip-rule="evenodd" d="M41.91 98.269C41.606 98.269 41.606 98.1806 41.606 98.1365C41.606 97.9745 41.6494 97.7537 41.9534 97.5918C43.3579 96.8262 44.2845 95.7957 45.1677 94.7947L45.7179 94.1763C46.2246 93.6169 46.7603 93.0869 47.296 92.5422C48.2082 91.6148 49.1638 90.6579 49.9456 89.6568C50.4524 88.9943 51.017 88.3613 51.5817 87.7135C52.2767 86.9186 52.9861 86.1089 53.6087 85.255C54.5064 84.0478 55.6357 82.664 57.127 81.5304C57.5034 81.2507 57.8075 81.0299 57.9088 80.6471C58.1405 79.7049 59.1684 78.8658 59.9937 78.2033C60.6597 77.6586 61.2099 77.0698 61.7456 76.4956C62.1655 76.054 62.5709 75.5976 63.0342 75.1854C63.6423 74.6554 64.1056 74.0813 64.5545 73.5366C64.873 73.1391 65.206 72.7563 65.568 72.3736C66.2195 71.7258 66.7842 71.343 67.3778 71.1664L67.7253 70.9897C68.1596 70.7395 68.565 70.5039 68.8836 70.5039C68.9994 70.5039 69.1007 70.5333 69.1876 70.607C69.2455 70.6511 69.4193 70.7689 69.4337 70.8278C69.4337 70.8278 69.4337 70.9603 69.1152 71.3136C68.4058 72.1527 67.5805 72.9771 66.7986 73.7721C66.1761 74.4051 65.5535 75.0382 64.9599 75.6859C64.3952 76.3042 63.7582 76.9078 63.1356 77.5261C62.3248 78.3211 61.4705 79.1308 60.7466 79.9994L60.5439 80.2349C59.9937 80.8974 59.4435 81.5599 58.8354 82.2076C56.9098 84.2834 55.3172 86.153 53.9562 87.9344C53.1598 88.9796 52.074 90.3487 50.7274 91.5412C49.7719 92.395 48.9755 93.3225 48.2227 94.2205C47.4698 95.1038 44.5306 97.7684 43.604 98.5781C43.0828 99.0345 42.576 98.3131 41.8955 98.3131H41.8811L41.91 98.269Z" fill="#266E69"/>
<path fill-rule="evenodd" clip-rule="evenodd" d="M119.225 21.4366C119.081 21.9077 119.052 22.4229 118.892 22.8793C118.719 23.3946 118.748 24.0129 118.328 24.3956C117.763 24.9109 117.734 25.6912 117.271 26.2653C116.59 27.0603 115.881 27.7816 114.954 28.2969C114.636 28.4735 114.303 28.6502 114.129 29.0771C114.042 29.3127 113.579 29.401 113.275 29.5335C111.841 30.1518 110.365 30.6376 108.946 31.2854C108.482 31.4915 107.918 31.4915 107.382 31.5209C106.209 31.5798 105.065 31.9331 103.907 32.0509C103.502 32.0951 103.038 32.1392 102.619 32.3453C101.706 32.8017 100.678 32.8164 99.6938 32.9342C98.7962 33.052 97.9709 33.3611 97.1891 33.6997C96.6968 33.9206 96.19 33.9353 95.7267 34.0236C94.163 34.3328 92.6717 34.8775 91.1081 35.1719C89.7181 35.4369 88.3282 35.8344 86.9238 35.9374C85.5338 36.0405 84.2307 36.4821 82.8698 36.7177C81.4653 36.968 80.1333 37.5421 78.6855 37.5274C78.4248 37.5274 78.2366 37.6893 78.0484 37.7924C77.0349 38.3518 75.8911 38.3223 74.8197 38.5726C73.4008 38.8965 71.9819 39.1762 70.5919 39.6326C69.3757 40.0301 68.1595 40.3981 66.842 40.4717C65.7271 40.5306 64.9308 40.0153 64.149 39.3823C63.9608 39.2351 63.8884 38.8965 63.8015 38.6315C63.6712 38.2487 64.0621 38.2635 64.2359 38.1162C64.3951 37.9985 64.5254 37.8365 64.5833 37.6451C64.7426 37.1888 65.0177 36.7913 65.3507 36.4527C65.5389 36.2613 65.7416 36.0699 65.7127 35.746C65.7127 35.5105 65.9154 35.3633 66.0746 35.3338C66.5959 35.2308 66.7841 34.7744 67.1171 34.4653C67.7686 33.8617 68.0148 32.9931 68.6084 32.3748C68.9414 32.0215 69.1007 31.4768 69.3613 31.2412C69.7811 30.8732 70.0273 30.3874 70.4327 30.034C71.2869 29.298 72.0977 28.5324 72.7782 27.6344C73.1546 27.1486 73.7048 26.8394 74.1681 26.4567C74.8631 25.8678 75.5002 25.1906 76.282 24.7048C76.8177 24.3662 77.31 23.9687 77.7009 23.5271C78.2366 22.9235 78.8882 22.5554 79.4963 22.0991C80.5532 21.2894 81.7404 20.6858 82.9277 20.1264C83.3041 19.9497 83.5937 19.6111 83.9991 19.4786C84.9112 19.1547 85.7365 18.61 86.6487 18.242C87.3581 17.9476 88.082 17.6237 88.7625 17.2115C89.2114 16.9465 89.7905 16.8287 90.3262 16.7698C91.2094 16.6668 91.832 15.9749 92.6862 15.8129C93.3812 15.6951 93.9748 15.1652 94.7711 15.3418C95.0897 15.4154 95.4661 15.1504 95.8281 15.0768C97.551 14.753 99.274 14.3702 101.011 14.1346C102.097 13.9874 103.227 14.061 104.313 13.9874C105.167 13.9433 105.992 14.3407 106.861 14.1935C108.207 13.958 109.51 14.4438 110.842 14.5468C111.581 14.6057 112.42 14.8413 113.087 15.2977C113.405 15.5185 113.781 15.4301 114.1 15.5921C115.012 16.0485 115.982 16.4165 116.822 17.0495C117.184 17.3145 117.647 17.3881 117.966 17.7856C118.4 18.3156 118.806 18.8161 118.791 19.5522C118.791 19.9939 119.066 20.3472 119.211 20.7299V21.4513L119.225 21.4366ZM105.065 29.8721C105.21 29.8721 105.34 29.9015 105.471 29.8721C106.383 29.6807 107.208 29.2096 108.164 29.1802C108.207 29.1802 108.265 29.1213 108.294 29.0771C108.569 28.7827 108.931 28.6649 109.279 28.606C110.205 28.4294 111.002 27.9583 111.726 27.4283C112.305 27.0014 112.782 26.4125 113.391 26.0003C113.781 25.7206 114.028 25.3084 114.39 25.014C115.62 24.057 116.214 22.7615 116.257 21.2158C116.272 20.5533 116.257 19.8466 115.722 19.3167C114.737 18.3156 113.55 17.6237 112.305 17.079C111.233 16.6079 110.06 16.4459 108.931 16.181C107.599 15.8718 106.209 16.1073 104.848 16.181C104.168 16.2251 103.473 16.181 102.792 16.3134C101.489 16.5343 100.186 16.7845 98.912 17.1084C97.1601 17.5501 95.4082 17.9181 93.6997 18.5217C93.3088 18.6542 92.8889 18.8897 92.5704 18.9633C91.9333 19.0811 91.4411 19.3608 90.8764 19.5964C89.6747 20.0969 88.5019 20.6563 87.3726 21.2894C86.3012 21.893 84.9981 22.0991 84.1439 23.1149C84.0715 23.2032 83.9267 23.2032 83.8398 23.2474C83.3765 23.4829 82.7395 23.6301 82.5078 24.0276C82.2472 24.484 81.9142 24.6165 81.5233 24.7342C81.1323 24.852 80.8283 25.117 80.4953 25.3084C80.2636 25.4262 80.4229 25.7795 80.1044 25.912C78.9895 26.3536 78.1787 27.2664 77.2376 27.973C76.8322 28.2822 76.3978 28.6944 76.0214 29.0771C75.7463 29.3421 75.6015 29.7985 75.283 29.9015C74.0813 30.2843 73.7338 31.6534 72.6624 32.1687C72.6334 32.1687 72.6045 32.2276 72.6045 32.257C72.4886 32.6839 72.1846 32.89 71.7937 33.0225C71.5331 33.1109 71.3448 33.2581 71.2724 33.5378C71.1711 33.95 70.896 34.2297 70.6499 34.5683C70.4327 34.8775 70.0418 34.8186 69.8535 35.113C69.5205 35.643 68.8256 35.9227 68.7966 36.6735C68.7966 36.7177 68.7242 36.7766 68.6663 36.7913C68.4926 36.8649 68.4202 36.9827 68.4925 37.1741C68.5649 37.3507 68.7242 37.3802 68.8835 37.336C69.7522 37.1152 70.6064 36.8943 71.4751 36.6735C71.6923 36.6146 71.895 36.4674 72.1411 36.4821C72.7348 36.541 73.2994 36.3791 73.8641 36.2613C75.1672 35.9963 76.4702 35.8344 77.7878 35.8197C78.671 35.8197 79.4528 35.4516 80.2926 35.3044C81.0889 35.1572 81.9287 35.0247 82.696 34.6714C82.9422 34.5536 83.2752 34.4358 83.6082 34.4211C85.4759 34.3033 87.2423 33.6261 89.0666 33.2728C90.2538 33.0373 91.4555 32.7576 92.6138 32.4042C93.5549 32.1245 94.5974 32.2717 95.4371 31.6387C95.7122 31.4326 96.0018 31.359 96.3059 31.3296C96.9284 31.2559 97.551 31.1234 98.1591 30.9762C98.912 30.7996 99.6794 30.5787 100.447 30.5493C101.706 30.5051 102.937 30.2696 104.153 29.9752C104.457 29.9015 104.747 29.8574 105.051 29.8721H105.065Z" fill="#1F6D67"/>
<path fill-rule="evenodd" clip-rule="evenodd" d="M0.414551 57.8727C0.515901 57.8874 0.646208 57.9169 0.573815 57.7549C0.197372 56.96 0.631729 56.3269 1.03713 55.7675C1.61627 54.9873 2.29676 54.2953 2.91934 53.5445C3.12204 53.309 3.29578 53.0587 3.62879 52.9851C3.74462 52.9557 3.84597 52.8968 3.8894 52.779C4.1645 51.984 4.87395 51.9104 5.52548 51.7485C5.5834 51.7485 5.64131 51.719 5.69922 51.6896C6.40867 51.0566 7.39322 50.983 8.17506 50.4088C8.5515 50.1438 9.05825 49.8788 9.60844 49.8052C10.0862 49.7316 10.4048 49.1722 10.926 49.025C11.8237 48.76 12.5186 48.0828 13.4018 47.7589C14.0099 47.5234 14.4153 46.9345 15.0379 46.6548C15.9211 46.2573 16.6884 45.5801 17.5716 45.1973C18.5562 44.7557 19.3959 44.0049 20.4963 43.8282C20.5687 43.8282 20.6556 43.7693 20.699 43.7252C21.4519 42.886 22.5233 42.6358 23.5079 42.253C24.724 41.7672 25.9402 41.3256 27.0261 40.5011C27.6342 40.0448 28.4161 39.6767 29.2269 39.5148C29.835 39.397 30.3128 38.9259 30.9209 38.7198C31.7751 38.4548 32.6004 38.1015 33.4401 37.7924C34.1785 37.5126 34.859 37.0268 35.6843 36.9238C36.0173 36.8796 36.3648 36.6588 36.6833 36.3791C37.0887 36.0405 37.6534 35.8344 38.1457 35.5547C38.7103 35.2308 39.4487 35.2897 39.9121 34.6861C40.0858 34.4653 40.5491 34.5094 40.8097 34.3328C41.8522 33.6114 43.1263 33.4936 44.2701 33.317C45.5587 33.1109 46.9776 33.052 48.2951 33.7439C49.5982 34.4358 50.4669 35.481 51.2922 36.6293C51.4804 36.8943 51.7121 37.1593 51.9727 37.3654C52.5953 37.8512 52.8125 38.6609 53.4206 39.1615C54.0287 39.662 54.2169 40.4717 54.6368 41.1047C54.8105 41.355 54.9408 41.6347 55.158 41.8703C55.5779 42.3413 55.9688 42.8272 56.157 43.4602C56.2439 43.7399 56.3887 44.0049 56.6493 44.1816C56.7941 44.2699 56.9099 44.4318 56.9823 44.5938C57.6193 46.0659 58.5025 47.4056 59.2844 48.8042C59.8635 49.8347 60.4282 50.8946 60.9494 51.9693C61.4272 52.9557 61.9484 53.8979 62.0932 55.002C62.1511 55.4142 62.3393 55.8264 62.2959 56.2239C62.238 56.7097 62.3393 57.2397 61.7602 57.6224C61.4417 57.8285 61.2969 58.388 61.0363 58.7707C60.8046 59.124 60.5295 59.389 60.211 59.5804C59.0672 60.2282 57.9958 60.979 56.8954 61.6856C56.6927 61.8181 56.4611 61.8623 56.2584 61.9506C54.5788 62.7014 52.8848 63.4081 51.2488 64.2619C50.6117 64.6005 49.9747 64.9685 49.3521 65.3366C48.5702 65.793 47.7739 66.2199 46.8618 66.426C46.4998 66.4996 46.1089 66.7646 45.7904 66.9707C45.356 67.2651 44.8492 67.5154 44.4004 67.6921C43.4303 68.0748 42.6919 68.8551 41.6784 69.1789C41.0703 69.3703 40.5781 69.9003 39.9555 70.1653C39.304 70.4597 38.6814 70.9308 38.0588 71.2105C37.3349 71.5344 36.6833 71.9908 35.9449 72.2852C35.0038 72.668 34.1206 73.2274 33.165 73.566C32.3542 73.8457 31.8909 74.6112 31.0801 74.8468C30.3707 75.0382 29.835 75.6712 29.1979 75.8331C28.2858 76.0834 27.6198 76.7164 26.7655 76.9814C26.3456 77.1139 26.085 77.4378 25.7231 77.6145C25.0426 77.9531 24.3187 78.1444 23.5947 78.3653C23.392 78.4242 23.1169 78.4536 23.0011 78.6008C22.5812 79.1161 22.031 79.3222 21.4374 79.44C21.1189 79.4988 21.0175 79.808 20.7569 79.9552C20.0909 80.3085 19.3525 80.2791 18.6575 80.4999C17.2676 80.9268 15.8632 80.706 14.4877 80.4116C13.2426 80.1466 12.1856 79.4547 11.3024 78.6008C10.9405 78.2475 10.4627 77.8795 10.2889 77.3053C10.2021 77.0256 9.84009 77.0403 9.65187 76.7753C9.14512 76.0981 8.62389 75.4062 8.1461 74.729C7.79862 74.2432 7.71174 73.5513 7.07469 73.2421C6.95886 72.2263 5.9888 71.7111 5.68475 70.8719C5.511 70.3861 5.09113 70.077 5.03321 69.547C4.9753 69.0759 4.5699 68.7373 4.26585 68.4134C3.7591 67.8687 3.78805 67.1474 3.45505 66.5585C3.32474 66.3377 3.06413 66.1021 3.10756 65.8371C3.19443 65.2188 2.83247 64.9391 2.47051 64.5563C2.19541 64.2766 2.28228 63.7319 2.06511 63.3344C1.65971 62.5689 1.34118 61.7445 0.906822 60.979C0.733079 60.6845 0.704122 60.3018 0.747558 59.8896C0.805472 59.2418 0.559336 58.5793 0.443508 57.9169L0.414551 57.8727ZM57.7062 54.4573C57.7496 53.7065 57.489 53.0882 57.1995 52.4699C56.6493 51.2921 55.7661 50.3647 55.129 49.2458C54.2603 47.7 53.2902 46.2131 52.3057 44.741C51.77 43.946 51.3501 43.0774 50.6407 42.415C50.0181 41.8261 49.5403 41.09 49.2507 40.3392C48.9032 39.4265 48.2807 38.7493 47.7594 37.9837C47.6581 37.8365 47.4988 37.7482 47.3251 37.6746C46.5577 37.3654 45.7614 37.4096 44.9796 37.601C44.1832 37.7924 43.4448 38.2193 42.6485 38.3665C41.4033 38.5873 40.4043 39.5001 39.1157 39.5295C39.0578 39.5295 38.9854 39.5442 38.9565 39.5884C38.2905 40.3981 37.248 40.3981 36.3793 40.7367C35.6119 41.0311 34.9025 41.458 34.1351 41.7672C33.7008 41.9439 33.223 42.1205 32.8031 42.4444C32.3977 42.7536 31.7751 42.7388 31.4131 43.2394C31.3842 43.2835 31.2684 43.2541 31.196 43.2394C30.7037 43.1805 30.3707 43.4602 30.0811 43.7988C29.8929 44.0196 29.6757 44.1963 29.4151 44.2552C28.1699 44.5349 27.142 45.3151 25.9837 45.8157C25.4335 46.0512 24.8254 46.169 24.391 46.6842C24.2607 46.8462 23.9277 46.9787 23.5947 46.8462C23.3196 46.7431 22.9866 46.9198 22.7984 47.1406C22.2193 47.7884 21.4229 48.0681 20.699 48.4508C20.366 48.6275 20.0185 48.7894 19.7289 49.0103C19.1208 49.4961 18.4548 49.8936 17.7888 50.3058C17.4992 50.4824 17.1518 50.4677 16.8622 50.6591C16.0514 51.2185 15.2551 51.8221 14.2561 52.0282C14.1257 52.0576 13.9954 52.146 13.952 52.2932C13.8507 52.6024 13.59 52.6612 13.3439 52.7937C12.6345 53.1618 11.925 53.5151 11.1866 53.8537C10.7812 54.0451 10.2744 54.1334 9.98488 54.3984C9.20304 55.0903 8.27641 55.5467 7.42217 56.1061C7.00229 56.3858 6.78512 56.8569 6.26389 57.0483C5.53996 57.2986 5.16352 58.0199 4.81603 58.6824C4.71468 58.8738 4.71468 59.1388 4.87395 59.3596C4.94634 59.4626 5.01873 59.6246 5.00425 59.7424C4.88843 60.6404 5.14904 61.4059 5.52548 62.2156C6.10462 63.4522 7.10364 64.468 7.45113 65.8371C7.45113 65.8519 7.48009 65.8666 7.48009 65.8813C7.9434 66.6321 8.33432 67.4123 8.7542 68.1779C9.37678 69.282 10.0138 70.4008 10.593 71.5344C10.9405 72.2263 11.2735 72.9624 11.7947 73.566C12.1132 73.934 12.4173 74.3463 12.62 74.8026C13.3005 76.3337 14.6035 76.7017 16.0659 76.7606C16.9925 76.8048 17.9191 76.7312 18.7878 76.3631C19.4683 76.0834 20.1778 75.892 20.8583 75.6712C21.3216 75.524 21.6836 75.1854 22.1324 75.0529C23.1169 74.7879 23.9422 74.1401 24.9123 73.8752C25.5638 73.7132 25.9837 73.1391 26.6063 72.9183C27.3012 72.668 28.0396 72.4324 28.6767 72.1086C29.6612 71.5933 30.7761 71.3283 31.6738 70.6511C31.9489 70.445 32.3398 70.5333 32.5714 70.2536C33.1216 69.6206 33.9324 69.3262 34.6563 69.0612C35.554 68.7373 36.3503 68.1926 37.1901 67.7804C37.9864 67.3829 38.7683 66.8971 39.5646 66.4702C40.5781 65.9107 41.5916 65.3513 42.6051 64.7772C45.6311 63.0989 48.7874 61.6856 51.7555 59.8749C53.6233 58.7413 55.7082 57.961 57.0836 56.0914C57.4601 55.5761 57.7786 55.0756 57.7062 54.4426V54.4573Z" fill="#79CBE8"/>
<path fill-rule="evenodd" clip-rule="evenodd" d="M63.7148 41.8408C63.7148 42.68 63.179 43.4308 62.3972 43.681C62.18 43.7547 62.1076 43.6369 62.0352 43.4897C61.3113 42.15 60.4571 40.9134 59.4146 39.824C59.1974 39.6031 59.1974 39.4265 59.5015 39.294C59.6897 39.2057 59.8635 39.0584 60.0662 38.9701C60.3557 38.8229 60.6743 38.3812 60.9204 38.5579C61.4127 38.8818 62.1221 39.0732 62.3682 39.6326C62.6723 40.3392 63.1646 40.8692 63.57 41.4875C63.6568 41.6053 63.7292 41.7083 63.7148 41.8556V41.8408Z" fill="#266E69"/>
<path fill-rule="evenodd" clip-rule="evenodd" d="M57.7639 40.2509C57.8363 40.3245 57.9232 40.3834 57.9811 40.4422C59.0815 41.6347 60.0371 42.9155 60.79 44.3582C60.9203 44.5938 60.9058 44.7263 60.6886 44.9029C59.8633 45.5801 59.3566 45.639 58.8933 44.844C58.6616 44.4318 58.3576 44.0638 58.1549 43.6516C58.0246 43.3866 57.8508 43.1952 57.6626 43.048C56.9676 42.5474 56.4898 41.8997 56.3161 41.0458C56.3016 40.9575 56.2003 40.825 56.3161 40.7956C56.8228 40.7072 57.2861 40.4864 57.7639 40.2361V40.2509Z" fill="#266E69"/>
<path fill-rule="evenodd" clip-rule="evenodd" d="M57.7063 54.4573C57.7786 55.0756 57.4601 55.5761 57.0837 56.1061C55.7082 57.9758 53.6233 58.756 51.7556 59.8896C48.7875 61.6856 45.6311 63.1136 42.6051 64.7919C41.5916 65.3513 40.5781 65.9255 39.5646 66.4849C38.7683 66.9265 37.9865 67.4124 37.1901 67.7951C36.3504 68.2073 35.5541 68.752 34.6564 69.0759C33.9325 69.3409 33.1217 69.6206 32.5715 70.2684C32.3253 70.5481 31.9489 70.4597 31.6738 70.6658C30.7617 71.343 29.6613 71.608 28.6767 72.1233C28.0397 72.4472 27.3013 72.6827 26.6063 72.933C25.9837 73.1538 25.5639 73.728 24.9123 73.8899C23.9278 74.1549 23.1025 74.7879 22.1324 75.0676C21.6836 75.1854 21.3216 75.524 20.8583 75.6859C20.1778 75.9068 19.4684 76.0981 18.7879 76.3778C17.9192 76.7312 16.9925 76.8195 16.0659 76.7753C14.6181 76.7164 13.3005 76.3484 12.62 74.8173C12.4173 74.3757 12.1133 73.9488 11.7947 73.5807C11.2735 72.9771 10.955 72.2411 10.593 71.5491C9.99941 70.4156 9.37683 69.2967 8.75425 68.1926C8.33437 67.4271 7.92897 66.6468 7.48014 65.896C7.48014 65.8813 7.45118 65.8666 7.45118 65.8519C7.1037 64.4827 6.10468 63.4817 5.52553 62.2303C5.14909 61.4206 4.90296 60.6551 5.0043 59.7571C5.01878 59.6393 4.94639 59.4774 4.874 59.3743C4.71473 59.1535 4.71473 58.8738 4.81608 58.6971C5.17805 58.0346 5.54001 57.3133 6.26394 57.063C6.78517 56.8716 7.00235 56.4005 7.42222 56.1208C8.27646 55.5467 9.20309 55.105 9.98493 54.4131C10.2745 54.1481 10.7812 54.0451 11.1866 53.8684C11.9251 53.5298 12.6345 53.1765 13.344 52.8085C13.5901 52.676 13.8507 52.6024 13.9521 52.3079C13.9955 52.1754 14.1258 52.0724 14.2561 52.0429C15.2551 51.8368 16.0514 51.2332 16.8622 50.6738C17.1518 50.4824 17.4993 50.4972 17.7889 50.3205C18.4549 49.923 19.1209 49.5108 19.729 49.025C20.0186 48.7894 20.3661 48.6275 20.6991 48.4656C21.4375 48.0828 22.2193 47.8031 22.7985 47.1553C23.0012 46.9345 23.3197 46.7579 23.5948 46.8609C23.9278 46.9934 24.2608 46.8609 24.3911 46.699C24.811 46.169 25.4335 46.0659 25.9837 45.8304C27.142 45.3298 28.1555 44.5496 29.4152 44.2699C29.6758 44.211 29.8929 44.0343 30.0812 43.8135C30.3707 43.4896 30.7037 43.1952 31.196 43.2541C31.2684 43.2541 31.3842 43.2835 31.4132 43.2541C31.7607 42.7683 32.3977 42.7683 32.8031 42.4591C33.223 42.1352 33.7008 41.9586 34.1352 41.7819C34.9025 41.4728 35.612 41.0606 36.3793 40.7514C37.248 40.4128 38.2905 40.4128 38.9565 39.6031C38.9855 39.559 39.0723 39.5442 39.1158 39.5442C40.4044 39.5001 41.4034 38.5873 42.6486 38.3812C43.4449 38.2487 44.1978 37.8071 44.9796 37.6157C45.747 37.4243 46.5433 37.3949 47.3251 37.6893C47.4989 37.7629 47.6581 37.8512 47.7595 37.9985C48.2807 38.764 48.8888 39.4412 49.2508 40.3539C49.5403 41.1047 50.0181 41.8555 50.6407 42.4297C51.3502 43.0922 51.77 43.9607 52.3057 44.7557C53.2903 46.2279 54.2604 47.7148 55.1291 49.2605C55.7516 50.3647 56.6493 51.3068 57.1995 52.4846C57.4891 53.1029 57.7497 53.7212 57.7063 54.472V54.4573ZM24.4056 61.5973C23.754 61.5973 23.1894 61.8476 22.6537 62.1714C21.8284 62.672 21.0755 63.2903 20.1489 63.5847C19.8159 63.6878 19.5987 63.8497 19.5408 64.203C19.4829 64.6005 19.8014 64.7477 20.0186 64.9538C20.1199 65.0569 20.3661 65.0127 20.3661 65.2188C20.3661 65.7046 20.8149 65.9844 20.9597 66.426C21.1479 66.9707 21.3506 67.5301 21.5388 68.0895C21.6402 68.384 21.9877 68.6195 21.9153 68.8256C21.6836 69.4881 22.3641 69.7531 22.451 70.2684C22.4944 70.5039 22.7695 70.7983 23.0735 70.9456C23.8699 71.2989 25.5059 70.9897 26.0851 70.3125C26.6063 69.7089 27.2723 69.3556 27.9963 69.0759C28.5464 68.8698 28.9663 68.1779 28.7781 67.7951C28.7057 67.6479 27.5764 67.1474 27.3882 67.1768C26.9393 67.2504 26.6353 67.5743 26.2733 67.8246C25.7231 68.1926 25.1295 68.5459 24.6807 68.9729C24.116 69.5323 24.1305 69.017 23.9567 68.752C23.8699 68.6195 23.8119 68.4723 23.754 68.3251C23.6672 68.119 23.754 67.9571 23.9567 67.9129C24.7675 67.751 25.2888 67.1032 25.9548 66.691C26.4181 66.4113 26.6787 65.8077 27.3592 65.8519C27.5764 65.8666 27.6488 65.7046 27.5619 65.4396C27.3302 64.6888 27.2434 64.6152 26.4326 64.6447C26.3167 64.6447 26.2009 64.6005 26.0851 64.5858C25.7955 64.5269 25.477 64.5858 25.3177 64.7772C24.9702 65.1894 24.4635 65.3219 24.0726 65.631C23.7975 65.8371 23.4065 65.8813 23.2618 66.2493C23.2328 66.3082 23.3776 66.4554 23.1894 66.426C23.1315 66.426 23.0156 66.3082 23.0301 66.2788C23.1459 65.7782 22.7405 65.4985 22.5668 65.1305C22.3786 64.733 22.5668 64.4239 22.8129 64.3355C23.5803 64.0853 24.145 63.5258 24.7965 63.0989C25.2453 62.8045 25.2598 62.4217 25.2019 62.0242C25.144 61.5678 24.7241 61.6415 24.4056 61.6267V61.5973ZM20.2937 53.4268C20.3081 53.0734 20.2068 52.779 19.8159 52.676C19.1209 52.4993 18.4983 52.6024 17.8178 52.9262C17.2387 53.1912 16.7175 53.5887 16.0659 53.7359C15.2117 53.9126 14.8208 54.7517 14.9945 55.4584C15.1393 56.0619 15.342 56.6655 15.5302 57.2691C15.8632 58.3585 16.1238 59.4627 16.6306 60.5079C17.1084 61.509 18.4404 61.9359 19.2802 61.2293C19.5987 60.9495 20.0041 60.817 20.2937 60.449C20.424 60.2871 20.8873 60.2871 21.1479 60.081C21.5243 59.7718 21.9008 59.4479 22.3496 59.2271C22.6392 59.0799 22.8998 58.8443 23.1459 58.6235C23.3776 58.4027 23.2183 57.9022 22.9143 57.7697C21.9732 57.3575 21.09 57.7255 20.424 58.2849C19.9172 58.6971 19.3236 58.9621 18.8458 59.4038C18.6865 59.5363 18.4259 59.5215 18.3535 59.286C18.2956 59.0652 18.0495 58.6824 18.2956 58.6235C18.7879 58.5057 18.9616 57.9316 19.5263 57.9169C19.729 57.9169 20.0041 57.5488 20.2068 57.4605C20.7425 57.2397 20.9307 56.6066 21.4954 56.4447C21.8139 56.3564 22.0456 56.0619 22.0456 55.6792C22.0456 55.4436 22.0166 55.1492 21.727 55.0903C21.2203 55.0167 20.6846 55.002 20.2647 55.2817C19.9317 55.5025 19.5987 55.7233 19.2222 55.8117C18.8168 55.9147 18.5418 56.165 18.2232 56.3858C18.006 56.533 17.8757 56.9158 17.5862 56.8275C17.2821 56.7244 17.4993 56.3269 17.3545 56.0767C17.3111 56.0178 17.3111 55.9295 17.3111 55.8411C17.3111 55.4142 17.4559 55.105 17.9626 55.1492C18.2087 55.1639 18.3535 55.002 18.5128 54.84C18.8458 54.4867 19.1933 54.207 19.7 54.1187C20.0186 54.0598 20.3805 53.942 20.3081 53.4562L20.2937 53.4268ZM31.0947 54.3101C31.7317 54.3837 32.0502 53.8979 32.4556 53.7948C33.4257 53.5887 34.1352 52.9115 34.9749 52.4993C35.8291 52.0724 36.6979 51.6454 37.5521 51.2038C38.3629 50.7916 39.2316 50.4824 39.999 49.9819C40.6939 49.5255 41.1862 48.7747 42.0839 48.6128C42.4603 48.5392 42.6485 48.0828 43.0829 48.0092C43.9371 47.862 44.6466 47.3762 45.414 47.0081C46.5867 46.4487 47.716 45.7715 48.9902 45.4182C49.2073 45.3593 49.5403 45.3593 49.5259 44.9765C49.5114 44.6085 49.3956 44.2846 48.9902 44.211C48.3241 44.0932 47.6147 43.9755 46.9776 44.2846C45.9931 44.7557 45.023 45.2562 44.0674 45.8009C42.8802 46.4929 41.6206 47.0965 40.332 47.597C39.1882 48.0386 38.305 48.8631 37.2625 49.4225C36.5676 49.7905 35.8436 50.2322 35.1487 50.4824C33.8311 50.9388 32.7307 51.7779 31.4856 52.3374C31.0802 52.514 30.6169 52.5582 30.2549 52.8379C30.0088 53.0293 29.7771 53.2501 29.8205 53.5593C29.864 53.8684 30.0812 54.1629 30.3852 54.2512C30.6458 54.3248 30.9644 54.2217 31.1091 54.3248L31.0947 54.3101ZM53.1021 53.1912C52.7256 53.0734 52.3637 53.1912 52.0017 53.3826C51.437 53.6623 50.9592 54.0892 50.3656 54.3395C49.7141 54.6045 49.1494 55.0462 48.4689 55.267C47.9043 55.4584 47.3106 55.6645 46.9776 56.2533C46.8908 56.4153 46.7315 56.4153 46.5867 56.4594C45.718 56.695 44.9506 57.1955 44.2701 57.7255C43.4883 58.3291 42.6051 58.7707 41.8088 59.3302C40.969 59.9337 39.999 60.3165 39.1013 60.8318C38.3919 61.2292 37.7258 61.7298 36.8716 61.7592C36.6255 61.7592 36.4952 61.9506 36.4228 62.1714C36.3649 62.3923 36.4228 62.5984 36.611 62.7603C36.915 63.0253 38.3484 63.2608 38.6959 63.1283C39.8397 62.6867 40.7519 61.8328 41.8957 61.3765C42.663 61.0673 43.358 60.6109 44.0385 60.1104C45.0665 59.3596 46.1524 58.6824 47.2672 58.0641C47.716 57.8138 48.1214 57.5488 48.5413 57.2691C49.3811 56.7097 50.3511 56.3858 51.2054 55.9C52.0741 55.3995 53.0152 55.002 53.8694 54.4573C54.3183 54.1776 54.2604 53.942 54.1445 53.6034C53.9708 53.0882 53.5509 53.1912 53.1165 53.2207L53.1021 53.1912ZM13.9665 64.6152C14.7773 64.63 15.0379 64.2619 14.7049 63.4964C14.5746 63.202 14.3719 62.937 14.2995 62.6425C14.1837 62.1714 13.6625 61.9212 13.677 61.4059C13.7059 60.7287 13.3005 60.1693 13.0109 59.6393C12.4318 58.5646 12.4173 58.2996 13.3584 57.5488C13.6625 57.3133 13.677 56.9747 13.6046 56.6361C13.5467 56.3858 13.4308 56.1944 13.1557 56.1356C11.9251 55.9295 11.0129 56.6361 10.1442 57.3133C9.43474 57.858 8.72529 58.388 7.92897 58.756C7.58149 58.918 7.3064 59.1682 7.14713 59.4774C7.01682 59.7276 6.92995 60.1987 7.34983 60.2723C8.05928 60.3901 8.79769 60.6551 9.44922 59.9779C9.88358 59.5215 10.3469 59.654 10.5206 60.1398C10.8971 61.1998 11.1287 62.3187 12.0264 63.1136C12.0988 63.1872 12.1567 63.305 12.1857 63.4228C12.4463 64.3355 13.1847 64.4975 13.9955 64.63L13.9665 64.6152ZM17.7599 65.3219C17.3256 65.2777 16.9057 65.4249 16.5292 65.7194C16.1818 65.9844 15.6316 66.0727 15.4289 66.3818C14.9656 67.0443 14.3285 67.3829 13.6914 67.7804C13.1992 68.0895 12.7503 68.487 12.3449 68.8845C12.0988 69.1201 12.0409 69.5617 12.3449 69.7237C12.7069 69.9298 13.1702 69.9592 13.5901 70.0475C14.1548 70.1653 14.4878 69.6353 14.9366 69.4881C15.0959 69.4292 15.2841 69.2526 15.3999 69.4881C15.7619 70.18 16.2252 70.8572 16.4424 71.5933C16.8043 72.9035 17.1952 73.3157 18.4404 73.3157C19.2946 73.3157 19.5118 72.9771 19.0775 72.2116C18.6576 71.4461 18.5128 70.5628 17.9771 69.8267C17.6296 69.3556 17.5283 68.7226 17.1663 68.2515C17.0505 68.0895 16.9926 67.9423 17.1952 67.8687C17.8323 67.6332 18.1508 66.9854 18.7445 66.7057C19.2078 66.4849 19.1788 66.1757 19.0485 65.8224C18.9037 65.4544 18.6721 65.1452 18.1943 65.2777C18.0495 65.3219 17.9337 65.3366 17.7599 65.3072V65.3219ZM31.7317 67.2062C31.9923 67.1179 32.2819 67.2651 32.4846 67.059C33.0203 66.5291 33.7153 66.1757 34.1641 65.5574C34.3234 65.3366 34.6564 65.2335 34.6564 64.9244C34.6564 64.5122 34.4247 64.2178 34.0628 64.0264C33.7153 63.8497 33.3099 63.7172 33.0058 64.0117C32.7018 64.3061 32.2385 64.3797 32.0358 64.8066C31.9779 64.9097 31.8475 65.1011 31.6448 64.7625C31.1236 63.835 30.6748 62.8928 30.2839 61.9065C30.0812 61.4059 29.7192 61.0084 29.5165 60.4932C29.2993 59.919 27.5185 59.8307 27.0696 60.3165C26.8669 60.5373 26.8235 60.8023 27.0407 61.0084C27.4461 61.3765 27.6488 61.9506 28.0397 62.245C28.474 62.5836 28.6623 63.0106 28.7202 63.4228C28.836 64.1589 29.2993 64.6888 29.5599 65.3219C29.7337 65.7341 30.0377 66.0874 30.1246 66.4996C30.197 66.9413 30.4431 67.0443 30.8051 67.0738C31.1091 67.1032 31.4277 67.1474 31.7317 67.1915V67.2062ZM25.4625 55.8706C25.1585 54.5898 24.6227 53.5445 24.1015 52.514C23.6382 51.6013 22.9867 51.1007 21.9442 51.086C21.5678 51.086 21.3361 51.2921 21.1479 51.4835C20.9597 51.6602 21.2058 51.9252 21.3506 52.146C21.8718 52.9704 22.5958 53.6329 22.9143 54.6192C23.1459 55.3553 23.2473 56.165 23.6961 56.8422C24.1305 57.5194 25.3177 57.8874 26.0416 57.5636C26.8814 57.1808 27.4895 56.4742 28.2713 56.0031C28.6188 55.797 28.6478 55.3995 28.6478 55.0462C28.6478 54.6339 28.3003 54.6928 28.0542 54.6045C27.9094 54.5603 27.7501 54.472 27.6488 54.369C27.4895 54.1629 27.3592 54.2217 27.142 54.3101C26.4181 54.5898 25.8679 55.0461 25.448 55.8706H25.4625Z" fill="white"/>
<path fill-rule="evenodd" clip-rule="evenodd" d="M24.4054 61.612C24.7384 61.612 25.1438 61.5531 25.2017 62.0095C25.2596 62.4217 25.2307 62.7898 24.7963 63.0842C24.1448 63.5258 23.5946 64.0705 22.8128 64.3208C22.5666 64.4091 22.3784 64.733 22.5666 65.1158C22.7404 65.4838 23.1458 65.7635 23.0299 66.2641C23.0299 66.3082 23.1313 66.4113 23.1892 66.4113C23.3774 66.426 23.2471 66.2935 23.2616 66.2346C23.4064 65.8666 23.7973 65.8224 24.0724 65.6163C24.4633 65.3072 24.9701 65.1747 25.3176 64.7625C25.4768 64.5711 25.7953 64.4975 26.0849 64.5711C26.2007 64.6005 26.3166 64.6447 26.4324 64.63C27.2432 64.6005 27.3301 64.6889 27.5617 65.4249C27.6486 65.7046 27.5617 65.8519 27.359 65.8371C26.6785 65.793 26.4179 66.3966 25.9546 66.6763C25.2886 67.0738 24.7674 67.7215 23.9566 67.8982C23.7539 67.9423 23.667 68.1043 23.7539 68.3104C23.8118 68.4576 23.8842 68.6048 23.9566 68.7373C24.1303 69.0023 24.1158 69.5028 24.6805 68.9581C25.1293 68.5312 25.723 68.1779 26.2731 67.8098C26.6351 67.5743 26.9392 67.2504 27.388 67.1621C27.5762 67.1327 28.7055 67.6332 28.7779 67.7804C28.9661 68.1632 28.5463 68.8551 27.9961 69.0612C27.2722 69.3262 26.6061 69.6942 26.0849 70.2978C25.4913 70.975 23.8697 71.2989 23.0734 70.9308C22.7693 70.7983 22.4942 70.4892 22.4508 70.2536C22.3639 69.7384 21.6834 69.4734 21.9151 68.8109C21.9875 68.6195 21.64 68.3693 21.5387 68.0748C21.3504 67.5301 21.1477 66.956 20.9595 66.4113C20.8002 65.9696 20.3804 65.6899 20.3659 65.2041C20.3659 64.998 20.1198 65.0422 20.0184 64.9391C19.8012 64.733 19.4827 64.5858 19.5406 64.1883C19.5985 63.835 19.8302 63.6731 20.1487 63.57C21.0753 63.2756 21.8282 62.6425 22.6535 62.1567C23.1892 61.8328 23.7683 61.5826 24.4054 61.5826V61.612Z" fill="#266E69"/>
<path fill-rule="evenodd" clip-rule="evenodd" d="M20.2936 53.4415C20.3659 53.9273 20.004 54.0598 19.6855 54.104C19.1787 54.1923 18.8312 54.472 18.4982 54.8253C18.3389 54.9873 18.1942 55.1492 17.948 55.1345C17.4413 55.0903 17.311 55.3995 17.2965 55.8264C17.2965 55.9 17.2965 55.9884 17.3399 56.062C17.4702 56.2975 17.2675 56.7097 17.5716 56.8128C17.8612 56.9011 17.9915 56.5183 18.2086 56.3711C18.5272 56.1503 18.8023 55.9 19.2077 55.797C19.5841 55.7086 19.9171 55.5025 20.2501 55.267C20.67 54.9873 21.2202 55.002 21.7125 55.0756C22.002 55.1198 22.031 55.4142 22.031 55.6645C22.031 56.0472 21.7993 56.3417 21.4808 56.43C20.9017 56.5919 20.7134 57.2103 20.1922 57.4458C19.9895 57.5341 19.7144 57.9022 19.5117 57.9022C18.9615 57.9169 18.7878 58.5058 18.281 58.6088C18.0349 58.6677 18.281 59.0505 18.339 59.2713C18.4113 59.5068 18.672 59.5216 18.8312 59.3891C19.309 58.9621 19.9026 58.6971 20.4094 58.2702C21.0754 57.7108 21.9586 57.3427 22.8997 57.755C23.2037 57.8875 23.3485 58.3733 23.1314 58.6088C22.8852 58.8444 22.6246 59.0799 22.335 59.2124C21.8862 59.4332 21.5242 59.7571 21.1333 60.0663C20.8727 60.2871 20.3949 60.2724 20.2791 60.4343C20.004 60.8023 19.5841 60.9348 19.2656 61.2145C18.4258 61.9212 17.1083 61.4943 16.616 60.4932C16.1093 59.4479 15.8486 58.3438 15.5156 57.2544C15.3419 56.6508 15.1247 56.0472 14.9799 55.4437C14.8062 54.7223 15.1971 53.8979 16.0513 53.7212C16.7029 53.574 17.2241 53.1765 17.8032 52.9115C18.4837 52.6024 19.1063 52.4846 19.8013 52.6613C20.1922 52.7643 20.308 53.0587 20.2791 53.4121L20.2936 53.4415Z" fill="#266E69"/>
<path fill-rule="evenodd" clip-rule="evenodd" d="M31.0947 54.3248C30.9499 54.2217 30.6313 54.3248 30.3707 54.2512C30.0667 54.1629 29.835 53.8831 29.8061 53.5593C29.7626 53.2501 29.9943 53.0293 30.2404 52.8379C30.6024 52.5582 31.0657 52.514 31.4711 52.3374C32.7163 51.7779 33.8021 50.9388 35.1342 50.4824C35.8436 50.2469 36.5675 49.8052 37.248 49.4225C38.2905 48.8483 39.1882 48.0239 40.3175 47.597C41.6061 47.1112 42.8512 46.4929 44.053 45.8009C45.0085 45.2415 45.9786 44.7557 46.9632 44.2846C47.6002 43.9755 48.3097 44.108 48.9757 44.211C49.3811 44.2846 49.4969 44.6085 49.5114 44.9765C49.5403 45.3593 49.1929 45.3593 48.9757 45.4182C47.7016 45.7715 46.5722 46.4487 45.3995 47.0081C44.6321 47.3762 43.9227 47.8767 43.0684 48.0092C42.6485 48.0828 42.4458 48.5392 42.0694 48.6128C41.1717 48.7895 40.6795 49.5403 39.9845 49.9819C39.2171 50.4824 38.3484 50.7916 37.5376 51.2038C36.6834 51.6455 35.8291 52.0724 34.9604 52.4993C34.1207 52.9115 33.4112 53.5887 32.4412 53.7948C32.0358 53.8831 31.7172 54.369 31.0802 54.3101L31.0947 54.3248Z" fill="#266E69"/>
<path fill-rule="evenodd" clip-rule="evenodd" d="M53.102 53.206C53.5219 53.1765 53.9562 53.0735 54.13 53.5887C54.2458 53.942 54.3037 54.1629 53.8549 54.4426C53.0006 54.9873 52.074 55.3848 51.1908 55.8853C50.3366 56.3711 49.3665 56.7097 48.5268 57.2544C48.1069 57.5341 47.687 57.7991 47.2527 58.0494C46.1378 58.6677 45.0519 59.3449 44.0239 60.0957C43.3434 60.5962 42.634 61.0673 41.8811 61.3618C40.7373 61.8181 39.8252 62.672 38.6813 63.1136C38.3194 63.2461 36.9005 63.0106 36.5964 62.7456C36.4082 62.5837 36.3503 62.3776 36.4082 62.1567C36.4661 61.9359 36.6109 61.7445 36.8571 61.7445C37.7258 61.7151 38.3773 61.2145 39.0867 60.8171C39.9844 60.3018 40.9545 59.919 41.7942 59.3154C42.5906 58.7413 43.4593 58.2996 44.2556 57.7108C44.9361 57.1955 45.7034 56.6803 46.5722 56.4447C46.7314 56.4006 46.8907 56.3858 46.9631 56.2386C47.2961 55.6497 47.8897 55.4436 48.4544 55.2523C49.1349 55.0314 49.714 54.5751 50.3511 54.3248C50.9592 54.0893 51.4225 53.6476 51.9871 53.3679C52.3491 53.1912 52.7255 53.0735 53.0875 53.1765L53.102 53.206Z" fill="#266E69"/>
<path fill-rule="evenodd" clip-rule="evenodd" d="M13.9664 64.6152C13.1701 64.4827 12.4172 64.3208 12.1566 63.4081C12.1277 63.2903 12.0697 63.1725 11.9973 63.0989C11.0997 62.3039 10.868 61.1704 10.4916 60.1251C10.3178 59.6393 9.85452 59.5068 9.42016 59.9632C8.76863 60.6404 8.03022 60.3754 7.32077 60.2576C6.90089 60.184 6.98776 59.7129 7.11807 59.4627C7.27733 59.1535 7.55243 58.9032 7.89991 58.7413C8.71071 58.3733 9.40568 57.8433 10.1151 57.2986C10.9838 56.6214 11.9105 55.9147 13.1267 56.1208C13.4018 56.165 13.5176 56.3711 13.5755 56.6214C13.6479 56.9747 13.6334 57.2986 13.3294 57.5341C12.3883 58.2849 12.4027 58.5499 12.9819 59.6246C13.2715 60.1546 13.6769 60.714 13.6479 61.3912C13.6334 61.9212 14.1546 62.1714 14.2705 62.6278C14.3429 62.937 14.5456 63.1872 14.6759 63.4817C15.0089 64.2472 14.7483 64.63 13.9375 64.6005L13.9664 64.6152Z" fill="#266E69"/>
<path fill-rule="evenodd" clip-rule="evenodd" d="M17.7598 65.3219C17.9335 65.3513 18.0493 65.3366 18.1941 65.2924C18.6574 65.16 18.9036 65.4691 19.0483 65.8371C19.1787 66.1757 19.2076 66.4996 18.7443 66.7204C18.1652 66.9854 17.8321 67.6479 17.1951 67.8835C16.9924 67.9571 17.0503 68.119 17.1661 68.2662C17.5426 68.7373 17.6439 69.3704 17.9769 69.8414C18.5126 70.5775 18.6574 71.4608 19.0773 72.2264C19.4972 72.9919 19.28 73.3305 18.4402 73.3305C17.1806 73.3305 16.8042 72.9036 16.4422 71.608C16.2395 70.8572 15.7762 70.1948 15.3997 69.5028C15.2839 69.2673 15.0957 69.4587 14.9364 69.5028C14.4731 69.6648 14.1546 70.1948 13.5899 70.0623C13.1701 69.9739 12.7067 69.9445 12.3448 69.7384C12.0552 69.5765 12.0986 69.1348 12.3448 68.8993C12.7647 68.4871 13.2135 68.1043 13.6913 67.7951C14.3139 67.3829 14.9654 67.0443 15.4287 66.3966C15.6459 66.0874 16.1816 65.9991 16.5291 65.7341C16.9055 65.4397 17.3109 65.3072 17.7598 65.3366V65.3219Z" fill="#266E69"/>
<path fill-rule="evenodd" clip-rule="evenodd" d="M31.7317 67.2063C31.4276 67.1621 31.1236 67.1179 30.8051 67.0885C30.4431 67.059 30.2114 66.9413 30.1246 66.5143C30.0522 66.0874 29.7337 65.7341 29.5599 65.3366C29.2993 64.7036 28.8215 64.1736 28.7202 63.4375C28.6622 63.0253 28.474 62.5984 28.0397 62.2598C27.6487 61.9653 27.446 61.3912 27.0406 61.0232C26.809 60.8171 26.8669 60.5521 27.0696 60.3312C27.504 59.8602 29.2993 59.9338 29.5165 60.5079C29.7192 61.0232 30.0811 61.4206 30.2838 61.9212C30.6748 62.9075 31.1236 63.8497 31.6448 64.7772C31.8475 65.1305 31.9778 64.9244 32.0357 64.8214C32.2384 64.3944 32.7018 64.3208 33.0058 64.0264C33.2954 63.7467 33.7008 63.8644 34.0627 64.0411C34.4247 64.2325 34.6564 64.5269 34.6564 64.9391C34.6564 65.2336 34.3234 65.3513 34.1641 65.5722C33.7153 66.1905 33.0203 66.5438 32.4846 67.0738C32.2819 67.2799 31.9778 67.1327 31.7317 67.221V67.2063Z" fill="#266E69"/>
<path fill-rule="evenodd" clip-rule="evenodd" d="M25.4625 55.8706C25.8679 55.0462 26.4326 54.5898 27.1565 54.3101C27.3592 54.2365 27.4895 54.1776 27.6633 54.369C27.7646 54.4867 27.9239 54.5603 28.0687 54.6045C28.3148 54.6928 28.6623 54.634 28.6623 55.0462C28.6623 55.4142 28.6333 55.797 28.2858 56.0031C27.504 56.4742 26.8959 57.1808 26.0561 57.5636C25.3467 57.8874 24.145 57.5194 23.7106 56.8422C23.2618 56.165 23.1604 55.3553 22.9288 54.6192C22.6102 53.6329 21.8863 52.9704 21.3651 52.146C21.2203 51.9252 20.9742 51.6602 21.1624 51.4835C21.3506 51.2921 21.5823 51.086 21.9587 51.086C23.0012 51.1008 23.6527 51.6013 24.116 52.514C24.6372 53.5593 25.1729 54.5898 25.477 55.8706H25.4625Z" fill="#266E69"/>
</svg>
