<svg width="120" height="120" viewBox="0 0 120 120" fill="none" xmlns="http://www.w3.org/2000/svg">
<g clip-path="url(#clip0_125_16308)">
<path fill-rule="evenodd" clip-rule="evenodd" d="M38.86 19.9231C40.0263 19.9619 41.1797 19.2128 42.4869 19.2258C42.6023 19.2258 42.7561 19.1612 42.8458 19.2516C43.5122 19.8456 44.499 19.6519 45.1911 20.246C45.9216 20.8659 46.9469 20.8401 47.7927 21.2792C48.9462 21.8861 50.1765 22.3898 51.4325 22.7514C52.5731 23.0872 53.6112 23.6038 54.6749 24.0687C56.0078 24.6499 57.4047 25.1148 58.6479 25.9026C59.0836 26.1738 59.6219 26.1479 60.1089 26.3287C61.3777 26.8195 62.5952 27.4523 63.8896 27.8397C65.0302 28.1755 66.1836 28.5759 67.1705 29.157C68.4521 29.8932 69.8874 30.1773 71.1947 30.7972C72.9761 31.6366 74.7575 32.5277 76.6158 33.2122C78.9483 34.0775 81.3065 34.8652 83.5621 35.9501C84.6514 36.4796 85.8049 37.0865 87.0864 37.2673C87.8298 37.3836 88.4962 37.9776 89.2267 38.2489C90.6749 38.7654 91.9821 39.5661 93.5201 39.9148C94.6094 40.1602 95.7244 40.7155 96.7625 41.2838C97.7493 41.8262 98.8771 42.1749 99.9409 42.614C101.453 43.2339 103.029 43.6859 104.542 44.3058C105.106 44.5382 105.631 44.9127 106.157 45.2485C106.746 45.623 107.528 45.8684 108.246 46.1009C110.386 46.8112 112.436 47.7798 113.513 49.8848C113.821 50.4918 114.205 51.4088 113.833 52.2482C113.628 52.7131 113.731 53.2168 113.59 53.6946C113.372 54.4824 113.09 55.1927 112.462 55.7868C111.706 56.4971 111.232 57.4528 110.668 58.318C109.848 59.5707 109.066 60.8493 108.182 62.0503C107.887 62.4636 108.002 62.9285 107.694 63.3159C106.926 64.2845 106.195 65.2919 105.465 66.2992C105.221 66.635 104.978 66.9966 104.811 67.384C104.055 69.1662 102.568 70.4706 101.697 72.1753C101.146 73.2343 100.479 74.1254 99.5435 74.8357C99.3769 74.9649 99.1719 75.1844 99.1591 75.3781C99.095 76.2176 98.5824 76.8116 98.1851 77.4832C97.8518 78.0643 97.6468 78.6842 97.1213 79.1621C96.6984 79.5237 96.8522 80.1565 96.4934 80.6343C95.7116 81.7191 94.9042 82.8427 94.4044 84.0696C93.9943 85.064 93.1228 85.7356 92.8152 86.73C92.2641 88.5122 90.9312 89.8166 90.0597 91.3792C89.3933 92.5674 88.6244 93.6909 87.881 94.8274C87.3171 95.6798 86.766 96.545 85.9971 97.2812C85.5357 97.7332 84.9462 98.1206 84.613 98.8051C84.3567 99.3346 83.5492 99.567 83.0494 100.006C81.9729 100.975 80.6785 100.613 79.461 100.716C77.859 100.846 76.4364 100.148 74.9369 99.7349C72.9633 99.1796 71.1434 98.1723 69.1057 97.7977C67.9779 97.5911 67.0295 96.9325 66.0042 96.4675C64.4919 95.796 63.1078 94.8403 61.5443 94.3237C60.6856 94.0396 59.7757 93.9234 58.9042 93.6909C57.315 93.2647 55.7899 92.6319 54.2648 91.9862C53.2395 91.5471 52.2655 91.0047 51.1505 90.7981C50.7532 90.7206 50.3431 90.501 50.0099 90.2427C49.7792 90.0748 49.5613 89.9457 49.305 89.8424C48.6386 89.5712 47.9722 89.3516 47.3186 88.9513C46.6265 88.538 45.6909 88.3572 44.8835 88.0473C43.4481 87.4919 41.9615 87.027 40.6414 86.1876C40.4364 86.0584 40.2057 86.0713 39.9878 86.0713C39.2573 86.0713 38.7959 85.5935 38.3346 85.1415C38.1808 84.9865 38.0911 84.7799 38.2961 84.5474C38.6422 84.1342 38.8472 83.5788 39.5521 83.6563C40.2313 83.7467 40.8337 84.0438 41.4232 84.3408C42.3716 84.8315 43.3328 85.2448 44.3453 85.5806C45.9857 86.1359 47.5749 86.8591 49.1897 87.4919C51.4197 88.3701 53.5984 89.3904 55.8283 90.2686C56.6486 90.5914 57.3791 91.108 58.3531 91.0305C58.7888 90.9918 59.2502 91.5471 59.7628 91.5988C62.2363 91.8958 64.2741 93.2776 66.4912 94.2333C67.8369 94.8145 69.1441 95.4473 70.5795 95.8864C72.1046 96.3384 73.5913 96.9712 75.0779 97.5653C75.7315 97.8365 76.4364 97.8106 77.1028 97.9915C77.3591 98.0689 77.6283 98.0819 77.8846 98.1852C78.9227 98.5984 80.7938 98.0819 81.5756 97.3457C83.0622 95.938 83.9465 94.0525 85.3691 92.619C86.2406 91.7408 86.6763 90.6431 87.3684 89.7003C87.9708 88.8609 88.5475 87.9052 88.9448 86.9108C89.4958 85.516 90.457 84.3925 91.1619 83.1268C91.7771 82.0291 92.3154 80.8668 93.0202 79.8336C94.5581 77.5994 95.4937 75.0165 97.1726 72.8598C98.1466 71.6071 98.9797 70.2381 100.107 69.1146C100.287 68.9467 100.377 68.74 100.415 68.5205C100.607 67.3453 101.389 66.5187 102.043 65.6147C102.632 64.814 103.029 63.8842 103.657 63.1093C103.824 62.9027 103.978 62.6573 104.144 62.4507C104.414 62.1278 104.901 61.9212 104.734 61.34C104.708 61.2625 104.849 61.1205 104.939 61.043C106.349 59.7257 106.836 57.7885 108.015 56.2904C108.758 55.3348 109.322 54.2112 110.053 53.2168C110.45 52.6615 110.591 51.8866 110.758 51.1763C110.911 50.5047 110.424 50.014 110.014 49.6265C109.322 48.9679 108.681 48.1672 107.682 47.9735C106.631 47.7798 105.58 47.4698 104.696 46.9532C103.516 46.2817 102.171 46.1138 100.992 45.4164C99.864 44.7578 98.5824 44.3574 97.3648 43.8538C95.8654 43.2468 94.3787 42.5881 92.8536 42.0586C91.6233 41.6195 90.393 41.1417 89.2011 40.6122C87.6375 39.9148 85.9715 39.5016 84.4848 38.6234C83.8696 38.2489 83.1263 38.1326 82.4599 37.8872C81.4859 37.5256 80.5119 37.1253 79.6019 36.6604C78.205 35.9372 76.6543 35.7047 75.2701 35.0073C74.9113 34.8265 74.5524 34.6715 74.2192 34.452C73.6425 34.0516 72.9505 34.0645 72.3225 33.8321C72.2328 33.7933 72.1046 33.8321 72.0405 33.7804C71.1306 32.9926 69.9131 32.8635 68.9006 32.2953C68.4649 32.0499 67.9779 31.9078 67.5293 31.7399C66.3887 31.3137 65.3122 30.7326 64.1587 30.3193C62.1082 29.5832 60.0704 28.8471 58.1352 27.801C57.3278 27.3619 56.3666 27.0003 55.4439 26.8453C54.8928 26.742 54.5083 26.4062 54.0085 26.2513C52.4321 25.7734 50.907 25.0889 49.3819 24.4432C47.7415 23.7458 46.1139 23.0226 44.4862 22.2994C44.012 22.0928 43.6019 21.8861 43.0252 22.2348C42.6023 22.4931 42.0128 22.2348 41.4873 22.209C40.1929 22.1961 39.4496 22.971 38.8216 23.875C38.1808 24.7919 37.5913 25.7605 36.7582 26.5225C36.2968 26.9486 36.4122 27.5815 36.0918 28.0464C35.9893 28.2013 35.938 28.408 35.797 28.563C34.9383 29.5057 34.3104 30.6164 33.6439 31.7012C33.1826 32.4631 32.7212 33.2768 32.1445 34.0129C31.6446 34.6586 31.0679 35.356 30.8116 36.2084C30.7091 36.557 30.5681 36.9316 30.1067 37.0091C29.9914 37.0349 29.8504 37.1769 29.7863 37.3061C29.1455 38.6879 28.069 39.7599 27.3257 41.09C26.749 42.1232 25.9159 43.0143 25.5571 44.2024C25.4674 44.4866 25.0444 44.5511 24.8394 44.8353C24.378 45.4939 23.9294 46.1267 23.6475 46.8887C23.3655 47.6635 22.6607 48.1801 22.1608 48.8258C21.6482 49.4974 21.315 50.2981 20.7895 50.9567C20.2897 51.5896 20.0847 52.5969 19.5848 52.9843C18.0726 54.1208 17.7265 56.0192 16.4449 57.2719C16.0861 57.6077 15.9451 58.2405 15.6888 58.6796C15.3043 59.3254 14.8558 59.9711 14.3816 60.5651C14.0484 61.0042 13.8817 61.5596 13.5613 61.9341C12.8821 62.7477 12.6642 63.7938 12.1388 64.5816C11.2673 65.8989 10.242 67.1257 9.6653 68.598C9.37053 69.3599 9.16547 70.3931 9.88317 71.0001C10.383 71.4263 10.9213 71.9299 11.5492 72.1495C12.1131 72.3432 12.6258 72.6531 13.1897 72.834C13.6639 72.9889 13.9715 73.3505 14.215 73.7767C14.4328 74.1512 14.4585 74.5774 14.1765 74.9003C13.8946 75.2361 13.4973 75.2231 13.0743 75.1715C11.6902 74.9907 10.6393 73.9963 9.31927 73.6476C9.07576 73.583 8.84508 73.4797 8.61439 73.4022C8.49905 73.3634 8.37089 73.3118 8.25554 73.2989C7.47377 73.1826 7.5763 72.3174 7.10211 71.917C6.66636 71.5425 6.07683 71.1938 6.46131 70.4189C6.55102 70.2381 6.46131 70.0186 6.30752 69.8636C5.83333 69.3858 5.9743 68.8563 6.19217 68.3655C6.82016 66.9837 7.52503 65.6664 8.33244 64.362C9.24237 62.9156 10.1523 61.4433 10.9853 59.9453C11.4852 59.0283 11.9594 58.0985 12.7027 57.3236C13.2025 56.7941 13.4076 56.0322 13.792 55.3864C14.766 53.7463 16.022 52.3257 16.996 50.7114C18.2264 48.6709 19.8155 46.9145 21.1612 44.9773C21.6482 44.267 22.0071 43.4663 22.3787 42.6914C22.5453 42.3557 22.7247 42.0328 22.9298 41.7099C23.6219 40.6251 24.4677 39.6565 25.0444 38.4555C25.5058 37.4869 26.3773 36.6862 27.0181 35.7693C28.0946 34.2066 29.1199 32.631 30.0683 31.0038C31.1576 29.1441 32.2598 27.2715 33.6311 25.6055C34.1566 24.9727 34.3104 24.1591 34.8615 23.5521C35.6176 22.7256 36.2584 21.7828 37.053 21.008C37.4887 20.5818 38.0526 20.2073 38.8216 19.9748L38.86 19.9231Z" fill="#266E69"/>
<path fill-rule="evenodd" clip-rule="evenodd" d="M15.4196 73.1827C15.3812 72.0333 14.8045 71.0131 14.7404 69.9153C14.6378 68.3398 14.42 66.7642 14.7788 65.1499C15.0223 64.0392 15.5862 63.0836 15.8938 62.0504C16.2655 60.7848 17.0344 59.7516 17.6624 58.6668C18.3032 57.5303 19.0593 56.3551 20.2128 55.5802C20.8151 55.1799 21.379 54.7279 21.8917 54.2242C22.4684 53.6689 23.1733 53.3718 23.891 53.0877C24.4677 52.8553 24.9675 52.4549 25.5955 52.287C26.4029 52.0675 27.159 51.7188 28.0049 51.5896C28.556 51.5121 29.0814 51.1893 29.6838 51.1893C30.222 51.1893 30.7347 51.0989 31.2729 51.383C31.6959 51.6025 32.2598 51.3959 32.7724 51.4476C35.0665 51.68 37.0786 52.6099 39.0522 53.7076C39.8724 54.1596 40.7439 54.5729 41.4744 55.154C42.5125 55.9806 43.6532 56.7554 44.1786 58.0727C44.3196 58.4085 44.6015 58.6022 44.8707 58.7314C45.3961 58.9638 45.5627 59.4029 45.7165 59.8808C46.0754 60.8881 46.3445 61.9213 46.8571 62.864C46.9212 62.9932 46.9853 63.0965 47.0109 63.2514C47.1647 64.0005 46.8828 64.8658 47.6774 65.4469C47.844 65.5631 47.7286 66.041 47.6774 66.3638C47.5876 66.9967 47.4723 67.6036 47.844 68.2623C48.1003 68.7272 47.8568 69.3858 47.6005 69.9153C47.5107 70.0832 47.3954 70.2253 47.3698 70.4319C47.1775 72.537 46.2292 74.3579 45.1654 76.1272C44.8066 76.7213 44.2555 77.2379 43.7044 77.6899C43.0892 78.1936 42.4997 78.7747 41.9999 79.3042C41.3719 79.9758 40.5517 80.3245 39.9493 80.9831C39.7058 81.2414 39.2188 81.293 38.8344 81.4222C36.3609 82.21 33.913 83.0623 31.2473 83.0236C29.043 82.9848 27.0309 82.3262 24.9547 81.7192C24.1857 81.4997 23.5834 80.9831 22.8144 80.7635C22.4171 80.6473 22.0711 80.247 21.7891 79.8983C21.52 79.5625 21.1612 79.3688 20.8279 79.2267C19.7899 78.7876 19.0465 77.9998 18.2519 77.2508C17.201 76.2564 16.8294 74.7583 15.74 73.7897C15.5734 73.6347 15.5093 73.3635 15.394 73.144L15.4196 73.1827ZM43.3712 62.1408C43.3712 62.1408 43.525 62.1795 43.5506 62.1408C43.6147 62.0375 43.5378 61.9987 43.4481 61.9729C42.9867 61.4176 42.7688 60.7202 42.3716 60.1132C41.6923 59.0801 40.949 58.0727 40.1159 57.2074C37.8091 54.8441 34.887 53.8109 31.6318 53.7464C30.0811 53.7205 28.6457 54.405 27.159 54.7666C26.6336 54.8957 26.1722 55.309 25.6339 55.4898C24.8393 55.761 24.0448 56.0581 23.6475 56.9104C23.5449 57.13 23.3271 57.2204 23.1476 57.3495C22.7119 57.7111 22.2761 58.0598 21.8789 58.486C21.2124 59.1834 20.9946 60.1649 20.3409 60.8493C19.9308 61.2884 19.6617 61.7792 19.4823 62.3603C19.3285 62.8511 19.1234 63.5743 18.8543 63.768C18.3417 64.1296 18.3545 64.5429 18.3288 64.9691C18.3032 65.3178 18.1879 65.6148 18.0213 65.886C17.8162 66.2347 17.7649 66.5963 17.8675 66.9708C17.9187 67.1646 17.7778 67.5003 18.0981 67.5262C18.3545 67.552 18.5339 67.3324 18.6364 67.0741C18.8415 66.5963 19.1491 66.183 19.6617 66.0668C19.9821 66.0022 20.2 65.8731 20.4178 65.6406C21.8532 64.0909 23.7244 63.2902 25.6339 62.6057C27.4153 61.96 29.2096 61.3143 31.1448 61.1593C31.7471 61.1076 32.3623 61.2368 32.9518 61.0689C35.1946 60.4232 37.4246 61.1464 39.6546 61.2368C40.0647 61.2497 40.4876 61.0947 40.9362 61.2884C41.7179 61.6371 42.5638 61.8438 43.3712 62.1021V62.1408ZM18.3032 71.0906C18.457 71.7363 18.3288 72.3433 18.7133 73.0407C19.1106 73.738 19.6361 74.2934 20.059 74.9391C20.2512 75.2361 20.4947 75.3911 20.8664 74.9778C21.866 73.8672 22.8785 72.8082 24.2754 72.0721C25.5186 71.4134 26.9027 71.2197 28.0946 70.4707C28.5047 70.2124 28.9533 69.9024 29.4915 69.7991C30.3502 69.6312 31.2473 69.5796 32.0675 69.36C33.6439 68.9338 35.2203 69.1276 36.771 69.1017C37.4759 69.1017 38.2576 69.0372 38.9625 69.2567C39.6674 69.4762 40.3979 69.3858 41.1028 69.5537C41.7308 69.6958 42.4228 69.7087 42.9739 70.0832C43.8198 70.6644 43.9607 70.5998 44.2042 69.6054C44.4349 68.6368 44.1402 67.6811 44.2811 66.7513C44.4093 65.8989 44.3708 65.2532 43.5378 64.7624C42.9867 64.4396 42.4741 64.078 41.8333 63.8972C40.8849 63.6131 39.9109 63.6389 38.9497 63.5743C37.5271 63.4839 36.1046 63.3031 34.6948 63.4322C33.1697 63.5743 31.6446 63.6518 30.1836 64.1425C29.6197 64.3363 29.0686 64.6333 28.4663 64.6333C28.1074 64.6333 27.7998 64.7237 27.582 64.9562C27.2487 65.2919 26.8643 65.3307 26.4285 65.3823C25.8262 65.4469 25.1597 65.434 24.7368 66.0152C24.5318 66.2864 24.2626 66.4284 23.9807 66.5963C23.0836 67.1645 22.1608 67.7199 21.3662 68.4302C20.7254 68.9984 20.2769 69.7733 19.6745 70.4061C19.2644 70.8452 18.8927 71.1293 18.3032 71.1035V71.0906ZM27.0565 73.9447C26.5951 74.345 25.8518 74.3967 25.3263 74.9004C25.07 75.1457 25.0957 75.5977 24.7112 75.714C24.096 75.8948 23.7372 76.3984 23.3014 76.7988C22.5581 77.4833 22.5837 77.5478 23.4296 78.1677C23.6346 78.3098 23.8012 78.4906 23.9807 78.6714C24.6343 79.2913 25.4801 79.9628 26.2363 79.9499C27.5051 79.9112 28.6329 80.996 29.9145 80.3115C29.9657 80.2857 30.0682 80.2986 30.1323 80.3115C31.1576 80.8152 32.1444 80.2599 33.1569 80.247C34.0412 80.247 34.8101 79.7046 35.6688 79.5625C36.0789 79.4979 36.5019 79.6141 36.912 79.3817C37.9629 78.7618 38.7062 77.6641 39.9878 77.4187C40.1159 77.3929 40.2057 77.1604 40.3082 77.0183C40.7567 76.3984 41.1412 75.7269 41.6539 75.1586C42.2178 74.5258 42.7432 73.8801 43.1533 73.144C43.3071 72.8728 43.3456 72.7307 42.9995 72.5757C41.577 71.9688 40.1288 71.5555 38.5652 71.5167C36.7582 71.4651 34.9511 71.6201 33.1569 71.7621C32.8878 71.775 32.593 71.7621 32.3495 71.8396C31.4652 72.1496 30.504 72.3691 29.7222 72.8728C28.9789 73.3635 27.8255 72.8728 27.3641 73.9447C27.3641 73.9705 27.2231 73.9447 27.0565 73.9576V73.9447Z" fill="#266E69"/>
<path fill-rule="evenodd" clip-rule="evenodd" d="M51.9448 53.8755C51.7525 53.2427 51.1886 52.8423 50.8041 52.3645C50.1633 51.5638 49.2534 50.9956 48.5742 50.2207C47.7411 49.2779 47.0106 48.2448 46.2673 47.2245C45.87 46.6821 45.5881 46.0622 45.1395 45.5715C44.755 45.1582 44.7422 44.7708 45.0241 44.3962C45.9725 43.1564 46.8696 41.8521 48.3563 41.1676C49.1252 40.8189 49.8045 40.2894 50.4709 39.7728C50.6632 39.6308 50.817 39.4887 51.0476 39.5016C51.5218 39.5275 51.8038 39.2692 51.9576 38.8817C52.2395 38.1714 52.7522 38.1973 53.3673 38.3522C54.572 38.6493 55.4691 39.4371 56.2253 40.3282C56.6867 40.8706 57.1737 41.3742 57.7119 41.8133C58.5065 42.472 58.9295 43.4018 59.4805 44.2283C60.1342 45.1969 61.0056 45.9072 61.7361 46.7854C62.5436 47.754 63.2484 48.813 64.2096 49.6395C64.5685 49.9495 64.2096 50.2465 64.1327 50.5177C63.9789 51.0085 63.5047 51.1247 63.0818 51.0601C62.236 50.931 61.6208 51.3184 61.0313 51.8221C60.493 52.2612 59.8266 52.4549 59.2242 52.7778C58.4424 53.191 57.8529 53.8368 57.1608 54.3533C56.6482 54.7408 56.2125 55.2057 56.1356 55.9289C56.0971 56.3163 55.6742 56.3551 55.3538 56.368C54.0338 56.4067 52.3549 55.2057 51.9576 53.9013L51.9448 53.8755Z" fill="#E06765"/>
<path fill-rule="evenodd" clip-rule="evenodd" d="M73.0526 61.4176C71.976 61.6113 70.9636 62.0246 69.9383 62.412C69.6435 62.5282 69.2975 62.5411 68.9899 62.5282C67.5802 62.4637 67.4264 62.5541 67.0804 63.9101C66.8369 64.8658 66.1448 65.5761 65.7988 66.4543C65.2733 67.7586 64.0942 68.3398 63.1715 69.205C62.7101 69.6441 62.0181 69.812 61.3644 69.9412C60.5699 70.0961 59.7112 70.0703 58.9679 69.9799C57.9041 69.8508 56.7379 69.7604 55.828 69.0113C55.5204 68.766 55.2384 68.4947 54.8411 68.3656C54.5464 68.2623 54.2644 68.0686 54.2516 67.6682C54.2516 67.5649 54.1619 67.4358 54.085 67.3583C52.9572 66.2734 52.7009 64.8528 52.7265 63.3806C52.7265 62.4637 52.6496 61.5338 52.7778 60.604C52.9187 59.6483 53.1494 58.7572 54.0209 58.189C54.8027 57.6853 55.546 57.9823 55.828 58.8863C56.0843 59.7258 55.9817 60.5781 55.9433 61.4305C55.892 62.4507 55.6613 63.5097 55.9433 64.5042C56.2252 65.4857 56.5456 66.5576 57.3915 67.1904C58.0964 67.707 58.9807 67.6166 59.8778 67.5003C61.3901 67.3066 61.8386 66.0022 62.6589 65.0853C63.2996 64.3621 63.6329 63.471 64.0045 62.5799C64.1711 62.1666 64.2224 61.7663 64.3121 61.353C64.4787 60.5781 64.8504 60.2811 65.6322 60.2811C65.7347 60.2811 65.8372 60.2811 65.9269 60.2553C67.8493 59.7129 69.887 59.5579 71.6556 58.5506C72.1042 58.2923 72.5784 57.8661 72.6553 57.2204C72.745 56.5617 73.232 55.9935 72.8603 55.2186C72.3477 54.1467 71.7197 53.2814 70.5535 52.8682C69.2975 52.4162 67.9903 52.4549 66.7087 52.2483C66.132 52.1579 65.6578 51.7188 65.6962 51.1376C65.7475 50.5694 66.0935 50.2336 66.6702 50.0657C67.5545 49.8074 68.5926 49.7945 69.2462 50.0915C71.2455 51.0085 73.5396 51.4347 75.0903 53.2427C75.5901 53.8368 75.8977 54.5471 76.2822 55.1928C76.577 55.6964 76.2053 56.4197 76.2053 57.0654C76.2053 58.486 75.3082 59.4417 74.2957 60.294C74.0907 60.4619 73.7831 60.5523 73.719 60.8493C73.6421 61.211 73.3345 61.2755 73.0782 61.4176H73.0526Z" fill="#266E69"/>
<path fill-rule="evenodd" clip-rule="evenodd" d="M37.8986 34.0775C38.6804 33.9484 39.4622 33.7805 40.2568 33.703C41.3333 33.5868 41.8844 33.1606 42.1279 32.0887C42.538 30.3194 43.5248 28.9117 44.909 27.8398C45.6651 27.2587 46.6391 26.9875 47.6003 26.8066C48.0617 26.7292 48.5487 26.8325 48.9844 26.5742C49.0357 26.5354 49.151 26.5225 49.2023 26.5613C49.8944 27.1166 50.8043 26.8066 51.5989 27.2328C52.496 27.7107 53.2778 28.2918 54.0852 28.8988C54.2518 29.0279 54.3799 29.1442 54.4184 29.3637C54.5722 30.3194 54.9823 31.2234 55.0335 32.2049C55.0592 32.7602 55.0336 33.3156 54.79 33.8322C54.5594 34.31 54.3671 34.8007 54.1492 35.2915C54.0211 35.5885 53.957 36.1051 53.7135 36.118C53.2393 36.118 52.7139 36.2084 52.2653 35.976C51.8167 35.7435 51.8296 35.2269 51.8808 34.8395C51.9962 33.8838 51.8296 32.9152 51.8167 31.9725C51.7911 31.1201 51.4451 30.2161 50.9709 29.4541C50.7146 29.0538 50.1763 29.1183 49.7277 29.1442C47.8054 29.2733 46.5366 30.3065 45.6523 31.9725C45.4088 32.4503 45.2678 32.9023 45.1653 33.4318C45.0627 34 44.8321 34.5295 44.7552 35.1365C44.627 36.118 44.2041 36.2084 43.2172 36.1309C41.5768 36.0147 39.9364 36.0922 38.6163 37.3449C38.3985 37.5645 38.1165 37.6807 37.8345 37.7711C36.7196 38.1198 35.5661 39.8632 35.6815 40.9868C35.784 42.02 36.7708 43.079 37.8217 43.1435C39.5903 43.2598 41.3589 43.3243 43.1275 43.3631C43.7427 43.376 43.8452 43.7118 43.8068 44.1896C43.7427 44.9516 43.0506 45.6489 42.2689 45.8039C40.5643 46.1268 38.8342 46.3592 37.1297 45.9718C35.7071 45.6489 34.2717 45.1711 33.2208 44.0734C32.7594 43.5955 32.3493 42.9369 32.234 42.3041C32.1443 41.7875 31.7213 41.4646 31.7598 40.8964C31.8623 39.3725 32.7722 38.2618 33.5412 37.0866C34.2717 35.9501 35.5405 35.4852 36.6683 34.8524C37.0784 34.6199 37.386 34.2067 37.8986 34.1421V34.0775Z" fill="#266E69"/>
<path fill-rule="evenodd" clip-rule="evenodd" d="M66.7986 86.136C67.9648 86.0327 68.8235 85.3224 69.7334 84.7025C70.1307 84.4313 70.5793 84.1859 71.0791 84.0955C71.7712 83.9663 72.3607 83.6047 72.9759 83.269C74.0652 82.662 74.9752 81.8096 76.0773 81.2026C76.7822 80.8152 77.6281 80.5052 78.0766 79.6658C78.3073 79.2267 78.9353 79.2138 79.3582 78.878C80.2297 78.1935 80.7552 77.0571 81.9342 76.773C82.3187 76.6825 82.3828 76.2693 82.6263 76.0368C84.2027 74.5387 85.9456 73.2085 87.2529 71.478C88.5344 69.7862 90.0211 68.3398 91.5975 66.945C92.1101 66.493 92.6612 66.0926 93.3276 65.8989C93.648 65.8085 94.1094 65.4857 94.276 65.8602C94.4298 66.2218 94.6989 66.7254 94.4298 67.1516C94.1478 67.6036 93.9171 68.0944 93.4942 68.456C93.3404 68.5851 92.8534 68.7272 93.1995 69.1405C93.2251 69.1663 93.1866 69.2825 93.1354 69.3213C92.4433 69.7733 92.4946 69.7991 92.187 70.3932C91.8666 71.0518 91.3924 71.6071 90.7644 72.0204C90.5594 72.1625 90.444 72.4337 90.2646 72.6403C89.329 73.6605 88.496 74.7583 87.3554 75.5848C86.8556 75.9593 86.6505 76.6567 86.1635 77.1346C85.574 77.7028 84.9075 78.1806 84.318 78.736C83.6644 79.33 83.0108 79.9628 82.3059 80.4665C81.5754 80.996 80.8577 81.6159 79.9862 81.9646C79.6658 82.0937 79.307 82.2487 79.1532 82.5716C78.7302 83.3981 77.9997 83.7726 77.1795 84.0567C76.936 84.1471 76.6669 84.3021 76.5003 84.5087C75.7954 85.3482 74.7957 85.6452 73.8217 85.9939C73.3475 86.1618 72.8734 86.3684 72.4889 86.6655C71.6558 87.2983 70.7203 87.4662 69.7078 87.5437C68.8107 87.6082 67.9264 87.7503 67.0421 87.8924C66.5038 87.9828 65.8887 88.1506 65.7605 87.4403C65.658 86.8592 66.1834 86.4718 66.6704 86.1876C66.7089 86.1618 66.7601 86.1618 66.8114 86.1489L66.7986 86.136Z" fill="#266E69"/>
<path fill-rule="evenodd" clip-rule="evenodd" d="M59.7754 82.0937C60.2111 81.5772 60.7494 81.4351 61.2492 81.2672C63.7483 80.3761 66.1834 79.3429 68.4774 77.9869C69.4642 77.4058 70.5152 77.2637 71.6301 77.819C72.2453 78.1161 72.2069 78.4389 71.8608 78.8522C71.1688 79.6787 70.2332 80.1307 69.2848 80.5698C67.7213 81.306 66.068 81.758 64.4532 82.3004C63.8252 82.507 63.0691 82.3649 62.4411 82.4683C61.5055 82.6103 60.7622 82.1325 59.7882 82.0937H59.7754Z" fill="#266E69"/>
<path fill-rule="evenodd" clip-rule="evenodd" d="M43.3709 62.1408C42.5507 61.8825 41.7177 61.6759 40.9359 61.3272C40.4873 61.1205 40.0644 61.2884 39.6543 61.2755C37.4243 61.1851 35.2072 60.4619 32.9516 61.1076C32.362 61.2755 31.7469 61.1464 31.1445 61.198C29.2093 61.353 27.4151 62.0116 25.6336 62.6445C23.7241 63.3289 21.8401 64.1296 20.4176 65.6794C20.2125 65.9118 19.9818 66.0281 19.6614 66.1056C19.1488 66.2218 18.8412 66.635 18.6361 67.1129C18.5336 67.3583 18.3542 67.5778 18.0979 67.5649C17.7775 67.5391 17.9184 67.2033 17.8672 67.0096C17.7647 66.6351 17.8159 66.2734 18.021 65.9248C18.1748 65.6535 18.3029 65.3565 18.3286 65.0078C18.3542 64.5816 18.3286 64.1555 18.854 63.8068C19.1231 63.6131 19.3282 62.8898 19.482 62.3991C19.6614 61.8179 19.9305 61.3272 20.3407 60.8881C20.9943 60.1907 21.2121 59.2221 21.8786 58.5247C22.2759 58.1115 22.7116 57.7499 23.1474 57.3882C23.3268 57.2462 23.5446 57.1687 23.6472 56.9492C24.0445 56.0968 24.8391 55.7998 25.6336 55.5286C26.1719 55.3478 26.6461 54.9345 27.1587 54.8053C28.6454 54.4437 30.0808 53.7593 31.6315 53.7851C34.8868 53.8497 37.8088 54.8828 40.1157 57.2462C40.9615 58.1115 41.692 59.1188 42.3713 60.152C42.7686 60.7589 42.9993 61.4434 43.4478 62.0117C43.4222 62.0633 43.3966 62.1279 43.3837 62.1795L43.3709 62.1408Z" fill="#FDFEFE"/>
<path fill-rule="evenodd" clip-rule="evenodd" d="M18.3032 71.0906C18.8928 71.1164 19.2644 70.8194 19.6745 70.3932C20.2769 69.7604 20.7254 68.9855 21.3662 68.4173C22.1608 67.707 23.0708 67.1516 23.9807 66.5834C24.2498 66.4155 24.5318 66.2734 24.7368 66.0022C25.1598 65.4211 25.8262 65.4469 26.4285 65.3694C26.8515 65.3178 27.2488 65.2919 27.582 64.9432C27.7998 64.7108 28.1074 64.6204 28.4663 64.6204C29.0686 64.6204 29.6197 64.3233 30.1836 64.1296C31.6446 63.6389 33.1697 63.5485 34.6948 63.4193C36.1174 63.2902 37.54 63.471 38.9497 63.5614C39.9109 63.626 40.8849 63.6001 41.8333 63.8842C42.4741 64.0651 42.9739 64.4267 43.5378 64.7495C44.3709 65.2403 44.4093 65.8731 44.2812 66.7384C44.1402 67.6682 44.4478 68.6368 44.2043 69.5925C43.9608 70.5869 43.8326 70.6515 42.9739 70.0703C42.4228 69.6958 41.7308 69.6829 41.1028 69.5408C40.4107 69.3729 39.6802 69.4633 38.9625 69.2438C38.2705 69.0242 37.4887 69.0759 36.771 69.0888C35.2075 69.1146 33.6439 68.9209 32.0676 69.3471C31.2473 69.5666 30.3502 69.6054 29.4915 69.7862C28.9533 69.8895 28.5047 70.1995 28.0946 70.4577C26.9027 71.2068 25.5058 71.4005 24.2755 72.0591C22.8785 72.8082 21.8661 73.8543 20.8664 74.9649C20.4948 75.3782 20.2641 75.2232 20.059 74.9262C19.6361 74.2804 19.1106 73.738 18.7133 73.0277C18.316 72.3304 18.457 71.7234 18.3032 71.0776V71.0906Z" fill="#FCF163"/>
<path fill-rule="evenodd" clip-rule="evenodd" d="M27.0564 73.9447C27.223 73.9447 27.3512 73.9447 27.364 73.9318C27.8125 72.8728 28.966 73.3506 29.7221 72.8599C30.4911 72.3562 31.4523 72.1366 32.3494 71.8267C32.6057 71.7363 32.8877 71.7621 33.1568 71.7492C34.9638 71.6071 36.7581 71.4522 38.5651 71.5038C40.1287 71.5426 41.5769 71.9558 42.9994 72.5628C43.3455 72.7178 43.307 72.8469 43.1532 73.1311C42.7431 73.8672 42.2177 74.5129 41.6538 75.1457C41.1411 75.714 40.7566 76.3855 40.3081 77.0054C40.2056 77.1475 40.1158 77.3799 39.9877 77.4058C38.7061 77.6641 37.9628 78.7618 36.9119 79.3688C36.5146 79.6012 36.0788 79.485 35.6687 79.5496C34.81 79.6916 34.0411 80.234 33.1568 80.234C32.1443 80.234 31.1447 80.8023 30.1322 80.2986C30.0681 80.2728 29.9656 80.2599 29.9144 80.2986C28.6328 80.996 27.505 79.8983 26.2362 79.937C25.48 79.9628 24.6342 79.2913 23.9806 78.6585C23.8011 78.4906 23.6345 78.3098 23.4295 78.1548C22.5836 77.5349 22.558 77.4703 23.3013 76.7859C23.7371 76.3855 24.1087 75.8819 24.7111 75.7011C25.0956 75.5848 25.0699 75.1328 25.3262 74.8874C25.8517 74.3838 26.595 74.345 27.0564 73.9318V73.9447Z" fill="#FDFEFE"/>
<path fill-rule="evenodd" clip-rule="evenodd" d="M43.448 61.9858C43.5377 62.0117 43.6146 62.0633 43.5505 62.1537C43.5377 62.1795 43.4352 62.1537 43.3711 62.1537C43.3967 62.1021 43.4224 62.0504 43.4352 61.9858H43.448Z" fill="#FDFEFE"/>
</g>
<defs>
<clipPath id="clip0_125_16308">
<rect width="108" height="81.5294" fill="white" transform="translate(6 19.2)"/>
</clipPath>
</defs>
</svg>
