<svg width="121" height="120" viewBox="0 0 121 120" fill="none" xmlns="http://www.w3.org/2000/svg">
<g clip-path="url(#clip0_125_16240)">
<path fill-rule="evenodd" clip-rule="evenodd" d="M52.6795 107.988C51.9619 107.918 51.2444 107.859 50.5153 107.789C50.3995 107.789 50.3417 107.683 50.388 107.589C50.6079 107.12 50.0871 106.944 50.0292 106.581C50.0292 106.557 49.9829 106.51 49.9597 106.499C49.138 106.405 49.2075 105.701 49.0802 105.15C48.7908 103.918 48.5825 102.663 48.1312 101.479C48.0038 101.139 47.9807 100.775 47.9576 100.411C47.9344 99.8485 47.483 99.4028 47.4946 98.8164C47.4946 98.6522 47.3094 98.7343 47.2284 98.7812C46.4646 99.133 45.666 99.4263 44.9832 99.9306C44.7517 100.095 44.5087 100.212 44.2194 100.282C43.4439 100.458 42.7958 100.963 42.1477 101.385C40.9441 102.171 39.752 102.851 38.2822 102.71C37.8193 102.663 37.4605 102.229 37.2522 101.76C36.7661 100.658 36.4883 99.4732 36.0485 98.3589C35.6203 97.2682 35.1805 96.1657 34.8565 95.0514C34.4746 93.7495 33.8843 92.5415 33.4214 91.2748C32.8543 89.7266 32.3914 88.1197 31.5581 86.6654C31.4539 86.4894 31.4192 86.3135 31.4423 86.1141C31.4539 85.9851 31.5118 85.8209 31.4655 85.7153C30.9447 84.7067 30.8405 83.569 30.3544 82.5368C29.9841 81.7393 29.6253 80.8948 29.5096 79.98C29.4401 79.417 29.2665 78.854 29.0467 78.3379C28.1902 76.391 27.7967 74.2798 27.0329 72.2976C26.732 71.5001 26.3038 70.7025 26.3269 69.7877C26.3269 69.6469 26.2343 69.4944 26.1649 69.3654C25.5168 68.0166 25.0886 66.6092 24.6835 65.1665C24.5099 64.5566 24.4983 63.8529 24.2206 63.3486C23.8849 62.7152 23.7808 62.0467 23.5493 61.425C23.1095 60.2874 22.6697 59.1497 22.4151 57.9533C22.3688 57.7305 22.1952 57.6367 22.1258 57.4373C21.9175 56.8391 21.8249 56.2292 21.7207 55.6076C21.605 54.9156 20.9337 54.423 21.061 53.6489C20.5749 53.3674 20.5749 52.8279 20.4129 52.3704C20.3435 52.1593 20.3203 51.9365 20.3203 51.7019C20.3203 51.4439 20.4129 51.1037 20.0078 50.9043C19.8574 50.834 19.8458 50.3883 19.8574 50.1068C19.8805 49.6845 19.7417 49.321 19.5681 48.9574C19.1746 48.1246 18.9315 47.245 18.7579 46.3418C18.7001 46.0721 18.4223 45.8375 18.3066 45.5677C17.9478 44.7115 17.7279 43.8084 17.6006 42.8936C17.5311 42.3658 17.3344 41.8732 17.1145 41.4509C16.7557 40.7472 16.6631 39.9614 16.2581 39.2811C16.1655 39.1404 16.1771 38.9058 16.2002 38.7181C16.2233 38.4132 16.1539 38.1082 15.9803 37.8971C15.3091 37.0996 15.3901 36.0674 15.1007 35.1409C15.0429 34.9415 15.0081 34.7538 14.8808 34.5779C14.4526 34.0149 14.1749 33.3698 14.036 32.6544C14.0128 32.5136 13.9434 32.3611 13.874 32.2321C13.6078 31.763 13.6541 31.2938 14.1286 31.0827C14.8924 30.7543 15.5289 30.1913 16.3391 29.9333C17.2187 29.6518 18.0867 29.2999 18.9662 29.0067C20.2393 28.5962 21.5355 28.2326 22.8086 27.8104C23.7576 27.5054 24.7066 27.1888 25.6209 26.79C26.8014 26.2739 28.0513 25.922 29.255 25.4764C30.991 24.8313 32.7038 24.1041 34.5209 23.6936C34.6713 23.6584 34.7986 23.6584 34.8565 23.459C34.8912 23.33 35.0301 23.2362 35.169 23.2362C36.0601 23.1892 36.7777 22.6615 37.5647 22.3565C38.3285 22.0633 39.1271 21.8287 39.8793 21.5238C40.6779 21.1954 41.569 21.0898 42.2866 20.691C43.4092 20.0811 44.6128 19.6472 45.7123 18.9903C46.1058 18.7558 46.5687 18.6268 47.0085 18.5095C48.7677 18.0169 50.3995 17.1607 52.1587 16.6915C53.3276 16.3748 54.3229 15.6946 55.4802 15.3544C56.0126 15.202 56.5566 15.202 57.0774 15.026C57.7255 14.8149 58.3389 14.4982 58.987 14.2871C59.693 14.0525 60.3758 13.7476 61.0933 13.5717C62.1002 13.3253 63.165 13.1611 64.0908 12.7272C64.8547 12.3753 65.6301 12.2463 66.4055 12.0352C67.424 11.7537 68.0026 12.6568 68.1878 13.4075C68.4887 14.6507 68.8591 15.8588 69.4146 17.0082C69.6461 17.4773 69.8775 17.9348 69.9007 18.4626C69.9238 18.9317 70.1784 18.9903 70.5488 18.9082C71.4168 18.7323 72.1922 18.2162 73.0486 18.0755C74.7962 17.7588 76.4859 17.1958 78.2219 16.8088C79.9695 16.4217 81.7518 16.1637 83.4763 15.5773C84.1475 15.3427 84.9576 15.0729 85.7678 15.2254C86.0224 15.2723 86.3117 15.1081 86.5895 15.0495C87.1797 14.9087 87.7584 15.026 88.3024 15.2489C88.6148 15.3779 88.7306 15.6946 88.7884 15.9878C89.2745 18.486 90.212 20.8669 90.7212 23.3534C90.9758 24.585 91.323 25.8048 91.7165 26.9542C92.2373 28.4789 92.4919 30.0623 92.9549 31.587C93.4641 33.276 93.8229 35.0236 94.1353 36.7594C94.2626 37.4632 94.5404 38.1082 94.6214 38.8002C94.7719 40.2429 95.501 41.4979 95.7903 42.8819C96.0797 44.2307 96.4732 45.5326 96.8088 46.8579C97.1676 48.3123 97.6884 49.7315 98.0471 51.1976C98.3828 52.5346 98.6953 53.8952 99.0656 55.2205C99.3665 56.3113 99.6906 57.4021 99.9915 58.4928C100.385 59.9003 100.535 61.3664 100.848 62.7973C100.975 63.3603 100.998 63.9585 101.346 64.4745C101.484 64.6739 101.577 65.0023 101.531 65.2369C101.299 66.3042 101.878 67.1956 102.098 68.1574C102.167 68.474 102.283 68.7673 102.248 69.0957C102.248 69.1895 102.202 69.3185 102.248 69.3771C102.769 70.0222 102.584 70.8667 102.885 71.5822C103.278 72.5322 103.325 73.5761 103.568 74.5613C103.834 75.6755 103.961 76.8249 104.412 77.8805C104.644 78.4083 104.609 78.9596 104.725 79.4991C105.072 81.0825 105.686 82.6072 105.929 84.214C106.16 85.6684 106.507 87.0993 106.831 88.5302C107.098 89.7031 107.329 90.8994 107.699 92.0489C107.954 92.8699 107.688 93.9607 106.681 94.2422C105.547 94.5471 104.424 94.9693 103.255 95.157C102.179 95.3212 101.149 95.6613 100.107 95.9311C99.3897 96.1187 98.6258 96.2009 97.9198 96.4472C96.8088 96.8342 95.6052 96.8577 94.5057 97.2213C93.0474 97.7021 91.5661 98.0188 90.0847 98.3824C88.4991 98.7695 86.9135 99.18 85.3511 99.6374C83.4531 100.2 81.5088 100.587 79.6223 101.221C78.2914 101.666 76.9604 102.136 75.5601 102.382C75.0277 102.476 74.53 102.828 74.0208 102.98C73.3958 103.168 72.7593 103.414 72.1112 103.426C71.3589 103.426 70.6992 103.801 69.9701 103.86C68.3383 104.012 66.8106 104.634 65.2135 104.962C64.7274 105.056 64.2413 104.974 63.7205 105.08C62.1697 105.373 60.6883 105.912 59.1374 106.217C58.119 106.417 57.1468 106.851 56.1284 107.132C55.2604 107.378 54.3924 107.625 53.5359 107.883C53.2582 107.965 52.992 108.035 52.6911 108L52.6795 107.988ZM87.8163 22.075C87.9667 21.641 87.7353 21.3596 87.6542 21.0663C87.4344 20.1984 87.4112 19.2953 87.0871 18.4508C86.9598 18.1107 86.6126 17.8761 86.6589 17.5008C86.7168 16.9144 86.4506 16.9026 86.034 17.0668C84.6915 17.6064 83.2448 17.7706 81.8907 18.2632C80.7334 18.6737 79.5182 18.8379 78.3492 19.2484C77.7127 19.4712 77.0762 19.741 76.3933 19.7879C75.6874 19.8465 75.0508 20.1163 74.3796 20.304C73.3843 20.5855 72.4121 20.9608 71.3936 21.1484C70.8265 21.254 70.2247 21.3361 69.7039 21.5707C68.9632 21.9108 68.1647 21.9812 67.4124 22.2627C66.637 22.5442 65.7921 22.6263 65.0051 22.8608C63.5006 23.3065 61.9961 23.764 60.4568 24.1158C59.311 24.3856 58.2 24.7961 57.089 25.1949C56.5913 25.3708 56.0821 25.2301 55.5844 25.4412C54.8553 25.7461 54.0914 25.9572 53.3392 26.1801C52.5406 26.4264 51.7073 26.5906 50.8856 26.79C49.5778 27.0949 48.27 27.4351 47.0085 27.8808C45.261 28.4907 43.3861 28.5376 41.6964 29.3234C41.0367 29.6283 40.2381 29.6401 39.5437 29.8981C37.611 30.637 35.5162 30.8364 33.595 31.634C33.3057 31.7513 33.2941 31.8685 33.3751 32.0797C33.7339 33.0062 33.8149 34.0149 34.1158 34.9649C34.4746 36.1026 34.7292 37.2872 35.0069 38.4601C35.0764 38.7299 34.9491 39.0348 35.1111 39.2929C35.4815 39.8793 35.5625 40.6065 35.6666 41.2398C35.8518 42.4831 36.3147 43.6442 36.5809 44.864C36.7661 45.7437 36.8818 46.6468 37.1712 47.5382C37.5068 48.5703 37.7614 49.6611 38.0044 50.7401C38.5831 53.3674 39.3122 55.9712 39.9141 58.5984C40.1108 59.4663 40.4001 60.3108 40.6085 61.1787C40.9209 62.4103 41.1293 63.677 41.4765 64.9085C41.8352 66.1635 42.1477 67.4419 42.5181 68.6969C43.0389 70.4914 43.4208 72.3328 43.9069 74.1508C44.2309 75.3588 44.4855 76.6021 44.7517 77.8336C45.0411 79.2059 45.4924 80.5547 45.7239 81.9269C46.0017 83.5807 46.4877 85.1875 46.8581 86.8178C47.402 89.187 48.1312 91.5211 48.6288 93.9137C48.6867 94.1952 48.5478 94.4533 48.6751 94.7348C49.1612 95.7786 49.3348 96.9046 49.6357 98.0071C49.8324 98.7225 49.9829 99.4497 50.2028 100.153C50.5384 101.232 50.9203 102.3 51.1865 103.402C51.2444 103.625 51.2212 103.848 51.337 104.094C51.5684 104.575 51.8694 105.056 51.8809 105.619C51.8925 105.947 52.043 106.065 52.4017 106.041C52.911 106.006 53.3623 105.83 53.8484 105.678C55.0752 105.291 56.3714 105.185 57.6097 104.751C58.7092 104.376 59.8781 104.305 61.0008 103.93C62.2391 103.52 63.5469 103.344 64.8084 102.945C66.3939 102.441 68.0258 102.112 69.6461 101.702C71.3936 101.268 73.1528 100.892 74.9004 100.423C76.2429 100.048 77.6317 99.825 78.9511 99.3442C79.2635 99.2269 79.6107 99.0979 79.9348 99.0979C80.988 99.0979 81.9601 98.7225 82.9439 98.4293C84.2748 98.0305 85.6289 97.7021 86.9714 97.3385C87.7005 97.1392 88.4412 97.0101 89.1819 96.8694C90.212 96.6817 91.1147 96.107 92.191 96.0484C92.8044 96.0132 93.3946 95.6261 94.0196 95.5323C95.5589 95.2977 96.9824 94.6057 98.5332 94.4415C98.9267 94.3946 99.3202 94.336 99.6906 94.2187C101.403 93.6322 103.163 93.2687 104.91 92.8816C105.246 92.8112 105.338 92.6588 105.281 92.4007C105.142 91.6618 105.026 90.8994 104.829 90.1723C104.656 89.5389 104.482 88.8938 104.308 88.2605C103.938 86.8999 103.718 85.5159 103.348 84.1671C103.105 83.2523 103.07 82.2788 102.653 81.4226C102.433 80.9534 102.295 80.4257 102.225 79.9682C102.133 79.3466 101.947 78.7484 101.855 78.1385C101.785 77.6225 101.739 77.0595 101.542 76.5903C101.033 75.394 100.836 74.1273 100.547 72.8841C100.385 72.1803 100.13 71.4531 100.177 70.7025C100.177 70.55 100.13 70.3741 99.9336 70.3741C99.679 70.3741 99.6674 70.2099 99.6674 70.034C99.6674 69.4241 99.3434 68.8963 99.3549 68.2746C99.3665 67.829 99.3318 67.266 99.0772 66.9376C98.8573 66.6443 98.7531 66.3746 98.7878 66.0696C98.8341 65.6591 98.7068 65.3307 98.5101 65.0023C98.4175 64.8498 98.3712 64.7091 98.3596 64.5214C98.2786 63.6535 97.862 62.856 97.9083 61.9646C97.9083 61.8473 97.8272 61.7065 97.7578 61.601C97.3296 61.0732 97.3412 60.3929 97.2254 59.7713C97.0865 59.1262 96.8898 58.5046 96.7972 57.8478C96.7278 57.3082 96.4037 56.8626 96.369 56.323C96.288 55.2323 95.8829 54.2118 95.5936 53.1914C95.3968 52.5229 95.1075 51.784 95.1191 51.1741C95.1191 49.8722 94.39 48.8283 94.2279 47.6086C94.1122 46.7289 93.8229 45.8492 93.5451 45.0048C93.3946 44.5473 93.5567 43.9961 93.3599 43.6677C92.978 43.0578 93.0822 42.3541 92.7697 41.7442C92.6308 41.4861 92.3993 41.1812 92.4341 40.8645C92.5266 40.0435 92.353 39.3046 91.9364 38.6243C91.7628 38.3428 92.0637 38.1317 91.9364 37.8619C91.4387 36.9236 91.3346 35.8563 91.0105 34.8476C90.6749 33.8507 90.455 32.8068 90.3046 31.7747C90.1888 31.0358 89.83 30.3555 89.7837 29.6283C89.749 29.124 89.7143 28.5962 89.4713 28.2209C89.1819 27.7869 89.1704 27.3295 89.0431 26.8838C88.962 26.6023 89.0662 26.2622 88.9852 25.9807C88.7306 25.0541 88.3949 24.151 88.1403 23.2244C88.0246 22.8139 87.7237 22.4503 87.8047 22.075H87.8163ZM67.343 19.6354C67.8985 19.6706 67.8869 19.6706 67.7828 19.2367C67.4124 17.7823 66.718 16.4452 66.3129 15.0143C66.1856 14.5686 65.9657 14.4865 65.5722 14.639C64.6348 15.0026 63.6279 15.1785 62.702 15.6007C61.9498 15.9409 61.1744 16.1989 60.3989 16.4804C59.6235 16.7502 58.8481 17.0551 58.0495 17.2779C57.3899 17.4656 56.6955 17.5946 56.0589 17.9113C55.2372 18.3218 54.3924 18.6619 53.5243 18.9317C52.7026 19.1897 51.8346 19.3891 51.0824 19.741C50.1565 20.175 49.1959 20.4916 48.2585 20.8669C47.4715 21.1836 46.615 21.3947 45.8281 21.7466C45.2494 22.0046 44.5666 21.9812 44.0458 22.3096C43.3398 22.7553 42.5412 22.9195 41.7889 23.2244C40.4233 23.764 39.0229 24.2096 37.6457 24.7374C36.6967 25.101 35.7476 25.4646 34.7986 25.7813C33.6413 26.1566 32.4377 26.4498 31.3266 26.9307C29.8799 27.5523 28.3407 27.9394 26.9172 28.5962C25.5862 29.2178 24.1395 29.4759 22.797 30.0858C21.4661 30.6839 20.031 31.0593 18.6653 31.5753C18.0519 31.8099 17.4617 32.1852 16.7904 32.2204C16.4201 32.2439 16.3969 32.4315 16.4317 32.7013C16.5127 33.3464 16.721 33.968 16.9872 34.5544C17.2881 35.1995 17.4848 35.8915 17.7279 36.56C17.9015 37.0292 17.9131 37.5687 18.2024 38.0027C18.4339 38.3663 18.5496 38.7651 18.6769 39.1521C19.3482 41.1929 20.0657 43.222 20.6212 45.3097C20.7022 45.6264 21.0379 45.861 20.9569 46.2246C20.8758 46.5881 21.0379 46.8579 21.1652 47.1629C21.5124 48.0777 21.9059 48.9808 22.1605 49.9426C22.4383 50.9982 22.6697 52.0772 23.0864 53.0624C23.5609 54.1767 23.8849 55.3378 24.2784 56.4755C24.614 57.4607 24.7182 58.5398 25.158 59.4663C25.7714 60.7448 26.107 62.1053 26.4658 63.4424C26.8709 64.9906 27.4264 66.4684 27.9009 67.9932C28.6184 70.3037 29.5443 72.5556 30.2271 74.8897C30.5049 75.8514 30.8174 76.8015 31.2224 77.728C31.6275 78.6312 31.7664 79.6398 32.0789 80.5899C32.4261 81.6572 32.7964 82.7128 33.1899 83.7566C33.4677 84.4838 33.3751 85.2931 33.7917 85.9851C33.9885 86.3018 34.2315 86.595 34.3241 86.982C34.5903 88.0963 34.9606 89.1753 35.3079 90.2661C35.5277 90.9346 35.9791 91.4742 36.1527 92.1544C36.2569 92.5767 36.4073 92.9872 36.5693 93.3977C37.4142 95.5089 38.2822 97.6083 38.9882 99.7781C39.2891 100.693 39.3122 100.716 40.1687 100.177C41.0945 99.6022 42.0667 99.0861 43.0389 98.6404C44.1962 98.1126 45.3998 97.667 46.5572 97.1274C46.9159 96.9632 46.9275 96.8225 46.8349 96.4941C46.3257 94.7465 45.8859 92.9872 45.504 91.2161C45.423 90.8173 45.4461 90.3951 45.2841 90.0315C44.8212 88.9759 44.8212 87.8148 44.5087 86.724C44.2772 85.9264 44.2078 85.0702 43.93 84.3079C43.5944 83.3813 43.5828 82.3609 43.0852 81.493C43.3745 80.8948 42.981 80.3905 42.819 79.8861C42.6222 79.288 42.7611 78.6077 42.356 78.1034C42.2172 77.9392 42.1709 77.8101 42.1593 77.6225C42.1361 76.7428 41.87 75.9101 41.6269 75.0773C41.4186 74.3619 41.0714 73.623 41.0482 72.9192C41.0135 72.1334 40.6663 71.4649 40.5737 70.7377C40.458 69.9401 39.9372 69.2833 39.9372 68.474C39.9372 67.782 39.8909 67.1252 39.5784 66.4684C38.9882 65.2486 38.965 63.8646 38.479 62.5862C38.2706 62.0349 38.1549 61.3547 38.0855 60.7213C37.9466 59.5133 37.4489 58.399 37.2175 57.2144C37.0902 56.5576 36.824 55.8891 36.7082 55.1971C36.6041 54.6106 36.3263 54.0946 36.2916 53.4612C36.2684 52.8513 35.8287 52.2649 35.7476 51.6432C35.5972 50.4938 35.2037 49.4148 35.0764 48.2654C34.9838 47.4795 34.6366 46.7875 34.4514 46.0369C34.22 45.0634 34.0926 44.0665 33.8149 43.1047C33.4793 41.9553 33.3404 40.7472 32.9469 39.6213C32.7038 38.9293 32.6691 38.1786 32.4492 37.5101C32.1367 36.5835 31.9631 35.6335 31.7201 34.6952C31.4423 33.6396 31.1183 32.5957 30.8984 31.5167C30.7364 30.7778 31.1877 30.4611 31.5812 30.0623C31.94 29.687 32.4145 29.5814 32.9122 29.5345C33.8033 29.4524 34.5556 28.8894 35.4236 28.7018C36.0023 28.5845 36.5809 28.4085 37.1596 28.2326C38.2938 27.8925 39.428 27.5172 40.5737 27.2239C41.5343 26.9659 42.4486 26.5789 43.4324 26.356C44.1615 26.1918 44.8443 25.8165 45.5734 25.664C46.9738 25.3591 48.3279 24.9016 49.7399 24.6436C50.8625 24.4325 51.9388 24.022 53.0498 23.7757C53.8716 23.5998 54.6817 23.3183 55.4687 23.0368C56.0821 22.8139 56.7186 22.5911 57.332 22.4269C58.4662 22.1337 59.6235 21.9108 60.7693 21.6176C61.8572 21.3361 62.9335 21.0077 64.0214 20.7379C64.6927 20.5737 65.3523 20.4213 65.9657 20.0694C66.4287 19.7996 66.9958 19.7293 67.3777 19.6237L67.343 19.6354Z" fill="#216D68"/>
<path fill-rule="evenodd" clip-rule="evenodd" d="M79.2633 26.1332C79.6684 26.1566 80.0503 26.0393 80.4322 25.922C80.9067 25.7813 81.3581 25.8869 81.821 25.8751C82.0756 25.8751 82.2145 26.0276 82.2955 26.227C82.7816 27.482 83.3487 28.7135 83.4413 30.0858C83.4529 30.2734 83.5107 30.4728 83.5917 30.637C84.0778 31.6105 84.1357 32.713 84.4829 33.71C84.8648 34.8359 84.6565 36.0674 85.2583 37.1348C85.5245 37.6156 85.3856 38.2138 85.5592 38.7416C85.6634 39.0583 85.3393 39.1052 85.131 39.1521C83.1867 39.6447 81.3118 40.3836 79.3443 40.8645C78.0944 41.1695 76.856 41.5448 75.6293 41.9201C75.0622 42.096 74.6687 42.0257 74.3793 41.4158C74.0784 40.7824 73.8354 40.149 73.7775 39.4571C73.7544 39.1873 73.6155 38.9879 73.5229 38.7651C73.2914 38.1786 73.303 37.5453 73.1294 36.9354C72.8748 36.0205 72.2961 35.2347 72.1804 34.2729C72.0531 33.2408 71.4628 32.3611 71.3355 31.2938C71.2777 30.8364 71.1156 30.2617 70.8147 29.8043C70.5948 29.4641 70.6064 29.0654 71.0578 28.8542C72.0299 28.4203 73.0137 28.0332 74.0669 27.8338C74.6571 27.7283 75.1548 27.3881 75.6408 27.0128C75.8954 26.8134 76.3121 26.7431 76.6593 26.7313C77.3074 26.7313 77.9092 26.5554 78.4763 26.2622C78.7194 26.1332 78.974 26.0745 79.2402 26.1332H79.2633Z" fill="#79CBE8"/>
<path fill-rule="evenodd" clip-rule="evenodd" d="M63.0259 99.5905C61.5329 99.6843 60.4566 99.2738 59.4034 98.8985C58.8363 98.6874 58.2576 98.3003 57.8873 97.7491C57.76 97.5614 57.6674 97.3034 57.4822 97.2095C56.3249 96.6114 56.3943 95.3916 56.024 94.3946C55.8619 93.9489 55.5958 93.5267 55.642 93.0341C55.7231 92.0958 55.7231 91.1692 56.0124 90.2426C56.2554 89.4685 56.9267 88.9408 57.0308 88.108C57.0771 87.7679 57.4822 87.5685 57.7137 87.3339C58.0956 86.9586 58.6974 86.8178 59.0562 86.4308C59.901 85.5159 61.0584 85.7505 62.0537 85.4104C62.5513 85.2462 63.0722 85.1875 63.593 85.1524C63.9286 85.1289 64.2411 85.1993 64.5188 85.3283C65.41 85.7153 66.3821 85.9851 67.1113 86.6185C67.5858 87.029 68.1181 87.4395 68.4422 88.0259C68.5001 88.1432 68.5695 88.2605 68.6621 88.3426C69.1829 88.8586 69.5764 89.4685 69.9004 90.1254C70.2014 90.7353 70.3634 91.3686 70.2476 92.0489C70.1782 92.4594 70.3634 92.8347 70.375 93.2452C70.4097 94.3477 69.9583 95.2626 69.6458 96.2712C69.4144 97.0101 68.7778 97.3151 68.5348 97.9602C68.5116 98.0423 68.3959 98.1127 68.3149 98.1361C67.4237 98.4528 66.6715 99.051 65.7109 99.2386C64.704 99.4263 63.6971 99.4849 63.0143 99.6139L63.0259 99.5905ZM63.0606 94.5119C64.6577 94.3829 66.3011 94.1483 67.9561 93.8903C68.2802 93.8434 68.3496 93.5502 68.2455 93.3156C67.9445 92.6236 68.0024 91.9081 67.9793 91.1927C67.9561 90.5241 67.5048 90.0667 66.9955 90.1371C66.2896 90.2426 65.572 90.3365 64.866 90.4068C63.9402 90.4889 63.0027 90.3599 62.1 90.4303C61.0005 90.5241 59.9358 90.8174 58.8131 90.618C58.6858 90.5945 58.4659 90.7353 58.3039 90.9698C57.6327 92.0137 58.1072 93.1045 58.0725 94.1718C58.0725 94.3008 58.2113 94.3477 58.2808 94.4298C58.6858 94.9576 59.2529 94.6761 59.7506 94.7348C60.8385 94.8755 61.9032 94.4767 63.049 94.5236L63.0606 94.5119ZM67.4585 95.6613C66.4747 95.7083 65.5952 95.6027 64.7966 95.8255C63.755 96.1188 62.7018 96.0484 61.6718 96.2595C60.8732 96.4354 60.0746 96.2009 59.1835 96.2595C59.577 96.5527 59.7969 96.9046 60.0978 97.1157C60.526 97.4207 60.8964 97.925 61.5097 97.8194C62.1926 97.7021 62.8638 97.9602 63.5467 97.8194C63.8939 97.7373 64.2526 97.7491 64.623 97.667C65.0859 97.5614 65.41 97.1274 65.815 97.1157C66.7756 97.0922 66.9955 96.3533 67.4585 95.6731V95.6613ZM59.2182 89.1753C61.7181 88.8938 64.079 88.8587 66.44 88.6944C65.5604 87.2284 64.2411 86.4425 62.3546 86.9586C61.1973 87.2753 59.82 87.6154 59.2182 89.1871V89.1753Z" fill="#E06765"/>
<path fill-rule="evenodd" clip-rule="evenodd" d="M95.2696 81.5868C96.5774 81.6455 97.0171 82.5368 96.3112 83.6393C96.0566 84.0381 96.0913 84.3196 96.5658 84.4604C97.2602 84.6832 97.8157 85.1993 98.5564 85.3166C98.8573 85.3635 99.2161 86.1728 99.0772 86.5012C98.9267 86.853 98.5795 86.8648 98.2555 86.853C97.4685 86.8178 96.751 86.5715 96.0681 86.1962C95.177 85.7153 94.2974 85.9147 93.8229 86.8413C93.5914 87.2987 93.2558 87.4629 92.8507 87.5098C92.2721 87.5685 91.6702 87.5333 91.1957 87.1462C90.9411 86.9351 90.7675 86.9703 90.5013 87.1228C89.8648 87.4747 89.7028 88.1549 89.3324 88.6827C89.0662 89.058 88.7306 89.363 88.5801 89.8321C88.476 90.1723 87.8857 90.2544 87.5617 89.9963C87.4228 89.8791 87.3187 89.8087 87.1682 89.8791C86.5664 90.1371 86.4969 89.6797 86.4159 89.2809C86.3581 89.0111 86.3928 88.7179 86.3812 88.4364C86.3812 88.2957 86.4969 88.0846 86.3002 88.0376C86.1845 88.0024 86.0224 88.1197 85.8951 88.1901C85.3743 88.4599 85.1313 89.0229 84.842 89.4685C84.5063 89.9846 84.1244 90.5359 83.9971 91.1927C83.8582 91.8847 83.0134 92.2952 82.3768 92.0489C82.2379 91.9902 82.0875 91.9902 81.937 91.9316C81.5783 91.8143 81.3699 91.5915 81.4741 91.1692C81.6593 90.3951 82.1106 89.7266 82.3074 88.9759C82.562 88.0494 83.0249 87.1462 82.8513 86.1376C82.8282 86.0203 82.8745 85.9265 82.9323 85.8209C83.2448 85.1875 83.2795 84.5073 83.2333 83.8153C83.2333 83.6863 83.2333 83.569 83.0828 83.4751C82.8976 83.3696 82.8629 83.5338 82.7703 83.5924C81.7982 84.1202 81.3236 85.0703 80.7565 85.9616C80.1894 86.8413 80.0506 87.85 79.7034 88.8C79.4256 89.5506 79.5182 90.3951 79.0668 91.0871C78.9742 91.2279 78.928 91.4976 79.0321 91.697C79.1016 91.8143 79.0784 91.9433 79.0321 92.0254C78.5229 92.9051 78.6965 93.9607 78.3724 94.8872C78.2336 95.2743 77.9789 95.4268 77.5739 95.3329C77.3077 95.2626 77.0183 95.286 76.7406 95.2626C76.1388 95.1922 75.9304 94.7817 76.2082 94.2304C76.2429 94.1601 76.2892 94.0897 76.2776 94.031C76.1851 92.7761 76.6017 91.6149 76.9836 90.4538C77.0068 90.3834 77.0415 90.2896 77.0183 90.2309C76.7753 89.4099 77.1804 88.8 77.5854 88.1549C77.8632 87.7092 77.7475 87.1462 77.9674 86.6654C78.2335 86.0907 78.7775 85.6098 78.5808 84.8826C78.5808 84.8709 78.6039 84.8474 78.6155 84.8357C79.3446 84.5894 79.4835 83.827 79.9001 83.3109C80.1779 82.9473 80.4556 82.6307 80.826 82.3375C81.4509 81.8331 82.1685 81.6572 82.8629 81.3991C83.4531 81.1763 84.0318 81.2467 84.5989 81.5516C85.0271 81.7862 85.5479 82.443 85.4438 82.9122C85.2586 83.7214 85.6405 84.4955 85.5016 85.2931C85.4785 85.3987 85.6174 85.4925 85.5016 85.6098C85.3975 85.7388 85.2123 85.8913 85.3627 86.032C85.4438 86.1141 85.6984 86.0789 85.8373 86.0086C86.2192 85.8326 86.6474 86.0437 87.0293 85.8209C87.1219 85.774 87.3187 85.8561 87.4691 85.9968C87.851 86.3487 88.395 86.2666 88.7653 85.9382C89.7028 85.1172 90.7675 84.8122 91.9711 85.211C92.3068 85.3283 92.5382 85.4456 92.7118 84.9999C92.7813 84.8122 93.0938 84.8943 93.2211 84.6363C93.36 84.3548 93.4178 84.1671 93.2558 83.8622C92.8739 83.1115 93.2211 81.7627 94.3321 81.6806C94.6562 81.6572 94.9571 81.5399 95.2348 81.5985L95.2696 81.5868Z" fill="#266E69"/>
<path fill-rule="evenodd" clip-rule="evenodd" d="M56.117 51.8427C55.8971 51.8075 55.6772 51.8896 55.4341 51.9717C54.9249 52.1593 54.4388 52.5581 53.8254 52.3118C53.756 52.2883 53.6403 52.347 53.5593 52.3939C52.645 52.8044 51.6844 53.0273 50.6891 53.2032C49.9136 53.3439 49.1151 53.6489 48.3975 53.9773C47.842 54.2353 47.2518 54.294 46.7078 54.5403C46.0481 54.8452 45.3537 54.5755 44.6709 54.6576C44.3237 54.6927 44.127 54.294 44.127 53.9069C44.127 53.5785 44.1617 53.297 44.5667 53.2384C45.5852 53.0859 46.5574 52.6871 47.5411 52.476C48.71 52.2297 49.7979 51.7606 50.9321 51.4556C51.858 51.2093 52.807 51.0334 53.7329 50.7284C54.543 50.4587 55.3878 50.2593 56.2559 50.1889C56.6841 50.1537 57.0891 49.9661 57.5058 49.8722C58.3506 49.6846 59.2071 49.5673 60.0403 49.3327C61.5796 48.9105 63.1304 48.4648 64.6697 48.0543C66.1627 47.6672 67.6788 47.2332 69.2528 47.1746C69.6115 47.1629 69.8314 46.7172 70.2481 46.7172C70.9309 46.7172 71.6253 46.6233 72.2966 46.8462C72.6553 46.9635 72.5164 47.2215 72.3891 47.4561C72.0188 48.1246 71.3012 48.195 70.6994 48.3827C69.2296 48.8284 67.7135 49.145 66.1858 49.321C65.4683 49.4031 64.8202 49.7549 64.1373 49.9543C62.7601 50.3766 61.3713 50.6698 59.9825 50.9865C58.9293 51.221 57.8877 51.4791 56.8461 51.7488C56.6262 51.8075 56.4063 51.8427 56.1517 51.8309L56.117 51.8427Z" fill="#266E69"/>
<path fill-rule="evenodd" clip-rule="evenodd" d="M70.6065 53.2618C69.97 53.473 69.2756 53.6254 68.5927 53.8483C67.6669 54.1532 66.7641 54.5285 65.8035 54.7045C65.086 54.8335 64.4379 55.0915 63.7782 55.3965C63.3616 55.5959 62.8755 55.678 62.4241 55.7249C62.0075 55.7718 61.5908 55.5607 61.1395 55.5841C60.9427 55.5841 60.6765 55.3026 60.665 54.9625C60.6534 54.5989 60.8849 54.4582 61.1626 54.3643C62.1001 54.0594 63.0375 53.731 63.9981 53.4964C64.7272 53.3205 65.4679 53.0976 66.1855 52.8748C67.3428 52.5229 68.4886 52.1124 69.6691 51.8309C70.7107 51.5846 71.7638 51.4087 72.7823 51.0568C73.0948 50.9513 73.442 50.8926 73.7313 50.7519C74.1827 50.5173 74.6456 50.4821 75.1085 50.4469C75.7914 50.3883 76.37 50.0012 77.0181 49.8253C77.2843 49.7549 77.5158 49.5907 77.8167 49.7549C77.8746 49.7901 78.0135 49.7549 78.0829 49.6963C78.9509 49.1098 79.9462 49.2271 80.9184 49.0981C81.4739 49.0277 82.041 48.758 82.6312 48.6759C83.534 48.5586 84.3325 48.0894 85.189 47.8431C85.7213 47.6907 86.1843 47.3388 86.7745 47.3623C87.3416 47.3857 87.8508 48.0543 87.7004 48.5938C87.6772 48.6642 87.6425 48.7814 87.5962 48.7814C86.8555 48.8635 86.381 49.5321 85.594 49.6376C84.6913 49.7549 83.7886 49.9895 82.9437 50.3883C82.5502 50.5759 82.0873 50.2593 81.6706 50.4821C80.9531 50.8692 80.0851 50.6229 79.356 50.9747C78.2334 51.5142 76.995 51.6433 75.8145 51.9717C75.0854 52.1711 74.3563 52.476 73.5924 52.5347C72.7129 52.5933 71.9953 53.1915 71.1041 53.2501C70.9653 53.2501 70.8264 53.3557 70.6181 53.2501L70.6065 53.2618Z" fill="#266E69"/>
<path fill-rule="evenodd" clip-rule="evenodd" d="M81.0922 73.4939C81.5436 73.447 82.0875 73.2594 82.6083 73.1186C83.1638 72.9779 83.7309 72.8606 84.2749 72.6612C84.6799 72.5087 85.1429 72.4384 85.5132 72.2155C85.9067 71.9809 86.3234 72.0161 86.7169 71.9575C88.4181 71.6994 90.0153 71.0661 91.6818 70.6673C92.5035 70.4679 93.3137 70.2333 94.1701 70.1512C94.7719 70.0926 94.9108 70.4562 95.015 70.9136C95.1307 71.4062 94.7372 71.5118 94.4479 71.6173C93.6724 71.8754 92.8739 72.0865 92.0869 72.3211C91.3925 72.5322 90.6981 72.8019 89.9921 72.931C88.9042 73.1303 87.8973 73.576 86.7979 73.7285C85.9993 73.8341 85.1776 74.0921 84.4137 74.444C83.6152 74.8076 82.6893 74.6668 81.8445 74.96C80.9996 75.2533 80.0969 75.3354 79.2405 75.6169C78.1641 75.9687 77.0647 76.2737 75.9305 76.4496C75.1898 76.5669 74.5532 76.9774 73.8357 77.1768C73.2917 77.3292 72.7362 77.4935 72.1923 77.4935C71.3127 77.4935 70.6761 78.1033 69.866 78.2793C69.6345 78.3262 69.4147 78.3966 69.2063 78.2793C68.9054 78.1268 68.5351 77.9626 68.5929 77.5521C68.6508 77.1299 68.8128 76.6842 69.2642 76.5669C70.4331 76.2502 71.6136 75.9335 72.7941 75.699C73.5001 75.5582 74.0903 75.1594 74.8078 75.0187C76.4281 74.6668 78.0252 74.1859 79.6339 73.7754C80.0853 73.6581 80.5135 73.4236 81.1153 73.4939H81.0922Z" fill="#266E69"/>
<path fill-rule="evenodd" clip-rule="evenodd" d="M63.1532 43.7498C62.3315 43.8319 61.5445 44.0313 60.7459 44.2307C59.8316 44.4652 58.8479 44.5825 57.9915 44.9344C57.0888 45.298 56.0934 45.2511 55.237 45.7437C54.8667 45.9548 54.369 45.9665 53.9292 46.0252C53.2695 46.1073 52.6677 46.4005 52.0543 46.6116C50.7118 47.0925 49.485 47.8783 48.0268 48.0425C46.719 48.195 45.5269 48.8284 44.2307 49.0981C43.5479 49.2389 43.004 48.5938 43.2238 47.937C43.2701 47.7845 43.3512 47.6672 43.5132 47.6086C44.5201 47.2567 45.4807 46.8345 46.5686 46.7054C47.1935 46.6351 47.8416 46.4591 48.4434 46.119C49.0684 45.7671 49.7744 45.5208 50.4456 45.2863C51.2326 45.0165 52.0312 44.6646 52.8992 44.6881C53.258 44.6881 53.4894 44.3949 53.8135 44.301C55.237 43.9257 56.6374 43.4566 58.0725 43.1399C58.8132 42.9757 59.5886 42.8819 60.3293 42.6707C62.2852 42.1312 64.3221 41.8966 66.278 41.2867C66.9377 41.0874 67.6668 41.0053 68.3959 41.0991C68.6274 41.1343 68.801 41.1812 68.9167 41.3806C69.044 41.5917 68.8704 41.7442 68.7547 41.8849C68.3265 42.3775 67.9099 42.8467 67.146 42.7998C66.7525 42.7763 66.3127 42.9171 65.954 43.093C65.6068 43.2572 65.2711 43.2924 64.9124 43.3041C64.7619 43.3041 64.5767 43.2455 64.4726 43.3745C64.1138 43.7967 63.6393 43.7498 63.1648 43.7498H63.1532Z" fill="#266E69"/>
<path fill-rule="evenodd" clip-rule="evenodd" d="M82.446 63.3134C81.8558 63.0202 81.6128 63.5245 81.2077 63.6183C80.1892 63.8294 79.2171 64.2165 78.2102 64.5097C77.8167 64.627 77.4116 64.6739 77.0065 64.7443C75.7335 64.9437 74.4951 65.2369 73.2799 65.6826C72.4466 65.9875 71.5786 66.3042 70.6643 66.3863C70.2477 66.4215 69.8079 66.5857 69.4376 66.7734C68.801 67.1018 68.1645 66.8906 67.5395 66.832C67.2965 66.8085 67.065 66.5857 67.0766 66.2573C67.0766 65.9758 67.1113 65.753 67.4354 65.6239C67.8057 65.4832 68.1529 65.2955 68.5696 65.319C68.6621 65.319 68.7779 65.319 68.8473 65.2721C69.9236 64.498 71.2546 64.5801 72.4466 64.193C73.9627 63.7004 75.5367 63.3251 77.1107 63.0671C77.9671 62.9263 78.7888 62.6566 79.5874 62.3868C81.4739 61.7534 83.3719 61.2022 85.2931 60.6861C86.2653 60.4281 87.2606 60.2522 88.198 59.8417C88.985 59.5015 89.8183 59.22 90.6863 59.1379C91.0566 59.1027 91.4848 58.9855 91.7742 59.4077C92.1792 59.9941 91.8783 60.6392 91.0566 60.7565C90.5358 60.8269 90.0497 60.9676 89.61 61.2022C88.5452 61.7652 87.3416 61.7065 86.2305 62.0819C86.0338 62.1522 85.8486 62.2109 85.6634 62.3164C84.645 62.8911 83.4529 62.8442 82.4923 63.3134H82.446Z" fill="#266E69"/>
<path fill-rule="evenodd" clip-rule="evenodd" d="M80.9765 68.8259C81.1038 69.3419 80.7103 69.5296 80.3862 69.6703C79.9464 69.858 79.4488 69.987 78.9743 70.0339C78.5576 70.0691 78.1641 70.1278 77.7706 70.3037C77.0647 70.6087 76.324 70.8198 75.5486 70.8198C75.1898 70.8198 75.0046 71.1482 74.6921 71.2303C73.3149 71.6056 71.9492 72.0396 70.5604 72.3328C69.461 72.5674 68.4078 72.9309 67.3199 73.1538C66.1973 73.3884 65.0978 73.7754 63.9983 74.1273C62.8526 74.5026 61.6837 74.9014 60.4684 75.0773C59.9939 75.1477 59.5773 75.4175 59.0565 75.2767C58.6399 75.1711 58.2579 75.1008 58.2348 74.5964C58.2116 74.0804 58.6399 73.8341 59.0102 73.7402C59.9592 73.4822 60.9198 73.2945 61.8341 72.9075C62.1119 72.7902 62.3896 72.755 62.6905 72.7198C63.628 72.5908 64.5307 72.2859 65.3987 71.8636C65.688 71.7229 66.0468 71.6877 66.3824 71.6642C67.6671 71.547 68.836 71.0074 70.0744 70.679C70.8613 70.4679 71.6831 70.3624 72.47 70.1512C73.8473 69.7759 75.2014 69.3302 76.567 68.9666C77.111 68.8259 77.6086 68.5796 78.2104 68.5444C78.8007 68.5092 79.3793 68.1808 80.0043 68.0987C80.5598 68.0283 80.9996 68.345 80.9765 68.8259V68.8259Z" fill="#266E69"/>
<path fill-rule="evenodd" clip-rule="evenodd" d="M60.7922 33.3229C60.908 33.6044 60.6996 33.6865 60.4913 33.7334C59.6812 33.9093 58.9289 34.2612 58.1188 34.4489C57.5285 34.5779 56.9036 34.6834 56.3596 35.0118C56.2323 35.0939 56.0587 35.1878 55.9314 35.1526C55.075 34.918 54.3806 35.4458 53.6283 35.6569C53.1422 35.7977 52.6562 35.8563 52.1701 35.8563C50.7465 35.8563 49.5082 36.56 48.1657 36.8884C47.2051 37.123 46.3487 37.6274 45.3418 37.7798C44.2655 37.944 43.2354 38.4484 42.1707 38.7533C41.4994 38.941 40.8282 38.8706 40.2263 38.4836C40.0296 38.3663 39.8676 38.1786 39.9486 37.9088C40.0296 37.6391 40.2611 37.4749 40.5157 37.428C41.1985 37.2872 41.8466 37.0175 42.5063 36.8181C43.0502 36.6539 43.6636 36.6773 44.196 36.4427C45.0293 36.0909 45.9552 35.9501 46.7422 35.5396C47.4134 35.1878 48.1541 35.176 48.8369 34.8828C49.404 34.6365 50.0753 34.484 50.735 34.4371C52.008 34.3316 53.2348 33.9914 54.4616 33.6982C55.862 33.3581 57.2508 32.9593 58.628 32.5371C59.0215 32.4198 59.4381 32.5605 59.8201 32.279C60.0631 32.1031 60.7691 32.8889 60.7807 33.3229H60.7922Z" fill="#266E69"/>
<path fill-rule="evenodd" clip-rule="evenodd" d="M57.7253 81.2349C57.2855 81.2701 56.8804 81.3288 56.4753 81.5516C56.024 81.7979 55.4916 81.8918 54.9939 82.0442C54.5541 82.185 54.1607 82.4196 53.7556 82.6189C53.1538 82.9122 52.4825 83.0881 51.7881 82.8183C51.5914 82.748 51.383 82.7245 51.1863 82.6541C50.8622 82.5251 50.5382 82.3609 50.6076 81.9269C50.6655 81.4813 51.0358 81.3757 51.383 81.3757C51.7997 81.3757 52.1816 81.4109 52.4478 80.9769C52.5057 80.8831 52.7371 80.8479 52.8644 80.8714C53.3852 80.9652 53.7672 80.6368 54.2069 80.4843C55.3759 80.0738 56.5332 79.6516 57.7947 79.6281C58.0262 79.6281 58.1419 79.4287 58.3502 79.3818C59.6349 79.0651 60.9079 78.7133 62.1926 78.3966C63.0953 78.1737 64.0096 77.9978 64.9123 77.7632C65.3753 77.6459 65.8729 77.8688 66.0118 78.3145C66.1622 78.8071 65.9771 79.1355 65.4447 79.3114C64.2411 79.7219 62.9796 79.9331 61.7412 80.2263C60.5839 80.496 59.4497 80.8362 58.3039 81.1763C58.1072 81.2349 57.922 81.3405 57.7253 81.2467V81.2349Z" fill="#266E69"/>
<path fill-rule="evenodd" clip-rule="evenodd" d="M61.3249 69.0018C61.0703 68.9197 60.862 68.9549 60.6653 69.1778C60.5611 69.295 60.3644 69.342 60.2023 69.3654C59.1144 69.5531 58.1307 70.0926 56.9965 70.1512C56.1864 70.1864 55.3647 70.3741 54.5777 70.726C53.9527 70.9957 53.212 71.0426 52.5176 71.1951C51.9158 71.3241 51.2908 71.4062 50.7816 71.7346C49.9946 72.2507 49.2539 72.0044 48.5132 71.7346C48.2702 71.6408 48.166 71.3828 48.166 71.1247C48.166 70.8198 48.3859 70.726 48.6058 70.6908C49.2308 70.6087 49.7863 70.3272 50.3765 70.1278C50.9436 69.9401 51.5223 69.7877 52.1125 69.6469C53.2236 69.3889 54.3115 69.0018 55.4341 68.7673C56.0243 68.6382 56.603 68.4975 57.2048 68.3919C58.6399 68.1339 59.994 67.5005 61.4638 67.3481C61.7995 67.3129 62.1351 67.2777 62.4591 67.4067C62.8642 67.5475 63.0262 68.0987 62.7253 68.3802C62.3434 68.7438 61.9615 69.1543 61.3365 69.0136L61.3249 69.0018Z" fill="#266E69"/>
<path fill-rule="evenodd" clip-rule="evenodd" d="M58.4779 38.0027C58.5474 38.0027 58.6515 38.0379 58.6978 38.0027C59.4038 37.4632 60.3644 37.7798 61.0588 37.2169C61.2671 37.0527 61.5449 37.0292 61.8111 37.0057C62.6212 36.9236 63.3966 36.7243 64.1836 36.5249C65.2252 36.2668 66.2552 35.8563 67.3894 36.044C67.8061 36.1144 68.026 36.2434 68.1186 36.6773C68.2227 37.1465 67.9102 37.1934 67.6325 37.2755C66.4288 37.686 65.1905 37.991 63.929 38.2138C63.2462 38.3311 62.5286 38.4953 61.8805 38.8472C61.6722 38.9645 61.3944 38.9645 61.1514 38.9879C60.376 39.0583 59.67 39.5157 58.8714 39.4453C58.721 39.4336 58.5821 39.4805 58.4432 39.5626C57.4942 40.1021 56.4757 40.2312 55.411 40.1373C55.0754 40.1021 54.8786 39.891 54.8207 39.5509C54.7745 39.2108 54.867 39.0114 55.1911 38.8237C56.2211 38.249 57.39 38.2959 58.4779 37.991V38.0027Z" fill="#266E69"/>
<path fill-rule="evenodd" clip-rule="evenodd" d="M60.6998 63.5128C60.3526 63.4541 59.9938 63.4307 59.6466 63.3368C59.3225 63.243 59.1026 63.0084 59.1142 62.6096C59.1142 62.2343 59.3688 62.1053 59.6582 62.0701C61.1974 61.8707 62.6325 61.167 64.1949 61.0614C64.6463 61.038 65.0861 60.8034 65.5143 60.6275C66.0814 60.3929 66.6948 60.217 67.2966 60.1349C68.0489 60.0293 68.7664 59.8065 69.4377 59.5015C70.1784 59.1614 70.9306 59.091 71.7292 59.1966C72.1343 59.2435 72.1921 59.525 72.25 59.8299C72.3079 60.1466 72.1574 60.2522 71.8796 60.3577C71.1389 60.6627 70.4214 61.0849 69.6575 61.3312C68.6622 61.6479 67.5975 61.7769 66.6022 62.0818C65.9078 62.293 65.1902 62.4337 64.4958 62.6214C63.7898 62.809 63.0839 63.0319 62.3432 63.1257C61.7761 63.1961 61.2669 63.4893 60.6882 63.501L60.6998 63.5128Z" fill="#266E69"/>
<path fill-rule="evenodd" clip-rule="evenodd" d="M74.5532 46.119C74.5879 45.8258 74.7963 45.5208 75.236 45.4387C76.6249 45.169 77.9442 44.6764 79.333 44.3831C81.3815 43.9374 83.43 43.4214 85.4669 42.9288C85.8257 42.8349 86.1845 42.8232 86.5548 42.9522C86.9136 43.0812 86.9367 43.3745 86.983 43.6794C87.0293 43.9961 86.7979 44.043 86.5895 44.1368C85.4438 44.6412 84.2517 45.0634 83.0365 45.3097C81.7403 45.5677 80.4904 46.0017 79.171 46.2011C78.3493 46.3301 77.516 46.5881 76.7174 46.8814C76.2892 47.0338 75.8494 47.1159 75.3865 47.1042C74.75 47.1042 74.5648 46.9166 74.5648 46.1073L74.5532 46.119Z" fill="#266E69"/>
<path fill-rule="evenodd" clip-rule="evenodd" d="M58.0842 55.7718C58.0611 56.3817 57.9454 56.6749 57.3436 56.7218C56.0126 56.8274 54.7511 57.3082 53.478 57.7187C52.3901 58.0589 51.2907 58.3521 50.2028 58.6453C49.4389 58.8447 48.5941 58.8799 47.9344 59.1966C47.2053 59.5484 46.6382 59.2552 46.0132 59.2083C45.666 59.1848 45.4114 58.9854 45.3767 58.5984C45.342 58.1996 45.6544 58.1292 45.9091 57.965C46.291 57.7305 46.7539 57.6836 47.1358 57.6718C48.108 57.6484 48.9644 57.1323 49.9134 57.0619C50.1681 57.0385 50.4342 56.9564 50.6426 56.7922C50.874 56.6162 51.1286 56.4755 51.418 56.4638C52.367 56.4051 53.235 56.0298 54.1146 55.7483C54.7395 55.5489 55.3761 55.3964 55.9895 55.1619C56.5103 54.9625 57.0658 55.1267 57.6097 55.1267C57.9801 55.1267 58.1653 55.4785 58.1074 55.7718H58.0842Z" fill="#266E69"/>
<path fill-rule="evenodd" clip-rule="evenodd" d="M46.0477 41.1929C46.6611 40.8059 47.587 41.0874 48.2003 40.3719C48.3508 40.196 48.6633 40.1373 48.9179 40.1021C49.7396 39.9848 50.5729 39.9027 51.3946 39.8089C51.8228 39.762 52.0659 39.9145 52.1469 40.3602C52.2279 40.8059 51.9733 40.888 51.6261 41.0052C50.5845 41.3688 49.4966 41.6151 48.536 42.2368C48.3045 42.3892 47.7953 42.4244 47.4134 42.4831C45.9783 42.6942 44.6126 43.222 43.1891 43.4331C42.6104 43.5152 42.0202 43.48 41.4415 43.4331C41.3026 43.4331 41.0827 43.2572 41.048 43.0578C41.0133 42.8936 41.21 42.8115 41.3142 42.7177C42.4484 41.7559 43.8372 41.4861 45.226 41.2164C45.4575 41.1695 45.6889 41.017 46.0477 41.1812V41.1929Z" fill="#266E69"/>
<path fill-rule="evenodd" clip-rule="evenodd" d="M92.2027 65.2017C92.6772 65.2369 93.0591 65.1196 93.3022 65.5184C93.6146 66.0579 93.1633 66.7382 92.4689 66.8789C91.1264 67.1487 89.7954 67.4888 88.4529 67.8055C87.5965 68.0166 86.7516 68.3098 85.872 68.474C85.2587 68.5796 84.7031 68.4388 84.1129 68.5092C83.8583 68.5327 83.6152 68.2981 83.6152 67.9814C83.6152 67.6296 83.7541 67.3012 84.0897 67.1839C84.7263 66.961 85.4207 66.9141 86.0572 66.7264C86.7979 66.5036 87.5618 66.3863 88.3025 66.1283C89.1126 65.8351 89.9574 65.6591 90.8023 65.5301C91.3231 65.448 91.7745 65.0375 92.2143 65.2134L92.2027 65.2017Z" fill="#266E69"/>
<path fill-rule="evenodd" clip-rule="evenodd" d="M51.1287 77.2237C50.7237 77.1416 50.3996 77.0829 50.0524 77.0712C49.7862 77.0712 49.5548 76.8718 49.5432 76.5551C49.5316 76.2854 49.601 76.1095 49.9135 75.9804C50.7931 75.6286 51.7305 75.5465 52.6448 75.3588C52.8184 75.3236 52.992 75.3236 53.1541 75.1829C53.6517 74.7489 54.2998 74.9014 54.8785 74.8545C55.3993 74.8193 55.5498 75.2415 55.6424 75.6755C55.7349 76.1329 55.3877 76.2033 55.0984 76.3206C53.8022 76.8601 52.4018 76.8835 51.1287 77.212V77.2237Z" fill="#266E69"/>
<path fill-rule="evenodd" clip-rule="evenodd" d="M76.6481 57.836C76.9259 57.836 77.111 57.8126 77.2962 57.836C77.7592 57.9064 77.9559 58.4811 77.6897 58.8799C77.3309 59.396 76.8333 59.6071 76.2315 59.7009C75.6297 59.7947 75.0626 59.783 74.4955 59.5602C74.2177 59.4546 73.9399 59.3608 73.9399 58.9503C73.9399 58.5398 74.1251 58.4225 74.4723 58.3873C74.8658 58.3404 75.1667 58.0002 75.5834 58.0002C75.9769 58.0002 76.3241 57.707 76.6481 57.8478V57.836Z" fill="#266E69"/>
<path fill-rule="evenodd" clip-rule="evenodd" d="M63.6975 31.3759C64.1952 31.2 64.797 31.1883 65.3872 31.1296C66.0585 31.0475 66.4173 31.3877 66.3941 32.0679C66.3941 32.2556 66.3131 32.3142 66.1626 32.3963C65.2715 32.8303 64.3572 32.9945 63.385 32.6778C63.2809 32.6426 63.1536 32.6192 63.0725 32.5605C62.8411 32.4081 62.5865 32.2791 62.598 31.9155C62.598 31.5284 62.9105 31.5519 63.1188 31.4229C63.2693 31.3408 63.4313 31.2938 63.6975 31.3759V31.3759Z" fill="#266E69"/>
<path fill-rule="evenodd" clip-rule="evenodd" d="M22.1256 39.1286C22.4844 38.6478 22.7969 38.1903 23.4913 38.0496C24.2088 37.9088 24.8685 37.4983 25.5629 37.2169C26.4541 36.8533 27.4147 36.7125 28.3405 36.4662C28.7225 36.3607 29.1622 36.3724 29.5442 36.5014C29.8682 36.607 30.0303 36.8767 30.0303 37.2638C30.0303 37.6508 29.7872 37.7329 29.4863 37.7798C28.8498 37.8971 28.2827 38.3076 27.5767 38.2255C27.4378 38.2138 27.2411 38.3194 27.1138 38.4249C26.2921 39.0583 25.2504 39.2342 24.3477 39.6799C23.6417 40.02 22.9358 39.8206 22.2761 39.4688C22.1025 39.3749 22.0562 39.2811 22.1488 39.1169L22.1256 39.1286Z" fill="#266E69"/>
<path fill-rule="evenodd" clip-rule="evenodd" d="M32.1135 44.5004C32.3103 44.4535 32.4954 44.4652 32.6806 44.5004C33.1551 44.5942 33.1204 45.0165 33.2246 45.3566C33.3287 45.7085 32.9815 45.6733 32.8079 45.7671C32.5186 45.9313 32.2061 46.0603 31.9052 46.2011C31.0372 46.5999 30.0998 46.7289 29.2317 47.1394C28.5373 47.4795 27.8082 47.8197 27.0328 47.9135C26.6046 47.9721 26.188 47.8431 25.8176 47.6437C25.4588 47.4443 25.482 47.1042 25.8176 46.8462C26.5467 46.2715 27.4032 45.9665 28.2596 45.6616C29.3012 45.298 30.3312 44.8992 31.3613 44.5356C31.6159 44.4418 31.8821 44.4183 32.1367 44.5004H32.1135Z" fill="#266E69"/>
<path fill-rule="evenodd" clip-rule="evenodd" d="M30.6438 41.3923C30.6785 41.7559 30.4008 41.9084 30.0883 41.9318C29.2203 42.0139 28.5143 42.53 27.7273 42.8115C26.6857 43.1868 25.6557 43.5269 24.5331 43.48C24.3016 43.48 24.0933 43.4096 23.9081 43.2454C23.4452 42.8584 23.4799 42.4244 24.0354 42.2602C24.6604 42.0726 25.2506 41.8145 25.864 41.6151C26.5468 41.3923 27.2644 41.1694 27.9356 40.8762C28.4333 40.6534 28.9772 40.6299 29.4865 40.4305C29.9262 40.2546 30.6554 40.8762 30.6554 41.3923H30.6438Z" fill="#266E69"/>
<path fill-rule="evenodd" clip-rule="evenodd" d="M36.905 63.5832C36.8355 63.806 36.7777 64.0171 36.442 64.2282C35.7476 64.6505 35.0532 65.0375 34.3241 65.3894C34.2662 65.4246 34.2084 65.5419 34.1621 65.5301C33.5255 65.4363 32.8311 65.6709 32.2525 65.2134C32.021 65.0375 31.9516 64.8968 32.1367 64.5332C32.7501 63.2665 34.0348 63.2547 35.0764 62.7973C35.3657 62.6683 35.7245 62.6214 36.0717 62.6448C36.6041 62.68 36.8818 62.9615 36.8934 63.5832H36.905Z" fill="#266E69"/>
<path fill-rule="evenodd" clip-rule="evenodd" d="M34.9836 69.9871C34.5669 69.8346 33.942 70.1043 33.5253 69.5648C33.236 69.2012 33.3517 68.7555 33.7684 68.5561C34.3933 68.2512 35.053 68.0635 35.6896 67.8172C36.1409 67.6413 36.5576 67.3481 37.0668 67.2777C37.6339 67.1956 38.1547 67.4302 38.6871 67.5592C38.7912 67.5827 38.8838 67.8055 38.8259 67.829C38.4787 67.9814 38.5829 68.4623 38.2704 68.5913C37.7265 68.8259 37.2172 69.1426 36.627 69.2247C36.3261 69.2716 35.9789 69.3889 35.84 69.6235C35.6433 69.9636 35.3887 69.9753 34.9836 69.9871V69.9871Z" fill="#266E69"/>
<path fill-rule="evenodd" clip-rule="evenodd" d="M28.1555 51.5377C28.0745 51.1975 28.3407 51.0216 28.5375 50.9747C29.7527 50.6815 30.8753 50.0481 32.1484 49.966C32.6692 49.9308 32.9469 50.095 33.0742 50.5525C33.1784 50.9043 32.6692 51.655 32.2988 51.655C31.6739 51.6432 31.1878 51.9834 30.6554 52.1828C29.961 52.4408 29.3245 52.5112 28.5953 52.2297C28.1787 52.0655 28.2366 51.8074 28.1555 51.5377Z" fill="#266E69"/>
<path fill-rule="evenodd" clip-rule="evenodd" d="M30.9564 57.0502C30.3893 56.9916 29.9611 57.0502 29.6371 56.6983C29.4635 56.5107 29.3477 56.2996 29.4287 56.0298C29.4982 55.7835 29.6949 55.7131 29.9148 55.631C30.5051 55.3965 31.1069 55.1501 31.6624 54.8569C32.2758 54.5403 32.8429 54.7162 33.41 54.7748C33.8498 54.8217 33.9423 55.8304 33.5141 56.0533C32.6461 56.4872 31.7434 56.8508 30.9448 57.0619L30.9564 57.0502Z" fill="#266E69"/>
<path fill-rule="evenodd" clip-rule="evenodd" d="M22.1276 39.1169C22.1276 39.1169 22.0685 39.1169 22.0449 39.1286V39.0817C22.0449 39.0817 22.0922 39.1052 22.1158 39.1286L22.1276 39.1169Z" fill="#266E69"/>
</g>
<defs>
<clipPath id="clip0_125_16240">
<rect width="94.08" height="96" fill="white" transform="translate(13.7002 12)"/>
</clipPath>
</defs>
</svg>
