<svg width="40" height="41" viewBox="0 0 40 41" fill="none" xmlns="http://www.w3.org/2000/svg">
<path d="M23.8499 28.1572L21.6666 30.2572V20.8572C21.6666 20.4151 21.491 19.9912 21.1784 19.6787C20.8658 19.3661 20.4419 19.1905 19.9999 19.1905C19.5579 19.1905 19.1339 19.3661 18.8214 19.6787C18.5088 19.9912 18.3332 20.4151 18.3332 20.8572V30.1738L16.1832 28.0072C16.0278 27.8518 15.8434 27.7285 15.6403 27.6444C15.4373 27.5603 15.2197 27.517 14.9999 27.517C14.7801 27.517 14.5625 27.5603 14.3595 27.6444C14.1564 27.7285 13.972 27.8518 13.8166 28.0072C13.6612 28.1626 13.5379 28.3471 13.4538 28.5501C13.3697 28.7531 13.3264 28.9707 13.3264 29.1905C13.3264 29.4103 13.3697 29.6279 13.4538 29.8309C13.5379 30.034 13.6612 30.2184 13.8166 30.3738L18.8166 35.3738C18.9723 35.5283 19.157 35.6505 19.3601 35.7335C19.5631 35.8164 19.7806 35.8584 19.9999 35.8572C20.429 35.8555 20.8409 35.6883 21.1499 35.3905L26.1499 30.5572C26.3267 30.4112 26.4716 30.2304 26.5754 30.0259C26.6791 29.8215 26.7396 29.5978 26.753 29.3689C26.7663 29.14 26.7323 28.9108 26.6531 28.6957C26.5739 28.4805 26.4511 28.284 26.2924 28.1185C26.1338 27.9529 25.9427 27.8219 25.7311 27.7336C25.5195 27.6453 25.292 27.6016 25.0627 27.6052C24.8335 27.6088 24.6074 27.6597 24.3988 27.7547C24.1901 27.8497 24.0032 27.9867 23.8499 28.1572Z" fill="white"/>
<path d="M29.4501 12.5238C28.77 10.5589 27.4944 8.85487 25.8006 7.64877C24.1069 6.44268 22.0793 5.79454 20.0001 5.79454C17.9208 5.79454 15.8932 6.44268 14.1995 7.64877C12.5058 8.85487 11.2301 10.5589 10.5501 12.5238C9.05266 12.7244 7.63793 13.3283 6.45724 14.2708C5.27654 15.2134 4.37429 16.4592 3.84701 17.875C3.31973 19.2908 3.18725 20.8233 3.46375 22.3085C3.74024 23.7938 4.41531 25.176 5.41674 26.3072C5.5377 26.5202 5.70416 26.704 5.90425 26.8454C6.10434 26.9868 6.33315 27.0824 6.57438 27.1253C6.81562 27.1681 7.06334 27.1573 7.29991 27.0935C7.53648 27.0298 7.75608 26.9146 7.94307 26.7563C8.13006 26.598 8.27985 26.4004 8.38176 26.1776C8.48368 25.9548 8.53521 25.7122 8.5327 25.4672C8.53018 25.2222 8.47368 24.9808 8.36722 24.7601C8.26075 24.5394 8.10694 24.345 7.91674 24.1905C7.27193 23.4696 6.85005 22.5772 6.70222 21.6213C6.55439 20.6655 6.68696 19.6873 7.08386 18.8053C7.48077 17.9233 8.12497 17.1753 8.93839 16.6521C9.75182 16.1288 10.6996 15.8527 11.6667 15.8572H11.8334C12.2233 15.865 12.6036 15.7359 12.9082 15.4923C13.2127 15.2487 13.4222 14.906 13.5001 14.5238C13.8061 13.0168 14.6237 11.6619 15.8144 10.6887C17.0051 9.71546 18.4956 9.18382 20.0334 9.18382C21.5712 9.18382 23.0617 9.71546 24.2524 10.6887C25.4431 11.6619 26.2607 13.0168 26.5667 14.5238C26.6447 14.906 26.8541 15.2487 27.1586 15.4923C27.4632 15.7359 27.8435 15.865 28.2334 15.8572H28.3334C29.3006 15.8527 30.2483 16.1288 31.0618 16.6521C31.8752 17.1753 32.5194 17.9233 32.9163 18.8053C33.3132 19.6873 33.4458 20.6655 33.2979 21.6213C33.1501 22.5772 32.7282 23.4696 32.0834 24.1905C31.9366 24.3551 31.8239 24.5473 31.7519 24.7558C31.6799 24.9643 31.6501 25.185 31.664 25.4052C31.678 25.6253 31.7355 25.8405 31.8332 26.0383C31.931 26.236 32.067 26.4124 32.2334 26.5572C32.5373 26.8251 32.9283 26.9733 33.3334 26.9738C33.5701 26.9735 33.8039 26.9228 34.0194 26.8251C34.235 26.7274 34.4272 26.5849 34.5834 26.4072C35.6126 25.2779 36.3115 23.8874 36.6038 22.3877C36.896 20.888 36.7703 19.3369 36.2405 17.9038C35.7106 16.4707 34.7969 15.2109 33.5993 14.2621C32.4018 13.3132 30.9664 12.7119 29.4501 12.5238Z" fill="white"/>
</svg>
