<svg width="330" height="317" viewBox="0 0 330 317" fill="none" xmlns="http://www.w3.org/2000/svg">
<path fill-rule="evenodd" clip-rule="evenodd" d="M324.473 310.517C323.295 309.112 324.201 307.413 323.907 305.872C323.59 304.264 323.794 302.542 323.635 300.889C323.386 298.351 322.978 295.837 322.729 293.3C322.502 290.944 322.412 288.588 322.23 286.254C322.14 285.008 321.959 283.762 321.8 282.516C321.551 280.477 321.234 278.461 321.075 276.422C320.939 274.746 321.143 273.024 320.962 271.348C320.69 268.607 320.124 265.888 319.874 263.124C319.625 260.474 318.606 258.005 318.56 255.286C318.515 252.975 317.7 250.687 317.224 248.377C316.975 247.221 316.771 246.066 316.522 244.911C316.136 243.166 315.797 241.422 315.298 239.723C314.868 238.25 314.211 236.846 313.667 235.396C312.852 233.199 312.149 230.956 311.243 228.804C310.201 226.289 309.091 223.82 307.89 221.396C306.418 218.383 304.017 216.253 301.208 214.532C300.233 213.943 299.305 213.286 298.398 212.606C298.262 212.515 298.172 212.176 298.24 212.017C298.897 210.522 299.531 208.981 300.301 207.554C301.389 205.538 303.45 204.179 304.175 201.823C304.696 200.146 305.648 198.606 306.35 196.975C306.622 196.318 306.78 195.593 306.962 194.891C307.233 193.894 307.641 192.897 307.687 191.9C307.755 190.405 307.687 188.887 307.46 187.415C307.324 186.463 306.962 185.489 306.486 184.628C305.308 182.544 303.699 180.641 304.379 177.968C304.424 177.764 304.288 177.515 304.22 177.311C303.609 175.635 301.978 174.344 302.431 172.305C302.476 172.146 302.25 171.874 302.091 171.716C301.774 171.399 301.389 171.172 301.094 170.855C300.301 170.039 299.69 168.816 298.738 168.431C296.156 167.389 293.913 165.055 290.719 165.939C290.605 165.962 290.424 165.803 290.288 165.803C288.612 165.735 286.936 165.418 285.259 166.12C283.99 166.641 282.609 166.981 281.249 167.253C279.211 167.661 277.126 167.887 275.087 168.272C273.23 168.612 271.372 169.088 269.537 169.496C269.152 167.162 270.262 164.331 272.392 163.47C274.317 162.677 274.77 160.729 276.243 159.664C276.311 159.618 276.288 159.437 276.333 159.324C276.764 158.531 276.99 157.376 277.647 157.013C279.414 156.016 280.003 154.227 280.774 152.686C281.657 150.897 282.178 148.903 282.405 146.796C282.586 145.052 282.79 143.421 282.495 141.677C282.291 140.431 282.314 139.071 282.586 137.848C282.88 136.443 283.719 135.13 284.058 133.725C284.557 131.596 285.735 129.625 285.395 127.269C285.101 125.275 285.101 123.236 284.874 121.243C284.761 120.155 284.602 119.045 284.24 118.048C283.696 116.621 283.016 115.217 282.269 113.88C281.612 112.702 280.842 111.592 280.049 110.505C279.007 109.077 277.874 107.741 276.832 106.336C276.265 105.589 276.13 104.365 274.725 104.705C274.612 104.728 274.408 104.592 274.34 104.479C273.502 103.119 272.21 101.851 271.939 100.401C271.418 97.7958 269.696 96.3913 267.748 95.2586C266.003 94.2391 263.987 93.6954 262.039 93.0611C261.065 92.744 259.955 92.5401 258.935 92.6307C257.984 92.7213 256.625 92.4495 256.171 94.1938C255.22 93.2424 254.427 92.2229 253.453 91.5207C251.097 89.8216 248.945 87.7148 246.068 86.8539C244.663 86.4235 243.145 86.3329 241.673 86.2423C240.857 86.1743 240.019 86.4235 239.181 86.4915C238.116 86.5821 237.029 86.5594 235.964 86.7407C235.126 86.8766 234.356 87.2844 233.517 87.4882C232.181 87.8054 230.663 87.7148 229.53 88.3718C228.035 89.2326 226.744 88.9608 225.43 88.4397C224.025 87.8734 222.734 86.9899 221.352 86.3555C219.676 85.608 217.909 85.3361 216.074 85.5853C215.236 85.6986 214.375 85.9251 213.537 85.9251C211.566 85.9251 209.957 86.9672 208.417 87.896C206.695 88.9381 205.676 90.7731 204.928 92.608C204.158 94.511 202.731 95.9155 201.236 97.0482C200.239 97.8185 199.401 98.5207 198.721 99.5855C197.588 101.398 196.342 103.097 195.889 105.294C195.119 108.987 195.663 112.249 198.2 115.103C198.63 115.579 199.129 116.01 199.672 116.372C200.715 117.052 201.779 117.641 202.844 118.275C202.844 118.502 202.889 119 202.731 119.43C202.527 119.951 202.028 120.382 201.825 120.926C201.371 122.104 200.941 123.304 200.647 124.55C200.239 126.181 199.99 127.835 199.65 129.489C199.446 130.463 199.219 131.437 199.038 132.411C198.766 133.929 198.54 135.447 198.268 136.987C198.041 138.278 197.747 139.547 197.566 140.861C197.271 142.877 197.067 144.916 196.795 146.955C196.682 147.793 197.045 148.631 196.433 149.537C196.206 149.877 196.252 150.67 195.708 151.123C195.549 151.237 195.572 151.599 195.527 151.848C194.915 151.712 194.168 151.758 193.805 151.418C192.922 150.557 191.834 150.512 190.769 150.308C187.96 149.741 185.536 151.101 182.976 151.803C182.478 151.939 182.184 152.754 181.753 153.207C181.572 153.389 181.277 153.457 181.074 153.638C180.824 153.842 180.575 154.068 180.371 154.317C179.986 154.793 179.624 155.314 179.239 155.835C178.921 156.016 178.921 156.379 178.808 156.696C177.993 158.826 177.041 160.932 176.316 163.107C175.523 165.486 174.459 167.729 174.005 170.266C173.462 173.369 172.556 176.405 171.468 179.373C170.902 180.936 169.86 182.499 168.636 183.609C167.119 184.991 165.193 185.897 163.449 187.03C162.565 187.596 161.659 188.14 160.844 188.797C159.326 189.997 159.167 190.79 159.983 192.557C160.096 192.784 159.983 193.192 159.847 193.418C159.371 194.098 158.827 194.732 158.306 195.389C157.423 196.499 156.517 197.587 155.633 198.697C155.339 199.059 155.225 199.603 154.863 199.875C154.138 200.441 153.458 201.007 153.164 201.913C153.096 202.163 152.915 202.434 152.711 202.593C151.216 203.816 150.106 205.334 149.313 207.101C149.109 207.577 148.678 207.985 148.293 208.37C147.546 209.14 146.504 209.752 146.096 210.658C145.076 212.901 143.332 214.554 141.837 216.389C140.863 217.59 139.775 218.677 138.824 219.878C137.85 221.079 136.966 222.325 136.241 223.752C135.063 226.063 133.138 227.965 131.778 230.208C130.351 232.61 128.947 235.079 128.063 237.707C127.225 240.244 126.863 242.985 126.659 245.658C126.545 247.131 127.089 248.717 127.587 250.166C128.041 251.458 128.856 252.613 129.49 253.836C129.581 254.04 129.49 254.335 129.581 254.539C130.17 255.649 130.668 256.849 131.439 257.846C132.277 258.956 133.274 260.021 134.361 260.904C135.675 261.969 137.057 262.989 138.575 263.713C139.526 264.189 140.772 264.008 141.859 264.28C144.94 265.073 147.931 264.914 150.876 263.759C151.555 263.487 152.076 262.943 152.96 263.011C154.863 263.124 156.788 263.147 158.691 263.011C161.387 262.853 164.06 262.558 166.756 262.309C166.892 262.309 167.028 262.218 167.164 262.15C168.569 261.584 169.95 260.882 171.4 260.519C172.692 260.202 174.073 260.361 175.387 260.089C177.29 259.704 179.148 259.047 181.051 258.639C183.044 258.209 185.083 257.891 187.099 257.552C188.753 257.28 190.407 257.076 192.265 256.849C192.333 257.642 192.514 258.435 192.446 259.228C192.378 260.474 192.129 261.697 192.015 262.943C191.879 264.574 191.902 266.205 191.744 267.836C191.494 270.283 191.132 272.707 190.837 275.154C190.611 276.966 190.407 278.778 190.158 280.591C189.841 282.856 189.433 285.099 189.206 287.387C189.002 289.312 189.048 291.283 188.934 293.209C188.889 294.16 188.866 295.135 188.685 296.063C188.345 297.898 187.915 299.733 187.53 301.546C187.213 302.995 187.235 304.468 186.42 305.895C185.4 307.662 186.012 308.682 187.915 309.339C188.028 309.384 188.119 309.452 188.232 309.497C190.724 310.562 193.329 311.106 195.98 311.423C196.614 311.491 197.226 311.74 197.86 311.876C199.197 312.193 200.533 312.487 201.87 312.782C203.184 313.076 204.475 313.484 205.789 313.643C207.058 313.801 208.372 313.756 209.663 313.756C211.52 313.756 213.401 313.756 215.258 313.688C216.572 313.643 217.886 313.416 219.223 313.303C219.721 313.258 220.265 313.303 220.763 313.212C222.055 312.986 223.346 312.578 224.637 312.487C226.495 312.352 228.352 312.487 230.21 312.374C232.883 312.261 235.556 312.057 238.229 311.853C240.223 311.717 242.217 311.513 244.21 311.377C246.679 311.219 249.149 310.97 251.641 310.97C253.838 310.97 256.035 311.241 258.233 311.4C258.505 311.4 258.754 311.513 259.026 311.536C260.657 311.808 262.288 312.125 263.942 312.306C265.618 312.487 267.521 312.08 268.971 312.714C271.032 313.62 273.162 313.054 275.223 313.688C277.285 314.3 279.55 314.141 281.702 314.436C284.126 314.775 286.528 315.229 288.929 315.704C290.084 315.931 291.194 316.339 292.327 316.656H296.609C298.149 315.75 299.803 315.772 301.479 315.976C302 316.044 302.521 316.044 303.042 316.067C304.492 316.18 305.942 316.407 307.392 316.361C308.91 316.339 310.405 316.044 311.923 315.886C312.852 315.795 313.803 315.795 314.732 315.659C317.292 315.297 319.874 314.979 322.412 314.413C323.34 314.209 324.111 313.371 324.972 312.805V310.902C324.836 310.811 324.7 310.743 324.586 310.63L324.473 310.517ZM207.669 193.396V206.286L185.31 216.593L190.792 206.399L190.158 202.638L195.368 187.573L204.905 178.67L213.967 184.357L207.669 193.396Z" fill="white"/>
<path fill-rule="evenodd" clip-rule="evenodd" d="M119.409 46.0767C118.639 45.3744 117.687 44.808 117.053 43.9925C116.102 42.7692 115.377 41.3873 114.538 40.0734C114.425 39.9148 114.244 39.8015 114.131 39.6429C113.202 38.5329 112.25 37.4682 111.389 36.2902C110.302 34.8176 109.305 33.2998 108.286 31.782C107.017 29.9244 105.59 28.1574 104.571 26.1638C102.894 22.9243 100.606 20.2058 98.1143 17.6233C97.5706 17.0569 97.1628 16.2867 96.5511 15.811C95.5997 15.086 94.5349 14.5197 93.5155 13.8854H77.3179C76.8195 14.044 76.3438 14.3385 75.8454 14.3611C71.9263 14.4064 67.9845 14.4064 64.0653 14.3611C61.664 14.3611 59.2627 14.2931 56.8614 14.2478C55.0038 14.2025 53.1461 14.1346 51.2885 14.1572C50.1558 14.1572 49.0005 14.3611 47.8678 14.3611C46.3273 14.3611 44.8095 14.2705 43.2917 14.2705C41.4567 14.2705 39.6217 14.2025 37.7867 14.3611C37.243 14.4064 36.722 14.9728 36.2689 15.3579C35.6573 15.8789 35.1136 16.4906 34.5019 16.989C33.12 18.0764 31.6249 19.0731 30.2883 20.2058C28.6798 21.5877 27.2073 23.1282 25.5989 24.5327C24.2623 25.7334 22.8804 26.8888 21.4306 27.9535C20.3885 28.7237 19.1878 29.2448 18.1231 29.9697C17.4435 30.4454 16.9677 31.1477 16.3108 31.6687C14.5438 33.0733 12.6408 34.3419 10.9418 35.8144C9.83174 36.7885 8.97089 38.0345 7.99677 39.1446C7.74757 39.4164 7.45307 39.6429 7.18122 39.8921C6.38834 40.5944 5.30095 41.1608 4.89317 42.0443C4.32682 43.1996 3.33005 43.766 2.55981 44.6042V45.8048C2.80901 46.0767 3.19413 46.3485 3.23943 46.6657C3.37536 47.5718 3.80578 48.0023 4.7346 48.0702C5.73137 48.1382 6.72815 48.3874 8.04208 48.6139C8.04208 51.9894 8.04208 55.3874 8.04208 58.8082C8.04208 59.3972 8.20065 59.9636 8.178 60.5526C8.08738 62.0477 7.90615 63.5429 7.81554 65.038C7.77023 65.763 7.95146 66.5105 7.92881 67.2355C7.92881 68.4361 7.65696 69.6821 7.8835 70.8375C8.01942 71.6303 8.15534 72.2873 8.06473 73.1482C7.8835 74.8472 8.06473 76.5689 8.06473 78.2906C8.06473 78.6984 8.06473 79.0835 8.01942 79.4913C7.97411 80.035 7.81554 80.556 7.81554 81.0997C7.81554 82.391 8.20065 83.6369 7.81554 84.9509C7.70227 85.2907 7.8835 85.7211 7.90615 86.1062C7.92881 86.5367 7.95146 86.9671 7.97411 87.3975C7.99677 88.0318 8.01942 88.6661 8.06473 89.3004C8.06473 89.5949 8.13269 89.8894 8.13269 90.1613C8.06473 91.2034 7.92881 92.2455 7.90615 93.2875C7.90615 93.6273 8.22331 93.9898 8.20065 94.307C8.178 94.76 7.83819 95.1905 7.81554 95.6436C7.74757 96.7763 7.72492 97.9316 7.81554 99.087C7.90615 100.333 7.95146 101.647 8.38189 102.802C8.69904 103.708 11.5761 103.708 12.4596 102.983C12.7314 102.757 13.0713 102.553 13.4111 102.53C16.0616 102.44 18.7347 102.259 21.3853 102.326C24.5568 102.417 27.7057 102.757 30.8773 102.281C31.1038 102.236 31.3757 102.394 31.6249 102.462C31.8967 102.553 32.1686 102.734 32.4631 102.712C34.7964 102.666 37.1298 102.53 39.4631 102.508C42.1816 102.462 44.9227 102.508 47.6412 102.508C48.049 102.508 48.4568 102.44 48.8419 102.462C49.6574 102.508 50.4503 102.712 51.2432 102.689C52.1267 102.644 52.9876 102.326 53.8711 102.304C55.4795 102.304 57.1106 102.485 58.719 102.508C61.8679 102.553 65.0395 102.508 68.1884 102.508H75.2337C77.4765 102.508 79.6966 102.508 81.9393 102.508C83.1626 102.508 84.4539 102.123 85.6093 102.394C88.0786 102.961 90.5252 102.191 93.0171 102.644C95.3052 103.051 97.7291 102.553 100.108 102.53C101.852 102.53 103.597 102.712 105.341 102.734C106.088 102.734 106.813 102.553 107.561 102.53C109.441 102.508 111.322 102.576 113.202 102.485C114.516 102.417 115.014 101.579 114.788 100.174C114.584 98.951 114.335 97.7051 114.335 96.4818C114.335 94.6468 114.674 92.8118 114.72 90.9768C114.765 89.3231 114.584 87.6694 114.516 86.0156C114.38 83.3878 114.584 80.7599 114.425 78.1094C114.335 76.6142 114.425 75.0737 114.357 73.5333C114.267 71.1999 114.493 68.8439 114.538 66.4879C114.584 64.449 114.538 62.4102 114.538 60.3713C114.538 58.8988 114.538 57.4263 114.538 55.9311C114.538 54.8664 114.652 53.8243 114.674 52.7596C114.697 51.491 114.674 50.2223 114.674 48.8858C114.924 48.8858 115.195 48.8631 115.467 48.8858C116.487 49.0217 117.483 49.2482 118.503 49.3162C120.043 49.4521 120.859 48.2968 120.179 46.9149C120.021 46.5751 119.749 46.2806 119.477 46.0314L119.409 46.0767Z" fill="white"/>
<path fill-rule="evenodd" clip-rule="evenodd" d="M272.165 161.476C272.165 161.476 281.226 156.13 282.925 151.35C284.624 146.57 284.216 137.1 284.216 137.1C284.216 137.1 288.022 131.392 287.66 125.298C287.275 119.204 282.178 111.275 282.178 111.275L280.003 109.191C280.003 109.191 275.767 96.8217 270.103 94.1258C264.44 91.43 257.258 92.3815 257.258 92.3815C257.258 92.3815 250.847 84.4526 243.666 83.8862C236.485 83.3199 225.679 88.485 225.679 88.485C225.679 88.485 219.517 82.6856 211.905 85.4041C204.293 88.1225 202.889 95.0093 202.889 95.0093C202.889 95.0093 195.3 103.142 195.504 106.631C195.707 110.12 197.18 113.336 200.216 115.217C203.251 117.097 209.3 117.097 209.3 117.097L216.255 114.129C216.255 114.129 221.193 120.042 224.591 120.563C227.989 121.084 237.436 118.615 237.436 118.615C237.436 118.615 239.316 123.259 242.352 125.275C245.365 127.291 251.414 128.945 251.414 128.945L253.838 139.366L256.511 146.162V151.803H263.511C263.511 151.803 270.669 149.605 272.006 151.282C273.32 152.958 272.187 161.453 272.187 161.453L272.165 161.476Z" fill="#6BB3A9"/>
<path fill-rule="evenodd" clip-rule="evenodd" d="M326.466 312.895C326.466 312.895 323.249 252.432 319.806 241.105C316.363 229.778 309.544 222.732 309.544 222.732L307.754 221.192C306.282 218.292 303.926 216.185 301.162 214.509C300.188 213.92 299.259 213.263 298.353 212.583C298.217 212.493 298.126 212.153 298.194 211.994C298.851 210.499 299.485 208.959 300.256 207.531C301.343 205.515 303.405 204.156 304.129 201.8C304.651 200.124 305.602 198.583 306.304 196.952C306.576 196.295 306.735 195.57 306.916 194.868C307.188 193.871 307.596 192.874 307.641 191.877C307.709 190.382 307.641 188.864 307.414 187.392C307.278 186.441 306.916 185.466 306.44 184.606C305.262 182.521 303.654 180.618 304.333 177.945C304.379 177.741 304.243 177.492 304.175 177.288C303.563 175.612 301.932 174.321 302.385 172.282C302.43 172.123 302.204 171.851 302.045 171.693C301.728 171.376 301.343 171.149 301.049 170.832C300.256 170.016 299.644 168.793 298.693 168.408C296.11 167.366 293.867 165.033 290.673 165.916C290.56 165.939 290.401 165.803 290.265 165.78L285.145 166.097C283.877 166.618 282.518 166.958 281.181 167.207C279.142 167.615 277.058 167.842 275.019 168.227C273.161 168.567 271.304 169.042 269.469 169.45C269.333 168.68 269.401 167.864 269.56 167.094L267.566 167.23L260.679 173.845L258.572 176.926L263.534 185.376C263.534 185.376 248.922 191.787 240.766 193.395C232.634 195.026 225.724 191.56 225.724 191.56L222.326 185.376L213.989 184.356L207.692 193.395V206.285L185.332 216.593L190.814 206.399L190.339 203.499L188.322 204.133C188.322 204.133 184.766 206.988 177.539 200.962C170.335 194.936 170.743 189.408 170.743 189.408V184.356L169.769 182.136C169.406 182.612 168.999 183.088 168.568 183.473C167.05 184.855 165.125 185.761 163.38 186.894C162.497 187.46 161.591 188.004 160.775 188.661C159.257 189.861 159.099 190.654 159.914 192.421C160.028 192.648 159.914 193.055 159.778 193.282C159.303 193.962 158.759 194.596 158.238 195.253C157.354 196.363 156.448 197.45 155.565 198.56C155.27 198.923 155.157 199.467 154.795 199.738C154.07 200.305 153.39 200.871 153.095 201.777C153.028 202.026 152.846 202.298 152.642 202.457C151.147 203.68 150.037 205.198 149.244 206.965C149.04 207.441 148.61 207.849 148.225 208.234C147.477 209.004 146.435 209.616 146.027 210.522C145.008 212.764 143.264 214.418 141.768 216.253C140.794 217.454 139.707 218.541 138.756 219.742C137.781 220.943 136.898 222.188 136.173 223.616C134.995 225.926 133.069 227.829 131.71 230.072C130.283 232.473 128.878 234.943 127.995 237.571C127.157 240.108 126.794 242.849 126.59 245.522C126.477 246.995 127.021 248.58 127.519 250.03C127.972 251.321 128.788 252.477 129.422 253.7C129.513 253.904 129.422 254.199 129.513 254.402C130.102 255.512 130.6 256.713 131.37 257.71C132.209 258.82 133.205 259.885 134.293 260.768C135.607 261.833 136.988 262.852 138.506 263.577C139.458 264.053 140.704 263.872 141.791 264.144C144.872 264.937 147.862 264.778 150.807 263.623C151.487 263.351 152.008 262.807 152.892 262.875C154.795 262.988 156.72 263.011 158.623 262.875C161.319 262.716 163.992 262.422 166.688 262.173C166.824 262.173 166.96 262.082 167.096 262.014C168.5 261.448 169.882 260.746 171.332 260.383C172.623 260.066 174.005 260.225 175.319 259.953C177.222 259.568 179.08 258.911 180.983 258.503C182.976 258.072 185.015 257.755 187.031 257.415C188.685 257.144 190.339 256.94 192.196 256.713C192.264 257.506 192.445 258.299 192.377 259.092C192.309 260.338 192.06 261.561 191.947 262.807C191.811 264.438 191.834 266.069 191.675 267.7C191.426 270.147 191.064 272.571 190.769 275.018C190.542 276.83 190.339 278.642 190.089 280.455C189.772 282.72 189.364 284.963 189.138 287.251C188.934 289.176 188.979 291.147 188.866 293.073C188.821 294.024 188.798 294.998 188.617 295.927C188.277 297.762 187.847 299.597 187.462 301.409C187.144 302.859 187.167 304.332 186.351 305.759C185.332 307.526 185.944 308.545 187.847 309.202C187.96 309.248 188.051 309.316 188.164 309.361C190.656 310.426 193.261 310.969 195.911 311.287C196.546 311.355 197.157 311.604 197.792 311.74C199.128 312.057 200.465 312.351 201.802 312.646C203.115 312.94 204.407 313.348 205.721 313.507C206.989 313.665 208.303 313.62 209.594 313.62C211.452 313.62 213.332 313.62 215.19 313.552C216.504 313.507 217.818 313.28 219.154 313.167C219.653 313.122 220.197 313.167 220.695 313.076C221.986 312.85 223.277 312.442 224.569 312.351C226.426 312.215 228.284 312.351 230.142 312.238C232.815 312.125 235.488 311.921 238.161 311.717C240.155 311.581 242.148 311.377 244.142 311.241C246.611 311.083 249.08 310.833 251.572 310.833C253.77 310.833 255.967 311.105 258.165 311.264C258.436 311.264 258.686 311.377 258.957 311.4C260.589 311.672 262.22 311.989 263.873 312.17C265.55 312.351 267.453 311.944 268.903 312.578C270.964 313.484 273.094 312.918 275.155 313.552C277.217 314.164 279.482 314.005 281.634 314.3C284.058 314.639 286.459 315.092 288.861 315.568C290.016 315.795 291.126 316.202 292.259 316.52H296.54C298.081 315.613 299.735 315.636 301.411 315.84C301.932 315.908 302.453 315.908 302.974 315.931C304.424 316.044 305.874 316.27 307.324 316.225C308.842 316.202 310.337 315.908 311.854 315.749C312.783 315.659 313.735 315.659 314.664 315.523C317.223 315.16 319.806 314.843 322.343 314.277C322.864 314.164 323.34 313.846 323.816 313.484L326.534 312.872L326.466 312.895Z" fill="#A0CD64"/>
<path fill-rule="evenodd" clip-rule="evenodd" d="M330 307.549C329.343 307.73 329.479 308.229 329.479 308.704C329.479 309.86 329.932 310.992 329.66 312.125C329.524 312.759 329.615 313.53 328.618 313.756C327.621 313.96 326.919 313.847 326.466 312.895C325.922 311.763 324.699 310.834 325.514 309.339C324.382 306.326 324.948 303.131 324.563 300.028C324.246 297.445 323.634 294.795 324.11 292.144C324.223 291.51 323.475 291.034 323.815 290.468C324.653 289.041 323.77 287.727 323.611 286.39C323.272 283.785 322.728 281.202 322.615 278.552C322.524 276.173 322.66 273.795 321.844 271.393C321.437 270.193 320.825 268.584 321.595 267.089C321.686 266.885 321.595 266.523 321.459 266.296C320.281 263.691 320.191 260.927 320.281 258.118C320.281 258.005 320.281 257.869 320.236 257.778C319.103 256.056 319.285 253.927 318.514 252.069C317.903 250.552 317.653 248.875 317.427 247.244C317.314 246.542 317.155 245.84 316.951 245.183C316.204 242.827 315.728 240.425 314.822 238.115C314.278 236.71 313.802 235.147 313.259 233.72C312.534 231.794 311.945 229.733 310.699 227.966C309.838 226.765 308.954 225.542 308.524 224.046C308.343 223.457 307.686 223.027 307.21 222.551C305.76 221.056 304.831 219.176 303.336 217.681C302.521 216.842 301.705 216.14 300.754 215.483C300.346 215.211 300.074 214.826 299.87 214.396C299.485 213.535 299.779 212.991 300.708 212.787C302.453 212.38 303.676 213.082 305.103 214.124C306.417 215.098 307.165 216.571 308.569 217.386C309.294 217.817 309.521 218.723 310.064 219.357C311.967 221.645 313.417 224.205 314.89 226.788C316.793 230.186 317.88 233.878 319.33 237.435C320.032 239.111 320.485 240.81 320.463 242.623C320.463 243.302 321.097 243.574 321.278 244.163C321.98 246.474 322.592 248.785 323.09 251.141C323.204 251.639 323.408 252.115 323.543 252.59C324.382 255.807 325.061 259.069 325.197 262.4C325.288 264.416 325.764 266.341 326.217 268.312C326.76 270.555 326.874 272.911 327.032 275.222C327.145 276.943 327.417 278.62 327.508 280.319C327.666 283.015 328.459 285.665 328.165 288.406C328.074 289.199 328.459 290.015 328.527 290.853C328.709 293.232 328.731 295.61 328.98 297.966C329.275 300.843 328.935 303.766 329.683 306.62C329.728 306.801 329.683 307.028 329.977 307.028V307.504L330 307.549Z" fill="#27716B"/>
<path fill-rule="evenodd" clip-rule="evenodd" d="M259.184 185.602C258.413 185.059 258.21 184.447 258.21 183.835C258.21 182.453 256.873 181.638 256.782 180.256C256.669 178.67 257.1 177.107 258.527 176.926C259.116 176.858 259.546 176.971 259.841 177.47C260.905 179.259 262.151 180.958 262.559 183.065C262.718 183.858 263.284 183.79 263.85 183.518C266.161 182.385 268.494 181.253 270.76 180.029C272.119 179.282 273.614 178.851 274.996 178.081C276.944 177.016 279.006 176.178 281.045 175.317C283.944 174.117 286.822 172.893 289.948 172.327C290.673 172.191 291.352 172.327 292.077 172.214C293.074 172.078 293.527 172.667 293.618 173.573C293.686 174.457 293.097 175.023 292.349 175.159C290.061 175.521 288.068 176.518 285.961 177.424C283.854 178.33 281.679 179.123 279.55 180.052C278.372 180.573 277.216 181.207 276.038 181.706C273.546 182.771 271.213 184.152 268.653 185.059C268.427 185.149 268.2 185.217 267.996 185.353C265.64 186.962 263.012 187.981 260.203 188.525C259.478 188.661 259.116 189.272 258.481 189.499C256.533 190.178 254.494 190.654 252.705 191.696C251.028 192.693 249.171 193.214 247.336 193.826C245.795 194.347 244.255 194.981 242.692 195.389C241.31 195.751 239.747 195.344 238.251 195.23C237.323 195.162 236.462 194.958 235.51 195.23C234.581 195.502 233.63 194.845 232.611 195.004C229.303 195.547 226.2 194.392 223.051 193.69C221.714 193.395 220.4 192.988 219.018 192.852C217.976 192.738 217.161 192.036 216.345 191.402C215.915 191.085 216.051 190.632 216.232 190.337C216.572 189.771 217.206 189.657 217.84 189.612C219.154 189.567 220.309 190.201 221.578 190.382C222.303 190.473 222.394 190.246 222.235 189.635C221.737 187.437 221.216 186.916 218.928 186.758C213.264 186.395 208.099 184.606 203.455 181.321C203.025 181.026 202.911 181.026 202.503 181.502C199.83 184.628 197.656 188.162 194.778 191.107C193.533 192.399 191.856 192.308 190.429 190.767C189.16 189.408 188.073 187.868 187.212 186.214C186.261 184.379 185.173 182.612 183.995 180.936C182.885 179.35 182.183 177.605 181.322 175.884C180.688 174.593 180.71 173.324 181.413 172.123C182.002 171.104 182.251 170.016 182.523 168.929C182.795 167.842 183.678 167.162 184.743 167.321C185.672 167.457 186.532 167.049 187.439 167.117C187.846 167.162 188.118 166.732 188.186 166.301C188.254 165.78 188.028 165.327 187.575 165.078C186.079 164.24 184.471 163.968 182.817 164.557C181.413 165.055 180.053 165.644 178.853 166.505C177.131 167.751 176.134 169.495 176.044 171.647C175.998 172.939 176.021 174.321 175.704 175.499C174.956 178.421 175.092 181.502 173.846 184.356C173.189 185.874 172.917 187.822 173.167 189.363C173.597 192.013 174.481 194.687 176.361 196.839C177.086 197.7 177.675 198.696 178.264 199.648C178.513 200.056 178.875 200.282 179.238 200.486C179.736 200.758 180.099 201.12 180.371 201.573C180.62 202.004 180.914 202.185 181.413 202.14C181.684 202.117 182.024 202.14 182.206 202.276C183.633 203.34 184.72 202.638 185.626 201.528C186.147 200.894 186.736 200.373 187.303 199.784C187.801 199.285 188.186 198.651 188.549 197.994C189.5 196.204 190.95 195.004 193.102 194.913C193.94 194.89 194.257 195.185 194.099 196.046C193.827 197.496 193.283 198.764 192.445 200.033C191.788 201.03 191.041 201.823 190.157 202.548C189.795 202.865 189.704 203.204 189.998 203.748C190.406 204.518 190.542 205.425 190.769 206.285C190.814 206.489 190.814 206.874 190.701 206.942C189.568 207.667 189.908 209.117 189.115 210.023C188.617 210.59 188.753 211.473 188.503 212.221C188.096 213.421 187.484 214.441 186.804 215.506C186.147 216.502 185.83 217.68 185.105 218.677C184.29 219.765 183.791 221.078 182.953 222.211C182.206 223.208 181.481 224.386 180.96 225.609C180.235 227.263 179.102 228.6 177.811 229.846C177.584 230.049 177.335 230.299 176.995 230.253C176.066 230.117 175.092 230.072 174.186 229.778C173.28 229.483 173.235 228.532 174.027 227.988C175.16 227.218 175.251 225.768 176.089 224.794C176.248 224.59 176.361 224.295 176.61 224.227C177.358 224.023 177.358 223.412 177.516 222.845C177.765 222.03 177.607 220.988 178.989 220.875C179.646 220.829 179.6 219.81 179.782 219.266C180.506 217.273 181.752 215.596 182.749 213.761C183.248 212.832 183.723 211.904 183.927 210.862C184.04 210.227 184.199 209.638 184.765 209.253C184.833 209.208 184.969 209.162 184.969 209.14C184.426 207.781 185.672 207.078 186.079 206.059C186.329 205.447 185.966 205.357 185.49 205.47C182.636 206.149 180.189 205.289 177.675 203.861C175.251 202.457 173.778 200.373 172.328 198.198C171.603 197.111 171.196 195.842 170.267 194.823C169.814 194.324 170.018 193.327 169.678 192.58C169.27 191.742 169.044 190.835 168.613 189.997C168.069 188.932 168.681 187.709 168.998 186.622C169.723 184.198 170.403 181.819 170.448 179.237C170.471 177.47 170.901 175.703 171.082 173.936C171.309 171.602 172.328 169.45 172.578 167.139C172.714 165.984 173.552 165.304 174.526 164.783C175.115 164.466 175.591 164.058 175.183 163.198C174.684 162.11 175.251 161 175.591 160.003C175.84 159.324 176.112 158.667 176.202 157.919C176.383 156.13 177.765 155.133 178.875 153.909C180.348 152.301 181.707 150.557 182.704 148.563C182.749 148.472 182.772 148.314 182.84 148.291C184.222 147.702 185.377 146.57 187.053 146.57C188.503 146.57 189.953 146.456 191.403 146.57C192.264 146.66 192.966 147 193.759 147.544C194.189 145.595 194.257 143.738 194.371 141.948C194.461 140.136 194.937 138.437 195.254 136.715C195.503 135.401 196.002 134.133 196.206 132.796C196.364 131.618 197.225 130.825 198.109 130.145C198.811 129.602 200.283 130.463 200.306 131.369C200.306 131.912 200.374 132.501 200.261 133.022C200.034 133.997 199.672 134.925 199.83 135.99C200.034 137.372 199.558 138.777 199.332 140.091C199.06 141.586 199.513 143.194 198.652 144.712C198.199 145.527 198.652 146.841 198.698 147.951C198.743 148.835 198.811 149.718 198.403 150.602C198.199 151.055 198.29 151.735 198.471 152.233C198.856 153.207 198.743 154.204 198.72 155.178C198.675 158.848 199.196 162.427 199.853 166.007C200.351 168.702 201.62 171.126 202.481 173.686C202.821 174.683 203.863 175.159 204.452 175.997C205.72 177.719 207.216 179.214 209.073 180.415C210.228 181.162 211.474 181.57 212.72 182C214.895 182.771 217.161 183.36 219.471 183.609C220.944 183.767 222.371 184.017 223.798 184.515C224.954 184.923 225.293 185.965 225.86 186.826C226.222 187.369 226.403 188.049 226.562 188.706C227.151 190.881 228.238 191.787 230.481 191.832C233.109 191.877 235.782 191.81 238.387 191.9C241.264 191.991 243.666 190.971 246.248 190.133C248.967 189.25 251.572 188.072 254.29 187.188C255.831 186.69 257.326 186.01 259.116 185.512L259.184 185.602ZM199.604 176.699C198.471 175.771 198.358 174.434 197.701 173.415C196.07 170.855 195.798 167.842 195.005 165.033C194.597 163.537 194.552 161.906 194.235 160.23C193.17 160.819 193.351 162.02 192.853 162.835C192.422 163.537 192.4 164.693 191.63 164.897C190.678 165.146 190.859 165.735 190.791 166.279C190.746 166.822 190.791 167.389 190.791 167.932C190.859 168.906 190.338 169.677 189.568 169.903C188.322 170.266 187.642 170.764 187.575 172.169C187.529 172.939 187.325 174.411 187.665 175.091C189.342 178.58 191.38 181.887 192.785 185.512C192.876 185.716 192.83 186.055 193.238 186.101C193.691 186.146 193.872 185.874 194.031 185.557C194.575 184.424 195.209 183.36 195.866 182.295C196.659 181.049 197.134 179.599 198.222 178.512C198.38 178.353 198.539 178.081 198.516 177.877C198.403 177.084 198.879 176.858 199.604 176.677V176.699ZM180.121 160.275C180.121 160.638 180.121 160.796 180.121 160.955C179.985 162.042 180.325 161.974 181.231 161.634C182.885 161.045 184.426 160.094 186.193 159.822C187.144 159.664 187.892 159.278 187.96 158.282C188.028 157.308 187.507 156.605 186.623 156.175C183.746 154.748 180.28 157.081 180.121 160.275ZM185.309 152.686C186.261 153.23 187.053 152.596 187.824 152.913C188.888 153.366 189.84 152.913 190.723 152.46C191.403 152.12 191.426 150.375 190.837 150.081C189.251 149.288 188.118 149.583 186.646 150.738C185.898 151.304 186.261 152.346 185.309 152.686Z" fill="#25716A"/>
<path fill-rule="evenodd" clip-rule="evenodd" d="M190.452 256.962C188.414 258.027 186.103 258.367 184.019 259.341C183.362 259.636 182.637 259.704 181.98 259.794C177.019 260.542 172.261 262.037 167.436 263.283C166.303 263.577 165.125 263.736 163.947 263.849C160.617 264.166 157.287 264.302 153.979 264.733C152.122 264.982 150.287 265.503 148.384 265.458C145.054 265.367 141.656 265.594 138.507 264.393C135.902 263.396 133.115 262.649 131.19 260.247C129.966 258.729 128.63 257.302 127.384 255.784C126.931 255.241 126.976 254.38 126.613 253.7C126.092 252.726 126.228 251.435 125.254 250.642C125.775 249.124 124.257 247.924 124.461 246.564C124.801 244.322 124.303 242.079 124.643 239.859C124.711 239.428 124.846 238.703 124.937 238.613C126.523 237.208 125.435 235.033 126.523 233.47C126.908 232.927 127.067 232.247 127.61 231.749C128.245 231.182 128.018 230.185 128.494 229.506C128.63 229.302 128.584 228.985 128.743 228.736C130.012 226.561 131.688 224.658 133.025 222.483C133.364 221.939 134.225 221.305 134.588 220.671C135.335 219.334 136.695 218.405 137.034 216.865C137.17 216.231 137.737 216.004 138.076 215.687C139.005 214.849 139.481 213.739 140.07 212.742C140.432 212.13 140.908 211.564 141.407 211.269C142.562 210.567 142.652 209.117 143.672 208.37C144.691 207.622 145.122 206.421 145.801 205.402C146.572 204.247 147.115 202.933 148.316 202.117C148.429 202.027 148.565 201.891 148.61 201.755C148.95 200.531 150.174 199.829 150.468 198.583C150.536 198.266 150.581 198.47 150.649 198.583C150.921 199.082 151.148 198.696 151.125 198.47C150.989 197.632 151.556 197.428 152.122 197.247C152.348 197.179 152.484 197.065 152.53 196.884C152.734 195.457 154.025 194.913 154.863 193.984C155.293 193.509 155.973 193.214 156.109 192.489C156.132 192.331 156.2 192.149 156.313 192.059C158.148 190.949 158.759 188.774 160.323 187.437C160.504 187.302 160.594 187.075 160.821 186.962C162.271 186.124 163.698 185.263 165.239 184.651C165.306 184.628 165.397 184.606 165.465 184.606C166.099 184.492 167.028 184.175 167.3 184.606C167.685 185.172 167.119 185.965 166.779 186.577C165.782 188.298 164.196 189.454 162.837 190.836C162.701 190.971 162.475 191.107 162.452 191.266C162.135 192.92 160.594 193.599 159.711 194.8C159.281 195.366 158.986 196.001 158.488 196.544C157.536 197.609 156.562 198.696 155.588 199.739C153.617 201.891 152.28 204.496 150.287 206.603C149.924 206.988 149.721 207.441 149.471 207.894C149.177 208.415 149.177 209.14 148.293 209.344C148.089 209.389 147.682 210.386 147.365 210.952C146.572 212.266 145.303 213.15 144.42 214.373C143.106 216.185 141.837 218.043 140.5 219.833C139.798 220.761 139.028 221.645 138.348 222.619C137.351 224.024 136.151 225.27 135.72 227.014C135.675 227.24 135.358 227.422 135.131 227.558C134.973 227.648 134.656 227.603 134.769 227.852C135.29 228.872 134.384 229.302 133.999 230.004C132.504 232.7 130.782 235.237 129.853 238.273C129.128 240.629 129.309 242.94 129.219 245.296C129.128 247.924 129.944 250.393 130.918 252.726C131.643 254.471 132.889 256.034 134.044 257.574C135.584 259.59 137.873 260.293 139.979 261.425C142.041 262.535 144.216 262.082 146.345 262.309C149.675 262.649 152.801 261.312 156.064 261.267C158.238 261.244 160.413 261.108 162.565 260.882C164.831 260.632 167.028 260.066 169.226 259.432C172.239 258.548 175.32 257.778 178.4 257.166C180.802 256.691 183.135 256.011 185.401 255.15C188.006 254.153 190.566 253.089 193.42 252.998C194.349 252.975 194.825 253.293 195.051 254.153C195.504 255.875 195.459 257.665 195.459 259.409C195.459 261.176 195.3 262.988 194.847 264.71C194.372 266.568 194.349 268.516 194.19 270.396C194.1 271.597 194.1 272.866 194.032 274.112C193.941 276.536 193.828 278.937 193.058 281.315C192.605 282.743 192.537 284.306 192.378 285.824C192.197 287.591 192.378 289.403 191.472 291.057C191.291 291.396 191.313 291.918 191.336 292.348C191.426 294.138 190.86 295.837 190.702 297.558C190.634 298.193 190.543 298.918 190.294 299.348C189.727 300.367 189.977 301.364 189.999 302.338C190.045 303.607 189.727 304.853 189.682 306.099C189.682 306.62 189.524 307.209 189.025 307.571C188.142 308.206 185.31 307.3 185.197 306.212C185.106 305.329 185.106 304.423 185.287 303.448C185.536 302.044 186.08 300.639 185.922 299.121C185.808 297.943 185.99 296.675 186.284 295.52C186.782 293.594 186.647 291.578 187.303 289.697C187.666 288.61 187.689 287.387 187.757 286.254C187.938 283.4 188.617 280.636 189.32 277.872C189.524 277.079 189.274 276.309 189.274 275.539C189.32 272.956 189.342 270.306 189.75 267.791C190.045 265.956 190.158 264.053 190.52 262.196C190.815 260.632 191.494 258.797 190.588 256.985L190.452 256.962Z" fill="#25716A"/>
<path fill-rule="evenodd" clip-rule="evenodd" d="M205.857 115.579C207.828 115.488 209.685 115.035 211.611 114.378C213.378 113.767 215.077 112.453 217.184 112.951C217.75 113.087 218.113 113.314 218.339 113.789C220.265 117.527 223.572 118.864 227.514 119.204C229.032 119.317 230.436 118.796 231.931 118.796C232.656 118.796 233.404 118.207 234.061 117.776C235.692 116.712 239.294 116.802 240.291 118.592C241.084 119.997 241.854 121.401 242.851 122.67C243.825 123.893 244.731 125.184 246.385 125.615C246.928 125.751 247.427 126.158 247.925 126.476C249.262 127.359 250.87 127.201 252.297 127.699C253.77 128.197 254.518 129.171 254.518 130.803C254.518 134.563 255.537 138.188 256.239 141.835C256.307 142.197 256.534 142.583 256.783 142.877C258.822 145.369 259.32 148.201 258.731 151.282C258.663 151.667 258.573 152.075 258.414 152.414C258.074 153.162 257.87 154.113 256.783 154C255.628 153.864 254.812 152.89 254.721 151.712C254.631 150.534 254.631 149.333 254.472 148.155C254.268 146.57 254.246 144.916 252.66 143.896C252.252 143.625 252.252 142.9 252.094 142.401C251.482 140.521 250.417 138.731 250.757 136.602C250.825 136.126 250.576 135.605 250.462 135.107C250.394 134.835 250.145 134.495 250.236 134.337C250.87 133.226 250.44 132.298 249.964 131.256C249.692 130.667 249.534 130.304 248.854 130.123C245.229 129.171 241.945 127.495 239.226 124.912C238.456 124.188 237.98 123.123 237.708 122.035C237.482 121.039 236.915 120.767 235.987 121.243C235.058 121.741 234.016 121.786 232.996 121.967C231.275 122.262 229.508 122.851 227.808 122.534C226.404 122.262 224.954 122.081 223.527 121.718C221.397 121.197 219.653 119.974 217.841 118.864C217.071 118.388 216.21 118.116 215.757 117.233C215.575 116.87 215.213 116.848 214.941 117.052C213.401 118.207 211.52 118.071 209.776 118.524C206.083 119.476 202.708 118.298 199.446 116.893C197.407 116.009 195.957 114.265 194.96 112.204C194.371 111.003 193.873 109.825 193.601 108.488C193.012 105.385 194.53 102.961 196.025 100.514C196.523 99.7213 197.543 99.4947 198.358 99.8119C199.31 100.197 199.423 101.126 199.31 102.123C199.174 103.55 198.29 104.682 198.086 106.11C197.837 107.809 198.245 109.304 198.993 110.776C199.129 111.048 199.264 111.343 199.355 111.637C199.627 112.634 200.171 113.563 201.031 113.993C202.549 114.718 203.999 115.738 205.834 115.624L205.857 115.579Z" fill="#27716B"/>
<path fill-rule="evenodd" clip-rule="evenodd" d="M233.54 222.687C233.11 223.751 233.721 224.658 233.857 225.654C234.016 226.742 233.812 227.897 233.699 229.03C233.631 229.709 233.563 230.366 233.993 230.933C234.084 231.069 234.22 231.182 234.174 231.34C233.789 232.858 234.106 234.376 234.084 235.871C234.038 238.069 234.016 240.289 233.948 242.486C233.835 245.93 233.653 249.396 233.608 252.839C233.608 254.153 233.064 255.399 233.042 256.645C232.996 258.57 232.702 260.496 232.566 262.422C232.453 264.053 232.43 265.706 232.113 267.36C231.705 269.558 231.456 271.778 230.459 273.839C230.119 274.519 229.712 275.131 229.1 275.606C228.533 276.037 227.967 275.855 227.423 275.561C226.925 275.289 227.061 274.881 227.038 274.383C226.993 273.069 227.197 271.8 227.514 270.554C227.627 270.169 227.378 269.875 227.288 269.535C227.038 268.719 226.766 267.881 227.514 267.134C227.65 266.998 227.786 266.771 227.741 266.613C227.288 264.461 227.967 262.354 228.035 260.224C228.126 257.37 228.737 254.583 228.783 251.729C228.783 250.913 228.715 249.849 229.326 249.056C229.485 248.829 229.417 248.603 229.326 248.376C229.123 247.606 228.873 246.949 229.326 246.066C229.598 245.522 229.236 244.525 229.372 243.687C229.666 241.807 229.576 239.881 229.349 238.001C229.213 237.004 229.598 236.166 229.734 235.26C229.779 234.942 230.006 234.58 229.825 234.353C228.669 232.949 229.53 231.454 229.462 229.981C229.394 228.463 229.394 226.9 229.1 225.45C228.737 223.593 228.76 221.712 228.352 219.855C227.945 217.997 227.65 216.094 227.242 214.237C226.766 212.062 226.495 209.91 226.313 207.712C226.245 206.761 225.543 205.968 225.634 204.971C225.77 203.204 225.883 201.46 226.064 199.693C226.155 198.832 226.585 198.13 227.582 198.198C228.533 198.288 228.896 198.991 228.919 199.874C228.987 202.887 229.825 205.719 230.595 208.596C231.048 210.295 231.796 211.994 231.728 213.852C231.728 214.123 231.818 214.418 231.932 214.644C232.724 216.344 232.498 218.314 233.246 220.036C233.585 220.829 233.11 221.826 233.517 222.687H233.54Z" fill="#25716A"/>
<path fill-rule="evenodd" clip-rule="evenodd" d="M214.691 83.0023C216.39 82.9117 218.203 82.6851 219.788 83.1609C221.827 83.7952 224.093 84.0897 225.724 85.7208C226.245 86.2418 226.63 85.8114 227.083 85.6301C229.122 84.6787 230.934 83.2062 233.154 82.6398C236.213 81.8696 239.339 81.3259 242.488 81.779C244.957 82.1414 247.313 83.0023 249.669 83.8631C251.799 84.656 253.339 86.1512 255.242 87.1933C256.171 87.6917 256.714 88.7337 257.236 89.6172C257.734 90.4328 258.3 90.7046 259.161 90.5234C260.475 90.2289 261.812 90.1383 263.148 90.1383C263.941 90.1383 264.711 90.2289 265.459 90.5008C266.093 90.7273 266.682 90.9765 267.384 90.8406C267.928 90.7273 268.359 91.0898 268.744 91.4522C269.74 92.3584 270.76 93.1739 272.187 93.2192C272.368 93.2192 272.595 93.3098 272.731 93.4458C276.446 96.7759 279.822 100.287 280.025 105.702C280.071 106.494 279.957 106.766 279.074 106.608C277.148 106.223 276.627 105.543 275.97 103.685C275.54 102.507 274.588 101.465 273.705 100.491C272.663 99.3585 272.006 97.9313 270.715 97.0477C267.679 94.9636 264.825 92.3584 260.611 93.5137C259.07 93.9441 257.439 93.8082 255.831 93.695C255.491 93.695 255.106 93.3552 254.902 93.0607C253.701 91.4522 252.342 90.0024 250.847 88.6431C249.692 87.601 248.355 86.9894 247.064 86.2645C246.588 85.9926 246.022 85.8114 245.478 86.1059C245.161 86.2645 244.934 86.1738 244.708 86.0153C242.782 84.5201 240.653 85.1318 238.523 85.2224C236.484 85.313 234.627 85.834 232.837 86.7402C231.523 87.3972 230.3 88.258 228.941 88.8244C226.607 89.7985 224.478 89.5266 222.28 87.9862C220.151 86.491 217.704 85.4489 214.918 86.1285C213.717 86.423 212.494 86.7175 211.293 87.012C211.135 87.0573 210.885 87.1253 210.863 87.2159C210.636 88.2807 209.617 88.5299 208.892 89.0735C208.099 89.6626 207.782 90.6367 207.193 91.3163C205.992 92.6529 205.335 94.3066 204.18 95.6205C203.727 96.1189 203.093 96.3681 202.436 96.0963C201.756 95.8244 201.461 95.2128 201.461 94.4652C201.461 91.928 202.481 89.9117 204.316 88.19C204.656 87.8729 205.516 87.7596 205.199 86.8082C205.131 86.6269 206.173 86.0606 206.717 85.6528C208.983 83.8858 211.746 83.0249 214.714 83.0249L214.691 83.0023Z" fill="#27716B"/>
<path fill-rule="evenodd" clip-rule="evenodd" d="M93.198 43.3353C95.101 43.5165 97.0039 43.4259 98.9068 43.5165C100.787 43.6072 102.69 43.4712 104.57 43.5619C106.269 43.6298 107.493 45.0117 107.108 46.7334C106.904 47.6396 106.904 48.5457 106.904 49.4292C106.904 51.4681 106.949 53.4843 106.655 55.5231C106.587 56.0442 106.768 56.6332 106.904 57.1542C107.153 58.0151 107.379 58.8306 106.677 59.6009C106.451 59.8501 106.632 60.1219 106.677 60.3937C106.745 60.9374 106.836 61.5038 106.836 62.0475C106.813 63.6559 106.315 63.9957 104.684 63.6786C103.03 63.3614 101.376 62.9536 99.6997 63.1349C97.2531 63.4067 94.8065 63.0443 92.3598 63.1349C91.5216 63.1575 90.7514 62.8177 89.9132 62.863C89.5507 62.863 88.9844 62.4779 88.9844 62.0475C88.9844 60.575 88.2595 59.1251 88.7805 57.63C88.8938 57.3128 88.8258 57.0183 88.7805 56.7012C88.1915 53.371 88.4634 50.0182 88.554 46.6881C88.554 46.5295 88.6219 46.3936 88.5993 46.235C88.4634 44.3094 89.5281 43.1994 91.431 43.2674C92.02 43.29 92.609 43.3353 93.2207 43.358L93.198 43.3353ZM101.24 54.5943C100.221 54.3451 99.5638 54.549 99.6091 55.6591C99.6544 56.9277 99.8583 58.1737 99.8583 59.4196C99.8583 60.0992 100.289 60.0992 100.674 60.0992C101.127 60.1219 101.58 59.986 102.033 59.986C102.486 59.986 102.237 59.7141 102.305 59.5556C102.849 58.4455 102.124 57.3128 102.418 56.1575C102.577 55.5685 102.849 54.0733 101.218 54.5717L101.24 54.5943ZM101.331 51.5814C101.58 51.2415 102.599 52.1477 102.418 51.0603C102.237 49.9503 102.056 48.9308 102.577 47.8661C102.69 47.6396 102.531 47.2318 102.418 46.9599C101.988 45.9858 101.104 46.5975 100.447 46.4616C99.8583 46.3256 100.085 47.0053 100.04 47.3224C99.9489 48.1833 99.9036 49.0441 99.813 49.905C99.6544 51.3095 99.8583 51.5587 101.331 51.5814ZM94.1722 51.604C95.3728 51.604 95.3502 51.6267 95.2595 50.494C95.2142 50.0182 95.1463 49.4519 95.3728 49.0894C95.7806 48.4551 95.5314 47.9114 95.4861 47.2771C95.3728 45.6687 94.2401 46.8693 93.6285 46.6201C93.0395 46.3709 93.2433 47.1412 93.1301 47.5263C92.9488 48.138 93.6058 48.727 92.9942 49.4519C92.677 49.8143 92.9942 50.8111 93.2207 51.4907C93.334 51.8306 93.8777 51.4907 94.1722 51.604ZM95.3728 55.274C95.4408 55.0701 95.5087 54.7076 95.2369 54.5943C94.6026 54.3225 94.0362 54.8209 93.4019 54.8662C92.9942 54.9115 93.0395 55.3419 93.0848 55.6591C93.2887 56.905 93.4699 58.151 93.198 59.397C93.1301 59.6462 93.2433 59.8501 93.5152 59.9633C94.376 60.2805 95.7126 59.3743 95.3955 58.5814C94.9424 57.4487 95.2822 56.4067 95.3502 55.274H95.3728Z" fill="#25716A"/>
<path fill-rule="evenodd" clip-rule="evenodd" d="M289.178 165.531C287.683 165.145 286.301 165.938 284.874 166.097C283.945 166.188 283.107 165.916 282.223 165.938C281.408 165.938 280.705 164.194 281.272 163.65C281.611 163.333 282.291 163.333 282.812 163.243C285.938 162.812 289.019 162.155 292.213 162.54C293.89 162.744 295.453 163.288 297.016 163.809C298.534 164.307 300.052 164.896 301.456 165.621C303.699 166.777 305.443 168.453 306.757 170.673C307.799 172.44 307.981 174.411 308.456 176.314C308.774 177.583 309.159 178.715 309.816 179.803C310.971 181.706 311.945 183.676 312.557 185.806C313.395 188.728 313.282 191.741 312.511 194.664C311.99 196.612 311.537 198.583 310.654 200.395C310.269 201.165 309.476 201.709 309.227 202.593C308.57 204.835 306.712 205.923 305.036 207.282C303.495 208.505 302.068 208.618 300.414 207.871C299.553 207.486 299.485 206.829 300.074 206.081C300.641 205.356 301.524 205.107 302.159 204.45C303.722 202.864 305.353 201.392 306.214 199.217C307.029 197.201 307.618 195.162 307.981 193.01C308.252 191.379 308.32 189.748 308.343 188.139C308.388 185.942 307.46 183.948 306.123 182.227C305.647 181.615 305.353 180.981 305.081 180.278C304.039 177.492 303.631 174.502 302.498 171.783C302 170.582 300.935 169.201 299.599 168.634C296.269 167.184 292.984 165.417 289.178 165.553V165.531Z" fill="#25716A"/>
<path fill-rule="evenodd" clip-rule="evenodd" d="M52.3076 70.2486C53.8254 69.4104 55.2752 70.3392 56.7931 70.7243C58.5148 71.1774 60.8934 73.9865 60.8708 75.3457C60.8708 75.98 61.1426 76.5917 60.8481 77.2713C60.6442 77.7697 60.8481 78.404 61.1426 78.8798C61.8902 80.1484 61.6184 81.5982 61.9129 82.9575C62.0714 83.6824 61.9808 84.43 61.7996 85.1776C61.6637 85.6759 61.6184 86.197 62.0714 86.786C62.5472 87.3976 62.4792 88.3491 62.3886 89.1873C62.1847 91.0902 62.0941 92.9932 62.0941 94.8961C62.0941 95.621 62.298 96.6858 61.3692 97.0709C60.3044 97.524 59.353 97.1162 58.6507 96.1874C57.8125 95.0773 57.3594 93.8314 57.5406 92.4268C57.6313 91.8152 57.5406 91.2488 57.4047 90.6825C57.3594 90.4559 57.2235 90.2067 57.2461 90.0029C57.586 88.0093 57.0423 86.0158 57.2461 84.0222C57.45 82.3458 57.0423 80.76 56.7931 79.1289C56.6118 77.9736 56.6118 76.7956 56.2947 75.6402C55.7963 73.8506 53.5989 72.6726 52.5115 73.8053C51.56 74.802 50.5632 75.7762 50.1554 77.294C49.4079 80.0125 48.9548 82.7309 48.7056 85.54C48.5923 86.786 48.4337 87.9867 48.4337 89.2553C48.4337 91.3847 48.2752 93.5142 48.4564 95.6437C48.5244 96.4366 46.9612 97.6146 46.0324 97.5919C44.8091 97.5919 44.0842 96.799 44.0389 95.6663C43.9936 94.2618 43.903 92.8119 43.6991 91.4301C43.4272 89.3912 44.424 87.5109 44.1521 85.4947C43.8803 83.5918 44.5373 81.7115 44.4466 79.8086C44.4466 79.3555 44.8997 78.8571 45.081 78.3587C45.3981 77.4526 45.9192 76.5917 45.7153 75.5496C45.602 74.9606 46.123 74.5755 46.3722 74.1677C47.5276 72.2421 48.8415 70.4751 51.3335 70.158C51.628 70.1127 51.8998 69.9541 52.3529 70.2259L52.3076 70.2486Z" fill="#27716B"/>
<path fill-rule="evenodd" clip-rule="evenodd" d="M282.268 110.029C283.038 110.233 283.899 110.618 284.602 111.411C285.938 112.974 286.686 114.831 287.524 116.644C288.068 117.799 288.883 118.864 289.087 120.178C289.359 121.99 289.653 123.802 289.948 125.615C290.356 128.061 288.861 130.327 289.246 132.773C289.314 133.249 288.928 133.589 288.611 133.929C286.935 135.832 287.071 138.006 287.343 140.385C287.569 142.265 287.592 144.191 287.388 146.139C287.116 148.677 285.961 150.761 284.715 152.845C283.899 154.227 282.563 155.156 281.294 156.107C280.818 156.469 280.139 156.583 279.686 155.971C279.346 155.473 278.462 156.311 278.44 155.518C278.44 154.838 278.644 154.091 278.915 153.456C279.301 152.641 279.799 151.893 280.343 151.191C281.136 150.172 281.657 149.039 282.2 147.884C282.767 146.66 282.744 145.46 282.653 144.123C282.449 141.337 282.54 138.55 282.517 135.741C282.517 135.129 282.721 134.722 283.242 134.246C284.262 133.272 284.511 131.777 284.76 130.417C284.896 129.738 285.259 129.149 285.304 128.447C285.349 127.631 285.598 126.906 285.145 126C284.737 125.184 285.145 124.006 285.145 122.987C285.145 121.288 284.352 119.725 283.605 118.411C282.676 116.78 282.155 115.013 281.249 113.427C280.932 112.861 280.773 112.249 280.705 111.615C280.569 110.369 280.886 110.029 282.336 110.051L282.268 110.029Z" fill="#25716A"/>
<path fill-rule="evenodd" clip-rule="evenodd" d="M141.905 11.1667C143.173 10.8495 143.921 11.9596 144.691 12.9564C144.918 13.2282 145.099 13.5227 145.371 13.7493C146.096 14.3156 146.549 14.5875 147.41 13.5907C148.293 12.5712 149.471 11.801 150.174 10.5777C150.287 10.3738 150.581 10.4191 150.695 10.3512C151.148 10.0793 151.805 9.96604 151.85 9.26377C151.873 8.83334 152.19 8.40292 152.439 8.33496C153.821 7.92718 154.206 6.56795 154.976 5.63913C156.675 3.60028 158.601 1.81061 160.957 0.541989C161.523 0.247488 162.293 -0.296207 162.814 0.20218C163.426 0.768529 163.041 1.65203 162.656 2.309C161.931 3.57762 161.229 4.89155 159.983 5.79771C159.348 6.25079 159.167 7.11164 158.714 7.76861C157.989 8.81069 157.128 9.76215 156.313 10.7136C155.293 11.9143 153.957 12.8657 152.824 14.0211C152.484 14.3609 152.076 14.5648 152.054 15.1311C152.054 15.335 151.873 15.6069 151.691 15.6975C150.355 16.4224 149.517 17.759 148.248 18.5745C147.885 18.8011 147.523 18.869 147.251 18.7558C145.575 18.0762 143.536 18.1894 142.426 16.3092C142.041 15.6522 141.429 15.7655 140.817 16.2412C140.002 16.8528 139.39 17.6684 138.96 18.5066C138.258 19.9111 136.921 20.8173 136.309 22.2671C136.037 22.9015 135.29 23.1733 134.814 23.6264C133.523 24.827 133.183 26.73 131.484 27.6361C130.804 27.9986 130.261 28.9727 129.558 29.5844C129.037 30.0375 126.772 30.1734 126.274 29.7656C125.911 29.4711 126.228 29.1086 126.364 28.8141C127.361 26.9112 128.403 25.0083 129.808 23.4225C130.918 22.1539 131.778 20.704 132.866 19.4581C133.84 18.348 134.384 16.8528 135.834 16.1732C136.06 16.06 136.128 15.7881 136.173 15.471C136.445 13.568 139.594 11.0987 141.837 11.1894L141.905 11.1667Z" fill="#27716B"/>
<path fill-rule="evenodd" clip-rule="evenodd" d="M76.8426 64.6752C77.0239 67.2804 77.4316 69.8856 77.341 72.4909C77.2731 74.7789 77.6582 77.0443 77.341 79.3097C77.1824 80.3065 77.8621 81.2353 77.6808 82.2321C77.341 84.1123 77.5449 86.0153 77.4316 87.8955C77.2731 90.5008 77.3863 93.1286 77.4316 95.7338C77.4543 96.7079 76.9559 97.0024 76.1404 97.0251C75.4608 97.0251 74.7811 97.0251 74.1242 96.9118C73.1727 96.7532 72.5837 95.6659 72.697 94.6464C72.9462 92.3357 73.286 90.025 72.697 87.7143C72.629 87.4878 72.6064 87.2159 72.697 87.012C73.4899 85.1091 72.697 83.1835 72.9009 81.2806C73.1727 78.4488 72.6064 75.6624 72.5837 72.8307C72.5837 72.2417 72.8555 71.562 73.0141 70.9504C73.3313 69.7497 72.9008 68.7303 72.6063 67.6429C72.561 67.4617 72.4931 67.2578 72.5157 67.0766C72.9235 64.1089 72.5384 61.1186 72.9462 58.1735C73.1954 56.4518 72.6517 54.7755 72.9009 53.0764C73.15 51.4453 73.3766 51.2414 74.7132 51.2641C75.4154 51.2641 75.574 51.6492 75.7099 52.1702C76.231 54.0505 76.3216 56.0214 76.5255 57.9244C76.7973 60.1671 76.7973 62.4325 76.9106 64.6752C76.888 64.6752 76.8426 64.6752 76.82 64.6752H76.8426Z" fill="#27716B"/>
<path fill-rule="evenodd" clip-rule="evenodd" d="M129.989 38.5103C130.419 37.6947 131.121 37.219 131.801 36.7886C133.93 35.4067 136.173 34.2287 138.506 33.2319C139.956 32.6203 141.293 31.6914 142.788 31.3063C145.031 30.7173 147.024 29.2448 149.516 29.5846C150.06 29.6526 150.422 29.8565 150.717 30.3775C151.397 31.5782 151.464 32.9148 151.759 34.1834C152.099 35.6559 152.099 35.4973 153.594 35.0895C155.293 34.6365 156.901 33.9115 158.646 33.5264C160.889 33.028 163.154 32.4617 165.261 31.6008C166.937 30.9212 168.546 30.3775 170.335 30.3096C170.856 30.2869 171.287 30.3096 171.513 30.8532C171.717 31.3743 171.355 31.6914 170.992 31.9406C168.41 33.6397 165.85 35.2934 162.746 35.973C159.529 36.6527 156.358 37.5815 153.367 39.0087C152.008 39.6656 149.199 39.054 148.18 38.0119C147.953 37.7854 147.704 37.4909 147.772 37.1737C148.066 35.973 146.979 35.1348 147.002 34.0021C147.002 33.5944 146.662 33.6397 146.39 33.753C144.691 34.4779 142.992 35.2028 141.27 35.9051C140.115 36.3808 138.959 36.9698 137.759 37.1737C135.856 37.4909 134.247 38.5103 132.458 39.054C132.027 39.1899 131.506 39.4391 131.189 38.8501C130.917 38.3064 130.464 38.5782 129.989 38.5329V38.5103Z" fill="#27716B"/>
<path fill-rule="evenodd" clip-rule="evenodd" d="M267.884 148.654C272.981 148.269 274.952 151.214 275.042 155.994C275.088 159.437 274 162.699 272.324 165.735C272.142 166.075 271.871 166.369 271.576 166.641C271.168 167.026 270.783 167.457 270.557 167.932C268.971 170.968 266.66 173.143 263.375 174.207C262.832 174.389 262.243 174.457 261.767 174.094C261.405 173.822 261.065 173.822 260.657 173.845C259.955 173.913 259.547 173.505 259.434 172.848C259.32 172.169 259.66 171.829 260.317 171.58C262.65 170.696 264.689 169.405 265.731 167.003C266.026 166.324 266.819 166.346 267.113 165.576C267.861 163.651 269.175 161.997 269.922 160.049C270.874 157.557 271.01 155.087 270.036 152.596C269.628 151.576 268.11 151.372 266.909 152.029C265.935 152.55 265.165 153.343 264.282 153.977C263.625 154.476 262.877 154.793 262.197 153.977C261.88 153.615 260.974 154.34 261.087 153.388C261.201 152.369 261.291 151.146 262.265 150.67C263.421 150.104 264.395 149.175 265.709 148.858C266.502 148.676 267.272 148.608 267.861 148.608L267.884 148.654Z" fill="#27716B"/>
<path fill-rule="evenodd" clip-rule="evenodd" d="M164.785 62.8856C162.021 62.138 159.099 62.0474 156.358 61.0053C154.07 60.1445 151.759 59.2383 149.267 59.0118C147.002 58.8079 145.914 57.1768 146.888 55.1833C147.364 54.2318 147.727 53.1671 148.655 52.4648C148.995 52.2156 149.199 51.7852 149.04 51.2868C148.905 50.8337 148.565 50.7431 148.134 50.6751C146.027 50.3806 143.966 49.9502 141.859 49.7916C139.209 49.6104 136.671 48.8401 133.998 48.7495C133.115 48.7495 132.39 48.0019 132.095 47.1638C131.778 46.2349 132.933 45.3967 134.225 45.5327C135.743 45.6686 137.283 45.7366 138.756 46.3256C140.5 47.0278 142.38 46.6201 144.192 46.9146C144.396 46.9372 144.623 46.8919 144.781 46.9599C146.481 47.7528 148.338 47.8207 150.15 47.866C151.328 47.9113 152.371 48.4097 153.458 48.7042C154.364 48.9534 154.523 49.9502 154.296 50.811C153.911 52.3742 153.254 53.8014 152.235 55.0473C151.578 55.8629 151.691 56.248 152.71 56.4972C154.749 56.9956 156.901 57.2221 158.782 58.1056C159.824 58.5814 160.979 58.672 161.953 59.2383C162.542 59.5781 163.177 59.7141 163.879 59.782C165.238 59.8726 166.008 60.9147 166.778 61.8435C167.028 62.138 166.982 62.5231 166.439 62.6138C165.895 62.7044 165.374 62.9762 164.785 62.8856Z" fill="#27716B"/>
<path fill-rule="evenodd" clip-rule="evenodd" d="M207.035 201.188C207.307 199.308 206.786 197.631 206.877 195.932C206.945 194.437 206.967 192.919 207.352 191.492C207.76 189.997 208.644 188.751 210.184 188.23C210.841 188.003 211.43 187.573 212.2 187.596C212.88 187.596 213.469 187.664 213.741 188.388C214.035 189.136 214.103 189.884 213.333 190.382C211.815 191.356 211.702 192.829 211.521 194.414C211.249 196.861 211.521 199.24 211.679 201.664C211.838 203.725 211.951 205.877 210.841 207.803C210.683 208.052 210.569 208.256 210.32 208.392C207.624 209.729 204.793 210.657 201.802 211.11C201.372 211.178 200.624 211.45 200.103 211.858C198.427 213.172 196.501 214.078 194.53 214.894C193.579 215.279 192.718 214.962 191.88 214.735C191.132 214.531 191.155 212.877 191.902 212.447C192.718 211.994 193.307 211.178 194.326 211.11C194.462 211.11 194.666 210.997 194.734 210.884C195.776 209.185 197.838 209.57 199.288 208.732C200.76 207.871 202.459 207.667 204.045 207.123C204.362 207.01 204.657 206.987 204.974 207.01C206.084 207.01 206.877 206.353 206.877 205.243C206.877 203.838 207.398 202.434 207.058 201.211L207.035 201.188Z" fill="#27716B"/>
<path fill-rule="evenodd" clip-rule="evenodd" d="M282.563 306.507C282.563 307.299 282.608 308.092 282.563 308.885C282.495 309.656 282.155 310.177 281.271 309.746C281.022 309.633 280.796 309.746 280.592 309.678C279.754 309.497 279.142 309.18 278.961 308.138C278.757 306.937 279.3 305.578 278.304 304.49C278.281 304.468 278.236 304.4 278.258 304.4C279.119 303.426 277.76 302.225 278.598 301.251C278.666 301.16 278.689 300.979 278.644 300.934C277.715 300.005 278.462 298.895 278.304 297.898C278.1 296.539 278.19 295.157 278.055 293.798C277.828 291.464 277.76 289.131 277.851 286.775C277.919 284.419 277.511 282.063 278.213 279.73C278.44 278.959 278.53 278.166 279.006 277.51C279.187 277.26 279.323 276.875 279.663 276.898C280.048 276.921 280.229 277.328 280.343 277.645C280.728 278.733 281.113 279.82 281.135 280.998C281.294 288.202 282.178 295.384 282.359 302.61C282.381 303.924 282.517 305.215 282.608 306.529H282.585L282.563 306.507Z" fill="#27716B"/>
<path fill-rule="evenodd" clip-rule="evenodd" d="M278.825 244.253C277.738 244.253 277.285 243.823 277.375 242.713C277.489 241.308 277.828 239.926 278.757 238.816C279.052 238.431 278.984 238.001 279.21 237.616C279.754 236.664 279.822 235.486 280.705 234.693C281.43 234.036 281.294 232.972 281.838 232.134C282.676 230.865 283.333 229.302 284.239 228.169C284.964 227.263 285.417 225.836 286.822 225.428C287.411 225.269 287.524 224.499 287.977 224.046C288.725 223.321 289.563 222.959 290.56 222.8C290.9 222.732 291.194 222.732 291.421 223.004C291.693 223.298 291.557 223.57 291.421 223.865C290.401 225.836 289.495 227.897 288.113 229.642C286.573 231.545 285.463 233.697 284.443 235.894C283.401 238.114 282.223 240.289 281.362 242.6C280.864 243.936 280.23 244.299 278.825 244.276V244.253Z" fill="#27716B"/>
<path fill-rule="evenodd" clip-rule="evenodd" d="M216.436 133.702C216.142 136.262 215.304 138.618 214.239 140.974C213.287 143.081 211.86 144.961 211.294 147.272C211.113 147.974 211.022 148.631 211.18 149.356C211.362 150.307 211.135 151.191 210.184 151.689C209.3 152.142 208.689 151.463 208.235 150.942C206.287 148.654 206.106 147.204 207.329 144.417C208.371 142.016 210.07 140.023 210.841 137.395C211.452 135.288 212.562 133.045 214.239 131.346C215.213 130.372 215.757 130.485 216.232 131.799C216.459 132.411 216.391 133.045 216.414 133.702H216.436Z" fill="#27716B"/>
<path fill-rule="evenodd" clip-rule="evenodd" d="M221.329 168.861C221.555 171.081 220.627 172.825 218.927 174.071C217.659 175 216.186 174.592 214.872 173.981C214.102 173.641 213.423 173.21 213.037 172.304C212.698 171.511 212.335 170.605 212.879 170.152C213.332 169.767 214.283 169.722 215.122 169.971C215.711 170.152 216.254 171.172 216.798 170.56C217.41 169.858 217.614 168.816 217.636 167.819C217.636 166.709 217.319 165.644 217.183 164.557C217.092 163.832 216.798 163.311 216.39 162.767C216.073 162.382 215.824 162.246 215.575 162.903C215.144 164.013 214.623 165.1 214.125 166.188C213.921 166.618 213.74 167.162 213.173 167.094C212.607 167.003 212.109 166.618 211.973 166.052C211.316 163.356 212.29 160.071 215.62 159.845C218.021 159.686 219.516 160.592 220.4 162.926C221.125 164.851 221.238 166.867 221.351 168.884L221.329 168.861Z" fill="#27716B"/>
<path fill-rule="evenodd" clip-rule="evenodd" d="M287.75 189.136C289.676 188.593 291.669 188.411 293.572 187.754C295.317 187.165 297.038 187.369 298.76 187.89C299.19 188.026 299.326 188.457 299.281 188.864C299.213 189.521 298.873 190.042 298.307 190.36C298.08 190.495 297.763 190.586 297.514 190.563C294.863 190.269 292.553 191.379 290.151 192.172C287.297 193.101 284.511 194.188 281.679 195.094C279.595 195.774 277.375 195.774 275.2 195.751C274.86 195.751 274.362 195.819 274.271 195.253C274.18 194.732 274.362 194.369 274.905 194.165C276.65 193.508 278.235 192.466 280.07 191.968C281.656 191.538 283.106 190.79 284.737 190.428C285.417 190.269 286.074 189.431 286.957 189.295C287.229 189.25 287.478 189.182 287.75 189.114V189.136Z" fill="#27716B"/>
<path fill-rule="evenodd" clip-rule="evenodd" d="M291.783 209.865C290.968 209.502 290.084 210.272 289.495 209.978C288.272 209.389 287.026 209.751 285.825 209.548C285.01 209.412 284.172 209.366 283.356 209.321C280.887 209.185 278.44 209.23 275.994 208.573C274.634 208.211 273.071 208.573 271.621 208.528C270.375 208.483 269.084 208.551 267.997 207.69C267.43 207.237 267.43 206.942 268.019 206.535C269.129 205.81 270.33 205.402 271.667 205.492C274.997 205.764 278.327 206.036 281.657 206.263C282.835 206.353 284.058 206.172 285.191 206.399C287.728 206.942 290.266 206.784 292.803 206.829C293.55 206.829 294.185 207.237 294.298 208.098C294.411 208.891 294.207 209.502 293.233 209.593C292.757 209.638 292.304 209.751 291.829 209.842L291.783 209.865Z" fill="#27716B"/>
<path fill-rule="evenodd" clip-rule="evenodd" d="M112.953 183.224C112.454 183.224 112.046 183.02 111.661 182.703C109.872 181.321 108.603 179.531 107.629 177.538C107.244 176.767 107.357 175.884 107.538 175.091C107.697 174.321 108.241 174.026 109.056 174.14C110.664 174.389 111.299 175.725 111.956 176.881C112.681 178.149 113.632 179.259 114.334 180.551C114.629 181.072 115.422 181.434 114.946 182.182C114.493 182.907 113.745 183.201 112.907 183.224H112.953Z" fill="#27716B"/>
<path fill-rule="evenodd" clip-rule="evenodd" d="M99.4507 163.175C99.4507 162.721 99.4507 162.246 99.9264 162.042C100.538 161.793 101.195 161.815 101.716 162.268C102.871 163.288 104.004 164.375 104.706 165.757C105.159 166.618 105.862 167.343 106.088 168.34C106.292 169.291 106.292 170.061 105.431 170.65C104.48 171.285 103.438 171.058 102.826 170.379C101.58 168.997 99.3148 165.576 99.4733 163.175H99.4507Z" fill="#27716B"/>
<path fill-rule="evenodd" clip-rule="evenodd" d="M119.726 195.321C118.208 195.072 117.234 193.758 116.351 192.376C115.898 191.673 115.784 190.835 114.946 190.314C114.38 189.952 114.493 187.709 114.924 187.414C116.124 186.599 118.208 186.916 118.865 188.094C119.794 189.793 120.7 191.47 121.742 193.123C122.309 194.029 121.244 195.321 119.726 195.321Z" fill="#27716B"/>
<path fill-rule="evenodd" clip-rule="evenodd" d="M123.804 197.655C124.687 197.564 125.231 197.927 125.616 198.629C126.25 199.807 126.975 200.917 127.609 202.095C128.017 202.865 128.198 203.726 128.153 204.632C128.085 205.538 127.474 205.901 126.749 206.218C126.001 206.535 125.729 205.969 125.321 205.538C124.053 204.224 123.079 202.684 122.105 201.143C121.606 200.351 121.742 199.467 122.195 198.652C122.58 197.972 123.056 197.496 123.826 197.677L123.804 197.655Z" fill="#27716B"/>
<path fill-rule="evenodd" clip-rule="evenodd" d="M84.7932 141.903C84.5893 141.019 85.1557 140.634 85.8126 140.385C86.5829 140.09 87.4664 139.909 87.9421 140.725C88.6217 141.903 89.8224 142.763 90.1169 144.191C90.2981 144.984 91.2496 145.119 91.4761 146.026C91.68 146.932 91.5894 147.408 90.8645 147.929C90.0942 148.495 89.3693 148.789 88.4858 148.178C87.6476 147.589 87.0359 146.819 86.5149 145.98C85.722 144.712 85.0424 143.375 84.7705 141.903H84.7932Z" fill="#27716B"/>
<path fill-rule="evenodd" clip-rule="evenodd" d="M228.08 141.472C228.125 139.954 228.555 138.595 229.801 137.598C230.685 136.873 231.523 136.919 232.339 137.689C233.63 138.912 234.06 141.789 233.154 143.33C233.041 143.534 232.86 143.692 232.678 143.851C232.021 144.417 229.983 144.598 229.19 144.168C228.397 143.738 228.057 142.945 228.08 141.45V141.472Z" fill="#25716A"/>
<path fill-rule="evenodd" clip-rule="evenodd" d="M202.119 134.155C202.232 132.887 202.572 131.301 204.361 130.485C205.2 130.1 205.879 130.259 206.514 130.938C207.692 132.207 208.054 134.903 207.216 136.421C206.921 136.942 206.423 137.304 205.834 137.463C203.455 138.074 202.096 137.032 202.141 134.155H202.119Z" fill="#25716A"/>
<path fill-rule="evenodd" clip-rule="evenodd" d="M231.342 126.453C233.517 126.747 235.669 127.11 237.255 128.832C237.64 129.239 238.297 129.307 238.478 130.01C238.728 130.961 238.252 131.731 237.323 131.482C236.711 131.301 236.032 131.301 235.443 130.87C234.423 130.123 233.291 129.579 232.158 129.058C231.954 128.968 231.66 128.786 231.501 128.854C230.595 129.239 229.621 129.013 228.692 129.194C227.854 129.353 226.676 129.874 226.426 128.605C226.223 127.586 227.491 127.336 228.193 127.065C229.168 126.679 230.21 126.34 231.32 126.453H231.342Z" fill="#27716B"/>
<path fill-rule="evenodd" clip-rule="evenodd" d="M266.525 159.324C266.139 161.952 264.916 164.104 263.466 166.143C262.99 166.8 262.152 167.004 261.382 167.14C260.748 167.253 260.589 166.664 260.499 166.165C260.408 165.509 260.589 164.897 260.884 164.331C261.88 162.405 262.923 160.479 263.942 158.554C264.282 157.897 264.825 157.421 265.573 157.67C266.343 157.919 266.502 158.667 266.547 159.301L266.525 159.324Z" fill="#27716B"/>
<path fill-rule="evenodd" clip-rule="evenodd" d="M84.4992 136.285C84.318 137.01 84.3406 138.052 83.3665 138.369C82.4377 138.686 81.6674 138.12 81.1464 137.349C80.2402 135.99 79.2888 134.676 78.6092 133.181C78.2467 132.388 78.0881 131.573 78.6545 130.825C79.3567 129.851 80.127 129.851 80.9652 130.689C82.3471 132.048 83.3891 133.657 84.2726 135.401C84.4086 135.673 84.4992 135.9 84.4992 136.307V136.285Z" fill="#27716B"/>
<path fill-rule="evenodd" clip-rule="evenodd" d="M204.905 120.744C206.513 120.359 208.076 120.631 209.571 121.469C209.979 121.696 210.319 121.922 210.41 122.398C210.5 122.851 210.795 123.145 211.225 123.349C211.882 123.644 212.109 124.278 211.814 124.822C211.452 125.501 210.749 125.388 210.16 125.003C209.118 124.256 207.963 123.78 206.762 123.349C205.743 122.987 204.814 122.874 203.772 123.304C202.843 123.689 201.824 123.395 200.85 123.372C200.51 123.372 200.374 123.01 200.283 122.692C200.17 122.262 200.419 121.99 200.759 121.854C202.05 121.265 203.319 120.495 204.905 120.812V120.744Z" fill="#27716B"/>
<path fill-rule="evenodd" clip-rule="evenodd" d="M75.0528 128.446C74.3958 128.197 73.467 127.427 73.3084 126.657C73.0139 125.23 71.9039 124.527 71.2243 123.485C70.522 122.398 70.5899 122.103 71.7 121.446C72.946 120.721 73.8748 121.061 74.7356 121.99C75.8004 123.145 76.9557 124.255 77.2955 125.909C77.3861 126.385 77.9978 126.974 77.5447 127.314C76.9104 127.789 76.344 128.514 75.0754 128.469L75.0528 128.446Z" fill="#27716B"/>
<path fill-rule="evenodd" clip-rule="evenodd" d="M91.7031 152.709C91.7031 151.372 92.6319 150.67 93.5381 151.1C94.2857 151.44 95.0559 151.825 95.5316 152.55C96.2792 153.728 97.0268 154.883 97.7064 156.084C98.0236 156.65 98.3181 157.353 97.5705 157.896C96.8682 158.395 96.2339 158.893 95.2598 158.145C93.2889 156.673 92.0656 154.793 91.7031 152.709Z" fill="#27716B"/>
<path fill-rule="evenodd" clip-rule="evenodd" d="M70.5221 116.258C70.4994 116.621 70.4994 116.961 70.4315 117.323C70.2955 118.116 70.1596 118.954 69.0722 118.977C68.0981 118.977 67.4185 118.682 66.9201 117.731C66.3311 116.598 65.6515 115.556 65.2664 114.288C64.9492 113.268 65.1757 112.475 65.7421 111.932C66.3311 111.388 67.1693 111.818 67.7583 112.362C68.3246 112.883 69.0269 113.245 69.5706 113.834C70.2276 114.559 70.6127 115.307 70.5221 116.281V116.258Z" fill="#27716B"/>
<path fill-rule="evenodd" clip-rule="evenodd" d="M132.525 213.897C131.801 213.784 131.008 213.671 130.577 212.878C130.26 212.289 129.83 211.745 129.558 211.133C129.082 210.091 128.742 209.049 129.988 208.211C130.464 207.894 130.464 206.874 131.076 206.988C131.801 207.124 132.276 207.894 132.525 208.596C132.933 209.751 133.726 210.726 134.111 211.858C134.542 213.127 133.953 213.874 132.548 213.852L132.525 213.897Z" fill="#27716B"/>
<path fill-rule="evenodd" clip-rule="evenodd" d="M218.43 151.78C218.498 152.845 217.932 153.343 217.025 153.366C215.643 153.411 214.08 152.392 214.103 151.554C214.126 150.489 215.372 149.266 216.414 149.266C217.614 149.266 218.43 150.33 218.43 151.78Z" fill="#27716B"/>
<path fill-rule="evenodd" clip-rule="evenodd" d="M180.122 160.275C180.281 157.081 183.747 154.748 186.624 156.175C187.53 156.628 188.028 157.33 187.96 158.282C187.892 159.278 187.145 159.664 186.193 159.822C184.426 160.117 182.886 161.045 181.232 161.634C180.326 161.952 179.963 162.042 180.122 160.955C180.122 160.796 180.122 160.638 180.122 160.275Z" fill="white"/>
<path fill-rule="evenodd" clip-rule="evenodd" d="M185.309 152.663C186.261 152.323 185.898 151.281 186.646 150.715C188.118 149.56 189.251 149.265 190.837 150.058C191.449 150.353 191.426 152.097 190.724 152.437C189.84 152.89 188.889 153.343 187.824 152.89C187.076 152.573 186.261 153.207 185.309 152.663Z" fill="white"/>
<path d="M2.46948 46.8466H70.3408L96.8459 13.1602H39.0556L2.46948 46.8466Z" fill="#EA8888"/>
<path fill-rule="evenodd" clip-rule="evenodd" d="M0 45.6916C1.01943 45.465 1.56312 45.0572 1.51782 43.8113C1.49516 42.8825 2.71848 42.5653 3.35279 41.931C4.25895 41.0248 5.43695 40.4132 6.0033 39.0766C6.2978 38.397 7.24927 38.0798 7.70235 37.3775C8.78974 35.7465 10.5114 34.8856 11.9613 33.6849C13.2752 32.6202 14.34 31.2383 15.6765 30.1509C16.9452 29.1315 17.7607 27.591 18.984 26.6169C20.6604 25.2803 22.0197 23.6266 23.6507 22.2447C24.9647 21.1347 26.5278 20.1152 27.3433 18.4615C27.4113 18.3256 27.5472 18.1896 27.6831 18.1443C29.3822 17.5327 30.243 15.9922 31.3531 14.7462C31.5796 14.497 31.8062 14.497 32.078 14.4517C32.6444 14.3385 33.0521 14.1119 32.9162 13.4323C32.8709 13.2284 32.9162 13.0019 33.1201 12.9113C35.0457 12.141 36.5635 10.2381 39.0328 10.963C40.0975 11.2802 41.2302 10.7591 42.3629 10.7365C46.2594 10.6459 50.1559 10.8724 54.0524 10.7365C56.4537 10.6685 58.923 10.4873 61.3923 10.8498C63.3632 11.1443 65.3793 10.6685 67.3729 10.7365C69.7289 10.8044 72.0623 10.7365 74.4183 10.8724C75.9814 10.963 77.5672 10.5779 79.153 10.7138C80.263 10.8044 81.3957 10.7138 82.5057 10.9177C84.386 11.2349 86.2663 10.6912 88.1692 10.8044C91.1822 10.963 94.1952 10.7591 97.2535 11.3028C99.2244 11.6653 100.402 12.4129 101.467 14.0213C102.577 15.7204 104.163 17.1022 105.364 18.756C107.629 21.8596 110.098 24.7819 112.25 27.9535C113.383 29.6525 114.561 31.4196 116.17 32.7788C117.076 33.549 117.529 34.7044 118.254 35.6105C120.723 38.7141 123.328 41.7271 124.801 45.4877C125.005 46.0314 125.48 46.711 125.095 47.1414C124.733 47.5492 123.917 47.2547 123.396 47.3226C121.992 47.5265 121.652 46.5524 120.972 45.7595C119.885 44.5135 118.888 43.1996 117.869 41.9083C116.396 40.0734 114.856 38.329 113.768 36.2222C113.089 34.9309 111.82 34.1607 111.05 32.9374C110.257 31.6914 109.351 30.5134 108.558 29.2674C107.81 28.0894 106.678 27.1606 105.817 25.9826C104.004 23.4227 101.875 21.0667 100.085 18.4615C99.5642 17.6912 98.8393 16.989 98.069 16.4906C97.4121 16.0375 97.616 15.222 96.8457 14.7462C94.6709 13.387 92.3376 13.7268 90.0722 13.7495C86.2663 13.7948 82.4378 14.2932 78.6546 13.908C74.5995 13.5003 70.5445 14.0666 66.5121 13.6588C65.6512 13.5682 64.7677 13.7495 63.9068 13.8174C61.3016 13.9987 58.7191 13.5456 56.1365 13.7495C52.8291 14.0213 49.5216 13.6362 46.2367 13.8854C43.9714 14.0666 41.6833 13.6362 39.4179 13.8854C38.8062 13.9533 37.1299 15.1087 36.8127 15.6977C36.6315 16.0149 36.337 16.3094 36.0425 16.5359C33.8903 18.099 31.9648 19.934 30.0618 21.7916C28.3175 23.4907 26.4145 25.0538 24.7381 26.7981C23.3562 28.2253 21.6119 29.3354 20.5245 31.0571C20.23 31.5102 19.8449 31.8047 19.3012 31.8953C19.052 31.9406 18.7575 32.1218 18.6216 32.3484C17.1491 34.795 14.4759 36.0183 12.7995 38.2837C12.1652 39.1446 11.0551 39.7109 10.1943 40.4358C9.51467 41.0022 8.94832 41.5232 8.5632 42.3161C8.06481 43.3582 7.18131 44.0831 6.32046 44.8534C7.31723 45.4424 8.35931 45.2611 9.33344 45.1025C10.2396 44.9666 10.6927 45.3744 10.9872 46.054C11.3723 46.9149 11.8254 47.8437 11.7121 48.7725C11.5309 50.2677 11.5762 51.7855 11.7121 53.2127C12.0293 57.0185 11.2817 60.8017 11.6668 64.6076C11.848 66.5332 11.6668 68.5041 11.6668 70.4523C11.6668 71.2226 11.5762 71.9701 11.9839 72.6951C12.0519 72.8083 12.0066 72.9896 11.9839 73.1482C11.5988 74.9152 11.5988 76.7048 11.916 78.4945C12.0519 79.2421 11.7574 79.967 11.7348 80.6919C11.6894 81.9379 11.7348 83.1839 11.6668 84.3845C11.5762 86.0609 12.2785 87.7147 11.6668 89.3684C11.4856 89.8441 11.9386 90.2066 11.8933 90.6144C11.5082 93.4235 11.8027 96.2099 11.7348 99.019C11.7348 99.6306 11.8027 100.242 12.7542 100.242C15.4727 100.288 18.1911 100.288 20.9096 100.333C22.3821 100.333 23.9679 100.265 25.4178 100.31C27.1621 100.356 28.9065 100.129 30.6508 100.22C33.5052 100.356 36.3596 100.242 39.214 100.22C40.9131 100.22 42.5895 100.265 44.2885 100.356C46.2141 100.446 48.185 100.129 50.1106 100.265C52.6478 100.446 55.1624 100.22 57.6544 100.265C60.3049 100.31 62.9327 100.265 65.5606 100.106C66.2629 100.061 66.9651 100.242 67.6448 100.356C69.5477 100.673 71.4506 100.401 73.3309 100.31C75.5057 100.197 77.6578 100.491 79.8099 100.356C84.3181 100.061 88.8489 100.582 93.3344 99.7213C94.5577 99.4721 96.0075 99.8119 97.3668 99.8119C99.9267 99.8119 102.487 99.8798 105.069 99.7666C106.496 99.6986 107.969 99.7666 109.396 99.9251C110.597 100.061 111.843 99.8345 113.066 99.7892C113.338 99.7892 113.496 99.6533 113.519 99.3588C113.542 98.9284 113.7 98.4753 113.61 98.0675C113.043 95.1905 113.27 92.3134 113.587 89.4364C113.655 88.8247 113.587 88.1677 113.451 87.5561C112.998 85.3587 114.017 83.0706 113.111 80.8958C113.972 79.1061 112.771 77.1579 113.564 75.3456C113.61 75.255 113.632 75.119 113.587 75.0058C112.771 72.3326 113.61 69.6594 113.542 66.9863C113.451 64.1998 112.907 61.4134 113.315 58.627C113.587 56.8146 113.27 54.9797 113.632 53.1447C113.836 52.08 113.36 50.9246 113.474 49.7466C113.542 49.0896 113.519 48.41 113.632 47.7304C113.791 46.8922 113.723 45.9407 114.969 45.8048C116.487 45.6236 117.37 45.9407 117.937 47.1867C118.322 48.0476 118.571 48.9764 118.027 49.8825C117.914 50.0864 117.914 50.2223 117.937 50.4262C118.231 54.0282 118.05 57.6528 118.027 61.2322C118.005 64.585 118.254 67.9377 117.959 71.2905C117.846 72.5818 117.551 73.9863 117.801 75.187C118.186 77.1806 117.416 79.1741 118.186 81.1224C118.435 81.7567 118.095 82.5042 117.982 83.2065C117.733 84.6564 118.186 86.1062 118.072 87.5561C117.937 89.4137 118.14 91.294 117.755 93.1516C117.71 93.4008 117.755 93.6953 117.846 93.9672C118.571 96.6856 118.14 99.3588 117.597 102.032C117.234 103.731 116.645 104.003 114.856 103.459C114.221 103.255 113.632 103.187 112.998 103.255C109.872 103.504 106.745 103.21 103.642 103.323C102.033 103.369 100.47 104.048 98.8393 103.686C95.2599 102.893 91.6353 103.504 88.0333 103.391C83.5252 103.255 79.0397 103.369 74.5542 103.301C70.1367 103.233 65.7192 103.165 61.3016 103.233C60.033 103.233 58.7417 103.686 57.4505 103.482C55.0945 103.097 52.7384 103.346 50.3824 103.482C49.3177 103.55 48.253 103.663 47.2109 103.278C47.0296 103.21 46.8258 103.233 46.6219 103.278C44.1073 103.572 41.5927 103.142 39.0781 103.323C37.4923 103.437 35.8839 103.278 34.2981 103.323C32.1686 103.414 30.0165 103.414 27.887 103.414C25.1006 103.414 22.3142 103.369 19.5277 103.369C16.2655 103.369 13.0034 102.961 9.74121 103.414C8.8577 103.527 7.90623 103.346 7.02273 102.848C6.18453 102.372 6.20719 101.647 6.61496 101.194C7.63439 100.038 7.22662 98.7245 7.15865 97.5012C7.136 96.9122 6.97742 96.3232 7.29458 95.8021C7.6797 95.1905 7.11335 94.6921 7.18131 94.1257C7.45316 91.951 7.29458 89.7762 7.136 87.624C7.04538 86.3781 7.81562 84.9735 6.79619 83.7955C6.68292 83.6823 6.86415 83.4331 6.90946 83.2518C7.27192 81.5981 7.38519 79.899 7.15865 78.2C7.09069 77.6789 7.09069 77.2032 7.15865 76.6822C7.36254 75.3682 7.38519 74.0996 7.136 72.7177C6.86415 71.3132 6.88681 69.7501 7.06804 68.2775C7.27192 66.3973 7.00008 64.517 7.45316 62.6594C7.56643 62.2289 7.4305 61.7532 7.33989 61.3001C7.06804 60.0542 7.61173 58.7402 7.09069 57.4716C6.95477 57.1771 7.06804 56.792 7.11335 56.4295C7.36254 54.9117 7.31723 53.3939 6.97742 51.8987C6.88681 51.5136 6.90946 51.1058 7.09069 50.8793C7.70235 50.0185 7.29458 49.1349 6.97742 48.4327C6.68292 47.7984 5.79942 47.9796 5.14245 48.0476C3.78321 48.1835 2.49194 47.7077 1.17801 47.4812C0.22654 47.3226 0.566349 46.2806 0.0679619 45.8275V45.5783L0 45.6916Z" fill="#25716A"/>
<path fill-rule="evenodd" clip-rule="evenodd" d="M24.0359 48.0473C22.9485 48.2285 21.5893 47.7981 20.2074 48.2965C19.3239 48.6136 18.3045 48.0926 17.3304 48.0926C16.4242 48.0926 15.5407 47.8661 14.6119 47.8887C14.0229 47.8887 13.5471 47.6848 13.3206 47.0505C13.0941 46.4162 13.4565 46.099 13.887 45.7592C15.3595 44.6492 17.0585 44.6265 18.7349 44.9663C20.6152 45.3515 22.4728 45.2608 24.3531 45.0796C25.0554 45.0117 25.8029 44.8984 26.4826 45.0796C28.5214 45.5327 30.5603 45.057 32.6218 45.2155C34.5474 45.3741 36.5409 45.2155 38.5118 45.1702C40.2788 45.1249 42.0685 45.3288 43.8355 45.2382C46.8938 45.1023 49.9521 45.1702 53.033 44.989C54.8906 44.8757 56.8615 45.0343 58.7871 45.1023C60.4862 45.1476 62.2758 45.4421 64.0202 45.0343C64.6092 44.8984 65.1982 45.1023 65.7872 45.1476C66.5121 45.1929 67.1238 45.3515 67.894 44.5133C68.8908 43.4485 70.0461 42.3385 70.9296 41.2284C72.5154 39.2349 75.0527 38.0342 75.8229 35.3837C75.8909 35.1798 76.0721 34.9759 76.2533 34.8174C78.4734 33.0957 79.9686 30.6717 81.9621 28.7688C83.0948 27.704 83.6159 26.2315 84.7486 25.2347C85.9719 24.17 87.0819 23.0147 88.0334 21.7007C88.9169 20.4548 90.2308 19.5486 91.001 18.212C91.1823 17.8722 91.5221 17.7136 91.8846 17.6683C92.6548 17.5777 93.425 17.4644 94.1953 17.4644C95.1014 17.4644 95.6451 18.801 95.0788 19.6392C94.8069 20.047 94.4898 20.5001 94.1046 20.7946C92.7907 21.7687 92.1337 23.1959 91.4541 24.6004C91.3635 24.8043 91.1823 25.0762 90.9784 25.1215C89.9137 25.3933 89.7098 26.3448 89.1887 27.0924C88.1466 28.6328 86.9233 30.0147 85.4055 31.0568C84.9298 31.374 85.2923 31.8497 84.8392 32.1895C82.4832 34.0018 80.7161 36.4485 78.7 38.5779C77.6579 39.688 76.2986 40.6621 75.687 42.2479C75.3698 43.0861 74.373 43.4712 73.784 44.2188C72.9685 45.2382 72.4701 46.4842 71.5186 47.3903C71.1562 47.7301 70.9523 47.9793 70.3859 48.0473C67.962 48.3418 65.4927 48.3871 63.0914 48.2512C59.7386 48.0473 56.4084 48.3191 53.0557 48.0473C51.0621 47.8887 49.0459 48.002 47.0297 48.1152C44.0394 48.2512 41.0264 48.002 38.0361 48.1152C35.2043 48.2285 32.3499 47.9567 29.5182 48.2512C27.8191 48.4324 26.0521 48.1379 24.0586 48.0473H24.0359Z" fill="#27716B"/>
</svg>
