<svg width="120" height="148" viewBox="0 0 120 148" fill="none" xmlns="http://www.w3.org/2000/svg">
<g clip-path="url(#clip0_125_11345)">
<path fill-rule="evenodd" clip-rule="evenodd" d="M31.1626 142.642C30.0646 142.236 28.7227 142.378 28.0314 141.079C26.9945 139.192 26.0389 137.305 25.8356 135.113C25.7339 134.017 25.1036 132.799 25.4493 131.886C26.2422 129.735 25.0426 128.01 24.7173 126.103C24.27 123.525 23.8837 120.948 23.4567 118.371C23.3754 117.823 23.2941 117.275 23.0907 116.768C22.0538 114.13 21.2405 111.451 21.0982 108.569C21.0575 107.636 20.5289 106.743 20.3662 105.809C20.0409 103.983 19.8173 102.157 19.5123 100.31C19.2073 98.4429 18.4753 96.6165 19.004 94.6278C19.1463 94.1001 18.699 93.4305 18.516 92.8217C18.4347 92.5173 18.2517 92.2331 18.1907 91.9287C17.4181 87.241 16.6048 82.5532 15.8932 77.8452C15.6492 76.242 15.6289 74.6185 15.5272 73.1168C13.616 72.6907 11.6031 72.3254 9.65122 71.7166C8.98026 71.5137 8.47195 70.7425 7.88232 70.2352C8.3093 69.7684 8.63461 69.1393 9.14291 68.8349C11.0948 67.7188 13.128 66.7041 15.1205 65.6489C13.8803 62.9905 15.1205 59.4797 18.882 58.2621C21.3218 57.4707 23.9243 56.7401 26.4659 58.2215C27.2588 58.6883 28.0518 60.9814 27.5841 61.7729C27.1775 62.4426 26.7912 63.1325 26.3642 63.8631C27.1978 63.9037 27.9908 63.7413 28.5194 64.0254C29.048 64.3095 29.7597 65.2024 29.6377 65.5677C29.3327 66.5012 28.7634 67.6985 27.9704 68.0638C26.3642 68.7944 24.5343 69.1393 22.7654 69.4843C21.4235 69.7481 20.0409 69.7279 18.2517 69.8699C20.2239 71.189 20.3662 72.9139 20.1832 74.8418C20.8949 74.8418 21.5252 74.8418 22.1758 74.8418C23.7007 74.8012 24.3107 75.2882 24.4733 76.8508C24.9613 81.64 25.3679 86.4293 25.8966 91.1982C26.1609 93.5319 26.6692 95.8454 27.0352 98.1791C27.4825 100.858 27.9094 103.537 28.3364 106.215C28.6821 108.326 28.987 110.436 29.3123 112.547C29.6377 114.698 29.9223 116.869 30.2273 119.02C30.2273 119.061 30.2273 119.102 30.2273 119.162C30.2273 119.832 30.207 120.522 30.1866 121.192C30.9186 121.151 31.6302 121.07 32.3622 121.09C34.0497 121.131 35.7373 121.151 37.4249 121.354C38.6244 121.496 39.7224 124.723 39.0108 125.717C38.1161 126.955 37.2215 128.193 36.3066 129.431C35.2087 130.912 36.1236 133.408 37.9128 133.692C38.9904 133.875 39.8037 134.301 40.1087 135.458C40.4137 136.635 39.6004 137.325 38.9091 137.893C38.3195 138.38 37.4249 138.644 36.6319 138.705C35.046 138.827 34.1921 139.435 33.6431 140.937C33.4194 141.546 32.9111 142.033 32.5248 142.581H31.1422L31.1626 142.642Z" fill="white"/>
<path fill-rule="evenodd" clip-rule="evenodd" d="M112.227 78.3322C111.129 77.0335 110.417 75.3897 109.624 73.8474C108.262 71.1687 106.981 68.4494 105.131 66.0345C104.012 64.5936 103.199 62.9093 102.081 61.4888C101.024 60.1494 99.7426 58.9927 98.5634 57.7751C98.2381 57.4301 97.8721 57.1257 97.4858 56.8416C96.4895 56.1719 96.9165 55.2181 97.0181 54.3861C97.2824 52.1538 97.7297 49.9216 97.9534 47.6893C98.0957 46.2688 97.9127 44.8077 98.0144 43.3668C98.0754 42.5348 98.3397 41.7028 98.5227 40.8707C98.9497 38.9632 98.0754 37.5629 96.7335 36.3859C93.9683 33.971 91.7521 31.1097 89.6172 28.1874C89.0683 27.4569 88.5193 26.706 87.9907 25.9755C86.7708 24.3114 84.6155 24.007 82.318 24.9405C81.0574 25.4478 79.6342 25.6305 78.2719 25.8334C76.6657 26.0769 75.0391 26.219 73.3922 26.361C73.1076 26.3813 72.6399 26.361 72.5383 26.1784C71.3387 24.3317 70.1798 22.4647 69.0208 20.5774C68.8988 20.3542 68.8582 20.0498 68.8582 19.786C68.8175 16.9449 67.0486 15.3012 64.7308 14.2662C62.8805 13.4342 61.071 14.043 59.4444 15.3215C59.4444 14.5909 59.4038 13.9009 59.4444 13.211C59.5257 12.0136 59.0784 11.2019 57.9805 10.6946C57.6145 10.5322 57.2689 10.2684 57.0046 9.96402C56.2523 9.13199 55.5813 8.44202 54.2394 8.54349C53.0601 8.62466 51.8605 8.11733 50.661 7.9144C50.3356 7.85352 49.9697 7.75205 49.7053 7.87381C47.6925 8.8276 46.9605 7.54912 46.0862 6.0677C44.8053 3.87602 42.9144 2.47579 40.1696 2.57725C39.8443 2.57725 39.519 2.23227 39.1937 2.04963H35.8592C34.3139 2.41491 32.7484 2.7396 31.2031 3.16576C28.5803 3.89632 26.4048 5.29656 24.8799 7.61C23.7006 9.37551 22.4197 11.0599 21.3217 12.866C19.9595 15.0982 19.1665 17.5334 19.2072 20.3948C18.0076 20.2933 16.8894 20.1716 15.7711 20.0904C15.4254 20.0701 15.0595 20.131 14.7138 20.2324C12.7823 20.8818 11.0744 21.8559 9.61046 23.3373C9.30548 23.662 8.59386 23.8649 8.16688 23.7635C5.88969 23.1344 4.30379 23.7838 3.40917 25.9349C2.81954 27.3554 2.29091 28.8165 1.74194 30.2776V30.8256C1.8436 31.1502 2.04692 31.4749 2.00626 31.7996C1.66061 34.4378 2.83988 36.8527 3.16519 39.3893C3.20585 39.6531 3.53117 39.8967 3.71416 40.1402C4.71043 41.439 5.93035 42.616 6.64198 44.0568C8.08556 46.8979 10.5254 48.5822 13.0263 50.2666C13.2499 50.4086 13.5549 50.3883 13.7989 50.4898C14.2665 50.6521 14.7341 50.7942 15.1611 51.0377C16.1777 51.6465 17.2757 51.6668 18.2516 51.1798C18.8412 50.8754 19.4309 50.4695 18.8616 49.3331C18.2719 48.1561 17.3773 47.9125 16.4217 47.4052C14.9985 46.6341 13.4736 45.802 12.4366 44.6047C10.8101 42.7377 9.54947 40.5663 8.16688 38.4964C7.9839 38.2326 7.9229 37.7456 8.00423 37.4209C8.24821 36.5686 8.79718 35.7771 8.87851 34.9045C9.12249 32.5099 9.44781 30.1762 11.1354 28.3092C11.603 27.7816 12.1723 27.1728 12.8229 26.9901C15.1611 26.3407 17.54 25.8131 19.9188 25.3667C21.6877 25.0217 23.4769 24.8593 25.2458 24.5955C25.2458 24.7173 25.2865 24.8187 25.2865 24.9405C23.9446 25.184 23.355 26.3813 24.2902 27.4366C25.6118 28.9383 27.1571 30.2573 28.6006 31.6576C29.0683 32.104 29.7189 32.4693 29.9832 33.0172C30.7355 34.6813 31.1015 36.5483 32.0571 38.0906C33.155 39.8561 33.3177 41.7434 33.521 43.6306C33.6633 44.8685 33.277 46.2079 32.8907 47.4458C32.4841 48.7243 31.7318 49.9013 31.2031 51.1392C31.0608 51.4436 31.0405 52.1132 31.1828 52.1741C32.1588 52.6612 33.1754 53.2091 34.253 53.3511C34.8426 53.4323 35.9202 53.5541 36.1642 52.3365C36.2862 51.7074 36.6928 51.1392 36.9978 50.5507C38.238 48.2778 38.8277 45.8629 38.5634 43.2654C38.4414 42.1289 38.1567 41.0128 38.0754 39.8764C37.9331 37.9079 37.8721 35.9395 37.7704 33.971C37.7094 32.7128 36.6115 31.3532 38.2177 30.2979C39.031 29.75 39.824 29.2021 40.5762 28.5933C41.0032 28.228 41.2065 27.6192 41.6538 27.2539C44.3987 25.0217 46.3099 22.2415 47.1842 18.7916C47.4485 17.7364 47.7331 16.6811 47.9771 15.6867C50.8643 18.8728 54.4427 17.7769 58.0822 17.5334C58.1228 18.0611 58.0415 18.7104 58.2448 19.2787C58.8955 21.1862 60.461 22.3024 62.2299 22.7488C63.8768 23.175 65.3611 23.2561 66.3777 25.042C66.8046 25.8131 67.6992 26.4625 68.0652 27.4366C68.4312 28.4107 68.2279 29.0397 67.2723 29.5268C66.6217 29.8515 65.8694 30.237 65.483 30.8053C64.8121 31.7996 64.3241 32.9158 63.8565 34.0319C62.9619 36.1424 62.1689 38.2732 61.315 40.3837C60.1154 43.3871 60.9897 46.0658 63.5312 47.9125C64.5071 48.6228 65.3407 49.6172 66.032 50.6115C67.8009 53.2497 68.9395 56.314 71.2574 58.6071C72.8636 60.1697 74.7545 61.2858 77.0723 60.7582C78.7192 60.3726 80.2645 59.5812 81.8707 58.9724C82.1757 58.8506 82.6027 58.5462 82.8263 58.6477C84.2089 59.358 85.7338 59.9262 86.8927 60.9408C88.6413 62.4628 90.2679 64.1878 91.6708 66.0345C93.704 68.7335 95.4729 71.5948 97.3434 74.4156C97.8721 75.1868 98.2177 76.0797 98.787 76.8102C99.7223 77.9669 101.064 78.7178 101.634 80.2601C102.04 81.3965 103.362 82.2488 103.667 83.3853C104.297 85.5769 105.924 86.551 107.692 87.5048C108.933 88.1745 110.092 89.0065 111.393 89.5544C112.45 90.0009 113.65 90.3662 114.768 90.3256C116.09 90.285 116.557 88.9659 117.086 87.9107V84.8667C115.866 82.3909 113.955 80.463 112.206 78.3931L112.227 78.3322ZM42.5078 13.6371C42.5078 15.1185 42.5078 16.6202 42.4061 18.1016C42.1215 21.1862 39.6206 22.7488 37.7094 24.7173C36.8961 25.5493 36.2048 26.4828 35.5949 27.1931C34.2326 25.8943 33.0737 24.8593 31.9961 23.7229C30.7965 22.4647 28.9259 22.5256 27.706 21.5718C26.1201 20.3339 24.6765 22.3429 23.5379 21.3283C24.0056 19.7251 24.3919 18.0813 24.9815 16.4985C25.2255 15.8491 25.8355 15.3418 26.2421 14.733C26.5268 14.3271 26.8317 13.9415 27.0351 13.4748C27.523 12.4601 28.011 11.486 29.1496 11.0193C29.4342 10.8975 29.6579 10.4916 29.7799 10.167C30.0442 9.45669 30.2679 8.78701 31.2438 8.88847C31.4268 8.88847 31.7724 8.72613 31.8131 8.58407C32.3214 6.87944 34.07 7.14325 35.2086 6.53445C35.6965 6.29093 36.6318 6.83885 37.3434 7.08237C38.2584 7.40706 39.1733 7.71146 40.0273 8.15792C40.5356 8.42173 40.9016 8.90877 41.3082 9.33493C41.4912 9.51757 41.5522 9.92343 41.7555 9.98431C42.8331 10.3699 42.4468 11.2019 42.4061 11.9528C42.3858 12.521 42.4874 13.0689 42.4671 13.6371H42.5078Z" fill="white"/>
<path fill-rule="evenodd" clip-rule="evenodd" d="M120.014 89.0065C119.322 89.8182 119.688 90.8126 119.668 91.7055C119.627 93.2681 118.814 94.2625 117.249 94.2625C116.578 94.2625 115.805 94.3031 115.256 94.019C113.426 93.0855 111.332 93.1058 109.461 92.3752C107.631 91.6446 106.086 90.4473 104.846 88.905C103.484 87.2207 102.101 85.5566 100.922 83.7708C100.088 82.4923 98.97 81.5183 98.1161 80.321C96.2658 77.6828 94.4156 75.0244 92.9924 72.1225C91.7115 69.5046 90.0036 67.1709 88.3363 64.8169C87.6857 63.8834 86.6691 63.2137 85.7948 62.4426C85.4085 62.0976 84.9612 61.9352 84.3919 62.1179C82.928 62.544 81.3421 62.6861 80.0205 63.3355C77.906 64.3907 75.8524 63.6804 73.8396 63.4166C71.7047 63.1528 70.0374 61.8337 69.1022 59.6827C68.8175 59.0333 67.9432 58.668 67.4349 58.0795C65.9914 56.4154 64.1411 55.137 63.0025 53.1685C62.7382 52.7018 62.3722 52.2959 62.3113 51.7277C62.2503 51.1189 61.9249 50.6521 61.4573 50.2057C60.7863 49.5563 60.3594 48.7649 60.0341 47.8111C59.6477 46.7152 58.8548 45.7209 58.3058 44.6453C56.9639 42.0478 57.5332 39.6532 58.7328 37.3397C60.1357 34.5798 61.8233 32.0026 63.8565 29.6485C64.3445 29.0803 64.0801 28.0657 65.1781 27.8019C66.7843 27.396 68.2482 27.9033 68.2279 29.2224C68.1872 30.4197 68.0449 31.6982 66.8656 32.4693C66.7233 32.5708 66.4997 32.652 66.4183 32.794C65.3204 35.351 63.3075 37.3803 62.2909 39.9576C61.9046 40.891 61.8436 42.0478 62.3519 43.0624C63.6938 45.7411 64.7104 48.6025 66.764 50.8754C67.6383 51.8291 68.1872 53.0062 68.8785 54.102C70.3018 56.3546 72.8433 57.6127 74.2055 59.9465C74.4495 60.3523 74.9578 60.4741 75.3035 60.3929C77.8856 59.8044 80.5491 59.8044 83.0907 58.9115C84.7579 58.3433 86.6488 58.2215 88.4583 58.8709C88.9056 59.0333 89.1903 59.2565 89.3123 59.6827C89.7596 61.3061 91.3455 62.3005 91.8741 63.7007C92.8704 66.2983 95.3916 67.7188 96.2658 70.3772C96.8148 72.0007 98.2787 73.2995 99.1937 74.8215C100.332 76.6885 101.796 78.3322 103.057 80.118C104.012 81.4777 104.663 83.0809 105.781 84.2173C106.961 85.4146 107.733 86.9366 108.973 87.9918C110.6 89.3921 112.694 89.9806 114.666 90.6909C115.053 90.8329 115.154 90.4676 115.114 90.2038C115.012 88.9253 115.297 87.6469 115.256 86.3684C115.236 85.719 114.91 85.1305 114.443 84.542C113.446 83.2635 112.288 81.9444 112.328 80.1789C112.328 79.4281 112.45 78.7381 112.328 77.9264C112.084 76.1405 110.783 75.9985 109.604 75.4709C108.872 75.1462 107.753 75.6535 107.388 74.6794C106.737 72.9139 104.785 71.8789 104.683 69.8293C104.663 69.2205 104.622 68.6117 105.049 68.0029C105.924 66.7447 105.334 65.5474 103.89 65.2024C103.077 64.9995 102.447 64.5531 101.877 63.721C100.332 61.4685 99.4173 58.81 97.3638 56.8619C96.3472 55.9081 95.7372 54.5687 94.9239 53.412C94.7409 53.1685 94.5986 52.925 94.7613 52.6612C95.3916 51.6871 95.2086 50.3883 95.6355 49.5563C96.2658 48.3184 96.7132 46.9993 97.0791 45.7614C97.5061 44.28 98.0957 42.5145 96.6521 41.0331C96.2048 40.5663 96.0829 39.8155 95.7779 39.2067C95.6355 38.9226 95.4932 38.5979 95.2492 38.4356C93.7243 37.4615 93.1347 35.8177 92.1994 34.3972C91.1015 32.7534 89.9019 31.13 88.804 29.4456C87.889 28.0657 86.8724 26.7669 85.6525 25.6711C84.9612 25.042 84.0869 24.6361 83.0297 25.0014C81.8097 25.4275 80.5695 25.3464 79.3902 24.8999C78.6379 24.6158 77.7026 24.2505 77.9263 23.1953C78.1093 22.2618 79.1259 22.0994 79.7765 22.1197C81.1591 22.1806 82.4807 21.9777 83.8429 21.8356C86.6081 21.5515 88.6006 23.0126 90.2272 24.9608C92.1994 27.3148 93.9073 29.8921 95.6152 32.449C96.6522 33.9913 98.0957 35.1683 99.214 36.6497C100.617 38.4964 101.573 40.5461 102.101 42.7174C102.508 44.3409 102.365 46.147 101.146 47.5473C100.881 47.8314 100.922 48.1358 100.902 48.4402C100.82 49.5563 100.658 50.7333 100.068 51.5856C99.214 52.8235 99.6206 53.8179 100.434 54.5079C102.609 56.3748 103.728 58.9724 105.415 61.1844C106.046 61.9961 106.696 62.5643 107.611 62.9499C109.787 63.8631 110.824 66.9274 109.665 68.977C109.421 69.4235 109.482 69.7076 109.685 70.1946C110.661 72.4472 112.572 73.2386 114.707 73.7459C115.459 73.9286 115.744 74.3547 115.968 75.1056C116.334 76.3029 117.249 77.419 117.066 78.7381C116.761 81.0109 118.001 82.675 119.18 84.339C119.607 84.9276 119.119 85.9219 120.054 86.2466V86.5307C119.566 86.896 119.77 87.2816 120.054 87.6469V89.0268L120.014 89.0065Z" fill="#25716A"/>
<path fill-rule="evenodd" clip-rule="evenodd" d="M120.014 87.6266C119.729 87.2613 119.526 86.8757 120.014 86.5104V87.6266Z" fill="white"/>
<path fill-rule="evenodd" clip-rule="evenodd" d="M28.1939 30.5009C29.9222 32.3476 31.9147 32.1243 33.9683 31.4952C36.0625 30.8459 38.238 30.3791 39.9256 28.7759C41.8164 27.0104 44.0936 25.4072 45.1102 23.1141C46.0049 21.1254 47.4281 19.2787 47.6518 16.9652C47.7534 15.9303 48.0991 14.9156 48.4447 13.9212C48.7904 13.008 49.6036 12.6427 50.5389 12.6022C51.5759 12.5413 51.7182 13.3936 51.8605 14.0836C52.2671 15.8694 52.5518 17.6146 51.3725 19.3598C50.7016 20.3745 50.9252 21.8559 50.1729 22.972C49.136 24.494 48.9327 26.564 47.1028 27.5989C46.6352 27.8627 46.2692 28.2889 46.1878 29.0195C46.1065 29.7906 44.9679 29.5674 44.3986 30.2168C43.4633 31.2923 42.5281 32.449 41.0438 32.9361C40.3322 33.1593 40.5965 33.8493 40.7795 34.3769C41.9588 37.8876 41.5318 41.4187 41.3691 45.0309C41.1862 48.8663 38.543 51.0377 36.9571 53.9194C36.8758 54.0614 36.6928 54.2035 36.5301 54.2441C34.8222 54.6296 35.1882 55.8878 35.4932 56.9634C36.4284 60.0885 36.7741 63.3558 36.9977 66.5418C37.1604 68.9161 37.5874 71.6151 36.1235 73.9489C34.9645 75.7956 32.9923 76.2623 31.2031 76.6073C28.8852 77.0537 26.5267 77.3379 24.1682 77.6423C22.074 77.9061 20.0204 78.5352 17.8042 78.3119C16.0557 78.1293 14.1648 78.4134 12.3552 78.596C10.0781 78.8396 7.88219 78.7178 5.76765 77.9264C4.4054 77.419 3.91743 76.0391 3.79544 74.8215C3.59212 72.9951 3.22614 71.2296 2.92116 69.4235C2.65684 67.9826 2.57551 66.4201 2.51452 64.898C2.45352 63.5993 2.00621 62.4223 1.66057 61.1844C1.09127 59.1956 1.31492 57.1054 1.41658 55.0152C1.51824 52.8641 3.10415 51.9712 4.36474 50.7942C6.01164 49.2113 6.13363 49.2113 4.75105 47.5067C2.43319 44.6656 1.05061 41.3578 0.359315 37.847C0.155994 36.8121 -0.209984 35.5133 0.155994 34.3363C0.664296 32.6317 0.908281 30.8459 1.41658 29.1818C1.84356 27.8019 2.6975 26.4016 3.8971 25.2246C4.89337 24.2505 5.80831 23.1547 6.78426 22.14C7.7602 21.1456 9.04112 20.8412 10.0781 20.1107C10.688 19.6845 11.5623 19.299 12.2943 18.9337C13.4532 18.3655 14.7341 18.6496 15.8727 18.1219C16.3403 17.8987 16.625 17.8378 16.564 17.1884C16.4827 16.3564 16.8283 15.5447 17.3976 14.9156C18.5362 13.6574 19.0242 12.0745 19.7968 10.6134C20.4271 9.39581 21.5047 8.5029 22.4196 7.48824C23.0906 6.75768 23.7616 5.86477 24.4528 5.39802C25.3678 4.78922 25.9981 3.51075 27.401 3.61221C27.828 3.6528 28.1533 3.28752 28.4176 2.94253C28.8039 2.45549 29.2919 2.15109 29.8408 1.88728C32.2197 0.79144 34.7409 0.0202933 37.3231 0C39.6206 0 41.9791 0.42616 44.053 1.48141C45.0493 1.98875 45.8015 3.08459 46.5132 4.03837C46.8385 4.50512 46.3708 5.11392 45.9642 5.4792C45.5576 5.86477 45.0696 5.7836 44.7239 5.41832C43.1787 3.67309 40.9015 3.57162 38.9293 3.14547C36.8961 2.71931 34.7002 3.44987 32.7687 4.32248C28.072 6.45328 24.3308 9.70021 21.6267 14.1444C20.8541 15.4229 21.4234 16.6405 21.281 17.8784C21.2404 18.1422 21.5454 18.2031 21.7893 18.2437C22.074 18.3046 22.1553 18.1016 22.257 17.8784C24.5342 12.9471 28.0516 9.132 33.0127 6.92002C35.5338 5.80389 38.3803 5.88506 41.0438 6.75768C42.2231 7.14325 42.7314 8.29997 42.6907 9.53786C42.6704 10.5119 41.1862 10.9584 40.3119 10.1061C39.0513 8.88848 37.628 9.25376 36.3065 9.55816C35.2085 9.80168 34.1716 10.3496 33.033 10.5728C32.5044 10.6743 32.118 10.9787 31.8334 11.4251C31.0608 12.7036 29.8815 13.5762 28.7022 14.4286C27.9703 14.9562 27.5027 15.6867 27.4213 16.4782C27.34 17.3914 26.3031 17.9393 26.5674 18.8525C26.852 19.8469 28.0516 19.5019 28.7226 20.0701C30.3695 21.4703 32.4434 22.2009 34.0496 23.662C34.6799 24.2505 35.0662 23.7635 35.7575 23.4591C37.689 22.6271 38.2583 20.7398 39.5596 19.4613C40.1899 18.8322 40.5152 18.0002 40.5559 17.0261C40.6169 15.0779 41.7351 13.8806 43.199 13.9821C44.0733 14.043 44.6833 14.4083 44.9069 15.3012C45.3136 16.884 44.9069 18.3249 44.4393 19.8469C43.6463 22.4241 41.7555 24.1896 39.8036 25.6508C36.5098 28.1265 33.1346 30.8256 28.5193 30.3182C28.4583 30.3182 28.3769 30.3994 28.1939 30.5009ZM11.8673 37.5629C12.5992 39.0646 12.0299 41.1143 13.3515 42.616C13.5548 42.8595 13.5548 43.3871 14.1241 43.1639C15.6287 42.5348 17.1943 42.6769 18.7395 42.9204C20.2644 43.1639 21.952 42.7986 23.3142 43.6104C24.3715 44.2394 25.5101 44.5438 26.5877 45.0512C27.34 45.3962 28.2143 46.005 28.8852 45.8426C29.7189 45.6397 29.5969 44.4221 29.9018 43.6509C30.9388 40.9925 30.8981 38.2935 29.9832 35.6148C29.8612 35.2292 29.6375 34.9857 29.2715 34.8233C28.2753 34.3769 27.2587 33.9913 26.3234 33.4434C25.1238 32.7737 23.9852 32.1852 23.6802 30.4806C23.3346 28.4715 22.074 27.2539 19.6545 28.4918C19.1258 28.7556 18.5769 29.1006 18.0076 29.2021C13.8598 30.0138 12.2536 34.0116 11.8469 37.6035L11.8673 37.5629ZM31.5284 25.7319C29.8815 24.1693 27.9703 23.0329 25.9168 22.3024C24.0055 21.6327 22.0537 21.0645 19.8781 21.308C18.2719 21.4906 16.808 22.0183 15.3034 22.3835C12.9245 22.9315 10.993 24.2911 9.38676 25.6305C7.53654 27.1931 5.80832 29.3644 5.483 32.1446C5.36101 33.139 5.09669 34.1537 4.69005 35.0669C3.57178 37.5224 4.60872 39.714 5.56433 41.8245C6.21496 43.2654 7.29256 44.5033 8.12617 45.8426C10.2 49.2519 13.5752 50.2666 17.052 51.2203C17.8449 51.4436 18.6582 51.2203 18.9225 50.2463C19.1868 49.2722 18.4955 48.8866 17.7636 48.6837C16.32 48.2981 14.8764 47.9531 13.5142 47.2226C12.0909 46.4514 10.993 45.3759 9.97639 44.2597C8.57348 42.7174 8.00418 40.6881 7.86186 38.6994C7.6992 36.3048 7.82119 33.8696 8.73614 31.5764C9.40709 29.8718 11.054 28.9383 12.1113 27.5177C12.3349 27.2133 12.8839 26.3813 13.4532 26.564C14.6731 26.9495 15.649 26.3001 16.5843 25.9349C17.9262 25.3869 19.2275 24.697 20.6507 24.8999C22.623 25.184 24.7578 25.0826 26.4047 26.5843C26.7097 26.8684 27.1163 26.9495 27.5637 26.9698C29.0072 27.0713 30.4101 27.0104 31.5487 25.7319H31.5284ZM19.5731 67.3738C19.2478 67.3738 19.0242 67.3738 18.8005 67.4144C16.2793 67.6985 13.8598 68.6929 11.2573 68.5306C10.4644 68.49 10.1187 69.0988 10.1594 69.8293C10.2204 70.6614 10.8507 70.9049 11.542 70.8034C16.9706 70.0728 22.4603 69.7684 27.8483 68.7335C28.8039 68.5508 30.1865 68.5103 29.8815 67.0694C29.5562 65.6083 28.2549 66.2983 27.34 66.4201C24.7375 66.8056 22.2163 67.942 19.5935 67.3738H19.5731ZM37.4044 38.7603C37.4247 38.5776 37.445 38.395 37.4857 38.2123C37.689 36.9947 37.2824 35.8786 36.5911 35.006C36.2048 34.5189 35.4322 35.4321 34.7612 35.3104C34.6799 35.3104 34.5782 35.3104 34.4969 35.2901C33.7853 35.2495 33.6429 35.7771 33.9276 36.183C35.1069 37.9485 35.2492 39.9576 34.9239 41.8651C34.5782 43.8539 34.5172 46.0658 32.6873 47.527C32.484 47.6893 32.0977 47.9937 32.362 48.1358C33.094 48.5822 33.8666 49.2113 34.7002 49.1098C35.5948 49.0084 36.3471 48.2372 36.4284 47.3646C36.7334 44.5033 38.177 41.7434 37.4247 38.7603H37.4044ZM23.7616 59.8044C21.9723 60.0885 20.0204 60.4335 18.0889 60.7379C17.2553 60.8597 16.442 61.1235 16.503 62.0976C16.564 63.1731 17.5196 63.3355 18.3532 63.2746C19.5528 63.1934 20.7524 62.7064 21.891 62.8687C22.9686 63.0108 23.7412 62.6658 24.5952 62.2396C25.2458 61.9149 25.6728 61.4685 25.4694 60.7176C25.2661 59.9871 24.6358 59.8044 23.7616 59.8044Z" fill="#25716A"/>
<path fill-rule="evenodd" clip-rule="evenodd" d="M16.808 86.409C16.7267 85.3943 16.7673 84.3796 17.0723 83.4056C17.4586 82.1677 18.4142 81.5386 19.5528 81.5792C20.7321 81.64 20.8541 82.7359 21.0371 83.7505C21.9724 88.9862 22.074 94.3234 22.806 99.5793C23.1923 102.38 23.5379 105.241 23.9852 107.981C24.6359 111.958 25.1848 115.976 25.7745 119.954C26.2014 122.795 26.3641 125.677 26.5471 128.558C26.6894 130.851 26.8317 133.144 27.34 135.377C27.889 137.792 27.9093 140.267 28.6819 142.662C29.1496 144.103 30.1662 143.596 30.9998 143.758C31.8741 143.941 31.8334 143.21 32.0164 142.642C32.3417 141.647 32.6874 140.653 32.8703 139.598C33.0127 138.745 33.643 138.34 34.4969 138.157C35.7168 137.893 36.9978 138.096 38.1567 137.589C39.275 137.102 39.5799 135.296 38.665 134.464C38.5023 134.301 38.299 134.159 38.0957 134.078C35.0662 133.043 35.3509 130.445 35.2492 128.071C35.2085 127.3 35.7575 126.854 36.3268 126.427C37.2214 125.758 37.7297 123.972 37.4044 122.998C37.1808 122.328 36.8758 121.963 36.1032 122.166C35.6152 122.288 35.0865 122.247 34.6189 122.409C32.5247 123.14 30.9998 121.922 29.4139 120.948C28.9259 120.644 29.0073 120.055 28.9666 119.568C28.8446 118.107 28.7226 116.646 28.6209 115.185C28.5193 113.602 28.6209 111.979 28.2143 110.375C27.767 108.59 27.523 106.723 27.523 104.896C27.523 103.679 26.913 102.725 26.7707 101.588C26.4251 98.6053 26.6691 95.5613 26.0998 92.6187C25.7135 90.5488 25.8964 88.4383 25.1848 86.409C24.7172 85.1102 25.8761 81.295 26.8317 80.666C27.9703 79.9151 28.7023 80.1586 28.9463 81.5183C29.3529 84.0144 29.6579 86.5307 29.6985 89.0471C29.6985 89.7777 29.5969 90.4879 30.1662 91.117C30.3695 91.32 30.3898 91.7055 30.3898 92.0302C30.4712 96.0686 30.9998 100.066 31.6708 104.044C32.0774 106.438 32.484 108.833 32.4027 111.309C32.3417 113.541 32.8907 115.773 32.972 118.006C33.0127 119.102 33.8666 119.365 35.2289 118.98C36.8148 118.533 38.36 118.371 39.8036 119.467C40.7185 120.177 41.3692 121.111 41.4098 122.206C41.4505 123.12 41.4302 124.033 41.7148 124.905C42.3044 126.712 40.8812 127.706 40.1289 128.984C39.2546 130.466 39.8849 131.805 41.5318 131.988C42.1011 132.049 42.4874 132.191 42.6704 132.779C43.0567 134.058 43.6057 135.275 43.7277 136.676C43.8903 138.644 43.321 139.902 41.5115 140.612C40.4339 141.059 39.397 141.85 38.0754 141.262C37.6687 141.079 37.3231 141.444 37.0791 141.952C36.4488 143.291 35.9608 144.712 35.0865 145.95C34.2733 147.106 33.582 148.222 31.8537 147.451C31.3861 147.228 30.6135 147.35 30.0849 147.593C28.377 148.385 26.913 147.593 25.5711 146.863C24.3715 146.213 23.7819 144.793 23.6192 143.535C22.4197 134.687 21.2404 125.839 20.4271 116.95C19.9391 111.674 18.9225 106.459 18.4956 101.183C18.0889 96.2715 17.3976 91.3808 16.808 86.4901V86.409Z" fill="#25716A"/>
<path fill-rule="evenodd" clip-rule="evenodd" d="M65.6864 23.9664C65.6051 23.2156 65.7067 22.5865 66.2354 21.9574C66.8657 21.1862 66.581 18.5481 65.8287 17.8987C65.2798 17.432 65.2391 16.7826 65.0764 16.1941C64.8731 15.4229 64.3852 15.1794 63.6735 15.1185C63.2262 15.0779 63.1449 15.2606 63.1042 15.6664C62.9619 18.5278 62.169 19.5831 59.3428 20.1919C57.6146 20.5774 55.866 20.5571 54.2598 19.5831C53.7108 19.2584 53.1415 18.8322 53.3652 18.0611C53.5888 17.2696 54.3208 17.2087 54.9307 17.2493C56.2117 17.3508 57.3503 17.2493 58.4075 16.4173C59.1395 15.8288 59.3428 15.362 58.5702 14.7127C58.3059 14.4691 57.8789 14.3474 57.9195 13.9009C58.0212 12.9674 57.7976 12.2572 56.9843 11.6281C55.2967 10.3293 53.7515 8.76672 51.3726 8.92906C50.8643 8.96965 50.4373 9.17258 50.0307 9.57845C48.7498 10.8569 47.1842 11.1207 45.4763 10.5931C44.9273 10.4308 44.48 10.1467 44.3377 9.51757C44.1751 8.8073 44.6834 8.60437 45.1103 8.25938C47.9975 5.96624 51.332 5.4792 54.7477 6.3721C56.537 6.83885 58.3262 7.69117 59.7088 9.19288C60.3797 9.92344 61.2337 10.4511 61.803 11.3237C62.2096 11.9122 63.0229 11.8513 63.5922 11.7498C65.2391 11.486 66.2557 12.3992 67.4553 13.3124C69.9968 15.22 70.4644 18.0002 71.0134 20.7804C71.2574 22.0183 72.457 22.2009 73.2093 22.7894C76.7471 25.5087 77.479 29.405 76.7064 33.0375C76.4828 34.0116 75.7915 34.2348 75.1002 34.5392C74.4292 34.8436 74.0022 34.2551 73.5753 33.8493C72.1114 32.4896 72.6603 30.582 72.335 28.918C71.725 25.8131 71.6031 24.839 68.4312 24.5143C67.4756 24.4129 66.5607 24.1491 65.6254 23.9461L65.6864 23.9664Z" fill="#25716A"/>
<path fill-rule="evenodd" clip-rule="evenodd" d="M70.9117 46.147C69.4275 46.147 69.1225 45.7209 69.5901 44.6859C70.6271 42.4739 72.03 40.749 74.5308 39.8764C75.8117 39.4299 76.869 38.2732 77.9669 37.3803C78.1703 37.1977 78.3939 37.1165 78.6176 36.9541C79.1869 36.5483 79.7765 35.9801 80.2645 35.696C81.8707 34.7219 83.1516 33.0375 85.2662 32.9158C85.8761 32.8752 86.4657 32.8955 87.035 33.0984C87.706 33.3419 87.9703 33.9304 88.1127 34.6001C88.255 35.3713 87.5637 35.1886 87.2384 35.3916C86.3844 35.8786 85.8558 36.6903 85.0628 37.2585C81.647 39.572 78.0076 41.5607 74.7951 44.1989C73.6362 45.1526 72.0503 45.5991 70.9524 46.147H70.9117Z" fill="#25716A"/>
<path fill-rule="evenodd" clip-rule="evenodd" d="M83.8836 41.3578C85.6525 41.4187 86.2625 41.9869 86.2015 43.1436C86.2015 43.3668 86.1405 43.7118 86.0185 43.7524C84.7579 44.2394 83.8227 45.2744 82.6434 45.7817C82.0538 46.0455 81.4845 46.2485 81.0372 46.7152C80.1019 47.6893 79.0853 48.1763 77.6417 47.8111C76.5641 47.5473 76.3811 47.0805 76.8691 46.3094C77.906 44.6453 78.9226 43.0827 81.0575 42.413C82.1351 42.0681 83.111 41.3375 83.904 41.3578H83.8836Z" fill="#25716A"/>
<path fill-rule="evenodd" clip-rule="evenodd" d="M65.6659 23.9461C65.6659 23.9461 65.5643 24.007 65.5643 24.0273C65.6456 26.1987 65.4016 26.5437 63.1651 26.2799C61.4978 26.0972 59.7493 25.7319 58.753 24.0882C58.0007 22.8706 58.1837 22.0588 59.2816 21.4297C60.5626 20.6789 61.6402 20.9224 62.3315 22.0791C63.0837 23.3373 64.1613 24.0273 65.6659 23.9461Z" fill="#25716A"/>
<path fill-rule="evenodd" clip-rule="evenodd" d="M31.5285 25.7522C30.3899 27.0307 28.987 27.0713 27.5434 26.9901C27.1164 26.9698 26.6895 26.8887 26.3845 26.6045C24.7376 25.1028 22.6027 25.2043 20.6305 24.9202C19.1869 24.7173 17.8857 25.4072 16.5641 25.9552C15.6288 26.3407 14.6529 26.9901 13.4329 26.5843C12.884 26.4016 12.335 27.2336 12.091 27.538C11.0338 28.9383 9.40719 29.8718 8.7159 31.5967C7.80095 33.8898 7.67896 36.325 7.84162 38.7197C7.98394 40.7084 8.53291 42.758 9.95616 44.28C10.9931 45.3962 12.091 46.492 13.4939 47.2429C14.8562 47.9734 16.2794 48.3184 17.7433 48.704C18.4753 48.9069 19.1666 49.2925 18.9023 50.2666C18.638 51.2406 17.8247 51.4639 17.0317 51.2406C13.5549 50.2869 10.1798 49.2519 8.10594 45.8629C7.29265 44.5033 6.19472 43.2654 5.54409 41.8448C4.58848 39.7343 3.53121 37.5426 4.66981 35.0872C5.07645 34.174 5.34077 33.1593 5.46276 32.1649C5.78808 29.405 7.49597 27.2133 9.36652 25.6508C10.9728 24.2911 12.9043 22.9517 15.2832 22.4038C16.7877 22.0588 18.2516 21.5109 19.8579 21.3283C22.0334 21.0848 23.9853 21.653 25.8965 22.3227C27.9501 23.0329 29.8613 24.1693 31.5082 25.7522H31.5285Z" fill="#F9FAFA"/>
<path fill-rule="evenodd" clip-rule="evenodd" d="M19.573 67.3941C22.2162 67.9623 24.7171 66.8259 27.3196 66.4403C28.2345 66.3186 29.5358 65.6083 29.8611 67.0897C30.1661 68.5306 28.7835 68.5711 27.8279 68.7538C22.4399 69.7887 16.9502 70.0931 11.5215 70.8237C10.8099 70.9252 10.1796 70.6816 10.1389 69.8496C10.0983 69.1191 10.4439 68.5103 11.2369 68.5508C13.8394 68.7132 16.2589 67.7188 18.7801 67.4347C19.0037 67.4144 19.2274 67.4144 19.5527 67.3941H19.573Z" fill="#F9FAFA"/>
<path fill-rule="evenodd" clip-rule="evenodd" d="M37.4043 38.7805C38.1566 41.7637 36.7131 44.5033 36.4081 47.3849C36.3267 48.2778 35.5541 49.0287 34.6798 49.1301C33.8462 49.2316 33.0736 48.6025 32.3417 48.1561C32.0773 47.9937 32.4433 47.7096 32.667 47.5473C34.4969 46.0861 34.5579 43.8742 34.9035 41.8854C35.2288 39.9778 35.1068 37.9688 33.9072 36.2033C33.6429 35.7974 33.7649 35.2698 34.4765 35.3104C34.5579 35.3104 34.6595 35.3104 34.7408 35.3307C35.4118 35.4524 36.1844 34.5392 36.5707 35.0263C37.262 35.8989 37.689 37.0353 37.4653 38.2326C37.4247 38.4153 37.4043 38.5979 37.384 38.7805H37.4043Z" fill="#F9FAFA"/>
<path fill-rule="evenodd" clip-rule="evenodd" d="M23.7615 59.8247C24.6358 59.8247 25.2458 60.0074 25.4694 60.7379C25.6728 61.4888 25.2458 61.9352 24.5952 62.2599C23.7412 62.6861 22.9686 63.0311 21.891 62.889C20.7524 62.747 19.5528 63.2137 18.3532 63.2949C17.4993 63.3558 16.564 63.1934 16.503 62.1179C16.442 61.1235 17.2553 60.88 18.0889 60.7582C20.0408 60.4538 21.9927 60.1291 23.7615 59.8247Z" fill="#F9FAFA"/>
</g>
<defs>
<clipPath id="clip0_125_11345">
<rect width="120" height="147.857" fill="white"/>
</clipPath>
</defs>
</svg>
