<svg width="120" height="106" viewBox="0 0 120 106" fill="none" xmlns="http://www.w3.org/2000/svg">
<path fill-rule="evenodd" clip-rule="evenodd" d="M14.3378 92.9887C14.7578 90.6754 14.0579 87.9633 14.8977 85.331C14.9777 85.0518 14.7978 84.6729 14.7578 84.3339C14.4778 81.2031 14.2978 78.0523 14.6378 74.9015C14.6778 74.6023 14.7178 74.2832 14.6378 74.0041C13.9979 71.8503 14.5378 69.7166 14.6378 67.5828C14.6378 67.2837 14.6978 66.9846 14.6378 66.7054C13.8179 63.4349 14.8977 60.1844 14.7578 56.9339C14.6978 55.8171 14.5778 54.6805 14.6778 53.5837C14.9577 50.5326 14.1979 47.5014 14.5778 44.4702C14.8378 42.4761 13.9579 40.6015 14.4178 38.6273C14.8777 36.6331 14.2778 34.6389 14.2578 32.6647C14.2578 30.7902 14.1579 28.8558 14.8378 27.0212C14.9177 26.7819 15.0177 26.4827 14.9377 26.2833C14.2379 24.4686 14.6778 22.5542 14.6978 20.7196C14.6978 18.7453 14.6578 16.7312 14.5578 14.7968C14.4778 13.5604 14.7578 12.3241 14.4778 11.0877C14.1779 9.67179 15.0577 8.87412 16.4975 9.11342C18.8771 9.51226 21.2167 9.23307 23.5963 9.03365C25.396 8.89406 27.2157 9.1533 29.0354 9.07354C31.8749 8.95389 34.7344 9.63191 37.554 9.19319C39.8736 8.83424 42.1732 9.13336 44.4728 9.19319C46.8324 9.27296 49.152 8.95389 51.5116 9.0536C52.7314 9.11342 53.9512 9.19319 55.171 9.17325C56.2509 9.17325 56.5308 9.97092 56.2908 10.6091C55.8109 11.9252 56.4108 13.1616 56.2309 14.4379C56.1309 15.1358 56.2908 15.8538 55.9509 16.5318C55.8509 16.7511 55.7109 17.1101 55.8109 17.2497C56.8308 18.9248 55.9909 20.7594 56.3308 22.5143C56.5908 23.8305 55.8509 25.1666 56.1909 26.4827C56.6308 28.2376 55.9509 29.8928 55.8709 31.6078C55.8109 32.9439 55.551 34.4595 55.8709 35.5961C56.5708 38.1686 55.8709 40.6614 56.0109 43.174C56.1509 45.8063 56.2309 48.4785 55.8709 51.1707C55.611 53.2048 55.8109 55.3186 55.7709 57.4125C55.7709 57.7714 55.9709 57.9509 56.1709 58.1503C56.6308 58.6289 56.6508 59.2072 56.2709 59.646C55.8709 60.0847 55.7709 60.6231 55.8909 61.0618C56.4908 63.3751 55.651 65.7083 56.0709 67.9816C56.2509 68.9588 56.1509 69.7963 55.8709 70.6738C55.7909 70.933 55.9509 71.0128 56.0909 71.1723C56.5908 71.6908 56.6708 72.329 56.3308 72.9671C55.8509 73.8445 55.591 74.6621 56.0509 75.6991C56.3108 76.2774 56.1909 77.0153 56.1309 77.7132C56.0509 78.491 55.631 79.3485 56.3908 80.0664L56.5108 80.6646C55.7309 83.1175 56.0509 85.5903 56.1309 88.083C56.2109 90.1968 55.9509 92.3106 56.3508 94.4644C56.5708 95.6409 55.151 95.6609 54.4312 95.621C51.5316 95.4415 48.6521 95.3817 45.7526 95.4216C43.493 95.4614 41.2334 95.4216 38.9937 95.3418C37.354 95.3019 35.7143 95.6808 34.0745 95.3418C33.5346 95.2222 32.8947 95.7008 32.3548 95.621C30.1752 95.3219 28.0156 95.4415 25.8359 95.4415C24.5361 95.4415 23.2364 95.4814 21.9366 95.4814C19.637 95.4814 17.3573 95.1224 15.0377 95.3617C14.4778 95.4216 14.4778 94.943 14.4578 94.5641C14.4378 94.1453 14.3978 93.7066 14.3578 92.9488L14.3378 92.9887Z" fill="#1E6E67"/>
<path d="M99.7236 56.6348H68.0889V86.3879H99.7236V56.6348Z" fill="white"/>
<path d="M98.6836 18.4861H65.3491V48.2193H98.6836V18.4861Z" fill="white"/>
<path d="M0.0201036 86.1885V85.9492C0.560014 85.0917 0.839967 84.1744 0.540017 83.1374C0.300057 82.3397 0.320054 81.5022 0.540017 80.7244C0.81997 79.7473 0.679994 78.8898 0.000106953 78.132V76.2375C0.500024 76.1378 0.34005 75.7191 0.40004 75.4C0.75998 73.4058 0.28006 71.4316 0.300057 69.4374C0.300057 69.0984 0.46003 68.6397 -0.0198897 68.4204V66.5259C0.69999 65.5687 0.779977 64.5118 0.480027 63.415C0.240067 62.4777 0.16008 61.5803 0.480027 60.643C0.560014 60.4037 0.560014 60.0847 0.480027 59.8254C0.200074 58.7685 0.200074 57.7515 0.480027 56.6946C0.600007 56.2957 0.69999 55.6975 -0.0398864 55.6177V48.2592C0.52002 48.319 0.440034 47.9999 0.440034 47.6011C0.480027 46.3448 0.360047 45.0884 0.40004 43.852C0.46003 41.8579 0.600007 39.8637 0.380044 37.8894C0.140084 35.8155 0.380044 33.7415 0.16008 31.6676C0.0201036 30.3714 0.87996 29.0752 0.320054 27.7191C0.240067 27.5396 0.360047 27.2605 0.40004 27.0212C0.540017 26.0041 0.600007 25.027 0.300057 24.0099C0.000106961 23.0129 0.719987 21.9559 0.22007 20.919L0.40004 20.6398C0.58001 19.7025 1.05993 18.6655 0.839967 17.828C0.500024 16.6115 0.440034 15.4549 0.659997 14.2584C0.779977 13.6601 0.52002 13.4607 -0.059883 13.6203V8.3955C0.75998 8.33568 0.839967 7.81719 0.560014 7.23888C-0.0198897 6.06231 0.200074 4.82592 0.40004 3.6693C0.52002 2.95139 -0.0398863 1.9543 0.99994 1.4757C1.79981 1.11674 2.63967 0.877443 3.51952 0.857501H3.75948C6.33905 0.857501 8.91862 0.757792 11.4782 0.897384C13.6778 1.01704 15.8575 0.558374 18.0571 0.837559C18.777 0.917326 19.4969 1.13669 20.2567 1.03698C24.496 0.478606 28.7553 1.07686 33.0146 0.877443C35.2942 0.757792 37.6338 0.797675 39.9334 0.917326C43.6728 1.0968 47.4522 0.877443 51.2116 0.837559C53.1512 0.837559 55.1309 1.05692 57.0506 0.95721C60.45 0.777733 63.7895 0.877442 67.1689 1.05692C69.4685 1.17657 71.8081 0.977152 74.1078 0.877443C77.1673 0.73785 80.1867 1.01704 83.2262 0.977152C86.1258 0.937268 89.0253 0.857501 91.9248 0.95721C94.0444 1.03698 96.1641 1.03698 98.3237 0.797675C99.7635 0.618199 101.263 1.15663 102.723 1.0968C107.262 0.897384 111.781 0.697966 116.341 0.897384C117.66 0.95721 118.42 1.69506 118.52 2.59244C118.72 4.28749 119.54 5.8629 119.24 7.6776C119.12 8.35562 119.54 9.11341 118.92 9.75155L118.96 10.1903C119.34 10.968 119.1 11.7856 119.16 12.6032C119.24 13.8795 119.1 15.1757 119.24 16.4321C119.34 17.3095 119.56 18.1471 119.38 19.0644C119.22 19.9418 119.2 20.8392 119.16 21.7366C119.12 22.7337 119.54 23.651 119.4 24.5883C119.08 26.7819 119.36 28.9555 119.16 31.1691C118.9 33.921 119.52 36.7328 119.28 39.5247C119.2 40.5816 119.16 41.6385 119.22 42.6954C119.28 43.6925 119.48 44.6697 119.62 45.6468C119.68 46.5641 119.12 47.4216 119.32 48.319C119.62 49.6152 119.38 50.9314 119.36 52.2276C119.3 55.3984 119.34 58.5691 119.4 61.7398C119.44 63.1158 119.54 64.5516 119.18 65.9077C119.02 66.486 119.04 67.0045 119.26 67.523C119.6 68.2808 119.46 69.0186 119.38 69.8163C119.24 71.272 118.9 72.6879 119.08 74.2234C119.3 76.1777 119.74 78.1719 119.24 80.1461C118.88 81.5421 119.58 82.8782 119.24 84.2342C118.96 85.3908 119.3 86.5275 119.16 87.6841C119.02 88.8607 119.66 90.0572 119.48 91.1341C118.96 93.9858 119.66 96.8574 119.24 99.6891C119.06 100.906 119.38 102.122 119.32 103.338C119.26 104.316 118.78 104.814 117.88 104.874C116.361 104.974 114.841 104.934 113.341 105.014C111.841 105.093 110.362 104.974 108.882 104.914C107.522 104.854 106.162 104.914 104.803 104.954C102.443 105.034 100.063 104.734 97.7438 104.894C95.2042 105.073 92.6647 104.774 90.1251 105.014C86.7057 105.333 83.2462 104.714 79.7868 105.014C78.0071 105.153 76.2074 104.974 74.4277 104.774C73.6878 104.695 73.0679 105.093 72.328 105.073C69.9085 104.974 67.4889 104.914 65.0693 104.954C63.4095 104.974 61.7498 104.834 60.0701 105.034C57.9904 105.293 55.8708 104.854 53.7312 104.994C52.5513 105.073 51.2716 105.353 50.0318 105.073C48.432 104.695 46.8123 105.073 45.1926 104.994C43.4329 104.894 41.6732 105.293 39.8935 105.073C37.9138 104.834 35.9341 104.994 33.9544 104.894C32.3947 104.814 30.755 104.994 29.1952 104.994C26.8356 104.994 24.416 104.914 22.0764 104.994C18.9969 105.073 15.9375 104.734 12.878 105.034C11.9581 105.113 11.0983 104.695 10.1784 104.894C8.29872 105.273 6.39904 105.173 4.49936 105.014C3.29956 104.914 1.8198 104.734 1.27989 103.558C0.859964 102.621 0.440034 101.564 0.320054 100.467C0.000106961 97.4157 0.779977 94.4045 0.440034 91.3534C0.240067 89.6584 0.679994 87.9035 -0.119873 86.2683L0.0201036 86.1885ZM57.0506 100.886C58.3904 100.347 60.0701 100.786 61.6098 100.965C64.1894 101.284 66.709 100.367 69.2286 101.025H69.4685C71.1083 100.547 72.828 100.706 74.4677 100.626C75.7275 100.567 77.0673 101.025 78.427 100.866C79.6468 100.726 80.9266 100.906 82.1264 100.686C82.8263 100.547 83.6462 100.527 84.2061 100.586C85.5658 100.766 86.9456 101.085 88.3054 100.906C89.6252 100.746 90.9249 101.284 92.2647 100.846C93.1046 100.567 94.1244 100.686 95.0243 100.726C97.4639 100.846 99.9035 100.586 102.343 100.826C104.743 101.045 107.162 100.586 109.622 100.985C111.022 101.205 112.601 100.846 114.101 100.786C114.601 100.766 114.821 100.567 114.641 100.028C114.161 98.5923 114.501 97.0767 114.281 95.601C113.981 93.7465 115.401 91.9317 114.361 90.0173C114.001 89.3593 114.921 88.5416 114.781 87.9035C114.501 86.3879 114.661 84.9122 114.601 83.4166C114.521 81.562 114.721 79.6875 114.441 77.8329C114.321 77.0153 114.181 76.1977 114.321 75.38C114.401 74.9214 114.741 74.6023 114.661 74.0041C114.441 72.3888 114.121 70.6738 114.361 69.1582C114.621 67.4632 114.781 65.8877 114.501 64.1927C114.361 63.3352 114.501 62.3979 114.521 61.5005C114.601 59.7855 114.781 58.0905 114.421 56.3954C114.201 55.4183 114.841 54.6007 114.701 53.6834C114.381 51.6293 114.441 49.5355 114.501 47.4815C114.581 45.6468 114.781 43.8122 114.621 41.9975C114.561 41.2596 114.121 40.5218 114.361 39.7839C114.601 39.0261 114.941 38.3481 114.321 37.6103L114.421 37.0718C115.261 36.5932 114.981 36.0947 114.501 35.5563C114.301 35.3169 114.161 34.9381 114.341 34.7985C115.121 34.2401 114.681 33.6618 114.501 33.0635C114.241 32.1861 114.301 31.3286 114.601 30.4511C114.701 30.172 114.781 29.7931 114.681 29.5338C114.141 27.9784 115.421 26.2833 114.361 24.7677L114.461 24.329C114.521 23.651 114.841 23.0129 114.781 22.2949C114.421 18.5459 114.681 14.7769 114.521 11.0278C114.521 10.609 114.461 10.1105 114.761 9.79143C115.001 9.51225 114.901 9.37265 114.821 9.09347C114.481 7.93684 114.241 6.72039 113.881 5.58371C113.641 4.84586 113.521 3.9086 112.421 3.9086C109.202 3.9086 105.982 3.9086 102.743 3.9086C97.5239 3.9086 92.3047 3.82883 87.0856 3.92854C80.9666 4.04819 74.8476 3.62941 68.7287 4.08807C66.689 4.24761 64.6493 4.08807 62.6297 4.04819C57.7505 3.9086 52.8913 4.18778 48.0121 3.94848C44.4727 3.78895 40.9333 3.86871 37.3939 3.86871C34.6743 3.86871 31.9348 3.92854 29.1952 3.94848C26.6157 3.96842 24.0361 3.98836 21.4565 4.00831C18.557 4.00831 15.6775 4.20773 12.778 3.96842C10.5583 3.76901 8.29872 3.88866 6.0591 3.88866C5.65916 3.88866 5.29922 3.98836 5.21924 4.48691C4.75931 7.03946 5.13925 9.61196 5.27923 12.1446C5.37921 14.059 4.87929 15.9335 5.19924 17.828C5.4192 19.204 4.8393 20.58 5.01927 21.8762C5.4592 25.4258 5.01927 28.9755 5.21924 32.5251C5.33922 34.7586 4.57934 36.9721 5.21924 39.2455C5.73915 41.1798 4.99927 43.194 5.33922 45.1881C5.49919 46.1254 5.15925 47.1225 5.19924 48.0997C5.21924 48.8375 5.37921 49.5155 5.27923 50.2733C5.15925 51.3502 5.13925 52.4669 5.11925 53.5039C5.09926 55.9168 4.95928 58.3497 5.15925 60.8026C5.37921 63.4748 5.21924 66.1869 5.23923 68.879C5.23923 69.8562 5.61917 70.8532 5.33922 71.8105C4.65933 74.2234 5.93912 76.7161 4.93928 79.0892C5.65916 80.7643 4.93928 82.4993 5.13925 84.2143C5.4592 87.385 4.87929 90.5757 5.4592 93.7465L5.39921 94.0855C4.69932 96.1594 5.15925 98.2932 5.17924 100.387C5.17924 100.866 5.59917 101.005 5.91912 100.985C7.2189 100.965 8.53868 100.886 9.83847 100.786C10.3784 100.746 10.8983 100.427 11.4582 100.567C14.0178 101.225 16.6173 100.646 19.1969 100.945C21.1966 101.165 23.2362 100.945 25.2159 100.886C27.0756 100.846 28.9753 100.985 30.855 100.766C32.3947 100.586 33.9944 100.806 35.5942 100.806C40.1134 100.846 44.6127 100.626 49.1319 100.846C51.6515 100.965 54.2111 100.806 57.0306 100.826L57.0506 100.886Z" fill="#1E6E67"/>
<path fill-rule="evenodd" clip-rule="evenodd" d="M57.0706 100.866C54.251 100.866 51.6915 101.005 49.1719 100.886C44.6526 100.686 40.1534 100.886 35.6341 100.846C34.0544 100.846 32.4547 100.626 30.8949 100.806C29.0152 101.025 27.1156 100.886 25.2559 100.926C23.2762 100.985 21.2165 101.205 19.2369 100.985C16.6573 100.686 14.0577 101.265 11.4982 100.606C10.9383 100.467 10.4183 100.786 9.87843 100.826C8.57865 100.906 7.25887 100.985 5.95908 101.025C5.61914 101.025 5.21921 100.886 5.21921 100.427C5.17921 98.3331 4.71929 96.1993 5.43917 94.1254L5.49916 93.7863C4.91926 90.6156 5.49916 87.4249 5.17921 84.2542C4.99924 82.5591 5.69913 80.8242 4.97925 79.1291C5.95908 76.756 4.69929 74.2633 5.37918 71.8504C5.63914 70.8932 5.2792 69.8961 5.2792 68.9189C5.2392 66.2268 5.41917 63.5147 5.19921 60.8425C4.99924 58.4096 5.13922 55.9767 5.15922 53.5438C5.15922 52.4869 5.17921 51.3701 5.31919 50.3132C5.39918 49.5554 5.2592 48.8574 5.2392 48.1395C5.19921 47.1624 5.53915 46.1653 5.37918 45.228C5.01924 43.2339 5.77911 41.2197 5.2592 39.2854C4.6393 37.012 5.39918 34.7985 5.2592 32.565C5.07923 29.0154 5.51916 25.4657 5.05923 21.9161C4.89926 20.6199 5.47916 19.2439 5.2392 17.8679C4.91926 15.9734 5.43917 14.0989 5.31919 12.1845C5.17921 9.65186 4.79928 7.07936 5.2592 4.52681C5.33919 4.02826 5.69913 3.92856 6.09906 3.92856C8.33869 3.92856 10.5783 3.8089 12.8179 4.00832C15.7175 4.26757 18.617 4.06815 21.4965 4.04821C24.0761 4.04821 26.6556 4.00832 29.2352 3.98838C31.9548 3.96844 34.7143 3.90861 37.4338 3.90861C40.9733 3.90861 44.5127 3.82885 48.0521 3.98838C52.9313 4.20774 57.7905 3.92856 62.6696 4.08809C64.6893 4.14792 66.729 4.28751 68.7686 4.12797C74.8876 3.66931 81.0066 4.08809 87.1256 3.96844C92.3447 3.86873 97.5638 3.96844 102.783 3.9485C106.002 3.9485 109.242 3.92856 112.461 3.9485C113.561 3.9485 113.681 4.88576 113.921 5.62361C114.281 6.78023 114.521 7.97674 114.861 9.13337C114.941 9.41255 115.041 9.55215 114.801 9.83133C114.521 10.1504 114.541 10.6489 114.561 11.0677C114.721 14.8168 114.461 18.5858 114.821 22.3348C114.881 23.0527 114.561 23.6709 114.501 24.3689L114.401 24.8076C115.481 26.3232 114.181 28.0183 114.721 29.5737C114.821 29.833 114.721 30.2119 114.641 30.491C114.341 31.3485 114.281 32.226 114.541 33.1034C114.721 33.7017 115.161 34.2999 114.381 34.8384C114.201 34.958 114.321 35.3568 114.541 35.5961C115.021 36.1146 115.281 36.6331 114.461 37.1117L114.361 37.6502C114.981 38.388 114.661 39.066 114.401 39.8238C114.161 40.5617 114.601 41.2995 114.661 42.0373C114.821 43.8521 114.601 45.7066 114.541 47.5213C114.461 49.5754 114.421 51.6692 114.741 53.7233C114.881 54.6406 114.261 55.4582 114.461 56.4353C114.821 58.1104 114.641 59.8254 114.561 61.5404C114.521 62.4378 114.401 63.3751 114.541 64.2326C114.821 65.9276 114.661 67.503 114.401 69.1981C114.161 70.7137 114.481 72.4287 114.701 74.044C114.781 74.6422 114.441 74.9613 114.361 75.4199C114.221 76.2376 114.361 77.0552 114.481 77.8728C114.761 79.7274 114.561 81.6019 114.641 83.4565C114.701 84.9521 114.541 86.4278 114.821 87.9434C114.941 88.5815 114.041 89.3991 114.401 90.0572C115.441 91.9716 114.021 93.7863 114.321 95.6409C114.561 97.0967 114.221 98.6322 114.681 100.068C114.861 100.606 114.641 100.806 114.141 100.826C112.641 100.886 111.062 101.245 109.662 101.025C107.202 100.626 104.783 101.085 102.383 100.866C99.9434 100.626 97.5038 100.906 95.0642 100.766C94.1644 100.726 93.1646 100.606 92.3047 100.886C90.9449 101.324 89.6651 100.786 88.3454 100.945C86.9856 101.105 85.6058 100.806 84.246 100.626C83.6861 100.547 82.8663 100.587 82.1664 100.726C80.9666 100.945 79.6868 100.746 78.467 100.906C77.1072 101.065 75.7674 100.606 74.5077 100.666C72.8679 100.746 71.1482 100.567 69.5085 101.045H69.2685C66.749 100.387 64.2094 101.304 61.6498 100.985C60.1301 100.806 58.4303 100.367 57.0906 100.906L57.0706 100.866ZM14.9376 8.93395C12.538 8.89407 11.1782 10.5492 11.7781 12.5833C11.9781 13.2414 12.0981 13.8197 11.7381 14.4778C11.5981 14.737 11.5382 15.1159 11.6581 15.4948C12.0781 16.7312 11.2782 18.0673 11.9781 19.3037L11.8981 19.6427C11.6181 21.5771 11.7981 23.5114 11.6381 25.4458C11.5582 26.4827 12.0381 27.4998 11.7781 28.437C11.2782 30.2517 12.298 32.1462 11.3982 33.921L11.4982 34.1205C12.238 34.7387 11.9181 35.4366 11.7181 36.1745C11.4782 36.9721 11.4782 37.7499 11.6381 38.6074C11.8981 39.9634 12.378 41.2796 11.9181 42.7752C11.2182 45.1084 12.258 47.6011 11.5781 49.9941L11.7581 50.5326C12.378 51.9285 12.518 53.2845 11.5981 54.6206C11.4582 54.82 11.3982 55.1989 11.4782 55.4183C11.9781 56.6746 11.6781 57.9908 11.6981 59.2671C11.7381 62.1786 11.4182 65.0901 12.278 67.9617C12.478 68.5998 12.418 69.4174 12.0381 70.0357C11.4982 70.8932 11.5582 71.7506 11.9381 72.6081C12.198 73.1865 12.378 73.8246 12.1581 74.3231C11.3582 76.1777 11.7581 78.132 11.5182 80.0464C11.3182 81.562 11.2982 83.1374 11.5382 84.6331C11.7781 86.0888 11.7781 87.5047 11.6581 88.9405C11.5182 90.7352 11.7581 92.53 11.4982 94.3447C11.3982 95.1424 12.1181 95.5811 12.7979 95.96C14.8576 97.1166 17.1372 96.6181 19.2369 96.6181C20.8766 96.6181 22.6163 96.5583 24.216 96.6181C26.7956 96.7377 29.3952 96.319 31.9548 96.7976C32.7546 96.9571 33.5945 96.3788 34.2744 96.5981C35.6741 97.0369 37.0939 96.7178 38.4937 96.8175C43.1929 97.1166 47.8921 96.299 52.6113 96.7776C55.7908 97.0967 58.9503 96.1395 62.2097 96.6979C64.0094 97.0169 65.9691 97.1565 67.8888 96.7577C69.1486 96.4984 70.4483 96.8574 71.7281 96.8374C74.3877 96.7976 77.0472 96.7178 79.7068 96.7776C81.9064 96.8175 84.0861 96.6181 86.3057 96.7776C90.745 97.0967 95.1642 96.4984 99.6235 96.8175C102.523 97.0169 105.482 96.8973 108.402 96.3588C109.382 96.1794 109.682 95.8204 109.622 94.943C109.542 93.7066 109.362 92.4502 109.402 91.2139C109.442 90.1769 109.862 89.1399 109.462 88.1229C108.902 86.707 109.382 85.2313 109.382 83.8553C109.382 81.7814 109.362 79.6476 109.282 77.5936C109.182 74.6023 109.162 71.5911 109.402 68.6597C109.622 66.0672 109.182 63.4947 109.582 60.9023C109.882 58.9081 109.222 56.9139 109.522 54.8001C109.782 52.8857 109.122 50.8317 109.482 48.7976C109.702 47.5213 109.542 46.2451 109.482 44.9489C109.402 42.3963 109.402 39.8238 109.442 37.2513C109.482 35.7357 109.202 34.26 109.382 32.7046C109.562 31.2887 109.802 29.7931 109.342 28.3972C108.982 27.3004 108.962 26.1437 109.222 25.1267C109.922 22.295 109.082 19.4832 109.442 16.6714C109.662 14.9963 108.782 13.3411 109.562 11.5663C110.182 10.1703 108.922 8.73453 107.362 8.85418C105.982 8.95389 104.623 8.85418 103.263 8.85418C99.3835 8.85418 95.5042 9.11343 91.6448 8.93395C89.1052 8.8143 86.6456 9.0536 84.1461 9.09348C82.9263 9.09348 81.6665 9.45244 80.5267 9.25302C78.207 8.83424 75.8674 8.69465 73.5878 8.83424C70.6283 8.99377 67.6688 8.91401 64.7093 9.07354C61.5698 9.23308 58.4503 8.47529 55.2909 8.93395C53.4512 9.21313 51.5715 8.49523 49.6918 8.79436C48.612 8.95389 47.4922 9.25302 46.4323 9.13337C44.1527 8.85418 41.8931 8.89407 39.6335 8.95389C36.754 9.0536 33.8544 9.03366 30.9949 8.91401C27.3155 8.73453 23.6361 9.27296 19.9568 8.87412C18.217 8.69465 16.4373 8.67471 14.9176 8.95389L14.9376 8.93395Z" fill="#79CBE8"/>
<path fill-rule="evenodd" clip-rule="evenodd" d="M14.9377 8.93391C16.4575 8.65472 18.2372 8.67467 19.9769 8.85414C23.6563 9.23304 27.3356 8.71455 31.015 8.89402C33.8746 9.03362 36.7741 9.03362 39.6536 8.93391C41.9132 8.85414 44.1728 8.8342 46.4525 9.11339C47.5123 9.23304 48.6321 8.95385 49.7119 8.77437C51.5916 8.47525 53.4513 9.19315 55.311 8.91397C58.4705 8.4553 61.5699 9.21309 64.7294 9.05356C67.6889 8.91397 70.6484 8.99373 73.6079 8.81426C75.8876 8.67467 78.2472 8.81426 80.5468 9.23304C81.6866 9.43245 82.9464 9.09344 84.1662 9.0735C86.6658 9.05356 89.1253 8.79432 91.6649 8.91397C95.5243 9.09344 99.4036 8.8342 103.283 8.8342C104.643 8.8342 106.003 8.93391 107.382 8.8342C108.922 8.71455 110.182 10.1504 109.582 11.5463C108.802 13.3211 109.682 14.9763 109.462 16.6514C109.102 19.4632 109.942 22.275 109.242 25.1067C108.982 26.1237 109.002 27.2804 109.362 28.3772C109.822 29.7731 109.582 31.2687 109.402 32.6846C109.202 34.2201 109.482 35.7158 109.462 37.2313C109.402 39.7839 109.402 42.3564 109.502 44.9289C109.562 46.2051 109.722 47.5014 109.502 48.7776C109.142 50.8117 109.802 52.8657 109.542 54.7801C109.242 56.894 109.922 58.9081 109.602 60.8823C109.202 63.4748 109.642 66.0472 109.422 68.6397C109.182 71.5711 109.182 74.5823 109.302 77.5736C109.382 79.6476 109.382 81.7614 109.402 83.8353C109.402 85.2313 108.922 86.687 109.482 88.1029C109.882 89.1 109.462 90.1569 109.422 91.1939C109.382 92.4303 109.562 93.6866 109.642 94.923C109.722 95.8004 109.422 96.1594 108.422 96.3389C105.503 96.8773 102.543 96.9969 99.6436 96.7975C95.1843 96.4784 90.7651 97.0767 86.3258 96.7576C84.1262 96.5981 81.9265 96.7975 79.7269 96.7576C77.0674 96.7177 74.4078 96.7776 71.7482 96.8175C70.4885 96.8175 69.1687 96.4784 67.9089 96.7377C65.9892 97.1166 64.0295 96.977 62.2298 96.6779C58.9704 96.1195 55.8109 97.0767 52.6314 96.7576C47.9122 96.299 43.193 97.1166 38.5138 96.7975C37.134 96.7177 35.7142 97.0169 34.2945 96.5782C33.5946 96.3588 32.7747 96.9371 31.9749 96.7776C29.4153 96.299 26.8157 96.7177 24.2362 96.5981C22.6364 96.5183 20.8967 96.5981 19.257 96.5981C17.1573 96.5981 14.8577 97.0966 12.8181 95.94C12.1382 95.5611 11.3983 95.1025 11.5183 94.3247C11.7582 92.53 11.5183 90.7153 11.6783 88.9205C11.7982 87.4647 11.7982 86.0688 11.5583 84.6131C11.3183 83.1174 11.3383 81.542 11.5383 80.0265C11.7782 78.132 11.3783 76.1577 12.1782 74.3032C12.3981 73.8046 12.2182 73.1465 11.9582 72.5882C11.5783 71.7307 11.5183 70.8931 12.0582 70.0157C12.4381 69.3975 12.4781 68.5998 12.2981 67.9417C11.4383 65.0701 11.7582 62.1586 11.7182 59.2471C11.7182 57.9708 11.9982 56.6746 11.4983 55.3983C11.4183 55.179 11.4783 54.8001 11.6183 54.6006C12.5381 53.2645 12.3981 51.8886 11.7782 50.5126L11.5983 49.9741C12.2782 47.5811 11.2383 45.0884 11.9382 42.7552C12.3981 41.2396 11.9382 39.9434 11.6583 38.5874C11.4983 37.7299 11.5183 36.9521 11.7382 36.1545C11.9582 35.4166 12.2582 34.7187 11.5183 34.1005L11.4183 33.9011C12.3181 32.1462 11.2983 30.2517 11.7982 28.4171C12.0582 27.4798 11.5783 26.4428 11.6583 25.4258C11.8182 23.4914 11.6383 21.5571 11.9182 19.6227L11.9982 19.2837C11.2983 18.0673 12.0982 16.7112 11.6783 15.4748C11.5583 15.0959 11.5983 14.717 11.7582 14.4578C12.1182 13.7997 11.9982 13.2214 11.7982 12.5633C11.2183 10.5093 12.5581 8.85414 14.9577 8.91397L14.9377 8.93391ZM16.3175 90.0372C16.3575 90.7551 16.3775 91.154 16.3975 91.5329C16.4175 91.8918 16.4375 92.3306 16.9374 92.2707C19.077 92.0514 21.1967 92.3904 23.3363 92.3904C24.5361 92.3904 25.7559 92.3505 26.9557 92.3505C28.9754 92.3505 30.995 92.2508 32.9947 92.53C33.5146 92.5898 34.0945 92.171 34.5944 92.2707C36.1142 92.5898 37.6339 92.2308 39.1537 92.2707C41.2333 92.3306 43.333 92.3704 45.4126 92.3505C48.0922 92.3106 50.7717 92.3704 53.4513 92.53C54.1312 92.5699 55.431 92.5499 55.231 91.4531C54.8711 89.4589 55.111 87.5046 55.031 85.5304C54.951 83.2171 54.6511 80.9039 55.371 78.6305L55.251 78.0722C54.5511 77.4141 54.931 76.6164 55.011 75.8985C55.071 75.2604 55.191 74.5624 54.931 74.0439C54.4911 73.0867 54.7511 72.309 55.191 71.5113C55.5309 70.913 55.431 70.3347 54.971 69.8362C54.8311 69.6767 54.6911 69.6168 54.7711 69.3775C55.031 68.5599 55.131 67.7822 54.971 66.8848C54.5911 64.771 55.371 62.6173 54.8111 60.4635C54.7111 60.0647 54.8111 59.5662 55.171 59.1474C55.5309 58.7286 55.5109 58.1902 55.091 57.7514C54.911 57.552 54.7111 57.3925 54.7111 57.0535C54.7511 55.1191 54.5711 53.1449 54.8111 51.2704C55.131 48.7776 55.071 46.2849 54.931 43.852C54.8111 41.5188 55.451 39.2056 54.7911 36.8126C54.5111 35.7556 54.7511 34.3597 54.7911 33.1034C54.8711 31.528 55.5109 29.9925 55.091 28.3572C54.7711 27.1408 55.451 25.8844 55.211 24.668C54.8911 23.0527 55.6909 21.3377 54.7311 19.7823C54.6511 19.6427 54.7711 19.3036 54.8711 19.1042C55.171 18.486 55.051 17.808 55.131 17.1499C55.291 15.9734 54.7311 14.8167 55.171 13.6003C55.391 13.022 55.131 12.2642 54.1312 12.2841C52.9914 12.2841 51.8716 12.2243 50.7317 12.1844C48.5521 12.0847 46.3925 12.3838 44.2128 12.3041C42.0932 12.2243 39.9535 11.9451 37.7939 12.3041C35.1743 12.7229 32.5348 12.0847 29.8952 12.2044C28.1955 12.2841 26.5158 12.0448 24.8361 12.1645C22.6364 12.344 20.4568 12.6032 18.2572 12.2243C16.9374 12.0049 16.0975 12.7428 16.3775 14.059C16.6174 15.2156 16.3775 16.3523 16.4575 17.5089C16.5574 19.3236 16.6174 21.1782 16.5974 23.0128C16.5974 24.7079 16.1775 26.4827 16.8174 28.1578C16.8974 28.3373 16.8174 28.6165 16.7174 28.8358C16.0775 30.5309 16.1575 32.3256 16.1775 34.0606C16.1775 35.8952 16.7574 37.7498 16.3175 39.5845C15.8776 41.4191 16.6974 43.174 16.4775 45.0086C16.1175 47.8204 16.8374 50.6322 16.5574 53.464C16.4575 54.481 16.5774 55.5379 16.6374 56.5749C16.7774 59.5861 15.7776 62.5973 16.5374 65.6285C16.5974 65.8877 16.5374 66.1669 16.5374 66.4461C16.4575 68.4403 15.9375 70.4145 16.5374 72.4087C16.6174 72.6679 16.5574 72.9671 16.5374 73.2263C16.2175 76.1378 16.3775 79.0692 16.6374 81.9808C16.6574 82.2998 16.8574 82.6388 16.7574 82.8981C15.9775 85.331 16.6374 87.8636 16.2375 89.9974L16.3175 90.0372ZM103.463 92.2907C104.783 92.8291 104.743 91.8121 104.683 91.1939C104.603 90.3164 104.683 89.4789 104.683 88.6214C104.723 86.2882 104.683 83.955 104.603 81.6218C104.543 79.0692 104.683 76.5366 104.343 73.9841C104.243 73.1465 104.303 72.2691 104.503 71.4116C105.063 69.0186 104.923 66.5458 104.763 64.1528C104.623 62.2384 104.743 60.3239 104.563 58.4295C104.423 56.8142 104.643 55.1989 104.563 53.5836C104.423 51.1308 104.323 48.6779 104.463 46.2251C104.563 44.2907 104.703 42.3165 104.703 40.4021C104.703 38.0489 104.843 35.6759 104.703 33.3028C104.663 32.3456 104.303 31.4482 104.323 30.5109C104.363 27.9783 104.503 25.4258 104.523 22.8932C104.523 20.9588 104.243 19.0245 104.483 17.0702C104.623 15.9933 104.543 14.8965 104.723 13.7997C104.843 13.0818 104.903 12.1645 103.603 12.2442C100.104 12.4437 96.6041 12.1246 93.1047 12.3041C89.4853 12.4836 85.8459 12.2642 82.2065 12.2442C81.6066 12.2442 81.0667 12.0049 80.4468 12.1246C78.7671 12.4636 77.0474 12.3639 75.3876 12.2243C72.948 12.0249 70.5085 12.2642 68.0689 12.2243C65.8292 12.1645 63.5496 12.1844 61.29 12.4437C59.7702 12.6231 59.7302 12.4437 59.6703 14.059C59.6303 14.9962 59.5903 15.9335 59.8102 16.8907C59.9502 17.4889 60.0102 18.1869 59.8702 18.7652C59.3903 20.7395 59.5103 22.7336 59.5703 24.7079C59.6503 26.8815 59.8702 29.0552 59.8302 31.2288C59.7702 34.6788 59.6903 38.1287 59.8702 41.5786C59.9102 42.3963 60.2702 43.2139 59.6903 44.0514C59.4703 44.3705 59.4503 44.9887 59.8702 45.3476C60.1102 45.5471 59.9702 45.7066 59.9702 45.9459C59.8502 48.5184 59.4103 51.1507 59.7702 53.6634C60.1702 56.3954 59.4703 59.0277 59.6703 61.7398C59.7502 62.8167 59.8702 63.9534 59.9302 65.0501C60.0102 66.8649 59.9302 68.6796 59.7302 70.4743C59.4703 73.0468 59.7702 75.5994 59.8102 78.132C59.8502 80.2658 59.6503 82.4195 59.9102 84.5931C60.1902 86.9662 60.0502 89.419 59.7702 91.832C59.7302 92.2109 59.7702 92.5898 60.1902 92.4103C61.07 92.0115 61.9299 92.1311 62.8097 92.171C64.6494 92.2308 66.4891 92.171 68.3088 92.51C68.7687 92.5898 69.2487 92.51 69.6486 92.5698C70.9284 92.7294 72.1082 92.2308 73.368 92.3305C75.5676 92.51 77.7872 92.3904 79.9669 92.2308C82.3065 92.0514 84.6061 92.4701 86.9457 92.3704C89.1853 92.2707 91.5049 92.51 93.7646 92.4303C95.7642 92.3505 97.7639 92.6496 99.7636 92.3106C100.983 92.1112 102.243 92.1112 103.383 92.2907H103.463Z" fill="#1E6E67"/>
<path fill-rule="evenodd" clip-rule="evenodd" d="M95.8842 79.0294C95.8842 77.1349 95.9642 75.2205 95.8842 73.326C95.8443 72.4885 96.1642 71.611 95.7443 70.7735C97.164 69.9559 95.6243 68.879 95.9842 67.842C96.2842 66.9646 95.9442 65.7481 95.8442 64.6713C95.7443 63.5147 96.0042 62.3381 96.1042 61.1615C96.1242 60.8424 96.2242 60.5433 96.2442 60.2243C96.3242 58.2101 96.0642 58.0107 94.0845 57.9309C91.185 57.8113 88.2855 57.9908 85.386 57.7914C83.6263 57.6717 81.8066 58.1902 80.0069 58.1702C76.4675 58.1304 72.9281 58.1702 69.3887 58.1702C68.8088 58.1702 68.4288 58.1702 68.6488 58.9081V59.3668C68.2089 61.002 68.7288 62.6572 68.6288 64.2525C68.5688 65.1499 68.6288 66.1071 68.5688 67.0045C68.4888 68.3804 67.9089 69.8362 68.7088 71.1922L68.6488 71.7506C68.0489 73.3659 68.5088 75.0011 68.5088 76.6364C68.5088 78.3514 68.8687 80.0863 68.5488 81.7813C68.3488 82.7784 68.3688 83.7356 68.6688 84.6929C68.9087 85.4108 68.6088 85.9492 68.1689 86.368C67.6489 86.8266 66.8891 86.7668 66.2892 86.6471C65.9492 86.5873 65.7493 86.2084 65.3093 86.5674C65.1894 86.6671 64.4695 86.5474 64.4695 85.8096C64.5295 76.1179 64.5695 66.4461 64.5495 56.7544C64.5495 55.3784 65.6093 55.2587 66.3292 55.159C67.7089 54.9796 69.1087 54.6804 70.5085 55.0394C70.9684 55.159 71.3483 54.8798 71.7483 54.8001C73.7279 54.4411 75.6876 54.84 77.6473 54.8001C79.7869 54.7203 81.9266 55.0394 84.1062 54.9397C85.8459 54.8599 87.6656 54.9197 89.4453 54.9796C91.0251 55.0394 92.6248 54.84 94.2045 54.8599C96.0642 54.8599 97.9239 55.0194 99.7836 55.0992C100.344 55.1191 100.543 55.3983 100.523 55.9368C100.363 58.5093 101.183 61.0419 100.883 63.6542C100.563 66.3065 101.123 68.9986 100.863 71.631C100.723 73.1465 100.943 74.5824 100.943 76.0381C100.943 78.0323 100.703 80.0664 100.903 82.0406C101.063 83.5163 100.903 84.9521 100.883 86.3879C100.863 87.1856 100.623 87.7639 99.7236 87.7439C97.564 87.6841 95.4643 88.1627 93.2647 87.9434C91.0051 87.724 88.6654 88.1827 86.3658 87.9633C83.9662 87.7439 81.6066 88.1428 79.187 87.9633C77.8073 87.8437 76.3475 87.8237 74.9277 88.2026C73.368 88.6413 71.4083 87.6642 70.7684 86.3281C70.5085 85.7697 70.5085 85.7896 71.1284 85.67L71.6083 85.3709C72.5681 84.633 73.648 84.9322 74.7078 84.8723C76.0875 84.8125 77.4473 84.8324 78.8071 84.8723C80.6268 84.9122 82.4665 84.6929 84.2862 84.972C85.546 85.1715 86.8058 84.8923 88.0455 84.8125C90.0652 84.6729 92.0449 84.9122 94.0445 84.8923C95.9242 84.8723 96.6041 83.8952 96.0242 82.0406C95.7043 81.0236 95.8442 80.0464 95.9442 79.0294L96.1242 78.9097L96.0842 78.83L95.9442 79.0493L95.8842 79.0294Z" fill="#1E6E67"/>
<path fill-rule="evenodd" clip-rule="evenodd" d="M64.4094 33.3627C64.4094 28.3772 64.4294 23.3918 64.4094 18.4263C64.4094 17.5289 64.6493 17.13 65.5892 17.13C67.4289 17.13 69.2886 17.0303 71.1283 17.0104C73.7078 17.0104 76.2874 17.0902 78.867 16.9705C81.6065 16.8509 84.3661 16.8309 87.1056 16.8708C88.3854 16.8907 89.7252 17.4491 90.965 17.0702C92.8047 16.4919 94.6443 17.4092 96.504 16.8309C97.0839 16.6514 98.0038 16.9306 98.7237 17.0902C99.6235 17.2896 99.8835 18.865 99.1636 19.4632C98.6437 19.902 98.0838 20.3008 97.3439 20.221C95.2642 20.0216 93.1646 20.221 91.0849 20.1811C88.1854 20.1014 85.2659 20.0415 82.3664 19.9618C80.3467 19.902 78.3471 20.3806 76.3274 20.1612C73.9278 19.902 71.5282 20.4005 69.1286 20.1413C68.4687 20.0615 68.2087 20.2609 68.0088 21.1383C67.4489 23.8305 68.2687 26.4429 68.1088 29.0951C67.9688 31.2887 68.0688 33.5023 68.1288 35.7158C68.1488 36.6132 67.3889 37.371 67.7888 38.3082C68.6887 40.3622 67.6088 42.5359 68.2087 44.6298C68.3087 44.9887 68.1088 45.4674 67.9288 45.8462C67.7488 46.2251 67.7888 46.5442 67.9888 46.8433C68.2087 47.1624 68.5687 47.0228 68.8686 46.9829C70.9483 46.7835 73.0479 46.6838 75.1476 46.6838C77.3472 46.6838 79.5269 47.0627 81.7465 46.943C83.3262 46.8633 84.966 47.2821 86.4857 47.0228C88.2254 46.7237 89.9251 46.943 91.6248 46.7835C92.7047 46.6838 93.8245 46.7237 94.7843 46.9032C96.2441 47.1624 96.0441 46.1254 96.0641 45.6069C96.1241 43.5928 96.0641 41.5787 95.9241 39.5845C95.7842 37.3112 96.4041 35.0577 96.0641 32.8242C95.6842 30.3315 96.0841 27.9385 96.484 25.5455C96.584 24.9273 96.524 24.0299 97.4639 24.01C98.2837 23.99 98.8436 24.6082 99.1636 25.3062C99.3836 25.7648 99.4235 26.3033 99.4635 26.8018C99.9835 33.0835 99.7035 39.3652 99.7235 45.6468C99.7235 46.7436 99.6235 47.8604 99.7235 48.9572C99.8235 50.034 99.3836 50.2534 98.4437 50.1537C97.2639 50.034 96.0841 49.9343 94.9043 49.9343C92.7247 49.9343 90.525 50.0141 88.3454 50.034C86.3657 50.034 84.3661 50.0739 82.3864 50.0141C78.667 49.8745 74.9476 50.0739 71.2282 50.1138C69.2686 50.1138 67.2889 50.1537 65.3292 50.0141C64.7093 49.9543 64.4494 49.1965 64.4494 48.4586C64.4694 44.9688 64.4494 41.4989 64.4494 38.0091V33.3826H64.3694L64.4094 33.3627Z" fill="#1E6E67"/>
<path fill-rule="evenodd" clip-rule="evenodd" d="M104.703 88.6213C104.743 86.2881 104.703 83.955 104.623 81.6218C104.563 79.0692 104.703 76.5366 104.363 73.984C104.263 73.1465 104.323 72.2691 104.523 71.4116C105.082 69.0185 104.943 66.5458 104.783 64.1527C104.643 62.2383 104.763 60.3239 104.583 58.4294C104.443 56.8142 104.663 55.1989 104.583 53.5836C104.443 51.1307 104.343 48.6779 104.483 46.2251C104.583 44.2907 104.723 42.3165 104.723 40.4021C104.723 38.0489 104.863 35.6758 104.723 33.3028C104.683 32.3456 104.323 31.4482 104.343 30.5109C104.383 27.9783 104.523 25.4258 104.543 22.8931C104.543 20.9588 104.263 19.0244 104.503 17.0701C104.643 15.9933 104.563 14.8965 104.743 13.7997C104.863 13.0818 104.923 12.1645 103.623 12.2442C100.123 12.4436 96.6239 12.1246 93.1245 12.304C89.5051 12.4835 85.8657 12.2642 82.2263 12.2442C81.6264 12.2442 81.0865 12.0049 80.4666 12.1246C78.7869 12.4636 77.0672 12.3639 75.4074 12.2243C72.9678 12.0249 70.5282 12.2642 68.0886 12.2243C65.849 12.1645 63.5694 12.1844 61.3098 12.4436C59.79 12.6231 59.75 12.4436 59.69 14.0589C59.6501 14.9962 59.6101 15.9335 59.83 16.8907C59.97 17.4889 60.03 18.1869 59.89 18.7652C59.4101 20.7394 59.5301 22.7336 59.5901 24.7078C59.6701 26.8815 59.89 29.0552 59.85 31.2288C59.79 34.6787 59.71 38.1287 59.89 41.5786C59.93 42.3962 60.29 43.2138 59.71 44.0514C59.4901 44.3705 59.4701 44.9887 59.89 45.3476C60.13 45.547 59.99 45.7066 59.99 45.9459C59.87 48.5184 59.4301 51.1507 59.79 53.6633C60.19 56.3954 59.4901 59.0277 59.69 61.7398C59.77 62.8166 59.89 63.9533 59.95 65.0501C60.03 66.8648 59.95 68.6795 59.75 70.4743C59.4901 73.0468 59.79 75.5993 59.83 78.132C59.87 80.2657 59.6701 82.4194 59.93 84.5931C60.21 86.9662 60.07 89.419 59.79 91.832C59.75 92.2109 59.79 92.5898 60.21 92.4103C61.0898 92.0115 61.9497 92.1311 62.8295 92.171C64.6692 92.2308 66.5089 92.171 68.3286 92.51C68.7885 92.5898 69.2685 92.51 69.6684 92.5698C70.9482 92.7293 72.128 92.2308 73.3878 92.3305C75.5874 92.51 77.807 92.3903 79.9867 92.2308C82.3263 92.0513 84.6259 92.4701 86.9655 92.3704C89.2051 92.2707 91.5247 92.51 93.7844 92.4302C95.784 92.3505 97.7837 92.6496 99.7834 92.3106C101.003 92.1112 102.263 92.1112 103.403 92.2906C104.723 92.8291 104.683 91.812 104.623 91.1938C104.543 90.3164 104.623 89.4788 104.623 88.6213H104.703ZM65.5491 17.13C67.3888 17.13 69.2485 17.0303 71.0881 17.0103C73.6677 17.0103 76.2473 17.0901 78.8269 16.9704C81.5664 16.8508 84.3259 16.8308 87.0655 16.8707C87.6854 16.8707 88.3253 17.0103 88.9452 17.11H90.7049L90.9248 17.0701C92.7645 16.4918 94.6042 17.4091 96.4639 16.8308C97.0438 16.6514 97.9637 16.9305 98.6835 17.0901C99.5834 17.2895 99.8434 18.8649 99.1235 19.4632C98.9235 19.6426 98.7035 19.8022 98.4636 19.9218V24.309C98.7635 24.5483 99.0035 24.8873 99.1835 25.2463C99.4034 25.7049 99.4434 26.2434 99.4834 26.7419C100.003 33.0236 99.7234 39.3053 99.7434 45.5869C99.7434 46.6837 99.6434 47.8005 99.7434 48.8973C99.8434 49.9741 99.4034 50.1935 98.4636 50.0938H65.5491V49.9542H65.3491C64.7292 49.8943 64.4693 49.1366 64.4693 48.3987C64.4893 44.9089 64.4693 41.439 64.4693 37.9492V33.3227H64.3893C64.3893 28.3373 64.4093 23.3518 64.3893 18.3863C64.3893 17.4889 64.6292 17.0901 65.5691 17.0901L65.5491 17.13ZM100.803 86.3879C100.783 87.1855 100.543 87.7638 99.6434 87.7439C97.4837 87.6841 95.3841 88.1627 93.1845 87.9433C90.9248 87.724 88.5852 88.1826 86.2856 87.9633C83.886 87.7439 81.5264 88.1427 79.1068 87.9633C77.727 87.8436 76.2673 87.8237 74.8475 88.2026C73.4278 88.6014 71.688 87.8237 70.9082 86.667H67.6087C67.1688 86.8066 66.6489 86.7468 66.229 86.667C65.889 86.6072 65.6891 86.2283 65.2491 86.5873C65.1291 86.687 64.4093 86.5673 64.4093 85.8295C64.4693 76.1378 64.5092 66.466 64.4892 56.7743C64.4892 55.3983 65.5491 55.2786 66.269 55.1789C67.6487 54.9995 69.0485 54.7003 70.4483 55.0593C70.9082 55.1789 71.2881 54.8997 71.688 54.82C73.6677 54.461 75.6274 54.8599 77.5871 54.82C79.7267 54.7402 81.8664 55.0593 84.046 54.9596C85.7857 54.8798 87.6054 54.9396 89.3851 54.9995C90.9648 55.0593 92.5646 54.8599 94.1443 54.8798C96.004 54.8798 97.8637 55.0393 99.7234 55.1191C100.283 55.139 100.483 55.4182 100.463 55.9567C100.303 58.5291 101.123 61.0618 100.823 63.6741C100.503 66.3264 101.063 69.0185 100.803 71.6509C100.663 73.1664 100.883 74.6022 100.883 76.058C100.883 78.0522 100.643 80.0863 100.843 82.0605C101.003 83.5362 100.843 84.972 100.823 86.4078L100.803 86.3879Z" fill="#79CBE8"/>
<path fill-rule="evenodd" clip-rule="evenodd" d="M90.4451 22.1355C88.2655 24.0698 86.0859 25.9842 83.9262 27.9385C83.1663 28.6166 82.4065 29.2148 81.6066 29.8131C80.2068 30.8301 79.067 31.3486 78.5271 30.531C78.1872 30.0324 79.147 28.3374 80.4068 27.4001C83.3263 25.1866 85.9059 22.654 88.5454 20.1612C89.3853 19.3636 90.3052 18.8052 91.145 18.0873C92.1249 17.2298 92.5248 17.6486 93.0847 17.7882C93.6846 17.9477 93.5046 18.4462 93.0847 19.0844C92.4048 20.1812 91.5449 21.1982 90.4451 22.1554V22.1355Z" fill="#79CBE8"/>
<path fill-rule="evenodd" clip-rule="evenodd" d="M90.4451 33.1034C88.2655 35.0377 86.0859 36.9521 83.9262 38.9064C83.1663 39.5844 82.4065 40.1827 81.6066 40.781C80.2068 41.798 79.067 42.3165 78.5271 41.4989C78.1872 41.0003 79.147 39.3053 80.4068 38.368C83.3263 36.1545 85.9059 33.6218 88.5454 31.1291C89.3853 30.3314 90.3052 29.7731 91.145 29.0552C92.1249 28.1977 92.5248 28.6165 93.0847 28.756C93.6846 28.9156 93.5046 29.4141 93.0847 30.0523C92.4048 31.1491 91.5449 32.1661 90.4451 33.1233V33.1034Z" fill="#79CBE8"/>
<path fill-rule="evenodd" clip-rule="evenodd" d="M77.3472 70.2151C75.1676 72.1494 72.9879 74.0638 70.8283 76.0181C70.0684 76.6961 69.3086 77.2944 68.5087 77.8927C67.1089 78.9097 65.9691 79.4282 65.4292 78.6106C65.0893 78.112 66.0491 76.417 67.3089 75.4797C70.2084 73.2662 72.808 70.7335 75.4475 68.2408C76.2874 67.4431 77.2072 66.8848 78.0471 66.1669C79.0269 65.3094 79.4269 65.7281 79.9868 65.8677C80.5867 66.0273 80.4067 66.5258 79.9868 67.164C79.3069 68.2608 78.447 69.2778 77.3472 70.235V70.2151Z" fill="#79CBE8"/>
<path fill-rule="evenodd" clip-rule="evenodd" d="M87.1255 72.3688C84.9459 74.3031 82.7663 76.2176 80.6066 78.1719C79.8468 78.8499 79.0869 79.4481 78.287 80.0464C76.8873 81.0634 75.7474 81.5819 75.2075 80.7643C74.8676 80.2657 75.8274 78.5707 77.0872 77.6334C80.0067 75.4199 82.5863 72.8873 85.2259 70.3945C86.0657 69.5969 86.9856 69.0385 87.8254 68.3007C88.8053 67.4432 89.2052 67.8619 89.7651 68.0015C90.365 68.1611 90.185 68.6596 89.7651 69.2977C89.0852 70.3945 88.2254 71.4116 87.1255 72.3688Z" fill="#79CBE8"/>
</svg>
