<svg width="194" height="200" viewBox="0 0 194 200" fill="none" xmlns="http://www.w3.org/2000/svg">
<g clip-path="url(#clip0_125_10775)">
<circle cx="96.5754" cy="104.794" r="92.4658" fill="white"/>
<path opacity="0.4" fill-rule="evenodd" clip-rule="evenodd" d="M87.209 50.5378C87.5974 52.0914 86.1036 53.8094 83.8629 54.377C81.6221 54.9447 79.486 54.1529 79.0827 52.5993C78.6943 51.0457 80.1881 49.3277 82.4288 48.7601C84.6695 48.1924 86.8057 48.9841 87.209 50.5378Z" fill="#E06765"/>
<path opacity="0.4" fill-rule="evenodd" clip-rule="evenodd" d="M121.597 40.7081C121.985 42.2617 120.491 43.9796 118.251 44.5473C116.01 45.115 113.874 44.3232 113.47 42.7696C113.082 41.216 114.576 39.498 116.817 38.9303C119.057 38.3627 121.193 39.1544 121.597 40.7081Z" fill="#E06765"/>
<path fill-rule="evenodd" clip-rule="evenodd" d="M102.775 96.0264C102.775 96.0264 102.775 91.1115 106.405 89.035C110.035 86.9735 118.565 82.0437 118.565 82.0437L123.33 87.4814H125.556L128.917 83.3434L150.383 114.655L138.746 110.771C138.746 110.771 125.81 100.881 119.341 99.7461C112.873 98.6108 108.033 99.7461 108.033 99.7461L102.775 96.0264V96.0264Z" fill="#6BB3A9"/>
<path fill-rule="evenodd" clip-rule="evenodd" d="M142.824 184.942C142.824 184.942 148.052 163.818 146.499 159.426C144.945 155.019 146.783 155.796 146.783 155.796L170.579 159.441L157.478 174.081L142.809 184.957L142.824 184.942Z" fill="#6BB3A9"/>
<path fill-rule="evenodd" clip-rule="evenodd" d="M32.5205 174.081C32.5205 174.081 34.5521 144.891 38.0925 136.107C41.6328 127.323 55.8689 114.804 55.8689 114.804L46.4877 112.07L44.7101 109.217C44.7101 109.217 40.3481 104.556 39.9896 103.003C39.6162 101.449 39.9896 99.3725 39.9896 99.3725C39.9896 99.3725 36.7779 98.775 37.0319 94.5473C37.2858 90.3197 39.9896 85.9277 39.9896 85.9277L41.4386 78.6824L42.9623 76.6208L44.8595 72.184C44.8595 72.184 39.3622 61.6821 40.0046 47.0272C40.632 32.3723 45.9051 25.4407 45.9051 25.4407C45.9051 25.4407 10.0087 45.6976 2.95787 90.5288C-4.09295 139.767 32.5205 174.081 32.5205 174.081V174.081Z" fill="#6BB3A9"/>
<path fill-rule="evenodd" clip-rule="evenodd" d="M187.743 122.707L138.387 66.7613C138.387 66.7613 135.026 54.5414 129.499 48.9543C123.972 43.3672 120.865 41.2011 120.865 41.2011L114.949 18.7332L109.557 13.3403C109.557 13.3403 149.083 18.3 171.266 49.9701C193.449 81.6254 187.743 122.722 187.743 122.722V122.707Z" fill="#6BB3A9"/>
<path opacity="0.8" fill-rule="evenodd" clip-rule="evenodd" d="M33.2971 174.768C33.2971 174.768 56.765 194.981 84.1766 197.52C111.573 200.06 141.599 186.451 141.599 186.451C141.599 186.451 145.587 173.812 146.439 166.627C147.29 159.426 146.439 156.827 146.439 156.827H154.535L169.742 159.322C169.742 159.322 162.811 148.82 162.811 143.128V130.191L151.936 115.955L138.746 111.294C138.746 111.294 122.179 98.3567 119.341 98.3567C116.488 98.3567 108.033 99.746 108.033 99.746C108.033 99.746 110.513 102.226 112.589 108.963C114.68 115.686 114.845 128.578 114.845 128.578L111.857 133.015L106.912 134.314L100.19 127.323C100.19 127.323 99.3986 134.045 95.0067 137.153C90.6149 140.26 78.7092 136.645 73.2866 128.488C67.8491 120.332 62.0382 108.859 62.0382 108.859C62.0382 108.859 44.2617 124.47 40.0193 133.776C35.7769 143.098 33.2971 174.739 33.2971 174.739V174.768Z" fill="#E06765"/>
<path d="M95.0068 200C42.6186 200 0 157.365 0 104.975C0 52.5844 42.6186 9.96411 95.0068 9.96411C147.395 9.96411 190.014 52.5844 190.014 104.975C190.014 157.365 147.395 199.985 95.0068 199.985V200ZM95.0068 13.6839C44.6652 13.6689 3.70467 54.631 3.70467 104.975C3.70467 155.318 44.6652 196.28 95.0068 196.28C145.348 196.28 186.309 155.318 186.309 104.975C186.309 54.631 145.348 13.6689 95.0068 13.6689V13.6839Z" fill="#376B77"/>
<path fill-rule="evenodd" clip-rule="evenodd" d="M114.128 26.083L108.72 11.0995L97.4715 2.65906L53.9417 17.4634L42.9771 30.1464L44.6352 38.5569L114.128 26.083Z" fill="white"/>
<path fill-rule="evenodd" clip-rule="evenodd" d="M45.9199 68.031C45.5464 64.7296 31.5643 36.8539 51.193 18.285C70.8218 -0.298822 89.5842 0.672196 97.4865 4.75048C97.4865 4.75048 98.7861 7.46933 92.1834 8.72418C85.5807 9.97904 83.818 10.3674 83.818 10.3674L81.7565 11.8165H77.051C77.051 11.8165 78.2162 16.7164 71.3596 18.1356C64.503 19.5548 65.7428 28.9961 65.7428 28.9961L64.8764 44.5772L65.7428 52.4798C65.7428 52.4798 55.7342 50.0448 57.0787 61.6522C58.4231 73.2447 69.7313 71.3773 69.7313 71.3773L72.0318 80.6244L72.9729 95.5631C72.9729 95.5631 69.7911 95.3092 67.5952 98.3418C65.3992 101.374 63.278 107.813 63.278 107.813L55.4056 114.64L49.2063 112.832L44.7547 109.202L40.0342 103.705L39.9745 99.7311L36.1055 93.2178L38.1221 87.5859L41.543 85.0612V79.4293L44.7547 75.0672C44.7547 75.0672 46.3232 71.2877 45.9348 67.9862L45.9199 68.031Z" fill="white"/>
<path fill-rule="evenodd" clip-rule="evenodd" d="M176.39 107.828C176.39 107.828 192.06 124.036 191.134 133.627C189.969 151.658 173.91 149.059 173.91 149.059L176.39 125.261V107.813V107.828Z" fill="white"/>
<path fill-rule="evenodd" clip-rule="evenodd" d="M30.5934 168.39C31.0266 168.614 31.3553 168.554 31.3702 168.016C31.5345 163.923 31.8333 159.86 32.4607 155.811C32.7147 154.138 32.7744 152.42 33.0134 150.717C33.1479 149.746 33.6259 148.909 33.7305 147.938C33.9695 145.862 34.4624 143.815 34.5969 141.694C34.7313 139.782 35.523 137.944 36.4343 136.212C36.5239 136.047 36.6733 135.883 36.7032 135.704C37.0766 133.254 38.6152 131.401 40.0045 129.519C41.1398 127.965 42.2602 126.352 43.7689 125.097C44.2021 124.739 44.6204 124.305 44.9192 123.842C46.6968 121.094 48.8628 118.703 51.3127 116.552C51.5517 116.343 51.8206 116.134 51.7758 115.686C51.3725 115.267 50.7152 115.357 50.2372 115.297C47.7126 115.028 46.1142 113.445 44.6055 111.667C43.993 110.95 43.754 110.099 43.754 109.172C43.754 108.694 43.6046 108.112 44.2918 107.903C44.8893 107.708 45.5914 107.693 45.8752 108.201C46.652 109.621 48.2205 110.143 49.2214 111.309C50.3268 112.593 51.7459 112.698 53.5534 112.369C56.3469 111.876 58.1992 110.054 60.3652 108.65C60.9329 108.291 61.142 107.604 61.2914 107.006C62.2624 103.092 64.0998 99.6863 66.8783 96.7284C67.8791 95.6678 68.8651 94.7565 70.4186 94.7415C71.2104 94.7415 71.4643 94.4278 71.4494 93.5614C71.3896 90.5587 71.5838 87.5411 71.4792 84.5384C71.3896 81.7897 70.7174 79.1604 69.0742 76.8748C68.3721 75.9038 68.7754 75.0523 69.9705 74.8581C71.6734 74.5892 72.6145 75.6648 73.3166 76.9047C75.0943 80.0866 75.886 83.4927 75.6769 87.1825C75.5275 89.9761 75.9756 92.8294 75.6769 95.5931C75.2586 99.4921 76.857 102.749 78.4554 105.975C79.7102 108.515 81.3086 110.95 83.131 113.101C85.8498 116.298 88.7328 119.42 92.318 121.721C93.289 122.348 94.245 122.991 95.2608 123.529C96.9638 124.425 97.4717 124.171 97.9796 122.348C98.6518 119.913 99.2045 117.463 99.7273 114.999C100.355 112.071 100.728 109.143 100.788 106.17C100.818 104.676 100.489 103.242 100.25 101.778C100.026 100.418 100.086 99.1037 100.414 97.7741C100.549 97.2214 100.758 96.6388 100.713 96.086C100.564 93.9797 101.789 92.3215 102.476 90.4989C103.148 88.6914 104.926 87.7801 106.599 86.9883C109.079 85.8082 111.633 84.7625 114.143 83.657C114.382 83.5524 114.666 83.4777 114.815 83.3134C117.459 80.1315 120.476 77.2184 121.223 72.8115C121.462 71.4222 121.806 69.9432 122.613 68.6734C122.777 68.4045 122.926 68.0908 122.971 67.792C123.524 63.654 124.017 59.5458 122.583 55.4526C121.761 53.1072 120.969 50.732 120.417 48.3268C120.088 46.9375 119.132 45.9217 118.833 44.5025C118.52 43.0385 118.012 41.5745 117.549 40.1105C116.906 38.034 116.368 35.9576 116.01 33.7914C115.577 31.1772 114.621 28.6674 114.113 26.0532C113.709 23.9319 112.559 22.1691 111.768 20.242C111.215 18.9124 110.289 17.7024 109.377 16.5671C107.645 14.3711 105.732 12.3245 103.298 10.8754C103.073 10.7409 102.849 10.6065 102.685 10.4272C102.342 10.0687 102.252 9.63548 102.521 9.20226C102.79 8.78397 103.193 8.61964 103.686 8.76903C105.479 9.29189 107.137 10.0089 108.705 11.0995C112.664 13.8482 114.875 17.8518 116.891 22.0645C118.699 25.8141 119.207 29.9074 120.133 33.8661C120.835 36.8539 121.447 39.8566 122.433 42.7696C122.628 43.3522 122.687 44.0245 123.27 44.4278C124.629 42.5904 125.839 42.426 127.781 43.6361C130.724 45.4735 132.561 48.1775 133.981 51.2399C136.162 55.9605 138.029 60.8007 139.717 65.7006C140.24 67.1796 141.241 68.4045 142.256 69.5249C144.363 71.8255 146.305 74.2904 148.396 76.6059C150.114 78.5031 151.832 80.3854 153.624 82.2079C156.298 84.9118 159.107 87.4963 161.721 90.2599C164.006 92.68 166.426 94.9507 168.772 97.2811C171.147 99.6564 173.477 102.121 176.032 104.332C178.048 106.08 179.706 108.246 181.499 110.233C181.708 110.472 181.843 110.801 182.096 110.965C184.083 112.205 184.741 114.52 186.294 116.119C186.458 116.298 186.503 116.612 186.668 116.776C188.938 119.047 190.268 121.87 191.478 124.783C191.672 125.261 191.851 125.725 191.986 126.232C192.613 128.413 192.971 130.654 193.076 132.925C193.091 133.313 193.166 133.732 193.046 134.075C191.956 137.063 192.075 140.35 190.193 143.218C188.744 145.444 186.966 147.012 184.92 148.551C182.634 150.284 180.08 151.105 177.391 151.703C176.539 151.897 176.315 152.405 176.286 153.003C176.241 154.452 175.718 155.707 175.105 157.006C174.403 158.47 173.522 159.561 171.924 159.994C171.759 160.039 171.55 160.128 171.446 160.278C170.236 161.772 168.607 161.518 167.203 160.98C163.767 159.68 160.167 159.187 156.627 158.455C155.566 158.231 154.476 158.127 153.52 157.544C153.116 157.305 152.683 157.215 152.22 157.29C151.279 157.439 150.338 157.589 149.367 157.544C148.605 157.499 148.187 157.918 148.426 158.784C149.352 162.235 149.158 165.76 148.799 169.241C148.575 171.392 147.739 173.439 147.066 175.486C146.588 176.92 146.484 178.503 145.528 179.788C145.393 179.967 145.363 180.296 145.423 180.535C145.856 182.298 144.856 183.777 144.497 185.375C144.318 186.226 143.75 186.555 142.779 186.436C139.851 186.077 139.702 186.002 140.777 183.194C141.405 181.551 141.151 179.788 141.808 178.145C142.346 176.8 142.854 175.426 143.197 174.036C143.855 171.362 144.617 168.763 144.542 165.88C144.422 160.442 143.242 155.214 142.301 149.925C142.107 148.85 142.077 147.759 141.987 146.669C141.943 146.101 142.226 145.668 142.719 145.414C143.227 145.145 143.556 145.518 143.9 145.802C144.333 146.176 144.781 146.43 145.005 147.057C145.782 149.268 147.141 151.27 147.246 153.705C147.276 154.541 147.813 154.601 148.426 154.601C150.338 154.631 152.25 154.541 154.162 154.825C154.476 154.87 154.819 154.855 155.103 154.96C158.39 156.244 161.9 156.468 165.396 157.38C165.5 156.648 165.276 156.17 164.977 155.677C162.871 152.196 161.601 148.491 161.153 144.368C160.869 141.784 160.75 139.199 160.6 136.63C160.556 136.107 160.645 135.629 160.69 135.121C160.869 132.447 161.049 129.818 158.793 127.681C157.329 126.277 156.089 124.634 154.939 122.916C154.282 121.945 153.385 121.079 152.638 120.108C152.369 119.749 152.011 119.405 151.877 119.002C151.279 117.165 150.024 116.313 148.127 115.955C144.915 115.342 141.973 113.848 138.85 112.907C138.611 112.832 138.343 112.743 138.163 112.578C134.533 108.948 129.888 106.663 125.929 103.451C123.135 101.18 119.61 100.075 116.04 99.6265C114.427 99.4174 112.738 99.761 111.11 100.134C110.214 100.344 110.139 100.777 110.602 101.509C111.439 102.808 112.216 104.123 112.694 105.602C114.173 110.248 115.383 114.894 115.427 119.839C115.457 122.797 114.949 125.68 114.8 128.608C114.71 130.266 113.844 131.775 113.097 133.209C112.679 134.03 111.678 134.777 110.677 134.987C108.616 135.435 106.569 135.674 104.597 134.299C103.044 133.194 101.953 131.745 100.788 130.117C100.19 131.401 99.817 132.611 99.3091 133.747C98.0244 136.6 95.9181 138.408 93.0799 139.558C91.6906 140.111 90.2864 139.857 88.8972 139.842C86.507 139.842 84.3559 138.99 82.1152 138.168C79.6504 137.272 77.813 135.554 75.6171 134.314C75.0196 133.971 74.8553 133.298 74.437 132.82C73.227 131.416 71.6286 130.385 70.5531 128.847C69.3132 127.084 67.8791 125.471 66.8783 123.529C65.5637 121.004 64.4882 118.434 63.7114 115.701C63.4276 114.685 62.9346 113.729 62.7404 112.638C62.5611 111.667 62.0234 111.563 61.2615 112.265C57.8108 115.462 54.2555 118.539 51.1334 122.109C47.9665 125.739 45.1283 129.624 41.9166 133.194C41.2892 133.881 41.2444 134.703 40.9605 135.465C39.7207 138.945 38.7049 142.486 38.0476 146.146C37.6443 148.387 37.7339 150.732 36.8376 152.883C36.6434 153.346 36.5986 153.899 36.5986 154.407C36.5986 158.56 35.8367 162.638 35.4185 166.746C35.2392 168.569 34.8807 170.421 35.1347 172.289C35.1645 172.468 35.1347 172.677 35.1197 172.856C35.045 173.663 34.7313 174.44 33.9844 174.754C33.118 175.112 32.6101 174.305 32.0873 173.768C31.669 173.349 31.43 172.826 31.2059 172.289C31.0864 172.005 30.9818 171.661 30.5337 171.855V171.467C31.3852 171.064 31.3852 170.825 30.5337 169.928V168.39H30.5934ZM124.002 44.9059C123.867 44.7266 123.733 44.4428 123.464 44.6519C123.18 44.8611 123.419 45.0702 123.524 45.2644C123.808 46.2504 124.017 47.2513 124.405 48.1924C125.167 50.0896 125.645 52.0765 126.437 53.9886C127.079 55.5273 127.318 57.081 128.827 58.2611C130.575 59.6056 131.516 61.7568 132.8 63.5644C133.308 64.2814 134.085 64.7744 134.399 65.6857C134.817 66.8808 135.235 68.0609 135.579 69.2859C136.132 71.1831 135.639 72.7517 135.056 74.4398C134.19 76.9644 133.264 79.4443 132.009 81.8046C131.351 83.0445 131.456 83.2088 132.621 84.0006C134.115 85.0164 135.176 86.3012 135.758 88.0042C135.863 88.3029 135.967 88.6615 136.191 88.8407C137.491 89.9462 138.089 91.5596 139.089 92.8891C140.449 94.6669 141.719 96.5193 142.884 98.4314C143.87 100.045 144.736 101.718 145.871 103.257C146.588 104.213 147.544 105.064 147.993 106.185C148.62 107.753 149.651 109.083 150.562 110.427C152.295 113.012 154.102 115.566 155.865 118.121C157.568 120.586 159.375 123.021 161.392 125.232C163.962 128.055 166.77 130.654 169.489 133.343C169.997 133.851 170.46 134.359 170.743 135.031C171.236 136.241 170.788 136.854 169.459 136.779C169.04 136.749 168.772 136.451 168.428 136.301C167.203 135.748 166.456 134.538 165.171 133.926C164.888 134.344 164.888 134.688 164.888 135.076C164.918 136.167 165.022 137.272 164.888 138.348C164.529 141.306 164.947 144.189 165.65 147.027C166.008 148.491 166.561 148.909 168.099 148.895C168.742 148.895 169.369 148.895 170.011 148.999C172.506 149.417 174.956 148.85 177.421 148.656C179.467 148.491 180.916 146.967 182.589 145.967C183.755 145.264 184.89 144.428 185.562 143.292C186.638 141.515 187.4 139.573 187.982 137.541C189.327 132.776 189.073 128.234 186.668 123.887C186.249 123.14 186.443 122.304 185.861 121.586C183.501 118.599 181.29 115.521 178.795 112.638C177.092 110.666 175.419 108.664 173.507 106.887C172.491 105.961 171.565 104.945 170.534 104.019C167.562 101.359 164.873 98.3717 162.02 95.5781C161.273 94.8611 160.824 93.8602 159.973 93.3074C157.792 91.9181 156.358 89.7669 154.401 88.1386C152.474 86.5402 150.995 84.3442 149.098 82.6262C148.486 82.0586 147.769 81.5656 147.29 80.8933C145.722 78.6824 143.75 76.815 142.107 74.6489C140.897 73.0505 139.448 71.5715 138.118 70.0329C136.52 68.2103 135.011 66.3579 135.295 63.6689C135.37 62.8623 135.041 62.0705 134.698 61.2937C133.532 58.6047 132.054 56.0651 131.068 53.3014C130.814 52.5993 130.351 51.9271 129.843 51.3594C129.275 50.732 128.917 49.985 128.513 49.268C127.438 47.3558 126.093 45.6827 123.957 44.8611L124.002 44.9059ZM70.9265 98.6256C69.0144 99.6116 68.3422 101.419 67.4609 103.018C66.46 104.81 65.0409 106.558 65.7729 108.889C65.967 109.501 66.0567 110.143 66.2658 110.741C67.1024 113.161 67.9688 115.566 68.7904 117.986C70.0601 121.706 71.9722 125.097 74.6163 127.935C76.8869 130.37 78.9035 133.239 82.2497 134.464C82.8472 135.644 84.1916 135.509 85.1327 136.107C87.6424 137.72 90.2267 137.407 92.796 136.212C93.3039 135.973 93.8268 135.674 94.1255 135.136C95.0666 133.418 96.2019 131.79 96.2318 129.713C96.2318 129.385 96.3214 129.116 96.4559 128.817C96.9638 127.652 96.8741 127.487 95.7239 127.024C95.0666 126.755 94.3645 126.71 93.7073 126.412C89.7785 124.664 86.6415 121.855 83.5194 119.017C82.5783 118.151 81.443 117.508 80.6961 116.418C79.4264 114.58 78.0371 112.817 76.8122 110.95C74.9897 108.127 73.3764 105.169 72.6444 101.823C72.5399 101.344 72.271 100.807 71.9124 100.493C71.2701 99.9402 71.1655 99.1933 70.9265 98.6107V98.6256ZM147.544 112.847C145.602 109.546 143.646 106.513 141.614 103.54C141.285 103.062 140.658 102.838 140.509 102.256C140.016 100.299 138.552 98.8796 137.581 97.2064C136.52 95.354 135.176 93.5913 134.04 91.7538C133.652 91.1413 132.86 90.8425 132.786 90.1255C132.576 87.9444 130.351 87.3618 129.589 85.4945C129.38 85.8231 129.335 85.8829 129.32 85.9277C127.557 89.513 122.105 90.6185 119.759 86.8091C119.296 86.0621 118.729 85.36 117.907 84.882C117.608 85.4198 117.31 85.8829 116.742 86.1219C115.622 86.5701 114.516 87.0929 113.366 87.4813C111.603 88.0789 109.84 88.7212 108.362 89.7968C106.42 91.2309 105.359 93.3224 104.926 95.6379C105.195 96.1458 105.703 95.9367 105.986 96.1607C106.33 96.4446 106.659 96.7583 106.942 97.1019C107.54 97.8637 108.227 97.8637 109.153 97.6845C113.635 96.818 118.101 96.6089 122.508 98.2372C124.973 99.1485 127.258 100.329 129.32 101.927C131.576 103.69 134.115 105.034 136.386 106.752C137.491 107.589 138.507 108.5 139.851 108.933C139.956 108.963 140.016 109.128 140.105 109.202C140.837 109.845 141.659 110.323 142.6 110.607C144.258 111.099 145.707 112.056 147.559 112.832L147.544 112.847ZM104.269 99.5518C104.194 100.881 103.626 101.972 104.403 103.167C104.717 103.645 104.612 104.422 104.627 105.049C104.702 108.231 104 111.383 104.194 114.565C104.224 115.058 104.164 115.611 103.985 116.074C102.894 118.658 102.61 121.467 101.804 124.126C101.505 125.097 101.863 126.068 102.461 126.591C104.134 128.07 105.03 130.176 106.703 131.64C107.152 132.029 107.585 132.671 108.108 132.417C108.78 132.088 109.706 131.879 109.885 130.878C110.02 130.057 110.184 129.235 110.438 128.458C111.469 125.381 111.484 122.169 111.319 119.017C111.14 115.79 110.423 112.608 109.96 109.396C109.93 109.277 109.93 109.143 109.87 109.023C108.959 107.006 108.391 104.84 107.241 102.928C106.494 101.703 105.718 100.478 104.283 99.5518H104.269ZM120.85 82.3125C121.94 83.0744 122.433 84.2844 123.135 85.3451C123.733 86.2414 124.286 86.2713 124.973 85.4945C125.137 85.3152 125.227 85.0612 125.361 84.8372C126.377 83.1341 127.468 81.4909 128.379 79.743C130.127 76.4117 131.665 73.0654 131.277 69.0618C131.038 66.4924 129.395 65.1778 127.96 63.5196C127.497 63.9378 127.482 64.2516 127.497 64.5802C127.602 66.2384 127.363 67.8817 126.75 69.4054C126.033 71.1981 125.481 73.0057 125.018 74.873C124.928 75.2315 124.898 75.605 124.734 75.9635C123.703 78.2342 122.329 80.2808 120.835 82.3274L120.85 82.3125ZM167.099 151.419C167.995 153.301 168.577 154.855 169.504 156.215C170.056 157.021 170.504 157.036 171.117 156.289C171.804 155.468 171.879 154.407 172.237 153.451C172.656 152.315 172.357 151.927 171.162 151.867C169.907 151.808 168.652 151.837 167.099 151.419V151.419Z" fill="#1E6E67"/>
<path fill-rule="evenodd" clip-rule="evenodd" d="M83.3699 -2.97243e-05C84.2064 0.821602 85.3268 0.537765 86.253 0.47801C87.687 0.403317 89.0613 0.522827 90.4356 0.821602C93.2141 1.43409 96.0673 1.76274 98.6367 3.2118C99.6226 3.76454 100.355 4.52641 101.102 5.28829C101.774 5.97547 101.445 6.57302 100.683 7.31996C98.7711 9.15743 96.3063 9.41138 93.9312 10.0388C91.6755 10.6214 89.4049 10.8604 87.1044 10.7857C86.1633 10.7559 85.3865 11.1592 85.0131 11.9062C84.5351 12.8921 83.7732 13.1013 82.847 13.2208C80.5466 13.5046 78.2909 13.2656 76.0801 12.5933C75.6319 12.4589 75.0643 12.3693 75.124 11.6223C75.1987 10.8903 75.6767 10.6364 76.2444 10.472C77.3199 10.1583 78.4253 10.248 79.486 10.487C80.4719 10.7111 81.1441 10.6662 81.7864 9.75498C82.6678 8.50012 84.1915 8.18641 85.5509 8.15653C88.1949 8.11171 90.7643 7.70837 93.3336 7.2602C94.4092 7.08094 95.425 6.75229 96.4707 5.96053C95.2308 4.78037 93.737 4.15294 92.1386 3.91392C89.7335 3.57033 87.3136 3.34625 84.8936 3.16699C82.7126 2.98772 80.5316 3.34625 78.4104 3.85417C76.0502 4.42184 73.7348 5.18372 71.4044 5.91572C67.7445 7.05106 64.4432 8.9184 61.3062 11.0995C59.7078 12.2049 58.0945 13.2955 56.5857 14.5204C55.5699 15.357 54.7185 16.4475 53.9417 17.4783C53.2396 18.4195 52.4329 19.2859 51.686 20.1374C50.2221 21.7807 49.1615 23.648 48.0262 25.4705C44.9937 30.3256 43.8733 35.8231 42.6335 41.2757C42.3048 42.7547 42.4243 44.3382 42.3795 45.8619C42.3646 46.5641 42.499 47.2662 42.4393 47.9683C42.275 50.2241 42.8127 52.4201 43.0517 54.6459C43.3804 57.6486 44.3065 60.5019 45.2028 63.3702C45.5315 64.4009 45.6809 65.4915 45.8153 66.582C45.9348 67.5231 45.4867 67.8368 44.5306 67.5679C44.0078 67.4186 43.6044 67.1347 43.2758 66.7314C42.2451 65.5213 41.4982 64.2217 40.8857 62.683C40.2135 60.965 39.9595 59.1425 39.2574 57.4245C38.5105 55.602 38.6748 53.4209 38.3313 51.4192C37.8084 48.3716 38.2715 45.3241 38.3462 42.2766C38.3761 41.1114 38.6002 40.0059 39.0632 38.9154C39.5861 37.6904 39.2574 36.3011 39.7952 35.0313C40.333 33.7466 40.6168 32.3573 40.9455 30.9829C41.2293 29.8476 41.6475 28.772 42.4094 27.8757C43.1115 27.054 43.1414 25.9785 43.6044 25.0672C44.9638 22.4529 46.6668 20.0777 48.3847 17.7173C48.6386 17.3887 48.9673 17.2244 49.3108 17.06C49.5947 16.9106 49.9233 16.8359 50.0876 16.5372C51.4619 13.8631 53.6728 12.0406 56.1824 10.487C57.0189 9.96412 57.6165 9.09767 58.4679 8.51506C59.4837 7.84281 60.4099 7.066 61.6498 6.81204C61.829 6.78216 62.0531 6.72241 62.1726 6.58796C63.4274 5.12396 65.3395 5.01939 66.9528 4.28739C70.6426 2.61425 74.6012 1.80756 78.515 0.896295C79.247 0.71703 80.1881 0.83654 80.6511 -0.0299072H81.0395C81.6819 0.627398 82.3242 0.552704 82.9666 -0.0299072H83.3549L83.3699 -2.97243e-05Z" fill="#1E6E67"/>
<path fill-rule="evenodd" clip-rule="evenodd" d="M82.9817 0C82.3394 0.582611 81.697 0.657305 81.0547 0H82.9817Z" fill="#1E6E67"/>
<path fill-rule="evenodd" clip-rule="evenodd" d="M30.5935 169.928C31.445 170.839 31.445 171.064 30.5935 171.467V169.928Z" fill="#1E6E67"/>
<path fill-rule="evenodd" clip-rule="evenodd" d="M43.8735 75.0223C45.9499 75.112 46.2337 75.6498 45.6511 77.0241C45.2478 77.9653 44.3814 78.518 43.8884 79.4293C43.261 80.5945 43.1266 81.6701 43.276 82.9249C43.6942 86.2563 44.3963 85.7782 41.0203 88.2879C39.7954 89.1992 38.7348 90.0955 38.4958 91.8583C38.2567 93.651 38.4211 95.1747 39.6759 96.4594C40.2585 97.057 40.6767 97.7591 41.1846 98.4015C41.7971 99.1932 41.8569 99.9701 41.6178 100.911C41.3041 102.151 41.0502 103.391 42.1855 104.482C42.7233 105.004 42.2602 105.826 41.4535 105.99C40.0493 106.274 38.1671 105.094 37.5397 103.481C37.2559 102.764 37.0019 101.987 37.3156 101.24C37.8684 99.9252 37.241 99.0289 36.3447 98.2073C35.2841 97.2363 34.5371 96.1457 34.2384 94.6668C33.8201 92.5754 34.6118 90.8425 35.3139 88.9751C36.0011 87.1377 37.7787 86.5551 38.914 85.2703C39.3472 84.7773 39.6609 84.5682 39.153 83.896C38.6003 83.1789 39.153 82.2826 39.153 81.4759C39.1829 79.9521 39.5265 78.5031 40.4377 77.2034C41.4386 75.7693 43.0519 75.605 43.8735 75.0522V75.0223Z" fill="#1E6E67"/>
<path fill-rule="evenodd" clip-rule="evenodd" d="M64.8615 52.9279C64.1892 53.4359 63.517 53.5255 62.7851 53.5404C60.5742 53.6301 59.6779 54.3621 59.1103 56.4087C57.8555 60.9949 59.4837 65.1927 62.9793 67.7771C63.6515 68.27 64.2341 68.9124 64.966 69.256C66.3254 69.9133 67.7147 70.6154 69.3429 69.988C69.7911 69.8087 70.3587 69.8386 70.8666 69.8685C71.3745 69.9133 71.8973 70.0328 71.972 70.72C72.0467 71.3773 72.0766 71.9001 71.3446 72.3334C69.4325 73.4538 67.4607 73.0206 65.5337 72.662C61.6498 71.93 58.9609 69.4801 56.8098 66.2832C55.5849 64.4756 54.6587 62.5933 54.5093 60.3674C54.4496 59.5309 54.7334 58.6794 54.6587 57.9324C54.4645 55.9456 55.6147 54.6758 56.5708 53.2417C57.243 52.2258 58.0795 51.5685 59.2447 51.2249C60.3203 50.9112 61.3958 50.9411 62.4863 50.9261C63.8009 50.9261 64.742 51.3892 64.8465 52.9429L64.8615 52.9279Z" fill="#1E6E67"/>
<path fill-rule="evenodd" clip-rule="evenodd" d="M112.589 57.5141C112.395 60.0388 112.365 62.0406 112.066 63.9976C111.513 67.6426 110.303 68.5389 106.659 68.4194C102.849 68.2999 98.0093 64.8043 97.5014 61.0098C97.4118 60.3077 97.4716 59.994 97.9944 59.6056C98.7562 59.0528 99.5629 58.8437 100.489 58.8138C102.416 58.7541 104.253 58.2461 106.016 57.4395C106.957 57.0062 107.674 56.2742 108.541 55.7364C109.497 55.1239 110.363 54.4965 111.513 55.1389C112.201 55.5124 112.604 56.6626 112.574 57.5141H112.589ZM101.624 61.6821C103.058 63.3552 104.029 64.8789 105.852 65.4167C107.465 65.9097 108.989 64.9985 109.108 63.4448C109.198 62.2497 109.123 61.0397 109.123 59.6354C106.644 60.2778 104.433 61.3833 101.624 61.6821V61.6821Z" fill="#1E6E67"/>
<path fill-rule="evenodd" clip-rule="evenodd" d="M62.2025 42.8592C62.2473 40.3197 62.4863 37.795 63.0241 35.3002C63.278 34.1051 63.517 32.91 63.7262 31.7149C63.9204 30.5646 64.4133 29.5189 64.8913 28.4732C65.1602 27.8906 65.6681 27.5022 66.2358 27.562C66.8333 27.6217 67.1619 28.1744 67.2665 28.8019C67.4756 30.0717 67.5503 31.3265 67.5205 32.6262C67.4757 35.0313 66.1312 37.2124 66.4599 39.6922C66.5794 40.5437 65.8623 41.3504 66.0117 42.4111C66.2657 44.2485 66.6989 45.9964 67.401 47.6845C67.6101 48.1924 67.5952 48.7003 67.4308 49.1783C67.1022 50.1344 65.937 50.4183 65.3096 49.6265C64.0399 48.043 62.9046 46.34 62.2174 44.3979C62.0531 43.9498 62.1875 43.3821 62.1875 42.8742L62.2025 42.8592Z" fill="#1E6E67"/>
<path fill-rule="evenodd" clip-rule="evenodd" d="M105.344 45.8619C105.807 44.3681 104.866 43.0833 103.805 41.7389C102.954 40.6483 102.566 39.1993 101.684 38.1536C100.325 36.5252 100.116 34.4487 99.2343 32.6561C99.0401 32.2677 98.9505 31.8046 98.8758 31.3714C98.8161 30.983 98.9356 30.6244 99.2791 30.3406C99.7422 29.9821 100.116 30.236 100.504 30.475C101.057 30.8037 101.535 31.2518 101.878 31.7896C104.089 35.1509 106.27 38.527 108.481 41.8882C109.691 43.7257 109.84 45.6528 109.153 47.7442C108.855 48.6555 108.287 49.1485 107.54 49.507C106.33 50.0747 105.419 49.4921 105.359 48.1326C105.329 47.4903 105.359 46.8479 105.359 45.8619H105.344Z" fill="#1E6E67"/>
<path fill-rule="evenodd" clip-rule="evenodd" d="M67.5205 184.762C67.0574 183.209 67.4159 181.371 67.1769 179.504C66.7288 175.978 67.0574 172.408 67.879 168.942C68.0134 168.375 68.372 167.867 68.6558 167.344C68.9097 166.881 69.1936 166.433 69.7313 166.657C70.2542 166.881 70.6127 167.329 70.6724 168.001C70.8218 169.54 70.9861 171.079 71.0608 172.632C71.2252 175.53 71.3447 178.443 71.4642 181.356C71.5389 183.209 71.5687 185.076 71.5986 186.929C71.6136 187.601 71.4044 188.124 70.8666 188.408C69.2832 189.274 67.3263 187.765 67.386 185.704C67.386 185.48 67.4458 185.24 67.5205 184.762V184.762Z" fill="#1E6E67"/>
<path fill-rule="evenodd" clip-rule="evenodd" d="M88.1802 66.9256C88.957 63.3553 89.0167 59.3666 91.6458 56.1996C91.9745 55.8112 92.3031 55.4228 92.6467 55.0493C92.9753 54.6908 93.3488 54.4518 93.8268 54.7356C94.2451 54.9896 94.1106 55.3929 94.0359 55.7664C93.1397 60.1434 92.3479 64.5504 91.6907 68.9722C91.5711 69.7192 91.3172 70.4512 91.0782 71.1832C90.9288 71.6313 90.63 71.9749 90.1221 71.9749C89.5993 71.9749 89.3454 71.6015 89.1213 71.1832C88.4491 69.8984 88.3744 68.4942 88.1951 66.8957L88.1802 66.9256Z" fill="#1E6E67"/>
<path fill-rule="evenodd" clip-rule="evenodd" d="M54.8382 40.6483C55.3909 40.6483 55.8092 40.5437 56.1527 40.6632C56.7353 40.8724 56.9743 41.4251 57.064 42.0227C57.1387 42.5754 56.7503 42.7995 56.3469 43.0236C54.2406 44.1738 52.1344 45.3092 49.8339 46.0412C49.3409 46.1906 48.848 46.3698 48.4297 46.6537C47.1599 47.5201 46.0844 46.6387 45.0238 46.2503C44.3366 45.9964 44.6055 44.9058 45.5317 44.4577C46.9658 43.7556 48.4148 43.0983 49.9086 42.5306C50.9841 42.1123 52.0895 41.8583 53.0008 41.0965C53.5535 40.6334 54.2705 40.5437 54.8232 40.6782L54.8382 40.6483Z" fill="#1E6E67"/>
<path fill-rule="evenodd" clip-rule="evenodd" d="M88.5385 40.5886C88.5385 42.3663 86.9999 43.412 85.1924 42.8742C83.1309 42.2617 81.6371 38.6913 82.6529 36.824C83.4297 35.3899 85.5658 35.1509 86.7758 36.4207C87.8663 37.5709 88.4489 38.9901 88.5385 40.5886V40.5886Z" fill="#1E6E67"/>
<path fill-rule="evenodd" clip-rule="evenodd" d="M62.0532 61.3086C62.113 60.4123 62.2474 59.5458 62.6209 58.7092C62.8898 58.1266 63.2184 57.798 63.9056 57.798C64.6674 57.798 65.1305 58.1266 65.3396 58.8138C65.5039 59.3665 65.5488 59.9342 65.6683 60.5019C65.9521 61.9509 66.5197 63.1759 68.1181 63.5942C68.4169 63.6689 68.7156 63.8631 68.9248 64.0722C69.2982 64.4457 69.5522 64.9088 69.4028 65.4616C69.2534 65.9993 68.7455 66.0292 68.3273 66.1039C65.1305 66.5969 61.859 64.2515 62.0682 61.3086H62.0532Z" fill="#1E6E67"/>
<path fill-rule="evenodd" clip-rule="evenodd" d="M113.426 34.7326C113.201 35.5542 113.097 36.6149 112.096 37.0332C111.095 37.4365 110.229 36.9585 109.527 36.1966C108.421 35.0015 107.854 33.6719 108.093 31.9839C108.332 30.4004 110.498 29.3995 111.767 30.8037C112.44 31.5357 113.426 33.5674 113.426 34.7326Z" fill="#1E6E67"/>
<path fill-rule="evenodd" clip-rule="evenodd" d="M55.8838 35.3002C55.8838 36.2264 55.0472 36.5252 54.4646 36.5999C53.2845 36.7642 52.3285 37.4365 51.2231 37.7054C51.0438 37.7502 50.76 37.7352 50.6703 37.8547C49.7442 39.1395 48.6238 38.288 47.5632 38.1685C46.8761 38.0938 46.5922 37.5858 46.5026 36.9883C46.413 36.4206 46.9358 36.2862 47.2943 36.0621C49.2662 34.7923 51.5218 34.3143 53.7775 33.896C54.9576 33.6868 55.8688 34.3591 55.8688 35.3002H55.8838Z" fill="#1E6E67"/>
<path fill-rule="evenodd" clip-rule="evenodd" d="M53.6132 67.4633C53.4638 67.9414 53.1202 68.4045 52.7169 68.8078C51.1185 70.4212 49.311 71.7209 47.1599 72.5126C46.9806 72.5873 46.8014 72.7517 46.637 72.7367C45.9947 72.7068 45.2478 72.662 44.8743 72.169C44.4561 71.6014 45.0835 71.0785 45.4569 70.7051C47.2794 68.7929 49.3259 67.1795 52.0148 66.6566C52.3882 66.582 52.7766 66.4923 53.1501 66.6417C53.4787 66.7612 53.6879 66.9853 53.6132 67.4633V67.4633Z" fill="#1E6E67"/>
<path fill-rule="evenodd" clip-rule="evenodd" d="M81.0097 24.3053C81.7566 24.4099 82.5334 24.38 83.2355 24.7834C83.8778 25.1568 83.8629 25.7096 83.7434 26.2773C83.6239 26.815 83.1458 26.6059 82.7873 26.6059C81.1142 26.576 79.6802 27.2184 78.3806 28.1894C77.7681 28.6525 77.1556 29.1156 76.5432 29.5787C76.2444 29.8028 75.9755 30.1464 75.5423 29.8476C75.1688 29.5937 75.1539 29.1903 75.1987 28.8168C75.2435 28.4434 75.2734 28.0251 75.4527 27.7114C76.2593 26.2175 78.5748 23.9169 81.0246 24.3053H81.0097Z" fill="#1E6E67"/>
<path fill-rule="evenodd" clip-rule="evenodd" d="M70.4037 19.734C68.9397 19.4801 67.7148 19.6892 66.5197 19.3157C65.9372 19.1365 65.6533 18.8526 65.6235 18.27C65.5936 17.5978 65.9222 17.0749 66.5646 17.06C68.4916 17.0002 70.4335 16.2832 72.3755 17.1646C73.4361 17.6426 73.9739 18.1655 73.705 18.9273C73.3913 19.8087 72.5846 19.8984 71.8228 19.7938C71.2551 19.7042 70.6726 19.749 70.3887 19.734H70.4037Z" fill="#1E6E67"/>
<path fill-rule="evenodd" clip-rule="evenodd" d="M65.504 25.3659C64.8019 25.3659 64.3537 25.3659 63.9056 25.3659C63.4425 25.3361 62.9794 25.2464 62.8599 24.7086C62.7553 24.2007 63.069 23.7824 63.4724 23.6032C65.3546 22.7367 67.3414 22.3035 69.4327 22.5873C69.7912 22.6322 70.0601 22.8413 70.1049 23.1699C70.1647 23.6779 69.8211 24.0513 69.4178 24.2157C68.0733 24.7535 66.8036 25.6498 65.489 25.3659H65.504Z" fill="#1E6E67"/>
<path fill-rule="evenodd" clip-rule="evenodd" d="M108.377 19.8984C107.406 19.9432 106.644 19.9582 105.882 20.0179C104.657 20.1076 103.477 20.3466 102.551 21.2429C102.222 21.5566 101.834 21.7658 101.386 21.8554C100.833 21.9749 100.549 21.6164 100.743 21.0786C101.58 18.778 104.971 17.4036 107.167 18.4942C107.435 18.6336 107.844 19.1017 108.392 19.8984H108.377Z" fill="#1E6E67"/>
<path fill-rule="evenodd" clip-rule="evenodd" d="M101.639 48.4463C101.595 48.7899 101.595 49.0439 101.535 49.2829C101.326 50.0597 100.385 50.8365 99.7572 50.7768C99.0551 50.7021 98.4277 49.8954 98.4725 48.9244C98.5024 48.2372 98.6816 47.55 98.8609 46.8778C99.0551 46.1607 99.6227 45.9067 100.325 45.9067C101.072 45.9067 101.251 46.4744 101.4 47.0271C101.535 47.5052 101.58 48.0131 101.654 48.4314L101.639 48.4463Z" fill="#1E6E67"/>
<path fill-rule="evenodd" clip-rule="evenodd" d="M79.3218 40.4242C79.3218 40.4242 79.6803 40.4541 79.9791 40.5437C80.6663 40.7678 80.8306 41.44 80.2331 41.8284C78.9334 42.665 77.5442 43.2924 75.9309 42.9787C75.5723 42.919 75.1391 42.7845 75.0943 42.3364C75.0495 41.933 75.2736 41.5894 75.6022 41.3803C76.6628 40.7528 77.828 40.4541 79.3368 40.4242H79.3218Z" fill="#1E6E67"/>
<path fill-rule="evenodd" clip-rule="evenodd" d="M81.7417 45.4436C81.4579 46.6238 80.8006 47.6994 79.8147 48.5658C79.4113 48.9243 78.9632 48.775 78.5748 48.5359C78.1117 48.2521 78.1117 47.7741 78.3209 47.3558C78.8885 46.2652 79.6802 45.339 80.7558 44.7266C81.3533 44.383 81.7865 44.6817 81.7268 45.4436H81.7417Z" fill="#1E6E67"/>
<path fill-rule="evenodd" clip-rule="evenodd" d="M167.083 151.404C168.637 151.837 169.907 151.793 171.147 151.852C172.342 151.912 172.626 152.301 172.222 153.436C171.879 154.377 171.789 155.453 171.102 156.274C170.489 157.021 170.041 157.006 169.489 156.2C168.562 154.825 167.98 153.286 167.083 151.404V151.404Z" fill="#1E6E67"/>
<path fill-rule="evenodd" clip-rule="evenodd" d="M123.524 45.2793C123.419 45.0851 123.18 44.876 123.464 44.6669C123.748 44.4577 123.867 44.7266 124.002 44.9208C123.838 45.0403 123.688 45.1598 123.524 45.2943V45.2793Z" fill="#1E6E67"/>
</g>
<defs>
<clipPath id="clip0_125_10775">
<rect width="193.151" height="200" fill="white"/>
</clipPath>
</defs>
</svg>
