<svg width="238" height="136" viewBox="0 0 238 136" fill="none" xmlns="http://www.w3.org/2000/svg">
<g clip-path="url(#clip0_125_11412)">
<path fill-rule="evenodd" clip-rule="evenodd" d="M167.847 102.881C168.175 104.92 167.173 106.734 166.016 107.995C164.946 109.17 163.306 110.206 161.475 110.379C161.268 110.379 161.026 110.293 160.888 110.379C158.678 111.917 155.95 112.003 153.516 112.884C151.081 113.765 148.422 114.128 145.867 114.698C142.448 115.458 138.994 116.167 135.628 117.186C132.416 118.153 129.101 118.672 125.855 119.501C121.435 120.607 117.066 122.023 112.611 122.939C103.236 124.839 93.9982 127.258 84.7089 129.452C81.8945 130.109 78.9765 130.316 76.1103 130.783C75.1951 130.938 74.3146 131.335 73.3994 131.491C72.1562 131.698 70.8785 131.681 69.6526 131.94C67.9778 132.286 66.3202 132.648 64.6454 132.977C61.7619 133.564 58.8784 133.547 55.9604 133.564C54.2855 133.564 52.9215 132.821 51.7301 132.044C50.2279 131.076 48.9329 129.66 48.6222 127.707C48.5358 127.172 48.484 126.723 47.8279 126.584C47.4998 126.515 47.2581 126.17 47.1545 125.807C46.4121 122.922 44.4782 120.624 43.2178 118.015C42.5271 116.599 41.7329 115.286 40.7659 114.076C40.507 113.765 40.4034 113.385 40.3516 112.988C40.2134 112.21 39.8854 111.537 39.471 110.846C38.435 109.101 37.6925 107.183 36.5702 105.507C35.4824 103.866 34.9472 101.965 33.8249 100.376C33.5659 100.013 33.3587 99.6331 33.3414 99.2012C33.3069 97.8537 32.5126 96.938 31.6666 96.0396C31.4766 95.8496 31.1486 95.7114 31.1486 95.4177C31.1831 93.9665 30.1471 93.0335 29.5255 91.8933C28.9557 90.8567 28.5413 89.751 27.9715 88.7144C26.832 86.624 25.6233 84.5681 24.501 82.4604C23.9485 81.3892 23.8103 80.1108 23.0161 79.1433C21.7556 77.6057 21.3758 75.5844 20.2017 73.9776C19.5628 73.1138 19.3211 71.9736 18.8894 70.9716C18.2506 69.434 17.18 68.1382 16.5239 66.6525C15.0217 63.3008 13.226 60.1047 11.7239 56.7531C10.8951 54.9218 10.7224 52.6758 9.08211 51.2073C8.71952 48.5813 6.92381 46.4736 6.33675 43.9167C6.26769 43.623 6.54395 42.7419 5.6461 43.2774C5.5425 43.1047 5.36984 42.9492 5.36984 42.7764C5.3353 41.8089 4.17845 41.3079 4.43745 40.1331C4.54105 39.6148 4.10939 38.8892 3.74679 38.3018C2.79714 36.8333 1.55396 35.4167 1.10504 33.7754C0.742442 32.4106 -0.293542 31.1148 0.207183 29.4736C0.500712 28.4888 0.293515 27.3831 0.552511 26.3638C0.587044 26.2602 0.552511 26.1047 0.621577 26.0701C2.29642 25.1199 3.40147 23.375 5.66336 23.1331C7.26914 22.9604 8.89218 22.2175 10.5325 21.9065C12.5699 21.5092 14.521 20.8526 16.5585 20.4898C18.2851 20.1789 19.9427 19.4705 21.652 19.0041C23.2233 18.5894 24.8636 18.4167 26.3658 17.8293C27.1428 17.5356 28.0579 16.8791 28.0233 15.7043C28.0061 15.065 28.0233 14.4431 28.0233 13.8039C28.0233 12.9055 28.4205 12.1281 29.1975 11.7134C30.7514 10.8842 32.3054 10.0031 34.1357 9.93395C35.4997 9.88212 36.622 9.0183 37.917 8.7246C39.5746 8.34452 41.1631 7.68801 42.8552 7.29065C44.7372 6.84147 46.6711 6.61687 48.5186 6.02948C52.0064 4.92378 55.6496 4.66464 59.1719 3.73171C62.0036 3.0061 64.8698 2.40143 67.7015 1.72765C69.8944 1.19208 72.2599 0.829273 74.6254 1.08842C75.4023 1.1748 76.2311 1.29574 77.0254 1.26118C77.9232 1.22663 78.4758 1.71037 78.9937 2.21139C80.0815 3.26525 81.2038 4.31911 82.3434 5.30387C82.896 5.78761 83.2585 6.46139 83.5003 7.187C84.4672 10.1758 85.2269 13.1992 85.7104 16.2917C86.0212 18.2612 85.7449 18.4858 83.9837 19.4533C81.3938 20.8872 78.5275 21.2327 75.7131 21.8547C73.1232 22.4248 70.5677 23.0986 67.9951 23.7205C66.0612 24.187 64.1446 24.688 62.1763 25.0508C60.4324 25.3791 58.7403 25.8974 56.9791 26.1911C54.8381 26.5539 52.6798 26.8821 50.6078 27.5732C48.1214 28.4024 45.4797 28.5925 42.907 28.9207C41.5947 29.0935 40.0753 29.1972 38.8839 27.8842C37.6407 26.5193 35.9314 25.7937 34.2392 25.0508C32.9788 24.498 31.7184 23.5132 31.4939 21.8374C31.4076 21.0945 31.9428 20.438 32.8407 20.4035C34.1011 20.3344 35.2925 20.749 36.3112 21.4228C37.8825 22.4594 39.4364 23.5305 40.6623 25.0163C41.4566 25.9837 43.9602 26.2774 44.9617 25.5173C45.4624 25.1372 45.9113 25.1199 46.5329 25.1545C47.5516 25.2063 48.5704 24.8262 49.5373 24.5498C50.5387 24.2734 51.5402 23.997 52.5762 23.8933C54.1129 23.7551 55.5114 23.0122 57.0654 22.8567C60.018 22.563 62.8151 21.3364 65.8195 21.1982C66.4756 21.1636 67.0972 20.6453 67.7879 20.4898C71.4829 19.6433 75.1606 18.7449 78.8383 17.8465C79.4081 17.7083 79.9607 17.501 80.5305 17.311C80.8412 17.2073 80.9448 17.0173 80.9276 16.689C80.8758 15.3242 80.5305 13.9766 80.3923 12.6291C80.2197 10.9533 79.6153 9.45021 78.9592 7.92988C78.752 7.44614 78.4758 7.08334 78.1304 6.70326C76.1621 4.59553 73.7448 3.5935 70.9303 4.23273C69.031 4.66464 67.149 5.21748 65.2497 5.64939C62.677 6.23679 60.1734 7.08334 57.4798 7.27338C55.5805 7.41159 53.733 8.06809 51.851 8.4309C49.0193 9.00102 46.2739 9.9685 43.4768 10.6077C40.9386 11.1951 38.5213 12.2835 35.8968 12.5254C34.9126 12.6118 33.9975 13.2337 33.0479 13.6138C32.6507 13.7693 32.7198 14.1321 32.7025 14.4085C32.6335 15.3415 32.3399 16.2744 32.5471 17.2246C32.5817 17.3628 32.5817 17.6392 32.5126 17.6565C31.5802 18.0539 31.4939 19.2459 30.5442 19.626C28.6104 20.4035 26.7111 21.2155 24.6046 21.5264C23.0679 21.751 21.5657 22.4075 20.0981 23.0295C19.5283 23.2713 18.9585 23.3059 18.406 23.4096C15.6088 23.9451 12.967 25.0335 10.0836 25.31C8.82311 25.4309 7.28641 25.7419 6.35402 27.0031C6.21589 27.1931 5.92236 27.3831 5.5943 27.4695C5.02451 27.6423 4.73098 28.1087 4.81731 28.7307C5.2317 31.374 6.09502 33.9136 7.25187 36.2805C8.02886 37.8526 8.78858 39.3903 9.34111 41.0488C9.51377 41.5498 10.1181 41.8953 10.4116 42.4482C11.8102 45.0915 12.5354 48.0457 13.9858 50.6545C15.4534 53.2805 16.3513 56.1484 17.698 58.8262C18.6995 60.8303 19.7182 62.8344 20.7715 64.8039C22.619 68.2764 23.983 71.9563 26.0895 75.3079C26.573 76.0681 26.832 77.0183 27.2291 77.8648C27.9715 79.4197 28.6622 80.9919 29.4565 82.5122C31.3385 86.0366 33.3414 89.4919 34.999 93.1372C35.6378 94.5539 36.2421 96.1087 37.3127 97.3526C37.917 98.061 37.9343 99.0285 38.2451 99.875C38.9184 101.654 39.8681 103.33 40.9559 104.764C42.4753 106.751 42.9588 109.135 44.202 111.174C45.0825 112.59 46.0495 113.955 46.93 115.355C47.379 116.063 47.7761 116.875 48.1214 117.67C49.2955 120.451 50.9013 123.008 52.11 125.772C52.887 127.535 53.992 129.4 55.9949 130.247C57.5662 130.903 59.241 130.852 60.864 130.472C64.041 129.729 67.3217 129.435 70.4296 128.554C73.6066 127.656 76.87 127.293 80.0297 126.412C83.6384 125.41 87.2644 124.408 90.9421 123.82C95.1896 123.129 99.3508 121.989 103.495 120.97C107.276 120.037 111.127 119.397 114.891 118.344C117.411 117.635 120.07 117.238 122.66 116.668C125.596 116.028 128.583 115.545 131.466 114.646C133.676 113.973 135.956 113.541 138.217 113.005C141.187 112.314 144.174 111.675 147.144 110.966C149.907 110.327 152.704 109.74 155.432 108.945C157.418 108.358 159.386 107.701 161.234 106.734C162.908 105.87 163.737 103.209 162.96 100.998C162.235 98.9766 160.975 97.2144 160.042 95.2968C159.213 93.5864 158.022 92.0833 157.418 90.252C156.952 88.8699 155.795 87.7988 155.328 86.3476C154.569 84.0325 152.549 82.3913 151.944 79.9726C151.737 79.1951 151.098 78.6423 150.597 78.0203C149.475 76.5864 148.646 74.9106 148.197 73.1138C148.042 72.4746 147.697 71.8872 147.386 71.4726C146.471 70.2114 146.16 68.622 145.038 67.5163C144.399 66.8943 144.399 65.9441 144.088 65.184C143.587 64.0092 142.672 63.1799 142.154 62.0224C141.481 60.4848 140.428 59.1027 139.685 57.5823C139.34 56.874 138.891 56.2175 138.476 55.561C137.147 53.4533 136.629 50.9309 135.04 48.9787C133.348 46.8709 132.865 44.1585 131.207 41.9817C130.223 40.7033 129.584 39.0447 128.807 37.5589C127.84 35.7104 127.15 33.689 125.803 32.0478C125.389 31.5468 125.25 30.8902 125.06 30.3374C124.525 28.748 123.006 27.8669 122.436 26.3638C122.056 25.3618 121.711 24.3598 121.193 23.3923C120.658 22.4075 120.019 21.44 119.552 20.4553C118.534 18.2439 117.239 16.188 116.116 14.0457C115.167 12.2663 114.459 10.3313 113.043 8.7246C112.093 7.63618 111.265 6.39228 110.108 5.52846C108.381 4.23273 106.499 3.35163 104.22 3.16159C100.197 2.85061 96.5537 4.07724 92.7896 5.20021C90.1306 5.97765 87.4025 7.13517 84.4672 6.39228C83.7075 6.20224 83.1377 5.87399 83.2586 4.94106C83.2931 4.69919 83.3276 4.50915 83.6211 4.42277C85.106 3.92175 86.5046 3.21342 88.0586 2.81606C90.873 2.10773 93.7393 1.62399 96.5364 0.708338C98.453 0.0863863 100.577 -0.138207 102.666 0.0518335C103.201 0.103663 103.771 0.0863864 104.306 0.0172807C106.326 -0.190036 108.088 0.915655 110.039 1.07114C110.35 1.08842 110.505 1.33029 110.747 1.4685C113.958 3.19614 115.927 6.08131 117.774 9.07013C119.19 11.3333 120.502 13.6829 121.918 15.9461C123.558 18.5722 124.957 21.3191 126.321 24.0488C127.391 26.1911 128.617 28.2988 129.774 30.372C131.035 32.6697 132.381 34.9675 133.625 37.2825C134.851 39.563 136.146 41.8435 137.32 44.1585C137.924 45.3679 138.252 46.8018 139.271 47.8384C139.858 48.4431 140.203 49.2378 140.548 50.0325C141.584 52.4858 143.018 54.749 144.243 57.0986C145.21 58.9817 146.281 60.8303 147.248 62.7307C147.887 63.9746 148.681 65.1494 149.32 66.4106C150.425 68.5528 151.633 70.6433 152.842 72.7165C153.636 74.064 153.688 75.809 155.139 76.8455C155.674 77.2429 155.812 78.2104 156.123 78.9187C156.813 80.5254 157.867 81.9421 158.678 83.497C159.317 84.7236 159.783 86.0539 160.526 87.2287C161.51 88.7835 162.373 90.3903 163.236 92.0142C164.756 94.8821 166.569 97.5945 167.708 100.652C167.967 101.326 167.847 102.138 167.916 102.881H167.847Z" fill="#1E6E67"/>
<path fill-rule="evenodd" clip-rule="evenodd" d="M101.129 8.22359C102.493 7.87806 103.944 8.22359 105.394 8.15448C106.378 8.10265 107.069 8.39635 107.501 9.12196C108.26 10.4004 109.331 11.4025 110.125 12.6636C111.04 14.1494 111.299 15.9289 112.439 17.2592C113.924 18.9868 114.77 21.1291 115.737 23.1159C116.79 25.2927 117.826 27.4868 119 29.5945C120.295 31.875 121.193 34.3974 122.643 36.5396C124.491 39.2693 125.423 42.4827 127.495 45.0915C128.514 46.3699 128.859 48.1667 129.74 49.5833C131.846 53.0386 133.504 56.7358 135.351 60.312C137.078 63.6464 139.064 66.8425 140.652 70.2632C141.982 73.1138 143.656 75.7917 145.124 78.5732C146.626 81.4238 147.869 84.4472 149.613 87.1596C150.926 89.1982 151.754 91.4959 153.291 93.4309C154.085 94.4502 154.552 95.8323 154.707 97.249C154.828 98.4411 154.31 99.0112 153.239 99.2358C151.444 99.6159 149.631 99.9787 147.835 100.411C146.281 100.773 144.71 101.119 143.19 101.637C142.241 101.965 141.205 102.121 140.255 102.259C137.993 102.605 135.869 103.348 133.676 103.9C131 104.591 128.255 104.954 125.596 105.697C123.351 106.319 121.055 106.768 118.81 107.477C117.342 107.943 115.719 107.736 114.234 108.271C112.681 108.841 111.04 109.083 109.469 109.619C108.398 109.982 107.207 110.051 106.085 110.362C104.876 110.69 103.633 110.949 102.407 111.157C99.0573 111.744 95.8976 112.988 92.5479 113.523C91.3047 113.731 90.1479 114.318 88.9737 114.543C87.5579 114.802 86.1248 115.078 84.7262 115.389C80.7549 116.253 76.8182 117.29 72.8642 118.171C70.2397 118.758 67.6843 119.691 64.9562 119.933C63.8339 120.037 62.677 120.313 61.6756 121.021C60.0007 122.213 57.0309 120.987 56.4611 119C55.8568 116.961 54.6136 115.216 53.6467 113.333C53.5086 113.074 53.1632 113.04 53.4913 112.66C53.6985 112.418 53.5604 111.969 53.3532 111.796C51.8682 110.552 51.4193 108.669 50.5215 107.079C49.8308 105.87 49.4855 104.401 48.743 103.227C47.8106 101.758 47.3099 100.1 46.4639 98.5966C45.7905 97.3699 45.1689 96.0396 44.5646 94.7439C43.5804 92.6016 42.5617 90.4766 41.4393 88.4035C40.7142 87.0559 40.2307 85.622 39.5228 84.2744C39.2465 83.7388 39.0048 83.2551 38.6077 82.8059C37.8997 81.9939 37.8134 80.8709 37.4335 79.8862C37.2091 79.3334 36.8983 78.8496 36.5702 78.4004C35.845 77.4157 35.8968 76.1718 35.2752 75.1697C34.4465 73.8049 33.5313 72.4573 32.8752 71.0579C32.3227 69.8659 31.7874 68.6392 31.2349 67.4299C30.596 66.0132 29.9399 64.5793 29.2665 63.1799C28.3514 61.2968 27.2464 59.4827 26.3312 57.5996C25.8305 56.563 24.9845 55.5783 24.9845 54.2825C24.9845 54.0579 24.8981 53.747 24.7255 53.6433C23.3269 52.6758 23.5341 50.8964 22.7053 49.6525C22.5326 49.3933 22.5844 48.9959 22.4118 48.7714C20.8578 46.7846 20.0981 44.4004 18.993 42.2063C17.5599 39.373 16.4721 36.3323 14.7628 33.689C13.8994 32.3588 14.0548 30.7002 12.8807 29.5427C12.4491 29.1108 12.5872 28.4197 13.4505 28.0569C15.6779 27.124 18.0606 26.7957 20.3225 26.0529C22.7226 25.2581 25.1917 24.6535 27.5744 23.8242C28.3514 23.5651 28.7313 23.5651 29.232 24.2216C29.75 24.9126 29.7673 25.5173 29.3011 26.1565C28.714 26.9167 27.8334 27.3659 26.9701 27.625C24.1902 28.5061 21.4276 29.5081 18.5268 30.0092C18.0261 30.0955 18.0606 30.3201 18.216 30.6484C18.7168 31.7541 19.2002 32.877 19.77 33.9482C20.4952 35.2957 21.2204 36.626 21.3413 38.1982C21.3931 38.6992 21.6693 39.0793 22.1182 39.3039C23.0679 39.8049 23.2924 40.7205 23.655 41.6362C24.1557 42.8974 24.4837 44.2449 25.278 45.3852C25.6924 45.9726 25.9514 46.6291 26.1931 47.3029C26.4694 48.1148 26.7629 48.8059 27.4881 49.4451C28.0924 49.9807 28.3341 50.9827 28.6104 51.8293C29.3356 53.8852 30.5442 55.6992 31.3903 57.686C32.8407 61.1413 34.8954 64.3029 36.3285 67.7581C37.399 70.3151 38.8494 72.6819 39.9544 75.2216C40.8868 77.3811 42.1645 79.3506 43.1314 81.4929C43.7703 82.9441 44.3056 84.4472 45.1171 85.8293C46.6193 88.4035 47.6034 91.2368 49.1747 93.7592C49.4855 94.2602 49.5546 94.8821 49.8135 95.4177C51.1776 98.2856 52.5762 101.153 53.9747 104.004C55.3388 106.82 56.7028 109.619 58.2395 112.349C59.0511 113.8 59.4827 115.458 60.2942 116.927C60.5705 117.428 60.7777 117.583 61.382 117.428C63.9547 116.806 66.5965 116.357 69.1519 115.717C71.6555 115.096 74.2282 114.75 76.6628 113.886C77.5952 113.558 78.5794 113.489 79.529 113.23C83.5694 112.159 87.627 111.139 91.7191 110.241C94.2572 109.688 96.899 109.342 99.3508 108.6C103.339 107.39 107.432 106.63 111.455 105.542C114.476 104.73 117.584 104.09 120.675 103.486C122.194 103.192 123.817 103.037 125.25 102.449C127.806 101.413 130.655 101.706 133.158 100.376C134.229 99.8232 135.697 100.065 136.94 99.6677C140.877 98.4065 145.003 97.8709 148.974 96.7307C149.613 96.5407 149.872 96.2124 149.492 95.8151C148.163 94.4675 148.37 92.3252 146.816 91.0295C146.246 90.563 145.987 89.3537 145.487 88.5244C144.416 86.7104 143.466 84.8272 142.879 82.8059C142.707 82.2185 141.619 82.2876 142.033 81.4065C140.704 80.6118 140.738 79.0051 139.927 77.8649C138.856 76.3445 138.01 74.6687 137.285 72.9238C136.629 71.3689 135.731 69.9177 134.902 68.4665C134.125 67.1189 133.676 65.6159 132.71 64.372C132.192 63.6982 131.846 62.9898 131.777 62.0569C131.708 61.2622 130.793 60.813 130.361 60.1047C130.171 59.7937 129.878 59.3791 129.809 59.0854C129.36 57.1331 128.238 55.6128 126.994 54.1098C126.511 53.5224 126.407 52.624 126.131 51.8638C126.027 51.6047 125.993 51.311 125.82 51.1037C124.076 48.9096 123.23 46.1799 121.624 43.8821C120.865 42.7937 120.502 41.4116 119.881 40.2022C118.896 38.2846 117.722 36.4705 116.738 34.5701C115.858 32.8598 114.804 31.2012 114.131 29.3872C113.941 28.8862 113.527 28.4716 113.285 27.9878C112.301 26.0874 111.42 24.1525 110.384 22.3039C109.59 20.8699 109.124 19.2287 107.742 18.1748C107.691 18.1403 107.673 18.0366 107.639 17.9675C107.138 16.1189 106.206 14.4777 105.17 12.8882C104.772 12.2663 104.324 11.6616 103.875 11.0742C103.702 10.8496 103.426 10.9533 103.201 11.0224C101.526 11.5234 99.7998 11.5579 98.0904 11.8516C96.7954 12.0762 95.4832 12.6118 94.1536 12.8882C92.5133 13.251 90.9594 13.9075 89.2845 14.1667C88.3521 14.3049 87.5579 13.8903 86.66 13.8384C86.0212 13.8039 85.3823 13.0955 85.5032 12.2835C85.6586 11.3506 86.5392 11.1606 87.2989 11.0569C88.7493 10.8842 90.1479 10.4695 91.5637 10.124C93.3076 9.69208 95.086 9.45021 96.8472 9.13924C97.5033 9.0183 98.1595 8.9492 98.781 8.6555C99.489 8.32725 100.231 8.05082 101.147 8.22359H101.129Z" fill="#1E6E67"/>
<path fill-rule="evenodd" clip-rule="evenodd" d="M237.948 70.2459C237.706 71.0752 237.689 72.8028 236.187 73.9258C235.755 74.2541 236.101 74.8587 235.79 75.2388C234.512 76.7937 233.908 78.7632 232.561 80.249C231.421 81.5102 231.007 83.3242 229.453 84.2571C229.246 84.378 229.073 84.689 229.004 84.9309C228.676 86.2266 227.519 86.9177 226.708 87.7815C225.827 88.7144 225.206 89.8201 224.308 90.753C222.857 92.2388 221.614 93.9492 220.043 95.314C218.489 96.6788 217.401 98.5274 215.657 99.7022C215.191 100.013 214.949 100.514 214.552 99.5295C213.775 97.5772 212.308 96.0569 210.719 94.7439C209.424 93.6728 207.767 93.2754 206.04 93.5518C205.712 93.6037 205.418 93.7073 205.332 94.0701C205.246 94.4675 205.418 94.7439 205.695 95.003C206.161 95.435 206.765 95.5041 207.335 95.5904C209.51 95.9014 210.754 97.3526 211.721 99.1494C211.859 99.4258 211.928 99.7541 212.083 100.03C212.687 101.136 212.428 101.775 211.651 102.933C210.305 104.972 208.354 106.526 207.231 108.721C206.541 110.051 205.107 110.759 204.244 111.986C203.346 113.247 202.379 114.577 201.223 115.562C199.876 116.72 199.392 118.689 197.562 119.346C197.493 119.363 197.407 119.415 197.372 119.484C195.628 122.749 192.486 124.615 189.879 127.016C187.289 129.4 184.267 130.852 181.004 131.992C180.261 132.251 179.726 132.337 179.191 131.577C178.638 130.817 177.878 130.178 176.946 129.884C176.324 129.677 176.307 129.435 176.48 128.848C178.327 123.025 181.332 117.963 185.527 113.489C190.362 108.34 194.903 102.916 199.565 97.5945C199.738 97.3872 200.048 97.1108 199.997 96.9207C199.755 95.5732 200.722 94.9685 201.533 94.2947C202.259 93.7073 201.879 92.8262 202.328 92.1006C203.243 90.563 204.382 89.3018 205.66 88.127C206.903 86.9868 207.991 85.6392 209.459 84.7408C209.89 84.4644 210.028 83.9461 210.201 83.5833C210.926 82.0284 212.169 80.9746 213.447 79.9553C214.19 79.3679 214.362 78.3831 215.139 77.7784C215.502 77.502 215.83 77.1565 216.279 77.001C216.555 76.9146 216.883 76.8282 216.952 76.5691C217.332 74.8933 218.765 74.064 219.818 72.9238C220.941 71.7144 221.942 70.2978 223.41 69.503C225.534 68.3628 226.949 66.3933 228.918 65.1321C230.109 64.3719 231.404 63.6809 232.837 63.4736C234.34 63.249 235.617 63.7154 236.515 65.063C237.413 66.3933 238.19 67.7581 237.931 70.2287L237.948 70.2459ZM184.284 119.829C183.766 119.898 183.007 119.656 182.868 120.468C182.73 121.229 183.352 121.453 183.956 121.609C184.716 121.781 185.268 122.3 185.821 122.818C186.425 123.388 187.047 123.924 187.686 124.459C188.014 124.736 188.394 124.822 188.773 124.546C189.188 124.252 189.188 123.82 189.05 123.371C188.566 121.833 186.011 119.898 184.301 119.829H184.284Z" fill="#E06765"/>
<path fill-rule="evenodd" clip-rule="evenodd" d="M86.5392 87.6951C85.8658 87.4878 85.4341 87.747 84.9334 88.0407C83.9319 88.628 82.706 88.438 81.6355 88.8354C80.3405 89.3364 79.0801 89.3364 77.7506 88.9563C77.1635 88.7835 76.5765 88.749 76.4729 87.9888C76.3693 87.1768 76.8355 86.6931 77.5261 86.5031C80.4096 85.7602 83.224 84.7927 86.2111 84.4299C87.5234 84.2744 88.8529 83.7561 90.1651 83.3933C92.4961 82.7368 94.8961 82.3913 97.2271 81.752C101.285 80.6463 105.446 79.8516 109.503 78.7632C112.456 77.9685 115.478 77.3293 118.413 76.3791C120.001 75.8608 121.797 75.7053 123.507 75.4634C124.007 75.3943 124.56 75.4634 125.009 75.7053C125.699 76.1026 126.114 76.7246 126.01 77.5366C125.924 78.2795 125.233 78.3313 124.646 78.4177C123.213 78.625 121.832 79.2297 120.433 79.4197C117.757 79.7652 115.322 80.94 112.698 81.4238C109.4 82.0285 106.154 82.9268 102.908 83.7215C100.836 84.2226 98.7292 84.7409 96.6745 85.2764C94.6198 85.812 92.5306 86.2612 90.4586 86.8486C89.1464 87.2287 87.7996 87.4187 86.5219 87.6778L86.5392 87.6951Z" fill="#1E6E67"/>
<path fill-rule="evenodd" clip-rule="evenodd" d="M103.702 31.0803C103.84 31.9096 103.357 32.2205 102.631 32.4451C100.266 33.1707 97.8832 33.8618 95.5522 34.7083C91.3392 36.2459 86.9363 36.937 82.5852 37.8699C80.6168 38.2846 78.683 38.9583 76.7491 39.563C75.6786 39.8913 74.4872 40.1331 73.434 40.5132C70.8785 41.4462 67.9778 40.9451 65.595 42.4827C65.526 42.5173 65.4396 42.5691 65.3706 42.5518C63.0396 42.2581 61.313 44.0722 59.1374 44.3659C58.1359 44.5041 57.2036 44.2622 56.3402 43.8303C55.6669 43.502 55.4079 42.7073 55.7187 42.1027C56.0122 41.5325 56.6338 41.1006 57.3762 40.9624C58.6021 40.7205 59.8626 40.5132 61.0194 40.0986C62.418 39.5976 63.9202 39.4421 65.2842 38.9929C68.7548 37.8527 72.4325 37.6626 75.8685 36.3323C78.2686 35.3994 80.824 35.0193 83.3794 34.6738C85.3996 34.3974 87.3162 33.4126 89.3363 33.1189C92.1335 32.7043 94.5508 31.184 97.3134 30.6138C98.6256 30.3374 99.9552 29.75 101.302 29.4045C102.701 29.0417 103.857 29.439 103.719 31.0976L103.702 31.0803Z" fill="#1E6E67"/>
<path fill-rule="evenodd" clip-rule="evenodd" d="M41.1976 48.9787C38.4177 49.065 36.7429 47.5965 35.7932 45.126C35.2062 43.6057 34.3256 42.2409 33.514 40.8415C32.7025 39.4421 33.7212 37.4898 35.3443 37.3862C36.0349 37.3343 36.6911 37.1443 37.2609 36.8506C39.3156 35.7449 41.6293 35.7449 43.8221 35.3476C45.4624 35.0539 46.8782 36.1423 47.6552 37.6972C48.5358 39.4421 49.6581 41.0488 50.5905 42.7591C51.5229 44.5041 51.3157 45.3506 49.6063 46.1799C47.1027 47.4065 44.4264 48.1148 41.7847 48.9441C41.5947 48.9959 41.3875 48.9614 41.1976 48.9787ZM42.8552 38.9929C41.3357 39.0965 40.1789 39.8049 38.9012 39.9776C38.0551 40.0813 37.8997 40.3577 38.1414 41.1697C38.6076 42.7246 40.0062 43.7094 40.4551 45.247C40.5933 45.7134 40.8868 45.2988 41.1113 45.2297C42.4926 44.7287 43.8739 44.2276 45.2552 43.7439C45.6523 43.6057 45.6869 43.502 45.5487 43.0874C45.2207 42.1545 44.4955 41.4634 44.3919 40.375C44.3228 39.7185 43.5804 39.0447 42.8724 39.0102L42.8552 38.9929Z" fill="#1E6E67"/>
<path fill-rule="evenodd" clip-rule="evenodd" d="M199.755 92.3943C199.133 92.2907 198.529 92.187 197.907 92.0661C197.424 91.9624 197.32 91.5996 197.303 91.1677C197.269 90.1657 197.372 89.1982 197.925 88.3344C199.202 86.3476 200.463 84.3608 202.12 82.6504C206.92 77.6921 211.945 72.9411 216.883 68.1209C218.075 66.9634 219.439 66.0132 220.785 65.0457C221.77 64.3201 222.909 64.1819 224.014 64.2165C224.722 64.2337 225.378 64.8039 225.585 65.6504C225.793 66.5315 225.171 66.7907 224.567 66.9461C221.942 67.6199 220.026 69.3476 218.368 71.3516C217.349 72.5783 216.037 73.4075 214.88 74.4268C213.102 75.999 211.6 77.813 210.115 79.6443C210.011 79.7652 209.942 79.9035 209.821 79.9898C208.285 81.0437 207.3 82.6159 206.057 83.9289C204.693 85.3974 203.813 87.2114 202.293 88.5417C201.602 89.1463 201.326 89.9583 201.326 90.8567C201.326 91.9279 200.895 92.5153 199.738 92.377L199.755 92.3943Z" fill="#E06765"/>
<path fill-rule="evenodd" clip-rule="evenodd" d="M59.7072 83.8598C58.0669 83.376 56.4784 83.8079 54.9417 83.5661C54.0093 83.4106 53.3359 82.8577 52.9215 82.1148C51.6783 79.8343 50.8323 77.4156 50.2797 74.876C50.1416 74.2195 50.4524 73.7012 51.1603 73.4075C53.1114 72.5783 55.2007 72.25 57.2381 71.7144C58.3259 71.438 59.3964 71.1443 60.5187 71.0061C61.7446 70.8506 62.9188 71.3516 63.5921 72.3709C64.9044 74.3923 65.7504 76.6555 66.7001 78.8496C67.1145 79.8171 66.9073 80.5945 66.0267 81.1301C64.8008 81.8902 63.5749 82.7541 62.1072 82.9096C61.1748 83.0132 60.5187 83.687 59.7245 83.8598H59.7072ZM59.4655 74.686C58.395 74.8933 57.2899 74.997 56.2194 75.2561C55.3733 75.4634 55.1661 75.8089 55.5633 76.5691C56.1331 77.6402 56.7546 78.6596 56.9791 79.8862C57.0482 80.249 57.2899 80.6809 57.8079 80.5427C59.0856 80.2144 60.4324 80.1453 61.5892 79.4024C61.8655 79.2124 62.2972 79.0396 61.8828 78.6077C61.0367 77.7266 60.6914 76.5864 60.3115 75.4634C60.1907 75.0833 60.0698 74.565 59.4482 74.7033L59.4655 74.686Z" fill="#1E6E67"/>
<path fill-rule="evenodd" clip-rule="evenodd" d="M65.8195 100.791C62.9533 100.791 61.5892 99.6504 60.6396 96.5925C60.2252 95.2449 59.8108 93.9146 59.4136 92.5671C59.0338 91.3232 59.2928 90.9949 60.4669 90.4248C62.3317 89.5264 64.3864 89.3709 66.3202 88.7835C67.3907 88.4553 68.4958 88.2998 69.5836 88.0579C70.8785 87.7815 71.7937 88.3689 72.398 89.2327C73.9002 91.3232 74.7635 93.7419 75.7477 96.1087C76.1103 96.9898 75.8167 97.6982 75.0397 98.1819C73.7793 98.9766 72.5188 99.7714 71.0167 100.03C70.3951 100.134 69.7735 100.221 69.3073 100.704C69.1001 100.912 68.8066 100.929 68.5303 100.86C67.5979 100.618 66.6655 100.601 65.8367 100.791H65.8195ZM68.444 91.7205C67.3735 91.9279 66.2857 92.1524 65.2152 92.3252C64.3346 92.4634 64.1619 92.8953 64.5763 93.6209C65.1634 94.6748 65.7677 95.7287 65.9921 96.938C66.0612 97.3008 66.3029 97.7327 66.8209 97.5945C68.0986 97.249 69.4454 97.1972 70.6023 96.437C70.8785 96.247 71.3102 96.0742 70.8958 95.6423C70.0325 94.7612 69.7217 93.6209 69.3246 92.498C69.1864 92.1179 69.0828 91.6169 68.4612 91.7205H68.444Z" fill="#1E6E67"/>
<path fill-rule="evenodd" clip-rule="evenodd" d="M50.6078 66.0823C49.5027 66.3587 48.415 66.2378 47.3099 66.1514C46.4466 66.0823 44.9789 65.0803 44.8408 64.1646C44.7372 63.439 44.53 62.8344 44.0466 62.2642C43.7358 61.9014 43.3386 61.4177 43.5631 60.7957C43.5976 60.6921 43.5631 60.4675 43.5286 60.4675C42.2509 60.0874 42.9242 58.8262 42.4408 58.0488C41.6465 56.7876 42.1991 55.8892 43.6322 55.4055C45.5315 54.7663 47.4308 54.2134 49.2783 53.3669C51.9891 52.1402 53.6467 53.0904 55.3388 55.9583C56.4266 57.8242 57.0654 59.8974 58.2395 61.7114C58.723 62.4715 58.5503 63.3008 57.8597 63.7846C55.6841 65.2703 53.1978 65.8577 50.6251 66.0996L50.6078 66.0823ZM49.8135 62.7825C50.8841 63.0589 51.7474 62.5407 52.6452 62.1779C53.0769 62.0051 53.1114 61.815 53.0424 61.314C52.8006 59.811 51.7646 58.7571 51.1776 57.4614C50.8841 56.8049 50.5733 56.5976 49.9689 56.8222C49.0883 57.1331 48.225 57.4959 47.3444 57.8415C46.9818 57.9797 47.2581 58.2043 47.2754 58.4116C47.3962 59.811 48.2941 60.9167 48.7603 62.1951C48.933 62.6961 49.1401 63.2144 49.8135 62.7825Z" fill="#1E6E67"/>
<path fill-rule="evenodd" clip-rule="evenodd" d="M91.9953 43.9685C92.6342 44.0894 93.0659 43.813 93.5493 44.1067C94.0673 44.4177 94.5335 44.7978 94.3781 45.3506C94.2054 45.8862 94.568 46.8191 93.2903 46.8364C92.3407 46.8364 91.391 47.5102 90.4068 47.7693C87.8169 48.4258 85.2615 49.2205 82.637 49.7734C81.2557 50.0671 79.9434 50.6718 78.5966 51.1555C78.4412 51.2073 78.3031 51.311 78.1477 51.311C75.3678 51.2419 73.0541 52.814 70.4814 53.5051C69.5318 53.7642 68.5131 53.8333 67.5979 53.7642C66.4584 53.6779 65.5432 54.0925 64.5418 54.4207C63.2295 54.8527 61.8482 54.9909 60.6223 54.1443C59.8971 53.6433 60.0353 53.0386 60.6914 52.5031C61.4166 51.9329 62.2972 51.6911 63.1605 51.4665C65.3015 50.9309 67.4943 50.5854 69.6181 49.9807C72.8469 49.0478 76.1621 48.4604 79.3045 47.1819C80.8931 46.5427 82.706 46.4909 84.3118 45.9207C86.1766 45.2642 88.1967 45.1951 89.9752 44.2277C90.614 43.8821 91.4256 44.0031 91.9953 43.9858V43.9685Z" fill="#1E6E67"/>
<path fill-rule="evenodd" clip-rule="evenodd" d="M114.045 86.0711C114.045 87.7642 113.647 88.1098 112.162 88.5244C109.832 89.1982 107.431 89.4919 105.118 90.2348C103.598 90.7185 102.062 91.4096 100.37 91.3577C99.3681 91.3232 98.5566 92.0315 97.5896 92.2906C94.6544 93.0681 91.7709 93.9837 88.8701 94.8476C87.4888 95.2622 86.0557 95.6077 84.6398 96.0051C84.3463 96.0915 83.9319 96.0051 83.6384 95.8669C83.1895 95.6596 82.8096 95.5386 82.3089 95.7632C81.7218 96.0224 81.411 95.5041 81.0312 95.1585C80.5304 94.7094 80.9794 94.3638 81.1348 94.0528C81.7218 92.7917 83.0686 92.7398 84.1391 92.5325C86.5564 92.0833 88.9046 91.3059 91.2529 90.6321C93.3248 90.0447 95.4659 89.5955 97.5033 88.7663C98.712 88.2652 100.059 87.8679 101.44 87.9197C102.183 87.9543 102.666 87.4187 103.27 87.2114C105.239 86.5031 107.328 86.3821 109.348 85.8811C110.401 85.622 111.403 85.1037 112.525 85.5183C112.663 85.5701 112.87 85.5529 112.991 85.4665C113.941 84.8791 114.2 85.2419 114.027 86.0884L114.045 86.0711Z" fill="#1E6E67"/>
<path fill-rule="evenodd" clip-rule="evenodd" d="M116.306 60.2602C116.859 60.1392 117.601 60.001 118.085 60.813C118.776 61.9533 118.275 62.9207 116.531 63.3354C114.528 63.8191 112.542 64.3892 110.453 64.562C109.434 64.6484 108.433 65.1149 107.449 65.4777C106.223 65.9268 105.066 66.3415 103.719 66.3415C101.734 66.3415 100.024 67.4817 98.1249 67.8964C96.5019 68.2419 94.8616 68.5356 93.2213 68.8811C92.7723 68.9675 92.3061 69.1403 91.8917 69.3303C90.6313 69.9177 89.2327 69.6067 87.9205 69.9523C87.2643 70.125 86.6082 69.7277 86.591 68.9502C86.591 68.2592 86.4528 67.4472 87.4888 67.1535C90.1133 66.4279 92.7896 65.8577 95.3623 64.873C96.0357 64.6138 96.8299 64.5966 97.5724 64.562C99.6616 64.4756 101.457 63.2663 103.477 63.0071C105.273 62.7825 107 62.2815 108.709 61.8323C110.626 61.3313 112.663 61.2449 114.511 60.4157C114.96 60.2084 115.547 60.0356 116.289 60.2602H116.306Z" fill="#1E6E67"/>
<path fill-rule="evenodd" clip-rule="evenodd" d="M109.227 48.7022C109.676 48.7713 110.056 48.7713 110.453 48.685C111.351 48.4949 111.748 49.0996 111.973 49.8252C112.197 50.5681 111.921 51.0691 111.144 51.3801C108.053 52.624 104.772 53.2632 101.613 54.2825C98.6256 55.25 95.5868 55.9929 92.5306 56.5976C89.9579 57.1159 87.5579 58.2734 84.9334 58.4116C83.8974 58.4807 82.706 58.2734 81.9118 57.3232C81.2902 56.563 81.4974 55.9583 82.4125 55.5955C84.2773 54.8526 86.3147 54.9217 88.1795 54.2134C89.9925 53.5224 91.9608 53.4187 93.7738 52.6413C95.1206 52.0539 96.7263 52.0193 98.2285 51.7774C99.0746 51.6392 99.9034 51.4837 100.715 51.1382C103.046 50.1016 105.584 49.6352 108.001 48.8232C108.398 48.685 108.865 48.7541 109.227 48.7195V48.7022Z" fill="#1E6E67"/>
<path fill-rule="evenodd" clip-rule="evenodd" d="M55.6323 36.8852C54.5445 36.5915 53.1805 37.0234 52.4208 35.6758C52.2136 35.3303 52.0409 35.1921 52.4726 34.8811C53.8539 33.8618 55.4942 33.5681 57.1 33.1708C57.2554 33.1362 57.428 33.1707 57.5489 33.1016C60.2425 31.8405 63.195 31.5122 66.0267 30.7693C68.9793 29.9919 71.9836 29.4045 74.9016 28.5407C76.1103 28.1779 77.2153 27.5559 78.5448 27.5386C79.3391 27.5386 79.9434 27.6423 80.2197 28.4197C80.4787 29.1626 80.3751 29.6464 79.529 30.1992C78.1995 31.0803 76.7146 31.2876 75.316 31.8059C72.3462 32.9116 69.2037 33.3781 66.1821 34.2246C62.9705 35.123 59.759 36.0905 56.4956 36.8161C56.2194 36.8852 55.9431 36.8679 55.6323 36.9025V36.8852Z" fill="#1E6E67"/>
<path fill-rule="evenodd" clip-rule="evenodd" d="M86.8672 28.4024C85.9176 28.3679 85.0715 28.4024 84.26 27.9705C83.6729 27.6596 83.3103 27.0894 83.2413 26.6057C83.1722 26.0701 83.9147 25.9319 84.3809 25.7937C87.5233 24.9472 90.5277 23.6341 93.722 22.9085C95.0688 22.5976 96.4155 22.3211 97.7623 22.062C98.7292 21.8719 99.3508 22.4075 99.748 23.5478C100.111 24.6189 99.4026 25.0508 98.7292 25.5345C98.1767 25.9319 97.4861 25.8974 96.9335 25.8282C95.2069 25.6382 93.8428 26.7266 92.2371 27.003C91.2874 27.1585 90.3205 27.7114 89.3191 28.0224C88.473 28.2815 87.6442 28.3679 86.8845 28.4024H86.8672Z" fill="#1E6E67"/>
<path fill-rule="evenodd" clip-rule="evenodd" d="M74.021 56.8567C74.5908 56.6839 75.0743 56.7358 75.4714 56.9776C76.0585 57.3404 76.5419 57.8933 76.4383 58.6189C76.3175 59.4309 75.5923 59.7073 74.9016 59.8974C74.0383 60.1219 73.1404 60.2602 72.2599 60.4157C71.1375 60.623 70.0498 61.0203 69.031 61.4004C67.2526 62.0742 65.526 61.8841 63.7648 61.6768C63.2123 61.6077 62.7979 61.1931 62.7288 60.5539C62.677 59.9492 62.8151 59.5691 63.5231 59.3618C66.1303 58.6016 68.7375 57.8415 71.3965 57.375C72.3117 57.2195 73.1059 56.5112 74.0038 56.8567H74.021Z" fill="#1E6E67"/>
<path fill-rule="evenodd" clip-rule="evenodd" d="M81.1175 68.3801C81.1175 68.3801 81.2729 68.3801 81.3592 68.3801C82.7578 68.3974 83.6211 68.8984 83.5866 69.7968C83.5521 71.0061 82.5506 71.3862 81.6182 71.4553C78.9938 71.6281 76.5419 72.6128 73.952 72.9584C73.3476 73.0447 72.8124 73.3903 72.1563 73.4248C71.5347 73.4594 70.9994 73.373 70.8095 72.751C70.6195 72.1118 70.6368 71.4726 71.2757 70.9543C72.6742 69.814 74.3491 69.4512 76.0585 69.2958C77.7851 69.1403 79.3736 68.3628 81.1348 68.3801H81.1175Z" fill="#1E6E67"/>
<path fill-rule="evenodd" clip-rule="evenodd" d="M125.285 82.2358C127.288 82.1839 127.495 82.3222 127.892 83.7215C128.065 84.3089 127.806 84.6718 127.391 84.7063C126.355 84.81 125.527 85.5874 124.473 85.5701C123.61 85.5528 123.023 86.2439 122.229 86.4858C120.917 86.8831 119.673 86.313 118.396 86.4339C117.964 86.4685 117.498 86.1748 117.498 85.5529C117.498 84.7581 117.636 83.7561 118.378 83.687C120.727 83.4624 122.816 82.1839 125.285 82.2531V82.2358Z" fill="#1E6E67"/>
<path fill-rule="evenodd" clip-rule="evenodd" d="M101.509 45.3852C100.404 45.247 99.299 45.3333 98.7983 44.1413C98.4875 43.3984 98.7983 42.7592 99.5235 42.6728C100.249 42.5864 100.87 42.3445 101.457 41.999C102.873 41.187 104.41 40.876 106.016 40.9624C107.276 41.0315 107.19 42.1027 107.345 42.9665C107.466 43.7094 106.931 43.5884 106.482 43.7785C105.549 44.1758 104.548 44.4177 103.65 44.8669C102.89 45.247 102.131 45.1779 101.509 45.4025V45.3852Z" fill="#1E6E67"/>
<path fill-rule="evenodd" clip-rule="evenodd" d="M178.017 133.046C177.947 133.443 177.861 133.858 177.55 134.117C176.756 134.773 175.927 135.361 175.029 135.827C174.494 136.104 173.89 136.052 173.475 135.654C173.078 135.274 173.424 134.773 173.614 134.341C174.097 133.27 175.047 132.579 175.755 131.681C176.083 131.249 176.825 131.059 177.257 131.284C177.861 131.595 177.896 132.389 178.017 133.028V133.046Z" fill="#E06765"/>
<path fill-rule="evenodd" clip-rule="evenodd" d="M75.2297 12.6982C74.9189 13.2683 75.5577 14.5986 74.1419 14.5295C72.3116 14.4431 71.0339 13.3374 71.0512 12.2144C71.0685 11.3506 72.1044 10.7632 73.175 10.8323C74.8498 10.936 75.316 11.3852 75.2297 12.6809V12.6982Z" fill="#1E6E67"/>
<path fill-rule="evenodd" clip-rule="evenodd" d="M43.3732 17.4492C44.4264 16.7236 44.9617 17.3801 45.566 18.4167C45.9977 19.1595 45.8596 19.6606 45.5142 20.248C45.1689 20.8354 44.6854 20.8872 43.9948 20.7317C43.2523 20.5589 42.5271 20.4553 42.0264 19.816C41.6293 19.315 41.4739 18.7449 41.8192 18.1748C42.1127 17.691 42.4581 17.1555 43.3732 17.4492Z" fill="#1E6E67"/>
<path fill-rule="evenodd" clip-rule="evenodd" d="M184.302 119.829C186.011 119.898 188.584 121.816 189.05 123.371C189.188 123.82 189.188 124.252 188.774 124.546C188.394 124.805 188.014 124.718 187.686 124.459C187.047 123.924 186.425 123.388 185.821 122.818C185.268 122.317 184.733 121.799 183.956 121.609C183.352 121.453 182.73 121.246 182.868 120.469C183.024 119.657 183.766 119.898 184.284 119.829H184.302Z" fill="white"/>
<path fill-rule="evenodd" clip-rule="evenodd" d="M42.8725 38.9929C43.5804 39.0274 44.3228 39.7185 44.3919 40.3577C44.5128 41.4289 45.238 42.1372 45.5487 43.0701C45.6869 43.4848 45.6523 43.5884 45.2552 43.7266C43.8739 44.2104 42.4926 44.7287 41.1113 45.2124C40.9041 45.2815 40.6106 45.6961 40.4552 45.2297C39.989 43.6921 38.5904 42.7073 38.1415 41.1524C37.8997 40.3405 38.0551 40.064 38.9012 39.9604C40.1789 39.8049 41.3357 39.0793 42.8552 38.9756L42.8725 38.9929Z" fill="white"/>
<path fill-rule="evenodd" clip-rule="evenodd" d="M59.4482 74.686C60.0698 74.5478 60.1734 75.0661 60.3115 75.4462C60.6914 76.5691 61.0194 77.7094 61.8828 78.5905C62.2971 79.0224 61.8655 79.1951 61.5892 79.3852C60.4496 80.1281 59.0856 80.1972 57.8079 80.5254C57.2899 80.6636 57.0482 80.2317 56.9791 79.8689C56.7546 78.6423 56.133 77.623 55.5633 76.5519C55.1661 75.809 55.3561 75.4462 56.2194 75.2388C57.2899 74.9797 58.3949 74.8933 59.4655 74.6687L59.4482 74.686Z" fill="white"/>
<path fill-rule="evenodd" clip-rule="evenodd" d="M68.444 91.7205C69.0656 91.6169 69.1692 92.1179 69.3073 92.498C69.6872 93.6209 69.998 94.7612 70.8785 95.6423C71.3102 96.0742 70.8785 96.2469 70.585 96.437C69.4454 97.1971 68.0814 97.249 66.8037 97.5945C66.3029 97.7327 66.0439 97.3008 65.9749 96.938C65.7332 95.7287 65.1288 94.6748 64.559 93.6209C64.1446 92.878 64.3173 92.4634 65.1979 92.3252C66.2857 92.1524 67.3562 91.9278 68.4267 91.7205H68.444Z" fill="white"/>
<path fill-rule="evenodd" clip-rule="evenodd" d="M49.8135 62.7825C49.1401 63.2144 48.9329 62.6789 48.7603 62.1951C48.2941 60.9167 47.3962 59.8283 47.2754 58.4116C47.2581 58.2043 46.9818 57.9797 47.3444 57.8415C48.2078 57.4959 49.0883 57.1331 49.9689 56.8222C50.5733 56.5976 50.884 56.8222 51.1776 57.4614C51.7646 58.7571 52.8006 59.811 53.0423 61.314C53.1114 61.8151 53.0941 62.0051 52.6452 62.1779C51.7474 62.5407 50.884 63.0417 49.8135 62.7825Z" fill="white"/>
<path fill-rule="evenodd" clip-rule="evenodd" d="M45.3416 32.9462C43.5804 35.5376 42.389 38.5092 41.2839 41.4807C41.0768 41.0315 40.8696 40.5823 40.576 40.185C39.8163 39.0966 38.0206 40.1331 38.7976 41.2216C39.5228 42.2581 39.8681 43.5712 40.5242 44.6596C41.0077 45.4716 42.1127 45.2297 42.4063 44.4177C43.7012 40.8588 44.979 37.1443 47.12 34C47.8797 32.8943 46.084 31.8577 45.3416 32.9634V32.9462Z" fill="#E06765"/>
<path fill-rule="evenodd" clip-rule="evenodd" d="M54.2855 50.5163C52.9387 53.5224 51.6265 56.5458 50.6078 59.6901C50.0553 59.0854 49.52 58.4807 49.1919 57.7551C48.6221 56.5458 46.8437 57.5996 47.4135 58.7917C48.0524 60.1565 49.2783 61.0549 50.1761 62.2297C50.6941 62.9208 51.7992 62.9208 52.0582 61.9878C53.0769 58.3943 54.5618 54.9736 56.0812 51.5529C56.6165 50.3435 54.838 49.2897 54.3028 50.5163H54.2855Z" fill="#E06765"/>
<path fill-rule="evenodd" clip-rule="evenodd" d="M64.2655 66.3415C62.7288 69.9177 61.123 73.5457 59.1029 76.8974C58.4985 76.2927 57.8942 75.688 57.2899 75.0833C56.3402 74.1504 54.8899 75.6016 55.8223 76.5346C56.7374 77.4502 57.6525 78.3659 58.5676 79.2815C59.0511 79.7653 59.8281 79.627 60.1906 79.0742C62.5561 75.4289 64.3173 71.3516 66.044 67.3781C66.5619 66.1687 64.7835 65.1148 64.2655 66.3415Z" fill="#E06765"/>
<path fill-rule="evenodd" clip-rule="evenodd" d="M70.4469 85.9675C69.1346 88.3689 68.3577 91.0295 67.8742 93.7246C67.4598 93.3445 67.0627 92.9472 66.7174 92.498C65.9231 91.4441 64.1274 92.4807 64.9389 93.5346C65.785 94.6575 66.8382 95.5386 67.8569 96.5061C68.5649 97.1799 69.5145 96.6443 69.6181 95.7805C69.9807 92.7744 70.775 89.6819 72.2253 87.0041C72.8642 85.8293 71.0858 84.7927 70.4469 85.9675Z" fill="#E06765"/>
</g>
<defs>
<clipPath id="clip0_125_11412">
<rect width="238" height="136" fill="white"/>
</clipPath>
</defs>
</svg>
