<svg width="112" height="195" viewBox="0 0 112 195" fill="none" xmlns="http://www.w3.org/2000/svg">
<g clip-path="url(#clip0_125_15480)">
<path fill-rule="evenodd" clip-rule="evenodd" d="M83.4188 66.8037C83.4188 68.8523 83.4635 68.8969 81.363 69.8989C76.0445 72.4597 70.5473 74.5975 64.916 76.468C61.7652 77.5146 58.659 78.962 55.5306 80.1867C53.8099 80.8547 52.0669 81.5005 50.2792 81.9459C47.5082 82.6139 44.8266 82.3467 42.4132 80.6321C42.3462 80.5875 42.2792 80.4985 42.2121 80.4762C37.8993 79.6077 36.1786 75.4436 32.9607 73.15C32.5138 72.8383 32.1116 72.4375 31.6199 72.148C30.592 71.5022 29.5641 70.8342 28.7373 69.9212C25.8322 66.7592 22.078 64.5992 18.8825 61.7711C17.0725 60.1679 15.4412 58.2974 13.5194 56.939C10.9049 55.0685 9.13949 52.4409 6.70374 50.4813C4.8043 48.9448 3.35178 46.9853 1.63111 45.2929C1.07246 44.7362 0.826645 44.1572 0.804299 43.3556C0.692567 39.2806 0.848991 35.1833 0.513796 31.1082C0.223293 27.6567 0.558489 24.1607 0.044522 20.7314C-0.111903 19.7516 0.290332 18.8386 1.0948 18.1706C1.27357 18.0147 1.67581 17.8366 1.65346 17.7475C1.0948 15.3648 3.15067 15.3203 4.42441 14.9195C9.29592 13.3385 13.9216 11.0894 18.9049 9.82014C20.2456 9.48612 21.3183 8.5954 22.5697 8.03871C24.3797 7.25933 26.2568 6.83624 28.0892 6.30181C31.5306 5.34429 34.7931 3.83007 38.2345 2.96162C41.0054 2.27132 43.5306 0.823906 46.3239 0.311744C50.011 -0.356293 53.363 0.200405 56.5361 2.67214C58.9496 4.56491 61.4523 6.36861 63.7093 8.43953C65.5641 10.1319 67.6423 11.557 69.2736 13.5611C70.6814 15.298 72.6032 16.6341 74.3686 18.0815C77.2289 20.4197 79.7317 23.1586 82.4579 25.6303C83.8881 26.9442 85.4523 28.1243 86.9719 29.3045C90.7484 32.2216 94.2345 35.4282 97.5417 38.8352C98.6144 39.9486 99.1283 41.4628 98.9719 42.8657C98.5473 46.8517 99.4859 50.7263 99.6423 54.6677C99.6423 55.1576 99.8881 55.7811 99.4859 56.026C98.1451 56.8054 98.8602 57.518 99.4188 58.2751C101.542 61.0808 103.933 63.6639 106.056 66.4919C106.95 67.6944 107.419 68.9414 108.045 70.233C109.162 72.482 110.391 74.6643 110.905 77.1583C111.598 80.6098 112.469 83.9722 111.754 87.6019C111.307 89.8732 110.972 92.1668 110.145 94.3045C109.519 95.9078 108.38 97.3553 107.329 98.7804C103.977 103.279 99.3741 106.107 94.4803 108.667C90.0334 110.983 85.2512 112.097 80.4915 113.41C76.6032 114.502 72.8267 115.949 68.9831 117.196C65.3406 118.376 61.8322 119.801 58.4803 121.605C55.2847 123.32 52.335 125.346 49.7205 127.951C45.6535 131.96 43.9551 136.747 43.6199 142.247C43.5306 143.583 43.754 144.563 44.6926 145.699C45.6088 146.79 45.7429 148.549 46.2568 149.997C47.173 152.491 48.1563 154.962 49.0725 157.434C49.363 158.28 49.8769 158.57 50.7484 158.436C51.3071 158.347 51.8881 158.347 52.4468 158.28C54.7037 157.968 56.5138 159.149 57.8322 160.574C59.5752 162.467 60.8043 164.872 60.9607 167.544C61.0054 168.323 61.363 168.924 61.5864 169.592C61.944 170.639 61.4747 172.843 60.782 173.333C59.7764 174.046 57.9216 174.046 56.9384 173.378C56.3127 172.955 55.9775 172.443 56.4915 171.775C57.3183 170.706 57.1171 169.726 56.5585 168.613C56.201 167.9 56.1116 167.076 56.0669 166.252C55.9328 164.337 54.6814 163.046 53.2959 161.865C52.8043 161.442 52.2456 161.353 51.7317 161.732C51.1507 162.155 51.2624 162.801 51.5753 163.268C52.4691 164.56 52.849 166.052 53.497 167.455C53.9887 168.523 53.944 169.659 53.9663 170.795C53.9887 171.819 53.3406 172.22 52.4021 172.264C49.9887 172.354 49.4523 171.797 48.8266 169.37C48.1786 166.809 47.4412 164.27 46.1898 161.91C44.4244 158.614 43.1283 155.14 42.0557 151.578C41.7428 150.486 40.8937 149.618 40.9607 148.371C40.9607 148.037 40.5808 147.903 40.268 147.792C39.6199 147.569 39.0389 147.569 38.3909 147.859C37.4523 148.282 36.8713 149.061 36.2233 149.752C34.7261 151.333 34.9272 152.713 35.8434 154.762C37.0054 157.367 37.9887 160.128 39.173 162.756C39.9551 164.515 40.6255 166.341 41.3853 168.1C43.0166 171.975 45.6982 173.935 49.6982 173.935C50.1898 173.935 50.6814 173.868 51.173 173.845C52.1563 173.801 52.9607 174.024 53.0278 175.226C53.0948 176.384 52.335 176.74 51.3518 176.918C49.3853 177.297 47.4635 177.097 45.5641 176.607C44.5361 176.339 43.5529 175.961 42.525 175.694C40.8937 175.271 40.4244 173.578 39.1954 172.71C39.1283 172.665 39.1283 172.554 39.0836 172.509C36.4468 169.837 36.0222 166.052 34.2568 162.956C32.9384 160.618 32.7149 157.924 31.2401 155.608C30.4132 154.339 29.8322 152.557 30.1004 150.709C30.4132 148.482 29.944 146.233 29.6982 144.006C29.2959 140.265 29.0278 136.324 30.3685 132.806C31.8434 128.976 32.6926 124.767 35.9551 121.672C37.363 120.336 38.7931 118.866 39.9998 117.24C41.0054 115.882 42.5026 115.036 44.0445 114.279C45.2736 113.678 46.5026 113.054 47.687 112.364C52.2456 109.758 57.2289 108.044 62.011 105.951C64.2233 104.971 66.659 104.414 69.0278 104.013C70.8825 103.702 72.6926 103.279 74.4132 102.61C76.916 101.631 79.5976 101.363 82.1451 100.584C85.6982 99.5152 89.2289 98.2905 92.1339 96.0415C96.8267 92.4118 98.2345 88.5372 96.6926 82.3244C96.4691 81.3892 96.1116 80.4539 95.8211 79.5632C95.4412 78.3607 94.6591 77.2251 93.1618 77.0247C92.201 76.8911 91.5306 76.2675 90.9496 75.6218C88.4691 72.8606 85.7205 70.322 83.8434 67.0709C83.7764 66.9596 83.5753 66.9373 83.4412 66.8705L83.4188 66.8037ZM101.721 85.3529C101.966 87.2011 101.385 89.1384 100.871 91.2093C100.067 94.4604 98.1227 96.6427 95.62 98.4909C91.7093 101.363 87.1507 102.744 82.4803 103.88C80.2903 104.414 78.0557 104.86 75.9105 105.572C73.8322 106.285 71.7317 106.908 69.5641 107.22C67.4412 107.532 65.5417 108.378 63.5529 109.046C59.6199 110.36 56.0445 112.475 52.2456 114.101C50.3462 114.902 48.268 115.504 46.592 116.84C44.3127 118.666 42.2345 120.67 40.268 122.852C37.0501 126.437 35.2847 130.601 34.4132 135.322C33.9663 137.749 34.5026 140.176 33.9216 142.581C33.7428 143.361 33.8322 144.496 34.525 145.075C35.3071 145.743 35.9775 144.652 36.7373 144.585C36.8937 144.585 37.0725 144.563 37.2289 144.519C38.3015 144.341 38.592 143.762 38.659 142.67C38.7484 140.733 39.106 138.818 39.4412 136.903C40.268 132.115 42.8155 128.152 46.3015 125.034C51.3071 120.514 57.2959 117.508 63.754 115.348C66.9049 114.301 70.078 113.299 73.2289 112.252C76.3127 111.206 79.3741 110.204 82.5697 109.536C85.2736 108.957 87.8881 107.933 90.3015 106.686C93.363 105.104 96.4021 103.39 99.173 101.274C101.631 99.3816 103.575 97.0658 105.14 94.4604C107.262 90.9421 107.598 86.8893 107.262 83.0147C106.927 79.1846 106.324 75.2432 103.754 71.9253C101.899 69.5426 101.117 69.3645 99.1507 71.6581C98.8825 71.9698 98.6814 72.3261 98.4356 72.6379C97.7205 73.5731 97.5641 74.4193 98.4803 75.4214C99.3741 76.4234 100.112 77.7372 100.559 78.8952C101.296 80.7879 101.743 82.9034 101.698 85.3083L101.721 85.3529ZM70.6144 30.9078C66.3909 31.3532 62.2568 32.2216 58.2345 33.6468C55.3741 34.6711 52.8043 36.2299 50.525 38.234C49.6311 39.0134 49.0054 40.0154 49.5417 41.2624C50.1004 42.554 51.3294 42.643 52.4691 42.4871C54.3909 42.2199 56.335 41.9305 58.2121 41.3738C62.592 40.1045 66.7931 38.2785 70.9496 36.4303C72.2903 35.829 73.2512 34.8938 73.7652 33.5354C74.1898 32.3775 73.7429 31.4423 72.5585 31.0414C71.9328 30.841 71.2848 30.7965 70.6367 30.9078H70.6144ZM6.18977 19.618C5.94396 21.1768 5.92162 22.357 7.06128 23.2254C10.4356 25.8085 13.8099 28.3693 17.1618 30.9969C18.5473 32.088 20.1116 33.1124 21.1842 34.4707C23.0613 36.8756 25.497 38.7461 27.8658 40.394C31.173 42.6876 33.6982 45.6937 36.6926 48.21C37.8769 49.1898 39.106 50.1028 40.1339 51.283C40.782 52.0178 41.6311 51.7729 42.3015 51.1716C43.0836 50.4591 42.525 49.8801 41.9887 49.3679C40.5138 47.8982 39.4412 46.0723 37.7875 44.7585C35.7987 43.1775 33.9887 41.3515 31.9998 39.7705C28.2233 36.7643 24.849 33.246 20.5808 30.8856C20.0892 30.6184 19.5976 30.2398 19.3071 29.7722C18.525 28.4584 17.2065 27.7681 15.9998 27.0332C13.5641 25.5413 11.5082 23.604 9.34061 21.8003C8.40206 21.0209 7.50821 20.3083 6.21212 19.6403L6.18977 19.618ZM90.7484 38.5457C90.1898 38.7016 89.6088 38.7684 89.1172 39.0356C84.2903 41.5964 78.9942 42.9102 73.9663 44.9143C71.3518 45.9609 68.6926 46.963 66.0333 47.9205C63.4635 48.8558 60.916 49.8578 58.3015 50.6595C55.5082 51.5502 52.8043 52.5522 50.4579 54.3782C50.3239 54.4895 50.2121 54.6009 50.0557 54.6677C49.3183 55.0908 49.363 55.7365 49.6758 56.3378C50.0557 57.0504 50.6814 56.6941 51.173 56.4714C53.9216 55.2244 56.6032 53.7992 59.4412 52.7081C62.8378 51.4166 66.3462 50.3254 69.8546 49.3011C74.9049 47.8314 79.9998 46.4286 84.916 44.5803C87.3965 43.6228 90.0557 42.888 91.5753 40.3717C91.7987 40.0154 92.5585 39.8595 92.1339 39.236C91.8211 38.7684 91.4188 38.323 90.7261 38.5235L90.7484 38.5457ZM99.9328 66.2915C98.4803 63.7753 96.8713 61.4149 94.8155 59.3885C94.3462 58.9209 93.8993 58.4978 93.5641 57.9188C91.8211 54.8904 90.6814 54.6009 87.7987 56.4491C87.4635 56.6718 87.1283 56.8945 86.7708 57.0949C85.2066 58.0301 85.363 59.7225 85.0054 61.1699C84.7373 62.261 85.5864 62.84 86.2568 63.5748C87.0613 64.4878 88.1563 65.2004 88.6926 66.2247C89.8099 68.3402 91.6199 69.8321 92.9831 71.7472C94.4356 70.7451 94.1898 68.8746 95.5082 68.0284C96.8043 67.1822 98.4356 67.1823 99.9105 66.3138L99.9328 66.2915ZM43.9551 57.0281C43.3741 57.4734 43.4188 58.0969 43.3741 58.7427C43.2624 60.2569 43.5529 61.7711 43.4859 63.2854C43.3741 66.915 43.4412 70.567 43.4635 74.1966C43.4635 75.2432 43.5976 76.3344 44.4021 77.1137C44.849 77.5591 45.363 78.1603 46.078 77.9154C46.7484 77.6927 46.4803 76.9579 46.525 76.4234C46.9719 72.0812 46.3462 67.7389 46.2345 63.3967C46.1674 61.0586 45.6758 58.8318 43.9551 57.0281Z" fill="#2E736C"/>
<path fill-rule="evenodd" clip-rule="evenodd" d="M57.9442 147.747C59.6425 147.569 61.2738 147.859 62.8827 148.549C64.514 149.262 66.3464 149.329 68.0671 149.707C70.5252 150.241 72.8716 151.11 75.3073 151.756C77.1621 152.246 78.6146 153.47 79.9554 154.74C80.4023 155.163 80.7375 155.808 80.9162 156.41C81.2291 157.568 80.3576 158.458 79.1732 158.258C78.3688 158.124 77.4526 158.058 76.9386 157.389C75.3297 155.319 72.9833 154.695 70.6593 153.96C67.1285 152.802 63.5308 151.778 59.866 151.199C57.4749 150.82 54.9721 150.642 52.9609 152.602C52.4246 153.136 51.8213 153.159 51.2403 152.58C50.6816 152.001 50.4358 151.422 50.9498 150.642C51.866 149.217 53.0727 148.237 54.771 147.992C55.8213 147.837 56.8492 147.592 57.9442 147.77V147.747Z" fill="#2E706B"/>
<path fill-rule="evenodd" clip-rule="evenodd" d="M81.0502 161.398C81.7653 162.845 81.9441 164.27 81.4524 165.851C80.7374 168.145 79.6647 170.26 78.0111 171.997C75.6424 174.514 74.0558 177.297 73.7206 180.815C73.6312 181.862 73.6089 183.131 72.4022 183.799C71.1731 184.49 70.3686 184.267 70.0111 182.909C69.4748 180.904 69.5865 178.878 70.0781 176.896C70.7709 174.068 72.2681 171.663 74.391 169.704C76.2234 168.011 77.5865 166.052 78.4133 163.714C78.8379 162.533 79.5083 161.554 81.0279 161.42L81.0502 161.398Z" fill="#2E706B"/>
<path fill-rule="evenodd" clip-rule="evenodd" d="M101.721 85.3529C101.788 82.9479 101.318 80.8325 100.581 78.9397C100.134 77.7818 99.4189 76.468 98.5027 75.4659C97.5865 74.4416 97.7429 73.6177 98.458 72.6824C98.7038 72.3484 98.9049 71.9921 99.1731 71.7026C101.14 69.409 101.922 69.5872 103.776 71.9699C106.346 75.2655 106.972 79.2292 107.285 83.0593C107.62 86.9116 107.285 90.9866 105.162 94.505C103.575 97.1103 101.654 99.4039 99.1954 101.319C96.4244 103.457 93.3853 105.171 90.3239 106.73C87.9105 107.977 85.296 109.001 82.592 109.58C79.3965 110.248 76.3351 111.25 73.2513 112.297C70.1004 113.344 66.9272 114.346 63.7764 115.392C57.3183 117.552 51.3518 120.581 46.3239 125.079C42.8602 128.196 40.2904 132.182 39.4636 136.948C39.1284 138.863 38.7932 140.778 38.6814 142.715C38.6144 143.806 38.3239 144.385 37.2513 144.563C37.0948 144.585 36.9384 144.608 36.7597 144.63C35.9775 144.697 35.3071 145.788 34.5474 145.12C33.8546 144.519 33.7652 143.383 33.944 142.626C34.525 140.221 33.9887 137.794 34.4356 135.367C35.3071 130.646 37.0725 126.482 40.2904 122.897C42.2345 120.737 44.3351 118.71 46.6144 116.884C48.2904 115.548 50.3686 114.947 52.268 114.145C56.0669 112.52 59.6423 110.404 63.5753 109.09C65.5641 108.422 67.4636 107.576 69.5865 107.264C71.7317 106.953 73.8323 106.329 75.9328 105.617C78.0557 104.904 80.3127 104.436 82.5027 103.924C87.173 102.789 91.7317 101.408 95.6423 98.5355C98.1451 96.7095 100.089 94.5272 100.894 91.2539C101.408 89.2052 101.989 87.2456 101.743 85.3974L101.721 85.3529Z" fill="white"/>
<path fill-rule="evenodd" clip-rule="evenodd" d="M70.6142 30.9078C71.2622 30.7965 71.9103 30.841 72.536 31.0414C73.7203 31.4423 74.1896 32.3553 73.7427 33.5354C73.2287 34.8938 72.2678 35.829 70.927 36.4303C66.7483 38.2785 62.5695 40.0822 58.1896 41.3737C56.3125 41.9082 54.3684 42.1977 52.4466 42.4871C51.3069 42.643 50.0779 42.5762 49.5192 41.2624C48.9829 40.0377 49.6086 39.0356 50.5025 38.234C52.7818 36.2299 55.3516 34.6711 58.212 33.6468C62.212 32.2216 66.3684 31.3532 70.5919 30.9078H70.6142Z" fill="white"/>
<path fill-rule="evenodd" clip-rule="evenodd" d="M6.18975 19.618C7.50818 20.2861 8.37969 20.9986 9.31824 21.778C11.4858 23.5817 13.5417 25.519 15.9775 27.011C17.1842 27.7458 18.5026 28.4361 19.2847 29.7499C19.5529 30.2175 20.0668 30.5961 20.5585 30.8633C24.8266 33.2237 28.2009 36.742 31.9775 39.7482C33.9663 41.3292 35.7763 43.1552 37.7652 44.7362C39.4188 46.05 40.4914 47.8983 41.9663 49.3457C42.5026 49.8578 43.0613 50.4591 42.2791 51.1494C41.6087 51.7506 40.7596 52.0178 40.1115 51.2607C39.0836 50.0805 37.8322 49.1898 36.6702 48.1877C33.6758 45.6492 31.1506 42.643 27.8434 40.3717C25.4747 38.7239 23.0389 36.8534 21.1618 34.4484C20.0892 33.0901 18.5249 32.0658 17.1395 30.9746C13.7875 28.3693 10.4132 25.7862 7.03891 23.2031C5.89924 22.3347 5.92159 21.1545 6.1674 19.5957L6.18975 19.618Z" fill="white"/>
<path fill-rule="evenodd" clip-rule="evenodd" d="M90.7484 38.5235C91.4412 38.3231 91.8434 38.7684 92.1562 39.236C92.5585 39.8595 91.7987 39.9931 91.5976 40.3717C90.078 42.888 87.4188 43.6228 84.9384 44.5803C79.9998 46.4508 74.9272 47.8537 69.8769 49.3011C66.3685 50.3255 62.8825 51.3943 59.4635 52.7081C56.6479 53.777 53.9663 55.2244 51.1953 56.4714C50.7037 56.6941 50.078 57.0504 49.6981 56.3378C49.3853 55.7366 49.3182 55.0908 50.078 54.6677C50.2121 54.5786 50.3462 54.4673 50.4803 54.3782C52.8266 52.5745 55.5305 51.5502 58.3238 50.6595C60.9384 49.8356 63.4858 48.8558 66.0557 47.9205C68.7149 46.9407 71.3518 45.9387 73.9886 44.9144C79.0166 42.9325 84.3127 41.5964 89.1395 39.0356C89.6311 38.7684 90.2121 38.7016 90.7708 38.5457L90.7484 38.5235Z" fill="white"/>
<path fill-rule="evenodd" clip-rule="evenodd" d="M99.9329 66.2915C98.4803 67.16 96.8491 67.16 95.5306 68.0062C94.2122 68.8524 94.4357 70.7006 93.0055 71.7249C91.6424 69.8099 89.8323 68.3402 88.715 66.2025C88.1787 65.1781 87.0837 64.4656 86.2792 63.5526C85.6088 62.7955 84.7597 62.2165 85.0278 61.1477C85.3854 59.7002 85.229 58.0079 86.7932 57.0726C87.1284 56.8722 87.4859 56.6495 87.8211 56.4269C90.7038 54.5786 91.8435 54.8681 93.5865 57.8965C93.9217 58.4755 94.3686 58.9209 94.8379 59.3662C96.8938 61.3926 98.5027 63.753 99.9552 66.2693L99.9329 66.2915Z" fill="white"/>
<path fill-rule="evenodd" clip-rule="evenodd" d="M43.9552 57.0281C45.6535 58.8318 46.1451 61.0586 46.2345 63.3967C46.3462 67.7389 46.9719 72.0812 46.525 76.4234C46.4803 76.9579 46.7261 77.6927 46.0781 77.9154C45.3853 78.1603 44.849 77.5368 44.4021 77.1137C43.5976 76.3344 43.4635 75.2655 43.4635 74.1966C43.4412 70.567 43.3741 66.915 43.4859 63.2854C43.5306 61.7712 43.2624 60.2569 43.3741 58.7427C43.4188 58.0969 43.3741 57.4734 43.9552 57.0281Z" fill="white"/>
<path fill-rule="evenodd" clip-rule="evenodd" d="M88.715 151.823C86.2792 149.061 82.972 147.391 79.3742 146.567C77.8546 146.211 76.4021 145.721 75.0166 145.098C69.7206 142.715 64.134 141.446 58.3686 141.089C55.1284 140.889 51.8882 141.29 48.8267 142.67C47.5753 143.227 46.9273 144.14 46.3909 145.231C46.1228 145.766 46.0334 146.345 46.4803 146.835C47.0166 147.391 47.7317 147.347 48.268 146.924C50.6368 145.075 53.4301 144.719 56.4021 144.43C58.8826 144.051 61.4077 144.697 63.9328 145.32C68.6479 146.501 73.1619 148.171 77.7652 149.729C80.8044 150.776 83.2178 152.29 85.4524 154.517C87.7541 156.811 88.0669 159.683 87.7988 162.378C87.5306 165.116 86.0558 167.766 84.4468 169.993C82.7708 172.331 81.0055 174.603 79.4636 177.03C77.5194 180.08 75.5977 183.176 75.5753 187.006C74.1898 190.101 71.8882 189.544 67.2625 190.057C65.0725 190.301 63.1731 189.455 61.7429 188.52C60.8937 187.763 60.0446 187.006 59.1731 186.293C56.5362 184.089 53.8323 182.018 51.4189 179.568C50.7485 178.9 49.9217 178.7 48.9831 178.655C48.134 178.611 47.3071 178.722 46.9049 179.546C46.5027 180.348 47.106 180.927 47.6423 181.417C49.1172 182.797 50.7261 184.044 52.1116 185.514C53.4747 186.984 55.106 188.008 56.8267 188.876C56.8714 188.899 60.6256 192.306 62.9943 193.864C65.363 195.423 69.1619 195.267 73.877 194.265C78.5921 193.241 79.3518 189.455 79.3518 189.455C79.7541 189.188 79.9775 188.609 80.2457 187.585C80.715 185.737 81.0725 183.866 81.8993 182.085C83.3742 178.923 85.6312 176.25 87.3742 173.244C88.0893 171.997 88.7597 170.617 89.7652 169.659C91.7988 167.677 92.201 165.05 92.6703 162.667C93.4971 158.481 91.4189 154.895 88.7597 151.867L88.715 151.823Z" fill="#2E706B"/>
</g>
<defs>
<clipPath id="clip0_125_15480">
<rect width="112" height="195" fill="white"/>
</clipPath>
</defs>
</svg>
