<svg width="599" height="378" viewBox="0 0 599 378" fill="none" xmlns="http://www.w3.org/2000/svg">
<g clip-path="url(#clip0_125_15963)">
<path d="M448 105L365.5 180L424.5 292L529.5 190L532 180L497.5 144.5L448 105Z" fill="white"/>
<path d="M2 178.408L167.5 305.925L232 344.231L223.5 378H382L345.5 275.684L309 173.367C315.8 173.367 330.5 151.526 337 140.606C341.5 139.934 351.7 136.171 356.5 126.493C361.3 116.816 350.333 113.053 346 112.381L333 94.5L306.5 67.5C294.1 80.7 262 91 247.5 94.5L240.5 115.909L232 112.381L223.5 115.909L134.5 19.1367L12 120.949L30.5 141.614L2 178.408Z" fill="white"/>
<path fill-rule="evenodd" clip-rule="evenodd" d="M243.223 311.546C243.223 311.546 238.84 314.012 234.311 321.074C229.783 328.135 229.42 340.227 229.42 340.227C229.42 340.227 192.249 334.108 178.954 321.074C165.66 308.064 164.933 297.858 164.933 297.858L178.252 251.79C178.252 251.79 196.414 200.015 217.99 183.523C239.566 167.03 249.349 165.869 249.349 165.869C249.349 165.869 256.106 204.271 262.087 223.134C268.068 241.996 280.103 261.947 280.103 261.947L293.204 275.248C293.204 275.248 313.884 257.183 323.667 226.93C333.426 196.678 334.347 180.306 334.347 180.306L333.063 162.169C333.063 162.169 348.924 166.909 359.507 175.494C370.089 184.079 384.521 197.79 384.521 197.79C384.521 197.79 415.639 253.338 420.554 268.718C425.47 284.098 424.502 291.909 422.516 299.309C420.554 306.685 414.815 317.011 414.815 317.011C414.815 317.011 390.696 334.931 384.497 335.269C378.298 335.632 378.637 333.068 378.637 333.068C378.637 333.068 381.47 324.822 378.637 317.011C375.804 309.176 369.653 300.277 369.653 300.277L354.664 299.285L343.258 301.921L339.626 307.459L263.177 309.152L259.157 310.99L243.199 311.546H243.223Z" fill="#EFE452"/>
<path fill-rule="evenodd" clip-rule="evenodd" d="M249.325 165.869L262.062 162.121L273.516 168.65L282.186 183.523L293.18 195.251C293.18 195.251 301.704 190.245 305.457 182.894C309.21 175.542 309.332 173.076 309.332 173.076L323.619 159.098L331.101 163.548L332.385 163.62C332.385 163.62 330.859 206.448 323.159 228.406C315.458 250.364 293.955 275.296 293.955 275.296C293.955 275.296 276.108 258.489 269.569 243.133C263.031 227.753 255.137 192.978 255.137 192.978L249.301 165.942L249.325 165.869Z" fill="white"/>
<path fill-rule="evenodd" clip-rule="evenodd" d="M313.23 23.5056C313.23 34.7506 304.101 43.8917 292.841 43.8917C281.58 43.8917 272.451 34.7748 272.451 23.5056C272.451 12.2365 281.58 3.1438 292.841 3.1438C304.101 3.1438 313.23 12.2607 313.23 23.5056V23.5056Z" fill="#6BB3A9"/>
<path fill-rule="evenodd" clip-rule="evenodd" d="M246.952 95.0622C246.952 95.0622 262.692 94.2883 277.73 86.1388C292.792 77.9892 308.508 63.9874 308.508 63.9874C308.508 63.9874 315.652 74.0474 321.73 81.8826C327.808 89.7178 337.688 93.5629 337.688 93.5629L343.379 109.741L347.035 111.676L349.747 112.087C349.747 112.087 357.061 86.9368 347.156 65.39C337.276 43.8432 324.781 31.51 313.86 28.5839C302.938 25.6336 264.532 25.1499 248.356 48.4863C232.18 71.8226 233.536 93.9981 234.602 95.7877C235.667 97.5772 238.355 111.676 238.355 111.676L239.711 117.189C239.711 117.189 241.673 113.973 244.797 106.138C247.92 98.3027 246.952 95.0864 246.952 95.0864V95.0622Z" fill="#6BB3A9"/>
<path fill-rule="evenodd" clip-rule="evenodd" d="M15.8371 120.236C18.404 122.993 20.8256 125.508 23.1261 128.12C25.2086 130.466 27.5817 132.521 29.3011 135.205C30.6814 137.358 32.9819 138.688 34.5559 140.719C39.4959 147.103 45.574 152.496 50.514 158.904C54.1222 161.419 56.0836 165.41 59.2317 168.384C62.2587 171.262 64.7044 174.744 67.6345 177.719C70.1046 180.234 72.1629 183.087 74.5845 185.626C77.9747 189.181 81.1711 192.93 84.4887 196.557C87.6852 200.039 91.2449 203.256 94.0539 207.028C96.7903 210.704 100.277 213.606 103.086 217.209C107.469 222.771 112.555 227.777 117.325 233.073C121.563 237.764 125.776 242.48 130.014 247.171C133.913 251.476 137.618 255.926 141.686 260.085C145.488 263.978 148.927 268.235 152.559 272.321C153.843 273.748 155.417 274.933 156.264 276.723C156.579 277.376 156.797 277.98 156.676 278.73C156.53 279.576 156.313 279.842 155.32 279.77C153.213 279.625 151.881 278.488 150.598 276.989C146.142 271.789 141.492 266.735 136.94 261.584C131.612 255.563 126.091 249.686 120.812 243.617C118.463 240.932 115.824 238.514 113.426 235.854C109.939 231.985 106.573 228.019 103.135 224.101C101.343 222.07 99.5993 219.966 97.662 218.08C95.1678 215.613 93.279 212.614 90.809 210.196C88.4601 207.899 86.6197 205.142 83.9317 203.183C83.8591 203.135 83.8106 203.062 83.7622 202.965C80.5415 198.129 76.1343 194.308 72.3808 189.931C67.4166 184.151 62.0649 178.734 57.0523 172.979C52.2576 167.465 47.1965 162.193 42.4018 156.68C40.295 154.261 37.8008 152.133 35.9846 149.449C34.9191 147.877 33.224 146.741 31.9648 145.29C28.0903 140.84 24.1431 136.487 20.2202 132.086C17.9681 129.547 15.7645 126.935 13.3671 124.517C12.6406 123.791 12.3016 122.896 12.1806 121.929C12.1321 121.518 12.3016 121.131 11.7447 120.841C10.1222 120.019 10.8003 118.858 11.6478 118.084C14.8201 115.23 17.6533 111.99 21.3341 109.717C22.4964 108.991 23.5619 108.024 24.4821 106.984C25.814 105.436 27.4122 104.276 28.9863 102.994C33.6357 99.2457 38.0672 95.2556 42.7166 91.5314C47.2933 87.8556 51.5795 83.8171 56.1805 80.1897C60.9026 76.4414 65.1888 72.2094 69.9593 68.582C72.7441 66.4539 75.3109 64.0599 77.9989 61.835C83.6896 57.1194 89.3803 52.4038 94.9983 47.5914C98.1221 44.9313 101.391 42.368 104.515 39.7079C108.874 35.9837 113.305 32.3079 117.64 28.5838C121.732 25.0531 125.922 21.6192 130.087 18.1611C134.01 14.8964 135.874 15.8395 138.732 18.7414C142.219 22.2963 145.343 26.2623 148.854 29.7688C151.712 32.6223 154.06 35.9112 156.991 38.6922C159.969 41.5457 162.584 44.7862 165.393 47.8333C168.784 51.509 172.368 54.9913 175.516 58.8364C177.913 61.7383 180.988 64.0115 182.901 67.3245C183.507 68.3644 184.596 68.8238 185.396 69.6461C187.551 71.9434 189.488 74.3859 191.619 76.7074C193.75 79.029 195.929 81.3263 198.012 83.672C200.918 86.9125 203.993 90.0079 206.948 93.2242C210.241 96.8516 213.922 100.14 216.755 104.203C216.997 104.566 217.336 104.88 217.53 105.243C218.208 106.476 217.724 107.299 216.295 107.299C214.309 107.299 212.566 106.259 211.573 104.856C210.168 102.921 208.376 101.471 206.875 99.7052C205.107 97.6496 203.267 95.6425 201.475 93.6595C199.925 91.9425 198.496 90.1046 196.729 88.5086C194.767 86.7432 193.096 84.5426 191.207 82.608C189.222 80.5283 187.309 78.376 185.371 76.2479C183.216 73.8539 180.988 71.5323 178.906 69.0657C176.557 66.3088 173.82 63.9631 171.375 61.3272C171.084 61.0128 170.697 60.7226 170.479 60.3599C168.396 56.7567 165.151 54.1933 162.366 51.2188C159.339 47.9783 156.313 44.7379 153.31 41.4732C150.186 38.0634 146.917 34.7504 143.963 31.2197C141.25 27.9792 138.078 25.1982 135.535 21.861C134.615 20.6519 133.889 20.8937 132.969 21.6917C129.142 25.0289 125.292 28.342 121.369 31.5825C118.149 34.2426 115.097 37.1203 111.659 39.5628C109.673 40.9654 107.978 42.7307 106.041 44.23C103.086 46.5032 100.592 49.2842 97.4199 51.3881C95.7732 52.4763 94.2234 54.024 92.6736 55.4266C88.896 58.8364 84.8519 61.9801 81.0016 65.2932C78.6285 67.3245 76.1343 69.2108 73.8822 71.4356C71.2669 73.9989 68.1915 76.1028 65.4309 78.5937C62.1376 81.5681 58.7958 84.4943 55.3087 87.2511C48.9884 92.2327 43.0314 97.6013 36.7837 102.68C34.4106 104.614 31.9406 106.428 29.7127 108.508C27.1459 110.878 24.3126 112.885 21.5762 115.037C19.5179 116.657 17.9681 118.81 15.6918 120.406L15.8371 120.236Z" fill="#2E706B"/>
<path fill-rule="evenodd" clip-rule="evenodd" d="M380.623 334.133C387.887 332.585 393.699 329.103 399.535 325.5C403.676 322.961 407.333 319.938 410.868 316.673C412.854 314.835 414.525 312.683 415.639 310.265C416.752 307.895 418.52 305.912 419.247 303.3C419.901 300.906 420.433 298.56 420.579 296.069C420.772 293.095 420.869 290.096 420.724 287.146C420.603 284.703 420.07 282.309 419.634 279.891C419.174 277.352 418.666 274.813 418.06 272.274C417.552 270.145 417.019 268.017 416.292 265.938C415.421 263.398 414.379 260.908 413.29 258.417C411.498 254.257 410.19 249.905 408.18 245.793C406.388 242.118 404.499 238.49 402.78 234.766C401.763 232.566 400.843 230.317 399.293 228.309C397.767 226.351 396.92 223.86 395.636 221.659C391.399 214.501 386.773 207.585 382.318 200.572C381.979 200.016 381.446 199.701 381.01 199.314C380.502 198.855 379.848 198.395 379.606 197.791C378.564 195.276 376.579 193.583 374.666 191.793C374.036 191.189 373.479 190.512 372.946 189.81C371.735 188.287 370.5 186.86 368.83 185.772C367.716 185.046 366.747 183.958 365.778 182.918C363.357 180.307 360.645 178.033 357.884 175.76C353.767 172.375 348.9 170.658 344.13 168.772C340.473 167.345 336.623 166.329 332.797 165.386C331.513 165.072 331.15 164.443 331.15 163.451C331.15 162.315 332.143 162.145 333.063 162.121C333.668 162.097 334.249 161.952 334.879 162.17C337.955 163.137 341.054 164.056 344.178 164.902C346.696 165.579 349.094 166.813 351.54 167.732C359.046 170.561 365.028 175.47 370.452 181.226C371.445 182.29 372.559 183.281 373.648 184.248C377.402 187.61 380.574 191.455 383.674 195.373C385.078 197.162 386.701 198.758 388.008 200.644C390.745 204.61 393.287 208.697 395.733 212.832C396.75 214.549 397.961 216.121 399.002 217.814C401.497 221.828 403.313 226.205 406.073 230.075C406.848 234.234 409.851 237.33 411.328 241.199C412.951 245.431 415.348 249.348 416.607 253.774C416.97 255.007 417.455 256.265 418.351 257.304C418.787 257.812 419.15 258.514 419.247 259.191C419.537 261.585 420.99 263.568 421.596 265.841C422.371 268.815 423.412 271.693 423.872 274.74C424.332 277.884 424.937 280.979 425.494 284.099C425.954 286.759 426.415 289.347 426.051 292.128C425.833 293.796 426.1 295.634 425.882 297.351C425.47 300.93 424.865 304.461 422.806 307.604C421.741 309.201 421.16 311.063 420.094 312.707C416.922 317.664 412.878 321.848 408.107 325.113C402.514 328.982 396.799 332.875 390.382 335.294C387.403 336.406 384.303 338.292 380.792 336.914C380.138 336.648 380.017 337.107 379.678 337.615C378.467 339.477 376.724 340.614 374.762 341.726C371.227 343.709 367.546 343.709 363.768 343.347C361.492 343.105 359.216 343.782 356.915 343.226C355.584 342.911 354.445 342.452 353.453 341.46C351.951 339.961 350.28 338.728 348.149 338.171C347.157 337.905 346.309 337.204 345.461 336.551C344.008 335.415 343.209 335.56 342.241 337.156C340.933 339.284 339.093 340.952 337.398 342.766C336.962 343.226 336.502 343.661 335.799 343.347C335.073 343.032 335.218 342.379 335.218 341.75C335.291 338.655 335.509 335.584 336.163 332.561C336.55 330.796 336.284 329.03 335.945 327.313C335.509 325.04 336.114 323.178 337.446 321.413C338.366 320.204 338.342 320.179 336.792 319.502C335.848 319.091 335.024 318.39 334.806 317.495C334.298 315.198 333.668 312.828 335.315 310.676C335.751 310.095 336.114 309.491 336.308 308.838C337.301 305.839 339.601 303.88 341.877 301.97C343.427 300.688 345.34 299.939 347.253 299.334C347.98 299.116 348.44 298.971 348.706 298.149C349.215 296.674 349.723 295.199 350.135 293.651C350.595 291.837 351.249 290.072 351.975 288.355C353.186 285.453 354.227 282.527 355.051 279.48C355.584 277.473 356.867 275.732 357.448 273.676C357.69 272.854 358.707 272.443 359.579 272.298C360.354 272.177 361.153 272.104 361.952 272.128C364.907 272.225 366.311 273.531 366.481 276.457C366.602 278.658 366.142 280.81 365.536 282.938C364.519 286.566 362.897 289.951 361.952 293.603C361.71 294.522 361.081 295.32 360.742 296.239C360.088 297.98 360.354 298.415 362.146 298.778C364.664 299.286 367.134 299.89 369.677 300.253C370.815 300.422 371.59 301.003 372.413 301.68C375.755 304.364 377.741 307.919 379.267 311.812C379.872 313.36 380.526 314.908 381.107 316.48C382.076 319.115 382.584 321.848 382.342 324.702C382.221 326.249 382.027 327.821 382.342 329.393C382.705 331.11 381.349 332.319 380.623 334.133V334.133ZM355.317 337.107C356.431 339.429 358.029 340.348 360.33 340.203C362.267 340.082 364.204 340.251 366.142 340.203C368.273 340.179 370.283 339.719 372.123 338.462C373.866 337.252 375.198 335.898 375.537 333.722C375.658 333.045 376.022 332.416 376.288 331.763C377.862 327.676 377.087 323.492 376.869 319.309C376.869 319.212 376.797 319.14 376.772 319.067C375.949 316.866 375.005 314.69 374.133 312.538C373.6 311.232 373.382 309.829 372.656 308.596C370.573 305.089 367.643 303.131 363.478 302.381C358.465 301.486 359.434 301.631 357.424 305.428C357.109 306.033 357.158 306.613 357.182 307.218C357.206 307.919 356.843 308.427 356.286 308.741C354.227 309.878 352.266 311.111 350.716 312.925C349.094 314.835 346.817 316.141 345.389 318.269C344.517 319.575 343.645 320.881 342.652 322.114C341.369 323.71 340.618 325.548 341.345 327.7C341.635 328.547 341.926 329.055 343.04 328.74C345.243 328.087 347.35 327.313 349.118 325.741C350.087 324.871 351.128 324.025 352.169 323.251C353.501 322.259 354.954 321.896 356.891 322.888C354.3 326.757 351.467 330.07 347.06 331.763C347.399 332.271 347.617 332.658 347.883 332.996C349.287 334.858 349.336 334.883 351.612 334.157C352.702 333.819 353.743 333.335 354.615 332.537C355.826 331.449 357.424 331.618 358.853 331.279C359.821 331.062 360.572 332.368 360.088 333.335C359.652 334.205 358.925 334.883 358.102 335.415C357.23 335.995 356.31 336.527 355.341 337.132L355.317 337.107ZM340.352 316.987C341.03 314.037 344.469 314.061 344.808 310.893C345.074 308.499 347.205 306.444 346.866 303.711C346.067 304.896 344.444 304.823 343.766 306.105C342.701 308.185 341.442 310.168 340.328 312.223C339.601 313.553 339.214 314.956 340.328 316.987H340.352Z" fill="#2E706B"/>
<path fill-rule="evenodd" clip-rule="evenodd" d="M533.787 184.853C533.932 186.328 533.302 187.924 532.019 189.593C529.476 192.954 526.57 195.88 523.495 198.734C521.267 200.789 518.967 202.796 517.005 205.142C516.182 206.134 515.189 207.053 514.172 207.851C509.619 211.43 505.261 215.275 501.095 219.216C496.01 224.029 490.925 228.865 485.888 233.726C483.152 236.386 480.318 239.022 477.437 241.585C475.354 243.448 473.441 245.672 471.48 247.776C467.968 251.525 464.094 254.959 460.607 258.731C459.033 260.424 457.12 261.899 456.175 264.148C456.03 264.511 455.497 264.68 455.183 264.97C453.778 266.179 452.567 267.509 451.332 268.888C449.08 271.403 446.659 273.797 444.746 276.626C443.922 277.835 440.944 277.739 439.927 276.675C439.515 276.239 439.442 275.707 439.709 275.199C440.072 274.498 440.411 273.724 440.968 273.216C442.978 271.354 444.455 269.033 446.416 267.147C450.364 263.277 454.262 259.384 457.556 254.886C458.766 253.242 460.728 252.178 462.157 250.678C464.433 248.284 466.54 245.697 469.155 243.641C469.76 243.157 470.22 242.456 470.632 241.779C471.141 240.933 471.843 240.425 472.666 239.844C474.143 238.804 475.354 237.402 476.662 236.144C479.447 233.484 482.183 230.752 485.065 228.164C486.179 227.148 487.365 226.229 488.334 225.093C491.264 221.683 494.775 218.878 498.117 215.903C501.386 212.977 504.365 209.688 507.827 207.101C512.283 203.74 515.722 199.362 520.129 195.977C523.18 193.631 525.505 190.246 527.805 187.053C529.113 185.24 528.823 183.136 528.411 181.225C528.048 179.484 527.297 177.719 525.771 176.486C525.021 175.881 524.464 175.083 523.955 174.237C522.066 171.238 519.136 169.231 516.763 166.692C515.383 165.216 513.785 163.959 512.525 162.363C512.356 162.169 512.307 161.807 512.114 161.71C509.837 160.477 508.166 158.518 506.399 156.68C504.558 154.818 502.863 152.811 500.539 151.384C499.328 150.634 498.577 149.208 497.536 148.119C493.831 144.274 489.181 141.542 485.549 137.672C482.595 134.529 479.132 132.014 475.935 129.16C471.577 125.267 466.976 121.615 462.181 118.181C459.299 116.126 456.393 114.046 453.609 111.821C451.671 110.273 449.274 109.306 447.046 108.145C446.174 107.686 445.472 108.339 444.915 108.847C442.542 111.023 440.12 113.175 437.868 115.473C434.89 118.52 431.766 121.397 428.448 124.033C427.746 124.59 427.116 125.073 426.753 125.944C426.463 126.669 425.76 127.153 425.203 127.709C421.934 130.998 418.132 133.658 414.766 136.826C412.175 139.293 409.657 141.88 406.485 143.67C406.267 143.791 406 144.008 405.928 144.226C405.225 146.644 402.925 147.539 401.278 149.038C400.407 149.812 399.874 150.804 399.05 151.602C393.336 157.139 387.5 162.532 381.421 167.659C380.889 168.118 380.283 168.578 379.944 169.182C378.976 170.899 377.474 170.803 375.852 170.682C374.811 170.585 374.665 170.053 374.956 169.255C375.537 167.683 376.409 166.232 377.716 165.144C380.114 163.137 382.535 161.178 384.691 158.832C386.555 156.801 388.735 154.963 390.72 153.028C393.554 150.223 396.314 147.297 399.22 144.589C401.86 142.146 404.523 139.655 407.478 137.503C409.851 135.738 411.861 133.465 414.113 131.506C417.6 128.459 421.159 125.484 424.283 122.05C425.76 120.43 427.407 119.052 429.078 117.649C430.676 116.271 432.25 114.723 433.655 113.103C435.544 110.926 437.868 109.233 439.83 107.105C441.355 105.461 443.511 104.276 445.884 103.865C447.119 103.647 448.499 103.502 449.395 104.397C451.647 106.598 454.771 107.323 457.192 109.233C461.382 112.522 465.789 115.545 470.099 118.689C473.877 121.446 477.049 124.807 480.73 127.661C484.653 130.708 488.576 133.827 492.087 137.406C494.339 139.704 496.93 141.663 499.328 143.863C501.144 145.532 502.645 147.515 504.607 148.966C508.433 151.819 511.315 155.64 515.044 158.566C517.853 160.767 520.177 163.596 522.672 166.184C524.875 168.457 527.079 170.706 529.162 173.1C531.922 176.268 534.053 179.75 533.787 184.78V184.853Z" fill="#2E706B"/>
<path fill-rule="evenodd" clip-rule="evenodd" d="M271.7 27.2297C274.8 26.746 277.73 26.0205 280.733 26.0689C281.266 26.0689 281.798 25.9964 282.307 26.0689C283.3 26.214 284.196 27.3506 284.123 28.3663C284.05 29.3819 283.154 29.1159 282.549 29.3578C281.532 29.7447 280.515 29.8656 279.449 29.9623C275.187 30.3251 271.289 31.8728 267.293 33.3479C263.298 34.8231 259.689 36.9995 256.154 39.2485C254.313 40.4093 252.328 41.5458 250.899 43.4321C249.495 45.27 247.412 46.5033 245.838 48.2686C243.683 50.7111 241.963 53.3954 240.293 56.1764C239.76 57.0711 239.227 57.8934 238.549 58.7156C237.12 60.4809 236.055 62.5606 235.571 64.8096C234.82 68.3887 233.367 71.7742 232.398 75.2807C232.083 76.4173 232.108 77.5055 231.89 78.6179C231.139 82.2937 230.558 85.9937 229.904 89.6936C229.856 90.0322 229.735 90.4191 229.807 90.7335C230.509 94.2158 230.098 97.7465 230.534 101.229C230.655 102.196 230.8 103.163 230.8 104.131C230.8 105.001 230.752 105.944 229.541 106.09C228.282 106.235 227.265 105.678 226.998 104.469C226.175 100.866 225.424 97.287 225.037 93.5871C224.625 89.742 225.473 86.1388 225.739 82.4146C225.981 79.0532 226.998 75.9095 227.604 72.669C227.991 70.6377 228.669 68.5821 229.541 66.6717C230.146 65.2933 230.679 63.939 230.848 62.4397C230.897 62.1012 230.848 61.6417 231.066 61.424C232.156 60.2149 232.447 58.5705 233.294 57.3372C235.231 54.5803 236.636 51.5333 238.815 48.8974C240.874 46.4308 242.884 43.8432 245.305 41.9086C250.657 37.6766 255.984 33.2995 262.547 30.9055C266.76 29.3819 267.003 29.1159 266.349 24.8356C265.985 22.5141 265.889 20.3618 266.736 18.1612C267.075 17.2664 266.446 16.1782 266.978 15.3076C268.262 13.1312 269.182 10.7613 271.119 8.97174C272.524 7.69005 273.541 5.9489 275.018 4.78813C277.294 2.97442 280.006 1.86202 282.791 1.11236C287.876 -0.266059 293.107 -0.290242 298.265 0.749615C301.728 1.45091 305.215 2.78096 307.636 5.19923C310.155 7.71424 313.182 10.2051 314.005 14.0017C314.78 17.5808 315.773 21.184 314.659 24.9323C314.368 25.9238 314.199 27.0362 314.296 28.0519C314.417 29.2127 315.797 29.0918 316.524 29.648C319.163 31.7035 322.384 32.7433 325.144 34.6054C327.687 36.2982 329.939 38.2812 332.288 40.2158C334.831 42.3197 336.792 44.8347 338.875 47.2772C340.86 49.5987 342.58 52.2104 344.081 54.8947C345.97 58.2561 347.544 61.811 349.118 65.3416C349.723 66.6959 349.99 68.1952 350.426 69.622C351.685 73.9265 353.574 78.0618 353.937 82.5839C354.494 89.5485 354.688 96.489 353.235 103.381C353.089 104.082 352.896 104.759 352.678 105.412C352.339 106.476 351.661 107.081 350.474 106.742C349.36 106.404 348.973 105.654 349.312 104.518C349.723 103.091 350.232 101.398 349.941 100.189C349.53 98.472 349.99 96.9001 349.82 95.2798C349.53 92.523 349.82 89.742 349.021 86.9368C348.44 84.9055 348.464 82.6323 348.149 80.48C347.714 77.4088 346.575 74.6278 345.534 71.7742C344.88 69.9605 344.299 68.1227 343.718 66.3089C342.483 62.343 340.497 58.7398 338.439 55.1849C336.502 51.8477 333.959 48.9458 331.513 45.9471C328.559 42.3681 324.902 39.6838 321.149 37.193C314.296 32.6224 306.813 29.5996 298.483 29.0676C297.369 28.995 296.376 29.2369 295.383 29.527C294.076 29.9381 292.938 29.6238 291.896 28.9225C291.46 28.6323 290.71 28.2454 291 27.5199C291.194 26.9879 291.581 26.4075 292.284 26.3107C293.664 26.0931 295.069 25.7062 296.473 25.7062C299.452 25.7062 302.454 25.4402 305.409 26.3107C306.159 26.5284 306.983 26.5526 307.758 26.6251C308.121 26.6735 308.629 26.6251 308.678 26.2624C308.823 24.7147 310.542 23.6748 309.961 21.8369C309.646 20.8696 309.671 19.7089 309.816 18.6932C310.276 15.4769 308.387 13.0344 306.862 10.7854C303.738 6.16654 298.749 4.30447 293.398 3.55481C288.603 2.87769 283.978 3.91755 280.152 6.77111C276.204 9.69722 272.96 13.4214 271.555 18.3546C271.337 19.201 271.143 20.0958 271.192 20.9422C271.289 22.9493 271.531 24.9565 271.749 27.2539L271.7 27.2297Z" fill="#2E706B"/>
<path fill-rule="evenodd" clip-rule="evenodd" d="M439.249 128.555C440.12 128.701 441.016 128.773 441.84 129.039C445.424 130.2 448.838 131.651 452.01 133.827C455.401 136.125 458.936 138.253 462.423 140.405C464.094 141.445 465.426 142.847 466.903 144.057C470.439 146.91 474.289 149.401 477.679 152.424C480.197 154.673 483.031 156.511 485.404 159.002C486.978 160.646 488.964 162.024 490.659 163.62C491.482 164.418 492.402 165.096 493.153 165.966C496.059 169.352 499.618 172.157 502.258 175.76C504.558 178.88 507.9 181.032 509.837 184.466C510.733 186.062 511.169 187.9 510.273 189.23C509.426 190.463 508.627 191.817 507.537 192.954C506.084 194.478 504.098 195.372 502.863 197.089C501.289 199.29 498.989 200.717 497.342 202.893C495.526 205.311 493.056 207.222 490.804 209.302C490.199 209.834 489.617 210.39 489.206 211.043C487.656 213.509 485.428 215.371 483.273 217.258C480.972 219.289 479.156 221.828 476.904 223.86C474.047 226.423 471.601 229.349 468.743 231.912C465.111 235.153 461.842 238.829 458.379 242.287C456.224 244.415 454.262 246.785 451.962 248.816C450.485 250.122 448.572 251.404 447.845 253.483C447.506 254.475 446.513 254.862 445.908 255.491C444.14 257.328 442.857 259.553 440.92 261.222C439.854 262.165 437.287 262.189 436.415 261.222C435.713 260.472 436.052 259.723 436.585 259.094C437.699 257.74 438.692 256.216 440.024 255.104C442.469 253.072 444.189 250.412 446.417 248.163C450.679 243.859 454.359 238.974 458.863 234.959C462.714 231.525 466.007 227.535 470.075 224.319C472.448 222.457 474.24 219.869 476.371 217.669C479.786 214.162 483.491 210.922 486.615 207.222C490.005 203.232 494.194 200.04 497.366 195.832C497.609 195.493 497.996 195.251 498.359 194.985C498.577 194.84 498.844 194.744 499.062 194.623C499.861 194.163 504.704 188.94 505.067 188.142C505.818 186.546 505.624 185.627 504.171 184.49C503.905 184.272 503.42 184.152 503.323 183.886C502.258 181.032 499.401 179.774 497.705 177.477C495.114 173.922 491.845 171.02 488.721 167.949C484.968 164.249 480.948 160.864 477.098 157.285C474.749 155.084 472.206 152.98 469.567 151.166C464.118 147.37 459.324 142.702 453.512 139.51C450.509 137.866 447.797 135.786 444.794 134.166C444.407 133.948 444.043 133.706 443.632 133.561C438.885 132.038 439.878 131.869 436.464 135.012C434.43 136.923 431.96 138.325 430.192 140.55C429.708 141.13 429.199 141.59 428.836 142.34C428.134 143.815 426.439 144.468 425.228 145.532C421.402 148.821 417.866 152.4 414.161 155.809C410.771 158.953 407.599 162.315 404.209 165.434C402.61 166.909 400.915 168.215 399.099 169.448C397.186 170.73 395.709 172.737 394.207 174.551C392.827 176.22 391.205 177.525 389.485 178.759C388.323 179.605 387.33 180.524 386.483 181.661C385.466 183.063 382.778 183.136 381.615 181.854C381.01 181.201 380.937 180.5 381.688 179.799C382.657 178.904 383.407 177.743 384.497 177.066C388.275 174.672 390.696 170.851 394.135 168.118C397.816 165.192 401.278 161.976 404.523 158.542C408.592 154.213 413.241 150.513 417.382 146.257C419.271 144.323 421.402 142.606 423.605 141.082C424.743 140.308 425.785 139.51 426.245 138.277C426.753 136.802 428.255 136.657 429.151 135.714C430.652 134.166 432.202 132.667 433.824 131.264C434.817 130.418 435.98 129.765 437.118 129.087C437.699 128.725 438.377 128.41 439.128 128.555H439.249Z" fill="#2E706B"/>
<path fill-rule="evenodd" clip-rule="evenodd" d="M133.114 46.7937C134.736 46.5519 135.947 47.2048 136.891 48.3656C141.153 53.6132 146.069 58.2805 150.258 63.6491C152.341 66.3333 154.544 68.9693 156.821 71.5085C159.92 74.9666 159.872 75.9097 156.724 79.4646C154.423 82.1005 152.196 84.8089 149.314 86.8645C146.408 88.9442 143.575 91.0964 140.645 93.1278C139.385 94.0226 136.794 93.3938 135.559 92.4023C132 89.5488 129.505 85.7037 126.236 82.5841C122.604 79.126 119.553 75.1359 115.969 71.6294C114.322 70.0091 113.281 67.9778 111.997 66.0915C111.489 65.3419 111.78 64.7615 112.312 64.2053C114.007 62.4399 115.606 60.5779 117.398 58.9576C121.684 55.1126 126.091 51.3643 130.45 47.5917C131.201 46.9388 132.072 46.5035 133.065 46.7695L133.114 46.7937Z" fill="#9CD7ED"/>
<path fill-rule="evenodd" clip-rule="evenodd" d="M163.48 298.609C163.65 295.054 163.868 291.499 164.449 287.968C165.272 282.938 166.701 278.077 168.13 273.192C169.219 269.42 170.357 265.72 171.98 262.117C172.876 260.11 173.602 257.909 173.82 255.612C173.917 254.596 174.28 253.508 174.837 252.661C176.46 250.195 176.799 247.269 177.695 244.56C178.93 240.884 180.48 237.378 181.811 233.75C182.344 232.3 183.071 230.849 183.628 229.373C184.088 228.14 184.499 226.883 185.444 225.891C185.686 225.649 185.976 225.335 186.001 225.021C186.364 221.393 188.737 218.66 190.093 215.468C191.256 212.76 193.047 210.414 194.476 207.851C195.76 205.505 197.116 203.232 198.932 201.225C199.15 200.959 199.271 200.62 199.44 200.306C199.658 199.919 199.779 199.459 200.07 199.145C202.007 197.186 203.073 194.526 205.155 192.688C206.39 191.6 207.214 190.173 208.352 188.988C211.185 186.038 214.527 183.716 217.505 180.935C219.467 179.098 221.767 177.598 223.438 175.446C224.092 174.624 225.036 174.092 226.005 173.632C228.863 172.254 231.599 170.682 234.481 169.304C237.508 167.877 240.51 166.498 243.707 165.579C246.153 164.878 248.647 164.322 251.068 163.596C251.867 163.355 252.618 163.403 253.417 163.355C254.555 163.282 254.967 164.008 255.137 164.951C255.306 165.845 254.725 166.184 254.023 166.498C252.981 166.982 251.843 167.49 250.802 167.635C248.162 168.022 245.91 169.666 243.247 169.908C240.68 170.15 238.791 171.891 236.539 172.907C233.899 174.068 231.429 175.519 228.984 177.066C228.088 177.622 227.289 178.324 226.514 179.049C225.545 179.944 224.528 180.815 223.366 181.419C222.397 181.927 221.622 182.604 220.968 183.45C219.903 184.853 218.498 185.917 217.166 187.078C215.326 188.674 213.8 190.584 212.033 192.277C209.538 194.623 207.964 197.718 205.567 200.137C204.526 201.176 203.969 202.652 203.024 203.788C198.69 208.915 196.244 215.13 193.193 220.982C191.086 225.021 189.028 229.156 187.89 233.726C186.969 237.402 185.008 240.812 183.385 244.27C182.029 247.22 181.376 250.412 180.213 253.411C179.269 255.878 178.615 258.441 177.477 260.859C176.823 262.286 176.653 264.003 176.096 265.575C174.474 270.291 173.312 275.151 171.399 279.77C171.665 282.624 170.285 285.187 169.776 287.92C169.001 291.982 169.195 296.021 168.929 300.084C168.759 302.768 169.534 305.38 170.89 307.604C172.052 309.515 172.9 311.619 174.522 313.336C175.83 314.714 176.799 316.334 178.542 317.374C180.673 318.632 182.175 320.736 184.354 322.09C186.897 323.686 189.827 324.46 192.321 326.08C196.389 328.692 200.966 330.288 205.228 332.561C209.006 334.592 213.098 335.971 217.263 337.059C219.709 337.712 222.155 338.462 224.576 339.187C225.061 339.332 225.545 339.622 225.957 339.961C226.61 340.469 227.046 341.218 226.853 342.041C226.635 342.96 225.642 343.129 224.915 343.105C223.608 343.105 222.155 343.081 221.041 342.524C218.304 341.17 215.374 340.614 212.468 339.888C211.863 339.743 211.306 339.501 210.749 339.26C205.034 337.035 199.586 334.254 194.113 331.545C189.149 329.103 184.209 326.66 179.39 323.928C178.227 323.275 177.162 322.549 176.726 321.244C176.557 320.76 176.29 320.446 175.903 320.3C173.457 319.406 171.931 317.326 170.285 315.585C168.275 313.433 166.507 310.966 165.635 308.064C164.715 304.969 163.311 301.97 163.48 298.633V298.609Z" fill="#2E706B"/>
<path fill-rule="evenodd" clip-rule="evenodd" d="M249.325 174.527C249.349 173.801 249.373 173.028 249.446 172.23C249.518 171.528 249.64 170.827 250.56 170.682C251.553 170.537 252.037 171.069 252.352 171.891C252.642 172.641 253.054 173.39 253.102 174.14C253.272 177.501 254.434 180.694 254.991 183.982C255.597 187.586 256.323 191.189 257.098 194.768C257.897 198.444 258.793 202.119 259.834 205.771C260.876 209.398 261.796 213.05 262.595 216.726C263.636 221.466 265.549 225.915 266.93 230.558C268.649 236.435 271.409 241.924 274.122 247.365C276.349 251.863 278.771 256.337 282.282 260.206C285.406 263.64 288.021 267.509 291.145 270.968C291.266 271.088 291.339 271.258 291.46 271.403C294.124 274.281 294.511 274.281 296.4 270.895C296.957 269.904 298.071 269.686 298.652 268.743C300.638 265.502 302.551 262.213 304.876 259.239C306.207 257.522 306.813 255.418 308.363 253.846C309.21 253 309.162 251.621 309.767 250.509C312.164 246.059 314.344 241.513 316.596 236.991C316.741 236.701 316.741 236.314 316.814 235.975C317.177 234.548 317.177 232.977 318.582 232.009C318.751 231.888 318.848 231.55 318.872 231.284C319.163 227.85 321.439 224.972 321.584 221.49C321.584 221.32 321.584 221.079 321.706 220.982C323.449 219.289 323.013 216.919 323.522 214.864C324.054 212.76 324.902 210.704 325.556 208.697C326.67 205.287 326.839 201.684 328.244 198.347C328.825 196.944 328.704 195.251 328.873 193.68C329.14 191.237 329.455 188.819 329.939 186.401C330.568 183.257 330.568 179.968 330.932 176.752C331.222 174.261 331.464 171.722 332.675 169.424C332.869 169.062 333.063 168.602 333.62 168.699C334.007 168.771 334.152 169.134 334.298 169.449C334.395 169.69 334.54 169.932 334.588 170.198C335.315 174.914 336.404 179.581 335.291 184.442C334.661 187.126 334.685 189.955 334.177 192.688C333.135 198.299 332.288 203.957 330.641 209.447C329.915 211.865 329.14 214.283 328.534 216.774C327.784 219.749 326.428 222.578 325.556 225.552C324.805 228.116 323.643 230.51 323.207 233.194C322.989 234.597 322.117 235.878 321.512 237.208C321.366 237.523 320.979 237.765 320.906 238.079C320.204 242.65 317.177 246.229 315.482 250.388C314.586 252.589 313.254 254.693 312.092 256.821C309.767 261.004 306.837 264.777 304.343 268.839C302.938 271.161 301.437 273.676 299.379 275.49C296.352 278.174 293.276 278.706 289.281 275.296C288.07 274.281 287.174 272.926 286.036 271.814C282.161 267.993 278.965 263.592 275.599 259.336C274.146 257.498 273.08 255.37 271.773 253.387C268.722 248.744 266.784 243.569 264.556 238.539C263.297 235.685 262.28 232.662 261.408 229.615C260.779 227.39 259.931 225.166 259.205 222.965C258.575 221.079 257.728 219.241 257.316 217.258C255.96 210.728 254.289 204.296 252.691 197.839C251.892 194.599 251.383 191.286 251.214 187.948C251.165 186.86 250.705 185.893 250.511 184.877C249.833 181.492 249.712 178.058 249.349 174.575L249.325 174.527Z" fill="#2E706B"/>
<path fill-rule="evenodd" clip-rule="evenodd" d="M277.585 174.454C280.224 178.638 283.203 182.459 286.835 185.82C288.119 186.981 288.99 188.601 290.177 189.883C293.373 193.341 294.996 193.196 298.338 190.004C301.776 186.715 303.738 182.604 305.723 178.42C306.402 176.994 307.322 175.688 307.249 173.971C306.619 173.39 305.772 173.632 305.045 173.366C303.859 172.955 303.544 171.746 304.561 170.972C305.336 170.416 306.256 169.956 307.176 169.715C308.581 169.328 309.719 168.53 310.881 167.732C315.87 164.273 320.422 160.283 324.491 155.785C327.082 152.908 329.019 149.546 330.69 146.064C332.046 143.21 333.402 140.357 334.685 137.455C335.242 136.173 335.775 134.819 336.017 133.465C336.332 131.699 337.398 130.273 337.93 128.604C338.366 127.298 340.449 126.355 341.369 126.718C342.338 127.08 343.04 128.991 342.58 130.466C342.071 132.135 341.393 133.779 340.788 135.423C340.618 135.835 340.449 136.246 340.57 136.778C341.369 137.237 342.313 137.14 343.016 136.681C345.752 134.964 348.585 133.32 350.523 130.635C353.719 126.161 354.542 121.228 353.307 115.908C352.944 114.385 352.46 114.022 350.91 114.143C349.869 114.239 348.827 114.505 347.786 114.53C347.108 114.53 346.309 114.36 346.018 113.611C345.728 112.885 346.115 112.232 346.672 111.724C346.987 111.434 347.326 111.12 347.689 110.878C349.796 109.5 354.881 110.443 356.794 112.087C359.846 114.747 359.386 118.254 359.458 121.567C359.555 125.388 356.988 128.41 355.898 131.917C352.532 135.399 349.021 138.688 344.251 140.236C342.943 140.647 341.635 140.744 340.328 140.526C338.923 140.308 338.245 141.01 337.761 142.219C336.526 145.266 335.242 148.313 333.911 151.336C333.596 152.037 332.99 152.617 332.458 153.198C331.586 154.189 330.714 155.157 330.254 156.438C329.842 157.647 328.68 158.252 327.76 159.026C325.532 160.936 324.055 163.669 321.197 164.975C320.156 165.458 319.502 166.668 318.582 167.466C317.517 168.385 316.475 169.4 315.24 170.005C313.763 170.706 313.206 171.843 312.94 173.245C312.02 177.767 309.646 181.588 307.515 185.603C305.409 189.569 302.091 192.132 299.016 195.058C297.296 196.678 295.02 196.485 292.962 196.993C292.284 197.162 291.872 196.557 291.509 196.05C290.758 195.01 289.79 194.333 288.579 193.897C286.763 193.22 285.77 191.527 284.51 190.197C281.774 187.32 279.207 184.297 276.64 181.274C274.461 178.735 272.645 175.93 270.998 173.003C270.272 171.698 269.497 170.392 267.971 169.835C267.656 169.715 267.366 169.473 267.099 169.231C263.249 165.749 259.157 162.556 255.5 158.808C253.321 156.583 251.795 153.947 250.003 151.529C248.211 149.159 247.388 146.088 246.104 143.331C244.288 139.438 242.738 135.448 241.334 131.409C240.898 130.127 240.583 128.942 241.31 127.612C241.842 126.645 242.496 126.331 243.465 126.742C244.361 127.105 245.378 127.516 245.644 128.507C246.104 130.224 247.194 131.627 247.533 133.392C248.308 137.237 250.487 140.526 252.037 144.057C253.418 147.176 254.967 150.223 257.026 153.004C258.6 155.132 260.319 157.067 262.208 158.905C265.283 161.928 268.625 164.588 272.015 167.224C274.485 169.158 277.367 169.787 280.176 170.706C283.881 171.915 287.634 171.77 291.436 171.601C293.059 171.528 293.712 172.036 293.809 173.269C293.906 174.696 292.841 175.059 291.775 175.204C287.901 175.712 284.026 175.397 280.224 174.527C279.377 174.333 278.553 174.043 277.609 174.382L277.585 174.454Z" fill="#2E706B"/>
<path fill-rule="evenodd" clip-rule="evenodd" d="M5.2789 177.405C7.74891 177.719 9.34714 179.339 11.018 180.718C14.6504 183.765 18.5733 186.401 22.2541 189.351C24.6999 191.31 27.3152 193.099 29.6641 195.203C32.788 197.984 36.3235 200.33 39.641 202.893C44.2178 206.4 48.8914 209.809 53.3713 213.485C59.2557 218.346 65.4065 222.844 71.412 227.511C76.4247 231.429 81.4131 235.395 86.6195 239.095C89.0169 240.812 91.1236 242.94 93.4725 244.729C98.1704 248.26 102.892 251.766 107.493 255.442C109.673 257.183 111.949 258.779 114.056 260.593C117.228 263.35 120.788 265.647 124.13 268.259C129.481 272.443 134.615 276.868 140.088 280.834C144.834 284.292 149.217 288.21 154.06 291.547C155.198 292.345 156.022 293.554 157.354 294.159C158.274 294.57 158.589 295.489 158.25 296.384C157.911 297.327 157.015 297.133 156.215 297.182C153.479 297.399 152.05 295.174 150.162 293.941C146.335 291.45 143.187 288.113 139.458 285.526C136.94 283.809 134.542 281.898 132.242 279.988C128.949 277.231 125.05 275.175 122.192 271.911C121.175 270.774 119.65 270.435 118.487 269.492C115.364 267.002 112.191 264.583 109.092 262.068C106.331 259.843 103.304 257.885 100.592 255.587C97.2502 252.758 93.6663 250.195 90.2276 247.462C84.658 243.012 79.0642 238.538 73.204 234.452C69.838 232.082 66.6657 229.446 63.3966 226.931C58.4082 223.062 53.3471 219.289 48.4313 215.347C44.9685 212.566 41.4572 209.858 37.9943 207.077C36.3961 205.795 34.9189 204.223 32.9575 203.377C32.6427 203.232 32.3279 203.038 32.0615 202.796C25.2569 196.823 17.7984 191.721 10.7517 186.038C8.13636 183.934 5.18204 182.144 3.07527 179.412C2.63939 178.856 1.8887 178.735 1.23488 178.493C-0.218065 177.937 -0.290712 176.921 0.459975 175.615C3.05106 171.117 6.61077 167.345 9.78303 163.282C11.6719 160.888 13.706 158.59 15.837 156.39C17.193 154.963 18.1132 153.319 19.1787 151.698C20.4622 149.74 21.9877 147.926 23.4891 146.088C24.0461 145.411 26.4919 145.29 27.2426 145.774C27.9448 146.233 27.9932 147.031 27.7995 147.66C27.5816 148.385 27.2183 149.183 26.6372 149.667C25.8138 150.368 25.4264 151.408 24.7726 152.061C22.9322 153.875 22.2783 156.438 20.3411 158.204C19.1545 159.292 17.8469 160.622 17.2657 162.315C17.193 162.556 17.0235 162.847 16.8056 162.943C15.1589 163.814 14.5777 165.652 13.2701 166.764C11.1149 168.602 9.66195 171.02 7.70047 173.003C6.58655 174.14 5.98116 175.639 5.20626 177.38L5.2789 177.405Z" fill="#2E706B"/>
<path fill-rule="evenodd" clip-rule="evenodd" d="M250.027 95.8364C249.954 100.093 248.162 103.913 246.903 107.879C246.128 110.394 244.578 112.498 243.561 114.868C242.932 116.343 241.527 117.238 239.687 117.141C237.483 117.045 236.708 115.956 237.871 114.07C239.033 112.208 239.856 110.177 240.898 108.266C242.665 105.002 243.416 101.374 244.118 97.771C245.039 93.0796 244.869 93.0312 249.446 92.2815C253.538 91.6044 257.631 90.9273 261.554 89.6456C265.622 88.3398 269.617 86.8404 273.54 85.1235C275.502 84.2529 277.488 83.3823 279.497 82.6085C281.58 81.8104 283.469 80.4562 285.479 79.3922C288.409 77.8445 291.436 76.3935 294.221 74.5798C297.441 72.4759 300.468 70.0576 302.963 67.0832C303.374 66.5995 303.81 66.1884 304.343 65.874C305.844 64.9551 307.031 64.9793 308.096 66.3819C309.961 68.8001 312.261 70.904 313.908 73.5158C317.516 79.2229 322.335 83.6483 327.759 87.6143C329.89 89.162 332.385 89.9358 334.419 91.6286C335.266 92.3541 336.114 92.9587 336.186 93.9743C336.501 98.0128 339.117 101.036 340.739 104.494C341.562 106.235 342.894 107.71 343.33 109.645C343.79 111.797 343.403 112.184 341.272 111.918C339.698 111.724 338.608 110.902 337.954 109.596C336.647 106.985 335 104.566 333.789 101.858C332.748 99.488 331.295 97.2874 330.811 94.6514C330.69 93.9985 330.06 93.66 329.479 93.4423C327.251 92.5959 325.12 91.677 323.667 89.5973C323.352 89.1378 322.65 88.896 322.069 88.7025C321.391 88.4607 320.785 88.1221 320.253 87.6385C318.146 85.6797 316.039 83.745 313.908 81.7862C312.721 80.7222 311.898 79.368 311.099 78.0137C309.67 75.5955 307.224 73.951 306.207 71.2426C298.023 77.8686 289.087 82.9954 279.546 87.1306C270.053 91.2417 260.416 94.8207 249.93 95.7639L250.027 95.8364Z" fill="#2E706B"/>
<path fill-rule="evenodd" clip-rule="evenodd" d="M253.151 310.047C257.098 310.095 260.731 311.087 264.072 313.336C266.809 315.173 269.69 316.745 272.136 319.091C274.34 321.219 276.011 323.613 277.173 326.346C278.239 328.837 279.231 331.448 280.515 333.746C282.161 336.696 282.549 339.816 283.469 342.887C283.905 344.362 283.857 345.861 283.711 347.336C283.542 348.86 282.864 350.214 281.338 350.916C280.176 351.448 279.207 352.173 278.723 353.382C278.239 354.543 277.27 354.809 276.18 354.978C274.025 355.317 272.039 354.253 270.029 354.156C268.116 354.059 266.106 355.051 264.072 354.64C263.297 354.495 262.571 354.18 261.845 353.866C260.997 353.503 260.222 353.455 259.302 353.769C256.493 354.688 253.805 354.156 251.165 353.019C248.453 351.883 246.25 350.045 244.337 347.844C243.755 347.191 243.15 346.538 242.52 345.934C241.092 344.58 239.542 343.564 237.387 343.757C236.176 343.854 234.917 343.395 233.706 343.443C232.18 343.491 231.212 342.572 230.243 341.75C229.178 340.856 229.517 339.767 230.873 339.525C231.793 339.356 232.713 339.187 233.73 339.477C235.498 340.033 237.338 340.203 239.227 340.13C241.818 340.033 244.094 340.904 245.789 342.911C247.509 344.942 249.809 346.321 251.504 348.376C252.449 349.513 254.047 349.9 255.452 350.456C256.081 350.698 256.687 350.456 257.122 349.972C257.558 349.489 257.244 348.981 256.977 348.521C255.887 346.514 254.047 344.991 253.272 342.766C253.151 342.452 252.836 342.186 252.691 341.895C252.4 341.291 252.376 340.662 252.933 340.203C253.393 339.816 253.926 340.009 254.41 340.299C256.396 341.533 257.946 343.177 259.253 345.112C260.488 346.95 261.772 348.715 263.055 350.529C263.297 350.891 263.54 351.375 263.903 351.52C264.75 351.883 265.719 352.487 266.615 351.907C267.414 351.399 266.978 350.408 266.833 349.682C266.591 348.376 266.058 347.167 265.38 346.031C263.854 343.467 262.498 340.807 260.682 338.413C259.665 337.059 259.157 335.439 258.672 333.843C258.406 332.972 258.914 332.706 259.641 332.778C260.658 332.899 261.409 333.407 262.038 334.254C264.169 337.252 266.421 340.154 268.48 343.201C270.005 345.45 271.289 347.82 271.216 350.698C271.192 351.931 272.233 352.608 273.613 352.318C274.8 352.052 274.606 351.133 274.485 350.214C273.952 346.418 272.185 343.104 270.562 339.719C269.351 337.18 268.092 334.689 266.712 332.222C266.373 331.618 265.646 330.747 266.591 330.167C267.511 329.586 268.383 329.925 269.109 330.844C270.707 332.851 272.088 335.003 273.202 337.252C274.776 340.493 276.907 343.443 278.166 346.829C278.263 347.07 278.384 347.312 278.578 347.506C278.747 347.675 278.989 347.869 279.207 347.869C279.619 347.869 279.788 347.53 279.788 347.143C279.813 345.74 279.667 344.362 279.183 343.008C277.851 339.09 275.962 335.463 274.098 331.787C273.274 330.191 272.475 328.522 271.797 326.83C270.151 322.646 266.663 320.203 263.273 317.737C261.966 316.77 260.44 315.971 258.987 315.173C256.662 313.916 254.071 313.384 251.408 313.19C250.972 313.166 250.512 313.19 250.1 313.118C248.986 312.9 248.72 312.368 249.373 311.474C250.051 310.555 250.729 309.563 252.182 310.047C252.497 310.143 252.885 310.095 253.224 310.119L253.151 310.047Z" fill="#2E706B"/>
<path fill-rule="evenodd" clip-rule="evenodd" d="M444.818 117.093C445.521 117.02 446.199 117.359 446.732 117.746C449.71 119.922 452.955 121.664 455.909 123.913C459.057 126.331 462.012 129.039 465.499 131.095C467.969 132.546 469.954 134.771 472.4 136.246C474.87 137.745 476.42 140.429 479.277 141.348C479.52 141.421 479.738 141.638 479.907 141.832C482.498 144.782 485.404 147.394 488.431 149.812C490.078 151.118 491.167 152.98 493.105 153.972C493.783 154.31 494.388 154.939 494.848 155.544C496.592 157.889 498.965 159.582 501.023 161.589C503.299 163.79 505.479 166.063 507.707 168.312C511.218 171.867 514.414 175.688 517.587 179.509C518.58 180.718 519.185 182.193 520.42 183.257C520.759 183.547 520.832 184.224 520.904 184.732C521.098 186.086 520.468 186.618 519.282 186.038C517.708 185.264 516.085 184.514 514.899 183.136C512.768 180.694 510.685 178.179 508.578 175.736C507.029 173.947 505.527 172.133 503.638 170.658C502.815 170.005 502.113 169.207 501.556 168.288C500.418 166.377 498.771 164.926 496.931 163.79C496.011 163.234 495.865 162.266 495.09 161.638C492.112 159.171 489.545 156.221 486.615 153.778C484.121 151.723 482.159 149.087 479.302 147.442C477.316 146.306 475.96 144.371 474.216 142.92C470.366 139.704 466.37 136.705 462.278 133.852C459.154 131.651 455.885 129.571 452.907 127.153C449.758 124.614 446.102 122.752 443.196 119.874C442.736 119.415 441.767 119.1 442.009 118.302C442.252 117.504 443.196 117.359 443.947 117.19C444.213 117.117 444.479 117.093 444.794 117.045L444.818 117.093Z" fill="#2E706B"/>
<path fill-rule="evenodd" clip-rule="evenodd" d="M378.903 374.397C378.637 371.326 377.692 368.642 376.869 365.933C376.312 363.998 375.198 362.281 374.908 360.226C374.762 359.138 373.794 358.17 373.624 357.082C373.164 354.011 371.469 351.448 370.355 348.642C370.113 348.062 369.919 347.482 369.75 346.877C369.556 346.055 369.846 345.571 370.742 345.378C372.922 344.918 374.399 345.474 375.271 347.506C376.893 351.375 378.734 355.22 379.751 359.234C380.55 362.378 381.979 365.232 382.753 368.327C383.383 370.866 383.916 373.454 384.449 376.017C384.642 376.912 384.279 377.565 383.262 377.71C382.56 377.807 381.857 378.073 381.179 377.976C377.935 377.541 374.665 377.952 371.396 377.783C367.352 377.589 363.284 377.783 359.24 377.783C357.569 377.783 355.922 377.783 354.252 377.783C344.299 377.783 334.346 377.734 324.394 377.831C320.979 377.855 317.565 377.903 314.15 377.565C313.182 377.468 312.31 377.468 312.213 376.307C312.116 374.977 313.206 374.736 314.175 374.663C316.015 374.494 317.88 374.47 319.72 374.421C328.171 374.252 336.623 374.494 345.074 374.421C352.121 374.349 359.167 374.47 366.19 374.421C370.355 374.421 374.52 374.421 378.903 374.421V374.397Z" fill="#2E706B"/>
<path fill-rule="evenodd" clip-rule="evenodd" d="M469.906 171.335C471.286 168.892 473.078 166.982 474.749 164.951C475.887 163.548 477.51 162.992 478.963 163.548C479.907 163.911 480.513 164.54 479.98 165.579C479.374 166.74 479.084 168.191 477.921 168.917C476.008 170.102 475.306 172.181 473.998 173.802C473.393 174.551 473.708 175.083 474.241 175.615C475.548 176.945 476.929 178.154 478.212 179.484C480.851 182.241 483.661 184.829 486.373 187.537C487.995 189.133 488.794 191.382 490.61 192.858C491.361 193.486 491.482 194.623 491.046 195.566C490.635 196.412 489.618 196.171 488.891 196.243C487.826 196.364 486.688 195.977 486.106 195.058C482.256 188.892 476.929 184.007 471.674 179.146C468.816 176.534 466.031 173.898 463.271 171.19C461.455 169.424 459.203 168.119 457.265 166.474C452.882 162.798 448.645 158.929 443.753 155.931C440.121 153.682 436.948 150.683 432.929 149.014C432.347 148.772 431.815 148.482 431.476 147.926C430.725 146.741 431.209 145.677 432.614 145.435C433.8 145.242 434.842 145.629 435.931 146.064C439.079 147.321 441.501 149.667 444.31 151.433C447.845 153.682 451.236 156.172 454.553 158.784C457.12 160.791 459.469 163.04 462.084 164.975C464.7 166.885 466.952 169.279 469.93 171.335H469.906Z" fill="#9CD7ED"/>
<path fill-rule="evenodd" clip-rule="evenodd" d="M424.09 210.873C425.446 208.939 427.093 207.464 428.643 205.892C429.708 204.804 431.113 204.465 432.275 205.045C433.05 205.432 433.51 206.013 432.977 206.835C432.372 207.754 432.033 208.939 430.991 209.471C429.296 210.317 428.546 212.01 427.311 213.243C426.729 213.824 426.972 214.283 427.383 214.791C428.376 216 429.442 217.113 430.41 218.346C432.42 220.861 434.551 223.255 436.609 225.722C437.844 227.197 438.329 229.131 439.758 230.51C440.339 231.09 440.363 232.058 439.903 232.807C439.491 233.484 438.668 233.194 438.038 233.194C437.142 233.194 436.198 232.807 435.786 231.985C433.05 226.495 428.982 221.997 424.938 217.524C422.758 215.105 420.627 212.663 418.52 210.196C417.14 208.576 415.348 207.294 413.847 205.771C410.481 202.337 407.212 198.782 403.361 195.856C400.48 193.68 398.082 190.923 394.837 189.206C394.377 188.964 393.941 188.674 393.699 188.19C393.166 187.15 393.675 186.28 394.862 186.207C395.879 186.135 396.726 186.546 397.598 187.005C400.141 188.311 401.981 190.463 404.209 192.18C406.994 194.332 409.633 196.702 412.224 199.145C414.21 201.031 416.002 203.111 418.036 204.925C420.07 206.738 421.765 208.915 424.09 210.873V210.873Z" fill="#9CD7ED"/>
<path fill-rule="evenodd" clip-rule="evenodd" d="M592.777 122.099C591.469 121.954 590.161 121.833 588.854 121.664C587.595 121.494 586.699 120.914 585.875 119.777C583.042 115.763 581.589 111.265 580.62 106.549C580.257 104.832 579.603 103.212 579.143 101.519C578.707 99.8991 578.586 98.2547 578.393 96.6103C578.126 94.6031 579.337 92.9587 580.62 91.6286C582.267 89.9117 587.038 89.4764 589.023 90.879C591.082 92.3299 592.825 94.0711 593.576 96.7554C594.762 101.036 596.24 105.244 597.741 109.427C598.685 112.111 598.782 114.917 599.049 117.698C599.17 119.052 595.828 121.833 594.157 122.026C593.721 122.075 593.261 122.026 592.825 122.026C592.825 122.026 592.825 122.075 592.825 122.099H592.777ZM585.56 105.026C586.529 104.687 587.352 104.397 588.152 104.107C590.089 103.406 590.452 103.236 589.701 101.544C588.83 99.5848 588.612 97.4325 587.546 95.5946C587.207 94.99 586.771 94.4822 586.19 94.0227C585.27 93.3214 584.568 93.6358 584.35 94.4822C583.938 96.0783 583.26 97.6743 583.817 99.3913C584.398 101.229 584.955 103.067 585.56 105.026V105.026ZM593.745 114.796C593.043 112.909 592.97 110.757 591.953 108.871C591.203 107.444 590.791 107.202 589.411 107.928C588.805 108.242 588.248 108.726 587.716 109.137C586.844 109.814 586.674 110.54 587.134 111.628C587.813 113.248 588.781 114.675 589.314 116.392C589.653 117.504 590.718 118.762 591.978 118.592C593.14 118.447 593.334 117.02 593.479 115.884C593.527 115.545 593.648 115.207 593.77 114.796H593.745Z" fill="#2E706B"/>
<path fill-rule="evenodd" clip-rule="evenodd" d="M150.646 213.268C149.435 213.268 148.902 212.47 149.459 211.381C150.186 210.027 151.275 208.963 152.462 208.068C157.281 204.368 161.737 200.257 166.434 196.388C169.946 193.486 173.287 190.343 176.871 187.537C183.507 182.314 189.875 176.8 196.317 171.335C200.264 167.973 204.284 164.709 208.328 161.444C210.894 159.364 213.219 156.922 215.859 154.891C218.716 152.714 221.21 150.102 224.334 148.24C224.722 148.023 225.036 147.66 225.424 147.491C226.15 147.152 226.804 147.442 227.337 147.999C227.894 148.579 227.579 149.208 227.24 149.691C226.296 150.997 224.964 151.892 223.753 152.859C215.617 159.413 207.698 166.257 199.731 173.028C195.784 176.389 191.691 179.581 187.72 182.918C182.877 186.981 178.082 191.141 173.263 195.227C171.665 196.582 169.97 197.863 168.347 199.218C165.175 201.878 162.051 204.562 158.903 207.222C156.893 208.939 154.884 210.632 152.849 212.325C152.22 212.832 151.542 213.219 150.718 213.268H150.646Z" fill="#2E706B"/>
<path fill-rule="evenodd" clip-rule="evenodd" d="M153.407 116.851C153.261 117.722 152.801 118.447 152.051 118.979C147.619 122.026 143.914 125.968 139.749 129.354C131.83 135.81 124.033 142.388 116.211 148.966C110.908 153.44 105.75 158.107 100.326 162.436C97.6378 164.564 95.0709 166.813 92.3588 168.916C91.3175 169.715 90.2762 170.488 89.5982 171.673C89.2107 172.375 88.5811 172.882 87.6367 172.762C85.6994 172.496 85.1183 171.238 86.3048 169.642C87.5883 167.901 89.5013 166.885 91.1238 165.531C97.1293 160.453 103.111 155.35 109.14 150.296C115.412 145.048 121.757 139.897 128.029 134.65C134.01 129.62 139.918 124.517 145.9 119.511C147.571 118.109 149.145 116.537 151.106 115.497C151.954 115.062 153.358 115.86 153.431 116.827L153.407 116.851Z" fill="#2E706B"/>
<path fill-rule="evenodd" clip-rule="evenodd" d="M131.467 166.571C131.394 166.014 131.467 165.555 132.072 165.071C135.342 162.387 138.538 159.654 141.759 156.898C144.156 154.842 146.505 152.738 148.951 150.731C151.929 148.313 154.956 145.919 158.032 143.621C158.879 142.993 159.63 142.243 160.381 141.517C163.916 138.059 168.009 135.278 171.471 131.772C172.246 130.998 173.263 130.659 174.063 129.982C178.542 126.161 183.022 122.365 187.502 118.568C189.851 116.585 192.079 114.433 194.67 112.74C195.106 112.45 195.445 112.014 196.002 111.918C196.753 111.773 197.576 111.289 198.157 112.184C198.642 112.933 198.036 113.514 197.697 114.094C197.261 114.868 196.632 115.497 195.954 116.053C192.297 119.076 188.64 122.099 184.984 125.122C179.511 129.644 174.135 134.335 168.614 138.809C164.885 141.832 161.301 145.121 157.572 148.168C154.375 150.779 151.372 153.609 148.055 156.1C144.059 159.098 140.403 162.556 136.577 165.797C135.656 166.595 134.712 167.32 133.574 167.852C131.806 168.65 131.467 168.529 131.443 166.595L131.467 166.571Z" fill="#2E706B"/>
<path fill-rule="evenodd" clip-rule="evenodd" d="M328.534 173.003C327.856 176.558 328.074 180.331 326.064 183.571C325.459 184.563 325.846 185.603 325.58 186.642C324.176 191.842 321.875 196.63 319.454 201.37C318.194 203.861 316.935 206.351 315.313 208.625C313.182 211.599 311.68 212.107 308.121 211.357C305.142 210.728 302.745 209.278 300.735 207.077C299.911 206.158 298.967 205.36 298.023 204.586C297.441 204.102 297.078 203.546 296.957 202.821C296.812 201.95 296.57 200.934 297.514 200.475C298.289 200.088 299.233 200.185 299.984 200.814C301.8 202.313 303.616 203.812 305.433 205.336C305.893 205.723 306.329 206.182 306.837 206.545C309.186 208.286 310.808 207.899 311.874 205.142C312.649 203.111 313.981 201.442 315.022 199.58C316.184 197.549 317.008 195.276 317.758 193.027C319.139 188.988 320.737 185.046 321.706 180.863C322.069 179.291 322.359 177.719 322.674 176.123C323.086 173.995 323.715 171.915 324.345 169.836C324.515 169.279 324.951 168.723 325.411 168.36C326.5 167.538 327.905 168.022 328.389 169.303C328.849 170.513 328.51 171.746 328.559 172.979L328.534 173.003Z" fill="#2E706B"/>
<path fill-rule="evenodd" clip-rule="evenodd" d="M256.614 173.874C256.686 173.39 256.711 172.834 256.88 172.375C257.582 170.537 259.035 170.319 260.198 171.891C260.658 172.52 260.997 173.269 261.191 174.019C262.716 180.476 265.598 186.328 268.625 192.18C270.126 195.106 271.967 197.863 273.226 200.983C274.146 203.208 276.325 204.949 278.069 206.787C278.989 207.73 279.643 207.536 280.369 206.4C281.919 203.957 284.22 202.119 285.891 199.749C286.23 199.266 286.811 198.903 287.319 198.589C288.118 198.081 288.99 198.008 289.789 198.637C290.516 199.217 290.516 200.015 290.249 200.813C289.814 202.047 289.45 203.449 288.482 204.32C286.762 205.843 285.624 207.802 284.123 209.471C281.556 212.349 278.602 212.663 275.502 210.341C272.645 208.213 270.465 205.577 268.843 202.361C267.922 200.523 266.833 198.71 265.67 196.944C264.193 194.695 262.934 192.253 261.99 189.738C260.997 187.102 259.302 184.829 258.527 182.12C257.752 179.412 256.904 176.752 256.614 173.874V173.874Z" fill="#2E706B"/>
<path fill-rule="evenodd" clip-rule="evenodd" d="M469.107 196.461C467.993 196.993 467.218 196.243 466.37 195.324C463.779 192.616 461.14 189.956 458.5 187.295C456.078 184.829 453.608 182.411 451.211 179.92C449.129 177.768 446.683 176.051 444.503 173.995C439.66 169.424 434.672 165.047 429.151 161.275C427.843 160.38 426.438 159.63 425.058 158.832C424.671 158.615 424.235 158.47 423.896 158.204C422.806 157.381 422.201 155.931 422.637 155.278C423.194 154.431 425.228 153.972 426.245 154.697C428.4 156.245 430.918 157.188 432.952 158.832C436.028 161.323 439.321 163.476 442.469 165.821C442.687 165.991 443.05 166.039 443.147 166.232C444.552 169.231 447.748 170.392 449.807 172.762C451.841 175.107 454.601 176.849 456.708 179.218C461.043 184.152 466.273 188.214 470.342 193.39C470.438 193.535 470.584 193.656 470.705 193.776C471.31 194.357 471.698 195.107 471.383 195.905C470.995 196.92 470.051 196.485 469.082 196.437L469.107 196.461Z" fill="#9CD7ED"/>
<path fill-rule="evenodd" clip-rule="evenodd" d="M508.022 78.062C512.163 78.1346 516.4 77.9411 520.493 79.2711C521.8 79.6823 523.108 80.1175 524.125 81.23C526.813 84.2528 525.99 88.2913 521.631 89.6697C519.645 90.2985 517.514 90.5403 515.383 90.4677C511.606 90.3226 507.828 90.5645 504.074 90.2017C501.483 89.9357 498.82 89.9841 496.253 89.2828C493.71 88.5815 493.105 86.3083 492.499 84.3012C491.991 82.7051 493.177 81.4718 494.461 80.3352C495.623 79.3195 496.834 78.8842 498.239 78.7633C501.483 78.5215 504.728 78.328 508.046 78.0862L508.022 78.062ZM514.487 86.9854C515.48 86.9854 516.957 86.792 518.434 86.6952C519.984 86.6227 520.081 85.4861 520.347 84.6155C520.638 83.6482 519.839 83.1162 518.967 82.6809C516.594 81.496 514.051 81.6411 511.509 81.5685C510.661 81.5685 510.177 81.9554 510.128 82.8018C510.056 84.1319 509.959 85.5587 510.782 86.6227C511.484 87.5175 512.719 86.9371 513.737 87.0096C513.809 87.0096 513.906 87.0096 514.487 86.9854ZM503.13 86.5743H504.026C504.874 86.5743 505.527 86.1874 505.14 85.3168C504.607 84.1802 505.842 82.0763 503.808 81.9071C502.379 81.7861 500.854 82.0763 499.352 82.1731C498.335 82.2214 497.609 83.092 497.585 84.0835C497.536 84.9541 497.972 85.8005 499.086 85.9698C500.466 86.1632 501.871 86.3809 503.154 86.5743H503.13Z" fill="#2E706B"/>
<path fill-rule="evenodd" clip-rule="evenodd" d="M96.3542 182.87C94.8771 182.918 94.1022 181.878 94.4412 180.766C94.8287 179.509 95.8457 178.735 96.7901 177.985C103.207 172.81 109.503 167.441 115.775 162.073C120.909 157.672 126.115 153.343 131.346 149.062C137.182 144.323 142.582 139.027 148.684 134.577C149.048 134.311 149.362 133.972 149.726 133.779C150.597 133.295 151.445 133.368 152.123 134.142C152.874 134.988 152.196 135.665 151.687 136.197C150.452 137.431 149.169 138.664 147.813 139.776C140.96 145.29 134.324 151.045 127.617 156.753C124.275 159.606 120.788 162.29 117.422 165.096C113.572 168.312 109.77 171.552 105.992 174.841C103.474 177.042 100.665 178.831 98.4368 181.371C97.8314 182.048 97.0807 182.773 96.3785 182.846L96.3542 182.87Z" fill="#2E706B"/>
<path fill-rule="evenodd" clip-rule="evenodd" d="M54.3398 139.825C53.7586 139.825 53.347 139.559 53.008 139.099C52.5721 138.471 52.79 137.914 53.1775 137.407C53.7102 136.705 54.364 136.052 55.0179 135.593C59.0377 132.739 62.4037 129.136 66.375 126.21C70.3222 123.284 73.8577 119.85 77.6111 116.658C80.3475 114.336 83.1565 112.111 85.8929 109.766C92.0679 104.446 98.5093 99.4155 104.515 93.9019C105.338 93.128 106.331 92.5476 107.275 91.8705C108.099 91.2659 108.753 91.6529 109.382 92.2091C110.157 92.9104 109.503 93.4182 109.188 94.0228C108.099 96.1508 106.016 97.3116 104.321 98.7626C95.5065 106.308 86.5467 113.659 77.6353 121.107C70.8549 126.79 64.0988 132.522 57.3184 138.229C56.4466 138.978 55.5506 139.68 54.3398 139.825V139.825Z" fill="#2E706B"/>
<path fill-rule="evenodd" clip-rule="evenodd" d="M233.657 374.445C238.064 374.01 242.786 374.59 247.533 374.324C248.671 374.252 249.833 374.373 250.947 374.566C251.843 374.735 252.618 375.219 252.473 376.356C252.327 377.371 251.601 377.613 250.753 377.637C247.242 377.71 243.755 377.782 240.244 377.807C234.795 377.855 229.371 377.879 223.922 377.903C223.414 377.903 222.881 377.903 222.348 377.831C220.314 377.637 220.096 376.96 220.46 374.881C220.968 372.124 221.743 369.439 222.445 366.731C223.172 363.974 223.995 361.242 224.915 358.533C226.005 355.365 227.313 352.197 227.627 348.763C227.724 347.723 228.039 346.78 229.492 346.611C232.035 346.297 233.221 347.288 232.81 349.851C232.543 351.568 231.793 353.189 231.26 354.833C230.509 357.155 230.34 359.67 229.177 361.87C227.482 365.087 227.506 368.811 226.175 372.148C225.496 373.841 226.005 374.397 227.797 374.445C229.637 374.469 231.478 374.445 233.657 374.445Z" fill="#2E706B"/>
<path fill-rule="evenodd" clip-rule="evenodd" d="M270.925 307.508C275.817 307.508 280.733 307.314 285.624 307.58C288.966 307.749 292.308 307.677 295.625 307.774C298.991 307.895 302.382 307.822 305.748 307.701C309.525 307.58 313.279 307.701 317.032 307.701C321.657 307.701 326.307 307.991 330.932 307.629C331.198 307.629 331.465 307.629 331.731 307.604C333.45 307.604 334.443 308.257 334.322 309.515C334.201 310.917 333.014 310.893 331.973 311.062C330.133 311.401 328.317 311.135 326.476 311.111C322.166 311.111 317.855 310.796 313.569 311.062C305.505 311.546 297.466 311.038 289.402 311.135C286.617 311.183 283.76 310.99 280.999 311.183C276.277 311.498 271.555 310.458 266.857 311.474C265.961 311.667 265.114 311.256 264.29 310.966C263.443 310.651 262.983 310.047 263.176 309.152C263.346 308.281 263.854 307.774 264.823 307.798C266.857 307.822 268.867 307.798 270.901 307.798V307.508H270.925Z" fill="#2E706B"/>
<path fill-rule="evenodd" clip-rule="evenodd" d="M218.474 140.26C218.28 141.034 217.796 141.687 217.215 142.219C215.592 143.718 214.043 145.338 212.251 146.572C209.829 148.216 207.771 150.296 205.567 152.158C201.329 155.737 196.825 159.002 192.733 162.726C186.025 168.82 178.809 174.261 172.101 180.331C169.97 182.265 167.694 184.103 165.272 185.748C164.255 186.449 163.432 186.352 162.729 185.627C161.93 184.805 162.39 184.006 163.141 183.378C167.403 179.726 171.592 175.954 176 172.471C178.397 170.561 180.601 168.409 183.046 166.571C188.325 162.629 192.999 157.962 198.205 153.899C202.685 150.368 206.923 146.523 211.306 142.847C212.783 141.614 214.285 140.381 215.859 139.268C216.924 138.519 218.498 139.196 218.498 140.284L218.474 140.26Z" fill="#2E706B"/>
<path fill-rule="evenodd" clip-rule="evenodd" d="M231.26 161.202C231.066 161.976 230.582 162.629 230.001 163.161C228.378 164.66 226.829 166.281 225.037 167.514C222.615 169.158 220.557 171.214 218.353 173.1C214.115 176.679 209.611 179.944 205.519 183.668C198.811 189.762 191.595 195.203 184.863 201.273C182.732 203.208 180.455 205.046 178.058 206.69C177.041 207.391 176.218 207.295 175.491 206.569C174.692 205.747 175.152 204.949 175.903 204.32C180.165 200.669 184.378 196.92 188.761 193.414C191.159 191.503 193.362 189.351 195.832 187.537C201.111 183.596 205.785 178.928 210.967 174.841C215.447 171.335 219.685 167.466 224.068 163.79C225.545 162.557 227.046 161.323 228.62 160.211C229.686 159.461 231.26 160.138 231.26 161.227V161.202Z" fill="#2E706B"/>
<path fill-rule="evenodd" clip-rule="evenodd" d="M117.858 104.3C117.809 104.784 117.446 105.05 117.18 105.389C115.194 107.758 112.724 109.596 110.399 111.579C106.936 114.554 103.522 117.577 100.011 120.503C96.7901 123.235 93.5452 125.92 90.2034 128.507C88.3872 129.91 86.9343 131.651 85.0697 133.029C82.3091 135.061 79.9117 137.527 77.1754 139.607C73.543 142.388 70.2981 145.629 66.4962 148.216C65.9151 148.603 65.4065 149.159 64.6074 149.014C64.1231 148.917 63.6146 149.595 63.1787 148.966C62.7912 148.434 62.6702 147.853 63.0092 147.225C63.3482 146.596 63.7599 146.064 64.3168 145.604C72.4775 138.978 80.3718 132.014 88.4841 125.363C93.9811 120.841 99.357 116.15 104.975 111.773C107.59 109.717 110.06 107.444 112.627 105.316C113.572 104.542 114.589 103.792 115.654 103.188C116.526 102.704 117.882 103.454 117.882 104.276L117.858 104.3Z" fill="#2E706B"/>
<path fill-rule="evenodd" clip-rule="evenodd" d="M291.412 239.24C291.751 235.999 290.879 232.179 291.388 228.309C291.63 226.447 291.291 224.488 291.315 222.554C291.363 217.161 291.945 211.865 292.937 206.569C293.18 205.36 293.712 204.876 294.826 204.925C296.11 204.997 296.085 206.013 296.11 206.859C296.279 212.542 297.102 218.201 296.207 223.884C297.054 226.375 296.618 228.938 296.449 231.453C296.158 236.096 296.763 240.763 296.4 245.407C296.255 247.075 296.11 248.744 295.65 250.364C295.456 251.041 295.262 251.815 294.342 251.767C293.615 251.718 293.349 251.089 293.131 250.509C292.284 248.26 292.066 245.866 291.775 243.52C291.606 242.287 291.581 241.054 291.436 239.216L291.412 239.24Z" fill="#2E706B"/>
<path fill-rule="evenodd" clip-rule="evenodd" d="M221.21 120.575C220.871 119.003 221.525 117.311 221.525 115.545C221.525 113.804 224.746 110.636 226.635 110.419C228.209 110.225 229.783 110.298 231.381 110.273C231.914 110.273 232.446 110.394 232.858 110.757C233.73 111.483 235.013 112.136 234.505 113.466C234.045 114.747 232.737 114.602 231.55 114.433C227.531 113.877 227.434 113.877 226.901 117.891C226.223 123.09 227.41 128.048 231.018 131.748C233.342 134.142 235.958 136.826 239.784 137.116C240.704 137.189 241.43 137.6 241.697 138.64C241.963 139.728 241.697 140.284 240.534 140.478C237.338 141.01 234.65 139.68 232.035 138.18C229.274 136.584 227.143 134.263 224.891 132.062C224.528 131.699 224.576 131.264 224.358 130.901C223.535 129.354 223.123 127.661 222.155 126.137C221.162 124.565 221.113 122.655 221.186 120.575H221.21Z" fill="#2E706B"/>
<path fill-rule="evenodd" clip-rule="evenodd" d="M207.238 288.234C212.469 288.597 217.384 288.863 221.913 291.064C222.228 291.233 222.663 291.209 222.906 291.426C226.054 294.207 229.928 295.924 233.004 298.826C235.595 301.293 238.525 303.397 241.309 305.67C241.576 305.888 241.891 306.057 242.133 306.299C243.15 307.314 243.489 308.91 242.908 309.66C242.23 310.506 240.365 310.652 239.251 309.733C238.186 308.814 236.83 308.161 235.934 307.145C234.456 305.476 232.568 304.34 230.897 302.937C229.032 301.365 227.361 299.552 225.23 298.294C222.47 296.674 219.927 294.691 216.997 293.361C215.835 292.829 214.503 293.288 213.365 292.853C210.483 291.789 207.601 291.716 204.647 292.394C203.799 292.587 202.879 292.466 202.007 292.394C201.16 292.345 200.409 292.007 200.264 291.088C200.119 290.145 200.821 289.54 201.571 289.322C203.509 288.718 205.519 288.403 207.214 288.21L207.238 288.234Z" fill="#2E706B"/>
<path fill-rule="evenodd" clip-rule="evenodd" d="M369.798 280.084C369.653 274.45 368.612 269.589 367.183 264.753C365.948 260.521 364.664 256.289 364.011 251.912C363.914 251.307 363.865 250.678 363.865 250.074C363.865 249.131 364.204 248.26 365.124 247.946C366.214 247.583 366.989 248.308 367.522 249.155C367.885 249.759 368.248 250.388 368.418 251.065C370.089 256.796 371.808 262.528 373.309 268.307C374.448 272.733 375.295 277.231 374.98 281.85C374.932 282.72 374.956 283.591 374.665 284.461C374.326 285.453 373.745 285.937 372.704 286.154C371.469 286.42 371.009 285.598 370.428 284.921C369.895 284.316 369.725 283.518 369.774 282.696C369.822 281.632 369.774 280.568 369.774 280.084H369.798Z" fill="#2E706B"/>
<path fill-rule="evenodd" clip-rule="evenodd" d="M229.371 259.505C229.516 263.543 228.79 267.509 228.063 271.475C227.264 275.949 226.78 280.496 226.392 285.042C226.296 286.082 226.392 287.122 225.085 287.605C223.729 288.089 222.687 287.46 221.598 286.928C221.089 286.686 220.968 286.106 221.186 285.55C221.404 284.969 221.234 284.316 221.356 283.784C221.937 281.148 221.477 278.367 222.348 275.78C222.784 274.498 222.494 273.168 222.809 271.886C223.947 267.195 224.213 262.334 225.545 257.643C226.053 255.829 225.981 253.822 226.538 251.96C226.683 251.452 226.78 250.92 227.046 250.461C227.409 249.759 228.136 249.517 228.862 249.711C229.468 249.88 229.419 250.533 229.419 251.065C229.419 253.87 229.419 256.7 229.419 259.505H229.371Z" fill="#2E706B"/>
<path fill-rule="evenodd" clip-rule="evenodd" d="M431.403 175.035C433.195 174.406 434.043 176.099 435.035 176.969C440.097 181.371 445.037 185.917 449.977 190.488C450.945 191.382 451.696 192.471 452.64 193.414C455.183 195.929 457.629 198.565 460.099 201.152C460.341 201.394 460.559 201.708 460.68 202.023C460.946 202.676 461.164 203.425 460.753 204.054C460.244 204.828 459.348 204.78 458.597 204.61C457.072 204.272 455.861 203.28 454.917 202.144C453.391 200.33 451.599 198.831 449.952 197.162C447.991 195.179 446.102 193.123 444.237 191.02C442.93 189.569 441.574 188.263 440 187.126C438.377 185.965 437.021 184.442 435.496 183.136C433.922 181.758 432.299 180.428 430.725 179.025C430.459 178.783 430.144 178.614 429.926 178.348C429.345 177.622 428.303 177.018 428.764 175.905C429.224 174.793 430.313 174.938 431.379 175.011L431.403 175.035Z" fill="#9CD7ED"/>
<path fill-rule="evenodd" clip-rule="evenodd" d="M367.377 297.859C366.311 297.714 365.512 297.617 364.737 297.496C363.986 297.375 363.405 297.061 363.357 296.166C363.308 295.271 363.914 294.908 364.64 294.739C366.02 294.425 367.377 294.28 368.563 293.337C370.282 291.982 371.59 290.241 373.164 288.742C374.98 287.001 376.869 285.284 378.734 283.664C380.501 282.14 382.729 280.955 385.127 280.181C387.645 279.359 390.139 278.682 392.779 278.368C393.941 278.222 395.055 278.319 396.169 278.706C396.823 278.948 397.162 279.407 397.162 280.109C397.162 280.737 396.678 281.003 396.193 281.245C395.636 281.511 395.055 281.705 394.425 281.729C390.503 281.801 387.088 283.518 383.819 285.332C381.93 286.372 380.308 287.992 378.879 289.612C377.499 291.184 376.118 292.78 374.617 294.256C372.559 296.263 370.04 297.496 367.425 297.859H367.377Z" fill="#2E706B"/>
<path fill-rule="evenodd" clip-rule="evenodd" d="M160.09 189.157C159.896 189.81 159.412 190.246 159.049 190.705C156.869 193.389 153.915 195.227 151.372 197.525C148.394 200.233 145.125 202.651 142.073 205.263C138.998 207.875 135.923 210.511 132.896 213.171C131.564 214.332 130.159 215.372 128.706 216.363C127.035 217.5 125.558 217.669 125.147 216.798C124.469 215.323 125.752 214.574 126.648 213.824C132.024 209.302 137.448 204.852 142.824 200.354C147.207 196.702 151.566 193.027 155.925 189.375C156.53 188.867 157.16 188.384 157.789 187.924C158.395 187.489 158.952 187.731 159.46 188.166C159.799 188.456 160.163 188.722 160.09 189.182V189.157Z" fill="#2E706B"/>
<path fill-rule="evenodd" clip-rule="evenodd" d="M116.647 205.602C115.727 205.602 115.194 204.925 115.509 204.006C115.751 203.232 116.235 202.651 116.841 202.071C119.383 199.629 122.192 197.525 124.88 195.252C129.82 191.044 134.881 186.981 139.87 182.822C142.17 180.911 144.301 178.88 146.941 177.453C147.401 177.187 147.861 176.921 148.418 177.042C148.951 177.139 149.508 177.284 149.798 177.743C150.162 178.324 149.605 178.686 149.266 179.073C148.442 179.968 147.619 180.887 146.626 181.637C142.219 185.022 138.005 188.626 133.792 192.205C129.99 195.445 125.97 198.468 122.338 201.926C121.078 203.135 119.504 204.006 118.076 204.997C117.64 205.287 117.228 205.626 116.647 205.578V205.602Z" fill="#2E706B"/>
<path fill-rule="evenodd" clip-rule="evenodd" d="M188.059 101.979C188.786 102.1 189.318 102.414 189.706 102.922C190.166 103.551 189.875 104.131 189.415 104.566C188.229 105.727 187.066 106.96 185.759 107.976C181.69 111.192 177.792 114.626 173.845 117.988C169.34 121.809 164.812 125.557 160.26 129.305C159.654 129.813 158.928 130.176 158.225 130.514C157.499 130.877 156.724 131.119 156.094 130.273C155.537 129.499 156.022 128.894 156.482 128.41C157.911 126.863 159.218 125.097 161.059 124.033C163.529 122.607 165.417 120.503 167.573 118.762C173.021 114.336 178.3 109.693 183.676 105.147C184.669 104.3 185.686 103.454 186.727 102.656C187.139 102.342 187.648 102.172 188.059 101.955V101.979Z" fill="#2E706B"/>
<path fill-rule="evenodd" clip-rule="evenodd" d="M78.8946 102.849C78.943 103.551 78.3376 103.889 77.9017 104.276C75.7465 106.186 73.5429 108.097 71.3151 109.959C67.7553 112.958 64.1956 115.932 60.6117 118.907C56.6403 122.22 52.669 125.557 48.6249 128.773C47.7532 129.45 46.6877 130.563 45.3558 129.426C44.9199 129.063 44.3387 128.652 44.9684 127.951C45.7675 127.032 46.3971 125.895 47.3657 125.17C53.2501 120.865 58.626 115.932 64.2199 111.289C67.8764 108.266 71.6541 105.388 75.0927 102.148C75.7707 101.495 76.5214 101.132 77.4901 101.35C78.265 101.519 78.7009 102.027 78.8946 102.825V102.849Z" fill="#2E706B"/>
<path fill-rule="evenodd" clip-rule="evenodd" d="M536.645 149.498C531.729 150.03 528.266 144.806 529.767 140.599C530.712 137.963 533.908 136.125 536.887 136.342C541.682 136.705 543.764 141.155 543.667 144.274C543.595 146.427 540.834 149.232 538.485 149.498C537.88 149.57 537.25 149.498 536.645 149.498V149.498ZM538.34 143.621C538.291 141.759 536.863 139.776 535.918 139.97C535.071 140.139 534.344 142.17 534.586 143.67C534.659 144.105 534.659 144.589 534.998 144.879C535.506 145.29 535.87 146.161 536.645 145.967C537.395 145.75 538.049 145.193 538.267 144.371C538.364 144.033 538.316 143.67 538.316 143.646L538.34 143.621Z" fill="#9CD7ED"/>
<path fill-rule="evenodd" clip-rule="evenodd" d="M227.579 329.103C227.434 327.821 227.966 326.322 228.499 324.822C230.412 319.381 234.384 315.826 239.154 312.997C239.759 312.634 240.292 312.151 240.873 311.788C242.205 310.942 243.682 310.796 245.184 311.159C245.983 311.353 246.322 311.957 246.419 312.707C246.516 313.36 246.031 313.602 245.547 313.868C242.568 315.415 239.929 317.423 237.556 319.768C236.442 320.881 235.376 322.066 235.013 323.686C234.602 325.451 233.076 326.588 232.471 328.256C232.107 329.224 231.405 330.046 231.139 331.11C230.969 331.835 230.461 332.319 229.855 332.706C228.862 333.335 228.209 333.141 227.821 332.053C227.506 331.207 227.627 330.312 227.579 329.103V329.103Z" fill="#2E706B"/>
<path fill-rule="evenodd" clip-rule="evenodd" d="M407.066 174.116C407.986 174.116 408.785 174.454 409.512 175.01C411.134 176.195 412.854 177.308 414.379 178.59C416.123 180.065 418.326 180.766 420.07 182.265C420.99 183.063 421.91 183.861 422.782 184.732C424.308 186.28 425.858 187.827 427.625 189.133C428.328 189.665 428.981 190.246 429.345 191.092C429.684 191.914 429.441 192.495 428.594 192.712C426.85 193.148 425.276 192.833 423.92 191.6C421.91 189.762 419.852 187.997 417.939 186.062C416.123 184.224 413.871 183.015 411.74 181.685C409.633 180.379 407.744 178.807 405.637 177.525C405.419 177.405 405.202 177.211 405.032 177.018C403.87 175.712 404.112 174.89 405.807 174.406C406.243 174.285 406.679 174.212 407.09 174.116H407.066Z" fill="#9CD7ED"/>
<path fill-rule="evenodd" clip-rule="evenodd" d="M102.893 140.405C102.868 140.889 102.529 141.179 102.263 141.518C100.544 143.791 98.2674 145.556 96.0395 147.176C93.3274 149.159 91.0511 151.602 88.46 153.681C85.99 155.664 83.6168 157.768 81.1468 159.751C80.3962 160.356 79.5244 160.815 78.6768 161.299C77.9019 161.758 77.006 162.194 76.3037 161.251C75.5046 160.187 76.3037 159.437 77.006 158.76C78.0957 157.744 79.258 156.777 80.3719 155.809C84.1496 152.545 87.8546 149.159 91.7533 146.064C94.2233 144.105 96.7176 142.146 99.1149 140.091C99.7929 139.51 100.568 139.027 101.512 139.244C102.118 139.389 102.65 139.704 102.844 140.381L102.893 140.405Z" fill="#2E706B"/>
<path fill-rule="evenodd" clip-rule="evenodd" d="M512.622 111.144C513.809 111.41 515.141 111.192 516.473 112.136C518.894 113.877 519.306 116.247 519.233 118.858C519.185 120.503 518.143 121.615 516.691 122.22C514.342 123.187 511.896 123.139 509.426 122.607C508.312 122.365 507.464 121.736 507.246 120.575C506.907 118.883 506.399 117.286 506.956 115.424C507.852 112.377 509.377 110.975 512.647 111.144H512.622ZM512.598 114.723C511.993 115.763 511.605 116.827 511.799 118.012C511.896 118.665 512.283 119.197 512.961 119.221C513.736 119.245 514.245 118.81 514.39 117.988C514.632 116.561 514.39 115.352 512.598 114.723V114.723Z" fill="#2E706B"/>
<path fill-rule="evenodd" clip-rule="evenodd" d="M282.331 128.023C282.476 125.291 283.057 122.099 283.59 118.907C283.808 117.577 284.462 116.44 285.067 115.279C285.455 114.554 286.133 114.36 286.859 114.457C287.634 114.554 288.021 115.013 288.191 115.835C288.675 117.915 288.821 120.019 288.385 122.075C288.046 123.695 287.949 125.339 287.707 126.959C287.15 130.466 287.707 131.457 290.395 132.739C291.315 133.174 291.412 133.9 291.266 134.698C291.121 135.472 290.491 135.762 289.741 135.883C285.503 136.608 281.895 133.078 282.331 128.023V128.023Z" fill="#2E706B"/>
<path fill-rule="evenodd" clip-rule="evenodd" d="M105.023 193.293C104.321 193.123 103.885 192.906 103.522 192.446C103.086 191.842 103.256 191.31 103.522 190.729C104.03 189.762 104.975 189.182 105.75 188.529C111.223 183.765 117.059 179.363 122.386 174.406C123.282 173.584 124.42 173.052 125.292 172.157C126.018 171.407 126.89 171.601 127.665 172.23C128.537 172.931 128.077 173.608 127.617 174.285C127.132 175.011 126.575 175.688 125.849 176.244C119.529 181.105 113.523 186.401 107.469 191.6C106.67 192.277 105.75 192.761 104.975 193.293H105.023Z" fill="#2E706B"/>
<path fill-rule="evenodd" clip-rule="evenodd" d="M313.86 154.866C312.625 154.963 311.874 154.092 311.438 152.98C310.663 151.021 309.985 149.038 309.259 147.055C308.387 144.565 306.934 142.533 304.755 141.034C304.028 140.526 303.35 139.946 302.938 139.148C302.139 137.6 303.06 136.221 304.803 136.415C305.578 136.512 306.498 136.657 307.031 137.14C309.961 139.849 313.424 142.146 314.271 146.523C314.659 148.506 315.41 150.417 315.894 152.376C316.33 154.213 315.749 154.891 313.836 154.891L313.86 154.866Z" fill="#2E706B"/>
<path fill-rule="evenodd" clip-rule="evenodd" d="M291.944 151.795C289.111 151.964 286.254 150.586 283.372 149.304C282.452 148.893 282.016 148.119 282.282 147.152C282.549 146.185 283.348 145.774 284.341 145.919C285.309 146.04 286.254 146.282 287.198 146.475C291.145 147.297 295.068 147.418 298.919 146.016C299.161 145.919 299.427 145.87 299.669 145.774C300.589 145.483 301.582 145.097 302.236 146.233C302.745 147.128 302.406 148.531 301.268 149.232C298.555 150.9 295.674 152.085 291.944 151.795Z" fill="#2E706B"/>
<path fill-rule="evenodd" clip-rule="evenodd" d="M438.765 203.981C440.096 203.885 441.138 204.296 442.082 204.973C445.884 207.778 449.202 211.067 452.156 214.767C452.422 215.105 452.737 215.444 452.882 215.855C453.318 216.895 452.834 217.596 451.72 217.62C449.686 217.645 447.967 216.943 446.635 215.371C444.116 212.349 441.356 209.592 438.159 207.27C438.014 207.173 437.869 207.077 437.748 206.932C437.166 206.303 436.27 205.722 436.755 204.731C437.166 203.909 438.062 203.981 438.74 204.006L438.765 203.981Z" fill="#9CD7ED"/>
<path fill-rule="evenodd" clip-rule="evenodd" d="M83.3988 99.2462C82.6723 99.2704 82.1638 99.1978 81.849 98.6416C81.5584 98.1096 81.6069 97.6259 81.9459 97.1665C83.0114 95.7397 84.2948 94.5305 85.6267 93.394C88.9684 90.5404 92.3586 87.7594 95.7488 84.9542C96.1605 84.6156 96.6206 84.3496 97.0565 84.0594C98.0735 83.4307 99.4538 83.4549 99.8897 84.1804C100.471 85.1477 99.8655 85.8731 99.1633 86.4777C97.3713 88.0254 95.5309 89.5247 93.7631 91.0966C91.1478 93.4423 88.242 95.4495 85.772 97.9645C85.0939 98.6416 84.2221 99.1253 83.3988 99.2462V99.2462Z" fill="#2E706B"/>
<path fill-rule="evenodd" clip-rule="evenodd" d="M47.6808 196.146C46.9543 196.074 46.4942 195.905 46.2036 195.373C45.8161 194.72 46.0583 194.115 46.4457 193.68C48.7705 191.165 50.3445 188.118 52.5723 185.53C53.9768 183.886 54.8486 181.782 56.6163 180.403C57.585 179.654 58.4083 179.75 59.0621 180.645C59.6191 181.419 59.3527 182.169 58.9168 182.846C58.0209 184.248 57.0764 185.627 56.1078 186.981C54.5822 189.109 52.9113 191.141 51.4584 193.317C50.6835 194.454 49.5211 195.082 48.5041 195.88C48.2377 196.074 47.8503 196.122 47.705 196.171L47.6808 196.146Z" fill="#2E706B"/>
<path fill-rule="evenodd" clip-rule="evenodd" d="M318.873 118.084C318.897 120.914 317.783 122.655 315.773 122.897C313.69 123.163 311.947 121.639 311.172 119.027C310.47 116.706 311.438 114.868 312.794 113.199C313.787 111.99 316.33 112.426 317.468 113.877C318.413 115.086 318.897 116.488 318.873 118.036V118.084Z" fill="#2E706B"/>
<path fill-rule="evenodd" clip-rule="evenodd" d="M262.086 118.06C262.038 115.328 263.2 113.369 265.138 112.764C266.445 112.353 267.487 112.523 268.383 113.732C269.642 115.449 270.368 117.19 269.714 119.366C269.012 121.639 267.438 123.09 265.477 122.969C263.709 122.849 262.353 121.228 262.086 118.858C262.062 118.592 262.086 118.326 262.086 118.06Z" fill="#2E706B"/>
<path fill-rule="evenodd" clip-rule="evenodd" d="M28.744 180.597C27.6785 180.548 27.0005 179.581 27.4121 178.711C27.7754 177.937 28.3081 177.211 28.8651 176.534C30.9234 173.947 33.2724 171.577 34.3378 168.312C34.7011 167.2 35.6455 166.474 36.5173 165.749C37.1469 165.241 37.8249 165.338 38.4303 165.821C39.0357 166.305 39.3747 166.861 38.9873 167.635C38.285 169.037 37.946 170.537 36.9289 171.843C35.4276 173.777 33.8535 175.639 32.5459 177.743C31.6741 179.122 30.2938 180.162 28.744 180.621V180.597Z" fill="#2E706B"/>
<path fill-rule="evenodd" clip-rule="evenodd" d="M426.754 173.028C423.896 173.221 421.886 171.77 419.852 170.392C418.036 169.182 416.171 168.022 414.331 166.813C413.895 166.522 413.411 166.208 413.144 165.797C412.515 164.805 413.217 163.427 414.355 163.572C416.317 163.814 418.327 163.741 419.998 165.289C421.765 166.933 424.09 167.925 425.93 169.545C427.093 170.561 427.553 171.552 426.754 173.003V173.028Z" fill="#9CD7ED"/>
<path fill-rule="evenodd" clip-rule="evenodd" d="M265.646 97.7227C268.141 97.9161 270.054 98.0129 271.943 98.5207C273.178 98.8593 274.146 99.5364 274.994 100.455C275.381 100.891 275.599 101.374 275.309 101.882C274.994 102.487 274.388 102.801 273.759 102.535C272.282 101.906 270.683 101.834 269.182 101.398C267.269 100.866 265.429 100.818 263.564 101.761C262.329 102.39 260.924 102.704 259.568 103.091C258.987 103.261 258.285 103.236 257.922 102.608C257.534 101.93 257.776 101.278 258.333 100.721C260.513 98.5691 263.37 98.2305 265.646 97.6985V97.7227Z" fill="#2E706B"/>
<path fill-rule="evenodd" clip-rule="evenodd" d="M314.877 97.6985C317.153 98.1821 319.841 98.424 321.996 100.286C322.699 100.891 323.498 101.471 323.038 102.438C322.481 103.599 321.391 103.164 320.495 102.874C319.236 102.487 317.977 102.1 316.79 101.544C315.434 100.915 314.102 100.794 312.697 101.181C311.027 101.664 309.21 101.689 307.588 102.39C306.886 102.704 306.183 102.704 305.699 102.027C305.191 101.302 305.651 100.794 306.159 100.213C307.201 99.0043 308.581 98.4965 310.058 98.2305C311.511 97.9645 313.012 97.8919 314.877 97.6985V97.6985Z" fill="#2E706B"/>
<path fill-rule="evenodd" clip-rule="evenodd" d="M146.699 216.46C146.529 216.75 146.456 217.04 146.287 217.209C142.655 220.619 139.192 224.247 134.906 226.882C134.373 227.221 133.937 227.221 133.453 226.931C132.75 226.52 132.436 225.964 132.871 225.19C133.138 224.73 133.428 224.271 133.816 223.932C136.843 221.248 139.87 218.612 142.897 215.976C143.647 215.323 144.519 214.912 145.56 215.226C146.239 215.42 146.529 215.903 146.699 216.484V216.46Z" fill="#2E706B"/>
<path fill-rule="evenodd" clip-rule="evenodd" d="M278.505 138.882C279.958 138.882 280.515 139.583 279.764 140.865C277.754 144.178 275.429 147.273 272.669 149.981C272.306 150.344 271.797 150.61 271.313 150.755C270.223 151.07 269.327 150.247 269.666 149.159C269.981 148.168 270.417 147.2 270.974 146.33C272.499 143.912 273.976 141.421 276.325 139.68C276.979 139.196 277.657 138.833 278.505 138.882V138.882Z" fill="#2E706B"/>
<path fill-rule="evenodd" clip-rule="evenodd" d="M181.279 94.1918C181.158 94.7238 180.916 95.1833 180.504 95.546C177.695 97.9401 174.91 100.334 172.077 102.704C171.762 102.97 171.302 103.139 170.89 103.26C170.285 103.454 169.68 103.478 169.195 102.946C168.638 102.366 168.905 101.809 169.244 101.277C169.51 100.818 169.752 100.31 170.115 99.9715C172.828 97.6016 175.467 95.1108 178.518 93.2003C179.56 92.5474 181.158 93.1761 181.279 94.1676V94.1918Z" fill="#2E706B"/>
<path fill-rule="evenodd" clip-rule="evenodd" d="M46.0824 178.444C45.3801 179.774 44.7505 181.129 44.0241 182.41C43.3218 183.619 42.4985 184.732 41.7478 185.917C40.9487 187.174 39.5684 187.585 38.3576 188.19C37.728 188.504 37.0015 188.238 36.5414 187.537C36.1782 186.957 36.3961 186.497 36.7594 186.135C39.4473 183.499 40.4644 179.581 43.564 177.284C43.9756 176.993 44.2904 176.268 44.799 176.582C45.4044 176.993 45.8645 177.671 46.0824 178.42V178.444Z" fill="#2E706B"/>
<path fill-rule="evenodd" clip-rule="evenodd" d="M293.979 159.05C291.605 159.219 289.62 158.639 287.876 157.309C287.368 156.922 286.98 156.414 287.222 155.713C287.44 155.084 287.9 154.697 288.603 154.697C288.772 154.697 288.966 154.6 289.111 154.649C291.509 155.181 293.93 155.253 296.376 155.278C297.199 155.278 297.902 155.592 298.144 156.559C298.362 157.551 297.684 157.962 297.102 158.494C296.11 159.389 294.899 158.881 293.979 159.05V159.05Z" fill="#2E706B"/>
<path fill-rule="evenodd" clip-rule="evenodd" d="M65.9877 195.01C65.9877 195.01 65.9877 195.203 65.9634 195.276C64.5105 197.96 63.4208 200.91 60.6118 202.555C59.8369 203.014 58.9167 203.328 58.2144 202.482C57.609 201.781 57.948 200.934 58.4566 200.306C60.1275 198.178 61.193 195.566 63.6145 194.066C64.68 193.414 65.9877 193.97 66.0119 195.01H65.9877Z" fill="#2E706B"/>
<path fill-rule="evenodd" clip-rule="evenodd" d="M157.862 113.465C156.579 113.562 156.191 113.079 156.336 112.232C156.433 111.724 156.554 111.12 156.918 110.781C158.685 109.088 160.526 107.444 162.366 105.8C163.214 105.05 163.989 105.437 164.715 106.09C165.272 106.598 165.345 107.202 164.836 107.71C162.851 109.693 160.986 111.797 158.516 113.224C158.225 113.393 157.886 113.465 157.862 113.465Z" fill="#2E706B"/>
<path fill-rule="evenodd" clip-rule="evenodd" d="M71.7994 210.487C70.2012 210.414 69.7169 209.64 70.4433 208.479C71.5331 206.714 72.3806 204.779 74.221 203.522C74.9959 202.99 75.5771 202.821 76.3035 203.401C77.1269 204.03 76.8605 204.707 76.4731 205.481C75.6497 207.125 74.8748 208.77 73.2282 209.834C72.6954 210.172 72.2595 210.583 71.7994 210.487Z" fill="#2E706B"/>
<path fill-rule="evenodd" clip-rule="evenodd" d="M105.823 138.132C104.539 138.083 103.74 136.657 104.491 135.834C105.968 134.238 107.542 132.691 109.552 131.748C110.375 131.361 111.102 131.578 111.683 132.231C112.337 132.981 111.731 133.585 111.271 134.045C110.085 135.206 108.85 136.318 107.542 137.358C107.009 137.769 106.283 137.938 105.798 138.132H105.823Z" fill="#2E706B"/>
<path fill-rule="evenodd" clip-rule="evenodd" d="M326.961 116.706C326.428 116.658 325.459 116.609 324.491 116.513C324.127 116.464 323.813 116.271 323.692 115.908C323.546 115.424 323.861 115.11 324.224 114.82C326.21 113.345 328.438 113.103 330.762 113.538C331.683 113.707 332.046 114.457 332.046 115.328C332.046 116.271 331.295 116.392 330.545 116.44C329.479 116.513 328.438 116.609 326.961 116.706V116.706Z" fill="#2E706B"/>
<path fill-rule="evenodd" clip-rule="evenodd" d="M325.483 119.487C327.808 118.931 329.6 119.801 331.416 120.769C332.143 121.156 332.482 121.712 332.385 122.462C332.288 123.284 331.61 123.526 330.835 123.622C328.438 123.937 326.573 122.558 325.459 119.511L325.483 119.487Z" fill="#2E706B"/>
<path fill-rule="evenodd" clip-rule="evenodd" d="M257.849 115.594C256.348 115.594 254.773 115.594 253.224 115.594C252.497 115.594 251.843 115.352 251.238 114.965C250.705 114.602 250.439 113.998 250.536 113.369C250.657 112.619 251.335 112.45 251.94 112.474C254.095 112.522 256.081 113.175 257.776 114.53C258.091 114.771 258.115 115.11 257.849 115.594V115.594Z" fill="#2E706B"/>
<path fill-rule="evenodd" clip-rule="evenodd" d="M252.231 123.864C252.376 120.938 254.241 119.777 256.444 118.931C256.88 118.762 257.268 118.689 257.655 119.052C258.14 119.511 257.97 120.043 257.704 120.479C256.493 122.413 254.992 123.888 252.231 123.864V123.864Z" fill="#2E706B"/>
<path fill-rule="evenodd" clip-rule="evenodd" d="M295.117 135.085C294.148 134.94 293.906 134.287 293.955 133.392C294.027 132.256 294.996 131.506 296.352 131.506C297.272 131.506 297.587 132.014 297.587 132.836C297.587 134.021 296.4 135.133 295.117 135.085V135.085Z" fill="#2E706B"/>
<path fill-rule="evenodd" clip-rule="evenodd" d="M355.317 337.107C356.286 336.503 357.206 335.971 358.078 335.39C358.901 334.858 359.628 334.181 360.064 333.311C360.548 332.343 359.821 331.038 358.829 331.255C357.4 331.57 355.777 331.4 354.591 332.513C353.719 333.311 352.678 333.77 351.588 334.133C349.312 334.858 349.263 334.834 347.859 332.972C347.592 332.634 347.375 332.247 347.035 331.739C351.443 330.046 354.252 326.757 356.867 322.864C354.93 321.872 353.501 322.235 352.145 323.227C351.08 324 350.062 324.847 349.094 325.717C347.35 327.289 345.244 328.087 343.016 328.716C341.902 329.055 341.611 328.547 341.321 327.676C340.594 325.524 341.321 323.686 342.628 322.09C343.621 320.857 344.493 319.551 345.365 318.245C346.793 316.117 349.07 314.835 350.692 312.901C352.242 311.063 354.203 309.829 356.262 308.717C356.819 308.403 357.182 307.919 357.158 307.193C357.158 306.589 357.085 306.008 357.4 305.404C359.41 301.607 358.465 301.462 363.454 302.357C367.619 303.107 370.549 305.065 372.632 308.572C373.358 309.805 373.576 311.208 374.109 312.514C375.005 314.69 375.949 316.842 376.748 319.043C376.772 319.115 376.845 319.212 376.845 319.285C377.063 323.444 377.814 327.652 376.264 331.739C375.997 332.392 375.634 333.021 375.513 333.698C375.174 335.874 373.867 337.228 372.099 338.437C370.258 339.719 368.273 340.154 366.117 340.179C364.18 340.227 362.243 340.058 360.306 340.179C358.005 340.324 356.407 339.429 355.293 337.083L355.317 337.107Z" fill="white"/>
<path fill-rule="evenodd" clip-rule="evenodd" d="M340.352 317.011C339.214 314.98 339.601 313.577 340.352 312.247C341.466 310.192 342.725 308.209 343.79 306.129C344.444 304.823 346.091 304.896 346.89 303.735C347.205 306.468 345.074 308.523 344.832 310.917C344.493 314.085 341.054 314.061 340.376 317.011H340.352Z" fill="white"/>
<path fill-rule="evenodd" clip-rule="evenodd" d="M585.56 105.026C584.955 103.067 584.398 101.229 583.817 99.3913C583.284 97.6743 583.962 96.0782 584.349 94.4822C584.567 93.6116 585.269 93.3214 586.19 94.0227C586.771 94.458 587.183 94.99 587.546 95.5946C588.611 97.4566 588.829 99.5847 589.701 101.544C590.452 103.26 590.088 103.406 588.151 104.107C587.352 104.397 586.529 104.663 585.56 105.026V105.026Z" fill="white"/>
<path fill-rule="evenodd" clip-rule="evenodd" d="M593.77 114.796C593.648 115.207 593.527 115.545 593.479 115.884C593.334 117.02 593.14 118.447 591.978 118.592C590.718 118.762 589.653 117.504 589.314 116.392C588.781 114.699 587.813 113.248 587.134 111.628C586.674 110.54 586.844 109.814 587.716 109.137C588.273 108.702 588.805 108.242 589.411 107.928C590.815 107.202 591.203 107.444 591.953 108.871C592.97 110.757 593.019 112.909 593.745 114.796H593.77Z" fill="#E06765"/>
<path fill-rule="evenodd" clip-rule="evenodd" d="M562.773 74.072C562.749 73.54 562.628 73.008 562.676 72.5001C562.991 69.2596 561.054 66.8897 559.552 64.3505C559.068 63.5283 558.293 63.1656 557.397 62.9721C554.709 62.4159 552.142 62.827 549.769 64.1813C547.324 65.5839 546.137 68.0747 545.459 70.5897C544.757 73.2014 544.248 75.8373 544.466 78.6909C544.684 81.617 545.071 84.4222 546.088 87.1065C546.863 89.1378 548.486 90.2986 550.641 90.9757C554.467 92.209 558.729 88.9927 560.23 85.7281C561.926 82.0523 563.185 78.2314 562.773 74.072V74.072ZM551.174 69.6707C551.779 68.0021 553.281 67.1799 554.879 66.5995C555.024 66.5512 555.169 66.527 555.29 66.5512C555.169 66.5512 555.024 66.5512 554.903 66.5995C553.305 67.1799 551.803 68.0021 551.174 69.6707C550.302 72.0165 549.842 74.4106 549.721 76.8046C549.866 74.4106 550.302 72.0165 551.174 69.6707ZM553.281 87.0339C553.038 87.3241 552.772 87.445 552.481 87.445C552.748 87.445 553.014 87.2999 553.256 87.0339C555 85.051 556.453 82.7536 556.986 80.2386C557.179 79.368 557.349 78.4974 557.494 77.6027C557.349 78.4974 557.155 79.3922 556.986 80.2386C556.453 82.7778 555.024 85.051 553.281 87.0339V87.0339Z" fill="#E06765"/>
<path fill-rule="evenodd" clip-rule="evenodd" d="M514.463 86.9856C513.882 86.9856 513.785 87.0339 513.712 87.0097C512.695 86.9372 511.46 87.5418 510.758 86.6228C509.959 85.5588 510.056 84.132 510.104 82.802C510.153 81.9556 510.637 81.5445 511.484 81.5686C514.027 81.6412 516.57 81.4961 518.943 82.681C519.815 83.1163 520.614 83.6484 520.323 84.6157C520.057 85.4862 519.96 86.5986 518.41 86.6954C516.933 86.7921 515.48 86.9856 514.463 86.9856Z" fill="#EFE452"/>
<path fill-rule="evenodd" clip-rule="evenodd" d="M503.13 86.5503C501.846 86.3568 500.442 86.1392 499.061 85.9457C497.972 85.7764 497.536 84.93 497.56 84.0594C497.608 83.0679 498.311 82.1974 499.328 82.149C500.829 82.0523 502.355 81.7621 503.783 81.883C505.818 82.0523 504.583 84.1562 505.115 85.2928C505.503 86.1392 504.873 86.5503 504.001 86.5503H503.105H503.13Z" fill="white"/>
<path fill-rule="evenodd" clip-rule="evenodd" d="M562.362 107.638C560.933 106.356 559.214 106.211 557.422 106.114C554.782 106.307 552.457 106.791 550.133 108.532C546.549 111.241 543.159 114.022 540.229 117.456C538.558 119.415 539.429 121.397 539.381 123.38C539.381 123.792 539.865 124.348 540.277 124.638C542.19 126.065 544.442 126.766 546.743 126.331C550.157 125.702 553.281 124.178 556.066 122.123C557.979 120.72 560.231 119.415 560.836 116.754C560.957 116.271 561.417 115.884 561.732 115.449C562.58 114.288 563.016 112.958 563.524 111.628C564.129 110.007 563.645 108.75 562.41 107.613L562.362 107.638Z" fill="#EFE452"/>
<path fill-rule="evenodd" clip-rule="evenodd" d="M532.77 51.6786C532.528 51.4126 532.358 51.1224 532.165 50.8322C530.93 49.1153 529.21 48.4623 526.547 48.5107C525.699 48.3898 524.343 48.8009 523.035 49.2362C520.275 50.1793 519.548 51.6544 520.977 54.2904C522.527 57.1197 523.253 60.3118 525.094 63.0203C526.087 64.4713 528.29 65.2935 529.816 64.3745C533.472 62.1981 536.814 56.1524 532.77 51.6544V51.6786Z" fill="#9CD7ED"/>
<path fill-rule="evenodd" clip-rule="evenodd" d="M538.339 143.646C538.339 143.646 538.388 144.057 538.291 144.371C538.049 145.193 537.419 145.774 536.669 145.967C535.869 146.185 535.53 145.314 535.022 144.879C534.659 144.589 534.683 144.105 534.61 143.67C534.368 142.171 535.095 140.139 535.942 139.97C536.886 139.776 538.315 141.759 538.364 143.621L538.339 143.646Z" fill="#9CD7ED"/>
<path fill-rule="evenodd" clip-rule="evenodd" d="M512.598 114.723C514.415 115.376 514.633 116.561 514.39 117.988C514.245 118.81 513.737 119.245 512.962 119.221C512.284 119.197 511.896 118.641 511.799 118.012C511.606 116.827 511.993 115.787 512.598 114.723V114.723Z" fill="white"/>
<path fill-rule="evenodd" clip-rule="evenodd" d="M172.392 245.89C169.825 247.994 167.331 248.671 164.933 249.372C163.65 249.735 162.1 249.783 160.696 249.275C160.235 249.106 159.703 248.768 159.267 248.816C156.409 249.251 154.956 246.978 153.019 245.672C152.147 245.092 151.13 244.681 150.573 243.738C149.532 241.948 148.321 240.304 147.643 238.272C147.086 236.579 147.619 234.766 146.747 233.121C146.384 232.468 146.868 231.574 146.989 230.848C147.183 229.687 148.103 228.647 148.273 227.487C148.612 224.778 151.033 223.666 152.39 221.755C153.068 220.812 153.939 220.038 154.86 219.289C155.441 218.805 156.095 218.539 156.748 218.394C158.855 217.91 160.962 217.137 163.093 217.33C164.473 217.451 165.975 217.499 167.306 218.128C167.573 218.249 167.839 218.37 168.106 218.418C169.728 218.66 171.205 219.24 172.634 219.99C173.966 220.691 175.055 221.61 175.733 222.965C176.121 223.787 176.944 224.222 177.501 224.923C178.978 226.834 179.342 229.059 180.068 231.259C180.601 232.879 179.85 234.258 180.238 235.709C180.286 235.878 180.189 236.144 180.068 236.313C178.857 238.03 178.276 240.086 176.775 241.658C175.201 243.302 173.433 244.729 172.367 245.841L172.392 245.89ZM165.926 236.773C168.638 234.451 171.326 231.888 173.99 229.276C174.523 228.768 174.256 228.164 173.796 227.874C172.367 227.051 171.544 225.673 170.576 224.44C169.655 223.279 168.275 223.037 167.452 223.835C166.314 224.948 165.127 226.036 163.94 227.076C162.366 228.43 160.502 229.397 158.976 230.703C157.112 232.299 155.538 234.21 153.261 235.298C152.995 235.419 152.777 235.951 152.801 236.579C152.922 239.312 155.174 240.642 156.506 242.577C156.651 242.819 156.966 242.698 157.208 242.77C158.637 243.181 159.291 241.924 160.26 241.392C162.415 240.207 163.819 238.127 165.975 236.725L165.926 236.773ZM175.37 233.097C173.651 234.451 171.907 235.419 170.769 236.845C169.268 238.732 167.258 239.965 165.66 241.682C164.425 243.036 162.705 243.641 161.156 244.922C162.245 244.922 163.093 245.261 163.916 245.261C165.079 245.261 166.386 245.648 167.379 244.656C168.469 243.568 169.994 243.157 171.06 241.996C171.593 241.392 172.271 240.956 172.803 240.328C173.506 239.53 173.53 238.345 174.232 237.789C175.951 236.483 175.394 234.887 175.346 233.073L175.37 233.097ZM152.099 232.251C156.264 228.502 160.478 225.359 164.546 221.997C161.083 220.522 157.669 220.836 154.908 224.198C153.213 226.278 151.155 228.672 152.075 232.251H152.099Z" fill="#E06765"/>
<path fill-rule="evenodd" clip-rule="evenodd" d="M333.862 130.853C333.862 133.682 331.247 135.979 328.002 135.979C324.757 135.979 322.142 133.682 322.142 130.853C322.142 128.023 324.757 125.726 328.002 125.726C331.247 125.726 333.862 128.023 333.862 130.853Z" fill="#E06765"/>
<path fill-rule="evenodd" clip-rule="evenodd" d="M260.198 130.853C260.198 133.682 257.583 135.979 254.338 135.979C251.093 135.979 248.478 133.682 248.478 130.853C248.478 128.023 251.093 125.726 254.338 125.726C257.583 125.726 260.198 128.023 260.198 130.853Z" fill="#E06765"/>
</g>
<defs>
<clipPath id="clip0_125_15963">
<rect width="599" height="378" fill="white"/>
</clipPath>
</defs>
</svg>
