<svg width="190" height="132" viewBox="0 0 190 132" fill="none" xmlns="http://www.w3.org/2000/svg">
<g clip-path="url(#clip0_125_15454)">
<path fill-rule="evenodd" clip-rule="evenodd" d="M96.4419 11.69C96.4419 11.69 95.304 9.81722 94.5193 8.53586C93.7346 7.23478 100.464 3.96238 102.857 3.31184C105.25 2.6613 111.842 2.44446 111.842 2.44446C111.842 2.44446 117.296 3.60754 118.865 4.63263C120.435 5.65772 123.083 9.87636 123.083 9.87636L118.022 11.7097C118.022 11.7097 114.157 8.94983 110.9 8.53586C107.644 8.12188 102.641 10.1326 102.641 10.1326L97.5601 12.7151L96.4419 11.7097V11.69Z" fill="#E06765"/>
<path fill-rule="evenodd" clip-rule="evenodd" d="M111.842 17.7222V14.6667C111.842 14.6667 123.534 8.181 130.479 8.53584C137.424 8.89068 140.268 13.129 140.268 13.129C140.268 13.129 144.408 17.9588 144.408 22.7688V30.2007L136.619 27.7957C136.619 27.7957 138.091 21.862 135.717 19.3584C133.323 16.8548 129.42 15.5538 129.42 15.5538L116.138 19.3584L111.881 17.7419L111.842 17.7222Z" fill="#EFE452"/>
<path fill-rule="evenodd" clip-rule="evenodd" d="M111.842 84.6487C111.842 84.6487 114.078 86.5609 114.117 89.3996C114.157 92.2383 111.842 94.2885 111.842 94.2885L114.117 96.457C114.117 96.457 115.687 98.7043 117.865 96.457C120.042 94.2097 120.905 91.5287 120.042 88.3943C119.179 85.2599 117.001 85.2204 117.001 85.2204L116.099 84.6487H111.842Z" fill="#9CD7ED"/>
<path fill-rule="evenodd" clip-rule="evenodd" d="M93.3032 79.4839C93.3032 79.4839 95.5397 81.3961 95.5789 84.2348C95.6181 87.0735 93.3032 89.1237 93.3032 89.1237L95.5789 91.2921C95.5789 91.2921 97.1483 93.5394 99.3259 91.2921C101.504 89.0448 102.367 86.3638 101.504 83.2294C100.64 80.095 98.4627 80.0556 98.4627 80.0556L97.5799 79.4839H93.3228H93.3032Z" fill="#9CD7ED"/>
<path fill-rule="evenodd" clip-rule="evenodd" d="M122.181 129.93C122.181 129.93 132.99 83.2491 136.619 80.3513C140.249 77.4731 186.39 46.8584 186.39 46.8584C186.39 46.8584 188.489 50.9391 188.764 55.3154C189.058 59.6918 186.253 90.3262 186.253 90.3262L130.479 129.93H122.181Z" fill="#9CD7ED"/>
<path d="M15 31.5C22.6 22.3 53.5 10.6666 68 5.99997L127 24L186 47.5V89.5C167.5 103.167 128.3 130.6 119.5 131C110.7 131.4 41.1667 102.167 7.50002 87.5L3 81.5L7.50002 54C6.83336 50.3333 7.40002 40.7 15 31.5Z" fill="#F2F2F2"/>
<path fill-rule="evenodd" clip-rule="evenodd" d="M0 78.5176C0 78.5176 0.215798 78.3796 0.235416 78.3008C0.510067 76.9405 0.941662 75.5803 0.96128 74.2201C1.00052 72.6233 1.86371 71.3025 2.11874 69.7846C2.31492 68.6215 2.78575 67.5373 2.80537 66.2954C2.86422 64.3043 3.39391 62.333 3.72741 60.3617C3.96283 58.8832 4.51213 57.4244 5.17914 56.005C5.55188 55.2165 5.84615 54.2506 5.92463 53.3635C6.10119 51.3724 7.12132 49.6771 7.59215 47.7846C7.65101 47.5283 7.82757 47.2721 7.72948 46.9961C7.18018 45.2416 8.02375 43.7631 8.65152 42.2452C9.10274 41.161 9.37739 40.0767 9.53433 38.8742C9.73051 37.4154 10.4956 36.0158 11.0449 34.6162C11.6727 33.0194 12.7909 31.7972 13.9876 30.5552C16.9695 27.4405 20.6381 25.5086 24.3655 23.5373C27.7398 21.7631 31.2514 20.2452 34.5472 18.3133C36.3129 17.2685 38.0981 16.0068 40.2365 15.6323C40.668 15.5534 41.1193 15.2972 41.4724 15.0212C42.9633 13.8581 44.6505 13.1484 46.4161 12.5767C47.6324 12.1825 48.6722 11.2757 49.9473 11.1771C51.4972 11.0785 52.3407 9.73802 53.7336 9.32404C55.205 8.89035 56.5586 8.12153 57.9711 7.49071C58.8343 7.11616 59.7563 7.0373 60.6391 6.66275C64.2096 5.08569 67.8978 4.3563 71.8606 5.00684C74.666 5.46024 77.3144 6.4459 80.0609 7.09644C80.8064 7.27386 81.6107 7.19501 82.2581 7.72727C82.5524 7.96383 82.7878 7.72727 82.984 7.54985C84.4553 6.20935 86.1229 5.22368 88.1239 5.02655C89.1048 4.92798 90.0661 4.82942 91.0862 5.06598C92.5576 5.4011 93.872 4.59286 94.8333 3.66633C95.9122 2.62153 97.2855 2.1287 98.5214 1.79357C100.11 1.35988 101.621 0.729059 103.19 0.295367C104.799 -0.158038 106.427 0.0982341 108.036 0.0390943C108.899 -0.000332233 109.802 -0.0397588 110.586 0.0982341C113.451 0.610779 116.295 1.2416 118.473 3.44949C118.885 3.86347 119.297 4.27745 119.003 4.84913C118.708 5.44053 118.1 5.4011 117.551 5.30254C116.648 5.14483 115.785 4.8097 115.04 4.3563C112.607 2.85809 109.9 2.91723 107.232 3.05522C106.545 3.09465 105.937 2.85809 105.29 2.93694C103.504 3.19322 101.876 3.78461 100.307 4.73085C98.7176 5.6968 97.0305 6.50504 95.3629 7.333C94.8725 7.56956 94.6371 7.72727 95.049 8.23981C95.1668 8.39752 95.2256 8.59465 95.3237 8.75236C95.5984 9.20576 95.4022 10.152 95.9515 10.0929C96.6185 10.0337 97.3051 9.60003 97.9133 9.14662C99.9535 7.60899 102.053 6.30791 104.78 6.22906C106.427 6.18963 108.095 6.26849 109.763 6.15021C111.253 6.05164 112.568 7.09644 113.863 7.82583C114.334 8.08211 114.432 8.77207 114.275 9.20576C114.098 9.69859 113.529 9.97458 112.96 9.99429C111.94 10.0534 110.959 9.77745 110.037 9.36347C109.311 9.02834 108.605 8.94949 107.801 9.06777C106.251 9.28461 104.642 9.14662 103.21 9.99429C101.582 10.9602 99.9732 11.9656 98.3449 12.9513C100.464 14.5086 101.758 12.8133 103.19 11.9262C103.642 11.6502 103.995 11.3348 104.564 11.3151C106.31 11.2362 108.075 10.3688 109.802 11.6108C110.331 11.9853 111.214 11.6108 111.685 11.2954C113.019 10.3294 114.647 10.2703 116.04 9.52117C118.257 8.35809 120.729 7.90469 123.083 7.09644C123.613 6.91902 124.162 6.89931 124.711 6.93874C126.497 7.05702 128.262 6.80074 130.028 6.72189C130.95 6.68246 131.911 6.66275 132.774 7.13587C132.971 7.25415 133.226 7.43157 133.422 7.37243C134.442 7.11616 135.148 7.64841 136.031 8.08211C137.228 8.6735 138.287 9.44232 139.405 10.1126C140.425 10.7237 141.191 11.5319 141.799 12.4782C143.976 15.8491 145.134 19.5552 145.134 23.6162C145.134 25.3509 145.487 27.0857 145.173 28.8402C145.094 29.333 145.585 29.5696 145.938 29.5696C147.115 29.609 148.076 30.5158 149.293 30.3384C149.43 30.3384 149.626 30.3975 149.705 30.4961C150.705 31.6395 152.275 31.9746 153.511 32.2309C154.943 32.5266 156.316 32.98 157.65 33.4925C158.729 33.9065 159.828 34.3796 160.907 34.6556C162.456 35.0696 164.065 35.3653 165.615 35.8778C167.067 36.3509 168.44 37.0212 169.833 37.652C170.5 37.9477 171.304 38.1448 171.912 38.1843C173.737 38.3223 174.933 39.8205 176.581 40.0373C178.131 40.2542 179.289 41.5158 180.662 41.6538C183.016 41.8904 184.075 43.9602 185.939 44.8671C186.979 45.3599 187.646 46.9764 188.156 48.2577C188.921 50.2093 189.372 52.161 189.529 54.3294C189.745 57.4244 189.47 60.5194 189.804 63.5749C189.882 64.3832 190.157 65.2111 190 65.9997C189.608 68.0104 190.02 70.0409 189.608 72.0714C189.215 73.9441 189.215 75.9352 188.96 77.8671C188.784 79.1681 188.646 80.4889 188.509 81.8097C188.47 82.2434 188.411 82.6771 188.47 83.0911C188.686 84.3527 188.234 85.4961 188.019 86.6986C187.94 87.0929 187.764 87.4674 187.764 87.842C187.685 90.5033 186.018 92.0803 184.075 93.5194C183.016 94.3079 181.505 94.4459 180.917 95.8653C180.858 95.9836 180.681 96.0624 180.525 96.1215C177.994 97.0875 175.954 98.9011 173.894 100.518C171.932 102.055 169.676 103.179 167.871 104.993C167.204 105.643 165.968 106.057 165.066 106.708C163.967 107.496 162.574 107.95 161.691 108.777C159.749 110.591 157.395 111.695 155.276 113.193C154.256 113.923 153.334 114.928 152.039 115.243C151.431 115.381 151.627 116.071 151.058 116.367C148.861 117.51 146.585 118.575 144.702 120.191C143.211 121.473 141.387 122.202 139.915 123.365C137.973 124.903 135.756 125.967 133.814 127.525C132.107 128.885 130.008 129.89 127.85 130.679C124.79 131.803 121.788 132.335 118.512 131.704C116.256 131.27 114.177 130.442 112.038 129.733C111.567 129.575 111.155 129.713 110.685 129.555C108.33 128.747 105.937 128.037 103.544 127.288C99.9339 126.184 96.4419 124.745 93.1265 122.912C92.9499 122.813 92.7734 122.695 92.5968 122.675C90.0072 122.36 87.7904 120.98 85.3774 120.191C81.8854 119.048 78.2757 118.161 74.9799 116.406C73.6262 115.677 72.096 115.105 70.5854 114.593C69.3691 114.179 68.0743 113.528 66.8973 112.819C65.7202 112.109 64.3469 111.498 63.0129 111.36C62.0124 111.281 61.4631 110.591 60.6391 110.355C58.5989 109.763 56.5782 109.014 54.636 108.206C52.3407 107.26 49.967 106.609 47.6717 105.663C45.4941 104.756 43.3949 103.613 41.0604 103.041C40.5503 102.903 40.0991 102.528 39.6087 102.312C38.1962 101.661 36.6856 101.227 35.2535 100.616C34.0176 100.084 32.6639 99.9262 31.5065 99.2362C29.6624 98.1717 27.6221 97.462 25.6995 96.6144C24.189 95.9441 22.541 95.2739 20.8539 94.9387C20.2654 94.8205 19.6376 94.5642 19.1668 94.1896C17.7543 93.0857 15.9886 92.79 14.4977 91.8635C13.2421 91.0552 11.6923 90.8975 10.4564 89.9119C9.41662 89.1036 7.92566 89.0445 6.86629 88.0982C5.5715 86.9154 3.96283 86.1663 2.5111 85.2004C1.80485 84.7273 2.00103 83.8796 1.76562 83.2291C1.39288 82.1448 0.745483 81.2775 0.0980898 80.3904V78.4979L0 78.5176ZM184.939 72.3868C184.978 71.6771 184.939 70.928 185.115 70.1986C185.664 67.833 185.704 65.3294 185.468 63.0033C185.213 60.6574 186.331 58.2326 185.056 55.9853C185.056 55.9656 185.056 55.9065 185.056 55.8671C185.37 54.0337 184.84 52.3384 184.37 50.5839C183.605 47.6663 181.8 45.833 179.249 44.4728C177.935 43.7828 176.562 43.2506 175.169 42.6986C174.011 42.2452 172.874 41.7326 171.657 41.3975C170.5 41.0624 169.068 41.299 168.204 40.609C166.615 39.3671 164.673 39.2882 162.966 38.4997C161.319 37.7309 159.455 37.376 157.728 36.8043C155.727 36.1735 153.687 35.6215 151.745 34.7542C148.861 33.4728 145.742 32.7434 142.819 31.4226C142.721 31.3832 142.603 31.3043 142.505 31.2846C140.347 30.9495 138.542 29.5893 136.404 29.2542C135.089 29.0373 133.991 28.1305 132.637 28.1699C132.323 28.1699 132.107 28.1108 131.931 27.8545C131.342 26.9871 130.342 26.79 129.479 26.6914C128.105 26.5534 127.085 25.6861 125.869 25.2918C123.887 24.661 122.102 23.4979 119.983 23.143C119.003 22.9853 117.904 22.7882 117.021 22.3939C115.157 21.5857 113.156 21.3294 111.273 20.5803C110.39 20.2452 109.684 19.4567 108.644 19.4764C108.095 19.4764 107.408 19.6144 107.055 19.3187C105.662 18.195 103.858 18.3921 102.308 17.6628C99.62 16.4208 96.6381 15.8097 93.8327 14.8043C92.5968 14.3509 91.1255 14.3115 90.1053 13.5821C88.5359 12.4782 86.6918 12.2613 85.0243 11.6699C83.1213 10.9997 81.1988 10.1717 79.1193 10.0534C78.7465 10.0337 78.3542 9.89573 78.001 9.73802C75.9608 8.8115 73.7635 8.53551 71.6644 7.84555C70.5854 7.49071 69.4868 7.84555 68.4471 7.54985C67.6231 7.31329 66.8188 7.1753 65.9556 7.51042C64.6216 8.04268 63.2483 8.47637 61.9143 8.9692C61.2669 9.20576 60.5214 9.16634 59.9133 9.5606C57.9907 10.8222 55.8327 11.5516 53.7925 12.557C51.0459 13.8975 48.1425 14.9423 45.3175 16.1054C44.6309 16.3814 44.1012 16.9136 43.4538 17.2882C42.1786 17.9979 40.7073 18.2344 39.5302 19.161C39.1967 19.4172 38.8043 19.5947 38.412 19.7918C35.2731 21.428 32.0558 22.9262 28.9169 24.5624C26.8178 25.6663 24.5813 26.514 22.6195 27.9334C20.8931 29.1753 18.9706 30.2004 17.4404 31.6789C16.8911 32.2309 16.1652 32.5068 15.6748 33.1771C14.1053 35.3061 14.1642 38.1448 12.4966 40.195C12.4182 40.2739 12.4182 40.4119 12.3986 40.5301C12.3201 42.5606 11.7904 44.4925 11.3392 46.4441C11.1626 47.2129 10.8291 47.9226 10.6526 48.6914C10.3387 50.0714 10.4368 51.5301 9.80898 52.8904C9.12235 54.3688 9.14197 56.0839 8.31802 57.5427C8.0826 57.9764 8.2984 58.5678 8.00413 59.0212C7.43521 59.9674 7.33712 61.0122 7.33712 62.0767C7.33712 63.7721 6.86629 65.3886 6.25813 66.9262C5.84615 67.971 5.66959 69.1735 5.7873 70.0606C5.94424 71.3814 6.0031 72.4656 5.25762 73.5696C5.13991 73.747 5.17914 74.023 5.13991 74.2595C4.92411 75.876 4.37481 77.4728 5.06144 79.109C5.10067 79.1879 5.08105 79.385 5.0222 79.4441C4.29633 79.9764 4.70831 80.8043 4.96335 81.1198C5.88539 82.2828 6.3366 83.8205 7.76871 84.6484C9.78936 85.8312 11.5942 87.3491 13.811 88.3151C14.89 88.7882 16.0867 88.9656 17.1265 89.5767C17.7935 89.971 18.2839 90.6413 19.0687 90.8384C21.4228 91.4101 23.4631 92.79 25.8369 93.342C28.7011 94.0122 31.0552 95.9441 33.8606 96.8509C35.3712 97.3438 36.921 97.8366 38.412 98.428C39.8049 98.98 41.0212 99.9853 42.6102 99.9656C42.6495 99.9656 42.6887 100.005 42.7083 100.044C43.7481 101.484 45.5529 101.346 46.9654 102.036C47.809 102.449 48.6526 103.1 49.555 103.199C50.4966 103.297 51.301 103.593 52.0465 104.046C52.6939 104.441 53.4197 104.519 54.1063 104.736C55.715 105.268 57.3629 105.722 58.9128 106.432C60.541 107.161 62.2086 107.772 63.8957 108.363C65.4848 108.915 67.1327 109.29 68.6825 109.941C69.8007 110.414 70.8012 111.163 71.9587 111.656C73.4497 112.306 75.0387 112.74 76.412 113.43C78.2365 114.337 80.2767 114.573 82.062 115.579C83.3764 116.328 84.9458 116.466 86.2994 117.234C87.7708 118.062 89.4383 118.595 91.047 119.048C92.9107 119.561 94.7155 120.29 96.3634 121.138C97.9133 121.926 99.5416 122.616 101.15 123.208C103.191 123.976 105.152 125.1 107.389 125.297C108.056 125.356 108.782 125.553 109.351 125.889C110.743 126.697 112.332 127.071 113.823 127.426C115.511 127.84 117.178 128.333 118.846 128.786C121.121 129.417 123.377 129.082 125.477 128.018C126.359 127.584 127.36 127.544 128.184 126.973C129.479 126.046 130.656 124.942 132.127 124.272C132.343 124.174 132.539 124.036 132.696 123.858C133.638 122.853 134.913 122.281 135.894 121.355C137.071 120.231 138.66 119.935 139.994 119.147C140.896 118.595 141.387 117.688 142.368 117.234C143.368 116.761 144.388 116.288 145.31 115.677C146.939 114.613 148.488 113.45 150.019 112.227C150.646 111.734 151.451 111.636 152 111.163C153.04 110.276 154.099 109.428 155.276 108.738C155.708 108.482 156.218 108.482 156.649 108.147C159.376 106.037 162.339 104.322 165.183 102.39C165.968 101.858 166.812 101.503 167.577 100.971C168.852 100.104 169.656 98.6843 171.167 98.1323C171.579 97.9746 171.893 97.6789 172.226 97.4423C173.227 96.7327 173.933 95.7273 175.11 95.1359C176.856 94.2488 178.308 92.79 179.916 91.6269C180.995 90.8384 181.8 89.9119 181.976 88.5319C182.035 88.0588 182.329 87.9208 182.761 87.842C183.114 87.7828 183.487 87.6646 183.565 87.1323C183.899 84.8258 184.213 82.4997 184.37 80.2129C184.487 78.4585 185.194 76.6843 184.703 74.8904C184.605 74.4764 184.684 74.0821 184.88 73.6484C185.076 73.2542 185.331 72.7219 184.88 72.2685L184.939 72.3868ZM140.739 27.4405C140.739 26.0015 140.739 24.6412 140.739 23.3007C140.72 20.3043 140.19 17.4262 138.601 14.824C137.228 12.5767 135.246 11.0391 132.833 10.2506C129.086 8.98892 125.339 9.71831 121.69 10.9208C119.827 11.5319 118.061 12.3993 116.158 12.9316C115.275 13.1878 114.451 13.661 113.529 13.8778C112.156 14.1932 113.019 15.3563 112.725 16.0857C112.666 16.2237 112.686 16.3814 112.666 16.5391C112.548 17.3868 112.803 17.6628 113.686 17.3276C115.785 16.4997 117.865 15.652 119.983 14.9029C122.789 13.8975 125.535 12.9316 128.557 13.109C129.694 13.1681 130.911 13.0498 131.911 13.661C132.421 13.9764 132.912 14.3509 133.481 14.6072C134.03 14.8635 134.618 15.0803 135.07 15.5534C137.895 18.4907 138.071 22.0982 137.699 25.8438C137.64 26.3957 137.64 26.652 138.209 26.7703C139.111 26.9477 140.033 27.1251 140.739 27.4602V27.4405ZM117.669 19.299C119.827 20.3043 122.161 20.5409 124.299 21.5068C125.516 22.0588 126.889 22.6305 128.262 22.9853C129.439 23.281 130.538 23.8921 131.656 24.4244C132.186 24.6807 132.794 25.1932 133.265 24.8778C133.755 24.5624 133.696 23.7739 133.696 23.1628C133.696 22.9262 133.657 22.6896 133.598 22.4728C133.343 21.6054 133.304 20.7183 133.049 19.8312C132.461 17.8796 130.518 15.9674 128.478 15.928C127.517 15.9083 126.673 16.2237 125.771 16.4011C123.319 16.9136 121.082 18.057 118.669 18.6287C118.316 18.7076 117.924 18.8455 117.649 19.2792L117.669 19.299ZM86.7506 9.48175C88.1435 9.36347 88.4574 9.46203 89.9091 10.4674C90.5565 10.9208 91.3413 11.0588 91.9298 10.6645C92.6164 10.2111 92.381 8.98892 91.6159 8.27924C91.2235 7.9244 90.7919 7.74698 90.2426 7.74698C88.889 7.74698 87.9866 8.59465 86.731 9.48175H86.7506ZM104.838 14.9226C105.604 15.6126 106.388 15.8491 107.134 16.1054C107.526 16.2434 108.154 16.2828 108.429 15.8491C108.742 15.3563 108.527 14.7649 108.213 14.3312C107.899 13.8975 107.428 13.8581 106.938 14.0355C106.29 14.2918 105.662 14.5678 104.838 14.9226Z" fill="#2E736C"/>
<path fill-rule="evenodd" clip-rule="evenodd" d="M86.7505 9.48208C87.9864 8.59498 88.9085 7.76703 90.2621 7.74731C90.8114 7.74731 91.243 7.92473 91.6354 8.27957C92.4005 8.98925 92.6359 10.2115 91.9492 10.6649C91.3607 11.0591 90.576 10.9211 89.9286 10.4677C88.4769 9.46237 88.163 9.34409 86.7701 9.48208H86.7505Z" fill="#F2F2F2"/>
<path fill-rule="evenodd" clip-rule="evenodd" d="M10.7702 75.3638C10.7113 73.3728 11.7903 70.672 12.4377 67.8925C13.7325 62.2545 15.6354 56.7939 17.0087 51.1756C17.3422 49.7957 18.3623 48.7903 19.7944 48.2383C20.3241 48.0412 20.7949 48.1989 21.1873 48.2975C25.2286 49.2634 29.113 50.7025 32.8011 52.6147C34.0763 53.2652 35.4692 53.6989 36.8228 54.2312C39.4124 55.2168 42.002 56.2419 44.6111 57.1487C46.5141 57.7993 48.3582 58.5484 50.0846 59.5735C51.2616 60.2832 52.5172 60.8548 53.8512 61.1505C56.4604 61.7222 58.9519 62.629 61.4237 63.6344C65.0727 65.1129 68.8786 66.2168 72.5079 67.7742C74.3716 68.5627 76.1961 69.4892 77.6086 70.9677C78.4914 71.8745 78.7072 72.8799 78.3737 74.2401C77.7655 76.7634 76.8042 79.1882 76.3138 81.7312C75.6468 85.1613 74.8228 88.552 73.9008 91.9229C73.1553 94.6631 72.5079 97.4624 70.8011 99.8674C69.7614 101.346 68.8786 101.858 67.1522 101.385C63.1501 100.262 59.3246 98.6649 55.4206 97.2652C47.7304 94.4857 40.1383 91.4104 32.5265 88.4534C28.4852 86.8961 24.5616 84.9642 20.5791 83.2294C18.1073 82.1452 15.5962 81.1398 13.1243 80.0753C11.3783 79.3262 10.6917 78.2222 10.7505 75.3835L10.7702 75.3638ZM38.7454 66.0197C38.9219 68.5627 38.5296 70.81 38.0784 73.0179C37.8429 74.2007 37.9018 75.3441 37.9018 76.4875C37.9018 77.7097 38.4119 78.0054 39.6282 77.8082C40.099 77.7294 40.5895 77.7097 41.0799 77.6703C41.0799 78.6362 42.3158 78.6756 42.4728 79.4444C42.7278 80.6864 43.3752 81.1004 44.6111 80.9426C45.3959 80.8441 46.004 80.4892 46.5729 80.0358C47.0438 79.6613 47.5538 79.1882 48.1031 79.2867C48.7702 79.4247 48.9271 77.828 49.5941 78.8333C49.908 79.3262 49.8884 80.1344 49.7707 80.7652C49.496 82.2043 50.4965 82.8351 51.4186 83.3871C52.8703 84.2742 54.4005 84.9839 55.9307 85.7133C57.9121 86.6792 59.8543 87.0143 61.7769 85.4176C62.4046 84.905 62.6989 84.1953 63.2874 83.6828C64.6215 82.5788 65.5828 81.1004 66.701 79.7993C66.8579 79.6219 66.7991 79.1882 67.1914 79.3064C67.4857 79.405 67.5446 79.7204 67.4857 79.9964C66.9953 82.0663 66.8187 84.1756 66.701 86.2652C66.6421 87.3495 66.3282 88.5323 67.1326 89.5968C67.8584 90.5824 68.7609 91.1344 69.9379 91.2921C70.7815 91.4104 71.7428 91.8441 72.4098 91.0753C72.8218 90.6021 71.6839 89.5573 70.3499 89.3602C69.5652 89.2419 69.3298 88.8871 69.3886 88.2168C69.5848 85.2401 69.8398 82.2831 69.9772 79.3064C70.0556 77.7294 70.3892 76.1326 70.0164 74.5358C69.8006 73.6487 69.1336 73.3925 68.6432 74.0824C67.4268 75.7975 65.8182 77.138 64.4449 78.6756C63.2286 80.0358 62.0123 81.4158 60.9725 82.9534C60.0112 84.3728 58.638 84.8853 57.5786 84.3925C56.3427 83.8208 55.1656 83.1505 53.9101 82.5986C52.7134 82.0663 52.1837 81.1989 52.3995 79.8978C52.4583 79.543 52.478 79.1882 52.5172 78.853C52.7918 77.0789 51.4971 75.8566 49.8099 75.9552C48.1228 76.0538 46.8476 76.862 45.592 77.8082C45.2782 78.0448 45.1212 78.6362 44.5719 78.3405C44.0815 78.0842 44.4542 77.6308 44.4542 77.2957C44.4542 74.8513 43.591 74.181 41.2369 74.8513C40.5502 75.0484 40.511 74.6935 40.7268 74.2599C41.0014 73.6487 40.8641 72.9982 40.9622 72.3871C41.1584 71.2437 41.0799 70.0806 41.1191 68.957C41.1584 67.5376 41.59 66.1774 41.4919 64.7383C41.433 63.9104 41.0603 63.043 41.5507 62.1165C41.7862 61.6631 41.59 60.776 41.2761 60.2832C40.923 59.7312 40.1775 60.086 39.8047 60.3817C39.0985 60.914 38.2745 61.5054 37.9803 62.2742C37.5487 63.3387 36.8424 64.147 36.195 65.0143C35.7831 65.586 34.9787 65.8423 34.7433 66.3943C34.1548 67.7545 32.9973 68.6219 32.1537 69.7652C31.8987 70.1201 31.6044 70.2778 31.0747 70.1201C29.8584 69.7652 28.5833 70.1201 27.7789 70.9874C26.7196 72.1308 25.7779 72.4265 24.385 71.638C23.3453 71.0466 22.0897 70.8889 20.9519 70.3566C19.8729 69.8441 18.7547 69.1541 17.4795 69.095C17.2048 69.095 16.8125 68.8978 16.6163 69.233C16.4005 69.5681 16.7144 69.8047 16.891 70.0609C17.7345 71.3423 19.0882 71.8548 20.4222 72.328C21.6581 72.7616 22.9137 73.1165 24.1104 73.6685C25.464 74.2796 26.9354 74.4964 28.2498 73.3728C29.7015 72.1308 29.7211 72.1308 30.1527 74.043C30.2508 74.5358 30.5058 74.7921 30.957 74.9498C31.4475 75.1272 31.6633 74.7527 31.8987 74.457C32.3695 73.8459 32.8207 73.2348 33.2916 72.6434C34.7237 70.8889 36.3324 69.2527 37.5291 67.3011C37.8233 66.828 38.2157 66.4731 38.8042 66.0197H38.7454Z" fill="#2E736C"/>
<path fill-rule="evenodd" clip-rule="evenodd" d="M19.4809 36.8638C21.1092 36.6272 22.5216 37.3961 23.9341 37.9086C26.9749 39.0125 30.0157 40.1362 33.0369 41.2599C36.0384 42.3835 39.0988 43.3495 42.0808 44.552C43.6502 45.2025 45.2393 45.9319 46.9852 46.267C47.9269 46.4444 49.0059 46.8781 49.8299 47.5681C50.4772 48.1004 51.3208 48.1989 52.0075 48.2975C53.6161 48.5143 54.9109 49.4409 56.4607 49.8154C57.677 50.1111 58.9326 50.7814 60.1489 51.0771C61.8753 51.5108 63.3466 52.4767 65.0534 52.9498C67.2114 53.5609 69.5459 54.0932 71.4488 55.4928C72.2532 56.0842 73.2733 55.828 74.1954 56.2222C76.8046 57.3459 79.5511 58.1344 82.1799 59.1989C84.3379 60.0663 86.6135 60.5986 88.7519 61.4857C90.3998 62.1756 92.087 62.7079 93.7545 63.2993C95.8928 64.0484 97.992 64.9552 100.13 65.724C101.935 66.3746 103.936 66.69 105.525 67.9122C105.604 67.9713 105.741 67.991 105.859 68.0108C110.371 68.9176 114.51 70.948 118.885 72.3082C120.435 72.8011 122.024 73.2348 123.593 73.6685C125.673 74.2401 127.458 75.5215 129.538 76.1523C130.205 76.3692 131.029 76.8423 130.715 77.7688C130.401 78.6756 129.381 78.7348 128.635 78.6756C127.282 78.5968 125.791 78.5376 124.633 77.966C123.338 77.3351 121.828 77.2957 120.71 76.3495C120.396 76.0735 119.984 76.0341 119.631 75.9355C116.963 75.2652 114.51 74.0233 111.881 73.2545C109.41 72.5448 107.055 71.4606 104.584 70.7312C102.426 70.1004 100.385 69.1344 98.0704 68.8781C96.501 68.7007 94.9119 67.9319 93.4014 67.2025C92.1654 66.6111 90.7529 66.3548 89.4385 65.9211C87.8691 65.3889 86.3193 64.7186 84.7106 64.2455C82.6703 63.6541 80.7674 62.7473 78.8448 61.9194C77.55 61.3477 76.1179 61.052 74.8231 60.4803C70.6053 58.647 66.152 57.405 61.9145 55.5914C58.0105 53.9158 53.9692 52.595 49.9476 51.2151C48.4762 50.7025 46.9852 50.1505 45.5531 49.4409C43.9445 48.6523 42.1985 48.1398 40.5113 47.509C37.4705 46.405 34.3513 45.4391 31.3693 44.1774C28.7013 43.0341 25.8371 42.4427 23.2279 41.043C22.0116 40.3925 20.501 39.9785 19.0493 39.6828C18.2057 39.5054 17.009 39.3082 17.2248 38.0072C17.4406 36.7849 18.6765 37.0609 19.5005 36.8441L19.4809 36.8638Z" fill="#2E736C"/>
<path fill-rule="evenodd" clip-rule="evenodd" d="M123.005 125.987C121.004 126.007 120.258 124.923 121.023 123.109C121.396 122.222 121.671 121.296 121.867 120.349C121.906 120.133 121.887 119.896 122.122 119.719C122.985 119.048 123.162 118.082 123.123 117.097C123.103 116.151 123.476 115.263 123.456 114.317C123.456 114.1 123.495 113.884 123.691 113.686C124.79 112.642 124.594 111.281 124.574 109.961C124.555 108.699 125.163 107.556 125.418 106.333C125.634 105.249 125.81 104.106 126.301 103.14C127.321 101.228 126.968 99.0591 127.615 97.1075C129.067 92.7312 130.499 88.3351 132.186 84.0376C132.382 83.5251 132.696 83.0717 132.99 82.5986C133.363 81.9875 133.952 81.8298 134.501 82.2043C135.109 82.5986 135.403 83.4068 135.011 83.9588C134.619 84.5108 134.599 84.9247 134.579 85.5556C134.521 86.6201 134.266 87.6846 134.069 88.7491C133.579 91.371 132.833 93.9731 132.245 96.5753C131.774 98.6452 131.323 100.695 131.303 102.864C131.303 103.889 130.734 105.032 130.322 106.077C129.734 107.615 129.616 109.251 129.185 110.808C128.753 112.366 128.439 113.962 127.929 115.52C127.262 117.55 126.791 119.62 126.203 121.67C125.849 122.912 125.379 124.115 124.731 125.238C124.339 125.909 123.574 125.79 123.024 125.987H123.005Z" fill="#2E736C"/>
<path fill-rule="evenodd" clip-rule="evenodd" d="M140.739 79.5627C140.21 79.4839 139.641 79.4445 139.131 79.2868C138.581 79.1291 137.993 78.9122 137.914 78.1828C137.856 77.4731 138.424 76.9212 138.778 76.6846C140.072 75.8369 141.485 75.1273 142.917 74.5359C143.427 74.319 143.643 73.8459 143.917 73.5502C144.957 72.4265 146.625 72.4265 147.586 70.9678C148.135 70.1201 149.685 69.6667 150.764 68.9767C152.451 67.8925 154.178 66.8674 155.767 65.6452C157.356 64.4427 159.023 63.319 160.514 62.0376C162.26 60.5394 164.418 59.8298 166.223 58.509C166.753 58.1344 167.027 57.5825 167.479 57.1882C168.911 55.9265 170.676 55.2169 172.265 54.2312C173.364 53.5412 174.404 52.6541 175.836 52.7921C176.307 52.8316 176.778 52.8118 177.229 52.9498C177.876 53.147 178.269 54.1721 177.817 54.5466C176.209 55.8871 174.502 57.0896 172.677 58.095C172.442 58.233 172.108 58.1541 171.952 58.4104C171.03 59.9875 169.185 60.5197 168.008 61.8011C167.949 61.8602 167.891 61.9391 167.832 61.9391C165.831 62.2545 164.556 63.8907 162.829 64.7187C162.044 65.0932 161.299 65.5269 160.809 66.2563C160.318 67.0251 159.651 67.4982 158.749 67.6559C158.572 67.6954 158.278 67.7545 158.219 67.8925C157.297 70.1004 154.805 70.1398 153.314 71.5592C151.451 73.3333 148.9 74.0825 147.056 76.0144C146.174 76.9409 144.741 77.7491 143.368 78.2222C142.427 78.5377 141.877 79.681 140.7 79.5233L140.739 79.5627Z" fill="#2E736C"/>
<path fill-rule="evenodd" clip-rule="evenodd" d="M86.0049 84.0376C86.1618 82.3817 86.515 80.7652 87.4174 79.3459C88.5552 77.5323 90.4778 76.8817 92.4396 76.7634C94.7741 76.6254 96.9517 77.2563 98.58 79.2079C99.2078 79.9767 99.0312 80.8638 99.3255 81.672C99.6198 82.4606 99.502 83.3477 99.9533 84.1362C100.071 84.3333 100.444 85.1021 99.7178 85.5161C99.4628 85.6541 99.3255 86.3244 99.3843 86.6989C99.4628 87.1918 99.0116 87.5072 99.0116 87.586C99.0508 88.9659 97.7953 88.9462 97.089 89.5573C95.7158 90.7599 93.3028 91.4892 91.6745 90.681C89.4773 89.5968 87.4958 88.2168 86.4169 85.871C86.1422 85.2796 85.946 84.7079 86.0245 84.0573L86.0049 84.0376ZM95.8923 83.4265C96.1278 81.948 95.3234 81.1398 94.3229 80.3118C92.7535 79.0108 90.3993 79.5824 89.7715 81.5143C89.2026 83.2688 89.4576 84.9444 90.262 86.5215C90.8701 87.7043 93.7147 88.0394 94.4995 86.9749C95.2646 85.9104 96.167 84.8459 95.8923 83.4265Z" fill="#2E736C"/>
<path fill-rule="evenodd" clip-rule="evenodd" d="M112.137 96.5556C108.331 96.9301 105.937 94.8602 104.015 91.9427C103.289 90.8387 103.25 89.6559 103.544 88.4337C104.054 86.4624 104.525 84.5502 106.585 83.3871C108.919 82.086 113.412 82.0466 115.53 84.4516C115.982 84.9642 116.315 85.4373 116.472 86.1864C116.727 87.3889 116.747 88.6505 117.335 89.7939C117.551 90.2079 117.218 90.8387 117.061 91.371C116.786 92.3172 116.139 93.1846 116.197 94.2294C116.197 94.2688 116.178 94.328 116.158 94.328C114.648 94.7222 113.843 96.4767 112.137 96.5556ZM113.294 89.2617C113.333 87.6057 113.255 87.448 111.705 86.0287C110.155 84.6093 107.742 85.2599 107.134 87.2509C106.643 88.8674 106.82 90.4247 107.546 91.9427C108.213 93.3226 110.94 93.8548 111.862 92.6721C112.666 91.6272 113.549 90.543 113.314 89.2617H113.294Z" fill="#2E736C"/>
<path fill-rule="evenodd" clip-rule="evenodd" d="M90.2034 97.8369C89.1048 97.8764 88.2809 97.3441 87.4177 97.009C86.6526 96.7133 85.9267 96.319 85.1812 95.9839C84.3965 95.6093 83.9845 94.8997 84.2788 94.1703C84.5338 93.5394 85.3186 93.4014 86.0248 93.638C87.6139 94.1703 89.1441 94.8405 90.635 95.629C91.3805 96.0233 91.6748 96.6541 91.4982 97.3835C91.3217 98.1326 90.5566 97.6792 90.2034 97.8566V97.8369Z" fill="#2E736C"/>
<path fill-rule="evenodd" clip-rule="evenodd" d="M101.091 102.292C99.8357 102.47 98.9922 101.898 98.0897 101.563C97.2854 101.247 96.5399 100.853 95.7552 100.479C94.9705 100.124 94.5585 99.414 94.8331 98.6649C95.0882 98.0144 95.8533 97.8764 96.5399 98.1129C98.2467 98.6649 99.8946 99.3549 101.425 100.262C102.013 100.617 102.268 101.208 102.131 101.858C101.974 102.568 101.307 102.233 101.072 102.272L101.091 102.292Z" fill="#2E736C"/>
<path fill-rule="evenodd" clip-rule="evenodd" d="M87.7706 104.224C86.7308 104.263 85.9265 103.731 85.0633 103.396C84.2982 103.1 83.5723 102.706 82.8268 102.371C82.0421 101.996 81.6105 101.287 81.9244 100.557C82.1794 99.9265 82.9642 99.7885 83.6508 100.005C85.2399 100.538 86.7701 101.228 88.261 101.996C89.0065 102.371 89.3008 103.022 89.1242 103.731C88.9477 104.461 88.2022 104.086 87.751 104.224H87.7706Z" fill="#2E736C"/>
<path fill-rule="evenodd" clip-rule="evenodd" d="M111.332 106.826C110.194 106.846 109.351 106.314 108.448 105.939C107.722 105.643 107.036 105.289 106.329 104.953C105.545 104.579 105.113 103.889 105.407 103.14C105.662 102.509 106.447 102.351 107.134 102.588C108.762 103.14 110.331 103.81 111.842 104.638C112.529 105.013 112.764 105.643 112.607 106.314C112.45 107.063 111.665 106.629 111.312 106.806L111.332 106.826Z" fill="#2E736C"/>
<path fill-rule="evenodd" clip-rule="evenodd" d="M98.7177 108.66C97.8545 108.778 97.2856 108.581 96.6971 108.324C95.5592 107.812 94.4214 107.339 93.2836 106.787C92.5577 106.432 92.2046 105.722 92.4792 105.032C92.7146 104.461 93.4405 104.263 94.0879 104.461C95.8339 104.993 97.521 105.722 99.0905 106.649C99.679 106.984 99.934 107.595 99.7771 108.265C99.6005 108.975 98.9335 108.6 98.6981 108.66H98.7177Z" fill="#2E736C"/>
<path fill-rule="evenodd" clip-rule="evenodd" d="M109.095 113.154C108.37 113.253 107.859 113.056 107.349 112.839C106.212 112.326 105.054 111.833 103.916 111.301C103.19 110.966 102.798 110.276 103.053 109.566C103.288 108.896 104.054 108.738 104.74 108.955C106.467 109.487 108.075 110.256 109.664 111.124C110.272 111.459 110.429 112.05 110.312 112.642C110.155 113.41 109.409 113.036 109.095 113.154Z" fill="#2E736C"/>
<path fill-rule="evenodd" clip-rule="evenodd" d="M184.939 72.3871C184.939 72.3871 184.899 72.4259 184.86 72.4454H184.821C184.86 72.4454 184.899 72.4259 184.958 72.4065L184.939 72.3871Z" fill="#2E736C"/>
<path fill-rule="evenodd" clip-rule="evenodd" d="M38.7455 66.0197C38.1374 66.4928 37.7646 66.828 37.4704 67.3011C36.2737 69.2527 34.665 70.8692 33.2329 72.6434C32.7424 73.2348 32.3108 73.8656 31.84 74.457C31.6046 74.7527 31.3888 75.1272 30.8984 74.9498C30.4668 74.7921 30.2117 74.5358 30.094 74.043C29.682 72.1505 29.6428 72.1505 28.1911 73.3728C26.8767 74.4964 25.4053 74.2796 24.0517 73.6685C22.8354 73.1165 21.5994 72.7616 20.3635 72.328C19.0295 71.8548 17.6758 71.3423 16.8323 70.0609C16.6557 69.8047 16.3614 69.5681 16.5576 69.233C16.7734 68.8978 17.1462 69.0753 17.4208 69.095C18.696 69.1541 19.7946 69.8441 20.8932 70.3566C22.0114 70.8889 23.267 71.0466 24.3263 71.638C25.7388 72.4462 26.6609 72.1505 27.7202 70.9875C28.5246 70.1201 29.7997 69.7652 31.0161 70.1201C31.5457 70.2778 31.84 70.1201 32.0951 69.7652C32.9386 68.6219 34.0961 67.7545 34.6846 66.3943C34.92 65.8423 35.7244 65.586 36.1364 65.0143C36.7837 64.1272 37.49 63.3387 37.9216 62.2742C38.2159 61.5054 39.0594 60.914 39.7461 60.3817C40.1384 60.086 40.8839 59.7509 41.2174 60.2832C41.5313 60.776 41.7471 61.6631 41.4921 62.1165C41.0016 63.043 41.3744 63.9104 41.4332 64.7384C41.5313 66.1774 41.0997 67.5376 41.0605 68.957C41.0212 70.0806 41.0997 71.2437 40.9035 72.3871C40.8054 72.9982 40.9428 73.6487 40.6681 74.2599C40.4719 74.6935 40.4915 75.0484 41.1782 74.8513C43.5323 74.181 44.3759 74.8513 44.3955 77.2957C44.3955 77.6505 44.0228 78.0842 44.5132 78.3405C45.0625 78.6165 45.2195 78.0448 45.5334 77.8082C46.7889 76.862 48.0837 76.0538 49.7512 75.9552C51.4384 75.8566 52.7332 77.0789 52.4585 78.853C52.3996 79.1882 52.3996 79.543 52.3408 79.8978C52.125 81.1989 52.6547 82.0466 53.8514 82.5986C55.0873 83.1505 56.284 83.8208 57.5199 84.3925C58.5793 84.8853 59.9329 84.3925 60.9138 82.9534C61.9536 81.4158 63.1895 80.0358 64.3862 78.6756C65.7595 77.138 67.3682 75.7975 68.5845 74.0824C69.0749 73.3925 69.7419 73.6685 69.9577 74.5358C70.3305 76.1326 69.997 77.7294 69.9185 79.3065C69.7812 82.2832 69.5261 85.2401 69.33 88.2168C69.2907 88.8871 69.5261 89.2617 70.2912 89.3602C71.6449 89.5574 72.7631 90.6022 72.3511 91.0753C71.7037 91.8441 70.7228 91.4104 69.8793 91.2921C68.7022 91.1344 67.7997 90.5824 67.0739 89.5968C66.2892 88.5323 66.5834 87.3495 66.6423 86.2652C66.7796 84.1559 66.9366 82.0466 67.427 79.9964C67.5055 79.7204 67.427 79.405 67.1327 79.3065C66.7404 79.1685 66.7992 79.6021 66.6423 79.7993C65.5241 81.1201 64.5628 82.5789 63.2288 83.6828C62.6402 84.1756 62.3263 84.905 61.7182 85.4176C59.7956 86.9946 57.8534 86.6792 55.872 85.7133C54.3418 84.9839 52.8116 84.2545 51.3599 83.3871C50.4575 82.8351 49.4373 82.2043 49.712 80.7652C49.8297 80.1344 49.8493 79.3065 49.5354 78.8333C48.8684 77.828 48.7115 79.405 48.0445 79.2867C47.4952 79.1882 46.9851 79.6416 46.5143 80.0358C45.9453 80.4892 45.3372 80.8441 44.5525 80.9427C43.3165 81.1004 42.6691 80.6864 42.4141 79.4444C42.2572 78.6756 41.0212 78.6362 41.0212 77.6703C40.5504 77.7097 40.0599 77.7491 39.5695 77.8082C38.3532 78.0054 37.8627 77.7097 37.8431 76.4875C37.8431 75.3441 37.7646 74.2007 38.0197 73.0179C38.4905 70.81 38.8632 68.5627 38.6867 66.0197H38.7455Z" fill="#F2F2F2"/>
</g>
<defs>
<clipPath id="clip0_125_15454">
<rect width="190" height="132" fill="white"/>
</clipPath>
</defs>
</svg>
