<svg width="310" height="373" viewBox="0 0 310 373" fill="none" xmlns="http://www.w3.org/2000/svg">
<g clip-path="url(#clip0_125_25252)">
<path fill-rule="evenodd" clip-rule="evenodd" d="M260.5 360.5L277 363.5L292.5 358.5L307.5 353.5L296.5 318.5L289.5 311L277 187.5L279 184L261 86L248.5 65.5L241.5 61L235.5 60L229.5 56V19H195V31L193 38L197 44C197.167 48.1667 199.1 56.2 205.5 55C211.9 53.8 213.5 59.5 213.5 62.5L208 67.5H201L191 74L173 91.5L164.5 95L158 96C152.333 84.6667 133.9 62.4 105.5 64L95.5 58L93.5 52.5L95.5 41.5L89 28.5L79 24.5L62 26.5L53.5 38L56 52.5L64 69L71 74H80.5V77.5L71 83L64 98.5L58.5 134L46 151.5L36 172L31 194.5L32.5 202.5H38L49.5 197.5L50.5 190L53 184.5L78.5 151.5L82.5 135.5L93 164L95 184.5L107.5 214.5L89.5 346C88.6667 348.667 85.2 354.3 78 355.5C69 357 61 363 64 368C66.4 372 74.3333 371.667 78 371L95.5 367.5L98 369L110 367L112.5 359.5L108 345.5L121.5 214.5H144L174.5 341.5C174.833 344.333 173.7 351.2 166.5 356C157.5 362 156.5 364.5 158 369.5C159.2 373.5 170.833 371.167 176.5 369.5L190 359L190.5 355H195L196 341.5L189 328.5L158.5 221L172.5 216L182 214.5V187.5L185.5 159.5L209.5 163.5L212 194L202 343L195 365L221 361.5L223.5 357L221 329L231.5 214.5H260.5L280 323L284 341.5C280.833 344.667 272.5 351.3 264.5 352.5C260.5 353.1 258.5 358.333 260.5 360.5ZM173.5 120L195.5 110L205 136.5C200.5 135.667 189.1 135.3 179.5 140.5L173.5 120Z" fill="white"/>
<path d="M201 343C189.5 351.5 172.1 367.9 194.5 365.5C216.9 363.1 208.167 349.5 201 343Z" fill="white"/>
<path fill-rule="evenodd" clip-rule="evenodd" d="M219.747 1.19878L222.479 4.03053H226.079L228.275 7.70415L232.002 11.9645V17.6025L233.789 22.2201L233.687 32.7052L227.687 44.2873L226.768 46.1751L222.505 42.425C222.505 42.425 226.104 39.4401 226.104 35.6135C226.104 31.7868 224.062 30.3071 224.062 30.3071L219.849 32.7307C219.849 32.7307 217.96 33.9807 217.654 32.7307C217.347 31.4806 217.654 26.0723 217.654 26.0723L214.743 20.8169L206.522 19.3883L199.322 20.1791L193.884 18.1127L190.539 16.9902C190.539 16.9902 190.667 13.5207 191.969 11.99C193.271 10.4594 194.548 6.14796 194.548 6.14796L199.475 4.03053C199.475 4.03053 204.76 0.714067 205.705 1.19878C206.65 1.68349 209.994 2.44883 209.994 2.44883L213.186 2.72946L217.015 2.44883L219.773 1.19878H219.747Z" fill="#6BB3A9"/>
<path fill-rule="evenodd" clip-rule="evenodd" d="M213.032 194.727C213.032 194.727 232.462 199.243 243.517 197.763C254.572 196.284 278.29 188.987 278.29 188.987C278.29 188.987 282.401 203.172 282.809 210.825C283.218 218.478 282.809 236.974 282.809 236.974L284.571 263.761L291.745 288.43L295.371 307.564V318.406L277.575 324.146L268.971 313.788C268.971 313.788 256.436 278.2 254.214 267.792C251.968 257.383 245.176 232.714 245.176 232.714L243.261 229.729L229.858 262.893L223.679 293.558C223.679 293.558 224.956 322.87 224.522 324.146C224.088 325.421 221.534 329.146 221.534 329.146L204.735 330.702C204.735 330.702 199.016 324.58 198.25 320.115C197.51 315.651 196.233 255.061 202.82 233.581C209.407 212.1 210.275 205.876 210.275 205.876L213.058 194.727H213.032Z" fill="#79CBE8"/>
<path fill-rule="evenodd" clip-rule="evenodd" d="M201.084 79.4932C198.454 79.085 195.824 79.0595 193.373 78.2176C192.48 77.9115 191.739 77.5798 191.867 76.9931C191.995 76.4318 192.735 76.1767 193.68 76.1002C194.395 76.0491 195.135 75.9981 195.85 76.0747C208.13 77.4012 220.053 76.789 232.053 76.5849C237.313 76.4828 242.495 76.1257 247.525 75.4624C249.261 75.2328 251.023 75.0797 252.938 75.4114C254.163 75.641 254.98 76.0236 255.184 76.7379C255.363 77.3502 254.623 77.6308 253.806 77.8349C249.363 79.0595 244.308 79.4932 239.304 79.6207C228.811 79.9013 218.215 79.8758 207.645 79.9269C205.475 79.9269 203.228 79.6207 201.084 79.4676V79.4932Z" fill="#79CBE8"/>
<path fill-rule="evenodd" clip-rule="evenodd" d="M220.59 177.456C217.935 177.176 215.535 176.181 213.084 175.441C212.164 175.186 211.424 174.88 211.526 174.267C211.628 173.706 212.369 173.4 213.288 173.298C214.003 173.196 214.743 173.119 215.458 173.17C228.249 175.313 239.432 174.778 251.329 173.068C256.563 172.762 262.052 171.206 267.057 170.313C268.767 170.007 272.546 168.451 274.486 168.706C275.712 168.884 274.537 170.568 274.767 171.257C274.971 171.869 274.256 172.15 273.439 172.405C269.048 173.808 246.121 178.783 228.581 178.247C226.411 178.349 222.734 177.456 220.615 177.405L220.59 177.456Z" fill="#79CBE8"/>
<path fill-rule="evenodd" clip-rule="evenodd" d="M199.884 90.9215C198.275 90.4368 196.565 90.3348 195.135 89.3908C194.624 89.0592 194.19 88.702 194.369 88.0642C194.548 87.503 195.058 87.2224 195.671 87.1713C196.131 87.1203 196.616 87.0948 197.075 87.1713C204.76 88.8806 212.496 88.549 220.232 88.651C223.628 88.702 227.023 88.4469 230.343 87.9112C231.491 87.7071 232.64 87.5795 233.815 88.0132C234.555 88.2938 235.04 88.7275 235.04 89.4674C235.04 90.1051 234.53 90.3603 233.994 90.5899C230.93 91.7379 227.636 92.044 224.394 92.0695C217.602 92.095 210.811 91.7889 204.02 91.5593C202.616 91.5083 201.237 91.1256 199.884 90.9215Z" fill="#79CBE8"/>
<path fill-rule="evenodd" clip-rule="evenodd" d="M237.925 164.062C236.266 163.731 236.138 164.011 234.632 163.221C234.07 162.94 234.683 161.46 234.785 160.822C234.887 160.236 235.398 159.93 235.985 159.828C236.445 159.725 237.44 160.516 237.9 160.567C245.712 161.537 252.861 159.623 260.572 159.011C263.942 158.731 267.312 158.169 270.58 157.302C271.703 156.996 272.852 156.766 274.052 157.072C274.818 157.276 275.329 157.659 275.431 158.399C275.507 159.037 275.022 159.343 274.486 159.598C271.55 161.027 268.307 161.639 265.065 161.97C258.299 162.634 251.406 163.782 244.615 164.19C243.21 164.266 239.279 164.19 237.925 164.088V164.062Z" fill="#79CBE8"/>
<path fill-rule="evenodd" clip-rule="evenodd" d="M201.135 102.402C199.501 101.968 197.79 101.892 196.335 101.024C195.799 100.718 195.365 100.386 195.518 99.7741C195.671 99.2128 196.182 98.9577 196.795 98.8812C197.254 98.8302 197.739 98.7791 198.199 98.8812C205.935 100.361 213.696 99.9016 221.432 99.8506C228.938 99.6975 228.964 102.937 225.722 103.014C218.93 103.193 212.113 103.014 205.297 102.937C203.892 102.937 202.488 102.58 201.135 102.402Z" fill="#79CBE8"/>
<path fill-rule="evenodd" clip-rule="evenodd" d="M200.037 113.754C198.327 113.295 196.565 113.219 195.059 112.351C194.497 112.045 194.037 111.688 194.19 111.101C194.344 110.565 194.854 110.31 195.493 110.259C195.978 110.208 196.463 110.183 196.948 110.259C204.99 111.79 213.007 111.433 221.049 111.458C228.836 111.382 228.887 114.571 225.543 114.622C218.496 114.724 211.45 114.494 204.377 114.341C202.922 114.316 201.467 113.958 200.037 113.78V113.754Z" fill="#79CBE8"/>
<path fill-rule="evenodd" clip-rule="evenodd" d="M203.509 126.79C202.437 126.331 201.288 126.229 200.42 125.387C200.114 125.081 199.858 124.749 200.063 124.163C200.241 123.627 200.65 123.397 201.084 123.346C201.416 123.295 201.748 123.27 202.054 123.346C207.16 124.902 212.573 124.596 217.909 124.698C223.117 124.698 222.607 127.785 220.36 127.811C215.662 127.862 210.99 127.556 206.318 127.351C205.348 127.3 204.428 126.969 203.535 126.765L203.509 126.79Z" fill="#79CBE8"/>
<path fill-rule="evenodd" clip-rule="evenodd" d="M255.338 135.898C254.419 135.694 253.474 135.872 252.631 135.235C252.325 135.005 252.07 134.724 252.146 134.138C252.223 133.576 252.504 133.245 252.836 133.117C253.091 133.015 253.372 132.888 253.627 132.913C257.967 133.27 262.257 131.765 266.546 130.643C270.707 129.469 270.81 132.607 268.997 133.117C265.244 134.214 261.44 135.005 257.661 135.847C256.87 136.025 256.078 135.898 255.338 135.923V135.898Z" fill="#79CBE8"/>
<path fill-rule="evenodd" clip-rule="evenodd" d="M256.512 122.479C255.772 122.326 255.031 122.454 254.368 121.943C254.112 121.765 253.934 121.535 253.985 121.051C254.036 120.591 254.265 120.336 254.521 120.234C254.725 120.132 254.955 120.056 255.133 120.081C258.606 120.387 262.027 119.163 265.474 118.27C268.793 117.326 268.869 119.826 267.44 120.26C264.427 121.153 261.414 121.765 258.376 122.454C257.763 122.581 257.125 122.505 256.512 122.505V122.479Z" fill="#79CBE8"/>
<path fill-rule="evenodd" clip-rule="evenodd" d="M251.202 149.368C249.9 149.139 248.597 149.266 247.423 148.603C246.989 148.348 246.632 148.067 246.708 147.481C246.785 146.919 247.168 146.613 247.627 146.46C247.985 146.358 248.368 146.256 248.7 146.281C254.75 146.792 260.699 145.414 266.648 144.419C272.418 143.373 272.648 146.511 270.146 146.97C264.937 147.965 259.678 148.603 254.419 149.343C253.346 149.496 252.223 149.343 251.176 149.343L251.202 149.368Z" fill="#79CBE8"/>
<path fill-rule="evenodd" clip-rule="evenodd" d="M186.991 140.975C187.348 139.878 187.323 138.73 188.114 137.786C188.395 137.428 188.701 137.173 189.288 137.301C189.825 137.428 190.105 137.811 190.208 138.245C190.284 138.551 190.335 138.908 190.284 139.214C189.212 144.419 190.003 149.776 190.437 155.108C190.922 160.287 187.782 160.082 187.578 157.837C187.093 153.169 186.94 148.5 186.71 143.832C186.659 142.862 186.914 141.918 187.016 141L186.991 140.975Z" fill="#79CBE8"/>
<path fill-rule="evenodd" clip-rule="evenodd" d="M197.995 141.97C198.352 140.873 198.326 139.725 199.118 138.781C199.399 138.424 199.705 138.168 200.292 138.296C200.829 138.424 201.109 138.806 201.211 139.24C201.288 139.546 201.339 139.903 201.288 140.209C200.216 145.439 201.007 150.771 201.441 156.103C201.926 161.282 198.786 161.078 198.582 158.833C198.097 154.164 197.943 149.495 197.714 144.827C197.663 143.857 197.918 142.914 198.02 141.995L197.995 141.97Z" fill="#79CBE8"/>
<path fill-rule="evenodd" clip-rule="evenodd" d="M193.603 104.494C193.654 105.82 194.063 107.07 193.68 108.371C193.527 108.856 193.348 109.264 192.735 109.315C192.173 109.366 191.791 109.06 191.561 108.626C191.382 108.32 191.203 107.963 191.152 107.606C190.335 101.534 187.706 95.9983 185.433 90.3603C183.161 84.9264 186.174 84.008 187.169 86.355C189.263 91.2532 191.05 96.2789 192.914 101.279C193.297 102.3 193.399 103.422 193.603 104.468V104.494Z" fill="#79CBE8"/>
<path fill-rule="evenodd" clip-rule="evenodd" d="M184.386 110.183C184.438 111.51 184.846 112.76 184.463 114.061C184.31 114.545 184.131 114.954 183.518 115.005C182.957 115.056 182.574 114.749 182.344 114.316C182.165 114.01 181.987 113.653 181.935 113.295C181.118 107.224 178.489 101.688 176.216 96.0498C173.944 90.6159 176.957 89.6975 177.953 92.0445C180.046 96.9682 181.833 101.968 183.697 106.994C184.08 108.015 184.182 109.137 184.386 110.183Z" fill="#79CBE8"/>
<path fill-rule="evenodd" clip-rule="evenodd" d="M175.144 113.55C175.195 114.877 175.604 116.127 175.221 117.428C175.068 117.913 174.889 118.321 174.276 118.372C173.714 118.423 173.331 118.117 173.102 117.683C172.923 117.377 172.744 117.02 172.693 116.663C171.876 110.591 169.246 105.055 166.974 99.4169C164.702 93.983 167.715 93.0646 168.71 95.4117C170.804 100.335 172.591 105.336 174.455 110.361C174.838 111.382 174.94 112.504 175.144 113.55Z" fill="#79CBE8"/>
<path fill-rule="evenodd" clip-rule="evenodd" d="M209.892 143.449C210.147 142.327 210.045 141.179 210.735 140.158C210.99 139.801 211.271 139.495 211.884 139.597C212.445 139.699 212.752 140.031 212.879 140.439C212.981 140.745 213.058 141.077 213.032 141.383C212.394 146.664 213.671 151.944 214.539 157.2C215.483 162.302 212.318 162.379 211.909 160.159C211.041 155.542 210.479 150.924 209.841 146.281C209.713 145.312 209.892 144.368 209.918 143.424L209.892 143.449Z" fill="#79CBE8"/>
<path fill-rule="evenodd" clip-rule="evenodd" d="M101.129 197.737C101.129 197.737 115.58 197.661 131.767 196.411C147.979 195.135 166.872 186.793 166.872 186.793V188.961L163.119 199.982L164.702 203.86L166.872 205.875L171.748 215.825C171.748 215.825 173.868 264.092 175.067 271.95C176.293 279.807 182.497 290.114 182.497 290.114L193.424 332.054C193.424 332.054 186.786 337.054 184.718 339.809C182.65 342.565 171.723 341.442 171.723 341.442L143.562 269.705L132.711 236.846L114.533 269.781L111.342 337.08L110.908 346.162C110.908 346.162 102.278 348.458 98.576 348.738C94.874 349.019 87.9295 344.708 87.9295 344.708C87.9295 344.708 84.0743 286.925 84.8402 271.286C85.6061 255.648 97.9122 211.207 97.9122 211.207L101.104 197.737H101.129Z" fill="#E68584"/>
<path opacity="0.8" fill-rule="evenodd" clip-rule="evenodd" d="M97.9378 60.2062L105.163 63.7777L99.8526 83.6765L90.7124 77.9365L85.6062 86.4828C85.6062 86.4828 76.9766 82.2224 76.3894 80.6152C75.8022 79.008 80.7042 75.2068 80.7042 75.2068L88.3636 77.5028L90.7635 75.2068L96.4569 65.7676L97.9378 60.1807V60.2062Z" fill="#E06765"/>
<path opacity="0.8" fill-rule="evenodd" clip-rule="evenodd" d="M81.9552 125.923C81.9552 125.923 94.6698 124.316 106.108 122.173C117.52 120.056 134.013 113.831 134.013 113.831L143.051 124.316C143.051 124.316 127.401 130.924 112.414 133.424C97.4271 135.924 84.5339 137.25 84.5339 137.25L81.9552 125.898V125.923Z" fill="#E06765"/>
<path opacity="0.8" fill-rule="evenodd" clip-rule="evenodd" d="M85.6062 142.148C85.6062 142.148 110.167 139.419 118.695 137.199C127.197 134.98 146.473 129.597 146.473 129.597L150.302 132.428C150.302 132.428 132.175 138.398 120.456 140.72C108.763 143.067 86.6785 145.924 86.6785 145.924L85.6062 142.148Z" fill="#E06765"/>
<path fill-rule="evenodd" clip-rule="evenodd" d="M234.147 107.02C232.921 106.305 231.543 105.948 230.572 104.877C230.215 104.494 229.934 104.086 230.24 103.55C230.496 103.04 231.006 102.887 231.517 102.938C231.9 102.964 232.334 103.015 232.666 103.168C238.64 105.923 245.125 106.867 251.482 108.168C257.687 109.341 256.87 112.403 254.163 111.892C248.546 110.846 243.006 109.494 237.44 108.219C236.291 107.964 235.219 107.402 234.147 106.994V107.02Z" fill="#79CBE8"/>
<path fill-rule="evenodd" clip-rule="evenodd" d="M237.696 95.6155C236.47 94.9012 235.091 94.544 234.121 93.4726C233.764 93.0899 233.483 92.6817 233.789 92.146C234.045 91.6357 234.555 91.4827 235.066 91.5337C235.449 91.5592 235.883 91.6102 236.215 91.7633C242.189 94.5185 248.674 95.4624 255.031 96.7635C261.235 97.937 260.418 100.998 257.738 100.488C252.121 99.4422 246.555 98.0901 241.015 96.8145C239.866 96.5594 238.793 95.9982 237.721 95.59L237.696 95.6155Z" fill="#79CBE8"/>
<path fill-rule="evenodd" clip-rule="evenodd" d="M231.211 117.912C229.985 117.198 228.607 116.841 227.636 115.769C227.279 115.387 226.998 114.979 227.304 114.443C227.56 113.933 228.07 113.78 228.581 113.831C228.964 113.856 229.398 113.907 229.73 114.086C235.704 116.841 242.189 117.785 248.546 119.086C254.75 120.259 253.934 123.321 251.253 122.811C245.636 121.765 240.096 120.412 234.53 119.137C233.381 118.856 232.309 118.321 231.236 117.912H231.211Z" fill="#79CBE8"/>
<path fill-rule="evenodd" clip-rule="evenodd" d="M227.56 129.163C226.334 128.449 224.956 128.092 223.985 127.02C223.628 126.638 223.347 126.23 223.653 125.694C223.909 125.184 224.419 125.031 224.93 125.082C225.313 125.107 225.721 125.158 226.079 125.337C232.053 128.092 238.538 129.036 244.895 130.337C251.099 131.51 250.283 134.572 247.602 134.062C241.985 133.016 236.419 131.663 230.853 130.388C229.704 130.107 228.632 129.572 227.56 129.163Z" fill="#79CBE8"/>
<path fill-rule="evenodd" clip-rule="evenodd" d="M223.5 137.683C222.402 136.791 221.1 136.204 220.309 135.005C220.028 134.571 219.824 134.137 220.181 133.627C220.513 133.168 221.024 133.091 221.534 133.244C221.917 133.347 222.326 133.449 222.632 133.678C228.096 137.352 234.326 139.316 240.402 141.638C246.351 143.806 245.049 146.663 242.47 145.745C237.083 143.832 231.823 141.612 226.539 139.444C225.441 138.985 224.47 138.27 223.475 137.709L223.5 137.683Z" fill="#79CBE8"/>
<path fill-rule="evenodd" clip-rule="evenodd" d="M218.598 143.654C218.011 142.353 217.117 141.256 216.964 139.827C216.913 139.291 216.913 138.832 217.475 138.551C217.986 138.296 218.471 138.449 218.854 138.807C219.16 139.062 219.466 139.342 219.645 139.674C222.862 145.414 227.56 149.955 231.951 154.751C236.291 159.343 233.815 161.333 231.951 159.343C228.019 155.21 224.317 150.848 220.539 146.562C219.773 145.669 219.237 144.598 218.598 143.628V143.654Z" fill="#79CBE8"/>
<path fill-rule="evenodd" clip-rule="evenodd" d="M163.936 372.412C161.791 372.183 159.723 371.545 157.681 370.933C156.226 370.474 155.383 369.606 155.332 367.795C155.204 363.024 156.787 359.223 161 356.698C162.659 355.703 164.191 354.453 166.285 354.478C166.949 354.478 167.536 354.555 167.74 355.294C167.919 355.932 167.842 356.519 167.255 356.927C166.489 357.437 165.672 357.871 164.906 358.356C162.455 359.835 160.617 361.851 159.749 364.606C158.932 367.234 159.647 368.356 162.251 369.019C169.604 370.984 175.68 368.637 180.965 363.56C181.706 362.82 182.574 362.31 183.391 361.698C185.765 359.988 187.833 358.05 188.369 354.988C188.65 353.432 189.314 352.667 191.127 353.049C193.042 353.458 193.705 352.998 194.267 351.162C194.982 348.866 195.059 346.519 194.522 344.172C194.293 343.177 194.114 342.182 193.935 341.161C193.833 340.625 193.884 340.115 194.446 339.86C194.982 339.63 195.416 339.86 195.875 340.115C196.463 340.421 196.769 340.983 196.948 341.544C198.097 345.09 198.735 348.713 197.816 352.386C197.229 354.708 195.722 356.442 193.195 356.672C192.122 356.774 191.739 357.029 191.714 358.05C191.688 359.019 191.076 359.835 190.463 360.473C185.637 365.371 180.48 369.81 173.817 372.081C173.255 372.285 172.617 372.31 172.004 372.387C171.468 372.872 170.625 372.336 170.114 372.948H167.025C166.106 372.183 164.881 373.05 163.936 372.361V372.412Z" fill="#1E6E67"/>
<path fill-rule="evenodd" clip-rule="evenodd" d="M77.1298 372.412C77.1298 372.617 77.1298 372.795 77.1298 372.999H72.2023C72.1768 372.821 72.1768 372.642 72.1768 372.463C73.8108 371.137 75.4703 371.162 77.1298 372.412Z" fill="#1E6E67"/>
<path fill-rule="evenodd" clip-rule="evenodd" d="M163.936 372.413C165.008 372.464 166.157 371.954 167.025 373H163.936C163.936 372.796 163.936 372.617 163.936 372.413Z" fill="#1E6E67"/>
<path fill-rule="evenodd" clip-rule="evenodd" d="M170.115 373C170.574 372.234 171.289 372.362 172.004 372.439C172.004 372.617 172.004 372.796 171.953 373H170.115Z" fill="#1E6E67"/>
<path fill-rule="evenodd" clip-rule="evenodd" d="M132.354 242.688C131.562 243.071 131.511 243.811 131.23 244.449C128.805 249.959 126.482 255.521 123.826 260.903C122.575 263.429 121.375 266.031 119.614 268.302C117.878 270.547 117.061 273.098 117.188 276.032C117.341 279.603 116.269 283.124 116.422 286.746C116.754 294.247 116.039 301.747 116.295 309.247C116.524 316.161 115.759 323.1 114.533 329.937C113.818 333.968 113.742 338.05 113.027 342.106C112.516 345.065 110.882 346.851 108.099 347.769C107.027 348.126 105.98 348.535 104.959 348.994C102.738 349.963 100.516 350.371 98.1165 349.759C95.7421 349.147 93.2911 348.79 90.8911 348.305C87.0359 347.54 85.4019 345.626 85.0956 341.672C84.5849 335.167 83.9722 328.661 83.5892 322.131C83.436 319.401 84.2786 316.671 83.9977 313.916C83.6658 310.344 84.9424 306.824 84.3807 303.278C83.5892 298.201 83.9211 293.099 83.5126 287.996C83.0275 282.129 82.6446 276.21 83.6658 270.292C84.7892 263.761 85.4019 257.153 86.3466 250.571C87.2657 244.219 88.0827 237.79 90.1507 231.668C92.4996 224.729 94.1591 217.56 96.4825 210.595C97.4527 207.713 97.8867 204.677 99.0867 201.87C99.342 201.284 99.4952 200.799 100.236 200.646C102.38 200.161 103.376 201.131 102.763 203.274C101.359 208.172 99.9037 213.044 98.4994 217.917C96.6357 224.397 94.5932 230.851 92.9336 237.382C91.2231 244.117 90.3295 250.98 89.6401 257.893C89.1806 262.46 88.5167 267.026 87.8019 271.567C87.3678 274.297 87.2657 276.95 87.3934 279.756C87.6231 284.654 87.9806 289.553 88.0827 294.476C88.1593 297.64 88.2614 300.778 88.6955 303.915C88.7976 304.63 88.7721 305.344 88.721 306.058C88.287 312.793 87.955 319.528 88.2104 326.289C88.4146 331.799 89.0274 337.31 89.3337 342.82C89.4103 344.478 90.1507 345.193 91.6571 345.473C94.2613 346.009 96.8399 346.621 99.4441 347.157C100.465 347.361 101.436 347.183 102.406 346.647C103.478 346.06 104.601 345.371 105.776 345.193C108.508 344.759 109.069 342.897 109.325 340.652C109.708 337.106 109.912 333.56 110.448 330.039C111.316 324.478 111.699 318.891 112.159 313.304C112.414 310.268 112.21 307.181 112.057 304.171C111.929 301.313 112.235 298.507 112.261 295.675C112.286 289.476 112.414 283.277 112.925 277.078C113.282 272.766 114.508 269.271 116.652 265.7C119.665 260.623 122.422 255.419 124.388 249.781C125.869 245.495 128.243 241.464 129.877 237.178C130.388 235.826 130.49 234.703 130.184 233.351C129.826 231.872 129.392 230.367 129.571 228.81C129.648 228.173 129.775 227.484 130.413 227.305C131.154 227.101 131.46 227.841 131.716 228.377C133.145 231.336 134.269 234.423 135.29 237.535C137.588 244.525 139.094 251.745 141.826 258.608C143.256 262.205 144.226 265.98 145.528 269.628C146.677 272.792 147.877 275.93 149.255 279.017C151.477 283.966 152.192 289.451 154.745 294.272C158.472 301.339 160.413 309.12 163.272 316.518C164.6 319.937 166.132 323.304 167.255 326.799C168.608 330.957 170.166 335.039 172.463 338.815C173 339.708 173.459 340.141 174.48 340.295C179.025 340.856 182.906 339.249 186.582 336.825C186.914 336.595 187.118 336.162 187.476 335.983C191.101 334.07 191.459 331.238 190.616 327.462C187.961 315.498 185.203 303.558 181.272 291.925C180.684 290.165 180.429 288.379 179.791 286.619C178.667 283.609 177.059 280.93 175.451 278.2C175.093 277.588 174.634 277.052 174.48 276.312C172.821 268.123 170.88 259.985 171.187 251.515C171.289 248.582 170.727 245.648 170.446 242.688C169.859 236.821 168.991 230.953 169.374 225.035C169.425 224.218 169.527 223.402 169.629 222.586C169.757 221.591 169.834 220.188 171.085 220.264C172.106 220.341 172.514 221.591 172.642 222.662C172.846 224.295 173.229 225.928 173.204 227.535C173.127 233.683 174.021 239.755 174.761 245.826C175.246 249.781 175.093 253.76 175.425 257.689C175.655 260.393 175.578 263.174 176.395 265.853C177.008 267.894 177.365 270.037 177.799 272.128C178.259 274.424 178.923 276.618 180.225 278.659C182.957 282.894 184.616 287.588 185.816 292.512C186.735 296.288 188.14 299.91 189.135 303.66C191.203 311.365 193.22 319.044 194.727 326.876C194.88 327.666 195.058 328.483 195.212 329.274C195.773 332.463 194.982 335.014 192.276 337.106C189.34 339.376 186.276 341.264 182.804 342.514C178.974 343.892 175.144 343.279 171.289 342.744C170.268 342.591 169.451 341.774 168.991 340.83C167.561 337.896 165.978 335.039 165.008 331.876C163.936 328.355 162.659 324.937 161.204 321.544C159.851 318.457 158.983 315.166 157.706 312.054C154.796 304.987 152.626 297.64 149.204 290.752C147.57 287.486 147.111 283.711 145.605 280.343C142.337 273.098 140.064 265.47 137.332 258.021C135.928 254.194 135.06 250.189 133.886 246.26C133.503 245.01 133.401 243.632 132.43 242.612L132.354 242.688Z" fill="#1E6E67"/>
<path fill-rule="evenodd" clip-rule="evenodd" d="M194.727 303.94C194.573 301.466 194.522 299.119 194.344 296.772C193.961 291.491 194.267 286.21 194.675 280.929C194.88 278.378 195.186 275.853 195.212 273.301C195.212 266.107 196.565 259.066 197.356 251.974C198.046 245.877 198.684 239.78 200.369 233.861C202.105 227.662 203.739 221.437 206.165 215.467C208.335 210.136 209.101 204.447 210.045 198.834C210.224 197.814 210.403 196.844 210.76 195.875C211.015 195.16 211.041 194.446 210.25 193.987C208.462 192.941 208.641 191.206 208.973 189.625C209.356 187.762 209.177 186.129 208.462 184.293C207.594 182.073 207.109 179.777 208.054 177.201C208.871 174.981 208.82 172.404 208.488 169.955C208.335 168.909 208.411 167.812 209.79 167.583C211.169 167.353 211.935 168.067 212.19 169.369C212.701 171.996 212.905 174.649 212.369 177.303C212.241 177.915 212.062 178.502 211.96 179.114C211.22 183.247 212.292 184.854 216.377 185.39C220.002 185.849 223.602 186.767 227.33 186.436C228.377 186.334 229.883 186.334 229.858 187.941C229.858 189.242 228.428 189.471 227.509 189.446C225.058 189.395 222.607 189.752 220.181 189.114C218.394 188.655 216.581 188.374 214.794 187.992C213.773 187.762 213.288 188.043 213.211 189.165C213.058 191.41 213.262 192.023 215.458 192.89C220.768 194.956 226.309 196.002 232.002 195.671C238.742 195.288 245.457 194.701 252.095 193.451C256.716 192.609 261.338 191.742 265.933 190.798C268.971 190.16 271.729 188.834 274.358 187.226C275.89 186.283 276.478 185.058 276.273 183.119C275.38 174.573 274.282 166.078 272.699 157.633C271.907 153.424 271.193 149.189 270.554 144.954C270.069 141.791 268.767 138.908 268.282 135.77C267.031 127.811 265.065 119.953 264.325 111.892C263.865 106.917 262.997 101.968 261.669 97.1207C260.903 94.391 260.444 91.5848 259.627 88.8551C257.891 83.013 255.491 77.5791 251.533 72.9105C250.155 71.2778 248.776 69.5941 247.449 67.9359C245.559 65.5888 243.236 63.7775 240.581 62.3999C239.764 61.9662 239.125 61.558 239.33 60.5886C239.559 59.5171 240.606 59.6192 241.347 59.5937C243.389 59.5171 245.1 60.359 246.58 61.7621C250.231 65.2317 253.448 69.0583 256.64 72.9105C258.682 75.3596 260.01 78.3189 261.235 81.2272C263.457 86.508 264.963 91.993 266.291 97.6054C268.665 107.606 268.946 117.887 271.141 127.887C272.622 134.673 274.001 141.485 275.686 148.22C276.707 152.327 276.682 156.511 277.218 160.644C277.575 163.373 277.882 166.103 278.52 168.807C278.597 169.113 278.673 169.42 278.648 169.726C278.341 173.348 279.975 176.639 280.46 180.134C280.639 181.333 280.894 182.532 280.945 183.757C281.022 185.976 280.18 187.711 278.367 189.038C274.307 192.023 269.61 193.426 264.81 194.497C257.814 196.053 250.717 196.921 243.619 197.814C234.759 198.936 225.926 199.472 217.194 196.819C214.845 196.104 214.335 196.462 213.9 198.911C213.186 202.941 212.598 206.972 211.756 210.977C211.296 213.197 210.556 215.263 209.79 217.381C207.135 224.651 204.862 232.05 203.484 239.703C202.054 247.535 201.365 255.469 200.139 263.352C199.552 267.102 199.986 270.903 199.526 274.654C198.76 280.802 199.041 287.026 198.301 293.2C197.995 295.7 198.429 298.302 198.633 300.854C199.016 305.293 198.735 309.782 199.603 314.221C200.497 318.711 200.982 323.303 203.714 327.207C204.224 327.946 204.786 328.992 203.739 329.656C202.794 330.242 201.646 329.834 201.007 328.967C199.195 326.492 197.407 323.992 196.744 320.88C195.569 315.267 194.344 309.655 194.829 303.991L194.727 303.94Z" fill="#1E6E67"/>
<path fill-rule="evenodd" clip-rule="evenodd" d="M82.8233 141.765C81.6233 144.189 81.2659 146.638 80.6787 148.985C80.0915 151.358 78.8915 153.297 77.4362 155.133C71.947 162.098 66.3557 168.986 61.326 176.308C59.6409 178.731 58.441 181.461 56.7049 183.91C54.3305 187.252 51.6752 187.941 47.9477 186.053C45.0116 184.573 42.7393 182.099 39.9053 180.492C39.1139 180.058 38.5266 179.267 37.4543 179.19C36.9692 180.39 36.4586 181.614 35.9735 182.813C34.7735 185.9 36.2799 189.395 39.3181 190.594C39.9053 190.824 40.5691 191.028 41.0032 190.466C41.3606 189.982 41.0032 189.497 40.6713 189.089C39.8543 188.043 39.1139 186.971 39.0628 185.568C40.5181 184.624 41.6925 185.415 42.7903 186.155C44.8584 187.558 45.3179 189.854 45.5222 192.074C45.6754 193.757 43.9903 195.058 42.2542 194.752C38.8585 194.191 35.9225 192.635 33.2161 190.594C32.6289 190.9 32.68 191.461 32.5523 191.895C31.9651 193.783 31.9906 193.808 33.931 194.268C36.3054 194.854 37.3777 196.997 35.9224 198.911C34.3906 200.952 34.0331 203.12 34.0842 205.544C34.1097 206.87 33.931 208.197 33.8544 209.523C33.7523 211.08 32.7566 211.258 31.48 211.182C30.2545 211.105 29.2077 210.85 29.1822 209.319C29.1822 208.809 29.1311 208.299 29.1822 207.789C29.2588 206.13 29.1311 204.906 26.8844 204.625C25.0972 204.396 24.4845 202.457 25.8376 201.156C28.3907 198.656 28.6971 195.671 28.5695 192.431C28.5184 190.824 29.1311 189.242 30.0758 188.17C31.2758 186.793 31.5566 185.415 31.429 183.757C31.3013 181.869 32.8587 180.67 33.3949 179.037C33.7012 178.042 34.0331 177.226 33.3949 176.18C31.9651 173.884 32.8587 171.69 34.314 169.955C36.2544 167.634 37.4799 164.955 38.833 162.353C41.4883 157.353 43.5308 151.996 46.6711 147.25C49.0966 143.628 51.0114 139.572 54.5092 136.714C55.8368 135.617 56.5006 134.163 56.7815 132.505C57.7261 127.097 58.492 121.663 59.1048 116.203C60.0239 108.218 60.7388 100.208 63.343 92.4522C64.7217 88.3194 66.8663 84.9774 69.6747 81.8651C70.2109 81.2528 70.747 80.6405 71.6917 80.615C72.4066 80.615 73.147 80.513 73.6576 81.1763C74.2193 81.9416 73.6576 82.4518 73.2491 83.0641C71.9215 85.003 70.4917 86.8653 69.2662 88.9062C66.9939 92.6818 66.5854 96.9932 65.4365 101.101C63.8025 106.968 64.0578 113.04 63.0621 118.984C62.4749 122.402 62.4749 125.872 61.4537 129.265C60.9175 131.051 60.943 132.964 60.1516 134.801C59.2835 136.867 58.1857 138.526 56.5772 140.005C54.4581 141.944 53.0284 144.419 51.7263 146.944C50.4752 149.393 48.5349 151.383 47.3604 153.934C45.3179 158.373 42.8925 162.634 40.8244 167.073C39.9053 169.037 38.5522 170.695 37.5054 172.558C36.1522 174.956 36.1267 175.236 38.6032 176.104C42.101 177.303 44.6031 179.93 47.5647 181.869C51.9305 184.752 51.2667 184.726 53.973 180.696C56.424 177.073 58.7984 173.399 61.1473 169.726C64.594 164.317 68.9598 159.649 72.7129 154.521C74.781 151.689 76.8745 148.832 77.3851 145.031C77.7936 142.046 79.1213 139.163 80.0915 136.255C80.6787 134.546 80.5255 132.888 80.0915 131.153C79.5042 128.78 79.0447 126.357 78.5596 123.959C78.483 123.576 78.4575 123.142 78.534 122.76C78.6872 121.943 79.6319 121.663 80.1425 122.326C80.985 123.372 81.4446 124.647 81.9042 125.897C85.5296 135.898 88.5167 146.102 92.3975 156.001C94.0826 160.287 94.8485 164.828 95.4357 169.394C96.1506 174.956 96.8144 180.568 98.0144 186.028C98.8314 189.676 100.567 193.12 101.895 196.64C102.15 197.329 102.891 197.227 103.478 197.355C106.21 197.89 109.018 197.865 111.75 197.559C117.75 196.895 123.75 196.258 129.673 195.11C134.703 194.14 139.834 194.013 144.788 192.762C149.46 191.589 154.106 190.441 158.37 188.068C159.162 187.609 160.03 187.252 160.923 187.048C161.74 186.844 162.634 186.997 162.991 187.941C163.298 188.732 162.813 189.318 162.174 189.752C160.055 191.181 157.783 192.456 155.332 193.171C149.256 194.956 143.154 196.564 136.745 196.997C133.094 197.252 129.494 198.196 125.818 198.656C120.456 199.344 115.069 200.008 109.682 200.518C107.001 200.773 104.372 200.11 101.716 199.957C100.236 199.855 98.9335 198.962 98.1675 197.355C95.2315 191.002 93.0868 184.471 92.3209 177.43C91.5805 170.644 90.9678 163.782 88.6955 157.251C88.0827 155.516 87.3934 153.807 86.6785 152.123C85.5296 149.368 85.1722 146.383 84.0743 143.628C83.819 142.965 83.5637 142.276 82.7212 141.74L82.8233 141.765Z" fill="#1E6E67"/>
<path fill-rule="evenodd" clip-rule="evenodd" d="M33.8288 335.447C33.8288 340.906 33.8288 346.366 33.8543 351.825C33.8543 353.05 33.9309 354.3 33.8033 355.499C33.7012 356.647 32.9097 357.412 31.7608 357.412C30.8672 357.412 29.9225 357.131 29.6417 355.983C29.4885 355.295 29.1055 354.606 29.1311 353.917C29.3609 347.896 28.9524 341.876 29.4119 335.881C28.8758 335.294 28.4673 335.753 28.0843 335.983C22.7738 339.452 17.0037 342.105 11.3613 345.014C7.73592 346.876 6.3317 349.861 5.74448 353.56C5.64236 354.172 5.69342 354.784 5.61683 355.397C5.41258 357.182 4.90195 357.642 3.37008 357.616C1.76161 357.591 1.25099 357.055 1.12333 355.371C0.689301 348.942 3.44667 344.758 9.14013 341.876C15.0634 338.891 21.0887 336.085 26.4248 332.079C28.3396 330.651 29.1055 328.865 29.1055 326.569C29.1055 317.972 29.1055 309.4 29.1055 300.803C29.1055 290.802 29.1311 280.776 29.1311 270.776C29.1311 260.036 29.1311 249.321 29.1311 238.581C29.1311 231.642 29.1311 224.702 29.1821 217.763C29.1821 216.947 29.1821 216.105 29.3353 215.314C29.6162 213.733 30.3055 213.273 31.8884 213.401C33.3693 213.503 33.7778 214.447 33.7778 215.697C33.7778 216.615 33.7012 217.534 33.6501 218.452C33.4458 224.039 33.7267 229.626 33.7522 235.213C33.8033 243.02 33.4458 250.826 33.548 258.632C33.599 262.587 33.5735 266.541 33.6246 270.495C33.6501 275.776 33.4714 281.057 33.548 286.312C33.6246 292.715 33.548 299.119 33.599 305.522C33.6246 310.497 33.4969 315.497 33.4969 320.472C33.4969 322.921 33.548 325.344 33.8033 327.768C34.0075 329.656 34.9011 331.314 36.5862 332.334C42.7137 335.983 48.6624 339.911 54.5857 343.917C59.0792 346.952 60.4068 351.315 61.0962 356.162C61.2238 357.131 61.0196 358.152 59.8196 358.228C58.7473 358.305 57.3686 358.458 56.9346 357.106C56.6027 356.06 56.2197 355.014 55.9644 353.891C55.1984 350.396 53.4113 347.616 50.2709 345.524C45.9306 342.641 41.6158 339.758 37.0457 337.233C36.1522 336.748 35.4118 336.008 34.5948 335.396C34.2884 335.243 33.982 335.039 33.7012 335.447H33.8288Z" fill="#1E6E67"/>
<path fill-rule="evenodd" clip-rule="evenodd" d="M284.571 219.421C284.443 221.947 284.214 224.473 284.239 226.998C284.29 235.264 284.877 243.504 285.541 251.77C286.154 259.423 287.839 266.872 288.988 274.424C289.345 276.771 290.75 278.761 291.439 281.006C294.094 289.271 296.749 297.511 297.72 306.211C297.975 308.481 298.23 310.65 297.72 312.895C297.311 314.757 296.903 315.216 295.498 315.038C293.915 314.834 293.175 313.992 293.43 312.257C294.069 307.92 293.252 303.685 292.409 299.501C291.618 295.598 290.264 291.848 289.243 287.996C288.452 285.036 287.66 282.103 286.128 279.398C285.107 277.587 285.005 275.47 284.648 273.48C283.754 268.454 282.35 263.53 281.89 258.428C281.252 251.132 280.384 243.861 280.231 236.514C280.154 232.534 279.618 228.58 279.848 224.6C279.95 222.661 280.205 220.748 280.256 218.809C280.435 211.105 279.26 203.553 278.188 195.977C278.06 195.058 278.009 194.14 277.958 193.221C277.958 192.584 278.06 191.946 278.724 191.665C279.516 191.359 280.103 191.869 280.563 192.431C281.405 193.374 281.865 194.573 282.069 195.747C282.937 200.875 283.831 206.003 284.137 211.232C284.29 213.988 284.673 216.717 284.52 219.472L284.571 219.421Z" fill="#1E6E67"/>
<path fill-rule="evenodd" clip-rule="evenodd" d="M110.984 62.0938C116.525 62.9866 122.167 63.1652 127.656 64.5428C128.448 64.7469 129.162 65.1806 129.877 65.5633C136.081 68.8542 141.545 73.0636 146.115 78.4465C152.115 85.5386 158.268 92.5542 163.63 100.106C167.561 105.667 171.442 111.33 174.582 117.453C176.855 121.918 178.77 126.561 179.842 131.51C179.919 131.918 179.97 132.326 179.995 132.734C180.021 133.653 180.199 134.648 178.948 134.954C177.57 135.286 176.574 134.801 176.089 133.423C175.578 131.995 174.94 130.566 174.659 129.061C173.587 123.321 170.778 118.397 167.664 113.601C166.004 111.024 164.421 108.397 162.787 105.82C160.055 101.483 156.915 97.4779 153.545 93.6257C148.975 88.4214 144.915 82.7834 140.243 77.6556C137.537 74.6963 134.218 72.5789 131.001 70.2318C126.405 66.8899 121.248 66.3796 115.937 65.7419C113.308 65.4357 110.703 65.1296 108.074 64.7979C107.563 64.7469 107.078 64.5939 106.618 64.3642C106.389 64.2622 106.184 63.9306 106.133 63.6499C106.031 63.1907 106.312 62.8846 106.746 62.757C108.125 62.2978 109.554 62.1448 111.01 62.0938H110.984Z" fill="#1E6E67"/>
<path fill-rule="evenodd" clip-rule="evenodd" d="M77.1298 372.413C75.4703 372.413 73.8363 372.438 72.1767 372.464C70.4661 371.979 68.73 372.464 66.9939 372.132C63.5216 371.418 61.377 368.79 61.8621 365.321C62.2196 362.693 63.394 360.448 65.7173 358.968C69.3172 356.698 73.4022 355.677 77.4362 354.555C78.2787 354.325 79.4276 354.07 79.734 355.32C79.9893 356.392 79.1467 357.029 78.2276 357.336C75.7 358.203 73.198 359.07 70.7725 360.167C68.8321 361.06 67.3258 362.387 66.4067 364.3C65.1556 366.979 66.2024 368.816 69.0874 369.453C70.6193 369.785 72.1512 369.657 73.6575 369.53C77.8447 369.173 82.0573 369.479 86.2189 368.586C88.1337 368.178 89.8954 367.744 91.5039 366.418C93.9293 364.428 95.5378 364.606 97.9122 366.673C98.4483 367.132 98.9334 367.285 99.5717 367.208C101.793 366.902 104.014 366.52 106.235 366.29C107.41 366.188 108.125 365.601 108.661 364.683C109.861 362.693 110.474 360.55 110.065 358.254C109.708 356.239 109.682 354.147 108.942 352.233C108.686 351.595 108.61 351.009 109.171 350.575C109.912 350.039 110.576 350.473 111.086 351.009C111.495 351.442 111.852 351.978 112.108 352.539C113.716 356.264 114.686 360.04 113.588 364.147C113.052 366.162 111.801 367.259 110.142 368.101C106.363 369.989 102.176 369.581 98.1675 370.27C96.5846 370.525 95.2569 368.509 93.6229 369.555C92.2443 370.423 90.7635 370.474 89.2826 370.856C85.2742 371.902 81.1892 372.158 77.1043 372.413H77.1298Z" fill="#1E6E67"/>
<path fill-rule="evenodd" clip-rule="evenodd" d="M235.27 13.8782C235.219 14.4904 235.27 15.0262 235.143 15.5109C234.606 17.7049 234.913 19.5927 236.394 21.455C237.925 23.4194 238.538 25.6644 236.266 27.7563C235.577 28.3941 235.372 29.338 235.347 30.3074C235.245 34.5423 233.815 38.3435 231.364 41.711C228.76 45.3335 229.653 49.3133 229.985 53.242C230.062 54.339 230.879 55.2829 232.028 55.7421C232.64 55.9973 233.075 56.4565 232.896 57.1708C232.717 57.8596 232.13 58.0126 231.466 58.0892C229.143 58.3443 227.841 57.5534 226.998 55.334C226.411 53.7778 225.977 52.1961 226.104 50.5378C226.207 49.0072 225.67 47.9867 224.317 47.2979C223.96 47.1193 223.577 46.9152 223.296 46.6346C222.76 46.1244 222.275 45.5376 222.632 44.7723C222.939 44.1345 223.628 44.0325 224.215 44.109C225.645 44.2876 226.181 43.5733 226.973 42.3998C228.402 40.2568 229.092 37.8077 230.47 35.6393C231.67 33.777 231.645 31.3534 231.798 29.1339C231.875 28.0114 231.696 26.7869 232.411 25.8685C233.585 24.3888 233.049 22.9602 232.053 21.9908C230.062 20.0264 230.164 17.7559 230.624 15.4599C231.083 13.1639 230.751 11.5056 228.326 10.5872C227.126 10.128 226.513 8.9545 225.977 7.83201C225.517 6.81156 225.262 5.71458 224.573 4.79617C224.164 4.26043 224.164 3.64816 224.649 3.13794C225.134 2.62771 225.696 2.62771 226.334 2.85732C227.56 3.31652 228.402 4.1839 228.99 5.3064C229.909 7.06667 230.93 8.52081 232.921 9.31166C234.887 10.1025 235.066 12.1179 235.27 13.8527V13.8782Z" fill="#1E6E67"/>
<path fill-rule="evenodd" clip-rule="evenodd" d="M167.025 96.2025C166.132 96.2535 165.825 96.3045 165.519 96.3045C164.523 96.2025 163.196 96.228 163.068 95.0035C162.915 93.5748 164.344 93.6258 165.289 93.5238C167.74 93.2687 169.553 91.9931 171.442 90.539C177.365 85.9725 182.191 80.2835 187.399 74.9771C189.263 73.0893 190.973 70.9974 193.093 69.4667C195.467 67.7574 198.326 66.7625 201.16 65.8951C201.62 65.742 202.182 65.8186 202.692 65.8696C203.254 65.9206 203.663 66.2523 203.816 66.7625C203.994 67.4003 203.816 67.9615 203.152 68.2932C202.156 68.8289 201.237 69.5432 200.19 69.8749C196.08 71.1759 193.271 74.1608 190.591 77.2221C185.255 83.2938 179.484 88.8552 173.306 94.0595C171.34 95.6923 169.042 96.4321 167.051 96.228L167.025 96.2025Z" fill="#1E6E67"/>
<path fill-rule="evenodd" clip-rule="evenodd" d="M193.935 111.229C192.633 112.326 191.433 112.964 190.003 113.346C188.037 113.882 186.301 115.005 184.667 116.255C182.906 117.632 180.914 118.296 178.667 118.193C177.953 118.168 177.187 118.015 177.033 117.148C176.906 116.408 177.468 115.974 178.029 115.795C181.961 114.571 184.897 111.356 188.957 110.413C189.799 110.208 190.361 109.596 191.076 109.214C192.148 108.627 193.271 108.244 194.548 108.142C196.284 108.015 197.433 108.474 198.173 110.208C199.475 113.321 200.114 116.637 201.084 119.852C201.773 122.097 202.309 124.367 203.739 126.332C204.582 127.505 204.735 128.985 204.811 130.439C204.837 131.255 204.811 132.148 203.739 132.352C202.692 132.556 201.952 132.199 201.543 131.179C200.522 128.5 199.041 126.051 198.378 123.219C197.765 120.541 196.82 117.938 196.156 115.26C195.799 113.806 195.007 112.683 193.961 111.229H193.935Z" fill="#1E6E67"/>
<path fill-rule="evenodd" clip-rule="evenodd" d="M219.134 27.3986C219.007 29.3374 218.522 30.6895 218.062 32.0416C217.909 32.4753 217.603 32.7304 217.169 32.7559C216.607 32.7814 216.198 32.4498 215.994 31.9651C215.586 30.9956 215.688 29.9497 215.79 28.9292C216.071 26.225 213.901 24.4903 213.211 22.1943C213.16 22.0412 212.905 21.8371 212.777 21.8626C209.586 22.3728 206.726 19.5921 203.356 21.1228C201.212 22.0922 198.914 21.531 196.922 20.3064C196.105 19.7962 195.544 19.7452 194.701 20.1534C193.22 20.8422 191.688 20.587 190.208 20.0513C188.676 19.4901 188.242 18.291 189.084 16.8879C189.493 16.1991 190.029 15.4848 190.693 15.0766C191.51 14.5919 192.735 14.4643 192.888 15.7144C193.067 17.4747 194.063 16.8879 194.982 16.8114C196.795 16.6838 198.658 16.2501 199.961 18.1635C200.471 18.9288 201.416 18.7757 202.207 18.4186C203.433 17.8829 204.658 17.4237 205.986 17.2451C207.696 17.0155 209.433 16.3267 210.479 18.5206C210.786 19.1839 211.552 18.8523 212.164 18.7758C212.981 18.6482 213.798 18.5461 214.615 18.4951C215.637 18.4441 216.632 18.8268 216.786 19.7962C217.169 22.1432 218.241 24.2352 219.007 26.4291C219.16 26.8883 219.109 27.4241 219.109 27.4496L219.134 27.3986Z" fill="#1E6E67"/>
<path fill-rule="evenodd" clip-rule="evenodd" d="M217.271 75.1817C213.135 75.5388 209.892 74.0081 207.416 70.7427C206.982 70.1559 206.599 69.5437 206.548 68.8294C206.471 67.9365 206.241 66.916 207.262 66.3803C208.437 65.7425 208.871 66.7885 209.458 67.4518C209.841 67.911 210.25 68.3957 210.658 68.8294C214.207 72.605 218.113 73.1408 222.734 70.7427C227.049 68.5232 229.985 65.0027 232.666 61.125C233.253 60.2831 233.815 59.4412 234.428 58.6249C234.734 58.1912 235.168 57.885 235.73 58.0126C236.317 58.1402 236.572 58.5994 236.598 59.1351C236.598 60.7423 236.674 62.2475 235.679 63.8036C233.151 67.7834 229.832 70.7937 225.824 73.1408C223.194 74.6714 220.232 74.901 217.296 75.1817H217.271Z" fill="#1E6E67"/>
<path fill-rule="evenodd" clip-rule="evenodd" d="M155.843 138.424C152.932 138.169 150.277 137.097 149.204 134.061C148.081 130.949 145.656 128.857 143.792 126.357C140.652 122.096 137.103 118.142 134.013 113.831C133.324 112.861 131.996 111.739 133.145 110.667C134.371 109.519 135.647 110.82 136.592 111.688C137.715 112.708 138.66 113.958 139.63 115.157C143.46 119.953 147.29 124.75 151.119 129.52C151.911 130.49 152.498 131.561 152.906 132.709C153.519 134.342 154.464 135.566 156.43 135.617C157.451 135.617 158.319 136.153 158.166 137.301C158.013 138.577 156.889 138.373 155.843 138.424Z" fill="#1E6E67"/>
<path fill-rule="evenodd" clip-rule="evenodd" d="M215.56 61.8138C215.637 64.2119 213.492 66.4824 211.322 66.3038C210.607 66.2528 209.867 66.0232 209.586 65.2323C209.305 64.4415 209.943 64.2629 210.454 63.8802C212.547 62.2475 211.935 57.1453 209.56 56.0993C208.973 55.8442 208.36 55.9972 207.748 56.0993C206.828 56.2268 205.935 56.4565 205.016 56.5585C201.416 56.9667 199.399 55.9717 197.714 52.7828C196.514 50.4868 195.927 47.9867 195.748 45.4356C195.722 45.0529 195.748 44.6192 195.901 44.2621C196.08 43.7774 196.386 43.2926 196.948 43.2416C197.51 43.1906 197.944 43.5988 198.122 44.0835C198.454 44.9509 198.761 45.8183 198.863 46.7367C199.016 47.9867 199.424 49.1347 199.858 50.2572C201.033 53.3441 202.335 54.1349 205.475 53.3951C206.701 53.1145 207.901 53.0379 209.126 52.9614C212.139 52.7828 212.93 53.2931 214.079 55.9972C214.896 57.8851 215.049 59.9515 215.535 61.8393L215.56 61.8138Z" fill="#1E6E67"/>
<path fill-rule="evenodd" clip-rule="evenodd" d="M239.968 188.987C238.513 188.859 237.057 189.114 235.679 188.527C235.168 188.323 234.734 188.068 234.785 187.481C234.811 186.92 235.219 186.563 235.73 186.384C236.113 186.257 236.521 186.129 236.93 186.129C243.747 186.129 250.231 184.267 256.793 182.813C259.678 182.175 262.486 181.257 265.218 180.058C266.163 179.649 267.108 179.292 268.18 179.445C268.869 179.547 269.329 179.854 269.482 180.542C269.61 181.129 269.227 181.486 268.793 181.792C266.418 183.476 263.686 184.446 260.929 185.109C255.185 186.512 249.389 187.609 243.593 188.757C242.393 188.987 241.142 188.936 239.968 189.012V188.987Z" fill="#1E6E67"/>
<path fill-rule="evenodd" clip-rule="evenodd" d="M277.575 213.019C277.575 213.81 276.963 214.116 275.967 213.963C273.592 213.554 271.473 212.457 269.559 211.156C266.52 209.141 263.635 206.845 261.516 203.784C260.648 202.508 259.806 201.207 259.448 199.702C259.295 199.013 259.269 198.222 260.086 197.84C260.75 197.533 261.312 197.916 261.72 198.375C262.614 199.345 263.431 200.391 264.299 201.411C267.542 205.263 271.167 208.707 275.89 210.748C276.784 211.131 277.473 211.667 277.601 212.993L277.575 213.019Z" fill="#1E6E67"/>
<path fill-rule="evenodd" clip-rule="evenodd" d="M164.702 216.284C164.651 217.305 164.012 217.662 163.247 217.662C161.842 217.662 160.668 217.05 159.749 216.055C155.919 211.998 152.038 207.993 149.383 203.018C149.23 202.738 149.051 202.508 148.924 202.227C148.668 201.564 148.336 200.799 149.026 200.263C149.868 199.625 150.583 200.187 151.145 200.799C153.238 203.146 155.306 205.544 157.425 207.865C159.213 209.804 161.025 211.718 162.889 213.58C163.706 214.396 164.217 215.366 164.676 216.259L164.702 216.284Z" fill="#1E6E67"/>
<path fill-rule="evenodd" clip-rule="evenodd" d="M52.5688 194.472C52.8496 197.177 51.4454 198.911 48.9178 200.008C45.7264 201.411 42.4584 202.559 39.1904 203.656C38.5266 203.886 37.633 204.065 37.2245 203.35C36.765 202.559 37.199 201.743 37.8117 201.131C38.399 200.57 39.1138 200.136 39.9564 200.008C41.9989 199.677 43.7094 198.427 45.6753 197.865C47.2838 197.406 48.1774 196.207 48.3306 194.472C48.4327 193.477 48.7902 192.508 48.4583 191.437C48.1774 190.544 48.0242 189.523 49.1221 189.064C50.2965 188.579 51.0369 189.37 51.7007 190.212C52.6454 191.411 52.7475 192.84 52.5943 194.447L52.5688 194.472Z" fill="#1E6E67"/>
<path fill-rule="evenodd" clip-rule="evenodd" d="M215.969 4.61753C215.841 5.40838 215.407 6.04616 214.564 5.9186C213.696 5.76554 212.752 5.71451 211.96 5.10224C211.169 4.43895 210.147 4.15833 209.203 3.80117C207.977 3.31646 206.905 3.08685 205.858 4.23486C205.22 4.92366 204.275 5.15327 203.305 5.10224C201.799 5.0002 200.446 4.79611 199.782 6.88803C199.399 8.08706 194.548 7.98501 193.45 6.99008C192.761 6.35229 193.016 5.33184 194.063 5.25531C195.441 5.15326 196.31 4.69406 196.999 3.46952C197.561 2.47458 198.684 2.47458 199.731 2.42356C200.726 2.37254 201.799 2.67867 202.718 1.98987C206.318 -0.714322 209.841 0.459195 213.339 2.21947C213.977 2.55112 214.564 2.98481 215.152 3.39299C215.586 3.69912 215.841 4.13282 215.943 4.66855L215.969 4.61753Z" fill="#1E6E67"/>
<path fill-rule="evenodd" clip-rule="evenodd" d="M223.347 32.1433C222.888 32.2964 222.658 32.3219 222.53 32.4495C221.79 33.0873 221.049 34.6179 220.207 33.9036C219.211 33.0617 220.258 31.6586 220.871 30.7147C221.764 29.3626 223.092 28.7503 224.828 28.9544C226.513 29.1585 227.33 30.179 227.841 31.5821C229.372 35.6384 226.462 42.1437 222.428 43.6234C221.943 43.802 221.432 43.853 220.973 43.4703C220.437 43.0111 220.309 42.3733 220.641 41.8121C221.254 40.7661 222.019 39.7967 222.683 38.7763C223.985 36.7354 224.956 34.6179 223.347 32.1433Z" fill="#1E6E67"/>
<path fill-rule="evenodd" clip-rule="evenodd" d="M196.922 24.797C196.973 25.3072 196.948 26.047 197.178 26.6848C198.327 30.1033 197.024 33.1136 195.518 35.9964C194.803 37.374 194.854 38.2414 196.003 39.1598C196.616 39.6445 196.999 40.3843 196.59 41.0476C196.054 41.864 195.11 41.5834 194.344 41.3538C192.556 40.7925 191.331 39.0067 191.408 37.1189C191.433 36.5066 191.535 35.8688 191.765 35.3331C193.348 31.8381 194.318 28.241 194.037 24.3633C194.037 24.0571 194.037 23.751 194.139 23.4449C194.344 22.5775 194.369 21.4805 195.722 21.6336C196.922 21.7611 197.05 22.7561 197.127 23.6745C197.152 23.9551 197.024 24.2612 196.948 24.797H196.922Z" fill="#1E6E67"/>
<path fill-rule="evenodd" clip-rule="evenodd" d="M6.48492 363.867C6.48492 366.724 6.02536 367.26 3.65096 367.235C0.638275 367.235 -0.178724 366.444 0.0255257 363.739C0.0765881 363.025 0.178713 362.311 0.382963 361.648C0.944649 359.785 1.81271 359.403 4.13605 359.53C5.77005 359.632 6.12749 360.653 6.28067 361.954C6.35727 362.668 6.45939 363.357 6.51045 363.867H6.48492Z" fill="#1E6E67"/>
<path fill-rule="evenodd" clip-rule="evenodd" d="M246.708 82.171C246.606 82.7322 246.274 83.0384 245.764 83.268C242.189 84.8241 238.793 86.712 235.96 89.4672C235.423 89.9774 234.683 90.3346 234.045 89.7223C233.509 89.2121 233.891 88.5488 234.223 88.0641C236.521 84.6201 239.61 82.1965 243.542 80.9209C244.206 80.7168 244.972 80.8189 245.687 80.8699C246.427 80.9464 246.632 81.5332 246.734 82.171H246.708Z" fill="#1E6E67"/>
<path fill-rule="evenodd" clip-rule="evenodd" d="M28.9779 362.897C28.9779 362.489 28.9779 362.081 28.9779 361.673C29.08 359.504 29.5396 358.943 31.3012 358.841C33.1395 358.739 34.2884 359.53 34.6203 361.239C34.7735 362.03 34.748 362.872 34.748 363.688C34.748 366.622 32.8586 367.821 30.1268 366.673C29.5141 366.418 29.1056 366.009 29.08 365.321C29.0545 364.504 29.08 363.688 29.08 362.872H29.0034L28.9779 362.897Z" fill="#1E6E67"/>
<path fill-rule="evenodd" clip-rule="evenodd" d="M65.1557 50.2568C65.7429 50.2568 66.1514 50.563 66.4578 51.0222C66.9684 51.8385 67.1982 52.7569 67.2748 53.7264C67.4535 56.0989 66.8663 58.7011 69.5726 60.2572C70.2109 60.6144 69.6492 61.2012 69.2407 61.5328C68.4748 62.1451 67.6322 61.992 66.8663 61.5328C66.0238 61.0226 65.3089 60.2572 65.1302 59.3133C64.6961 56.9153 64.3898 54.4917 64.1345 52.0426C64.0579 51.3283 64.2621 50.5119 65.1812 50.2568H65.1557Z" fill="#1E6E67"/>
<path fill-rule="evenodd" clip-rule="evenodd" d="M58.6452 367.234C56.7814 367.158 55.173 366.648 55.9644 364.352C56.2198 363.612 56.2708 362.77 56.424 361.979C56.7048 360.525 57.5474 359.989 59.0282 360.117C60.6367 360.27 60.6622 361.469 60.7643 362.515C60.9175 363.918 60.1005 365.219 60.1516 366.673C60.1516 367.209 59.1814 367.183 58.6197 367.26L58.6452 367.234Z" fill="#1E6E67"/>
<path fill-rule="evenodd" clip-rule="evenodd" d="M282.988 340.192C282.299 340.115 281.66 340.141 281.099 339.962C280.307 339.707 279.618 339.222 279.72 338.227C279.797 337.232 280.614 337.105 281.303 337.207C282.963 337.436 284.367 336.059 286.052 336.544C286.639 336.722 287.277 336.671 287.558 337.36C287.916 338.253 287.201 338.636 286.69 339.095C285.618 340.064 284.188 339.835 283.014 340.217L282.988 340.192Z" fill="#1E6E67"/>
<path fill-rule="evenodd" clip-rule="evenodd" d="M282.605 335.524C282.145 335.473 281.941 335.498 281.737 335.447C280.69 335.218 279.158 335.294 279.133 333.917C279.133 332.463 280.665 332.667 281.686 332.437C282.477 332.258 283.269 332.156 284.086 332.105C284.826 332.054 285.516 332.284 285.72 333.1C285.924 333.993 285.567 334.733 284.699 335.039C283.958 335.32 283.141 335.422 282.605 335.549V335.524Z" fill="#1E6E67"/>
<path fill-rule="evenodd" clip-rule="evenodd" d="M90.9422 351.8C90.738 352.948 89.7678 352.974 89.0785 352.693C87.3934 352.004 85.9126 350.933 85.019 349.275C84.5084 348.305 85.2233 347.973 85.9892 347.897C87.1381 347.795 90.3806 350.065 90.7635 351.188C90.8401 351.366 90.8657 351.571 90.9167 351.775L90.9422 351.8Z" fill="#1E6E67"/>
<path fill-rule="evenodd" clip-rule="evenodd" d="M79.1723 56.9404C80.7042 56.9404 82.1595 57.17 83.1296 58.5221C83.7935 59.4405 83.436 60.2058 82.2871 60.2058C80.3467 60.2058 78.5596 59.4915 76.6958 59.1088C76.3128 59.0323 75.9554 58.7262 75.9809 58.1904C76.032 57.7312 76.2873 57.3486 76.6447 57.17C77.4362 56.7873 78.3042 56.9404 79.1468 56.9404H79.1723Z" fill="#1E6E67"/>
<path fill-rule="evenodd" clip-rule="evenodd" d="M203.535 335.6C202.386 335.345 200.65 335.778 200.548 334.171C200.471 332.513 202.258 332.794 203.356 332.59C204.479 332.36 205.603 332.385 206.573 333.151C207.441 333.84 207.288 334.962 206.241 335.243C205.373 335.472 204.428 335.498 203.535 335.625V335.6Z" fill="#1E6E67"/>
<path fill-rule="evenodd" clip-rule="evenodd" d="M173.638 345.371C174.863 345.371 175.604 345.728 176.242 346.264C176.804 346.749 177.187 347.412 176.753 348.152C176.421 348.739 175.859 348.866 175.17 348.739C174.276 348.56 173.357 348.458 172.463 348.33C171.646 348.203 170.727 348.177 170.804 347.004C170.88 346.009 171.672 345.677 172.489 345.499C172.974 345.371 173.51 345.397 173.663 345.397L173.638 345.371Z" fill="#1E6E67"/>
<path fill-rule="evenodd" clip-rule="evenodd" d="M171.314 350.091C172.591 350.116 173.842 350.142 174.685 351.264C175.016 351.698 175.17 352.157 175.016 352.693C174.812 353.305 174.276 353.331 173.765 353.356C172.08 353.535 170.574 352.693 169.042 352.234C168.149 351.953 168.276 351.111 168.991 350.55C169.68 350.014 170.548 350.167 171.314 350.065V350.091Z" fill="#1E6E67"/>
<path fill-rule="evenodd" clip-rule="evenodd" d="M85.7338 356.29C84.3806 356.392 81.5211 353.637 81.5722 352.285C81.5722 351.826 81.8275 351.57 82.2871 351.417C84.1764 350.831 87.0869 353.356 86.8061 355.346C86.755 355.805 86.2189 356.264 85.7593 356.316L85.7338 356.29Z" fill="#1E6E67"/>
<path fill-rule="evenodd" clip-rule="evenodd" d="M282.222 327.615C282.631 327.615 283.039 327.615 283.448 327.615C284.239 327.615 284.852 327.947 285.056 328.763C285.286 329.733 284.545 330.064 283.907 330.319C282.426 330.932 280.894 330.779 279.388 330.294C278.75 330.09 278.29 329.631 278.392 328.942C278.495 328.176 279.158 328.049 279.771 327.972C280.588 327.87 281.405 327.819 282.222 327.768C282.222 327.717 282.222 327.692 282.222 327.641V327.615Z" fill="#1E6E67"/>
<path fill-rule="evenodd" clip-rule="evenodd" d="M251.814 83.6769C253.934 83.6003 256.64 86.5086 256.385 88.3454C256.333 88.7536 256.129 89.1108 255.67 89.2383C255.261 89.3659 254.802 89.3404 254.572 88.9832C253.576 87.5801 252.427 86.3045 251.176 85.1055C250.844 84.7994 250.691 84.3402 250.972 84.034C251.202 83.7534 251.661 83.7024 251.814 83.6514V83.6769Z" fill="#1E6E67"/>
<path fill-rule="evenodd" clip-rule="evenodd" d="M71.9214 65.0277C73.7852 63.9052 75.2915 62.9613 76.8744 62.0939C77.4872 61.7623 78.3297 61.4306 78.8914 62.2215C79.3254 62.8338 78.8659 63.4205 78.4829 63.9307C77.0276 66.0482 75.1894 66.4308 71.9214 65.0022V65.0277Z" fill="#1E6E67"/>
<path fill-rule="evenodd" clip-rule="evenodd" d="M203.56 341.698C203.969 341.698 204.377 341.646 204.786 341.698C205.807 341.825 206.548 342.386 206.445 343.483C206.343 344.555 205.475 344.631 204.607 344.529C203.816 344.453 202.999 344.402 202.207 344.274C201.416 344.147 200.42 344.096 200.522 342.973C200.599 341.978 201.594 341.902 202.36 341.723C202.743 341.646 203.152 341.672 203.56 341.646V341.698Z" fill="#1E6E67"/>
<path fill-rule="evenodd" clip-rule="evenodd" d="M203.714 337.105C204.862 337.284 206.624 336.672 206.675 338.407C206.726 340.116 204.965 339.81 203.841 339.759C202.667 339.682 200.701 340.345 200.752 338.356C200.803 336.723 202.641 337.335 203.714 337.105Z" fill="#1E6E67"/>
<path fill-rule="evenodd" clip-rule="evenodd" d="M218.598 -0.000336084C220.385 -0.0513586 222.453 2.95897 221.713 4.41311C221.534 4.77027 221.177 4.97436 220.717 4.89782C219.262 4.6172 217.449 2.19363 217.628 0.765001C217.73 0.0761977 218.241 0.0761977 218.598 -0.000336084Z" fill="#1E6E67"/>
<path fill-rule="evenodd" clip-rule="evenodd" d="M201.288 45.2053C203.024 44.2104 204.403 43.394 205.858 42.6287C206.42 42.3481 207.135 42.3226 207.518 42.9348C207.799 43.394 207.594 43.9298 207.313 44.389C206.037 46.4299 203.918 46.8126 201.288 45.2053Z" fill="#1E6E67"/>
<path fill-rule="evenodd" clip-rule="evenodd" d="M277.524 344.504C278.852 344.504 280.077 344.938 280.92 346.086C281.507 346.928 281.15 347.667 280.128 347.846C278.546 348.101 277.422 347.132 276.222 346.392C275.788 346.111 275.354 345.805 275.558 345.193C275.763 344.606 276.35 344.682 276.835 344.555C277.039 344.504 277.243 344.504 277.524 344.504Z" fill="#1E6E67"/>
<path fill-rule="evenodd" clip-rule="evenodd" d="M278.29 342.233C280.052 341.289 281.711 341.161 283.294 341.978C284.086 342.386 285.005 343.024 284.392 344.07C283.933 344.861 283.039 344.835 282.248 344.376C280.946 343.636 279.618 342.922 278.316 342.207L278.29 342.233Z" fill="#1E6E67"/>
<path fill-rule="evenodd" clip-rule="evenodd" d="M191.918 11.9899C191.688 11.9644 191.178 11.9134 190.693 11.7859C190.131 11.6583 189.825 11.2756 189.799 10.7144C189.774 10.1021 190.157 9.77047 190.667 9.6174C191.152 9.46434 191.663 9.41331 192.173 9.41331C193.246 9.36229 194.446 9.41331 194.344 10.8419C194.267 12.092 193.067 11.8879 191.918 12.0155V11.9899Z" fill="#1E6E67"/>
<path fill-rule="evenodd" clip-rule="evenodd" d="M75.0618 51.0736C73.7597 50.9716 73.2235 50.1552 73.198 48.9817C73.1724 48.0633 73.4533 47.2725 74.5256 47.2214C75.9298 47.1704 76.2107 48.2674 76.3638 49.3134C76.517 50.2828 76.0575 50.8951 75.0362 51.0736H75.0618Z" fill="#1E6E67"/>
<path fill-rule="evenodd" clip-rule="evenodd" d="M203.433 30.5109C203.203 31.3527 203.152 32.5007 201.875 32.2456C200.701 32.016 200.829 30.919 200.905 30.0006C200.956 29.1077 201.314 28.2914 202.309 28.3934C203.586 28.4955 203.433 29.5924 203.433 30.5109Z" fill="#1E6E67"/>
<path fill-rule="evenodd" clip-rule="evenodd" d="M62.526 54.0584C62.4749 54.7982 62.2962 55.538 61.5047 55.3849C60.3303 55.1553 59.8707 54.1859 59.8963 53.0124C59.9218 52.2981 60.2537 51.6858 60.9941 51.7623C62.4239 51.8899 62.4239 53.0634 62.5005 54.0584H62.526Z" fill="#1E6E67"/>
<path fill-rule="evenodd" clip-rule="evenodd" d="M73.8617 41.8379C72.1511 42.2461 70.6193 42.7563 69.0874 43.9298C69.547 40.7154 71.232 40.0521 73.8617 41.8379Z" fill="#1E6E67"/>
<path fill-rule="evenodd" clip-rule="evenodd" d="M61.6323 46.9909C60.6876 47.3226 59.8962 47.5522 59.1302 47.8583C58.5175 48.0879 57.7771 48.343 57.5728 47.5522C57.3941 46.9144 58.0069 46.3531 58.5941 46.1491C59.5898 45.7664 60.6366 45.5878 61.6323 46.9909Z" fill="#1E6E67"/>
<path fill-rule="evenodd" clip-rule="evenodd" d="M72.6363 59.1344C72.5341 59.6191 72.1256 59.9252 71.7682 59.8742C71.232 59.8232 70.798 59.4405 71.0278 58.7772C71.181 58.3435 71.5384 58.1394 71.998 58.216C72.4831 58.318 72.6618 58.6242 72.6363 59.1089V59.1344Z" fill="#1E6E67"/>
<path fill-rule="evenodd" clip-rule="evenodd" d="M272.316 352.641C271.499 352.641 270.682 352.641 269.89 352.641C269.661 352.514 269.584 352.361 269.635 352.208C269.686 352.029 269.737 351.953 269.814 351.953C270.35 351.366 271.039 351.391 271.754 351.442C271.958 351.825 272.137 352.208 272.341 352.616L272.316 352.641Z" fill="#1E6E67"/>
<path fill-rule="evenodd" clip-rule="evenodd" d="M33.8288 335.447C33.5224 335.217 33.5735 335.013 33.9054 334.911C34.2884 334.809 34.5947 335.013 34.7224 335.396C34.416 335.396 34.1352 335.396 33.8288 335.447Z" fill="#1E6E67"/>
<path fill-rule="evenodd" clip-rule="evenodd" d="M308.009 343.432C304.69 336.799 302.545 329.809 300.937 322.615C300.579 321.033 300.068 319.451 299.303 317.997C298.945 317.309 298.485 316.773 297.668 316.824C294.835 316.977 291.898 316.696 289.345 318.405C286.818 320.089 283.882 320.625 280.971 321.237C280.129 321.416 279.465 321.314 278.75 320.65C277.652 319.605 276.375 318.712 275.431 317.487C273.107 314.426 272.137 310.701 270.605 307.257C268.486 302.512 266.801 297.588 264.861 292.741C262.869 287.792 260.597 282.996 258.836 277.97C254.699 266.082 251.508 253.939 248.521 241.719C247.04 235.673 245.227 229.728 243.313 223.81C243.083 223.146 242.827 222.458 242.444 221.845C241.806 220.774 240.734 220.697 239.738 221.106C238.768 221.514 239.457 222.33 239.585 222.968C239.968 224.754 239.968 226.642 240.683 228.376C240.938 229.014 240.913 229.626 240.606 230.162C239.355 232.433 239.023 235.009 238.079 237.382C235.806 243.173 233.202 248.836 231.058 254.704C229.219 259.704 227.611 264.781 226.283 269.883C224.853 275.394 223.73 281.006 222.811 286.644C221.764 293.073 222.454 299.502 222.402 305.905C222.351 311.951 222.173 317.972 221.739 323.992C221.56 326.416 219.696 328.661 217.909 328.431C214.386 327.972 211.041 329.146 207.569 329.248C206.828 329.248 205.705 329.171 205.858 330.421C205.986 331.416 206.905 331.646 207.748 331.646C209.79 331.646 211.833 331.773 213.875 331.365C214.973 331.136 216.096 331.136 217.245 331.085C218.266 331.034 218.828 331.671 218.726 332.615C218.394 335.268 218.624 337.896 218.726 340.549C218.777 341.595 218.445 342.156 217.322 342.488C215.075 343.151 212.956 344.248 210.582 344.452C209.969 344.504 209.382 344.886 209.458 345.652C209.509 346.238 209.969 346.442 210.479 346.621C211.781 347.055 213.084 347.08 214.411 346.774C215.866 346.468 217.271 345.958 218.93 345.192C219.313 347.565 219.62 349.555 219.951 351.57C220.13 352.718 219.722 353.356 218.624 353.968C215.407 355.754 211.909 356.366 208.386 356.953C207.262 357.132 205.297 356.698 205.322 358.203C205.322 360.014 207.339 359.479 208.513 359.479C211.909 359.479 215.228 358.815 218.42 357.642C218.905 357.463 219.62 356.927 219.977 357.795C220.258 358.484 220.207 359.275 219.645 359.81C219.288 360.142 218.752 360.269 218.292 360.499C214.488 362.412 210.326 362.285 206.267 362.259C202.743 362.259 199.348 362.514 195.927 363.254C194.829 363.484 193.042 363.433 193.399 365.168C193.731 366.749 195.365 366.239 196.539 366.214C196.922 366.214 197.305 365.882 197.688 365.831C199.833 365.601 201.875 364.785 204.071 364.964C207.467 365.244 210.837 365.04 214.207 364.887C216.786 364.759 219.237 364.045 221.509 362.693C223.526 361.494 224.675 359.759 224.547 357.387C224.445 355.346 224.317 353.279 223.96 351.289C222.785 344.708 222.939 338.049 222.785 331.416C222.785 330.498 223.168 329.886 223.756 329.273C225.619 327.334 226.462 324.834 226.487 322.283C226.564 313.686 226.973 305.089 226.615 296.491C226.513 293.711 226.666 290.955 226.998 288.226C227.841 281.644 229.347 275.189 230.93 268.735C231.798 265.164 233.049 261.694 234.07 258.173C235.985 251.464 239.611 245.469 241.857 238.912C242.062 238.326 242.036 237.407 243.057 237.382C243.236 237.969 243.44 238.555 243.593 239.142C245.381 246.26 247.091 253.403 249.032 260.469C250.104 264.398 251.687 268.199 252.785 272.103C254.01 276.414 255.312 280.649 257.125 284.807C260.699 292.996 263.686 301.466 267.184 309.706C268.716 313.329 269.916 317.232 272.878 320.115C273.669 320.906 274.537 321.645 275.175 322.564C276.018 323.788 277.09 324.273 278.546 324.248C282.043 324.197 285.439 323.508 288.733 322.385C291.005 321.594 292.996 320.115 295.6 319.528C296.979 324.707 298.281 329.707 299.609 334.707C297.745 336.085 295.805 336.85 293.558 336.748C292.843 336.748 292.103 336.672 291.439 337.029C290.954 337.284 290.647 337.692 290.698 338.253C290.75 338.687 291.005 338.993 291.439 339.121C292.818 339.452 294.145 340.014 295.652 339.58C297.388 339.07 299.226 338.993 300.885 338.075C302.009 340.473 303.005 342.59 303.975 344.733C304.792 346.57 304.639 346.672 302.902 347.896C300.043 349.937 296.724 350.677 293.405 351.085C289.396 351.545 285.516 352.438 281.839 353.917C279.107 355.014 276.375 355.575 273.516 355.83C271.167 356.672 268.767 356.698 266.393 356.035C265.831 355.882 264.708 356.188 264.989 355.04C265.167 354.223 266.01 354.555 266.546 354.708C268.435 355.218 270.35 355.167 272.265 355.167C273.235 354.368 273.218 353.526 272.214 352.642C271.678 352.31 271.09 352.08 270.427 352.157C270.248 352.08 270.044 352.489 269.967 352.182C269.839 352.131 269.891 351.876 269.967 352.182C269.993 352.182 270.044 352.182 270.12 352.182C270.631 352.055 271.244 352.004 271.627 351.494C272.801 350.779 273.924 350.371 274.665 352.029C274.997 352.769 275.482 353.254 276.324 352.871C277.244 352.438 278.239 351.978 278.341 350.779C278.418 349.937 277.754 349.478 277.116 349.172C274.665 348.024 272.265 346.493 269.533 348.764C268.895 349.3 267.823 349.402 266.903 349.555C262.614 350.244 260.521 353.228 259.142 356.953C258.325 359.198 258.887 360.831 260.776 362.208C262.078 363.152 263.508 363.688 265.04 363.79C269.125 364.122 273.21 364.632 277.295 364.249C281.992 363.79 286.665 363.101 290.852 360.805C292.715 359.785 294.63 359.172 296.647 359.147C298.23 359.147 299.609 358.611 301.09 358.229C303.49 357.616 305.43 355.984 307.728 355.269C309.311 354.759 309.872 353.892 309.847 352.386C309.821 349.274 309.234 346.187 307.855 343.458L308.009 343.432ZM303.132 353.305H303.081C302.928 353.509 302.724 353.662 302.494 353.764C300.196 355.473 297.464 355.958 294.732 356.315C292.486 356.621 290.367 357.259 288.324 358.254C280.946 361.826 273.159 362.03 265.244 360.55C264.733 360.448 264.274 360.244 263.814 360.04C263.303 359.785 262.997 359.326 263.176 358.79C263.406 358.101 263.993 358.382 264.452 358.509C270.963 360.116 277.244 358.841 283.397 356.774C288.758 354.989 294.171 353.637 299.788 353.203C300.451 352.871 301.243 353.228 301.856 352.718C301.983 352.616 302.136 352.565 302.315 352.591C303.03 352.31 303.158 352.693 303.107 353.305H303.132Z" fill="#1E6E67"/>
<path fill-rule="evenodd" clip-rule="evenodd" d="M303.132 353.305C302.851 353.076 302.596 352.82 302.341 352.591C303.336 352.03 304.128 351.06 305.634 350.729C305.302 352.387 304.102 352.744 303.132 353.305Z" fill="#1E6E67"/>
<path fill-rule="evenodd" clip-rule="evenodd" d="M301.907 352.718C301.37 353.458 300.605 353.305 299.839 353.202C300.4 352.539 301.141 352.565 301.907 352.718Z" fill="#1E6E67"/>
<path fill-rule="evenodd" clip-rule="evenodd" d="M269.814 351.979C269.814 352.208 269.865 352.438 269.89 352.667C269.559 352.667 269.099 352.846 269.073 352.31C269.073 352.208 269.559 352.106 269.814 352.004V351.979Z" fill="#1E6E67"/>
<path fill-rule="evenodd" clip-rule="evenodd" d="M302.519 353.764C302.724 353.611 302.902 353.483 303.107 353.33C303.03 353.636 302.851 353.789 302.519 353.764Z" fill="#1E6E67"/>
<path fill-rule="evenodd" clip-rule="evenodd" d="M257.099 115.285C255.874 115.055 255.67 116.28 255.389 117.096C254.47 119.801 253.372 122.479 252.81 125.26C251.84 130.082 249.951 134.546 248.036 139.011C246.58 142.404 244.717 145.567 242.853 148.756C240.504 152.787 238.666 156.996 234.581 159.879C231.977 161.716 229.347 162.557 226.36 162.506C222.811 162.43 219.237 162.098 215.33 161.843C204.786 162.889 194.471 159.343 183.876 157.965C181.399 157.659 180.761 156.766 180.684 154.241C180.582 150.338 180.684 146.46 180.633 142.582C180.633 141.434 181.144 140.975 182.191 140.72C184.284 140.21 186.352 139.648 188.42 139.011C193.271 137.505 198.224 136.995 203.254 137.531C207.441 137.99 211.628 137.709 215.815 137.76C216.53 137.76 217.245 137.582 217.934 137.429C219.237 137.097 220.028 136.434 220.156 134.903C220.411 131.587 221.841 128.551 223.424 125.719C225.109 122.658 226.59 119.52 227.33 116.152C228.555 110.463 229.5 104.723 230.547 99.0089C230.675 98.2946 230.777 97.6058 230.802 96.866C230.802 96.3557 230.649 95.82 230.113 95.5904C229.602 95.3863 229.092 95.5904 228.709 95.922C227.483 96.968 226.845 98.3966 226.513 99.8763C225.721 103.371 224.956 106.866 224.368 110.387C223.602 114.953 222.249 119.29 220.156 123.449C218.471 126.791 216.173 129.903 215.841 133.832C215.739 134.98 214.794 134.929 213.977 134.929C210.275 134.929 206.548 135.26 202.922 134.75C196.31 133.857 190.105 135.362 183.927 137.25C181.067 138.143 178.284 138.424 175.502 137.378C172.183 136.128 168.659 136.128 165.213 135.771C163.272 135.567 161.332 136.204 159.979 137.837C159.315 138.628 158.6 139.215 157.528 139.521C154.132 140.465 151.962 143.832 152.855 147.2C153.366 149.164 153.57 151.205 154.209 153.169C154.387 153.756 154.489 154.368 154.898 154.853C158.038 158.527 161.562 161.129 166.846 159.93C169.323 159.369 171.876 159.088 174.378 158.501C175.604 158.195 177.008 157.71 178.208 158.68C179.459 159.7 180.965 159.904 182.446 160.338C185.306 161.154 188.242 161.588 191.127 162.175C193.91 162.762 196.641 163.68 199.501 163.961C207.262 164.726 214.998 164.981 222.785 165.16C225.543 165.211 228.275 165.721 231.032 165.16C235.551 164.216 239.687 162.532 242.113 158.348C245.278 152.889 248.572 147.48 251.355 141.791C253.985 136.434 255.516 130.694 257.329 125.056C258.07 122.76 258.478 120.26 258.453 117.785C258.453 116.765 258.453 115.54 257.176 115.311L257.099 115.285ZM176.88 143.832C176.88 144.138 176.829 144.444 176.804 144.751C176.804 147.608 176.293 150.44 176.727 153.271C176.906 154.496 176.497 155.057 175.144 155.261C172.029 155.72 168.915 156.282 165.825 156.97C162.327 157.761 159.545 155.287 158.242 151.843C157.604 150.133 157.451 148.271 156.889 146.511C156.302 144.674 157.63 142.557 159.596 142.072C161.332 141.638 162.864 141.102 163.859 139.47C164.344 138.704 165.238 138.551 166.055 138.679C168.787 139.036 171.544 139.138 174.199 139.954C176.906 140.771 176.982 140.898 176.855 143.832H176.88Z" fill="#1E6E67"/>
<path fill-rule="evenodd" clip-rule="evenodd" d="M101.001 59.619C97.0952 58.1904 95.1293 54.9505 96.1505 50.9707C96.7633 48.5727 97.1717 46.1746 97.0952 43.7C97.0441 42.2714 96.8654 40.7662 95.8441 39.8223C93.9548 38.0875 93.674 35.817 93.1889 33.572C92.04 28.3422 88.5167 25.1533 83.1296 24.4645C82.7211 24.4135 82.2615 24.3625 81.8786 24.1839C78.5084 22.5512 74.9341 22.3471 71.3342 22.7042C65.3343 23.342 59.8707 25.2809 55.8112 30.0005C51.2411 35.3323 50.4752 41.5571 52.4921 48.0369C53.9729 52.8075 55.9388 57.4506 57.8537 62.0681C59.9728 67.1959 63.4706 71.3287 67.8364 74.7217C69.0364 75.6911 70.3895 76.0993 71.9214 76.3289C75.2149 76.8646 78.1255 75.334 81.2658 75.0788C81.9552 75.0278 82.3637 74.4666 82.3126 73.7012C82.2615 72.9869 81.9296 72.5277 81.2403 72.2726C79.4276 71.6348 77.5638 71.8899 75.9043 72.5022C72.7384 73.6502 70.2619 72.6553 68.0406 70.4868C66.9683 69.4409 65.9726 68.3184 65.0024 67.1959C61.5302 63.2671 59.9728 58.3435 58.1856 53.5473C56.9346 50.1288 55.9388 46.6593 55.8622 42.9602C55.7601 37.1946 58.0835 32.4751 62.6536 29.2096C66.7896 26.2758 71.7427 25.7146 76.7468 26.0207C77.5893 26.0717 78.3042 26.4289 78.9169 27.0922C76.6702 28.4698 75.4702 31.123 76.0319 33.9037C76.7213 37.2967 78.585 40.1795 80.4233 43.0367C80.8062 43.6235 81.4956 44.0572 82.1083 44.4653C82.6445 44.8225 83.2828 45.0776 83.8445 44.5164C84.304 44.0572 84.0742 43.4959 83.8955 43.0112C83.053 40.9193 81.9296 39.0059 80.7041 37.1181C78.1255 33.1383 79.0701 32.0924 82.2871 29.9494C82.8232 29.5923 83.436 29.3627 83.7934 28.8014C84.4827 27.7555 85.2231 28.1381 85.9635 28.6994C87.7252 30.0515 88.7464 31.8373 89.4358 33.9292C89.9464 35.4854 89.8698 36.5313 88.1592 37.2457C86.372 37.9855 85.7593 39.6437 85.8614 41.455C85.938 42.45 85.6827 44.0061 86.9593 44.1847C88.4401 44.3888 88.1848 42.7561 88.4401 41.8377C88.7209 40.8938 88.7465 39.8478 89.972 39.7203C91.223 39.5927 91.9123 40.4856 92.3974 41.455C92.908 42.5265 93.0612 43.7 93.1378 44.8735C93.291 47.144 92.7804 49.338 92.2442 51.5065C91.9889 52.4759 91.9379 53.3433 92.3719 54.2872C93.0868 55.8434 93.4697 57.6036 94.4399 58.9557C95.9207 60.9966 95.6654 62.8079 94.7463 64.8999C93.4953 67.7061 91.9634 70.3593 90.5592 73.089C89.0018 76.1248 89.3337 76.2779 85.8104 75.7166C84.6359 75.538 82.8998 74.9768 82.5934 76.7116C82.3126 78.2677 84.0487 78.2933 85.1465 78.4463C86.6018 78.6759 86.9082 79.4158 86.4997 80.6913C86.3465 81.2015 86.2189 81.7118 86.0401 82.222C85.2742 84.518 84.9934 84.5435 83.1041 83.1659C81.6488 82.0944 80.219 80.9464 78.4063 80.5127C77.9978 80.4107 77.5638 80.4107 77.2063 80.6913C76.7978 81.023 76.8489 81.5332 77.1042 81.8393C79.0446 84.1864 80.5765 86.9926 83.8445 87.911C86.4997 88.6763 88.4911 87.6814 88.772 85.0027C88.9762 83.1404 89.5379 81.5077 90.2783 79.8494C92.1676 80.5638 92.1421 80.5893 93.2144 81.5842C94.0569 82.4006 94.925 83.2169 95.8441 83.9313C98.7547 86.2018 101.257 85.6915 102.789 82.4006C104.703 78.3698 106.516 74.2625 107.027 69.7725C107.895 62.2467 108.329 62.2977 100.976 59.568L101.001 59.619ZM102.891 68.4204C102.176 72.9359 100.772 77.2218 98.5249 81.6607C97.2483 80.4872 96.4058 79.6709 95.5122 78.9055C93.0612 76.8391 93.0357 76.8391 94.5676 74.2115C96.3803 71.0991 98.0398 67.8847 99.01 64.3896C99.2398 63.5478 99.444 62.5528 100.644 63.063C101.716 63.5222 103.401 63.3947 103.325 65.257C103.274 66.303 103.069 67.3489 102.891 68.3949V68.4204Z" fill="#1E6E67"/>
<path fill-rule="evenodd" clip-rule="evenodd" d="M183.672 203.682C183.748 198.63 184.514 193.579 183.672 188.528C183.595 188.12 183.672 187.763 183.85 187.354C186.071 181.742 185.842 175.772 186.659 170.083C186.48 168.706 186.327 167.481 186.174 166.282C186.046 165.313 185.765 164.369 184.616 164.318C183.595 164.267 183.289 165.16 183.084 165.95C182.855 166.945 182.548 167.94 182.497 168.961C182.344 173.247 181.731 177.482 180.991 181.716C180.25 185.9 179.689 186.436 175.374 186.742C174.353 186.819 173.331 186.895 172.31 186.87C169.195 186.768 168.353 186.079 167.842 182.992C167.612 181.691 167.612 180.339 167.51 179.012C167.178 175.058 166.795 171.078 166.489 167.124C166.361 165.593 165.621 164.42 164.472 163.476C164.064 163.144 163.553 163.017 163.042 163.246C162.506 163.476 162.353 163.961 162.379 164.496C162.787 170.313 163.144 176.104 163.681 181.895C163.885 183.961 163.757 186.232 165.417 187.941C165.902 188.451 165.417 188.936 165.264 189.344C164.344 191.487 163.451 193.681 162.404 195.748C161.076 198.324 160.974 200.722 162.736 203.146C163.553 204.268 163.91 205.748 165.57 206.08C166.515 206.258 166.412 207.151 166.463 207.814C166.642 211.003 167.842 213.682 170.114 215.978C171.034 216.922 171.978 217.356 173.28 217.56C175.297 217.891 177.033 216.871 178.948 216.692C182.931 216.284 184.693 214.856 184.029 209.753C183.748 207.712 183.646 205.722 183.672 203.682ZM179.382 208.988C179.382 209.804 179.484 210.621 179.484 211.437C179.484 212.891 178.846 213.81 177.314 213.835C176.472 213.835 175.68 213.886 174.914 214.218C173.561 214.83 172.77 214.116 172.183 213.019C171.314 211.386 170.753 209.626 170.6 207.763C170.446 205.825 170.268 203.886 170.089 201.947C170.038 201.233 169.91 200.518 169.553 199.88C168.787 198.605 167.919 198.579 167 199.88C166.744 200.263 166.898 200.926 166.106 200.977C165.595 199.931 165.723 198.937 166.055 197.84C166.795 195.263 168.046 192.916 168.991 190.467C169.349 189.548 169.859 189.268 170.855 189.421C173.178 189.752 175.553 190.033 177.876 189.344C179.587 188.834 179.867 189.803 179.867 191.105C179.867 194.651 179.995 198.273 179.306 201.743C178.795 204.268 179.306 206.615 179.382 209.039V208.988Z" fill="#1E6E67"/>
</g>
<defs>
<clipPath id="clip0_125_25252">
<rect width="310" height="373" fill="white"/>
</clipPath>
</defs>
</svg>
