<svg width="450" height="542" viewBox="0 0 450 542" fill="none" xmlns="http://www.w3.org/2000/svg">
<path d="M433.843 54.3872C433.843 54.3872 436.353 56.29 440.746 59.63C442.972 61.2495 445.564 63.375 448.539 65.8446C450.037 67.0794 451.616 68.3749 453.276 69.7514C454.895 71.1887 456.596 72.6866 458.357 74.2655C460.118 75.8647 462.001 77.4437 463.843 79.2251C465.685 81.0064 467.588 82.8485 469.551 84.7311C471.535 86.5935 473.458 88.6177 475.442 90.6825C477.405 92.7675 479.47 94.8323 481.454 97.0387C485.381 101.492 489.531 106.047 493.397 110.946C497.426 115.723 501.13 120.885 504.956 125.966C508.579 131.188 512.264 136.371 515.543 141.715C519.004 146.937 521.94 152.362 524.996 157.504C526.393 160.136 527.77 162.747 529.106 165.277C529.774 166.553 530.442 167.808 531.089 169.063C531.697 170.338 532.304 171.593 532.891 172.808C534.065 175.277 535.219 177.686 536.332 180.014C537.365 182.382 538.357 184.67 539.308 186.856C540.239 189.063 541.191 191.148 541.98 193.192C542.769 195.237 543.498 197.16 544.186 198.982C544.875 200.803 545.523 202.504 546.13 204.083C546.676 205.682 547.162 207.139 547.628 208.475C549.409 213.779 550.421 216.815 550.421 216.815C551.312 219.467 549.895 222.342 547.243 223.232C544.591 224.123 541.717 222.706 540.826 220.054C540.806 219.994 540.786 219.933 540.765 219.872L540.705 219.649C540.705 219.649 539.855 216.674 538.336 211.471C537.952 210.176 537.527 208.739 537.081 207.16C536.555 205.601 536.008 203.941 535.401 202.139C534.794 200.338 534.166 198.435 533.498 196.431C532.81 194.427 531.98 192.362 531.17 190.176C530.34 188.01 529.47 185.743 528.579 183.395C527.587 181.087 526.575 178.698 525.523 176.249C524.996 175.014 524.47 173.779 523.923 172.504C523.336 171.269 522.749 170.014 522.142 168.739C520.927 166.208 519.713 163.617 518.458 160.986C515.705 155.844 513.053 150.419 509.895 145.156C506.919 139.792 503.519 134.569 500.199 129.286C496.656 124.144 493.235 118.921 489.47 114.063C485.867 109.083 482.001 104.427 478.296 99.8727C476.434 97.6055 474.47 95.48 472.628 93.3545C470.766 91.229 468.944 89.144 467.061 87.221C465.199 85.2777 463.397 83.3749 461.657 81.5328C459.916 79.6907 458.114 78.051 456.434 76.3911C454.754 74.7514 453.134 73.1927 451.596 71.6947C449.997 70.2575 448.499 68.9012 447.082 67.6259C444.248 65.0551 441.758 62.8486 439.612 61.128C435.381 57.6057 432.952 55.6017 432.952 55.6017C432.649 55.3386 432.608 54.8932 432.851 54.5896C433.094 54.286 433.539 54.2454 433.843 54.4681L433.843 54.3872Z" fill="#EDD953"/>
<path d="M460.523 442.381C460.523 442.381 459.41 443.96 457.466 446.693C456.495 448.069 455.301 449.729 453.944 451.652C453.256 452.604 452.547 453.636 451.778 454.709C450.969 455.782 450.058 456.875 449.126 458.049C447.264 460.357 445.26 462.867 443.135 465.519C442.102 466.875 440.948 468.171 439.754 469.446C438.56 470.762 437.345 472.077 436.131 473.454C433.641 476.146 431.171 479.021 428.357 481.652C425.604 484.324 422.811 487.057 420.017 489.77C417.062 492.32 414.106 494.871 411.212 497.361C408.378 499.931 405.301 502.138 402.406 504.365C400.949 505.478 399.532 506.551 398.135 507.624C396.758 508.697 395.382 509.729 393.965 510.62C391.192 512.482 388.56 514.223 386.151 515.842C384.937 516.652 383.803 517.442 382.669 518.15C381.536 518.818 380.443 519.446 379.41 520.053C377.366 521.247 375.605 522.28 374.127 523.13C371.192 524.83 369.532 525.822 369.532 525.822C368.884 526.207 368.054 525.984 367.669 525.336C367.305 524.709 367.487 523.919 368.094 523.514L368.175 523.474C368.175 523.474 369.775 522.401 372.568 520.539C373.965 519.608 375.645 518.474 377.588 517.178C378.56 516.531 379.592 515.842 380.686 515.114C381.758 514.365 382.831 513.494 383.965 512.644C386.252 510.903 388.722 509.041 391.333 507.037C392.669 506.065 393.965 504.992 395.24 503.859C396.536 502.745 397.872 501.591 399.228 500.417C401.92 498.069 404.795 495.741 407.426 493.069C410.119 490.458 412.851 487.806 415.564 485.154C418.135 482.34 420.685 479.527 423.195 476.774C425.787 474.081 428.013 471.146 430.26 468.373C431.374 466.996 432.467 465.62 433.54 464.304C434.633 462.988 435.665 461.673 436.556 460.337C438.418 457.705 440.199 455.215 441.819 452.928C442.629 451.774 443.418 450.701 444.147 449.628C444.835 448.515 445.503 447.442 446.131 446.45C447.365 444.466 448.458 442.725 449.349 441.288C451.13 438.434 452.143 436.794 452.143 436.794C453.62 434.426 456.738 433.697 459.126 435.175C461.495 436.652 462.224 439.77 460.746 442.138C460.685 442.219 460.645 442.32 460.584 442.381L460.523 442.381Z" fill="#FFDB59"/>
<path d="M348.134 528.332C345.373 528.332 343.134 530.571 343.134 533.332C343.134 536.093 345.373 538.332 348.134 538.332C350.896 538.332 353.134 536.093 353.134 533.332C353.134 530.571 350.896 528.332 348.134 528.332Z" fill="#FFDB59"/>
<path d="M433.843 54.3872C433.843 54.3872 436.353 56.29 440.746 59.63C442.972 61.2495 445.563 63.375 448.539 65.8446C450.037 67.0794 451.616 68.3749 453.276 69.7514C454.895 71.1887 456.596 72.6866 458.357 74.2655C460.118 75.8647 462 77.4437 463.843 79.2251C465.685 81.0064 467.587 82.8485 469.551 84.7311C471.535 86.5935 473.478 88.6177 475.442 90.6825C477.405 92.7675 479.47 94.8323 481.454 97.0387C485.401 101.492 489.531 106.047 493.397 110.946C497.425 115.723 501.13 120.885 504.956 125.966C508.579 131.188 512.263 136.371 515.522 141.715C518.984 146.937 521.939 152.362 524.976 157.504C526.373 160.136 527.749 162.727 529.105 165.277C529.773 166.553 530.441 167.808 531.089 169.063C531.696 170.338 532.304 171.573 532.891 172.808C534.085 175.277 535.219 177.686 536.332 180.014C537.364 182.382 538.356 184.67 539.308 186.856C540.239 189.063 541.19 191.148 541.98 193.192C542.749 195.237 543.498 197.16 544.186 198.982C544.875 200.803 545.522 202.504 546.13 204.083C546.676 205.682 547.182 207.139 547.628 208.475C549.409 213.779 550.421 216.815 550.421 216.815C551.312 219.467 549.874 222.342 547.243 223.232C544.591 224.123 541.717 222.706 540.826 220.054C540.826 219.994 540.785 219.933 540.765 219.872L540.704 219.649C540.704 219.649 539.854 216.674 538.336 211.471C537.951 210.176 537.526 208.739 537.081 207.16C536.555 205.601 536.008 203.941 535.401 202.139C534.794 200.338 534.166 198.435 533.498 196.431C532.81 194.427 531.98 192.362 531.15 190.176C530.32 188.01 529.449 185.743 528.559 183.395C527.567 181.087 526.555 178.698 525.502 176.249C524.976 175.014 524.45 173.779 523.903 172.524C523.316 171.289 522.729 170.034 522.122 168.759C520.907 166.229 519.692 163.638 518.437 161.006C515.684 155.864 513.033 150.439 509.875 145.176C506.899 139.812 503.498 134.589 500.178 129.306C496.656 124.164 493.235 118.941 489.47 114.083C485.867 109.103 482 104.448 478.296 99.893C476.434 97.6258 474.47 95.5003 472.628 93.3748C470.766 91.2493 468.964 89.1643 467.061 87.2412C465.199 85.2979 463.397 83.3951 461.656 81.553C459.915 79.7109 458.114 78.0713 456.434 76.4113C454.754 74.7717 453.134 73.213 451.596 71.715C449.996 70.2777 448.499 68.9215 447.082 67.6462C444.268 65.0753 441.778 62.8689 439.612 61.1482C435.361 57.626 432.952 55.6219 432.952 55.6219C432.648 55.3588 432.608 54.9134 432.851 54.6098C433.094 54.3062 433.539 54.2657 433.843 54.4883L433.843 54.3872Z" fill="#FFDB59"/>
<path d="M411.252 44.2456C411.252 41.4926 413.479 39.2457 416.232 39.2457C418.985 39.2457 421.232 41.4724 421.232 44.2456C421.232 47.0189 419.005 49.2456 416.232 49.2456C413.459 49.2456 411.252 47.0189 411.252 44.2456Z" fill="#FFDB59"/>
<path fill-rule="evenodd" clip-rule="evenodd" d="M137.621 33.39C137.621 30.1714 140.233 27.5803 143.431 27.5803C146.63 27.5803 149.241 30.1917 149.241 33.39C149.241 36.5884 146.63 39.1997 143.431 39.1997C140.233 39.1997 137.621 36.5884 137.621 33.39Z" fill="#FFDB59"/>
<path fill-rule="evenodd" clip-rule="evenodd" d="M263.855 4.49519C263.855 2.12678 266.062 -0.0594383 268.369 0.00128994C270.717 0.0620182 272.802 2.26848 272.742 4.65713C272.681 7.02554 270.677 8.88788 268.228 8.86763C265.798 8.86763 263.835 6.88384 263.855 4.51543L263.855 4.49519Z" fill="#EFEFEF"/>
<path fill-rule="evenodd" clip-rule="evenodd" d="M0.849129 12.7274C0.889615 8.2537 5.01913 4.12417 9.37133 4.24562C13.8248 4.36708 17.7519 8.53714 17.6304 13.0108C17.509 17.4642 13.7438 20.9864 9.08797 20.9459C4.53333 20.9055 0.808644 17.201 0.849129 12.7274Z" fill="#EFEFEF"/>
<path d="M365.402 87.0591C362.417 87.0591 359.997 89.4789 359.997 92.4639C359.997 95.449 362.417 97.8688 365.402 97.8688C368.387 97.8688 370.807 95.449 370.807 92.4639C370.807 89.4789 368.387 87.0591 365.402 87.0591Z" fill="#EFEFEF"/>
<path d="M-10.3049 301.653C-7.51136 301.653 -5.10245 303.758 -5.10245 306.552C-5.10245 315.236 -4.57611 323.799 -3.68543 332.321C-2.79475 340.843 -1.62068 349.446 0.160689 357.847C1.94206 366.248 3.90564 374.669 6.57769 382.867C9.24974 391.065 12.4683 399.021 15.9906 406.936C17.1242 409.486 15.9298 412.361 13.3792 413.494C10.8286 414.628 8.03511 413.535 6.90151 410.984C3.23757 402.746 -0.10245 394.426 -2.85547 385.944C-5.60849 377.462 -7.89592 368.738 -9.73801 359.952C-11.5801 351.167 -13.2603 342.381 -14.1915 333.434C-15.1226 324.487 -15.325 315.58 -15.325 306.552C-15.325 303.758 -13.0781 301.653 -10.2846 301.653L-10.3049 301.653Z" fill="#EFEFEF"/>
<path fill-rule="evenodd" clip-rule="evenodd" d="M40.0594 147.281C40.0594 144.468 42.3266 142.201 45.1403 142.201C47.9541 142.201 50.2213 144.468 50.2213 147.281C50.2213 150.095 47.9541 152.362 45.1403 152.362C42.3266 152.362 40.0594 150.095 40.0594 147.281Z" fill="#EFEFEF"/>
<path d="M62.9139 128.658C65.9301 125.621 64.9382 126.289 68.7843 122.423C70.6669 120.46 72.9746 118.091 75.8085 115.52C77.2256 114.245 78.7033 112.848 80.2822 111.411C81.9219 110.055 83.7438 108.719 85.5454 107.221C89.0879 104.144 93.2781 101.269 97.5696 98.0306C99.6748 96.3706 101.821 94.6095 104.148 93.0103C106.517 91.4719 108.885 89.7917 111.436 88.314C113.946 86.7958 116.497 85.2169 119.067 83.6379C121.659 82.0792 124.594 81.0468 127.286 79.5489C128.642 78.8201 129.938 77.9497 131.314 77.221C132.711 76.5529 134.128 75.9051 135.545 75.2169C138.379 73.9011 141.031 72.1197 143.926 70.9254C146.82 69.6906 149.776 68.5975 152.65 67.3829C155.545 66.1886 158.5 65.1764 161.415 64.0833C162.873 63.557 164.29 62.9093 165.727 62.3829C167.185 61.9174 168.703 61.5935 170.16 61.1482C173.075 60.2777 175.909 59.2251 178.763 58.4558C184.492 57.0186 190.019 55.3992 195.363 54.4478C198.014 53.9215 200.666 53.6178 203.156 53.1118C205.686 52.7272 208.156 52.545 210.504 52.1806C215.18 51.3911 219.512 51.0672 223.358 50.6826C225.281 50.5004 227.063 50.3183 228.723 50.1361C230.383 50.0551 231.901 49.6097 233.277 49.549C238.824 49.2859 237.63 49.3264 241.982 49.1239C244.775 48.9822 247.123 51.2494 247.245 54.0429C247.387 56.8364 245.261 59.3263 242.468 59.4478C242.387 59.4478 242.326 59.1239 242.245 59.1239C242.103 59.1239 242.103 59.0834 241.982 59.0834C237.792 59.0834 238.925 59.4073 233.601 59.4073C232.265 59.4073 230.788 59.4882 229.188 59.4882C227.589 59.5692 225.848 59.5692 223.986 59.6704C220.261 59.8728 216.03 59.7109 211.496 60.2777C209.209 60.5206 206.901 61.2089 204.431 61.4518C201.982 61.8162 199.431 61.9376 196.82 62.3425C191.597 63.0307 186.193 64.3465 180.565 65.4801C177.772 66.1076 174.958 66.9578 172.083 67.6663C170.646 68.0307 169.148 68.2331 167.711 68.6178C166.274 69.0631 164.938 69.7918 163.48 70.2372C160.606 71.1683 157.63 71.8768 154.756 72.9092C151.881 73.9619 148.986 75.0347 146.112 76.0874C143.217 77.14 140.383 78.3141 137.549 79.4881C136.132 80.0954 134.715 80.6825 133.318 81.2695C131.942 81.9375 130.748 82.9496 129.391 83.6177C126.679 84.9739 123.723 85.8039 121.092 87.2209C118.48 88.6581 116.092 90.4192 113.561 91.816C110.991 93.152 108.44 94.4273 106.051 95.8443C103.683 97.3221 101.416 98.8605 99.2497 100.399C94.857 103.375 90.6668 106.168 87.0231 109.043C85.1608 110.439 83.2377 111.593 81.5575 112.869C79.9381 114.225 78.6021 115.763 77.1649 116.978C74.2499 119.366 71.8207 121.573 69.8369 123.456C65.8289 127.14 66.679 126.33 63.5211 129.225C63.3592 129.387 62.8329 129.306 62.671 129.144C62.5293 128.982 62.8329 128.8 62.9746 128.658L62.9139 128.658Z" fill="#EFEFEF"/>
<path fill-rule="evenodd" clip-rule="evenodd" d="M308.641 4.50895L305.281 37.525L277.325 36.6748L299.977 49.0229L290.443 65.4398L308.641 60.8042L317.953 89.1442L323.499 61.0674L347.568 62.4844L326.414 47.6666L355.179 16.7964L318.479 35.0756L308.641 4.50895Z" fill="#EFEFEF"/>
<path fill-rule="evenodd" clip-rule="evenodd" d="M47.8055 479.93C47.846 475.456 51.9755 471.327 56.3277 471.448C60.7811 471.57 64.7082 475.74 64.5867 480.213C64.4653 484.667 60.7001 488.189 56.0443 488.149C51.4896 488.108 47.765 484.404 47.8055 479.93Z" fill="#EFEFEF"/>
<path d="M85.565 26.9178C87.3261 26.9178 89.1075 27.5453 90.0386 29.185C91.4152 31.6142 90.565 34.8732 88.1358 36.2497C74.6339 43.9622 61.3951 52.5048 49.1684 62.1808C16.5775 87.9094 -9.83939 119.569 -29.9607 155.784C-31.317 158.233 -34.7381 159.245 -37.1874 157.889C-39.6368 156.533 -40.2846 153.253 -38.9283 150.804C-18.1389 113.415 9.18884 80.7434 42.8324 54.1646C55.4639 44.1849 69.1481 35.3591 83.0954 27.4036C83.8848 26.9583 84.7148 26.9178 85.565 26.9178Z" fill="#00ABDF"/>
<path d="M26.8412 539.952C26.8412 539.952 24.4323 537.664 20.2015 533.656C18.0963 531.652 15.5255 529.223 12.5903 526.429C9.73605 523.535 6.65909 520.093 3.23805 516.409C1.51741 514.567 -0.243658 512.644 -2.08575 510.64C-3.78615 508.535 -5.56755 506.369 -7.36916 504.142C-10.9319 499.628 -15.0007 495.093 -18.4824 489.871C-20.3043 487.3 -22.1464 484.709 -24.029 482.057C-24.9602 480.741 -25.9116 479.405 -26.8427 478.069C-27.7739 476.713 -28.5836 475.296 -29.4541 473.899C-31.1949 471.086 -32.9358 468.252 -34.6767 465.397C-36.4176 462.543 -38.2597 459.729 -39.7576 456.713C-41.3366 453.737 -42.8953 450.782 -44.454 447.806C-45.2232 446.329 -46.0127 444.851 -46.8022 443.373L-47.956 441.167L-48.9681 438.899C-51.6402 432.847 -54.373 426.936 -56.8426 421.126C-59.0288 415.195 -61.134 409.466 -63.1381 404.041C-63.381 403.353 -63.6441 402.685 -63.887 402.017C-64.1097 401.329 -64.3121 400.62 -64.5348 399.932C-64.9397 398.616 -65.3445 397.3 -65.7494 396.025C-66.5389 393.434 -67.3689 391.025 -67.9964 388.535C-69.3122 383.616 -70.6077 379.102 -71.4579 375.094C-72.3688 371.086 -73.2393 367.604 -73.7453 364.689C-74.8587 358.88 -75.4862 355.56 -75.4862 355.56C-76.0125 352.807 -74.2109 350.155 -71.4579 349.649C-68.7049 349.123 -66.0531 350.924 -65.5268 353.677C-65.5268 353.738 -65.5267 353.778 -65.5065 353.839L-65.466 354.042C-65.466 354.042 -64.9599 357.28 -64.0895 362.928C-63.7049 365.762 -62.9762 369.163 -62.2272 373.09C-61.5389 377.037 -60.4458 381.349 -59.3729 386.126C-58.8669 388.495 -58.1179 391.025 -57.4296 393.616C-57.0855 394.912 -56.7211 396.228 -56.3568 397.564C-56.1746 398.211 -56.0126 398.859 -55.8304 399.507C-55.6078 400.175 -55.4053 400.823 -55.1827 401.491C-53.4215 406.855 -51.5592 412.503 -49.6361 418.353C-47.4297 424.102 -44.9803 429.972 -42.5714 435.984L-41.6605 438.231L-40.6078 440.438C-39.8993 441.895 -39.1908 443.373 -38.4823 444.851C-37.0451 447.806 -35.6281 450.762 -34.1909 453.737C-32.8346 456.754 -31.114 459.567 -29.5148 462.422C-27.8954 465.276 -26.2759 468.11 -24.6767 470.944C-23.867 472.341 -23.1181 473.778 -22.2476 475.134C-21.3569 476.47 -20.4865 477.806 -19.616 479.142C-17.8751 481.794 -16.1545 484.426 -14.4541 487.017C-11.195 492.3 -7.36915 496.895 -4.00884 501.47C-2.2882 503.737 -0.628312 505.944 0.97087 508.069C2.71175 510.093 4.39193 512.037 5.99111 513.919C9.2502 517.644 12.1247 521.146 14.8575 524.122C17.6915 527.016 20.1611 529.547 22.2056 531.612C26.2744 535.761 28.6023 538.15 28.6023 538.15C29.0881 538.636 29.0679 539.425 28.6023 539.911C28.1165 540.377 27.3473 540.377 26.8614 539.911L26.8412 539.952Z" fill="#00ABDF"/>
<path d="M440.726 146.188C442.224 146.188 443.722 146.856 444.714 148.131C480.381 193.738 499.248 248.515 499.248 306.552C499.248 309.345 496.98 311.612 494.187 311.612C491.393 311.612 489.126 309.345 489.126 306.552C489.126 250.803 471.009 198.172 436.738 154.366C435.017 152.16 435.402 148.982 437.608 147.261C438.54 146.532 439.633 146.188 440.726 146.188Z" fill="#00ABDF"/>
<path fill-rule="evenodd" clip-rule="evenodd" d="M432.459 377.531C430.455 367.45 417.985 355.952 417.985 355.952L409.625 346.701L393.977 330.244L379.119 315.77L360.759 296.175L357.196 291.135C357.196 291.135 353.856 284.88 351.568 284.171C349.301 283.443 343.957 284.171 343.957 284.171C343.957 284.171 336.103 277.997 331.73 274.273C327.338 270.548 319.99 262.532 319.99 262.532L319.16 260.791L322.297 244.01L325.354 229.212L324.949 217.734L323.633 204.982C323.633 204.982 320.212 194.637 318.431 193.726C316.65 192.836 315.273 195.123 315.273 195.123L312.095 187.188L307.884 186.52L307.884 185.447C307.884 185.447 306.609 182.957 304.706 183.059C302.783 183.14 301.488 185.407 301.488 185.407L299.868 185.164C299.868 185.164 298.087 185.366 297.399 188.767C296.731 192.188 298.917 201.237 298.917 201.237L291.852 202.977C291.852 202.977 293.37 193.544 293.37 190.973C293.37 188.403 294.949 178.909 285.374 162.391C275.82 145.873 258.229 142.269 258.229 142.269C258.229 142.269 262.621 138.889 263.269 127.128C263.937 115.387 252.034 108.929 252.034 108.929C252.034 108.929 235.658 102.067 227.136 115.549C218.614 129.03 229.605 142.512 229.605 142.512L222.318 145.407C222.318 145.407 216.529 148.545 212.075 151.763C207.602 154.982 202.136 162.391 197.278 174.01C192.419 185.629 194.221 203.686 194.221 203.686C194.221 203.686 193.371 202.411 189.97 202.107C186.569 201.803 185.78 206.5 185.78 206.5L184.626 203.119C184.626 203.119 184.444 199.982 185.172 196.095C185.901 192.208 187.075 189.314 186.347 186.095C185.618 182.876 181.549 183.949 181.549 183.949C181.549 183.949 181.549 181.297 178.897 181.378C176.245 181.459 174.768 185.184 174.768 185.184L171.448 186.459L167.662 192.37L166.164 191.763L164.403 192.552L159.869 204.212C159.869 204.212 157.602 218.645 158.047 223.787C158.492 228.929 165.071 258.078 164.343 260.022C163.594 261.965 140.517 282.572 140.517 282.572C140.517 282.572 136.225 281.439 133.331 281.256C130.436 281.094 127.865 285.366 127.46 286.904C127.035 288.443 123.897 292.754 123.897 292.754L108.351 309.212L101.246 317.147L95.6183 322.531L84.1204 333.321L73.6143 345.305L66.752 352.552C66.752 352.552 58.7359 359.009 54.5861 366.681C50.4566 374.373 48.4728 384.555 51.2055 394.677C53.9383 404.798 60.6387 406.762 71.4686 409.029C82.2985 411.296 103.472 405.466 103.472 405.466L124.646 397.855L145.071 388.685L158.877 383.968L159.12 385.669L159.869 401.013L159.383 409.11L161.286 428.543L163.027 454.838C163.027 454.838 164.768 477.004 164.768 477.996C164.768 478.988 163.695 493.462 163.695 496.944C163.695 500.425 165.496 508.118 165.314 514.352C165.132 520.587 165.496 529.494 165.496 529.494C165.496 529.494 204.14 551.984 241.043 551.984C277.945 551.984 318.046 530.567 318.046 530.567L318.208 527.814L318.775 511.518C318.775 511.518 320.253 500.101 320.354 497.551C320.455 495 320.03 493.745 319.443 485.79C318.856 477.834 320.03 468.098 320.03 468.098L321.447 445.183L322.52 430.709L324.099 413.584L324.686 405.729L324.848 390.264L325.496 386.721C325.496 386.721 346.002 394.414 363.127 401.681C380.252 408.948 396.285 411.114 403.653 411.478C411.001 411.843 421.183 410.527 427.803 405.325C434.422 400.122 434.523 387.632 432.519 377.531L432.459 377.531ZM219.099 294.596C215.8 297.167 213.027 299.272 210.334 300.71C207.642 302.147 203.715 301.783 203.715 301.783L197.521 295.993L195.942 295.831L188.492 298.159L185.921 300.71L182.521 302.106L165.415 303.584L163.189 298.159C163.189 298.159 194.201 268.078 196.508 259.617C198.836 251.155 198.087 239.941 198.087 239.941L196.772 232.755C196.772 232.755 200.152 237.714 202.399 237.795C204.646 237.876 207.521 236.722 207.521 236.722C207.521 236.722 211.083 245.912 214.221 250.042C217.359 254.172 220.678 257.734 221.245 260.305C221.832 262.876 221.832 278.26 221.832 278.26C221.832 278.26 222.419 292.066 219.099 294.637L219.099 294.596ZM318.836 305.507L319.666 307.916L319.666 308.746L309.241 307.167L299.241 304.434C299.241 304.434 296.67 302.127 295.86 301.702C295.03 301.297 291.852 299.88 289.484 299.88C287.115 299.88 283.937 302.936 283.937 302.936L281.548 304.596C281.548 304.596 272.621 302.37 270.496 299.758C268.391 297.147 266.609 295.285 266.326 290.386C266.043 285.487 265.314 267.35 266.326 263.159C267.338 258.969 273.674 248.018 273.674 248.018L279.565 236.601C279.565 236.601 281.144 237.512 282.864 237.188C284.605 236.864 286.589 236.54 286.589 236.54C286.589 236.54 285.597 240.083 285.354 244.961C285.111 249.84 285.111 258.564 287.743 263.645C290.374 268.746 300.637 279.273 300.637 279.273L320.658 301.175L318.836 305.487L318.836 305.507Z" fill="white"/>
<path fill-rule="evenodd" clip-rule="evenodd" d="M300.618 279.293C300.618 279.293 290.354 268.746 287.723 263.665C285.091 258.564 285.071 249.86 285.334 244.981C285.577 240.103 286.569 236.56 286.569 236.56C286.569 236.56 284.585 236.884 282.844 237.208C281.103 237.532 279.545 236.621 279.545 236.621L273.654 248.038C273.654 248.038 267.318 258.989 266.306 263.18C265.294 267.37 266.023 285.507 266.306 290.406C266.589 295.305 268.371 297.167 270.476 299.779C272.581 302.39 281.529 304.617 281.529 304.617L283.917 302.957C283.917 302.957 287.095 299.9 289.464 299.9C291.832 299.9 295.01 301.297 295.84 301.722C296.67 302.127 299.221 304.455 299.221 304.455L309.221 307.188L319.646 308.766L319.646 307.937L318.816 305.528L320.638 301.216L300.618 279.313L300.618 279.293Z" fill="#FFDB59"/>
<path fill-rule="evenodd" clip-rule="evenodd" d="M163.189 298.159L165.416 303.584L182.521 302.106L185.922 300.71L188.492 298.159L195.942 295.831L197.521 295.993L203.715 301.783C203.715 301.783 207.642 302.147 210.334 300.71C213.027 299.272 215.8 297.147 219.1 294.596C222.399 292.026 221.832 278.22 221.832 278.22C221.832 278.22 221.832 262.835 221.245 260.265C220.658 257.694 217.359 254.151 214.221 250.001C211.083 245.872 207.521 236.682 207.521 236.682C207.521 236.682 204.646 237.836 202.399 237.755C200.152 237.674 196.772 232.714 196.772 232.714L198.088 239.9C198.088 239.9 198.837 251.115 196.509 259.576C194.181 268.038 163.189 298.119 163.189 298.119L163.189 298.159Z" fill="#FFDB59"/>
<path fill-rule="evenodd" clip-rule="evenodd" d="M293.35 190.953C293.35 193.524 291.832 202.957 291.832 202.957L298.896 201.216C298.896 201.216 296.71 192.168 297.378 188.747C298.046 185.326 299.848 185.144 299.848 185.144L301.467 185.387C301.467 185.387 302.783 183.119 304.686 183.038C306.589 182.957 307.864 185.427 307.864 185.427L307.864 186.5L312.074 187.168L315.253 195.103C315.253 195.103 316.629 192.816 318.41 193.706C320.192 194.597 323.613 204.961 323.613 204.961L324.929 217.714L325.334 229.192L322.277 243.99L319.139 260.771L319.969 262.512C319.969 262.512 327.317 270.528 331.71 274.253C336.103 277.977 343.937 284.151 343.937 284.151C343.937 284.151 349.26 283.423 351.548 284.151C353.835 284.88 357.175 291.115 357.175 291.115L360.738 296.155L379.098 315.75L393.957 330.224L409.604 346.681L417.965 355.932C417.965 355.932 426.527 363.847 430.596 372.309C431.284 365.73 431.629 359.029 431.629 352.268C431.629 262.836 370.394 187.694 287.56 166.52C294.605 180.468 293.33 188.605 293.33 190.953L293.35 190.953Z" fill="#FFDB59"/>
<path fill-rule="evenodd" clip-rule="evenodd" d="M54.5858 366.701C58.7153 359.009 66.7517 352.572 66.7517 352.572L73.6141 345.325L84.1201 333.341L95.618 322.552L101.245 317.167L108.351 309.232L123.897 292.775C123.897 292.775 127.035 288.463 127.46 286.924C127.865 285.386 130.436 281.115 133.33 281.277C136.225 281.439 140.517 282.593 140.517 282.593C140.517 282.593 163.593 261.985 164.342 260.042C165.091 258.099 158.512 228.949 158.047 223.807C157.601 218.666 159.869 204.233 159.869 204.233L164.403 192.573L166.164 191.783L167.662 192.391L171.448 186.48L174.767 185.204C174.767 185.204 176.245 181.48 178.897 181.399C181.549 181.318 181.549 183.97 181.549 183.97C181.549 183.97 185.618 182.897 186.346 186.115C187.075 189.334 185.881 192.229 185.172 196.115C184.443 200.002 184.626 203.14 184.626 203.14L185.779 206.52C185.779 206.52 186.549 201.844 189.97 202.127C193.371 202.431 194.221 203.706 194.221 203.706C194.221 203.706 192.419 185.65 197.277 174.03C198.816 170.346 200.415 167.148 202.014 164.314C114.282 181.925 48.2093 259.374 48.2093 352.288C48.2093 361.884 48.9178 371.296 50.2741 380.507C50.8814 375.467 52.4401 370.73 54.6061 366.701L54.5858 366.701Z" fill="#FFDB59"/>
<path fill-rule="evenodd" clip-rule="evenodd" d="M165.294 514.353C165.496 508.118 163.675 500.426 163.675 496.944C163.675 493.462 164.748 478.988 164.748 477.997C164.748 477.005 163.007 454.839 163.007 454.839L161.266 428.543L159.363 409.11L159.849 401.013L159.1 385.669L158.857 383.969L145.051 388.685L124.626 397.855L103.452 405.467C103.452 405.467 82.2783 411.296 71.4484 409.029C63.7764 407.43 58.1894 405.952 54.6064 401.641C69.91 459.231 111.327 506.195 165.436 529.008C165.355 527.106 165.112 519.737 165.274 514.353L165.294 514.353Z" fill="#FFDB59"/>
<path fill-rule="evenodd" clip-rule="evenodd" d="M403.593 411.478C396.224 411.114 380.192 408.948 363.066 401.681C345.941 394.414 325.435 386.721 325.435 386.721L324.787 390.264L324.625 405.729L324.038 413.584L322.459 430.709L321.386 445.183L319.969 468.097C319.969 468.097 318.816 477.834 319.382 485.79C319.969 493.745 320.374 494.98 320.293 497.551C320.212 500.122 318.714 511.518 318.714 511.518L318.168 527.368C368.451 504.858 407.256 461.316 423.41 407.936C417.175 410.952 409.463 411.802 403.552 411.499L403.593 411.478Z" fill="#FFDB59"/>
<path fill-rule="evenodd" clip-rule="evenodd" d="M317.803 418.503C315.617 419.353 313.694 418.422 311.811 418.179C302.216 416.984 292.601 416.013 282.945 415.243C255.577 413.057 228.168 413.725 200.78 413.948C190.84 414.029 180.861 414.13 170.962 415.284C170.213 415.365 169.444 415.426 168.715 415.324C167.845 415.183 166.326 415.992 166.245 414.596C166.164 413.341 167.865 413.604 168.654 413.523C174.241 412.875 179.848 412.187 185.456 411.984C192.682 411.741 199.889 411.418 207.116 411.276C220.233 411.013 233.371 410.669 246.488 411.013C256.852 411.276 267.216 411.701 277.561 412.409C289.949 413.26 302.277 414.636 314.483 416.822C315.698 417.045 316.832 417.369 317.783 418.503L317.803 418.503Z" fill="#00ABDF"/>
<path fill-rule="evenodd" clip-rule="evenodd" d="M234.808 344.029C244.646 343.746 255.334 344.293 266.002 345.123C278.208 346.074 290.394 347.329 302.479 349.394C306.69 350.102 310.941 350.467 315.172 350.993C315.718 351.074 316.265 351.135 316.791 351.297C317.439 351.499 318.39 351.56 318.208 352.592C317.985 353.888 317.054 353.017 316.487 352.977C308.289 352.39 300.172 351.094 292.014 350.082C284.726 349.171 277.378 348.625 270.05 347.936C255.435 346.56 240.779 346.175 226.124 346.58C214.018 346.904 201.913 347.369 189.828 348.321C184.565 348.746 179.282 349.495 173.978 349.009C173.29 348.948 172.116 349.394 172.197 348.058C172.257 347.147 173.27 347.248 173.938 347.187C179.929 346.62 185.901 345.973 191.893 345.588C205.881 344.677 219.889 343.867 234.787 344.029L234.808 344.029Z" fill="#00ABDF"/>
<path fill-rule="evenodd" clip-rule="evenodd" d="M317.702 372.632C316.933 373.827 316.224 372.997 315.617 372.936C305.678 371.661 295.739 370.224 285.779 369.07C279.261 368.321 272.702 367.977 266.144 367.47C243.006 365.669 219.848 366.56 196.67 366.56C191.043 366.56 185.415 367.025 179.788 366.904C178.29 366.883 176.792 366.62 175.294 366.458C174.707 366.377 174.12 366.114 174.201 365.406C174.282 364.576 175.011 364.333 175.638 364.535C178.391 365.487 181.124 364.657 183.877 364.576C204.585 363.948 225.294 363.624 246.002 364.09C257.298 364.333 268.593 365.143 279.868 366.377C291.022 367.612 302.095 369.272 313.188 370.972C314.726 371.215 316.265 371.661 317.682 372.632L317.702 372.632Z" fill="#00ABDF"/>
<path fill-rule="evenodd" clip-rule="evenodd" d="M318.188 392.612C315.718 393.968 313.35 393.138 311.062 392.794C301.69 391.397 292.257 390.669 282.824 389.859C262.824 388.138 242.804 387.531 222.763 388.057C206.589 388.482 190.415 388.057 174.261 388.422C172.014 388.482 169.808 388.827 167.642 389.333C167.075 389.454 166.245 390.223 165.962 389.13C165.759 388.361 166.508 388.037 167.237 387.855C170.152 387.126 173.108 386.58 176.124 386.418C192.014 385.547 207.945 386.337 223.836 385.79C234.14 385.446 244.403 385.851 254.666 385.993C266.123 386.155 277.56 387.086 288.977 388.321C297.783 389.272 306.589 390.082 315.253 391.903C316.244 392.106 317.216 392.369 318.188 392.612Z" fill="#00ABDF"/>
<path fill-rule="evenodd" clip-rule="evenodd" d="M302.56 459.899C300.354 460.871 297.925 461.053 295.597 461.154C282.237 461.721 268.876 461.519 255.536 460.81C250.658 460.547 245.739 460.79 240.84 460.628C224.727 460.122 208.614 460.729 192.521 460.871C185.395 460.932 178.249 461.134 171.104 461.215C170.436 461.215 169.768 461.215 169.12 461.114C168.513 460.992 168.067 460.547 168.148 459.879C168.249 459.089 168.836 458.786 169.585 458.826C186.002 459.919 202.379 458.098 218.796 458.037C231.913 457.976 245.01 458.158 258.107 458.705C271.144 459.251 284.18 459.454 297.216 459.272C298.998 459.251 300.779 459.272 302.56 459.272C302.56 459.494 302.56 459.697 302.56 459.919L302.56 459.899Z" fill="#00ABDF"/>
<path fill-rule="evenodd" clip-rule="evenodd" d="M315.557 438.948C313.897 440.486 311.974 440.223 310.091 440.142C304.119 439.879 298.168 439.636 292.196 439.252C282.763 438.665 273.35 437.936 263.917 437.369C259.444 437.106 254.95 436.944 250.476 436.883C237.015 436.66 223.533 436.519 210.071 436.903C199.363 437.207 188.634 437.126 177.926 437.268C175.011 437.308 172.116 437.146 169.242 436.782C168.594 436.701 167.723 436.802 167.784 435.871C167.825 435.041 168.655 435.304 169.181 435.284C170.517 435.243 171.833 435.243 173.169 435.284C187.723 435.608 202.258 434.859 216.792 434.636C225.517 434.515 234.241 434.171 242.966 434.454C254.403 434.798 265.84 435.061 277.257 436.195C285.253 436.984 293.31 437.248 301.326 437.814C306.083 438.138 310.84 438.563 315.577 438.948L315.557 438.948Z" fill="#00ABDF"/>
<path fill-rule="evenodd" clip-rule="evenodd" d="M169.018 482.369C169.949 481.397 170.82 481.701 171.589 481.68C181.468 481.478 191.346 481.498 201.225 481.093C217.257 480.405 233.289 480.486 249.322 480.911C263.532 481.276 277.722 481.053 291.933 481.154C295.738 481.174 299.564 480.891 303.37 480.79C304.139 480.79 305.01 480.547 305.657 481.255C305.333 482.126 304.645 482.146 303.977 482.166C296.852 482.409 289.767 483.219 282.621 483.199C251.629 483.138 220.637 483.138 189.646 483.239C184.747 483.239 179.848 483.745 174.949 483.583C173.006 483.523 170.962 483.502 169.018 482.369Z" fill="#00ABDF"/>
<path fill-rule="evenodd" clip-rule="evenodd" d="M169.929 506.114C215.82 506.458 261.69 507.328 307.601 506.437C303.552 507.692 299.382 507.895 295.273 508.016C283.653 508.361 272.014 508.28 260.374 508.684C252.803 508.948 245.253 509.19 237.702 508.927C228.228 508.583 218.755 508.846 209.281 508.482C197.5 508.037 185.698 507.773 173.917 507.611C172.48 507.611 171.184 507.267 169.929 506.114Z" fill="#00ABDF"/>
<path fill-rule="evenodd" clip-rule="evenodd" d="M310.556 529.15C307.135 530.445 303.41 530.344 299.868 530.445C285.333 530.85 270.779 531.417 256.244 531.721C244.908 531.964 233.593 531.64 222.297 531.397C206.366 531.053 190.455 529.899 174.484 530.02C173.755 530.02 172.986 529.899 172.277 529.737C171.67 529.595 170.982 529.393 171.002 528.785C171.042 527.895 171.994 528.036 172.682 528.057C183.998 528.279 195.314 528.502 206.629 528.806C213.532 528.988 220.394 529.474 227.297 529.514C242.52 529.615 257.742 529.636 272.965 529.514C280.819 529.453 288.694 529.028 296.528 528.704C301.204 528.502 305.819 529.251 310.536 529.15L310.556 529.15Z" fill="#00ABDF"/>
<path fill-rule="evenodd" clip-rule="evenodd" d="M286.65 327.734C292.965 327.734 299.241 328.544 305.516 329.616C308.674 330.163 311.832 330.446 314.99 331.216C316.143 331.499 317.237 331.965 318.228 332.916C318.471 333.139 318.674 333.543 318.471 333.948C318.39 334.151 318.046 334.232 317.884 334.171C313.815 332.693 309.645 332.552 305.496 332.046C302.601 331.681 299.726 330.973 296.832 330.811C292.5 330.548 288.168 330.001 283.816 330.183C282.945 330.224 282.075 329.94 281.204 329.778C280.637 329.677 279.767 329.981 279.868 328.624C279.969 327.45 280.799 327.754 281.386 327.754C283.148 327.734 284.909 327.754 286.67 327.754L286.65 327.734Z" fill="#00ABDF"/>
<path fill-rule="evenodd" clip-rule="evenodd" d="M162.865 357.106C163.209 346.236 161.286 335.649 159.646 325.021C159.484 323.928 158.917 322.572 160.273 322.167C161.913 321.681 161.893 323.503 162.116 324.535C164.828 337.147 166.832 349.839 165.557 362.896C165.213 366.479 165.01 370.102 164.423 373.665C164.322 374.292 164.14 374.92 163.937 375.527C163.695 376.256 163.31 376.985 162.5 376.782C161.751 376.6 161.832 375.79 161.873 375.142C162.035 372.734 162.055 370.304 162.439 367.936C163.026 364.313 162.784 360.689 162.885 357.066L162.865 357.106Z" fill="#00ABDF"/>
<path fill-rule="evenodd" clip-rule="evenodd" d="M171.529 332.592C170.861 332.592 170.193 332.693 169.545 332.552C169.039 332.451 168.351 332.309 168.412 331.297C168.452 330.345 169.059 330.204 169.626 330.224C172.663 330.305 175.638 329.637 178.654 329.232C184.545 328.422 190.415 327.572 196.306 326.884C198.998 326.56 201.731 326.216 204.444 326.722C204.869 326.803 205.415 326.803 205.456 327.491C205.496 328.341 204.909 328.159 204.504 328.2C195.355 329.131 186.266 330.872 177.156 332.127C175.294 332.39 173.432 332.511 171.549 332.693L171.549 332.572L171.529 332.592Z" fill="#00ABDF"/>
<path fill-rule="evenodd" clip-rule="evenodd" d="M58.9586 367.369C68.8169 368.503 78.5941 371.762 87.6022 377.41C89.4443 378.564 91.0839 380.001 92.0961 382.086C92.4807 382.875 92.6629 383.766 91.8127 384.272C91.0637 384.697 90.8006 383.806 90.3957 383.341C87.0152 379.495 82.4403 377.693 78.0476 375.649C71.7318 372.713 65.0719 370.973 58.2906 369.657C57.4809 369.495 56.6104 369.373 56.7319 368.24C56.8331 367.288 57.6023 367.187 58.9384 367.39L58.9586 367.369Z" fill="#00ABDF"/>
<path fill-rule="evenodd" clip-rule="evenodd" d="M117.278 361.6C117.278 362.612 117.156 363.199 116.488 363.321C115.719 363.462 115.355 362.774 115.071 362.207C113.492 359.009 111.549 356.134 109.1 353.584C102.946 347.248 95.9216 342.187 88.4925 337.673C87.865 337.288 86.6504 337.126 87.035 336.114C87.4399 335.021 88.5128 335.507 89.3225 335.851C95.3751 338.503 100.658 342.471 105.78 346.661C109.909 350.021 113.897 353.604 116.225 358.726C116.691 359.758 117.035 360.871 117.298 361.62L117.278 361.6Z" fill="#00ABDF"/>
<path fill-rule="evenodd" clip-rule="evenodd" d="M428.977 379.211C429.969 379.171 430.698 379.171 430.9 379.94C431.082 380.568 430.414 380.709 430.009 380.891C422.904 383.887 417.378 389.353 411.386 394.069C407.074 397.47 402.924 401.074 399.726 405.689C399.341 406.235 398.835 406.741 398.147 406.114C397.52 405.547 397.803 404.94 398.147 404.333C399.524 401.883 401.163 399.616 403.208 397.774C409.625 391.964 416.204 386.377 423.37 381.62C425.191 380.406 427.236 379.758 428.977 379.211Z" fill="#00ABDF"/>
<path fill-rule="evenodd" clip-rule="evenodd" d="M150.577 322.673C150.618 323.2 150.577 323.604 150.172 323.847C149.767 324.11 149.403 323.949 149.099 323.645C148.857 323.422 148.614 323.2 148.452 322.916C142.602 312.815 133.857 306.074 124.343 300.244C124.079 300.082 123.776 299.92 123.533 299.718C123.027 299.333 122.865 298.787 123.067 298.179C123.31 297.43 123.978 297.572 124.484 297.653C125.011 297.754 125.537 298.017 126.023 298.26C134.14 302.491 141.104 308.301 146.933 315.548C148.634 317.653 149.808 320.102 150.557 322.673L150.577 322.673Z" fill="#00ABDF"/>
<path fill-rule="evenodd" clip-rule="evenodd" d="M103.452 323.078C105.011 323.847 106.671 324.455 108.128 325.406C116.347 330.871 123.087 337.875 127.946 346.782C128.027 346.924 128.128 347.045 128.189 347.207C128.614 348.098 129.282 349.13 128.148 349.819C127.136 350.426 126.63 349.373 126.144 348.624C123.897 345.001 121.407 341.56 118.614 338.402C114.14 333.341 109.383 328.604 103.108 325.973C102.399 325.689 101.448 325.386 101.731 324.293C101.934 323.544 102.683 323.26 103.452 323.098L103.452 323.078Z" fill="#00ABDF"/>
<path fill-rule="evenodd" clip-rule="evenodd" d="M371.244 313.037C372.034 313.159 372.864 312.795 373.107 313.625C373.329 314.374 372.58 314.576 372.094 314.718C367.52 316.135 364.139 319.454 360.738 322.673C356.791 326.398 353.026 330.305 349.139 334.11C347.52 335.709 346.244 337.592 344.969 339.495C344.544 340.143 343.997 341.357 342.965 340.689C341.872 339.981 342.459 338.888 342.965 338.058C344.848 334.96 347.176 332.248 349.767 329.758C354.018 325.669 358.309 321.58 362.682 317.612C365.212 315.305 368.046 313.503 371.285 313.037L371.244 313.037Z" fill="#00ABDF"/>
<path fill-rule="evenodd" clip-rule="evenodd" d="M133.027 287.188C134.222 287.694 135.821 288.2 137.278 289.009C146.286 294.111 153.088 301.621 158.472 310.629C158.634 310.912 158.776 311.216 158.918 311.519C159.221 312.208 159.566 312.997 158.736 313.483C157.987 313.908 157.42 313.382 156.934 312.754C154.485 309.495 152.056 306.216 149.525 303.038C144.748 297.025 138.999 292.289 132.076 289.252C131.489 288.989 130.699 288.888 130.882 288.038C131.064 287.107 131.914 287.187 133.027 287.228L133.027 287.188Z" fill="#00ABDF"/>
<path fill-rule="evenodd" clip-rule="evenodd" d="M75.0308 350.892C76.3061 351.458 77.8648 352.046 79.3425 352.815C86.0226 356.236 92.7635 359.576 98.0671 365.305C100.294 367.713 101.913 370.547 103.067 373.685C103.31 374.313 103.978 375.163 103.128 375.669C102.217 376.215 101.691 375.325 101.306 374.576C98.553 369.171 94.5651 365.001 89.6461 361.742C85.1725 358.766 80.5166 356.114 75.7393 353.685C75.1725 353.402 74.6057 353.078 74.0591 352.754C73.5936 352.471 73.4519 352.005 73.5936 351.479C73.7555 350.871 74.2211 350.811 75.0308 350.871L75.0308 350.892Z" fill="#00ABDF"/>
<path fill-rule="evenodd" clip-rule="evenodd" d="M138.735 333.584C138.735 334.455 138.877 335.244 138.047 335.426C137.42 335.568 137.096 335.021 136.792 334.495C131.387 325.163 122.966 319.414 114.424 313.807C114.019 313.544 113.574 313.362 113.169 313.119C112.602 312.795 112.42 312.289 112.642 311.661C112.865 311.094 113.391 311.074 113.837 311.115C115.375 311.277 116.731 312.026 117.987 312.835C124.363 316.924 130.274 321.621 135.416 327.329C137.076 329.171 138.351 331.216 138.715 333.564L138.735 333.584Z" fill="#00ABDF"/>
<path fill-rule="evenodd" clip-rule="evenodd" d="M92.4398 389.636C92.3993 390.426 91.954 390.628 91.5289 390.851C90.1928 391.6 88.7354 391.924 87.2981 392.41C79.201 395.183 70.9824 397.652 63.4723 402.065C62.6829 402.531 61.5493 403.584 60.8205 402.126C60.112 400.709 61.4076 400.082 62.3387 399.495C68.2294 395.831 74.6464 393.543 81.1241 391.337C83.9783 390.365 86.8528 389.515 89.8487 389.09C90.8406 388.948 91.6503 389.211 92.4196 389.616L92.4398 389.636Z" fill="#00ABDF"/>
<path fill-rule="evenodd" clip-rule="evenodd" d="M332.944 329.535C331.831 328.948 331.932 328.179 332.499 327.45C333.855 325.709 335.293 324.07 336.649 322.309C342.661 314.495 349.402 307.531 357.944 302.754C358.228 302.592 358.471 302.349 358.754 302.248C359.888 301.863 361.386 300.426 362.114 301.884C362.823 303.28 360.778 303.119 360.009 303.645C353.187 308.26 346.892 313.503 341.588 320.021C339.28 322.855 336.791 325.568 334.382 328.301C333.957 328.766 333.43 329.131 332.965 329.515L332.944 329.535Z" fill="#00ABDF"/>
<path fill-rule="evenodd" clip-rule="evenodd" d="M417.62 366.135C415.657 367.511 414.24 368.705 412.661 369.576C404.402 374.171 397.58 380.79 390.455 386.944C389.483 387.794 388.633 388.786 387.944 389.92C387.6 390.466 387.094 391.033 386.386 390.507C385.758 390.041 385.779 389.313 386.102 388.726C386.527 387.936 387.013 387.126 387.641 386.519C394.948 379.535 402.276 372.552 411.183 367.794C413.815 366.398 415.212 366.054 417.62 366.155L417.62 366.135Z" fill="#00ABDF"/>
<path fill-rule="evenodd" clip-rule="evenodd" d="M343.066 350.973C342.499 356.155 342.014 360.77 341.508 365.365C340.86 371.296 340.05 377.207 342.418 382.977C342.601 383.442 342.823 383.968 342.257 384.252C341.831 384.475 341.548 384.009 341.265 383.746C339.038 381.843 338.532 379.09 338.37 376.377C337.904 368.483 338.714 360.669 340.333 352.956C340.475 352.309 340.698 351.681 340.941 351.074C341.184 350.446 341.568 349.88 342.358 350.001C342.985 350.102 343.086 350.325 343.107 350.973L343.066 350.973Z" fill="#00ABDF"/>
<path fill-rule="evenodd" clip-rule="evenodd" d="M325.151 374.151C323.774 372.875 323.552 371.499 323.572 370.122C323.693 362.268 324.321 354.434 325.212 346.621C325.535 343.665 325.981 340.73 326.386 337.795C326.467 337.228 326.649 336.681 326.79 336.115C326.932 335.507 327.175 334.94 327.884 335.123C328.552 335.285 328.552 335.851 328.491 336.499C328.066 341.357 327.681 346.216 327.276 351.074C326.811 356.843 326.305 362.612 325.94 368.382C325.819 370.203 325.677 372.005 325.131 374.151L325.151 374.151Z" fill="#00ABDF"/>
<path fill-rule="evenodd" clip-rule="evenodd" d="M385.799 329.697C385.738 330.629 385.07 330.73 384.605 330.952C374.463 335.75 366.042 342.855 358.997 351.823C358.572 352.369 358.086 353.179 357.257 352.592C356.285 351.924 356.912 351.094 357.317 350.426C359.686 346.56 362.763 343.341 366.143 340.446C371.426 335.912 376.912 331.762 383.451 329.374C384.281 329.07 385.212 328.564 385.799 329.697Z" fill="#00ABDF"/>
<path fill-rule="evenodd" clip-rule="evenodd" d="M393.977 341.135C393.957 342.005 393.39 342.187 392.924 342.491C384.159 348.341 375.738 354.636 369.361 363.442C369.078 363.847 368.754 364.211 368.39 364.535C367.803 365.062 367.216 365.871 366.366 365.041C365.536 364.211 366.264 363.564 366.71 362.896C373.248 353.543 381.912 346.803 391.345 341.013C392.216 340.487 393.187 339.981 393.977 341.114L393.977 341.135Z" fill="#00ABDF"/>
<path fill-rule="evenodd" clip-rule="evenodd" d="M405.171 355.932C403.734 357.329 402.155 357.45 400.839 358.118C395.961 360.608 391.629 363.908 387.722 367.835C384.686 370.871 381.609 373.847 378.532 376.843C377.904 377.45 377.135 378.422 376.305 377.673C375.333 376.782 376.366 375.952 376.831 375.122C377.621 373.726 379.038 373.037 380.131 371.985C384.928 367.43 389.179 362.207 394.868 358.726C396.872 357.511 398.916 356.458 401.123 355.77C402.358 355.386 403.552 355.284 405.171 355.912L405.171 355.932Z" fill="#00ABDF"/>
<path fill-rule="evenodd" clip-rule="evenodd" d="M325.738 313.584C324.402 313.402 324.483 312.592 325.009 311.641C326.507 308.989 328.329 306.58 330.333 304.333C334.321 299.839 339.2 296.6 344.24 293.604C345.758 292.714 347.216 291.702 348.714 290.77C349.341 290.386 350.07 290.001 350.536 290.953C350.961 291.823 350.151 292.005 349.665 292.41C344.463 296.479 338.592 299.515 333.855 304.272C331.507 306.641 329.422 309.232 327.499 311.985C327.034 312.633 326.629 313.402 325.738 313.584Z" fill="#00ABDF"/>
<path fill-rule="evenodd" clip-rule="evenodd" d="M151.63 373.017C151.488 374.414 151.367 375.81 151.225 377.207C151.165 377.916 151.326 378.908 150.254 378.766C149.383 378.644 149.322 377.774 149.302 377.005C149.201 374.778 149.16 372.531 149.039 370.304C148.614 361.721 146.671 353.503 144.424 345.305C144.241 344.616 143.634 343.705 144.545 343.361C145.497 342.997 145.537 344.211 145.76 344.778C149.322 353.807 151.387 363.179 151.63 372.997L151.63 373.017Z" fill="#00ABDF"/>
<path fill-rule="evenodd" clip-rule="evenodd" d="M137.197 379.535C137.197 381.276 137.298 383.017 137.156 384.738C137.096 385.466 136.893 386.499 135.759 386.377C134.727 386.256 134.909 385.365 134.869 384.657C134.484 377.066 134.383 369.454 131.731 362.207C131.508 361.6 131.326 360.831 132.156 360.547C132.966 360.264 133.492 360.79 133.877 361.479C135.557 364.636 136.144 368.159 136.772 371.62C137.257 374.232 137.399 376.863 137.176 379.515L137.197 379.535Z" fill="#00ABDF"/>
<path fill-rule="evenodd" clip-rule="evenodd" d="M303.066 313.119C307.904 313.341 312.641 314.353 317.378 315.325C317.904 315.426 318.43 315.689 318.916 315.932C319.544 316.256 319.949 316.762 319.685 317.532C319.422 318.301 318.815 318.503 318.127 318.28C311.184 316.074 303.856 316.418 296.811 314.859C296.062 314.698 294.969 314.859 294.929 313.807C294.888 312.532 296.123 312.552 296.912 312.572C298.977 312.653 301.022 312.916 303.066 313.098L303.066 313.119Z" fill="#00ABDF"/>
<path fill-rule="evenodd" clip-rule="evenodd" d="M168.431 315.75C167.986 315.75 167.419 315.811 166.893 315.75C166.427 315.689 165.941 315.507 165.921 314.859C165.921 314.293 166.225 313.908 166.69 313.726C167.358 313.463 168.047 313.017 168.694 313.038C173.877 313.139 178.35 310.305 183.249 309.353C184.808 309.05 186.366 308.766 187.905 308.442C188.674 308.281 189.403 308.22 189.626 309.171C189.828 310.062 189.038 310.345 188.472 310.467C181.751 311.884 175.415 314.94 168.431 315.791L168.431 315.75Z" fill="#00ABDF"/>
<path fill-rule="evenodd" clip-rule="evenodd" d="M357.864 375.446C357.702 379.859 357.924 384.232 358.774 388.543C358.916 389.272 359.2 389.96 359.321 390.689C359.442 391.357 360.576 392.025 359.787 392.592C358.855 393.26 358.208 392.147 357.722 391.479C356.548 389.92 356.305 387.956 356.062 386.094C355.293 380.244 355.09 374.373 355.92 368.503C356.042 367.693 356.183 366.884 357.094 366.944C358.167 367.005 357.843 368.037 357.843 368.705C357.884 370.952 357.843 373.199 357.843 375.426L357.864 375.446Z" fill="#00ABDF"/>
<path fill-rule="evenodd" clip-rule="evenodd" d="M120.618 385.972C120.759 388.24 120.314 390.669 119.889 393.118C119.727 394.07 119.342 395.304 118.168 395.102C116.873 394.859 117.237 393.523 117.379 392.612C118.229 387.147 117.743 381.721 116.751 376.337C116.589 375.446 116.043 374.414 117.237 374.029C118.431 373.645 118.897 374.758 119.18 375.709C120.193 378.948 120.658 382.308 120.618 385.952L120.618 385.972Z" fill="#00ABDF"/>
<path fill-rule="evenodd" clip-rule="evenodd" d="M369.2 385.426C369.24 384.839 369.24 384.09 369.362 383.361C369.483 382.713 369.969 382.43 370.596 382.43C371.265 382.43 371.548 382.835 371.649 383.503C372.175 387.43 372.702 391.337 373.248 395.264C373.309 395.669 373.552 396.074 373.005 396.296C372.58 396.458 372.216 396.256 371.953 395.932C371.588 395.406 371.163 394.879 370.961 394.272C370.05 391.458 369.26 388.604 369.18 385.446L369.2 385.426Z" fill="#00ABDF"/>
<path fill-rule="evenodd" clip-rule="evenodd" d="M101.61 397.896C101.69 399.879 101.569 401.843 101.002 403.766C100.8 404.434 100.375 404.981 99.6257 404.778C98.8767 404.596 98.6743 403.968 98.8362 403.24C99.5245 399.981 99.0589 396.681 99.1804 393.402C99.2209 392.43 99.0184 391.134 100.294 391.074C101.448 391.013 100.901 392.329 101.184 393.017C101.812 394.596 101.488 396.276 101.63 397.896L101.61 397.896Z" fill="#00ABDF"/>
<path fill-rule="evenodd" clip-rule="evenodd" d="M283.998 159.698C276.144 146.54 257.865 142.573 257.865 142.573C257.865 142.573 262.399 135.285 263.148 131.318C263.897 127.35 263.229 121.925 259.666 115.771C256.124 109.618 246.772 105.69 239.626 107.168C232.48 108.646 225.031 114.192 223.614 124.941C222.197 135.69 229.808 142.634 229.808 142.634L218.553 147.188C218.553 147.188 212.399 150.65 206.812 156.945C201.225 163.241 200.821 164.354 197.035 174.476C193.25 184.597 193.938 200.265 193.938 200.265L194.404 203.605C194.404 203.605 197.703 207.572 198.371 209.556C199.019 211.54 199.545 213.443 200.517 212.107C201.509 210.771 202.764 200.265 202.764 200.265C202.764 200.265 205.821 194.172 206.569 191.358C206.873 190.184 206.893 189.86 206.914 187.917C209.565 187.532 216.833 184.759 225.76 180.063L225.922 180.063C225.922 180.063 239.788 170.812 246.286 165.569C252.784 160.326 260.76 159.739 260.76 159.739C260.76 159.739 265.739 162.107 267.5 165.852C269.261 169.577 271.346 175.083 273.735 178.727C276.124 182.37 278.553 185.002 279.869 185.872C279.889 188.119 279.889 190.022 280.01 190.953C280.375 193.666 283.857 198.322 283.857 198.322C283.857 198.322 284.484 203.382 284.484 206.945C284.484 210.508 285.334 215.386 285.334 215.386C285.334 215.386 285.962 215.508 286.751 213.524C287.541 211.54 288.937 208.645 289.342 206.945C289.747 205.245 291.812 203.362 291.812 203.362C291.812 203.362 293.148 191.702 293.148 186.156C293.148 180.609 291.832 172.836 283.978 159.698L283.998 159.698Z" fill="#00ABDF"/>
<path fill-rule="evenodd" clip-rule="evenodd" d="M302.58 216.257C302.681 215.629 302.762 215.002 302.884 214.374C304.058 208.828 304.24 203.322 302.6 197.795C301.831 195.184 301.366 192.492 300.9 189.799C300.556 187.775 301.042 185.812 302.115 184.05C302.762 182.998 303.552 182.087 305.009 182.411C306.366 182.694 307.6 183.119 307.904 184.739C307.985 185.184 308.187 185.629 308.39 186.196C309.949 186.156 311.507 186.297 312.6 187.714C313.734 189.152 314.989 192.208 314.908 193.484C313.957 193.504 313.774 192.694 313.451 192.087C312.965 191.135 312.621 190.123 312.074 189.212C311.75 188.666 311.264 188.119 310.718 187.816C309.2 186.945 307.783 187.674 307.823 189.415C307.864 191.135 308.147 192.856 308.532 194.536C308.997 196.601 309.604 198.666 310.333 200.65C310.961 202.33 311.163 204.03 310.961 205.751C310.536 209.172 309.969 212.593 309.422 215.994C309.341 216.479 308.997 216.905 308.451 217.33C308.451 216.864 308.39 216.398 308.451 215.953C308.896 212.795 309.422 209.637 309.847 206.479C310.171 204.071 309.685 201.743 308.896 199.435C308.046 196.925 307.378 194.354 306.689 191.783C306.305 190.326 306.447 188.909 307.175 187.532C307.945 186.054 306.548 183.666 304.888 183.484C304.098 183.403 303.633 183.808 303.248 184.395C302.155 186.075 301.669 187.917 302.054 189.901C302.519 192.31 303.086 194.718 303.572 197.127C304.017 199.334 304.503 201.56 304.807 203.787C305.353 207.836 304.564 211.743 303.349 215.569C303.268 215.852 303.025 216.095 302.864 216.338C302.762 216.297 302.641 216.257 302.54 216.237L302.58 216.257Z" fill="#005671"/>
<path fill-rule="evenodd" clip-rule="evenodd" d="M168.391 192.067C168.452 191.5 168.391 191.156 168.512 190.892C168.978 189.799 169.464 188.686 170.031 187.633C171.346 185.143 172.277 184.597 175.172 184.617C175.314 184.152 175.516 183.666 175.638 183.16C175.881 182.087 176.569 181.459 177.581 181.095C179.322 180.467 180.314 180.751 181.326 182.309C182.763 184.496 182.966 186.925 182.5 189.415C182.055 191.702 181.65 194.01 180.962 196.237C179.383 201.419 179.504 206.601 180.476 211.844C180.638 212.755 180.82 213.666 180.982 214.577C180.982 214.637 180.941 214.698 180.779 215.022C180.476 214.475 180.192 214.091 180.031 213.666C178.249 208.139 178.168 202.552 179.524 196.925C180.152 194.334 180.779 191.763 181.346 189.152C181.792 187.067 181.609 185.022 180.496 183.16C180.091 182.492 179.666 181.763 178.654 181.905C177.703 182.026 177.035 182.492 176.67 183.362C176.407 183.969 176.164 184.597 175.881 185.245C177.116 186.925 177.318 188.747 176.711 190.731C175.8 193.706 174.99 196.743 174.039 199.698C173.533 201.277 173.411 202.836 173.614 204.435C174.018 207.593 174.524 210.751 174.99 213.909C175.071 214.475 175.091 215.062 175.132 215.751C174.18 215.447 174.099 214.718 173.998 214.111C173.492 211.034 173.006 207.937 172.601 204.84C172.237 202.127 172.966 199.597 173.796 197.026C174.646 194.374 175.132 191.621 175.759 188.909C175.8 188.726 175.759 188.504 175.78 188.301C175.86 187.289 175.516 186.459 174.585 185.973C173.856 185.609 172.52 185.973 171.933 186.864C171.286 187.856 170.84 188.99 170.273 190.042C169.889 190.771 169.727 191.702 168.371 192.046L168.391 192.067Z" fill="#005671"/>
<path fill-rule="evenodd" clip-rule="evenodd" d="M219.788 335.446C217.541 335.203 215.334 334.677 213.31 333.624C207.358 330.568 201.609 327.248 196.974 322.309C194.201 319.374 191.913 316.155 190.597 312.289C189.869 310.143 188.836 308.119 187.986 306.034C187.682 305.285 187.237 304.556 187.642 303.584C187.804 303.827 188.006 304.07 188.128 304.333C189.525 307.349 190.921 310.366 192.278 313.402C193.553 316.236 195.435 318.645 197.541 320.892C200.01 323.523 202.824 325.77 205.881 327.714C207.905 328.989 209.889 330.345 211.994 331.499C213.978 332.572 216.083 333.422 218.128 334.353C218.715 334.616 219.322 334.819 219.909 335.062C219.868 335.203 219.808 335.345 219.767 335.467L219.788 335.446Z" fill="#005671"/>
<path fill-rule="evenodd" clip-rule="evenodd" d="M296.71 309.272C296.083 315.042 282.176 329.556 276.043 330.953C276.569 330.467 276.832 330.163 277.136 329.94C282.055 326.276 286.812 322.41 290.597 317.532C292.034 315.689 293.289 313.746 294.666 311.864C295.314 310.973 296.022 310.143 296.69 309.293L296.71 309.272Z" fill="#005671"/>
<path fill-rule="evenodd" clip-rule="evenodd" d="M184.788 204.212C183.755 203.018 183.654 201.682 183.816 200.386C184.079 198.16 184.545 195.953 184.929 193.726C185.193 192.168 185.516 190.609 185.759 189.03C185.84 188.504 185.861 187.957 185.759 187.451C185.516 185.832 185.071 184.334 183.087 183.888C184.464 183.059 184.95 183.079 185.739 184.03C186.873 185.366 187.318 186.965 187.116 188.686C186.873 190.65 186.529 192.613 186.144 194.556C185.84 196.115 185.314 197.633 185.071 199.212C184.869 200.569 184.97 201.965 184.929 203.342C184.929 203.645 184.828 203.929 184.767 204.232L184.788 204.212Z" fill="#005671"/>
<path fill-rule="evenodd" clip-rule="evenodd" d="M188.715 209.698C190.294 208.625 190.901 208.544 191.893 209.414C192.743 210.143 193.533 210.993 194.16 211.904C196.508 215.447 197.237 219.597 198.411 223.564C198.269 223.645 198.128 223.726 197.966 223.787C197.581 223.099 197.095 222.471 196.812 221.742C196.144 220.082 195.658 218.342 194.929 216.702C194.241 215.123 193.431 213.585 192.541 212.127C191.771 210.892 190.84 209.759 188.715 209.678L188.715 209.698Z" fill="#005671"/>
<path fill-rule="evenodd" clip-rule="evenodd" d="M294.666 229.657C294.868 230.265 295.03 230.528 294.99 230.73C294.646 232.734 295.82 233.949 297.136 235.143C300.455 238.139 302.338 241.985 303.492 246.236C303.573 246.56 303.593 246.884 303.613 247.208C303.613 247.248 303.553 247.309 303.411 247.512C303.128 246.924 302.864 246.418 302.642 245.892C301.083 242.005 298.958 238.544 295.881 235.649C293.775 233.665 293.492 232.269 294.646 229.657L294.666 229.657Z" fill="#005671"/>
<path fill-rule="evenodd" clip-rule="evenodd" d="M251.811 264.111C249.281 268.281 239.747 268.24 236.224 264.192C236.71 264.192 237.075 264.111 237.398 264.192C238.674 264.556 239.949 264.981 241.204 265.386C243.714 266.216 246.164 266.095 248.593 265.022C249.524 264.617 250.455 264.07 251.832 264.091L251.811 264.111Z" fill="#005671"/>
<path fill-rule="evenodd" clip-rule="evenodd" d="M179.666 246.034C180.112 244.516 180.335 243.362 180.76 242.269C182.156 238.787 183.897 235.548 186.873 233.099C188.027 232.147 188.857 230.973 188.634 229.313C188.594 229.03 188.755 228.726 188.938 228.018C189.747 229.678 189.727 230.953 189.1 232.228C188.816 232.815 188.371 233.362 187.905 233.807C184.525 236.864 182.298 240.649 180.679 244.86C180.577 245.103 180.456 245.346 180.334 245.568C180.314 245.629 180.233 245.649 179.687 246.034L179.666 246.034Z" fill="#005671"/>
<path fill-rule="evenodd" clip-rule="evenodd" d="M287.945 224.151C288.188 223.726 288.451 223.301 288.674 222.856C289.038 222.147 289.564 221.439 289.666 220.69C290.172 217.208 292.156 214.273 293.168 210.973C293.674 209.293 294.605 207.815 296.224 206.925C296.528 206.743 296.892 206.641 297.378 206.662C294.767 208.706 294.18 211.763 292.965 214.516C292.115 216.459 291.204 218.301 290.9 220.487C290.678 222.046 289.767 223.504 287.965 224.151L287.945 224.151Z" fill="#005671"/>
<path fill-rule="evenodd" clip-rule="evenodd" d="M169.929 233.362C174.14 230.245 179.18 228.989 183.978 226.763C183.047 228.382 183.067 228.443 177.318 230.832C174.909 231.823 172.662 233.24 169.929 233.362Z" fill="#005671"/>
<path fill-rule="evenodd" clip-rule="evenodd" d="M299.726 228.483C304.402 230.548 309.382 231.904 313.856 234.637C313.269 235.649 312.601 235.204 312.074 234.981C309.746 234.01 307.439 232.997 305.111 231.965C303.896 231.439 302.661 230.912 301.487 230.285C300.759 229.9 300.151 229.333 299.483 228.848C299.564 228.726 299.645 228.584 299.726 228.463L299.726 228.483Z" fill="#005671"/>
<path fill-rule="evenodd" clip-rule="evenodd" d="M296.507 210.629C297.783 211.743 297.884 213.079 297.722 214.455C297.459 216.884 296.487 219.07 295.09 221.034C294.179 222.309 293.167 223.524 292.216 224.759C292.094 224.678 291.953 224.617 291.831 224.536C291.973 224.151 292.094 223.767 292.277 223.423C293.248 221.682 294.26 219.981 295.212 218.22C296.366 216.074 297.034 213.807 296.345 211.338C296.305 211.176 296.426 210.994 296.487 210.649L296.507 210.629Z" fill="#005671"/>
<path fill-rule="evenodd" clip-rule="evenodd" d="M195.415 225.326C191.447 222.188 188.613 216.358 190.577 212.694C191.346 214.232 190.86 215.832 191.407 217.188C191.973 218.585 192.54 220.002 193.208 221.358C193.876 222.714 194.686 224.01 195.435 225.326L195.415 225.326Z" fill="#005671"/>
<path fill-rule="evenodd" clip-rule="evenodd" d="M245.395 204.718C245.699 204.152 245.982 203.727 246.144 203.281C246.488 202.39 246.022 201.621 245.071 201.642C244.241 201.682 243.431 201.986 242.5 202.208C242.601 203.059 242.682 203.686 242.763 204.374C241.832 204.739 241.569 204.05 241.306 203.463C240.982 202.755 240.942 202.046 241.508 201.419C242.48 200.326 245.334 199.88 246.549 200.629C247.379 201.156 247.642 201.945 247.52 202.856C247.399 203.848 246.933 204.233 245.354 204.698L245.395 204.718Z" fill="#005671"/>
<path fill-rule="evenodd" clip-rule="evenodd" d="M245.233 186.459C245.294 186.864 245.456 187.31 245.415 187.714C245.091 190.832 244.727 193.969 244.099 197.067C243.188 193.909 243.533 190.751 244.018 187.613C244.099 187.087 244.241 186.399 245.233 186.459Z" fill="#005671"/>
<path fill-rule="evenodd" clip-rule="evenodd" d="M223.877 196.884C223.715 197.512 223.634 198.119 223.391 198.625C222.804 199.82 221.407 199.901 220.577 198.828C219.767 197.795 219.646 195.65 220.456 194.617C220.82 194.172 221.508 193.747 222.055 193.747C222.46 193.747 223.027 194.334 223.269 194.799C223.593 195.447 223.695 196.216 223.856 196.884L223.877 196.884Z" fill="#005671"/>
<path fill-rule="evenodd" clip-rule="evenodd" d="M271.649 333.604C268.674 335.264 265.759 337.106 262.317 337.754C262.014 337.815 261.649 337.572 260.941 337.369C264.706 335.871 268.087 334.515 271.467 333.159C271.528 333.301 271.589 333.463 271.649 333.604Z" fill="#005671"/>
<path fill-rule="evenodd" clip-rule="evenodd" d="M267.499 197.087C267.499 196.803 267.499 196.864 267.499 196.945C267.459 198.565 266.912 199.516 266.002 199.556C264.929 199.617 263.937 198.281 263.937 196.783C263.937 195.386 264.726 194.01 265.597 193.949C266.791 193.888 267.479 194.88 267.499 197.067L267.499 197.087Z" fill="#005671"/>
<path fill-rule="evenodd" clip-rule="evenodd" d="M268.41 188.929C267.378 188.666 266.447 188.281 265.516 188.241C264.645 188.221 263.775 188.605 262.904 188.808C262.823 187.674 263.289 187.107 264.585 186.824C266.224 186.459 267.682 187.188 268.41 188.929Z" fill="#005671"/>
<path fill-rule="evenodd" clip-rule="evenodd" d="M218.715 189.091C220.233 186.399 222.662 185.953 224.383 187.876C223.289 187.876 222.338 187.735 221.427 187.917C220.597 188.079 219.828 188.585 218.715 189.091Z" fill="#005671"/>
<path fill-rule="evenodd" clip-rule="evenodd" d="M222.824 337.005C225.172 336.56 225.8 336.681 227.196 337.653C225.678 338.098 224.403 338.139 222.824 337.005Z" fill="#005671"/>
<path fill-rule="evenodd" clip-rule="evenodd" d="M237.986 227.37C238.208 224.86 238.775 221.783 242.824 220.649C245.779 219.819 247.925 220.568 248.977 222.856C250.941 227.086 250.718 230.872 248.026 234.394C246.852 235.933 240.273 235.447 239.038 233.463C237.824 231.52 237.844 229.576 237.986 227.39L237.986 227.37Z" fill="#ED7255"/>
<path fill-rule="evenodd" clip-rule="evenodd" d="M241.043 235.184C240.719 235.852 238.107 234.232 237.5 231.742C236.711 228.261 237.115 224.981 239.261 222.147C240.658 220.305 242.541 219.496 244.889 219.536C247.115 219.577 248.796 220.609 249.868 222.532C251.488 225.427 251.63 228.483 250.739 231.459C249.868 234.394 246.873 236.317 244.16 235.933C243.775 235.872 242.925 235.548 242.966 235.204C243.006 234.88 244.281 235.123 244.787 235.042C247.986 234.516 249.828 232.41 249.868 229.212C249.889 227.471 249.423 224.88 248.715 223.22C247.298 219.921 243.269 219.678 240.86 222.107C238.613 224.354 238.128 227.289 238.593 230.386C239.059 233.463 241.387 234.516 241.063 235.184L241.043 235.184Z" fill="#005671"/>
</svg>
