<svg width="33" height="28" viewBox="0 0 33 28" fill="none" xmlns="http://www.w3.org/2000/svg">
<path fill-rule="evenodd" clip-rule="evenodd" d="M12.3926 25.304C11.6884 25.5002 10.9337 25.3132 10.4211 24.8129L3.07474 17.6436L2.30842 18.3474L2.9979 17.5584C2.94632 17.5029 2.88842 17.4536 2.82632 17.4104C2.37369 17.1001 2.10526 16.5988 2.10526 16.0697V3.83634C2.10526 2.93325 2.8579 2.19763 3.78421 2.19763C4.70948 2.19763 5.46316 2.93325 5.46316 3.83634V6.56821C5.46316 7.13534 5.93474 7.59562 6.51579 7.59562C7.09685 7.59562 7.56842 7.13534 7.56842 6.56821V3.83634C7.56842 1.80003 5.87053 0.142822 3.78421 0.142822C1.69684 0.142822 0 1.80003 0 3.83634V16.0697C0 17.2245 0.561053 18.3156 1.50737 19.0142C1.53368 19.044 1.56 19.0717 1.58632 19.0964L8.93158 26.2667C9.71053 27.0259 10.7579 27.4358 11.8326 27.4358C12.2137 27.4358 12.5979 27.3845 12.9747 27.2786C13.5326 27.1225 13.8558 26.5523 13.6947 26.0077C13.5337 25.4622 12.9537 25.1468 12.3926 25.304Z" fill="#1E6E67"/>
<path fill-rule="evenodd" clip-rule="evenodd" d="M29.2351 0C27.1917 0 25.5288 1.63177 25.5288 3.63784V5.64492C25.5288 6.20334 25.9906 6.65655 26.5597 6.65655C27.1288 6.65655 27.5907 6.20334 27.5907 5.64492V3.63784C27.5907 2.7476 28.3289 2.02327 29.2351 2.02327C30.1413 2.02327 30.8795 2.7476 30.8795 3.63784V15.6824C30.8795 16.2033 30.6156 16.697 30.1733 17.0025L22.7348 24.2914C21.9997 25.0116 20.7028 25.0127 19.9687 24.2914L8.73528 13.2686L8.64661 13.1907C8.64146 13.1877 8.16824 12.783 8.13216 12.171C8.08989 11.4527 8.66517 10.7284 9.15488 10.2479C9.55799 9.85231 9.55799 9.21194 9.15488 8.8174C8.75177 8.42186 8.1002 8.42186 7.69709 8.8174C6.55065 9.94234 6.00424 11.1108 6.07434 12.2883C6.15476 13.6601 7.0517 14.5129 7.30944 14.7304L18.5109 25.7218C19.2677 26.4644 20.276 26.8731 21.3523 26.8731C22.4276 26.8731 23.4359 26.4644 24.1926 25.7218L31.3878 18.6626C31.4125 18.6373 31.4373 18.612 31.4651 18.5817C32.393 17.8928 32.9414 16.8184 32.9414 15.6824V3.63784C32.9414 1.63177 31.2785 0 29.2351 0Z" fill="#1E6E67"/>
<path fill-rule="evenodd" clip-rule="evenodd" d="M12.9775 6.47333L16.0085 3.44238C16.3334 3.11757 16.7606 2.95568 17.1867 2.95568C17.6128 2.95568 18.04 3.11757 18.3649 3.44238C19.0145 4.09202 19.0145 5.14899 18.3649 5.79863L15.3338 8.82957C14.6842 9.47921 13.6271 9.47921 12.9775 8.82957C12.3278 8.17993 12.3278 7.12297 12.9775 6.47333ZM21.0199 6.78875C21.4461 6.78875 21.8732 6.95168 22.1981 7.2765C22.5104 7.58878 22.6827 8.0076 22.6827 8.45358C22.6827 8.90059 22.5104 9.31941 22.1981 9.6317L19.167 12.6637C18.5174 13.3133 17.4604 13.3133 16.8107 12.6637C16.1621 12.014 16.1621 10.956 16.8107 10.3064L19.8417 7.2765C20.1666 6.95168 20.5938 6.78875 21.0199 6.78875ZM24.8542 10.6218C25.2803 10.6218 25.7075 10.7837 26.0323 11.1085C26.682 11.7592 26.682 12.8162 26.0323 13.4658L23.0013 16.4968C22.3506 17.1464 21.2936 17.1464 20.6439 16.4968C19.9942 15.8471 19.9942 14.7902 20.6439 14.1405L23.675 11.1096L23.677 11.1075C24.0008 10.7837 24.427 10.6218 24.8542 10.6218ZM14.1557 11.4051C14.1859 11.4051 14.2152 11.3968 14.2444 11.3957C14.2215 12.388 14.5797 13.3854 15.3338 14.1405C16.066 14.8727 17.0279 15.2382 17.9889 15.2382C18.0191 15.2382 18.0473 15.2309 18.0776 15.2299C18.0547 16.221 18.4129 17.2185 19.167 17.9736C19.8992 18.7057 20.8612 19.0713 21.8231 19.0713C22.784 19.0713 23.746 18.7057 24.4782 17.9736L27.5092 14.9426C28.9725 13.4783 28.9725 11.096 27.5092 9.6317C26.7541 8.87761 25.7555 8.51833 24.7633 8.54235C24.7643 8.51311 24.7717 8.48386 24.7717 8.45358C24.7717 7.44883 24.3821 6.50571 23.675 5.79863C22.9209 5.04455 21.9223 4.68735 20.9322 4.71033C20.9552 3.71916 20.5969 2.72068 19.8417 1.96556C18.3784 0.501261 15.995 0.500217 14.5317 1.96556L11.5006 4.9965C10.0363 6.4608 10.0363 8.84315 11.5006 10.3064C12.2328 11.0396 13.1947 11.4051 14.1557 11.4051Z" fill="#1E6E67"/>
</svg>
