<svg width="600" height="435" viewBox="0 0 600 435" fill="none" xmlns="http://www.w3.org/2000/svg">
<path d="M76.8527 194.043L30.7411 433.56H528.958V201.841L415.004 88.7668L331.791 18.0258L76.8527 194.043Z" fill="white"/>
<path fill-rule="evenodd" clip-rule="evenodd" d="M297.257 434.62V376.941C297.257 376.941 313.557 386.791 328.002 403.605C342.447 420.42 342.955 434.074 342.955 434.074L297.277 434.62H297.257Z" fill="#79CBE8"/>
<path opacity="0.6" fill-rule="evenodd" clip-rule="evenodd" d="M93.2884 299.97H98.3247L99.6716 317.154C99.6716 317.154 100.57 324.274 105.86 327.395C111.15 330.516 116.498 329.326 116.498 329.326C116.498 329.326 130.026 329.131 130.807 320.627C131.588 312.122 132.681 297.629 132.681 297.629H136.604C136.604 297.629 145.31 334.69 117.474 334.339C85.773 334.339 93.3079 299.95 93.3079 299.95L93.2884 299.97Z" fill="#EFE452"/>
<path opacity="0.6" fill-rule="evenodd" clip-rule="evenodd" d="M86.9246 293.201V345.945L85.3825 349.417V357.142C85.3825 357.142 65.4716 344.209 66.8185 322.363C68.1654 300.535 86.9246 293.201 86.9246 293.201Z" fill="#EFE452"/>
<path opacity="0.6" fill-rule="evenodd" clip-rule="evenodd" d="M141.055 345.555V293.201H142.792V287.603C142.792 287.603 160.575 298.994 160.575 320.451C160.575 341.907 144.725 353.689 144.725 353.689L143.573 347.896L141.055 345.575V345.555Z" fill="#EFE452"/>
<path fill-rule="evenodd" clip-rule="evenodd" d="M286.189 433.684V374.912L278.908 369.47L220.425 380.549L171.409 400.406L182.712 405.771L188.802 411.408L193.233 418.137C193.233 418.137 197 416.577 202.72 420.4C208.42 424.223 211.133 433.079 211.133 433.079L286.189 433.664V433.684Z" fill="#79CBE8"/>
<path fill-rule="evenodd" clip-rule="evenodd" d="M435.872 217.303V288.851H414.692L404.269 238.428L401.067 213.499L435.872 217.303Z" fill="#6BB3A9"/>
<path fill-rule="evenodd" clip-rule="evenodd" d="M299.99 340.718H417.308L420.9 361.882V394.047L418.206 395.978C418.206 395.978 402.824 393.462 378.755 400.718C354.687 407.955 340.183 420.42 340.183 420.42C340.183 420.42 333.8 406.804 320.174 394.633C306.549 382.461 297.257 376.96 297.257 376.96V345.945L299.99 340.737V340.718Z" fill="#EFE452"/>
<path fill-rule="evenodd" clip-rule="evenodd" d="M287.634 348.54V373.761L276.371 368.241V364.184L280.431 354.333L287.634 348.54Z" fill="#EFE452"/>
<path opacity="0.8" fill-rule="evenodd" clip-rule="evenodd" d="M234.909 36.7348L250.272 57.6063L272.408 62.5414L276.663 59.9666L289.137 72.6845L307.701 80.2139L325.972 93.4195L329.447 83.9786L334.093 82.5351C334.093 82.5351 338.738 77.366 341.335 77.7756C343.95 78.1852 346.547 78.907 346.547 78.907L356.112 89.3427C356.112 89.3427 363.08 54.6999 339.871 40.7921C316.68 26.8843 283.71 36.7348 283.71 36.7348L255.425 29.4006C255.425 29.4006 243.557 24.9727 238.462 29.4006C233.367 33.8284 234.89 36.7348 234.89 36.7348H234.909Z" fill="#E06765"/>
<path fill-rule="evenodd" clip-rule="evenodd" d="M216.052 259.007C216.052 259.007 223.861 282.902 236.939 299.053C250.018 315.184 256.069 331.082 256.069 331.082L291.44 288.578L295.501 321.036L417.289 319.885C417.289 319.885 415.278 275.86 408.017 254.969C400.735 234.078 407.724 208.603 388.73 181.373C369.737 154.142 353.496 166.88 353.496 166.88L342.194 177.023L358.532 205.716L373.524 246.269L377.877 267.999C377.877 267.999 386.876 274.67 388.75 283.35C390.643 292.05 387.149 308.552 375.847 310.015C364.544 311.459 350.334 304.866 342.506 285.555C334.678 266.244 326.558 225.398 326.558 225.398L321.053 194.676C321.053 194.676 310.375 207.277 300.01 204.117C289.645 200.957 290.328 190.911 290.328 190.911L293.061 181.119L293.705 175.17C293.705 175.17 267.411 193.525 259.876 205.97C252.341 218.434 216.091 259.007 216.091 259.007H216.052Z" fill="#EFE452"/>
<path d="M89.3062 293.201H94.1082L97.7585 287.603C97.7585 287.603 96.0017 287.193 94.1082 284.911C92.2342 282.629 94.1082 278.786 94.1082 278.786C94.1082 278.786 96.7825 277.108 97.7585 274.826C98.7346 272.544 97.7585 263.454 97.7585 263.454H89.3062L76.8326 273.539L80.1901 282.96L82.7863 285.886L84.0942 293.22H89.3062V293.201Z" fill="#6BB3A9"/>
<path fill-rule="evenodd" clip-rule="evenodd" d="M82.8059 409.418L85.812 399.665V347.331L95.6308 346.355L99.3202 340.738H105.45C105.45 340.738 103.185 342.708 102.619 346.999C102.053 351.31 102.619 390.556 102.619 390.556C102.619 390.556 102.619 395.764 103.517 397.383C104.415 399.002 102.014 400.641 102.326 403.235C102.619 405.829 102.326 409.418 102.326 409.418H82.8254H82.8059Z" fill="#6BB3A9"/>
<path d="M0 380.081V379.145C1.03458 379.125 1.07362 378.384 0.976022 377.662C0.761297 375.926 1.21027 374.288 1.54212 372.61C2.12773 369.762 2.6743 366.895 3.24039 364.028C3.90409 360.711 4.80203 357.454 5.89518 354.236C6.63695 352.051 7.74962 350.022 8.39379 347.798C8.8818 346.121 9.21365 344.326 10.1311 342.805C11.1852 341.088 11.927 339.216 12.6688 337.402C13.879 334.437 15.4212 331.647 16.6705 328.722C17.4122 326.966 18.7396 325.405 19.3252 323.611C20.3989 320.373 22.2728 317.525 23.893 314.658C25.8841 311.166 28.0899 307.714 30.3543 304.339C33.1457 300.165 36.3276 296.166 38.1625 291.426C38.6114 290.256 39.6851 289.69 40.1145 288.598C41.8323 284.345 44.4285 280.503 45.9316 276.114C46.8686 273.383 48.0398 270.73 48.8206 267.941C50.2261 262.928 51.2021 257.895 50.8898 252.628C50.8117 251.282 50.558 249.917 50.7532 248.532C51.085 246.133 50.9679 243.734 50.5189 241.354C50.2847 240.086 50.148 238.799 50.109 237.511C50.0309 235.092 50.2652 232.693 49.6405 230.274C49.3087 228.967 49.172 227.524 49.5624 226.12C49.6991 225.612 49.7967 225.008 49.6405 224.52C48.6645 221.302 49.4258 217.966 49.0939 214.689C48.9768 213.519 48.6059 212.134 49.0158 210.885C49.4453 209.598 49.3477 208.272 49.5429 206.984C49.9919 204.039 50.6751 201.132 51.6706 198.323C52.549 195.866 53.6812 193.505 54.6182 191.067C55.1062 189.78 55.6723 188.395 56.4336 187.4C57.7415 185.703 58.5418 183.733 59.8497 182.036C61.4894 179.89 63.1877 177.725 65.1007 175.95C68.224 173.044 70.8397 169.63 74.2558 167.016C75.7003 165.904 76.9496 164.558 78.6088 163.7C80.19 162.9 81.4784 161.652 82.9033 160.599C85.1677 158.941 87.8811 158.141 90.1259 156.424C91.18 155.605 92.1756 154.415 93.542 154.123C96.2944 153.518 98.5197 151.782 101.038 150.69C104.376 149.227 107.929 147.978 110.642 145.364C113.648 144.643 115.698 142.282 118.294 140.82C120.91 139.337 123.272 137.269 125.126 134.792C125.595 134.168 126.161 133.68 126.649 133.115C128.913 130.52 131.704 128.472 133.715 125.585C134.964 123.791 136.331 121.996 137.912 120.455C139.083 119.304 140.04 117.997 140.781 116.593C141.504 115.189 142.48 114.018 143.475 112.848C144.9 111.229 146.052 109.395 147.243 107.62C150.483 102.802 153.392 97.7696 156.476 92.8346C157.081 91.8593 158.038 91.079 158.604 90.0842C161.493 84.8761 166.021 80.9554 169.457 76.1764C171.507 73.3285 174.532 71.4169 176.992 68.9591C179.744 66.2088 182.926 63.868 186.069 61.5468C188.08 60.0644 189.739 58.0162 192.179 57.0799C192.647 56.9044 192.979 56.3972 193.174 55.8316C193.291 55.4804 193.584 55.0123 193.877 54.9538C195.556 54.6027 196.473 53.1007 197.898 52.3595C199.304 51.6182 200.592 50.6234 201.92 49.7457C203.754 48.4973 205.531 47.1513 207.444 46.02C210.06 44.44 212.773 43.0356 215.447 41.5531C215.916 41.2995 216.384 40.8314 216.872 40.8119C218.961 40.6753 220.659 39.4855 222.357 38.5882C225.344 36.9887 228.623 36.501 231.786 35.5842C232.918 35.2526 233.25 34.9015 233.406 33.8287C233.718 31.605 234.323 29.5959 236.412 28.1134C237.603 27.2747 238.93 27.0016 240.121 26.3579C242.405 25.1485 244.904 24.8364 247.344 25.4996C248.983 25.9482 250.584 25.285 252.107 25.7727C253.727 26.2798 255.132 27.2747 256.831 27.6453C257.572 27.8208 258.373 27.8793 259.075 28.1524C259.7 28.3865 260.208 28.289 260.578 27.9574C261.594 27.0991 262.862 26.6505 263.916 25.8897C266.884 23.7441 270.085 21.969 273.247 20.1159C274.262 19.5112 275.492 19.5112 276.429 18.7895C279.103 16.7804 282.11 15.4345 285.194 14.2446C285.623 14.0886 286.014 13.835 286.443 13.6399C290.093 12.0014 293.607 9.99228 297.511 8.93895C297.902 8.84142 298.214 8.62685 298.565 8.49031C301.279 7.41747 303.972 6.13007 306.783 5.42785C310.141 4.6086 313.537 3.82836 316.914 3.10663C320.194 2.40441 323.415 1.3901 326.792 1.01948C332.082 0.434298 337.391 0.27825 342.701 0.044177C345.063 -0.0533534 347.425 0.024671 349.806 0.141707C352.754 0.27825 355.643 0.882938 358.591 0.92195C360.23 0.941456 361.929 1.3901 363.588 1.81923C366.262 2.50194 368.897 3.3407 371.533 4.12095C375.066 5.17427 378.716 5.87649 382.113 7.43698C385.256 8.89993 388.242 10.636 391.424 12.0404C393.357 12.8987 395.27 13.8545 397.183 14.7908C400.735 16.5073 403.956 18.77 406.962 21.2473C408.739 22.7102 410.378 24.3878 412.35 25.5191C416.176 27.7038 419.006 30.9808 421.934 34.0823C425.097 37.4178 428.005 41.0264 430.68 44.7911C432.866 47.8731 435.189 50.8575 436.829 54.3101C437.356 55.4219 438.136 56.3972 438.781 57.4506C440.713 60.6886 442.782 63.868 444.481 67.2231C446.12 70.4416 447.272 73.8942 449.38 76.8786C451.137 79.3559 452.074 82.2428 453.46 84.8956C455.314 88.4262 457.364 91.8398 459.453 95.2143C460.585 97.0479 462.088 98.6084 463.24 100.442C465.816 104.558 469.018 108.147 472.512 111.521C474.054 113.023 475.811 114.33 476.982 116.203C478.329 118.388 480.223 120.143 482.116 121.762C485.142 124.337 488.167 126.931 491.486 129.233C494.063 131.008 496.522 133.095 498.962 135.124C503.003 138.498 507.2 141.717 511.338 144.994C515.379 148.173 519.615 151.099 523.851 154.006C527.989 156.854 531.913 159.935 535.27 163.7C536.149 164.695 537.183 165.514 538.12 166.431C541.634 169.864 545.694 172.692 548.505 176.886C550.574 180.007 553.268 182.699 555.415 185.781C558.168 189.702 560.217 194.052 562.13 198.421C564.395 203.571 565.995 208.954 567.518 214.396C568.689 218.61 569.529 222.862 570.505 227.095C571.91 233.142 572.457 239.364 573.042 245.548C573.706 252.531 573.862 259.514 572.203 266.38C571.071 271.062 570.758 275.841 570.134 280.581C569.802 283.077 569.646 285.613 569.177 288.032C568.377 292.07 568.396 296.107 568.299 300.145C568.26 302.174 568.767 304.144 568.865 306.153C568.924 307.616 568.806 309.098 569.392 310.444C570.934 313.994 571.617 317.818 572.847 321.465C574.701 326.927 576.81 332.252 579.308 337.441C580.675 340.269 582.256 342.98 583.466 345.867C584.54 348.423 586.023 350.763 586.941 353.436C587.663 355.542 588.834 357.591 589.596 359.775C591.509 365.198 594.046 370.426 594.866 376.219C595.061 377.604 595.745 378.833 595.92 380.237C596.506 384.665 597.989 388.917 598.614 393.345C598.926 395.627 599.453 397.89 599.59 400.211C599.649 401.265 599.356 402.376 600 403.352V405.224C599.395 405.849 599.317 406.473 600 407.097V422.936C599.531 424.165 599.649 425.472 599.571 426.759C599.512 427.91 599.102 428.651 597.911 428.944C596.916 429.178 595.998 429.704 595.413 430.543C594.515 431.831 593.305 432.006 591.938 431.889C591.391 431.831 590.864 431.753 590.318 431.753C583.661 431.655 577.024 432.006 570.368 431.753C564.941 431.538 559.495 432.045 554.068 431.753C552.526 431.675 550.984 431.597 549.462 431.616C546.124 431.675 542.805 431.928 539.467 431.831C534.841 431.694 530.175 431.597 525.569 431.675C517.292 431.811 509.015 431.538 500.739 431.753C499.723 431.772 499.021 431.441 498.318 430.719C493.145 425.433 487.679 420.556 481.179 416.85C472.122 411.7 463.123 406.473 453.226 403.079C451.606 402.513 449.985 402.025 448.326 401.596C447.721 401.44 446.921 401.655 446.706 402.24C446.433 402.962 447.194 403.274 447.741 403.547C448.229 403.781 448.717 404.034 449.224 404.21C455.1 406.258 460.761 408.755 466.304 411.583C473.937 415.485 481.238 419.893 487.953 425.218C489.339 426.31 490.237 427.773 491.174 429.158C491.993 430.368 491.252 431.421 489.749 431.675C489.046 431.792 488.382 431.792 487.679 431.792C483.736 431.753 479.774 431.538 475.85 431.792C473.429 431.948 471.341 431.48 469.272 430.446C465.094 428.359 461.053 426.037 456.622 424.399C452.835 423.014 449.205 421.317 445.164 420.654C441.279 420.029 437.453 419.093 433.608 418.332C431.187 417.864 428.786 417.318 426.288 417.299C423.691 417.279 421.076 417.143 418.499 416.791C414.614 416.265 410.788 416.167 406.962 417.065C405.752 417.338 404.542 417.689 403.312 417.747C398.12 417.981 393.142 419.23 388.281 421.024C387.5 421.317 386.72 421.57 385.841 421.629C383.147 421.863 380.727 423.033 378.423 424.34C376.979 425.16 375.495 425.998 374.051 426.701C371.904 427.734 369.913 429.041 368.448 430.68C366.828 432.455 365.228 433.157 362.944 433.372C360.406 433.606 357.888 433.976 355.35 433.586C354.823 433.508 354.257 433.333 353.75 433.411C350.177 434.035 346.586 434.132 342.974 434.093C342.428 434.093 341.862 434.054 341.53 434.64H334.99C332.394 433.372 332.121 432.377 334.053 430.173C335.303 428.749 336.572 427.286 338.094 426.135C338.777 425.628 338.777 425.101 338.602 424.184C338.192 422.058 337.001 420.322 336.064 418.547C334.112 414.899 331.867 411.369 329.29 408.15C325.015 402.845 320.487 397.695 315.47 393.053C313.088 390.829 310.512 388.82 308.013 386.733C306.432 385.406 304.812 384.099 303.211 382.812C302.45 382.207 301.923 381.485 301.825 380.491C301.708 379.223 302.352 378.521 303.582 378.735C304.109 378.833 304.636 379.047 305.105 379.301C307.681 380.608 309.829 382.558 312.054 384.294C314.26 386.011 316.29 388.079 318.379 389.99C321.326 392.701 323.942 395.744 326.909 398.436C328.041 399.47 329.193 400.562 330.091 401.752C331.77 403.937 333.78 405.888 335.108 408.345C335.81 409.652 337.021 410.53 337.782 411.817C339.656 414.997 341.198 418.352 343.111 421.648C343.97 421.239 344.985 421.024 345.551 420.4C347.327 418.469 349.845 417.728 351.895 416.226C355.116 413.846 358.903 412.305 362.182 409.984C362.495 409.769 362.905 409.711 363.276 409.574C366.301 408.462 369.405 407.565 372.411 406.414C375.281 405.322 378.072 403.917 381.254 403.898C381.703 403.898 382.152 403.683 382.62 403.605C385.138 403.137 387.481 402.103 390.019 401.733C393.298 401.245 396.519 400.387 399.896 400.484C401.204 400.523 402.551 400.406 403.82 400.075C405.362 399.665 406.904 399.665 408.446 399.704C412.077 399.763 415.668 398.982 419.338 399.295C421.603 399.49 423.926 399.002 426.249 399.099C427.693 399.158 429.118 399.646 430.602 399.353C431.148 399.255 431.773 399.275 431.773 398.553C431.773 397.851 431.617 397.168 430.699 396.993C427.498 396.408 424.257 396.076 421.017 396.369C418.108 396.622 417.172 395.978 417.074 393.053C417.074 392.897 417.074 392.74 417.093 392.584C417.406 389.288 417.406 385.972 417.952 382.695C418.265 380.803 418.811 378.911 418.967 376.999C419.416 371.732 419.182 366.524 416.976 361.589C416.859 361.316 416.82 361.004 416.781 360.711C416.039 356.576 415.512 352.421 415.571 348.208C415.571 347.447 415.454 346.667 415.356 345.887C415.2 344.736 414.614 344.112 413.365 344.092C410.242 344.034 407.118 343.839 403.995 343.858C400.755 343.858 397.514 343.858 394.274 344.034C389.452 344.287 384.592 343.878 379.751 343.839C377.311 343.819 374.871 343.995 372.411 343.995C368.741 343.995 365.071 343.741 361.402 343.858C356.248 344.014 351.114 343.897 345.961 343.975C341.842 344.034 337.704 343.761 333.604 343.975C328.822 344.229 324.078 343.644 319.315 343.917C314.455 344.19 309.555 343.78 304.675 343.975C303.426 344.014 302.704 343.878 302.977 345.458C303.035 345.77 302.508 346.238 302.177 346.531C301.083 347.486 300.576 348.754 299.971 350.022C298.975 352.07 299.288 354.255 299.229 356.342C299.073 361.492 299.151 366.641 299.151 371.791C299.151 376.785 299.17 381.798 299.19 386.791C299.19 392.155 299.209 397.539 299.248 402.923C299.248 405.439 299.483 407.955 299.346 410.452C299.19 413.612 299.131 416.752 299.112 419.912C299.112 422.858 299.073 425.823 298.936 428.768C298.878 430.251 298.468 431.694 297.55 432.903C297.004 433.645 296.34 434.581 295.286 434.113C294.446 433.742 294.583 432.669 294.446 431.85C294.329 431.148 294.798 430.543 294.603 429.802C293.588 425.745 294.095 421.59 293.997 417.474C293.919 414.587 294.31 411.681 294.173 408.794C293.997 405.205 294.603 401.616 294.115 398.007C293.88 396.271 294.388 394.438 294.193 392.779C293.978 391.004 294.017 389.21 294.154 387.532C294.466 383.748 293.997 379.984 294.076 376.238C294.134 374.093 293.607 371.927 294.115 369.801C294.505 368.163 294.466 366.583 294.115 364.964C293.958 364.281 293.997 363.598 293.958 362.916C293.822 360.985 294.485 359.112 294.271 357.181C293.861 353.728 293.88 350.315 294.915 346.921C295.305 345.653 296.242 344.697 296.516 343.41C295.891 342.59 294.895 342.551 294.056 342.22C291.596 341.264 291.655 341.518 290.503 343.878C290.367 344.151 290.386 344.482 290.328 344.795C290.093 346.375 290.191 348.013 290.015 349.554C289.683 352.538 290.035 355.503 289.801 358.488C289.566 361.375 289.801 364.34 289.801 367.266C289.84 372.103 290.23 376.941 289.801 381.759C289.703 382.792 290.425 383.709 290.074 384.723C289.43 386.694 289.801 388.722 289.801 390.712C289.801 394.262 290.074 397.793 290.035 401.343C289.996 404.795 289.742 408.228 289.801 411.681C289.898 416.401 289.976 421.141 289.937 425.862C289.937 426.545 289.469 427.227 289.781 427.91C290.445 429.373 289.957 430.816 289.703 432.24C289.391 433.937 287.614 434.64 286.189 433.703C285.116 433.001 284.667 431.967 284.706 430.719C284.764 429.178 285.096 427.598 284.842 426.115C284.354 423.345 284.94 420.595 284.823 417.845C284.745 416.187 284.979 414.47 284.94 412.773C284.881 410.842 284.725 408.931 284.686 406.999C284.686 405.693 285.057 404.444 284.979 403.079C284.842 400.66 284.432 398.202 284.979 395.764C285.213 394.691 285.116 393.618 285.038 392.526C284.803 389.561 284.628 386.596 284.842 383.592C284.999 381.349 285.272 379.028 284.686 376.785C284.569 376.355 284.647 375.868 284.237 375.536C283.047 374.561 281.992 373.429 280.685 372.571C279.279 371.635 278.049 371.596 276.566 372.376C272.798 374.346 268.836 375.692 264.6 376.394C262.023 376.824 259.446 377.467 256.967 378.345C252.38 379.945 247.91 381.837 243.088 382.695C240.141 383.222 237.291 384.099 234.245 384.333C229.424 384.704 224.602 384.333 219.781 385.075C215.545 385.718 211.543 387.006 207.6 388.527C205.726 389.249 203.93 390.244 201.998 390.673C199.792 391.16 197.625 391.824 195.692 392.819C191.398 395.003 186.85 396.388 182.301 397.812C180.154 398.475 178.085 399.392 175.723 400.289C176.328 400.582 176.66 400.816 177.031 400.875C179.373 401.323 181.599 402.142 183.824 403.02C185.073 403.508 186.186 404.113 186.967 405.283C187.357 405.849 187.787 406.531 188.372 406.804C190.246 407.721 190.871 409.418 191.515 411.174C191.984 412.442 191.418 413.495 190.11 413.573C188.724 413.651 187.455 413.261 186.83 411.915C186.518 411.271 186.147 410.706 185.698 410.179C183.063 407.272 179.881 405.244 176.016 404.269C174.064 403.781 172.385 403.781 170.667 405.166C168.579 406.863 166.705 408.852 165.885 411.271C165.104 413.631 164.05 415.933 163.367 418.352C162.43 421.629 161.668 424.906 161.102 428.242C160.829 429.841 160.165 430.992 159.131 432.045C158.116 433.079 156.222 433.294 155.149 432.279C154.348 431.519 153.645 431.636 152.845 431.889C149.702 432.904 146.423 432.904 143.202 432.747C139.727 432.591 136.233 432.669 132.759 432.572C127.371 432.435 121.964 432.65 116.557 432.669C109.432 432.708 102.287 432.669 95.1622 432.747C90.9848 432.806 86.827 432.552 82.6496 432.669C75.8565 432.864 69.0438 432.708 62.2507 432.708C57.9172 432.708 53.5641 432.884 49.2306 432.767C42.8669 432.591 36.5228 432.65 30.1591 432.728C25.6694 432.786 21.1602 432.552 16.6705 432.669C16.1044 432.669 15.5968 432.63 15.2064 432.123C13.6838 430.095 11.7708 428.339 10.9315 425.881C10.3654 424.165 9.31125 422.741 8.54996 421.161C7.51537 419.054 6.12942 417.045 5.97326 414.587C5.95374 414.197 5.69997 413.885 5.62189 413.592C5.13388 411.876 3.80649 410.432 4.09929 408.423C4.23594 407.507 3.74793 406.453 3.12327 405.615C2.84999 405.244 2.45958 404.932 2.45958 404.425C2.45958 402.162 1.36643 400.036 1.42499 397.793C1.5226 393.95 -0.0390409 390.283 0.331848 386.44C0.370889 385.933 0.0195204 385.621 0.0390409 385.153V381.895C0.156164 381.271 0.936982 380.647 0.0390409 380.023L0 380.081ZM325.484 94.122C326.362 93.3222 326.011 92.3664 325.933 91.4887C325.874 90.6499 326.05 89.5575 326.577 88.6408C326.694 88.4457 326.85 88.3287 326.694 88.1531C325.621 86.8852 326.421 85.6954 326.811 84.447C327.475 82.3403 328.373 81.443 330.364 81.6966C332.433 81.9502 333.702 81.0919 334.912 79.629C336.942 77.1712 339.597 76.0203 342.799 76.3324C343.54 76.4105 344.302 75.9423 345.043 76.547C346.8 77.9709 348.967 78.7707 350.197 80.9554C351.056 82.4964 352.539 83.6862 353.73 85.0321C354.218 84.7591 354.159 84.4275 354.14 84.1349C353.906 80.8188 353.691 77.5028 353.379 74.1868C353.223 72.6458 353.066 71.0658 352.559 69.6223C350.509 63.829 347.952 58.2503 344.399 53.1982C343.443 51.8328 342.174 50.6819 341.061 49.4141C340.515 48.7899 340.437 47.8146 339.578 47.3854C336.884 46.0395 334.795 43.8938 332.433 42.1188C330.911 40.9679 329.329 39.8366 327.651 38.9393C325.718 37.9055 323.649 37.1447 321.658 36.2474C319.198 35.1551 316.7 34.1798 314.064 33.5946C310.453 32.7754 306.861 33.263 303.25 33.3801C301.161 33.4386 299.092 33.9652 297.179 34.5309C294.037 35.4672 290.816 36.384 287.907 38.042C287.575 38.2371 287.282 38.5297 287.419 38.9393C289.234 40.1292 291.226 40.9289 292.982 42.1968C294.525 43.2891 295.949 44.6156 297.765 45.3763C298.819 45.8054 299.483 46.8978 300.205 47.8341C300.752 48.5168 300.713 49.3555 300.342 50.0382C299.951 50.76 299.19 50.9355 298.331 50.7405C297.277 50.5064 296.359 50.1163 295.442 49.4531C292.729 47.4634 289.918 45.6494 287.185 43.6988C285.272 42.3333 282.968 41.8067 280.919 40.6753C278.42 39.2904 275.746 38.159 273.052 37.3008C271.002 36.6376 269.031 35.7598 267.079 34.9796C264.873 34.1018 262.531 33.5751 260.422 32.4633C260.09 32.2877 259.661 32.3072 259.134 32.5608C261.847 35.6428 265.205 38.0615 267.352 41.5726C268.719 41.8652 268.289 43.3477 269.07 44.1474C270.222 45.3373 271.178 46.7807 272.056 48.2437C272.818 49.5116 273.286 51.0135 274.262 52.0474C276.819 54.7587 278.381 58.1918 280.938 60.8836C282.363 62.3856 283.476 64.1997 285.018 65.5456C286.97 67.2426 288.532 69.3102 290.738 70.8317C293.412 72.6848 295.774 75.1035 298.819 76.3129C300.4 76.9566 301.903 77.8149 303.738 78.088C305.436 78.3416 307.291 78.283 308.95 79.0243C312.015 80.4092 314.377 82.6914 316.641 85.0907C317.051 85.5198 317.363 86.1245 317.559 86.6902C318.066 88.0946 317.442 88.7578 315.958 88.4652C313.83 88.0361 312.132 86.9047 310.746 85.2467C309.497 83.7447 308.15 82.3208 306.003 82.2233C304.441 82.1452 302.957 81.6966 301.493 81.287C298.409 80.4092 295.344 79.5119 292.572 77.6979C291.226 76.8201 290.035 75.7668 288.746 74.8695C284.862 72.1581 281.602 68.8616 278.498 65.331C277.405 64.0826 276.741 62.4246 275.121 61.4298C274.672 62.132 274.321 62.7172 274.126 63.4974C273.833 64.5898 273.677 65.8772 272.798 66.6574C271.198 68.0814 269.909 69.8174 268.074 70.9878C265.341 72.7238 262.589 74.4794 259.934 76.3519C256.967 78.4196 256.186 80.1361 257.455 83.5497C258.49 86.3781 258.665 88.7383 256.909 91.2936C256.108 92.464 256.128 94.083 255.581 95.4679C253.727 100.227 252.341 105.104 252.243 110.332C252.185 113.121 252.36 115.891 252.458 118.661C252.653 123.537 253.902 127.828 257.67 131.515C260.481 134.285 263.799 136.002 266.981 138.089C269.558 139.766 272.544 140.507 275.277 141.834C278.869 143.57 281.778 146.008 284.198 149.246C287.048 153.069 288.102 157.595 289.937 161.808C291.108 164.519 291.596 167.426 292.28 170.274C292.67 171.932 293.139 173.551 293.666 175.17C293.978 176.106 294.368 177.218 292.904 177.92C285.135 181.685 279.943 188.141 275.219 195.046C273.774 197.173 272.525 199.435 270.963 201.444C268.055 205.131 264.951 208.662 262.238 212.485C260.364 215.118 258.197 217.498 256.303 220.092C254.039 223.174 251.365 225.866 248.651 228.538C246.856 230.313 245.255 232.323 243.01 233.61C242.834 233.707 242.678 233.961 242.6 234.156C241.858 235.931 240.199 236.965 238.969 238.272C236.998 240.398 234.772 242.271 232.723 244.358C231.493 245.606 230.224 246.855 228.838 247.966C226.75 249.644 224.934 251.692 223.08 253.662C222.26 254.54 221.791 255.847 220.854 256.51C219.488 257.485 219.488 258.753 219.761 259.982C220.113 261.64 220.659 263.279 221.342 264.82C223.06 268.682 224.895 272.505 226.73 276.309C229.248 281.478 231.239 286.901 234.733 291.582C236.939 294.547 238.618 297.882 240.492 301.062C243.4 305.958 246.543 310.659 250.037 315.165C252.536 318.383 254.996 321.621 257.709 324.684C258.646 325.737 260.208 326.049 260.676 325.152C262.433 321.797 265.107 319.105 267.196 316.004C269.011 313.292 270.924 310.639 272.72 307.909C275.609 303.539 278.303 299.072 280.938 294.566C281.465 293.689 282.5 293.298 282.773 292.226C283.3 290.275 284.452 288.617 285.584 286.979C287.38 284.345 288.473 281.575 287.81 278.279C287.068 274.67 286.384 271.042 285.76 267.394C285.35 264.937 285.018 262.44 286.053 260.08C286.658 258.714 287.497 258.578 288.59 259.592C289.683 260.606 289.898 261.991 290.132 263.376C290.542 265.736 291.03 268.058 291.479 270.398C291.967 272.973 292.69 275.548 292.846 278.142C293.002 280.6 293.49 282.98 293.958 285.36C294.446 287.837 295.032 290.353 295.247 292.83C295.657 297.59 297.043 302.213 296.945 307.031C296.867 310.269 298.253 313.351 298.077 316.608C298.038 317.486 298.526 317.935 299.385 317.779C301.61 317.408 303.855 317.642 306.1 317.564C310.082 317.428 314.123 317.291 318.086 317.389C326.206 317.584 334.307 317.388 342.408 317.545C345.746 317.603 349.065 317.408 352.383 317.467C356.326 317.545 360.289 317.467 364.252 317.545C368.566 317.642 372.899 317.291 377.213 317.31C379.126 317.31 381.039 317.31 382.952 317.31C385.626 317.31 388.32 317.447 390.995 317.447C396.207 317.467 401.438 317.447 406.65 317.447C409.11 317.447 411.55 317.467 414.009 317.467C414.692 317.467 415.063 317.389 415.005 316.413C414.634 311.108 414.341 305.802 414.107 300.496C414.048 299.326 413.541 298.312 413.502 297.122C413.345 293.513 413.619 289.865 412.506 286.315C412.194 285.301 411.784 284.209 411.745 283.214C411.53 278.727 410.398 274.378 409.851 269.93C409.48 266.926 408.758 263.942 408.192 260.957C407.841 261.27 407.802 261.543 407.782 261.835C407.646 264.781 407.88 267.707 408.173 270.632C408.583 274.67 407.899 278.649 407.353 282.629C407.197 283.838 407.118 285.047 406.943 286.237C406.689 287.954 405.967 289.631 405.088 291.192C403.566 293.864 401.809 296.38 400.579 299.209C400.091 300.321 399.057 300.925 398.178 301.647C397.339 302.33 396.324 301.881 395.562 301.413C394.821 300.964 395.328 300.165 395.562 299.54C395.894 298.76 396.265 297.98 396.636 297.219C399.193 292.109 401.75 286.979 402.414 281.185C402.746 278.337 403.351 275.489 403.097 272.642C402.883 270.34 402.883 268.058 402.707 265.756C402.395 261.543 402.297 257.31 402.082 253.096C401.906 249.488 401.594 245.899 401.36 242.29C400.911 235.521 400.56 228.772 399.017 222.121C398.744 220.989 398.178 219.956 398.022 218.824C397.436 214.767 396.109 210.905 395.152 206.965C394.977 206.223 394.899 205.424 394.567 204.76C393.435 202.576 392.654 200.235 391.795 197.953C391.131 196.197 390.37 194.578 389.374 193.037C389.16 192.706 388.847 192.413 388.789 192.062C388.398 190.111 387.09 188.57 386.036 187.088C383.831 183.986 381.703 180.768 378.697 178.252C375.222 175.365 371.708 172.751 367.082 172.166C366.535 172.107 366.028 171.912 365.52 171.795C362.456 171.112 359.469 170.137 356.365 169.532C353.574 168.986 352.266 170.098 350.958 171.99C349.943 173.453 348.967 174.819 346.898 175.053C345.239 175.248 344.965 176.165 345.746 177.725C348.05 182.348 350.529 186.873 352.578 191.633C354.589 196.295 356.619 200.957 358.61 205.619C360.094 209.091 361.538 212.563 363.022 216.035C364.33 219.078 365.501 222.218 367.062 225.086C368.487 227.719 369.678 230.469 370.81 233.181C372.06 236.185 373.329 239.247 374.07 242.466C374.227 243.148 374.344 243.851 374.636 244.455C376.842 249.117 377.877 254.091 378.794 259.124C379.692 264.078 380.512 269.013 380.746 274.046C380.844 276.055 380.61 278.045 380.629 280.034C380.649 281.653 380.414 283.214 379.829 284.716C379.38 285.886 378.56 286.14 377.408 285.711C376.569 285.418 376.276 284.774 376.061 283.975C375.398 281.536 375.71 279.04 375.632 276.582C375.573 274.495 375.808 272.368 375.495 270.32C374.715 265.385 374.227 260.392 373.016 255.515C372.255 252.453 371.416 249.39 370.244 246.464C369.542 244.67 368.917 242.895 368.331 241.061C367.336 237.999 366.379 234.897 365.032 231.991C363.939 229.611 362.924 227.192 361.772 224.832C360.426 222.082 359.293 219.234 358.044 216.445C356.99 214.084 355.955 211.724 354.901 209.364C353.144 205.385 351.739 201.249 349.748 197.368C347.562 193.057 345.941 188.492 343.618 184.24C341.998 181.275 340.554 178.213 338.973 175.228C337.274 172.029 335.927 168.557 334.62 165.144C332.999 160.911 334.249 157.244 337.099 154.298C339.187 152.133 340.456 149.558 342.135 147.178C344.282 144.116 345.473 140.546 347.542 137.445C350.314 133.251 352.286 128.706 353.554 123.849C353.886 122.581 353.906 121.255 354.452 120.026C354.628 119.655 354.296 119.304 353.945 118.953C352.91 120.007 351.719 120.845 350.88 122.191C350.197 123.264 349.592 124.434 348.752 125.41C347.405 126.951 346.078 128.511 344.985 130.267C343.599 132.51 342.193 133.173 339.753 132.705C337.645 132.295 337.587 132.237 337.743 129.935C337.743 129.779 337.743 129.623 337.743 129.467C337.645 126.541 337.606 123.635 337.411 120.728C337.333 119.616 337.821 118.622 337.762 117.529C337.567 113.57 335.947 109.805 336.318 105.787C336.376 105.084 335.439 104.733 335.713 103.875C336.123 102.646 335.849 101.437 335.459 100.227C334.834 98.3353 334.756 96.3262 334.366 94.3755C334.073 92.8931 333.468 91.4691 333.507 89.9087C333.565 88.4457 332.804 87.3729 332.004 86.2805C331.262 86.7292 331.282 87.4314 331.067 87.9971C330.501 89.4405 331.321 91.079 330.462 92.503C330.364 92.6785 330.462 92.9711 330.481 93.1857C331.145 97.516 330.852 101.846 330.188 106.138C329.896 108.01 329.661 110.175 327.456 111.229C325.894 111.97 325.894 111.99 325.074 110.488C323.454 107.523 322.927 104.265 322.302 101.027C322.009 99.4666 321.424 97.9842 320.994 96.4432C320.858 95.9555 320.662 95.5264 320.077 95.6239C319.569 95.702 319.237 96.1506 319.198 96.5797C319.14 97.3405 318.906 98.0622 318.984 98.8619C319.276 101.924 319.433 104.987 319.706 108.03C319.96 111.073 320.389 114.116 320.565 117.159C320.682 119.148 319.315 119.889 317.559 118.992C316.7 118.544 315.978 117.88 315.724 116.964C315.138 114.798 313.518 113.121 312.952 110.917C312.757 110.156 312.191 109.493 311.566 108.4C311.234 109.902 310.902 110.936 311.019 112.087C311.293 114.545 311.585 116.983 312.054 119.421C312.444 121.469 312.932 123.518 312.6 125.644C312.483 126.444 312.347 127.282 311.488 127.536C310.59 127.789 309.868 127.243 309.262 126.6C308.443 125.722 308.15 124.571 307.72 123.498C307.291 122.464 306.959 121.352 305.651 120.65C305.475 122.133 304.987 123.479 305.241 124.668C305.866 127.575 306.003 130.559 306.608 133.466C307.213 136.392 307.642 139.376 308.325 142.282C308.892 144.662 309.555 147.022 310.278 149.363C311.117 152.172 311.956 154.942 313.225 157.595C314.025 159.272 314.962 160.891 315.275 162.764C315.353 163.252 315.607 163.817 314.982 164.227C314.182 164.753 311.663 164.363 311.215 163.486C309.848 160.891 308.052 158.57 307.154 155.703C306.686 154.162 306.393 152.543 305.71 151.06C304.499 148.368 304.031 145.481 303.367 142.653C302.665 139.649 302.352 136.548 301.591 133.602C300.42 129.057 300.185 124.532 300.595 119.948C300.771 118.153 301.025 116.281 303.172 115.384C303.797 115.13 304.285 114.33 305.105 114.291C305.964 114.252 306.042 113.706 306.061 113.023C306.139 111.053 306.159 109.122 306.861 107.172C307.369 105.767 308.052 105.104 309.302 104.792C310.785 104.421 312.327 104.421 314.006 104.382C313.967 103.641 313.869 103.036 313.889 102.451C313.947 99.8372 313.694 97.2039 314.631 94.6877C315.821 91.5082 319.979 90.1427 322.868 91.8593C323.864 92.4445 324.488 93.4588 325.503 94.0244L325.484 94.122ZM143.592 345.029C144.354 345.36 145.505 344.892 145.935 345.75C146.54 347.018 147.672 348.15 147.36 349.769C147.204 350.588 147.243 351.427 147.282 352.285C147.399 354.45 147.379 356.615 147.301 358.761C147.243 360.926 147.497 363.072 147.243 365.256C147.087 366.524 147.75 366.797 149.019 366.407C152.045 365.432 154.348 363.306 156.554 361.258C158.096 359.814 159.638 358.351 161.2 356.908C162.469 355.718 163.425 354.392 164.284 352.909C165.631 350.529 167.036 348.15 168.559 345.848C169.203 344.873 169.847 343.878 170.16 342.785C170.589 341.225 171.214 339.742 171.741 338.24C173.947 332.057 173.869 325.679 173.166 319.261C172.815 316.101 172.053 313.039 171.35 309.937C170.882 307.928 170.218 305.919 169.555 304.027C168.91 302.193 168.11 300.243 166.783 298.565C165.865 297.395 164.85 296.146 164.245 294.742C162.976 291.758 160.224 289.924 158.623 287.213C158.447 286.901 158.038 286.705 157.686 286.549C157.003 286.257 156.476 285.808 156.066 285.242C155.188 284.033 153.919 283.253 152.845 282.278C152.103 281.595 151.283 280.776 150.112 280.776C149.819 281.283 149.917 281.712 149.976 282.18C150.405 285.379 149.917 286.198 146.852 287.271C145.974 287.564 145.486 288.09 145.701 288.988C145.974 290.158 145.642 291.289 145.584 292.421C145.486 294.098 144.686 294.976 143.085 294.918C140.313 294.82 137.541 294.859 134.769 294.683C132.759 294.566 131.939 293.806 131.47 291.953C130.904 289.709 128.074 286.862 125.595 287.388C123.389 287.856 121.163 287.622 118.938 287.388C116.537 287.154 114.156 288.032 111.774 287.603C108.846 287.076 105.918 287.72 103.009 287.369C102.111 287.252 101.448 287.622 100.726 288.168C100.003 288.715 99.6909 289.495 99.1444 290.08C98.2464 291.016 97.4656 291.894 97.1533 293.259C96.9776 294.04 96.1772 294.566 95.1817 294.937C92.6831 295.873 89.9893 294.878 87.6078 296.029C87.5492 296.049 87.4711 295.971 87.3931 295.971C85.2653 295.873 83.8598 294.566 82.552 293.103C82.3568 292.889 82.1421 292.577 82.1421 292.304C82.1421 291.153 81.5369 290.041 81.8492 288.871C82.142 287.778 81.6345 286.959 80.7561 286.569C79.1749 285.867 78.3551 284.618 77.9842 283.097C74.2558 284.755 71.9133 287.895 69.0048 290.314C67.6579 291.426 67.1308 293.123 65.8815 294.274C63.1682 296.751 61.8213 300.106 60.3572 303.286C57.8781 308.708 56.4922 314.443 56.4336 320.47C56.3751 326.927 56.9802 333.227 59.674 339.196C60.9624 342.064 62.3093 344.892 63.8904 347.642C66.1158 351.524 69.1805 354.626 72.2061 357.747C74.1972 359.795 76.6568 361.492 78.9212 363.325C79.9753 364.184 81.0684 364.925 82.5129 365.178C82.8057 360.341 82.5715 355.679 82.064 351.036C81.9273 349.691 81.8883 348.169 83.1376 347.194C84.7773 345.945 85.1287 344.404 84.5626 342.512C84.4064 342.005 84.5431 341.439 84.504 340.893C84.2893 337.616 84.9335 334.378 84.6797 331.082C84.2503 325.523 84.7578 319.963 84.5821 314.404C84.4845 311.342 85.0506 308.299 84.5431 305.236C84.3283 303.949 84.7578 302.603 85.2068 301.374C85.929 299.345 87.2369 299.15 88.6424 300.711C89.5403 301.706 89.9112 302.915 89.6769 304.163C89.2865 306.251 89.6379 308.318 89.6769 310.366C89.716 311.439 89.3061 312.434 89.4817 313.526C89.7745 315.204 89.6965 316.92 89.6769 318.637C89.6184 322.402 89.8721 326.205 89.6184 329.95C89.4427 332.584 89.9112 335.178 89.6184 337.811C89.3646 340.074 89.5598 342.395 89.9307 344.814C91.1605 344.541 92.3903 345.438 93.3468 344.424C94.1666 343.546 95.1231 342.785 95.8454 341.771C97.1923 339.899 98.9882 338.728 101.448 338.65C105.137 338.553 108.846 338.767 112.535 338.845C117.708 338.943 122.901 338.845 128.074 338.904C129.948 338.923 131.529 339.118 132.895 340.562C133.676 341.4 134.574 342.161 135.335 343.059C135.901 343.741 136.624 344.19 137.502 344.268C137.892 344.307 138.459 344.346 138.361 343.585C138.029 341.01 139.064 338.416 138.263 335.841C138.185 335.568 138.263 335.217 138.263 334.905C138.556 329.229 138.908 323.533 138.263 317.857C138.224 317.564 138.361 317.252 138.4 316.94C138.849 313.468 138.654 310.015 138.322 306.524C138.166 304.788 138.478 302.993 138.673 301.218C138.771 300.438 139.376 299.833 139.903 299.267C140.762 298.331 141.562 298.351 142.519 299.228C143.651 300.282 143.944 301.745 143.631 303.091C142.987 306.016 143.631 308.923 143.573 311.829C143.495 315.184 143.378 318.598 143.69 321.992C143.924 324.508 142.948 327.025 143.69 329.56C143.963 330.497 143.222 331.296 143.339 332.272C143.846 336.504 143.3 340.757 143.671 345.009L143.592 345.029ZM116.713 230.606C116.947 231.503 116.986 232.186 117.591 232.674C118.86 233.727 123.037 234 124.462 233.103C125.107 232.693 125.36 232.244 125.282 231.386C125.185 230.274 125.224 229.104 125.282 227.973C125.36 226.042 124.58 224.227 123.896 222.433C123.76 222.101 123.486 221.75 123.076 221.653C121.769 221.341 120.636 220.521 119.211 220.365C118.118 220.248 116.908 219.839 116.244 218.824C114.741 216.542 115.698 213.421 118.06 211.997C121.3 210.027 124.658 210.417 128.171 210.944C132.271 211.568 136.663 216.776 137.073 220.112C137.365 222.53 137.912 224.91 137.756 227.426C137.483 231.386 138.127 231.757 141.972 230.489C144.393 229.689 146.891 229.104 149.234 228.09C150.151 227.7 151.166 227.505 152.162 228.09C153.138 228.655 153.782 229.923 153.118 230.547C152.025 231.562 152.533 232.459 152.923 233.434C153.353 234.507 153.626 235.619 154.094 236.692C156.222 241.49 159.365 245.723 161.805 250.346C163.171 252.921 164.694 255.457 166.256 257.914C166.997 259.104 167.329 260.528 168.227 261.582C171.116 264.937 172.873 269.013 175.352 272.642C177.46 275.724 179.373 279.02 181.638 281.965C185.815 287.427 189.095 293.552 193.643 298.741C194.697 299.95 195.693 301.257 196.688 302.525C199.245 305.821 202.076 308.884 205.414 311.439C207.678 313.156 209.708 315.184 211.777 317.115C215.291 320.392 218.961 323.104 223.782 324.294C228.487 325.464 232.547 324.177 236.666 322.304C238.189 321.602 239.418 320.49 241.253 320.217C242.795 319.983 243.849 318.383 244.65 316.901C244.865 316.491 244.65 316.218 244.474 315.848C243.81 314.502 243.03 313.292 241.995 312.161C240.59 310.6 239.711 308.552 238.462 306.816C236.08 303.481 234.265 299.814 232.079 296.341C231.22 294.976 230.244 293.708 229.346 292.382C227.569 289.787 226.613 286.764 225.012 284.072C223.294 281.205 222.045 278.045 220.718 274.963C220.23 273.831 219.82 273.617 218.649 274.085C217.419 274.573 215.974 274.553 214.901 273.675C212.91 272.076 210.743 270.554 209.162 268.565C206.37 265.034 202.896 262.186 199.733 259.085C196.356 255.749 193.155 252.297 190.149 248.649C186.635 244.397 183.121 240.144 179.569 235.931C174.454 229.884 169.262 223.896 164.128 217.869C161.005 214.182 157.706 210.651 153.841 207.745C147.438 202.927 140.489 198.948 133.539 194.988C132.349 194.305 131.08 193.739 129.752 193.252C127.683 192.511 125.653 192.784 123.603 192.862C119.895 193.018 116.147 193.642 112.828 195.124C108.924 196.86 105.567 199.728 102.111 202.303C101.038 203.102 100.726 204.039 100.999 205.307C101.331 206.887 101.584 208.506 101.858 210.105C102.463 213.694 103.322 217.205 104.61 220.619C105 221.653 105.528 222.569 106.816 222.765C106.972 222.199 106.816 221.711 106.679 221.165C105.879 217.947 104.883 214.767 104.454 211.49C104.024 208.272 104.591 205.365 107.519 203.376C108.729 202.556 109.861 201.561 111.149 200.879C112.418 200.196 113.843 199.981 115.327 200.411C114.507 203.063 113.141 205.112 110.954 206.633C109.529 207.628 109.178 209.091 109.393 210.729C110.115 216.113 111.286 221.341 114.487 225.886C115.21 226.919 116.342 227.173 117.22 226.237C118.099 225.32 119.25 225.144 120.363 224.852C121.222 224.637 122.12 224.637 122.686 225.437C123.33 226.354 122.959 227.192 122.315 227.973C120.91 229.709 119.016 230.43 116.713 230.586V230.606ZM142.324 361.999C142.324 360.614 142.324 359.21 142.324 357.825C142.304 355.347 142.304 352.851 142.226 350.373C142.206 349.535 142.011 348.384 141.016 348.384C139.376 348.384 137.775 347.642 136.175 348.091C134.906 348.442 133.969 347.974 133.208 347.252C131.841 345.984 130.26 344.912 129.069 343.527C128.152 342.473 127.273 342.317 126.083 342.337C121.124 342.337 116.166 342.317 111.208 342.259C108.124 342.239 105.04 342.239 101.975 342.493C101.662 342.512 101.253 342.512 101.135 342.785C100.316 344.58 98.1879 345.302 97.5242 347.194C97.2118 348.091 96.5872 348.306 95.7283 348.306C94.0105 348.286 92.3122 348.306 90.5944 348.306C89.6574 348.306 88.74 348.384 87.9006 348.852C87.4321 349.105 87.1393 349.398 87.2369 349.925C87.6859 352.421 87.354 354.957 87.6273 357.454C87.8225 359.171 87.4321 360.829 87.4126 362.526C87.3735 365.53 87.5492 368.533 87.5102 371.537C87.4516 376.024 87.6468 380.491 87.6078 384.977C87.5687 389.541 87.354 394.106 87.5297 398.67C87.5687 399.685 87.8225 401.187 86.8074 401.908C85.3239 402.942 85.2848 404.288 85.3239 405.79C85.3824 407.565 85.441 407.565 87.1393 407.663C89.6769 407.799 92.2146 407.702 94.7523 407.682C100.784 407.682 106.796 407.682 112.828 407.643C116.713 407.604 120.597 407.858 124.501 407.643C126.727 407.526 129.05 407.604 131.295 407.838C133.266 408.053 135.199 407.429 137.053 407.624C139.278 407.877 141.426 407.331 143.612 407.585C144.315 407.663 144.666 407.194 144.607 406.609C144.49 404.971 145.291 402.942 142.792 402.201C142.226 402.045 141.855 401.46 142.011 400.699C142.519 398.28 142.48 395.822 142.324 393.404C142.206 391.395 142.324 389.424 142.304 387.435C142.304 385.582 142.167 383.729 142.304 381.856C142.48 379.398 142.48 376.902 142.441 374.444C142.363 370.289 142.343 366.115 142.324 361.96V361.999ZM403.663 219.897C403.761 222.862 404.952 225.534 405.264 228.382C405.654 231.952 406.299 235.482 406.279 239.072C406.279 239.657 406.494 240.047 406.845 240.496C407.899 241.919 408.856 243.46 409.09 245.275C409.461 248.2 410.456 250.931 411.354 253.701C412.116 256.042 412.74 258.422 413.248 260.821C413.912 263.981 414.4 267.18 414.946 270.359C415.532 273.695 416.137 277.05 416.684 280.385C416.898 281.653 416.527 283.272 417.191 284.131C418.069 285.243 419.807 284.423 421.154 284.423C425.175 284.462 429.196 284.716 433.159 284.306C433.432 283.448 432.827 282.687 433.061 281.946C433.783 279.527 432.671 277.089 433.237 274.69C433.666 272.837 432.924 271.062 432.983 269.228C433.159 264.449 433.178 259.651 433.393 254.852C433.452 253.506 432.924 252.277 432.983 250.931C433.12 248.2 433.198 245.45 433.198 242.7C433.198 237.628 432.983 232.576 433.061 227.505C433.1 225.144 433.256 222.784 433.432 220.424C433.491 219.624 433.256 219.195 432.436 219.312C429.762 219.702 427.088 219.253 424.433 219.39C421.173 219.566 417.913 219.488 414.653 219.527C411.062 219.585 407.47 219 403.683 219.858L403.663 219.897ZM140.45 291.25C140.45 289.943 140.508 288.871 140.45 287.798C140.293 285.477 140.918 284.54 143.143 283.916C145.154 283.37 144.92 283.35 144.959 281.127C144.998 279.449 144.198 278.357 143.202 277.382C142.031 276.25 141.074 274.904 139.844 273.89C138.478 272.739 137.971 271.491 137.892 269.735C137.853 268.916 138.049 267.921 137.404 266.848C137.229 267.999 137.151 268.896 136.916 269.774C136.546 271.237 135.823 272.486 134.262 272.993C131.451 273.909 127.117 272.661 126.141 269.56C125.809 268.506 125.614 267.492 125.497 266.419C125.419 265.736 125.185 265.424 124.384 265.268C122.315 264.839 120.187 264.82 118.177 265.073C113.023 265.736 107.89 264.956 102.756 265.171C99.73 265.288 96.5872 265.229 93.5225 264.917C91.8828 264.761 91.4923 265.229 91.7266 266.946C91.8828 268.038 91.9608 269.13 91.8047 270.184C91.668 271.062 91.5899 272.056 90.6334 272.544C88.3886 273.714 86.5732 275.489 84.4845 276.894C83.4304 277.596 82.7667 282.122 83.5085 283.058C83.7037 283.292 83.9575 283.487 84.2307 283.643C86.1828 284.755 86.905 286.471 86.8465 288.637C86.7684 291.894 86.8074 291.914 90.1259 291.64C90.2821 291.64 90.4382 291.562 90.5749 291.582C92.2732 291.972 93.1516 290.938 93.8543 289.67C94.2643 288.929 94.6742 288.188 95.0841 287.486C96.3725 285.243 98.0903 283.448 101.135 283.975C102.19 284.15 103.302 284.092 104.376 284.092C111.93 284.033 119.485 283.897 127.039 283.955C128.347 283.955 129.811 283.409 131.08 284.365C133.032 285.847 135.101 287.154 135.784 289.787C136.233 291.523 136.35 291.543 137.971 291.27C138.751 291.133 139.513 291.192 140.45 291.231V291.25ZM438.058 269.579C438.097 272.486 438.058 277.147 438.039 281.809C437.961 292.518 438.039 303.227 438.039 313.936C438.039 314.872 438.078 315.789 438.351 316.706C438.468 317.096 438.566 317.428 439.015 317.564C441.299 318.247 442.353 317.486 442.392 315.106C442.392 314.716 442.392 314.326 442.392 313.936C442.392 298.624 442.392 283.331 442.392 268.019C442.392 252.492 442.392 236.945 442.353 221.399C442.353 218.668 443.329 216.347 445.008 214.377C446.394 212.738 448.365 211.49 450.337 210.983C453.909 210.086 457.598 209.52 461.327 209.5C463.025 209.5 464.723 209.325 466.422 209.208C466.792 209.188 467.437 209.071 467.495 208.876C467.71 207.92 468.257 206.926 467.749 205.97C467.3 205.131 466.617 204.409 465.524 204.585C464.45 204.76 463.376 204.916 462.303 205.034C457.755 205.502 453.148 205.911 448.736 207.218C444.656 208.428 441.26 210.71 439.679 214.943C438.703 217.576 438.058 220.287 438.078 223.116C438.097 226.295 438.019 229.494 438.019 232.674C438.019 244.397 438.019 256.12 438.019 269.579H438.058ZM342.545 124.942C343.521 124.512 343.989 123.986 344.38 123.42C345.395 121.957 346.449 120.514 347.347 118.992C348.538 116.983 350.197 115.598 352.383 114.818C352.734 114.701 353.027 114.662 353.34 114.33C355.702 111.736 357.595 108.849 359.098 105.709C359.664 104.519 360.269 103.27 359.625 101.944C357.556 97.7501 355.604 93.4978 352.149 90.1622C349.162 87.2753 346.937 83.6862 343.853 80.8773C342.525 79.668 341.705 79.4924 340.261 80.7408C339.383 81.5015 338.602 82.3598 337.782 83.1791C336.611 84.3494 336.533 84.9346 337.274 86.4171C337.606 87.0803 338.231 87.5874 338.231 88.4652C338.211 91.079 339.675 93.5173 339.246 96.2091C339.207 96.4822 339.402 96.7943 339.461 97.0869C339.929 99.9738 341.022 102.744 341.1 105.689C341.139 107.562 341.51 109.356 341.92 111.17C342.467 113.55 342.857 116.008 342.681 118.427C342.525 120.514 342.603 122.581 342.545 124.922V124.942ZM245.489 29.4398C243.654 29.4203 241.995 30.025 240.355 30.7272C239.77 30.9808 239.36 31.3709 239.125 32.0146C238.149 34.765 238.247 37.4373 239.594 40.0511C240.804 42.3919 242.912 44.0694 244.318 46.2736C244.669 46.8392 245.274 47.3074 245.86 47.639C246.563 48.0291 247.168 48.5363 247.597 49.1605C248.437 50.3503 249.608 51.0916 250.799 51.7938C252.712 52.9251 254.586 54.115 256.557 55.1683C258.88 56.4167 261.125 57.7431 263.682 58.3673C265.888 58.894 267.977 59.9083 270.319 59.9863C271.1 60.0058 271.666 59.8303 272.096 59.1671C272.564 58.4063 272.525 57.7236 271.9 57.0604C271.588 56.7288 271.276 56.3582 271.061 55.9681C269.128 52.2229 266.493 48.9069 264.268 45.3373C262.394 42.3333 259.954 39.7976 257.416 37.3008C254.547 34.4724 251.287 32.2487 247.91 30.142C247.187 29.6934 246.387 29.3618 245.489 29.4788V29.4398ZM489.885 197.368V197.309C486.938 197.309 483.97 197.387 481.023 197.29C478.056 197.173 475.167 197.563 472.278 198.148C470.853 198.44 469.623 199.026 468.842 200.294C468.51 200.84 468.315 201.444 468.901 201.991C469.506 202.556 470.072 202.264 470.521 201.796C471.185 201.113 471.907 200.508 472.902 200.469C475.225 200.391 477.509 199.845 479.813 199.806C486.332 199.689 492.872 199.767 499.411 199.767C501.676 199.767 503.901 199.942 506.107 200.508C509.288 201.327 511.416 204.468 510.831 207.686C510.518 209.383 509.659 210.534 507.785 211.08C505.794 211.646 504.116 211.236 502.476 210.242C500.504 209.032 498.572 208.954 496.561 210.261C494.512 211.607 492.208 211.861 489.846 211.334C488.87 211.119 487.855 210.944 486.918 210.612C483.931 209.539 481.179 209.812 478.505 211.627C476.494 212.992 474.269 213.011 472.102 211.861C471.887 211.763 471.712 211.607 471.497 211.51C470.95 211.236 470.423 211.217 470.033 211.744C469.662 212.251 469.838 212.777 470.189 213.246C470.736 213.948 471.477 214.338 472.317 214.591C474.913 215.352 477.451 215.235 479.695 213.694C481.843 212.212 483.951 212.153 486.313 212.953C490.354 214.338 494.375 214.65 498.181 212.153C498.884 211.705 499.645 211.588 500.387 211.958C502.339 212.933 504.33 213.655 506.478 214.143C508.898 214.689 510.85 214.162 512.197 211.978C513.837 209.305 513.7 206.496 512.783 203.668C511.807 200.664 509.952 198.577 506.595 198.05C504.838 197.777 503.101 197.329 501.305 197.348C497.498 197.348 493.692 197.348 489.885 197.348V197.368ZM440.557 371.888V346.745C440.557 346.277 440.557 345.809 440.557 345.36C440.518 344.326 439.971 343.858 438.937 343.78C437.297 343.663 436.887 343.936 436.829 345.672C436.751 348.423 436.77 351.193 436.751 353.962C436.751 358.527 436.711 363.091 436.751 367.656C436.751 370.348 436.965 373.039 436.887 375.712C436.829 377.916 436.536 380.159 436.79 382.344C437.219 385.855 436.692 389.366 436.809 392.877C436.868 394.847 436.692 396.856 436.77 398.865C436.809 399.49 436.653 400.114 437.512 400.309C438.254 400.484 438.722 400.543 439.503 399.938C440.616 399.06 440.498 398.105 440.498 397.071C440.498 388.683 440.498 380.296 440.498 371.927L440.557 371.888ZM131.783 269.521C132.075 266.946 132.29 264.586 132.641 262.264C133.071 259.319 132.505 256.413 132.583 253.487C132.7 249.585 132.973 245.684 132.759 241.802C132.544 237.745 133.169 233.688 132.739 229.631C132.407 226.412 133.032 223.077 131.724 219.936C130.807 217.751 129.46 215.918 127.098 215.138C126.004 214.787 124.853 214.572 123.721 214.357C122.745 214.162 120.91 215.274 120.773 216.074C120.636 216.913 121.202 217.244 122.979 217.4C123.135 217.4 123.291 217.4 123.447 217.42C126.551 217.829 130.611 221.984 130.475 224.832C130.201 230.216 130.475 235.6 130.299 240.983C130.143 245.47 130.728 249.995 130.475 254.481C130.24 258.48 130.572 262.44 130.553 266.419C130.553 267.433 130.24 268.643 131.802 269.54L131.783 269.521ZM98.6563 218.473C97.5046 220.424 97.329 222.199 97.2704 223.935C97.0752 229.943 96.9581 235.951 96.9385 241.959C96.9385 244.124 96.6653 246.289 96.7629 248.415C96.88 250.795 96.9581 253.194 97.0166 255.593C97.0557 257.212 96.9971 258.831 96.9971 260.47C96.9971 261.211 97.329 261.718 98.1293 261.523C98.7344 261.367 99.5738 261.445 99.5543 260.372C99.5543 257.7 99.6324 255.047 99.5348 252.375C99.3591 247.947 99.6324 243.499 99.4372 239.052C99.281 235.736 99.3591 232.401 99.5738 229.085C99.6909 227.465 99.32 225.749 99.8081 224.266C100.433 222.355 99.0272 221.107 98.8711 219.507C98.8516 219.273 98.793 219.058 98.6759 218.473H98.6563ZM280.177 329.97C280.157 332.818 282.598 338.143 284.803 340.094C285.369 340.601 286.014 340.952 286.658 340.386C287.243 339.879 287.302 339.118 286.97 338.455C286.736 337.987 286.267 337.655 285.916 337.246C282.539 333.305 281.7 329.814 285.76 324.781C287.185 323.006 289 321.66 291.011 320.588C291.479 320.334 291.987 320.1 292.455 319.846C292.904 319.593 293.06 319.164 292.982 318.656C292.904 318.149 292.553 317.798 292.084 317.72C291.557 317.642 290.991 317.623 290.464 317.72C285.155 318.637 280.197 324.547 280.157 330.009L280.177 329.97ZM454.417 329.287C454.358 325.991 452.972 322.772 450.532 320.022C450.024 319.456 449.4 318.969 448.736 318.559C447.448 317.74 446.355 317.701 446.042 318.422C445.535 319.612 446.55 319.983 447.233 320.607C450.649 323.611 453.694 329.365 449.4 335.1C448.229 336.66 446.901 337.811 445.222 338.67C444.578 339.001 444.032 339.508 444.363 340.347C444.676 341.127 445.32 341.264 446.101 341.088C447.487 340.776 448.834 340.386 449.849 339.372C452.523 336.719 454.28 333.618 454.417 329.326V329.287ZM284.94 370.308C284.53 364.262 285.018 358.663 284.764 352.987C283.086 353.572 282.871 354.977 282.949 356.498C283.047 358.293 282.676 359.951 282.11 361.667C281.407 363.754 279.845 365.256 278.498 367.148C280.86 367.714 282.617 369.099 284.96 370.308H284.94ZM425.741 346.57V346.492C427.517 346.492 429.294 346.453 431.07 346.492C432.183 346.531 432.417 345.887 432.3 345.029C432.202 344.365 432.007 343.78 431.031 343.702C427.478 343.449 423.984 344.268 420.412 343.858C419.533 343.761 419.573 345.146 419.416 345.906C419.299 346.55 419.963 346.531 420.392 346.531C422.169 346.531 423.945 346.531 425.721 346.531L425.741 346.57ZM433.334 317.35C433.217 314.95 433.1 314.97 430.797 315.087C427.634 315.243 424.492 315.535 421.368 316.023C420.822 316.101 420.295 315.887 420.295 316.745C420.295 317.506 420.666 317.623 421.31 317.584C425.312 317.349 429.333 317.896 433.334 317.369V317.35ZM347.23 169.084C344.829 168.265 342.467 168.343 340.515 166.392C340.827 169.025 342.35 170.664 343.091 172.692C344.985 171.99 345.922 170.469 347.21 169.103L347.23 169.084Z" fill="#1E6E67"/>
<path fill-rule="evenodd" clip-rule="evenodd" d="M0 380.081C0.897941 380.705 0.117123 381.329 0 381.953V380.081Z" fill="#FEFEFE"/>
<path fill-rule="evenodd" clip-rule="evenodd" d="M599.98 407.116C599.297 406.492 599.375 405.868 599.98 405.244V407.116Z" fill="#FEFEFE"/>
<path fill-rule="evenodd" clip-rule="evenodd" d="M197.84 417.474C208.498 422.643 206.858 422.526 209.357 425.354C210.645 426.837 211.856 428.514 212.285 430.543C209.669 431.245 207.229 430.27 205.785 427.832C204.535 425.705 202.486 424.379 200.826 422.662C199.89 421.687 198.367 422.019 197.157 421.551C196.61 421.336 195.849 421.941 195.497 422.604C194.912 423.716 194.072 424.633 193.233 425.549C192.843 425.978 192.745 426.447 192.589 426.973C192.023 428.729 191.379 430.484 190.695 432.201C190.344 433.059 189.524 433.176 188.724 433.02C187.943 432.864 187.221 432.513 187.24 431.518C187.24 431.206 187.182 430.874 187.24 430.582C187.806 427.949 188.353 425.315 189.583 422.857C190.246 421.512 191.515 420.887 192.452 419.893C192.96 419.346 193.428 418.937 193.253 418.137C192.706 415.757 194.15 414.216 195.595 412.695C197.254 410.939 199.48 409.944 201.451 408.599C203.13 407.448 205.043 406.648 206.839 405.673C208.888 404.561 211.036 403.742 213.32 403.215C215.272 402.766 217.165 402.123 219.059 401.44C222.787 400.094 226.73 399.704 230.576 398.846C232.313 398.455 234.07 398.163 235.807 397.695C238.208 397.051 240.687 396.856 243.127 396.544C245.899 396.212 248.476 395.12 250.701 393.774C254.879 391.238 259.485 390.029 263.995 388.429C267.86 387.064 271.491 385.367 274.575 382.558C275.531 381.68 276.8 381.914 277.913 382.109C278.596 382.226 278.947 383.007 278.967 383.767C278.986 384.528 278.596 384.86 277.854 384.957C277.308 385.035 276.839 385.308 276.449 385.718C274.516 387.708 271.998 388.683 269.617 389.97C265.81 392.018 261.574 392.662 257.611 394.164C256.265 394.691 255.289 395.666 254.078 396.329C250.994 398.007 247.793 399.275 244.279 399.587C240.726 399.899 237.31 400.913 233.816 401.635C231.923 402.025 230.029 402.454 228.136 402.766C224.329 403.41 220.581 404.424 216.911 405.556C214.022 406.453 211.289 407.877 208.537 409.164C205.531 410.588 202.622 412.188 200.104 414.431C199.187 415.25 198.269 416.03 197.898 417.474H197.84Z" fill="#2F736C"/>
<path fill-rule="evenodd" clip-rule="evenodd" d="M319.628 198.09C317.5 200.801 315.099 202.459 312.776 204.214C310.512 205.931 307.896 206.692 305.163 207.199C303.309 207.55 301.435 207.452 299.619 207.199C295.462 206.555 291.948 204.878 289.605 200.957C286.697 196.08 287.38 191.282 289.156 186.386C289.684 184.942 290.464 183.577 291.148 182.192C291.518 181.431 292.143 180.924 293.022 181.139C293.861 181.334 293.919 182.134 293.978 182.816C294.076 183.987 293.939 185.157 293.51 186.249C292.163 189.682 292.319 193.291 292.67 196.822C293.061 200.645 296.965 204.117 300.791 204.195C304.558 204.253 308.033 203.454 310.805 200.43C312.327 198.753 314.318 197.465 316.192 196.158C317.969 194.91 318.437 193.272 317.949 191.301C317.051 187.712 316.778 184.006 315.899 180.398C315.138 177.257 315.587 173.98 315.821 170.762C315.841 170.371 315.978 169.981 316.466 169.942C316.817 169.942 317.032 170.215 317.168 170.469C318.105 172.263 319.081 174.039 319.374 176.067C319.569 177.472 320.155 178.739 320.526 180.066C321.287 182.719 321.892 185.43 322.244 188.161C322.419 189.448 322.517 190.775 322.732 192.062C324.079 200.001 325.992 207.823 327.085 215.801C327.085 215.879 327.085 215.957 327.124 216.035C328.607 220.775 329.212 225.671 329.818 230.567C330.579 236.712 332.121 242.68 333.468 248.688C334.268 252.297 334.854 255.964 335.927 259.495C336.845 262.538 337.684 265.6 338.563 268.643C340.124 274.105 342.545 279.215 344.555 284.501C345.063 285.847 345.883 287.096 346.644 288.344C348.635 291.641 350.665 294.918 352.656 298.214C353.262 299.209 354.316 299.677 355.097 300.477C358.2 303.695 361.753 306.407 366.106 307.694C371.552 309.313 376.374 308.084 380.571 304.086C382.249 302.486 384.104 300.828 386.739 300.828C387.422 300.828 388.184 300.594 388.574 301.413C388.984 302.252 388.672 302.915 388.047 303.481C387.93 303.578 387.871 303.754 387.754 303.832C385.49 305.49 383.323 307.304 381.273 309.216C381.02 309.45 380.571 309.645 380.219 309.645C378.755 309.645 377.506 310.113 376.393 311.049C376.081 311.322 375.534 311.4 375.085 311.439C369.854 311.829 364.759 311.517 360.016 308.884C355.097 306.134 350.685 302.74 347.503 298.097C345.024 294.469 342.603 290.763 340.729 286.764C339.363 283.858 338.309 280.815 336.982 277.889C334.522 272.505 333.468 266.712 331.867 261.075C331.34 259.222 330.403 257.505 330.13 255.554C329.72 252.609 328.92 249.722 328.275 246.816C327.729 244.26 327.299 241.647 326.753 239.091C326.109 236.068 325.113 232.986 325.328 229.748C325.445 228.031 324.742 226.393 324.313 224.754C323.434 221.497 323.103 218.142 322.361 214.865C321.658 211.666 321.697 208.369 320.526 205.209C319.765 203.161 319.257 200.859 319.647 198.051L319.628 198.09Z" fill="#2F736C"/>
<path fill-rule="evenodd" clip-rule="evenodd" d="M272.955 111.033C273.521 112.789 273.13 114.428 272.31 115.988C271.608 117.314 270.534 118.095 268.972 118.114C267.391 118.153 265.888 117.88 264.463 117.197C262.941 116.456 262.14 115.227 261.847 113.589C261.73 113.004 261.789 112.516 262.374 112.204C262.921 111.911 263.429 111.931 263.858 112.379C264.463 112.984 265.049 113.589 265.615 114.232C266.962 115.734 269.05 114.74 269.402 113.16C269.597 112.301 269.597 111.463 269.578 110.624C269.519 108.127 268.445 106.001 267.196 103.953C266.962 103.563 266.61 103.251 266.2 102.997C264.971 102.295 264.307 102.568 264.053 103.933C263.917 104.694 263.858 105.474 263.721 106.235C263.604 106.898 263.292 107.405 262.511 107.405C261.711 107.405 260.949 107.347 260.559 106.489C259.232 103.563 261.672 99.2518 264.815 98.9592C266.161 98.8422 267.313 99.4469 268.289 100.091C270.183 101.319 271.783 102.938 272.271 105.299C272.662 107.191 273.286 109.063 272.935 111.014L272.955 111.033Z" fill="#2F736C"/>
<path fill-rule="evenodd" clip-rule="evenodd" d="M393.161 293.006C392.927 294.235 392.986 295.815 392.381 297.258C391.795 298.643 389.863 299.423 388.496 298.819C387.735 298.487 387.637 297.785 387.657 297.063C387.696 295.912 387.91 294.762 388.067 293.63C388.555 290.197 388.262 286.901 387.13 283.663C387.11 283.585 387.052 283.507 387.052 283.448C387.461 280.347 385.217 278.201 384.202 275.626C383.948 274.982 383.557 274.397 383.518 273.675C383.46 272.973 383.772 272.486 384.377 272.174C385.041 271.842 385.392 272.291 385.744 272.7C387.715 275.002 389.667 277.304 390.468 280.347C390.741 281.4 391.151 282.414 391.6 283.389C392.947 286.374 392.869 289.573 393.161 293.006Z" fill="#2F736C"/>
<path fill-rule="evenodd" clip-rule="evenodd" d="M314.357 75.4939C314.357 75.4939 314.357 75.6304 314.357 75.7084C314.26 76.3521 314.845 77.1909 314.026 77.6005C313.206 78.0297 312.366 77.62 311.586 77.2494C310.512 76.7227 310.004 75.7865 309.731 74.7136C309.126 72.1973 308.404 69.7006 307.701 67.2428C306.959 64.629 305.866 62.0347 304.363 59.6939C303.836 58.8942 303.543 58.0164 303.348 57.1191C303.192 56.3974 303.387 55.6952 304.07 55.3051C304.714 54.954 305.319 55.032 305.964 55.5587C307.525 56.8266 309.067 58.0944 309.712 60.1231C309.809 60.4157 309.926 60.7083 310.082 60.9618C312.191 64.4534 312.854 68.4522 314.045 72.2559C314.377 73.2897 314.611 74.3625 314.338 75.4744L314.357 75.4939Z" fill="#2F736C"/>
<path fill-rule="evenodd" clip-rule="evenodd" d="M280.919 80.0385C280.88 79.0241 281.251 77.9903 281.7 76.9955C282.149 75.9812 283.613 75.1619 284.53 75.279C285.545 75.4155 286.326 76.4103 286.521 77.8538C286.834 80.3115 285.233 82.5547 283.203 82.5352C281.446 82.5157 280.821 81.872 280.919 80.0385Z" fill="#2F736C"/>
<path fill-rule="evenodd" clip-rule="evenodd" d="M263.858 87.9968C263.878 87.041 265.01 86.4753 266.142 86.8655C267.274 87.2556 268.836 89.8694 268.602 91.0788C268.426 91.976 267.723 92.0736 266.981 91.937C265.049 91.5469 263.819 89.9669 263.858 87.9968Z" fill="#2F736C"/>
<path fill-rule="evenodd" clip-rule="evenodd" d="M100.921 305.256C101.292 308.786 101.194 312.336 101.546 315.886C102.014 320.353 104.474 323.611 107.89 325.952C110.193 327.512 113.16 328.195 116.127 327.59C116.967 327.415 117.806 327.219 118.665 327.298C123.779 327.727 128.64 322.519 128.835 317.876C128.991 314.053 129.518 310.269 129.323 306.407C129.206 304.105 129.108 301.686 129.616 299.345C129.928 297.902 130.533 297.512 132.076 297.59C133.637 297.668 133.989 297.96 134.164 299.482C134.262 300.243 134.32 301.042 134.223 301.803C133.871 304.495 134.223 307.167 134.223 309.859C134.242 313.955 133.832 318.013 132.661 321.972C131.802 324.879 129.616 326.751 127.293 328.409C124.892 330.126 122.101 330.77 119.133 330.633C117.904 330.575 116.752 331.121 115.503 331.043C113.492 330.926 111.501 330.75 109.607 330.028C108.261 329.521 106.816 329.521 105.43 328.78C103.049 327.493 101.116 325.776 99.5349 323.728C98.227 322.05 97.4072 320.041 97.1534 317.818C96.9582 316.023 96.4897 314.189 96.4507 312.434C96.3336 308.435 95.3185 304.358 96.8216 300.399C97.4462 298.76 98.3051 298.526 99.4764 299.774C100.16 300.516 100.706 301.354 100.706 302.466C100.706 303.383 100.804 304.319 100.862 305.236L100.921 305.256Z" fill="#2F736C"/>
<path fill-rule="evenodd" clip-rule="evenodd" d="M101.487 351.212C106.328 351.387 111.169 351.407 116.01 351.368C119.778 351.329 123.545 351.524 127.312 351.29C129.85 351.114 132.407 351.212 134.945 351.192C135.882 351.192 136.819 351.192 137.541 351.953C138.42 352.889 138.146 353.904 136.916 354.235C136.467 354.352 135.999 354.372 135.531 354.372C132.036 354.372 128.562 354.508 125.068 354.45C119.27 354.352 113.472 354.489 107.694 354.489C103.048 354.489 98.4221 354.45 93.7763 354.43C93.054 354.43 92.3903 354.294 91.7461 354.021C91.1605 353.767 90.6335 353.397 90.7116 352.655C90.7896 351.914 91.4143 351.622 92.039 351.563C93.5616 351.407 95.1037 351.29 96.6458 351.251C98.266 351.192 99.8862 351.251 101.506 351.251L101.487 351.212Z" fill="#2F736C"/>
<path fill-rule="evenodd" clip-rule="evenodd" d="M91.4144 360.263C94.0106 358.371 96.7434 358.644 99.3982 358.644C105.254 358.644 111.11 358.819 116.986 358.644C120.754 358.527 124.541 358.78 128.308 358.819C130.69 358.819 133.071 358.741 135.452 358.722C136.077 358.722 136.702 358.722 137.307 358.819C138.283 358.956 138.517 359.716 138.537 360.536C138.556 361.355 137.912 361.57 137.287 361.667C136.214 361.823 135.121 362.057 134.047 361.96C129.655 361.609 125.243 362.038 120.851 361.901C116.303 361.765 111.716 362.096 107.167 361.94C103.224 361.804 99.2811 362.135 95.338 361.94C93.8544 361.862 92.7418 361.16 91.4144 360.282V360.263Z" fill="#2F736C"/>
<path fill-rule="evenodd" clip-rule="evenodd" d="M116.537 280.269C110.798 280.269 106.055 280.269 101.331 280.269C98.9298 280.269 96.5483 280.386 94.1473 280.425C92.8394 280.425 91.5315 280.425 90.2432 280.327C89.6381 280.288 88.9744 280.21 88.4473 279.918C87.4322 279.371 87.4908 278.318 88.5059 277.772C89.4233 277.265 90.4384 277.109 91.4339 277.128C96.314 277.245 101.194 277.05 106.074 277.206C109.295 277.304 112.555 277.148 115.815 277.206C119.524 277.265 123.233 277.557 126.903 277.304C129.674 277.109 132.446 277.596 135.199 277.148C136.136 276.992 137.053 277.148 137.951 277.421C139.122 277.791 139.688 278.533 139.493 279.41C139.259 280.444 138.342 280.327 137.6 280.327C133.637 280.327 129.674 280.23 125.731 280.288C122.315 280.347 118.919 280.366 116.518 280.23L116.537 280.269Z" fill="#2F736C"/>
<path fill-rule="evenodd" clip-rule="evenodd" d="M354.101 101.768C355.604 101.729 356.112 102.197 356.112 103.582C356.112 105.065 355.409 105.962 354.238 105.962C352.344 105.962 351.056 105.162 351.114 104.012C351.192 102.705 352.383 101.807 354.121 101.768H354.101Z" fill="#2F736C"/>
<path opacity="0.6" fill-rule="evenodd" clip-rule="evenodd" d="M123.643 312.317C123.643 316.803 120.012 320.431 115.522 320.431C111.032 320.431 107.402 316.803 107.402 312.317C107.402 307.831 111.032 304.202 115.522 304.202C120.012 304.202 123.643 307.831 123.643 312.317Z" fill="#EFE452"/>
<path opacity="0.4" fill-rule="evenodd" clip-rule="evenodd" d="M294.232 95.7607C293.295 97.5748 290.562 98.0234 288.141 96.775C285.721 95.5266 284.53 93.0298 285.467 91.2158C286.404 89.4017 289.137 88.9336 291.557 90.2015C293.978 91.4499 295.169 93.9466 294.232 95.7607Z" fill="#E06765"/>
</svg>
