<svg width="110" height="138" viewBox="0 0 110 138" fill="none" xmlns="http://www.w3.org/2000/svg">
<g clip-path="url(#clip0_125_20818)">
<path fill-rule="evenodd" clip-rule="evenodd" d="M84.627 67.5794C84.627 67.5794 71.6567 61.0662 67.469 57.2195C63.2813 53.3728 56.9852 47.7194 56.9852 47.7194L24.4868 67.5939L25.1993 70.5227C25.1993 70.5227 29.4307 77.7498 34.9852 82.529C40.5397 87.3082 51.0235 93.8068 51.0235 93.8068L57.814 93.1657L66.0876 87.3082L66.9891 80.4599L84.627 67.6231V67.5794Z" fill="#6BB3A9"/>
<path fill-rule="evenodd" clip-rule="evenodd" d="M90.8213 35.4799V53.5768C90.8213 53.5768 77.7638 41.4102 72.5728 38.5543C67.3672 35.6984 55.5311 29.5059 55.5311 29.5059V14.3814C55.5311 14.3814 67.1055 16.4213 75.0156 21.3171C82.9257 26.2129 90.8213 35.4799 90.8213 35.4799Z" fill="#6BB3A9"/>
<path fill-rule="evenodd" clip-rule="evenodd" d="M58.3803 11.9626C58.3367 11.0155 59.0492 10.7824 59.5145 10.4181C61.1576 9.16503 62.9897 8.26164 64.8654 7.41653C65.3307 7.21254 65.7233 7.05226 65.8833 6.52772C66.1305 5.74089 65.8251 5.43491 64.9818 5.33291C63.0915 5.12892 61.6083 6.17802 60.1397 7.00855C59.1946 7.5331 58.1913 7.98479 57.3043 8.64048C56.2719 9.4273 55.4576 10.2578 55.1087 11.6129C54.6579 13.376 54.4398 15.1536 54.5707 16.9458C54.687 18.6943 54.498 20.4283 54.687 22.1768C54.7888 23.1821 54.6288 24.2604 54.6288 25.3095C54.6434 29.1707 54.5707 33.032 54.527 36.8933C54.527 37.1118 54.4398 37.3449 54.527 37.5198C55.225 39.2391 54.7015 41.0751 55.036 42.8236C55.0941 43.0858 55.1087 43.3481 55.1959 43.6104C55.4722 44.3972 56.0393 44.8343 56.7081 44.7761C57.5079 44.6886 57.726 44.1058 57.8423 43.4501C58.1477 41.7599 57.9586 40.0551 57.9877 38.3649C58.0313 36.0336 57.726 33.7168 57.7405 31.4438C58.2785 31.1669 58.6711 31.4729 59.0056 31.6623C62.8298 33.7751 66.7993 35.6984 70.2455 38.394C72.3393 40.0114 74.6513 41.2936 76.6143 43.0858C77.3995 43.7998 78.5482 44.1058 79.4061 44.7906C81.7035 46.612 84.2045 48.2439 85.993 50.6044C86.7055 51.5369 87.8106 52.2363 88.0142 53.5331C88.0287 53.6205 88.1159 53.7517 88.1886 53.7808C89.8317 54.3491 89.3228 55.7041 89.2501 56.8407C89.1483 58.3269 89.2501 59.8131 89.3228 61.2993C89.381 62.4067 89.7445 62.6981 90.6606 62.6544C91.5766 62.6107 92.0855 62.057 92.2309 61.1828C92.5654 59.0991 92.5363 56.9718 92.5363 54.9028C92.5363 51.9157 92.9871 48.9579 92.8271 45.9563C92.7544 44.4555 93.0016 42.9256 93.1761 41.4248C93.3215 40.0988 93.1615 38.7875 93.1906 37.4761C93.2342 36.1647 93.3069 34.8096 93.5105 33.4983C93.6995 32.2452 94.8337 31.4729 95.7789 30.7881C96.6077 30.1907 97.3347 29.331 98.4689 29.1853C98.7888 29.1416 99.036 28.7336 99.3559 28.5296C99.7194 28.2965 99.6903 28.0488 99.5158 27.7282C99.1087 26.9997 98.3526 26.7374 97.5092 26.9851C94.9791 27.7428 93.0888 29.3893 91.4457 31.3563C90.7914 32.1432 90.7623 32.1432 90.0353 31.4001C88.5522 29.8701 87.0836 28.3402 85.3241 27.1162C84.0882 26.2566 82.8958 25.3095 81.7908 24.2749C80.8165 23.3716 79.6097 22.8033 78.49 22.0893C74.7531 19.7143 71.0161 17.2955 67.0902 15.2702C65.1272 14.2502 63.0915 13.1429 60.7941 12.7932C59.9798 12.662 59.1946 12.2686 58.3658 11.9918L58.3803 11.9626ZM89.8754 41.9056H89.9335C89.9335 43.2898 89.9335 44.6741 89.9335 46.0437C89.9335 46.6265 89.9044 47.2094 89.8899 47.7922C89.8899 48.2439 89.7736 48.6373 89.3228 48.8559C88.8721 49.0744 88.5085 48.885 88.1886 48.5645C88.0432 48.4188 87.8833 48.273 87.7379 48.1128C85.1933 45.6212 82.4742 43.3335 79.6969 41.1188C74.6222 37.0827 69.0822 33.746 63.3532 30.7152C62.0446 30.0158 60.7504 29.3164 59.34 28.7919C58.2494 28.3839 57.7987 27.7137 57.8132 26.3877C57.8714 22.949 58.0895 19.4812 57.6969 16.0424C57.5951 15.1828 58.0895 14.7894 58.991 14.9933C59.878 15.1828 60.7068 15.5325 61.5211 15.9404C62.9025 16.6253 64.2693 17.2955 65.6797 17.9366C71.5541 20.5885 76.9196 24.0855 81.9507 28.1071C84.6116 30.2344 86.8218 32.828 89.3955 35.0428C89.8754 35.4507 89.8899 35.9461 89.8754 36.4853C89.8754 38.292 89.8754 40.0988 89.8754 41.9056Z" fill="#2E706B"/>
<path fill-rule="evenodd" clip-rule="evenodd" d="M82.6634 77.8518C80.6714 77.9683 78.3449 78.1286 76.2801 79.3671C74.8842 80.2122 73.5028 81.1156 72.1215 81.9024C69.1988 83.5489 67.3521 86.0843 65.3164 88.5613C63.1063 91.2278 61.8121 94.2731 60.5326 97.4203C59.5438 99.8537 58.8458 102.36 57.9152 104.808C57.5954 105.653 57.5517 106.6 57.5372 107.46C57.4936 109.135 56.8392 110.651 56.6647 112.297C56.4176 114.818 56.1122 117.324 56.1704 119.845C56.2285 122.205 56.5775 124.551 57.7553 126.664C58.1915 127.451 58.2788 128.369 58.6714 129.185C60.678 133.352 63.7606 136.062 68.4427 136.761C69.9549 136.98 71.4235 137.461 72.9067 137.796C74.1426 138.073 75.2622 138.102 76.4691 137.854C79.5226 137.228 82.1981 135.829 84.67 133.964C85.717 133.177 86.9384 132.638 87.8981 131.691C89.5266 130.073 91.4605 128.748 92.7692 126.795C93.3363 125.95 93.8452 125.047 94.4123 124.201C94.7903 123.633 95.2265 123.109 95.6482 122.555C95.8373 122.307 96.1717 122.06 96.1862 121.797C96.288 120.107 97.4076 118.912 98.2219 117.586C98.6727 116.843 98.7599 115.984 99.1525 115.255C100.679 112.341 101.101 109.179 101.639 105.988C101.959 104.108 101.61 102.316 101.755 100.48C102.002 97.5078 101.392 94.6519 100.49 91.8106C99.3997 88.3427 97.713 85.2537 95.2993 82.5581C94.1505 81.2759 92.6819 80.3288 91.1552 79.7023C88.785 78.726 86.3277 77.7935 83.6522 78.0266C83.4486 78.0412 83.2305 77.9683 82.678 77.8809L82.6634 77.8518ZM74.3753 135.538C72.0488 135.304 69.7513 135.1 67.6429 134.241C65.4182 133.337 63.4698 131.982 62.4083 129.666C61.9575 128.675 61.4632 127.698 60.9979 126.722C59.602 123.779 59.1657 120.675 59.2239 117.557C59.2675 115.925 59.4566 114.206 59.6892 112.545C60.14 109.5 60.7361 106.483 61.5649 103.511C61.9139 102.287 62.132 101.005 62.6119 99.8682C63.8624 96.8521 64.9675 93.7485 66.8577 90.9946C68.0065 89.3336 69.286 87.789 70.6819 86.4194C72.9648 84.1463 75.524 82.1647 78.5775 80.9116C79.9152 80.3579 81.2239 80.0082 82.678 79.9645C84.6846 79.9062 86.5894 80.3288 88.3779 81.0719C89.7883 81.6547 91.257 82.2959 92.3475 83.5489C94.6595 86.2008 96.5061 89.0276 97.5531 92.4517C98.5564 95.7301 98.9053 99.0377 98.8763 102.404C98.8472 104.997 98.3819 107.562 97.8439 110.112C97.3786 112.253 96.4625 114.235 95.5464 116.158C94.4559 118.475 93.2636 120.777 91.7804 122.919C90.6172 124.595 89.4975 126.343 88.1889 127.888C85.7315 130.802 82.5616 132.886 79.0573 134.386C77.5597 135.013 75.9456 135.421 74.3607 135.523L74.3753 135.538Z" fill="#2E706B"/>
<path fill-rule="evenodd" clip-rule="evenodd" d="M27.5981 89.1441C27.5545 88.3282 27.4672 87.7453 27.4963 87.1771C27.6126 85.3994 25.3297 84.4378 24.0502 85.2246C23.1195 85.7928 22.1744 86.332 21.2293 86.8857C20.7785 86.0843 21.0839 85.3994 21.0984 84.7292C21.1275 82.8204 21.3601 80.8679 21.2002 79.0174C21.0112 76.8172 21.3892 74.6462 21.0839 72.4606C20.8803 71.0763 21.0257 69.6193 21.1129 68.2059C21.1566 67.4774 21.4765 66.7634 20.9821 66.0786C20.9239 66.0057 20.8658 65.8454 20.9094 65.7871C22.0145 63.8347 21.0693 61.2702 22.8724 59.5071C23.4249 58.968 23.0905 58.3123 22.3489 58.1083C21.3601 57.8461 20.2696 58.2103 19.7025 59.1137C19.2081 59.9151 18.7864 60.7748 18.641 61.751C18.6119 62.0133 18.6701 62.363 18.5247 62.5233C17.4923 63.7327 17.8849 65.1315 18.0158 66.4428C18.2048 68.337 17.6668 70.2458 18.1467 72.14C18.3357 72.9123 17.9867 73.6554 17.2306 74.1799C15.6747 75.2582 14.0316 76.2053 12.5776 77.4583C10.3965 79.338 9.00059 81.5527 9.11691 84.5689C9.13145 85.0789 8.85518 85.5889 8.73885 86.0988C8.66615 86.4194 8.44804 86.4922 8.17177 86.536C4.88558 87.0459 3.19886 89.2898 2.23918 92.204C1.78842 93.6028 1.57032 95.089 1.2795 96.5461C1.09048 97.5369 0.90144 98.5569 1.61393 99.4457C1.83204 99.708 1.73026 99.9411 1.51215 100.131C1.39582 100.232 1.2068 100.276 1.11956 100.393C-0.116398 101.864 -0.654411 103.467 1.19225 105.42C2.18102 106.454 3.18433 107.474 4.07131 108.582C4.56569 109.208 5.27818 109.427 5.84527 109.878C6.87765 110.709 7.75008 111.7 8.70976 112.603C9.84394 113.681 11.109 113.594 12.1995 113.026C14.2788 111.918 16.6199 111.277 18.452 109.689C18.7283 109.456 19.0627 109.208 19.3971 109.135C20.8076 108.815 21.4183 107.649 22.1308 106.629C22.6397 105.886 22.4943 105.187 21.8545 104.443C20.1969 102.549 18.3357 100.859 16.3145 99.3437C15.5584 98.7754 14.7587 98.2509 13.9444 97.7555C13.2901 97.3475 12.7811 97.5223 12.3595 98.2072C11.9669 98.8483 12.1414 99.3145 12.7957 99.6205C13.7263 100.087 14.2643 100.961 14.9622 101.675C15.9219 102.651 17.0125 103.525 18.0012 104.473C19.2372 105.653 19.2081 106.585 17.725 107.314C15.7765 108.276 14.0171 109.543 12.0396 110.447C11.3707 110.753 10.9636 110.694 10.3383 110.257C7.85187 108.48 5.69986 106.381 3.72233 104.079C3.03892 103.278 3.37335 101.427 4.4639 100.801C6.04883 99.8974 7.34295 98.484 9.23323 98.1343C9.75669 98.0469 10.1493 97.77 10.0766 97.1726C10.0039 96.5607 9.42226 96.4587 8.98604 96.4149C7.80825 96.313 6.65954 96.4587 5.6417 97.1435C5.35089 97.3475 5.13276 97.7117 4.71109 97.6535C3.78049 95.1327 5.55445 90.5721 8.25901 88.7944C8.46258 89.4938 8.46257 90.1495 8.34625 90.8052C8.22992 91.388 8.31717 91.9709 8.33172 92.5537C8.33172 93.3405 8.63706 93.9525 9.4368 94.069C10.3238 94.1856 10.5855 93.4571 10.7745 92.7722C10.9927 92 11.1381 91.2277 11.2544 90.4409C11.6615 87.687 11.6761 84.8603 12.563 82.1647C13.101 80.5182 14.1044 79.2651 15.4857 78.3472C16.1982 77.8809 16.678 76.9484 17.8268 77.0649C18.0303 77.4438 18.0885 77.8663 18.0449 78.3617C17.8558 80.7368 17.8413 83.1264 18.0158 85.5014C18.0594 86.1863 17.9867 86.9002 18.0739 87.5705C18.2194 88.7361 17.6087 89.3044 16.7508 89.8144C15.5293 90.5283 14.2352 91.1549 13.1592 92.102C12.9556 92.2768 12.723 92.4226 12.5776 92.6265C12.0541 93.3551 12.3449 93.9671 13.2901 94.0399C14.0462 94.0982 14.8168 93.9816 15.3985 93.5008C16.9689 92.1457 18.99 91.5337 20.604 90.2515C21.8836 89.2315 23.4104 88.605 24.8499 87.789C25.3733 88.2844 25.2861 88.9547 25.3588 89.5667C25.5624 91.1403 26.4784 91.8106 27.9907 91.4609C28.1942 91.4172 28.3978 91.3297 28.5723 91.2277C30.4917 90.1932 32.1202 88.7507 33.8069 87.3956C33.9232 87.2936 34.0396 87.1625 34.1123 87.0314C34.3013 86.6962 34.4322 86.332 34.1559 85.9968C33.9233 85.72 33.5597 85.7928 33.2689 85.8803C32.9199 85.9968 32.5564 86.1425 32.2947 86.4048C31.0297 87.6725 29.2993 88.1096 27.5835 89.1004L27.5981 89.1441Z" fill="#2E706B"/>
<path fill-rule="evenodd" clip-rule="evenodd" d="M48.1732 35.101C46.1375 34.8388 44.5381 35.4653 43.2003 36.325C41.6009 37.3449 39.8269 38.0298 38.2565 39.108C37.195 39.8366 36.0172 40.4777 34.8976 41.1625C32.6147 42.5613 30.3028 43.9455 28.0781 45.4172C25.8533 46.9034 23.4396 48.1419 21.5202 50.0944C20.9095 50.7209 20.2843 51.3475 19.6736 51.974C18.4521 53.2271 18.9174 54.5968 19.9207 55.7916C20.9095 56.9572 22.16 56.9281 23.4977 56.5493C24.5883 56.2433 25.5044 55.6167 26.464 55.0776C28.5724 53.9119 30.6954 52.7608 32.7456 51.5078C34.7086 50.2984 36.5552 48.885 38.5909 47.7776C41.5572 46.1749 44.3345 44.2661 47.3299 42.6924C48.7258 41.9639 49.9472 40.9002 51.2268 39.9677C52.579 38.9769 52.8699 36.631 50.7469 35.7422C49.8018 35.3488 48.8566 35.101 48.1587 35.1156L48.1732 35.101Z" fill="#2E736C"/>
<path fill-rule="evenodd" clip-rule="evenodd" d="M61.3902 86.026C62.8007 86.2445 63.8912 85.3849 65.0254 84.7583C68.0499 83.0827 71.1761 81.5528 73.9534 79.4983C76.0472 77.9538 78.4319 76.9484 80.5403 75.4767C82.3142 74.2382 84.2918 73.3494 86.153 72.2566C87.6507 71.3678 89.0466 70.3187 90.4279 69.255C91.9401 68.0893 91.7075 65.8017 89.9626 65.1169C88.2904 64.4612 86.6473 64.1844 84.8879 64.6361C82.6632 65.2043 80.802 66.5594 78.8245 67.6231C76.2799 68.9782 73.8516 70.5518 71.4378 72.1254C69.2858 73.5388 66.9884 74.7336 64.9236 76.2927C63.8767 77.0795 62.6553 77.6186 61.7101 78.5657C60.6196 79.644 59.7471 80.8971 58.7875 82.0773C57.8423 83.243 58.7293 84.1464 59.2673 85.0643C59.7181 85.822 60.3288 86.4194 61.3757 86.026H61.3902Z" fill="#2E736C"/>
<path fill-rule="evenodd" clip-rule="evenodd" d="M80.3082 65.1606C80.6862 65.1169 81.0206 65.1315 81.3115 65.0295C81.7477 64.8983 81.9949 64.5486 82.0821 64.0969C82.1694 63.6307 81.8495 63.4267 81.5296 63.2227C80.7008 62.6544 79.7265 62.4067 78.825 61.955C76.4549 60.7311 74.361 59.0846 72.0927 57.7149C69.7516 56.3016 67.8904 54.3782 65.7093 52.8191C65.055 52.3529 64.5316 51.7846 64.0226 51.1581C63.2665 50.211 62.2923 49.4533 61.2454 48.8267C60.4602 48.3459 59.7331 47.8068 59.2824 47.0054C58.7444 46.0437 57.9446 45.9563 56.985 46.0874C55.0656 46.3643 53.5243 47.4425 51.8812 48.3459C50.6452 49.0307 49.6128 49.9778 48.4787 50.7792C46.821 51.974 44.9162 52.7317 43.1568 53.7225C42.7933 53.9265 42.3862 54.0576 42.0517 54.3199C40.9612 55.1359 39.7979 55.7916 38.5183 56.3307C36.4826 57.1758 34.6651 58.4726 32.8184 59.6966C31.3353 60.6874 29.8957 61.7365 28.3253 62.6107C27.0458 63.3247 25.9407 64.3446 24.7774 65.248C24.2249 65.6851 24.254 66.3845 24.1813 66.9965C24.1667 67.1714 24.3121 67.4191 24.4575 67.5356C25.17 68.0748 26.784 67.7688 27.2203 66.9382C27.5547 66.2825 28.0636 65.9328 28.6598 65.5394C31.437 63.7035 34.1561 61.7947 36.9043 59.9151C37.0788 59.7985 37.2242 59.6091 37.4132 59.5363C40.3505 58.4289 42.8805 56.5493 45.6578 55.1505C47.708 54.1305 49.9327 53.2125 51.5904 51.5806C52.6809 50.5024 54.1495 50.1381 55.211 49.1036C55.5018 48.8267 56.0107 48.8122 56.3452 48.5645C56.9704 48.1128 57.4066 48.3605 57.8429 48.8413C58.0173 49.0453 58.2064 49.2201 58.3954 49.4096C59.5732 50.6335 60.402 52.1052 61.9433 53.096C63.1066 53.8391 64.1244 55.0193 65.1859 55.981C66.5382 57.2195 68.0795 58.3269 69.6789 59.3031C71.7873 60.5854 73.8666 61.8967 75.9169 63.281C76.9347 63.9658 78.1416 64.2426 79.1304 65.0003C79.4212 65.2189 79.9446 65.1169 80.3082 65.1752V65.1606Z" fill="#2E706B"/>
<path fill-rule="evenodd" clip-rule="evenodd" d="M39.5652 135.523C41.3392 135.45 43.0986 134.838 44.669 133.731C45.9922 132.798 47.1845 131.735 47.9406 130.219C48.6531 128.777 49.0167 127.276 49.1621 125.702C49.1766 125.498 49.133 125.294 49.2638 125.105C50.209 123.823 49.8455 122.38 49.7582 120.981C49.7146 120.355 49.5692 119.728 49.4383 119.102C49.2929 118.461 49.4383 118.023 50.1508 118.038C51.8521 118.082 53.2044 116.916 54.8038 116.639C55.1092 116.581 55.3855 116.333 55.4145 115.984C55.4436 115.59 55.211 115.357 54.8765 115.109C54.1059 114.556 53.248 114.628 52.4919 114.876C51.5031 115.211 50.4271 115.357 49.5837 116.071C49.1475 116.435 48.784 116.406 48.246 115.969C46.3848 114.468 44.2909 113.958 41.9354 114.818C41.0629 115.138 40.3214 115.619 39.7106 116.275C38.3874 117.703 37.0352 119.102 36.4826 121.083C36.1627 122.249 35.4648 123.342 35.2612 124.522C34.7087 127.538 34.4615 130.554 36.1773 133.366C36.6571 134.168 37.4423 134.605 38.0239 135.275C38.3729 135.683 38.9254 135.436 39.5507 135.508L39.5652 135.523ZM37.9367 127.946C38.3147 125.775 38.5329 123.4 39.6961 121.287C40.4813 119.859 41.092 118.3 42.4297 117.266C43.6948 116.29 44.7272 115.954 45.6432 117.892C46.443 119.583 46.6029 121.302 46.6465 123.123C46.7047 124.945 45.9922 126.562 45.6723 128.281C45.6141 128.616 45.3088 128.908 45.1052 129.228C44.8144 129.666 44.4364 130.073 44.2182 130.54C43.5639 131.997 42.2116 132.507 40.8884 133.031C40.2777 133.279 39.8851 133.061 39.4053 132.536C38.2275 131.254 38.1839 129.666 37.9221 127.961L37.9367 127.946Z" fill="#2E706B"/>
<path fill-rule="evenodd" clip-rule="evenodd" d="M30.7829 130.175C31.5972 130.088 32.2515 130.103 32.8477 129.928C33.4002 129.767 33.9528 129.418 33.851 128.689C33.7637 128.063 33.2112 128.077 32.7459 128.004C32.5423 127.975 32.3242 127.917 32.1206 127.946C30.652 128.165 29.6778 127.276 28.6454 126.474C26.7115 124.959 24.9376 123.225 22.9019 121.841C22.3202 121.448 21.9131 120.894 21.4333 120.413C20.7498 119.728 20.7353 118.781 21.4914 118.184C22.3348 117.513 23.0327 116.625 24.1378 116.275C24.8358 116.056 25.3447 115.444 25.8827 114.949C27.3658 113.579 27.962 113.842 29.4306 114.92C31.1755 116.188 32.8477 117.557 34.8252 118.475C35.3341 118.708 35.7267 118.737 36.0612 118.242C36.3665 117.776 36.1048 117.499 35.7994 117.149C34.1709 115.27 32.2806 113.667 30.1867 112.355C28.311 111.175 26.2753 111.437 24.6177 112.807C22.9164 114.235 20.9389 115.24 19.194 116.595C17.8272 117.659 17.0711 119.714 18.6851 121.564C19.7465 122.788 21.1134 123.546 22.2766 124.609C23.7452 125.965 25.2429 127.276 26.7988 128.529C28.0493 129.534 29.3725 130.117 30.7829 130.161V130.175Z" fill="#2E706B"/>
<path fill-rule="evenodd" clip-rule="evenodd" d="M51.3284 94.1856C51.8664 94.0836 52.4044 94.1565 52.8697 93.8214C53.1896 93.5882 53.4223 93.3259 53.335 92.9034C53.2769 92.5537 53.0588 92.3643 52.7098 92.2914C49.9907 91.6794 47.6496 90.1932 45.3522 88.7361C43.651 87.6433 42.1387 86.2008 40.5974 84.8603C39.1724 83.6072 37.6748 82.427 36.2207 81.2176C34.9847 80.1977 34.1559 78.8571 33.0072 77.7935C30.8988 75.8556 29.4884 73.4222 28.1943 70.8869C27.8017 70.1001 26.6093 69.7213 25.8241 70.0564C25.1843 70.3187 24.9953 70.8141 25.1843 71.4843C25.5769 72.8103 26.2749 73.9905 27.0601 75.0979C28.4705 77.0795 30.2154 78.7843 31.7858 80.6494C33.7924 83.039 36.4097 84.6855 38.6781 86.7399C40.2775 88.1825 41.9206 89.6395 43.7091 90.8343C45.8175 92.2331 48.1149 93.3259 50.5578 94.0836C50.805 94.1565 51.0812 94.1565 51.3139 94.2002L51.3284 94.1856Z" fill="#2E706B"/>
<path fill-rule="evenodd" clip-rule="evenodd" d="M58.4533 92.6994C57.8281 92.5537 57.1883 92.9471 56.6503 93.4717C55.9087 94.1856 54.9926 94.579 54.1057 95.0453C51.2266 96.5315 48.7692 98.4986 47.7223 101.719C47.0389 103.817 46.5445 105.988 45.9774 108.13C45.643 109.398 45.3377 110.68 45.0759 111.962C44.9596 112.501 44.6833 113.157 45.4831 113.463C46.2101 113.74 46.6318 113.39 47.0244 112.763C48.6384 110.112 49.4672 107.168 50.2669 104.21C50.645 102.812 50.8776 101.369 51.7646 100.16C52.2735 99.4748 52.7534 98.8046 53.5822 98.4403C54.1493 98.178 54.7164 97.8429 54.9781 97.2018C55.1381 96.8084 55.487 96.7209 55.8505 96.6044C57.1156 96.1964 58.1771 95.3804 59.3258 94.7393C59.8056 94.477 60.489 94.1711 60.2273 93.4279C59.9801 92.7285 59.3403 92.5974 58.4679 92.6994H58.4533Z" fill="#2E706B"/>
<path fill-rule="evenodd" clip-rule="evenodd" d="M102.221 27.466C103.704 27.4951 104.867 26.6063 106.176 26.0672C107.092 25.6883 107.979 25.2075 108.88 24.7849C109.942 24.2895 110.204 23.7504 109.855 22.6576C109.695 22.1476 109.418 21.6959 109.026 21.3171C108.604 20.9091 108.182 20.7197 107.615 21.0402C107.252 21.2442 106.801 21.3025 106.452 21.5211C104.983 22.4536 103.195 22.7013 101.77 23.7213C101.377 23.9981 101.028 24.2895 100.723 24.6538C100.345 25.0909 99.7925 25.5572 100.243 26.1546C100.723 26.7957 101.087 27.7282 102.221 27.4514V27.466Z" fill="#2E706B"/>
<path fill-rule="evenodd" clip-rule="evenodd" d="M75.6552 2.21472C75.6552 0.39337 74.2302 -0.495449 72.4999 0.291375C71.3512 0.815923 70.3915 1.69017 69.2282 2.20015C68.5594 2.49156 67.8469 2.66641 67.2216 3.08897C66.5964 3.51152 66.291 3.87579 66.6109 4.63347C66.7709 5.02688 66.8436 5.44944 66.9163 5.85742C67.1198 6.95023 67.3379 7.13965 68.3122 6.64424C70.6678 5.47858 72.9797 4.22549 75.3062 3.01611C75.6697 2.82669 75.6552 2.53528 75.6552 2.21472Z" fill="#2E706B"/>
<path fill-rule="evenodd" clip-rule="evenodd" d="M90.2242 74.1362C90.2242 73.4951 90.2388 73.0871 90.2242 72.6646C90.2097 72.1837 90.1951 71.63 89.5408 71.6446C88.9592 71.6446 88.2467 71.7903 88.2467 72.5189C88.2612 73.8448 87.9559 75.127 87.985 76.4384C87.985 77.1232 88.5666 77.2107 89.1046 77.2835C89.6426 77.3564 89.8753 77.0941 89.9625 76.5987C90.1224 75.7099 90.2969 74.8356 90.2242 74.1508V74.1362Z" fill="#2E706B"/>
<path fill-rule="evenodd" clip-rule="evenodd" d="M74.39 135.552C75.975 135.45 77.589 135.042 79.0867 134.416C82.591 132.929 85.7463 130.831 88.2182 127.917C89.5268 126.373 90.6319 124.624 91.8097 122.948C93.2929 120.806 94.4997 118.504 95.5758 116.188C96.4773 114.25 97.4079 112.283 97.8732 110.141C98.4257 107.591 98.8765 105.026 98.9056 102.433C98.9346 99.0814 98.5857 95.7593 97.5824 92.4808C96.5354 89.0567 94.6888 86.23 92.3768 83.5781C91.2863 82.3104 89.8177 81.6839 88.4072 81.101C86.6187 80.3725 84.7139 79.9354 82.7073 79.9937C81.2387 80.0374 79.9446 80.3871 78.6068 80.9408C75.5533 82.1939 72.9796 84.1755 70.7113 86.4485C69.3299 87.8328 68.0358 89.3627 66.8871 91.0238C64.9822 93.7776 63.8917 96.8666 62.6412 99.8974C62.1759 101.019 61.9432 102.316 61.5943 103.54C60.7654 106.513 60.1693 109.529 59.7185 112.574C59.4713 114.235 59.2823 115.94 59.2532 117.586C59.1805 120.704 59.6313 123.823 61.0272 126.751C61.4925 127.728 61.9869 128.704 62.4376 129.695C63.4991 132.011 65.4475 133.352 67.6723 134.27C69.7806 135.13 72.0781 135.334 74.4046 135.567L74.39 135.552ZM83.318 83.3304C83.5797 83.3304 83.8415 83.3012 84.1032 83.3012C84.4231 83.3012 84.743 83.3012 85.0629 83.3012C85.5573 83.2867 86.008 83.4761 86.3861 83.7384C87.084 84.2192 86.9968 84.7875 86.2407 85.1226C85.1792 85.5888 84.0741 85.3411 82.9836 85.3994C81.4422 85.4723 80.0463 85.822 78.6504 86.5942C77.1818 87.4102 76.0913 88.5759 74.899 89.6541C74.5064 90.0038 73.9393 90.1349 73.6921 90.6595C73.1395 91.8252 72.2089 92.714 71.3947 93.6756C70.275 95.0162 69.5771 96.6335 68.8064 98.178C68.1085 99.606 67.6868 101.194 67.236 102.753C66.7853 104.312 66.3927 105.886 65.9419 107.46C65.7529 108.115 65.4621 108.727 65.3603 109.427C65.1276 111.073 65.3748 112.778 64.7787 114.366C64.7205 114.512 64.6769 114.687 64.706 114.832C64.9822 117.018 64.4733 119.204 64.895 121.448C65.3458 123.808 66.4072 125.819 67.5559 127.771C68.2975 129.039 69.3444 130.336 70.9294 130.86C71.1765 130.948 71.3801 131.166 71.351 131.458C71.3074 131.866 70.9584 131.924 70.6531 131.968C69.737 132.128 68.8355 131.866 68.0067 131.574C66.7562 131.137 65.5784 130.481 65.0549 129.126C64.735 128.325 64.168 127.698 63.7027 126.984C62.5249 125.178 61.6815 123.284 62.0159 121.054C62.045 120.865 62.0159 120.617 61.9142 120.442C61.1726 119.043 61.6379 117.528 61.696 116.115C61.7833 114.191 62.0886 112.253 62.3649 110.33C62.7139 107.97 63.4555 105.74 63.9935 103.438C64.2261 102.418 64.4297 101.354 64.8368 100.378C66.1164 97.3183 67.4396 94.3168 69.6352 91.694C70.8857 90.2078 72.0199 88.6633 73.4449 87.3228C76.2222 84.7 79.4502 83.3012 83.2598 83.3304H83.318ZM96.4773 105.842C96.7099 107.022 96.1138 107.999 95.9974 109.033C95.7793 110.884 95.2268 112.618 94.427 114.279C94.1799 114.803 93.6273 115.24 93.5401 115.765C93.2347 117.659 92.0278 119.102 91.1409 120.661C90.2684 122.205 89.5414 123.939 87.9419 125.017C87.5202 125.309 87.0986 125.804 86.9677 126.416C86.895 126.737 86.6623 126.955 86.3861 127.145C85.1065 128.034 84.045 129.199 82.7654 130.117C81.1224 131.297 79.4211 132.317 77.6326 133.192C76.5857 133.702 75.3788 133.745 74.201 133.716C73.474 133.716 73.2559 133.119 73.2122 132.492C73.1686 131.909 73.5903 131.895 74.0411 131.807C75.2334 131.56 76.4693 131.385 77.5017 130.7C78.8249 129.826 80.0609 128.82 81.3695 127.946C83.7833 126.314 85.5427 124.085 87.1858 121.797C89.1488 119.058 90.4574 115.896 91.8243 112.822C92.1296 112.151 92.5804 111.51 92.7112 110.811C93.1329 108.684 93.5546 106.542 93.7146 104.371C93.9617 100.976 93.3801 97.6535 92.4786 94.375C92.0569 92.816 91.3735 91.388 90.5302 90.0184C89.9049 88.9984 89.4832 87.8328 88.4654 87.0896C88.16 86.8711 87.8983 86.5797 88.0437 86.1425C88.2036 85.7054 88.4945 85.516 88.9888 85.4431C90.123 85.2974 90.9227 85.8366 91.6352 86.5651C93.7436 88.707 94.6452 91.4754 95.5321 94.2293C95.9538 95.5116 96.1719 96.8812 96.4191 98.2217C96.5936 99.096 96.6954 99.9848 96.7535 100.888C96.8553 102.593 96.4627 104.239 96.4773 105.842ZM80.5116 116.1H80.4099C80.4099 116.581 80.4389 117.062 80.4099 117.528C80.1336 120.908 79.0285 124.143 78.6941 127.509C78.6941 127.567 78.6795 127.611 78.6504 127.669C78.4178 128.31 77.778 128.646 77.1237 128.485C76.4693 128.34 76.6293 127.83 76.6002 127.363C76.4257 125.294 77.2109 123.356 77.5017 121.36C77.778 119.553 78.4033 117.79 78.476 115.94C78.4905 115.474 78.5923 115.007 78.665 114.526C78.7377 114.002 79.0285 113.594 79.5665 113.608C80.1918 113.623 80.468 114.089 80.4826 114.687C80.4826 115.168 80.4826 115.634 80.4826 116.115L80.5116 116.1ZM66.7417 120.267C67.7159 119.976 68.1376 119.437 68.5738 118.912C70.0424 117.178 71.5401 115.474 73.0232 113.74C73.9684 112.647 75.1316 111.816 76.2658 110.957C76.8474 110.505 77.1091 110.884 77.3127 111.379C77.5017 111.802 77.2545 112.049 76.9783 112.341C75.9895 113.346 74.928 114.279 74.0847 115.415C72.7906 117.149 71.1184 118.533 69.6789 120.136C68.85 121.069 68.3266 121.054 66.7417 120.267ZM78.4469 109.179C78.5487 107.649 78.6941 106.25 79.6537 105.055C80.0318 104.589 80.279 104.108 81.0206 104.254C81.8058 104.4 82.431 104.779 82.7509 105.478C83.4198 106.95 82.6782 109.441 81.355 110.359C80.6134 110.869 79.7555 110.942 78.9267 110.621C78.2433 110.345 78.4614 109.645 78.4323 109.179H78.4469ZM80.5116 88.1679C81.3405 88.5467 81.355 89.2316 81.3841 89.8435C81.544 93.1657 82.1547 96.4878 81.3405 99.8099C81.2241 100.305 81.1951 100.786 80.5553 100.772C79.9009 100.772 80.0463 100.218 80.0027 99.8245C79.6247 96.6627 79.7992 93.4717 79.7555 90.2952C79.7555 89.523 80.0463 88.8527 80.5262 88.1679H80.5116ZM76.0477 104.677C75.5097 104.793 75.1752 104.487 74.8844 104.079C74.4627 103.482 73.9974 102.914 73.4885 102.374C72.6306 101.456 71.8018 100.495 71.0457 99.4894C70.7258 99.0668 70.2023 98.4986 70.784 97.9449C71.322 97.4203 71.9617 97.7118 72.5434 98.0032C72.7179 98.0906 72.8487 98.28 72.9796 98.4549C74.1428 100.087 75.4515 101.602 76.7892 103.074C77.051 103.351 77.5017 103.642 77.2691 104.152C77.0364 104.677 76.5566 104.72 76.0331 104.677H76.0477ZM89.236 93.3697C89.8467 93.3988 90.123 93.8359 89.7886 94.4625C88.7562 96.4004 87.6947 98.3529 86.5751 100.247C86.0371 101.15 85.3391 101.952 84.6994 102.782C84.5394 103.001 84.2777 103.176 84.0159 103.001C83.8851 102.899 83.8269 102.637 83.8124 102.447C83.8124 102.243 83.856 102.01 83.9287 101.821C85.1065 99.0231 86.5896 96.3858 88.32 93.8942C88.5381 93.5737 88.7998 93.3259 89.236 93.3697ZM87.9128 116.552C86.7787 116.882 85.9644 116.625 85.47 115.78C85.2374 115.372 84.9611 114.993 84.6266 114.643C83.7978 113.798 83.2744 112.778 82.7945 111.714C82.5764 111.248 82.6346 110.84 82.9545 110.563C83.3762 110.199 83.8415 110.359 84.2195 110.738C84.394 110.927 84.6121 111.102 84.7575 111.306C85.9353 112.924 87.0549 114.585 87.8983 116.537L87.9128 116.552ZM69.01 109.835C68.312 109.791 67.934 109.776 67.5705 109.733C67.2651 109.704 66.8434 109.776 66.7998 109.354C66.7707 109.048 66.9743 108.742 67.2215 108.538C67.4832 108.319 67.774 108.246 68.0939 108.203C70.0278 107.94 71.9763 107.678 73.9102 107.387C74.4046 107.314 74.8699 107.314 75.3061 107.562C75.7423 107.809 75.7714 108.305 75.3497 108.582C75.0444 108.786 74.6954 108.96 74.3319 109.019C72.4561 109.325 70.5804 109.602 69.01 109.835ZM91.6498 103.394C92.1151 103.424 92.5222 103.365 92.6967 103.788C92.9439 104.356 92.4204 104.487 92.1005 104.735C92.0133 104.808 91.9261 104.866 91.8388 104.91C90.1376 105.595 88.4363 106.279 86.735 106.935C86.4442 107.052 86.1243 107.11 85.819 107.095C85.4555 107.095 85.0483 107.008 84.9756 106.556C84.9175 106.207 85.1501 105.944 85.4264 105.784C85.6445 105.653 85.9062 105.58 86.1534 105.478C87.6656 104.881 89.1779 104.283 90.7046 103.7C91.0391 103.569 91.4026 103.482 91.6643 103.394H91.6498Z" fill="white"/>
<path fill-rule="evenodd" clip-rule="evenodd" d="M37.9221 127.946C38.1839 129.666 38.242 131.239 39.4053 132.521C39.8851 133.046 40.2777 133.25 40.8884 133.017C42.2116 132.492 43.5494 131.982 44.2182 130.525C44.4363 130.059 44.8144 129.651 45.1052 129.214C45.3088 128.908 45.6141 128.616 45.6723 128.267C45.9776 126.547 46.6901 124.93 46.6465 123.109C46.6029 121.287 46.4284 119.553 45.6432 117.878C44.7272 115.94 43.6948 116.29 42.4297 117.251C41.092 118.286 40.4813 119.845 39.6961 121.273C38.5328 123.386 38.3147 125.761 37.9367 127.932L37.9221 127.946ZM40.8739 126.285C41.0047 125.586 41.0629 124.784 41.4846 124.099C41.9063 123.415 43.0841 123.313 43.4476 123.895C43.971 124.741 43.8838 126.183 43.2295 126.882C42.706 127.436 42.0081 127.422 41.3246 127.276C40.8593 127.174 40.932 126.722 40.8593 126.285H40.8739Z" fill="white"/>
<path fill-rule="evenodd" clip-rule="evenodd" d="M83.303 83.3304C79.4788 83.3158 76.2653 84.7 73.488 87.3228C72.0631 88.6633 70.9289 90.2224 69.6784 91.694C67.4828 94.3022 66.1596 97.3038 64.88 100.378C64.4728 101.34 64.2693 102.404 64.0366 103.438C63.5132 105.74 62.757 107.97 62.4081 110.33C62.1318 112.253 61.8264 114.191 61.7392 116.115C61.681 117.528 61.2157 119.043 61.9573 120.442C62.0445 120.617 62.0882 120.865 62.0591 121.054C61.7101 123.298 62.568 125.178 63.7458 126.984C64.2111 127.684 64.7782 128.325 65.0981 129.126C65.6216 130.481 66.7993 131.137 68.0498 131.574C68.8787 131.866 69.7802 132.128 70.6962 131.968C71.0016 131.909 71.3506 131.851 71.3942 131.458C71.4233 131.152 71.2197 130.933 70.9725 130.86C69.3876 130.321 68.3552 129.024 67.5991 127.771C66.4504 125.833 65.3744 123.808 64.9381 121.448C64.5165 119.204 65.0254 117.018 64.7491 114.832C64.7346 114.687 64.7782 114.512 64.8218 114.366C65.418 112.778 65.1562 111.073 65.4034 109.427C65.5052 108.727 65.796 108.115 65.9851 107.46C66.4358 105.901 66.8284 104.312 67.2792 102.753C67.7299 101.194 68.1516 99.606 68.8496 98.178C69.6057 96.6335 70.3182 95.0307 71.4378 93.6756C72.2521 92.6994 73.1827 91.8252 73.7352 90.6595C73.9824 90.1349 74.5495 90.0038 74.9421 89.6541C76.1344 88.5759 77.225 87.3956 78.6936 86.5942C80.075 85.822 81.4854 85.4869 83.0267 85.3994C84.1173 85.3411 85.2223 85.6034 86.2838 85.1226C87.0399 84.7875 87.1272 84.2192 86.4292 83.7384C86.0366 83.4615 85.6004 83.2867 85.106 83.3012C84.7861 83.3012 84.4662 83.3012 84.1463 83.3012C83.8846 83.3012 83.6229 83.3304 83.3611 83.3304H83.303Z" fill="#2E706B"/>
<path fill-rule="evenodd" clip-rule="evenodd" d="M96.4622 105.842C96.4622 104.239 96.8402 102.593 96.7385 100.888C96.6803 99.9848 96.5785 99.096 96.404 98.2217C96.1423 96.8812 95.9242 95.5261 95.517 94.2293C94.6301 91.4755 93.7285 88.707 91.6202 86.5651C90.9077 85.8366 90.1079 85.2829 88.9738 85.4431C88.4794 85.516 88.1886 85.7054 88.0286 86.1425C87.8832 86.5797 88.1304 86.8565 88.4503 87.0897C89.4827 87.8328 89.8898 88.9984 90.5151 90.0184C91.3584 91.388 92.0418 92.816 92.4635 94.375C93.365 97.6535 93.9467 100.976 93.6995 104.371C93.5395 106.527 93.1178 108.684 92.6962 110.811C92.5653 111.51 92.1 112.151 91.8092 112.822C90.4424 115.911 89.1337 119.058 87.1707 121.797C85.5422 124.085 83.7827 126.314 81.3545 127.946C80.0458 128.835 78.7953 129.826 77.4866 130.7C76.4543 131.385 75.2183 131.574 74.026 131.807C73.5752 131.895 73.1535 131.924 73.1972 132.492C73.2408 133.104 73.4443 133.702 74.1859 133.716C75.3492 133.745 76.5706 133.716 77.6175 133.192C79.406 132.317 81.1073 131.297 82.7504 130.117C84.0299 129.199 85.0914 128.034 86.371 127.145C86.6473 126.955 86.8799 126.737 86.9526 126.416C87.0835 125.804 87.5051 125.309 87.9268 125.017C89.5263 123.939 90.2533 122.205 91.1258 120.661C92.0128 119.102 93.2196 117.645 93.525 115.765C93.6122 115.24 94.1648 114.803 94.412 114.279C95.2262 112.618 95.7642 110.884 95.9823 109.033C96.1132 107.999 96.7094 107.022 96.4622 105.842Z" fill="#2E706B"/>
<path fill-rule="evenodd" clip-rule="evenodd" d="M80.4973 116.086C80.4973 115.605 80.4973 115.138 80.4973 114.658C80.4827 114.06 80.1919 113.594 79.5812 113.579C79.0432 113.565 78.7524 113.958 78.6797 114.497C78.607 114.978 78.5052 115.444 78.4907 115.911C78.4034 117.776 77.7927 119.524 77.5165 121.331C77.2111 123.327 76.4404 125.265 76.6149 127.334C76.644 127.815 76.4841 128.31 77.1384 128.456C77.7927 128.616 78.4325 128.267 78.6652 127.64C78.6797 127.596 78.6942 127.538 78.7088 127.48C79.0432 124.114 80.1483 120.879 80.4246 117.499C80.4682 117.033 80.4246 116.552 80.4246 116.071H80.5264L80.4973 116.086Z" fill="#2E706B"/>
<path fill-rule="evenodd" clip-rule="evenodd" d="M66.7268 120.267C68.3118 121.04 68.8207 121.054 69.664 120.136C71.1036 118.533 72.7757 117.164 74.0699 115.415C74.9132 114.279 75.9747 113.346 76.9635 112.341C77.2397 112.064 77.4869 111.816 77.2979 111.379C77.0798 110.884 76.8326 110.505 76.251 110.957C75.1168 111.816 73.9535 112.632 73.0084 113.74C71.5398 115.474 70.0421 117.178 68.559 118.912C68.1227 119.437 67.7011 119.976 66.7268 120.267Z" fill="#2E706B"/>
<path fill-rule="evenodd" clip-rule="evenodd" d="M78.4321 109.164C78.4467 109.631 78.2431 110.33 78.9265 110.607C79.7408 110.927 80.6132 110.84 81.3548 110.345C82.678 109.427 83.4196 106.935 82.7507 105.463C82.4308 104.764 81.8201 104.385 81.0203 104.239C80.2788 104.108 80.0316 104.589 79.6535 105.041C78.6938 106.236 78.5484 107.634 78.4467 109.164H78.4321Z" fill="#2E706B"/>
<path fill-rule="evenodd" clip-rule="evenodd" d="M80.4969 88.1533C80.0171 88.8527 79.7117 89.5084 79.7262 90.2807C79.7699 93.4571 79.5954 96.6335 79.9734 99.81C80.0171 100.203 79.8862 100.742 80.526 100.757C81.1658 100.757 81.1949 100.291 81.3112 99.7954C82.14 96.4732 81.5147 93.1511 81.3548 89.829C81.3257 89.217 81.2966 88.5322 80.4824 88.1533H80.4969Z" fill="#2E706B"/>
<path fill-rule="evenodd" clip-rule="evenodd" d="M76.0328 104.662C76.5562 104.706 77.0361 104.662 77.2687 104.137C77.5014 103.627 77.0361 103.351 76.7889 103.059C75.4366 101.573 74.1425 100.058 72.9792 98.4403C72.8629 98.2654 72.7175 98.076 72.543 97.9886C71.9759 97.6972 71.3361 97.4203 70.7836 97.9303C70.202 98.484 70.7254 99.0523 71.0453 99.4748C71.8014 100.48 72.6157 101.442 73.4882 102.36C73.9971 102.899 74.4624 103.453 74.8841 104.065C75.1749 104.473 75.5093 104.793 76.0473 104.662H76.0328Z" fill="#2E706B"/>
<path fill-rule="evenodd" clip-rule="evenodd" d="M89.2064 93.3551C88.7702 93.2968 88.5085 93.5591 88.2904 93.8796C86.56 96.3712 85.0769 99.0086 83.8991 101.806C83.8118 101.996 83.7682 102.214 83.7828 102.433C83.7828 102.622 83.8555 102.899 83.9863 102.986C84.2335 103.176 84.4952 102.986 84.6697 102.768C85.3095 101.937 86.0075 101.136 86.5455 100.233C87.6651 98.3383 88.7266 96.3858 89.759 94.4479C90.0934 93.8213 89.8317 93.3842 89.2064 93.3551Z" fill="#2E706B"/>
<path fill-rule="evenodd" clip-rule="evenodd" d="M87.8839 116.537C87.0405 114.57 85.9209 112.924 84.7431 111.306C84.5832 111.102 84.3796 110.913 84.2051 110.738C83.8271 110.359 83.3618 110.199 82.9401 110.563C82.6202 110.84 82.562 111.248 82.7801 111.714C83.26 112.778 83.798 113.812 84.6123 114.643C84.9467 114.993 85.223 115.372 85.4556 115.78C85.95 116.615 86.7643 116.872 87.8984 116.552L87.8839 116.537Z" fill="#2E706B"/>
<path fill-rule="evenodd" clip-rule="evenodd" d="M68.9811 109.82C70.5515 109.587 72.4272 109.325 74.3029 109.004C74.6519 108.946 75.0154 108.756 75.3208 108.567C75.757 108.29 75.7134 107.795 75.2772 107.547C74.8409 107.299 74.3756 107.299 73.8813 107.372C71.9474 107.664 70.0134 107.926 68.065 108.188C67.7451 108.232 67.4543 108.305 67.1926 108.523C66.9454 108.742 66.7418 109.033 66.7709 109.339C66.8145 109.762 67.2362 109.674 67.5415 109.718C67.9051 109.762 68.2831 109.762 68.9811 109.82Z" fill="#2E706B"/>
<path fill-rule="evenodd" clip-rule="evenodd" d="M91.6207 103.38C91.3589 103.467 90.9954 103.555 90.661 103.686C89.1487 104.269 87.6365 104.866 86.1097 105.463C85.8626 105.565 85.6154 105.624 85.3827 105.769C85.1064 105.93 84.8738 106.192 84.932 106.542C85.0047 106.993 85.4118 107.066 85.7753 107.081C86.0807 107.081 86.4151 107.022 86.6914 106.92C88.3926 106.25 90.0939 105.565 91.7951 104.895C91.8969 104.866 91.9696 104.793 92.0569 104.72C92.3622 104.473 92.8857 104.341 92.653 103.773C92.464 103.351 92.0569 103.409 91.6061 103.38H91.6207Z" fill="#2E706B"/>
<path fill-rule="evenodd" clip-rule="evenodd" d="M40.8735 126.285C40.9462 126.722 40.8735 127.174 41.3388 127.276C42.0222 127.436 42.7202 127.451 43.2436 126.882C43.8979 126.183 43.9852 124.741 43.4617 123.895C43.0982 123.313 41.9059 123.415 41.4987 124.099C41.0771 124.784 41.0189 125.586 40.888 126.285H40.8735Z" fill="#2E706B"/>
</g>
<defs>
<clipPath id="clip0_125_20818">
<rect width="110" height="138" fill="white" transform="matrix(-1 0 0 1 110 0)"/>
</clipPath>
</defs>
</svg>
