<svg width="186" height="249" viewBox="0 0 186 249" fill="none" xmlns="http://www.w3.org/2000/svg">
<path d="M0.157227 49.5404L55.7178 22.8485L143.399 79.5428V236.393H0.157227L0.157227 49.5404Z" fill="white"/>
<path opacity="0.3" fill-rule="evenodd" clip-rule="evenodd" d="M1.0791 50.1165L90.5431 106.891L142.729 80.3775V77.9299L131.226 71.5289L121.629 76.4413L118.013 73.3432L126.839 68.0885L72.6308 33.0002L63.3248 37.7072L59.4173 34.8145L68.2263 29.8679L56.3324 23.0214L1.0791 50.1165Z" fill="#E06765"/>
<path opacity="0.6" fill-rule="evenodd" clip-rule="evenodd" d="M90.6719 231.54V107.846L144.278 81.7271L142.975 229.853C142.975 229.853 120.6 228.866 114.966 231.666C109.333 234.465 90.6895 231.54 90.6895 231.54H90.6719Z" fill="#E06765"/>
<path fill-rule="evenodd" clip-rule="evenodd" d="M92.6827 115.722C92.6827 117.554 92.7341 119.368 92.6827 121.2C92.5799 124.452 92.7341 127.704 92.7341 130.956C92.7341 132.291 92.6656 133.626 92.717 134.961C92.8369 138.196 92.597 141.448 92.7513 144.683C92.8541 146.788 92.6827 148.911 92.7855 151.016C92.8369 151.957 92.6827 152.916 92.9055 153.892C93.094 154.679 92.6141 155.449 92.717 156.271C92.8884 157.657 92.6141 159.061 92.717 160.43C92.8027 161.594 92.3914 162.775 92.9055 163.922C92.9055 163.956 92.9569 163.99 92.9398 164.024C92.5627 165.65 92.7684 167.276 92.7684 168.903C92.7684 170.922 92.5285 172.942 92.8541 174.962C92.9226 175.407 92.6656 175.766 92.6827 176.177C92.6998 178.864 92.5799 181.551 92.7341 184.239C92.8369 186.104 92.7341 187.953 92.7341 189.802C92.7512 192.455 92.9055 195.125 92.7341 197.761C92.6313 199.369 93.1454 200.995 92.5113 202.587C93.0769 203.939 92.2714 205.36 92.9398 206.695C92.5285 207.363 92.9055 208.03 92.8884 208.698C92.7855 210.974 92.597 213.234 92.717 215.527C92.8369 217.598 92.6827 219.669 92.6313 221.74C92.6313 222.322 92.8369 222.921 92.6827 223.503C92.5113 224.205 92.0143 224.479 91.0374 224.376C90.6604 224.342 90.369 224.257 90.2834 223.966C90.1805 223.589 90.0091 223.212 89.992 222.836C89.9235 221.261 89.5121 219.686 89.9406 218.095C89.992 217.906 89.9235 217.684 89.8892 217.478C89.7178 216.195 89.7692 214.928 89.992 213.662C90.0606 213.251 90.0948 212.84 89.992 212.429C89.4436 210.341 89.992 208.236 90.0434 206.148C90.0434 205.497 89.9235 204.847 89.9063 204.179C89.9063 203.666 89.6835 203.152 90.112 202.673C90.3862 202.365 89.872 202.159 89.8892 201.903C89.9749 200.482 89.7521 199.061 89.8206 197.658C89.9063 195.741 90.0263 193.807 89.9749 191.89C89.9235 189.973 90.0606 188.056 89.9749 186.121C89.9235 185.077 90.0606 183.999 89.9577 182.955C89.872 182.048 90.0434 181.124 89.8206 180.216C89.7007 179.72 90.1463 179.189 90.0091 178.676C89.5978 177.29 89.7349 175.852 89.8549 174.482C89.9749 173.267 89.7007 172.035 90.0777 170.837C90.0777 170.802 90.0777 170.768 90.0777 170.734C89.4436 169.33 90.2491 167.893 89.8549 166.438C89.5636 165.411 89.6321 164.264 89.9749 163.186C90.0091 163.083 90.0263 162.98 90.0091 162.878C89.8378 161.217 90.112 159.54 90.0091 157.88C89.8892 156.288 90.2319 154.696 89.9063 153.104C89.6835 152.009 90.1634 150.913 90.0777 149.818C89.9235 148.106 90.112 146.395 89.9406 144.666C89.8549 143.725 89.7349 142.766 89.8549 141.825C90.1805 139.343 90.0777 136.861 89.9749 134.396C89.9235 133.198 89.8206 131.966 89.9063 130.802C90.0434 129.039 89.9577 127.293 90.0091 125.547C90.0434 124.007 90.0434 122.449 89.9577 120.909C89.9063 119.864 89.7864 118.82 89.9235 117.742C90.0434 116.766 90.0263 115.757 90.0263 114.781C90.0263 113.84 90.2662 112.915 90.609 112.008C90.6775 111.803 90.7632 111.597 90.9003 111.426C91.2431 110.998 91.7401 110.947 92.1686 111.358C92.597 111.751 92.8027 112.214 92.7513 112.727C92.6656 113.737 92.9398 114.73 92.7513 115.739L92.6827 115.722Z" fill="#15787A"/>
<path fill-rule="evenodd" clip-rule="evenodd" d="M88.5695 107.371C88.261 107.371 87.9697 107.336 87.7126 107.165C85.7074 105.882 83.668 104.649 81.68 103.331C80.9773 102.852 80.326 102.304 79.572 101.911C77.9781 101.123 76.6242 99.9764 75.0818 99.1035C73.7964 98.3846 72.5796 97.4261 71.3285 96.5532C69.9575 95.5947 68.4836 94.756 67.1125 93.7974C65.3645 92.5822 63.4107 91.6237 61.7654 90.3228C60.1031 89.0049 58.2007 88.1148 56.5383 86.814C54.9102 85.5474 52.9907 84.6231 51.2598 83.5106C49.2203 82.1926 47.2323 80.772 45.1929 79.4369C43.719 78.4613 42.1594 77.6226 40.7884 76.4244C40 75.7398 38.8689 75.3975 37.9606 74.7813C35.5784 73.1895 33.0934 71.7346 30.7968 70.023C29.7686 69.2527 28.6374 68.6365 27.6434 67.815C26.9236 67.233 26.0496 66.8051 25.2612 66.343C22.879 64.9565 20.5997 63.4161 18.3203 61.8756C16.6922 60.7802 15.1497 59.5649 13.3674 58.7262C12.3562 58.247 11.705 57.3227 10.7109 56.8092C9.30562 56.0732 8.0374 55.1147 6.66635 54.3102C6.13507 54.0021 5.72375 53.5742 5.26102 53.1977C4.79829 52.804 4.90112 52.2734 5.14105 51.8284C5.39813 51.3149 5.91227 51.1951 6.42641 51.332C6.75204 51.4176 7.06053 51.6401 7.35187 51.8284C9.28848 53.1292 11.1565 54.5327 13.1788 55.6966C14.0186 56.1759 14.5499 57.0317 15.3554 57.3741C16.2294 57.7506 17.0521 58.1785 17.8233 58.692C20.1026 60.1811 22.3649 61.7044 24.6443 63.2107C26.5809 64.4944 28.6203 65.6583 30.5226 66.9934C32.5278 68.3798 34.7386 69.4752 36.5724 71.0842C36.6752 71.1869 36.7952 71.3067 36.9152 71.358C39.5544 72.5562 41.7138 74.4903 44.1989 75.9281C46.3754 77.1776 48.3463 78.8378 50.5228 80.0873C52.2024 81.0458 53.5906 82.398 55.3729 83.2367C56.9154 83.9727 58.1836 85.2735 59.6746 86.1465C61.834 87.4302 63.8049 88.9878 66.05 90.1688C67.9695 91.1615 69.6319 92.6506 71.4314 93.8659C72.9566 94.8929 74.4819 95.9199 76.0758 96.7928C77.3612 97.4946 78.4409 98.4531 79.6748 99.2062C82.0227 100.644 84.2507 102.304 86.5986 103.742C87.6098 104.358 88.3467 105.231 89.2721 105.899C89.6149 106.138 89.7863 106.532 89.5806 106.96C89.375 107.422 88.9465 107.354 88.5524 107.371H88.5695Z" fill="#15787A"/>
<path fill-rule="evenodd" clip-rule="evenodd" d="M93.3519 107.404C92.6664 107.404 92.5464 106.925 92.4093 106.514C92.2037 105.932 92.3065 105.419 92.8378 105.077C93.0434 104.957 93.3176 104.974 93.5404 104.854C95.477 103.861 97.4479 102.937 99.4188 102.013C103.378 100.164 107.285 98.1616 111.261 96.3473C113.026 95.5428 114.672 94.5501 116.454 93.7799C118.956 92.6844 121.39 91.435 123.841 90.2368C127.817 88.3027 131.793 86.3514 135.803 84.5029C137.208 83.8696 138.597 83.2192 140.019 82.5859C140.636 82.312 141.116 82.6201 141.047 83.2705C140.979 84.075 140.533 84.6227 139.848 85.0506C138.254 85.992 136.506 86.6253 134.86 87.4298C131.553 89.0216 128.314 90.7503 124.955 92.2052C122.487 93.2664 120.225 94.7213 117.705 95.6969C116.06 96.3302 114.483 97.2374 112.889 98.0418C109.822 99.5823 106.703 101.02 103.618 102.509C100.413 104.067 97.208 105.641 93.986 107.199C93.7632 107.302 93.5233 107.353 93.3691 107.404H93.3519Z" fill="#15787A"/>
<path fill-rule="evenodd" clip-rule="evenodd" d="M51.7911 180.251C51.9454 181.295 51.4484 182.322 51.7397 183.366C51.8083 183.623 51.6883 183.948 51.6026 184.239C51.2941 185.3 50.0945 185.728 49.169 185.095C48.8948 184.906 48.7405 184.632 48.7577 184.341C48.9462 181.226 48.4321 178.077 48.9462 174.979C49.1004 174.003 48.7748 173.062 48.8777 172.069C48.9976 170.888 49.289 169.724 49.3747 168.543C49.4089 168.235 49.4775 167.944 49.8545 167.893C50.2316 167.841 50.5229 167.978 50.7457 168.304C51.3113 169.108 51.6369 170.015 51.6883 170.939C51.8425 174.037 51.6198 177.153 51.7911 180.268V180.251Z" fill="#15787A"/>
<path fill-rule="evenodd" clip-rule="evenodd" d="M15.6984 213.148C16.0411 214.5 15.8869 215.459 14.7901 216.298C13.2305 217.496 11.7909 218.865 10.197 220.029C9.1859 220.765 8.00336 221.193 6.90652 221.758C6.66659 221.878 6.44379 221.963 6.18672 221.929C5.8611 221.878 5.62116 221.706 5.53547 221.398C5.46692 221.159 5.53547 220.936 5.74113 220.731C6.52948 220.012 7.28356 219.225 8.12333 218.54C9.70004 217.205 11.3282 215.904 12.9563 214.62C13.7275 214.004 14.6015 213.542 15.7155 213.148H15.6984Z" fill="#15787A"/>
<path fill-rule="evenodd" clip-rule="evenodd" d="M41.1316 111.615C41.0973 112.385 40.943 113.002 40.6517 113.583C40.1033 114.696 39.5034 115.791 38.7494 116.784C37.8068 118.068 36.8299 119.317 35.853 120.584C35.356 121.217 34.8419 121.851 34.1221 122.21C33.7279 122.415 33.2137 122.484 32.9224 122.005C32.6482 121.543 32.8538 121.115 33.2137 120.824C34.3277 119.934 35.1332 118.804 35.7159 117.554C36.4186 116.082 37.464 114.833 38.3209 113.481C38.6808 112.899 38.8351 112.231 39.3321 111.718C39.5377 111.512 39.692 111.239 39.949 111.085C40.2061 110.93 40.4803 110.776 40.7888 110.93C41.0973 111.085 41.0973 111.41 41.0973 111.598L41.1316 111.615Z" fill="#15787A"/>
<path fill-rule="evenodd" clip-rule="evenodd" d="M43.0852 95.6113C43.068 97.0319 43.2737 98.4868 42.8624 99.8903C42.571 99.7534 42.5196 99.4967 42.4854 99.2057L42.5196 98.3156C42.9138 97.9049 42.7253 97.3742 42.7938 96.895C42.8453 96.4671 42.7081 95.9878 43.068 95.6284L43.0852 95.6113Z" fill="#15787A"/>
<path fill-rule="evenodd" clip-rule="evenodd" d="M34.4136 101.02C34.2594 100.969 34.1394 100.849 34.3279 100.746C34.5164 100.643 34.6878 100.746 34.7564 100.969C34.6364 100.986 34.5336 101.003 34.4136 101.02Z" fill="#15787A"/>
<path fill-rule="evenodd" clip-rule="evenodd" d="M47.0617 247.706C47.2497 247.741 47.3352 247.86 47.301 248.048C47.1301 247.997 47.0446 247.877 47.0617 247.706Z" fill="#15787A"/>
<path fill-rule="evenodd" clip-rule="evenodd" d="M31.3975 153.447C31.089 154.714 30.8662 155.792 30.9005 156.939C30.9519 158.445 30.6777 159.951 30.5406 161.441C30.3007 163.94 30.4035 166.439 30.3349 168.938C30.2321 172.566 30.0436 176.195 30.0093 179.841C30.0093 181.604 29.8894 183.367 29.8037 185.129C29.7523 186.002 30.0779 186.875 29.7865 187.765C29.6666 188.142 29.5637 188.501 29.1353 188.587C27.6785 188.895 26.2561 189.443 24.6965 188.861C23.4626 188.416 22.5542 187.337 22.3314 186.02C22.1086 184.702 22.28 183.384 22.2286 182.1C22.1772 180.85 22.7428 179.584 22.1943 178.351C22.5714 176.588 22.3486 174.774 22.4514 172.994C22.6057 170.358 22.9484 167.739 22.8284 165.069C22.7428 163.152 22.7085 161.15 23.1712 159.215C23.2055 159.079 23.2398 158.942 23.2398 158.805C23.1712 156.203 23.5654 153.636 23.8053 151.068C23.9596 149.408 23.9081 147.713 24.0967 146.036C24.2338 144.735 24.4566 143.417 24.4737 142.116C24.4737 141.038 24.628 139.977 24.6794 138.916C24.7651 136.69 25.1078 134.551 25.879 132.429C26.616 130.392 27.6785 128.543 28.4498 126.541C28.8611 125.496 29.8894 125.205 30.6263 124.606C31.0719 124.247 31.7231 124.606 32.2544 124.778C34.1739 125.325 36.0934 125.24 37.9786 124.658C38.6127 124.469 39.1611 124.538 39.7609 124.743C40.3608 124.949 40.6692 125.428 40.515 125.941C40.2408 126.866 40.5664 127.722 40.5664 128.595C40.5493 133.216 40.5836 137.854 40.5321 142.493C40.515 144.461 40.4122 146.43 40.395 148.381C40.3608 150.623 40.5664 152.865 40.5493 155.125C40.5493 157.761 40.6521 160.396 40.4979 163.015C40.4122 164.607 40.4122 166.182 40.3436 167.774C40.2922 168.989 40.515 170.221 40.515 171.436C40.515 172.703 40.395 173.987 40.3779 175.236C40.3608 176.794 40.1208 178.403 40.4979 179.96C40.5493 180.183 40.6007 180.44 40.5664 180.662C40.2579 182.733 40.7207 184.804 40.5493 186.841C40.3265 189.306 40.6692 191.788 40.395 194.27C40.2922 195.279 40.635 196.426 40.515 197.487C40.2751 199.593 40.7035 201.681 40.3779 203.803C40.1551 205.207 40.6007 206.696 40.5321 208.168C40.4636 210.239 40.5493 212.31 40.4293 214.381C40.3779 215.323 40.4293 216.332 40.4293 217.308C40.4293 218.061 40.138 218.438 39.4524 218.797C37.5158 219.79 35.5449 219.807 33.5741 219.174C32.0488 218.677 30.4549 218.54 28.9296 217.958C28.1584 217.667 27.9185 217.188 27.7985 216.504C27.113 212.995 26.7702 209.435 26.9245 205.857C27.0102 203.735 26.5646 201.63 26.6845 199.507C26.7874 197.693 26.5303 195.861 26.8902 194.064C26.993 193.551 26.8902 193.037 26.7531 192.524C26.3932 191.172 26.5817 190.915 27.9527 190.504C28.5354 190.333 29.1353 190.213 29.718 189.991C31.0376 189.511 31.5003 188.587 31.5003 187.269C31.5003 184.53 31.4318 181.775 31.5518 179.036C31.7403 175.014 31.7231 171.009 31.8774 166.986C31.9459 165.155 32.1173 163.306 32.083 161.475C32.0316 158.907 31.8431 156.323 31.706 153.755C31.706 153.687 31.6032 153.636 31.4147 153.413L31.3975 153.447Z" fill="#76CBEC"/>
<path fill-rule="evenodd" clip-rule="evenodd" d="M7.21532 166.781C7.26673 163.306 7.0268 159.849 7.07821 156.357C7.09535 154.765 6.99252 153.139 6.88969 151.53C6.64976 147.405 6.56407 143.28 6.70118 139.138C6.76973 137.135 6.87256 135.116 6.85542 133.096C6.83828 130.203 6.82114 127.294 7.42098 124.435C7.62663 123.46 8.02081 122.535 8.50068 121.662C9.66607 119.591 10.9857 117.64 12.631 115.911C13.0423 115.483 13.385 115.278 13.9677 115.637C14.5676 115.997 15.2531 116.202 15.8529 116.545C16.607 116.955 17.3611 117.298 18.2009 117.503C19.1092 117.709 19.3491 118.496 18.7836 119.249C18.4751 119.66 18.1152 120.036 17.7553 120.413C16.4871 121.765 16.1443 123.579 15.4416 125.205C15.1503 125.89 15.0303 126.643 14.6533 127.311C14.5676 127.482 14.4819 127.67 14.4819 127.841C14.5504 130.118 13.5907 132.24 13.4536 134.5C13.3679 135.972 12.7167 137.409 12.511 138.881C12.2025 141.089 11.6198 143.246 11.6027 145.505C11.6027 147.371 11.2428 149.237 11.2599 151.119C11.2599 152.489 11.1914 153.841 11.1571 155.21C11.14 156.066 11.4656 156.665 12.3053 156.956C12.6138 157.059 12.888 157.264 13.1965 157.384C14.8418 158.069 15.0474 158.36 14.996 160.14C14.9789 160.996 14.9103 161.834 15.0817 162.673C15.1846 163.204 15.116 163.82 14.9446 164.35C14.5676 165.531 14.5504 166.729 14.6361 167.945C14.6875 168.698 14.5676 169.451 14.499 170.187C14.3448 172.207 14.4133 174.244 14.3619 176.263C14.2762 179.224 13.9677 182.168 13.9677 185.129C13.9677 187.628 13.7792 190.093 13.7621 192.592C13.7621 194.218 13.5393 195.844 13.4879 197.505C13.4536 198.172 13.6078 198.788 13.625 199.439C13.6421 200.26 13.5222 200.466 12.6995 200.534C11.4827 200.637 10.283 200.859 9.08338 200.38C8.44926 200.14 8.08936 199.832 7.88371 199.165C7.40384 197.659 7.48953 196.118 7.35242 194.595C7.19818 192.78 7.28387 190.949 7.1639 189.1C6.95825 185.934 6.87256 182.733 7.11249 179.567C7.30101 177.033 7.00966 174.534 7.1639 172.018C7.26673 170.255 7.00966 168.51 7.21532 166.764V166.781Z" fill="#E06765"/>
<path fill-rule="evenodd" clip-rule="evenodd" d="M16.1614 203.119C16.0757 199.815 16.0928 196.512 15.6472 193.243C15.5273 192.404 15.9557 191.685 15.9214 190.863C15.7843 187.697 15.8015 184.548 16.0757 181.381C16.1614 180.474 16.0757 179.515 16.11 178.574C16.2299 176.161 16.1785 173.73 16.5213 171.368C16.8983 168.732 16.4699 166.113 16.864 163.477C17.0526 162.177 16.864 160.824 17.0183 159.489C17.104 158.856 17.3439 158.548 17.9609 158.48C18.2865 158.462 18.6121 158.325 18.9378 158.343C21.2 158.531 21.0286 158.565 21.2171 160.499C21.3714 162.023 21.0972 163.529 20.8915 165.001C20.583 167.397 20.7201 169.793 20.4802 172.207C20.3602 173.405 20.3088 174.637 20.3774 175.87C20.5145 178.283 19.8632 180.662 20.1546 183.076C20.3602 184.702 20.4116 186.362 21.0629 187.919C21.5428 189.049 22.314 189.956 23.4108 190.47C25.0389 191.223 25.6388 192.387 25.5188 194.184C25.3474 196.563 25.6216 198.977 25.3988 201.356C25.1932 203.512 25.3988 205.669 25.2103 207.826C25.1246 208.733 25.3131 209.606 25.3988 210.496C25.5188 211.694 25.2617 212.019 24.0963 212.225C23.1195 212.413 22.1426 212.584 21.1657 212.704C19.7947 212.875 18.5264 212.379 17.3953 211.711C16.6412 211.249 16.5727 210.29 16.4185 209.435C16.0414 207.329 16.1614 205.207 16.1785 203.084L16.1614 203.119Z" fill="#F0E456"/>
<path fill-rule="evenodd" clip-rule="evenodd" d="M19.4685 156.186C17.7889 156.186 16.4007 155.895 15.0125 155.673C14.3956 155.57 13.7957 155.176 13.2473 154.834C12.6475 154.457 12.3733 153.892 12.3904 153.156C12.4418 150.572 12.5789 147.987 12.9388 145.42C13.3844 142.305 13.9157 139.207 14.447 136.109C15.0125 132.839 15.4581 129.519 16.7949 126.404C17.3605 125.069 17.9089 123.734 18.5259 122.433C18.8858 121.663 19.3999 120.927 20.0683 120.345C21.0623 119.472 22.2277 119.54 23.1532 120.499C24.0958 121.474 25.2783 122.039 26.5808 122.313C27.6605 122.553 28.2775 123.699 27.849 124.726C27.0778 126.592 25.9981 128.269 25.0555 130.032C24.5585 130.974 24.1986 132.052 24.0786 133.096C23.8387 135.167 23.4274 137.187 23.136 139.241C23.0332 140.028 22.9304 140.816 22.9304 141.603C22.9646 144.684 22.4334 147.713 22.3134 150.777C22.2791 151.667 22.1077 152.557 22.0906 153.43C22.0563 154.372 21.5422 155.022 21.1309 155.741C20.6853 156.545 19.8284 156.049 19.4342 156.186H19.4685Z" fill="#F0E456"/>
<path fill-rule="evenodd" clip-rule="evenodd" d="M28.5009 119.933C28.2096 119.882 27.8325 119.984 27.4726 119.779C27.1299 119.591 26.8385 119.334 26.8042 118.94C26.77 118.495 27.0956 118.256 27.4726 118.136C29.632 117.417 30.866 115.705 32.0142 113.908C32.9226 112.487 33.848 111.067 34.9449 109.783C35.4761 109.167 36.0931 108.842 36.9329 108.91C37.8926 108.996 38.1497 109.578 37.8069 110.468C36.9672 112.624 35.339 114.285 34.2251 116.253C33.351 117.776 32.0828 118.803 30.5061 119.522C29.8891 119.796 29.2721 119.984 28.5181 119.933H28.5009Z" fill="#E06765"/>
<path fill-rule="evenodd" clip-rule="evenodd" d="M0 184.787C0.514144 187.748 0.257072 190.743 0.239934 193.704C0.205658 197.556 0.342763 201.407 0.18852 205.258C0.0856907 207.825 0.394177 210.358 0.257072 212.926C0.119967 215.373 0.257072 217.838 0.205658 220.286C0.205658 221.107 0.342763 221.929 0.377039 222.751C0.377039 222.751 0.822631 225.164 2.26223 224.291C3.70184 223.435 3.01631 220.748 3.11914 219.738C3.25625 218.095 3.05059 216.4 2.99917 214.74C2.94776 212.738 2.93062 210.701 3.11914 208.681C3.23911 207.243 3.34194 205.754 3.08486 204.351C2.81065 202.844 3.13628 201.39 3.03345 199.918C2.98204 199.062 3.08486 198.155 3.11914 197.282C3.17056 196.22 2.82779 195.193 2.98204 194.184C3.37621 191.531 2.94776 188.86 3.13628 186.19C3.29052 184.034 3.08486 181.86 3.08486 179.703C3.08486 177.153 3.29052 174.603 3.13628 172.069C3.05059 170.615 3.20483 169.142 3.102 167.671C2.9649 165.582 3.08486 163.426 3.11914 161.286C3.15342 159.13 3.102 156.956 3.08486 154.799C3.08486 151.479 3.01631 148.141 3.08486 144.803C3.102 143.947 2.87921 143.126 2.9649 142.304C3.18769 139.925 3.08486 137.563 3.05059 135.184C3.03345 133.661 2.91348 132.137 3.11914 130.597C3.29052 129.279 3.23911 127.909 3.05059 126.592C2.93062 125.719 2.89635 124.914 3.05059 124.075C3.11914 123.784 3.15342 123.493 3.13628 123.202C3.03345 120.909 3.11914 118.615 3.05059 116.339C2.93062 112.317 3.22197 108.294 3.102 104.289C2.99917 101.123 3.15342 97.9731 3.08486 94.8066C3.03345 93.1806 3.15342 91.5545 3.01631 89.9114C2.91348 88.5592 3.11914 87.1728 3.05059 85.7864C2.99917 84.6053 3.17056 83.4243 3.15342 82.2433C3.11914 80.429 2.9649 78.5975 2.9649 76.7832C2.9649 74.9689 3.05059 73.1717 3.17056 71.3574C3.25625 70.1592 2.91348 68.9953 3.01631 67.7972C3.13628 66.6333 3.29052 65.4009 3.05059 64.2883C2.75924 62.8506 2.93062 61.4128 2.98204 60.0264C3.06773 57.5274 3.05059 55.0285 3.01631 52.5295C3.01631 51.2458 3.15342 50.1161 4.73013 49.4999C6.23828 48.918 7.7293 48.1991 9.18604 47.4631C11.0027 46.5559 12.8365 45.6659 14.6702 44.7758C16.8125 43.7489 19.0233 42.8246 21.1313 41.6949C24.1134 40.1031 27.1639 38.614 30.2317 37.2276C32.7167 36.0979 35.0989 34.7628 37.6011 33.6674C40.9601 32.2125 44.1993 30.4838 47.5069 28.9091C50.0605 27.6767 52.6998 26.5984 55.1848 25.2291C56.3845 24.5615 57.2585 24.5958 58.2868 25.2975C58.4068 25.3831 58.5096 25.5029 58.6296 25.5885C60.9089 27.2659 63.3597 28.7208 65.759 30.2441C68.8782 32.2467 71.8945 34.4034 75.1165 36.2519C76.3161 36.9366 77.3273 37.9293 78.5441 38.5797C79.3153 38.9905 80.0694 39.4698 80.772 39.949C83.2742 41.6949 85.8278 43.3894 88.4156 45.0326C89.701 45.837 91.0378 46.573 92.2889 47.3946C93.4885 48.1648 94.7053 48.9351 95.8365 49.8251C97.5846 51.2115 99.6583 52.17 101.423 53.488C103.292 54.8915 105.417 55.85 107.233 57.322C108.502 58.349 109.975 59.1021 111.364 59.975C113.472 61.2759 115.408 62.8506 117.585 64.0658C119.041 64.8874 120.652 65.6405 121.835 66.7531C123.343 68.1566 125.297 68.7899 126.822 70.1763C128.21 71.4429 130.078 72.1961 131.638 73.36C133.592 74.7806 135.7 75.9959 137.756 77.2967C138.819 77.9642 139.693 78.8885 140.91 79.3507C141.287 79.5047 141.818 79.7957 141.698 80.4632C141.407 82.346 141.784 84.2459 141.75 86.1287C141.715 88.1313 141.612 90.1339 141.681 92.1365C141.732 93.6256 141.801 95.1318 141.647 96.6038C141.475 98.1101 142.332 99.6505 141.475 101.123C141.407 101.259 141.544 101.499 141.578 101.704C141.904 104.067 141.784 106.446 141.767 108.808C141.767 110.947 141.732 113.087 141.715 115.226C141.715 117.126 141.869 119.043 141.75 120.943C141.595 123.237 141.75 125.513 141.664 127.807C141.595 129.844 141.818 131.88 141.732 133.917C141.578 137.101 141.647 140.267 141.732 143.434C141.818 146.258 141.39 149.099 141.904 151.906C141.218 154.046 141.904 156.237 141.75 158.411C141.561 160.687 141.578 163.049 141.75 165.377C141.921 167.585 141.578 169.81 141.647 172.035C141.681 173.028 141.972 174.038 141.818 174.996C141.544 176.793 141.732 178.556 141.681 180.337C141.612 183.417 141.75 186.498 141.681 189.579C141.664 190.384 141.972 191.137 141.835 191.924C141.424 194.235 141.938 196.546 141.75 198.856C141.664 199.918 141.75 201.013 141.801 202.091C141.869 203.957 141.63 205.823 141.715 207.705C141.835 210.632 141.835 213.576 141.75 216.486C141.681 218.574 141.715 220.68 141.715 222.768H144.663C144.612 220.32 144.543 217.872 144.629 215.408C144.766 211.745 144.663 208.082 144.629 204.419C144.629 203.324 144.526 202.245 144.629 201.15C144.834 199.113 144.8 197.059 144.56 195.039C144.355 193.311 144.526 191.582 144.492 189.853C144.457 187.697 144.594 185.523 144.646 183.366C144.68 182.014 144.303 180.662 144.457 179.344C144.732 176.999 144.526 174.654 144.629 172.309C144.68 170.923 144.629 169.468 144.577 168.03C144.509 166.387 144.509 164.761 144.509 163.135C144.509 160.105 144.697 157.076 144.56 154.063C144.474 152.146 144.56 150.195 144.56 148.295C144.56 145.693 144.337 143.092 144.543 140.473C144.646 139.189 144.44 137.871 144.509 136.605C144.663 134.174 144.337 131.761 144.629 129.33C144.783 128.081 144.32 126.831 144.474 125.616C144.766 123.185 144.509 120.772 144.646 118.359C144.68 117.691 144.372 117.024 144.423 116.305C144.543 114.627 144.629 112.95 144.577 111.255C144.526 109.39 144.423 107.524 144.543 105.675C144.646 103.998 144.783 102.304 144.594 100.678C144.337 98.3839 144.766 96.1417 144.629 93.8652C144.492 91.5888 144.594 89.2952 144.594 87.0187C144.56 85.6665 144.526 84.3315 144.594 82.9793C144.68 81.3019 144.457 79.5903 143.121 78.4606C141.801 77.348 140.55 76.1328 138.973 75.2941C138.116 74.832 137.208 74.3869 136.454 73.7365C134.791 72.2988 132.752 71.4087 131.107 69.971C130.987 69.8854 130.867 69.7998 130.73 69.7313C128.022 68.499 125.674 66.6504 123.24 64.9901C121.115 63.5524 118.922 62.1831 116.779 60.7453C113.729 58.7085 110.73 56.6032 107.593 54.7204C106.256 53.933 105.108 52.8376 103.771 52.1358C101.338 50.8692 99.2641 49.0891 96.899 47.7369C95.1509 46.7271 93.5228 45.4776 91.809 44.3993C89.1183 42.7048 86.5304 40.8562 83.8569 39.1275C82.8286 38.4599 81.8689 37.6212 80.6178 37.3474C80.3436 37.296 80.0694 37.0906 79.8809 36.8681C78.904 35.7213 77.5501 35.088 76.299 34.3178C75.2364 33.6674 74.191 32.9998 73.197 32.2467C71.9288 31.2882 70.5234 30.5522 69.2038 29.6622C67.49 28.4983 65.6905 27.4371 63.9767 26.256C61.8858 24.8183 59.8464 23.3634 57.447 22.422C56.6073 22.0968 55.9217 22.1653 55.2191 22.576C53.0254 23.8598 50.7632 24.9723 48.4324 26.0164C44.3878 27.8136 40.446 29.8162 36.47 31.7504C33.9678 32.9656 31.4485 34.1295 28.9634 35.379C26.2556 36.7312 23.5135 37.9978 20.8057 39.3328C18.0979 40.685 15.3386 41.9516 12.6137 43.2867C11.1055 44.0398 9.56308 44.7416 8.05492 45.4434C5.80983 46.5046 3.61615 47.6171 1.38819 48.6783C0.702664 48.9864 0.325625 49.654 0.239934 50.5782C0.0514144 52.6151 0.411315 54.6006 0.359901 56.6203C0.257072 59.9408 0.497006 63.2614 0.239934 66.5648C0.0514144 69.1494 0.771216 71.7168 0.239934 74.2671C0.222796 74.3527 0.239934 74.4554 0.27421 74.5581C0.514144 76.6634 0.394177 78.7687 0.239934 80.874C0.171381 81.9523 0.171381 83.0649 0.291348 84.109C0.497006 85.9404 0.257072 87.7547 0.308486 89.5691C0.359901 91.3663 0.154243 93.1977 0.308486 94.9778C0.428453 96.3471 0.428453 97.7335 0.394177 99.0514C0.325625 101.431 0.18852 103.793 0.46273 106.172C0.46273 106.275 0.514144 106.377 0.497006 106.463C-0.0514144 108.825 0.54842 111.238 0.239934 113.635C0.137105 114.507 0.411315 115.415 0.342763 116.305C-0.0171381 120.378 0.531282 124.452 0.239934 128.526C0.0342763 131.589 0.479868 134.653 0.308486 137.734C0.137105 140.798 0.27421 143.879 0.428453 146.943C0.497006 148.055 0.0685526 149.099 0.171381 150.178C0.428453 152.54 0.377039 154.902 0.27421 157.264C0.154243 159.883 0.497006 162.484 0.239934 165.086C0.171381 165.719 0.411315 166.318 0.377039 166.986C0.239934 170.169 0.137105 173.336 0.205658 176.52C0.257072 178.779 0.377039 181.038 0.239934 183.298C0.205658 183.794 -0.0171381 184.256 0.0685525 184.77L0 184.787Z" fill="#15787A"/>
<path fill-rule="evenodd" clip-rule="evenodd" d="M87.4903 110.126C86.582 109.903 86.1021 109.202 85.4166 108.756C83.0001 107.182 80.6179 105.573 78.2357 103.93C76.3505 102.629 74.4139 101.414 72.563 100.079C69.958 98.2129 67.2502 96.4841 64.5766 94.7212C63.6169 94.0879 62.7257 93.3347 61.7488 92.7699C59.2466 91.3493 56.9159 89.6719 54.5508 88.0629C51.9972 86.3342 49.4265 84.6226 46.8215 82.9794C46.1702 82.4317 45.3133 82.8425 44.5593 82.5002C43.6852 82.1065 43.1882 82.5344 43.1197 83.5442C43.0683 84.5712 43.0168 85.5982 43.0511 86.6252C43.1711 89.6205 42.7598 92.6159 43.0511 95.6112C42.794 96.8949 43.1025 98.2471 42.6569 99.5137C42.3484 100.575 42.9997 101.67 42.5712 102.851C40.2747 101.225 37.9439 99.7191 35.6303 98.1958C35.1676 97.8877 34.4649 97.6309 34.9619 96.8436C35.4589 96.0391 36.0416 96.3472 36.6243 96.7066C37.8411 97.4769 38.9551 98.4012 40.1034 99.257C40.9774 99.9245 41.8686 100.215 42.6912 99.1543C42.7769 98.8462 42.7426 98.5552 42.5198 98.3156C42.04 97.494 41.4401 96.7922 40.6004 96.2787C39.9662 95.8851 39.315 95.3887 39.0579 94.7041C38.5095 93.1978 37.4127 92.7186 35.9731 92.6843C35.6646 92.6843 35.3732 92.6843 35.099 92.496C34.0707 91.8285 33.0253 91.1781 31.9799 90.4934C31.7399 90.3394 31.4657 90.2025 31.38 89.8773C30.9002 88.2512 29.7176 87.6008 28.1238 87.6522C27.524 87.6522 27.0612 87.5323 26.6499 87.1387C25.4331 86.009 23.9078 85.3586 22.5196 84.4856C21.3714 83.7668 19.0406 83.801 17.8409 85.4955C17.0868 86.5567 17.4296 88.9359 18.2008 90.1169C19.0406 91.3835 20.5316 91.7429 21.4399 92.8213C23.3937 93.232 23.685 95.0977 24.3705 96.467C24.8333 97.3742 25.5531 98.5038 24.8676 99.7191C24.799 99.8218 25.0218 100.079 25.0561 100.25C25.1589 101.054 25.0561 101.807 24.3705 102.372C24.0621 102.629 23.805 102.92 23.5479 103.228C21.2514 106.052 18.9549 108.893 16.6584 111.718C16.4013 112.026 16.1785 112.351 15.9386 112.676C15.7843 112.882 15.6815 113.121 15.8015 113.378C15.9729 113.72 16.3156 113.635 16.5898 113.6C16.8298 113.566 17.0868 113.481 17.2754 113.344C18.1323 112.745 18.9892 112.146 19.6404 111.29C20.5316 110.126 21.5256 109.03 22.5368 107.986C23.5993 106.891 24.5419 105.693 25.6388 104.614C26.7185 103.57 27.7296 103.177 29.0835 103.707C29.7348 103.964 30.4203 104.015 31.0887 103.964C31.7228 103.913 32.0656 103.553 31.8942 102.869C31.8942 102.663 31.8428 102.509 31.7742 102.355C31.9627 102.526 32.1684 102.68 32.3741 102.8C33.0424 102.886 33.1281 103.536 33.4195 103.964C34.0365 104.854 33.9508 105.522 33.0767 106.121C32.1341 106.771 31.5857 107.764 30.7973 108.551C29.2206 110.16 28.0724 112.146 26.4271 113.737C25.673 114.473 25.1418 115.449 24.5248 116.322C24.3191 116.613 24.1992 116.938 24.5248 117.263C24.8161 117.537 25.1589 117.606 25.4845 117.452C26.17 117.143 26.7185 116.613 27.2669 116.099C29.0493 114.422 30.7631 112.676 32.2884 110.759C33.6251 109.099 35.1676 107.575 36.1959 105.658C36.6929 104.734 36.7786 104.204 36.1959 103.382C35.9731 103.057 35.7331 102.714 35.4418 102.458C34.9619 102.064 34.6534 101.568 34.3792 101.037C34.4478 100.78 34.602 100.986 34.722 100.986C34.9448 101.088 35.219 101.14 35.3904 101.277C36.5043 102.184 37.6012 103.091 39.0065 103.553C39.2293 103.622 39.3836 103.878 39.5721 104.032C40.6346 104.922 41.7486 105.076 43.0682 104.118V104.238C42.6227 106.138 43.0854 107.884 42.9311 109.664C42.8626 110.468 42.6227 111.41 43.034 112.248C43.1882 114.319 42.8626 116.39 42.9997 118.461C43.1368 120.652 42.8626 122.843 43.0168 125.034C43.0683 125.787 43.1368 126.54 43.0168 127.259C42.6912 129.228 43.0168 131.179 43.0511 133.113C43.0854 135.389 42.8797 137.666 42.9654 139.959C43.034 141.517 43.291 143.126 42.8112 144.683C43.531 147.165 42.8112 149.699 42.9311 152.198C43.034 154.217 42.9826 156.288 42.9483 158.342C42.9311 159.592 42.8112 160.858 42.8797 162.091C42.9654 163.768 43.1197 165.446 42.9997 167.14C42.9654 167.534 42.7598 167.876 42.8455 168.287C43.3425 171.043 42.6569 173.798 42.9483 176.554C43.2225 179.173 42.8455 181.792 42.9826 184.427C43.1539 187.697 42.8283 190.966 43.0682 194.235C43.2396 196.46 42.6055 198.702 43.2568 200.91C43.291 201.03 43.291 201.253 43.2225 201.321C42.3999 201.972 42.8455 202.759 42.9311 203.512C43.034 204.505 43.034 205.498 43.034 206.49C43.034 208.476 42.7426 210.444 42.8112 212.413C42.8626 213.696 42.8626 214.98 42.914 216.264C43.0168 218.42 42.914 220.577 42.914 222.734C42.914 222.734 42.8797 224.856 44.4564 224.856C46.0331 224.856 45.7761 221.416 45.7761 220.748C45.7075 216.863 45.9303 212.977 45.7418 209.092C45.6904 207.997 45.7932 206.901 45.7932 205.806C45.8275 204.026 45.8446 202.263 45.8618 200.482C45.8618 198.326 45.8446 196.152 45.8618 193.995C45.8618 191.12 45.896 188.244 45.8618 185.369C45.8104 182.014 45.8618 178.642 45.8618 175.287C45.8618 173.182 45.7761 171.043 45.9132 168.92C46.016 167.02 45.8446 165.086 45.8104 163.152C45.7247 158.394 45.9646 153.635 45.7589 148.877C45.6732 146.943 45.7932 145.009 45.8275 143.075C45.8446 141.705 45.9989 140.336 45.8789 138.984C45.7075 136.998 45.8103 134.996 45.7589 133.01C45.7075 130.836 45.9817 128.646 45.8789 126.455C45.6904 122.826 45.8446 119.197 45.8789 115.569C45.8789 113.241 45.7932 110.93 45.8446 108.602C45.9132 105.795 45.8446 102.954 45.8446 100.13C45.8446 96.6895 45.6047 93.2492 45.8446 89.8088C45.8789 89.3638 45.8446 88.9016 45.7761 88.4737C45.5533 87.3612 45.8789 86.2657 45.7761 84.828C47.1643 86.2144 48.7238 86.7963 50.0263 87.772C51.1746 88.6278 52.3228 89.4836 53.5396 90.2538C56.5045 92.1366 59.4352 94.0708 62.2801 96.1247C64.7651 97.9219 67.4387 99.4281 69.9751 101.174C73.9854 103.93 78.0643 106.6 82.0918 109.356C83.1543 110.074 84.2683 110.742 85.3994 111.375C85.9993 111.718 86.7019 111.82 87.3703 111.495C87.9702 111.204 88.0558 110.229 87.456 110.092L87.4903 110.126ZM23.6679 90.3052C23.3937 90.8015 23.068 90.9556 22.5882 90.5961C21.6284 89.8944 20.6344 89.2269 20.0003 88.1828C19.5205 87.4125 19.5719 86.9333 20.2574 86.3856C20.5659 86.1288 20.8744 85.9576 21.32 86.2657C22.5025 87.0873 23.7193 87.8233 24.7819 88.8332C24.302 89.2782 23.9764 89.7746 23.685 90.3052H23.6679ZM31.0544 101.79C28.7236 101.499 27.8839 100.147 28.1923 97.939C28.2095 97.8021 28.2266 97.7507 28.5865 97.939C29.9747 98.2985 30.9002 99.3083 31.0887 101.088C31.123 101.379 31.2429 101.653 31.4315 101.91C31.3286 101.842 31.1915 101.807 31.0716 101.79H31.0544ZM31.62 96.4328C30.0261 95.7652 28.775 94.7212 27.4554 93.7969C27.1641 93.5915 26.907 93.369 26.6328 93.1636C25.5702 92.3933 25.673 91.1781 26.8384 90.4763C27.1812 90.2709 27.4383 90.4763 27.6439 90.6133C29.4263 91.7772 31.4143 92.633 33.0939 93.9852C32.494 94.6698 32.117 95.4743 31.62 96.4328ZM43.4624 89.7403C43.4624 90.1853 43.4282 90.6304 43.411 91.0754C43.3425 90.6304 43.3596 90.1853 43.4624 89.7403ZM43.4624 94.8581C43.4624 95.0806 43.4624 95.286 43.4624 95.5085C43.3767 95.3031 43.3767 95.0806 43.4624 94.8581Z" fill="#15787A"/>
<path fill-rule="evenodd" clip-rule="evenodd" d="M68.09 30.6722V19.8547L72.3574 23.1068V33.1711L63.0514 37.9466L59.5381 34.9341L68.09 30.6722Z" fill="white"/>
<path d="M63.0512 39.4018C62.7084 39.4018 62.3656 39.282 62.1086 39.0423L58.6124 36.0299C58.2353 35.7047 58.064 35.2254 58.1154 34.7462C58.1839 34.2669 58.4753 33.839 58.9037 33.6165L66.6502 29.7482V19.8208C66.6502 19.2731 66.9586 18.7596 67.4557 18.52C67.9527 18.2804 68.5525 18.3317 68.9809 18.674L73.2483 21.9261C73.6082 22.2 73.8139 22.6279 73.8139 23.09V33.1544C73.8139 33.7021 73.5054 34.1985 73.0255 34.4552L63.7024 39.2306C63.4967 39.3333 63.274 39.3847 63.034 39.3847L63.0512 39.4018ZM62.16 35.2597L63.2568 36.201L70.9176 32.2814V23.826L69.5636 22.7819V30.6554C69.5636 31.2031 69.2552 31.7166 68.7582 31.9562L62.16 35.2425V35.2597Z" fill="#15787A"/>
<path fill-rule="evenodd" clip-rule="evenodd" d="M124.938 68.0368V57.2193L129.205 60.4885V70.5529L119.899 75.3112L116.386 72.3159L124.938 68.0368Z" fill="white"/>
<path d="M119.899 76.7663C119.556 76.7663 119.213 76.6464 118.956 76.4068L115.46 73.3944C115.083 73.0692 114.912 72.5899 114.963 72.1106C115.032 71.6314 115.323 71.2035 115.751 70.981L123.498 67.1127V57.1853C123.498 56.6375 123.806 56.124 124.303 55.8844C124.8 55.6448 125.383 55.6962 125.829 56.0385L130.096 59.2906C130.456 59.5644 130.662 59.9923 130.662 60.4373V70.5017C130.662 71.0494 130.353 71.5458 129.873 71.8025L120.55 76.578C120.344 76.6807 120.104 76.732 119.882 76.732L119.899 76.7663ZM119.008 72.6241L120.104 73.5655L127.765 69.6459V61.1905L126.411 60.1464V68.0199C126.411 68.5676 126.103 69.0811 125.606 69.3207L119.008 72.607V72.6241Z" fill="#15787A"/>
<path fill-rule="evenodd" clip-rule="evenodd" d="M184.063 52.7863C184.063 80.8741 161.27 103.639 133.146 103.639C105.022 103.639 82.2285 80.8741 82.2285 52.7863C82.2285 24.6986 105.022 1.93396 133.146 1.93396C161.27 1.93396 184.063 24.6986 184.063 52.7863Z" fill="white"/>
<path d="M133.146 105.573C103.994 105.573 80.292 81.8841 80.292 52.7865C80.292 23.6889 104.011 0 133.146 0C162.281 0 186 23.6889 186 52.7865C186 81.8841 162.281 105.573 133.146 105.573ZM133.146 3.86826C106.136 3.86826 84.1652 25.8113 84.1652 52.7865C84.1652 79.7617 106.136 101.705 133.146 101.705C160.156 101.705 182.127 79.7617 182.127 52.7865C182.127 25.8113 160.156 3.86826 133.146 3.86826Z" fill="#15787A"/>
<path d="M172.956 84.1481V84.1486V84.1481ZM172.956 84.1481C173.011 84.1459 173.054 84.1454 173.1 84.1449C173.142 84.1445 173.187 84.144 173.245 84.1421C173.35 84.1387 173.466 84.1306 173.581 84.1035C173.828 84.0455 174.055 83.9023 174.194 83.593C174.322 83.3249 174.337 83.0539 174.256 82.8084C174.176 82.5666 174.01 82.3674 173.804 82.2228C173.421 81.9464 173.071 81.6341 172.709 81.3103C172.646 81.2546 172.584 81.1985 172.52 81.1422C172.093 80.7625 171.642 80.3773 171.116 80.0568C169.948 79.3414 168.808 78.5701 167.664 77.7951L167.661 77.7935C166.519 77.02 165.371 76.2429 164.192 75.521L164.192 75.5208C163.659 75.1959 163.156 74.8321 162.643 74.4611C162.571 74.4093 162.5 74.3574 162.427 74.3054C161.842 73.8837 161.24 73.4605 160.583 73.1015C159.001 72.2351 157.485 71.2148 155.958 70.1867C155.327 69.7609 154.716 69.303 154.099 68.8407C153.841 68.6474 153.582 68.4534 153.321 68.2606C152.438 67.6105 151.53 66.9807 150.552 66.4751M172.956 84.1481L134.91 56.6153L135.033 56.3982C135.034 56.3983 135.034 56.3983 135.034 56.3984C135.77 56.8186 136.452 57.3134 137.121 57.7995C137.228 57.8774 137.335 57.9551 137.442 58.0322C138.221 58.5942 138.998 59.1299 139.866 59.5385L139.867 59.5391C140.664 59.9191 141.384 60.4424 142.081 60.9688C142.171 61.0371 142.261 61.1053 142.35 61.1733C142.957 61.6348 143.552 62.0865 144.188 62.4588L144.189 62.4596C145.095 62.9983 145.969 63.5853 146.837 64.1682C147.01 64.2845 147.183 64.4007 147.356 64.5163C148.398 65.2131 149.442 65.8912 150.552 66.4751M150.552 66.4751C150.552 66.4753 150.553 66.4754 150.553 66.4756L150.437 66.6968L150.552 66.4748C150.552 66.4749 150.552 66.475 150.552 66.4751ZM115.052 43.3163C114.095 42.6448 113.105 42.0172 112.115 41.3988C111.952 41.2964 111.788 41.1943 111.624 41.0923C110.797 40.577 109.974 40.0641 109.169 39.5303L109.169 39.5301C108.294 38.9519 107.42 38.3704 106.547 37.7891C105.149 36.8584 103.751 35.9279 102.348 35.0113M115.052 43.3163L172.939 84.1486C172.622 84.1474 172.276 84.1107 171.963 83.9027C171.202 83.4156 170.433 82.9342 169.663 82.4518C168.413 81.6687 167.159 80.8833 165.929 80.0676L165.926 80.0658C165.689 79.9042 165.465 79.7404 165.244 79.5795C164.785 79.244 164.343 78.9217 163.845 78.6614C163.033 78.2598 162.284 77.7682 161.554 77.2742C161.458 77.2093 161.363 77.1444 161.267 77.0796C160.633 76.6484 160.007 76.2236 159.346 75.8497C158.403 75.3218 157.49 74.6629 156.588 74.0118C156.248 73.7663 155.91 73.522 155.572 73.2862L155.572 73.2861C154.892 72.8107 154.186 72.3645 153.474 71.9147L153.471 71.9133C152.762 71.465 152.046 71.013 151.356 70.5304C150.631 70.0265 149.871 69.5675 149.105 69.1047C148.956 69.0147 148.807 68.9246 148.657 68.834C147.744 68.2794 146.833 67.7077 145.997 67.047L145.997 67.0468C145.179 66.3983 144.3 65.8537 143.407 65.3028L143.362 65.2748C142.488 64.7355 141.601 64.1883 140.771 63.5392C139.971 62.9163 139.095 62.3753 138.198 61.8481C137.963 61.7102 137.726 61.5729 137.489 61.4353C136.823 61.0497 136.153 60.6616 135.511 60.2489L135.511 60.2486C134.488 59.5877 133.479 58.9014 132.472 58.2147L132.272 58.0783C131.332 57.4366 130.393 56.796 129.443 56.1741L129.442 56.1734C129.033 55.9028 128.612 55.6399 128.188 55.3747C127.109 54.7005 126.007 54.0113 125.011 53.1412C124.643 52.8216 124.189 52.5769 123.694 52.3287C123.625 52.2941 123.555 52.2594 123.485 52.2243C123.059 52.013 122.612 51.7909 122.208 51.5167C121.385 50.9669 120.544 50.4303 119.701 49.8919C118.123 48.8838 116.535 47.8697 115.034 46.7514L115.034 46.7511C114.6 46.426 114.147 46.1289 113.687 45.8269C113.611 45.7764 113.534 45.7259 113.456 45.675C112.921 45.3218 112.38 44.9563 111.872 44.5366M115.052 43.3163C115.052 43.3165 115.053 43.3166 115.053 43.3168L114.909 43.5214L115.052 43.3163ZM102.348 35.0113C101.562 34.4881 100.726 34.0536 99.841 33.6725L99.8399 33.672C99.4833 33.5205 99.1788 33.2514 98.8375 32.9322C98.812 32.9083 98.7863 32.8842 98.7604 32.8599C98.4495 32.5679 98.1059 32.2453 97.6899 32.0078M102.348 35.0113C102.347 35.0111 102.347 35.0109 102.347 35.0107L102.21 35.22M102.348 35.0113C102.348 35.0115 102.348 35.0117 102.349 35.0119L102.21 35.22M97.6899 32.0078C96.2888 31.2014 94.9675 30.2828 93.6355 29.3568C93.0542 28.9527 92.4709 28.5471 91.878 28.1489L91.878 28.1489L91.8743 28.1464C91.8384 28.1232 91.801 28.0986 91.7624 28.0732C91.5099 27.9068 91.2021 27.7039 90.8771 27.6184M97.6899 32.0078C97.6897 32.0077 97.6896 32.0076 97.6895 32.0075L97.5656 32.2247L97.6903 32.008C97.6901 32.0079 97.69 32.0079 97.6899 32.0078ZM90.8771 27.6184C90.5846 27.5405 90.2756 27.5311 89.9931 27.6278C89.706 27.7261 89.4633 27.9287 89.306 28.241M90.8771 27.6184C90.8769 27.6183 90.8768 27.6183 90.8767 27.6183L90.8131 27.8601L90.8775 27.6185C90.8773 27.6184 90.8772 27.6184 90.8771 27.6184ZM89.306 28.241C89.1764 28.4821 89.0716 28.7678 89.0743 29.0626C89.077 29.3706 89.1977 29.6711 89.4857 29.9161L89.4857 29.9162L89.4899 29.9196C89.6271 30.0312 89.7535 30.1421 89.8837 30.2562C89.9734 30.3349 90.0649 30.4152 90.163 30.4983C90.3945 30.6946 90.643 30.8894 90.9271 31.0542M89.306 28.241C89.3054 28.2422 89.3048 28.2433 89.3042 28.2445L89.5278 28.3564L89.3077 28.2378C89.3071 28.2389 89.3065 28.2399 89.306 28.241ZM90.9271 31.0542C91.4899 31.3845 92.0348 31.7407 92.585 32.1003C92.6984 32.1745 92.8121 32.2487 92.9262 32.323C93.591 32.7557 94.2678 33.1848 94.9817 33.5587L94.9829 33.5594C95.4368 33.7938 95.8173 34.1208 96.2232 34.4696C96.2343 34.4791 96.2454 34.4887 96.2565 34.4982C96.6677 34.8514 97.1069 35.2242 97.647 35.4802L97.6476 35.4805C98.9664 36.101 100.146 36.9269 101.348 37.7689C101.75 38.0501 102.155 38.3332 102.567 38.6111M90.9271 31.0542C90.9273 31.0543 90.9275 31.0544 90.9277 31.0545L91.0531 30.8383L90.9266 31.0539C90.9267 31.054 90.9269 31.0541 90.9271 31.0542ZM102.567 38.6111L102.571 38.6131C104.847 40.152 107.133 41.6963 109.522 43.0869C109.732 43.2103 109.945 43.3293 110.157 43.4477C110.759 43.7851 111.354 44.1178 111.872 44.5366M102.567 38.6111L102.707 38.4036L102.567 38.6108L102.567 38.6111ZM111.872 44.5366C111.872 44.5369 111.873 44.5371 111.873 44.5374L112.03 44.343L111.871 44.5357C111.871 44.536 111.872 44.5363 111.872 44.5366ZM102.21 35.22C103.613 36.1364 105.009 37.0658 106.407 37.9962C107.28 38.5776 108.154 39.1594 109.031 39.7387L102.21 35.22ZM128.711 52.2397C128.711 52.2396 128.711 52.2396 128.71 52.2395C128.71 52.2394 128.71 52.2394 128.71 52.2393L128.586 52.4561L128.711 52.2397Z" fill="#15787A" stroke="#15787A" stroke-width="0.5"/>
<path fill-rule="evenodd" clip-rule="evenodd" d="M130.044 56.1574V19.5628L144.492 30.5857V64.6128L112.958 80.7877L101.115 70.6035L130.044 56.1574Z" fill="white"/>
<path d="M112.957 82.5347C112.546 82.5347 112.135 82.3978 111.809 82.1068L99.9665 71.9226C99.5209 71.5461 99.2982 70.9641 99.3667 70.3822C99.4353 69.8002 99.7952 69.3038 100.326 69.03L128.296 55.0802V19.564C128.296 18.8965 128.673 18.2974 129.273 18.0064C129.873 17.7155 130.575 17.7839 131.107 18.1776L145.554 29.2004C145.982 29.5257 146.239 30.0391 146.239 30.5869V64.6311C146.239 65.2815 145.88 65.8806 145.297 66.1887L113.763 82.3464C113.506 82.4834 113.231 82.5347 112.957 82.5347ZM104.234 70.9983L113.197 78.7007L142.743 63.5699V31.4598L131.775 23.1071V56.1757C131.775 56.8432 131.398 57.4423 130.815 57.7332L104.234 70.9983Z" fill="#15787A"/>
<path fill-rule="evenodd" clip-rule="evenodd" d="M138.75 35.9261C138.75 37.689 138.064 39.1268 137.225 39.1268C136.385 39.1268 135.699 37.689 135.699 35.9261C135.699 34.1631 136.385 32.7253 137.225 32.7253C138.064 32.7253 138.75 34.1631 138.75 35.9261Z" fill="#15787A"/>
<path fill-rule="evenodd" clip-rule="evenodd" d="M138.545 49.5858C138.545 51.3488 137.859 52.7865 137.019 52.7865C136.18 52.7865 135.494 51.3488 135.494 49.5858C135.494 47.8228 136.18 46.3851 137.019 46.3851C137.859 46.3851 138.545 47.8228 138.545 49.5858Z" fill="#15787A"/>
<path fill-rule="evenodd" clip-rule="evenodd" d="M129.531 65.2294C128.125 65.9825 126.669 65.9996 126.257 65.2636C125.863 64.5276 126.669 63.3123 128.074 62.5421C129.479 61.789 130.936 61.7719 131.347 62.5079C131.741 63.2439 130.936 64.4591 129.531 65.2294Z" fill="#15787A"/>
<path fill-rule="evenodd" clip-rule="evenodd" d="M118.579 70.9294C117.173 71.6825 115.717 71.6996 115.305 70.9636C114.894 70.2276 115.717 69.0123 117.122 68.2421C118.527 67.489 119.984 67.4719 120.395 68.2079C120.789 68.9439 119.984 70.1591 118.579 70.9294Z" fill="#15787A"/>
</svg>
