<svg width="183" height="146" viewBox="0 0 183 146" fill="none" xmlns="http://www.w3.org/2000/svg">
<g clip-path="url(#clip0_125_19747)">
<path d="M181.476 27.4624V29.2457C181.405 29.6308 181.32 30.016 181.263 30.4012C181.063 31.7993 180.992 33.2259 180.636 34.5669C180.323 35.7368 179.71 36.8353 179.126 37.9052C178.77 38.59 178.286 39.2034 177.788 39.7884C177.432 40.2021 176.933 40.5017 176.534 40.8869C175.779 41.6144 175.067 42.3991 174.298 43.1124C173.871 43.5118 173.259 43.7258 172.931 44.1823C171.991 45.4378 171.094 46.7217 170.31 48.077C169.67 49.204 169.2 50.4452 168.701 51.6436C168.388 52.3997 168.16 53.1843 167.946 53.9689C167.804 54.4683 167.79 55.0104 167.647 55.5097C167.234 56.865 166.764 58.206 166.351 59.5755C165.91 61.0164 165.497 62.4716 165.069 63.9125C164.841 64.6686 164.428 65.4389 164.4 66.195C164.357 67.9213 163.56 69.4049 163.047 70.96C162.563 72.4294 161.751 73.8132 161.395 75.3111C161.053 76.7092 160.042 77.5795 159.344 78.6922C159.187 78.949 158.788 79.1915 158.489 79.1915C157.891 79.1915 157.706 79.5482 157.606 79.9904C157.393 80.9605 157.236 81.9449 157.008 82.9007C156.837 83.6283 156.51 84.3274 156.353 85.0692C156.054 86.4387 155.883 87.8368 155.541 89.1921C155.1 90.9754 154.516 92.7159 154.031 94.4991C153.832 95.2267 153.946 96.1397 153.547 96.6818C152.707 97.8089 152.935 99.1356 152.607 100.348C152.308 101.461 152.208 102.631 151.909 103.758C151.539 105.142 150.984 106.468 150.67 107.852C150.457 108.751 150.471 109.721 151.696 110.049C151.952 110.121 152.208 110.349 152.394 110.563C152.878 111.105 152.892 111.989 152.394 112.375C151.582 113.002 150.77 113.644 149.887 114.129C149.403 114.4 149.232 114.771 149.118 115.199C148.961 115.77 149.004 116.398 148.804 116.954C148.406 118.124 147.836 119.251 147.466 120.421C146.981 122.004 146.611 123.631 146.17 125.228C146.056 125.642 145.757 125.999 145.657 126.413C145.401 127.425 145.215 128.438 144.973 129.466C144.66 130.821 144.332 132.176 144.019 133.531C143.763 134.658 143.606 135.828 143.264 136.927C142.937 138.011 142.424 139.038 141.968 140.122C142.153 140.222 142.239 140.294 142.338 140.336C143.051 140.593 143.335 141.164 143.278 141.849C143.221 142.491 142.68 142.633 142.096 142.619C141.997 142.619 141.911 142.747 141.797 142.776C141.242 142.933 140.672 143.118 140.102 143.232C139.162 143.404 138.194 143.532 137.254 143.675H129.235C128.879 143.489 128.523 143.161 128.153 143.161C125.945 143.104 123.724 143.232 121.53 143.104C119.864 143.004 118.226 142.605 116.574 142.334C115.734 142.191 114.836 142.177 114.082 141.849C112.828 141.306 111.504 140.821 110.55 139.723C110.307 139.438 109.809 139.395 109.453 139.195C108.855 138.867 108.071 138.653 107.73 138.154C107.003 137.069 106.718 135.743 106.448 134.459C106.305 133.774 106.362 133.046 106.22 132.362C105.778 130.25 105.251 128.167 104.838 126.056C104.397 123.802 103.97 121.534 103.727 119.237C103.557 117.653 102.916 116.184 102.787 114.557C102.688 113.188 102.118 111.833 101.705 110.492C101.235 108.936 100.651 107.396 100.224 105.826C100.081 105.313 99.8678 105.113 99.412 105.113C97.0762 105.17 94.7405 104.885 92.4332 105.627C91.2084 106.012 89.8411 106.012 88.5593 106.197C87.1208 106.411 85.6966 106.682 84.2581 106.882C83.9021 106.939 83.5033 106.711 83.1472 106.768C81.5806 107.011 80.0281 107.353 78.4615 107.595C76.7097 107.867 74.9436 108.066 73.1918 108.323C71.1409 108.608 69.1043 108.922 67.0534 109.222C66.4979 109.307 65.9567 109.436 65.4012 109.479C63.7776 109.636 62.1398 109.764 60.5161 109.878C59.9749 109.921 59.4195 109.878 58.864 109.907C58.2089 109.907 57.5537 109.949 56.8843 109.949C55.574 109.949 54.2637 109.907 52.9534 109.921C51.7856 109.935 50.6034 110.078 49.4356 110.049C48.1395 110.021 46.8292 109.878 45.5332 109.735C45.0204 109.678 44.522 109.507 44.0235 109.393C43.2686 109.222 42.5138 109.036 41.7589 108.865C41.3317 108.765 40.8902 108.737 40.4914 108.594C39.9786 108.423 39.5087 108.123 38.9959 107.981C37.8565 107.653 36.6459 107.51 35.5493 107.053C34.7517 106.711 33.8972 106.312 33.1281 105.969C32.1169 105.527 31.1484 105.042 30.2084 104.443C29.126 103.758 28.0293 103.116 26.9327 102.445C25.4657 101.547 24.2266 100.391 23.2866 98.9359C22.7312 98.0799 22.2042 97.2097 21.6345 96.368C20.9224 95.3408 19.8827 94.5419 19.5836 93.258C19.4981 92.9156 19.4981 92.5304 19.2988 92.2736C18.2306 90.8327 17.7179 89.1493 17.1054 87.5087C16.906 86.9951 16.7779 86.453 16.5642 85.9394C16.1654 84.9836 15.6527 84.0563 15.3394 83.0719C14.9548 81.8593 14.7412 80.5896 14.4279 79.3485C13.9721 77.6222 13.3739 75.9246 13.0321 74.1841C12.8042 73.0143 11.9355 71.9443 12.3485 70.6604C12.3627 70.589 12.2915 70.4892 12.2488 70.4178C11.907 69.7331 11.5224 69.0625 11.2376 68.3492C10.4827 66.4518 9.7991 64.5402 9.0585 62.6428C8.97305 62.4288 8.71669 62.1577 8.51729 62.1149C7.4776 61.9437 7.49184 60.8167 6.80821 60.2888C6.21003 59.8181 5.96791 58.8908 5.38398 58.3487C3.9455 57.0219 3.33308 55.2244 2.52126 53.5552C2.09399 52.685 1.83763 51.7291 1.59551 50.7733C1.35339 49.846 1.19672 48.8902 1.08279 47.9486C0.997332 47.164 1.06854 46.3508 0.997332 45.5662C0.954605 45.1239 0.797939 44.6959 0.698242 44.2537V43.5404C0.783696 43.3264 0.86915 43.0981 0.954605 42.8841C1.35339 41.9568 1.73793 41.0152 2.1652 40.0879C2.39308 39.5601 2.56399 38.9609 2.94853 38.5757C3.74611 37.7768 4.6861 37.1063 5.04216 35.9508C5.09913 35.7796 5.32701 35.6512 5.48367 35.5228C6.39518 34.7667 7.33518 34.0391 8.2182 33.2402C9.1582 32.3985 9.94153 31.357 11.1521 30.8577C11.6221 30.6723 12.1633 30.5867 12.5336 30.2871C13.9436 29.1601 15.667 28.7035 17.2621 28.0188C18.5012 27.4909 19.8257 27.1057 21.1503 26.7919C23.6427 26.1927 26.1493 25.7219 28.6417 25.1513C30.1942 24.7946 31.7181 24.4665 33.356 24.5378C34.8941 24.6092 36.4465 24.2525 37.999 24.0956C40.0783 23.8673 42.1577 23.6533 44.2371 23.4251C44.3511 23.4251 44.465 23.368 44.5789 23.3823C46.2453 23.4964 47.9116 23.7104 49.5637 23.6818C50.4753 23.6533 51.3583 24.1384 52.341 23.639C52.8252 23.3965 53.6798 23.8245 54.3492 23.9957C55.5883 24.3238 56.8843 24.3381 58.1519 24.709C59.6473 25.1513 61.214 24.4808 62.567 23.639C62.7522 23.5249 62.98 23.4108 63.1937 23.3823C64.3188 23.2396 65.444 23.1825 66.5691 23.0113C68.264 22.7545 69.973 22.4978 71.6394 22.1268C74.3597 21.5277 77.0515 20.8286 79.7575 20.1866C80.1278 20.101 80.5409 20.1866 80.8969 20.101C82.549 19.6731 84.2011 19.2593 85.8248 18.7458C87.8614 18.0895 89.8696 17.3762 91.8635 16.6344C92.5614 16.3633 93.1596 15.7784 93.8717 15.5644C95.125 15.1935 96.2929 14.6371 97.4608 14.0664C98.7711 13.4245 100.067 12.7397 101.377 12.0977C101.933 11.8267 102.517 11.6127 103.072 11.3416C104.212 10.7852 105.323 10.1861 106.476 9.67247C108.513 8.74517 110.55 7.8464 112.6 6.94763C112.885 6.81923 113.199 6.71937 113.498 6.63377C114.68 6.24859 115.976 6.14872 117.044 5.40688C117.357 5.19289 117.785 5.15009 118.169 5.03596C119.052 4.77917 119.935 4.53665 120.804 4.25132C121.231 4.12293 121.63 3.80907 122.043 3.80907C123.695 3.78054 125.262 3.11003 126.957 3.19563C128.096 3.25269 129.264 3.01017 130.403 2.8675C130.631 2.83897 130.816 2.63924 131.03 2.51085H137.809C137.809 2.51085 137.923 2.66778 137.98 2.66778C139.575 2.8247 141.171 2.98163 142.766 3.11003C144.062 3.22416 145.358 3.25269 146.654 3.40962C147.679 3.53801 148.705 3.73774 149.702 4.0088C150.927 4.33692 152.109 4.77917 153.319 5.17862C154.117 5.44968 154.9 5.72074 155.684 6.03459C156.538 6.37698 157.35 6.7907 158.204 7.11882C159.187 7.50401 160.213 7.77507 161.167 8.23158C162.349 8.80223 163.431 9.62967 164.642 10.1005C165.326 10.3572 165.767 10.771 166.308 11.1847C167.248 11.9123 168.359 12.383 169.313 13.0821C170.496 13.9523 171.592 14.951 172.746 15.864C174.27 17.0909 175.822 18.2892 177.346 19.5019C178.129 20.1296 178.998 20.6717 179.369 21.6989C179.568 22.241 179.71 22.8829 180.109 23.2396C181.078 24.1098 181.092 25.2226 181.206 26.3496C181.249 26.7348 181.391 27.1057 181.476 27.4767V27.4624Z" fill="white"/>
<path d="M101.107 83.6568C101.107 83.6568 92.0344 64.7256 128.694 67.6074C165.368 70.4892 156.353 85.0977 156.353 85.0977L150.585 108.894L154.929 110.677V114.244L150.585 115.67L144.247 141.349C144.247 141.349 136.015 145.101 125.732 144.916C115.449 144.73 110.564 139.766 110.564 139.766L101.107 83.6711V83.6568Z" fill="#A0CD64"/>
<path fill-rule="evenodd" clip-rule="evenodd" d="M154.929 87.1235C154.929 87.1235 143.236 90.3762 128.438 90.3762C113.64 90.3762 102.46 85.9394 102.46 85.9394C102.46 85.9394 113.541 79.0489 128.338 79.0489C143.136 79.0489 154.929 87.1378 154.929 87.1378V87.1235Z" fill="#79CBE8"/>
<path d="M15.7949 59.6897C15.7949 59.6897 23.3006 49.4894 38.6112 45.6232C53.9359 41.7571 76.2822 42.4133 86.0524 40.0309C95.8227 37.6484 120.035 29.802 120.035 29.802C120.035 29.802 137.453 24.3381 150.585 28.3754C163.716 32.4127 165.61 38.8468 165.61 38.8468C165.61 38.8468 140.999 44.1681 132.924 45.6232C124.834 47.0784 104.183 56.6224 104.183 56.6224C104.183 56.6224 76.5955 65.7528 63.3074 66.2093C44.123 71.5591 15.7949 59.6897 15.7949 59.6897Z" fill="#79CBE8"/>
<path fill-rule="evenodd" clip-rule="evenodd" d="M136.357 0.000197569C136.485 0.485247 136.884 0.413917 137.225 0.385384C140.387 0.128593 143.478 0.856168 146.583 1.19856C147.181 1.26989 147.736 1.44108 148.306 1.65507C149.303 2.02599 150.314 2.33985 151.425 2.26852C153.006 2.16866 154.402 3.01036 155.897 3.38128C159.871 4.36565 163.745 5.7352 167.22 7.93219C168.886 8.98789 170.909 9.6584 172.019 11.5415C172.375 12.1692 173.244 12.212 173.757 12.7399C175.794 14.8656 177.759 17.0055 179.411 19.4878C180.793 21.5564 181.79 23.6963 182.516 26.0502C183.2 28.2615 183.143 30.4299 182.602 32.6983C182.16 34.5529 181.676 36.3647 180.907 38.0909C180.024 40.0881 179.226 42.0854 177.161 43.298C175.979 43.9828 175.366 45.281 174.626 46.4509C172.76 49.3754 172.532 52.8278 171.35 55.9664C170.567 58.0493 170.196 60.289 169.199 62.3291C168.872 62.9996 169.086 63.8413 168.843 64.5974C168.16 66.7231 167.206 68.7631 166.807 70.9887C164.784 73.3997 164.969 76.8378 163.004 79.3058C162.52 79.905 162.164 80.6041 161.195 80.7039C160.782 79.4342 160.811 78.2216 161.238 77.009C161.979 74.8691 162.748 72.7291 163.517 70.6035C164.343 68.2924 164.941 65.9384 165.482 63.5417C165.838 61.9582 166.266 60.3318 166.821 58.7911C167.804 56.0948 168.316 53.2844 169.086 50.5452C170.125 46.8788 171.92 43.7403 174.74 41.101C176.363 39.5746 177.375 37.506 178.215 35.3803C178.927 33.597 179.326 31.7995 179.368 29.8878C179.454 26.5495 178.671 23.5536 176.634 20.786C175.238 18.8886 173.842 16.9627 172.29 15.2079C171.122 13.8954 169.641 12.8255 168.202 11.7983C164.2 8.95936 159.956 6.6197 155.114 5.52121C153.889 5.23588 152.707 4.55111 151.51 4.55111C149.089 4.55111 146.896 3.59527 144.574 3.22435C141.441 2.7393 138.294 2.79637 135.146 2.75357C133.038 2.72504 130.916 3.05316 128.822 3.29568C124.222 3.82353 119.878 5.30721 115.591 7.01916C112.458 8.27458 109.567 10.0008 106.49 11.3418C104.212 12.3119 102.232 13.8527 99.9104 14.6944C95.6947 16.2494 91.778 18.6033 87.2347 19.231C86.8217 19.2881 86.3944 19.3737 86.0384 19.5449C83.5032 20.7717 80.7544 21.2425 78.0484 21.8988C76.3963 22.3125 74.7014 22.6691 73.0208 22.8831C71.2263 23.1114 69.4175 23.3539 67.6372 23.6678C63.5924 24.3668 59.4906 24.4952 55.4315 24.8804C50.9594 25.3084 46.4589 25.1372 41.9583 25.0088C39.4659 24.9375 36.9592 25.3084 34.4668 25.2656C31.248 25.2228 28.2856 26.3641 25.2377 27.0631C22.3465 27.7194 19.5835 28.7751 16.9345 30.0733C15.9802 30.5441 14.8408 30.4014 13.9578 31.1718C11.9069 32.9836 9.34328 34.0821 7.39208 36.0651C6.45208 37.0066 6.09602 38.1907 5.56906 39.2179C3.9027 42.5277 3.1621 46.0086 3.71755 49.8605C4.15906 52.8849 5.61178 55.3672 6.76541 57.9922C7.40632 59.4473 8.50298 60.8169 9.87025 61.8441C11.1378 62.7856 12.0636 63.8841 12.263 65.6246C12.4054 66.7516 12.9181 67.8929 13.4166 68.9914C14.7126 71.8732 15.3678 74.9547 16.1226 78.0076C16.5784 79.8622 16.7635 81.8167 17.4899 83.5429C18.672 86.3819 19.4269 89.3778 20.8511 92.1454C21.8053 94 22.8735 95.7833 23.9274 97.5666C24.6681 98.822 25.722 99.9918 26.8756 100.862C29.4108 102.774 31.7892 104.885 34.9795 105.941C38.2553 107.025 41.5452 108.038 44.9064 108.708C48.111 109.35 51.3867 109.65 54.6624 109.721C58.5221 109.807 62.3818 109.422 66.2272 109.208C69.859 109.008 73.4624 108.594 77.0229 108.052C81.1247 107.424 85.2693 106.996 89.2999 105.927C90.5674 105.584 91.9062 105.812 93.2023 105.969C93.5726 106.012 93.8716 106.183 94.128 106.469C94.4983 106.897 94.598 107.268 94.0568 107.653C93.3447 108.138 92.5471 108.38 91.7068 108.466C87.7474 108.851 83.8593 109.65 79.9426 110.249C77.3505 110.649 74.7727 111.148 72.1663 111.333C66.0278 111.761 59.8894 112.56 53.7225 112.118C51.3582 111.947 48.9798 111.69 46.6298 111.319C44.878 111.048 43.0977 110.905 41.3743 110.42C37.9562 109.465 34.538 108.566 31.4047 106.811C29.8095 105.927 28.1289 105.227 26.5908 104.215C25.3374 103.387 24.3974 102.203 23.2581 101.247C22.4178 100.548 21.5347 99.9062 21.2356 98.6508C21.1075 98.0801 20.1817 97.7235 19.726 97.1814C18.8429 96.1114 18.2305 94.8702 17.8175 93.572C17.2905 91.9314 16.5642 90.3621 15.8093 88.8214C15.7523 88.7215 15.6669 88.6074 15.6526 88.5075C15.1969 85.5972 13.8866 82.9437 13.1887 80.1048C12.1775 75.9676 11.1948 71.8304 9.5854 67.8644C9.14389 66.7659 8.70237 65.6674 8.18965 64.5974C7.74814 63.6701 6.89359 62.914 6.12451 62.1722C4.81421 60.9025 3.93118 59.4045 3.14786 57.7639C2.40725 56.2232 1.53847 54.7538 1.09696 53.0989C0.569989 51.1159 -0.327279 49.1757 0.171203 47.0358C0.413323 46.0086 0.114234 44.9814 0.342111 43.8972C0.826351 41.5433 1.53847 39.3463 2.6921 37.2492C3.84573 35.1378 5.35542 33.383 7.24965 31.8994C9.08692 30.4585 11.1236 29.4028 13.2314 28.4469C15.1114 27.591 17.0057 26.7493 18.8857 25.9076C18.9996 25.8648 19.1135 25.8077 19.2275 25.7934C21.5632 25.394 23.7281 24.324 26.078 24.0244C26.3202 23.9959 26.5765 24.0102 26.7759 23.9103C29.1117 22.8831 31.6041 22.8546 34.0822 22.6691C36.4465 22.498 38.7965 22.4837 41.1749 22.5835C45.1343 22.7547 49.1364 22.9687 53.0815 22.5835C57.5679 22.1556 62.0685 21.7561 66.5406 21.1712C69.0615 20.8431 71.5396 20.2724 74.0605 19.9728C76.0545 19.7303 78.1054 19.1739 80.0993 18.6033C82.3069 17.9613 84.5287 17.3479 86.7505 16.7915C88.1035 16.4491 89.3141 15.8214 90.5674 15.2935C92.2053 14.5945 93.9429 14.1665 95.538 13.3676C99.0416 11.5986 102.716 10.229 106.106 8.21751C108.427 6.83369 110.849 5.53547 113.369 4.56537C116.36 3.42408 119.479 2.55384 122.584 1.7264C126.188 0.756305 129.819 0.385384 133.522 0.428183C134.106 0.428183 134.847 0.69924 135.303 -0.0140686H136.371L136.357 0.000197569Z" fill="#31736D"/>
<path fill-rule="evenodd" clip-rule="evenodd" d="M127.712 146C122.214 145.986 116.774 145.543 111.604 143.475C110.464 143.018 109.368 142.448 108.328 141.763C105.593 139.98 105.252 137.155 104.91 134.316C104.853 133.817 104.639 133.403 104.554 132.961C104.155 130.892 103.614 128.838 103.699 126.712C103.699 126.598 103.713 126.455 103.671 126.355C102.36 123.873 102.617 121.02 101.848 118.409C100.879 115.128 100.352 111.733 99.6828 108.38C99.1273 105.555 98.7998 102.645 98.4295 99.7633C98.1161 97.2953 97.9025 94.8272 97.3613 92.3592C96.4783 88.4217 95.7661 84.4415 95.2107 80.4327C94.8831 78.0217 95.6237 75.7962 97.2758 73.8417C99.9391 70.6889 103.528 69.3336 107.274 68.1495C110.35 67.1651 113.541 66.8513 116.717 66.4376C118.127 66.2521 119.565 66.3948 120.989 66.3092C124.607 66.1094 128.239 66.2236 131.814 66.6944C135.46 67.1794 139.134 67.5218 142.766 68.121C145.515 68.5775 148.121 69.6332 150.571 70.9314C151.952 71.6733 153.405 72.301 154.701 73.2568C158.304 75.9103 159.8 79.4911 158.717 83.8423C158.447 84.9408 158.176 86.0393 158.076 87.1663C157.962 88.5501 157.478 89.8626 157.193 91.1751C156.467 94.4706 155.783 97.7803 154.858 101.019C154.245 103.13 153.818 105.256 153.277 107.367C153.177 107.781 152.821 108.437 153.519 108.794C154.117 109.093 155.684 109.051 156.011 108.708C158.062 106.511 159.102 103.915 158.931 100.876C158.888 100.106 158.874 99.3354 158.974 98.565C159.116 97.3096 159.059 96.0827 158.618 94.8558C158.304 93.957 158.205 92.9869 158.219 92.0311C158.219 91.3748 158.66 91.1894 159.159 91.6031C159.956 92.2593 160.526 93.1296 160.939 94.0426C162.249 96.9957 162.919 100.191 162.363 103.316C161.893 105.983 160.896 108.694 158.817 110.705C158.532 110.991 158.105 111.133 157.763 111.362C157.079 111.804 156.439 112.175 156.467 113.245C156.496 114.172 155.812 114.871 154.872 115.214C154.644 115.299 154.43 115.399 154.203 115.456C151.041 116.341 151.169 116.469 150.414 119.65C149.787 122.233 149.303 124.858 148.719 127.44C148.021 130.55 147.181 133.66 146.711 136.827C146.455 138.51 145.856 140.151 145.372 141.791C145.102 142.705 144.503 143.19 143.521 143.503C138.379 145.13 133.124 145.929 127.74 145.971L127.712 146ZM99.9391 86.4673C99.5688 87.1663 99.6116 87.8368 99.8822 88.5359C100.495 90.1051 100.751 91.76 100.936 93.4149C101.534 98.6221 102.56 103.772 103.386 108.936C104.084 113.33 105.28 117.639 105.935 122.061C106.334 124.8 107.032 127.525 107.545 130.264C107.915 132.247 108.598 134.173 108.641 136.199C108.684 137.697 109.382 138.71 110.478 139.68C112.102 141.15 114.139 141.749 116.104 142.248C120.633 143.418 125.305 143.275 129.962 143.004C133.48 142.79 136.884 141.777 140.387 141.535C141.342 141.463 141.698 141.007 141.968 140.165C142.467 138.582 142.951 137.027 143.307 135.386C143.934 132.433 144.66 129.494 145.273 126.527C145.657 124.686 145.657 122.789 146.554 121.006C147.081 119.95 147.509 118.566 146.982 117.168C146.027 117.311 145.102 117.453 144.162 117.582C142.652 117.767 141.199 117.753 140.046 116.526C139.718 116.169 139.277 116.227 138.878 116.241C136.855 116.312 134.847 116.013 132.839 115.841C129.079 115.513 125.775 113.887 122.314 112.703C121.815 112.532 121.36 112.218 120.932 111.89C119.309 110.677 117.785 109.35 116.09 108.223C115.606 107.895 115.193 107.439 114.922 106.896C114.068 105.213 112.672 103.872 111.917 102.089C111.604 101.347 111.547 100.448 110.977 99.8347C109.781 98.5793 109.952 96.8245 109.239 95.4122C109.14 95.2124 109.211 94.9414 109.211 94.6988C109.211 94.3137 109.382 93.9855 109.738 93.8286C110.137 93.6574 110.436 93.8857 110.664 94.171C111.219 94.87 111.803 95.5548 112.259 96.3252C113.754 98.836 115.193 101.375 116.645 103.915C116.888 104.329 117.115 104.714 117.415 105.099C118.768 106.868 120.548 108.109 122.328 109.379C122.955 109.821 123.539 110.349 124.251 110.663C126.857 111.818 129.521 112.788 132.34 113.216C134.377 113.53 136.428 113.887 138.507 113.873C139.447 113.873 140.031 113.573 139.875 112.532C139.732 111.547 140.43 111.262 141.114 111.076C143.45 110.434 145.8 109.835 148.164 109.279C149.004 109.079 149.46 108.737 149.645 107.795C150.2 105.028 150.784 102.246 151.568 99.5351C152.479 96.4108 152.778 93.1438 154.117 90.1337C154.402 89.4774 154.231 88.8497 153.775 88.2077C152.821 88.9496 151.682 89.2634 150.556 89.6058C146.882 90.7043 143.108 90.9326 139.333 91.0752C136.556 91.1894 133.765 91.2607 130.973 91.3748C127.427 91.5175 123.881 91.6031 120.306 91.2036C116.175 90.7329 112.045 90.2621 108.057 89.0494C106.804 88.6643 105.522 88.4931 104.269 88.1079C102.788 87.6514 101.492 86.7669 99.9676 86.4245L99.9391 86.4673ZM122.969 68.5775C119.124 68.4919 115.691 68.9769 112.245 69.6332C109.553 70.161 107.018 70.9742 104.511 72.0584C102.132 73.0713 100.495 74.7405 99.2128 76.8376C98.8852 77.3655 98.6431 78.1216 98.7428 78.7207C99.0561 80.5611 99.2555 82.487 101.121 83.6568C102.161 84.3131 102.403 84.4843 103.115 83.4714C103.713 82.6297 104.525 82.216 105.337 81.7594C106.092 81.3457 106.975 81.1317 107.744 80.7037C109.724 79.591 111.931 78.9775 114.082 78.5781C118.796 77.7221 123.524 76.8804 128.381 77.394C130.503 77.6222 132.654 77.7221 134.733 78.2214C136.001 78.5353 137.283 78.735 138.564 78.9775C143.435 79.9048 148.221 81.1175 152.066 84.5556C152.579 84.9979 152.992 85.112 153.604 84.5984C155.143 83.2859 155.983 80.1616 155.114 78.2642C154.872 77.7506 154.758 77.1515 154.274 76.7235C150.542 73.4565 146.369 71.1454 141.399 70.3465C135.189 69.3479 128.965 68.4491 122.983 68.5632L122.969 68.5775ZM150.499 86.8953C149.602 85.8538 148.719 85.1691 147.751 84.6412C145.614 83.4999 143.393 82.5298 141.014 82.002C137.824 81.2886 134.662 80.3613 131.429 79.9904C127.854 79.5767 124.222 79.2628 120.591 80.0332C118.226 80.5325 115.805 80.5896 113.455 81.3457C110.45 82.3158 107.63 83.4856 105.024 85.7682C107.815 86.4958 110.422 87.3232 113.085 87.8226C116.574 88.4788 120.078 89.1208 123.681 88.9781C124.977 88.921 126.273 89.3776 127.598 89.2349C132.34 88.7213 137.112 88.8497 141.854 88.5216C144.717 88.3219 147.494 87.8226 150.514 86.8667L150.499 86.8953ZM151.439 111.533C150.158 111.733 148.733 111.875 147.366 112.175C146.113 112.46 144.888 112.945 143.649 113.316C142.965 113.516 143.165 114.03 143.207 114.472C143.25 114.985 143.549 115.157 144.062 115.071C146.697 114.7 149.332 114.4 151.881 113.587C152.864 113.273 153.248 112.631 153.02 111.875C152.736 110.905 152.052 111.633 151.439 111.519V111.533Z" fill="#31736D"/>
<path fill-rule="evenodd" clip-rule="evenodd" d="M14.3714 57.136C17.1202 53.6979 20.3247 51.0872 24.1844 49.2183C26.8762 47.9201 29.5822 46.6219 32.4165 45.6803C35.621 44.6103 38.9537 44.0397 42.2722 43.3977C46.1318 42.6559 50.0627 42.3563 53.9366 41.7571C56.6854 41.3291 59.5054 41.2292 62.2969 40.9724C64.889 40.7442 67.4954 40.6301 70.0875 40.2449C72.1953 39.9453 74.3459 39.9168 76.4965 39.874C78.6471 39.8454 80.755 39.4888 82.8771 39.1606C87.1071 38.5187 91.2516 37.4344 95.3961 36.4501C98.2589 35.7796 101.122 34.9379 103.927 33.982C105.836 33.3258 107.744 32.6125 109.752 32.156C111.319 31.785 112.786 30.8435 114.353 30.23C118.07 28.7891 121.844 27.5765 125.747 26.7633C128.88 26.1071 132.056 25.5792 135.218 25.1085C136.5 24.923 137.838 25.0229 139.149 25.0942C142.353 25.2511 145.6 25.3367 148.648 26.3496C151.54 27.3055 154.502 28.19 157.051 30.0018C157.436 30.2728 157.892 30.444 158.319 30.658C160.797 31.8992 162.962 33.5683 164.856 35.5941C165.326 36.0934 165.497 36.7354 165.853 37.2775C166.394 38.0764 166.793 38.1049 167.605 37.6056C169.342 36.5071 170.695 34.9236 171.564 33.2117C172.533 31.2857 172.504 29.0602 172.034 26.8061C171.365 23.5963 169.328 21.2851 167.349 18.9312C166.494 17.9183 165.725 16.7342 164.486 16.0637C162.364 14.8939 160.754 12.9394 158.433 12.0692C158.162 11.9693 157.877 11.8267 157.649 11.6412C157.222 11.2988 156.339 11.1704 156.638 10.4143C156.895 9.72953 157.692 9.95779 158.248 10.0291C159.914 10.2431 161.466 10.9279 162.876 11.7411C164.585 12.7397 166.494 13.5243 167.833 15.1221C168.132 15.4788 168.531 15.7499 168.815 16.1493C170.112 17.9754 171.749 19.5304 173.088 21.3422C175.125 24.0813 176.108 26.9773 175.68 30.4725C175.452 32.3842 175.452 34.2531 174.156 35.7796C171.393 39.0322 168.189 41.6002 163.646 41.6287C162.805 41.6287 162.292 42.2564 161.495 42.342C159.444 42.5703 157.365 42.8128 155.342 43.1409C153.006 43.5118 150.642 43.6973 148.306 44.1538C145.928 44.6103 143.507 44.8956 141.157 45.5234C137.952 46.3793 134.691 47.0356 131.486 47.8202C129.35 48.3481 127.228 49.0043 125.191 49.7176C123.197 50.4166 121.189 51.1728 119.209 51.9431C115.905 53.2128 112.53 54.2971 109.297 55.7237C106.548 56.9363 103.771 58.1346 101.022 59.333C98.444 60.46 95.738 61.3731 92.9892 62.0721C90.8101 62.6142 88.631 63.1563 86.4804 63.8554C84.3013 64.5687 81.9656 64.8112 79.6868 65.2392C75.7132 65.9668 71.7396 66.6801 67.766 67.3934C67.5381 67.4362 67.296 67.479 67.0539 67.4647C63.1372 67.1651 59.2348 67.8784 55.3182 67.693C52.8685 67.5789 50.4473 67.8214 48.0261 67.7643C43.5255 67.6502 38.9964 67.6074 34.5528 66.7371C32.3452 66.3092 30.095 66.0381 27.9159 65.4817C25.2241 64.797 22.5323 64.0408 19.9829 62.9281C18.5302 62.2861 16.8923 62.0864 15.5535 61.2019C13.1038 59.5898 10.3978 58.2202 9.3296 55.1816C9.25839 54.9533 9.21566 54.6537 9.059 54.5396C7.46385 53.384 8.0193 51.6721 7.89112 50.1456C7.86264 49.7889 8.06203 49.4038 7.97658 49.0899C7.50658 47.3066 8.10476 45.7659 8.9593 44.2679C9.15869 43.9113 9.41506 43.5261 9.47202 43.1409C9.74263 41.2007 11.1241 39.9453 12.235 38.5615C12.8047 37.8624 13.5738 37.2347 14.3144 36.7497C17.9747 34.3672 21.7347 32.1274 25.9077 30.7436C28.8416 29.7592 31.861 29.2171 34.9231 28.8034C39.1958 28.2328 43.4543 28.1757 47.727 28.5609C48.14 28.6037 48.553 28.675 48.9661 28.7321C49.6782 28.8319 50.0342 29.3027 49.9915 29.959C49.963 30.6152 49.3791 30.8863 48.8521 30.8577C47.5418 30.7864 46.2458 30.8863 44.9355 30.8577C44.1094 30.8577 43.2834 30.8149 42.4431 30.658C41.6313 30.5011 40.8052 30.5581 39.9649 30.7008C38.0992 31.0289 36.2049 31.2572 34.3249 31.514C29.7104 32.156 25.3238 33.5826 21.2647 35.7938C18.8435 37.1063 16.7641 39.0465 14.5565 40.7299C14.2859 40.9439 14.1008 41.2863 13.9156 41.5859C12.4344 44.0539 11.3947 46.6932 11.2808 49.5892C11.1811 52.0145 11.6511 54.3113 13.5169 56.1089C13.8159 56.3942 14.0581 56.7366 14.4141 57.1788L14.3714 57.136ZM163.532 39.1464C162.563 38.2761 162.349 37.3774 161.737 36.7069C160.412 35.2232 158.817 34.1104 157.208 32.9834C155.883 32.0561 154.345 31.5425 152.949 30.7436C150.457 29.3027 147.737 28.3184 144.945 27.8618C140.915 27.2056 136.827 27.3197 132.782 28.0758C131.159 28.3897 129.535 28.8319 127.897 29.0031C125.462 29.2742 123.226 30.2015 120.904 30.872C119.423 31.3 117.999 31.9134 116.546 32.4555C113.669 33.5398 110.721 34.4956 107.844 35.5941C105.893 36.3359 103.927 37.0207 101.905 37.4915C97.5183 38.4901 93.2313 39.9168 88.8019 40.7014C85.7113 41.2435 82.6208 41.7856 79.4732 42.0852C76.7529 42.342 73.9899 42.0852 71.2981 42.6273C68.1932 43.2408 65.0314 43.1552 61.8839 43.4262C58.9784 43.6688 56.073 43.8399 53.2103 44.3535C49.4788 45.0098 45.7188 45.5947 41.9731 46.0655C39.6373 46.3651 37.4725 47.0784 35.2792 47.6918C30.4795 49.0328 25.9647 51.1442 21.8771 54.0403C20.225 55.2101 19.0286 56.865 17.818 58.4628C17.3053 59.119 17.5902 59.5185 18.3023 59.7895C19.8547 60.3744 21.3644 61.0449 22.931 61.5728C25.9504 62.6 29.041 63.3561 32.1886 63.9267C33.5274 64.1692 34.8234 64.8397 36.148 64.8397C38.2843 64.8397 40.3922 65.1679 42.5285 65.2392C47.9976 65.4389 53.4667 65.3105 58.9357 65.2392C61.4281 65.2107 63.9205 64.9824 66.413 64.7684C70.9135 64.3975 75.3287 63.3846 79.7723 62.6142C81.8232 62.2576 83.8741 61.9009 85.868 61.2875C87.5059 60.7882 89.1865 60.4172 90.8101 59.8751C92.7613 59.2189 94.8122 58.9764 96.7064 58.1061C99.0137 57.0362 101.506 56.3086 103.699 55.0389C105.822 53.8263 108.143 53.1843 110.322 52.1429C111.675 51.5009 113.242 51.1585 114.68 50.6449C116.973 49.8175 119.295 49.0899 121.574 48.2482C124.636 47.1212 127.698 46.0227 130.86 45.2666C135.987 44.0397 141.114 42.77 146.341 41.9996C147.808 41.7856 149.232 41.2578 150.728 41.2292C154.972 41.1579 159.017 39.931 163.503 39.1606L163.532 39.1464Z" fill="#31736D"/>
<path fill-rule="evenodd" clip-rule="evenodd" d="M62.866 73.856C59.4336 73.856 56.0297 74.3695 52.5973 74.2269C49.464 74.1128 46.3449 73.9558 43.2116 73.7561C38.2695 73.4422 33.3844 72.9001 28.5847 71.7588C24.6253 70.8173 20.666 69.733 16.9914 67.8784C16.6211 67.693 16.2651 67.4505 16.0229 67.1081C15.7666 66.7371 15.7096 66.3662 15.9232 65.924C16.1369 65.496 16.4502 65.3105 16.9345 65.3676C17.2905 65.4104 17.7035 65.3391 17.9884 65.496C21.2784 67.3221 24.8674 68.392 28.4423 69.3907C30.7068 70.0326 33.0853 70.318 35.4353 70.6033C38.3265 70.9599 41.2034 71.3879 44.1231 71.5448C48.3388 71.7731 52.5546 71.8302 56.7988 71.6304C60.2312 71.4735 63.6921 71.445 67.096 71.0027C69.973 70.6175 72.8784 70.4464 75.6984 69.6046C78.262 68.8485 80.9823 68.8771 83.6029 68.2779C88.7017 67.1081 93.715 65.6957 98.5716 63.6557C101.676 62.3574 104.838 61.1305 108.043 60.0891C109.282 59.6897 110.478 59.2331 111.703 58.7766C113.754 58.0205 115.862 57.4071 117.955 56.7508C120.505 55.9662 123.068 55.2101 125.618 54.4397C126.686 54.1116 127.754 53.7407 128.822 53.3983C129.164 53.2984 129.506 53.1843 129.862 53.17C130.289 53.1557 130.717 53.3127 130.93 53.6979C131.158 54.1258 130.888 54.511 130.603 54.8106C129.933 55.5097 129.121 56.066 128.238 56.3942C126.629 57.0076 125.005 57.7352 123.339 57.9349C122.128 58.0776 121.06 58.5626 120.006 58.9621C116.574 60.2603 113.07 61.3017 109.624 62.5429C105.664 63.9695 101.79 65.5959 97.831 67.0082C93.4871 68.5489 89.0577 69.7758 84.5144 70.6889C79.4584 71.7018 74.3596 72.4436 69.2751 73.2996C67.1815 73.6562 65.0309 73.8417 62.8803 73.8132L62.866 73.856Z" fill="#31736D"/>
<path fill-rule="evenodd" clip-rule="evenodd" d="M55.7738 29.0317C56.8562 29.103 57.8959 28.8319 58.9498 28.7035C62.5389 28.2185 66.128 27.8048 69.7171 27.334C70.358 27.2484 71.0131 27.1057 71.6113 26.9203C74.2746 26.1071 77.0376 25.7647 79.7152 25.0229C81.5952 24.5093 83.5749 24.3952 85.4264 23.7389C87.6624 22.9543 89.9412 22.3408 92.1773 21.5562C94.1285 20.8714 96.1509 20.3436 98.0166 19.4448C100.338 18.3463 102.888 17.9896 105.237 17.0053C106.861 16.3205 108.556 15.6928 110.108 14.9224C112.003 13.9808 113.911 13.0678 115.791 12.1262C117.785 11.1133 119.736 10.0291 121.873 9.27301C124.109 8.48837 126.288 7.61814 128.623 7.13309C132.583 6.29138 136.542 6.33418 140.516 6.63377C141.499 6.7051 142.524 6.53391 143.492 7.06175C143.977 7.33281 144.532 7.43268 144.418 8.13172C144.319 8.85929 143.692 8.87356 143.179 8.90209C142.225 8.94489 141.256 9.04475 140.331 8.87356C137.653 8.40277 135.032 8.87356 132.383 9.17315C130.418 9.38714 128.566 10.0719 126.63 10.3572C125.69 10.4999 124.878 11.0705 123.995 11.3987C122.115 12.0977 120.32 13.025 118.526 13.9238C116.774 14.794 114.908 15.4217 113.17 16.2777C111.433 17.1337 109.638 17.8612 107.958 18.7743C106.591 19.5304 105.095 19.7586 103.699 20.3293C102.574 20.7858 101.307 21.0283 100.181 21.5419C97.746 22.6689 95.1824 23.4393 92.633 24.2525C88.3461 25.6078 84.0021 26.7919 79.6155 27.8476C78.9888 28.0045 78.3337 28.0901 77.6785 28.1329C76.3113 28.2328 75.001 28.4467 73.7049 29.0031C72.1098 29.7022 70.3437 29.7592 68.6346 29.9447C67.3956 30.0874 66.185 30.4012 64.9459 30.5153C61.9977 30.7864 59.078 31.3285 56.1014 31.3C55.3038 31.3 54.5632 31.1145 53.8226 30.8863C53.2814 30.7293 52.7687 30.4725 52.8968 29.7878C53.025 29.1458 53.552 29.0031 54.1359 29.0031H55.7453L55.7738 29.0317Z" fill="#31736D"/>
<path fill-rule="evenodd" clip-rule="evenodd" d="M135.275 54.4397C134.434 54.5966 134.235 54.2543 134.078 53.8405C133.85 53.2556 134.021 52.7706 134.506 52.4139C135.588 51.6293 136.841 51.2441 138.137 50.9873C141.499 50.3168 144.86 49.632 148.221 49.0043C151.838 48.3195 155.413 47.5064 159.059 47.0356C160.284 46.8786 161.495 46.5363 162.691 46.1796C163.873 45.8229 165.055 45.9513 166.238 46.0227C166.921 46.0655 167.135 46.522 167.177 47.1069C167.22 47.7203 166.793 47.8773 166.323 48.077C164.714 48.7332 162.962 48.8046 161.295 49.1612C157.763 49.9316 154.217 50.7448 150.642 51.2726C147.594 51.7291 144.618 52.5566 141.57 52.956C139.989 53.17 138.465 53.6693 136.912 54.0545C136.272 54.2115 135.645 54.3684 135.303 54.454L135.275 54.4397Z" fill="#31736D"/>
<path fill-rule="evenodd" clip-rule="evenodd" d="M152.223 10.614C150.941 10.7282 149.687 10.186 148.391 10.1432C148.007 10.1432 147.594 9.90072 147.252 9.67247C146.754 9.35861 146.796 8.71663 147.366 8.6025C149.431 8.18878 151.482 7.97479 153.348 9.33008C153.647 9.54407 153.946 9.80086 153.803 10.2003C153.69 10.5712 153.362 10.7424 152.963 10.7139C152.721 10.6996 152.493 10.6426 152.223 10.614Z" fill="#31736D"/>
<path fill-rule="evenodd" clip-rule="evenodd" d="M129.919 84.9408C128.965 85.169 127.968 84.5984 126.885 84.6269C124.222 84.7411 121.587 85.0264 118.938 85.3402C117.77 85.4829 116.574 85.5685 115.52 86.1677C115.135 86.3817 114.736 86.4245 114.309 86.2675C113.91 86.1391 113.44 86.025 113.341 85.5685C113.227 85.112 113.611 84.8267 113.953 84.5699C115.42 83.4571 117.115 82.9863 118.895 82.915C121.63 82.8009 124.307 82.2587 127.056 82.3158C128.124 82.3443 129.164 82.5013 130.218 82.5869C130.845 82.6439 131.471 82.9863 131.927 83.4856C132.511 84.1276 132.326 84.7696 131.485 84.898C131.015 84.9693 130.531 84.898 129.919 84.898V84.9408Z" fill="white"/>
<path fill-rule="evenodd" clip-rule="evenodd" d="M139.804 86.9095C138.308 86.8667 136.912 86.3959 135.517 85.8824C135.104 85.7397 134.804 85.4544 134.861 84.9551C134.904 84.5271 135.203 84.3701 135.545 84.2275C135.873 84.0848 136.214 83.9279 136.571 84.0278C137.895 84.3559 139.205 84.7411 140.274 85.6398C140.544 85.8681 140.872 86.1534 140.701 86.5243C140.544 86.8525 140.16 86.9523 139.789 86.9095H139.804Z" fill="white"/>
<path fill-rule="evenodd" clip-rule="evenodd" d="M65.9851 50.8589C61.1 50.8161 57.2831 50.8018 53.5231 51.3582C50.7743 51.7577 48.0255 52.3426 45.3907 53.3412C43.7955 53.9404 42.2146 54.5253 40.648 55.2243C38.6541 56.1089 37.0874 57.6068 35.2644 58.7053C34.5523 59.1333 33.8544 59.6183 32.9998 59.6897C32.4586 59.7467 31.8462 59.8323 31.5614 59.2617C31.248 58.6482 31.5614 58.206 32.0456 57.7209C35.2501 54.4682 39.0813 52.4282 43.468 51.1728C46.3164 50.3596 49.1649 49.632 52.0561 48.99C53.8791 48.5906 55.7306 48.6762 57.5537 48.5763C61.1712 48.3623 64.803 48.4479 68.4206 48.3909C69.0045 48.3909 69.5884 48.4194 70.1866 48.2197C70.9842 47.9629 71.8387 48.0199 72.6648 48.1198C73.149 48.1769 73.5621 48.3766 73.6475 48.9758C73.733 49.5607 73.4766 49.8745 73.0066 50.1028C72.5224 50.3453 72.0239 50.5022 71.4684 50.5593C69.2751 50.759 67.096 50.8589 65.9709 50.8589H65.9851Z" fill="white"/>
<path fill-rule="evenodd" clip-rule="evenodd" d="M74.7871 54.2114C77.5644 53.8833 80.3559 53.8263 83.1332 53.5837C83.9877 53.5124 84.7995 53.5695 85.5971 53.8263C86.1668 54.0117 86.181 54.3826 85.825 54.7678C85.2553 55.4241 84.5147 55.8235 83.6459 55.8521C80.0283 55.9947 76.4393 56.6082 72.8075 56.6224C72.4514 56.6224 72.0811 56.5796 71.7393 56.651C68.962 57.1645 66.142 57.3072 63.3363 57.5925C61.2996 57.7923 59.2915 58.4913 57.4115 59.4186C56.6424 59.7895 55.9445 59.8181 55.2324 59.3187C54.7482 58.9763 54.563 58.6054 55.0472 58.1632C56.1724 57.1217 57.2975 56.2658 58.9354 55.8949C63.6924 54.8392 68.5775 54.9676 73.3487 54.2114C73.8187 54.1401 74.2887 54.2114 74.7729 54.2114H74.7871Z" fill="white"/>
<path fill-rule="evenodd" clip-rule="evenodd" d="M138.137 32.641C140.16 32.8693 142.467 33.069 144.76 33.3971C146.042 33.5683 147.081 34.2959 147.979 35.2089C148.42 35.6512 148.264 36.0364 147.608 36.179C146.868 36.3359 146.184 36.0792 145.501 35.9222C140.558 34.7239 135.602 34.7239 130.688 35.9936C127.071 36.9209 123.425 37.7198 119.736 38.2904C119.209 38.376 118.668 38.3903 118.141 38.2619C117.913 38.2048 117.671 38.0907 117.642 37.8196C117.614 37.5771 117.714 37.3203 117.927 37.2062C118.44 36.9066 118.953 36.5214 119.508 36.4073C121.887 35.908 124.052 34.8095 126.43 34.2531C130.204 33.3686 134.007 32.8407 138.137 32.641Z" fill="white"/>
<path fill-rule="evenodd" clip-rule="evenodd" d="M83.3464 49.4465C82.2924 49.632 81.3524 49.2754 80.3982 48.8902C79.9852 48.7332 79.6149 48.5478 79.6718 48.0342C79.743 47.4635 80.1418 47.2496 80.6688 47.1925C82.3779 47.0213 84.087 46.8358 85.796 46.6646C86.1521 46.6218 86.5651 46.7074 86.85 46.5505C88.8866 45.3664 91.1939 45.4948 93.3872 45.0098C96.8481 44.2394 100.266 43.3121 103.585 42.0424C104.482 41.7 105.322 41.7286 106.205 41.7571C106.747 41.7714 107.274 41.9711 107.345 42.6559C107.43 43.2978 107.046 43.6545 106.547 43.9255C106.39 44.0111 106.22 44.0825 106.049 44.1395C103.2 44.9242 100.409 45.9085 97.5887 46.793C95.9651 47.3066 94.2275 47.5349 92.5184 47.649C91.3648 47.7203 90.3109 47.9629 89.2427 48.3338C87.3342 48.9758 85.3403 49.2326 83.3464 49.4465Z" fill="white"/>
</g>
<defs>
<clipPath id="clip0_125_19747">
<rect width="183" height="146" fill="white"/>
</clipPath>
</defs>
</svg>
