<svg width="204" height="87" viewBox="0 0 204 87" fill="none" xmlns="http://www.w3.org/2000/svg">
<g clip-path="url(#clip0_125_19772)">
<path d="M200.223 49.934V50.9781C199.88 51.9376 199.651 52.9676 199.136 53.8424C198.835 54.3644 198.735 54.8442 198.606 55.3944C198.263 56.8054 197.791 58.174 197.39 59.5568C197.233 60.093 197.19 60.6715 196.961 61.1794C196.646 61.8426 196.103 62.3928 195.845 63.0701C195.487 63.9872 194.886 64.8197 194.958 65.9485C195.03 66.9926 194.758 68.079 194.572 69.1372C194.443 69.9133 193.771 70.6046 194.214 71.4653C194.257 71.55 194.171 71.6911 194.157 71.804C194.157 72.5094 193.527 73.0033 193.399 73.5818C192.969 75.4866 191.453 76.6577 190.38 78.0968C189.278 79.5784 187.862 80.8482 186.66 82.2592C185.744 83.3315 184.857 84.3897 183.484 84.8836H180.136C179.707 84.7707 179.292 84.5873 178.863 84.545C178.233 84.4744 177.819 84.164 177.876 83.5714C177.947 82.7671 177.432 82.626 176.874 82.4426C176.56 82.3438 176.23 82.2592 175.916 82.1886C174.814 81.9347 173.712 81.6948 172.625 81.4408C172.282 81.3562 171.938 81.1445 171.624 81.201C170.451 81.4126 169.42 80.8764 168.347 80.6084C165.872 79.9734 163.497 78.9152 160.865 78.9434C160.708 78.9434 160.507 78.8729 160.393 78.7741C159.72 78.1674 158.919 78.2379 158.118 78.2521C157.904 78.2521 157.66 78.1815 157.489 78.0686C156.745 77.5889 156.001 77.1515 155.042 77.3773C154.842 77.4196 154.599 77.2785 154.384 77.2221C154.041 77.1092 153.697 76.9822 153.354 76.8834C152.353 76.6153 151.451 75.9804 150.335 76.1779C150.307 76.1779 150.278 76.1638 150.249 76.1497C149.577 75.9381 148.919 75.6418 148.232 75.5148C147.474 75.3737 146.744 74.894 145.929 75.1338C145.514 74.2167 144.484 74.9363 143.84 74.386C143.425 74.0333 142.581 74.2449 141.98 74.0474C140.421 73.5394 138.904 72.9186 137.359 72.3683C135.771 71.804 134.183 71.296 132.595 70.7457C130.878 70.139 129.176 69.4759 127.444 68.9115C125.685 68.333 123.882 67.8533 122.108 67.303C121.65 67.1619 121.207 66.9502 120.763 66.795C120.034 66.5411 119.161 66.4846 118.574 66.0472C117.201 65.0313 115.556 64.8761 114.025 64.3823C112.78 63.9731 111.478 63.7756 110.219 63.4228C108.502 62.9431 106.8 62.4069 105.069 61.9272C104.597 61.8002 104.082 61.8284 103.638 61.6309C101.378 60.6715 98.9597 60.3328 96.5848 59.8249C96.2843 59.7684 96.0268 59.5709 95.7407 59.4298C95.569 59.3451 95.4116 59.1899 95.2256 59.1476C92.9795 58.6679 90.7333 58.2164 88.5015 57.7225C87.3855 57.4827 86.2839 57.2005 85.1966 56.8901C84.1522 56.5938 83.1364 56.1987 82.092 55.9165C81.0762 55.6484 80.0176 55.4932 79.0018 55.2251C77.5282 54.8301 76.0975 54.3362 74.6239 53.9412C73.3649 53.6025 72.0773 53.3627 70.8183 53.024C70.4177 52.9112 70.0744 52.5584 69.6738 52.4455C68.0142 52.0081 66.3117 51.6695 64.6664 51.1898C63.6649 50.8935 62.735 50.3573 61.7621 49.9763C60.6319 49.5389 59.4731 49.1721 58.3571 48.7065C57.5846 48.382 56.7262 48.4807 55.9679 47.9163C55.367 47.4648 54.3942 47.5213 53.5787 47.3237C52.6487 47.098 51.7045 46.9004 50.7889 46.6041C50.1307 46.3925 49.5442 45.8704 48.9004 45.7999C47.0691 45.6165 45.5383 44.4595 43.6498 44.4595C42.9631 44.4595 42.2906 43.9092 41.5896 43.6834C40.4451 43.3025 39.2862 42.9639 38.1131 42.6393C36.9828 42.3289 35.8383 42.0326 34.6938 41.7645C32.5334 41.2566 30.3588 40.7486 28.1842 40.2971C27.7836 40.2125 27.3401 40.3959 26.9252 40.3254C25.7806 40.1419 24.7792 39.5211 23.6776 39.1825C21.8177 38.6181 19.7003 38.7592 18.0693 37.4611C18.0264 37.4329 17.8976 37.5175 17.8261 37.5034C15.9805 36.9532 14.1206 36.4029 12.2751 35.8244C10.6727 35.3305 9.08466 34.7803 7.48231 34.2864C7.19617 34.2018 6.76697 34.1171 6.56668 34.2582C5.47936 34.9919 4.42066 34.6674 3.34766 34.2864V33.073C3.50503 33.0025 3.70533 32.9883 3.79117 32.8755C4.82125 31.5915 5.82273 30.2934 6.8385 28.9953C7.06741 28.7131 7.33924 28.4733 7.55384 28.1911C8.04027 27.5702 8.42655 26.8224 9.02744 26.3145C9.97168 25.5102 11.059 24.8753 12.0891 24.1698C12.4324 23.93 12.833 23.7465 13.1478 23.4643C13.8202 22.8576 14.2208 22.0252 14.9218 21.3761C15.5656 20.7976 15.9376 19.9087 16.8103 19.4572C17.0535 19.3302 17.1251 18.8928 17.2824 18.5824C17.6544 17.8064 17.9835 17.0162 18.3841 16.2543C18.613 15.8169 18.9992 15.4642 19.1995 15.0268C19.9149 13.5171 20.5444 11.9791 21.2597 10.4694C22.3899 8.07073 23.5488 5.68621 24.6933 3.28757C25.1798 2.25756 25.752 1.18523 26.9395 0.973588C29.5004 0.52208 32.0327 0.88893 34.4792 1.79195C34.6365 1.84839 34.8082 1.89071 34.9656 1.93304C35.3948 2.06003 35.8383 2.17291 36.2675 2.34222C37.2404 2.70907 38.1846 3.14647 39.1718 3.4851C39.93 3.75319 40.7741 3.79551 41.4608 4.16237C43.9216 5.47456 46.8259 5.37579 49.3153 6.58922C49.8446 6.8432 50.4741 6.87142 51.075 6.98429C51.5614 7.08306 52.0049 7.16772 52.5057 7.36525C53.736 7.88731 55.1667 7.95786 56.5116 8.19772C57.9565 8.43758 59.4015 8.6069 60.8322 8.91731C61.9195 9.14307 62.9496 9.58046 64.0369 9.86266C65.6106 10.2718 67.1987 10.6387 68.7868 11.0055C69.917 11.2595 71.0758 11.4712 72.2061 11.7392C73.3077 12.0214 74.395 12.3742 75.4966 12.6564C75.7684 12.7269 76.1118 12.5999 76.3693 12.6987C77.3851 13.1079 78.358 13.644 79.3881 14.0109C83.7516 15.5347 88.1295 17.0304 92.5074 18.5119C95.2686 19.4431 98.0441 20.2615 100.991 20.332C101.306 20.332 101.735 20.3602 101.907 20.1768C102.365 19.6971 102.808 19.8946 103.28 20.0498C104.725 20.5437 106.185 21.0657 107.63 21.5737C107.973 21.7006 108.345 21.7853 108.674 21.9405C110.148 22.6178 111.535 23.6054 113.08 23.93C114.282 24.1839 115.226 24.8189 116.328 25.1857C118.045 25.7642 119.676 26.6108 121.364 27.2739C122.051 27.542 122.809 27.6549 123.524 27.8524C123.796 27.923 124.039 28.1205 124.326 28.177C126.729 28.7131 129.118 29.2634 131.536 29.7431C133.024 30.0394 134.555 30.1523 136.029 30.4768C137.473 30.7872 138.89 31.267 140.321 31.6762C141.279 31.9583 142.238 32.2123 143.168 32.5509C143.826 32.7908 144.469 33.3834 145.099 33.3411C146.63 33.2564 147.803 34.1877 149.191 34.484C152.338 35.1753 155.428 36.1348 158.576 36.8544C160.464 37.2918 162.396 37.6163 164.313 37.7151C166.96 37.8421 169.363 38.9991 171.981 39.2812C172.597 39.3518 173.326 39.888 174.042 40.156C175.029 40.537 175.973 41.0026 176.96 41.3836C178.248 41.8774 179.593 42.2443 180.837 42.8228C181.996 43.373 183.269 43.4154 184.471 43.7399C185.816 44.1208 187.104 44.657 188.463 45.0098C189.536 45.2919 190.537 45.7999 191.61 46.0821C192.526 46.322 193.513 46.3361 194.443 46.5477C195.874 46.8722 197.29 47.3237 198.721 47.6624C199.536 47.8599 200.066 48.4102 200.108 49.2285C200.108 49.4684 200.223 49.6942 200.28 49.9199L200.223 49.934Z" fill="white"/>
<path d="M196.131 70.4212C196.131 70.4212 171.438 62.5339 167.346 60.234C163.254 57.9342 152.81 56.6502 152.81 56.6502H149.82C149.82 56.6502 149.992 51.6695 149.82 47.6482C149.648 43.627 151.48 40.6499 149.82 40.7627C148.16 40.8756 145.414 46.7593 145.414 46.7593L143.268 54.9852L96.1697 37.9267C96.1697 37.9267 94.9822 32.9742 96.1697 29.9265C97.3572 26.8788 97.7291 27.1187 96.5274 26.2862C95.3256 25.4538 93.4228 26.2862 93.4228 26.2862L90.6759 36.8403L64.6805 31.2105L43.3349 24.0428L44.1646 16.0427L43.9214 13.1078H41.1745L38.6709 23.2245C38.6709 23.2245 28.5417 19.8099 25.1939 19.3443C21.8461 18.8787 15.4081 18.018 15.4081 18.018L15.3795 17.9898C15.2936 18.1873 15.1935 18.399 15.1076 18.5965C14.9646 18.8928 14.8787 19.3443 14.6355 19.4713C13.7628 19.9087 13.3908 20.7976 12.747 21.3902C12.046 22.0392 11.6454 22.8576 10.973 23.4784C10.6582 23.7606 10.2576 23.944 9.91428 24.1839C8.88419 24.8894 7.79688 25.5384 6.85263 26.3286C6.25175 26.8365 5.87977 27.5843 5.37904 28.2052C5.15013 28.4873 4.8783 28.7272 4.6637 29.0094C3.64792 30.3075 2.63214 31.6056 1.61636 32.8896C1.53052 33.0024 1.31592 33.0165 1.17285 33.0871V34.3005C2.24586 34.6815 3.30456 35.0201 4.39187 34.2723C4.59217 34.1312 5.02137 34.2159 5.3075 34.3005C6.90986 34.7944 8.49791 35.3305 10.1003 35.8385C11.9458 36.417 13.7914 36.9531 15.6513 37.5175C15.7228 37.5316 15.8516 37.447 15.8945 37.4752C17.5255 38.7733 19.6429 38.6322 21.5027 39.1966C22.6187 39.5352 23.6058 40.156 24.7504 40.3394C25.151 40.41 25.6088 40.2125 26.0094 40.3112C28.184 40.7768 30.3586 41.2707 32.5189 41.7786C33.6635 42.0467 34.808 42.343 35.9383 42.6534C37.1114 42.9779 38.2703 43.3166 39.4148 43.6975C40.1158 43.9374 40.7883 44.4736 41.475 44.4736C43.3635 44.4736 44.9086 45.6164 46.7256 45.814C47.3694 45.8845 47.9702 46.4066 48.614 46.6182C49.5297 46.9145 50.4739 47.1121 51.4039 47.3378C52.205 47.5354 53.1922 47.4789 53.7788 47.9304C54.5513 48.5089 55.4098 48.4101 56.168 48.7206C57.2839 49.1862 58.4428 49.5389 59.573 49.9904C60.5459 50.3714 61.4758 50.9076 62.4773 51.2039C64.1226 51.6977 65.8108 52.0222 67.4847 52.4596C67.8852 52.5725 68.2143 52.9252 68.6292 53.0381C69.8882 53.3767 71.1758 53.6166 72.4348 53.9552C73.8941 54.3503 75.3391 54.8441 76.8127 55.2392C77.8284 55.5214 78.8871 55.6625 79.9029 55.9306C80.9473 56.2128 81.9631 56.6078 83.0075 56.9042C84.1091 57.2146 85.2107 57.4967 86.3123 57.7366C88.5442 58.2304 90.8047 58.682 93.0365 59.1617C93.2225 59.204 93.3799 59.3451 93.5516 59.4439C93.8234 59.585 94.0952 59.7825 94.3957 59.839C96.7706 60.3469 99.1884 60.6855 101.449 61.645C101.892 61.8284 102.407 61.8002 102.88 61.9413C104.596 62.4351 106.299 62.9713 108.03 63.4369C109.289 63.7896 110.591 63.9872 111.836 64.3964C113.366 64.8902 115.012 65.0454 116.385 66.0613C116.972 66.4987 117.844 66.5551 118.574 66.8091C119.032 66.9643 119.461 67.176 119.919 67.3171C121.693 67.8532 123.481 68.3471 125.255 68.9256C126.986 69.4899 128.689 70.1531 130.406 70.7598C131.994 71.3101 133.582 71.8321 135.17 72.3824C136.715 72.9327 138.232 73.5394 139.791 74.0615C140.392 74.259 141.25 74.0615 141.651 74.4001C142.309 74.9645 143.325 74.2308 143.74 75.1479C144.569 74.908 145.285 75.3737 146.043 75.5289C146.73 75.6558 147.388 75.9522 148.06 76.1638C148.089 76.1638 148.118 76.192 148.146 76.192C149.248 76.0086 150.163 76.6294 151.165 76.8975C151.508 76.9963 151.852 77.1233 152.195 77.2361C152.41 77.3067 152.653 77.4478 152.853 77.3913C153.812 77.1656 154.556 77.603 155.3 78.0827C155.486 78.1956 155.729 78.2802 155.929 78.2661C156.73 78.252 157.546 78.1815 158.204 78.7882C158.318 78.9011 158.519 78.9716 158.676 78.9575C161.308 78.9152 163.683 79.9875 166.158 80.6224C167.231 80.8905 168.247 81.4408 169.435 81.215C169.735 81.1586 170.093 81.3703 170.436 81.4549C171.538 81.7089 172.625 81.9487 173.727 82.2027C174.041 82.2733 174.37 82.3579 174.685 82.4567C175.243 82.626 175.758 82.7812 175.687 83.5855C175.629 84.164 176.044 84.4885 176.674 84.559C177.103 84.6014 177.532 84.7848 177.947 84.8977C179.063 84.8977 183.77 86.1816 184.886 86.1816C186.259 85.6737 195.087 73.1867 195.044 73.1161C194.786 72.6082 195.873 70.8727 196.045 70.4353L196.131 70.4212Z" fill="#79CBE8"/>
<path fill-rule="evenodd" clip-rule="evenodd" d="M34.8658 33.0871C35.0947 33.7503 35.3522 34.4134 35.5239 35.0907C35.6527 35.5704 35.3093 35.7256 34.8944 35.6409C33.9502 35.4716 32.1189 33.1012 32.1761 32.17C32.219 31.5068 32.9201 30.8154 33.7499 30.6885C34.594 30.5615 35.3951 30.759 36.182 31.0976C37.7128 31.7326 37.7844 31.6338 37.6413 30.0535C37.3409 26.8789 37.627 23.7042 37.7557 20.5295C37.8559 18.4413 38.8288 16.5647 39.5441 14.6317C39.7444 14.0814 39.9733 13.5594 40.0448 12.9668C40.2022 11.6263 41.1751 10.7798 42.5628 10.681C43.736 10.6105 44.995 11.4147 45.3097 12.5435C45.6674 13.8133 45.6531 15.0973 45.2239 16.3813C44.6516 18.0744 44.4656 19.824 44.3512 21.6019C44.2939 22.4484 44.4799 22.9564 45.4528 23.295C46.6402 23.7042 47.8992 23.803 49.0438 24.2968C51.0038 25.1434 53.064 25.7219 55.1528 26.0746C58.2001 26.5967 60.8898 28.0923 63.794 28.9671C66.5123 29.7996 69.2592 30.5897 71.9775 31.4081C75.8546 32.5792 79.8605 33.2423 83.7377 34.3993C85.4974 34.9213 87.3573 35.1189 89.1599 35.4998C89.9325 35.6551 90.1614 35.2882 90.0756 34.6392C89.9182 33.5809 90.4046 32.692 90.7337 31.7608C91.3345 30.0817 92.2359 28.4591 92.1071 26.5967C92.0499 25.9194 92.4219 25.482 92.894 25.101C94.1244 24.0852 95.6552 24.2968 97.0859 25.101C98.0587 25.6513 98.4593 27.4715 97.93 28.7554C96.9428 31.2105 96.814 33.7926 96.6567 36.3746C96.6137 36.9672 96.8283 37.2353 97.372 37.3623C100.591 38.0819 103.567 39.4929 106.686 40.4664C111.178 41.8633 115.599 43.4718 119.948 45.2355C122.523 46.2937 125.127 47.3237 127.702 48.3678C132.309 50.2303 137.059 51.7824 141.752 53.4755C142.653 53.8 142.968 53.7013 143.154 52.7841C143.812 49.6518 144.742 46.6041 145.829 43.5988C145.958 43.2319 145.943 42.7804 145.901 42.3853C145.757 41.1578 146.516 40.537 147.474 40.0855C148.418 39.6481 150.579 39.9444 151.18 40.7063C151.967 41.7222 152.253 42.8933 151.781 44.1773C150.536 47.493 150.45 50.9781 150.379 54.4491C150.364 55.1969 150.622 55.4932 151.351 55.6061C154.399 56.0999 157.332 57.2146 160.422 57.525C162.625 57.7366 164.8 58.174 166.86 58.9077C170.551 60.2199 174.414 60.9959 177.948 62.8161C180.881 64.3258 183.942 65.5816 186.889 67.0913C189.136 68.2483 191.596 68.8268 194.014 69.5041C194.772 69.7157 195.502 69.9697 196.146 70.4212C196.432 70.6328 196.79 70.8304 196.704 71.2395C196.604 71.7052 196.174 71.9309 195.774 71.9591C195.187 72.0015 194.572 71.9732 194.014 71.818C191.654 71.1972 189.178 70.788 186.99 69.7721C184.672 68.6998 182.125 68.0931 180.022 66.5834C179.55 66.2447 178.963 66.0472 178.405 65.8214C175.487 64.6645 172.597 63.4369 169.635 62.4069C166.96 61.4616 164.256 60.4316 161.481 59.9659C158.891 59.5427 156.302 59.1194 153.741 58.555C152.925 58.3716 152.124 58.1176 151.337 57.8777C150.607 57.652 150.35 58.0047 150.307 58.6537C150.178 60.4457 151.28 61.2923 152.725 60.9818C153.412 60.8407 154.041 61.0101 154.656 61.2076C155.658 61.518 156.187 62.548 155.972 63.6062C155.744 64.7491 154.971 65.4687 153.941 65.5251C153.626 65.5251 153.34 65.4828 153.14 65.2288C152.911 64.9466 153.025 64.6786 153.24 64.4387C153.354 64.3117 153.512 64.1847 153.583 64.0295C153.769 63.6062 154.027 63.1547 153.655 62.7032C153.34 62.3223 152.882 62.421 152.482 62.5198C151.58 62.7455 150.708 62.8161 149.906 62.2376C149.492 61.9272 149.134 62.0965 148.776 62.3787C148.018 62.9854 147.174 62.6609 146.344 62.6327C146.172 62.6327 145.986 62.5762 145.915 62.3787C145.829 62.1247 145.943 61.9272 146.129 61.7579C146.931 61.1088 148.304 60.7984 148.404 59.7966C148.504 58.809 148.175 57.7084 148.147 56.6502C148.132 56.0011 148.061 55.3521 147.975 54.7031C147.703 52.6289 147.946 50.5548 148.39 48.5513C148.748 46.9145 148.59 45.1226 149.635 43.6411C149.821 43.3871 149.778 42.9497 149.792 42.597C149.792 42.2866 149.663 42.0044 149.348 41.8774C149.005 41.7363 148.805 42.0044 148.59 42.2019C148.19 42.597 148.061 43.119 147.918 43.627C147.059 46.5336 146.215 49.4543 145.643 52.4314C145.343 54.0399 144.999 55.6766 145.228 57.3416C145.357 58.2728 145.042 59.204 145.128 60.1494C145.185 60.6855 144.384 61.0383 144.184 60.6573C143.511 59.4298 142.438 59.8107 141.451 59.8249C140.979 59.8249 140.55 59.458 139.949 59.712C139.92 60.488 140.421 61.0806 140.764 61.7296C140.95 62.0824 141.251 62.4634 140.836 62.8443C140.335 63.3099 139.949 62.8866 139.591 62.6044C138.79 61.9554 138.175 61.1653 137.76 60.2199C137.288 59.0911 137.46 58.5973 138.561 58.1176C139.119 57.8636 139.749 57.6661 140.292 57.9483C141.008 58.3151 141.551 57.9765 142.138 57.6943C142.51 57.525 142.982 57.4403 142.896 56.8759C142.81 56.3257 142.639 55.86 141.995 55.7048C140.421 55.338 138.89 54.8583 137.302 54.562C134.641 54.0399 132.238 52.8265 129.748 51.8811C127.388 50.9781 125.027 49.9904 122.681 49.031C120.434 48.1139 118.231 47.0274 115.899 46.3502C111.908 45.1932 108.131 43.4295 104.096 42.3712C101.964 41.8069 99.8041 41.0873 97.8155 40.0008C97.4578 39.8033 97.0859 39.5775 96.4993 39.7751C96.4993 41.2425 96.4421 42.7381 96.5136 44.2478C96.5565 45.1085 97.0859 45.3766 98.0158 45.1932C98.5452 45.0944 99.0602 44.9533 99.5895 44.8828C100.605 44.7275 101.364 45.1791 101.836 46.0115C102.251 46.7593 101.764 47.366 101.292 47.9304C100.949 48.3396 100.577 48.7347 100.19 49.0874C99.9615 49.2991 99.6468 49.3414 99.3606 49.158C99.0888 48.9745 98.9887 48.6359 99.1174 48.3819C99.3749 47.8458 99.518 47.2955 99.6039 46.5618C98.2304 46.7311 96.9571 47.1262 95.6695 46.6747C95.3118 46.5477 95.0114 46.8722 94.7396 47.1121C94.3676 47.4366 93.9384 47.6341 93.4376 47.5918C92.9083 47.5495 92.2645 47.5636 92.0499 46.971C91.821 46.3502 92.4362 46.1949 92.8368 45.9974C94.3103 45.2637 94.6823 44.3043 94.3533 42.5688C93.7381 39.2671 93.8525 35.909 94.6394 32.5792C94.9971 31.1117 95.0114 29.5738 95.741 28.1769C95.9842 27.7113 96.3848 26.7942 95.4406 26.5261C94.7682 26.3427 94.4105 27.0482 94.2817 27.6267C93.6379 30.4063 92.4791 33.0307 92.1357 35.9231C91.7924 38.7733 91.4061 41.6234 91.3489 44.5018C91.3489 44.911 91.1772 45.1932 90.8338 45.3484C90.4189 45.5318 90.1757 45.1932 89.9325 44.9533C89.4031 44.4312 89.3459 43.6975 89.2171 43.0062C88.6163 43.1049 88.1012 43.2178 87.5862 43.2601C86.2127 43.4012 85.9552 43.6693 86.0554 45.038C86.084 45.4471 86.1984 45.8563 86.27 46.2655C86.3272 46.6041 86.4702 46.9851 85.9981 47.1685C85.6834 47.2955 85.4259 47.1262 85.1826 46.9428C84.3529 46.3219 83.5803 44.3466 83.938 43.4153C84.3815 42.2866 85.34 41.7081 86.5418 41.5247C88.7736 41.186 89.2887 40.5229 89.2314 38.0678C85.2542 37.193 81.2483 36.3746 77.2853 35.4152C73.7659 34.5686 70.3322 33.3834 66.7698 32.7202C65.4965 32.4804 64.2519 31.9865 63.0501 31.5209C58.9011 29.8842 54.5948 28.7696 50.3886 27.3021C48.8864 26.7801 47.284 26.6813 45.8248 25.9335C44.7661 25.3973 44.5085 25.7642 44.5085 26.9494C44.5085 28.7131 44.7231 30.4768 44.809 32.2405C44.809 32.4804 44.809 32.7061 44.7804 32.946C44.7374 33.2987 44.6802 33.6797 44.251 33.7785C43.736 33.8913 43.4641 33.5386 43.3211 33.1435C43.0779 32.4804 42.849 31.8031 42.6773 31.1117C41.9619 28.2193 42.0907 25.2421 42.0049 22.3214C41.9333 19.9369 42.2767 17.4254 43.1351 15.0832C43.2782 14.6881 43.364 14.2931 43.0206 13.8416C42.0621 14.2366 41.6472 15.1396 41.3611 15.958C41.0034 17.0021 40.5599 18.0603 40.4168 19.1327C39.9161 22.7447 39.8588 26.385 39.7444 30.0112C39.7301 30.5474 39.773 30.9989 40.4597 31.2528C41.7044 31.7185 41.8761 33.073 42.5342 34.0324C42.6916 34.2723 42.6344 34.6109 42.3196 34.7944C42.105 34.9214 41.8475 34.9355 41.6472 34.7944C41.3038 34.5545 41.0177 34.2441 40.6743 34.0183C40.2308 33.722 39.773 33.3129 39.215 33.4681C37.7128 33.9055 36.4109 33.5668 35.1948 32.692C35.0661 32.6638 34.8515 32.5509 34.8086 32.6074C34.6512 32.7767 34.737 32.9742 34.8801 33.1435L34.8658 33.0871ZM37.7557 31.789L37.8702 31.662C37.8702 31.662 37.7844 31.5774 37.7414 31.5491C37.6985 31.6056 37.6556 31.6761 37.627 31.7326C37.6699 31.7467 37.7128 31.7749 37.7557 31.789Z" fill="#31736D"/>
<path fill-rule="evenodd" clip-rule="evenodd" d="M182.883 87C181.224 87 179.721 86.3369 178.19 85.9136C173.841 84.7143 169.521 83.3174 165.186 82.0758C162.339 81.2574 159.52 80.2838 156.673 79.5642C152.753 78.5625 148.905 77.3067 144.999 76.2626C140.464 75.0492 135.957 73.7793 131.522 72.2696C130.492 71.9168 129.433 71.8463 128.403 71.5218C123.811 70.0967 119.218 68.6575 114.568 67.4158C111.292 66.5411 108.073 65.511 104.783 64.6927C102.536 64.1424 100.333 63.3241 98.0727 62.7738C93.9094 61.7579 89.8892 60.2764 85.7259 59.2605C83.0935 58.6114 80.4753 57.7084 77.8572 56.9324C73.2791 55.592 68.7009 54.2939 64.1513 52.8829C61.7621 52.1351 59.3586 51.3873 56.955 50.7947C53.9363 50.0328 51.0034 49.0733 47.9847 48.3255C44.9374 47.5636 41.9616 46.4772 38.9428 45.6165C37.1688 45.1085 35.3948 44.5441 33.6207 44.1067C31.5892 43.5988 29.7007 42.6393 27.6119 42.3713C25.2227 42.0608 23.1053 40.9603 20.8162 40.3536C16.2237 39.1401 11.6456 37.8985 7.12462 36.417C5.65103 35.9373 4.1059 35.6833 2.60369 35.3023C2.03142 35.1612 1.45915 34.9637 0.915491 34.7379C0.500595 34.5686 -0.100289 34.4699 0.0284719 33.8208C0.128619 33.2846 0.457675 32.8472 1.02994 32.6638C1.73098 32.4522 2.47493 32.4522 3.14734 32.6356C7.36784 33.8631 11.5311 35.2741 15.7945 36.3323C17.9834 36.8685 20.015 37.8562 22.2755 38.1666C23.9637 38.4064 25.5088 39.2954 27.197 39.7045C31.4747 40.7204 35.6094 42.3148 39.8728 43.3307C43.7642 44.2619 47.4268 45.9128 51.404 46.4913C52.291 46.6183 53.035 47.1826 53.922 47.4084C57.0981 48.2126 60.3028 48.9463 63.4074 49.9763C67.399 51.3026 71.505 52.2198 75.4966 53.532C78.3866 54.4773 81.2908 55.338 84.2237 56.0999C86.8132 56.7631 89.3455 57.6097 91.9064 58.3151C95.6405 59.331 99.303 60.5868 103.051 61.4898C105.197 62.0119 107.243 62.7597 109.404 63.2394C111.178 63.6345 112.88 64.4246 114.668 64.8902C119.733 66.1883 124.698 67.7968 129.705 69.2783C134.312 70.647 138.976 71.8181 143.582 73.1444C147.631 74.3014 151.623 75.6559 155.7 76.7423C159.749 77.8288 163.712 79.1833 167.761 80.2697C171.366 81.2433 175 82.1745 178.548 83.388C180.022 83.8959 181.581 84.0652 183.069 84.5167C183.47 84.6437 183.899 84.7001 184.271 84.8695C184.829 85.1093 185.043 85.6032 184.972 86.1817C184.915 86.7602 184.471 86.9577 183.956 87C183.598 87.0423 183.241 87 182.883 87Z" fill="#31736D"/>
<path fill-rule="evenodd" clip-rule="evenodd" d="M201.754 49.1439C200.881 49.3555 200.051 48.7488 199.136 48.5089C197.404 48.0574 195.63 47.7329 193.957 47.1967C191.124 46.2937 188.219 45.6588 185.372 44.8263C181.166 43.5847 176.946 42.4136 172.668 41.3695C170.436 40.8192 168.161 40.2689 166.001 39.4505C164.256 38.7874 162.439 38.4629 160.65 38.0537C156.287 37.0519 152.038 35.6974 147.717 34.5827C144.555 33.7785 141.365 32.9883 138.246 32.0571C133.682 30.7026 129.061 29.5879 124.483 28.2757C119.504 26.8506 114.568 25.2563 109.432 24.3815C108.345 24.198 107.329 23.549 106.256 23.2386C102.608 22.1804 98.8881 21.2915 95.1684 20.4731C94.081 20.2332 93.0796 19.6971 91.9636 19.4431C89.2167 18.8082 86.4985 18.0321 83.7802 17.2984C81.0905 16.5647 78.4008 15.7746 75.6969 15.0691C71.4048 13.9544 67.17 12.5576 62.8494 11.584C59.5302 10.8362 56.2969 9.82032 53.0064 8.95963C47.5984 7.54867 42.2763 5.89784 36.8683 4.47277C34.2216 3.7814 31.5748 3.13235 28.9424 2.39865C28.4846 2.27167 28.0125 2.1729 27.569 2.0318C27.011 1.86249 26.9538 1.38276 26.9395 0.888922C26.9395 0.310427 27.3543 0.268098 27.7836 0.183441C28.7278 -0.0140942 29.6577 -0.0846424 30.6163 0.183441C33.0771 0.860703 35.595 1.38276 38.0272 2.1729C42.3907 3.59797 46.8688 4.52921 51.2609 5.85551C55.8677 7.25237 60.5603 8.33881 65.21 9.59457C71.877 11.3865 78.5439 13.1925 85.2109 15.0127C88.2439 15.8451 91.234 16.9034 94.31 17.5524C97.5576 18.2438 100.719 19.2597 103.938 20.0216C108.216 21.0375 112.408 22.3497 116.614 23.6478C117.701 23.9864 118.832 23.9723 119.919 24.3391C122.423 25.2139 124.984 26.0182 127.587 26.5402C129.905 27.0059 132.137 27.7678 134.397 28.3745C139.691 29.7572 144.984 31.1118 150.235 32.692C155.3 34.2159 160.479 35.4152 165.601 36.7838C169.635 37.8562 173.655 38.9849 177.69 40.0714C180.251 40.7627 182.854 41.3271 185.387 42.1173C187.948 42.9074 190.523 43.6552 193.112 44.3184C195.63 44.9674 198.177 45.5741 200.695 46.2373C201.453 46.4207 202.169 46.7311 202.927 46.9145C203.699 47.1121 204.114 47.5636 203.971 48.3114C203.842 48.9604 203.27 49.2285 202.612 49.2285C202.369 49.2285 202.14 49.2003 201.754 49.1721V49.1439Z" fill="#31736D"/>
<path fill-rule="evenodd" clip-rule="evenodd" d="M98.0589 53.4191C99.4466 53.4896 100.791 54.0399 102.165 54.4068C106.085 55.4509 109.948 56.6502 113.768 57.9765C115.957 58.7384 118.045 59.7684 120.277 60.4316C122.266 61.0101 124.255 61.6309 126.272 62.0965C127.016 62.2658 127.745 62.6045 128.446 62.9008C128.775 63.0419 129.133 63.2676 128.976 63.6909C128.833 64.0578 128.432 64.1142 128.06 64.0578C127.888 64.0295 127.702 63.9872 127.531 63.9449C123.01 63.0419 118.618 61.772 114.34 60.0788C110.577 58.5973 106.772 57.271 102.809 56.3398C101.378 56.0012 100.005 55.4368 98.5596 55.0981C98.2162 55.0135 97.9158 54.7877 97.6011 54.6184C97.272 54.435 96.9429 54.181 97.0574 53.8001C97.1862 53.405 97.6297 53.4614 98.0446 53.4191H98.0589Z" fill="white"/>
<path fill-rule="evenodd" clip-rule="evenodd" d="M185.687 81.2151C184.099 81.1727 182.583 80.5801 181.066 80.0299C178.934 79.2679 176.774 78.5907 174.657 77.7864C172.267 76.8693 169.935 75.7829 167.603 74.7246C164.513 73.3137 161.337 72.1849 157.961 71.6064C157.431 71.5217 156.544 71.5076 156.716 70.6893C156.859 70.0261 157.66 70.0826 158.247 70.1531C159.306 70.2942 160.407 70.393 161.423 70.7175C165.686 72.0438 169.864 73.5959 173.884 75.5853C176.159 76.7141 178.648 77.4619 181.08 78.252C182.711 78.7882 184.342 79.409 186.059 79.663C186.288 79.7053 186.531 79.7759 186.732 79.8888C187.061 80.0581 187.39 80.3121 187.304 80.7071C187.218 81.1163 186.817 81.1727 186.445 81.1727C186.202 81.1727 185.973 81.1868 185.673 81.2151H185.687Z" fill="white"/>
<path fill-rule="evenodd" clip-rule="evenodd" d="M17.9832 17.3831C20.1435 17.3266 22.2037 17.9616 24.3068 18.3284C25.4656 18.526 26.7103 18.6529 27.7404 19.0198C29.5431 19.6547 31.5031 19.6829 33.2342 20.4872C34.0354 20.8682 34.8938 21.1362 35.7093 21.489C36.1671 21.7006 36.4961 22.0816 36.2529 22.6319C36.0097 23.2245 35.5805 23.3373 34.951 23.1539C31.36 22.0816 27.6975 21.362 23.9634 20.9387C22.0892 20.7129 20.2437 20.205 18.4267 19.6829C17.7686 19.4995 17.1248 19.6124 16.4953 19.4572C15.8372 19.2879 15.3651 19.0057 15.408 18.2861C15.4366 17.5947 16.0089 17.4677 16.5525 17.3972C17.0246 17.3407 17.5111 17.3972 17.9832 17.3972V17.3831Z" fill="#31736D"/>
<path fill-rule="evenodd" clip-rule="evenodd" d="M6.62402 28.9389C7.02461 28.4027 7.51104 28.572 7.96886 28.6567C9.42815 28.9389 10.8731 29.3622 12.3181 29.6585C17.8834 30.8437 22.9337 33.4257 28.3131 35.0766C29.2144 35.3588 29.2001 35.4011 29.9869 36.3041C29.0856 37.2212 28.0842 36.6851 27.1828 36.4029C23.3915 35.1894 19.729 33.6797 16.0093 32.297C13.8489 31.4927 11.5026 31.1964 9.29939 30.4486C8.32653 30.11 7.16768 30.0253 6.62402 28.9389Z" fill="white"/>
<path fill-rule="evenodd" clip-rule="evenodd" d="M58.4291 33.6938C60.0172 33.6515 61.4765 34.3005 62.9071 34.8085C66.0403 35.909 69.1306 37.1648 72.0921 38.6745C73.3367 39.2953 74.6816 39.5352 75.9549 40.0573C76.3412 40.2125 76.7418 40.3112 77.128 40.4806C77.6717 40.7063 78.43 40.9603 78.1867 41.6658C77.9578 42.3289 77.0994 42.2866 76.613 42.0467C75.2539 41.3836 73.7803 41.1437 72.3782 40.6358C69.5455 39.5916 66.7986 38.3359 64.0374 37.1366C61.877 36.2053 59.6881 35.6551 57.4276 35.2036C56.9984 35.1189 56.3117 35.2882 56.2688 34.6533C56.2116 33.849 56.9412 33.8067 57.5278 33.7079C57.8139 33.6656 58.1287 33.7079 58.4148 33.7079L58.4291 33.6938Z" fill="white"/>
<path fill-rule="evenodd" clip-rule="evenodd" d="M65.167 44.0644C67.3273 43.2743 69.273 43.8245 71.1615 44.5018C75.9686 46.2232 80.604 48.4102 85.4969 49.9058C86.0119 50.061 86.5413 50.1174 87.0563 50.2585C87.414 50.3573 87.7144 50.5972 87.6858 51.0063C87.6429 51.4155 87.2709 51.6272 86.9276 51.6272C86.341 51.6272 85.7258 51.5989 85.1535 51.4578C83.5512 51.0204 81.9488 50.583 80.3894 50.0328C75.6395 48.3255 71.09 46.0821 66.24 44.6288C65.868 44.5159 65.5247 44.2619 65.167 44.0785V44.0644Z" fill="white"/>
<path fill-rule="evenodd" clip-rule="evenodd" d="M112.823 53.0805C114.24 53.0099 115.556 53.5743 116.786 54.0823C120.134 55.4932 123.596 56.5797 126.987 57.8636C127.645 58.1176 128.375 58.2023 129.076 58.3716C129.362 58.4421 129.676 58.4421 129.948 58.555C130.478 58.7525 131.265 58.8513 131.136 59.6273C130.978 60.4598 130.206 60.2341 129.648 60.1353C128.589 59.966 127.53 59.7543 126.5 59.4439C124.955 58.9924 123.439 58.4562 121.937 57.8777C118.946 56.7208 115.913 55.6766 112.895 54.5902C112.666 54.5055 112.451 54.4209 112.237 54.3221C111.893 54.181 111.578 53.9835 111.636 53.5602C111.707 53.0946 112.093 53.0946 112.465 53.0946C112.58 53.0946 112.709 53.0946 112.823 53.0946V53.0805Z" fill="white"/>
<path fill-rule="evenodd" clip-rule="evenodd" d="M39.959 39.2812C40.846 38.7168 41.4898 38.8015 42.1336 38.9708C45.9964 39.9867 49.845 41.0167 53.579 42.4418C54.9095 42.9497 56.2401 43.4577 57.6851 43.6411C58.1572 43.6975 58.615 43.8527 59.0585 44.0362C59.5306 44.2337 59.8597 44.657 59.7738 45.1508C59.6594 45.7717 59.0585 45.687 58.6007 45.6306C57.0412 45.4612 55.582 44.8827 54.1513 44.3325C51.0324 43.1473 47.8277 42.2019 44.6516 41.2142C43.1065 40.7345 41.6758 40.0714 39.9876 39.253L39.959 39.2812Z" fill="white"/>
<path fill-rule="evenodd" clip-rule="evenodd" d="M163.154 64.1706C164.685 64.1283 166.073 64.7773 167.489 65.1865C170.408 66.0331 173.226 67.1337 175.858 68.6857C176.331 68.9538 176.688 69.236 176.402 69.7722C176.13 70.2801 175.658 70.012 175.3 69.8709C174.084 69.3912 172.854 68.9256 171.667 68.3894C168.719 67.0631 165.672 66.0472 162.51 65.3558C162.138 65.2712 161.523 65.4123 161.537 64.8338C161.537 64.213 162.153 64.2412 162.625 64.1988C162.796 64.1847 162.982 64.1847 163.154 64.1706Z" fill="white"/>
<path fill-rule="evenodd" clip-rule="evenodd" d="M47.8707 36.8685C47.7133 36.8544 47.4129 36.8685 47.1268 36.7838C46.8406 36.6992 46.5974 36.5016 46.5974 36.163C46.5974 35.8949 46.7834 35.7538 47.0123 35.6551C47.2269 35.5563 47.4701 35.514 47.6704 35.4011C48.1855 35.1189 48.5574 34.7803 48.0996 34.1453C47.9279 33.9055 47.742 33.6233 47.742 33.3552C47.699 32.3111 47.6418 31.3516 46.1968 31.3657C46.0251 31.3657 45.8105 31.0977 45.8105 30.8296C45.8105 30.4768 46.0681 30.3216 46.3542 30.2087C48.2427 29.4468 49.9738 30.5615 50.0024 32.5792C50.0024 32.8896 50.0597 33.1153 50.1884 33.3975C51.1327 35.4575 50.2456 36.8685 47.8707 36.8826V36.8685Z" fill="#31736D"/>
<path fill-rule="evenodd" clip-rule="evenodd" d="M116.414 51.472C113.982 50.8794 111.621 50.061 109.318 49.0874C109.103 49.0028 108.917 48.8335 108.731 48.6924C108.545 48.5371 108.345 48.3396 108.416 48.0998C108.502 47.7752 108.831 47.6482 109.132 47.7047C110.004 47.8599 110.906 47.9869 111.735 48.2832C113.295 48.8476 114.811 49.5248 116.342 50.1739C116.557 50.2585 116.786 50.3855 116.929 50.5548C117.129 50.7665 117.272 51.0628 117.086 51.3591C116.929 51.5848 116.657 51.5143 116.428 51.4861L116.414 51.472Z" fill="white"/>
<path fill-rule="evenodd" clip-rule="evenodd" d="M19.2139 28.445C19.6288 27.7396 20.3298 27.9512 20.9593 27.9794C22.0323 28.0359 23.0338 28.4309 24.0352 28.7696C25.0939 29.1223 26.1097 29.6161 27.2256 29.8701C27.5547 29.9407 27.8551 30.1805 28.1127 30.4204C28.27 30.5756 28.3559 30.8578 28.1842 31.0694C28.0984 31.1823 27.8838 31.2246 27.7264 31.2387C27.4975 31.2387 27.2543 31.1964 27.011 31.1682C24.5789 30.8296 22.2755 30.0818 20.0437 29.1223C19.7146 28.9812 19.3855 28.8542 19.2282 28.4592L19.2139 28.445Z" fill="white"/>
<path fill-rule="evenodd" clip-rule="evenodd" d="M178.749 71.1549C180.051 70.647 180.952 71.1126 181.739 71.5641C182.669 72.1144 183.613 72.5659 184.615 72.9327C184.786 72.9891 184.958 73.0456 185.101 73.1585C185.344 73.3419 185.53 73.61 185.387 73.9204C185.273 74.1744 184.987 74.1744 184.772 74.1179C184.028 73.9063 183.27 73.7087 182.555 73.4407C181.238 72.9327 179.979 72.2978 178.763 71.1549H178.749Z" fill="white"/>
<path fill-rule="evenodd" clip-rule="evenodd" d="M146.816 69.2219C148.747 69.5746 150.479 69.8709 152.195 70.1954C152.51 70.2519 152.811 70.4353 152.811 70.7457C152.811 71.1408 152.424 71.3948 152.067 71.3948C151.423 71.3948 150.765 71.3101 150.121 71.1972C149.42 71.0561 148.747 70.8304 148.046 70.6611C147.417 70.5059 147.016 70.1531 146.802 69.236L146.816 69.2219Z" fill="white"/>
<path fill-rule="evenodd" clip-rule="evenodd" d="M56.9411 39.6763C58.3717 39.253 61.0757 40.0149 61.7481 41.0449C62.0057 41.44 61.8626 41.7081 61.4477 41.8633C61.2903 41.9197 61.1043 41.948 60.9183 41.948C59.7595 41.948 57.7995 40.8333 56.9268 39.6763H56.9411Z" fill="white"/>
<path fill-rule="evenodd" clip-rule="evenodd" d="M34.8652 33.0871C34.7221 32.9178 34.622 32.7343 34.7937 32.5509C34.8366 32.5086 35.0512 32.6074 35.1799 32.6356C35.0798 32.7767 34.9653 32.9319 34.8652 33.073V33.0871Z" fill="white"/>
<path fill-rule="evenodd" clip-rule="evenodd" d="M37.7557 31.8031C37.7557 31.8031 37.6699 31.7608 37.627 31.7467C37.6699 31.6902 37.7128 31.6197 37.7414 31.5633C37.7843 31.6056 37.8272 31.6479 37.8702 31.6761L37.7557 31.8031Z" fill="white"/>
</g>
<defs>
<clipPath id="clip0_125_19772">
<rect width="204" height="87" fill="white"/>
</clipPath>
</defs>
</svg>
