<svg width="139" height="133" viewBox="0 0 139 133" fill="none" xmlns="http://www.w3.org/2000/svg">
<path d="M133.981 2.56509H0.884766V6.66924H133.981V2.56509Z" fill="#FEFEFE"/>
<path fill-rule="evenodd" clip-rule="evenodd" d="M138.372 122.512C138.357 121.87 138.372 121.229 138.343 120.588C138.243 118.906 137.759 117.267 138.044 115.557C138.058 115.472 138.044 115.386 138.044 115.301C137.958 112.736 137.63 110.171 137.801 107.606C137.801 107.477 137.801 107.335 137.744 107.221C137.545 106.594 137.588 105.953 137.645 105.311C137.759 104.157 138.115 103.017 137.844 101.834C137.773 101.549 137.787 101.207 137.858 100.922C138.115 99.9958 137.987 99.0268 137.83 98.1575C137.645 97.103 137.787 96.077 137.73 95.0367C137.645 93.5404 137.801 92.0298 137.673 90.5192C137.445 87.8829 137.231 85.2466 137.245 82.596C137.245 82.1399 137.103 81.7267 136.975 81.3134C136.903 81.0854 136.761 80.8431 136.932 80.6151C137.217 80.2161 137.117 79.8171 137.017 79.4039C136.932 79.0618 136.761 78.7198 136.761 78.3778C136.761 76.6107 136.447 74.8722 136.233 73.1194C136.162 72.5636 135.863 72.0078 136.347 71.4948C136.461 71.3666 136.347 71.1956 136.347 71.0531C136.347 70.5115 135.948 70.0983 135.948 69.5425C135.948 69.2005 136.034 68.8727 135.991 68.5165C135.891 67.6899 135.72 66.8634 135.606 66.0369C135.421 64.5691 135.606 63.0585 135.321 61.5907C135.021 60.0232 134.793 58.4271 134.465 56.8595C134.266 55.919 134.237 54.95 134.294 54.0379C134.351 53.0689 134.081 52.1854 133.938 51.2733C133.838 50.6606 133.71 49.9338 133.824 49.4635C134.038 48.6085 133.938 47.8247 133.781 47.0552C133.681 46.5422 134.138 46.2144 133.952 45.7441C133.539 44.6896 133.667 43.5496 133.411 42.4665C133.325 42.1103 133.61 41.7968 133.525 41.5545C133.325 40.9702 133.411 40.3717 133.296 39.8017C133.154 39.0464 133.339 38.2199 133.168 37.5216C132.883 36.2961 132.954 35.0563 132.698 33.8165C132.441 32.6337 132.398 31.3654 132.484 30.1256C132.569 28.843 132.341 27.589 132.213 26.3207C132.099 25.2947 131.885 24.2829 131.999 23.2283C132.042 22.8008 132.299 22.3876 132.156 21.9315C131.956 21.276 132.013 20.5777 131.914 19.908C131.842 19.3807 132.142 18.8819 132.113 18.4259C132.042 17.4284 131.885 16.4308 131.8 15.4191C131.743 14.7635 131.885 14.0938 131.728 13.4667C131.586 12.9252 131.529 12.4122 131.657 11.8564C131.785 11.2864 131.7 10.7306 131.529 10.1749C131.429 9.86136 131.201 9.5336 131.343 9.22009C131.6 8.57881 131.557 7.95179 131.101 7.49578C130.716 7.11101 130.417 6.41274 129.618 6.655C129.49 6.69775 129.276 6.58374 129.119 6.49824C128.535 6.14198 127.879 6.32723 127.295 6.38424C126.411 6.48399 125.555 6.6835 124.657 6.6265C123.845 6.56949 123.018 6.41274 122.234 6.56949C121.321 6.7405 120.395 6.66925 119.496 6.81175C119.026 6.883 118.898 6.6265 118.912 6.24173C118.912 5.71446 118.969 5.17294 118.983 4.64567C118.983 4.36066 119.112 4.34641 119.354 4.36066C120.437 4.44617 121.521 4.43192 122.604 4.36066C123.702 4.28941 124.8 4.38917 125.883 4.36066C127.166 4.31791 128.435 4.47467 129.718 4.40342C131.087 4.31791 132.47 4.38917 133.852 4.37492C134.266 4.37492 134.679 4.28941 134.751 3.77639C134.822 3.22062 134.465 2.76461 133.952 2.63635C133.197 2.4511 132.427 2.43685 131.671 2.43685C129.989 2.43685 128.307 2.57935 126.639 2.52235C124.301 2.43685 121.977 2.49385 119.639 2.60785C119.083 2.63635 118.527 2.6221 118.47 1.82407C118.442 1.43931 118.213 1.14005 117.8 1.01179C116.431 0.570029 115.063 0.199516 113.609 0.541528C113.138 0.655532 112.611 0.840788 112.596 1.35381C112.568 2.22309 112.04 2.18034 111.456 2.13758C111.214 2.12333 110.971 2.13758 110.729 2.13758C109.588 2.12333 108.448 2.29434 107.322 2.23734C105.868 2.15184 104.413 2.16609 102.945 2.15184C102.503 2.15184 102.075 2.40834 101.633 2.20884C101.035 1.93808 100.422 2.10908 99.8229 2.09483C99.3382 2.08058 99.0816 1.88108 99.2099 1.42506C99.2669 1.2398 99.324 1.0688 99.1671 0.954793C98.5969 0.555778 98.0552 0.156764 97.2711 0.213766C96.9004 0.242267 96.4585 0.456025 96.1163 0.213766C95.6459 -0.128246 95.1469 0.484526 94.705 0.099762C94.5196 0.484526 93.9351 0.199516 93.8353 0.456025C93.4362 1.48206 92.7519 1.72432 91.7682 1.42506C91.7254 1.42506 91.6826 1.42506 91.6399 1.42506C90.8558 1.45356 90.1002 1.68157 89.2876 1.45356C88.8884 1.33956 88.3609 1.22555 88.0188 1.2968C86.75 1.55331 85.4812 1.43931 84.2124 1.42506C81.8744 1.41081 79.5221 1.42506 77.1841 1.45356C76.8419 1.45356 76.6138 1.33956 76.3857 1.0973C76.0721 0.755285 75.7157 0.456025 75.2167 0.413273C74.2188 0.31352 73.2209 0.356271 72.2657 0.641281C71.5101 0.855039 70.7545 0.997544 69.9705 1.0973C68.1884 1.31106 66.3922 1.1258 64.6244 1.1543C62.9136 1.16855 61.2029 1.1543 59.4779 1.11155C57.3965 1.05455 55.3008 1.05455 53.2052 1.11155C51.6512 1.1543 50.1116 1.2113 48.5576 1.11155C46.4192 0.983294 44.2523 1.0688 42.0996 1.11155C41.2014 1.1258 40.2891 0.926292 39.3909 1.1258C38.2789 1.36806 37.1669 1.1258 36.0692 1.0973C35.4419 1.08305 34.8004 1.05455 34.1731 1.05455C31.8066 1.05455 29.4258 1.0973 27.0593 1.0973C26.4605 1.0973 25.8048 0.840788 25.263 0.997544C24.0798 1.35381 22.868 1.14005 21.7132 1.1258C19.9169 1.0973 18.1064 1.33956 16.3244 1.08305C15.5973 0.983294 14.97 1.2968 14.2715 1.25405C12.2329 1.11155 10.18 1.25405 8.14132 1.0973C6.77273 0.997544 5.40413 1.1543 4.03554 1.0973C3.06612 1.0688 2.11095 1.05455 1.15579 1.22555C0.785124 1.1828 0.5 1.2683 0.5 1.71007C0.5 2.13758 0.728099 2.4226 1.05599 2.5366C1.6405 2.72186 2.25351 3.00687 2.86653 2.86436C3.73616 2.66485 4.60579 2.90711 5.47541 2.86436C6.53037 2.80736 7.6281 2.83586 8.71157 2.94986C10.18 3.10662 11.6911 2.90711 13.188 2.89286C15.6116 2.87861 18.0351 2.89286 20.4587 2.89286C21.2285 2.89286 21.9983 2.83586 22.7824 2.85011C25.0207 2.89286 27.2446 3.04962 29.4829 2.85011C30.2527 2.79311 30.9655 3.00687 31.7353 2.96411C33.332 2.87861 34.943 2.96411 36.5397 2.86436C37.2667 2.82161 37.9653 3.06387 38.7066 2.93561C39.4622 2.80736 40.2605 2.79311 41.0161 2.87861C42.6128 3.04962 44.1952 2.80736 45.7777 2.82161C46.8184 2.82161 47.8733 2.60785 48.8855 2.76461C50.0118 2.93561 51.138 2.87861 52.25 2.90711C53.975 2.94986 55.6857 2.83586 57.4107 2.87861C59.4494 2.92136 61.488 2.92136 63.5124 2.89286C64.4248 2.89286 65.3229 3.02112 66.2068 2.96411C67.2903 2.89286 68.3738 2.90711 69.4572 2.90711C69.6141 2.90711 69.8564 2.90711 69.8849 2.99262C70.056 3.43438 70.3411 3.87615 70.1273 4.37492C69.9419 4.83093 69.7566 5.3297 69.1151 5.2442C68.0174 5.08744 66.9339 5.3297 65.8219 5.2727C63.27 5.13019 60.7039 5.2442 58.1378 5.20144C57.0543 5.18719 55.9851 5.37245 54.9017 5.3012C54.1176 5.25845 53.3192 5.25845 52.5351 5.20144C51.1808 5.10169 49.7979 5.54346 48.4436 5.04469C48.3581 5.01619 48.2012 5.04469 48.13 5.11594C47.6738 5.52921 47.2033 5.2442 46.7614 5.11594C46.5903 5.07319 46.4477 4.97344 46.2624 5.03044C45.1219 5.31545 43.9386 5.2727 42.7696 5.28695C41.0589 5.3012 39.3339 5.14444 37.6231 5.17294C36.0264 5.2157 34.444 5.14444 32.8473 5.17294C30.5663 5.22995 28.2853 5.31545 26.0043 5.2157C25.4341 5.18719 24.8781 5.07319 24.2793 5.11594C22.7112 5.22995 21.1287 5.11594 19.5605 5.17294C17.2938 5.25845 15.0271 5.05894 12.7603 5.17294C11.9477 5.20144 11.1351 5.3012 10.3225 5.20144C8.91116 5.04469 7.49979 5.3012 6.07417 5.20144C5.07624 5.11594 4.04979 5.3012 3.0376 5.2157C2.36756 5.17294 1.79731 5.3297 1.1843 5.50071C0.941942 5.57196 0.713843 5.54346 0.642562 5.81422C0.571281 6.11348 0.528512 6.42699 0.842149 6.655C1.19855 6.91151 1.58347 7.03976 2.01116 7.06826C4.26364 7.22502 6.51612 6.95426 8.7686 7.08251C9.82355 7.15376 10.8785 6.94001 11.9477 7.05401C13.8295 7.26777 15.7256 7.21077 17.6074 7.16802C19.0331 7.12526 20.4587 7.12526 21.8843 7.09676C23.4382 7.05401 25.0207 7.18227 26.5746 7.06826C27.7151 6.98276 28.8271 7.22502 29.9676 7.13951C31.8209 6.98276 33.7027 7.02551 35.5702 7.03976C37.9653 7.03976 40.3603 7.18226 42.7554 7.11101C45.4498 7.03976 48.1442 7.18226 50.8386 7.08251C52.6777 7.01126 54.531 7.08251 56.37 7.08251C58.0523 7.08251 59.7345 6.96851 61.4167 6.99701C62.9279 7.02551 64.439 7.05401 65.9645 7.09676C67.0337 7.12526 68.0886 7.08251 69.1579 7.08251C69.2862 7.08251 69.5998 6.98276 69.5 7.28202C69.2719 7.95179 69.8707 8.67857 69.3004 9.30559C69.2434 9.36259 69.2719 9.5336 69.3004 9.63335C69.557 10.2176 69.4002 10.7876 69.3004 11.3862C69.2291 11.8992 69.0581 12.4265 69.2291 12.968C69.3004 13.196 69.1579 13.2957 68.944 13.31C68.6589 13.3385 68.3595 13.424 68.0886 13.367C67.0194 13.139 65.9502 13.3385 64.881 13.2672C63.8118 13.2102 62.7141 13.2957 61.6448 13.2672C57.3252 13.1532 53.0198 13.4382 48.7002 13.2387C47.3316 13.1817 45.9773 13.253 44.6229 13.367C43.9529 13.424 43.3969 13.1105 42.7411 13.1817C41.3583 13.3527 39.9469 13.367 38.5783 13.3385C36.2403 13.2957 33.888 13.1532 31.55 13.3385C30.8087 13.3955 30.0246 13.5095 29.2975 13.367C27.9432 13.0962 26.6031 13.31 25.263 13.2387C24.9209 13.2245 24.5074 13.5665 24.2366 13.3527C23.7376 12.9252 23.1816 13.196 22.6969 13.1817C21.8558 13.1532 21.0147 13.4382 20.145 13.2672C19.6176 13.1675 19.0045 13.1105 18.5056 13.2672C17.6645 13.538 16.8519 13.3385 16.0393 13.2672C14.913 13.1817 13.801 13.2815 12.6748 13.196C11.52 13.1105 10.3368 13.2387 9.16777 13.3242C8.22686 13.3955 7.27169 13.5807 6.88678 14.7635C6.63017 15.5331 6.68719 16.3168 6.65868 17.0721C6.61591 18.2834 6.88678 19.509 6.80124 20.706C6.72996 21.675 6.87252 22.5871 7.07211 23.5133C7.15764 23.8839 7.20041 24.2116 6.91529 24.5536C6.84401 24.6391 6.4876 24.8244 6.72996 24.9954C7.11488 25.2804 6.91529 25.5654 6.85826 25.8789C6.80124 26.2494 6.84401 26.62 6.85826 27.0047C6.88678 27.703 7.10062 28.4155 7.00083 29.071C6.78698 30.3536 6.77273 31.5934 6.97231 32.8617C7.01508 33.1324 7.01508 33.389 6.95806 33.6597C6.78698 34.472 6.90103 35.327 6.65868 36.1251C6.43058 36.8803 6.91529 37.5501 6.90103 38.2911C6.90103 39.8302 6.61591 41.3692 7.00083 42.894C7.04359 43.065 6.92954 43.2361 6.90103 43.3928C6.75847 44.2336 6.70145 45.1029 6.85826 45.9152C7.01508 46.6989 7.05785 47.44 6.90103 48.1952C6.8155 48.6085 6.70145 49.0218 6.78698 49.435C7.07211 50.8458 6.72996 52.2566 6.84401 53.6674C6.95806 55.0212 6.4876 56.4035 6.92955 57.7716C7.00083 57.9996 6.88678 58.2988 6.80124 58.5554C6.67293 58.9401 6.33079 59.3391 7.01508 59.5386C7.05785 59.5386 7.11488 59.7096 7.08636 59.7666C6.82975 60.4079 7.04359 61.0919 6.9438 61.7332C6.70145 63.144 6.70145 64.5976 6.87252 65.9941C6.97231 66.8206 7.07211 67.7042 6.80124 68.3882C6.38781 69.4285 7.1719 70.369 6.75847 71.3238C6.72996 71.3951 6.75847 71.4948 6.80124 71.5803C7.12913 72.2073 7.02934 72.9626 6.92955 73.5184C6.65868 74.9149 7.01508 76.3115 6.70145 77.6653C7.25744 78.4918 6.53037 79.3326 6.70145 80.2161C6.78698 80.6294 6.97231 81.0712 6.9438 81.5557C6.82975 83.5507 6.68719 85.5458 6.78698 87.5551C6.84401 88.5954 6.90103 89.6927 6.63017 90.7473C6.57314 90.9753 6.5874 91.246 6.63017 91.474C6.87252 92.4573 7.32872 93.4264 6.74422 94.4239C6.7157 94.4809 6.67293 94.5664 6.70145 94.6091C7.02934 95.2077 6.72996 95.8774 6.92955 96.4902C6.97231 96.6042 7.07211 96.7752 6.90103 96.8465C6.47335 97.0032 6.64442 97.274 6.7157 97.5447C6.82975 97.9723 6.90103 98.3998 6.85826 98.8558C6.80124 99.5541 6.82975 100.267 6.78698 100.979C6.75847 101.307 7.14339 101.606 6.97231 101.863C6.31653 102.86 7.28595 103.957 6.74422 104.955C6.68719 105.069 6.8155 105.197 6.85826 105.326C7.08636 105.924 7.57107 106.508 6.9438 107.164C6.78698 107.335 6.78698 107.577 6.84401 107.805C6.95806 108.275 6.84401 108.731 6.75847 109.187C6.60165 110 6.5874 110.798 6.92955 111.582C7.01508 111.781 7.01508 111.952 6.97231 112.166C6.78698 113.121 7.02934 114.132 6.63017 115.073C6.60165 115.158 6.64442 115.301 6.70145 115.386C7.28595 116.341 7.02934 117.438 7.01508 118.436C6.97231 120.303 7.10062 122.17 7.01508 124.051C6.98657 124.549 7.20041 125.134 7.65661 125.162C8.29814 125.205 8.83988 125.604 9.46715 125.561C9.99463 125.533 10.5364 125.49 11.0638 125.49C16.1533 125.461 21.2428 125.447 26.3322 125.618C26.931 125.633 27.5298 125.376 28.1143 125.49C29.4829 125.747 30.8657 125.618 32.2343 125.576C33.5459 125.533 34.9002 125.461 36.1833 125.561C38.336 125.718 40.4601 125.404 42.5986 125.59C43.9529 125.704 45.3357 125.476 46.7043 125.519C48.2583 125.561 49.8122 125.818 51.3661 125.49C51.4944 125.461 51.637 125.519 51.7653 125.519C52.8345 125.433 53.9037 125.675 54.9872 125.633C56.1134 125.576 57.2397 125.576 58.3659 125.519C59.4779 125.462 60.6184 125.519 61.7304 125.604C62.5287 125.661 63.3128 125.048 64.0684 125.519C64.7669 125.96 65.5225 125.29 66.1783 125.747C67.6609 125.376 69.1721 125.832 70.669 125.647C71.3676 125.561 72.1089 125.675 72.8217 125.547C73.3492 125.447 73.5345 125.604 73.5773 126.131C73.6913 127.514 73.4775 128.939 74.3471 130.221C74.6893 130.72 74.9601 131.162 75.5446 131.361C76.2859 131.603 77.0558 131.789 77.7258 132.159C78.9661 132.829 80.3062 132.758 81.6035 132.744C82.801 132.715 83.9558 132.116 85.1961 132.273C85.3244 132.287 85.4527 132.216 85.581 132.202C86.5076 132.116 87.4486 131.96 88.3752 131.96C90.0004 131.96 91.6114 132.33 93.2223 132.473C93.7641 132.53 94.2345 132.929 94.7335 132.815C95.2182 132.701 95.6459 132.872 96.1021 132.872C97.0572 132.872 98.0124 133.1 98.9818 133.014C99.9512 132.929 100.792 132.43 101.733 132.273C102.76 132.102 103.729 131.746 104.627 131.19C105.055 130.934 105.554 130.891 106.096 130.991C107.037 131.147 107.892 131.589 108.833 131.76C109.46 131.874 110.059 132.088 110.672 132.287C110.971 132.387 111.028 132.843 111.413 132.687C112.041 132.43 112.739 132.658 113.309 132.758C114.393 132.943 115.234 132.344 116.218 132.259C116.902 132.188 117.472 131.618 118.114 131.475C118.969 131.276 119.668 130.791 120.466 130.492C121.578 130.079 122.69 129.993 123.759 130.307C124.372 130.492 124.999 130.706 125.612 130.962C126.183 131.19 126.796 131.504 127.394 131.575C128.792 131.746 130.203 131.846 131.614 131.803C132.783 131.76 133.924 131.447 134.893 130.948C135.663 130.563 136.49 130.121 137.203 129.466C138.044 128.696 138.201 127.941 138.243 126.944C138.272 126.017 138.243 125.091 138.5 124.179V123.381C138.3 123.124 138.372 122.825 138.372 122.554V122.512ZM123.759 119.092C123.716 118.963 123.688 118.821 123.716 118.693C124.272 116.683 123.987 114.617 124.173 112.579C124.201 112.194 124.115 111.824 124.016 111.467C123.731 110.413 124.016 109.344 124.001 108.29C123.987 107.363 124.115 106.466 124.073 105.539C124.03 104.855 124.073 104.185 123.845 103.53C123.845 103.516 123.845 103.487 123.845 103.459C124.443 102.347 123.445 101.107 124.115 99.9958C124.315 99.6681 124.058 99.2976 123.973 98.9698C123.845 98.4853 124.272 98.0578 124.03 97.5732C123.602 96.7325 123.887 95.8062 123.83 94.9369C123.702 93.2696 123.788 91.588 123.716 89.9207C123.688 89.3222 123.773 88.6667 123.403 88.1252C123.36 88.0682 123.317 87.9684 123.346 87.9399C123.688 87.4269 123.388 86.8711 123.488 86.3724C123.574 85.9733 123.56 85.3891 123.46 85.3178C122.59 84.7193 123.617 83.7645 123.004 83.1375C122.875 83.0092 123.103 82.767 123.203 82.6102C123.374 82.368 123.232 82.1542 123.203 81.9262C123.118 81.0427 122.661 80.2304 122.704 79.3326C122.747 78.5203 122.761 77.6938 122.547 76.91C122.476 76.625 122.419 76.34 122.433 76.0692C122.462 75.1572 122.248 74.2737 122.162 73.3759C122.077 72.3783 122.191 71.4236 122.704 70.54C123.118 69.8275 123.531 69.8275 123.873 70.54C124.729 72.3213 125.142 74.2167 125.185 76.1832C125.199 76.8245 125.541 77.366 125.612 77.9788C125.655 78.3778 125.698 78.7626 125.584 79.1616C125.413 79.7744 125.627 80.3586 125.769 80.9287C126.026 81.9974 126.126 83.0947 126.282 84.1778C126.525 85.8308 126.568 87.4981 126.525 89.1797C126.482 90.8328 126.682 92.4716 126.81 94.1104C126.853 94.7516 126.724 95.4214 126.767 96.0769C126.853 97.7015 126.682 99.3118 126.696 100.922C126.696 102.518 126.682 104.128 126.824 105.725C126.981 107.335 126.895 108.945 126.867 110.527C126.838 112.066 127.223 113.648 126.81 115.144C126.568 116.028 126.995 116.868 126.71 117.738C126.596 118.094 126.553 118.55 126.482 118.949C126.268 120.061 126.667 121.201 126.254 122.312C126.054 122.854 125.94 123.424 125.655 123.922C125.513 124.165 125.441 124.663 125.056 124.478C124.671 124.279 124.044 124.336 123.959 123.666C123.873 122.996 123.93 122.341 123.973 121.557C123.973 120.802 124.058 119.932 123.773 119.092H123.759ZM118.285 40.5712C118.242 39.2744 118.242 37.9919 118.142 36.6951C118.099 36.2106 118.085 35.726 118.142 35.2415C118.313 32.8759 118.385 30.5103 119.083 28.216C119.183 27.9025 119.197 27.5605 119.696 27.589C120.124 27.6175 120.195 27.874 120.338 28.2018C120.808 29.2991 120.922 30.4676 120.865 31.6219C120.837 32.1492 120.708 32.6907 120.723 33.2322C120.737 34.7142 120.78 36.1821 121.107 37.6356C121.164 37.8636 121.065 38.1201 121.065 38.3624C121.093 39.6164 120.965 40.8705 121.364 42.0818C121.378 42.1388 121.421 42.21 121.407 42.267C121.107 43.6208 121.464 44.9319 121.663 46.2572C121.692 46.4567 121.663 46.6562 121.663 46.8557C121.906 48.3662 121.835 49.9338 122.305 51.4301C122.448 51.9004 122.547 52.3706 122.533 52.8694C122.505 53.4822 122.39 54.0807 122.861 54.6222C123.046 54.8217 122.961 55.2065 122.875 55.463C122.576 56.3038 122.832 57.1303 123.004 57.9283C123.146 58.5981 123.246 59.2964 123.374 59.9662C123.502 60.6074 123.531 61.3484 123.531 62.0325C123.531 62.346 123.56 62.6167 123.773 62.9018C124.001 63.1868 123.987 63.4433 123.531 63.5715C122.79 63.7853 122.448 63.7425 122.077 63.03C121.464 61.8757 121.079 60.6217 120.794 59.3391C120.537 58.1848 120.209 57.0448 119.953 55.9048C119.782 55.1352 119.625 54.2802 119.924 53.4679C120.109 52.9692 119.953 52.4989 119.696 52.1426C119.197 51.4443 119.354 50.6606 119.254 49.9195C119.126 48.922 119.069 47.9102 118.94 46.9127C118.841 46.2002 118.655 45.4734 118.755 44.7324C118.812 44.2621 118.755 43.8061 118.598 43.3643C118.57 43.3073 118.527 43.2361 118.527 43.1791C118.613 42.2955 118.342 41.4547 118.313 40.5855L118.285 40.5712ZM115.875 113.178C115.861 113.904 115.818 114.674 115.847 115.386C115.932 117.353 115.719 119.277 115.405 121.201C115.334 121.657 115.362 122.127 115.376 122.583C115.405 123.324 114.607 123.395 114.35 123.908C114.293 124.036 113.352 123.452 113.324 123.224C113.181 121.486 113.067 119.733 113.081 117.98C113.095 116.099 113.295 114.232 113.352 112.351C113.495 107.577 113.552 102.803 113.309 98.0435C113.195 95.8917 113.309 93.7399 112.953 91.6023C112.853 90.9753 112.825 90.3197 113.095 89.707C113.21 89.479 113.352 89.251 113.637 89.2795C113.865 89.2795 114.065 89.4362 114.15 89.6642C114.464 90.505 114.35 91.474 114.935 92.2293C114.949 92.2578 114.935 92.3148 114.906 92.3576C115.148 93.3978 114.721 94.4809 115.248 95.5212C115.419 95.8632 115.205 96.4047 115.177 96.8465C115.163 97.046 115.077 97.2597 115.12 97.445C115.433 98.7418 115.433 100.067 115.59 101.378C115.69 102.205 115.647 103.045 115.676 103.872C115.676 103.986 115.676 104.1 115.69 104.2C115.932 105.454 115.533 106.694 115.676 107.948C115.804 109.059 115.761 110.199 115.918 111.296C116.018 111.966 115.89 112.593 115.875 113.206V113.178ZM110.258 76.3115C109.959 74.4589 110.23 72.6064 109.888 70.768C109.76 70.1125 109.745 69.4142 109.859 68.7017C109.973 67.9892 109.66 67.2197 109.645 66.4786C109.645 65.3386 109.417 64.1986 109.645 63.0585C109.702 62.802 109.817 62.5455 110.116 62.4742C110.415 62.403 110.544 62.631 110.686 62.8448C111.142 63.5288 111.37 64.3126 111.57 65.0821C112.383 68.1032 112.81 71.2098 112.853 74.1454C112.996 76.9955 113.124 79.6604 113.238 82.311C113.252 82.6672 113.252 83.0235 113.224 83.3797C113.181 83.8215 112.91 84.021 112.482 83.8358C112.283 83.7503 112.098 83.7645 111.912 83.7218C111.513 83.6363 111.256 83.451 111.142 83.0092C110.957 82.3395 111.057 81.5699 110.472 81.0284C110.415 80.9714 110.415 80.8147 110.43 80.7006C110.615 79.2328 110.487 77.7365 110.258 76.3115ZM108.861 15.8181C108.804 17.2431 108.662 18.6824 108.562 20.0932C108.491 21.1335 108.419 22.2451 108.063 23.2711C108.006 23.4278 108.063 23.5704 108.077 23.7271C108.134 24.6961 107.977 25.6509 107.935 26.6057C107.906 27.4037 107.835 28.2445 107.992 29.014C108.22 30.0971 108.391 31.1659 108.32 32.2774C108.291 32.6622 108.149 32.8474 107.806 32.9329C107.436 33.0184 107.279 32.7904 107.165 32.5054C106.452 30.7811 106.01 29.014 105.967 27.1472C105.939 26.0357 105.967 24.9241 105.967 23.8269C105.939 20.5777 106.395 17.3714 106.794 14.1508C106.865 13.538 106.98 12.911 107.45 12.4407C107.906 11.9847 108.163 12.0274 108.448 12.6117C108.933 13.6377 108.89 14.7065 108.847 15.8038L108.861 15.8181ZM98.155 48.808C98.326 48.5515 98.2975 48.2807 98.212 47.9815C98.0837 47.611 98.212 47.2404 98.5114 47.0267C98.8535 46.7844 99.0816 47.1407 99.2955 47.326C100.08 48.01 100.35 48.9505 100.493 49.9338C100.75 51.7294 100.892 53.5534 100.835 55.3917C100.906 56.888 100.792 58.3843 100.436 59.8521C100.365 60.1372 100.407 60.7072 99.9085 60.5932C98.882 60.3509 98.3831 59.9377 98.6112 59.3106C98.8393 58.6979 98.4829 58.1421 98.4686 57.5436C98.4401 56.7028 98.1692 55.8763 98.3831 55.0355C98.4116 54.9072 98.4543 54.7505 98.4116 54.6365C97.9554 53.5534 98.1122 52.3706 97.9411 51.2306C97.8271 50.4611 97.6417 49.5633 98.1692 48.7938L98.155 48.808ZM100.365 109.358C100.222 109.187 100.222 108.974 100.236 108.788C100.365 107.264 99.6804 105.839 99.6233 104.356C99.5663 102.86 99.324 101.378 99.2099 99.8818C99.1386 98.8558 99.0103 97.8155 98.9533 96.7752C98.8963 95.6352 98.7537 94.4951 98.8107 93.3551C98.8107 93.1841 98.8107 92.9988 98.768 92.8278C98.5114 91.759 98.3118 90.6903 98.5256 89.5787C98.5969 89.1939 98.326 88.8519 98.326 88.4814C98.326 87.6264 98.0409 86.7144 98.212 85.9306C98.4829 84.6765 98.0124 83.451 98.3118 82.1827C98.4543 81.5842 98.3118 80.7576 98.3545 80.0451C98.4258 78.6058 98.1977 77.1665 98.4116 75.713C98.6254 74.2452 98.8393 72.7774 98.9818 71.2953C99.0674 70.3405 99.1957 69.4 99.5521 68.5022C99.8087 67.8894 100.122 67.8467 100.55 68.374C101.234 69.229 101.234 70.2123 101.106 71.2098C101.02 71.8083 101.049 72.3783 101.249 72.9626C101.505 73.7179 101.291 74.5444 101.206 75.2997C101.035 76.7818 101.035 78.2781 101.106 79.7174C101.177 81.3989 100.892 83.0092 100.878 84.6623C100.878 85.8593 101.149 87.0564 101.234 88.2534C101.334 89.6785 101.348 91.1035 101.448 92.5286C101.491 93.2411 101.348 94.0534 101.548 94.6519C101.961 95.8774 101.477 97.0745 101.762 98.2715C101.876 98.756 101.705 99.2976 102.175 99.6823L102.09 99.8248C102.09 99.8248 102.047 99.8676 102.018 99.8961C102.018 100.01 101.99 100.124 102.018 100.224C102.332 101.193 102.275 102.205 102.304 103.188C102.304 103.758 102.489 104.228 102.603 104.741C102.774 105.568 102.517 106.437 102.831 107.278C103.187 108.233 103.316 109.273 103.358 110.242C103.387 111.282 103.715 112.337 103.43 113.391C103.358 113.676 103.416 114.004 103.473 114.303C103.729 115.515 103.53 116.74 103.572 117.951C103.644 119.662 104.057 121.457 103.572 123.11C103.216 124.336 103.601 125.618 103.016 126.787C102.831 127.157 102.56 127.457 102.218 127.499C101.876 127.542 101.762 127.115 101.648 126.844C101.519 126.545 101.448 126.203 101.434 125.875C101.377 124.492 101.348 123.124 101.434 121.742C101.519 120.303 101.505 118.864 101.291 117.424C100.978 115.201 100.849 112.964 100.721 110.726C100.693 110.228 100.678 109.743 100.336 109.344L100.365 109.358ZM121.008 15.0913C121.321 15.1198 121.507 15.3193 121.564 15.6471C121.678 16.2171 121.649 16.8014 121.649 17.3714C121.649 18.8249 121.492 20.25 120.808 21.561C120.651 21.8745 120.58 22.3306 120.052 22.2736C119.582 22.2308 119.297 21.8745 119.112 21.5325C118.855 21.048 118.57 20.535 118.955 19.9222C119.183 19.5375 118.998 19.0244 119.112 18.5542C119.325 17.7134 119.782 16.9439 119.767 16.0318C119.767 15.6043 120.566 15.0343 120.993 15.0913H121.008ZM115.234 2.39409C115.234 2.39409 115.277 2.43685 115.305 2.46535C115.305 2.52235 115.305 2.5936 115.205 2.55085C115.191 2.55085 115.205 2.4511 115.22 2.39409H115.234ZM99.9227 3.8904C102.403 3.74789 104.884 4.0329 107.35 4.0044C108.533 4.0044 109.731 3.96165 110.929 3.9759C112.611 3.99015 112.226 3.9474 112.411 5.65746C112.468 5.89972 112.397 6.12773 111.812 6.14198C111.085 6.17048 110.344 6.08498 109.617 6.36999C109.346 6.48399 109.032 6.51249 108.733 6.6265C108.163 6.8545 107.593 6.826 107.122 6.39849C106.523 5.87122 105.982 5.45795 105.026 5.65746C104.47 5.78572 103.8 5.74296 103.187 5.74296C102.76 5.74296 102.375 5.82847 102.018 6.11348C101.79 6.29873 101.491 6.48399 101.163 6.44124C100.878 6.41274 100.693 6.49824 100.55 6.72625C100.45 6.883 100.322 7.02551 100.122 6.96851C99.88 6.91151 99.9085 6.66925 99.9085 6.52674C99.9512 5.74296 99.438 5.05894 99.5378 4.26091C99.5663 3.9474 99.6519 3.90465 99.9227 3.8904ZM88.3324 27.19C87.7337 27.1187 87.4628 27.0902 87.3203 26.4632C87.1777 25.7649 86.7928 25.1664 86.6787 24.3969C86.5647 23.4706 86.5932 22.5443 86.4364 21.6465C86.137 19.9792 86.5362 18.4402 86.8355 16.8441C86.9496 16.2171 87.6054 15.9606 87.6624 15.3336C87.6624 15.2338 87.8335 15.2481 87.919 15.3478C88.532 16.0603 88.9169 16.8014 88.8599 17.8131C88.7886 19.1812 88.7316 20.5492 88.7601 21.9315C88.7601 23.5276 88.7601 25.1237 88.7601 26.7197C88.7601 27.019 88.9312 27.2612 88.3039 27.19H88.3324ZM80.0638 22.2593C80.0353 20.5065 80.0638 18.7537 80.3347 17.0151C80.3775 16.7444 80.3347 16.3738 80.6911 16.2883C81.1045 16.1886 81.1901 16.5876 81.3184 16.8441C81.7603 17.7419 81.7746 18.7679 81.7318 19.7085C81.6748 20.9055 81.9599 22.0313 82.0455 23.1856C82.1452 24.4966 82.6157 25.7649 82.4589 27.0902C82.4446 27.247 82.5729 27.361 82.6585 27.4892C82.9008 27.8598 83.1147 28.2588 82.9008 28.7148C82.8153 28.8858 82.9008 29.014 82.9579 29.1566C83.4853 30.5389 83.9986 31.9212 84.2124 33.3747C84.3835 34.6002 84.9537 35.7403 85.025 36.9801C85.0963 38.2341 85.4669 39.4739 85.2674 40.7707C85.1961 41.241 85.3101 41.7398 85.4099 42.21C85.581 43.0223 84.9965 43.5781 84.7399 44.2336C84.6401 44.4901 84.2267 44.5329 84.0413 44.0911C83.6279 43.1078 83.4426 42.0533 83.1574 41.0272C82.0027 36.8376 81.3897 32.5197 80.4915 28.273C80.0781 26.2922 80.0068 24.2686 80.0496 22.2451L80.0638 22.2593ZM85.8661 124.222C85.8661 124.222 85.7235 124.136 85.695 124.15C84.968 124.863 84.7969 123.894 84.7541 123.694C84.5973 123.053 84.3977 122.412 84.4548 121.699C84.5403 120.517 84.8824 119.334 84.6543 118.137C84.6116 117.923 84.6829 117.695 84.7114 117.481C84.8397 116.555 85.082 115.657 84.8254 114.674C84.6543 114.004 84.7969 113.206 84.9537 112.508C85.0678 111.995 85.0535 111.567 84.8967 111.068C84.7256 110.513 84.5688 109.914 85.0107 109.358C85.1105 109.23 85.082 108.959 85.0107 108.788C84.8682 108.432 85.0678 108.161 85.1105 107.848C85.2103 107.121 85.3529 106.38 85.2246 105.653C85.1818 105.383 85.1676 105.14 85.2816 104.898C85.4242 104.585 85.4099 104.285 85.3101 103.943C85.1391 103.33 85.2959 102.675 85.2959 102.048C85.3101 100.01 85.1105 97.9865 85.139 95.9629C85.1533 94.9797 84.6828 93.9679 85.0107 93.0986C85.3386 92.2151 84.7399 91.4883 84.968 90.676C85.0535 90.391 84.5973 90.1487 84.6258 89.7925C84.6258 89.6642 84.6258 89.5217 84.5973 89.3935C84.4405 88.9089 85.2959 89.0657 85.082 88.7094C84.9109 88.4244 84.6258 88.3104 84.7826 87.8687C84.8824 87.5979 84.6686 87.2416 84.7256 86.8996C84.7684 86.5719 84.7114 86.2298 84.7256 85.9021C84.7256 85.6598 84.7969 85.4176 84.8539 85.1896C84.9395 84.8475 84.9537 84.534 84.7399 84.2348C84.6686 84.135 84.5545 83.9783 84.5831 83.8928C84.7826 83.1802 84.3835 82.4962 84.526 81.7837C84.6401 81.2279 84.3264 80.7149 84.3407 80.1591C84.355 79.4324 84.2267 78.7056 84.469 77.993C84.5688 77.7223 84.2552 77.5513 84.2694 77.3233C84.3692 75.7842 83.9558 74.2452 84.1554 72.7489C84.3692 71.1243 83.9986 69.5853 83.8845 68.0034C83.8845 67.9179 83.856 67.8324 83.856 67.7327C83.8988 64.8398 83.7419 61.947 84.3692 59.0969C84.7114 57.5436 84.8539 55.9333 85.3386 54.4085C85.4384 54.0949 85.3386 53.5107 85.8946 53.5677C86.4791 53.6247 86.4364 54.1662 86.4506 54.836C86.6787 55.8905 86.5504 57.1873 86.5219 58.4556C86.4791 60.4507 86.693 62.4315 86.5647 64.4123C86.5504 64.6973 86.5647 64.9966 86.6359 65.2673C86.9781 66.4501 86.807 67.6899 86.9068 68.887C87.0494 70.597 87.1634 72.3498 86.8355 74.0742C86.7928 74.2879 86.7643 74.5017 86.8355 74.7297C87.2205 76.112 87.2205 77.5513 87.249 78.9478C87.2775 80.0594 87.2917 81.1852 87.306 82.311C87.306 82.9237 87.4058 83.5365 87.4628 84.135C87.6339 85.8593 87.5198 87.5836 87.5626 89.308C87.5769 89.992 87.7337 90.6618 87.8192 91.3458C87.8762 91.7733 88.0331 92.2151 87.7052 92.6141C87.6624 92.6711 87.6624 92.7993 87.6909 92.8706C88.1329 94.1389 87.9333 95.4357 87.7907 96.7182C87.7907 96.7895 87.7622 96.8607 87.7907 96.9177C88.1471 97.901 87.8192 98.9698 88.2326 99.9388C88.361 100.238 88.1614 100.438 88.1329 100.694C88.0473 101.421 88.0473 102.119 88.1614 102.86C88.2897 103.687 88.2326 104.556 88.0901 105.397C87.976 106.081 87.9475 106.793 87.9333 107.463C87.8905 109.244 87.6624 111.026 87.6909 112.807C87.6909 113.349 87.919 113.833 87.8905 114.389C87.862 114.788 87.8905 115.187 87.6624 115.543C87.5198 115.785 87.5341 116.013 87.6196 116.298C87.7622 116.74 87.7907 117.21 87.4771 117.638C87.4058 117.752 87.3488 117.866 87.3773 118.008C87.6767 120.146 86.9211 122.098 86.2653 124.065C86.2083 124.222 86.137 124.507 85.8661 124.236V124.222ZM92.6378 103.487C93.0798 103.373 93.3221 103.558 93.5217 103.943C94.7905 106.451 95.2752 109.13 95.4178 111.909C95.4748 112.907 95.5746 113.89 95.5176 114.688C95.5603 116.811 95.3893 118.693 95.0899 120.574C95.0043 121.115 94.6479 121.543 94.5054 122.041C94.4198 122.326 94.1062 122.284 93.8781 122.284C93.5787 122.284 93.4504 122.07 93.4219 121.813C93.3506 121.158 93.2793 120.488 93.2366 119.833C93.1653 118.664 93.0085 117.495 92.9087 116.327C92.8089 114.959 92.8231 113.591 92.8517 112.223C92.8659 111.097 92.7376 109.985 92.595 108.874C92.424 107.378 92.2386 105.881 92.0961 104.371C92.0533 103.986 92.1816 103.615 92.6378 103.487ZM76.9417 3.70514C76.8277 3.30613 76.9845 3.24912 77.3267 3.26338C79.1657 3.33463 80.9905 3.30613 82.8295 3.26338C84.4548 3.20637 86.08 3.29188 87.6909 3.22062C88.6888 3.17787 89.7295 3.29188 90.7417 3.39163C91.0126 3.42013 91.2835 3.36313 91.5401 3.42013C91.8395 3.47713 92.2814 2.97837 92.4097 3.51988C92.481 3.81915 92.7376 4.13266 92.538 4.51742C92.4525 4.68843 92.4382 4.94494 92.595 5.14444C92.8231 5.42945 93.1083 5.70021 92.7519 6.12773C92.6093 6.29873 92.98 6.42699 92.9657 6.712C92.1388 6.7975 91.426 6.32723 90.6277 6.31298C88.9027 6.27023 87.2205 6.31298 85.6808 7.28202C85.0963 7.65253 84.412 7.66678 83.7705 7.35327C82.5729 6.78325 81.3754 6.25598 80.0068 6.45549C78.9376 6.59799 77.8256 6.56949 76.9275 7.35327C76.6709 7.56703 76.6138 7.26777 76.6424 7.12526C76.8134 6.28448 76.3145 5.37245 76.9417 4.56017C77.07 4.38917 76.9845 3.99015 76.899 3.71939L76.9417 3.70514ZM73.2494 123.409C73.2066 123.637 72.9785 123.666 72.7647 123.652C71.895 123.609 71.0539 123.666 70.1843 123.808C69.5713 123.908 68.9297 123.68 68.2882 123.666C66.6915 123.595 65.0948 123.88 63.4839 123.666C62.3149 123.509 61.1031 123.652 59.9056 123.652C57.2112 123.652 54.5025 123.652 51.8081 123.652C50.7246 123.652 49.6411 123.737 48.5576 123.68C46.8184 123.58 45.0791 123.723 43.3541 123.637C41.9855 123.58 40.5884 123.552 39.2341 123.58C37.7229 123.609 36.1975 123.424 34.6721 123.666C34.2159 123.737 33.7169 123.737 33.2465 123.538C32.776 123.338 32.2913 123.609 31.8351 123.68C30.5378 123.88 29.2833 123.637 28.0002 123.623C26.9167 123.609 25.8333 123.709 24.7498 123.709C23.1246 123.709 21.4994 123.68 19.8742 123.68C19.1329 123.68 18.4058 123.737 17.6645 123.723C16.7521 123.709 15.8254 123.652 14.913 123.58C14.3143 123.538 13.744 123.666 13.1595 123.694C12.3754 123.723 11.6056 123.78 10.8357 123.666C10.5364 123.623 10.2512 123.595 10.0089 123.723C9.66674 122.398 9.76653 121.058 9.56694 119.761C9.46715 119.077 9.76653 118.45 9.69525 117.752C9.5812 116.64 9.60971 115.5 9.65248 114.375C9.69525 113.121 9.82355 111.881 9.60971 110.627C9.53843 110.213 9.63822 109.672 9.68099 109.187C9.73802 108.518 9.66674 107.876 9.45289 107.235C9.42438 107.135 9.3531 107.007 9.39587 106.922C9.92335 105.44 9.46715 103.943 9.48141 102.447C9.48141 102.076 9.53843 101.692 9.5812 101.335C9.75227 100.11 9.5812 98.8843 9.72376 97.6588C9.82355 96.761 9.63822 95.8204 9.56694 94.9084C9.53843 94.5949 9.49566 94.2956 9.7095 94.0106C9.82355 93.8539 9.82355 93.6116 9.73802 93.4976C9.3531 93.0273 9.56694 92.5286 9.56694 92.0155C9.55269 89.5217 9.75227 87.0421 9.78079 84.5625C9.78079 84.1208 9.62397 83.6933 9.60971 83.2515C9.5812 82.4535 9.65248 81.6839 9.82355 80.8859C9.9376 80.3444 9.75227 79.7316 9.66674 79.1473C9.62397 78.8623 9.46715 78.5916 9.79504 78.3778C9.92335 78.2923 9.83781 78.1783 9.79504 78.0786C9.48141 77.1523 9.63822 76.2117 9.69525 75.2712C9.75227 74.2737 9.42438 73.2619 9.66674 72.2643C9.82355 71.6373 9.89483 71.0388 9.76653 70.3833C9.56694 69.2432 9.79504 68.0747 9.73802 66.9204C9.69525 66.1509 9.56694 65.3813 9.5812 64.6118C9.5812 64.2556 9.49566 63.9135 9.73802 63.6C9.8093 63.486 9.83781 63.258 9.78079 63.1583C9.23905 62.175 9.68099 61.1774 9.72376 60.1942C9.75227 59.4389 9.88058 58.7121 9.5812 57.9853C9.55269 57.9283 9.52417 57.8428 9.53843 57.7858C9.82355 56.8453 9.41012 55.8763 9.59546 54.9357C9.75227 54.1804 9.79504 53.4537 9.63822 52.6984C9.55269 52.3136 9.50992 51.9431 9.69525 51.6011C9.76653 51.4728 9.8093 51.3018 9.73802 51.2306C9.23905 50.7318 9.62397 50.2046 9.66674 49.6915C9.66674 49.5633 9.76653 49.4065 9.72376 49.3068C9.38161 48.295 9.68099 47.2547 9.63822 46.2429C9.59545 45.3024 9.50992 44.3333 9.59546 43.3786C9.65248 42.723 9.63822 42.0533 9.66674 41.3835C9.73802 39.8587 9.45289 38.3481 9.53843 36.8376C9.65248 34.871 9.43864 32.9044 9.65248 30.9236C9.76653 29.8406 9.56694 28.7148 9.50992 27.6175C9.50992 27.5177 9.46715 27.3752 9.50992 27.304C9.85207 26.791 9.69525 26.2779 9.50992 25.7792C9.31033 25.2947 9.38161 24.8529 9.55269 24.3684C9.75227 23.7984 9.73802 23.1286 9.65248 22.5871C9.43864 21.4043 9.76653 20.2642 9.72376 19.0957C9.68099 18.0127 9.72376 16.9296 9.49566 15.8608C9.41012 15.4333 9.52417 15.2196 9.96612 15.2053C11.0211 15.1483 12.1045 15.0343 13.131 15.0913C15.3264 15.2196 17.5219 15.1483 19.7174 15.1768C21.1145 15.1911 22.5116 15.1055 23.9087 15.1055C25.4911 15.1055 27.0878 15.2623 28.6702 15.1768C29.768 15.1198 30.8514 15.1341 31.9349 15.1483C33.5459 15.1768 35.1711 15.1483 36.782 15.1483C38.9917 15.1483 41.2014 15.2481 43.4112 15.1483C45.9488 15.0343 48.4864 15.2623 51.024 15.1483C51.9364 15.1055 52.8773 15.1626 53.8039 15.2196C55.2295 15.3051 56.6694 15.2196 58.095 15.1483C59.207 15.0913 60.2905 15.2196 61.4025 15.1911C62.1723 15.1626 62.9422 15.2196 63.712 15.0628C64.0114 14.9915 64.3535 15.1626 64.6814 15.1626C66.0072 15.1768 67.3473 15.2053 68.6731 15.1626C69.1721 15.1626 69.2862 15.3051 69.3147 15.8038C69.3717 17.1576 69.2006 18.5257 69.7281 19.8367C69.9705 20.4495 69.5855 20.82 68.83 20.7915C66.0785 20.706 63.3271 20.478 60.5756 20.5777C58.3944 20.6632 56.2275 20.5777 54.0463 20.6347C50.7388 20.706 47.4314 20.6062 44.1382 20.592C41.0731 20.592 38.0223 20.592 34.9572 20.592C30.2099 20.592 25.4626 20.592 20.7153 20.592C19.1614 20.592 17.6074 20.592 16.0678 20.592C15.6543 20.592 14.9415 21.2475 14.8845 21.675C14.8132 22.1881 14.6849 22.6441 14.3713 23.0858C14.0576 23.5419 14.2002 24.1546 14.1717 24.6961C14.1432 25.3232 14.3428 25.9644 14.0291 26.5915C13.9151 26.8195 13.8723 27.1472 14.186 27.3752C14.4141 27.5462 14.3428 27.8313 14.3285 28.0593C14.3143 28.9713 14.243 29.8691 14.3285 30.7811C14.3855 31.4366 14.2002 32.1349 14.2002 32.8189C14.2002 34.3437 14.1717 35.8828 14.2287 37.4076C14.243 37.9491 14.3713 38.4764 14.357 39.0322C14.357 39.2317 14.4141 39.4454 14.357 39.6307C14.0862 40.3717 14.0576 41.0557 14.4426 41.7825C14.5566 41.9963 14.3998 42.381 14.3143 42.6803C14.1004 43.5211 14.4853 44.3476 14.3285 45.1599C14.1432 46.1289 14.3 47.0267 14.4283 47.9672C14.4996 48.4945 14.1147 49.0218 14.186 49.5775C14.3285 50.6748 14.1432 51.7579 14.1574 52.8409C14.1574 53.5249 14.1004 54.2374 14.2002 54.95C14.2715 55.4915 14.1289 56.147 14.1004 56.7313C14.0719 57.4153 13.9008 58.1136 14.0291 58.7976C14.1432 59.3249 13.7298 59.8664 14.0719 60.3224C14.3285 60.6787 14.2857 61.0634 14.2002 61.4055C14.0719 61.89 14.0576 62.3602 14.0291 62.8448C13.9864 63.657 14.2572 64.4408 14.1717 65.2531C14.1289 65.6094 14.3285 65.9799 14.4141 66.3504C14.4426 66.4501 14.5424 66.6069 14.4996 66.6496C14.0006 67.3337 14.4996 68.1174 14.243 68.8442C14.0291 69.4712 14.3998 70.1553 14.2145 70.8108C14.0149 71.5091 14.1717 72.1788 14.3285 72.8629C14.3998 73.1764 14.3428 73.5326 14.1717 73.8319C13.8866 74.3307 13.9721 74.8009 14.2287 75.2712C14.2715 75.3425 14.3855 75.4422 14.357 75.485C13.9436 76.34 14.5424 77.2663 14.2002 78.1213C14.0862 78.4206 13.9721 78.7483 14.2287 79.0618C14.3998 79.2756 14.3855 79.5606 14.3143 79.7601C13.9008 80.8147 14.3998 81.9262 14.0862 82.9807C14.0291 83.166 14.1004 83.4367 14.186 83.622C14.4568 84.2348 14.3998 84.8048 14.1147 85.3748C14.0862 85.4318 14.0719 85.5031 14.0862 85.5601C14.3285 86.9566 14.2857 88.3817 14.1147 89.764C13.9436 91.2033 14.2572 92.5998 14.2287 94.0249C14.2145 94.9369 14.1717 95.8347 14.0719 96.7467C13.9864 97.5732 14.1432 98.471 14.1574 99.3546C14.1574 100.295 14.0291 101.278 14.1147 102.162C14.2287 103.216 13.8581 104.242 14.1574 105.34C14.3855 106.181 14.5424 107.235 14.1432 108.204C14.0149 108.503 14.1432 108.974 14.2145 109.316C14.414 110.456 14.1004 111.567 14.2145 112.679C14.2715 113.406 14.0862 114.175 14.243 114.845C14.4568 115.757 14.243 116.598 14.186 117.467C14.1717 117.837 14.3 118.108 14.6421 118.165C15.1554 118.265 15.6971 118.35 16.2246 118.336C17.3793 118.293 18.5341 118.222 19.7031 118.293C20.7581 118.365 21.87 118.194 22.9393 118.251C25.0349 118.379 27.1163 118.151 29.212 118.265C30.438 118.336 31.6926 118.122 32.9186 118.236C34.0876 118.336 35.2424 118.165 36.3971 118.179C40.1037 118.222 43.8103 118.194 47.5169 118.179C51.1238 118.151 54.7448 118.137 58.3374 118.236C60.875 118.308 63.3841 118.236 65.9074 118.137C66.6915 118.108 67.5041 118.137 68.2882 118.222C69.2291 118.336 70.0275 118.037 70.8116 117.552C71.1822 117.31 71.4246 117.025 71.2963 116.569C71.168 116.085 70.6833 116.127 70.3554 116.127C69.2149 116.156 68.0459 116.099 66.9339 116.199C65.7221 116.313 64.5388 116.127 63.3413 116.156C60.9463 116.199 58.537 116.27 56.1277 116.241C53.0769 116.199 50.0118 116.227 46.9609 116.241C42.6698 116.241 38.3787 116.327 34.0876 116.213C33.0754 116.184 32.049 116.241 31.0368 116.241C28.3566 116.241 25.6622 116.241 22.982 116.241C21.2428 116.241 19.5035 116.27 17.7643 116.284C16.7948 116.284 16.7093 116.17 16.7948 115.201C16.8661 114.36 16.8376 113.491 16.8946 112.65C17.0372 110.798 16.7806 108.959 16.8804 107.093C16.9659 105.326 17.0657 103.544 16.9944 101.763C16.9231 99.9103 16.7236 98.0293 16.9802 96.2052C17.194 94.5949 16.638 92.9561 17.2795 91.3743C17.4221 91.018 16.9231 90.7188 16.9231 90.277C16.9231 89.9065 16.8661 89.5217 16.9231 89.1512C17.1227 87.5836 17.0657 86.0161 16.9374 84.4485C16.8946 84.0068 17.194 83.679 17.1512 83.2372C17.0372 82.0687 17.0229 80.9002 16.9517 79.7316C16.9231 79.3183 17.1512 78.8908 17.08 78.5631C16.8661 77.5513 17.1085 76.5965 17.1512 75.6132C17.1655 75.1287 16.9802 74.6442 17.2225 74.1597C17.2938 74.0172 17.2938 73.7891 17.2225 73.6324C16.7663 72.6206 17.0514 71.5946 17.1655 70.5685C17.2368 69.9558 17.0087 69.3715 17.0229 68.7587C17.0514 67.1627 16.9374 65.5524 16.9944 63.942C17.0229 63.144 16.9089 62.3032 17.2083 61.5195C16.7521 61.1774 17.3793 60.7357 17.0657 60.2939C16.8661 60.0232 17.0087 59.4816 17.0657 59.0826C17.2083 58.0708 17.251 57.0163 17.1655 56.0473C17.0942 55.2065 16.9802 54.2945 16.8376 53.4394C16.7521 52.8694 16.7806 52.0999 16.9659 51.4301C17.0942 50.9598 17.137 50.4753 16.9944 49.9908C16.8804 49.5775 16.5382 49.15 17.0087 48.7083C17.137 48.58 16.8661 48.352 16.8804 48.1097C16.9659 46.8984 17.0087 45.7014 17.0514 44.4901C17.0514 44.3761 17.1085 44.2621 17.08 44.1623C16.6523 42.7373 16.8519 41.298 16.9517 39.8729C17.0229 38.8611 16.8804 37.8636 17.0229 36.8518C17.2653 35.1845 16.7806 33.5172 16.9517 31.8641C17.137 30.1683 17.0087 28.4725 17.137 26.7767C17.2083 25.8789 16.9659 24.9099 16.9231 23.9694C16.9231 23.6844 16.8946 23.3993 16.8519 23.1143C16.8091 22.7581 17.0372 22.6013 17.3081 22.6013C19.0331 22.5586 20.7581 22.4446 22.4973 22.6583C23.4097 22.7723 24.3506 22.7153 25.2773 22.6013C26.2467 22.4873 27.2304 22.5016 28.1998 22.5586C29.4686 22.6441 30.7374 22.5728 32.0062 22.5586C35.5988 22.4873 39.1771 22.5443 42.7696 22.5586C44.2808 22.5586 45.8062 22.6441 47.3031 22.6013C49.2705 22.5443 51.2378 22.5443 53.2052 22.5586C55.8853 22.5871 58.5798 22.4018 61.2599 22.5443C63.4269 22.6583 65.5795 22.6013 67.7465 22.5443C68.274 22.5443 68.8014 22.6583 69.3289 22.5443C69.7281 22.4731 70.056 23.1428 69.9277 23.7556C69.6853 24.9384 70.0702 26.0642 70.1986 27.2042C70.1986 27.3467 70.3554 27.475 70.2556 27.646C69.8279 28.3585 70.1273 29.1281 70.3411 29.7408C70.612 30.5104 70.5407 31.2514 70.4979 31.9782C70.4409 33.0612 70.2556 34.1157 70.5835 35.1845C70.6262 35.327 70.612 35.498 70.5692 35.6405C70.2841 36.5098 70.726 37.3791 70.6262 38.2199C70.4979 39.2744 70.8971 40.3717 70.3981 41.3835C70.2556 41.6685 70.3269 41.9535 70.4409 42.1388C70.9114 42.9368 70.7545 43.6921 70.4694 44.5043C70.3554 44.8464 70.5407 45.2596 70.612 45.6301C70.7403 46.3712 71.0824 47.2262 70.5977 47.9815C70.3839 48.3235 70.2983 48.6085 70.5977 48.9078C70.7688 49.0788 70.7118 49.4065 70.669 49.4493C70.2556 49.891 70.4979 50.2758 70.7118 50.6606C70.8971 51.0168 71.0112 51.3731 70.8258 51.7721C70.7403 51.9716 70.7403 52.1996 70.9114 52.3991C71.1822 52.7269 71.225 53.1402 71.2107 53.5392C71.1252 55.1352 71.2963 56.7313 71.3676 58.3273C71.4531 60.3224 71.3533 62.3175 71.3248 64.3268C71.3248 65.4526 71.168 66.6069 71.3391 67.7042C71.4531 68.4025 71.2107 69.001 71.225 69.6423C71.225 69.7705 71.168 69.9273 71.225 70.0413C71.6955 71.0388 71.111 72.0506 71.282 73.0481C71.3105 73.2334 71.282 73.4614 71.3676 73.6324C71.5957 74.0599 71.5244 74.4874 71.4531 74.9149C71.3391 75.485 71.2963 75.9837 71.5386 76.5823C71.7382 77.0668 71.6955 77.7223 71.6242 78.2496C71.5386 79.0048 71.8238 79.6034 72.0233 80.2589C72.0946 80.5011 72.2087 80.7149 71.9378 80.9714C71.6955 81.1994 71.7382 81.6127 71.8523 81.9262C72.0091 82.3395 71.9521 82.7385 71.9806 83.1375C72.1089 85.4176 71.9236 87.7119 72.2942 89.9777C72.5508 91.5168 72.6078 93.0701 72.5936 94.6519C72.5793 95.8774 72.8502 97.103 72.9072 98.3285C72.9357 98.9413 72.7932 99.5113 72.6649 100.081C72.5793 100.452 72.4938 100.865 72.6649 101.179C73.3207 102.333 72.8074 103.544 72.893 104.727C72.95 105.468 72.9643 106.209 73.0498 106.936C73.0783 107.192 73.0355 107.42 73.0213 107.663C72.9643 108.731 72.7789 109.8 73.2066 110.855C73.4347 111.41 73.1496 111.995 73.0783 112.565C72.95 113.691 72.8502 114.774 73.0783 115.899C73.2494 116.697 72.8502 117.524 72.9072 118.379C72.9785 119.662 72.7362 120.958 73.2494 122.227C73.3777 122.554 73.2494 122.996 73.1781 123.381L73.2494 123.409Z" fill="#31736D"/>
<path fill-rule="evenodd" clip-rule="evenodd" d="M10.0375 123.737C9.69534 122.412 9.79513 121.072 9.59554 119.776C9.49575 119.092 9.79513 118.465 9.72385 117.766C9.6098 116.655 9.63831 115.515 9.68108 114.389C9.72385 113.135 9.85216 111.895 9.63831 110.641C9.56703 110.228 9.66683 109.686 9.70959 109.202C9.76662 108.532 9.69534 107.891 9.48149 107.249C9.45298 107.15 9.3817 107.021 9.42447 106.936C9.95195 105.454 9.49575 103.957 9.51001 102.461C9.51001 102.091 9.56703 101.706 9.6098 101.35C9.78087 100.124 9.6098 98.8986 9.75236 97.673C9.85216 96.7752 9.66683 95.8347 9.59554 94.9227C9.56703 94.6091 9.52426 94.3099 9.73811 94.0249C9.85216 93.8681 9.85216 93.6259 9.76662 93.5119C9.3817 93.0416 9.59554 92.5428 9.59554 92.0298C9.58129 89.536 9.78088 87.0564 9.80939 84.5768C9.80939 84.135 9.65257 83.7075 9.63831 83.2657C9.6098 82.4677 9.68108 81.6982 9.85216 80.9002C9.96621 80.3586 9.78087 79.7459 9.69534 79.1616C9.65257 78.8766 9.49575 78.6058 9.82364 78.3921C9.95195 78.3066 9.86641 78.1926 9.82364 78.0928C9.51001 77.1665 9.66682 76.226 9.72385 75.2855C9.78087 74.2879 9.45298 73.2761 9.69534 72.2786C9.85216 71.6516 9.92344 71.0531 9.79513 70.3975C9.59554 69.2575 9.82364 68.089 9.76662 66.9347C9.72385 66.1651 9.59554 65.3956 9.6098 64.6261C9.6098 64.2698 9.52426 63.9278 9.76662 63.6143C9.8379 63.5003 9.86641 63.2723 9.80939 63.1725C9.26765 62.1892 9.70959 61.1917 9.75236 60.2084C9.78087 59.4531 9.90918 58.7264 9.6098 57.9996C9.58129 57.9426 9.55278 57.8571 9.56703 57.8001C9.85216 56.8596 9.43873 55.8905 9.62406 54.95C9.78087 54.1947 9.82364 53.4679 9.66682 52.7127C9.58129 52.3279 9.53852 51.9574 9.72385 51.6154C9.79513 51.4871 9.8379 51.3161 9.76662 51.2449C9.26765 50.7461 9.65257 50.2188 9.69534 49.7058C9.69534 49.5775 9.79513 49.4208 9.75236 49.321C9.41021 48.3092 9.70959 47.269 9.66682 46.2572C9.62406 45.3166 9.53852 44.3476 9.62406 43.3928C9.68108 42.7373 9.66682 42.0675 9.69534 41.3977C9.76662 39.8729 9.48149 38.3624 9.56703 36.8518C9.68108 34.8853 9.46724 32.9187 9.68108 30.9379C9.79513 29.8548 9.59554 28.729 9.53852 27.6318C9.53852 27.532 9.49575 27.3895 9.53852 27.3182C9.88067 26.8052 9.72385 26.2922 9.53852 25.7934C9.33893 25.3089 9.41021 24.8672 9.58129 24.3826C9.78087 23.8126 9.76662 23.1428 9.68108 22.6013C9.46724 21.4185 9.79513 20.2785 9.75236 19.11C9.70959 18.0269 9.75236 16.9439 9.52426 15.8751C9.43873 15.4476 9.55278 15.2338 9.99472 15.2196C11.0497 15.1626 12.1331 15.0486 13.1596 15.1056C15.355 15.2338 17.5505 15.1626 19.746 15.1911C21.1431 15.2053 22.5402 15.1198 23.9373 15.1198C25.5197 15.1198 27.1164 15.2766 28.6989 15.1911C29.7966 15.1341 30.88 15.1483 31.9635 15.1626C33.5745 15.1911 35.1997 15.1626 36.8106 15.1626C39.0203 15.1626 41.23 15.2623 43.4398 15.1626C45.9774 15.0486 48.515 15.2766 51.0526 15.1626C51.965 15.1198 52.9059 15.1768 53.8325 15.2338C55.2581 15.3193 56.698 15.2338 58.1236 15.1626C59.2356 15.1056 60.3191 15.2338 61.4311 15.2053C62.2009 15.1768 62.9708 15.2338 63.7406 15.0771C64.04 15.0058 64.3821 15.1768 64.71 15.1768C66.0358 15.1911 67.3759 15.2196 68.7017 15.1768C69.2007 15.1768 69.3148 15.3193 69.3433 15.8181C69.4003 17.1719 69.2292 18.5399 69.7567 19.851C69.9991 20.4638 69.6141 20.8343 68.8586 20.8058C66.1071 20.7203 63.3557 20.4923 60.6042 20.592C58.423 20.6775 56.2561 20.592 54.0749 20.649C50.7674 20.7203 47.46 20.6205 44.1668 20.6063C41.1017 20.6063 38.0509 20.6063 34.9858 20.6063C30.2385 20.6063 25.4912 20.6063 20.7439 20.6063C19.19 20.6063 17.636 20.6063 16.0964 20.6063C15.6829 20.6063 14.9701 21.2618 14.9131 21.6893C14.8418 22.2023 14.7135 22.6583 14.3999 23.1001C14.0862 23.5561 14.2288 24.1689 14.2003 24.7104C14.1718 25.3374 14.3714 25.9787 14.0577 26.6057C13.9437 26.8337 13.9009 27.1615 14.2146 27.3895C14.4427 27.5605 14.3714 27.8455 14.3571 28.0735C14.3429 28.9856 14.2716 29.8833 14.3571 30.7954C14.4141 31.4509 14.2288 32.1492 14.2288 32.8332C14.2288 34.358 14.2003 35.8971 14.2573 37.4219C14.2716 37.9634 14.3999 38.4906 14.3856 39.0464C14.3856 39.2459 14.4427 39.4597 14.3856 39.6449C14.1148 40.386 14.0862 41.07 14.4712 41.7968C14.5852 42.0105 14.4284 42.3953 14.3429 42.6945C14.129 43.5353 14.5139 44.3619 14.3571 45.1741C14.1718 46.1432 14.3286 47.0409 14.4569 47.9815C14.5282 48.5088 14.1433 49.036 14.2146 49.5918C14.3571 50.6891 14.1718 51.7721 14.186 52.8552C14.186 53.5392 14.129 54.2517 14.2288 54.9642C14.3001 55.5058 14.1575 56.1613 14.129 56.7455C14.1005 57.4296 13.9294 58.1278 14.0577 58.8119C14.1718 59.3391 13.7584 59.8807 14.1005 60.3367C14.3571 60.6929 14.3143 61.0777 14.2288 61.4197C14.1005 61.9042 14.0862 62.3745 14.0577 62.859C14.015 63.6713 14.2858 64.4551 14.2003 65.2673C14.1575 65.6236 14.3571 65.9941 14.4427 66.3646C14.4712 66.4644 14.571 66.6211 14.5282 66.6639C14.0292 67.3479 14.5282 68.1317 14.2716 68.8585C14.0577 69.4855 14.4284 70.1695 14.2431 70.8251C14.0435 71.5233 14.2003 72.1931 14.3571 72.8771C14.4284 73.1906 14.3714 73.5469 14.2003 73.8462C13.9152 74.3449 14.0007 74.8152 14.2573 75.2855C14.3001 75.3567 14.4141 75.4565 14.3856 75.4992C13.9722 76.3542 14.571 77.2805 14.2288 78.1356C14.1148 78.4348 14.0007 78.7626 14.2573 79.0761C14.4284 79.2899 14.4141 79.5749 14.3429 79.7744C13.9294 80.8289 14.4284 81.9404 14.1148 82.995C14.0577 83.1802 14.129 83.451 14.2146 83.6363C14.4854 84.249 14.4284 84.819 14.1433 85.3891C14.1148 85.4461 14.1005 85.5173 14.1148 85.5743C14.3571 86.9709 14.3143 88.3959 14.1433 89.7782C13.9722 91.2175 14.2858 92.6141 14.2573 94.0391C14.2431 94.9512 14.2003 95.8489 14.1005 96.761C14.015 97.5875 14.1718 98.4853 14.186 99.3688C14.186 100.309 14.0577 101.293 14.1433 102.176C14.2573 103.231 13.8867 104.257 14.186 105.354C14.4141 106.195 14.571 107.249 14.1718 108.218C14.0435 108.518 14.1718 108.988 14.2431 109.33C14.4427 110.47 14.129 111.582 14.2431 112.693C14.3001 113.42 14.1148 114.189 14.2716 114.859C14.4854 115.771 14.2716 116.612 14.2146 117.481C14.2003 117.852 14.3286 118.122 14.6708 118.179C15.184 118.279 15.7257 118.365 16.2532 118.351C17.4079 118.308 18.5627 118.236 19.7317 118.308C20.7867 118.379 21.8986 118.208 22.9679 118.265C25.0635 118.393 27.1449 118.165 29.2406 118.279C30.4666 118.351 31.7212 118.137 32.9472 118.251C34.1162 118.351 35.271 118.179 36.4257 118.194C40.1323 118.236 43.8389 118.208 47.5455 118.194C51.1524 118.165 54.7734 118.151 58.366 118.251C60.9036 118.322 63.4127 118.251 65.936 118.151C66.7201 118.122 67.5327 118.151 68.3168 118.236C69.2577 118.351 70.0561 118.051 70.8402 117.567C71.2108 117.324 71.4532 117.039 71.3249 116.583C71.1966 116.099 70.7119 116.142 70.384 116.142C69.2435 116.17 68.0745 116.113 66.9625 116.213C65.7507 116.327 64.5674 116.142 63.3699 116.17C60.9749 116.213 58.5656 116.284 56.1563 116.256C53.1055 116.213 50.0404 116.241 46.9896 116.256C42.6984 116.256 38.4073 116.341 34.1162 116.227C33.104 116.199 32.0776 116.256 31.0654 116.256C28.3852 116.256 25.6908 116.256 23.0106 116.256C21.2714 116.256 19.5321 116.284 17.7929 116.298C16.8234 116.298 16.7379 116.184 16.8234 115.215C16.8947 114.375 16.8662 113.505 16.9232 112.665C17.0658 110.812 16.8092 108.974 16.909 107.107C16.9945 105.34 17.0943 103.558 17.023 101.777C16.9517 99.9246 16.7522 98.0435 17.0088 96.2195C17.2226 94.6091 16.6666 92.9703 17.3081 91.3885C17.4507 91.0323 16.9517 90.733 16.9517 90.2912C16.9517 89.9207 16.8947 89.536 16.9517 89.1655C17.1513 87.5979 17.0943 86.0303 16.966 84.4628C16.9232 84.021 17.2226 83.6933 17.1798 83.2515C17.0658 82.0829 17.0515 80.9144 16.9803 79.7459C16.9517 79.3326 17.1798 78.9051 17.1086 78.5773C16.8947 77.5655 17.1371 76.6108 17.1798 75.6275C17.1941 75.143 17.0088 74.6584 17.2511 74.1739C17.3224 74.0314 17.3224 73.8034 17.2511 73.6466C16.7949 72.6349 17.08 71.6088 17.1941 70.5828C17.2654 69.97 17.0373 69.3857 17.0515 68.773C17.08 67.1769 16.966 65.5666 17.023 63.9563C17.0515 63.1583 16.9375 62.3175 17.2369 61.5337C16.7807 61.1917 17.4079 60.7499 17.0943 60.3082C16.8947 60.0374 17.0373 59.4959 17.0943 59.0969C17.2369 58.0851 17.2796 57.0306 17.1941 56.0615C17.1228 55.2207 17.0088 54.3087 16.8662 53.4537C16.7807 52.8837 16.8092 52.1141 16.9945 51.4444C17.1228 50.9741 17.1656 50.4896 17.023 50.0051C16.909 49.5918 16.5668 49.1643 17.0373 48.7225C17.1656 48.5943 16.8947 48.3662 16.909 48.124C16.9945 46.9127 17.0373 45.7157 17.08 44.5044C17.08 44.3904 17.1371 44.2764 17.1086 44.1766C16.6809 42.7515 16.8805 41.3122 16.9803 39.8872C17.0515 38.8754 16.909 37.8779 17.0515 36.8661C17.2939 35.1988 16.8092 33.5315 16.9803 31.8784C17.1656 30.1826 17.0373 28.4868 17.1656 26.791C17.2369 25.8932 16.9945 24.9242 16.9517 23.9836C16.9517 23.6986 16.9232 23.4136 16.8805 23.1286C16.8377 22.7723 17.0658 22.6156 17.3367 22.6156C19.0617 22.5728 20.7867 22.4588 22.5259 22.6726C23.4383 22.7866 24.3792 22.7296 25.3059 22.6156C26.2753 22.5016 27.259 22.5158 28.2284 22.5728C29.4972 22.6583 30.766 22.5871 32.0348 22.5728C35.6274 22.5016 39.2057 22.5586 42.7982 22.5728C44.3094 22.5728 45.8348 22.6583 47.3317 22.6156C49.2991 22.5586 51.2664 22.5586 53.2338 22.5728C55.9139 22.6013 58.6084 22.4161 61.2885 22.5586C63.4555 22.6726 65.6081 22.6156 67.7751 22.5586C68.3026 22.5586 68.83 22.6726 69.3575 22.5586C69.7567 22.4873 70.0846 23.1571 69.9563 23.7699C69.7139 24.9527 70.0989 26.0785 70.2272 27.2185C70.2272 27.361 70.384 27.4893 70.2842 27.6603C69.8565 28.3728 70.1559 29.1423 70.3697 29.7551C70.6406 30.5246 70.5693 31.2656 70.5265 31.9924C70.4695 33.0755 70.2842 34.13 70.6121 35.1988C70.6548 35.3413 70.6406 35.5123 70.5978 35.6548C70.3127 36.5241 70.7546 37.3934 70.6548 38.2341C70.5265 39.2887 70.9257 40.386 70.4267 41.3977C70.2842 41.6828 70.3555 41.9678 70.4695 42.153C70.94 42.9511 70.7831 43.7063 70.498 44.5186C70.384 44.8606 70.5693 45.2739 70.6406 45.6444C70.7689 46.3854 71.111 47.2405 70.6263 47.9957C70.4125 48.3377 70.3269 48.6228 70.6263 48.922C70.7974 49.093 70.7404 49.4208 70.6976 49.4635C70.2842 49.9053 70.5265 50.2901 70.7404 50.6748C70.9257 51.0311 71.0398 51.3874 70.8544 51.7864C70.7689 51.9859 70.7689 52.2139 70.94 52.4134C71.2108 52.7412 71.2536 53.1544 71.2393 53.5534C71.1538 55.1495 71.3249 56.7455 71.3962 58.3416C71.4817 60.3367 71.3819 62.3317 71.3534 64.3411C71.3534 65.4669 71.1966 66.6211 71.3676 67.7184C71.4817 68.4167 71.2393 69.0152 71.2536 69.6565C71.2536 69.7848 71.1966 69.9415 71.2536 70.0555C71.7241 71.0531 71.1395 72.0648 71.3106 73.0624C71.3391 73.2476 71.3106 73.4756 71.3962 73.6466C71.6243 74.0742 71.553 74.5017 71.4817 74.9292C71.3677 75.4992 71.3249 75.998 71.5672 76.5965C71.7668 77.081 71.7241 77.7365 71.6528 78.2638C71.5672 79.0191 71.8524 79.6176 72.0519 80.2731C72.1232 80.5154 72.2373 80.7292 71.9664 80.9857C71.7241 81.2137 71.7668 81.6269 71.8809 81.9404C72.0377 82.3537 71.9807 82.7527 72.0092 83.1517C72.1375 85.4318 71.9522 87.7262 72.3228 89.992C72.5794 91.531 72.6365 93.0843 72.6222 94.6661C72.6079 95.8917 72.8788 97.1172 72.9358 98.3428C72.9643 98.9556 72.8218 99.5256 72.6935 100.096C72.6079 100.466 72.5224 100.879 72.6935 101.193C73.3493 102.347 72.836 103.558 72.9216 104.741C72.9786 105.482 72.9929 106.223 73.0784 106.95C73.1069 107.207 73.0641 107.435 73.0499 107.677C72.9929 108.746 72.8075 109.814 73.2352 110.869C73.4633 111.425 73.1782 112.009 73.1069 112.579C72.9786 113.705 72.8788 114.788 73.1069 115.914C73.278 116.712 72.8788 117.538 72.9358 118.393C73.0071 119.676 72.7648 120.973 73.278 122.241C73.4063 122.569 73.278 123.01 73.2067 123.395C73.1639 123.623 72.9358 123.652 72.722 123.637C71.8524 123.595 71.0112 123.652 70.1416 123.794C69.5286 123.894 68.8871 123.666 68.2455 123.652C66.6488 123.58 65.0522 123.865 63.4412 123.652C62.2722 123.495 61.0604 123.637 59.8629 123.637C57.1685 123.637 54.4598 123.637 51.7654 123.637C50.6819 123.637 49.5984 123.723 48.515 123.666C46.7757 123.566 45.0365 123.709 43.3115 123.623C41.9429 123.566 40.5457 123.538 39.1914 123.566C37.6803 123.595 36.1548 123.409 34.6294 123.652C34.1732 123.723 33.6743 123.723 33.2038 123.523C32.7334 123.324 32.2486 123.595 31.7924 123.666C30.4951 123.865 29.2406 123.623 27.9575 123.609C26.8741 123.595 25.7906 123.694 24.7071 123.694C23.0819 123.694 21.4567 123.666 19.8315 123.666C19.0902 123.666 18.3631 123.723 17.6218 123.709C16.7094 123.694 15.7827 123.637 14.8703 123.566C14.2716 123.523 13.7013 123.652 13.1168 123.68C12.3327 123.709 11.5629 123.766 10.7931 123.652C10.4937 123.609 10.2086 123.58 9.96621 123.709L10.0375 123.737ZM59.3924 70.369C58.8935 70.7965 58.3232 71.1956 57.8385 71.6943C57.1115 72.4496 56.4842 73.3046 55.7571 74.0457C54.8732 74.9292 54.0036 75.827 52.9914 76.6108C52.079 77.3233 51.466 78.3636 50.5393 79.0903C49.4986 79.9169 48.6433 80.9572 47.6168 81.7837C46.8612 82.3822 46.1199 83.0377 45.6352 83.793C45.0935 84.6195 44.3379 85.1326 43.6536 85.7453C42.898 86.4294 41.9286 86.8426 41.2443 87.6692C40.3604 88.7522 39.0488 89.3792 38.1079 90.4195C37.8798 90.676 37.7373 91.0038 37.4522 91.2175C36.8677 91.645 36.2689 92.0298 35.7984 92.5856C35.0571 93.4406 34.1162 94.0961 33.3891 94.9654C32.8189 95.6494 32.2772 96.3762 31.4646 96.818C31.265 96.932 31.0084 97.1457 30.9656 97.4735C30.9371 97.7015 30.7232 97.8013 30.5236 97.9295C29.6968 98.4995 28.9697 99.2121 28.2284 99.8818C27.2732 100.723 26.6602 101.891 25.5767 102.632C25.1918 102.903 24.8639 103.231 24.6501 103.658C24.4077 104.171 24.6643 104.713 25.2346 104.699C25.7763 104.699 26.1898 105.041 26.6887 105.112C26.9168 105.14 26.9026 105.297 26.8598 105.454C26.817 105.668 26.8028 105.896 26.7315 106.109C26.5177 106.679 26.7458 107.007 27.2447 107.292C27.8862 107.663 28.5848 107.691 29.2976 107.748C29.6398 107.777 30.0104 107.919 29.8964 108.275C29.711 108.931 30.0389 109.544 29.9249 110.171C29.8821 110.413 29.9962 110.598 30.2955 110.598C31.0369 110.598 31.8922 111.026 32.3342 110C32.3627 109.943 32.4482 109.928 32.5053 109.886C33.8311 108.931 35.1997 108.047 36.4542 107.007C37.7515 105.938 39.0061 104.784 40.2036 103.587C41.3156 102.475 42.5559 101.492 43.7106 100.423C44.4234 99.7678 45.0222 99.0126 45.7778 98.414C46.4621 97.8583 47.1606 97.3167 47.7451 96.6612C48.7716 95.5069 49.9121 94.4666 51.1096 93.5119C52.4782 92.4146 53.9181 91.4028 55.1441 90.1202C56.4984 88.6952 57.8385 87.2559 59.2499 85.8736C60.1338 85.0043 60.8751 83.9783 61.873 83.1945C62.2294 82.9237 62.6143 82.6245 62.871 82.2825C63.3842 81.5699 64.154 81.1282 64.6672 80.4014C65.0664 79.8314 65.6937 79.4324 66.1356 78.8908C66.4493 78.5061 66.8484 78.2353 67.1763 77.8791C67.3046 77.7365 67.5042 77.651 67.6183 77.8506C67.9604 78.4491 68.659 78.5916 69.0867 79.0618C69.386 79.4039 69.6854 79.6319 70.0989 79.3611C70.5123 79.1046 70.384 78.6771 70.2842 78.3351C70.0989 77.7508 70.0703 77.1665 70.0703 76.5538C70.0703 75.1572 70.0561 73.7464 70.0703 72.3356C70.0703 71.1813 69.8422 70.0555 69.9563 68.9012C70.1986 66.3076 69.9705 63.714 69.9848 61.1204C69.9848 60.5077 69.7567 60.3794 69.272 60.7357C68.5734 61.2345 67.8749 61.7617 67.2191 62.3175C66.9482 62.5312 66.7629 62.6168 66.492 62.346C65.9503 61.7902 65.3943 61.2772 64.8668 60.7072C63.9402 59.7239 63.0991 58.6551 62.1154 57.7288C60.9891 56.66 59.7346 55.7908 58.7794 54.494C58.1807 53.6959 57.5106 52.8267 56.5982 52.2566C56.5127 52.1996 56.3986 52.1284 56.3559 52.0429C55.9139 50.9171 54.9445 50.2473 54.1319 49.435C53.248 48.5373 52.2501 47.7535 51.466 46.7274C50.9955 46.1147 50.5679 45.4591 50.0546 44.9034C49.1422 43.9343 48.1871 43.0223 47.3174 42.0105C46.8327 41.4548 46.3195 40.9132 45.8348 40.3432C45.3786 39.8159 45.065 39.1034 44.509 38.7472C43.7391 38.2484 43.2544 37.5074 42.6699 36.8803C42.1424 36.3246 41.672 35.669 41.1303 35.1275C40.3034 34.2725 39.448 33.4175 38.6497 32.5339C37.2383 30.9949 35.8127 29.4558 34.3158 28.0165C33.5602 27.2897 33.2038 27.418 32.8046 28.4013C32.6763 28.729 32.5765 28.9998 32.0491 28.8288C31.6071 28.6863 31.0796 28.8003 30.5949 28.8288C30.3383 28.8288 30.153 28.9998 30.2243 29.2563C30.3383 29.6981 30.2385 30.1256 30.2243 30.5674C30.1958 31.6504 30.0674 31.7787 28.9697 31.6362C28.8414 31.6219 28.7131 31.5934 28.5705 31.5649C27.8862 31.4224 27.7865 31.5079 27.8007 32.2062C27.8007 32.4057 27.7722 32.6194 27.8292 32.8047C28.0003 33.4032 27.7437 33.389 27.2875 33.2607C26.8455 33.1467 26.3608 33.1467 25.9189 33.2892C25.2774 33.503 25.2488 33.7025 25.6765 34.2155C26.8455 35.6405 28.0716 37.0086 29.3974 38.2911C30.6234 39.4597 31.5073 40.9132 32.6621 42.1245C33.0612 42.5378 33.2466 43.1791 33.6743 43.4641C34.715 44.1623 35.1141 45.3309 35.9695 46.1859C37.1385 47.3545 38.0509 48.7653 39.4195 49.7913C40.9877 50.9741 42.285 52.4561 43.4968 54.0095C43.9958 54.6507 44.5375 55.2492 45.1362 55.805C45.7635 56.3893 46.4478 56.9308 47.0323 57.5436C47.6453 58.1849 48.2726 58.8119 48.8571 59.4959C49.6127 60.3794 50.5108 61.149 51.2522 62.0752C52.4354 63.5573 54.2317 64.4551 55.3722 66.0369C56.028 66.9489 56.9832 67.5902 57.7102 68.431C58.2662 69.0722 59.0218 69.5425 59.3639 70.3263L59.3924 70.369ZM36.6396 51.4159C36.6681 50.7033 36.3972 50.3471 35.9553 50.1191C35.4705 49.8625 35.328 50.3471 35.0714 50.5751C34.7007 50.9171 34.3586 51.3161 33.8311 51.4301C33.6885 51.4586 33.5887 51.5014 33.546 51.6581C33.2466 52.7269 32.1774 53.1829 31.5358 53.9667C30.9086 54.7362 30.2955 55.6625 29.3119 56.1613C28.428 56.603 28.1999 57.7003 27.4158 58.2846C27.1877 58.4556 26.9168 58.5411 26.7172 58.7549C25.5482 60.0089 24.422 61.2772 23.5809 62.7735C23.4241 63.0443 23.4098 63.315 23.4526 63.6143C23.5809 64.3553 24.0513 64.5833 24.6929 64.1843C25.092 63.9421 25.4199 63.6143 25.7763 63.315C26.1755 62.973 26.3466 62.4315 26.7885 62.175C27.1877 61.947 27.5156 61.7047 27.7579 61.32C28.0146 60.9067 28.3282 60.5362 28.7986 60.3367C28.927 60.2797 29.098 60.1657 29.1408 60.0517C29.4544 59.2394 30.1958 58.7264 30.766 58.2133C31.3648 57.6861 32.0063 57.2443 32.4197 56.546C32.7619 55.9903 33.546 55.862 33.7313 55.1495C33.7455 55.064 33.9024 55.0212 33.9879 54.9642C34.5581 54.665 35.0714 54.1662 35.3708 53.6959C35.7699 53.0832 36.2261 52.4704 36.5683 51.8149C36.6538 51.6439 36.6538 51.4301 36.6681 51.4159H36.6396ZM63.1846 99.1408C62.7712 99.2976 62.2579 99.4258 61.9871 99.9103C61.6164 100.552 60.8751 100.78 60.4902 101.449C60.2478 101.877 59.592 102.062 59.3069 102.561C59.1786 102.775 59.0503 103.031 58.7224 103.003C58.5086 103.003 58.3375 103.174 58.2519 103.33C57.9953 103.843 57.6104 104.214 57.1115 104.485C56.5412 104.798 56.2846 105.411 55.8569 105.839C54.9588 106.722 53.7327 107.235 53.0627 108.446C52.6635 109.159 51.9222 109.686 51.3234 110.299C50.6534 110.983 49.8123 111.468 49.185 112.194C48.9427 112.465 48.7146 112.779 48.8999 113.149C49.071 113.505 49.4559 113.377 49.7267 113.306C50.4823 113.121 51.1666 112.736 51.8224 112.323C52.6208 111.838 53.2623 111.154 54.0464 110.669C54.7734 110.228 55.0443 109.33 55.9282 109.002C56.2846 108.874 56.7265 108.389 56.9119 107.862C57.0117 107.563 57.2968 107.335 57.6532 107.235C57.867 107.178 58.1094 107.078 58.1949 106.879C58.5086 106.152 59.1643 105.796 59.7346 105.326C60.647 104.585 61.3598 103.63 62.1154 102.746C62.8424 101.905 63.4555 100.979 63.7976 99.8961C63.9687 99.3688 63.7548 99.1266 63.1561 99.1551L63.1846 99.1408ZM68.103 104.77C68.103 104.513 68.0174 104.2 67.7323 104.071C67.3617 103.9 67.0053 104.029 66.6631 104.228C65.0522 105.14 63.6978 106.337 62.6001 107.834C62.0726 108.546 61.4881 109.216 61.0889 110.014C60.9036 110.37 60.8181 110.783 61.0889 111.083C61.2885 111.311 61.6592 111.311 62.0156 111.239C62.7427 111.097 63.1418 110.541 63.5838 110.028C63.8831 109.686 63.8974 109.102 64.3821 108.931C65.2232 108.632 65.6367 107.848 66.2069 107.292C66.7914 106.722 67.2048 105.924 67.8606 105.368C68.0317 105.226 68.1743 105.055 68.1315 104.756L68.103 104.77ZM70.3555 92.9846C70.4267 92.2151 70.0276 92.3861 69.7567 92.4431C68.659 92.6568 67.8891 93.4548 67.048 94.0819C66.1214 94.7659 65.4941 95.7349 65.0807 96.8037C64.9239 97.2027 65.1805 97.5163 65.5084 97.7585C65.8648 98.0293 66.0501 97.7585 66.2924 97.5733C67.6183 96.5757 68.6875 95.3074 69.8137 94.1104C70.1559 93.7541 70.2984 93.2696 70.3555 92.9846ZM30.88 46.7417C30.5807 46.7987 30.3526 46.8699 30.1387 47.0125C29.6112 47.3545 29.0838 47.6965 28.5563 48.0242C27.6724 48.58 27.0736 49.4493 26.1898 50.0336C25.7336 50.3328 25.4342 50.9456 24.9352 51.3161C24.6929 51.5014 24.5788 51.9146 24.7641 52.2281C24.9637 52.5559 25.2346 52.2566 25.4484 52.1711C25.7193 52.0714 25.9617 51.9146 26.2183 51.7864C28.1856 50.8886 29.597 49.2925 31.1224 47.8532C31.3648 47.6252 31.6071 47.3117 31.5073 46.984C31.4646 46.8414 31.0654 46.7987 30.88 46.7274V46.7417Z" fill="#FEFEFE"/>
<path fill-rule="evenodd" clip-rule="evenodd" d="M92.994 6.69775C92.1671 6.78326 91.4543 6.31299 90.656 6.29874C88.931 6.25599 87.2487 6.29874 85.7091 7.26778C85.1246 7.63829 84.4403 7.65254 83.7987 7.33903C82.6012 6.76901 81.4037 6.24174 80.0351 6.44125C78.9659 6.58375 77.8539 6.55525 76.9558 7.33903C76.6992 7.55279 76.6421 7.25352 76.6706 7.11102C76.8417 6.27024 76.3428 5.35821 76.97 4.54593C77.0983 4.37492 77.0128 3.97591 76.9273 3.70515C76.8132 3.30613 76.97 3.24913 77.3122 3.26338C79.1512 3.33463 80.976 3.30613 82.8151 3.26338C84.4403 3.20638 86.0655 3.29188 87.6764 3.22063C88.6744 3.17788 89.7151 3.29188 90.7273 3.39164C90.9981 3.42014 91.269 3.36314 91.5256 3.42014C91.825 3.47714 92.2669 2.97837 92.3952 3.51989C92.4665 3.81915 92.7231 4.13266 92.5235 4.51743C92.438 4.68843 92.4237 4.94494 92.5806 5.14445C92.8087 5.42946 93.0938 5.70022 92.7374 6.12773C92.5948 6.29874 92.9655 6.427 92.9512 6.71201L92.994 6.69775Z" fill="#FEFEFE"/>
<path fill-rule="evenodd" clip-rule="evenodd" d="M112.412 5.64323C112.469 5.88548 112.397 6.11349 111.813 6.12774C111.086 6.15624 110.344 6.07074 109.617 6.35575C109.347 6.46975 109.033 6.49826 108.734 6.61226C108.163 6.84027 107.593 6.81177 107.123 6.38425C106.524 5.85698 105.982 5.44372 105.027 5.64323C104.471 5.77148 103.801 5.72873 103.188 5.72873C102.76 5.72873 102.375 5.81423 102.019 6.09924C101.791 6.2845 101.491 6.46976 101.163 6.427C100.878 6.3985 100.693 6.48401 100.55 6.71201C100.451 6.86877 100.322 7.01127 100.123 6.95427C99.8804 6.89727 99.909 6.65501 99.909 6.51251C99.9517 5.72873 99.4385 5.0447 99.5383 4.24668C99.5668 3.93316 99.6523 3.89041 99.9232 3.87616C102.404 3.73366 104.884 4.01867 107.351 3.99017C108.534 3.99017 109.731 3.94741 110.929 3.96166C112.611 3.97592 112.226 3.93316 112.412 5.64323Z" fill="#FEFEFE"/>
<path fill-rule="evenodd" clip-rule="evenodd" d="M115.32 2.46536C115.32 2.46536 115.32 2.59361 115.22 2.55086C115.206 2.55086 115.22 2.45111 115.234 2.3941C115.263 2.42261 115.291 2.45111 115.305 2.46536H115.32Z" fill="#FEFEFE"/>
<path fill-rule="evenodd" clip-rule="evenodd" d="M86.4511 54.8217C86.6792 55.8763 86.5509 57.173 86.5224 58.4413C86.4796 60.4364 86.6934 62.4172 86.5651 64.3981C86.5509 64.6831 86.5651 64.9823 86.6364 65.2531C86.9785 66.4359 86.8075 67.6757 86.9073 68.8727C87.0498 70.5828 87.1639 72.3356 86.836 74.0599C86.7932 74.2737 86.7647 74.4874 86.836 74.7154C87.2209 76.0977 87.2209 77.537 87.2494 78.9336C87.2779 80.0451 87.2922 81.1709 87.3064 82.2967C87.3064 82.9095 87.4062 83.5222 87.4633 84.1208C87.6343 85.8451 87.5203 87.5694 87.5631 89.2937C87.5773 89.9777 87.7341 90.6475 87.8197 91.3315C87.8767 91.759 88.0335 92.2008 87.7056 92.5998C87.6628 92.6568 87.6628 92.7851 87.6914 92.8563C88.1333 94.1246 87.9337 95.4214 87.7912 96.704C87.7912 96.7752 87.7626 96.8465 87.7912 96.9035C88.1476 97.8867 87.8197 98.9555 88.2331 99.9246C88.3614 100.224 88.1618 100.423 88.1333 100.68C88.0478 101.407 88.0478 102.105 88.1618 102.846C88.2901 103.672 88.2331 104.542 88.0905 105.383C87.9765 106.067 87.948 106.779 87.9337 107.449C87.891 109.23 87.6628 111.011 87.6914 112.793C87.6914 113.334 87.9195 113.819 87.8909 114.375C87.8624 114.774 87.8909 115.173 87.6628 115.529C87.5203 115.771 87.5345 115.999 87.6201 116.284C87.7626 116.726 87.7912 117.196 87.4775 117.624C87.4062 117.738 87.3492 117.852 87.3777 117.994C87.6771 120.132 86.9215 122.084 86.2657 124.051C86.2087 124.207 86.1374 124.492 85.8666 124.222C85.8238 124.179 85.724 124.136 85.6955 124.15C84.9684 124.863 84.7974 123.894 84.7546 123.694C84.5978 123.053 84.3982 122.412 84.4552 121.699C84.5407 120.517 84.8829 119.334 84.6548 118.137C84.612 117.923 84.6833 117.695 84.7118 117.481C84.8401 116.555 85.0825 115.657 84.8259 114.674C84.6548 114.004 84.7974 113.206 84.9542 112.508C85.0682 111.995 85.054 111.567 84.8971 111.068C84.7261 110.513 84.5693 109.914 85.0112 109.358C85.111 109.23 85.0825 108.959 85.0112 108.788C84.8686 108.432 85.0682 108.161 85.111 107.848C85.2108 107.121 85.3533 106.38 85.225 105.653C85.1823 105.383 85.168 105.14 85.2821 104.898C85.4246 104.584 85.4104 104.285 85.3106 103.943C85.1395 103.33 85.2963 102.675 85.2963 102.048C85.3106 100.01 85.111 97.9865 85.1395 95.9629C85.1538 94.9796 84.6833 93.9679 85.0112 93.0986C85.3391 92.215 84.7403 91.4883 84.9684 90.676C85.054 90.391 84.5978 90.1487 84.6263 89.7925C84.6263 89.6642 84.6263 89.5217 84.5978 89.3934C84.441 88.9089 85.2963 89.0657 85.0825 88.7094C84.9114 88.4244 84.6263 88.3104 84.7831 87.8686C84.8829 87.5979 84.669 87.2416 84.7261 86.8996C84.7688 86.5718 84.7118 86.2298 84.7261 85.9021C84.7261 85.6598 84.7974 85.4176 84.8544 85.1895C84.9399 84.8475 84.9542 84.534 84.7403 84.2348C84.669 84.135 84.555 83.9782 84.5835 83.8927C84.7831 83.1802 84.3839 82.4962 84.5265 81.7837C84.6405 81.2279 84.3269 80.7149 84.3412 80.1591C84.3554 79.4323 84.2271 78.7056 84.4695 77.993C84.5693 77.7223 84.2556 77.5513 84.2699 77.3233C84.3697 75.7842 83.9562 74.2452 84.1558 72.7488C84.3697 71.1243 83.999 69.5852 83.885 68.0034C83.885 67.9179 83.8564 67.8324 83.8564 67.7327C83.8992 64.8398 83.7424 61.947 84.3697 59.0969C84.7118 57.5436 84.8544 55.9333 85.3391 54.4084C85.4389 54.0949 85.3391 53.5107 85.8951 53.5677C86.4796 53.6247 86.4368 54.1662 86.4511 54.836V54.8217Z" fill="#FEFEFE"/>
<path fill-rule="evenodd" clip-rule="evenodd" d="M102.047 99.9246C102.047 100.039 102.018 100.153 102.047 100.252C102.36 101.221 102.303 102.233 102.332 103.216C102.332 103.786 102.517 104.257 102.631 104.77C102.802 105.596 102.546 106.466 102.859 107.306C103.216 108.261 103.344 109.301 103.387 110.27C103.415 111.311 103.743 112.365 103.458 113.42C103.387 113.705 103.444 114.033 103.501 114.332C103.758 115.543 103.558 116.769 103.601 117.98C103.672 119.69 104.085 121.486 103.601 123.139C103.244 124.364 103.629 125.647 103.045 126.815C102.859 127.186 102.589 127.485 102.246 127.528C101.904 127.571 101.79 127.143 101.676 126.872C101.548 126.573 101.477 126.231 101.462 125.903C101.405 124.521 101.377 123.153 101.462 121.771C101.548 120.331 101.534 118.892 101.32 117.453C101.006 115.23 100.878 112.992 100.749 110.755C100.721 110.256 100.707 109.772 100.365 109.373C100.222 109.202 100.222 108.988 100.236 108.803C100.365 107.278 99.6803 105.853 99.6232 104.371C99.5662 102.874 99.3239 101.392 99.2098 99.8961C99.1385 98.87 99.0102 97.8297 98.9532 96.7895C98.8962 95.6494 98.7536 94.5094 98.8106 93.3693C98.8106 93.1983 98.8106 93.0131 98.7679 92.8421C98.5113 91.7733 98.3117 90.7045 98.5255 89.5929C98.5968 89.2082 98.3259 88.8662 98.3259 88.4957C98.3259 87.6406 98.0408 86.7286 98.2119 85.9448C98.4828 84.6908 98.0123 83.4652 98.3117 82.1969C98.4542 81.5984 98.3117 80.7719 98.3544 80.0594C98.4257 78.6201 98.1976 77.1808 98.4115 75.7272C98.6253 74.2594 98.8392 72.7916 98.9817 71.3095C99.0673 70.3548 99.1956 69.4142 99.552 68.5164C99.8086 67.9037 100.122 67.8609 100.55 68.3882C101.234 69.2432 101.234 70.2265 101.106 71.224C101.02 71.8226 101.049 72.3926 101.248 72.9769C101.505 73.7321 101.291 74.5587 101.206 75.3139C101.035 76.796 101.035 78.2923 101.106 79.7316C101.177 81.4132 100.892 83.0235 100.878 84.6765C100.878 85.8736 101.149 87.0706 101.234 88.2676C101.334 89.6927 101.348 91.1178 101.448 92.5428C101.491 93.2553 101.348 94.0676 101.548 94.6661C101.961 95.8917 101.477 97.0887 101.762 98.2858C101.876 98.7703 101.705 99.3118 102.175 99.6966L102.09 99.8391C102.09 99.8391 102.018 99.7678 102.004 99.7678C101.933 99.8248 101.947 99.8676 102.004 99.9103L102.047 99.9246Z" fill="#FEFEFE"/>
<path fill-rule="evenodd" clip-rule="evenodd" d="M123.944 121.557C123.944 120.802 124.03 119.932 123.745 119.092C123.702 118.963 123.673 118.821 123.702 118.692C124.258 116.683 123.973 114.617 124.158 112.579C124.186 112.194 124.101 111.824 124.001 111.467C123.716 110.413 124.001 109.344 123.987 108.29C123.973 107.363 124.101 106.466 124.058 105.539C124.015 104.855 124.058 104.185 123.83 103.53C123.83 103.516 123.83 103.487 123.83 103.459C124.429 102.347 123.431 101.107 124.101 99.9958C124.301 99.6681 124.044 99.2975 123.958 98.9698C123.83 98.4853 124.258 98.0578 124.015 97.5732C123.588 96.7325 123.873 95.8062 123.816 94.9369C123.688 93.2696 123.773 91.588 123.702 89.9207C123.673 89.3222 123.759 88.6667 123.388 88.1252C123.345 88.0681 123.303 87.9684 123.331 87.9399C123.673 87.4269 123.374 86.8711 123.474 86.3723C123.559 85.9733 123.545 85.3891 123.445 85.3178C122.576 84.7193 123.602 83.7645 122.989 83.1375C122.861 83.0092 123.089 82.767 123.189 82.6102C123.36 82.3679 123.217 82.1542 123.189 81.9262C123.103 81.0427 122.647 80.2304 122.69 79.3326C122.732 78.5203 122.747 77.6938 122.533 76.91C122.461 76.625 122.404 76.34 122.419 76.0692C122.447 75.1572 122.233 74.2737 122.148 73.3759C122.062 72.3783 122.176 71.4236 122.69 70.54C123.103 69.8275 123.516 69.8275 123.859 70.54C124.714 72.3213 125.127 74.2167 125.17 76.1832C125.184 76.8245 125.527 77.366 125.598 77.9788C125.641 78.3778 125.683 78.7626 125.569 79.1616C125.398 79.7744 125.612 80.3586 125.755 80.9286C126.011 81.9974 126.111 83.0947 126.268 84.1778C126.51 85.8308 126.553 87.4981 126.51 89.1797C126.467 90.8328 126.667 92.4716 126.795 94.1104C126.838 94.7516 126.71 95.4214 126.753 96.0769C126.838 97.7015 126.667 99.3118 126.681 100.922C126.681 102.518 126.667 104.128 126.81 105.725C126.966 107.335 126.881 108.945 126.852 110.527C126.824 112.066 127.209 113.648 126.795 115.144C126.553 116.028 126.981 116.868 126.696 117.738C126.582 118.094 126.539 118.55 126.467 118.949C126.254 120.061 126.653 121.201 126.239 122.312C126.04 122.854 125.926 123.424 125.641 123.922C125.498 124.165 125.427 124.663 125.042 124.478C124.657 124.279 124.03 124.336 123.944 123.666C123.859 122.996 123.916 122.341 123.958 121.557H123.944Z" fill="#FEFEFE"/>
<path fill-rule="evenodd" clip-rule="evenodd" d="M121.635 46.8557C121.877 48.3662 121.806 49.9338 122.276 51.4301C122.419 51.9003 122.519 52.3706 122.505 52.8694C122.476 53.4821 122.362 54.0807 122.832 54.6222C123.018 54.8217 122.932 55.2065 122.847 55.463C122.547 56.3037 122.804 57.1303 122.975 57.9283C123.118 58.5981 123.217 59.2964 123.346 59.9661C123.474 60.6074 123.502 61.3484 123.502 62.0325C123.502 62.346 123.531 62.6167 123.745 62.9017C123.973 63.1867 123.959 63.4433 123.502 63.5715C122.761 63.7853 122.419 63.7425 122.048 63.03C121.435 61.8757 121.05 60.6217 120.765 59.3391C120.509 58.1848 120.181 57.0448 119.924 55.9047C119.753 55.1352 119.596 54.2802 119.896 53.4679C120.081 52.9691 119.924 52.4989 119.668 52.1426C119.169 51.4443 119.325 50.6605 119.226 49.9195C119.097 48.922 119.04 47.9102 118.912 46.9127C118.812 46.2001 118.627 45.4734 118.727 44.7323C118.784 44.2621 118.727 43.8061 118.57 43.3643C118.541 43.3073 118.499 43.236 118.499 43.179C118.584 42.2955 118.313 41.4547 118.285 40.5854C118.242 39.2886 118.242 38.0061 118.142 36.7093C118.099 36.2248 118.085 35.7403 118.142 35.2558C118.313 32.8902 118.384 30.5246 119.083 28.2303C119.183 27.9167 119.197 27.5747 119.696 27.6032C120.124 27.6317 120.195 27.8882 120.338 28.216C120.808 29.3133 120.922 30.4818 120.865 31.6361C120.837 32.1634 120.708 32.7049 120.722 33.2464C120.737 34.7285 120.78 36.1963 121.107 37.6498C121.164 37.8778 121.065 38.1344 121.065 38.3766C121.093 39.6307 120.965 40.8847 121.364 42.096C121.378 42.153 121.421 42.2242 121.407 42.2813C121.107 43.635 121.464 44.9461 121.663 46.2714C121.692 46.4709 121.663 46.6704 121.663 46.8699L121.635 46.8557Z" fill="#FEFEFE"/>
<path fill-rule="evenodd" clip-rule="evenodd" d="M114.891 92.3433C115.134 93.3836 114.706 94.4666 115.234 95.5069C115.405 95.8489 115.191 96.3904 115.162 96.8322C115.148 97.0317 115.062 97.2455 115.105 97.4307C115.419 98.7275 115.419 100.053 115.576 101.364C115.675 102.19 115.633 103.031 115.661 103.858C115.661 103.972 115.661 104.086 115.675 104.185C115.918 105.44 115.519 106.679 115.661 107.933C115.79 109.045 115.747 110.185 115.904 111.282C116.003 111.952 115.875 112.579 115.861 113.192C115.847 113.919 115.804 114.688 115.832 115.401C115.918 117.367 115.704 119.291 115.39 121.215C115.319 121.671 115.348 122.141 115.362 122.597C115.39 123.338 114.592 123.409 114.335 123.922C114.278 124.051 113.337 123.466 113.309 123.238C113.166 121.5 113.052 119.747 113.067 117.994C113.081 116.113 113.28 114.246 113.337 112.365C113.48 107.591 113.537 102.817 113.295 98.0578C113.181 95.9059 113.295 93.7541 112.938 91.6165C112.839 90.9895 112.81 90.334 113.081 89.7212C113.195 89.4932 113.337 89.2652 113.623 89.2937C113.851 89.2937 114.05 89.4505 114.136 89.6785C114.449 90.5192 114.335 91.4883 114.92 92.2436C114.934 92.2721 114.92 92.3291 114.891 92.3718V92.3433Z" fill="#FEFEFE"/>
<path fill-rule="evenodd" clip-rule="evenodd" d="M80.0778 22.2593C80.0493 20.5065 80.0778 18.7537 80.3487 17.0151C80.3915 16.7444 80.3487 16.3739 80.7051 16.2884C81.1185 16.1886 81.2041 16.5876 81.3324 16.8441C81.7743 17.7419 81.7886 18.7679 81.7458 19.7085C81.6888 20.9055 81.9739 22.0313 82.0594 23.1856C82.1592 24.4966 82.6297 25.7649 82.4729 27.0902C82.4586 27.247 82.5869 27.361 82.6725 27.4893C82.9148 27.8598 83.1287 28.2588 82.9148 28.7148C82.8293 28.8858 82.9148 29.0141 82.9718 29.1566C83.4993 30.5389 84.0125 31.9212 84.2264 33.3747C84.3975 34.6003 84.9677 35.7403 85.039 36.9801C85.1103 38.2341 85.4809 39.4739 85.2813 40.7707C85.2101 41.241 85.3241 41.7398 85.4239 42.21C85.595 43.0223 85.0105 43.5781 84.7539 44.2336C84.6541 44.4901 84.2406 44.5329 84.0553 44.0911C83.6419 43.1078 83.4565 42.0533 83.1714 41.0272C82.0167 36.8376 81.4037 32.5197 80.5055 28.273C80.0921 26.2922 80.0208 24.2686 80.0636 22.2451L80.0778 22.2593Z" fill="#FEFEFE"/>
<path fill-rule="evenodd" clip-rule="evenodd" d="M112.839 74.1597C112.982 77.0098 113.11 79.6746 113.224 82.3252C113.238 82.6815 113.238 83.0377 113.21 83.394C113.167 83.8357 112.896 84.0353 112.469 83.85C112.269 83.7645 112.084 83.7787 111.898 83.736C111.499 83.6505 111.243 83.4652 111.129 83.0235C110.943 82.3537 111.043 81.5842 110.459 81.0426C110.401 80.9856 110.401 80.8289 110.416 80.7149C110.601 79.2471 110.473 77.7508 110.245 76.3257C109.945 74.4732 110.216 72.6206 109.874 70.7823C109.746 70.1268 109.731 69.4285 109.845 68.716C109.96 68.0034 109.646 67.2339 109.632 66.4929C109.632 65.3528 109.404 64.2128 109.632 63.0728C109.689 62.8162 109.803 62.5597 110.102 62.4885C110.401 62.4172 110.53 62.6452 110.672 62.859C111.129 63.543 111.357 64.3268 111.556 65.0963C112.369 68.1174 112.797 71.224 112.839 74.1597Z" fill="#FEFEFE"/>
<path fill-rule="evenodd" clip-rule="evenodd" d="M95.5464 114.66C95.5892 116.783 95.4181 118.664 95.1187 120.545C95.0332 121.087 94.6768 121.514 94.5342 122.013C94.4487 122.298 94.135 122.255 93.9069 122.255C93.6076 122.255 93.4793 122.041 93.4508 121.785C93.3795 121.129 93.3082 120.46 93.2654 119.804C93.1941 118.635 93.0373 117.467 92.9375 116.298C92.8377 114.93 92.852 113.562 92.8805 112.194C92.8948 111.068 92.7665 109.957 92.6239 108.845C92.4528 107.349 92.2675 105.853 92.1249 104.342C92.0822 103.957 92.2105 103.587 92.6667 103.459C93.1086 103.345 93.351 103.53 93.5505 103.915C94.8193 106.423 95.3041 109.102 95.4466 111.881C95.5036 112.878 95.6034 113.862 95.5464 114.66Z" fill="#FEFEFE"/>
<path fill-rule="evenodd" clip-rule="evenodd" d="M105.967 23.8553C105.939 20.6062 106.395 17.3999 106.794 14.1793C106.865 13.5665 106.98 12.9395 107.45 12.4692C107.906 12.0132 108.163 12.0559 108.448 12.6402C108.933 13.6662 108.89 14.735 108.847 15.8323C108.79 17.2574 108.648 18.6967 108.548 20.1075C108.476 21.1477 108.405 22.2593 108.049 23.2853C107.992 23.4421 108.049 23.5846 108.063 23.7413C108.12 24.7104 107.963 25.6652 107.92 26.6199C107.892 27.418 107.821 28.2588 107.977 29.0283C108.206 30.1113 108.377 31.1801 108.305 32.2916C108.277 32.6764 108.134 32.8617 107.792 32.9472C107.421 33.0327 107.265 32.8047 107.151 32.5197C106.438 30.7953 105.996 29.0283 105.953 27.1615C105.925 26.0499 105.953 24.9384 105.953 23.8411L105.967 23.8553Z" fill="#FEFEFE"/>
<path fill-rule="evenodd" clip-rule="evenodd" d="M100.821 55.4202C100.892 56.9165 100.778 58.4128 100.421 59.8806C100.35 60.1657 100.393 60.7357 99.894 60.6217C98.8675 60.3794 98.3685 59.9661 98.5966 59.3391C98.8247 58.7263 98.4683 58.1706 98.4541 57.5721C98.4256 56.7313 98.1547 55.9047 98.3685 55.064C98.3971 54.9357 98.4398 54.779 98.3971 54.665C97.9409 53.5819 98.0977 52.3991 97.9266 51.2591C97.8125 50.4896 97.6272 49.5918 98.1547 48.8222C98.3258 48.5657 98.2973 48.295 98.2117 47.9957C98.0834 47.6252 98.2117 47.2547 98.5111 47.0409C98.8533 46.7987 99.0814 47.1549 99.2952 47.3402C100.079 48.0242 100.35 48.9647 100.493 49.948C100.749 51.7436 100.892 53.5677 100.835 55.406L100.821 55.4202Z" fill="#FEFEFE"/>
<path fill-rule="evenodd" clip-rule="evenodd" d="M88.803 21.9315C88.803 23.5276 88.803 25.1236 88.803 26.7197C88.803 27.019 88.9741 27.2612 88.3468 27.19C87.7481 27.1187 87.4772 27.0902 87.3346 26.4632C87.1921 25.7649 86.8072 25.1664 86.6931 24.3969C86.5791 23.4706 86.6076 22.5443 86.4508 21.6465C86.1514 19.9792 86.5505 18.4402 86.8499 16.8441C86.964 16.2171 87.6198 15.9606 87.6768 15.3335C87.6768 15.2338 87.8479 15.248 87.9334 15.3478C88.5464 16.0603 88.9313 16.8013 88.8743 17.8131C88.803 19.1812 88.746 20.5492 88.7745 21.9315H88.803Z" fill="#FEFEFE"/>
<path fill-rule="evenodd" clip-rule="evenodd" d="M121.664 17.3714C121.664 18.8249 121.507 20.25 120.822 21.561C120.666 21.8745 120.594 22.3306 120.067 22.2736C119.596 22.2308 119.311 21.8745 119.126 21.5325C118.869 21.048 118.584 20.535 118.969 19.9222C119.197 19.5375 119.012 19.0244 119.126 18.5542C119.34 17.7134 119.796 16.9439 119.782 16.0318C119.782 15.6043 120.58 15.0343 121.008 15.0913C121.321 15.1198 121.507 15.3193 121.564 15.6471C121.678 16.2171 121.649 16.8014 121.649 17.3714H121.664Z" fill="#FEFEFE"/>
<path fill-rule="evenodd" clip-rule="evenodd" d="M59.3919 70.369C59.064 69.5995 58.3084 69.1292 57.7382 68.4737C57.0111 67.6329 56.0417 66.9774 55.4002 66.0796C54.2597 64.4978 52.4634 63.6143 51.2801 62.118C50.5388 61.1917 49.6407 60.4222 48.8851 59.5386C48.3006 58.8546 47.6733 58.2276 47.0603 57.5863C46.4758 56.9735 45.8057 56.432 45.1642 55.8478C44.5654 55.292 44.0237 54.6935 43.5247 54.0522C42.313 52.4989 41.0157 51.0168 39.4475 49.834C38.0789 48.808 37.1665 47.3972 35.9975 46.2287C35.1421 45.3879 34.7429 44.2051 33.7022 43.5068C33.2745 43.2218 33.0892 42.5805 32.69 42.1673C31.5353 40.956 30.6514 39.4882 29.4254 38.3339C28.0853 37.0656 26.8735 35.6833 25.7045 34.2582C25.2768 33.731 25.3053 33.5315 25.9469 33.332C26.4031 33.1894 26.8735 33.1752 27.3154 33.3035C27.7716 33.4317 28.0283 33.446 27.8572 32.8474C27.8002 32.6622 27.8287 32.4484 27.8287 32.2489C27.8287 31.5506 27.9142 31.4794 28.5985 31.6076C28.7268 31.6361 28.8551 31.6646 28.9977 31.6789C30.0812 31.8214 30.2237 31.6931 30.2522 30.6101C30.2522 30.1683 30.352 29.7408 30.2522 29.2991C30.1809 29.0283 30.3663 28.8715 30.6229 28.8715C31.1076 28.8573 31.6351 28.7433 32.077 28.8715C32.6045 29.0426 32.7043 28.7718 32.8326 28.444C33.2318 27.4607 33.5882 27.3325 34.3438 28.0593C35.8407 29.4986 37.2663 31.0376 38.6776 32.5767C39.476 33.4602 40.3314 34.301 41.1582 35.1703C41.6857 35.726 42.1704 36.3816 42.6979 36.9231C43.2966 37.5501 43.7671 38.2911 44.5369 38.7899C45.0929 39.1462 45.4208 39.8587 45.8628 40.386C46.3475 40.956 46.8607 41.4832 47.3454 42.0533C48.215 43.0651 49.1702 43.9771 50.0826 44.9461C50.5958 45.4876 51.0235 46.1574 51.494 46.7702C52.2638 47.7962 53.2617 48.58 54.1599 49.4778C54.9725 50.2901 55.9276 50.9598 56.3838 52.0856C56.4123 52.1711 56.5264 52.2424 56.6262 52.2994C57.5386 52.8694 58.2086 53.7244 58.8074 54.5367C59.7626 55.8193 61.0171 56.7028 62.1433 57.7716C63.127 58.6979 63.9681 59.7666 64.8948 60.7499C65.4223 61.3057 65.9925 61.833 66.52 62.3887C66.7909 62.6737 66.9762 62.574 67.2471 62.3602C67.9171 61.8187 68.6014 61.2915 69.2999 60.7784C69.7847 60.4364 70.0128 60.5504 70.0128 61.1632C70.0128 63.7568 70.2266 66.3504 69.9842 68.944C69.8702 70.0983 70.1126 71.2241 70.0983 72.3783C70.0983 73.7892 70.0983 75.1857 70.0983 76.5965C70.0983 77.195 70.1268 77.7793 70.3121 78.3778C70.4262 78.7198 70.5402 79.1473 70.1268 79.4039C69.6991 79.6604 69.414 79.4323 69.1146 79.1046C68.6869 78.6343 67.9884 78.4918 67.6462 77.8933C67.5322 77.6795 67.3183 77.7793 67.2043 77.9218C66.8764 78.2781 66.4772 78.5488 66.1636 78.9336C65.7216 79.4751 65.0944 79.8741 64.6952 80.4441C64.182 81.1709 63.4121 81.6127 62.8989 82.3252C62.6423 82.6815 62.2574 82.9665 61.901 83.2372C60.903 84.0068 60.1617 85.0328 59.2778 85.9163C57.8665 87.2986 56.5264 88.7379 55.1721 90.163C53.946 91.4455 52.5204 92.4573 51.1376 93.5546C49.9543 94.5094 48.7995 95.5497 47.7731 96.704C47.1886 97.3595 46.5043 97.901 45.8057 98.4568C45.0644 99.0553 44.4514 99.8106 43.7386 100.466C42.5838 101.535 41.3435 102.518 40.2316 103.63C39.034 104.827 37.7938 105.981 36.4822 107.05C35.2276 108.09 33.859 108.974 32.5332 109.928C32.4762 109.971 32.3907 109.985 32.3621 110.042C31.9202 111.068 31.0506 110.627 30.3235 110.641C30.0241 110.641 29.9101 110.47 29.9528 110.213C30.0669 109.586 29.739 108.974 29.9243 108.318C30.0241 107.962 29.6677 107.805 29.3256 107.791C28.6128 107.748 27.9142 107.705 27.2727 107.335C26.7737 107.05 26.5314 106.722 26.7595 106.152C26.8307 105.953 26.845 105.725 26.8878 105.497C26.9163 105.34 26.9448 105.183 26.7167 105.155C26.2177 105.083 25.8043 104.741 25.2626 104.741C24.6923 104.741 24.4357 104.214 24.6781 103.701C24.8776 103.273 25.2198 102.931 25.6047 102.675C26.6882 101.934 27.3012 100.765 28.2564 99.9246C29.0119 99.2691 29.7247 98.5565 30.5516 97.9723C30.7369 97.844 30.9508 97.7585 30.9935 97.5162C31.0363 97.1885 31.2929 96.9747 31.4925 96.8607C32.3194 96.419 32.8469 95.6922 33.4171 95.0082C34.1442 94.1389 35.0851 93.4834 35.8264 92.6283C36.2969 92.0725 36.8956 91.6878 37.4801 91.2603C37.7652 91.0608 37.8935 90.7188 38.1359 90.4622C39.0768 89.422 40.3884 88.7949 41.2723 87.7119C41.9566 86.8711 42.926 86.4721 43.6816 85.7881C44.3659 85.1753 45.1214 84.6623 45.6632 83.8358C46.1621 83.0805 46.9035 82.425 47.6448 81.8264C48.6712 80.9999 49.5266 79.9596 50.5673 79.1331C51.494 78.4063 52.107 77.3518 53.0194 76.6535C54.0173 75.8697 54.9012 74.9862 55.7851 74.0884C56.5264 73.3474 57.1394 72.4924 57.8665 71.7371C58.3512 71.2383 58.9214 70.8393 59.4204 70.4118L59.3919 70.369ZM61.7157 71.8511C61.5161 71.8511 61.3592 71.9081 61.3022 72.1076C61.2167 72.3783 61.3022 72.6491 61.4733 72.8486C62.514 74.0314 63.683 75.0717 64.8948 76.055C65.0088 76.1547 65.1514 76.226 65.3082 76.2687C65.6218 76.3685 65.8927 76.2687 66.021 75.9552C66.1351 75.6845 66.0923 75.4422 65.7644 75.3139C65.5078 75.2142 65.3652 74.9719 65.1942 74.7867C64.3103 73.8034 63.3266 72.9341 62.3287 72.0791C62.1576 71.9223 61.958 71.8511 61.7157 71.8511ZM64.8805 65.0108C64.852 64.5691 64.3388 64.3553 63.9254 64.6118C62.9132 65.2388 62.1718 66.1651 61.3592 67.0202C61.1454 67.2482 61.1739 67.5759 61.402 67.8039C61.6301 68.0177 61.844 67.8467 62.0578 67.7184C62.7849 67.2624 63.4834 66.7636 64.0537 66.1366C64.3673 65.7946 64.738 65.4526 64.8663 65.0108H64.8805Z" fill="#E06765"/>
<path fill-rule="evenodd" clip-rule="evenodd" d="M36.6391 51.4016C36.6391 51.4016 36.6391 51.6439 36.5393 51.8006C36.1971 52.4704 35.7409 53.0689 35.3418 53.6817C35.0424 54.1377 34.5292 54.6365 33.9589 54.95C33.8591 55.007 33.7166 55.0497 33.7023 55.1352C33.5312 55.8478 32.7329 55.976 32.3907 56.5318C31.9773 57.2301 31.3358 57.6718 30.737 58.1991C30.1525 58.7121 29.4112 59.2251 29.1118 60.0374C29.069 60.1657 28.898 60.2654 28.7697 60.3224C28.2992 60.5219 27.9856 60.8924 27.729 61.3057C27.4866 61.6905 27.1587 61.9327 26.7595 62.1607C26.3318 62.403 26.1608 62.9588 25.7473 63.3008C25.3909 63.6 25.063 63.9278 24.6639 64.1701C24.0223 64.5691 23.5519 64.3411 23.4236 63.6C23.3666 63.315 23.3951 63.03 23.5519 62.7593C24.393 61.263 25.5192 59.9804 26.6883 58.7406C26.8878 58.5269 27.1587 58.4414 27.3868 58.2704C28.1852 57.6861 28.399 56.5888 29.2829 56.147C30.2666 55.6483 30.8796 54.722 31.5068 53.9524C32.1484 53.1687 33.2176 52.7127 33.517 51.6439C33.5597 51.4871 33.6453 51.4444 33.8021 51.4159C34.3296 51.3019 34.6717 50.9028 35.0424 50.5608C35.299 50.3186 35.4416 49.8483 35.9263 50.1048C36.3682 50.3328 36.6533 50.6891 36.6106 51.4016H36.6391Z" fill="#27716B"/>
<path fill-rule="evenodd" clip-rule="evenodd" d="M63.1841 99.1408C63.7686 99.1123 63.9825 99.3688 63.8256 99.8818C63.4835 100.951 62.8705 101.891 62.1434 102.732C61.3736 103.615 60.6608 104.57 59.7626 105.311C59.1781 105.782 58.5366 106.138 58.223 106.865C58.1374 107.064 57.8951 107.164 57.6812 107.221C57.3391 107.306 57.0539 107.534 56.9399 107.848C56.7546 108.389 56.3126 108.86 55.9562 108.988C55.0723 109.33 54.8015 110.213 54.0744 110.655C53.2903 111.14 52.6345 111.824 51.8504 112.308C51.1804 112.722 50.5104 113.106 49.7548 113.292C49.4696 113.363 49.099 113.491 48.9279 113.135C48.7568 112.779 48.9707 112.465 49.213 112.18C49.8546 111.467 50.6957 110.969 51.3515 110.285C51.936 109.672 52.6916 109.145 53.0907 108.432C53.7608 107.221 54.9725 106.708 55.8849 105.824C56.3126 105.397 56.5692 104.784 57.1395 104.47C57.6385 104.2 58.0234 103.829 58.28 103.316C58.3655 103.145 58.5366 102.974 58.7504 102.988C59.0926 103.003 59.2209 102.76 59.3349 102.547C59.6343 102.048 60.2758 101.863 60.5182 101.435C60.9031 100.765 61.6444 100.537 62.0151 99.8961C62.286 99.4116 62.7992 99.2833 63.2126 99.1265L63.1841 99.1408Z" fill="#27716B"/>
<path fill-rule="evenodd" clip-rule="evenodd" d="M68.103 104.77C68.16 105.069 68.0032 105.24 67.8321 105.383C67.1763 105.938 66.7629 106.736 66.1784 107.306C65.6081 107.862 65.1947 108.646 64.3536 108.945C63.8831 109.116 63.8546 109.686 63.5552 110.042C63.1133 110.555 62.7141 111.111 61.987 111.254C61.6449 111.325 61.2742 111.325 61.0604 111.097C60.8038 110.798 60.8893 110.384 61.0604 110.028C61.4596 109.23 62.0583 108.56 62.5716 107.848C63.6693 106.352 65.0236 105.155 66.6346 104.242C66.9767 104.043 67.3331 103.915 67.7038 104.086C67.9889 104.214 68.0602 104.513 68.0744 104.784L68.103 104.77Z" fill="#27716B"/>
<path fill-rule="evenodd" clip-rule="evenodd" d="M70.3699 92.9846C70.3271 93.2838 70.1703 93.7541 69.8282 94.1104C68.7019 95.3074 67.6327 96.5615 66.3069 97.5732C66.0503 97.7585 65.865 98.0292 65.5228 97.7585C65.1949 97.5162 64.9383 97.217 65.0951 96.8037C65.5228 95.7349 66.1501 94.7659 67.0625 94.0819C67.9036 93.4548 68.6734 92.6568 69.7712 92.4431C70.042 92.3861 70.4412 92.215 70.3699 92.9846Z" fill="#27716B"/>
<path fill-rule="evenodd" clip-rule="evenodd" d="M30.8797 46.7417C31.0651 46.8129 31.4642 46.8557 31.507 46.9982C31.6068 47.3259 31.3644 47.6395 31.1221 47.8675C29.5967 49.3068 28.1711 50.8886 26.218 51.8006C25.9613 51.9146 25.719 52.0856 25.4481 52.1854C25.2343 52.2566 24.9634 52.5701 24.7638 52.2424C24.5785 51.9289 24.6925 51.5156 24.9349 51.3303C25.4339 50.9598 25.7475 50.347 26.1894 50.0478C27.0733 49.4635 27.6863 48.5942 28.556 48.0385C29.0834 47.7107 29.6252 47.3687 30.1384 47.0267C30.3522 46.8842 30.5661 46.8129 30.8797 46.7559V46.7417Z" fill="#27716B"/>
<path fill-rule="evenodd" clip-rule="evenodd" d="M102.047 99.9246C101.976 99.8818 101.962 99.8391 102.047 99.7821C102.047 99.7821 102.104 99.8248 102.133 99.8533C102.104 99.8818 102.09 99.8961 102.061 99.9246H102.047Z" fill="#FEFEFE"/>
<path fill-rule="evenodd" clip-rule="evenodd" d="M61.7166 71.8511C61.9447 71.8511 62.1585 71.9223 62.3296 72.0791C63.3275 72.9341 64.3112 73.8034 65.1951 74.7867C65.3662 74.9862 65.5087 75.2142 65.7653 75.3139C66.0932 75.4422 66.136 75.6845 66.0219 75.9552C65.8936 76.2545 65.6228 76.3685 65.3091 76.2687C65.1666 76.226 65.024 76.1405 64.8957 76.055C63.6839 75.0717 62.5149 74.0172 61.4742 72.8486C61.2889 72.6491 61.2319 72.3783 61.3031 72.1076C61.3602 71.9081 61.5312 71.8511 61.7166 71.8511Z" fill="#FEFEFE"/>
<path fill-rule="evenodd" clip-rule="evenodd" d="M64.881 65.0108C64.7527 65.4383 64.382 65.7804 64.0684 66.1366C63.4982 66.7636 62.7996 67.2624 62.0725 67.7184C61.8587 67.8467 61.6449 68.0319 61.4168 67.8039C61.1744 67.5759 61.1601 67.2482 61.374 67.0201C62.1866 66.1651 62.9137 65.2388 63.9401 64.6118C64.3535 64.3553 64.8668 64.5691 64.8953 65.0108H64.881Z" fill="#FEFEFE"/>
</svg>
