<svg width="640" height="321" viewBox="0 0 640 321" fill="none" xmlns="http://www.w3.org/2000/svg">
<path d="M42.5786 189.881V14.8926H20.5442C15.3496 14.8926 9.8995 15.4245 6.38676 18.9349C2.85273 22.4665 -4.20497e-05 25.594 -4.20497e-05 30.7639V282.619C-4.20497e-05 287.789 -0.170357 293.257 4.08751 297.512C7.60025 301.023 12.9652 302.129 20.5442 302.129H26.7607C31.7424 302.129 35.4254 301.023 39.0446 297.512C42.6638 293.98 42.5786 287.789 42.5786 282.619V189.902V189.881Z" fill="white"/>
<path d="M284.213 52.8263C280.679 49.2095 276.74 48.9329 271.567 48.9329H223.091C221.643 48.9329 219.28 47.4224 219.28 45.9757V16.467C219.28 11.4886 219.365 7.70161 215.746 4.06356C212.127 0.446779 207.571 0 202.611 0H193.286C188.325 0 180.704 0.106376 177.085 3.72316C173.466 7.36121 172.465 11.5099 172.465 16.467V45.9757C172.465 45.9757 171.592 48.9329 167.866 48.9329H113.43C112.812 48.9329 112.344 48.3372 112.024 47.933C111.726 47.5288 111.663 46.6139 111.875 45.9969C112.28 43.9332 112.493 41.8696 112.493 39.8059C112.493 36.9124 111.982 33.9339 110.96 30.849C108.895 26.0834 106.319 19.3391 100.805 16.8499C95.3124 14.3607 78.4299 14.8926 78.0041 14.8926H51.3925V55.3155H61.1643C62.612 55.3155 65.0815 56.6345 64.528 60.1449C60.8024 78.782 57.8857 90.9088 54.373 105.61C53.7556 108.503 53.415 111.418 53.415 114.312C53.415 121.971 55.5439 130.034 59.9082 138.523C66.1034 150.33 69.1478 162.649 69.1478 175.478C69.1478 183.754 67.3169 189.158 64.017 191.647C61.7391 193.306 58.5244 194.115 54.9904 194.115C52.4995 194.115 48.1352 193.945 48.05 193.945C48.05 193.945 51.2647 210.986 52.5208 216.794C53.5427 221.964 55.9484 226.325 59.674 229.836C62.9952 232.942 66.7208 234.495 70.8509 234.495C71.4683 234.495 72.0857 234.389 72.7244 234.176C73.7463 234.176 74.683 234.07 75.5133 233.857C83.582 232.41 89.99 229.921 94.7801 226.389C105.531 218.73 110.939 203.837 110.939 181.69C110.939 159.543 104.382 138.31 91.3313 120.503C90.2881 119.056 89.9262 117.609 90.352 116.162C95.5253 100.844 101.444 81.0797 108.278 56.8473C108.469 56.6345 108.49 56.5282 108.703 56.5282C108.916 56.5282 108.618 56.6345 108.618 56.8473V72.676C108.618 77.8459 110.066 84.4199 113.6 87.9303C117.113 91.4407 122.563 93.6108 127.757 93.6108H145.768C147.216 93.6108 147.918 93.1215 147.918 94.7809C147.727 108.865 147.344 119.205 146.833 128.417C146.322 137.629 145.364 147.926 144.022 159.309C142.681 170.691 140.68 180.371 138.083 188.349C135.485 196.306 132.1 204.54 128.077 213.028C124.032 221.517 118.752 229.134 112.535 235.857C106.319 242.58 98.6761 248.749 90.1816 254.324C86.4347 257.025 83.071 260.536 83.071 264.897V266.769C83.071 270.493 101.529 291.342 106.298 292.576C107.745 293.002 109.193 293.236 110.662 293.236C113.77 293.236 116.751 292.278 119.667 290.215C140.382 276.131 155.966 259.174 166.419 238.984C176.872 218.794 184.089 195.178 188.027 167.436C188.027 167.436 189.433 157.224 190.859 145.778C192.456 132.332 193.201 106.567 193.627 94.7597C193.627 93.1002 194.372 93.5895 195.819 93.5895H271.631C276.804 93.5895 280.572 92.6747 284.106 89.1643C287.64 85.6539 287.47 77.8459 287.47 72.676V66.4637C287.47 61.5065 287.811 56.4643 284.277 52.8263H284.213Z" fill="white"/>
<path d="M260.645 125.524H201.716C201.716 125.524 200.588 138.289 199.864 144.926C199.013 152.479 196.671 165.946 196.671 165.946H229.584C231.245 165.946 231.969 166.223 231.756 167.67C230.095 218.39 227.093 246.111 222.75 251.685C219.855 254.792 216.236 256.791 211.871 256.791C208.337 256.791 204.612 257.408 200.695 257.408H200.056C196.33 257.408 193.435 258.089 191.349 261.195C189.901 263.259 189.177 264.578 189.177 266.855C189.177 268.301 189.39 269.748 189.794 271.003C191.029 274.726 192.179 278.684 193.222 282.407C194.457 287.577 197.054 292.363 200.993 295.895C204.74 299.406 209.083 302.065 214.043 302.065H214.362C223.879 302.065 231.138 300.278 236.099 299.023C242.102 297.98 247.19 295.47 251.321 293.193C255.472 290.917 259.496 287.279 263.434 282.088C267.99 275.875 271.311 262.876 273.376 242.814C276.889 208.241 278.656 174.818 278.656 141.905C278.656 136.736 276.889 133.034 273.376 129.502C269.864 125.97 265.606 125.481 260.624 125.481L260.645 125.524Z" fill="white"/>
<path d="M411.736 87.0154L404.37 75.6545L411.736 64.2935C417.462 56.1238 429.278 40.6568 433.344 34.8487C438.816 27.0619 431.003 23.9771 423.743 23.9771H408.649C401.389 23.9771 394.3 24.5515 391.66 28.3172L362.11 69.4847C359.215 73.5908 359.215 78.6968 362.11 82.8029L391.66 125.694C394.321 129.481 401.389 132.48 408.649 132.48H423.743C431.003 132.48 438.816 126.821 433.344 119.013C429.278 113.205 417.462 95.1425 411.736 86.9941V87.0154Z" fill="white"/>
<path d="M592.823 87.0154L585.457 75.6545L592.823 64.2935C598.55 56.1238 610.365 40.6568 614.431 34.8487C619.903 27.0619 612.09 23.9771 604.83 23.9771H589.715C582.434 23.9771 575.366 24.5515 572.726 28.3172L543.155 69.4847C540.281 73.5908 540.281 78.6968 543.155 82.8029L572.726 125.694C575.366 129.481 582.434 132.48 589.715 132.48H604.83C612.09 132.48 619.903 126.821 614.431 119.013C610.344 113.205 598.528 95.1425 592.823 86.9941V87.0154Z" fill="white"/>
<path d="M502.279 87.0154L494.913 75.6545L502.279 64.2935C508.006 56.1238 519.8 40.6568 523.888 34.8487C529.338 27.0619 521.546 23.9771 514.265 23.9771H499.171C491.911 23.9771 484.822 24.5515 482.182 28.3172L452.611 69.4847C449.716 73.5908 449.716 78.6968 452.611 82.8029L482.182 125.694C484.843 129.481 491.911 132.48 499.171 132.48H514.265C521.546 132.48 529.338 126.821 523.888 119.013C519.8 113.205 508.006 95.1425 502.279 86.9941V87.0154Z" fill="white"/>
<path d="M367.475 224.836L375.884 231.219C379.802 233.921 384.06 236.218 388.637 236.218H390.808C396.195 236.218 400.644 232.58 404.178 228.432C413.503 217.454 421.997 202.625 429.661 185.86C430.683 183.584 431.215 181.201 431.215 178.712C431.215 176.435 430.683 174.159 429.661 171.882C427.809 167.329 424.488 164.117 419.719 162.266L412.885 159.458C410.82 158.628 408.627 158.224 406.371 158.224C403.88 158.224 401.496 158.734 399.218 159.777C394.449 161.862 390.936 165.159 388.658 169.712C382.442 181.924 374.884 192.817 365.964 202.136C363.068 205.242 361.621 209.007 361.621 213.114C361.621 218.092 363.579 222.156 367.518 224.857L367.475 224.836Z" fill="white"/>
<path d="M639.085 283.045C637.616 279.535 634.933 277.471 630.995 276.854C606.554 273.748 586.5 268.003 570.874 259.621C555.226 251.239 543.261 240.516 534.98 227.368C530.701 220.581 526.059 209.029 522.525 198.476C521.312 205.688 519.502 213.539 516.82 221.347C510.987 238.346 504.195 250.409 499.959 256.983C509.794 272.769 522.227 285.555 537.3 295.321C554.396 306.384 576.813 314.532 604.575 319.702C606.022 319.915 607.47 320.021 608.918 320.021C612.643 320.021 616.156 319.085 619.477 317.234C624.267 314.745 627.971 311.022 630.675 306.065C633.166 301.703 635.636 297.47 638.127 293.321C639.361 291.47 640 289.513 640 287.428C640 285.981 639.681 284.534 639.063 283.088L639.085 283.045Z" fill="white"/>
<path d="M564.806 228.708L571.64 230.559C574.131 231.197 576.494 231.495 578.772 231.495C581.689 231.495 584.584 230.985 587.479 229.963C592.653 228.091 596.804 224.879 599.912 220.347C607.576 208.965 615.241 196.647 622.905 183.392C624.139 181.328 624.778 179.137 624.778 176.861C624.778 175.01 624.267 173.137 623.224 171.265C621.351 167.138 618.242 164.564 613.899 163.5L598.358 160.075C596.698 159.649 595.143 159.458 593.696 159.458C590.375 159.458 587.075 160.287 583.754 161.947C579.198 164.436 575.877 168.159 573.812 173.116C568.83 185.115 563.124 196.817 556.716 208.22C555.268 210.497 554.545 212.773 554.545 215.05C554.545 216.922 554.949 218.688 555.801 220.347C557.461 224.687 560.463 227.474 564.806 228.73V228.708Z" fill="white"/>
<path d="M516.628 176.116C516.224 169.074 516.309 161.415 516.309 159.968C516.309 155.628 514.755 152.309 511.647 148.99C508.326 145.458 504.195 144.735 499.214 144.735H483.971C478.797 144.735 474.348 145.458 470.601 148.99C466.875 152.501 464.81 155.819 464.384 161.011C463.767 170.116 463.022 177.882 462.213 184.286C461.361 190.711 460.02 197.583 458.168 204.944C456.294 212.305 453.825 218.496 450.717 223.581C447.608 228.666 443.627 233.942 438.752 239.431C433.877 244.92 427.98 249.622 421.039 253.558C414.078 257.494 405.796 261.323 396.195 265.046C386.551 268.769 375.523 272.088 363.09 274.982C359.151 275.812 356.447 278.194 355.021 282.13C354.595 283.577 354.382 285.024 354.382 286.47C354.382 288.747 355.106 291.023 356.554 293.3C359.045 297.023 361.429 300.852 363.707 304.81C366.198 309.554 369.817 313.086 374.586 315.362C377.694 317.022 380.802 317.851 383.911 317.851C385.571 317.851 387.338 317.532 389.19 316.915C416.547 309.66 438.603 300.597 455.379 289.747C472.155 278.875 485.014 265.77 493.913 250.451C493.913 250.451 503.11 232.346 508.262 216.73C513.414 201.136 516.607 176.137 516.607 176.137L516.628 176.116Z" fill="white"/>
</svg>
