<svg width="624" height="505" viewBox="0 0 624 505" fill="none" xmlns="http://www.w3.org/2000/svg">
<path fill-rule="evenodd" clip-rule="evenodd" d="M23.5105 271.8C26.9105 275.2 30.9105 276.9 35.5105 276.9H43.6105C48.2105 276.9 52.1105 275.2 55.3105 271.8C57.7459 269.365 59.309 266.621 60 263.57V9.90001H35.5105C30.9105 9.90001 26.9105 11.6 23.5105 15C20.1105 18.4 18.4105 22.4 18.4105 27V259.8C18.4105 264.4 20.1105 268.4 23.5105 271.8ZM68 9.90001V45H79.0105C80.6105 45 81.2105 45.9 80.8105 47.7C77.5153 59.7346 73.2452 72.6416 68 86.4209V135.471C70.7881 139.792 72.8582 143.735 74.2105 147.3C76.4105 153.1 77.5105 159.6 77.5105 166.8C77.5105 175.4 76.5105 181.1 74.5105 183.9C73.2962 185.654 71.126 186.816 68 187.387V217.091C68.9452 218.207 70.0154 219.244 71.2105 220.2C75.2105 223.2 79.6105 224.4 84.4105 223.8C96.0105 222.2 104.511 217.7 109.911 210.3C115.511 202.7 118.311 191.3 118.311 176.1C118.311 154.5 112.211 134.4 100.011 115.8C99.0105 114.2 98.8105 112.6 99.4105 111C103.411 101.4 108.011 88.7 113.211 72.9C113.411 72.3 113.811 72 114.411 72C115.011 72 115.511 72.2 115.911 72.6C119.111 75.4 122.811 76.8 127.011 76.8H139.311C140.911 76.8 141.711 77.6 141.711 79.2C141.711 126.2 138.811 159.8 133.011 180C127.411 200 115.711 218 97.9105 234C94.5105 237 92.7105 240.8 92.5105 245.4C92.3105 249.8 93.8105 253.5 97.0105 256.5L107.211 265.8C110.811 269.2 115.011 270.9 119.811 270.9C124.611 271.1 128.811 269.6 132.411 266.4C148.211 251.6 160.211 235.6 168.411 218.4C176.695 201.437 182.451 179.999 185.677 154.087L189.33 96.5452C189.384 91.6975 189.411 85.9158 189.411 79.2C189.411 77.6 190.311 76.8 192.111 76.8H274.011C278.611 76.8 282.611 75.1 286.011 71.7C289.411 68.3 291.111 64.3 291.111 59.7V53.4C291.111 48.8 289.411 44.8 286.011 41.4C282.611 38 278.611 36.3 274.011 36.3H215.211C213.611 36.3 212.811 35.5 212.811 33.9V16.8C212.811 12.2 211.111 8.30001 207.711 5.10001C204.311 1.7 200.311 0 195.711 0H181.911C177.311 0 173.311 1.7 169.911 5.10001C166.711 8.30001 165.111 12.2 165.111 16.8V33.9C165.111 35.5 164.211 36.3 162.411 36.3H127.011C126.811 36.3 125.211 36.6 122.211 37.2C120.611 37.6 119.811 37.1 119.811 35.7V34.2V27C119.811 22.4 118.111 18.4 114.711 15C111.311 11.6 107.311 9.90001 102.711 9.90001H68ZM228.411 150.3H193.917L196.47 110.1H260.511C265.111 110.1 269.011 111.8 272.211 115.2C275.611 118.4 277.311 122.3 277.311 126.9C277.111 153.7 276.411 175.7 275.211 192.9C274.011 209.9 272.311 223.9 270.111 234.9C267.911 245.7 264.611 253.7 260.211 258.9C255.811 264.1 251.011 267.5 245.811 269.1C240.811 270.9 234.011 271.8 225.411 271.8C216.611 271.8 204.411 271.2 188.811 270C184.011 269.8 179.911 267.9 176.511 264.3C173.311 260.7 171.511 256.5 171.111 251.7L170.811 243C170.611 238.6 172.011 234.8 175.011 231.6C178.211 228.4 182.011 227 186.411 227.4C198.411 228.4 207.111 228.9 212.511 228.9C216.911 228.9 220.111 227.4 222.111 224.4C224.311 221.4 226.111 214.5 227.511 203.7C229.111 192.7 230.211 175.8 230.811 153C230.811 151.2 230.011 150.3 228.411 150.3ZM430.611 123C432.411 119.2 432.211 115.6 430.011 112.2C421.411 99 409.611 84.6 394.611 69C393.211 67.8 393.111 66.6 394.311 65.4C405.311 54.4 415.811 42.3 425.811 29.1C428.211 25.9 428.611 22.6 427.011 19.2C425.411 15.6 422.611 13.5 418.611 12.9L404.811 10.8C393.811 9.20001 384.911 13.1 378.111 22.5C369.911 33.9 360.911 44.8 351.111 55.2C347.911 58.6 346.211 62.7 346.011 67.5C345.811 72.1 347.311 76.1 350.511 79.5C361.711 91.7 371.911 105.3 381.111 120.3C383.911 124.7 387.611 128 392.211 130.2C396.811 132.4 401.511 133.1 406.311 132.3L421.911 129.6C425.911 129 428.811 126.8 430.611 123ZM601.911 120C603.711 116.2 603.51 112.6 601.31 109.2C592.31 95.2 580.611 80.8 566.211 66C564.811 64.8 564.711 63.6 565.911 62.4C576.111 52.2 586.51 40.1 597.111 26.1C599.51 22.9 599.911 19.6 598.311 16.2C596.911 12.6 594.211 10.5 590.211 9.90001L576.111 7.80001C565.311 6.2 556.51 10.1 549.711 19.5C541.11 31.1 532.111 41.9 522.711 51.9C519.311 55.3 517.511 59.4 517.311 64.2C517.311 69 518.911 73.1 522.111 76.5C533.311 88.7 543.51 102.3 552.711 117.3C555.51 121.7 559.211 125 563.81 127.2C568.41 129.4 573.111 130.1 577.911 129.3L593.211 126.6C597.211 126 600.111 123.8 601.911 120ZM345.111 251.7L349.911 262.2C352.111 266.8 355.411 270.2 359.811 272.4C364.411 274.6 369.111 275.1 373.911 273.9C395.511 268.5 415.011 260.7 432.411 250.5C450.011 240.3 464.311 228.7 475.311 215.7C475.608 215.452 475.9 215.265 476.185 215.14C487.998 201.495 493.843 189.999 496.828 177.287C498.107 171.843 498.871 166.145 499.327 159.9C499.316 159.402 499.311 158.903 499.311 158.4V128.7C499.311 127.1 500.111 126.1 501.711 125.7L507.711 124.8C511.711 124.2 514.51 122.1 516.111 118.5C517.91 114.9 517.711 111.4 515.511 108C507.511 96 495.811 82.5 480.411 67.5C479.011 66.1 478.911 64.9 480.111 63.9C491.111 52.9 501.611 40.8 511.611 27.6C514.011 24.4 514.411 21.1 512.811 17.7C511.211 14.1 508.411 12 504.411 11.4L490.311 9.3C479.511 7.7 470.711 11.6 463.911 21C455.711 32.4 446.711 43.3 436.911 53.7C433.711 57.1 432.111 61.1 432.111 65.7C432.111 70.3 433.711 74.3 436.911 77.7C448.711 90.3 459.511 104.5 469.311 120.3C469.711 120.7 469.711 121.2 469.311 121.8C469.111 122.4 468.711 122.7 468.111 122.7H467.211C462.611 122.7 458.611 124.4 455.211 127.8C451.811 131.2 450.111 135.2 450.111 139.8V158.4C450.111 176.4 443.111 191.1 429.111 202.5C415.111 213.9 390.311 223.9 354.711 232.5C350.511 233.5 347.411 236 345.411 240C343.411 244 343.311 247.9 345.111 251.7ZM503.954 181.756C500.466 194.806 494.035 206.69 482.446 220.13C505.162 245.386 536.284 263.309 575.81 273.9C580.61 275.3 585.211 274.8 589.61 272.4C594.01 270.2 597.31 266.8 599.51 262.2L604.31 251.7C606.11 247.7 606.01 243.8 604.01 240C602.01 236 598.911 233.5 594.711 232.5C558.911 223.7 534.01 213.7 520.011 202.5C512.747 196.5 507.395 189.585 503.954 181.756ZM408.411 147L398.811 144.6C394.011 143.4 389.511 144 385.311 146.4C381.111 148.6 377.911 152 375.711 156.6C371.511 165.8 366.611 174.7 361.011 183.3C358.611 186.9 358.011 190.8 359.211 195C360.411 199 363.011 201.7 367.011 203.1L376.311 206.4C380.911 208 385.611 208.1 390.411 206.7C395.411 205.1 399.211 202.2 401.811 198C407.811 188.6 413.411 178.3 418.611 167.1C420.411 162.9 420.211 158.8 418.011 154.8C416.011 150.6 412.811 148 408.411 147ZM587.51 143.7L576.711 141C571.911 139.8 567.311 140.3 562.911 142.5C558.51 144.7 555.211 148 553.01 152.4C547.61 162.8 542.11 171.9 536.51 179.7C534.11 183.1 533.411 186.8 534.411 190.8C535.611 194.8 538.111 197.5 541.911 198.9L552.11 202.5C556.91 204.3 561.711 204.6 566.51 203.4C571.31 202 575.211 199.2 578.211 195C585.611 184.6 591.911 174 597.111 163.2C599.111 159.2 599.111 155.2 597.111 151.2C595.111 147.2 591.911 144.7 587.51 143.7Z" fill="white"/>
<path fill-rule="evenodd" clip-rule="evenodd" d="M4.19443 402.233C6.4611 404.5 9.12777 405.633 12.1944 405.633H19.3944C20.5944 405.633 21.1944 406.167 21.1944 407.233V427.233C21.1944 428.433 20.5944 429.033 19.3944 429.033H16.1944C13.1278 429.033 10.4611 430.167 8.19443 432.433C5.92777 434.567 4.79443 437.167 4.79443 440.233V441.833C4.79443 444.9 5.92777 447.567 8.19443 449.833C10.4611 452.1 13.1278 453.233 16.1944 453.233H171.394C174.461 453.233 177.128 452.1 179.394 449.833C181.661 447.567 182.794 444.9 182.794 441.833V440.233C182.794 437.167 181.661 434.567 179.394 432.433C177.128 430.167 174.461 429.033 171.394 429.033H168.194C167.777 429.033 167.432 428.961 167.16 428.816C166.475 428.498 166 427.805 166 427V360C166 359.479 166.199 359.005 166.525 358.649C166.743 358.105 167.233 357.833 167.994 357.833C171.061 357.833 173.594 356.833 175.594 354.833C177.728 352.7 178.794 350.1 178.794 347.033V344.033C178.794 340.967 177.661 338.3 175.394 336.033C173.128 333.767 170.461 332.633 167.394 332.633H62.9944C62.5944 332.633 62.2611 332.5 61.9944 332.233C61.8611 331.833 61.9278 331.5 62.1944 331.233C63.5278 328.7 63.5944 326.167 62.3944 323.633C61.1944 321.1 59.1944 319.5 56.3944 318.833L48.7944 317.233C45.4611 316.567 42.1944 316.9 38.9944 318.233C35.7944 319.433 33.3278 321.5 31.5944 324.433C24.2611 335.767 16.3944 346.3 7.99443 356.033C6.12777 358.3 5.4611 360.833 5.99443 363.633C6.52777 366.3 8.0611 368.3 10.5944 369.633L19.5944 374.233C20.6611 374.633 21.1944 375.433 21.1944 376.633V377.033C21.1944 378.233 20.5944 378.833 19.3944 378.833H12.1944C9.12777 378.833 6.4611 379.967 4.19443 382.233C1.92777 384.367 0.794434 386.967 0.794434 390.033V394.233C0.794434 397.3 1.92777 399.967 4.19443 402.233ZM172 378.833V405.633H175.394C178.461 405.633 181.128 404.5 183.394 402.233C185.661 399.967 186.794 397.3 186.794 394.233V390.033C186.794 386.967 185.661 384.367 183.394 382.233C181.128 379.967 178.461 378.833 175.394 378.833H172ZM127.194 377.033V359.433C127.194 358.367 127.728 357.833 128.794 357.833H134.394C135.594 357.833 136.194 358.367 136.194 359.433V377.033C136.194 378.233 135.594 378.833 134.394 378.833H128.794C127.728 378.833 127.194 378.233 127.194 377.033ZM127.194 427.233V407.233C127.194 406.167 127.728 405.633 128.794 405.633H134.394C135.594 405.633 136.194 406.167 136.194 407.233V427.233C136.194 428.433 135.594 429.033 134.394 429.033H128.794C127.728 429.033 127.194 428.433 127.194 427.233ZM89.1944 377.033V359.433C89.1944 358.367 89.7278 357.833 90.7944 357.833H96.7944C97.8611 357.833 98.3944 358.367 98.3944 359.433V377.033C98.3944 378.233 97.8611 378.833 96.7944 378.833H90.7944C89.7278 378.833 89.1944 378.233 89.1944 377.033ZM89.1944 427.233V407.233C89.1944 406.167 89.7278 405.633 90.7944 405.633H96.7944C97.8611 405.633 98.3944 406.167 98.3944 407.233V427.233C98.3944 428.433 97.8611 429.033 96.7944 429.033H90.7944C89.7278 429.033 89.1944 428.433 89.1944 427.233ZM51.3944 377.033V359.433C51.3944 358.367 51.9944 357.833 53.1944 357.833H58.7944C59.8611 357.833 60.3944 358.367 60.3944 359.433V377.033C60.3944 378.233 59.8611 378.833 58.7944 378.833H53.1944C51.9944 378.833 51.3944 378.233 51.3944 377.033ZM51.3944 427.233V407.233C51.3944 406.167 51.9944 405.633 53.1944 405.633H58.7944C59.8611 405.633 60.3944 406.167 60.3944 407.233V427.233C60.3944 428.433 59.8611 429.033 58.7944 429.033H53.1944C51.9944 429.033 51.3944 428.433 51.3944 427.233ZM41.3944 459.433L36.5944 457.033C33.6611 455.7 30.6611 455.5 27.5944 456.433C24.5278 457.367 22.1278 459.233 20.3944 462.033C15.7278 469.767 11.3944 476.367 7.39443 481.833C5.52777 484.367 4.8611 487.1 5.39443 490.033C6.0611 493.1 7.6611 495.433 10.1944 497.033L15.1944 500.033C17.8611 501.767 20.7944 502.3 23.9944 501.633C27.1944 501.1 29.7278 499.567 31.5944 497.033C36.5278 490.367 41.3944 482.833 46.1944 474.433C47.6611 471.767 47.9278 468.967 46.9944 466.033C46.0611 463.1 44.1944 460.9 41.3944 459.433ZM82.9944 461.833C80.4611 459.833 77.5944 458.967 74.3944 459.233L67.3944 460.033C64.3278 460.3 61.8611 461.7 59.9944 464.233C58.1278 466.633 57.4611 469.367 57.9944 472.433C59.7278 482.967 60.7944 490.033 61.1944 493.633C61.5944 496.833 62.9944 499.433 65.3944 501.433C67.7944 503.433 70.5944 504.3 73.7944 504.033L80.5944 503.433C83.6611 503.167 86.1944 501.767 88.1944 499.233C90.1944 496.833 90.9944 494.1 90.5944 491.033C89.7944 483.967 88.7944 476.767 87.5944 469.433C87.0611 466.233 85.5278 463.7 82.9944 461.833ZM122.394 459.833C119.594 458.233 116.594 457.767 113.394 458.433L107.194 459.633C104.261 460.167 102.061 461.767 100.594 464.433C99.1278 467.1 98.9278 469.833 99.9944 472.633C101.728 477.567 104.061 484.7 106.994 494.033C107.928 497.1 109.728 499.5 112.394 501.233C115.194 502.967 118.128 503.5 121.194 502.833L127.394 501.633C130.328 501.1 132.594 499.433 134.194 496.633C135.928 493.967 136.328 491.167 135.394 488.233C132.461 478.9 130.128 471.767 128.394 466.833C127.328 463.767 125.328 461.433 122.394 459.833ZM181.394 482.033C176.728 474.433 172.061 467.167 167.394 460.233C165.661 457.567 163.194 455.9 159.994 455.233C156.928 454.567 153.994 454.967 151.194 456.433L146.194 459.033C143.528 460.367 141.794 462.5 140.994 465.433C140.328 468.367 140.861 471.1 142.594 473.633C147.661 481.1 152.261 488.3 156.394 495.233C157.994 497.9 160.261 499.633 163.194 500.433C166.261 501.367 169.194 501.1 171.994 499.633L176.994 497.033C179.661 495.567 181.461 493.367 182.394 490.433C183.328 487.5 182.994 484.7 181.394 482.033ZM223.394 500.433C225.661 502.7 228.328 503.833 231.394 503.833H236.794C239.861 503.833 242.528 502.7 244.794 500.433C246.519 498.709 247.588 496.753 248 494.565V325.433H231.394C228.328 325.433 225.661 326.567 223.394 328.833C221.261 331.1 220.194 333.767 220.194 336.833V492.433C220.194 495.5 221.261 498.167 223.394 500.433ZM255.994 465.633C255.259 465.045 254.594 464.41 254 463.73V443.388C255.46 442.919 256.524 442.201 257.194 441.233C258.528 439.367 259.194 435.633 259.194 430.033C259.194 423.114 257.463 416.438 254 410.004V371.99C257.008 364.518 259.473 357.333 261.394 350.433C261.661 349.367 261.194 348.833 259.994 348.833H254V325.433H275.994C280.394 325.433 283.728 327.433 285.994 331.433C286.394 332.367 287.128 332.7 288.194 332.433C289.261 332.167 290.128 332.033 290.794 332.033H322.394C323.594 332.033 324.194 331.433 324.194 330.233C324.194 327.167 325.261 324.5 327.394 322.233C329.661 319.967 332.328 318.833 335.394 318.833H344.594C347.661 318.833 350.328 320.033 352.594 322.433C354.861 324.7 355.994 327.367 355.994 330.433C355.994 331.5 356.528 332.033 357.594 332.033H390.594C393.661 332.033 396.328 333.167 398.594 335.433C400.861 337.7 401.994 340.367 401.994 343.433V344.033C401.994 347.1 400.861 349.767 398.594 352.033C396.328 354.3 393.661 355.433 390.594 355.433H389.594C388.661 355.433 387.928 355.9 387.394 356.833L384.394 362.833C383.861 363.9 384.128 364.433 385.194 364.433H392.594C395.661 364.433 398.328 365.567 400.594 367.833C402.861 370.1 403.994 372.767 403.994 375.833V376.433C403.994 379.5 402.861 382.167 400.594 384.433C398.328 386.7 395.661 387.833 392.594 387.833H289.394C286.728 387.833 284.328 387.033 282.194 385.433C280.194 383.7 278.928 381.5 278.394 378.833C278.394 378.567 278.261 378.433 277.994 378.433C277.861 378.433 277.728 378.567 277.594 378.833C275.728 383.633 273.728 388.3 271.594 392.833C271.194 393.9 271.328 394.9 271.994 395.833C276.394 401.3 279.461 407.1 281.194 413.233C283.061 419.233 283.994 426.9 283.994 436.233C283.994 448.767 281.328 457.567 275.994 462.633C275.461 463.167 275.528 463.433 276.194 463.433H276.994C277.261 463.3 277.528 463.233 277.794 463.233H322.394C323.594 463.233 324.194 462.7 324.194 461.633V459.233C324.194 458.167 323.594 457.633 322.394 457.633H316.594H297.794C294.728 457.633 292.061 456.5 289.794 454.233C287.528 451.967 286.394 449.3 286.394 446.233V403.633C286.394 400.567 287.528 397.9 289.794 395.633C292.061 393.367 294.728 392.233 297.794 392.233H383.994C387.061 392.233 389.661 393.367 391.794 395.633C394.061 397.9 395.194 400.567 395.194 403.633V446.233C395.194 449.3 394.061 451.967 391.794 454.233C389.661 456.5 387.061 457.633 383.994 457.633H357.594C356.528 457.633 355.994 458.167 355.994 459.233V461.633C355.994 462.7 356.528 463.233 357.594 463.233H392.594C395.661 463.233 398.328 464.367 400.594 466.633C402.861 468.9 403.994 471.567 403.994 474.633V476.033C403.994 479.1 402.861 481.767 400.594 484.033C398.328 486.3 395.661 487.433 392.594 487.433H357.594C356.528 487.433 355.994 488.033 355.994 489.233V493.233C355.994 496.3 354.861 498.967 352.594 501.233C350.328 503.5 347.661 504.633 344.594 504.633H335.394C332.328 504.633 329.661 503.5 327.394 501.233C325.261 498.967 324.194 496.3 324.194 493.233V489.233C324.194 488.033 323.594 487.433 322.394 487.433H277.794C274.728 487.433 272.061 486.3 269.794 484.033C267.528 481.767 266.394 479.1 266.394 476.033V474.633C266.394 471.967 267.194 469.633 268.794 467.633C268.794 467.233 268.728 466.967 268.594 466.833C266.994 467.367 265.794 467.7 264.994 467.833C261.794 468.367 258.794 467.633 255.994 465.633ZM316.594 415.233V412.433C316.594 411.367 317.194 410.833 318.394 410.833H362.594C363.794 410.833 364.394 411.367 364.394 412.433V415.233C364.394 416.433 363.794 417.033 362.594 417.033H318.394C317.194 417.033 316.594 416.433 316.594 415.233ZM362.594 439.833H318.394C317.194 439.833 316.594 439.233 316.594 438.033V435.233C316.594 434.033 317.194 433.433 318.394 433.433H362.594C363.794 433.433 364.394 434.033 364.394 435.233V438.033C364.394 439.233 363.794 439.833 362.594 439.833ZM325.994 357.033C325.461 355.967 325.728 355.433 326.794 355.433H355.194C355.594 355.433 355.861 355.633 355.994 356.033C356.261 356.3 356.328 356.567 356.194 356.833C354.461 360.3 353.394 362.367 352.994 363.033C352.328 363.967 351.461 364.433 350.394 364.433H331.394C330.328 364.433 329.528 363.967 328.994 363.033L325.994 357.033ZM290.794 355.433H292.194C293.261 355.433 294.128 355.967 294.794 357.033C295.194 357.7 295.728 358.7 296.394 360.033C297.061 361.367 297.594 362.367 297.994 363.033C298.128 363.3 298.061 363.633 297.794 364.033C297.661 364.3 297.394 364.433 296.994 364.433H289.394C286.861 364.433 284.661 365.167 282.794 366.633C282.661 366.767 282.461 366.767 282.194 366.633C282.061 366.5 282.061 366.3 282.194 366.033C282.861 364.167 283.528 362.033 284.194 359.633C284.328 359.233 284.461 358.633 284.594 357.833C284.861 356.9 285.061 356.233 285.194 355.833C285.461 354.9 286.128 354.567 287.194 354.833C288.394 355.233 289.594 355.433 290.794 355.433ZM431.394 440.633L429.394 422.833C428.594 416.033 430.061 409.033 433.794 401.833C440.728 388.633 445.661 372.5 448.594 353.433C448.861 352.367 448.394 351.833 447.194 351.833H444.794C441.728 351.833 439.061 350.7 436.794 348.433C434.661 346.167 433.594 343.5 433.594 340.433V337.033C433.594 333.967 434.661 331.367 436.794 329.233C439.061 326.967 441.728 325.833 444.794 325.833H478.594C481.661 325.833 484.328 326.967 486.594 329.233C488.861 331.367 489.994 333.967 489.994 337.033V340.433C489.994 343.5 488.861 346.167 486.594 348.433C484.328 350.7 481.661 351.833 478.594 351.833H477.594C476.394 351.833 475.728 352.3 475.594 353.233C474.261 363.1 471.994 373.633 468.794 384.833C468.528 385.9 468.928 386.433 469.994 386.433H477.594C480.661 386.433 483.328 387.567 485.594 389.833C487.861 392.1 488.994 394.767 488.994 397.833V408.033C488.994 408.3 489.061 408.433 489.194 408.433C489.461 408.433 489.661 408.367 489.794 408.233C492.461 403.567 494.861 398.767 496.994 393.833C497.394 393.033 497.194 392.3 496.394 391.633C494.394 390.167 493.394 386.767 493.394 381.433V335.433C493.394 332.367 494.461 329.7 496.594 327.433C498.861 325.167 501.528 324.033 504.594 324.033H506.794C509.861 324.033 512.461 325.167 514.594 327.433C516.861 329.567 517.994 332.167 517.994 335.233C517.994 335.288 517.996 335.341 518 335.392V362.626C517.996 362.694 517.994 362.763 517.994 362.833V366.833C517.994 366.978 517.996 367.118 518 367.253V368H518.044C518.143 369.055 518.393 369.733 518.794 370.033C519.461 370.3 521.594 370.433 525.194 370.433C529.194 370.433 531.594 369.833 532.394 368.633C533.194 367.433 533.728 363.7 533.994 357.433C533.994 356.5 533.528 356.167 532.594 356.433C529.883 357.518 527.018 358.511 524 359.412V334.566C527.631 333.157 531.296 331.646 534.994 330.033C537.794 328.7 540.594 328.633 543.394 329.833C546.328 330.9 548.394 332.833 549.594 335.633L549.994 336.633C551.194 339.567 551.194 342.5 549.994 345.433C548.928 348.367 546.928 350.5 543.994 351.833L540.994 353.033C539.794 353.567 538.861 353.967 538.194 354.233C538.061 354.367 537.994 354.567 537.994 354.833C537.994 354.967 538.128 355.033 538.394 355.033L545.194 355.833C548.394 356.233 550.994 357.633 552.994 360.033C554.994 362.433 555.928 365.233 555.794 368.433C555.528 372.967 555.194 376.633 554.794 379.433C554.394 382.1 553.594 384.5 552.394 386.633C551.328 388.633 550.194 390.167 548.994 391.233C547.928 392.167 545.994 392.967 543.194 393.633C540.528 394.167 537.928 394.5 535.394 394.633C532.861 394.767 529.128 394.833 524.194 394.833H522.394C521.194 394.833 520.394 395.367 519.994 396.433C519.861 396.7 519.661 397.167 519.394 397.833C519.128 398.5 518.928 398.967 518.794 399.233C518.528 400.3 518.928 400.833 519.994 400.833H534.994C538.061 400.833 540.728 401.967 542.994 404.233C545.261 406.367 546.394 408.967 546.394 412.033V414.633C546.394 417.3 545.394 419.633 543.394 421.633C541.394 423.5 539.061 424.433 536.394 424.433C535.461 424.433 534.994 424.9 534.994 425.833V434.033C534.994 435.1 535.461 435.633 536.394 435.633C539.061 435.633 541.394 436.633 543.394 438.633C545.394 440.5 546.394 442.767 546.394 445.433V449.433C546.394 452.5 545.261 455.167 542.994 457.433C540.728 459.7 538.061 460.833 534.994 460.833H531.594V461.033C536.661 467.567 540.928 473.3 544.394 478.233C544.928 478.767 545.328 478.633 545.594 477.833C548.128 464.367 549.994 448.433 551.194 430.033C551.461 427.233 552.661 424.967 554.794 423.233C556.928 421.367 559.394 420.567 562.194 420.833C565.128 421.233 567.528 422.567 569.394 424.833C571.261 426.967 572.128 429.5 571.994 432.433C571.328 444.433 570.594 453.567 569.794 459.833C569.723 460.336 569.767 460.877 569.927 461.457C569.182 462.695 569.423 464.325 570.561 465.289C572.867 467.242 576.553 470.236 583.353 472.696C590.091 475.134 599.745 477 614 477C614.048 477 614.096 476.999 614.143 476.997C616.378 477.385 618.329 478.463 619.994 480.233C622.261 482.5 623.328 485.167 623.194 488.233L622.994 491.633C622.861 494.833 621.661 497.5 619.394 499.633C617.128 501.9 614.394 502.967 611.194 502.833C600.261 502.567 591.328 501.367 584.394 499.233C577.461 497.1 571.661 493.633 566.994 488.833C566.861 488.7 566.661 488.567 566.394 488.433C566.261 488.433 566.061 488.5 565.794 488.633C565.528 488.767 565.394 488.967 565.394 489.233C564.861 491.9 564.461 493.833 564.194 495.033C563.661 497.967 561.994 500.033 559.194 501.233C556.394 502.567 553.661 502.567 550.994 501.233C548.194 499.9 546.128 497.7 544.794 494.633C544.394 493.7 543.794 493.633 542.994 494.433L542.194 495.233C539.928 497.233 537.328 498.033 534.394 497.633C531.461 497.233 529.194 495.767 527.594 493.233C527.194 492.7 526.328 491.367 524.994 489.233C523.661 487.1 522.594 485.5 521.794 484.433C521.261 483.367 520.594 483.367 519.794 484.433C515.794 490.033 511.128 495.1 505.794 499.633C503.394 501.633 500.661 502.3 497.594 501.633C494.528 500.967 492.128 499.3 490.394 496.633L488.194 493.233C486.861 491.367 486.328 489.167 486.594 486.633C486.594 485.833 486.328 485.7 485.794 486.233C483.661 488.633 480.928 489.833 477.594 489.833H467.394C466.194 489.833 465.594 490.367 465.594 491.433V492.033C465.594 495.1 464.461 497.767 462.194 500.033C460.061 502.3 457.461 503.433 454.394 503.433H451.794C448.728 503.433 446.061 502.3 443.794 500.033C441.661 497.767 440.594 495.1 440.594 492.033V440.433C440.594 440.167 440.461 440.033 440.194 440.033C440.061 440.033 439.928 440.1 439.794 440.233L439.194 441.433C438.928 441.833 438.728 442.167 438.594 442.433C437.661 444.033 436.261 444.633 434.394 444.233C432.528 443.7 431.528 442.5 431.394 440.633ZM585.394 467.054C580.039 465.116 577.019 462.86 574.994 461.177V416.633C574.994 415.433 574.394 414.833 573.194 414.833H561.594C558.528 414.833 555.861 413.767 553.594 411.633C551.461 409.367 550.394 406.7 550.394 403.633V400.033C550.394 396.967 551.461 394.367 553.594 392.233C555.861 389.967 558.528 388.833 561.594 388.833H569.994C571.061 388.833 571.261 388.3 570.594 387.233C569.261 385.367 567.394 382.9 564.994 379.833C562.728 376.633 561.261 374.567 560.594 373.633C558.728 371.1 557.994 368.3 558.394 365.233C558.794 362.033 560.194 359.433 562.594 357.433L569.194 352.033C569.461 351.767 569.528 351.5 569.394 351.233C569.261 350.967 569.061 350.833 568.794 350.833H567.394C564.328 350.833 561.661 349.767 559.394 347.633C557.128 345.367 555.994 342.7 555.994 339.633V337.033C555.994 333.967 557.128 331.367 559.394 329.233C561.661 326.967 564.328 325.833 567.394 325.833H610.194C613.261 325.833 615.861 326.967 617.994 329.233C620.261 331.367 621.394 333.967 621.394 337.033V339.633C621.394 347.633 619.794 354.833 616.594 361.233C611.794 370.967 607.061 379.633 602.394 387.233C602.128 387.5 602.061 387.833 602.194 388.233C602.461 388.633 602.794 388.833 603.194 388.833H610.994C614.061 388.833 616.728 389.967 618.994 392.233C621.261 394.367 622.394 396.967 622.394 400.033V405.233C622.394 411.9 621.594 418.3 619.994 424.433C619.328 426.967 617.794 428.833 615.394 430.033C613.128 431.233 610.661 431.433 607.994 430.633C605.461 429.833 603.528 428.3 602.194 426.033C600.994 423.633 600.794 421.1 601.594 418.433L602.194 416.633C602.461 415.433 602.061 414.833 600.994 414.833H599.394C598.194 414.833 597.594 415.433 597.594 416.633V433.433C597.594 434.5 598.194 435.033 599.394 435.033H607.994C611.061 435.033 613.728 436.167 615.994 438.433C618.261 440.7 619.394 443.367 619.394 446.433V448.833C619.394 451.9 618.261 454.567 615.994 456.833C613.728 459.1 611.061 460.233 607.994 460.233H601.394C600.194 460.233 599.594 460.833 599.594 462.033V470.216C593.536 469.491 588.931 468.334 585.394 467.054ZM573.394 352.233C575.661 355.167 579.194 359.833 583.994 366.233C584.128 366.5 584.394 366.633 584.794 366.633C585.194 366.633 585.528 366.5 585.794 366.233C589.261 360.367 591.794 355.833 593.394 352.633C593.928 351.433 593.661 350.833 592.594 350.833H574.194C573.928 350.833 573.661 351.033 573.394 351.433C573.261 351.7 573.261 351.967 573.394 352.233ZM490.794 428.033C490.661 428.033 490.594 427.967 490.594 427.833L490.194 427.633C489.928 427.367 489.661 427.3 489.394 427.433C489.128 427.567 488.994 427.767 488.994 428.033V478.433V479.033C488.994 479.3 489.061 479.5 489.194 479.633C489.461 479.633 489.661 479.567 489.794 479.433C490.461 478.767 491.061 478.233 491.594 477.833C497.861 473.167 502.528 468.033 505.594 462.433C506.128 461.367 505.861 460.833 504.794 460.833H503.394C500.328 460.833 497.661 459.7 495.394 457.433C493.128 455.167 491.994 452.5 491.994 449.433V447.033C491.994 443.967 493.128 441.3 495.394 439.033C497.661 436.767 500.328 435.633 503.394 435.633H509.394C510.461 435.633 510.994 435.033 510.994 433.833V426.033C510.994 424.967 510.461 424.433 509.394 424.433H508.194C507.261 424.433 506.461 424.9 505.794 425.833C504.328 428.367 502.061 429.9 498.994 430.433C496.061 430.967 493.461 430.3 491.194 428.433L490.794 428.033ZM463.394 414.233V462.833C463.394 464.033 463.994 464.633 465.194 464.633H466.194C467.261 464.633 467.794 464.033 467.794 462.833V414.233C467.794 413.033 467.261 412.433 466.194 412.433H465.194C463.994 412.433 463.394 413.033 463.394 414.233Z" fill="white"/>
</svg>
