<svg width="348" height="93" viewBox="0 0 348 93" fill="none" xmlns="http://www.w3.org/2000/svg">
<g clip-path="url(#clip0_125_21500)">
<path d="M314 83.4998H322L318 80L317.5 56L309.5 55L304 52L310 44L325.5 49.5L329.5 49L332 30.5C332.333 28.4999 332.5 24.3998 330.5 23.9998C328.5 23.5998 328 26.1665 328 27.4998L322 26.4998L320 27.9998C314.8 25.5998 314.833 29.3332 315.5 31.4998L296 38.4998V57.4998H314V83.4998Z" fill="white"/>
<path d="M169.5 81.9998L181 82.9998L176 78.5L177 57.5L161.5 53L165.5 37.5L182 35.5L184 31.5L180 21.5L179 14.9998H177C176.833 13.6665 176 11.0998 174 11.4998C172 11.8998 172.833 14.9998 173.5 16.4998C160.7 18.8998 161.5 23.8332 163.5 25.9998L150.5 58.9998L172.5 59.4998L164 76.4998L169.5 81.9998Z" fill="white"/>
<path d="M38 80.0002L49 81.5002L42 76.5L43 71L44.5 61.5L28 53.5V41H32L36 46L51.5 49.5C52.8333 50.8333 55.7 52.7 56.5 49.5C57.3 46.3 53.5 46.1667 51.5 46.5L44.5 44L39.5 40.5L35.5 27L39 25H44C45.8333 19.3333 47.5 8 39.5 8C31.5 8 30.5 14.3335 31 17.5002C25.8 17.1002 26.8333 21.0002 28 23.0002L19.5 29.5002V61.0002H38V80.0002Z" fill="white"/>
<path fill-rule="evenodd" clip-rule="evenodd" d="M314.132 20.2839C314.132 20.2839 319.144 17.3046 327.883 19.2446C336.64 21.1846 340.351 24.7529 340.351 26.7622C340.351 28.096 336.605 29.9321 332.051 28.3731C331.594 28.3731 333 22.8475 330.679 23.3325C328.376 23.8175 328.358 28.3038 328.358 28.3038C328.358 28.3038 327.303 28.1306 325.72 27.7322C317.438 25.6709 314.237 23.6963 314.237 23.6963L314.114 20.2493L314.132 20.2839Z" fill="#79CBE8"/>
<path fill-rule="evenodd" clip-rule="evenodd" d="M287.984 59.0153L295.703 55.3431L304.847 52.0866C304.847 52.0866 306.113 48.6569 310.615 47.6176C312.831 46.9594 312.743 45.2965 312.743 45.2965L319.794 49.2978L323.417 40.0481C323.417 40.0481 315.345 32.0801 314.255 32.1321C313.147 32.184 302.614 29.0142 291.94 39.7363C281.266 50.4584 287.984 59.0326 287.984 59.0326V59.0153Z" fill="#FCF163"/>
<path fill-rule="evenodd" clip-rule="evenodd" d="M287.984 59.0151C287.984 59.0151 299.255 54.3729 300.574 54.1304C301.893 53.8879 304.847 52.0864 304.847 52.0864C304.847 52.0864 318.669 53.6627 319.9 57.1444C321.131 60.6433 319.794 73.4787 319.794 73.4787L313.921 74.6392L312.268 73.9464L311.899 62.3235C311.899 62.3235 298.464 63.1376 294.033 62.0637C289.601 60.9898 288.195 60.1237 288.195 60.1237L287.984 59.0151Z" fill="#79CBE8"/>
<path fill-rule="evenodd" clip-rule="evenodd" d="M158.912 16.1787C158.912 16.1787 161.198 10.5839 169.709 8.67847C178.22 6.79041 182.986 8.47061 183.83 10.2894C184.392 11.5019 181.86 14.7237 177.2 15.2261C176.796 15.3993 175.723 9.8217 173.894 11.2248C172.066 12.6278 173.93 16.6984 173.93 16.6984C173.93 16.6984 172.945 16.9755 171.38 17.2873C163.238 18.8809 159.598 18.4306 159.598 18.4306L158.912 16.1614V16.1787Z" fill="#79CBE8"/>
<path fill-rule="evenodd" clip-rule="evenodd" d="M145.073 55.1525H153.743L162.887 51.896C162.887 51.896 161.796 47.7908 166.597 43.5123C169.252 40.4637 168.443 38.6103 168.443 38.6103L175.407 39.4244L175.688 29.4991C175.688 29.4991 171.96 27.9055 170.852 27.9402C169.745 27.9921 166.808 27.1434 166.808 27.1434L163.309 26.5371C163.309 26.5371 153.215 28.7889 148.643 37.0514C144.845 43.0966 145.056 55.1352 145.056 55.1352L145.073 55.1525Z" fill="#FCF163"/>
<path fill-rule="evenodd" clip-rule="evenodd" d="M145.056 53.8533C145.056 53.8533 152.054 54.1305 156.767 53.4376C161.462 52.7448 162.886 51.896 162.886 51.896C162.886 51.896 176.708 53.4723 177.939 56.9712C179.17 60.4529 177.833 73.2883 177.833 73.2883L170.553 73.4615L168.918 73.1843L165.014 70.5688L168.478 62.7913C168.478 62.7913 156.486 62.9472 152.072 61.8733C147.641 60.7993 145.671 56.5036 145.671 56.5036L145.073 53.8533H145.056Z" fill="#79CBE8"/>
<path fill-rule="evenodd" clip-rule="evenodd" d="M11.4299 53.0565C11.4299 53.0565 18.4462 53.3336 23.1413 52.6407C27.8364 51.9479 29.2608 51.0991 29.2608 51.0991C29.2608 51.0991 43.0823 52.6754 44.3132 56.1744C45.5441 59.656 43.5747 70.4474 43.5747 70.4474L36.8046 69.7372L36.2419 68.6113L36.1012 62.9991L35.9605 61.5614C35.9605 61.5614 23.493 61.8386 19.0793 60.7646C14.6479 59.6907 12.0454 55.7067 12.0454 55.7067L11.4475 53.0565H11.4299Z" fill="#79CBE8"/>
<path fill-rule="evenodd" clip-rule="evenodd" d="M11.4301 53.0566H20.0993L29.1554 51.8614L27.8366 44.7942L30.8259 41.0007L32.0745 42.577L41.0426 39.0261C41.0426 39.0261 36.7696 27.1954 35.6617 27.2473C34.5715 27.2993 33.1823 25.0475 33.1823 25.0475L28.1179 22.813C28.1179 22.813 18.8156 28.9102 15.0174 34.9555C11.2191 41.0007 11.4301 53.0393 11.4301 53.0393V53.0566Z" fill="#FCF163"/>
<path fill-rule="evenodd" clip-rule="evenodd" d="M27.2034 61.388C25.8318 61.0762 21.8576 61.3534 20.486 61.3014C18.8155 61.2321 17.1098 61.1282 15.4744 61.2668C14.0501 61.388 12.6609 61.3014 11.2541 61.2668C10.4452 61.2495 9.67149 61.2841 8.88018 61.3361C8.84501 58.5646 8.66916 55.7931 8.7395 53.0217C8.89776 47.1669 8.80984 41.2603 8.65158 35.3709C8.58124 33.0325 7.68442 33.9678 7.12171 33.708C6.47108 33.3789 6.2249 34.1411 6.2249 35.3882C6.2249 37.9865 6.18973 40.5847 6.18973 43.1656C6.18973 46.9244 6.43591 50.6659 6.20731 54.4767C5.96113 58.5819 6.15456 62.7738 6.15456 66.9136C6.15456 67.416 6.18973 67.9183 6.20731 68.4379C6.15456 68.7844 6.15456 69.1481 6.20731 69.5119C6.20731 69.5812 6.24248 69.6678 6.24248 69.7371C6.27765 70.4646 6.29524 71.2094 6.3304 71.9542C5.92596 73.5652 6.34799 75.1761 6.13697 76.7697C5.94354 78.3286 6.18973 79.9395 6.24248 81.5158C6.24248 82.0354 6.73485 82.1567 7.27997 82.1394C7.73718 82.1394 8.47573 82.4165 8.49332 81.7756C8.5109 81.3079 8.63399 80.8576 8.59882 80.3899C8.49331 78.7963 8.63399 77.1854 8.59882 75.5918C8.66916 75.0721 8.7395 74.5525 8.70433 73.9636C8.66916 72.9243 8.63399 71.8676 8.59882 70.8283C8.59882 70.378 8.63399 69.9449 8.63399 69.4946C8.63399 68.0915 8.9681 63.8997 8.9681 63.8997C8.9681 63.8997 18.2352 63.6745 21.2949 63.8997C21.6994 63.9343 23.7392 63.9343 23.7392 63.9343C23.7392 63.9343 23.5809 79.697 23.7744 81.4465C23.8623 82.2606 24.7591 81.9835 25.357 82.0701C25.8494 82.1567 26.1659 81.9835 26.1659 81.5331C26.1659 79.1774 26.201 65.4933 26.201 65.4933L26.2714 63.9516C26.2714 63.9516 27.5902 64.2288 27.8188 63.5706C28.0826 62.7738 28.2057 61.6305 27.1682 61.4053L27.2034 61.388Z" fill="#1E6E67"/>
<path fill-rule="evenodd" clip-rule="evenodd" d="M9.72439 48.3621C9.86507 47.548 10.2871 46.8205 10.1113 45.9024C9.97058 45.1922 10.1816 44.3608 10.4278 43.6333C10.8322 42.3515 11.2015 41.0697 11.5884 39.7879C11.8345 38.9391 12.4324 38.177 12.7138 37.3455C13.2062 35.8732 14.3316 34.7819 14.947 33.3962C15.1053 33.0497 15.4922 32.8072 15.7559 32.4954C17.0924 30.8845 18.376 29.239 19.9762 27.8359C21.0313 26.9179 22.1567 26.0864 23.2646 25.255C24.4251 24.3889 25.6912 23.748 27.0101 23.1937C25.6561 22.1198 25.5506 19.764 26.5529 18.361C27.3266 17.287 28.241 16.8193 29.4895 16.802C29.8764 16.802 29.8412 16.5768 29.8236 16.317C29.683 14.6888 30.1753 13.1298 30.6853 11.6402C30.9491 10.8953 31.8459 10.341 32.4789 9.73478C34.2901 8.01994 36.5234 7.41368 38.9501 7.55226C41.2361 7.69083 43.3814 8.36637 44.964 10.0812C45.7377 10.9127 45.9663 12.0732 46.3708 13.1125C46.8104 14.2384 46.9159 15.399 46.7928 16.6461C46.6521 18.1011 46.7225 19.5735 46.3532 21.0285C46.0191 22.3276 45.5267 23.5748 44.8937 24.7527C44.5771 25.3589 43.8562 25.8266 43.0649 25.9998C42.1505 26.1904 41.2536 26.1904 40.3392 25.9479C39.4248 25.7054 38.5456 25.6187 37.8246 26.4848C37.5257 26.8313 37.0157 26.9179 36.4355 26.9006C36.7871 27.8879 37.3674 28.6847 37.7719 29.5681C38.5984 31.3522 39.3897 33.1537 40.1634 34.9724C40.6558 36.0984 40.9195 37.3282 41.535 38.4021C41.746 38.7659 41.6933 39.2336 41.2888 39.4934C40.9899 39.6839 40.5151 39.9611 40.6558 40.2036C40.9195 40.6539 40.902 41.2775 41.4471 41.572C41.535 41.624 41.6229 41.6933 41.7284 41.7279C43.4166 42.3342 44.8761 43.4254 46.5642 43.9797C47.7951 44.3954 49.0436 44.7938 50.2218 45.3308C51.5758 45.9544 52.9299 45.7292 54.2839 45.7812C56.5699 45.8678 58.4514 48.8125 57.2908 50.51C56.8161 51.2028 56.1478 51.7052 55.2686 51.7918C54.0904 51.8957 53.0529 51.7052 52.0506 50.8564C51.101 50.0423 49.7294 49.8691 48.4633 49.6612C46.9511 49.4014 45.474 48.951 43.9969 48.57C42.889 48.2755 41.746 48.3448 40.6382 47.981C39.2314 47.5307 37.7191 47.3748 36.4003 46.6992C34.9759 45.989 33.7274 45.019 33.2175 43.4081C33.024 42.8192 32.4789 42.7152 32.0041 42.594C31.5469 42.4727 31.2128 42.2995 31.0546 41.6932C30.7204 42.4727 30.0874 42.8018 29.6654 43.3215C28.8741 44.3088 28.54 45.4001 28.9268 46.6126C29.1202 47.1842 29.0499 47.7558 29.0851 48.3274C29.1202 49.055 29.8412 49.5919 29.6478 50.3887C29.6126 50.5446 29.7357 50.6485 29.894 50.6485C30.7732 50.6485 31.5645 50.995 32.4086 51.2028C33.9912 51.5839 35.6617 51.5839 37.174 52.2768C37.7191 52.5366 38.3346 52.398 38.9325 52.5539C40.2513 52.9177 41.535 53.3161 42.6077 54.1995C43.2759 54.7538 43.8738 55.3254 44.243 56.1568C44.5596 56.867 44.9816 57.5079 45.2278 58.2874C45.6146 59.4826 45.5091 60.6778 45.5267 61.873C45.5795 64.0728 45.2805 66.2554 44.8937 68.4206C44.7882 69.0268 44.9992 69.737 44.5068 70.2393C43.3462 71.4172 43.399 72.8722 43.3638 74.3273C43.3638 74.9162 42.9769 75.4359 43.0473 76.0594C43.0649 76.25 43.0473 76.4059 43.2759 76.5098C45.1223 77.4625 46.828 78.6404 48.7271 79.5064C49.0612 79.6623 49.3602 79.9395 49.6063 80.2166C49.8877 80.5457 49.8877 80.9441 49.7119 81.3599C49.4657 81.9488 48.9206 82.0354 48.4282 82.0354C46.8983 82.0354 45.3685 82.07 43.8386 81.8795C42.8714 81.7583 41.9043 81.7756 40.9371 81.6717C39.6007 81.5331 38.317 81.1693 37.3147 80.2166C37.1388 80.0607 37.0509 79.8529 37.0685 79.645C37.1388 78.675 36.9454 77.6877 37.2971 76.735C37.4026 76.4405 37.3147 76.146 37.2971 75.8516C37.1213 74.5005 37.2092 73.1494 37.2092 71.7983C37.2092 71.244 37.2268 70.7936 36.4355 70.6724C35.8024 70.5858 35.5035 70.1527 35.4155 69.3733C35.2749 68.0915 35.5914 66.827 35.3452 65.5452C35.2045 64.7657 35.5035 63.9169 35.3804 63.0682C35.31 62.4966 35.1518 62.3407 34.6067 62.358C31.4238 62.3926 28.2234 62.4792 25.0406 62.3926C22.8953 62.3407 20.75 62.1155 18.675 61.4226C17.2506 60.9376 15.7911 60.6258 14.5778 59.6905C13.382 58.7724 12.3445 57.6292 11.5708 56.382C11.0784 55.5506 10.9026 54.442 10.5157 53.4893C10.2168 52.7271 10.0409 51.9823 9.91782 51.2028C9.91782 51.1162 9.91782 51.0123 9.93541 50.9257C9.86507 50.9257 9.81231 50.943 9.74198 50.9603C9.70681 51.0123 9.68922 51.0643 9.65405 51.1162V48.3448L9.72439 48.3621ZM33.9384 20.8899C33.8857 21.7214 33.3581 22.293 32.8306 22.7607C32.18 23.3496 31.5469 24.0944 30.4567 23.9732C29.3137 23.8346 28.2586 24.0944 27.2035 24.6314C25.8143 25.3416 24.5658 26.1904 23.3525 27.1084C22.6843 27.6107 21.9985 28.1304 21.4182 28.7886C20.6093 29.7067 19.6597 30.5208 18.8156 31.4042C18.3057 31.9238 17.7254 32.4435 17.3561 33.0324C16.3538 34.6433 15.2636 36.2196 14.4547 37.9518C13.892 39.1816 13.3996 40.4114 12.9776 41.6759C12.4324 43.3388 12.239 45.0537 12.028 46.7858C11.817 48.4314 11.8873 50.0596 11.8873 51.7052C11.8873 52.1382 12.0104 52.4846 12.4676 52.5366C13.1182 52.6232 13.804 52.7618 14.4547 52.6752C17.4089 52.2941 20.3983 52.2421 23.3701 51.8957C24.5658 51.7571 25.744 51.5146 26.9222 51.2895C27.397 51.1855 28.0652 50.8911 27.8893 50.406C27.4849 49.2975 27.5728 48.1196 27.2211 47.0283C26.5881 45.0883 27.1684 43.4947 28.6103 42.1436C29.8588 40.9831 30.3863 39.1989 29.7709 37.9518C29.0675 36.5314 28.5751 35.0244 28.452 33.4308C28.4169 32.9458 28.0828 32.201 28.8213 32.0278C29.4719 31.8719 29.7005 32.5647 29.8764 33.0671C30.7556 35.5267 31.6348 37.9691 32.4613 40.4288C32.7954 41.4334 33.1647 41.7452 33.9384 41.3815C35.609 40.602 37.4378 40.1516 39.038 39.2163C39.671 38.8525 39.8293 38.2289 39.5128 37.6053C38.7566 36.0984 38.0884 34.574 37.3147 33.0844C36.9806 32.4262 36.8575 31.716 36.5937 31.0578C36.242 30.1743 35.6617 29.3602 35.3276 28.4768C34.9056 27.3856 34.0967 26.6754 33.0768 26.225C32.7603 26.0864 32.5668 26.0171 32.5668 25.6534C32.5668 25.2204 32.8834 25.1164 33.1823 25.0298C33.8505 24.822 34.3605 25.2377 34.7825 25.6187C35.31 26.0864 35.6793 26.0171 36.2069 25.6187C37.4905 24.6661 38.8446 24.0771 40.5503 24.6661C41.9219 25.1511 42.9594 24.7873 43.4166 23.7307C43.9969 22.4142 44.6123 21.0458 44.8585 19.6428C45.1047 18.1704 45.1926 16.6461 44.8585 15.1391C44.7002 14.429 44.5947 14.429 43.9793 14.81C43.1 15.347 42.2384 15.9359 41.1481 15.9533C40.7789 15.9533 40.5503 16.0572 40.6382 16.4556C40.814 17.3217 40.2513 17.9972 39.9348 18.7074C39.4424 19.8333 38.1939 20.1105 37.5433 19.4003C36.8927 18.6901 36.3124 18.794 35.8024 19.5908C35.2397 20.4569 35.8376 21.6174 37.0333 22.0158C37.385 22.1371 37.8422 22.2757 37.7016 22.7607C37.596 23.1244 37.2092 23.315 36.8575 23.2803C35.8024 23.1764 34.9056 22.8126 34.4308 21.7907C34.2901 21.4789 34.1143 21.1844 33.9736 20.8899H33.9384ZM37.3147 65.6664C37.3147 66.6364 37.3147 67.6238 37.3147 68.5938C37.3147 69.2001 37.4554 69.5811 38.2467 69.5292C39.2666 69.4599 40.3041 69.5465 41.3416 69.5984C41.7812 69.6158 42.2208 69.841 42.6428 69.7024C43.2935 69.4772 42.7483 68.8709 42.9594 68.5072C43.7683 67.2081 43.3814 65.7357 43.5572 64.3673C43.7507 62.6871 43.8386 60.9896 43.5572 59.2574C43.1704 56.919 42.0098 55.3081 39.8996 54.2688C39.038 53.8531 38.0708 53.7838 37.174 53.4893C36.1189 53.1429 35.0111 53.0563 33.956 52.7445C32.9009 52.4327 31.7579 52.5713 30.738 52.0343C30.2984 51.8091 29.5599 51.6359 29.1554 51.8437C27.8014 52.5366 26.3419 52.6925 24.8999 52.935C21.8226 53.4547 18.7101 53.6279 15.5801 53.7318C14.736 53.7664 13.9095 53.8357 13.0655 53.8531C12.8545 53.8531 12.6259 53.8531 12.7314 54.1302C12.9951 54.8404 13.0479 55.6372 13.593 56.2088C14.3316 56.971 15.0877 57.7158 15.8614 58.4433C16.5296 59.0669 17.233 59.5865 18.1474 59.8983C18.8332 60.1235 19.5366 60.1062 20.2048 60.3833C21.2072 60.799 22.2447 60.8683 23.3173 60.9376C25.7968 61.0935 28.2762 61.0762 30.7732 61.1455C32.3558 61.1974 33.9384 61.0242 35.5386 61.1974C36.752 61.336 37.3147 61.873 37.3323 63.0682C37.3323 63.9343 37.3323 64.8004 37.3323 65.6664H37.3147ZM27.7311 20.6994C27.5728 21.5828 27.9421 22.1025 28.7334 22.5355C29.4368 22.9166 30.0698 22.8646 30.6501 22.4489C31.2128 22.0505 31.7931 21.5308 31.9514 20.8553C32.18 19.9199 32.9009 19.868 33.534 19.9719C34.0439 20.0585 34.0791 19.868 34.1846 19.5562C34.6946 17.9626 35.7497 17.2697 37.3147 17.6854C38.2818 17.9453 38.528 17.3736 38.8446 16.7847C39.0732 16.369 39.0204 15.884 38.9852 15.4163C38.9325 14.9313 39.1435 14.6541 39.6007 14.6888C40.3744 14.7581 41.0075 14.4636 41.7108 14.2211C42.8011 13.8227 43.3462 12.9913 43.7507 12.0559C43.9441 11.6228 43.7858 11.1205 43.4341 10.7741C42.2736 9.68282 40.8844 9.04192 39.3018 8.81674C38.739 8.73013 38.1412 8.67816 37.596 8.78209C34.5011 9.35371 32.7603 11.3977 31.7755 14.1865C31.3887 15.2604 31.8107 16.369 31.9865 17.4429C32.0569 17.8067 32.1448 18.1878 31.8107 18.4303C31.5293 18.6208 31.1952 18.361 30.8787 18.3263C30.7556 18.309 30.6501 18.1531 30.527 18.1358C29.894 18.0665 29.2082 17.8933 28.6982 18.4303C28.0828 19.0712 27.5728 19.7813 27.7486 20.734L27.7311 20.6994ZM55.9368 49.3667C55.9192 48.033 54.7411 46.9764 53.3695 47.0803C52.2089 47.1842 51.0835 47.063 49.958 46.6646C47.8127 45.9197 45.685 45.1403 43.61 44.2049C42.889 43.8758 42.3439 43.2695 41.5702 43.0617C40.5327 42.7672 39.7062 42.1609 39.2138 41.1909C39.0732 40.9138 38.9325 40.8445 38.6863 40.9657C37.5785 41.5547 36.33 41.8145 35.2397 42.4554C35.0287 42.5767 34.888 42.6113 34.9759 42.9231C35.5211 44.7245 36.8575 45.7465 38.5632 46.2142C40.3392 46.6992 42.1856 46.9244 43.9793 47.3055C44.6651 47.444 45.386 47.4614 46.0543 47.7385C47.4962 48.3274 49.0436 48.3967 50.5383 48.7605C51.0131 48.8817 51.5407 48.5007 51.9275 48.9337C52.5254 49.5919 53.3871 49.9037 54.0904 50.4407C54.6707 50.8911 55.9544 50.0943 55.9368 49.3667ZM47.5314 80.8575C47.5314 80.8575 47.5841 80.7363 47.6017 80.667C46.2829 79.5584 44.6123 79.0041 43.1528 78.138C42.5901 77.8089 42.1329 77.3586 41.5702 77.0468C40.6382 76.5271 41.2712 75.9035 41.4823 75.3146C41.4823 75.2973 41.4823 75.2626 41.4823 75.2453C41.4471 73.9635 41.4823 72.699 41.8339 71.4519C41.8867 71.2267 41.8339 71.0535 41.5526 70.9669C40.8316 70.759 40.0931 70.7936 39.3369 70.811C39.0907 70.811 39.0556 70.9669 39.0556 71.192C39.0556 72.4219 39.0556 73.6517 39.0556 74.8816C39.0556 76.3019 39.249 77.7223 38.8973 79.1427C38.8094 79.5064 39.0907 79.7316 39.3897 79.7836C40.181 79.9222 40.9195 80.3032 41.7108 80.4245C42.9066 80.5977 44.1199 80.6497 45.3157 80.7363C46.0367 80.7882 46.7752 80.8229 47.4962 80.8575H47.5314Z" fill="#1E6E67"/>
<path opacity="0.8" fill-rule="evenodd" clip-rule="evenodd" d="M181.473 93C180.911 92.7056 180.278 92.515 179.873 91.978C179.363 91.3198 179.223 90.7136 179.574 89.8302C180.243 88.15 181.614 87.4571 183.144 86.9028C183.759 86.6776 183.953 87.1973 184.164 87.5957C184.393 88.0633 183.988 88.1673 183.689 88.2712C182.704 88.6176 182.054 89.2585 181.579 90.1593C181.386 90.523 181.298 90.8868 181.491 91.2332C181.702 91.597 182.071 91.5104 182.441 91.4584C183.619 91.2852 184.709 90.7655 185.834 90.4018C186.96 90.0553 188.033 89.605 189.158 89.2759C190.793 88.8082 192.253 87.9594 193.835 87.3358C196.104 86.4351 198.372 85.5344 200.623 84.5817C202.1 83.9581 203.542 83.196 205.125 82.7802C205.828 82.5897 205.951 82.9708 206.197 83.4211C206.514 83.9928 206.039 84.0794 205.74 84.2179C204.756 84.651 203.736 85.0321 202.733 85.4651C201.397 86.0367 200.078 86.643 198.742 87.1973C197.616 87.6649 196.438 88.0287 195.295 88.4791C193.29 89.2412 191.321 90.09 189.299 90.8002C187.188 91.5277 185.184 92.567 182.933 92.8614C182.863 92.8614 182.81 92.9481 182.757 93H181.438H181.473Z" fill="#E06765"/>
<path opacity="0.8" fill-rule="evenodd" clip-rule="evenodd" d="M323.153 93C322.573 92.7056 321.957 92.515 321.553 91.978C321.043 91.3198 320.92 90.7136 321.271 89.8302C321.94 88.15 323.294 87.4571 324.841 86.9028C325.474 86.6776 325.65 87.1973 325.861 87.5957C326.09 88.0633 325.685 88.1673 325.386 88.2712C324.401 88.6176 323.751 89.2585 323.276 90.1593C323.083 90.523 322.995 90.8868 323.188 91.2332C323.399 91.597 323.768 91.5104 324.138 91.4584C325.333 91.2852 326.406 90.7655 327.532 90.4018C328.657 90.0553 329.73 89.605 330.855 89.2759C332.49 88.8082 333.95 87.9594 335.515 87.3358C337.783 86.4351 340.052 85.5344 342.303 84.5817C343.78 83.9581 345.222 83.196 346.804 82.7802C347.508 82.5897 347.631 82.9708 347.877 83.4211C348.193 83.9928 347.719 84.0794 347.42 84.2179C346.435 84.651 345.415 85.0321 344.413 85.4651C343.076 86.0367 341.757 86.643 340.421 87.1973C339.278 87.6649 338.117 88.0287 336.974 88.4791C334.97 89.2412 333 90.09 330.978 90.8002C328.868 91.5277 326.863 92.567 324.612 92.8614C324.56 92.8614 324.507 92.9481 324.437 93H323.118H323.153Z" fill="#E06765"/>
<path fill-rule="evenodd" clip-rule="evenodd" d="M168.988 80.061C168.76 79.1949 168.672 78.2768 168.18 77.5147C167.494 76.4754 167.881 75.5227 168.338 74.622C168.584 74.1543 169.217 74.1196 169.745 74.2582C170.114 74.3621 169.991 74.6566 169.85 74.8471C169.182 75.7305 169.393 76.51 169.92 77.3934C170.378 78.1556 170.536 79.0909 171.134 80.0263C171.327 79.2815 171.028 78.7272 171.081 78.1556C171.151 77.4107 171.028 76.6486 171.239 75.9038C171.468 75.1589 171.028 74.4834 171.063 73.7559C171.063 73.4614 170.782 73.5134 170.571 73.4614C169.446 73.2189 169.147 72.8205 169.164 71.6773C169.164 71.1923 168.971 70.7073 169.041 70.2223C169.252 68.5074 168.707 66.7926 169.024 65.0777C169.129 64.5234 168.901 63.9691 169.076 63.3975C169.182 63.0511 169.006 62.8432 168.496 62.7913C166.878 62.6007 165.296 62.8952 163.678 62.8779C162.746 62.8779 161.849 62.6873 160.899 62.722C157.435 62.8259 153.954 62.8779 150.542 62.0811C147.254 61.3189 145.196 59.4482 144.475 56.0878C144.352 55.5162 144.475 54.7194 144.229 54.4249C143.719 53.7667 143.702 53.1084 143.667 52.4156C143.614 51.2204 143.561 50.0079 144.036 48.882C144.177 48.5355 144.001 48.2584 144.036 47.9466C144.352 45.9546 144.915 44.0146 145.495 42.1092C145.935 40.6369 146.48 39.1299 147.5 37.8307C148.063 37.1032 148.485 36.2372 148.942 35.423C149.663 34.0719 150.841 33.1366 151.826 32.0626C153.655 30.0533 155.87 28.477 158.332 27.1952C159.616 26.5197 160.97 26.2426 162.412 25.8615C161.533 25.0127 161.533 23.9041 161.374 22.9341C161.093 21.2019 162.711 19.6257 164.663 19.5217C164.874 19.5217 165.102 19.4698 165.313 19.5217C165.612 19.5737 165.823 19.7989 165.858 20.0587C165.911 20.4225 165.559 20.2839 165.384 20.3185C163.502 20.6303 163.098 22.5357 163.361 23.9734C163.537 24.9261 164.223 25.5843 165.032 26.052C165.718 26.4504 167.511 25.8095 168.021 25.03C168.461 24.3545 168.408 23.3498 169.393 23.038C169.463 23.0207 169.481 22.8475 169.498 22.7436C169.92 20.9768 171.31 20.6823 172.769 21.098C173.49 21.3059 174.281 20.6996 174.123 19.9721C173.965 19.2619 173.666 18.6037 173.385 17.9282C173.209 17.4951 172.998 17.5298 172.646 17.651C171.626 17.9974 170.641 18.4132 169.534 18.5344C168.303 18.673 167.089 18.8462 165.858 18.8116C164.979 18.7942 164.1 18.8116 163.221 18.9155C161.972 19.0714 160.759 18.8116 159.581 18.4651C158.297 18.084 157.945 17.0794 158.191 15.7283C158.438 14.4638 159.264 13.5285 159.774 12.4199C159.915 12.1427 160.284 11.9522 160.565 11.7616C161.673 10.9475 162.763 10.0641 163.942 9.35393C164.715 8.88625 165.612 8.57446 166.456 8.27999C168.355 7.62177 170.36 7.36194 172.365 7.06747C174.299 6.79033 176.233 6.70372 178.168 6.82497C179.926 6.9289 181.579 7.53516 183.126 8.33195C183.83 8.67839 184.568 9.35393 184.885 10.1334C185.289 11.1207 184.779 12.0215 184.182 12.8009C183.214 14.0308 182.001 14.9142 180.418 15.2606C179.873 15.3819 180.032 15.8496 180.19 16.196C180.717 17.3219 181.122 18.5691 180.735 19.7123C180.243 21.1327 180.665 22.2412 181.333 23.3845C182.212 24.9261 183.039 26.5024 183.707 28.1479C184.498 30.088 184.903 32.0626 183.988 34.1412C183.478 35.3018 182.511 35.7002 181.491 36.0293C180.207 36.445 178.836 36.6009 177.464 36.6702C177.06 36.6875 176.761 36.9127 176.409 37.0166C175.952 37.1552 176.251 37.6056 176.233 37.9347C176.163 39.3377 175.108 39.9267 173.332 39.5802C172.154 39.3377 170.993 39.0779 169.762 39.1818C169.463 39.1992 169.428 39.1818 169.393 39.4763C169.217 40.914 168.742 42.2651 167.845 43.391C167.089 44.361 166.069 45.1232 165.173 45.9892C164.012 47.1152 162.957 48.293 162.904 50.0252C162.904 50.1118 162.904 50.1984 162.904 50.2677C162.711 51.3763 162.711 51.3763 163.836 51.4975C167.089 51.8786 170.325 52.4156 173.473 53.351C174.176 53.5588 174.862 53.9226 175.512 54.3383C176.374 54.8926 177.13 55.5681 177.658 56.3996C178.256 57.3349 178.765 58.4089 178.889 59.5001C179.029 60.73 179.258 61.9598 179.258 63.2416C179.258 64.9911 178.941 66.706 178.977 68.4381C178.977 69.3908 178.713 70.2569 178.414 71.1403C178.379 71.2442 178.326 71.3482 178.343 71.4521C178.519 72.5607 178.203 73.3748 176.989 73.6519C176.814 73.7039 176.831 73.8252 176.814 73.9637C176.761 75.0377 176.673 76.1116 176.655 77.1682C176.655 77.7918 176.866 78.3115 177.429 78.6579C178.713 79.4547 179.926 80.3727 181.21 81.1695C181.597 81.412 182.054 81.9317 181.948 82.6072C181.86 83.2308 181.456 83.3867 180.946 83.4906C180.12 83.6465 179.311 83.6812 178.449 83.5599C176.849 83.3521 175.161 83.5599 173.596 83.2655C172.365 83.0576 171.169 82.8497 169.92 82.7805C169.27 82.7458 168.654 82.0876 168.056 81.6026C167.037 80.8058 165.981 80.0436 165.049 79.1602C164.328 78.4674 163.502 77.8438 163.027 76.9257C162.676 76.2329 163.185 75.7132 163.467 75.2629C164.012 74.3794 164.469 73.4441 164.962 72.526C165.155 72.1276 165.102 71.9891 164.751 71.7639C164.17 71.4174 163.924 70.5514 164.205 69.9451C165.208 67.8665 166.087 65.7533 167.371 63.7959C167.494 63.6227 167.546 63.5014 167.775 63.5014C168.039 63.5014 168.18 63.64 168.285 63.8479C168.443 64.2116 168.426 64.61 168.25 64.9565C167.67 66.1517 167.265 67.3988 166.843 68.646C166.685 69.0963 166.28 69.4255 166.105 69.8931C165.929 70.3608 165.964 70.7246 166.351 71.0537C166.913 71.556 167.546 71.9198 168.25 72.145C168.76 72.3182 169.024 72.6646 168.883 73.1323C168.725 73.6519 168.267 73.548 167.863 73.4094C167.652 73.3401 167.423 73.3228 167.248 73.2189C166.843 72.9764 166.597 73.1496 166.474 73.496C166.21 74.2582 165.753 74.9164 165.366 75.6093C164.856 76.51 164.874 76.8045 165.665 77.4974C166.667 78.3808 167.705 79.2295 168.742 80.0783C168.813 80.0436 168.883 80.0263 168.953 79.9917L168.988 80.061ZM169.094 80.3035C169.094 80.3035 169.041 80.0783 168.918 80.1649C168.795 80.2342 168.918 80.3208 168.953 80.3901C169.024 80.494 169.094 80.6845 169.235 80.5633C169.375 80.4594 169.199 80.3554 169.094 80.2861V80.3035ZM167.67 39.1299C167.16 39.0433 166.773 38.8874 166.403 38.9393C165.999 39.0086 165.77 38.8527 165.735 38.5583C165.665 38.2118 165.964 38.0906 166.298 38.004C167.599 37.6749 168.901 37.8481 170.202 37.9C171.398 37.952 172.593 38.0732 173.771 38.3504C173.947 38.385 174.264 38.5929 174.281 38.1079C174.281 37.3804 174.422 36.5836 174.281 35.908C173.912 34.0546 174.07 32.2185 174.053 30.3651C174.053 29.7069 173.824 29.3258 173.086 29.2392C172.523 29.1872 171.978 28.9447 171.415 28.8754C169.709 28.6676 168.162 27.9054 166.456 27.5936C164.715 27.2645 163.08 26.8835 161.357 27.4031C161.075 27.4897 160.706 27.4377 160.495 27.611C159.036 28.7369 157.224 29.2912 155.835 30.5383C155.114 31.1792 154.129 31.7162 153.672 32.4264C152.916 33.6216 151.826 34.453 150.999 35.5443C150.173 36.6355 149.505 37.8134 148.819 38.974C148.115 40.1865 147.676 41.5549 147.183 42.8887C146.867 43.7721 146.55 44.6728 146.463 45.5908C146.357 46.7168 146.093 47.808 145.953 48.9166C145.759 50.3543 145.407 51.7574 145.689 53.2124C145.777 53.6627 145.953 53.8879 146.392 53.9226C148.063 54.0611 149.733 53.8013 151.421 53.9226C153.479 54.0785 155.431 53.1951 157.47 52.9699C157.752 52.9352 158.033 52.762 158.297 52.6408C158.983 52.3117 159.51 51.7054 160.354 51.6361C160.636 51.6188 160.864 51.2724 160.882 50.9779C160.935 50.1811 161.128 49.4709 161.427 48.7261C161.726 47.9986 161.937 47.2537 162.377 46.5955C163.062 45.5216 164.012 44.6208 164.997 43.8587C166.386 42.8021 167.019 41.451 167.265 39.8574C167.3 39.5802 167.406 39.3724 167.687 39.1125L167.67 39.1299ZM147.975 55.1004C147.359 55.1351 146.972 55.1524 146.586 55.2217C146.322 55.291 146.199 55.3429 146.251 55.6201C146.357 56.0531 146.427 56.5035 146.568 56.9365C147.254 58.9805 148.678 60.2276 150.753 60.8686C151.457 61.0764 152.178 60.9898 152.863 61.1803C154.71 61.7 156.591 61.5441 158.438 61.5614C160.46 61.5787 162.5 61.5268 164.522 61.4921C165.788 61.4748 167.037 61.5095 168.303 61.4055C168.936 61.3536 169.534 61.3189 170.167 61.4402C170.624 61.5441 170.835 61.752 170.835 62.2023C170.835 63.4668 170.8 64.714 170.8 65.9784C170.8 66.9311 170.747 67.8838 170.729 68.8365C170.712 69.7546 171.011 70.7246 171.028 71.6946C171.028 72.2489 171.274 72.3528 171.784 72.3528C172.98 72.3355 174.193 72.3528 175.389 72.3875C175.829 72.3875 176.339 72.5434 176.427 71.9717C176.479 71.5387 176.902 71.1576 176.796 70.8285C176.673 70.4474 176.761 70.153 176.831 69.8239C177.148 68.3342 177.148 66.8099 177.306 65.3202C177.499 63.5188 177.236 61.7173 177.007 59.9159C176.902 59.1364 176.743 58.2876 176.321 57.664C175.547 56.5381 174.756 55.4469 173.332 54.8579C172.118 54.3383 170.87 53.9399 169.604 53.6627C167.81 53.2643 165.964 53.1604 164.153 52.7967C162.957 52.5542 161.761 52.4675 160.653 53.1258C159.739 53.6627 158.737 54.0438 157.682 54.1997C156.873 54.321 156.064 54.4942 155.272 54.6847C154.27 54.9099 153.25 55.2044 152.213 55.1178C150.718 54.9965 149.241 55.3603 147.992 55.0658L147.975 55.1004ZM174.862 8.10677C173.877 7.77766 172.875 8.3666 171.802 8.40124C169.463 8.48785 167.335 9.4059 165.278 10.3586C164.311 10.809 163.344 11.4499 162.482 12.2293C161.445 13.1647 160.618 14.1694 160.091 15.4338C159.528 16.8196 160.108 17.599 161.62 17.6683C162.887 17.7376 164.135 17.3046 165.384 17.5298C167.353 17.8762 169.164 17.2526 171.011 16.8022C171.609 16.6637 172.312 16.3692 172.171 15.6071C171.995 14.6197 171.925 13.667 172.031 12.6624C172.101 11.779 172.488 11.0688 173.226 10.7916C174.088 10.4625 175.125 10.272 175.97 10.9302C176.919 11.6924 177.57 12.6624 177.482 13.9788C177.447 14.6544 177.675 14.7756 178.291 14.4638C178.431 14.3945 178.572 14.256 178.713 14.2386C180.155 14.0654 181.298 13.3899 182.335 12.4025C183.39 11.3979 183.425 10.3759 182.23 9.57911C181.491 9.07679 180.647 8.74767 179.803 8.48785C178.22 8.00284 176.603 7.91623 174.862 8.14142V8.10677ZM176.743 29.9667C176.532 30.1399 175.864 29.6896 175.864 30.3305C175.899 31.8894 175.6 33.4657 175.952 35.0246C176.04 35.3711 176.163 35.4404 176.479 35.4404C177.728 35.4923 178.941 35.2845 180.137 34.99C181.896 34.5743 182.599 33.3444 182.704 31.9587C182.828 30.2612 182.019 28.7715 181.456 27.2472C181.016 26.0693 180.26 25.0474 179.697 23.9214C179.152 22.8129 178.572 21.7216 177.957 20.6303C176.814 18.5864 175.635 16.5771 175.653 14.1174C175.653 13.4418 175.583 12.7143 175.02 12.16C174.827 11.9695 174.668 11.8136 174.404 11.8829C174.123 11.9522 173.982 12.1427 173.877 12.4372C173.736 12.8356 173.947 13.1993 173.877 13.5977C173.701 14.6197 174 15.5551 174.545 16.4385C174.967 17.114 175.46 17.8069 175.618 18.5691C175.917 20.0414 176.567 21.4098 176.849 22.8995C177.218 24.7875 177.921 26.589 178.185 28.5117C178.326 29.499 177.869 30.0533 176.743 29.9667ZM168.566 26.641C169.446 27.1779 170.518 27.2299 171.468 27.5763C172.839 28.096 174.369 27.9228 175.688 28.6503C176.181 28.9274 176.462 28.6503 176.304 28.1479C176.145 27.6283 176.075 27.0913 175.952 26.5717C175.653 25.3591 175.284 24.1466 175.055 22.8995C174.879 21.9987 174.897 21.9295 174.07 22.3452C173.842 22.4664 173.648 22.6743 173.455 22.8648C173.174 23.142 172.91 23.2805 172.734 22.7955C172.558 22.3279 172.136 22.1893 171.767 22.2759C171.327 22.3798 171.362 22.8648 171.398 23.2459C171.433 23.7482 171.644 24.164 171.978 24.545C172.171 24.7702 172.33 25.1166 172.118 25.4458C171.925 25.7575 171.626 25.567 171.38 25.5324C170.8 25.4804 170.378 25.1686 170.061 24.7702C169.569 25.3938 169.112 25.9827 168.619 26.6236L168.566 26.641ZM180.067 82.434C179.029 81.6372 178.15 80.9444 177.253 80.2688C177.113 80.1649 176.919 80.0956 176.743 79.9917C175.178 79.1776 174.264 77.8091 174.774 76.1982C174.967 75.5746 174.95 74.8645 175.002 74.2062C175.038 73.8944 175.002 73.5307 174.58 73.6C174.035 73.6866 173.402 73.3921 172.98 73.7212C172.558 74.033 172.998 74.57 172.98 75.0204C172.98 75.1243 172.963 75.2282 172.963 75.3495C172.963 77.3068 172.998 79.2642 172.998 81.2215C172.998 81.7065 173.209 81.9663 173.719 82.001C175.073 82.1049 176.427 82.3474 177.798 82.3474C178.484 82.3474 179.17 82.5206 180.049 82.4687L180.067 82.434ZM178.871 18.7596C179.275 17.8589 178.836 17.0274 178.783 16.1787C178.748 15.6417 178.361 15.7283 178.009 15.7629C177.411 15.8322 177.816 16.1613 177.869 16.3346C178.062 17.2006 178.467 17.9801 178.889 18.7596H178.871Z" fill="#1E6E67"/>
<path fill-rule="evenodd" clip-rule="evenodd" d="M326.775 32.6171C326.213 32.825 325.668 33.0328 325.14 33.4832C324.911 32.9982 324.63 32.5825 324.173 32.3227C323.856 32.1494 323.557 32.1494 323.417 32.4959C323.171 33.1541 322.924 33.8296 323.188 34.5571C323.417 35.1981 323.188 35.5445 322.625 35.25C321.816 34.817 320.99 35.0768 320.199 34.9209C319.865 34.8516 319.495 34.8343 319.495 34.4013C319.495 34.0548 319.777 33.8989 320.093 33.847C320.357 33.795 320.586 33.6045 320.867 33.6391C321.236 33.6911 321.5 33.6045 321.289 33.1541C321.043 32.6691 321.553 32.5652 321.729 32.3053C322.784 30.6944 323.874 30.3826 325.615 31.2141C326.16 31.4739 326.775 31.1101 327.338 31.4392C327.461 31.5085 327.619 31.0755 327.637 30.8503C327.76 30.0708 327.619 29.2914 327.444 28.5292C327.303 27.9056 326.67 28.0096 326.23 27.9922C325.158 27.9403 324.12 27.923 323.135 27.4033C322.432 27.0395 321.94 27.6978 321.482 28.1308C320.392 29.1701 320.41 29.1701 319.161 28.3906C318.985 28.2694 318.774 28.1828 318.581 28.0788C317.368 27.5072 316.981 27.5765 316.189 28.5812C315.715 29.1701 315.838 30.348 316.383 31.0409C316.875 31.6991 317.473 32.1668 318.212 32.4785C318.616 32.6518 318.88 32.9636 318.686 33.362C318.511 33.7257 318.124 33.6391 317.737 33.5698C316.207 33.2927 315.134 32.3919 314.378 31.1275C313.815 30.1921 314.449 27.9749 315.398 27.1608C316.629 26.1042 318.264 25.9829 319.566 26.9356C320.04 27.2821 320.216 27.0222 320.498 26.7278C318.897 25.2901 316.875 25.0129 314.871 24.6665C312.743 24.32 311.916 23.2115 312.514 21.3754C312.971 19.9896 314.132 19.1755 315.451 18.6732C317.104 18.0496 318.845 17.6512 320.586 17.426C321.605 17.3048 322.625 17.6512 323.645 17.8417C324.718 18.0496 325.703 18.5173 326.758 18.8291C327.127 18.933 327.408 18.881 327.743 18.8637C329.818 18.7252 331.84 19.0196 333.774 19.8164C335.234 20.4227 336.588 21.2022 337.748 22.2414C339.067 23.4193 340.263 24.7184 340.808 26.4506C341.16 27.5592 340.421 28.9103 339.278 29.2221C338.311 29.4992 337.396 29.9669 336.341 29.863C336.289 29.863 336.218 29.863 336.183 29.8976C335.251 30.6425 334.302 30.1574 333.37 29.8976C332.965 29.7764 332.789 29.8976 332.684 30.3133C332.578 30.7637 332.578 31.2141 332.561 31.6644C332.526 33.1541 332.227 34.6264 332.174 36.1161C332.086 38.8702 331.699 41.5724 331.418 44.3092C331.277 45.695 330.89 47.0807 330.38 48.3972C330.099 49.1073 329.448 49.7656 328.604 49.9908C327.408 50.3025 326.213 50.3545 324.964 50.0774C323.786 49.8349 322.731 49.3498 321.693 48.8129C321.166 48.5357 321.201 49.0381 321.148 49.2286C320.867 50.0774 320.533 50.1986 319.654 49.9388C317.543 49.3325 315.855 47.9814 314.044 46.8382C313.481 46.4918 313.147 46.4398 312.76 46.9941C312.198 47.8082 311.283 48.0507 310.386 48.3105C309.648 48.5357 308.839 48.6397 308.294 49.2806C308.241 49.3325 308.153 49.3672 308.083 49.3845C306.553 49.7309 306.149 50.8222 306.272 52.2599C308.329 52.0694 310.404 52.537 312.497 52.6756C314.906 52.8488 316.946 53.7669 318.933 54.9794C320.076 55.6723 320.709 56.6769 320.972 57.9067C321.359 59.6562 321.482 61.423 321.43 63.2245C321.377 65.4763 321.06 67.6762 320.744 69.8933C320.55 71.2271 320.216 72.4743 319.742 73.7041C319.601 74.0852 319.636 74.6048 319.003 74.6395C318.862 74.6395 318.897 74.7954 318.88 74.8993C318.704 76.1465 318.458 77.3936 318.387 78.6408C318.352 79.4895 319.179 79.9053 319.724 80.4249C320.533 81.1697 321.676 81.4296 322.414 82.2956C322.748 82.6767 323.171 83.0751 322.942 83.5774C322.713 84.0625 322.186 84.2703 321.57 84.2876C319.847 84.3569 318.106 84.2876 316.365 84.3569C315.345 84.3916 314.255 84.2183 313.341 83.6294C313.13 83.4908 313.13 83.3003 313.059 83.0924C312.549 81.4642 313.165 79.8879 313.2 78.2943C313.218 77.4283 313.376 76.5622 313.464 75.6961C313.517 75.1938 313.358 74.882 312.778 74.7261C311.74 74.4316 311.565 73.9813 311.688 72.89C311.793 72.1105 311.688 71.331 311.688 70.5689C311.705 69.1312 311.371 67.7281 311.529 66.2904C311.67 65.1126 311.143 64.0213 311.195 62.8607C311.195 62.5316 310.896 62.4623 310.598 62.4623C307.925 62.4797 305.252 62.4277 302.596 62.7915C301.735 62.9127 300.838 62.8434 299.976 62.8261C298.13 62.7915 296.319 63.0686 294.42 62.7395C292.943 62.4797 291.413 62.445 289.918 62.0466C288.335 61.6309 287.298 60.6782 286.665 59.2578C286.577 59.05 286.507 58.8941 286.296 58.7728C285.451 58.3571 285.24 57.5603 285.381 56.7982C285.627 55.4471 285.293 54.1133 285.346 52.7622C285.364 52.1386 285.469 51.567 285.645 50.9954C286.067 49.6616 285.891 48.2239 286.594 46.9248C287.263 45.695 287.773 44.3959 288.458 43.1487C289.25 41.711 290.234 40.4812 291.272 39.234C291.8 38.5931 292.309 37.8656 292.978 37.4152C294.402 36.4625 295.721 35.3713 297.304 34.6611C298.359 34.1761 299.308 33.5005 300.346 32.9462C302.139 31.9762 304.056 31.5085 306.008 31.1448C307.977 30.781 309.982 30.7984 311.987 31.0928C312.532 31.1794 313.007 31.4566 313.587 31.4566C314.027 31.4566 314.255 31.7684 314.22 32.1668C314.167 32.5998 313.798 32.6518 313.411 32.6518C312.532 32.6518 311.74 32.1668 310.861 32.1668C308.839 32.1494 306.87 32.2534 304.882 32.7211C303.23 33.1195 301.7 33.8123 300.31 34.6091C298.288 35.787 296.073 36.757 294.402 38.4372C292.943 39.9095 291.325 41.2953 290.358 43.1314C289.725 44.3266 289.197 45.643 288.652 46.8902C287.913 48.6223 287.966 50.4411 287.456 52.1386C286.929 53.9401 287.562 55.6723 287.351 57.4217C287.315 57.6642 287.526 57.8721 287.79 57.9414C288.564 58.1319 289.338 58.3051 290.006 57.6469C290.305 57.3525 290.744 57.3178 291.131 57.2312C292.679 56.8501 293.998 55.984 295.404 55.2565C296.864 54.5117 298.499 54.2172 300.012 53.6456C301.313 53.1779 302.878 53.1953 303.845 51.9135C304.074 51.6017 304.513 51.4111 304.496 50.9781C304.46 49.4191 305.568 48.8302 306.764 48.4145C307.45 48.1893 307.995 47.7563 308.663 47.4964C309.173 47.3059 309.63 47.0287 310.193 46.9768C311.125 46.8902 311.195 45.9202 311.811 45.4871C311.213 45.158 310.773 44.6557 310.175 44.3785C309.666 44.136 309.701 43.6164 310.228 43.4432C310.668 43.2873 311.195 43.2007 311.6 43.5298C313.024 44.7076 314.677 45.5044 316.225 46.5091C317.086 47.0634 317.948 47.635 318.862 48.1373C319.601 48.5531 319.759 48.0334 319.9 47.6004C320.375 46.3012 320.849 44.9848 321.271 43.6683C321.605 42.629 322.045 41.6244 322.344 40.5678C322.45 40.1694 322.362 39.8576 321.992 39.667C320.076 38.749 318.563 37.3633 317.069 35.9082C316.717 35.5618 316.189 35.3886 315.75 35.1634C315.486 35.0248 315.24 34.8863 315.275 34.5745C315.31 34.1587 315.679 34.1587 315.961 34.1414C317.157 34.1241 318.159 34.7477 318.915 35.5272C320.199 36.8436 321.676 37.8656 323.241 38.801C323.628 39.0261 323.979 39.2167 324.208 39.6324C324.454 40.0828 324.806 40.1347 325.052 39.5804C325.105 39.4592 325.193 39.3379 325.193 39.1994C325.369 36.9475 326.547 34.9729 326.934 32.7903C326.934 32.7211 326.934 32.6691 326.969 32.5998C326.898 32.5998 326.828 32.6344 326.758 32.6344L326.775 32.6171ZM313.587 70.4303C313.587 71.1751 313.587 72.0066 313.587 72.838C313.587 73.2884 313.587 73.6348 314.308 73.5482C315.328 73.427 316.365 73.4616 317.385 73.4096C318.229 73.375 318.458 73.1152 318.616 72.4223C318.95 71.0539 318.845 69.6162 319.214 68.2305C319.706 66.3597 319.407 64.4024 319.583 62.4797C319.689 61.3711 319.478 60.2971 319.372 59.2059C319.302 58.4957 319.214 57.7162 318.792 57.1446C317.508 55.3258 315.504 54.4771 313.464 54.0787C311.301 53.6456 309.068 53.2299 306.817 53.4724C305.639 53.611 304.373 53.0913 303.317 53.9747C302.931 54.2865 302.456 54.4597 301.963 54.5117C301.014 54.6156 300.17 55.118 299.238 55.2739C298.376 55.3951 297.62 55.8281 296.846 56.1573C296.301 56.3998 295.633 56.521 295.193 56.9714C294.595 57.5603 293.839 57.9241 293.101 58.1146C291.817 58.4437 290.639 59.1019 289.285 59.2578C288.863 59.3098 288.705 59.6043 289.039 59.9161C289.338 60.2105 289.689 60.557 290.076 60.6609C292.556 61.3538 295.07 61.7522 297.638 61.6482C301.137 61.4923 304.619 61.3018 308.118 61.1459C309.191 61.0939 310.246 61.2152 311.301 61.2498C312.444 61.3018 313.358 62.0639 313.288 63.1899C313.253 64.0559 313.235 64.9567 313.341 65.7881C313.534 67.2951 313.657 68.7848 313.587 70.3957V70.4303ZM335.11 28.7717C336.359 28.7371 337.555 28.4772 338.645 27.8537C338.979 27.6631 339.208 27.4206 339.085 27.0915C338.698 26.0695 338.364 25.0302 337.572 24.1815C336.113 22.6225 334.372 21.462 332.385 20.7171C331.418 20.3534 330.38 20.0243 329.272 20.1455C327.567 20.3534 325.984 20.0416 324.384 19.4007C323.276 18.9503 322.028 18.5346 320.814 18.7425C318.968 19.0716 317.104 19.3834 315.486 20.4573C314.695 20.977 314.22 21.7911 314.466 22.7784C314.66 23.6099 315.451 23.5059 316.066 23.5752C317.438 23.7311 318.81 24.0256 320.005 24.6838C321.078 25.2727 322.045 26.0176 323.346 26.0695C323.505 26.0695 323.663 26.1735 323.821 26.2254C324.806 26.6065 325.826 26.8144 326.898 26.797C327.285 26.797 327.32 26.6585 327.373 26.3467C327.514 25.394 327.672 24.4413 328.376 23.6791C329.009 23.0036 330.415 22.6052 331.259 23.0209C333.123 23.939 333.334 24.8743 333.247 27.2474C333.194 28.5465 333.106 28.5639 334.442 28.7544C334.653 28.789 334.882 28.7717 335.093 28.789L335.11 28.7717ZM331.383 26.6931C331.172 26.1735 331.488 25.6365 331.259 25.0995C330.802 24.0429 330.468 23.9217 329.8 24.857C328.956 26.0522 328.973 27.4553 329.431 28.7717C329.712 29.6205 329.782 30.4173 329.343 31.1621C328.569 32.4612 328.639 33.9855 328.094 35.3713C327.496 36.8783 327.32 38.5585 326.898 40.1347C326.564 41.3992 326.318 41.5205 325.158 41.4512C324.12 41.3819 323.856 41.6417 323.54 42.681C323.188 43.8416 322.959 45.0541 322.344 46.1453C321.781 47.1673 321.904 47.3925 322.995 47.8602C323.716 48.172 324.454 48.4318 325.193 48.6916C326.476 49.142 327.848 49.0034 328.27 48.2586C328.833 47.2539 329.413 46.2319 329.413 45.0194C329.413 44.0321 329.659 43.0448 329.765 42.0574C329.958 40.2733 330.398 38.5238 330.345 36.7224C330.31 35.1807 330.767 33.6911 330.662 32.1494C330.626 31.6471 330.451 31.0409 330.626 30.6771C331.242 29.3953 331.189 28.0096 331.383 26.6585V26.6931ZM320.621 82.8673C319.583 82.261 318.827 81.3603 317.842 80.754C317.016 80.2344 316.365 79.4202 316.541 78.329C316.682 77.3936 316.752 76.4756 316.875 75.5575C316.963 74.8473 316.682 74.8647 316.225 74.8127C315.715 74.7607 315.257 74.7954 315.31 75.4882C315.345 75.8866 315.486 76.3197 315.398 76.6834C314.958 78.4676 315.257 80.3037 314.958 82.0878C314.853 82.694 315.169 82.9019 315.697 82.9712C317.35 83.2137 318.968 82.8846 320.621 82.8673Z" fill="#1E6E67"/>
<path opacity="0.8" fill-rule="evenodd" clip-rule="evenodd" d="M51.6989 79.7837C51.734 78.4673 51.6285 77.0296 51.734 75.6092C51.8923 73.7211 51.6461 71.8331 51.8395 69.945C51.9802 68.6112 51.8395 67.2255 51.6285 65.909C51.523 65.2508 51.9099 64.8005 51.8747 64.1942C51.7868 62.6179 51.5934 61.0417 51.7516 59.4654C51.8747 58.2529 51.8044 57.0577 51.6989 55.8452C51.6637 55.4814 51.7164 55.083 51.8571 54.7539C52.1385 54.113 51.7164 53.5067 51.945 52.8485C52.1912 52.1383 52.7715 52.2942 53.2111 52.2423C53.6332 52.2076 53.8969 52.6233 53.7914 53.0391C53.4749 54.3555 53.6332 55.7066 53.6859 57.0057C53.7387 58.2529 53.387 59.4654 53.6859 60.7645C53.8442 61.4574 53.9673 62.4447 53.5804 63.3108C53.3166 63.8824 53.6859 64.5406 53.7211 65.1642C53.7563 65.7358 53.7211 66.2728 53.6508 66.8444C53.5452 67.6239 53.6156 68.4553 53.6156 69.2521C53.6156 72.2834 53.6332 75.332 53.5804 78.3633C53.5804 79.1082 53.4573 79.8357 53.6683 80.5978C53.809 81.1175 53.5101 81.5852 52.965 81.5159C52.4726 81.4639 51.6285 81.6891 51.6637 80.7017C51.6637 80.4246 51.6637 80.1648 51.6637 79.7664L51.6989 79.7837Z" fill="#E06765"/>
<path opacity="0.8" fill-rule="evenodd" clip-rule="evenodd" d="M60.7022 52.9181C60.7022 53.7842 59.7526 54.3558 59.0141 53.8881C58.5217 53.5763 58.6976 52.9874 58.7327 52.5717C58.7679 52.0693 58.6624 51.6883 58.3634 51.3245C58.1173 51.0474 57.6952 50.7009 58.0645 50.4065C58.4338 50.0947 59.0317 50.0254 59.4889 50.4065C60.2978 51.0647 60.667 51.9308 60.6846 52.9528L60.7022 52.9181Z" fill="#E06765"/>
<path fill-rule="evenodd" clip-rule="evenodd" d="M0 55.7412C0 55.7412 0.123092 55.7239 0.193431 55.7065C0.193431 55.7932 0.193431 55.8971 0.175846 55.9837C0.123092 55.9144 0.0527539 55.8278 0 55.7412Z" fill="white"/>
<path fill-rule="evenodd" clip-rule="evenodd" d="M169.094 80.2861C169.199 80.3554 169.375 80.442 169.235 80.5633C169.094 80.6845 169.024 80.494 168.953 80.3901C169.006 80.3554 169.041 80.3208 169.094 80.2861Z" fill="white"/>
<path fill-rule="evenodd" clip-rule="evenodd" d="M168.953 80.3899C168.953 80.3899 168.795 80.234 168.918 80.1647C169.059 80.0781 169.059 80.234 169.094 80.3033C169.041 80.3379 169.006 80.3725 168.953 80.4072V80.3899Z" fill="white"/>
<path fill-rule="evenodd" clip-rule="evenodd" d="M326.775 30.9365C326.775 30.9365 326.916 30.9019 326.986 30.9019C326.986 30.9711 326.969 31.0404 326.951 31.0924C326.898 31.0404 326.828 30.9885 326.775 30.9365Z" fill="white"/>
<path fill-rule="evenodd" clip-rule="evenodd" d="M43.5747 17.8937C43.434 18.3094 43.6802 19.0022 42.9944 19.0542C42.4141 19.1062 42.379 18.4653 42.3965 18.0842C42.3965 17.6512 42.4141 17.0103 43.0823 17.0103C43.5747 17.0103 43.522 17.5299 43.5747 17.911V17.8937Z" fill="#1E6E67"/>
<path fill-rule="evenodd" clip-rule="evenodd" d="M41.5701 22.8301C41.1305 22.7954 40.937 22.7261 41.0601 22.3277C41.2887 21.6695 41.7635 21.2884 42.3614 20.994C42.5548 20.89 42.7482 20.9247 42.8713 21.0806C42.9944 21.2365 42.9065 21.3924 42.8186 21.531C42.4317 22.0333 42.0449 22.5356 41.5701 22.8474V22.8301Z" fill="#1E6E67"/>
<path fill-rule="evenodd" clip-rule="evenodd" d="M160.917 61.9598C159.545 61.648 155.571 61.9252 154.2 61.8732C152.529 61.8039 150.823 61.7 149.188 61.8386C147.764 61.9598 146.375 61.8732 144.968 61.8386C144.159 61.8212 143.385 61.8559 142.594 61.9078C142.559 59.1364 142.383 56.3649 142.453 53.5934C142.611 47.7387 142.523 41.832 142.365 35.9427C142.295 33.6042 141.398 34.5396 140.835 34.2798C140.185 33.9507 139.939 34.7128 139.939 35.96C139.939 38.5582 139.903 41.1565 139.903 43.7374C139.903 47.4962 140.15 51.2377 139.921 55.0485C139.675 59.1537 139.868 63.3455 139.868 67.4854C139.868 67.9877 139.903 68.4901 139.921 69.0097C139.868 69.3562 139.868 69.7199 139.921 70.0837C139.921 70.1529 139.956 70.2396 139.956 70.3088C139.991 71.0364 140.009 71.7812 140.044 72.526C139.64 74.1369 140.062 75.7478 139.851 77.3414C139.657 78.9004 139.903 80.5113 139.956 82.0876C139.956 82.6072 140.448 82.7285 140.994 82.7112C141.451 82.7112 142.189 82.9883 142.207 82.3474C142.225 81.8797 142.348 81.4294 142.312 80.9617C142.207 79.3681 142.348 77.7572 142.312 76.1636C142.383 75.6439 142.453 75.1243 142.418 74.5353C142.383 73.496 142.348 72.4394 142.312 71.4001C142.312 70.9497 142.348 70.5167 142.348 70.0663C142.348 68.6633 142.682 64.4714 142.682 64.4714C142.682 64.4714 151.949 64.2463 155.009 64.4714C155.413 64.5061 157.453 64.5061 157.453 64.5061C157.453 64.5061 157.295 80.2688 157.488 82.0183C157.576 82.8324 158.473 82.5553 159.071 82.6419C159.563 82.7112 159.879 82.5553 159.879 82.1049C159.879 79.7491 159.915 66.065 159.915 66.065L159.985 64.5234C159.985 64.5234 161.304 64.8006 161.532 64.1423C161.796 63.3455 161.919 62.2023 160.882 61.9771L160.917 61.9598Z" fill="#1E6E67"/>
<path fill-rule="evenodd" clip-rule="evenodd" d="M302.544 62.514C301.172 62.2022 297.198 62.4794 295.826 62.4274C294.156 62.3581 292.45 62.2542 290.815 62.3928C289.39 62.514 288.001 62.4274 286.594 62.3928C285.786 62.3754 285.012 62.4101 284.221 62.462C284.185 59.6906 284.009 56.9191 284.08 54.1476C284.238 48.2929 284.15 42.3862 283.992 36.4969C283.922 34.1584 283.025 35.0938 282.462 34.834C281.811 34.5049 281.565 35.267 281.565 36.5142C281.565 39.1124 281.53 41.7107 281.53 44.2916C281.53 48.0504 281.776 51.7919 281.548 55.6027C281.301 59.7079 281.495 63.8997 281.495 68.0396C281.495 68.5419 281.53 69.0443 281.548 69.5639C281.495 69.9104 281.495 70.2741 281.548 70.6379C281.548 70.7071 281.583 70.7938 281.583 70.863C281.618 71.5906 281.636 72.3354 281.671 73.0802C281.266 74.6911 281.688 76.302 281.477 77.8956C281.284 79.4546 281.53 81.0655 281.583 82.6418C281.583 83.1614 282.075 83.2827 282.62 83.2654C283.077 83.2654 283.816 83.5425 283.834 82.9016C283.851 82.4339 283.974 81.9836 283.939 81.5159C283.834 79.9223 283.974 78.3114 283.939 76.7178C284.009 76.1981 284.08 75.6785 284.045 75.0895C284.009 74.0502 283.974 72.9936 283.939 71.9543C283.939 71.5039 283.974 71.0709 283.974 70.6205C283.974 69.2175 284.308 65.0256 284.308 65.0256C284.308 65.0256 293.576 64.8005 296.635 65.0256C297.04 65.0603 299.08 65.0603 299.08 65.0603C299.08 65.0603 298.921 80.823 299.115 82.5725C299.203 83.3866 300.099 83.1095 300.697 83.1961C301.19 83.2654 301.506 83.1095 301.506 82.6591C301.506 80.3033 301.541 66.6192 301.541 66.6192L301.612 65.0776C301.612 65.0776 302.931 65.3548 303.159 64.6965C303.423 63.8997 303.546 62.7565 302.509 62.5313L302.544 62.514Z" fill="#1E6E67"/>
<path fill-rule="evenodd" clip-rule="evenodd" d="M60.966 20.561C60.6846 20.8382 60.4736 21.1846 60.2274 21.4791C59.6295 22.2066 59.2075 23.0727 58.3634 23.6096C58.17 23.7309 58.0645 23.9214 57.8183 24.008C57.3435 24.1813 57.0094 24.008 56.6577 23.7482C55.884 23.1766 55.3565 22.3971 54.7938 21.635C54.4596 21.1846 54.1783 20.6996 54.0376 20.1453C54.0024 19.9548 53.9849 19.8162 54.2486 19.7642C54.7586 19.6776 54.9168 19.7642 55.251 20.128C55.5851 20.4917 55.9016 20.8901 56.2357 21.2366C56.3588 21.3751 56.4291 21.3059 56.4995 21.2019C56.5522 21.1153 56.5522 20.9941 56.5522 20.8901C56.5522 20.5957 56.5698 20.2839 56.5522 19.9894C56.4995 19.4871 56.6401 19.0367 56.8512 18.6037C56.9918 18.3092 57.3435 18.1187 57.7304 18.188C58.0117 18.2399 58.1348 18.4651 58.17 18.7249C58.2755 19.3832 58.2755 20.0587 58.2931 20.7342C58.2931 20.8555 58.1876 20.9767 58.2052 21.1153C58.2052 21.2019 58.2403 21.3059 58.3283 21.3405C58.4338 21.3751 58.4162 21.2539 58.4689 21.2192C58.891 20.8555 59.1899 20.3878 59.5944 19.9894C59.9109 19.6776 60.2274 19.7469 60.5615 19.7123C60.7198 19.7123 60.8253 19.8335 60.878 19.9894C60.8956 20.0414 60.8605 20.1453 60.9484 20.1626V20.5264L60.966 20.561Z" fill="#1E6E67"/>
<path fill-rule="evenodd" clip-rule="evenodd" d="M58.2579 2.09616C58.2579 2.30402 58.2579 2.49456 58.2227 2.70242C58.17 3.17011 57.8535 3.42993 57.3611 3.41261C57.0094 3.41261 56.6929 3.0835 56.6753 2.66778C56.6577 2.25206 56.605 1.85366 56.6753 1.43794C56.6753 1.33401 56.6753 1.23008 56.6577 1.12615C56.5698 0.762395 56.816 0.485248 56.9039 0.173458C56.9567 -0.0170799 57.3259 -0.0517232 57.5545 0.0522068C57.8886 0.208102 58.0821 0.467927 58.1348 0.81436C58.2052 1.2474 58.2755 1.66312 58.2579 2.09616Z" fill="#1E6E67"/>
<path fill-rule="evenodd" clip-rule="evenodd" d="M56.5698 15.5204C56.5698 15.2606 56.5698 15.0181 56.5698 14.7582C56.5698 14.3252 56.7984 14.1173 57.2205 14.1347C57.3787 14.1347 57.537 14.1347 57.6953 14.1347C57.9239 14.1347 58.1349 14.3079 58.17 14.5157C58.3107 15.174 58.2931 15.8668 58.2755 16.5251C58.2755 16.7849 57.9414 17.0793 57.6601 17.0793C57.5018 17.0793 57.3611 17.0793 57.2029 17.062C56.8336 17.0274 56.5874 16.7849 56.5522 16.3865C56.5347 16.092 56.5522 15.8149 56.5522 15.5204H56.5698Z" fill="#1E6E67"/>
<path fill-rule="evenodd" clip-rule="evenodd" d="M56.5698 11.1034C56.5698 10.7223 56.5522 10.3412 56.6929 9.99478C56.8687 9.50978 57.3963 9.28459 57.8711 9.49245C58.0469 9.56174 58.1348 9.71764 58.17 9.90817C58.2052 10.0814 58.2228 10.2719 58.2403 10.4451C58.2579 10.9302 58.2931 11.3978 58.2931 11.8828C58.2931 12.2466 58.0997 12.4371 57.7304 12.4371C57.5897 12.4371 57.449 12.4371 57.3084 12.4371C56.8863 12.4891 56.6753 12.3332 56.5874 11.7616C56.5522 11.5537 56.5874 11.3286 56.5874 11.1034H56.5698Z" fill="#1E6E67"/>
<path fill-rule="evenodd" clip-rule="evenodd" d="M58.2932 6.28802C58.3459 6.6691 58.2932 7.0675 58.2932 7.46589C58.2932 7.81233 58.0646 7.96822 57.7304 7.96822C57.5898 7.96822 57.4491 7.96822 57.3084 7.93358C56.9919 7.89894 56.7809 7.72572 56.7281 7.41393C56.6929 7.18875 56.6402 6.98089 56.6929 6.73838C56.7281 6.58249 56.6929 6.42659 56.6578 6.2707C56.605 5.8723 56.6754 5.4739 56.8864 5.12747C57.0271 4.88497 57.2557 4.78104 57.5546 4.79836C57.8359 4.81568 57.9942 4.97158 58.1173 5.21408C58.2756 5.54319 58.258 5.88962 58.2932 6.2707V6.28802Z" fill="#1E6E67"/>
</g>
<defs>
<clipPath id="clip0_125_21500">
<rect width="348" height="93" fill="white"/>
</clipPath>
</defs>
</svg>
