<svg width="220" height="318" viewBox="0 0 220 318" fill="none" xmlns="http://www.w3.org/2000/svg">
<g clip-path="url(#clip0_125_21799)">
<path fill-rule="evenodd" clip-rule="evenodd" d="M133.507 262.013L157.566 271.457C157.566 271.457 166.241 274.749 172.095 264.195C177.949 253.642 186.945 214.862 186.945 214.862C186.945 214.862 185.517 201.482 177.307 194.578C169.061 187.637 159.03 187.816 159.03 187.816C159.03 187.816 158.459 182.522 153.532 179.481C148.606 176.44 135.184 176.19 123.904 183.917C112.624 191.644 109.126 199.729 109.126 199.729L109.197 207.635L73.3572 221.802L40.873 227.884C40.873 227.884 51.1538 254.751 73.7856 257.648C96.4174 260.546 109.947 256.003 121.12 247.739C132.293 239.475 138.718 238.652 138.718 238.652L133.507 261.977V262.013Z" fill="#69ACA3"/>
<path opacity="0.8" fill-rule="evenodd" clip-rule="evenodd" d="M44.7283 176.225C44.7283 176.225 78.9616 166.316 96.5245 162.953C114.123 159.555 130.258 157.05 130.258 157.05C130.258 157.05 137.148 156.979 122.869 174.294C108.626 191.609 110.411 187.852 108.519 194.614C106.627 201.375 109.018 209.889 109.018 209.889L69.8946 223.019L40.873 227.955L44.7283 176.225Z" fill="#E06765"/>
<path fill-rule="evenodd" clip-rule="evenodd" d="M220 78.7756C219.5 79.0975 219.215 79.4553 219.286 80.135C219.358 81.244 219.286 82.3172 218.358 83.1758C218.037 83.462 218.037 84.0702 217.787 84.4637C217.608 84.7499 217.216 84.893 217.002 85.1792C216.68 85.6085 216.466 86.1093 216.109 86.5029C215.11 87.5761 213.753 87.8623 212.397 88.1485C211.79 88.2916 211.147 88.5062 210.576 88.7209C209.898 88.9713 209.255 89.2933 208.577 89.5079C205.864 90.3665 203.044 90.9747 200.474 92.2268C199.76 92.5845 198.939 92.6561 198.154 92.9065C196.583 93.4431 195.084 94.2659 193.477 94.5164C190.764 94.9814 188.408 96.4482 185.802 97.1637C184.767 97.4499 183.768 97.8434 182.554 98.2727C183.197 99.8825 183.946 101.6 184.517 103.388C185.16 105.428 185.624 107.538 186.195 109.613C186.552 110.901 186.98 112.153 187.266 113.477C187.409 114.085 187.302 114.765 187.373 115.409C187.444 116.053 187.552 116.661 187.623 117.305C187.694 117.877 187.98 118.521 187.337 119.058C187.195 119.165 187.159 119.523 187.266 119.702C187.623 120.596 187.444 121.347 186.98 122.134C186.766 122.492 186.766 122.957 186.623 123.351C186.552 123.565 186.481 123.78 186.338 123.923C186.052 124.245 185.624 124.46 185.945 125.032C185.981 125.139 185.838 125.426 185.731 125.497C184.803 126.177 184.232 127.035 183.839 128.073C183.696 128.466 183.089 128.681 182.768 129.003C182.09 129.754 181.376 130.47 180.376 130.792C180.198 130.863 180.091 131.15 179.948 131.293C179.698 131.507 179.448 131.722 179.127 131.901C178.627 132.151 178.02 132.294 177.628 132.652C176.628 133.511 175.593 134.155 174.308 134.477C173.915 134.584 173.63 135.049 173.273 135.299C172.987 135.442 172.63 135.478 172.309 135.586C172.131 135.657 171.845 135.657 171.774 135.764C171.345 136.551 170.56 136.516 169.846 136.766C169.382 136.909 168.989 137.267 168.561 137.482C167.775 137.839 166.954 138.197 166.133 138.412C164.848 138.698 163.492 138.877 162.171 139.056C161.743 139.091 161.314 138.984 160.886 138.948C160.993 140.415 161.243 141.953 160.315 143.241C159.672 144.136 158.851 145.066 157.887 145.459C157.209 145.71 156.317 145.817 155.531 145.996C154.603 146.246 153.747 146.604 152.818 146.926C152.64 146.998 152.426 147.069 152.247 147.069C149.32 147.498 146.429 147.785 143.502 147.606C141.039 147.463 138.718 148.107 136.327 148.214C135.72 148.214 135.113 148.286 134.363 148.286C134.363 150.289 134.256 152.292 134.292 154.26C134.292 154.868 134.899 154.796 135.398 154.725C137.469 154.475 139.539 154.188 141.645 153.974C143.252 153.795 144.894 153.687 146.5 153.473C147.892 153.294 149.249 153.079 150.641 152.829C153.033 152.4 155.424 151.935 157.852 151.577C159.208 151.362 160.6 151.434 161.957 151.291C163.171 151.147 164.384 150.826 165.598 150.611C166.526 150.432 167.454 150.432 168.347 150.253C171.381 149.645 174.379 148.929 177.414 148.321C178.663 148.071 179.948 147.999 181.198 147.82C182.732 147.642 184.267 147.391 185.767 147.284C188.194 147.105 190.622 147.069 193.013 146.89C194.048 146.819 195.048 146.461 196.083 146.318C197.118 146.175 198.189 146.103 199.224 145.996C200.224 145.889 201.223 145.781 202.187 145.674C204.079 145.495 205.971 145.352 207.863 145.137C208.934 145.03 209.969 144.815 211.004 144.708C212.861 144.529 214.717 144.422 216.716 144.243C216.93 144.815 217.251 145.388 217.358 145.996C217.644 147.355 217.144 148.107 215.681 148.321C214.324 148.5 212.968 148.572 211.611 148.715C209.505 148.965 207.435 149.287 205.329 149.466C203.33 149.645 201.331 149.681 199.367 149.895C197.654 150.038 195.976 150.36 194.263 150.504C192.585 150.647 190.907 150.647 189.229 150.79C187.552 150.969 185.874 151.255 184.232 151.469C182.947 151.648 181.662 151.791 180.376 152.006C179.484 152.149 178.592 152.4 177.699 152.578C176.914 152.722 176.129 152.686 175.379 152.865C174.379 153.115 173.451 153.509 172.487 153.759C171.881 153.902 171.202 153.866 170.596 153.902C170.417 153.902 170.167 153.795 170.096 153.866C168.918 154.868 167.49 154.331 166.205 154.582C163.242 155.118 160.243 155.476 157.281 155.906C154.246 156.335 151.176 156.836 148.107 157.193C144.822 157.587 141.503 157.837 138.218 158.302C135.077 158.696 131.971 159.304 128.866 159.733C127.902 159.876 126.867 159.769 125.903 159.948C123.226 160.413 120.548 160.985 117.871 161.451C115.658 161.808 113.373 162.023 111.16 162.381C108.983 162.738 106.841 163.204 104.663 163.561C103.485 163.776 102.272 163.847 101.094 163.991C100.951 163.991 100.772 163.991 100.665 164.062C99.3088 164.778 97.8453 164.885 96.3817 165.1C94.2042 165.422 92.0624 165.851 89.9205 166.316C87.4218 166.888 84.9944 167.568 82.4956 168.14C81.6032 168.355 80.6037 168.248 79.7112 168.427C78.7831 168.605 77.9264 169.106 76.9983 169.285C75.8203 169.536 74.6066 169.643 73.4286 169.75C72.6076 169.822 71.7508 169.679 71.144 170.466C71.0726 170.573 70.8584 170.645 70.6799 170.68C68.2882 171.36 65.8965 172.004 63.5405 172.72C62.077 173.185 60.6491 174.043 59.1498 174.186C57.4364 174.365 55.9728 175.116 54.5449 175.725C53.1884 176.297 51.7249 176.512 50.3684 177.156C48.8334 177.907 47.12 178.336 45.5136 178.873C44.0143 179.374 42.5151 179.803 41.0515 180.375C39.9092 180.805 38.874 181.484 37.7674 181.985C36.5894 182.522 35.3757 183.023 34.162 183.488C31.9131 184.346 29.6999 185.169 27.451 186.028C26.9869 186.207 26.4872 186.278 26.0231 186.457C25.4519 186.672 24.9522 186.958 24.381 187.137C23.6314 187.351 22.8461 187.494 22.0964 187.709C21.7395 187.816 21.3111 187.709 21.0969 188.353C20.9898 188.747 20.026 189.033 19.4549 189.068C18.3126 189.176 17.4915 189.999 16.4206 190.213C15.7424 190.356 15.0998 190.643 14.4216 190.857C13.4578 191.215 12.494 191.644 11.4945 191.859C10.7448 192.002 9.95949 191.859 9.17416 191.823C7.42501 191.716 5.71156 191.644 3.96241 191.537C3.74823 191.537 3.49835 191.537 3.28417 191.644C2.21327 192.002 0.749693 191.143 0.392724 190.142C0.107148 189.355 0.499814 188.675 1.28515 188.389C3.03429 187.709 4.89053 187.852 6.67538 187.745C7.99616 187.673 9.35265 187.673 10.6734 187.53C11.8871 187.387 13.0651 186.886 14.2788 186.493C14.493 186.421 14.6001 185.992 14.85 185.885C17.0275 184.632 19.3835 183.81 21.8109 183.166C22.5605 182.987 23.2387 182.522 23.9527 182.379C25.1307 182.128 26.2373 181.842 27.3082 181.127C28.3434 180.411 29.7356 180.304 30.985 179.91C32.1273 179.517 33.3767 179.266 34.3405 178.658C34.8402 178.336 35.2686 177.943 35.8397 177.764C37.339 177.299 38.8026 176.834 40.3019 176.333C40.9444 176.118 41.5513 175.939 42.1581 175.653C43.3004 175.116 43.9429 174.222 44.05 172.934C44.1214 172.29 44.4784 171.646 44.6926 171.002C44.764 170.788 44.8354 170.609 44.9068 170.394C45.5493 168.391 46.1561 166.352 46.7987 164.348C46.9772 163.776 47.2271 163.239 47.2628 162.703C47.3341 161.844 47.7268 161.129 48.0838 160.413C48.1552 160.306 48.2623 160.127 48.2266 160.055C47.941 159.161 48.6549 158.517 49.0833 158.088C49.8329 157.336 49.94 156.335 50.1542 155.476C50.2613 155.011 50.6897 154.725 50.6897 154.117C50.7254 153.222 51.2251 152.328 51.6178 151.469C51.939 150.754 52.3674 150.146 52.6887 149.466C53.01 148.786 53.6525 148.25 53.6168 147.391C53.6168 147.177 54.0095 146.962 54.1166 146.711C54.4021 146.139 54.5449 145.531 54.8305 144.958C54.9376 144.744 55.2589 144.637 55.4373 144.422C55.9728 143.742 56.3655 143.027 56.4369 142.097C56.5083 141.309 56.7938 140.63 57.5078 140.093C57.9718 139.735 58.1146 139.02 58.4359 138.483C58.543 138.269 58.7572 138.09 58.9713 137.804C58.8999 137.303 59.1498 136.766 59.721 136.408C59.8281 136.337 59.9708 136.229 60.0065 136.086C60.5063 135.049 61.363 134.333 62.1127 133.511C63.1479 132.366 63.9689 131.042 64.2545 129.397C65.0755 129.647 65.3968 129.432 65.6467 128.538C65.8251 127.93 66.075 126.928 67.0745 126.785C67.253 126.785 67.4672 126.463 67.5029 126.284C67.6457 125.461 68.2882 125.139 68.8594 124.71C69.5376 124.209 70.0374 123.494 70.6442 122.886C71.1083 122.421 71.6437 122.027 72.0007 121.49C72.4648 120.739 73.0002 120.131 73.8926 119.916C73.9997 119.916 74.1425 119.773 74.1425 119.702C74.2853 118.593 75.4276 118.664 76.0344 118.092C76.7841 117.376 77.498 116.625 78.2834 115.91C78.6046 115.588 79.033 115.409 79.4257 115.158C80.2467 114.586 81.6032 114.657 81.7817 113.226C81.8174 112.94 82.1743 112.726 82.3885 112.368C82.9596 112.368 83.6736 112.404 83.7093 111.402C84.7802 111.438 84.8873 111.295 84.7088 110.221C84.6374 109.864 84.7088 109.434 84.566 109.112C84.3518 108.647 83.9592 108.254 83.6379 107.789C83.6736 107.789 83.8164 107.753 83.8164 107.717C83.2809 106.644 82.8169 105.535 82.2457 104.462C81.746 103.496 81.1391 102.601 81.3176 101.421C81.3176 101.242 81.2105 100.956 81.0677 100.813C80.1396 100.097 79.7826 99.0955 79.5328 97.9507C79.39 97.271 78.9616 96.5913 78.8188 95.84C78.6046 94.9457 78.4261 94.0513 78.1763 93.1927C78.0692 92.835 77.8193 92.5488 77.6408 92.191C77.5694 92.0837 77.498 91.9764 77.498 91.869C77.498 91.2251 77.5694 90.5812 77.498 89.973C77.498 89.5437 77.2481 89.1144 77.1411 88.6493C76.8198 87.2899 76.7127 85.8589 76.1415 84.6426C75.6418 83.5336 75.3919 82.4246 75.0706 81.2798C74.6423 79.7415 74.5709 78.1674 73.9997 76.6649C73.8212 76.2356 73.6071 75.7705 73.4286 75.3412C72.8574 74.0175 73.3215 72.4435 72.2149 71.1914C71.8579 70.7621 71.5366 69.8677 72.0364 69.0807C72.1435 68.9376 72.0364 68.544 71.8936 68.3652C71.1083 67.3277 70.8584 66.1471 70.6799 64.8593C70.43 62.9274 69.8946 61.0672 69.3948 59.2069C68.6809 56.5953 68.3596 53.9838 68.7166 51.3007C68.788 50.8714 68.6095 50.4421 68.6452 50.0128C68.788 48.8323 69.0022 47.6517 69.145 46.4354C69.2163 46.0418 69.2877 45.6125 69.2877 45.219C69.2877 44.1458 70.1088 43.7165 70.7513 43.0726C71.3939 42.4644 71.6794 41.4627 71.7151 40.4968C71.7508 39.1374 71.8222 39.2089 73.143 38.7081C74.3567 38.243 75.4633 37.599 76.6413 37.0267C76.8555 36.9193 77.1411 36.812 77.3909 36.8478C77.9264 36.8478 78.2834 36.7762 77.9978 36.0965C79.3186 36.0965 80.1753 35.4168 81.1391 34.6655C81.8887 34.0574 82.9953 33.7712 83.9592 33.5207C85.0301 33.2346 86.0296 33.0199 86.8506 32.1255C87.279 31.6962 87.9929 31.5531 88.5641 31.2669C88.7068 31.1954 88.921 31.1954 89.0281 31.0523C90.0633 30.0148 91.5269 30.0506 92.7406 29.514C93.5616 29.1563 94.3113 28.6554 95.1323 28.2619C95.3465 28.1546 95.6677 28.0472 95.8819 28.1546C96.6673 28.4765 97.0242 27.7968 97.524 27.5106C97.881 27.296 98.2736 27.1171 98.6663 26.9382C99.0947 26.7594 99.4873 26.5447 99.9514 26.4016C100.63 26.1512 101.344 25.9723 102.057 25.7219C103.45 25.2926 104.842 24.8991 106.198 24.3982C107.483 23.9332 108.697 23.3608 109.947 22.8242C111.196 22.2875 112.374 21.7151 113.659 21.2143C115.301 20.5704 116.8 19.5687 118.549 19.1394C119.906 18.8532 121.155 18.2808 122.476 17.8515C124.19 17.3149 125.939 16.7783 127.688 16.2416C129.865 15.5619 132.043 14.8822 134.22 14.1309C135.006 13.8447 135.577 13.2008 136.505 13.0577C137.826 12.8431 139.147 12.378 140.396 11.9129C141.395 11.5194 142.288 10.947 143.216 10.4819C143.466 10.3746 143.751 10.4104 144.037 10.3388C144.715 10.1957 145.429 10.16 146.072 9.94532C146.679 9.73067 147.178 9.2656 147.785 8.9794C148.571 8.62166 149.392 8.26391 150.213 7.97772C150.427 7.90617 150.712 7.97772 150.962 7.97772L150.855 7.76307C151.284 7.5842 151.748 7.36955 152.176 7.19068C153.782 6.54674 155.531 6.36786 157.102 5.54505C158.102 5.00843 159.422 5.11575 160.6 4.86533C161.564 4.65068 162.528 4.32871 163.492 4.07829C163.742 4.00674 163.992 3.93519 164.241 3.86364C165.455 3.649 166.705 3.47012 167.918 3.25548C168.204 3.2197 168.489 3.14815 168.775 3.11238C169.632 2.96928 170.524 2.89773 171.381 2.71886C172.702 2.43266 174.022 1.96759 175.379 1.78872C177.128 1.5383 178.877 1.43097 180.626 1.2521C181.804 1.14478 182.982 1.109 184.196 0.965905C184.732 0.894356 185.196 0.53661 185.731 0.500836C187.016 0.393512 188.337 0.429287 189.622 0.321963C190.622 0.250414 191.621 0.0357666 192.621 0.0357666C194.084 0.0357666 195.583 0.178865 197.047 0.286188C197.368 0.286188 197.689 0.429287 198.046 0.500836C198.332 0.0357666 199.046 0.0357666 199.51 0.715483C200.688 2.39689 202.58 3.54167 203.294 5.58082C203.401 5.93857 203.687 6.26054 203.972 6.47519C204.936 7.298 205.364 8.37124 205.721 9.5518C205.971 10.4104 206.364 11.2332 206.649 12.0918C207.47 14.4887 208.291 16.8498 209.113 19.2467C209.255 19.676 209.434 20.1411 209.684 20.4988C211.004 22.5737 211.147 25.0064 211.79 27.296C212.147 28.6196 212.468 29.9433 212.754 31.2669C212.861 31.732 212.861 32.2329 212.968 32.6979C213.218 34.0931 213.503 35.4526 213.789 36.812C214.146 38.6365 214.646 40.461 214.86 42.3213C214.967 43.4303 214.753 44.5751 215.074 45.6841C215.252 46.3996 215.502 47.1151 215.645 47.8306C215.788 48.7607 215.859 49.6908 215.966 50.5852C216.073 51.3722 216.216 52.1235 216.359 52.9106C216.359 53.0179 216.502 53.1968 216.43 53.2325C215.395 54.3773 216.645 55.2717 216.752 56.2734C216.966 57.9548 217.43 59.5646 217.751 61.246C217.858 61.9257 217.823 62.6055 217.93 63.2852C218.144 64.5731 218.394 65.8252 218.608 67.0773C218.679 67.5066 218.644 67.9001 218.644 68.3294C218.644 70.1539 219.036 71.8711 219.714 73.5882C220 74.3395 219.857 75.3054 219.929 76.164C219.964 76.5575 220.107 76.9511 220.214 77.3446V78.7398L220 78.7756ZM193.227 90.3307C193.227 90.3307 193.156 90.1519 193.12 90.0803C193.299 89.9372 193.477 89.7226 193.691 89.6868C194.548 89.5079 195.441 89.5079 196.262 89.2575C197.011 89.0429 197.689 88.6136 198.403 88.2558C200.617 87.2184 203.187 87.1826 205.364 85.8589C206.4 85.215 207.72 85.0719 208.934 84.7857C209.934 84.5353 210.79 84.0344 211.683 83.5694C212.397 83.2116 212.504 82.7465 212.611 82.1384C212.682 81.7448 212.718 81.4229 213.075 81.1009C213.575 80.6358 214.11 79.9919 213.967 79.026C213.86 78.5251 214.253 77.917 214.36 77.4519C214.217 76.7722 214.11 76.1282 213.967 75.4843C213.86 74.9835 213.824 74.4468 213.682 73.946C213.325 72.2646 212.861 70.619 212.575 68.9018C212.325 67.5781 212.29 66.2187 212.111 64.895C211.968 63.7502 211.718 62.6412 211.54 61.4964C211.326 60.0655 211.147 58.6345 210.969 57.2035C210.826 55.9872 210.647 54.7351 210.505 53.5187C210.362 52.517 210.29 51.5511 210.112 50.5494C209.934 49.4762 209.648 48.403 209.469 47.3297C209.255 45.9345 209.184 44.5035 208.97 43.0726C208.72 41.3911 208.363 39.7455 208.042 38.0641C207.899 37.3486 207.827 36.5974 207.685 35.8819C207.435 34.6298 207.149 33.3777 206.935 32.0898C206.828 31.5174 206.935 30.945 206.792 30.3726C206.435 28.7985 206.078 27.1887 205.65 25.6503C205.4 24.7202 205.079 23.7901 204.615 22.9673C204.329 22.4664 203.865 22.1444 204.044 21.4647C204.115 21.2501 203.972 20.9281 203.829 20.6777C203.401 19.7833 202.83 18.9605 202.509 18.0304C202.223 17.136 202.223 16.1701 202.009 15.24C201.902 14.7749 202.152 14.0236 201.331 13.8447C201.295 13.8447 201.331 13.5943 201.259 13.4512C201.188 13.1293 201.152 12.8073 201.009 12.5211C200.617 11.6983 199.903 10.9112 199.867 10.0526C199.796 8.9794 199.082 8.62166 198.546 8.01349C198.475 7.94194 198.439 7.87039 198.368 7.83462C197.618 6.79716 196.94 5.72392 196.155 4.72223C195.619 4.04252 194.941 3.649 194.013 3.75632C193.227 3.86364 192.442 3.82787 191.657 3.86364C189.265 3.97097 186.909 4.07829 184.517 4.22139C184.446 4.22139 184.339 4.25716 184.267 4.29294C183.268 4.50759 182.304 4.75801 181.305 4.90111C180.412 5.0442 179.484 4.97266 178.592 5.15153C176.807 5.4735 175.022 5.97434 173.237 6.29631C170.988 6.68983 168.704 6.97603 166.419 7.33378C164.706 7.61997 163.028 7.94194 161.35 8.29969C159.922 8.62166 158.78 9.80222 157.209 9.76645C157.102 9.76645 157.031 9.90954 156.924 9.94532C156.424 10.1957 155.924 10.4819 155.389 10.6608C154.782 10.8397 154.104 10.8397 153.497 11.0543C152.64 11.3763 151.855 11.8414 150.998 12.1991C149.142 12.9862 147.285 13.7732 145.394 14.5602C144.822 14.8107 144.18 14.918 143.573 15.0969C143.038 15.2757 142.466 15.4188 141.931 15.6335C140.539 16.1343 139.111 16.7067 137.719 17.2076C136.648 17.6011 135.541 17.923 134.435 18.2808C133.899 18.4597 133.364 18.6385 132.828 18.8174C132.578 18.889 132.328 18.9605 132.114 19.0321C131.293 19.3183 130.472 19.6044 129.651 19.8549C129.044 20.0337 128.438 20.2126 127.831 20.3915C127.331 20.5346 126.795 20.6061 126.296 20.785C124.404 21.4289 122.548 22.1087 120.656 22.7884C120.156 22.9673 119.656 23.1819 119.121 23.325C118.978 23.3608 118.764 23.325 118.621 23.3965C117.479 23.9689 116.372 24.6129 115.23 25.1495C114.337 25.5788 113.409 25.865 112.517 26.2227C111.731 26.5447 110.982 27.1171 110.196 27.1887C107.733 27.3675 105.841 29.0132 103.521 29.5855C102.879 29.7286 102.236 30.0506 101.593 30.2653C101.308 30.3726 100.951 30.3726 100.665 30.5157C99.4159 31.2312 98.3093 32.1613 96.7744 32.2686C96.6673 32.2686 96.5602 32.376 96.4531 32.4117C95.2037 32.9126 93.9543 33.4134 92.7049 33.9143C92.2051 34.1289 91.7054 34.4151 91.2413 34.6655C91.0271 34.7729 90.813 34.9517 90.5631 35.0591C88.0286 35.9892 85.6726 37.2055 83.388 38.7081C82.1743 39.5309 80.8178 40.2106 79.4257 40.6757C78.5689 40.9619 77.855 41.2481 77.2838 41.9635C76.9983 42.3571 76.677 42.8221 76.2843 43.1083C75.142 44.0027 74.9278 45.3621 74.4995 46.5785C74.2139 47.4013 74.321 48.3672 73.9997 49.1185C73.2501 50.9787 73.6785 52.9106 73.7498 54.7708C73.8212 57.2035 74.5709 59.5289 75.2134 61.8542C75.7846 63.8933 75.9988 66.004 76.7841 67.9716C77.2838 69.2595 77.4266 70.6547 77.7836 71.9784C78.1763 73.4452 78.6403 74.9119 79.033 76.3787C79.3543 77.595 79.6041 78.8471 79.9611 80.0634C80.3538 81.4944 80.8892 82.9254 81.2462 84.3922C81.8887 87.0037 82.4599 89.651 83.1024 92.2626C83.388 93.4073 83.7093 94.5521 84.102 95.6611C84.7088 97.3426 85.3513 98.9882 86.0296 100.598C86.4936 101.743 87.0648 102.852 87.4932 104.032C88.4927 106.68 89.4922 109.327 91.277 111.581C91.991 112.475 92.6335 113.441 93.3118 114.407C93.7758 115.087 94.1328 115.838 94.6325 116.482C95.3822 117.519 96.5602 117.663 97.7382 117.877C98.2022 117.949 98.6663 118.128 99.1303 118.271C99.6658 118.45 100.166 118.772 100.665 118.772C102.807 118.772 104.949 118.772 107.055 118.521C111.303 118.02 115.587 117.484 119.799 116.661C125.51 115.516 131.186 114.121 136.862 112.797C137.433 112.654 137.969 112.368 138.504 112.189C140.039 111.688 141.538 111.187 143.073 110.758C144.358 110.4 145.429 109.434 146.893 109.721C147.036 109.721 147.214 109.613 147.393 109.542C148.642 108.969 149.927 108.397 151.176 107.824C153.14 106.93 155.496 107.037 157.138 105.356C157.459 105.034 158.03 104.891 158.423 104.605C159.28 104.032 159.672 103.138 159.458 102.53C158.851 100.884 158.28 99.2386 157.709 97.593C157.602 97.271 157.602 96.8417 157.388 96.5913C156.531 95.6611 156.638 94.409 156.245 93.3C155.996 92.6203 155.71 91.9048 155.424 91.2251C155.21 90.7243 154.889 90.2234 154.782 89.6868C154.532 88.5062 154.461 87.2899 153.604 86.2882C153.175 85.7516 153.068 85.0003 152.854 84.3206C152.676 83.784 152.569 83.2474 152.426 82.675C152.176 81.8522 151.783 81.0294 151.64 80.2065C151.462 78.9187 150.784 77.8096 150.57 76.486C150.248 74.5542 149.392 72.7297 148.749 70.8694C148.499 70.1539 148.142 69.5099 147.892 68.7945C147.785 68.5083 147.571 68.079 147.678 67.9001C148.142 67.2919 147.785 66.8269 147.5 66.326C147.357 66.1114 147.143 65.9325 147.071 65.6821C146.75 63.8933 146.536 62.1046 146.107 60.3874C145.893 59.4573 145.429 58.5272 144.858 57.7401C144.43 57.1677 144.108 56.5953 144.037 55.8798C144.037 55.701 144.001 55.5221 143.93 55.379C143.145 53.5545 142.145 51.8373 141.717 49.9055C141.538 49.19 141.36 48.4745 141.217 47.7232C141.074 46.9362 141.074 46.0418 140.753 45.3264C140.217 44.1816 140.146 43.001 140.075 41.8204C140.003 40.5683 140.075 39.2805 140.075 37.921C139.575 37.9926 139.075 37.9926 138.611 38.0641C137.933 38.1714 136.434 37.5275 136.184 36.9551C136.077 36.7762 136.077 36.4185 136.184 36.3112C136.862 35.6314 137.505 34.8086 138.326 34.4509C139.039 34.1289 140.003 34.3078 140.86 34.2362C141.146 34.2362 141.717 33.9143 141.717 33.8427C141.574 33.0915 142.252 32.841 142.538 32.376C143.002 31.6962 143.537 31.0523 144.108 30.2653C144.037 30.2653 144.251 30.3726 144.358 30.301C145.858 29.4424 147.5 29.2993 149.177 29.192C150.498 29.0847 151.819 29.1205 153.14 29.192C153.782 29.192 154.425 29.4067 154.96 29.6929C155.71 30.0864 156.174 30.9092 157.102 31.0523C157.209 31.0523 157.352 31.2669 157.423 31.41C157.816 32.0898 158.137 32.8053 158.566 33.4492C159.387 34.6655 160.279 35.8461 160.708 37.2771C160.922 37.9568 161.136 38.8154 162.207 38.7796C162.314 38.7796 162.421 39.03 162.528 39.1731C162.956 39.7455 163.385 40.3537 163.885 40.8545C165.312 42.214 166.633 43.5734 167.24 45.5052C167.597 46.6858 167.526 47.3655 166.74 47.8306C166.098 48.2241 165.348 47.9379 164.598 47.1509C163.956 46.5069 163.242 45.8987 162.742 45.4337C162.671 47.2224 162.564 49.19 162.492 51.1218C162.492 51.8731 162.171 52.8748 162.528 53.3041C164.063 55.057 164.456 57.3466 165.562 59.2784C166.99 61.7826 167.918 64.5731 169.132 67.2204C170.56 70.3685 172.095 73.4809 173.523 76.6291C174.379 78.4536 175.165 80.3139 175.986 82.1741C176.164 82.5677 176.236 82.9969 176.45 83.3905C177.414 85.4654 178.449 87.5403 179.413 89.6152C179.984 90.9031 180.412 92.2268 180.912 93.5147C181.09 93.944 181.376 94.3375 181.876 93.944C183.054 93.0496 184.339 92.6203 185.802 92.4772C186.017 92.4772 186.374 92.3341 186.409 92.191C186.588 91.2967 187.409 91.5828 187.909 91.3682C188.48 91.1178 189.087 91.0105 189.693 90.8316C190.729 90.5454 191.764 90.295 192.763 90.0803C192.835 90.0803 192.906 90.1519 192.978 90.1876L193.227 90.3307ZM152.354 112.189C151.712 112.404 151.069 112.618 150.427 112.797C149.32 113.155 148.178 113.477 147.071 113.835C145.572 114.335 144.108 114.872 142.573 115.337C141.217 115.766 139.825 116.124 138.468 116.518C138.326 116.518 138.254 116.661 138.147 116.732C137.826 116.911 137.505 117.162 137.148 117.269C136.541 117.412 135.862 117.341 135.291 117.519C133.471 118.092 131.686 118.736 129.865 119.272C128.83 119.594 127.759 119.63 126.688 119.916C125.903 120.131 125.118 120.453 124.332 120.739C123.618 121.025 122.797 120.632 122.048 121.097C121.834 121.24 121.477 121.097 121.191 121.133C120.87 121.133 120.548 121.133 120.227 121.24C119.121 121.526 118.014 121.991 116.872 122.027C114.766 122.063 112.731 122.742 110.589 122.528C109.554 122.421 108.483 122.742 107.412 122.742C104.592 122.778 101.772 122.742 98.9519 122.778C98.5592 122.778 98.1308 122.778 97.7382 122.707C96.703 122.421 95.632 122.17 94.6325 121.777C93.5259 121.312 92.455 120.739 91.4198 120.095C91.0629 119.881 90.9914 119.201 90.6345 118.986C89.2066 118.199 88.7782 116.661 88.0286 115.409C87.6359 114.729 87.4218 114.765 86.9577 115.123C85.4941 116.303 84.0306 117.448 82.6384 118.7C81.4604 119.737 79.9611 120.31 78.9259 121.633C78.1763 122.599 77.034 123.243 76.0344 124.066C75.4633 123.852 74.6066 124.424 74.3567 125.175C74.1782 125.748 73.8926 126.32 73.5357 126.821C73.1787 127.286 72.6789 127.679 72.2506 128.109C71.3939 128.967 71.1083 130.362 69.8589 130.863C69.7875 130.863 69.7161 131.042 69.7161 131.114C69.6447 132.151 68.6809 132.652 68.2882 133.511C68.1811 133.761 67.7885 133.904 67.5743 134.333C66.896 135.657 65.6467 136.623 65.0755 138.054C64.7185 138.877 64.076 139.592 63.5762 140.344C63.5405 140.415 63.5762 140.558 63.5762 140.666C63.5048 140.88 63.4691 141.095 63.3264 141.274C63.0051 141.631 62.5767 141.918 62.3625 142.311C62.1127 142.776 62.1484 143.384 61.8985 143.814C61.2916 144.923 60.5777 145.96 59.9352 147.033C59.721 147.427 59.5425 147.856 59.364 148.25C58.8642 149.108 58.186 149.895 57.6505 150.754C57.4721 151.04 57.6505 151.541 57.6148 151.935C57.6148 152.149 57.4007 152.328 57.2579 152.507C57.008 152.865 56.7581 153.258 56.4726 153.616C56.0799 154.045 56.6153 154.868 55.7943 155.118C55.7586 155.118 55.7943 155.44 55.7943 155.619C55.7943 155.798 55.7943 155.977 55.7229 156.192C55.5801 156.943 54.5806 157.444 55.0447 158.41C55.0447 158.445 54.8305 158.589 54.7591 158.732C54.5092 159.197 54.295 159.698 54.0452 160.127C53.9024 160.377 53.6525 160.592 53.474 160.842C53.4026 160.807 53.3312 160.735 53.2598 160.699C53.1527 162.13 52.9386 163.525 52.296 164.849C51.832 165.815 51.2965 166.853 51.5107 168.033C51.5464 168.355 51.5107 168.892 51.2965 168.999C50.3684 169.571 50.1899 170.502 50.0471 171.432C49.9757 171.861 49.9043 172.254 49.7972 172.755C50.0471 172.684 50.297 172.684 50.5112 172.576C51.4393 172.111 52.3674 171.539 53.3312 171.145C54.0095 170.859 54.7234 170.716 55.4373 170.466C55.8657 170.287 56.2941 169.929 56.7581 169.858C58.4359 169.643 60.0422 169.214 61.6486 168.641C63.255 168.069 64.8613 167.568 66.5034 167.174C68.6809 166.638 70.9298 166.387 73.1073 165.815C75.6418 165.135 78.212 164.742 80.7107 163.847C81.9958 163.382 83.388 163.239 84.7445 162.989C85.387 162.846 86.0296 162.846 86.6721 162.703C88.5641 162.309 90.4203 161.88 92.3122 161.522C93.5973 161.272 94.8824 161.057 96.1675 160.842C97.3812 160.628 98.5592 160.377 99.7729 160.198C100.772 160.055 101.843 160.127 102.843 159.948C105.377 159.483 107.876 158.911 110.411 158.445C111.696 158.195 113.016 158.124 114.302 157.909C116.765 157.515 119.192 157.086 121.655 156.657C123.369 156.371 125.082 156.049 126.76 155.762C126.974 155.727 127.224 155.762 127.438 155.762C128.616 155.977 129.08 155.476 128.759 154.26C128.438 152.9 128.152 151.541 128.509 150.11C128.652 149.573 128.509 148.965 128.509 148.357C126.795 148.357 125.189 148.286 123.547 148.357C122.012 148.464 120.62 147.606 119.085 147.82C119.014 147.82 118.942 147.713 118.871 147.677C117.907 147.105 117.8 146.711 118.264 144.958C119.335 144.851 120.477 144.637 121.584 144.601C123.226 144.529 124.904 144.601 126.546 144.601C127.616 144.601 128.723 144.637 129.794 144.637C131.079 144.637 132.364 144.672 133.649 144.601C134.827 144.493 136.005 144.171 137.183 144.064C138.611 143.921 140.039 143.921 141.467 143.849C143.359 143.778 145.286 143.921 147.178 143.635C149.177 143.349 151.141 142.776 153.104 142.275C154.568 141.918 155.067 141.238 155.139 139.7C155.139 139.127 155.317 138.591 155.389 137.982H154.889C155.067 137.482 155.21 137.017 155.353 136.516C154.675 136.194 155.139 135.657 155.174 135.12C155.246 134.548 154.996 133.94 154.925 133.368C154.853 132.759 154.853 132.151 154.853 131.543C154.853 131.042 154.96 130.506 154.996 130.005C154.925 130.005 154.818 130.005 154.746 130.005C154.675 130.148 154.639 130.291 154.532 130.613C154.461 129.11 154.461 127.858 154.353 126.57C154.246 125.211 154.104 123.887 153.996 122.564C153.996 122.456 153.925 122.349 153.925 122.242C153.818 121.705 153.711 121.168 153.64 120.596C153.568 119.666 153.604 118.736 153.497 117.806C153.461 117.376 153.068 116.983 153.104 116.589C153.211 115.409 152.961 114.3 152.533 113.191C152.39 112.904 152.319 112.583 152.176 112.189H152.354ZM158.53 112.869C158.708 114.192 158.851 115.552 159.03 116.875C159.208 118.199 159.351 119.559 159.565 120.882C159.672 121.598 159.886 122.313 159.922 123.029C159.994 124.352 159.922 125.712 160.029 127.035C160.243 129.146 160.565 131.257 160.815 133.368C160.85 133.725 160.815 134.083 160.815 134.441C160.815 134.691 160.743 134.977 160.85 135.156C160.922 135.264 161.279 135.228 161.493 135.156C162.992 134.763 164.527 134.369 165.991 133.904C166.847 133.618 167.704 133.26 168.454 132.795C169.346 132.223 170.131 131.471 171.024 130.863C172.88 129.575 175.308 129.289 176.843 127.465C177.092 127.179 177.485 127 177.771 126.713C178.877 125.569 179.77 124.245 180.519 122.85C180.841 122.206 181.412 121.633 181.519 120.954C181.733 119.594 181.804 118.199 181.733 116.804C181.662 115.444 181.233 114.121 181.09 112.761C180.948 111.474 181.376 110.078 180.269 109.005C180.198 108.934 180.305 108.719 180.269 108.576C179.948 107.395 179.77 106.143 179.234 105.034C178.877 104.247 178.27 103.639 178.377 102.673C178.413 102.351 178.27 101.993 178.163 101.671C177.735 100.348 177.342 98.9524 176.807 97.7003C176.486 97.0206 176.164 96.4482 176.271 95.6611C176.271 95.4107 176.057 95.1245 175.914 94.8741C175.807 94.6237 175.665 94.409 175.593 94.1944C175.129 93.0138 174.665 91.869 174.237 90.6885C174.058 90.2234 173.915 89.7583 173.773 89.2933C173.701 89.0786 173.773 88.8282 173.63 88.6493C172.63 87.111 171.774 85.5012 171.274 83.7124C171.274 83.6051 171.131 83.5336 171.095 83.4262C170.417 82.1026 169.703 80.7789 169.025 79.4553C168.668 78.7756 168.418 78.0958 168.132 77.4161C167.954 76.9868 167.74 76.5933 167.597 76.164C167.133 74.8046 166.883 73.3378 166.241 72.0499C165.705 70.9767 164.955 70.0108 164.456 68.866C164.063 67.9001 163.563 66.97 163.242 65.9325C162.885 64.7877 161.957 63.7502 161.529 62.5339C161.314 61.9615 160.815 61.4965 160.529 60.9598C160.029 59.9224 159.53 58.8134 159.137 57.7401C158.887 57.0604 158.673 56.4165 158.137 55.8441C157.745 55.4505 157.423 54.8066 157.388 54.27C157.245 52.517 157.281 50.7641 157.209 48.9754C157.174 47.6875 157.102 46.4354 157.066 45.1475C157.066 44.9686 157.066 44.7897 157.102 44.6466C157.352 43.9669 157.53 43.3587 156.959 42.7148C156.709 42.4286 156.567 41.9635 156.495 41.5342C156.352 40.7114 156.352 39.8886 156.174 39.0658C156.067 38.5292 155.853 37.9568 155.139 37.8495C154.96 37.8495 154.853 37.3844 154.71 37.134C154.603 36.8836 154.568 36.5616 154.425 36.3469C154.175 36.025 153.711 35.8461 153.64 35.5241C153.461 34.8086 152.926 34.4509 152.497 33.95C151.533 32.8768 150.355 32.8768 149.035 33.5207C148.428 33.8427 148.463 34.5224 147.857 34.7013C147.678 34.7729 147.5 35.0591 147.428 35.2737C147.071 36.5616 146.679 37.8137 146.393 39.1374C146.143 40.3895 145.965 41.6416 145.929 42.9295C145.929 43.6449 146.286 44.3604 146.464 45.1117C146.893 46.972 147.143 48.9038 147.785 50.7283C148.463 52.6959 149.57 54.5204 150.355 56.4165C150.962 57.8832 151.498 59.3857 151.962 60.9241C152.354 62.2477 152.462 63.6787 152.89 65.0024C154.032 68.7587 155.246 72.515 156.46 76.2356C156.531 76.4144 156.46 76.6649 156.531 76.8437C156.817 77.917 157.102 79.026 157.459 80.0992C157.852 81.2798 158.352 82.3888 158.744 83.5694C158.958 84.2133 159.065 84.9288 159.315 85.6085C159.922 87.3972 160.565 89.1502 161.172 90.9389C161.279 91.2251 161.172 91.5471 161.279 91.8333C161.707 93.0138 162.171 94.1586 162.671 95.3034C163.456 97.1637 164.277 99.0239 165.027 100.92C165.241 101.457 165.419 102.065 165.312 102.601C165.098 103.567 165.384 104.354 165.669 105.213C165.919 105.928 166.098 106.787 165.991 107.538C165.884 108.146 165.241 108.647 164.92 109.255C164.063 110.901 162.242 111.295 160.886 112.332C160.279 112.761 159.315 112.726 158.53 112.904V112.869Z" fill="#1E6E67"/>
<path fill-rule="evenodd" clip-rule="evenodd" d="M178.02 318C178.02 318 177.664 317.678 177.521 317.678C175.879 317.714 174.308 317.32 172.773 316.819C171.488 316.426 170.774 315.245 170.239 314.101C170.131 313.85 170.488 313.063 170.774 312.956C171.345 312.777 171.988 312.813 172.595 312.956C173.344 313.063 174.022 313.349 174.629 313.492C174.558 312.097 174.487 310.845 174.451 309.593C174.451 308.627 174.772 308.269 175.736 308.198C176.236 308.198 176.735 308.198 177.235 308.198C177.449 308.198 177.735 308.269 177.842 308.412C178.413 309.128 178.949 309.843 179.448 310.63C179.912 311.346 180.305 312.133 180.733 312.884C181.09 313.6 181.412 314.315 181.626 314.78C181.126 315.71 180.841 316.426 180.376 316.998C180.091 317.356 179.591 317.535 179.163 317.75C178.913 317.893 178.627 317.928 178.342 318.036H177.985L178.02 318Z" fill="#1E6E67"/>
<path fill-rule="evenodd" clip-rule="evenodd" d="M149.784 233.071C149.284 233.393 148.749 233.715 148.285 234.109C148.071 234.288 147.928 234.538 147.821 234.788C147.107 236.47 145.608 237.006 144.18 236.112C143.894 235.933 143.644 235.397 143.68 235.11C143.859 234.216 144.037 233.214 144.572 232.535C145.465 231.39 146.607 230.424 147.678 229.458C148.963 228.313 150.534 228.242 152.14 228.385C152.997 228.492 153.568 229.1 153.925 229.887C154.746 231.569 154.389 233.286 154.068 235.003C153.925 235.754 153.782 236.541 153.461 237.221C152.89 238.509 151.069 239.081 149.856 238.366C149.606 238.223 149.427 237.722 149.463 237.436C149.641 236.47 149.963 235.504 150.141 234.538C150.248 234.073 150.141 233.572 150.141 233.107C150.034 233.107 149.927 233.107 149.82 233.071H149.784Z" fill="#1E6E67"/>
<path fill-rule="evenodd" clip-rule="evenodd" d="M172.916 266.699C172.666 267.164 172.416 267.665 172.095 268.094C170.167 270.813 167.454 272.209 164.241 272.781C163.063 272.996 161.993 272.709 160.993 272.065C160.815 271.958 160.6 271.743 160.529 271.565C159.958 269.991 160.922 267.987 162.528 267.522C163.456 267.272 164.42 267.093 165.348 266.842C166.669 266.52 167.597 265.698 168.168 264.517C168.632 263.587 169.203 262.943 170.381 263.05C171.202 263.122 171.809 263.444 172.095 264.195C172.416 264.946 172.594 265.733 172.88 266.699H172.916Z" fill="#1E6E67"/>
<path fill-rule="evenodd" clip-rule="evenodd" d="M156.067 272.817C155.46 272.638 154.853 272.459 154.246 272.28C151.926 271.6 149.57 271.028 147.285 270.241C145.786 269.704 143.966 269.311 143.716 267.307C143.609 266.413 143.716 265.304 144.18 264.517C144.894 263.336 145.858 263.158 146.786 264.302C147.571 265.304 148.713 265.769 149.891 266.198C151.997 266.95 154.104 267.701 156.103 268.631C157.174 269.132 157.709 270.241 157.602 271.493C157.495 272.495 157.066 272.817 156.103 272.817H156.067Z" fill="#1E6E67"/>
<path fill-rule="evenodd" clip-rule="evenodd" d="M147.785 288.665C147.393 290.525 147 292.6 146.429 294.675C146.107 295.891 144.144 296.356 143.216 295.498C142.788 295.069 142.466 294.46 142.216 293.888C141.895 293.065 141.431 292.457 140.467 292.493C139.468 292.564 138.968 291.92 138.79 291.133C138.647 290.418 138.754 289.631 138.932 288.915C139.111 288.236 140.396 288.128 141.253 288.629C142.431 289.273 142.788 289.094 142.895 287.806C143.073 286.232 144.144 285.016 145.393 285.016C146.5 285.016 147 285.338 147.393 286.375C147.5 286.626 147.535 286.876 147.607 287.127C147.678 287.556 147.714 287.985 147.821 288.701L147.785 288.665Z" fill="#1E6E67"/>
<path fill-rule="evenodd" clip-rule="evenodd" d="M175.7 244.662C175.986 243.553 176.45 242.444 176.521 241.299C176.628 239.833 177.235 238.616 178.02 237.436C178.306 237.042 178.663 236.613 179.091 236.434C180.805 235.575 182.197 236.363 182.376 238.294C182.447 239.26 182.518 240.262 182.304 241.192C182.09 242.122 181.59 242.981 181.198 243.839C180.805 244.734 180.448 245.664 179.984 246.558C179.377 247.667 178.592 247.989 177.521 247.667C176.129 247.238 175.843 246.88 175.843 245.413C175.843 245.163 175.843 244.948 175.843 244.698C175.807 244.698 175.736 244.698 175.7 244.662Z" fill="#1E6E67"/>
<path fill-rule="evenodd" clip-rule="evenodd" d="M180.198 229.458C180.305 227.204 181.09 225.165 182.161 223.305C182.875 222.017 184.196 221.588 185.624 221.695C186.374 221.766 187.016 222.553 186.945 223.376C186.873 224.271 186.766 225.165 186.623 226.024C186.445 227.24 185.731 228.242 185.517 229.458C185.338 230.674 184.267 231.855 183.411 232.892C182.768 233.679 181.162 233.179 180.734 232.069C180.448 231.247 180.341 230.317 180.162 229.422L180.198 229.458Z" fill="#1E6E67"/>
<path fill-rule="evenodd" clip-rule="evenodd" d="M134.827 258.113C135.577 257.935 136.005 258.471 136.148 259.222C136.326 260.153 136.648 260.725 137.719 261.047C138.754 261.333 139.718 261.941 140.61 262.585C141.324 263.086 141.538 264.41 141.181 265.233C141.003 265.698 140.753 265.984 140.146 265.876C138.254 265.59 136.326 265.447 134.435 265.125C133.721 265.018 133.078 264.696 132.4 264.481C132.328 264.481 132.293 264.41 132.257 264.374C131.222 263.301 131.043 260.689 131.936 259.437C132.614 258.435 133.614 258.113 134.899 258.078L134.827 258.113Z" fill="#1E6E67"/>
<path fill-rule="evenodd" clip-rule="evenodd" d="M164.313 286.554C164.206 287.198 164.063 287.806 164.027 288.45C164.027 288.665 164.206 288.879 164.313 289.094C165.062 290.418 165.884 291.706 166.526 293.101C166.705 293.494 166.49 294.317 166.133 294.639C165.491 295.247 164.527 295.283 163.849 294.711C162.742 293.781 161.778 292.707 160.743 291.634C160.386 291.276 160.172 290.74 159.815 290.346C158.351 288.844 159.03 285.874 160.422 284.479C161.136 283.764 162.171 283.621 163.135 283.907C163.492 284.014 163.813 284.515 163.956 284.908C164.17 285.409 164.17 285.982 164.241 286.554H164.313Z" fill="#1E6E67"/>
<path fill-rule="evenodd" clip-rule="evenodd" d="M45.1567 202.734C44.9782 204.022 44.8711 205.31 44.6212 206.598C44.3357 208.101 43.6217 208.601 42.0868 208.494C40.4447 208.387 39.2667 207.385 39.1953 205.847C39.1953 204.881 39.4452 203.879 39.588 202.877C39.588 202.77 39.588 202.663 39.588 202.555C39.3024 201.16 40.052 200.087 40.766 199.085C41.6584 197.797 43.9073 198.012 44.5498 199.443C44.764 199.944 44.8711 200.481 44.9425 201.053C45.0139 201.59 44.9425 202.162 44.9425 202.699C44.9782 202.699 45.0496 202.699 45.0853 202.699L45.1567 202.734Z" fill="#1E6E67"/>
<path fill-rule="evenodd" clip-rule="evenodd" d="M44.7282 219.262C44.6569 219.87 44.6212 220.479 44.5141 221.087C44.2285 222.804 42.5507 223.519 41.0872 222.589C39.7664 221.767 39.0524 220.479 38.981 219.012C38.9097 217.223 38.981 215.399 39.7307 213.717C40.3732 212.25 41.694 211.857 42.7649 213.002C43.4432 213.717 43.9786 214.683 44.2642 215.613C44.5855 216.794 44.5855 218.046 44.7282 219.298V219.262Z" fill="#1E6E67"/>
<path fill-rule="evenodd" clip-rule="evenodd" d="M142.538 297.895C142.93 298.038 143.145 298.074 143.359 298.181C146 299.826 148.713 301.365 151.034 303.511C151.783 304.227 152.176 305.05 152.283 306.051C152.39 307.125 151.605 307.661 150.57 307.411C149.392 307.125 148.571 306.266 147.571 305.658C146.643 305.121 145.679 304.62 144.751 304.048C144.18 303.69 143.68 303.225 143.145 302.832C142.895 302.653 142.681 302.474 142.466 302.331C141.431 301.687 140.896 299.862 141.574 298.789C141.824 298.395 142.288 298.181 142.609 297.93L142.538 297.895Z" fill="#1E6E67"/>
<path fill-rule="evenodd" clip-rule="evenodd" d="M175.772 251.102C177.414 251.102 178.306 252.175 177.985 253.642C177.485 255.788 176.914 257.935 175.736 259.831C175.307 260.51 174.843 261.011 173.987 261.19C172.844 261.405 172.309 261.19 171.881 260.045C171.274 258.4 171.452 256.754 171.952 255.144C172.238 254.214 172.737 253.32 173.237 252.461C173.808 251.459 174.736 251.03 175.736 251.102H175.772Z" fill="#1E6E67"/>
<path fill-rule="evenodd" clip-rule="evenodd" d="M182.411 210.676C182.483 210.032 182.59 208.923 182.804 207.814C182.911 207.135 183.446 206.813 184.125 206.741C184.981 206.67 186.624 207.6 186.802 208.423C187.159 210.032 187.552 211.714 187.587 213.324C187.587 214.504 187.088 215.685 186.695 216.865C186.481 217.545 185.91 217.867 185.196 217.831C184.446 217.831 183.696 217.724 183.339 216.937C183.09 216.329 182.911 215.649 182.84 215.005C182.697 213.717 182.625 212.429 182.447 210.676H182.411Z" fill="#1E6E67"/>
<path fill-rule="evenodd" clip-rule="evenodd" d="M131.222 279.614C132.4 279.614 133.078 280.222 133.435 281.474C133.614 282.154 133.685 282.869 133.935 283.477C134.256 284.229 134.613 285.016 135.149 285.588C136.184 286.733 136.434 288.057 135.506 288.987C134.685 289.845 133.15 289.702 132.043 288.701C131.472 288.2 130.865 287.77 130.329 287.27C129.901 286.876 129.473 286.447 129.259 285.91C128.545 284.193 128.652 282.476 129.366 280.794C129.723 279.9 130.437 279.507 131.293 279.578L131.222 279.614Z" fill="#1E6E67"/>
<path fill-rule="evenodd" clip-rule="evenodd" d="M131.757 251.674C132.043 250.028 132.257 247.846 134.113 246.344C135.006 245.628 136.041 245.664 137.005 246.022C137.79 246.344 138.183 247.524 138.004 248.633C137.79 249.993 137.612 251.352 137.397 252.676C137.005 255.037 134.363 255.538 132.864 254.822C131.793 254.321 131.793 253.176 131.757 251.638V251.674Z" fill="#1E6E67"/>
<path fill-rule="evenodd" clip-rule="evenodd" d="M41.2656 191.108C41.4798 189.39 41.6583 187.673 41.9796 185.992C42.2294 184.632 44.0857 183.523 45.4065 183.953C45.8348 184.096 46.2989 184.668 46.406 185.133C46.5845 185.92 46.406 186.743 46.4774 187.566C46.6559 189.426 46.1204 191.108 45.6206 192.825C45.228 194.22 44.5854 194.757 43.4431 194.614C42.3008 194.506 41.5155 193.648 41.3727 192.36C41.3727 191.966 41.3727 191.537 41.3727 191.143H41.3013L41.2656 191.108Z" fill="#1E6E67"/>
<path fill-rule="evenodd" clip-rule="evenodd" d="M171.952 306.838C171.559 306.695 171.095 306.624 170.774 306.337C168.989 304.656 167.49 302.724 166.276 300.578C165.777 299.683 166.098 298.753 166.633 298.002C167.097 297.358 167.918 296.929 168.739 297.251C169.525 297.573 170.31 298.074 170.917 298.646C171.524 299.254 171.809 300.148 172.38 300.792C173.309 301.794 173.416 303.046 173.773 304.263C174.165 305.515 173.201 306.767 171.952 306.874V306.838Z" fill="#1E6E67"/>
<path fill-rule="evenodd" clip-rule="evenodd" d="M183.982 200.803C183.982 201.053 183.982 201.339 183.982 201.59C183.875 202.627 183.339 203.414 182.625 203.521C181.662 203.7 180.591 203.164 180.091 202.341C179.091 200.624 178.128 198.907 177.092 197.225C176.521 196.259 176.95 195.401 177.307 194.542C177.592 193.862 178.235 193.97 178.806 193.898C180.091 193.755 181.162 194.292 181.876 195.222C182.518 196.045 182.911 197.082 183.339 198.084C183.696 198.942 183.911 199.837 184.196 200.731C184.125 200.731 184.053 200.731 183.982 200.803Z" fill="#1E6E67"/>
<path fill-rule="evenodd" clip-rule="evenodd" d="M157.995 307.375C158.923 307.375 159.637 307.697 160.422 308.234C161.243 308.806 162.278 309.056 163.206 309.486C164.099 309.879 165.027 310.237 165.812 310.809C166.383 311.203 166.847 311.847 167.169 312.455C167.526 313.17 166.847 313.886 166.062 313.779C164.884 313.636 163.635 313.779 162.564 313.385C161.636 313.027 160.6 313.242 159.744 312.491C158.78 311.704 157.531 311.274 156.388 310.702C155.746 310.416 155.139 309.486 155.21 308.806C155.317 308.055 155.781 307.625 156.567 307.518C157.066 307.482 157.531 307.375 158.03 307.303L157.995 307.375Z" fill="#1E6E67"/>
<path fill-rule="evenodd" clip-rule="evenodd" d="M110.375 193.004C109.09 193.004 108.84 192.861 108.661 191.608C108.376 189.784 108.733 188.067 109.661 186.457C110.268 185.384 110.946 184.382 111.624 183.345C112.053 182.629 112.731 182.486 113.481 182.736C114.266 182.987 114.98 183.488 114.944 184.382C114.908 185.276 114.694 186.171 114.409 186.994C113.873 188.568 113.195 190.106 112.659 191.644C112.338 192.574 111.803 192.932 110.375 192.968V193.004Z" fill="#1E6E67"/>
<path fill-rule="evenodd" clip-rule="evenodd" d="M162.421 190.929C161.172 190.929 159.958 190.857 158.78 190.929C157.459 191 156.888 190.571 156.709 189.319C156.567 188.389 156.281 187.494 156.103 186.564C155.746 184.632 157.102 183.452 158.958 184.203C159.672 184.489 160.458 185.098 160.743 185.741C161.314 187.137 162.421 187.459 163.635 187.566C164.599 187.638 164.92 188.138 165.027 188.925C165.134 189.641 164.599 190.499 163.849 190.678C163.385 190.821 162.885 190.821 162.421 190.893V190.929Z" fill="#1E6E67"/>
<path fill-rule="evenodd" clip-rule="evenodd" d="M123.833 170.752C124.368 169.571 124.796 168.498 125.368 167.461C126.26 165.743 127.367 164.241 129.08 163.239C129.901 162.774 130.651 162.917 131.258 163.454C131.9 163.991 131.829 164.813 131.507 165.493C131.043 166.495 130.365 167.425 129.973 168.462C129.58 169.536 128.973 170.43 128.259 171.253C127.438 172.254 125.76 172.719 124.689 172.076C124.332 171.861 124.154 171.289 123.833 170.752Z" fill="#1E6E67"/>
<path fill-rule="evenodd" clip-rule="evenodd" d="M40.873 229.243C40.873 228.707 40.873 228.313 40.873 227.955C40.98 226.954 41.5155 226.346 42.4079 226.167C43.4074 225.988 44.1214 226.31 44.5497 227.276C45.2994 229.029 46.049 230.746 46.7629 232.535C47.227 233.715 46.7629 235.146 45.9062 235.575C44.9424 236.041 43.1576 235.54 42.515 234.538C41.4798 232.892 40.6588 231.139 40.873 229.243Z" fill="#1E6E67"/>
<path fill-rule="evenodd" clip-rule="evenodd" d="M147.928 252.89C149.713 252.89 150.819 254.178 150.463 255.967C150.106 257.756 149.499 259.473 148.999 261.226C148.856 261.727 148.571 261.941 147.999 261.691C147.714 261.584 147.357 261.548 147.036 261.584C145.929 261.762 145.465 261.154 145.108 260.224C144.287 257.935 144.644 255.824 145.929 253.785C146.429 252.998 147.143 252.711 147.892 252.855L147.928 252.89Z" fill="#1E6E67"/>
<path fill-rule="evenodd" clip-rule="evenodd" d="M137.112 271.207C136.862 271.6 136.505 271.958 136.434 272.387C136.148 274.283 134.756 275.357 133.471 276.502C133.078 276.859 132.543 277.11 132.007 277.217C130.829 277.467 129.758 276.43 129.937 275.214C130.222 273.139 131.186 271.35 132.436 269.669C132.685 269.347 133.114 269.132 133.506 268.917C135.648 267.88 136.933 268.703 137.112 271.135V271.207Z" fill="#1E6E67"/>
<path fill-rule="evenodd" clip-rule="evenodd" d="M126.331 185.241C126.331 185.241 126.153 185.241 126.046 185.241C124.975 185.241 123.975 184.668 123.868 183.953C123.726 183.166 124.725 181.878 125.582 181.52C126.296 181.198 127.01 180.769 127.581 180.268C128.366 179.588 131.543 178.873 132.507 179.338C133.078 179.624 133.542 180.053 133.578 180.805C133.614 181.842 133.15 182.593 132.328 183.058C131.222 183.631 130.044 184.096 128.902 184.525C128.081 184.847 127.224 185.062 126.367 185.348C126.367 185.312 126.367 185.241 126.331 185.205V185.241Z" fill="#1E6E67"/>
<path fill-rule="evenodd" clip-rule="evenodd" d="M145.572 278.612C145.572 276.931 146.179 275.464 146.929 274.069C147.428 273.174 148.428 272.817 149.677 273.103C150.427 273.282 151.141 274.069 151.105 274.999C150.962 277.682 150.248 280.15 148.285 282.082C147.571 282.798 146.572 282.619 146.25 281.653C145.929 280.687 145.786 279.614 145.572 278.612Z" fill="#1E6E67"/>
<path fill-rule="evenodd" clip-rule="evenodd" d="M117.157 181.806C116.515 181.413 115.658 181.127 115.337 180.554C115.087 180.125 115.408 179.159 115.765 178.658C116.979 176.941 118.585 175.582 120.406 174.616C121.084 174.258 122.048 174.258 122.869 174.294C123.654 174.329 124.154 175.689 123.618 176.476C122.298 178.551 120.905 180.59 118.371 181.377C118.192 181.449 117.978 181.52 117.8 181.556C117.621 181.592 117.443 181.592 117.264 181.627C117.229 181.699 117.157 181.771 117.122 181.842L117.157 181.806Z" fill="#1E6E67"/>
<path fill-rule="evenodd" clip-rule="evenodd" d="M51.1537 246.379C50.4041 246.022 49.6544 245.7 48.9405 245.27C47.2984 244.233 46.5845 242.587 46.0847 240.799C45.9063 240.083 45.5136 239.153 46.2275 238.759C46.9058 238.402 47.9767 238.259 48.6906 238.509C49.6901 238.831 50.7253 239.439 50.9752 240.727C50.9752 240.906 51.1894 241.085 51.3322 241.192C52.296 241.943 52.9385 242.909 53.1884 244.09C53.474 245.378 52.6887 246.2 51.2251 246.165C51.2251 246.236 51.1537 246.308 51.118 246.379H51.1537Z" fill="#1E6E67"/>
<path fill-rule="evenodd" clip-rule="evenodd" d="M61.1132 255.073C58.4359 254.751 56.2941 253.498 54.7591 251.245C54.2951 250.601 54.0809 249.814 54.5093 249.098C54.9376 248.347 55.7586 248.419 56.4726 248.562C56.8296 248.597 57.2579 248.669 57.5435 248.884C59.2569 249.957 60.9704 251.03 62.6481 252.175C63.3978 252.676 63.3978 253.498 63.1122 254.25C62.7552 255.144 61.8985 255.108 61.0775 255.073H61.1132Z" fill="#1E6E67"/>
<path fill-rule="evenodd" clip-rule="evenodd" d="M146.679 247.274C146.786 245.557 147.178 243.732 148.606 242.122C149.284 241.371 149.927 241.407 150.712 241.586C151.569 241.764 152.14 242.337 152.14 243.16C152.176 245.27 151.855 247.345 150.355 249.027C149.713 249.742 148.856 250.028 147.892 249.742C146.928 249.42 146.679 248.955 146.679 247.309V247.274Z" fill="#1E6E67"/>
<path fill-rule="evenodd" clip-rule="evenodd" d="M118.192 248.096C119.085 248.096 119.942 248.168 120.299 249.17C120.62 250.1 120.227 251.28 119.263 251.817C118.014 252.497 116.693 252.998 115.408 253.57C115.087 253.713 114.837 253.963 114.551 254.107C113.945 254.393 112.517 254.071 112.16 253.606C111.767 253.069 111.767 251.71 112.302 251.102C113.873 249.313 115.801 248.24 118.192 248.061V248.096Z" fill="#1E6E67"/>
<path fill-rule="evenodd" clip-rule="evenodd" d="M156.567 180.805C156.567 182.593 155.603 183.202 154.068 182.522C153.889 182.45 153.747 182.379 153.604 182.271C151.819 181.198 149.998 180.125 148.214 178.98C147.821 178.73 147.321 178.014 147.428 177.692C147.571 177.191 148.142 176.726 148.606 176.476C149.392 176.082 150.177 176.19 150.998 176.583C152.462 177.299 154.104 177.656 155.389 178.694C156.103 179.266 156.709 179.874 156.567 180.805Z" fill="#1E6E67"/>
<path fill-rule="evenodd" clip-rule="evenodd" d="M135.47 196.223C135.041 196.223 134.577 196.188 134.185 196.08C133.364 195.866 133.007 195.043 133.364 194.292C133.792 193.397 134.47 192.789 135.398 192.431C136.541 192.038 137.683 191.644 138.825 191.322C140.075 190.965 141.217 191.251 142.181 192.109C142.895 192.717 142.859 193.576 142.109 194.113C141.645 194.435 141.074 194.685 140.539 194.828C138.861 195.365 137.326 196.331 135.505 196.223H135.47Z" fill="#1E6E67"/>
<path fill-rule="evenodd" clip-rule="evenodd" d="M123.154 201.983C121.869 201.983 121.405 201.411 121.619 200.481C121.691 200.159 121.834 199.837 122.012 199.622C123.904 197.69 125.903 195.973 128.902 196.223C129.651 196.295 130.437 197.225 130.258 197.905C130.151 198.263 130.008 198.692 129.758 198.907C128.437 200.051 127.224 201.268 125.332 201.482C124.511 201.59 123.69 201.876 123.154 201.983Z" fill="#1E6E67"/>
<path fill-rule="evenodd" clip-rule="evenodd" d="M122.048 186.886C121.619 187.781 121.37 188.603 120.87 189.212C119.942 190.392 118.942 191.573 117.8 192.61C117.157 193.183 116.051 193.505 115.408 192.825C115.016 192.396 115.051 191.287 115.265 190.643C115.979 188.532 117.264 186.743 119.156 185.527C119.62 185.241 120.477 185.133 120.941 185.348C121.441 185.598 121.655 186.35 122.012 186.922L122.048 186.886Z" fill="#1E6E67"/>
<path fill-rule="evenodd" clip-rule="evenodd" d="M101.558 211.499C101.451 210.819 101.843 210.247 102.45 209.818C103.914 208.816 105.342 207.85 107.055 207.385C107.769 207.17 108.59 206.956 109.161 207.671C109.768 208.423 109.482 209.281 109.018 209.854C107.662 211.463 106.02 212.823 104.021 213.574C102.45 214.146 101.486 213.288 101.558 211.499Z" fill="#1E6E67"/>
<path fill-rule="evenodd" clip-rule="evenodd" d="M135.577 242.086C133.792 242.086 133.078 241.013 133.899 239.797C134.399 239.01 135.184 238.402 135.862 237.722C136.148 237.436 136.576 237.221 136.862 236.935C137.861 236.076 139.039 236.005 140.253 236.076C140.896 236.076 141.717 237.829 141.431 238.437C140.896 239.546 139.968 240.19 139.039 240.906C137.861 241.836 136.541 241.8 135.577 242.051V242.086Z" fill="#1E6E67"/>
<path fill-rule="evenodd" clip-rule="evenodd" d="M126.474 248.633C124.547 248.633 124.011 247.846 124.439 245.986C124.725 244.805 125.617 244.412 126.367 243.768C127.474 242.802 128.687 242.015 130.187 241.8C131.008 241.657 131.293 242.015 131.365 242.802C131.472 244.769 130.187 247.095 128.509 247.882C127.866 248.204 127.188 248.383 126.51 248.633H126.474Z" fill="#1E6E67"/>
<path fill-rule="evenodd" clip-rule="evenodd" d="M86.922 215.613C88.5641 215.613 89.3494 216.007 89.5636 216.83C89.7778 217.76 89.1709 219.191 88.3142 219.513C86.8863 220.049 85.4584 220.55 83.9949 220.979C83.0668 221.266 82.3885 220.908 81.9958 220.121C81.5318 219.191 81.6746 218.082 82.3885 217.545C83.8878 216.472 85.5655 215.721 86.9577 215.613H86.922Z" fill="#1E6E67"/>
<path fill-rule="evenodd" clip-rule="evenodd" d="M150.07 188.496C150.784 188.496 151.319 188.46 151.89 188.496C153.283 188.675 154.032 190.178 153.175 191.215C152.819 191.644 152.212 191.895 151.641 192.038C150.141 192.431 148.642 192.682 147.143 193.004C146.25 193.218 145.108 192.753 144.822 192.074C144.501 191.287 144.93 190.034 145.751 189.569C147.143 188.782 148.571 188.174 150.106 188.46L150.07 188.496Z" fill="#1E6E67"/>
<path fill-rule="evenodd" clip-rule="evenodd" d="M92.2409 257.434C93.4903 257.434 94.7397 257.434 95.9891 257.434C96.3103 257.434 96.7744 257.434 96.9529 257.648C97.3455 258.006 97.9167 258.65 97.8096 258.936C97.524 259.58 97.0243 260.296 96.4174 260.582C94.9182 261.297 93.3118 261.583 91.6697 261.19C90.9558 261.047 90.1705 261.011 89.5279 260.725C89.1353 260.546 88.7783 260.045 88.6355 259.616C88.4213 259.008 88.7069 258.435 89.3494 258.185C90.2776 257.827 91.2414 257.541 92.2052 257.219C92.2052 257.291 92.2409 257.326 92.2766 257.398L92.2409 257.434Z" fill="#1E6E67"/>
<path fill-rule="evenodd" clip-rule="evenodd" d="M169.096 187.673C170.024 188.067 170.81 188.317 171.524 188.675C172.844 189.355 174.379 189.712 175.022 191.287C175.308 191.931 175.272 192.467 174.844 193.004C174.415 193.576 173.88 193.934 173.13 193.791C172.773 193.719 172.452 193.648 172.131 193.505C170.953 192.968 169.775 192.396 168.597 191.787C168.311 191.644 167.954 191.43 167.883 191.179C167.668 190.535 167.24 189.677 167.454 189.176C167.704 188.532 168.561 188.174 169.132 187.673H169.096Z" fill="#1E6E67"/>
<path fill-rule="evenodd" clip-rule="evenodd" d="M112.481 206.526C112.552 205.31 113.195 204.38 114.016 203.593C115.337 202.341 116.836 201.482 118.728 201.733C119.156 201.804 119.799 202.055 119.906 202.377C120.12 202.877 120.191 203.665 119.906 204.094C119.263 205.096 118.407 205.918 117.157 206.312C116.55 206.491 116.015 207.027 115.372 207.242C114.73 207.492 114.016 207.636 113.302 207.636C112.695 207.636 112.374 207.206 112.41 206.562L112.481 206.526Z" fill="#1E6E67"/>
<path fill-rule="evenodd" clip-rule="evenodd" d="M107.305 253.248C107.983 253.248 108.697 253.176 108.983 254.071C109.268 254.965 108.983 255.573 108.269 256.11C106.877 257.183 105.377 258.042 103.592 258.364C102.664 258.507 101.451 258.078 101.058 257.326C100.701 256.611 101.058 255.645 101.915 254.965C102.736 254.285 105.627 253.141 107.305 253.248Z" fill="#1E6E67"/>
<path fill-rule="evenodd" clip-rule="evenodd" d="M96.7743 212.25C97.4169 212.429 98.0951 212.501 98.6663 212.823C99.4873 213.252 99.5944 214.111 99.0589 214.826C98.2736 215.828 97.4169 216.687 96.0247 216.794C95.3822 216.865 94.7396 217.187 94.1328 217.402C93.276 217.688 92.1337 217.402 91.7411 216.722C91.3484 216.007 91.5983 214.79 92.3122 214.254C93.633 213.252 94.9895 212.358 96.81 212.25H96.7743Z" fill="#1E6E67"/>
<path fill-rule="evenodd" clip-rule="evenodd" d="M61.1488 227.634C60.3278 227.634 59.3997 226.811 59.1855 225.952C59.0427 225.344 59.721 224.092 60.5063 223.77C61.3273 223.412 62.2197 223.197 63.0408 222.947C63.3977 222.84 63.7904 222.768 64.1117 222.589C64.8256 222.232 65.5039 222.232 66.2178 222.482C66.7889 222.697 67.1459 223.054 67.0388 223.663C66.9317 224.235 66.7532 224.807 66.3963 225.237C65.6466 226.167 62.4696 227.812 61.1488 227.669V227.634Z" fill="#1E6E67"/>
<path fill-rule="evenodd" clip-rule="evenodd" d="M72.1435 260.188C71.7509 260.081 71.4296 260.009 71.144 259.938C69.966 259.652 68.8237 259.294 67.6457 259.043C66.3963 258.757 65.4325 257.112 65.7895 255.895C66.0037 255.216 66.5391 255.108 67.1103 255.216C68.6095 255.502 70.1445 255.681 71.5724 256.182C72.3934 256.468 73.1074 257.147 73.7856 257.72C74.2854 258.149 74.0712 259.401 73.4643 259.723C73.036 259.938 72.5362 260.045 72.1435 260.224V260.188Z" fill="#1E6E67"/>
<path fill-rule="evenodd" clip-rule="evenodd" d="M72.2862 224.092C71.8935 224.092 71.4295 224.092 71.0725 223.949C70.6085 223.734 70.0373 223.412 69.8945 222.983C69.6446 222.41 69.8945 221.838 70.5371 221.409C71.6437 220.622 72.786 220.049 74.2138 220.014C75.0349 220.014 75.8559 219.584 76.6769 219.548C77.141 219.548 78.0334 219.763 78.0691 220.049C78.2119 220.765 78.0691 221.552 77.9263 222.303C77.9263 222.482 77.6408 222.661 77.4266 222.768C75.8202 223.627 74.1425 224.235 72.2862 224.128V224.092Z" fill="#1E6E67"/>
<path fill-rule="evenodd" clip-rule="evenodd" d="M106.627 201.375C106.948 200.015 107.126 198.799 107.483 197.619C107.876 196.295 109.554 195.544 110.768 196.188C111.232 196.438 111.696 197.189 111.731 197.726C111.838 199.479 110.91 200.91 110.054 202.305C109.982 202.412 109.839 202.52 109.732 202.591C109.018 203.056 108.233 203.915 107.412 203.378C106.912 203.056 106.877 202.019 106.662 201.375H106.627Z" fill="#1E6E67"/>
<path fill-rule="evenodd" clip-rule="evenodd" d="M138.326 180.769C138.004 180.769 137.826 180.769 137.683 180.733C137.005 180.626 136.291 180.554 136.041 179.767C135.791 178.909 136.148 178.193 136.862 177.692C138.397 176.691 140.075 176.261 141.895 176.619C142.252 176.691 142.609 176.619 142.93 176.691C143.823 176.762 144.394 177.585 144.144 178.443C143.859 179.481 143.073 180.053 142.002 180.161C140.717 180.304 139.432 180.59 138.29 180.769H138.326Z" fill="#1E6E67"/>
<path fill-rule="evenodd" clip-rule="evenodd" d="M50.8681 224.986C52.1532 224.986 53.474 224.986 54.7591 224.986C55.5087 224.986 56.1155 225.38 56.2583 226.202C56.4011 226.918 55.7229 227.955 54.9375 228.17C54.4021 228.313 53.7952 228.385 53.2241 228.42C52.1889 228.492 51.118 228.671 50.0828 228.599C48.7977 228.492 48.1908 227.777 48.2622 226.811C48.3336 225.809 49.2617 224.986 50.3683 224.915C50.5468 224.915 50.7253 224.915 50.9038 224.915V224.986H50.8681Z" fill="#1E6E67"/>
<path fill-rule="evenodd" clip-rule="evenodd" d="M166.74 277.396C166.776 278.72 166.169 279.864 165.455 280.973C164.92 281.832 164.063 281.868 163.206 281.725C162.457 281.582 162.1 280.973 161.957 280.294C161.636 278.684 162.064 277.181 163.099 275.965C163.777 275.214 164.706 274.82 165.705 275.214C166.633 275.571 166.74 276.466 166.705 277.432L166.74 277.396Z" fill="#1E6E67"/>
<path fill-rule="evenodd" clip-rule="evenodd" d="M82.4241 261.118C81.9958 261.19 81.5674 261.226 81.139 261.261C80.9606 261.261 80.7821 261.333 80.6393 261.261C79.7826 260.868 78.9258 260.474 78.0334 260.045C77.2838 259.687 77.3195 259.043 77.3909 258.364C77.4623 257.756 77.9263 257.612 78.4975 257.612C79.6755 257.612 80.8535 257.434 82.0315 257.505C82.7097 257.541 83.3523 257.899 83.9591 258.221C84.673 258.578 85.1014 259.258 84.8515 260.045C84.6373 260.725 84.0305 261.154 83.2452 261.154C82.9953 261.154 82.7454 261.154 82.4598 261.19C82.4598 261.19 82.4598 261.118 82.4598 261.083L82.4241 261.118Z" fill="#1E6E67"/>
<path fill-rule="evenodd" clip-rule="evenodd" d="M193.192 90.3307C193.192 90.3307 193.049 90.1876 192.978 90.2233C191.942 90.4738 190.943 90.7242 189.908 90.9746C189.301 91.1177 188.694 91.2608 188.123 91.5112C187.623 91.7259 186.802 91.4755 186.623 92.334C186.623 92.4771 186.231 92.5845 186.017 92.6202C184.553 92.7633 183.268 93.1926 182.09 94.087C181.59 94.4805 181.305 94.087 181.126 93.6577C180.626 92.3698 180.198 91.0462 179.627 89.7583C178.699 87.6476 177.664 85.6084 176.664 83.5335C176.486 83.14 176.378 82.7107 176.2 82.3172C175.379 80.4569 174.594 78.5966 173.737 76.7721C172.273 73.624 170.774 70.5116 169.346 67.3634C168.168 64.7161 167.24 61.9257 165.776 59.4215C164.67 57.4896 164.242 55.2001 162.742 53.4471C162.385 53.0178 162.671 52.0161 162.707 51.2649C162.778 49.333 162.885 47.3654 162.956 45.5767C163.456 46.0418 164.17 46.6499 164.813 47.2939C165.562 48.0809 166.312 48.3313 166.954 47.9736C167.74 47.5085 167.847 46.793 167.454 45.6483C166.847 43.7164 165.527 42.3212 164.099 40.9976C163.563 40.4967 163.171 39.8886 162.742 39.3162C162.635 39.1731 162.528 38.9226 162.421 38.9226C161.35 38.9942 161.136 38.1356 160.922 37.4201C160.458 35.9891 159.601 34.8086 158.78 33.5922C158.352 32.9483 157.995 32.2328 157.638 31.5531C157.566 31.41 157.423 31.2311 157.316 31.1953C156.388 31.088 155.888 30.2652 155.174 29.8359C154.639 29.5497 153.961 29.3708 153.354 29.3351C152.033 29.2635 150.712 29.2635 149.392 29.3351C147.75 29.4424 146.072 29.5855 144.573 30.4441C144.465 30.5156 144.251 30.4083 144.323 30.4083C143.751 31.1953 143.216 31.8393 142.752 32.519C142.466 32.9841 141.788 33.1987 141.931 33.9858C141.931 34.0573 141.395 34.3435 141.074 34.3793C140.217 34.4866 139.254 34.272 138.54 34.5939C137.719 34.9517 137.076 35.7745 136.398 36.4542C136.291 36.5615 136.327 36.9193 136.398 37.0981C136.648 37.6705 138.183 38.3145 138.825 38.2072C139.289 38.1356 139.789 38.0998 140.289 38.0641C140.289 39.4593 140.217 40.7114 140.289 41.9635C140.36 43.144 140.432 44.3246 140.967 45.4694C141.288 46.1849 141.253 47.0435 141.431 47.8663C141.574 48.5818 141.752 49.2973 141.931 50.0485C142.359 51.9804 143.395 53.7333 144.144 55.522C144.216 55.6651 144.216 55.844 144.251 56.0229C144.323 56.7384 144.644 57.275 145.072 57.8832C145.643 58.6344 146.072 59.6003 146.322 60.5305C146.75 62.2834 146.964 64.0722 147.285 65.8251C147.321 66.0397 147.571 66.2544 147.714 66.469C147.999 66.9699 148.356 67.3992 147.892 68.0431C147.785 68.222 147.999 68.6513 148.107 68.9375C148.392 69.6172 148.713 70.2969 148.963 71.0124C149.606 72.8727 150.498 74.733 150.784 76.629C150.998 77.9527 151.676 79.0617 151.855 80.3496C151.997 81.2082 152.39 81.9952 152.64 82.818C152.818 83.3546 152.89 83.927 153.068 84.4636C153.283 85.1434 153.425 85.8946 153.818 86.4312C154.639 87.4687 154.71 88.6493 154.996 89.8298C155.103 90.3664 155.424 90.8673 155.639 91.3681C155.924 92.0479 156.21 92.7633 156.46 93.4431C156.852 94.5163 156.745 95.7684 157.602 96.7343C157.816 96.9847 157.816 97.3783 157.923 97.736C158.494 99.3816 159.065 101.027 159.672 102.673C159.886 103.281 159.494 104.14 158.637 104.748C158.209 105.034 157.673 105.177 157.352 105.499C155.674 107.145 153.318 107.037 151.391 107.968C150.141 108.54 148.856 109.112 147.607 109.685C147.464 109.756 147.25 109.864 147.107 109.864C145.643 109.542 144.573 110.508 143.287 110.901C141.752 111.33 140.217 111.831 138.718 112.332C138.147 112.511 137.647 112.797 137.076 112.94C131.4 114.264 125.725 115.659 120.013 116.804C115.801 117.627 111.517 118.127 107.269 118.664C105.163 118.915 103.021 118.879 100.879 118.915C100.38 118.915 99.8443 118.593 99.3445 118.414C98.8805 118.271 98.4164 118.092 97.9524 118.02C96.7744 117.841 95.5964 117.662 94.8467 116.625C94.347 115.981 93.99 115.23 93.5259 114.55C92.8834 113.584 92.2408 112.618 91.4912 111.724C89.7064 109.47 88.7069 106.823 87.7073 104.175C87.279 103.031 86.7078 101.922 86.2438 100.741C85.5655 99.0954 84.923 97.4498 84.3161 95.8042C83.9235 94.6952 83.5665 93.5504 83.3166 92.4056C82.6741 89.7941 82.1029 87.1467 81.4604 84.5352C81.1034 83.0684 80.568 81.6732 80.1753 80.2065C79.854 78.9901 79.5684 77.738 79.2472 76.5217C78.8545 75.0549 78.3904 73.5882 77.9978 72.1214C77.6408 70.7978 77.498 69.3668 76.9983 68.1147C76.2129 66.1113 75.9631 64.0364 75.4276 61.9972C74.7851 59.6719 74.0354 57.3108 73.964 54.9139C73.9283 53.0536 73.4643 51.1218 74.2139 49.2615C74.5352 48.4744 74.4281 47.5085 74.7137 46.7215C75.1063 45.5052 75.3205 44.11 76.4985 43.2514C76.8912 42.9652 77.2124 42.5001 77.498 42.1066C78.0692 41.3911 78.7831 41.1049 79.6398 40.8187C81.032 40.3536 82.3528 39.6739 83.6022 38.8511C85.8511 37.3486 88.2428 36.168 90.7773 35.2021C91.0272 35.0948 91.2056 34.9517 91.4555 34.8086C91.9196 34.5581 92.4193 34.2362 92.9191 34.0573C94.1685 33.5207 95.4179 33.0556 96.6673 32.5548C96.7744 32.519 96.8814 32.4117 96.9885 32.4117C98.5235 32.3044 99.6301 31.3742 100.879 30.6587C101.165 30.5156 101.486 30.5156 101.808 30.4083C102.45 30.1937 103.093 29.8717 103.735 29.7286C106.056 29.1562 107.912 27.5106 110.411 27.3317C111.196 27.2601 111.946 26.6877 112.731 26.3658C113.623 26.008 114.587 25.6861 115.444 25.2925C116.586 24.7559 117.693 24.112 118.835 23.5396C118.978 23.468 119.192 23.5396 119.335 23.468C119.835 23.2892 120.334 23.1103 120.87 22.9314C122.762 22.2517 124.618 21.572 126.51 20.928C127.01 20.7492 127.545 20.6776 128.045 20.5345C128.652 20.3556 129.259 20.2126 129.865 19.9979C130.686 19.7475 131.507 19.4613 132.328 19.1751C132.578 19.1035 132.793 19.032 133.042 18.9604C133.578 18.7816 134.113 18.6027 134.649 18.4238C135.755 18.0661 136.862 17.7441 137.933 17.3506C139.361 16.8497 140.753 16.3131 142.145 15.7765C142.681 15.5619 143.216 15.4188 143.787 15.2399C144.394 15.061 145.037 14.9537 145.608 14.7033C147.5 13.952 149.356 13.165 151.212 12.3422C152.033 11.9844 152.854 11.5193 153.711 11.1974C154.318 10.9827 154.996 10.9827 155.603 10.8038C156.138 10.625 156.638 10.3388 157.138 10.0884C157.245 10.0526 157.316 9.90948 157.423 9.90948C158.994 9.98103 160.136 8.7647 161.564 8.44273C163.242 8.08498 164.955 7.76301 166.633 7.47681C168.882 7.11907 171.167 6.83287 173.451 6.43935C175.236 6.11738 177.021 5.61654 178.806 5.29457C179.698 5.11569 180.626 5.18724 181.519 5.04414C182.518 4.90105 183.482 4.65062 184.482 4.43598C184.553 4.43598 184.66 4.36443 184.732 4.36443C187.088 4.2571 189.479 4.11401 191.871 4.00668C192.656 3.97091 193.442 4.00668 194.227 3.89936C195.155 3.79203 195.833 4.18555 196.369 4.86527C197.154 5.86696 197.832 6.94019 198.582 7.97766C198.618 8.04921 198.689 8.12075 198.76 8.15653C199.26 8.7647 200.01 9.12244 200.081 10.1957C200.117 11.0185 200.867 11.8055 201.223 12.6641C201.366 12.9503 201.402 13.2723 201.473 13.5943C201.473 13.7374 201.473 13.952 201.545 13.9878C202.33 14.1667 202.116 14.8821 202.223 15.383C202.437 16.3131 202.437 17.279 202.723 18.1734C203.044 19.1035 203.615 19.9621 204.044 20.8207C204.151 21.0711 204.329 21.3931 204.258 21.6078C204.079 22.2875 204.543 22.6452 204.829 23.1103C205.293 23.9331 205.614 24.8632 205.864 25.7934C206.292 27.3675 206.649 28.9415 207.006 30.5156C207.113 31.088 207.042 31.6604 207.149 32.2328C207.363 33.4849 207.649 34.737 207.899 36.0249C208.042 36.7404 208.149 37.4917 208.256 38.2072C208.577 39.8886 208.934 41.5342 209.184 43.2156C209.398 44.6108 209.469 46.0418 209.684 47.4728C209.826 48.546 210.148 49.6192 210.326 50.6925C210.469 51.6584 210.576 52.6601 210.719 53.6618C210.862 54.8781 211.04 56.1302 211.183 57.3465C211.361 58.7775 211.54 60.2085 211.754 61.6395C211.897 62.7843 212.147 63.8933 212.325 65.0381C212.504 66.3617 212.539 67.7212 212.789 69.0448C213.075 70.7262 213.539 72.4076 213.896 74.089C214.003 74.5899 214.074 75.1265 214.181 75.6273C214.289 76.2713 214.431 76.9152 214.574 77.5949C214.431 78.06 214.074 78.6682 214.181 79.169C214.36 80.1349 213.789 80.7431 213.289 81.2439C212.932 81.6017 212.896 81.9237 212.825 82.2814C212.682 82.8896 212.611 83.3189 211.897 83.7124C211.004 84.1774 210.148 84.6783 209.148 84.9287C207.934 85.2507 206.614 85.3938 205.579 86.002C203.401 87.3256 200.831 87.3256 198.618 88.3988C197.904 88.7208 197.225 89.1501 196.476 89.4005C195.655 89.651 194.762 89.6867 193.906 89.8298C193.691 89.8656 193.549 90.0802 193.334 90.2233C193.334 90.2949 193.406 90.4022 193.442 90.4738L193.192 90.3307ZM130.187 94.6594C131.008 95.2676 131.722 96.1262 132.935 95.6969C133.007 95.6969 133.114 95.6969 133.185 95.7326C133.721 95.8757 134.292 96.1619 134.827 96.1262C135.434 96.0546 136.148 95.84 136.612 95.4464C137.362 94.8025 136.826 93.1926 135.898 92.7276C135.327 92.4414 134.72 92.2983 134.185 91.9405C132.4 90.8315 131.4 89.2574 131.222 87.1467C131.15 86.3955 130.686 86.002 129.972 85.8946C128.509 85.68 127.188 86.7174 127.152 88.22C127.117 90.116 126.224 91.5828 124.939 92.8349C123.833 93.9081 123.047 95.1245 122.405 96.4481C121.905 97.4498 122.155 98.2726 123.047 98.523C124.547 98.9881 126.046 98.9166 127.367 97.9149C127.831 97.5571 128.259 97.1278 128.652 96.7701C128.652 96.4839 128.545 96.1262 128.652 95.983C129.08 95.518 129.544 95.1602 130.115 94.6594H130.187ZM143.502 83.8197C144.073 83.4977 144.787 83.3189 144.858 82.9969C145.144 81.7806 146.215 81.2439 146.928 80.3853C147.892 79.169 148.785 78.1316 148.214 76.4144C147.857 75.2696 147.464 74.9834 146.322 75.4127C145.251 75.842 144.287 76.4501 143.644 77.4518C143.145 78.2389 142.431 78.2389 141.717 77.9527C141.146 77.738 140.646 77.3803 140.146 77.0583C139.218 76.4501 137.612 76.951 137.647 77.9169C137.683 78.9544 137.897 79.9918 138.825 80.7431C139.611 81.3513 140.289 82.1025 141.11 82.6391C141.788 83.1042 142.645 83.3904 143.466 83.7839L143.502 83.8197ZM116.086 55.3789C115.836 54.5203 115.765 53.8406 115.48 53.2682C114.694 51.6942 113.802 51.6226 112.41 52.6601C111.053 53.6975 110.732 55.2001 110.161 56.631C109.554 58.0978 109.554 59.6003 110.161 61.0671C110.553 61.9615 111.41 62.2476 112.16 62.1761C112.659 62.1761 113.195 61.4964 113.516 60.9955C114.087 60.1012 114.516 59.0995 114.944 58.0978C115.372 57.1677 115.694 56.2375 116.051 55.3789H116.086ZM105.734 102.458C106.27 102.422 106.769 102.458 107.269 102.315C108.304 102.065 108.626 101.564 108.019 100.705C107.305 99.7036 106.341 98.9166 105.449 98.058C105.235 97.8433 105.02 97.7002 104.806 97.4498C103.735 96.1977 102.879 94.7309 101.022 94.409C100.023 94.2659 99.2374 94.8025 99.1303 95.84C99.0233 96.949 99.2731 97.9507 100.023 98.7735C100.38 99.167 100.772 99.5247 101.058 99.9898C102.093 101.85 103.842 102.351 105.734 102.458ZM107.448 69.1164C107.662 70.0465 107.912 71.1555 108.197 72.2645C108.34 72.8369 108.626 73.3735 108.769 73.9459C109.09 75.0549 110.018 75.6631 111.16 75.4485C111.981 75.2696 112.338 74.4825 112.195 73.3378C112.124 72.8369 112.124 72.3361 112.088 71.8352C112.017 70.2254 111.981 68.6155 111.874 67.0057C111.803 65.9324 111.125 65.0381 110.375 65.0023C109.34 64.9307 108.162 65.1812 107.84 66.6121C107.662 67.3634 107.555 68.1505 107.412 69.1521L107.448 69.1164ZM122.797 44.8612C122.655 43.466 122.048 42.8936 120.727 42.9294C119.156 42.9294 118.014 43.8238 117.05 44.8612C116.336 45.6483 115.872 46.7215 115.301 47.6159C114.444 48.9753 115.301 50.764 116.836 50.764C117.55 50.764 118.3 50.442 118.942 50.0843C120.441 49.1899 121.227 47.6516 122.226 46.2922C122.512 45.8987 122.583 45.3263 122.762 44.8612H122.797ZM101.629 85.8589C101.629 85.5727 101.629 85.2865 101.629 84.9645C101.629 83.927 100.915 83.2473 99.88 83.3189C98.9519 83.3546 98.1665 83.7482 97.5597 84.5352C96.4888 86.0019 96.5602 87.6833 96.5602 89.329C96.5602 90.7957 97.167 91.547 98.4878 91.6543C99.9871 91.7617 101.094 91.0104 101.272 89.6867C101.415 88.3988 101.486 87.1467 101.629 85.8589ZM99.0947 104.068C97.0956 104.319 94.7039 105.106 92.812 107.145C92.0981 107.932 92.2051 108.504 93.0976 109.077C94.0614 109.685 95.1323 109.577 96.1318 109.255C97.0242 109.005 97.881 108.683 98.7377 108.218C99.7729 107.646 100.808 107.145 101.736 106.429C101.95 106.25 102.093 105.75 102.022 105.463C101.843 104.462 101.201 104.104 99.0947 104.104V104.068ZM133.364 38.4934C133.364 37.4559 132.65 36.2753 131.936 36.3111C131.115 36.3111 130.258 36.4542 129.437 36.6331C129.08 36.7046 128.83 37.277 128.509 37.3128C127.01 37.4559 126.403 38.6364 125.653 39.6739C125.082 40.4609 125.332 41.6773 126.046 42.3212C126.617 42.8221 127.581 42.7505 128.366 42.2139C129.223 41.6057 130.151 41.1049 131.186 40.7829C132.578 40.3894 133.399 39.495 133.364 38.4934ZM119.263 99.7752C118.799 99.8467 118.335 99.8467 117.871 99.954C116.872 100.24 115.872 100.562 114.873 100.884C114.087 101.135 113.302 101.349 112.552 101.671C111.589 102.065 111.053 103.281 111.624 103.746C112.088 104.14 112.731 104.462 113.302 104.497C114.659 104.569 116.051 104.497 117.371 104.032C118.228 103.71 119.192 103.675 120.049 103.353C121.013 102.959 121.262 102.208 121.013 101.099C120.727 99.954 120.513 99.7751 119.228 99.7394L119.263 99.7752ZM132.9 77.0225C132.9 77.0225 132.614 77.0225 132.436 77.0583C130.686 77.273 129.687 78.5608 128.83 79.8845C128.366 80.6 128.152 81.6017 128.081 82.496C127.973 83.4262 128.545 83.9628 129.401 83.7482C130.365 83.4977 131.293 82.9253 132.15 82.3887C132.864 81.9594 133.435 81.3155 134.149 80.8504C135.113 80.2065 135.434 79.5625 135.184 78.6682C134.792 77.3087 134.47 77.0583 132.9 77.0225ZM143.823 108.111C144.929 107.753 146.072 108.111 147 107.18C147.428 106.751 147.821 106.465 147.642 105.821C147.464 105.07 146.893 105.034 146.322 104.927C145.858 104.855 145.394 104.676 144.929 104.533C144.644 104.426 144.358 104.319 144.037 104.247C143.002 104.104 142.002 103.997 140.967 103.782C138.897 103.317 137.754 105.284 138.29 106.715C138.397 107.002 138.718 107.395 139.004 107.431C140.574 107.717 142.181 107.896 143.787 108.111H143.823ZM170.631 62.2834C170.774 63.2851 170.774 64.3583 171.06 65.3243C171.309 66.2544 171.774 67.1488 172.345 67.9716C172.773 68.5797 173.594 68.8302 174.201 68.3651C174.594 68.0789 174.736 67.3634 174.808 66.791C174.915 66.1471 174.772 65.4674 174.879 64.8234C175.093 63.3567 174.736 61.9972 174.058 60.7451C173.88 60.4231 173.344 60.1369 172.952 60.1012C171.666 59.9581 170.524 60.28 170.631 62.2834ZM132.721 106.501C133.399 106.215 134.185 106.107 134.756 105.678C136.041 104.712 135.791 103.245 134.292 102.888C132.507 102.458 130.651 102.279 128.794 102.101C127.759 101.993 126.903 102.744 126.76 103.531C126.581 104.462 126.938 105.034 128.259 105.428C129.687 105.857 131.15 106.143 132.721 106.501ZM173.487 55.7367C173.665 54.4488 173.094 53.1609 172.273 52.0161C171.881 51.4437 171.274 50.9429 170.631 50.6209C169.703 50.1558 168.846 50.6209 168.775 51.4795C168.561 53.7333 169.489 55.6651 170.917 57.3108C171.274 57.7401 172.202 57.9905 172.773 57.8832C173.523 57.7758 173.523 56.953 173.487 56.2733C173.487 56.166 173.487 56.0587 173.487 55.7009V55.7367ZM102.45 81.0651C102.914 80.8862 103.485 80.8146 103.878 80.5284C104.592 80.0276 105.27 79.4552 105.877 78.847C106.984 77.8096 106.877 76.2355 105.591 75.3769C105.306 75.1623 104.77 75.0549 104.485 75.198C102.736 75.9493 101.308 76.9868 100.879 79.0259C100.594 80.4569 100.951 80.922 102.45 81.0651Z" fill="white"/>
<path opacity="0.8" fill-rule="evenodd" clip-rule="evenodd" d="M152.319 112.189C152.462 112.582 152.569 112.904 152.676 113.191C153.14 114.264 153.354 115.409 153.247 116.589C153.247 116.983 153.568 117.376 153.64 117.806C153.747 118.736 153.711 119.666 153.782 120.596C153.818 121.133 153.961 121.669 154.068 122.242C154.068 122.349 154.139 122.456 154.139 122.564C154.282 123.887 154.425 125.247 154.496 126.57C154.568 127.822 154.603 129.11 154.675 130.613C154.818 130.291 154.853 130.148 154.889 130.005C154.96 130.005 155.032 130.005 155.139 130.005C155.067 130.506 154.996 131.042 154.996 131.543C154.996 132.151 154.996 132.759 155.067 133.367C155.139 133.94 155.353 134.548 155.317 135.12C155.282 135.657 154.818 136.158 155.496 136.516C155.317 137.017 155.21 137.482 155.032 137.982H155.531C155.424 138.555 155.282 139.127 155.282 139.7C155.21 141.238 154.71 141.918 153.247 142.275C151.284 142.74 149.32 143.349 147.321 143.635C145.429 143.885 143.502 143.778 141.61 143.849C140.182 143.885 138.754 143.921 137.326 144.064C136.148 144.171 134.97 144.493 133.792 144.601C132.507 144.708 131.222 144.636 129.937 144.636C128.866 144.636 127.759 144.636 126.688 144.601C125.046 144.601 123.369 144.529 121.727 144.601C120.584 144.636 119.478 144.851 118.407 144.958C117.943 146.747 118.014 147.105 119.014 147.677C119.085 147.713 119.156 147.82 119.228 147.82C120.763 147.606 122.155 148.429 123.69 148.357C125.296 148.25 126.938 148.357 128.652 148.357C128.652 148.965 128.759 149.538 128.652 150.11C128.295 151.541 128.58 152.9 128.902 154.26C129.187 155.476 128.759 155.977 127.581 155.762C127.367 155.727 127.117 155.727 126.903 155.762C125.189 156.049 123.476 156.371 121.798 156.657C119.335 157.086 116.907 157.515 114.444 157.909C113.159 158.123 111.838 158.195 110.553 158.445C108.019 158.911 105.52 159.483 102.986 159.948C101.986 160.127 100.951 160.055 99.9157 160.198C98.702 160.377 97.524 160.628 96.3103 160.842C95.0252 161.093 93.7402 161.272 92.4551 161.522C90.5631 161.916 88.6712 162.309 86.815 162.703C86.1724 162.846 85.4942 162.882 84.8873 162.989C83.5308 163.239 82.103 163.382 80.8536 163.847C78.3548 164.742 75.7846 165.135 73.2501 165.815C71.0726 166.387 68.8237 166.638 66.6462 167.174C65.0042 167.568 63.3978 168.069 61.7914 168.641C60.1851 169.214 58.5787 169.643 56.901 169.858C56.4369 169.929 56.0442 170.287 55.5802 170.466C54.9019 170.716 54.1523 170.859 53.4741 171.145C52.5102 171.575 51.6178 172.111 50.654 172.576C50.4398 172.684 50.1899 172.72 49.9401 172.755C50.0472 172.254 50.1186 171.861 50.1899 171.432C50.3327 170.466 50.5112 169.571 51.4393 168.999C51.6535 168.856 51.6892 168.355 51.6535 168.033C51.4393 166.852 51.9748 165.815 52.4388 164.849C53.0814 163.525 53.3313 162.13 53.4027 160.699C53.4741 160.735 53.5455 160.807 53.6168 160.842C53.7953 160.592 54.0452 160.413 54.188 160.127C54.4379 159.662 54.6521 159.197 54.9019 158.732C54.9733 158.589 55.1875 158.481 55.1875 158.41C54.7234 157.444 55.723 156.943 55.8657 156.192C55.9014 156.013 55.9014 155.834 55.9371 155.619C55.9371 155.44 55.9014 155.118 55.9371 155.118C56.7582 154.868 56.2227 154.045 56.6154 153.616C56.901 153.294 57.1508 152.865 57.4007 152.507C57.5078 152.328 57.722 152.149 57.7577 151.934C57.7934 151.541 57.6149 151.04 57.7934 150.754C58.3288 149.895 59.0071 149.108 59.5068 148.25C59.6853 147.856 59.8638 147.427 60.078 147.033C60.7205 145.96 61.4345 144.923 62.0413 143.814C62.2912 143.349 62.2555 142.74 62.5054 142.311C62.7196 141.918 63.1836 141.631 63.4692 141.274C63.612 141.131 63.6477 140.88 63.7191 140.666C63.7548 140.558 63.7191 140.415 63.7191 140.344C64.2188 139.592 64.8971 138.877 65.2183 138.054C65.8252 136.623 67.0746 135.657 67.7171 134.333C67.9313 133.904 68.2883 133.761 68.4311 133.511C68.8237 132.652 69.7875 132.151 69.8589 131.114C69.8589 131.006 69.9303 130.899 70.0017 130.863C71.2511 130.327 71.5367 128.967 72.3934 128.109C72.8218 127.679 73.3215 127.322 73.6785 126.821C74.0355 126.32 74.3211 125.748 74.4995 125.175C74.7494 124.424 75.6061 123.851 76.1773 124.066C77.1768 123.243 78.3191 122.599 79.0687 121.633C80.1039 120.31 81.5675 119.737 82.7812 118.7C84.1734 117.448 85.637 116.303 87.1005 115.122C87.5646 114.765 87.7431 114.729 88.1714 115.409C88.9211 116.661 89.3494 118.199 90.7773 118.986C91.1343 119.201 91.2057 119.88 91.5626 120.095C92.5979 120.739 93.6688 121.311 94.7754 121.777C95.7749 122.206 96.8458 122.456 97.881 122.707C98.2737 122.814 98.702 122.778 99.0947 122.778C101.915 122.778 104.735 122.778 107.555 122.742C108.626 122.742 109.697 122.42 110.732 122.528C112.874 122.742 114.908 122.063 117.015 122.027C118.157 122.027 119.263 121.526 120.37 121.24C120.691 121.168 121.013 121.168 121.334 121.133C121.619 121.133 121.976 121.24 122.191 121.097C122.905 120.632 123.726 121.025 124.475 120.739C125.261 120.453 126.046 120.095 126.831 119.916C127.866 119.666 128.973 119.594 130.008 119.272C131.829 118.736 133.614 118.092 135.434 117.519C136.005 117.34 136.684 117.412 137.29 117.269C137.647 117.197 137.969 116.911 138.29 116.732C138.397 116.661 138.504 116.553 138.611 116.518C139.968 116.124 141.36 115.766 142.716 115.337C144.216 114.872 145.715 114.335 147.214 113.835C148.321 113.477 149.463 113.155 150.57 112.797C151.212 112.582 151.855 112.368 152.497 112.189H152.319Z" fill="#E06765"/>
<path fill-rule="evenodd" clip-rule="evenodd" d="M158.494 112.869C159.28 112.69 160.243 112.726 160.85 112.296C162.171 111.295 163.992 110.865 164.884 109.22C165.205 108.611 165.848 108.111 165.955 107.502C166.062 106.751 165.884 105.928 165.634 105.177C165.348 104.319 165.063 103.496 165.277 102.566C165.384 102.029 165.205 101.421 164.991 100.884C164.242 98.9881 163.42 97.1279 162.635 95.2676C162.135 94.1228 161.671 92.9422 161.243 91.7975C161.136 91.5113 161.243 91.1893 161.136 90.9031C160.529 89.1144 159.886 87.3614 159.28 85.5727C159.065 84.893 158.958 84.2132 158.708 83.5335C158.316 82.353 157.816 81.2439 157.423 80.0634C157.066 78.9902 156.781 77.9169 156.495 76.8079C156.424 76.629 156.495 76.3786 156.424 76.1997C155.21 72.4434 153.997 68.7229 152.854 64.9665C152.426 63.6429 152.319 62.2119 151.926 60.8882C151.462 59.3499 150.962 57.8474 150.32 56.3806C149.499 54.4488 148.428 52.6243 147.75 50.6925C147.107 48.9038 146.857 46.9719 146.429 45.0759C146.25 44.3604 145.893 43.6091 145.893 42.8936C145.893 41.6415 146.107 40.3536 146.357 39.1015C146.607 37.7779 147 36.5258 147.393 35.2379C147.464 35.0232 147.642 34.737 147.821 34.6655C148.392 34.4866 148.356 33.7711 148.999 33.4849C150.32 32.8052 151.498 32.8052 152.462 33.9142C152.89 34.4151 153.425 34.7728 153.604 35.4883C153.675 35.8103 154.175 36.0249 154.389 36.3111C154.532 36.5258 154.568 36.8477 154.675 37.0982C154.782 37.3486 154.925 37.7779 155.103 37.8136C155.817 37.921 156.031 38.4934 156.138 39.03C156.317 39.8528 156.317 40.6756 156.46 41.4984C156.531 41.9277 156.674 42.3928 156.924 42.679C157.495 43.3229 157.316 43.9669 157.066 44.6108C156.995 44.7539 157.031 44.9686 157.031 45.1117C157.031 46.3638 157.102 47.6516 157.174 48.9395C157.209 50.6925 157.209 52.4812 157.352 54.2342C157.388 54.7708 157.709 55.4147 158.102 55.8082C158.637 56.3806 158.851 57.0246 159.101 57.7043C159.494 58.8133 159.994 59.8865 160.493 60.924C160.779 61.4964 161.279 61.9257 161.493 62.4981C161.921 63.7144 162.849 64.7519 163.206 65.8967C163.528 66.9341 164.027 67.8643 164.42 68.8302C164.92 69.975 165.634 70.9409 166.205 72.0141C166.847 73.2662 167.133 74.733 167.561 76.1282C167.704 76.5575 167.918 76.951 168.097 77.3803C168.382 78.06 168.668 78.7755 168.989 79.4195C169.667 80.7431 170.381 82.0668 171.06 83.3904C171.131 83.4977 171.202 83.5693 171.238 83.6766C171.738 85.4653 172.559 87.0752 173.594 88.6135C173.701 88.7924 173.665 89.0428 173.737 89.2575C173.88 89.7225 174.022 90.1876 174.201 90.6527C174.629 91.8332 175.093 92.978 175.557 94.1586C175.665 94.3732 175.772 94.5879 175.879 94.8383C176.021 95.0887 176.271 95.3749 176.236 95.6253C176.129 96.4124 176.486 96.9848 176.771 97.6645C177.342 98.9524 177.699 100.312 178.128 101.635C178.235 101.957 178.377 102.315 178.342 102.637C178.235 103.603 178.842 104.247 179.199 104.998C179.734 106.107 179.912 107.359 180.234 108.54C180.234 108.683 180.162 108.898 180.234 108.969C181.34 110.042 180.912 111.438 181.055 112.726C181.198 114.085 181.626 115.409 181.697 116.768C181.769 118.128 181.697 119.559 181.483 120.918C181.376 121.598 180.805 122.17 180.484 122.814C179.734 124.245 178.842 125.533 177.735 126.678C177.449 126.964 177.057 127.143 176.807 127.429C175.272 129.289 172.844 129.575 170.988 130.827C170.096 131.436 169.31 132.187 168.418 132.759C167.668 133.224 166.812 133.582 165.955 133.868C164.491 134.333 162.956 134.727 161.457 135.12C161.243 135.192 160.886 135.192 160.815 135.12C160.708 134.942 160.815 134.655 160.779 134.405C160.779 134.047 160.779 133.689 160.779 133.332C160.529 131.221 160.172 129.11 159.994 127C159.886 125.676 159.994 124.317 159.887 122.993C159.851 122.277 159.637 121.562 159.53 120.846C159.351 119.523 159.173 118.163 158.994 116.84C158.816 115.48 158.673 114.157 158.494 112.833V112.869Z" fill="white"/>
<path fill-rule="evenodd" clip-rule="evenodd" d="M130.187 94.6595C129.616 95.1603 129.116 95.5538 128.723 95.9831C128.58 96.1262 128.723 96.484 128.723 96.7702C128.33 97.1279 127.902 97.5572 127.438 97.9149C126.117 98.9166 124.618 98.9882 123.119 98.5231C122.226 98.2727 121.976 97.4141 122.476 96.4482C123.154 95.1245 123.94 93.9082 125.011 92.835C126.296 91.5828 127.188 90.1161 127.224 88.22C127.26 86.7175 128.58 85.68 130.044 85.8947C130.758 86.002 131.258 86.3955 131.293 87.1468C131.472 89.2575 132.471 90.8674 134.256 91.9406C134.792 92.2626 135.398 92.4414 135.97 92.7276C136.898 93.1927 137.433 94.8026 136.684 95.4465C136.219 95.84 135.506 96.0904 134.899 96.1262C134.363 96.1978 133.792 95.8758 133.257 95.7327C133.185 95.7327 133.078 95.6611 133.007 95.6969C131.793 96.162 131.043 95.3034 130.258 94.6595C130.187 94.6237 130.08 94.5879 130.258 94.6595H130.187Z" fill="#1E6E67"/>
<path fill-rule="evenodd" clip-rule="evenodd" d="M143.502 83.784C142.681 83.3904 141.824 83.1042 141.146 82.6392C140.325 82.1026 139.611 81.3513 138.861 80.7431C137.969 80.0276 137.754 78.9544 137.683 77.9169C137.647 76.951 139.254 76.4502 140.182 77.0583C140.682 77.3803 141.181 77.7738 141.752 77.9527C142.466 78.2031 143.18 78.2389 143.68 77.4519C144.287 76.4144 145.251 75.8062 146.357 75.4127C147.5 74.9476 147.892 75.2696 148.249 76.4144C148.82 78.1316 147.892 79.2048 146.964 80.3854C146.286 81.244 145.215 81.7806 144.894 82.9969C144.822 83.3189 144.073 83.4978 143.537 83.8197L143.502 83.784Z" fill="#1E6E67"/>
<path fill-rule="evenodd" clip-rule="evenodd" d="M116.086 55.3789C115.729 56.2375 115.408 57.1677 114.98 58.0978C114.551 59.0995 114.123 60.0654 113.552 60.9955C113.231 61.4964 112.659 62.1403 112.195 62.1761C111.446 62.2119 110.589 61.9615 110.196 61.0671C109.554 59.6003 109.59 58.0978 110.196 56.6311C110.768 55.2001 111.089 53.6975 112.445 52.6601C113.837 51.6226 114.73 51.6942 115.515 53.2682C115.801 53.8406 115.872 54.5204 116.122 55.3789H116.086Z" fill="#1E6E67"/>
<path fill-rule="evenodd" clip-rule="evenodd" d="M105.734 102.423C103.842 102.315 102.129 101.814 101.058 99.9542C100.808 99.5249 100.38 99.1313 100.023 98.7378C99.2731 97.915 99.0232 96.9133 99.1303 95.8043C99.2017 94.8026 100.023 94.2302 101.022 94.3733C102.878 94.6595 103.735 96.1263 104.806 97.4142C104.985 97.6288 105.234 97.8077 105.449 98.0223C106.305 98.8809 107.305 99.668 108.019 100.67C108.626 101.528 108.304 102.029 107.269 102.28C106.805 102.387 106.27 102.387 105.734 102.423Z" fill="#1E6E67"/>
<path fill-rule="evenodd" clip-rule="evenodd" d="M107.412 69.0806C107.59 68.0789 107.662 67.2919 107.84 66.5406C108.162 65.1097 109.34 64.895 110.375 64.9308C111.124 64.9666 111.803 65.8609 111.874 66.9342C111.981 68.544 112.017 70.1539 112.088 71.7637C112.088 72.2646 112.124 72.7654 112.195 73.2663C112.338 74.411 111.981 75.1981 111.16 75.377C110.018 75.5916 109.09 75.0192 108.768 73.8744C108.59 73.302 108.34 72.7654 108.197 72.193C107.912 71.084 107.662 70.0108 107.448 69.0449L107.412 69.0806Z" fill="#1E6E67"/>
<path fill-rule="evenodd" clip-rule="evenodd" d="M122.762 44.8255C122.583 45.2906 122.512 45.863 122.226 46.2565C121.227 47.6159 120.441 49.1542 118.942 50.0486C118.3 50.4063 117.55 50.7283 116.836 50.7283C115.265 50.7283 114.444 48.9396 115.301 47.5801C115.908 46.65 116.336 45.6125 117.05 44.8255C118.014 43.788 119.156 42.9295 120.727 42.8937C122.048 42.8937 122.655 43.4303 122.797 44.8255H122.762Z" fill="#1E6E67"/>
<path fill-rule="evenodd" clip-rule="evenodd" d="M101.593 85.8231C101.486 87.111 101.415 88.3989 101.236 89.651C101.058 91.0104 99.9513 91.7617 98.4521 91.6186C97.1313 91.5113 96.5244 90.76 96.5244 89.2932C96.5244 87.6118 96.453 85.9662 97.5239 84.4994C98.0951 83.7124 98.8804 83.3189 99.8442 83.2831C100.879 83.2116 101.558 83.8913 101.593 84.9287C101.593 85.2149 101.593 85.5011 101.593 85.8231Z" fill="#1E6E67"/>
<path fill-rule="evenodd" clip-rule="evenodd" d="M99.059 103.997C101.165 103.997 101.808 104.354 101.986 105.356C102.058 105.678 101.915 106.143 101.701 106.322C100.808 107.073 99.7372 107.574 98.702 108.111C97.8453 108.576 96.9886 108.898 96.0961 109.148C95.0966 109.47 94.0257 109.542 93.0619 108.969C92.1695 108.433 92.0624 107.824 92.7763 107.037C94.6326 105.034 97.0243 104.211 99.059 103.961V103.997Z" fill="#1E6E67"/>
<path fill-rule="evenodd" clip-rule="evenodd" d="M133.328 38.4219C133.364 39.4236 132.578 40.3179 131.15 40.7114C130.115 41.0334 129.223 41.4985 128.33 42.1424C127.545 42.7148 126.581 42.7506 126.01 42.2498C125.26 41.6058 125.046 40.3895 125.617 39.6024C126.331 38.565 126.938 37.3844 128.473 37.2413C128.794 37.2413 129.044 36.6331 129.401 36.5616C130.222 36.3827 131.043 36.2396 131.9 36.2396C132.614 36.2396 133.292 37.3844 133.328 38.4219Z" fill="#1E6E67"/>
<path fill-rule="evenodd" clip-rule="evenodd" d="M119.228 99.7036C120.513 99.7394 120.727 99.8825 121.013 101.063C121.298 102.172 121.013 102.923 120.049 103.317C119.192 103.639 118.228 103.675 117.371 103.997C116.051 104.462 114.659 104.533 113.302 104.462C112.731 104.462 112.088 104.068 111.624 103.71C111.053 103.245 111.589 102.029 112.552 101.635C113.302 101.313 114.087 101.099 114.873 100.848C115.872 100.526 116.872 100.169 117.871 99.9183C118.3 99.7752 118.799 99.7752 119.263 99.7394L119.228 99.7036Z" fill="#1E6E67"/>
<path fill-rule="evenodd" clip-rule="evenodd" d="M132.828 76.951C134.363 76.951 134.72 77.2372 135.113 78.5967C135.363 79.491 135.041 80.0992 134.078 80.7789C133.399 81.2798 132.792 81.8879 132.079 82.3172C131.222 82.8539 130.294 83.4262 129.33 83.6767C128.473 83.8913 127.902 83.3547 128.009 82.4246C128.08 81.5302 128.295 80.5285 128.759 79.813C129.615 78.4894 130.615 77.2372 132.364 76.9868C132.578 76.9868 132.757 76.9868 132.828 76.951Z" fill="#1E6E67"/>
<path fill-rule="evenodd" clip-rule="evenodd" d="M143.751 108.039C142.145 107.824 140.539 107.646 138.968 107.359C138.682 107.324 138.361 106.93 138.254 106.644C137.719 105.249 138.825 103.245 140.931 103.71C141.931 103.925 142.966 103.997 144.001 104.175C144.287 104.211 144.608 104.354 144.894 104.462C145.358 104.605 145.822 104.748 146.286 104.855C146.893 104.962 147.428 104.998 147.607 105.75C147.785 106.429 147.357 106.68 146.964 107.109C146.036 108.039 144.894 107.717 143.787 108.039H143.751Z" fill="#1E6E67"/>
<path fill-rule="evenodd" clip-rule="evenodd" d="M170.596 62.2119C170.489 60.2443 171.631 59.9224 172.916 60.0297C173.309 60.0655 173.844 60.3517 174.022 60.6736C174.701 61.9257 175.058 63.2852 174.844 64.7519C174.736 65.3959 174.879 66.0756 174.772 66.7195C174.701 67.2561 174.558 68.0074 174.165 68.2936C173.558 68.7229 172.702 68.5083 172.309 67.9001C171.774 67.1131 171.31 66.1829 171.024 65.2528C170.738 64.2869 170.738 63.2494 170.596 62.2119Z" fill="#1E6E67"/>
<path fill-rule="evenodd" clip-rule="evenodd" d="M132.65 106.429C131.079 106.072 129.615 105.785 128.188 105.356C126.867 104.963 126.51 104.39 126.688 103.46C126.831 102.673 127.688 101.922 128.723 102.029C130.579 102.208 132.436 102.387 134.22 102.816C135.755 103.174 135.97 104.641 134.684 105.607C134.113 106.036 133.328 106.179 132.65 106.429Z" fill="#1E6E67"/>
<path fill-rule="evenodd" clip-rule="evenodd" d="M173.416 55.701C173.416 56.023 173.416 56.1303 173.416 56.2734C173.416 56.9531 173.416 57.7759 172.702 57.8832C172.095 57.9548 171.202 57.7401 170.845 57.3109C169.453 55.6652 168.525 53.7334 168.704 51.4796C168.775 50.5852 169.632 50.1559 170.56 50.621C171.202 50.9072 171.809 51.4438 172.202 52.0162C173.023 53.1968 173.558 54.4847 173.416 55.7368V55.701Z" fill="#1E6E67"/>
<path fill-rule="evenodd" clip-rule="evenodd" d="M102.379 81.0293C100.879 80.8862 100.523 80.4211 100.808 78.9902C101.201 76.951 102.664 75.9136 104.413 75.1623C104.699 75.0192 105.235 75.1623 105.52 75.3412C106.805 76.1997 106.912 77.7381 105.806 78.8113C105.163 79.4195 104.521 79.9919 103.807 80.4927C103.414 80.7789 102.879 80.8504 102.379 81.0293Z" fill="#1E6E67"/>
</g>
<defs>
<clipPath id="clip0_125_21799">
<rect width="220" height="318" fill="white"/>
</clipPath>
</defs>
</svg>
