<svg width="24" height="16" viewBox="0 0 24 16" fill="none" xmlns="http://www.w3.org/2000/svg">
<path fill-rule="evenodd" clip-rule="evenodd" d="M23.2016 14.3171C22.3725 13.4034 21.2239 12.881 20.212 12.2044C19.7476 11.8892 19.2105 11.5783 18.5497 11.6397C18.2082 11.6675 17.7406 11.5422 17.4587 11.3474C15.6293 10.0703 13.5857 9.23649 11.6701 8.10315C10.9505 7.67184 10.3083 6.95126 9.60654 6.4532C8.01455 5.35888 6.87737 3.81406 5.37006 2.67089C4.23809 1.81907 3.01389 1.13333 1.80758 0.380834C1.48115 0.174127 1.12929 0.151394 0.861744 0.437427C0.548081 0.806496 0.0726012 1.15605 0.247183 1.75134C0.298887 2.00367 0.417387 2.27391 0.587961 2.43885C2.47741 4.47141 4.03847 6.74985 6.49562 8.26678C9.50027 10.145 12.4588 12.1063 15.5958 13.7577C17.7965 14.8959 20.1085 16.0639 22.7846 15.517C22.9424 15.1062 23.0942 14.7176 23.2298 14.3008L23.2016 14.3171Z" fill="#27716B"/>
</svg>
