<svg width="203" height="160" viewBox="0 0 203 160" fill="none" xmlns="http://www.w3.org/2000/svg">
<g clip-path="url(#clip0_35_13295)">
<path fill-rule="evenodd" clip-rule="evenodd" d="M66.3143 160C65.7057 158.176 65.6096 156.241 65.4174 154.354C65.3534 153.826 65.5936 153.17 65.5616 152.546C65.4014 149.971 65.6096 147.396 65.5135 144.82C65.4495 142.917 65.3053 140.998 65.7538 139.094C65.978 138.15 65.4014 137.239 65.3854 136.263C65.3854 135.831 65.2253 135.399 65.6417 135.079C65.8018 134.967 65.7057 134.919 65.6417 134.839C65.1772 134.152 65.3374 133.336 65.4975 132.664C65.6417 132.056 65.5296 131.56 65.4495 131.017C65.2893 129.833 65.3053 128.633 65.6096 127.466C65.6737 127.194 65.7057 126.938 65.7057 126.666C65.5936 123.787 65.4975 120.908 65.6737 118.028C65.7698 116.365 65.4975 114.685 65.4014 113.022C65.3694 112.526 65.6256 112.062 65.6256 111.534C65.5936 109.807 65.4495 108.095 65.6737 106.352C65.7377 105.92 65.4495 105.456 65.4495 104.944C65.4495 104.608 65.4495 104.273 65.5456 103.969C65.7217 103.377 65.7538 102.913 65.5295 102.241C65.2573 101.441 65.1452 100.418 65.5936 99.49C66.0581 98.5143 65.6577 97.5386 65.5295 96.5629C65.4335 95.7631 65.1132 95.5232 64.3284 95.1073C62.839 94.3236 61.2375 93.9877 59.732 93.3799C57.9543 92.6761 56.2407 91.7803 54.3349 91.3165C53.1017 91.0126 51.8365 90.4527 50.7315 89.669C50.0428 89.1891 49.178 88.9332 48.3612 88.6293C46.9839 88.1334 45.5746 87.7176 44.1812 87.2857C43.5567 87.0937 43.0442 86.5659 42.3555 86.374C40.722 85.9261 39.0884 85.3343 37.5509 84.6945C36.1096 84.0707 34.5721 83.7188 33.1628 82.951C30.9847 81.7833 28.6785 80.8556 26.4043 79.8639C25.3954 79.432 24.2903 79.1761 23.4095 78.4243C23.0572 78.1204 22.4646 78.2484 21.9681 78.0085C20.1744 77.1287 18.2846 76.4569 16.4268 75.7212C13.7363 74.6495 11.1098 73.3219 8.81961 71.5144C7.50636 70.4907 5.93687 70.1708 4.54355 69.451C3.59865 68.9712 2.74984 68.1714 1.56471 68.2354C1.51667 68.2354 1.45261 68.1874 1.38855 68.1874C0.924105 68.1394 0.23545 68.3314 0.139359 67.7555C0.0432677 67.2117 0.699892 66.9718 1.11629 66.6839C1.99713 66.108 2.92601 66.204 3.83888 66.5079C5.74469 67.1637 7.71456 67.7236 9.31609 68.9552C10.1649 69.595 11.1258 69.9309 11.9906 70.5227C13.8004 71.7383 15.8343 72.6181 17.8042 73.5618C20.2225 74.7135 22.8329 75.4172 25.2192 76.6329C26.4204 77.2567 27.7656 77.6246 28.9508 78.2004C30.0558 78.7442 31.3691 78.8722 32.2819 79.8639C32.6183 80.2318 33.2589 80.3278 33.7553 80.5517C35.6451 81.3835 37.5349 82.1992 39.5208 82.839C41.2665 83.3989 43.0922 83.8947 44.7898 84.7424C46.4714 85.5742 48.2011 86.4859 50.1229 86.7898C50.9237 86.9178 51.6443 87.3337 52.3811 87.7016C53.9666 88.5173 55.504 89.3811 57.2817 89.8449C58.1786 90.0688 59.2996 90.2288 60.0363 91.0286C60.1164 91.1245 60.3086 91.1405 60.4527 91.1725C62.3265 91.6364 64.2003 92.1162 65.8979 93.1079C66.6346 93.5398 67.4514 93.3159 68.1881 93.044C70.0939 92.3562 71.9997 91.6684 73.9536 91.0925C74.6582 90.8846 75.3469 90.5487 76.0035 90.2128C77.9574 89.2211 80.1675 88.8852 82.1053 87.9095C83.1944 87.3657 84.3314 86.9178 85.4365 86.4699C87.9028 85.4622 90.2891 84.2466 92.8996 83.5428C94.6292 83.0789 96.2468 82.1992 97.9284 81.5594C99.7061 80.8716 101.612 80.4237 103.245 79.496C104.767 78.6323 106.448 78.3604 107.97 77.5286C109.379 76.7608 110.885 75.9771 112.518 75.7371C113.255 75.6412 113.591 75.0014 114.248 74.7454C115.593 74.2336 116.922 73.5938 118.3 73.1299C120.654 72.3142 122.912 71.2745 125.266 70.4427C126.516 69.9949 127.765 69.3871 129.014 68.8912C129.991 68.4913 130.904 67.9635 131.945 67.6436C133.338 67.2277 134.683 66.5879 135.997 65.9641C136.493 65.7242 136.99 65.5162 137.518 65.3563C138.543 65.0364 139.44 64.5085 140.353 63.9327C140.817 63.6448 141.394 63.5008 141.922 63.3409C143.588 62.797 145.125 61.9813 146.791 61.4374C147.848 61.1015 148.905 60.5897 149.946 60.1258C151.003 59.646 152.156 59.3261 153.165 58.7662C154.494 58.0465 155.984 57.6306 157.217 56.6869C157.505 56.4629 157.905 56.367 158.258 56.239C160.276 55.5192 162.149 54.4955 164.055 53.5358C165.417 52.864 166.826 52.1442 168.411 51.9683C168.876 51.9203 169.228 51.6004 169.597 51.3285C170.077 50.9926 170.557 50.6887 171.166 50.7686C171.695 50.8326 171.935 50.3528 172.351 50.1608C173.6 49.617 174.898 49.1691 176.163 48.6253C177.444 48.0495 178.773 47.6016 180.038 47.0098C182.088 46.0501 184.298 45.3943 186.252 44.2906C187.486 43.5868 188.991 43.4428 190.016 42.3712C190.32 42.0672 190.785 42.2432 191.137 42.0353C191.746 41.6674 192.45 41.4594 193.027 40.9956C193.587 40.5477 194.372 40.4677 195.093 40.3238C196.502 40.0678 197.735 39.2521 199.177 39.0282C200.106 38.8842 200.938 39.2201 201.691 39.604C202.171 39.8439 201.691 40.4197 201.371 40.6117C200.666 41.0116 199.993 41.5234 199.177 41.6674C197.351 42.0193 195.701 42.867 193.924 43.4108C193.459 43.5548 193.123 44.0986 192.626 44.3066C191.185 44.9144 189.728 45.4582 188.286 46.098C187.101 46.6099 185.916 47.1217 184.827 47.7935C184.154 48.2094 183.434 48.3374 182.745 48.6253C180.727 49.489 178.693 50.2888 176.659 51.1045C174.561 51.9523 172.559 53.008 170.477 53.8237C168.251 54.6875 166.153 55.7751 163.927 56.6389C162.39 57.2307 160.964 58.0944 159.427 58.6703C157.201 59.502 155.135 60.6537 152.957 61.5814C151.275 62.3012 149.577 62.973 147.944 63.7887C147.127 64.2046 146.166 64.5085 145.269 64.8124C143.524 65.3883 141.97 66.3 140.273 66.9558C138.431 67.6596 136.653 68.5233 134.859 69.3231C132.938 70.1868 130.904 70.8746 128.918 71.6424C127.573 72.1542 126.275 72.794 124.898 73.2899C122.368 74.2016 119.933 75.3693 117.371 76.217C115.849 76.7129 114.44 77.6246 112.951 78.1684C111.766 78.6003 110.676 79.2081 109.507 79.688C108.466 80.1038 107.441 80.5837 106.384 81.0316C105.183 81.5434 103.998 82.0872 102.749 82.4871C101.772 82.807 100.907 83.3349 99.9143 83.6228C98.5209 84.0227 97.1917 84.6945 95.8144 85.1743C94.8214 85.5102 93.8765 86.118 92.8996 86.278C91.8105 86.4539 90.9617 87.1097 89.9207 87.3657C89.0239 87.5736 88.127 88.1014 87.2302 88.5013C84.2994 89.8129 81.3046 90.9326 78.2136 91.8123C77.8132 91.9243 77.605 92.2922 77.2687 92.5001C76.0676 93.1879 74.7543 93.5718 73.4251 93.8437C71.9997 94.1316 70.7665 94.9794 69.3092 95.1713C69.149 95.1873 69.0689 95.3473 69.0849 95.5232C69.197 96.6749 68.5724 97.8105 68.7967 98.8982C69.133 100.578 68.9248 102.241 68.9728 103.905C69.0369 106.48 69.117 109.071 69.0209 111.63C68.9568 113.39 69.3892 115.101 69.117 116.829C68.8127 118.748 68.8287 120.7 69.0209 122.619C69.2771 125.322 68.6365 127.977 68.8767 130.633C69.0049 132.136 68.8607 133.624 68.9088 135.095C69.0049 137.575 69.3091 140.086 68.8927 142.565C68.7967 143.093 69.0529 143.605 69.0369 144.165C68.9728 146.5 68.8767 148.835 69.0209 151.171C69.0849 152.258 68.9568 153.346 69.117 154.45C69.2931 155.793 69.2131 157.233 68.4603 158.512C68.06 159.2 67.5154 159.68 66.8108 160H66.4424H66.3143Z" fill="#29716B"/>
<path fill-rule="evenodd" clip-rule="evenodd" d="M108.867 33.6859C107.938 34.3736 106.865 33.9578 105.872 34.0537C104.271 34.1817 103.07 33.4619 101.788 32.5342C100.763 31.7984 99.7704 31.1106 99.0658 30.0709C98.6333 29.4311 98.5052 28.7433 98.6333 27.9916C98.9697 26.0082 98.9376 24.0088 98.8575 22.0094C98.8255 21.2256 98.233 20.7937 97.4642 20.6978C95.6865 20.4578 93.8928 20.2339 92.2753 19.3382C91.7468 19.0502 91.8269 18.8263 92.1151 18.4424C92.5636 17.8346 93.1401 17.6907 93.8448 17.7386C95.2701 17.8506 96.6154 18.4264 98.0087 18.5544C99.7544 18.7303 101.036 19.834 102.493 20.5538C104.062 21.3216 105.712 21.7054 107.346 22.2013C107.842 22.3453 108.451 22.2653 108.915 21.7854C109.556 21.1296 109.908 20.2979 110.1 19.4821C110.389 18.2825 111.013 17.3228 111.638 16.2991C112.438 14.9875 113.383 13.6279 113.415 11.9964C113.447 10.6528 114.312 9.70905 114.809 8.60538C115.145 7.83761 115.385 7.08583 115.081 6.30207C115.001 6.06214 115.017 5.90219 115.065 5.71025C115.241 4.8625 114.841 4.11073 114.665 3.32696C114.633 3.16701 114.52 3.02305 114.344 3.05504C113.528 3.15101 113.063 2.28727 112.262 2.30327C112.07 2.30327 111.862 2.06334 111.654 1.93538C111.205 1.63147 110.997 1.16761 111.141 0.671758C111.301 0.111926 111.862 0.015955 112.342 0.0479454C115.145 0.191902 117.275 2.04735 118.156 4.63857C118.364 5.26238 118.588 5.91819 118.62 6.57399C118.684 7.5497 118.588 8.5414 117.868 9.32516C117.804 9.38914 117.756 9.46912 117.74 9.5491C117.451 11.0846 116.346 12.3802 116.458 14.0118C116.458 14.2517 116.346 14.3796 116.266 14.5716C115.722 15.8992 114.857 17.0189 114.104 18.2185C114.008 18.3625 113.88 18.5224 113.864 18.6983C113.688 20.2979 112.743 21.5295 111.91 22.7931C111.622 23.225 111.654 23.337 112.038 23.6889C112.711 24.3127 113.399 24.9685 113.64 25.9282C113.704 26.1841 113.784 26.456 113.912 26.696C114.697 28.1195 114.168 29.5911 114.024 31.0466C113.944 31.9104 114.136 32.8221 114.056 33.6219C113.864 35.5413 115.529 36.1811 116.282 37.4127C116.506 37.7646 116.715 38.1325 116.971 38.4684C117.515 39.1722 117.948 39.972 118.7 40.5158C119.133 40.8357 119.373 41.2996 119.469 41.8274C119.645 43.0111 120.03 44.0028 121.327 44.4026C122.048 44.6266 122.432 45.3304 122.944 45.8262C123.633 46.482 124.53 46.7859 125.363 47.1058C127.188 47.8416 128.518 49.2972 130.215 50.2089C131.593 50.9447 132.986 51.6485 134.62 51.5525C135.292 51.5045 135.949 51.5525 136.621 51.5525C137.214 51.5525 137.678 51.8244 137.967 52.3203C138.639 53.4559 139.841 54.1277 140.914 54.3996C142.115 54.7195 143.38 55.0714 144.661 55.1514C146.695 55.2634 148.233 56.3031 149.482 57.8386C149.914 58.3665 149.754 58.6064 149.065 58.7983C148.537 58.9423 147.88 58.3025 147.464 59.0542C147.24 58.2865 146.455 58.5904 145.99 58.2865C145.238 57.8066 144.437 57.3907 143.556 57.1508C142.883 56.9589 142.195 56.9269 141.506 56.8469C140.817 56.7509 140.145 56.607 139.536 56.2391C138.784 55.7752 137.967 55.4553 137.086 55.2954C136.493 55.1994 136.141 54.7675 135.757 54.3996C135.292 53.9678 134.812 53.7598 134.171 53.6639C132.634 53.4399 130.904 53.5679 129.639 52.7042C127.877 51.5045 125.635 51.1206 124.162 49.4411C123.921 49.1532 123.521 48.9773 123.153 48.8333C122.128 48.3854 121.199 47.9216 120.478 46.9459C119.902 46.1941 118.764 45.9702 117.772 45.9382C116.266 45.8742 114.745 45.8262 113.351 46.594C112.887 46.8499 112.679 47.3298 112.23 47.6017C111.349 48.1295 110.308 48.3215 109.476 49.0253C108.643 49.713 107.474 49.6651 106.481 49.969C104.719 50.4968 102.925 50.2729 101.116 50.1609C99.5302 50.0649 97.8326 50.1609 96.2311 50.9287C95.11 51.4565 93.8768 51.9524 92.5315 51.9524C91.5866 51.9524 90.8179 52.5922 89.9211 52.8481C87.9191 53.4239 85.9333 53.9038 83.8673 54.1597C82.538 54.3357 81.2248 54.7515 79.8795 54.6236C78.4541 54.4956 77.0288 54.3357 75.8277 53.3759C75.3952 53.0241 74.7706 52.9761 74.1781 53.04C72.1762 53.328 70.3024 52.6402 68.3806 52.2563C68.2845 52.2403 68.2044 52.1923 68.1243 52.1763C67.4517 51.9684 67.0993 51.5205 67.1794 50.8167C67.2755 50.033 67.9962 50.3848 68.4126 50.2249C68.7649 50.0809 69.2614 50.1929 69.6618 50.3209C71.8399 51.0566 74.13 50.8327 76.3722 51.0886C77.285 51.1846 77.9256 51.7604 78.7424 52.0164C79.5752 52.2723 80.3439 52.4162 81.1767 52.2563C82.7943 51.9524 84.4599 51.9204 86.0774 51.5845C86.6379 51.4725 87.1824 51.2646 87.6789 51.0566C88.8801 50.5608 90.0652 50.001 91.3464 49.841C92.996 49.6491 94.4694 48.9933 96.0068 48.4334C97.256 47.9856 98.5533 48.2255 99.8345 48.1455C101.965 48.0336 104.127 48.3854 106.193 47.6817C106.689 47.5057 107.137 47.1858 107.618 46.9459C108.835 46.3541 109.876 45.5543 110.917 44.7066C111.782 44.0028 112.967 43.9228 114.072 43.8748C114.857 43.8428 115.609 43.5869 116.41 43.7308C116.843 43.8108 116.715 43.4909 116.57 43.203C115.722 41.4595 114.264 40.1319 113.415 38.4044C113.271 38.1165 113.079 37.7966 112.807 37.6207C111.333 36.629 110.789 35.0454 110.645 33.4619C110.549 32.4702 110.421 31.3666 110.709 30.3589C111.301 28.2635 110.533 26.568 109.267 25.0005C108.899 24.5526 108.242 24.3766 107.81 24.4246C106.321 24.5686 104.943 23.9128 103.47 23.9608C102.749 23.9928 102.221 23.4809 101.612 23.097C101.356 23.5289 101.804 23.8968 101.708 24.2967C101.42 25.4323 101.58 26.616 101.324 27.7356C101.228 28.1355 101.276 28.3435 101.596 28.6634C102.253 29.3192 102.605 30.2309 103.454 30.7587C103.758 30.9507 104.046 31.1106 104.399 31.2066C104.847 31.3186 105.456 31.0466 105.664 31.7824C105.712 31.9744 106.064 31.8464 106.257 31.8144C107.121 31.6545 107.922 31.8144 108.675 32.2463C109.139 32.6942 109.091 33.206 108.851 33.7338L108.867 33.6859Z" fill="#29716B"/>
<path fill-rule="evenodd" clip-rule="evenodd" d="M126.243 81.0636C126.628 79.656 127.252 78.2164 128.197 76.9368C129.639 74.9854 131.561 73.6578 133.643 72.4902C134.956 71.7704 136.253 71.0666 137.694 70.5867C138.671 70.2668 139.648 69.691 140.545 69.1312C141.89 68.2834 143.364 67.7876 144.789 67.1957C147.271 66.1401 149.658 64.8764 152.156 63.8687C153.982 63.133 155.84 62.4292 157.745 61.8373C159.555 61.2775 161.381 60.6217 163.014 59.582C163.351 59.3741 163.687 59.2141 164.039 59.0862C165.305 58.6863 166.506 58.1904 167.675 57.4707C168.428 57.0068 169.356 56.5589 170.253 56.207C171.23 55.8391 172.239 55.5992 173.12 54.9274C173.713 54.4796 174.545 54.3196 175.282 54.0637C177.46 53.2959 179.43 52.0963 181.464 51.0086C183.001 50.1768 184.731 49.729 186.269 48.9292C187.069 48.5133 187.934 48.2574 188.671 47.6976C189.135 47.3457 189.712 47.0578 190.336 47.1218C190.673 47.1538 191.009 46.9938 191.169 46.8498C192.21 45.8901 193.62 45.8581 194.837 45.3463C195.365 45.1224 196.278 45.0904 196.438 44.9144C197.079 44.1467 198.008 44.0187 198.776 43.7148C199.785 43.3309 200.73 42.6271 201.899 42.6911C202.284 42.7071 202.652 42.7071 202.844 43.091C203.037 43.4589 202.716 43.7148 202.524 43.9707C202.252 44.3386 201.851 44.5785 201.451 44.7865C200.01 45.5542 198.52 46.29 197.127 47.1218C196.39 47.5696 195.557 47.5696 194.789 47.9375C193.315 48.6733 191.81 49.3611 190.288 49.9849C188.687 50.6407 187.149 51.4405 185.596 52.1603C183.93 52.928 182.265 53.7438 180.599 54.5275C178.773 55.3913 176.9 56.255 175.042 57.0548C173.857 57.5666 172.592 57.9345 171.567 58.7663C170.942 59.2621 170.157 59.4861 169.485 59.742C167.707 60.4138 165.881 61.0536 164.248 61.9493C162.246 63.053 160.036 63.5168 157.97 64.3646C155.776 65.2603 153.565 66.1241 151.371 67.0038C150.186 67.4837 148.969 68.0915 147.816 68.7313C147.287 69.0192 146.663 69.2271 146.07 69.4351C144.149 70.1069 142.211 70.8427 140.529 71.9303C139.008 72.922 137.102 73.13 135.805 74.5215C135.388 74.9694 134.651 75.1294 134.075 75.4493C133.05 76.0411 132.201 76.7449 131.545 77.7366C131.192 78.2804 130.584 78.6963 130.103 79.1282C129.238 79.8799 128.95 80.9836 128.181 81.7674C127.861 82.1033 127.637 82.6311 127.188 82.4872C126.66 82.3112 126.211 81.8793 126.227 81.0476L126.243 81.0636Z" fill="#29716B"/>
<path fill-rule="evenodd" clip-rule="evenodd" d="M119.053 92.6282C119.165 94.8675 119.277 97.0589 119.405 99.2502C119.453 99.97 119.501 100.706 118.556 100.898C117.868 101.026 117.019 100.242 116.923 99.3782C116.714 97.6667 116.554 95.9392 116.378 94.2117C116.266 93.22 116.122 92.2283 116.026 91.2206C115.914 90.085 115.209 89.2052 114.681 88.2775C114.28 87.5737 113.527 87.3658 112.695 87.2218C111.317 86.9819 109.94 86.8539 108.547 86.774C106.513 86.646 104.623 87.3658 102.765 87.9416C101.324 88.3895 99.9145 89.0293 98.5052 89.6051C97.0158 90.2129 95.4463 90.5968 93.9088 91.0927C93.3162 91.2846 92.7077 91.5405 92.1952 91.8444C91.2983 92.4043 90.2733 92.5003 89.3445 92.9801C88.0632 93.6519 86.6219 94.0038 85.3086 94.6276C84.7641 94.8835 84.2036 94.8835 83.6751 95.1075C82.538 95.5553 81.4329 96.0832 80.2158 96.3551C79.1267 96.595 78.1178 97.1868 76.9807 97.3628C76.1479 97.4908 75.3151 97.3788 74.4823 97.6347C73.7937 97.8426 73.2812 97.1069 72.5445 97.1229C72.3203 97.1229 72.2242 96.4351 72.3043 96.0032C72.4324 95.4274 72.9289 95.3314 73.3613 95.3634C74.178 95.4274 74.9788 95.3634 75.7796 95.1714C78.5021 94.5156 81.1126 93.5879 83.7231 92.5482C86.718 91.3486 89.6167 89.925 92.6916 88.9013C94.7416 88.2135 96.8556 87.7017 98.7774 86.758C100.299 86.0222 101.852 85.5263 103.454 85.3504C105.936 85.0945 108.371 84.3427 110.901 84.4067C112.775 84.4547 114.536 85.0145 116.17 85.8303C117.355 86.4381 118.172 87.4938 118.412 88.8374C118.636 90.117 119.389 91.2846 119.069 92.6122L119.053 92.6282Z" fill="#29716B"/>
<path fill-rule="evenodd" clip-rule="evenodd" d="M48.826 59.4701C48.9381 60.6537 48.5697 61.8533 48.1693 63.021C47.6889 64.4126 47.6088 65.8841 47.1444 67.2757C46.8561 68.1235 47.4006 68.6833 48.2975 68.6193C49.947 68.5074 51.6126 68.3154 53.2622 68.2514C54.3352 68.2034 55.4723 68.5873 56.4172 67.8995C57.7304 66.9558 59.412 67.0678 60.7573 66.364C61.7022 65.8681 62.7432 65.5482 63.6401 64.9244C64.3928 64.3966 65.2576 64.0767 66.1865 63.9967C66.779 63.9487 67.1314 64.1087 67.2595 64.7965C67.4036 65.4683 67.0193 65.5322 66.5869 65.7242C65.5779 66.1561 64.8892 67.0518 63.9924 67.6756C63.3678 68.1075 62.6631 68.4754 62.0546 68.5553C60.5811 68.7313 59.412 69.4351 58.1308 70.0429C56.6734 70.7307 55.1039 70.7627 53.4704 70.5707C52.0931 70.3948 50.6357 70.2668 49.2744 70.9226C48.9381 71.0826 48.5057 71.0026 48.1053 71.0346C47.5287 71.0666 47.1604 71.2745 47.3526 71.9303C47.5928 72.7781 47.2725 73.6738 47.6408 74.5056C47.6408 74.5375 47.6408 74.5695 47.6408 74.6015C47.0963 75.9771 46.8241 77.5446 45.5589 78.4724C45.0624 78.8243 44.9183 79.3361 44.5659 79.736C43.9734 80.4078 43.2687 80.8077 42.4679 81.1116C42.1316 81.2395 41.7633 81.3995 41.523 81.6394C41.1867 81.9753 40.9465 82.2472 40.482 81.8633C40.0016 81.4635 39.8735 80.9196 40.2418 80.5038C41.3469 79.2721 41.8593 77.5926 43.0605 76.473C44.2937 75.3373 44.1655 73.9457 44.1015 72.5701C43.9894 70.4108 43.8773 68.2514 44.0534 66.0921C44.2296 64.0287 45.0784 62.1573 45.8952 60.3018C46.2315 59.55 46.5038 58.7823 46.6639 57.9825C46.8081 57.3267 47.1924 57.1188 47.849 57.1668C48.5537 57.2147 48.81 57.5666 48.7939 58.2224C48.7939 58.6223 48.7939 59.0062 48.7939 59.5021L48.826 59.4701Z" fill="#29716B"/>
<path fill-rule="evenodd" clip-rule="evenodd" d="M118.716 104.928C118.716 104.385 118.7 104.113 118.716 103.841C118.748 103.489 118.716 103.041 119.165 102.945C119.613 102.849 120.126 102.913 120.382 103.361C121.215 104.864 121.695 106.432 121.215 108.143C121.103 108.527 120.942 108.927 120.43 108.879C119.981 108.847 119.597 108.591 119.453 108.159C119.069 107.024 118.62 105.888 118.716 104.896V104.928Z" fill="#32746D"/>
<path fill-rule="evenodd" clip-rule="evenodd" d="M121.999 84.1348C121.615 84.0868 121.359 84.0388 121.103 84.0228C120.622 83.9748 120.046 84.0228 119.901 83.431C119.773 82.8872 120.078 82.3593 120.558 82.1514C121.663 81.6395 122.784 81.0637 124.033 81.0637C124.962 81.0637 125.299 81.7355 124.738 82.4713C124.033 83.383 122.944 83.7509 122.015 84.1508L121.999 84.1348Z" fill="#32746D"/>
<path fill-rule="evenodd" clip-rule="evenodd" d="M125.683 105.664C125.683 106.144 125.715 106.656 125.138 106.8C124.626 106.928 124.354 106.544 124.049 106.176C123.377 105.328 122.768 104.433 122.24 103.489C121.951 102.993 121.503 102.257 122.047 101.825C122.608 101.361 123.168 102.001 123.601 102.401C124.578 103.313 125.571 104.225 125.683 105.664Z" fill="#32746D"/>
<path fill-rule="evenodd" clip-rule="evenodd" d="M117.211 105.216C117.179 106.144 116.939 107.168 116.49 108.143C116.378 108.399 116.282 108.799 115.882 108.639C115.529 108.511 115.081 108.415 115.065 107.903C115.033 106.352 115.289 104.832 115.85 103.377C115.946 103.121 116.122 102.881 116.442 102.897C116.779 102.913 116.859 103.217 116.955 103.473C117.147 103.985 117.211 104.529 117.211 105.232V105.216Z" fill="#32746D"/>
<path fill-rule="evenodd" clip-rule="evenodd" d="M129.318 87.8457C129.383 88.6614 129.383 89.5252 128.918 90.3409C128.806 90.5329 128.71 90.7408 128.47 90.7568C128.213 90.7568 128.101 90.5489 128.037 90.3409C127.365 88.5815 127.477 86.838 128.229 85.1265C128.47 84.5987 128.742 84.8546 128.934 85.1905C129.399 85.9902 129.318 86.886 129.302 87.8457H129.318Z" fill="#32746D"/>
<path fill-rule="evenodd" clip-rule="evenodd" d="M123.841 87.4776C123.489 87.5416 123.425 87.3657 123.473 87.0618C123.665 85.8621 124.866 84.5025 126.019 84.1986C126.724 84.0067 127.012 84.2946 126.868 84.9824C126.628 86.134 124.978 87.4936 123.841 87.4616V87.4776Z" fill="#32746D"/>
<path fill-rule="evenodd" clip-rule="evenodd" d="M108.867 33.6859C109.107 33.158 109.155 32.6462 108.691 32.1983C109.299 32.1663 109.299 32.6462 109.38 33.03C109.444 33.4139 109.316 33.6859 108.867 33.6859Z" fill="#32746D"/>
</g>
<defs>
<clipPath id="clip0_35_13295">
<rect width="202.817" height="160" fill="white" transform="translate(0.0915527)"/>
</clipPath>
</defs>
</svg>
