<svg width="210" height="39" viewBox="0 0 210 39" fill="none" xmlns="http://www.w3.org/2000/svg">
<g clip-path="url(#clip0_35_13251)">
<path fill-rule="evenodd" clip-rule="evenodd" d="M210 26.6432C208.208 27.1255 206.344 26.9836 204.537 27.1964C203.2 27.3525 201.849 27.2674 200.526 27.4518C199.942 27.5369 199.388 27.4093 198.847 27.4802C196.414 27.8207 193.968 27.6646 191.535 27.8916C187.723 28.2463 183.896 28.5158 180.055 28.5442C178.405 28.5442 176.726 28.7428 175.062 28.8847C173.113 29.0549 171.093 29.0408 169.158 29.2252C167.038 29.438 164.89 29.3245 162.771 29.6082C161.675 29.7501 160.537 30.0622 159.413 29.6508C159.001 29.4947 158.617 29.7785 158.218 29.8352C156.454 30.0906 154.69 30.119 152.912 30.0906C152.77 30.0906 152.613 30.1473 152.471 30.2041C151.717 30.502 150.977 30.5304 150.167 30.4311C148.815 30.275 147.464 30.4595 146.126 30.6581C143.907 30.9986 141.674 30.7006 139.455 30.8992C138.928 30.9418 138.402 30.9418 137.876 31.0127C135.457 31.2965 133.053 31.6228 130.592 31.3958C129.639 31.3107 128.615 31.5093 127.662 31.7505C126.353 32.1051 125.058 31.7505 123.764 31.9065C121.459 32.1761 119.155 32.1051 116.836 32.3747C114.958 32.6017 113.037 32.701 111.131 32.6584C110.164 32.6301 109.239 32.7294 108.315 32.8854C106.479 33.1975 104.616 32.6159 102.809 33.0557C101.486 33.3678 100.163 33.4955 98.826 33.4103C96.4076 33.2685 94.0035 33.5664 91.6136 33.8501C89.4086 34.1055 87.1751 34.1339 84.9844 34.2332C82.879 34.3325 80.7593 34.5595 78.6397 34.5879C76.1644 34.6304 73.6749 34.8716 71.1854 35.0844C69.1227 35.2546 67.0458 35.5242 64.9972 35.4107C62.4651 35.2688 60.0325 35.8221 57.5572 35.8363C55.1673 35.8505 52.7916 36.2761 50.3874 36.0491C50.0887 36.0207 49.7473 36.0491 49.4628 36.1626C48.595 36.4889 47.6988 36.4605 46.7883 36.4747C44.8821 36.5173 42.9758 36.7868 41.0838 36.7727C38.95 36.7727 36.8588 37.1983 34.7392 37.1699C31.581 37.1131 28.4372 37.6097 25.2791 37.709C21.9076 37.8083 18.5503 38.0495 15.193 38.2623C12.106 38.4609 9.01906 38.6595 5.93208 38.9007C4.25345 39.0284 2.54636 38.9433 0.896177 38.5035C1.09534 37.8651 0.412503 37.5671 0.327148 37.0422C1.47943 37.1841 2.31875 36.2194 3.47103 36.2194C5.54799 36.2194 7.63917 36.2052 9.68767 35.964C11.2809 35.7796 12.9169 35.4816 14.496 35.6093C16.9712 35.7938 19.3612 35.1412 21.808 35.2688C22.8322 35.3256 23.9418 35.2688 24.895 35.0986C27.5125 34.6588 30.1585 34.6162 32.7618 34.5311C35.109 34.446 37.4136 33.992 39.7324 34.0488C43.488 34.1339 47.1867 33.5948 50.928 33.4529C54.0292 33.3252 57.1304 33.2401 60.2316 33.0415C61.6684 32.9422 63.091 32.6159 64.542 32.6301C67.4298 32.6584 70.2892 32.1761 73.177 32.1193C76.2213 32.0626 79.2941 32.0058 82.3242 31.7079C85.3258 31.41 88.3274 31.2397 91.329 31.1546C94.1742 31.0837 96.9767 30.5162 99.836 30.7148C100.775 30.7716 101.828 30.5162 102.838 30.4311C104.431 30.2892 106.024 29.9771 107.646 30.1757C108.912 30.3176 110.15 29.9629 111.416 29.9487C112.426 29.9487 113.422 29.7217 114.46 29.7927C115.427 29.8636 116.437 29.665 117.433 29.6224C119.724 29.5231 122.014 29.3387 124.318 29.1968C126.381 29.0691 128.43 28.8989 130.492 28.8563C133.835 28.7996 137.15 28.4733 140.479 28.1612C142.129 28.0051 143.765 28.2463 145.401 27.9625C147.407 27.6079 149.441 27.7781 151.461 27.5086C153.012 27.3099 154.605 27.4518 156.156 27.2958C158.176 27.0971 160.196 27.1397 162.216 27.0404C164.762 26.8985 167.323 26.9127 169.827 26.558C172.8 26.1324 175.787 26.2885 178.76 25.9764C181.378 25.7068 184.052 25.6501 186.698 25.5224C188.96 25.4089 191.236 25.2954 193.498 25.1535C196.727 24.9549 199.971 24.6712 203.2 24.5435C204.623 24.4867 206.031 24.3165 207.439 24.359C208.478 24.3874 209.559 24.4442 210.014 25.6784V26.629L210 26.6432Z" fill="#26716A"/>
<path fill-rule="evenodd" clip-rule="evenodd" d="M83.0498 20.3868C83.0498 26.5439 79.2373 30.9703 72.3805 30.8284C66.491 30.7149 61.8108 26.0616 61.825 20.174C61.8534 14.3148 66.6475 9.6047 72.5512 9.64726C78.4264 9.68982 83.0924 14.4708 83.0498 20.3868Z" fill="#E06765"/>
<path fill-rule="evenodd" clip-rule="evenodd" d="M101.629 19.3226C101.714 21.3797 101.316 23.5078 100.092 25.1251C98.1859 27.6362 95.7817 29.4663 92.2538 29.3954C90.504 29.367 88.8681 29.0832 87.2605 28.5583C86.1083 28.1895 85.2547 27.3099 84.6857 26.2175C84.5008 25.8486 84.4296 25.3946 84.7284 25.0825C85.0413 24.7562 85.4539 25.0825 85.7384 25.2244C86.7342 25.7493 87.6731 26.3735 88.7116 26.8275C91.6705 28.1327 93.8613 27.5794 96.7775 25.04C97.9867 23.9901 98.1574 22.6424 98.4562 21.323C98.7691 19.9043 98.9541 18.4288 98.5558 16.9818C97.9725 14.8253 96.237 11.5765 93.022 11.1083C90.5182 10.7395 88.7116 11.534 86.8907 12.9101C86.1794 13.435 85.5677 14.1727 84.5292 14.0592C83.4765 13.9457 83.1635 13.3499 83.8037 12.4703C84.202 11.917 84.643 11.3211 85.1978 10.9523C87.0472 9.73221 88.9961 8.66818 91.3433 8.96611C92.2395 9.07961 93.1642 8.8668 94.032 9.24985C95.924 10.0869 97.56 11.2502 99.1106 12.6405C100.675 14.0592 101.088 15.9177 101.643 17.762C101.799 18.287 101.529 18.7693 101.643 19.3226H101.629Z" fill="#2B726B"/>
<path fill-rule="evenodd" clip-rule="evenodd" d="M104.445 8.37024C106.394 8.05812 107.916 9.24983 109.481 10.2571C110.42 10.8671 111.188 11.6474 111.928 12.4986C114.645 15.6623 114.773 20.2589 112.881 23.7773C111.302 26.6856 108.827 28.4306 105.498 28.7569C104.075 28.8988 102.624 28.7853 101.216 28.4164C100.661 28.2746 100.32 27.9625 100.348 27.3524C100.391 26.6998 100.931 26.6147 101.372 26.6005C101.941 26.5721 102.525 26.6856 103.094 26.7991C104.274 27.0403 105.384 26.8417 106.451 26.3168C107.717 25.6925 108.898 24.9406 109.851 23.8624C110.463 23.1814 110.633 22.2451 110.719 21.479C110.889 19.8901 111.444 18.3721 111.088 16.6838C110.548 14.1302 108.272 10.6118 105.412 10.4273C103.776 10.328 102.382 10.4273 100.974 11.1083C100.433 11.3779 99.9782 11.3069 99.6795 10.782C99.3807 10.2429 99.6083 9.8315 100.078 9.47682C101.344 8.54048 102.752 8.22837 104.417 8.34186L104.445 8.37024Z" fill="#2B726B"/>
<path fill-rule="evenodd" clip-rule="evenodd" d="M144.021 19.3652C140.137 19.7057 136.78 19.6348 133.437 19.9327C131.261 20.1171 129.056 19.9469 126.893 20.1455C124.831 20.3299 122.782 20.5002 120.719 20.5144C119.596 20.5144 118.386 20.8548 117.305 20.1739C117.021 20.0036 116.509 20.032 116.58 19.5213C116.651 19.0673 117.049 18.9254 117.447 18.7977C119.155 18.2302 120.947 18.1026 122.711 17.9465C125.144 17.7053 127.59 17.606 130.037 17.45C132.114 17.3223 134.205 17.3081 136.297 17.2513C139.327 17.1662 142.357 16.8399 145.401 16.6981C146.255 16.6555 147.137 16.8257 147.99 16.9676C148.687 17.0811 148.73 17.7195 148.829 18.2302C148.943 18.8119 148.417 18.9254 148.004 19.0389C146.525 19.4503 144.96 19.0673 144.021 19.3936V19.3652Z" fill="#2B726B"/>
<path fill-rule="evenodd" clip-rule="evenodd" d="M132.683 14.6835C130.066 15.0523 127.42 15.0239 124.788 15.1942C122.199 15.3786 119.581 15.5914 116.978 15.2935C116.338 15.2226 115.797 14.9388 115.683 14.3146C115.541 13.5485 116.295 13.5343 116.765 13.3499C117.163 13.1938 117.604 13.1087 118.031 13.052C121.658 12.6831 125.286 12.3994 128.942 12.4561C130.009 12.4703 131.061 12.144 132.128 12.0872C133.537 12.0163 134.945 12.0589 136.368 12.0447C137.136 12.0447 137.363 12.5838 137.434 13.1796C137.506 13.7471 137.093 13.889 136.595 14.0876C135.315 14.5983 133.963 14.3997 132.669 14.6835H132.683Z" fill="#26716A"/>
<path fill-rule="evenodd" clip-rule="evenodd" d="M139.696 24.5008C137.932 24.3306 136.197 24.8413 134.433 24.7846C131.517 24.6711 128.629 25.2669 125.712 25.2102C124.233 25.1818 122.754 25.2102 121.288 24.9123C120.634 24.7704 120.605 24.4725 120.933 24.0043C121.174 23.6638 121.559 23.5078 121.957 23.4226C123.949 22.997 125.954 22.614 127.989 22.543C129.653 22.4863 131.303 22.1174 132.925 22.1316C135.614 22.16 138.288 21.8762 140.962 21.8621C141.745 21.8621 142.229 22.2593 142.328 23.1105C142.428 24.0043 141.873 24.061 141.233 24.2455C140.721 24.3873 140.251 24.6569 139.696 24.515V24.5008Z" fill="#26716A"/>
<path fill-rule="evenodd" clip-rule="evenodd" d="M56.5898 18.4006C57.0877 14.5985 58.5103 11.2929 61.7253 8.93786C62.5931 8.29945 63.5604 8.28526 64.5278 8.2427C65.2106 8.21432 65.4667 8.79599 65.0684 9.36347C64.9261 9.56209 64.7127 9.73233 64.4993 9.84583C61.2559 11.6192 59.6057 14.485 58.8091 17.9466C58.7095 18.3722 58.6384 18.7978 58.5388 19.2234C58.425 19.7058 58.3681 20.2874 57.6568 20.2449C56.9882 20.2023 56.6041 19.8193 56.5898 19.1241C56.5898 18.8687 56.5898 18.6134 56.5898 18.358V18.4006Z" fill="#2B726B"/>
<path fill-rule="evenodd" clip-rule="evenodd" d="M78.9385 0C79.7494 0.297927 80.6456 0.524918 81.4422 0.936341C82.9786 1.70244 84.3158 2.73809 85.1978 4.27028C85.4254 4.65333 85.6246 5.13569 85.3116 5.49036C84.956 5.8876 84.4012 5.75991 84.0029 5.53292C83.5334 5.26337 83.1351 4.89451 82.7226 4.53983C81.3142 3.29138 79.6782 2.45435 77.8716 1.94362C77.5017 1.83012 76.9185 1.91524 76.9185 1.27683C76.9185 0.695162 77.3452 0.482357 77.8147 0.3263C78.1561 0.212805 78.5117 0.14187 78.9243 0.028374L78.9385 0Z" fill="#2B726B"/>
<path fill-rule="evenodd" clip-rule="evenodd" d="M60.7438 5.71729C61.0283 5.74566 61.4977 5.56123 61.6258 6.12871C61.7111 6.52595 61.4124 6.72457 61.1279 6.88062C59.4065 7.87371 58.1405 9.32078 57.0451 10.9523C56.7179 11.4346 56.4334 11.9454 55.9781 12.3284C55.6652 12.6122 55.3522 13.052 54.8685 12.8108C54.3849 12.5554 54.584 12.0305 54.6125 11.6191C54.6267 11.2928 54.7121 10.9665 54.8259 10.6685C55.6367 8.59725 57.0166 7.0083 59.0367 6.01522C59.5346 5.77404 60.0894 5.71729 60.7295 5.71729H60.7438Z" fill="#2B726B"/>
<path fill-rule="evenodd" clip-rule="evenodd" d="M96.8201 16.4284C96.7632 16.8115 96.7348 17.3364 96.5783 17.8188C96.0946 19.351 96.4645 20.798 96.9624 22.2167C97.19 22.8551 97.1189 23.4794 96.6067 23.7347C96.0093 24.0327 95.6678 23.3942 95.3975 22.9261C94.0034 20.571 93.7189 18.1734 95.0846 15.7049C95.3264 15.2793 95.5967 14.7544 96.2653 15.0239C96.8628 15.2651 96.8343 15.8042 96.8201 16.4284Z" fill="#2B726B"/>
<path fill-rule="evenodd" clip-rule="evenodd" d="M77.9852 4.97967C79.2797 4.95129 80.4889 5.24922 81.3567 6.27068C81.9115 6.92328 82.6654 7.41983 82.9073 8.31361C83.0069 8.66828 83.1491 9.05133 82.7935 9.3067C82.4805 9.53369 82.068 9.50531 81.7692 9.27832C80.3182 8.17174 78.7391 7.32052 77.0321 6.66792C76.5911 6.49767 76.0932 6.08625 76.2639 5.50459C76.4204 4.99386 76.9894 4.96548 77.4588 4.90873C77.6295 4.89455 77.8002 4.95129 77.9852 4.97967Z" fill="#2B726B"/>
<path fill-rule="evenodd" clip-rule="evenodd" d="M0.327024 37.0989C0.412378 37.6238 1.09521 37.9217 0.896053 38.5601C-0.113973 37.9927 -0.213553 37.7515 0.327024 37.0989Z" fill="#2B726B"/>
</g>
<defs>
<clipPath id="clip0_35_13251">
<rect width="210" height="39" fill="white"/>
</clipPath>
</defs>
</svg>
