<svg width="101" height="100" viewBox="0 0 101 100" fill="none" xmlns="http://www.w3.org/2000/svg">
<g clip-path="url(#clip0_125_12968)">
<path d="M83.2272 81.0929V82.3979C83.2272 82.3979 83.0669 82.5409 83.0313 82.6302C82.764 83.2916 82.5146 83.9709 82.2296 84.6323C81.8198 85.5618 81.4279 86.4734 80.9469 87.3672C80.5906 88.0286 80.1986 88.7257 79.682 89.262C79.2366 89.7089 78.8268 90.2988 78.0786 90.3345C77.9895 90.3345 77.9182 90.549 77.8113 90.6205C77.5976 90.7814 77.3838 90.9602 77.1344 91.0495C76.974 91.121 76.7068 90.9602 76.5643 91.0495C75.7269 91.5322 74.8183 91.6037 73.8919 91.6394C73.304 91.6394 72.7161 91.7646 72.1104 91.8361H71.6828C71.5581 91.8003 71.4334 91.7467 71.2909 91.7288C70.4357 91.6037 69.5628 91.4964 68.7076 91.3713C68.4048 91.3355 68.1197 91.264 67.8169 91.2104C66.9439 91.0495 66.0709 90.978 65.2871 90.4775C64.9664 90.263 64.5923 90.0664 64.2359 90.0128C63.2205 89.8519 62.6147 89.0475 61.7952 88.5649C60.9045 88.0286 60.1562 87.2242 59.3723 86.545C58.7844 86.0266 58.2143 85.4903 57.6442 84.9362C57.2167 84.525 56.8247 84.096 56.3971 83.6849C55.5242 82.7911 54.6512 81.9152 53.7604 81.0393C53.4932 80.7712 53.226 80.5388 52.9409 80.3064C52.6737 80.0741 52.3708 79.8774 52.1036 79.6272C51.7473 79.2875 51.4444 78.9122 51.1059 78.5546C50.9278 78.3759 50.7318 78.2329 50.5537 78.0541C49.9479 77.4464 49.36 76.8207 48.7365 76.2487C48.2733 75.8376 47.721 75.5158 47.2934 75.0689C46.9371 74.7114 46.5274 74.3718 46.3314 73.8713C46.2958 73.7819 46.1711 73.7283 46.082 73.6747C45.7791 73.4423 45.4406 73.2099 45.1556 72.9597C44.9596 72.7988 44.7993 72.5843 44.6211 72.3876C44.2826 72.0123 43.9263 71.6548 43.5878 71.2794C43.4453 71.1185 43.3384 70.9397 43.1959 70.8146C42.4654 70.189 41.6994 69.5991 41.0046 68.9377C40.4345 68.3836 40.0247 67.6685 39.419 67.168C38.742 66.6139 38.2075 65.8631 37.3702 65.5056C37.3168 65.4877 37.2811 65.4341 37.2455 65.3984C36.426 64.5403 35.6243 63.6466 34.7513 62.8422C33.6468 61.8412 32.6847 60.6971 31.4911 59.7855C30.5113 59.0526 29.7274 58.0337 28.8722 57.1399C28.4447 56.7109 28.0349 56.264 27.6251 55.8172C27.3579 55.5133 26.5562 55.6563 26.8056 54.8876C26.8056 54.8876 26.7522 54.834 26.7344 54.8161C26.3603 54.4229 25.9861 54.0475 25.6298 53.6542C24.9528 52.9035 24.2046 52.2063 23.8305 51.2232C23.7057 50.9193 23.6345 50.526 23.4207 50.3115C22.8328 49.7395 23.1 48.9888 23.0644 48.3631C23.0109 47.4872 23.6345 46.6113 23.1 45.6997C22.9931 45.5209 23.0644 45.2349 23.0822 45.0026C23.1 44.6272 23.1891 44.2339 23.1713 43.8585C23.1713 43.4832 23.0644 43.1256 23.4029 42.8039C23.581 42.6251 23.6167 42.3034 23.7236 42.0531C23.9552 41.5347 23.777 40.8912 24.2046 40.4086C24.4362 40.1583 24.2224 39.9617 24.0086 39.7472C23.4385 39.1752 22.8684 38.5674 22.334 37.9418C21.746 37.2446 21.1759 36.5117 20.6059 35.7789C20.1783 35.2247 19.5191 34.7957 19.4478 33.9913C19.4122 33.6338 19.5904 33.2048 19.0203 33.0976C18.9846 33.0976 18.9846 32.9009 18.949 32.7937C18.8778 32.5792 18.8065 32.3647 18.7352 32.1502V28.6823C18.8065 28.3963 18.8421 28.1103 18.9668 27.8422C19.1094 27.4847 19.3231 27.1629 19.5013 26.8412C19.6794 26.5194 19.8042 26.144 20.0179 25.858C20.2495 25.572 20.6059 25.3754 20.8731 25.0894C21.3185 24.6246 21.6748 23.9632 22.2092 23.6772C22.9219 23.3018 23.5454 22.6941 24.4005 22.5511C25.5229 22.3544 26.6631 22.2114 27.7855 21.9791C28.89 21.7646 29.9768 21.7467 31.0814 21.8361C31.6514 21.8897 32.2215 21.8361 32.7738 21.8718C33.3261 21.9254 33.8784 22.0863 34.4307 22.1936C34.4663 22.1578 34.5019 22.1042 34.5376 22.0684C33.629 21.2104 33.6468 20.12 33.7537 19.0475C33.8784 17.7962 35.0898 17.5102 35.945 16.9025C35.6243 16.1159 35.072 15.383 35.268 14.4893C35.3927 13.9351 35.4996 13.2559 35.8737 12.8984C36.3191 12.4515 37.0139 12.2191 37.6374 12.0225C38.1719 11.8437 38.7598 11.8437 39.3121 11.7722C39.5259 10.9857 39.6328 10.1634 40.5414 9.87743C40.6661 9.84168 40.7552 9.66292 40.862 9.55567C40.9511 9.46629 41.0402 9.35904 41.1471 9.35904C41.8953 9.25179 42.697 9.09091 43.4987 9.09091C44.443 9.09091 45.405 9.14454 46.3314 9.30542C46.759 9.37692 47.1331 9.69867 47.525 9.91318C48.202 10.2886 49.0215 10.4673 49.3422 11.3075C49.3422 11.3253 49.3957 11.3611 49.4313 11.3611C50.1083 11.7007 50.5537 12.2191 51.0169 12.8269C51.4801 13.4346 52.1927 13.8636 52.745 14.4535C53.2794 15.0077 53.9386 15.4545 54.5265 15.9372C54.6156 16.0087 54.7581 16.0623 54.8116 16.1696C55.0253 16.7237 55.3995 16.9918 56.0052 17.0097C56.2012 17.0097 56.3971 17.2242 56.5931 17.3136C56.8425 17.4208 57.0919 17.5638 57.3414 17.5817C58.2143 17.6175 59.016 17.8856 59.5683 18.5291C60.0493 19.0833 60.5303 19.3871 61.2786 19.3693C62.1159 19.3693 62.9532 19.405 63.7906 19.4586C65.002 19.5301 66.2135 19.6553 67.4427 19.6731C68.6898 19.6731 69.9547 19.5123 71.2018 19.5659C72.5023 19.6195 73.8563 19.3335 75.0678 20.0485C75.1212 20.0843 75.2103 20.0485 75.2815 20.0664C76.5108 20.1379 77.7579 20.2094 78.7021 21.1747C78.809 21.2819 78.9872 21.3355 79.1119 21.4249C79.9314 21.9612 80.8222 22.4259 81.125 23.4806C81.2675 23.9632 81.4279 24.428 81.5704 24.8928C81.6951 25.286 81.8376 25.6614 81.9089 26.0546C81.9445 26.2692 81.7129 26.6267 81.802 26.7339C82.1583 27.0914 81.7842 27.3417 81.7307 27.6277C81.5882 28.4142 80.7331 28.7538 80.5015 29.5403C80.4124 29.8442 80.0026 30.1124 79.682 30.2554C79.1119 30.5235 79.0584 30.9704 79.0762 31.4888C79.0762 31.739 79.1119 31.9893 79.0941 32.2395C79.0762 32.6149 79.1475 33.0618 78.9693 33.3299C78.6843 33.7768 78.2211 34.0986 77.8292 34.4561C77.6688 34.5991 77.5085 34.7421 77.2412 34.9745C78.2033 35.7967 79.1119 36.5654 80.0383 37.3519C80.1808 37.477 80.3946 37.5664 80.4837 37.7273C80.7687 38.2993 81.125 38.7819 81.4635 39.3182C81.8733 39.9617 82.0514 40.7482 82.283 41.499C82.3543 41.7314 82.2118 42.0531 82.283 42.2855C82.5681 43.072 82.4255 43.8585 82.3899 44.645C82.3899 44.7344 82.3365 44.8596 82.2652 44.9132C81.8198 45.2528 81.8911 45.9857 81.3032 46.2002C81.2675 46.2002 81.2141 46.2896 81.2319 46.3432C81.2675 46.808 80.9469 47.0225 80.6084 47.237C80.5193 47.3085 80.4658 47.4157 80.3946 47.523C80.2877 47.7196 80.2342 47.952 80.0739 48.095C79.6998 48.4346 79.29 48.7206 78.8981 49.0603C78.6309 49.2926 78.4349 49.6144 78.132 49.7753C77.6866 50.0255 77.2056 50.2222 76.7068 50.3473C76.3148 50.4367 75.8695 50.4009 75.4597 50.4009C75.1568 50.4009 74.8718 50.3115 74.5689 50.3473C73.7494 50.4367 72.9299 50.6154 72.1104 50.6691C70.5961 50.7942 69.0639 50.7942 67.5674 50.4545C66.8192 50.2937 66.0709 50.1864 65.3405 49.9898C63.8618 49.5787 62.401 49.1139 60.9401 48.6491C60.6372 48.5598 60.3522 48.3989 60.0493 48.2738C59.5505 48.0771 59.016 47.9162 58.5172 47.6839C57.9115 47.3979 57.3414 47.0225 56.7356 46.7365C55.9518 46.3611 55.0966 46.0751 54.3484 45.6103C53.1725 44.8953 52.0145 44.1445 50.9812 43.2686C49.9123 42.3749 48.9146 41.4096 47.721 40.641C47.2222 40.3192 46.8302 39.7829 46.4205 39.3361C46.278 39.1752 46.2601 38.8892 46.0998 38.764C45.405 38.192 44.6567 37.6736 43.9619 37.1016C43.3028 36.5654 42.6792 35.9934 42.0379 35.4392C41.6637 35.0996 41.2718 34.76 40.9155 34.4203C40.7373 34.2416 40.5948 34.0271 40.4345 33.8126C40.381 33.7411 40.3276 33.6696 40.2741 33.6159C39.6862 33.2048 39.0627 32.8115 38.4926 32.3825C37.388 31.5245 36.3013 30.6665 35.2324 29.7727C34.4128 29.0756 33.4508 28.7717 32.4353 28.593C32.0078 28.5036 31.4733 28.3606 31.117 28.5215C30.0837 29.022 28.801 28.8968 27.9458 29.8085C27.6786 30.0945 27.3223 30.3626 27.2332 30.7022C27.1085 31.1491 27.1441 31.6675 27.2332 32.1144C27.4292 32.9903 27.8568 33.7947 28.5159 34.4382C28.8544 34.7778 29.2107 35.2605 29.8165 34.7778C29.9233 34.6885 30.1193 34.7063 30.2797 34.6885C31.4377 34.6348 32.5957 34.617 33.7537 34.5097C35.1255 34.3846 36.4438 34.5455 37.7265 34.9923C38.1541 35.1353 38.5282 35.4392 38.9202 35.7074C39.4903 36.0649 40.096 36.3866 40.577 36.8335C41.1649 37.3519 41.6281 38.0133 42.1982 38.5674C42.4476 38.8177 42.8218 38.9249 43.0534 39.1752C43.57 39.7114 44.0332 40.3013 44.532 40.8555C44.6746 41.0163 44.8349 41.1594 44.9952 41.3024C45.5475 41.7492 46.1354 42.1604 46.6521 42.643C47.2044 43.1614 47.6676 43.7692 48.1842 44.3233C48.2733 44.4127 48.3802 44.4842 48.4871 44.5378C48.9681 44.8596 49.3778 45.2528 49.752 45.7354C50.0548 46.1287 50.2152 46.8973 50.9278 46.6292C51.195 46.9331 51.4266 47.1834 51.6582 47.4336C52.2105 48.0235 52.7628 48.5955 53.3329 49.1675C53.9742 49.811 54.6334 50.4545 55.3104 51.0802C55.7736 51.5092 56.3971 51.7237 56.6822 52.3851C56.8603 52.7783 57.2701 53.0822 57.5908 53.3861C57.9649 53.7436 58.4103 54.0296 58.7844 54.3871C59.2298 54.8161 59.6396 55.2809 60.0849 55.7099C60.3878 55.9959 60.7263 56.264 61.0292 56.5501C61.2964 56.8003 61.528 57.0684 61.7774 57.3008C62.5257 57.998 63.2917 58.6951 64.0578 59.3744C64.325 59.6246 64.6457 59.8034 64.8951 60.0715C65.2692 60.4469 65.5899 60.8938 65.9641 61.2692C66.837 62.1272 67.7456 62.9673 68.6186 63.8075C69.1352 64.308 69.6697 64.8085 70.1863 65.3269C70.4535 65.5771 70.6851 65.8631 70.9524 66.1313C71.2018 66.3636 71.4868 66.5603 71.7363 66.7926C72.0391 67.0787 72.2885 67.4183 72.6092 67.7043C73.1615 68.2048 73.7494 68.6517 74.3017 69.1522C75.0143 69.7957 75.7091 70.4571 76.4039 71.1185C76.8137 71.5117 77.1878 71.9229 77.5976 72.2983C78.328 72.9775 79.0762 73.6568 79.8245 74.3361C80.0739 74.5684 80.4124 74.7651 80.5549 75.0689C80.7687 75.5337 81.1428 75.8018 81.517 76.07C81.5882 76.1236 81.6595 76.1593 81.7129 76.2309C82.4612 76.9816 82.675 77.9469 82.8353 78.93C82.9066 79.3412 83.0135 79.7702 83.0313 80.1813C83.0313 80.4852 82.9066 80.7712 82.8353 81.0929C82.9778 81.0929 83.0669 81.093 83.156 81.0751L83.2272 81.0929ZM79.9314 79.5557H80.0205C80.0205 79.3054 80.0383 79.0552 79.9848 78.8407C79.8779 78.4474 79.8245 77.9648 79.5573 77.6788C79.1831 77.2497 78.8803 76.7135 78.2924 76.5169C78.2389 76.499 78.2033 76.4096 78.1676 76.356C77.7044 75.8733 77.2412 75.3728 76.7424 74.8902C76.493 74.6399 76.1723 74.4612 75.9051 74.2288C75.7269 74.0679 75.62 73.8355 75.4597 73.6747C75.2815 73.4959 75.0678 73.3708 74.8896 73.192C73.981 72.2983 73.0902 71.4045 72.1995 70.5107C71.3265 69.6527 70.2576 68.9734 69.6162 67.883C69.5628 67.7937 69.4559 67.74 69.3668 67.6864C68.8858 67.311 68.4048 66.9535 67.9416 66.5781C66.837 65.6486 66.0353 64.451 64.8951 63.5572C63.9687 62.8243 63.1136 62.0199 62.2584 61.2155C61.5636 60.572 60.9223 59.8928 60.2631 59.2135C60.0849 59.0347 59.9602 58.8023 59.7821 58.6415C59.2832 58.1946 58.7488 57.8192 58.2678 57.3544C57.2879 56.4249 56.3437 55.4597 55.3817 54.5123C54.7225 53.8687 54.0633 53.2252 53.4041 52.6175C52.8162 52.0633 52.1392 51.6164 51.676 50.9014C51.391 50.4545 50.9634 50.0792 50.5715 49.7217C49.9658 49.1854 49.271 48.7206 48.7365 48.1307C48.2377 47.5766 47.8635 46.9331 47.1331 46.5935C46.8659 46.4683 46.6699 46.1645 46.4561 45.9321C45.9038 45.3422 45.3872 44.7166 44.7815 44.1624C44.247 43.6798 43.6056 43.3401 43.0534 42.8933C42.8396 42.7145 42.7505 42.3034 42.5367 42.2319C42.0201 42.071 41.8775 41.5884 41.5569 41.2666C41.4321 41.1415 41.3609 40.9627 41.2184 40.8555C40.577 40.3371 39.8109 39.9081 39.3299 39.2646C38.9023 38.6925 38.0828 38.4065 37.9938 37.5485C37.9938 37.5128 37.8512 37.477 37.7622 37.4413C37.3702 37.2983 36.9248 37.2268 36.5863 37.0123C35.8203 36.5654 35.0186 36.333 34.1456 36.3866C34.0209 36.3866 33.8962 36.4045 33.7715 36.3866C32.3284 36.1006 31.0635 36.5296 29.9412 37.4234C29.5314 37.7452 29.1929 38.1742 28.8188 38.5317C28.6584 38.6925 28.3556 38.7998 28.3021 38.9785C28.0884 39.7651 27.3045 40.1762 27.0551 40.9985C26.8947 41.5169 26.6809 41.9816 26.77 42.5358C26.8591 43.0184 26.6987 43.4295 26.3068 43.6619C25.7723 43.9658 25.7902 44.4305 25.8436 44.9132C25.8792 45.1456 26.0752 45.3601 26.0752 45.5924C26.093 46.2181 26.0752 46.8437 26.0574 47.4515C26.0039 48.5061 25.8436 49.5787 26.4671 50.5618C26.6275 50.7942 26.8235 51.0087 26.9838 51.2411C27.2332 51.5986 27.447 52.0097 27.732 52.3493C28.1418 52.832 28.605 53.261 29.0326 53.7079C29.7274 54.4408 30.44 55.1558 31.1348 55.8887C31.3308 56.1032 31.5089 56.3355 31.7227 56.5501C32.4531 57.2114 33.2192 57.8192 33.914 58.5163C34.5197 59.1062 35.0364 59.7855 35.6243 60.3933C36.1053 60.8759 36.6576 61.2692 37.1386 61.7339C37.78 62.3238 38.3501 62.9852 38.9914 63.5572C39.6684 64.165 40.3988 64.7191 41.0758 65.3447C41.8953 66.1134 42.5189 67.0787 43.4275 67.7758C43.9798 68.2048 44.4608 68.7411 44.9774 69.2416C45.209 69.474 45.3872 69.7778 45.6188 69.9923C46.1532 70.4929 46.7233 70.9755 47.2934 71.4581C47.5607 71.6905 47.8635 71.8514 48.1129 72.1016C48.8434 72.8345 49.5025 73.621 50.2508 74.3361C51.195 75.2477 52.1749 76.1057 53.1547 76.9637C54.4731 78.1256 55.542 79.5557 56.9672 80.6103C57.7155 81.1645 58.3212 81.8795 58.9804 82.5409C59.7999 83.3274 60.6194 84.1139 61.4389 84.9004C61.6705 85.1149 61.8665 85.3652 62.0981 85.5797C62.7573 86.1874 63.3986 86.7952 64.0756 87.403C64.3607 87.6532 64.6813 87.9035 65.0198 88.1001C65.3227 88.2789 65.6434 88.4219 65.9641 88.547C66.7123 88.8509 67.4605 89.1369 68.2266 89.405C68.5295 89.5123 68.8858 89.5123 69.2065 89.5659C69.7231 89.6553 70.2398 89.834 70.7564 89.834C71.5759 89.834 72.3954 89.6731 73.1971 89.7625C73.8919 89.834 74.4798 89.6195 75.0143 89.3514C75.8516 88.9402 76.5999 88.3504 77.3838 87.832C77.4728 87.7605 77.5263 87.6353 77.5976 87.5281C77.936 86.9561 78.2924 86.3841 78.6309 85.812C78.7199 85.6512 78.8981 85.5082 78.9159 85.3473C78.9872 84.811 79.2366 84.3642 79.4504 83.8636C79.7354 83.2559 79.8245 82.5409 79.967 81.8616C80.0561 81.4683 80.1274 81.0572 80.1274 80.6639C80.1274 80.3064 79.9848 79.9489 79.8958 79.5914L79.9314 79.5557ZM42.5189 26.8412C42.5189 26.8412 42.5011 26.9127 42.4833 26.9484C43.1068 27.4132 43.7482 27.8601 44.3717 28.3248C44.4786 28.3963 44.532 28.5393 44.6211 28.6645C44.8349 28.9326 45.0309 29.2186 45.2803 29.4331C46.3492 30.3269 47.4538 31.2028 48.5405 32.0965C48.8077 32.3289 49.0215 32.6328 49.2709 32.9009C49.7876 33.4551 50.3221 34.0092 50.8387 34.5812C51.1238 34.8851 51.3732 35.2247 51.676 35.4929C52.353 36.0827 53.03 36.6548 53.7248 37.2268C54.2771 37.6736 54.8472 38.1205 55.3995 38.5674C55.8805 38.9428 56.3259 39.3539 56.8425 39.6757C58.2143 40.5337 59.6039 41.3917 61.0292 42.1782C61.813 42.6073 62.6682 42.9111 63.4877 43.215C63.9865 43.4116 64.5388 43.501 65.0376 43.6798C65.4296 43.8049 65.8037 44.0015 66.1956 44.1267C66.4807 44.216 66.8014 44.1982 67.0864 44.2697C67.8169 44.4663 68.5117 44.7344 69.2599 44.8596C70.026 44.9847 70.8099 44.8953 71.5759 45.0562C72.8586 45.3243 73.4644 44.4305 74.1413 43.6619C74.2839 43.501 74.4442 43.2508 74.4442 43.0363C74.462 41.9637 74.0523 41.0521 73.3218 40.3013C73.0368 39.9974 72.7161 39.7293 72.4311 39.4076C72.2885 39.2467 72.2173 38.9786 72.0391 38.8892C70.8989 38.2814 69.6875 37.7809 68.6007 37.0838C67.1399 36.1542 65.4474 35.7074 64.0222 34.7242C63.2917 34.2237 62.4366 33.9019 61.7062 33.4014C60.9223 32.8652 60.2096 32.2217 59.4614 31.6318C59.2476 31.4709 59.016 31.3279 58.7844 31.2028C58.1431 30.8631 57.4482 30.595 56.8425 30.2017C56.3793 29.8979 56.023 29.5582 55.3995 29.5225C54.6156 29.4867 53.8317 29.308 53.0656 29.1292C52.7806 29.0577 52.4599 28.9147 52.264 28.7002C51.8186 28.1997 51.4623 27.6277 51.0525 27.0735C51.0169 27.0199 50.9456 26.9663 50.8922 26.9663C50.4646 26.9305 50.037 26.8948 49.6094 26.8948C47.917 26.8948 46.2245 26.9663 44.532 26.9663C43.855 26.9663 43.1781 26.8412 42.5011 26.7697L42.5189 26.8412ZM25.6476 37.9418C25.8258 37.7451 25.9861 37.5306 26.1821 37.3519C27.0907 36.5654 27.1263 36.5475 26.1821 35.7789C25.6833 35.3677 25.8436 34.4918 25.0954 34.2952C25.2913 33.8126 24.7747 33.8304 24.6143 33.6517C24.6322 33.4729 24.7034 33.3299 24.6678 33.2048C24.4896 32.7043 24.2758 32.2395 24.1155 31.739C24.0621 31.5781 24.0442 31.3636 24.1155 31.2206C24.3471 30.7201 24.4896 30.2375 24.3827 29.6834C24.3649 29.5761 24.4184 29.4152 24.4896 29.3258C24.7212 29.0398 24.9885 28.7896 25.2379 28.5215C25.416 28.3427 25.5764 28.1639 25.7902 27.9316C25.9683 27.8422 26.2177 27.7349 26.4493 27.6098C26.5919 27.5383 26.6987 27.3774 26.8591 27.3417C27.3223 27.2166 27.7855 27.1272 28.2665 27.0557C29.0148 26.9305 29.7808 26.8412 30.5291 26.6803C31.6336 26.4479 32.7204 26.5909 33.8071 26.7339C34.306 26.8054 34.787 26.9663 35.2502 27.1808C35.8203 27.4311 36.3904 27.7171 36.8892 28.0924C37.78 28.736 38.6173 29.4688 39.4724 30.166C39.7397 30.3805 39.9713 30.7022 40.2741 30.8095C40.9511 31.0598 41.4678 31.5781 41.9666 32.025C42.3764 32.4004 42.7505 32.8473 43.1959 33.2048C44.0332 33.8662 44.7993 34.6348 45.6188 35.332C45.7257 35.4214 45.9038 35.4392 46.0107 35.5286C46.4205 35.8861 46.7946 36.2794 47.2044 36.6548C47.4894 36.905 47.9526 37.0659 48.0951 37.3698C48.4514 38.1384 49.1641 38.4959 49.6985 39.0501C49.9836 39.3361 50.2864 39.6042 50.5893 39.8544C51.3197 40.4443 52.068 40.9806 52.8162 41.5705C53.4398 42.071 54.0277 42.6073 54.6869 43.072C55.1322 43.3938 55.6845 43.5725 56.1655 43.8228C57.4483 44.5199 58.7132 45.2707 60.0315 45.8963C61.047 46.379 62.1159 46.7901 63.1848 47.1297C64.5566 47.5766 65.9284 47.9341 67.318 48.3095C68.0128 48.4883 68.7433 48.7028 69.4559 48.7385C70.2754 48.7921 71.0949 48.7028 71.9144 48.6134C72.7874 48.524 73.6781 48.381 74.5333 48.2201C75.1925 48.095 75.8338 47.9162 76.3505 47.7911C76.5643 47.5945 76.689 47.4515 76.8315 47.3442C77.2769 47.0225 77.8113 46.7722 78.1498 46.379C78.5596 45.8785 78.7912 45.2349 79.0941 44.6629C79.2544 44.359 79.3791 44.0552 79.5038 43.7334C79.5929 43.501 79.6463 43.2508 79.6642 43.0184C79.6642 42.8218 79.6285 42.6251 79.5929 42.4464C79.486 41.9637 79.4147 41.4632 79.2544 40.9985C79.0762 40.4801 78.8268 39.9974 78.5952 39.5148C78.4349 39.1931 78.3458 38.7283 77.9182 38.9607C77.6154 38.5317 77.3838 38.1027 77.0453 37.7988C76.6355 37.4234 76.1189 37.1374 75.6735 36.8156C75.2637 36.5117 74.8896 36.1185 74.4442 35.8682C73.8385 35.5107 73.1793 35.2426 72.5736 34.903C71.7897 34.4918 71.0236 34.0449 70.2398 33.6338C69.7766 33.3836 69.2955 33.1512 68.8502 32.883C68.387 32.6149 67.9772 32.2753 67.4962 32.0429C67.0152 31.8105 66.4807 31.7211 66.0175 31.4709C64.521 30.7023 63.0067 29.9336 61.724 28.8253C61.6705 28.7717 61.5993 28.736 61.5458 28.7181C60.9757 28.4142 60.3878 28.1282 59.8177 27.8243C59.1585 27.4668 58.5172 27.0735 57.8224 26.6803C57.8402 27.8243 58.4103 28.5036 59.2298 29.0041C59.8177 29.3616 60.4769 29.6297 61.0648 29.9872C61.8487 30.452 62.7394 30.8095 63.3452 31.4709C63.9331 32.1144 64.717 32.311 65.3583 32.8294C65.8215 33.2048 66.3382 33.5266 66.8904 33.7768C68.0128 34.2952 69.153 34.7242 70.2754 35.2426C70.9702 35.5465 71.6472 35.9219 72.2885 36.3151C73.6425 37.1195 74.9609 38.0312 75.9229 39.3003C76.8137 40.4622 77.6688 41.7314 77.2769 43.3938C77.0809 44.2518 77.0987 45.1456 76.208 45.7176C75.62 46.1108 75.0678 46.6292 74.373 46.7543C73.5713 46.8973 72.7517 46.8973 71.9322 46.951C71.4868 46.9688 71.0593 47.0046 70.6139 46.951C69.9013 46.8973 69.2065 46.8258 68.5117 46.7365C68.1019 46.6828 67.71 46.5398 67.318 46.4326C66.5876 46.2538 65.8393 46.1108 65.1089 45.9142C64.6635 45.8069 64.2359 45.6103 63.7906 45.4673C63.5055 45.3779 63.2026 45.3243 62.9354 45.2349C62.401 45.0562 61.8843 44.8059 61.3498 44.6272C60.9401 44.502 60.4591 44.5199 60.0849 44.3233C59.2476 43.8764 58.4637 43.3223 57.6264 42.8218C57.1454 42.5358 56.6287 42.3391 56.1655 42.0531C55.8092 41.8386 55.5242 41.5169 55.1679 41.2845C54.8828 41.0878 54.4374 41.0521 54.2593 40.784C53.8495 40.2298 53.226 39.9796 52.7628 39.5327C51.8364 38.6568 50.7318 38.0133 49.8767 37.048C48.9681 36.047 48.1842 34.8851 46.9371 34.2058C46.848 34.1522 46.7412 34.0449 46.7233 33.9734C46.6699 33.4551 46.2601 33.2763 45.9216 33.0082C45.601 32.7579 45.3694 32.3825 45.0487 32.1144C44.6033 31.739 44.0866 31.4351 43.6234 31.0419C42.8039 30.3447 42.0201 29.6297 41.2184 28.8968C40.9511 28.6645 40.7373 28.3606 40.4879 28.1103C40.3276 27.9494 40.1494 27.8243 39.9713 27.6992C39.1518 27.1093 38.3501 26.5015 37.5306 25.9116C37.3524 25.7865 37.1564 25.6256 36.9605 25.5363C36.0162 25.0894 35.0008 24.7319 34.11 24.1956C33.5399 23.8381 32.9163 23.8024 32.3284 23.6772C31.6336 23.5342 30.8854 23.5878 30.1728 23.6236C28.6584 23.6772 27.1085 23.713 25.7189 24.428C24.9885 24.8034 24.3471 25.3575 23.7057 25.8759C23.296 26.1977 22.9575 26.6267 22.619 27.0199C22.423 27.2523 22.1736 27.5026 22.1024 27.7886C21.942 28.3963 21.8351 29.022 21.7817 29.6476C21.7282 30.2196 21.6748 30.8095 21.746 31.3815C21.7995 31.8463 22.1202 32.2753 22.2092 32.7222C22.423 33.8304 22.9575 34.7242 23.7414 35.5465C24.4184 36.2615 25.0241 37.0659 25.6833 37.8703L25.6476 37.9418ZM57.9293 24.2135C58.5172 24.4995 59.1051 24.7676 59.6574 25.0715C60.0493 25.286 60.4056 25.5899 60.7976 25.8223C61.6171 26.3049 62.4544 26.7697 63.2739 27.2702C63.4877 27.4132 63.6659 27.6634 63.8974 27.7707C64.6101 28.0924 65.4296 28.2176 65.875 28.9862C65.9284 29.0756 66.0888 29.0935 66.2135 29.1292C66.3916 29.1828 66.6054 29.2186 66.7657 29.2901C67.7456 29.7191 68.7076 30.1481 69.6875 30.5771C69.7587 30.6129 69.9191 30.5771 69.9369 30.6129C70.2041 31.0419 70.5426 31.31 71.0593 31.4709C71.6294 31.6496 72.146 32.0429 72.6983 32.3468C73.1081 32.5792 73.5 32.883 73.9276 32.9903C74.373 33.1154 74.658 33.9734 75.3706 33.1333C75.8694 32.5434 76.2436 31.9357 76.6177 31.2743C76.1011 30.9525 76.012 30.5235 76.1011 29.9515C76.1545 29.6119 75.9585 29.1292 75.7091 28.8611C75.1034 28.1818 74.4442 27.5204 73.4287 27.4668C73.2862 27.4668 73.1259 27.3953 73.0368 27.3059C72.538 26.716 71.7719 26.7697 71.1483 26.6088C69.9191 26.2692 68.6542 26.1083 67.4071 25.8759C67.1221 25.8223 66.837 25.8223 66.5698 25.7686C65.6434 25.5541 64.7348 25.3039 63.8084 25.0715C63.0601 24.8927 62.2941 24.7319 61.5636 24.5174C61.1182 24.3744 60.6907 24.142 60.2631 23.9632C60.0493 23.8739 59.8355 23.7487 59.6217 23.6593C59.4258 23.5878 59.1942 23.57 59.016 23.4806C58.1609 23.0873 58.1609 23.0873 58.0183 24.0347C58.0183 24.1241 57.9827 24.1956 57.9827 24.2135H57.9293ZM60.1028 21.4964C60.6194 21.7467 61.1539 22.0506 61.7062 22.2829C62.49 22.6047 63.3095 22.855 64.1112 23.1588C64.3607 23.2482 64.5744 23.427 64.8239 23.4806C65.7859 23.6415 66.7479 23.7487 67.71 23.9096C68.4582 24.0347 69.2065 24.2492 69.9547 24.3922C70.3288 24.4637 70.7208 24.4459 71.0949 24.5352C71.6294 24.6604 72.1282 24.8212 72.6627 24.9821C73.6781 25.286 74.7471 25.4826 75.6913 25.9474C76.6711 26.43 77.5263 27.1987 78.4527 27.8601C78.8268 27.5204 78.8981 26.9484 78.8803 26.3585C78.8446 25.7329 78.8803 25.0536 78.6665 24.4816C78.2389 23.4448 77.3481 22.6941 76.3148 22.3187C75.139 21.9076 73.8741 21.6931 72.627 21.5143C71.665 21.3713 70.6673 21.4071 69.6875 21.4071C68.957 21.4071 68.2444 21.5143 67.514 21.4964C66.2135 21.4607 64.9129 21.3534 63.6124 21.2819C63.2205 21.264 62.8107 21.2819 62.4188 21.2462C61.5993 21.1568 60.7797 20.8887 60.0849 21.4786L60.1028 21.4964ZM50.8743 22.3187C49.8054 21.9433 48.683 21.6037 47.5963 21.1389C46.4739 20.6563 45.405 20.0843 44.3183 19.548C44.1935 19.4765 44.051 19.4229 43.9263 19.3871C43.6234 19.2978 43.3206 19.262 43.0355 19.1548C42.5901 18.9581 42.1804 18.6185 41.6994 18.4934C40.1138 18.0644 38.546 18.2789 37.0495 18.9224C36.8179 19.0296 36.5329 19.3514 36.5151 19.5838C36.4616 20.6027 36.907 21.4428 37.6196 22.1578C38.2966 22.8192 39.0092 23.4806 39.7219 24.1062C39.9535 24.3029 40.2385 24.4637 40.5236 24.5352C41.0402 24.6604 41.5925 24.7319 42.1269 24.8034C42.7861 24.8928 43.4453 25.0358 44.1223 25.0715C45.0843 25.1251 46.0642 25.1073 47.0262 25.1073C47.525 25.1073 48.0417 25.1073 48.5405 25.1073C48.3802 25 48.2377 24.9464 48.0773 24.9285C47.1153 24.7676 46.2245 24.4459 45.405 23.8917C45.2447 23.7845 45.0665 23.6772 44.8883 23.6057C44.0688 23.2482 43.2671 22.8728 42.412 22.569C41.6459 22.3187 40.862 22.1399 40.0604 21.9791C39.615 21.8897 39.0449 21.5322 39.1518 21.1389C39.223 20.835 39.4368 20.4597 39.8822 20.406C41.2184 20.263 42.5545 20.0485 43.8194 20.7635C44.0688 20.9065 44.4251 20.8529 44.6389 21.0317C45.1734 21.4428 45.7613 21.7109 46.4027 21.8897C46.759 21.9791 47.2578 22.0684 47.436 22.3187C47.7566 22.7835 48.2198 22.855 48.6474 22.998C49.3422 23.2125 50.0548 23.3197 50.8031 23.4806C50.8209 22.9801 50.8565 22.6405 50.8565 22.3544L50.8743 22.3187ZM52.264 19.7804C52.264 19.7804 52.2996 19.7089 52.3174 19.6731C52.1749 19.5659 52.0323 19.4229 51.872 19.3514C51.0703 18.9581 50.2508 18.5649 49.4491 18.1716C49.3244 18.1001 49.2175 18.0286 49.0928 17.9392C48.3445 17.4566 47.6141 16.974 46.8659 16.4913C46.7055 16.3841 46.5452 16.2768 46.3848 16.1696C45.6544 15.6869 44.9596 15.1685 44.2114 14.7217C43.2671 14.1854 42.2517 13.8815 41.1827 13.6313C40.2029 13.4168 39.3834 13.8994 38.4926 13.9351C38.457 13.9351 38.3857 13.9888 38.3679 14.0245C38.0294 14.5965 37.9403 15.1864 38.3144 15.7763C38.5995 16.2589 39.0449 16.3483 39.5793 16.4019C40.7017 16.5271 41.8953 16.0444 42.9465 16.7952C42.9465 16.7952 42.9821 16.8131 42.9999 16.8131C44.1757 16.7595 44.924 17.975 46.1176 17.8498C46.1711 17.8498 46.2423 17.975 46.3136 18.0107C46.848 18.3504 47.3647 18.7079 48.0239 18.833C48.4693 18.9224 48.8968 19.1548 49.3422 19.3335C49.9658 19.5838 50.5893 19.8161 51.195 20.0843C51.6226 20.263 51.8364 20.1379 51.872 19.691C52.0145 19.7089 52.1392 19.7268 52.264 19.7625V19.7804ZM51.2128 16.6343C51.2128 16.6343 51.2663 16.5449 51.2841 16.4913C51.0703 16.2768 50.8387 16.0981 50.6249 15.8657C50.1261 15.3115 49.6985 14.6859 49.1641 14.1854C48.4514 13.5061 47.6319 12.952 46.9193 12.2727C46.0642 11.4505 45.1021 10.9857 43.9085 10.9321C43.1959 10.8963 42.5011 11.2538 42.3407 11.7722C42.9108 11.9688 43.4987 12.1476 44.051 12.3442C44.5142 12.5051 44.9774 12.666 45.3872 12.9162C46.1354 13.3453 46.848 13.8458 47.5785 14.3105C48.1486 14.668 48.7543 14.9898 49.3244 15.3473C49.9479 15.7584 50.5715 16.2053 51.1772 16.6343H51.2128ZM55.0432 27.5562C55.0075 27.2702 54.9719 27.0378 54.9541 26.8054C54.8828 25.8759 54.669 24.9106 54.8116 24.0169C54.9541 23.1588 55.2213 22.2293 55.9874 21.6037C56.3615 21.2819 56.7 20.9065 57.0563 20.549C57.1988 20.406 57.4482 20.2094 57.4126 20.0664C57.377 19.8698 57.181 19.6016 57.0029 19.548C56.7713 19.4765 56.3081 19.5123 56.2368 19.6553C56.0408 20.0306 55.7736 20.1558 55.4173 20.2452C55.2391 20.2988 54.9897 20.406 54.9185 20.549C54.5087 21.4607 54.0455 22.3723 53.7783 23.3197C53.6001 23.9811 53.6536 24.7319 53.6714 25.4469C53.707 26.7518 54.0455 27.2523 55.0253 27.5383L55.0432 27.5562Z" fill="#1E6E67"/>
<path fill-rule="evenodd" clip-rule="evenodd" d="M29.4424 47.4157C29.5315 46.8974 30.1728 46.4505 30.7429 46.5935C31.794 46.8616 32.667 47.4157 33.433 48.1665C34.0566 48.7743 34.6979 49.382 35.3037 49.9898C35.9094 50.5976 36.4439 51.2589 37.0674 51.8488C37.6019 52.3672 38.2254 52.7784 38.7599 53.2789C39.7397 54.2084 40.7018 55.1737 41.646 56.1568C42.127 56.6394 42.4655 57.3187 43.0178 57.6583C44.0333 58.2482 44.639 59.2314 45.5119 59.9643C46.2602 60.5899 47.0084 61.2334 47.7032 61.9306C48.4515 62.6813 49.1107 63.4857 49.8411 64.2544C50.0549 64.4867 50.3577 64.6476 50.6072 64.88C51.6761 65.8989 52.7272 66.9535 53.7961 67.9724C54.384 68.5266 55.0076 69.0271 55.5777 69.5812C56.3259 70.332 57.0386 71.1364 57.7868 71.8871C58.054 72.1553 58.3747 72.3698 58.6776 72.6022C58.7667 72.6737 58.8201 72.763 58.8914 72.8345C59.4971 73.5317 60.1028 74.2109 60.7264 74.9081C60.8154 74.9975 60.8689 75.1583 60.958 75.1941C61.7953 75.3907 62.0447 76.3917 62.8464 76.642C62.9889 77.2855 63.6481 77.3928 64.04 77.7681C64.913 78.5904 65.6612 79.5557 66.552 80.3779C67.0865 80.8785 67.5319 81.4862 68.2623 81.7544C68.583 81.8795 68.9215 81.9867 69.1353 82.3442C69.4203 82.8447 70.0082 82.8447 70.507 82.952C71.6472 83.2023 72.734 83.0235 73.8029 82.5766C74.3374 82.3442 74.9431 82.2727 75.531 82.1655C75.6557 82.1476 75.8873 82.1655 75.9051 82.2549C75.9586 82.38 75.9229 82.5587 75.8695 82.7017C75.727 83.0056 75.5132 83.2916 75.3885 83.5955C75.05 84.3999 74.2483 84.7395 73.6069 84.8468C72.4668 85.0434 71.2731 84.9004 70.1151 84.8468C69.5985 84.8289 69.0462 84.7574 68.5652 84.5787C68.0129 84.382 67.5141 84.0603 66.9974 83.7743C66.6233 83.5776 66.2492 83.3631 65.875 83.1665C65.8038 83.1308 65.6969 83.1129 65.6791 83.0771C65.3227 82.2012 64.521 81.7544 63.8619 81.1466C63.0067 80.3601 62.1694 79.5557 61.3321 78.7513C60.8867 78.3223 60.4948 77.8575 60.0494 77.4285C59.889 77.2855 59.604 77.2676 59.4615 77.1068C59.1942 76.8386 58.9626 76.5169 58.7132 76.2309C58.5172 76.0164 58.3035 75.8018 58.0897 75.6052C57.6443 75.1762 57.2345 74.7115 56.7535 74.3361C56.0231 73.7462 55.3283 73.1742 54.9007 72.3161C54.8472 72.2089 54.7047 72.1553 54.6156 72.0838C54.2593 71.7441 53.903 71.4045 53.5289 71.0828C53.226 70.8325 52.9054 70.6359 52.6025 70.4035C52.5312 70.3499 52.4243 70.3141 52.3887 70.2426C52.068 69.2237 50.9991 68.9198 50.3577 68.2227C49.6273 67.4362 48.9325 66.6139 48.2021 65.8453C47.632 65.2375 47.0084 64.6834 46.4205 64.1114C45.9039 63.6108 45.3872 63.1282 44.835 62.6634C44.3361 62.2166 43.7304 61.8591 43.481 61.1798C43.481 61.144 43.4275 61.1262 43.4097 61.1083C42.3052 60.7329 41.8063 59.6783 40.9868 58.999C40.3276 58.4449 39.7041 57.8728 39.0984 57.2651C38.653 56.8182 38.261 56.2998 37.8335 55.835C37.5841 55.5669 37.2456 55.3524 36.9961 55.0843C36.6042 54.6731 36.141 54.3156 35.8203 53.7973C35.5175 53.3146 34.8939 53.0465 34.4485 52.6354C34.1991 52.403 34.021 52.0991 33.8072 51.831C33.7715 51.7952 33.7537 51.7237 33.7181 51.7058C33.1836 51.2768 32.6135 50.8657 32.1325 50.4009C31.2952 49.6144 30.4757 48.7743 29.674 47.952C29.5493 47.8269 29.5315 47.6124 29.4602 47.4515L29.4424 47.4157Z" fill="#1E6E67"/>
<path fill-rule="evenodd" clip-rule="evenodd" d="M38.8133 43.215C37.9403 43.7334 37.2099 44.1803 36.4794 44.6093C35.9272 44.9311 34.5019 44.4484 34.2881 43.7155C34.2525 43.5904 34.3416 43.3759 34.4485 43.2687C34.8582 42.8754 35.2858 42.5 35.7312 42.1425C35.8737 42.0174 36.0697 41.928 36.2478 41.928C36.8357 41.928 37.4771 41.8207 37.9937 42.0174C38.3322 42.1425 38.4926 42.7324 38.7954 43.215H38.8133Z" fill="#1E6E67"/>
<path fill-rule="evenodd" clip-rule="evenodd" d="M60.3521 67.3825C59.9246 67.4004 59.4792 67.454 59.0516 67.4362C58.5171 67.4183 58.0005 66.4351 58.2499 65.9525C58.2855 65.8989 58.3924 65.8631 58.4637 65.8453C58.8378 65.7201 59.301 65.7201 59.3545 65.166C59.3545 65.1302 59.4613 65.0945 59.5326 65.0766C60.0493 64.9336 60.5481 64.7727 61.0647 64.6476C61.6348 64.5046 62.1159 64.7549 62.294 65.2732C62.49 65.8095 62.294 66.31 61.8308 66.6139C61.6348 66.739 61.4745 66.9535 61.2785 67.0787C60.9935 67.2574 60.6906 67.4004 60.4056 67.5613C60.3878 67.5077 60.3699 67.454 60.3343 67.4004L60.3521 67.3825Z" fill="#1E6E67"/>
<path fill-rule="evenodd" clip-rule="evenodd" d="M71.0058 78.1078C70.5961 78.1435 70.1685 78.2329 69.7588 78.1614C69.4737 78.1078 69.1352 77.8933 69.0105 77.643C68.868 77.3749 68.9571 76.9995 68.9571 76.6777C68.9571 76.642 69.0996 76.6241 69.1708 76.5883C69.5093 76.4453 69.9904 76.4632 70.026 75.927C70.026 75.9091 70.0616 75.8555 70.0973 75.8555C70.7742 75.6588 71.4512 75.3907 72.146 75.3192C72.3954 75.3013 72.7874 75.7125 72.9655 76.0163C73.1971 76.3738 73.1259 76.8207 72.7874 77.1425C72.4845 77.4464 72.1282 77.7145 71.7719 77.9648C71.5581 78.1078 71.2731 78.1793 71.0237 78.2686C71.0237 78.215 71.0058 78.1614 70.988 78.1256L71.0058 78.1078Z" fill="#1E6E67"/>
<path fill-rule="evenodd" clip-rule="evenodd" d="M50.714 58.3733C50.1974 58.2661 49.8055 58.0337 49.3244 58.2303C49.0038 58.3555 48.5049 57.6941 48.5227 57.2829C48.5227 56.9433 48.4871 56.6216 49.0038 56.5679C49.2354 56.5501 49.6451 56.4607 49.6095 56.0138C49.6095 55.978 49.6986 55.9065 49.752 55.8887C50.2865 55.7278 50.8031 55.5848 51.3376 55.4597C51.9077 55.3167 52.3353 55.549 52.549 56.0495C52.7806 56.6216 52.6025 57.1221 52.1037 57.426C51.9077 57.5332 51.7652 57.7298 51.587 57.8371C51.302 58.0337 50.9991 58.1946 50.6962 58.3733H50.714Z" fill="#1E6E67"/>
<path fill-rule="evenodd" clip-rule="evenodd" d="M39.4012 47.5409C39.0092 47.523 38.5817 47.5766 38.2075 47.4515C37.9581 47.38 37.6731 47.094 37.6018 46.8616C37.5306 46.6292 37.5306 46.2896 37.8869 46.0751C38.3857 45.7891 38.8489 45.4137 39.3121 45.0741C39.8822 44.6451 40.4523 44.9668 41.0224 45.0383C41.1649 45.0383 41.3609 45.3065 41.4143 45.4852C41.5925 46.1108 41.1827 46.9867 40.5948 47.237C40.2207 47.3979 39.8109 47.4872 39.419 47.6124V47.523L39.4012 47.5409Z" fill="#1E6E67"/>
<path fill-rule="evenodd" clip-rule="evenodd" d="M55.6489 63.5036C55.7914 63.1282 55.9162 62.7349 56.0765 62.3059C56.3081 62.2523 56.611 62.2523 56.8426 62.1093C57.377 61.7875 57.9293 62.0199 58.4816 62.0199C58.6597 62.0199 58.9804 62.2166 58.9982 62.3596C59.0517 62.6634 58.9982 63.0031 58.9092 63.3069C58.8379 63.5215 58.6776 63.7538 58.4994 63.8611C58.1965 64.0398 57.8224 64.2365 57.4839 64.2186C56.8247 64.2007 56.0765 64.308 55.6846 63.5036H55.6489Z" fill="#1E6E67"/>
<path fill-rule="evenodd" clip-rule="evenodd" d="M66.3203 74.2824C66.4807 73.8534 66.6232 73.4602 66.7657 73.049C66.9795 72.9954 67.3002 72.9954 67.5318 72.8524C68.0662 72.5306 68.6185 72.763 69.153 72.763C69.3311 72.763 69.6518 72.9597 69.6696 73.1027C69.7053 73.4244 69.6162 73.7641 69.5271 74.0858C69.4737 74.2646 69.3311 74.4612 69.1708 74.5506C68.8679 74.7293 68.5294 74.9081 68.1909 74.9438C67.3536 75.0332 66.9617 74.8544 66.3203 74.2646V74.2824Z" fill="#1E6E67"/>
<path fill-rule="evenodd" clip-rule="evenodd" d="M45.9395 54.2799C46.0642 53.9045 46.2067 53.5291 46.367 53.118C46.5986 53.0643 46.9015 53.0643 47.1331 52.9213C47.6676 52.5996 48.2198 52.832 48.7543 52.832C48.9325 52.832 49.2531 53.0465 49.2709 53.1716C49.3066 53.4934 49.2175 53.833 49.1284 54.1547C49.075 54.3335 48.9325 54.5301 48.7721 54.6195C48.4871 54.7983 48.1486 55.0128 47.8457 54.9949C47.1509 54.9949 46.367 55.1379 45.9573 54.262L45.9395 54.2799Z" fill="#1E6E67"/>
</g>
<defs>
<clipPath id="clip0_125_12968">
<rect width="64.5455" height="82.7273" fill="white" transform="translate(18.6818 9.09091)"/>
</clipPath>
</defs>
</svg>
