<svg width="101" height="100" viewBox="0 0 101 100" fill="none" xmlns="http://www.w3.org/2000/svg">
<g clip-path="url(#clip0_125_12962)">
<path fill-rule="evenodd" clip-rule="evenodd" d="M89.5909 87.1684C89.0724 87.4179 89.1261 87.9881 89.0188 88.3801C88.84 88.9859 88.5003 89.3244 87.9997 89.663C86.1404 90.9102 84.0486 91.4448 81.9032 91.8902C79.7757 92.3178 77.6482 92.7455 75.4849 92.9593C74.2871 93.0662 73.0713 93.1731 71.8735 93.1553C70.5326 93.1375 69.2454 93.6186 67.9045 93.5116C66.4206 93.3691 64.9367 93.7433 63.4528 93.6542C61.1823 93.5117 58.9117 93.3156 56.6412 93.1553C55.9618 93.1018 55.2467 93.3869 54.6388 93.2978C53.9952 93.1909 53.3516 93.1731 52.7258 93.0127C51.7783 92.7811 50.8128 92.8167 49.8653 92.7455C48.6675 92.6564 47.4339 92.4604 46.3433 92.1218C44.77 91.6229 43.0537 91.3913 41.6234 90.3757C41.248 90.1084 40.6937 90.0906 40.2289 89.948C39.6389 89.7699 39.2277 89.3779 38.8165 88.8968C38.4053 88.3979 38.298 87.9702 38.2802 87.3288C38.2802 86.6873 38.3338 86.0815 38.3695 85.4579C38.4053 84.3175 38.6377 83.1415 38.4411 82.019C38.298 81.1994 38.012 80.4688 38.4589 79.6849C38.5483 79.5245 38.4232 79.2394 38.3874 79.0078C38.3517 78.8118 38.2623 78.598 38.2623 78.402C38.3874 76.3707 38.1014 74.3394 38.2265 72.3082C38.2802 71.5064 38.4053 70.7224 38.3874 69.9028C38.3874 69.5108 38.7629 69.0475 38.1193 68.8159C38.0835 68.8159 38.1193 68.5129 38.1908 68.3882C38.6198 67.3191 38.1729 66.0719 38.888 65.0741C39.1562 64.7177 39.335 64.2544 39.8713 64.1475C40.1931 64.0763 40.4792 63.8268 40.5507 63.5239C40.6401 63.0963 40.9798 62.9537 41.2301 62.9003C42.41 62.6864 43.304 61.8846 44.3409 61.4035C45.4494 60.8868 46.6472 60.6374 47.8272 60.3523C48.6853 60.1385 49.5971 60.0316 50.4195 59.6574C50.8128 59.4614 51.2419 59.7287 51.6531 59.5861C53.1191 59.105 54.6746 59.0159 56.1763 58.713C57.1239 58.5348 58.1251 58.5883 59.1084 58.6061C59.609 58.6061 60.1096 58.6596 60.5923 58.5348C61.5577 58.2676 62.5589 58.6061 63.5422 58.4636C64.9188 58.2498 66.3133 58.4636 67.69 58.4636C68.423 58.4636 69.2096 58.4279 69.9784 58.6596C70.6935 58.8734 71.4623 58.6061 72.2132 58.7843C72.6601 58.8912 73.1607 58.8734 73.5898 59.0338C75.2525 59.6574 77.0046 59.9068 78.6851 60.4414C79.3466 60.6552 80.0796 60.6908 80.759 60.7977C82.0284 60.9937 83.1368 61.4748 84.1738 62.1519C84.585 62.4192 84.9604 62.6686 85.4431 62.7399C85.8186 62.7934 86.1046 62.9894 86.4264 63.1675C87.7137 63.9159 88.4288 65.1632 89.1797 66.357C89.2333 66.4461 89.287 66.553 89.287 66.6421C89.1618 67.8002 89.3764 68.9584 89.3227 70.1344C89.2691 71.2391 89.0545 72.4329 89.5015 73.5554C89.5015 73.5911 89.573 73.6089 89.6266 73.6445V74.4285C89.3764 74.7493 89.3585 75.1413 89.3406 75.5333C89.3406 76.5311 89.573 77.5467 89.3048 78.5445C89.2691 78.687 89.2691 78.8652 89.3048 79.0078C89.6266 80.5936 89.2691 82.1794 89.3942 83.7652C89.4479 84.371 89.0724 85.0659 89.6266 85.6361V87.2041L89.5909 87.1684ZM41.8737 70.8649C41.8737 70.8649 41.7664 70.6867 41.677 70.8115L41.7843 70.9362C41.4804 72.0053 41.6055 73.0922 41.6234 74.1969C41.6234 74.6423 41.7307 75.0878 41.677 75.5333C41.4804 76.9587 41.7843 78.3841 41.677 79.8274C41.6234 80.5223 41.391 81.1816 41.4446 81.8943C41.5698 83.7652 41.7664 85.6361 41.5161 87.5248C41.4804 87.7386 41.5161 87.9881 41.7664 88.0237C42.5888 88.1306 43.2503 88.7186 44.0012 88.879C45.7354 89.2531 47.3266 90.1084 49.1502 90.2331C50.6341 90.3222 52.118 90.6786 53.6197 90.7499C55.8903 90.8568 58.1251 91.2309 60.4135 91.2131C62.0941 91.2131 63.7746 91.4448 65.4731 91.2488C66.0273 91.1775 66.6173 91.124 67.1715 91.124C68.7627 91.1597 70.336 91.1418 71.9092 90.9459C73.3574 90.7677 74.7877 90.5539 76.2358 90.3757C77.4158 90.2331 78.4706 89.6808 79.6505 89.663C80.3299 89.663 80.9914 89.6629 81.6708 89.467C83.2441 89.0393 84.6028 88.2375 85.9258 87.3466C86.0867 87.2397 86.0331 87.1684 86.0152 87.0437C85.8722 86.0815 86.3192 85.0837 85.7649 84.1572C85.7292 84.1215 85.7828 83.9612 85.8186 83.9612C86.337 83.783 86.051 83.5157 85.908 83.2485C85.8007 83.0703 85.7828 82.8743 85.8007 82.6605C85.8543 81.7161 85.9258 80.7539 85.8543 79.8274C85.8186 79.2216 86.1046 78.5801 85.9795 78.099C85.7649 77.226 85.8364 76.3529 85.8901 75.5333C85.9616 74.4642 85.9973 73.4129 85.8186 72.3616C85.6577 71.4707 85.4431 71.346 84.6565 71.7558C83.4944 72.3438 82.3502 72.914 81.0272 73.0565C80.902 73.0565 80.7769 73.1456 80.6696 73.2169C79.7221 73.698 78.703 73.894 77.6839 74.1434C76.1106 74.5176 74.4122 74.0187 72.8926 74.8205C72.5529 74.9987 72.0702 74.9809 71.659 74.8205C71.3371 74.7136 71.0332 74.7493 70.7293 74.8562C69.013 75.4263 67.243 75.2125 65.5088 75.1413C63.6137 75.0522 61.7007 74.8384 59.8056 74.9453C58.3396 75.0165 56.9451 74.6245 55.5148 74.6423C54.5137 74.6423 53.6734 74.1434 52.6901 74.0365C51.385 73.894 50.0441 73.8049 48.7926 73.2347C48.006 72.8784 47.112 72.7002 46.236 72.5576C44.6627 72.2726 43.2146 71.7024 41.8558 70.8827L41.8737 70.8649ZM62.5053 72.9675C64.1858 73.0031 65.3479 73.0565 66.51 72.9675C69.156 72.7358 71.802 72.4329 74.4301 72.0587C77.2549 71.6489 80.0081 70.9897 82.6005 69.7602C83.7089 69.2435 84.728 68.602 85.5325 67.6755C85.6577 67.533 85.9258 67.3726 85.7828 67.1588C85.318 66.4282 85.1928 65.4839 84.3168 65.0206C82.4574 64.0406 80.6517 62.9181 78.5779 62.4192C78.1845 62.3301 77.8091 62.4548 77.3979 62.2232C76.6649 61.7955 75.8067 61.4214 74.9843 61.3323C73.8222 61.1897 72.6601 60.9937 71.4623 61.0116C70.4611 61.0116 69.4778 60.8334 68.4945 60.7443C67.3682 60.6374 66.2061 60.673 65.0619 60.7086C62.3444 60.7977 59.609 60.7621 56.9094 61.0472C55.7651 61.1719 54.6209 61.2432 53.5125 61.4392C52.5113 61.6174 51.4922 61.9025 50.5089 62.0806C48.0775 62.5261 46.0036 63.809 43.6794 64.5039C43.6079 64.5217 43.5543 64.6464 43.4827 64.7177C43.1431 65.0741 42.8391 65.5017 42.4279 65.7512C41.7664 66.161 41.5698 67.2479 42.1776 67.7646C43.6079 69.0475 45.1812 69.9562 47.1478 70.3482C48.6853 70.6511 50.205 71.2391 51.7962 71.3817C52.8867 71.4707 53.8522 72.0587 54.8712 72.1835C57.5887 72.522 60.2883 73.0565 62.5053 73.0031V72.9675Z" fill="#1E6E67"/>
<path fill-rule="evenodd" clip-rule="evenodd" d="M11.4091 71.8627C11.9275 71.6667 11.8381 71.2569 11.6951 70.9006C11.4627 70.3482 11.4984 69.7958 11.7487 69.3148C11.9633 68.9049 11.999 68.4773 11.8739 68.1031C11.4448 66.8559 11.7487 65.6086 11.8203 64.3792C11.8381 63.9693 11.856 63.5595 11.8203 63.1497C11.7309 62.3835 11.5163 61.6352 11.9633 60.8512C12.1242 60.5661 12.0169 60.0672 11.9097 59.7108C11.6415 58.909 11.7309 58.125 11.7845 57.3232C11.8381 56.4679 11.9812 55.5414 11.9454 54.7574C11.9097 54.0981 11.7309 53.3142 11.7487 52.6014C11.7845 50.9087 11.6594 49.2338 11.6057 47.5589C11.6057 47.0422 11.9454 46.6324 11.9097 46.08C11.8739 45.4029 11.6594 44.708 11.6951 44.0844C11.7666 43.0866 11.5878 42.0888 11.7487 41.1088C11.8918 40.2714 11.8739 39.3626 11.7487 38.6143C11.6236 37.7768 11.7309 36.9394 11.6772 36.1198C11.6415 35.2823 11.7309 34.4092 11.7309 33.5718C11.7309 32.4314 11.8024 31.3089 11.8381 30.1863C11.8739 28.066 12.3745 26.0526 13.0539 24.0391C13.3042 23.273 13.4114 22.4533 14.0729 21.901C15.092 21.0635 15.4853 19.7984 16.2541 18.8184C16.8262 18.0701 17.738 17.5712 18.5246 17.001C19.0252 16.6625 19.5794 16.4308 19.8834 15.8428C20.0264 15.5399 22.4936 15.0232 22.7975 15.1657C23.173 15.3439 23.459 15.629 23.5305 16.0388C23.6021 16.5021 23.2266 16.6625 22.9048 16.8585C20.384 18.4086 18.5604 20.529 17.1301 23.1304C16.4865 24.2886 16.3077 25.4646 15.9323 26.6227C15.7892 27.086 15.7892 27.5849 15.2886 27.9056C15.0205 28.0838 15.1099 28.5293 15.0562 28.8678C14.8774 30.0438 14.949 31.2198 14.949 32.3958C14.949 33.3758 14.8417 34.4449 15.1993 35.407C15.3423 35.7812 15.0384 36.1019 15.0384 36.4761C15.0026 37.6699 14.9132 38.8459 15.1814 40.0397C15.2886 40.503 15.092 40.9663 15.0384 41.4295C14.8596 42.8015 15.3423 44.1735 14.9311 45.5455C14.8596 45.7771 14.8596 46.0979 14.949 46.3295C15.2171 47.0422 15.0205 47.7727 15.1099 48.4676C15.3065 50.0713 14.8417 51.6571 15.1099 53.2785C15.2886 54.3832 15.1099 55.577 15.1099 56.7174C15.1099 57.8934 15.378 59.1407 14.9668 60.3166C14.9668 60.3701 14.9311 60.4235 14.9311 60.477C15.3602 62.2944 15.1277 64.1475 15.1456 65.9828C15.1456 67.3191 15.4674 68.7446 14.9132 70.0809C14.8417 70.2591 14.8417 70.4907 14.8774 70.7046C15.235 73.2525 15.092 75.8183 15.2708 78.3663C15.3423 79.4888 16.0038 80.0056 16.558 80.6827C17.1659 81.431 18.1134 81.6983 18.8643 82.2685C19.3113 82.607 20.0085 82.5357 20.5806 82.7317C22.0824 83.2663 23.6378 83.6404 25.229 83.6939C26.8023 83.7474 28.3934 84.2463 29.9667 83.4444C30.3958 83.2306 31.0037 83.3732 31.5043 83.2306C31.9512 83.0881 32.3803 82.9812 32.7558 82.607C33.4709 81.8943 34.8654 81.9656 35.4196 82.6426C35.9917 83.3375 35.8129 84.3354 34.9727 84.6204C32.6306 85.3866 30.3064 86.1172 27.7319 86.0637C25.3899 86.0102 23.1015 85.6539 20.813 85.3866C20.0264 85.2975 19.2755 84.8877 18.5067 84.7273C17.0586 84.4423 16.0574 83.391 14.7523 82.8921C14.4305 82.7674 14.1444 82.607 14.0908 82.215C14.055 81.9656 13.9299 81.7696 13.6617 81.7161C13.0896 81.627 12.9645 81.235 12.8572 80.7183C12.5533 79.275 12.0169 77.903 11.8381 76.442C11.8024 76.2103 11.8024 75.9074 11.4806 75.8005V75.1769C11.8024 74.7849 11.8024 73.2525 11.4806 72.5042V71.8805L11.4091 71.8627Z" fill="#1E6E67"/>
<path fill-rule="evenodd" clip-rule="evenodd" d="M89.5908 85.6004C89.0366 85.0481 89.412 84.3353 89.3584 83.7295C89.2332 82.1615 89.5908 80.5579 89.269 78.9721C89.2332 78.8296 89.2332 78.6514 89.269 78.5089C89.5372 77.511 89.3048 76.4954 89.3048 75.4976C89.3048 75.1056 89.3405 74.7314 89.5908 74.3929V85.6004Z" fill="white"/>
<path fill-rule="evenodd" clip-rule="evenodd" d="M11.4091 72.5042C11.7309 73.2525 11.7309 74.7849 11.4091 75.1769V72.5042Z" fill="white"/>
<path fill-rule="evenodd" clip-rule="evenodd" d="M25.9084 81.4845C24.3887 81.6983 22.9763 81.1816 21.5639 80.8074C20.5091 80.5223 19.5258 79.9343 18.5425 79.4354C17.8274 79.079 17.6307 78.3129 17.5771 77.6358C17.5234 76.9587 17.1838 76.3885 17.005 75.8005C16.7904 75.1234 16.7547 74.482 16.8262 73.8584C16.9871 72.4151 16.9513 70.9896 16.8262 69.5642C16.7904 68.9762 16.8619 68.3704 16.8619 67.7824C16.8977 65.7868 16.6474 63.7912 16.8619 61.7955C16.9335 61.2075 16.701 60.5126 16.7547 59.8534C16.8262 58.8734 17.1301 57.9112 16.7904 56.8956C16.5759 56.2541 16.6295 55.488 16.8798 54.8109C17.005 54.4545 16.9513 54.1338 16.8441 53.8131C16.701 53.3142 16.6653 52.7974 16.7904 52.3342C16.9335 51.8174 16.9871 51.3364 16.8619 50.8196C16.6653 49.9644 17.0944 49.1269 16.9156 48.2895C16.6474 46.9531 16.7547 45.599 16.9156 44.2626C17.0944 42.9262 16.6295 41.6255 16.7368 40.2714C16.8977 38.4539 16.7368 36.6187 16.6117 34.8012C16.558 34.1063 16.5759 33.4292 16.4865 32.7343C16.3792 31.9325 17.0407 31.1842 17.3268 30.418C17.6128 29.6518 18.1849 29.0638 19.0073 28.654C21.4209 27.478 24.049 27.2998 26.6414 27.0147C28.7331 26.7831 30.8785 26.8544 32.9703 27.4067C34.3827 27.7809 35.7057 28.2976 37.0108 28.9569C38.0835 29.4914 38.1371 30.4536 38.1192 31.398C38.1192 32.3958 37.9583 33.3936 37.9047 34.3736C37.8689 35.1041 37.8332 35.9772 38.0477 36.7434C38.2444 37.4561 37.8689 38.1332 38.0477 38.8459C38.298 39.7903 37.708 40.7881 38.1908 41.7503C37.6365 42.4273 38.4768 43.247 37.9583 43.9597C37.6723 44.3517 37.9583 44.8684 38.012 45.2426C38.2265 46.7571 37.8689 48.2538 37.9762 49.7506C38.012 50.1425 37.9762 50.5345 38.0656 50.9087C38.2444 51.6393 37.9583 52.3342 37.9405 53.0291C37.9226 54.0447 37.8511 55.0603 38.0656 56.076C38.3517 57.3945 37.8868 58.713 38.0835 60.0494C38.1192 60.2454 37.9762 60.5126 38.155 60.6374C38.4768 60.8868 38.3338 60.9581 38.0656 61.1006C37.7796 61.261 37.5829 61.4926 37.5471 61.8312C37.4041 62.9003 36.3314 63.5239 36.1705 64.6286C36.1169 64.985 35.9917 65.3413 36.0632 65.6977C36.099 65.8937 36.099 66.0541 36.0275 66.2144C35.5984 67.3369 35.5448 68.4951 35.5805 69.6889C35.652 71.3104 35.7772 72.9496 35.6699 74.5533C35.5805 75.8183 35.6163 77.0478 35.8666 78.2772C35.9023 78.4554 35.8308 78.6336 35.6878 78.687C34.6687 79.0256 34.1503 80.1481 33.0418 80.3798C31.9512 80.6114 30.9143 81.0568 29.7522 81.0925C28.4292 81.1459 27.1241 81.3776 25.8011 81.5379L25.9084 81.4845ZM27.4817 55.7374C29.4304 55.6483 31.2897 55.4701 33.1133 54.9891C33.7927 54.8109 34.4542 54.508 35.0978 54.2229C35.509 54.0447 35.7057 53.6883 35.5805 53.2607C35.4911 52.9756 35.4196 52.6193 35.0084 52.6193C34.2754 52.6193 33.5424 52.5658 32.8273 52.7262C30.7534 53.1894 28.6437 53.332 26.5162 53.4389C25.0681 53.5102 23.6378 53.2785 22.2076 53.136C21.6891 53.0825 21.1706 53.1894 21.0276 53.7952C20.9024 54.312 21.3852 54.8643 22.0288 55.0069C23.8524 55.381 25.7117 55.5414 27.4995 55.7552L27.4817 55.7374ZM27.9823 65.4482C29.3768 65.5017 31.0931 65.0919 32.7915 64.6108C33.3815 64.4504 33.9178 64.1653 34.4184 63.8268C34.8296 63.5417 35.0084 63.1319 34.7045 62.6686C34.4006 62.2232 33.9715 62.1697 33.5424 62.4726C33.2921 62.6508 33.0418 62.7221 32.7379 62.7399C32.0585 62.8112 31.397 62.9181 30.7176 62.9893C27.9286 63.3101 25.1217 63.4704 22.3327 62.9893C21.6533 62.8646 21.5103 63.1853 21.5282 63.6842C21.5282 64.3435 22.0109 64.6464 22.583 64.8068C24.2099 65.2522 25.8905 65.4661 27.9823 65.4482ZM20.1337 32.6096C20.1337 33.5005 20.7058 34.3914 21.4388 34.4983C23.2087 34.7478 24.9787 34.9794 26.7665 35.1041C28.6437 35.2289 30.4852 34.9081 32.3446 34.6409C33.3457 34.4983 34.2218 33.9994 35.1336 33.5718C35.5627 33.3758 35.7414 33.0016 35.5448 32.5205C35.3481 32.0216 34.9905 32.1998 34.633 32.2889C34.2575 32.3958 33.8642 32.4492 33.4888 32.5383C31.3612 32.9838 29.2516 33.5718 27.0526 33.3758C26.6056 33.3401 26.1587 33.3223 25.7117 33.2867C24.2099 33.1798 22.6903 33.3936 21.2064 32.9838C20.8667 32.8947 20.4555 33.0729 20.1516 32.6096H20.1337ZM27.1241 73.7514C28.0538 73.7871 28.9298 73.7514 29.788 73.6089C30.6461 73.4842 31.397 73.1278 32.0406 72.5398C32.3267 72.2725 32.4339 71.9162 32.2552 71.542C32.0764 71.1678 31.8082 71.15 31.4149 71.2925C30.4137 71.6489 29.3052 71.6846 28.2862 71.6311C26.7129 71.542 25.1396 71.5598 23.5842 71.4351C23.0657 71.3995 22.5294 71.4173 22.3685 72.0409C22.2076 72.6645 22.7439 72.8962 23.1909 73.11C24.4602 73.7336 25.819 73.8227 27.1241 73.7514Z" fill="#9CD7ED"/>
<path fill-rule="evenodd" clip-rule="evenodd" d="M33.6497 15.0767C35.0084 15.3083 36.3135 15.8963 37.4399 16.8406C38.7807 17.9632 39.8356 19.3708 40.8189 20.7784C41.4089 21.6159 41.5519 22.7384 41.9452 23.7184C42.8212 25.91 42.8391 28.262 43.2682 30.5427C43.4827 31.6296 43.5542 32.8234 43.4827 33.9994C43.4112 35.1398 43.2503 36.3514 43.5721 37.4917C43.7688 38.1688 43.4649 38.8103 43.4827 39.4695C43.5364 41.4295 43.6258 43.4073 43.5006 45.3673C43.4291 46.5789 43.0894 47.8262 43.59 49.0378C43.8045 49.5724 43.6258 50.1247 43.6079 50.6593C43.5542 52.2629 43.4827 53.8665 43.6079 55.488C43.7152 56.8065 43.447 58.1428 43 59.4079C42.7676 60.0494 42.3206 60.3879 41.6234 60.3523C40.944 60.3345 40.8725 59.7821 40.6937 59.3367C39.8713 57.2519 40.1216 55.0781 40.0859 52.9222C40.068 51.3898 39.9428 49.8396 40.0859 48.3251C40.2468 46.5255 39.9786 44.7259 40.1574 42.9262C40.2289 42.1244 40.0322 41.2692 40.1037 40.4139C40.1216 40.0575 40.0501 39.7012 40.211 39.3448C40.5328 38.6499 40.0143 38.0085 40.0501 37.2957C40.1037 36.2801 40.0501 35.2823 40.3898 34.3023C40.6222 33.5896 40.0859 32.966 39.9965 32.2532C39.9786 32.0751 39.8713 31.8969 39.9428 31.7365C40.3362 30.8278 40.2289 29.9013 40.0322 28.9747C39.8892 28.3155 39.8713 27.6562 39.8892 26.9791C39.9071 26.4267 39.6031 25.9635 39.3707 25.518C38.7629 24.3242 38.3159 23.0591 37.7259 21.8653C37.5829 21.5624 37.422 21.2773 37.1896 21.0101C36.8499 20.6181 36.4029 20.2795 36.385 19.6203C36.3672 19.1926 35.7593 19.1213 35.4733 18.8006C34.7581 17.9632 34.043 17.1614 32.8809 16.9297C32.2909 16.805 32.0764 16.2526 32.2194 15.6825C32.3803 14.9876 33.0418 15.1657 33.6318 15.0588L33.6497 15.0767Z" fill="#1E6E67"/>
<path fill-rule="evenodd" clip-rule="evenodd" d="M28.8404 14.453C27.4459 14.453 26.0693 14.3283 24.6748 14.3461C24.1384 14.3461 23.4054 14.2749 23.1551 13.8294C22.8691 13.3305 22.5472 12.7425 22.6009 12.1011C22.6724 10.9963 22.7975 9.90944 22.8691 8.82254C22.9584 7.504 23.7808 6.77346 25.086 6.57746C26.6593 6.34583 28.2325 6.32801 29.8058 6.39928C31.5758 6.48837 32.577 7.53964 32.6842 9.30362C32.7558 10.5331 32.8451 11.7625 32.4161 12.9563C32.0406 13.9898 31.4685 14.3996 30.3422 14.4352C29.8416 14.4352 29.341 14.4352 28.8404 14.4352V14.453Z" fill="#1E6E67"/>
<path fill-rule="evenodd" clip-rule="evenodd" d="M38.3159 85.4222C38.3159 85.4222 38.2444 85.4222 38.2086 85.4222V85.351L38.298 85.4401L38.3159 85.4222Z" fill="#1E6E67"/>
<path fill-rule="evenodd" clip-rule="evenodd" d="M41.8736 74.9274C43.2324 75.4442 44.6805 75.8005 46.2538 75.9787C47.112 76.0856 48.0238 76.1747 48.8104 76.4063C50.0619 76.7627 51.4028 76.8161 52.7079 76.9052C53.6733 76.9765 54.5315 77.2972 55.5327 77.2794C56.9629 77.2794 58.3574 77.511 59.8235 77.4754C61.7186 77.422 63.6315 77.5467 65.5266 77.6001C67.2608 77.6536 69.0308 77.7783 70.7471 77.422C71.051 77.3507 71.355 77.3329 71.6768 77.4041C72.088 77.4932 72.5707 77.511 72.9104 77.4041C74.43 76.9052 76.1285 77.226 77.7018 76.9765C78.7208 76.8161 79.7399 76.6914 80.6874 76.3885C80.8126 76.3529 80.9199 76.2994 81.045 76.2994C82.368 76.2103 83.5122 75.854 84.6743 75.4976C85.4609 75.2482 85.6755 75.3194 85.8364 75.8718C86.0152 76.5311 85.9973 77.1903 85.9079 77.8674C85.8543 78.3663 85.7828 78.9187 85.9973 79.471C86.1224 79.7739 85.8364 80.1659 85.8722 80.5579C85.9437 81.1459 85.8721 81.7517 85.8185 82.3397C85.8185 82.4823 85.8185 82.5892 85.9258 82.7139C86.0867 82.8743 86.3549 83.0346 85.8364 83.1594C85.8006 83.1594 85.747 83.2663 85.7828 83.2841C86.337 83.8721 85.8722 84.4957 86.0331 85.1015C86.0509 85.1906 86.1046 85.2263 85.9437 85.2975C84.6207 85.8677 83.244 86.3488 81.6886 86.6339C81.0093 86.7586 80.3478 86.7408 79.6684 86.7586C78.4884 86.7586 77.4157 87.1328 76.2536 87.2041C74.8055 87.311 73.3752 87.4535 71.9271 87.5604C70.3538 87.6851 68.7626 87.6851 67.1893 87.6673C66.6172 87.6673 66.0272 87.703 65.4909 87.7386C63.7924 87.8633 62.1119 87.7208 60.4313 87.7208C58.1429 87.7208 55.9081 87.4891 53.6376 87.4179C52.1537 87.3644 50.6519 87.1506 49.168 87.0971C47.3265 87.0259 45.7532 86.4913 44.019 86.2597C43.2682 86.1528 42.6067 85.7964 41.7843 85.7252C41.5161 85.7073 41.4982 85.5648 41.534 85.4222C41.7843 84.2463 41.5876 83.0703 41.4624 81.8943C41.4088 81.4488 41.6412 81.039 41.6949 80.6114C41.8021 79.7027 41.4982 78.8118 41.6949 77.9209C41.7664 77.6358 41.6591 77.3507 41.6412 77.0834C41.6234 76.4063 41.4982 75.7114 41.8021 75.0343C41.8379 75.0343 41.8558 74.9987 41.8915 74.9809L41.8736 74.9274Z" fill="#A0CD64"/>
<path fill-rule="evenodd" clip-rule="evenodd" d="M62.5052 72.9496C60.2704 73.0031 57.5708 72.4685 54.8712 72.13C53.8343 72.0053 52.8688 71.4351 51.7961 71.3282C50.205 71.1856 48.7032 70.5977 47.1478 70.2947C45.1812 69.9028 43.6079 68.994 42.1776 67.7111C41.5876 67.1944 41.7664 66.1075 42.4279 65.6977C42.8391 65.4482 43.143 65.0206 43.4827 64.6642C43.5542 64.593 43.59 64.4682 43.6794 64.4504C45.9857 63.7555 48.0774 62.4726 50.5089 62.0272C51.5101 61.849 52.5291 61.5639 53.5124 61.3857C54.6209 61.1897 55.783 61.1185 56.9093 60.9937C59.6268 60.7086 62.3443 60.7443 65.0618 60.6552C66.206 60.6196 67.3681 60.5839 68.4945 60.6908C69.4778 60.7799 70.479 60.9759 71.4623 60.9581C72.6422 60.9581 73.8222 61.1541 74.9843 61.2788C75.8246 61.3679 76.6648 61.7421 77.3979 62.1697C77.8269 62.4014 78.1845 62.2766 78.5778 62.3657C80.6696 62.8646 82.4574 63.9693 84.3168 64.9672C85.2107 65.4304 85.3358 66.3748 85.7828 67.1053C85.9258 67.3191 85.6576 67.4795 85.5325 67.622C84.728 68.5486 83.691 69.19 82.6004 69.7067C80.0081 70.9362 77.2548 71.5955 74.4301 72.0053C71.8019 72.3973 69.156 72.6824 66.51 72.914C65.3479 73.0209 64.1858 72.9674 62.5052 72.914V72.9496ZM75.6994 64.3079C75.0022 64.2723 74.3764 64.3079 73.7507 64.4148C71.7304 64.7355 69.9962 65.7333 68.2084 66.6421C67.9045 66.7846 67.4396 66.8202 67.4933 67.337C67.529 67.818 67.8508 68.0675 68.262 68.2457C69.2632 68.6733 70.3002 69.0475 71.3729 69.2257C73.9831 69.6355 76.5933 70.2947 79.2036 69.2257C79.8651 68.9584 80.5266 68.7802 80.7947 68.014C81.1165 67.034 80.7769 66.3391 80.0438 65.6621C78.7745 64.5039 77.2369 64.3257 75.6994 64.3079ZM59.1799 70.4551C60.3777 70.3482 61.5219 70.2591 62.684 70.1166C63.0773 70.0631 63.5601 69.8849 63.6137 69.4929C63.6673 69.0297 63.1131 68.994 62.7913 68.9584C61.4325 68.7624 60.0917 68.5664 58.7329 68.4773C56.1406 68.3169 53.6018 67.7824 51.0452 67.4617C50.6698 67.4082 50.1871 67.23 50.0798 66.8915C49.9547 66.5351 50.5268 66.446 50.7234 66.1788C50.8665 65.9828 51.1346 65.965 51.367 65.9115C52.5649 65.6086 53.7627 65.2701 54.9606 64.9672C55.3182 64.8781 55.6578 64.6821 55.6936 64.3435C55.7294 64.0763 55.6221 63.6843 55.3003 63.5417C55.0679 63.4348 54.7997 63.3813 54.5315 63.3813C52.0464 63.3635 49.758 64.1119 47.5947 65.2522C46.6829 65.7333 46.6472 67.3548 47.5411 67.8893C47.7735 68.0319 47.9523 68.1922 48.0953 68.4239C48.2562 68.6911 48.4708 68.8871 48.7747 68.9228C50.7949 69.0653 52.6543 69.9918 54.7103 70.0275C56.2299 70.0453 57.7317 70.3126 59.2156 70.4551H59.1799ZM60.628 64.4504C60.9856 64.397 61.504 64.5039 62.0225 64.3435C62.4874 64.201 62.9164 64.0584 62.8628 63.5061C62.8092 62.9894 62.4337 62.633 61.9152 62.6152C60.7174 62.5439 59.5196 62.633 58.3396 62.9537C58.1072 63.0072 57.8032 63.1497 57.982 63.417C58.2859 63.8981 58.5541 64.4861 59.2871 64.4682C59.6805 64.4682 60.0738 64.4682 60.628 64.4682V64.4504Z" fill="white"/>
<path fill-rule="evenodd" clip-rule="evenodd" d="M41.7843 70.9362L41.677 70.8115C41.7664 70.6867 41.82 70.8115 41.8737 70.8649C41.8379 70.8827 41.82 70.9184 41.7843 70.9362Z" fill="white"/>
<path fill-rule="evenodd" clip-rule="evenodd" d="M27.4817 55.7374C25.6938 55.5414 23.8345 55.3632 22.0109 54.9891C21.3673 54.8643 20.8846 54.312 21.0097 53.7774C21.1527 53.1716 21.6712 53.0647 22.1897 53.1182C23.6199 53.2607 25.0502 53.4923 26.4983 53.4211C28.6259 53.3142 30.7355 53.1716 32.8094 52.7084C33.5245 52.548 34.2575 52.6193 34.9905 52.6014C35.4017 52.6014 35.4911 52.9578 35.5626 53.2429C35.6878 53.6883 35.4911 54.0269 35.0799 54.2051C34.4363 54.4902 33.7748 54.7931 33.0954 54.9712C31.2897 55.4523 29.4125 55.6305 27.4638 55.7196L27.4817 55.7374Z" fill="white"/>
<path fill-rule="evenodd" clip-rule="evenodd" d="M27.9643 65.4482C25.8726 65.4482 24.192 65.2522 22.5651 64.8068C21.993 64.6464 21.5281 64.3435 21.5103 63.6842C21.5103 63.1853 21.6354 62.8646 22.3148 62.9893C25.1038 63.4883 27.9107 63.3101 30.6997 62.9893C31.3791 62.9181 32.0585 62.8112 32.7199 62.7399C33.0239 62.7043 33.2742 62.6508 33.5245 62.4726C33.9536 62.1519 34.3826 62.2054 34.6866 62.6686C34.9905 63.1319 34.8117 63.5417 34.4005 63.8268C33.8999 64.1653 33.3457 64.4504 32.7736 64.6108C31.0751 65.0919 29.3588 65.5017 27.9643 65.4482Z" fill="white"/>
<path fill-rule="evenodd" clip-rule="evenodd" d="M20.1337 32.6096C20.4377 33.0729 20.8489 32.8769 21.1885 32.9838C22.6724 33.3936 24.1921 33.1976 25.6939 33.2867C26.1408 33.3223 26.5878 33.3401 27.0347 33.3758C29.2517 33.5718 31.3613 32.9838 33.4709 32.5383C33.8643 32.4492 34.2397 32.3958 34.6151 32.2889C34.9727 32.182 35.3303 32.0216 35.5269 32.5205C35.7236 33.0016 35.5269 33.3758 35.1157 33.5718C34.2039 33.9816 33.3279 34.4805 32.3267 34.6408C30.4853 34.9081 28.6259 35.2288 26.7487 35.1041C24.9609 34.9794 23.1909 34.7478 21.421 34.4983C20.688 34.3914 20.1158 33.5183 20.1158 32.6096H20.1337Z" fill="white"/>
<path fill-rule="evenodd" clip-rule="evenodd" d="M27.1241 73.7514C25.8011 73.8227 24.4602 73.7158 23.1908 73.11C22.7439 72.8962 22.2075 72.6645 22.3684 72.0409C22.5115 71.4173 23.0657 71.3995 23.5842 71.4351C25.1574 71.5598 26.7129 71.542 28.2861 71.6311C29.3231 71.6845 30.4137 71.6489 31.4148 71.2925C31.8082 71.15 32.0763 71.1678 32.2551 71.542C32.4339 71.9162 32.3266 72.2725 32.0406 72.5398C31.4148 73.1278 30.6461 73.4842 29.7879 73.6089C28.9298 73.7336 28.0537 73.7693 27.1241 73.7514Z" fill="white"/>
<path fill-rule="evenodd" clip-rule="evenodd" d="M75.6994 64.3079C77.237 64.3257 78.7745 64.5217 80.0438 65.6621C80.7769 66.3213 81.1165 67.0162 80.7947 68.014C80.5266 68.798 79.8651 68.9584 79.2036 69.2257C76.5933 70.2948 73.9831 69.6355 71.3729 69.2257C70.3002 69.0475 69.2632 68.6555 68.262 68.2457C67.8508 68.0675 67.529 67.8181 67.4933 67.337C67.4575 66.8202 67.9224 66.7846 68.2084 66.6421C69.9962 65.7333 71.7304 64.7533 73.7507 64.4148C74.3764 64.3079 75.0022 64.2544 75.6994 64.3079ZM72.3562 67.1588C73.0356 67.4795 73.6613 67.3191 74.2155 67.4795C75.3597 67.818 76.4682 67.7646 77.523 67.1588C77.6839 67.0697 77.9878 67.0697 77.9342 66.7668C77.8806 66.5173 77.6839 66.4104 77.4157 66.357C76.2536 66.1431 75.1094 66.2679 73.9652 66.4817C73.4468 66.5708 72.9104 66.749 72.3562 67.1588Z" fill="#1E6E67"/>
<path fill-rule="evenodd" clip-rule="evenodd" d="M59.1799 70.4551C57.696 70.3126 56.1763 70.0453 54.6745 70.0275C52.6185 69.9918 50.7592 69.0475 48.7389 68.9228C48.435 68.9049 48.2205 68.6911 48.0596 68.4239C47.9165 68.1922 47.7556 68.0319 47.5053 67.8893C46.6293 67.3548 46.6472 65.7333 47.559 65.2522C49.7222 64.1119 52.0107 63.3635 54.4958 63.3814C54.7461 63.3814 55.0321 63.4348 55.2645 63.5417C55.5863 63.6843 55.6936 64.0763 55.6578 64.3435C55.6221 64.6643 55.2824 64.8781 54.9248 64.9672C53.727 65.2701 52.5291 65.5908 51.3313 65.9115C51.0989 65.965 50.8486 65.9828 50.6877 66.1788C50.491 66.4461 49.9189 66.5173 50.0441 66.8915C50.1513 67.2301 50.634 67.426 51.0095 67.4617C53.584 67.7824 56.1048 68.317 58.6972 68.4773C60.0559 68.5664 61.4147 68.7624 62.7555 68.9584C63.0595 69.0119 63.6316 69.0297 63.5779 69.4929C63.5243 69.8849 63.0416 70.0631 62.6483 70.1166C61.504 70.2591 60.342 70.3304 59.1441 70.4551H59.1799Z" fill="#1E6E67"/>
<path fill-rule="evenodd" clip-rule="evenodd" d="M60.6459 64.4504C60.0917 64.4504 59.6984 64.4504 59.3051 64.4504C58.5721 64.4682 58.3039 63.8803 57.9999 63.3992C57.8212 63.1319 58.1251 62.9894 58.3575 62.9359C59.5196 62.633 60.7175 62.5439 61.9332 62.5974C62.4516 62.633 62.8271 62.9715 62.8807 63.4883C62.9344 64.0406 62.5053 64.201 62.0404 64.3257C61.522 64.4861 61.0035 64.3792 60.6459 64.4326V64.4504Z" fill="#1E6E67"/>
<path fill-rule="evenodd" clip-rule="evenodd" d="M72.3384 67.1588C72.8926 66.749 73.429 66.5708 73.9474 66.4817C75.0738 66.2679 76.2358 66.1431 77.3979 66.357C77.6661 66.4104 77.8628 66.5173 77.9164 66.7668C77.9879 67.0697 77.6661 67.0697 77.5052 67.1588C76.4504 67.7468 75.3598 67.818 74.1977 67.4795C73.6435 67.3191 73.0178 67.4795 72.3384 67.1588Z" fill="white"/>
</g>
<defs>
<clipPath id="clip0_125_12962">
<rect width="78.1818" height="87.2727" fill="white" transform="translate(11.4091 6.36365)"/>
</clipPath>
</defs>
</svg>
