<svg width="101" height="100" viewBox="0 0 101 100" fill="none" xmlns="http://www.w3.org/2000/svg">
<g clip-path="url(#clip0_125_12975)">
<path fill-rule="evenodd" clip-rule="evenodd" d="M31.2231 30.6078C31.2946 31.3484 30.9548 31.948 30.7224 32.6004C30.6151 32.8826 30.5257 33.1647 30.7045 33.4821C30.7939 33.6408 30.7939 33.8524 30.7224 34.0817C30.5078 34.8752 30.4363 35.6687 30.6866 36.4622C30.7939 36.7973 30.776 37.1852 30.7581 37.5379C30.7581 38.4372 31.0264 39.2483 31.3482 40.0418C31.7953 41.188 31.7595 42.4577 32.296 43.5157C32.7431 44.415 33.0292 45.4025 33.5477 46.2665C33.8517 46.7779 33.9948 47.3775 34.2452 47.9241C34.3346 48.1533 34.4419 48.4179 34.6207 48.5589C35.2644 49.0527 35.4611 49.8814 36.1407 50.3576C36.3374 50.4986 36.3374 50.7631 36.0691 51.0276C35.2287 51.8388 34.3167 52.5794 33.7087 53.6022C33.4941 53.9901 33.3332 54.4309 33.1543 54.8365C33.1007 54.9599 33.0113 55.101 33.0828 55.2421C33.5835 56.2648 33.351 57.4287 33.7445 58.4867C34.1379 59.5271 34.3882 60.6204 34.8174 61.6607C35.336 62.8775 35.6221 64.1647 36.0513 65.4167C36.391 66.4042 36.7129 67.427 37.1778 68.3439C37.911 69.7722 38.3938 71.2358 38.662 72.8052C38.7693 73.4048 38.8945 74.0043 38.9303 74.6039C38.9839 75.3797 39.6635 75.2387 40.1105 75.3445C40.5576 75.4503 40.8079 75.1152 40.8794 74.7097C41.0583 73.6164 41.0225 72.5407 40.5933 71.5003C40.486 71.2535 40.4503 71.0419 40.4681 70.795C40.5397 69.9309 40.0926 69.208 39.7707 68.4497C39.574 67.9912 39.0555 67.6738 39.0376 67.233C39.0018 66.316 38.4117 65.6107 38.2686 64.729C38.0719 63.4241 37.4639 62.2427 36.999 61.0083C36.4804 59.6681 35.8367 58.328 35.783 56.8468C35.7473 56.0709 35.783 55.2774 35.9618 54.5367C36.1049 53.9725 36.5877 53.514 37.1778 53.32C37.4997 53.2142 37.8216 53.0908 38.0183 52.8263C38.3402 52.4207 38.6084 52.597 38.7872 52.8792C39.27 53.6374 40.1105 54.0959 40.5576 54.8718C40.647 55.0305 40.8079 55.1187 40.9688 55.1187C41.3086 55.1187 41.5232 55.2597 41.7735 55.4713C42.167 55.8064 43.2578 55.6477 43.5975 55.2774C43.7764 55.0834 43.5975 54.5191 43.2935 54.3251C42.6855 53.9372 42.2385 53.3553 41.5947 52.9673C41.0046 52.597 40.3966 52.1562 40.039 51.5919C39.6277 50.9747 39.0018 50.6044 38.5369 50.0578C38.0898 49.5464 37.8752 48.8234 37.2494 48.4531C37.1599 48.4002 37.0527 48.312 37.0527 48.2239C37.0527 47.448 36.4268 47.0424 35.9976 46.4958C35.3717 45.6846 35.032 44.7148 34.728 43.7449C34.5313 43.1277 34.2094 42.5106 34.0663 41.8934C33.8696 41.1175 33.512 40.3416 33.512 39.5128C33.512 39.3012 33.4762 39.1073 33.4047 38.9133C32.7967 37.6613 32.904 36.3564 32.8682 35.0163C32.8503 33.9935 33.0828 33.0413 33.1365 32.0538C33.1722 31.3308 33.7623 30.7313 33.9412 30.0083C34.3524 28.3684 35.0499 26.8342 35.7294 25.2825C36.1764 24.2597 36.856 23.378 37.4282 22.4434C37.5176 22.2847 37.6785 22.1437 37.7143 21.9673C37.9468 20.8564 38.7515 20.0982 39.5383 19.3752C40.1463 18.8109 40.7721 18.2642 41.3265 17.6647C42.167 16.783 43.222 16.3069 44.3486 15.9542C44.6883 15.8484 45.0102 15.7603 45.2963 15.5134C45.8149 15.0373 46.4587 15.1431 47.0846 15.2136C48.2648 15.3547 49.4271 15.3018 50.5895 15.196C51.5193 15.1078 52.2167 15.6721 53.0214 15.9013C54.2732 16.254 55.2209 17.2062 56.419 17.5942C57.7781 18.035 58.6364 18.9872 59.5663 19.9394C60.2458 20.6272 61.0684 21.2443 61.4261 22.1437C61.8195 23.0959 62.5884 23.8012 62.9997 24.7358C63.3037 25.4059 63.8759 25.9525 64.1978 26.6402C64.3945 27.0635 64.627 27.4514 64.6806 27.9628C64.7164 28.4036 64.9488 28.8445 65.1277 29.2677C65.3065 29.6732 65.5032 30.0436 65.2886 30.502C65.2528 30.5726 65.2707 30.7136 65.2886 30.8018C65.7714 32.0891 65.7178 33.4645 65.9145 34.787C66.1291 36.2506 66.0039 37.8024 65.8429 39.2836C65.6641 40.8883 65.4674 42.5106 65.0561 44.08C64.8952 44.6619 64.6806 45.2262 64.466 45.7904C63.9832 47.1482 63.1427 48.4179 63.25 49.952C63.25 50.0754 63.25 50.1989 63.25 50.3223C63.3037 50.6044 63.3216 50.9571 63.6256 51.0453C63.9832 51.1334 64.1263 50.8337 64.2872 50.5339C64.8773 49.423 65.3422 48.2415 66.1291 47.2011C66.4688 46.7603 66.4867 46.0726 66.7192 45.4907C67.0053 44.75 67.0947 44.6795 67.81 44.8911C68.4537 45.0851 69.0796 44.9969 69.7234 44.8558C69.8664 44.8206 70.0453 44.7677 70.1525 44.8206C70.9036 45.2614 71.7619 45.3496 72.5666 45.5436C73.4071 45.7375 73.729 46.4605 74.1224 47.0248C75.0165 48.312 75.392 49.8109 75.7139 51.3627C76.0358 52.8792 76.1252 54.4838 76.8405 55.8945C77.1802 56.5646 77.3769 57.3229 77.824 57.94C78.128 58.3456 78.2532 58.8746 78.3605 59.3331C78.5929 60.3206 79.1652 61.0788 79.7553 61.8371C80.2202 62.4543 80.3275 63.2301 80.6494 63.865C81.1143 64.7819 81.1501 65.7518 81.4541 66.6687C81.6866 67.3917 81.2931 68.1852 81.6508 68.9082C81.919 69.4548 81.5614 70.0368 81.776 70.6187C81.8654 70.8655 81.3826 71.1477 81.5256 71.6061C81.9727 72.9639 81.7402 74.3041 80.9892 75.5032C80.7388 75.8911 80.3633 76.2262 79.8447 76.4201C79.3619 76.5965 79.0042 77.0197 78.5572 77.2842C77.8061 77.7427 77.3233 78.5891 76.304 78.6949C76.0179 78.7302 75.7676 79.0476 75.4814 79.2063C74.6231 79.7353 73.568 79.7176 72.6739 80.1056C71.9944 80.4053 71.2612 80.4583 70.5638 80.6699C70.1347 80.7933 69.6876 80.7933 69.2763 80.8638C68.4895 81.0049 67.7563 81.3928 66.9516 81.4105C66.7549 81.4105 66.5225 81.4986 66.3794 81.6397C66.0575 81.9571 65.7357 82.0453 65.3065 81.8689C65.0204 81.7455 64.6627 81.8689 64.5197 82.0453C63.9474 82.6977 63.1249 82.6096 62.4096 82.7859C61.8195 82.927 61.1757 82.927 60.6392 83.2796C60.4604 83.4031 60.2458 83.3854 60.0312 83.4031C59.7988 83.4031 59.5663 83.4031 59.3517 83.5089C58.9583 83.7381 58.6007 84.0026 58.0642 83.9145C57.635 83.8615 57.4562 84.4258 57.0628 84.5493C56.1508 84.8314 55.2567 85.1664 54.2911 85.2722C53.8977 85.3075 53.5221 85.572 53.1287 85.6955C52.5744 85.8718 52.02 86.1187 51.4478 85.6955C51.3047 85.5897 51.0365 85.6073 50.8398 85.6602C50.1066 85.8718 49.3377 85.8718 48.5867 85.9423C47.3885 86.0658 46.262 85.6602 45.0817 85.6073C44.0803 85.5544 43.1326 85.3075 42.31 84.6551C41.9166 84.3377 41.3623 84.3906 40.8973 84.2671C39.5383 83.8968 38.6799 82.8212 37.607 82.0629C36.9096 81.5868 36.4625 80.8638 35.8367 80.2995C35.479 79.9821 34.9783 79.4708 35.032 78.7831C35.0677 78.3422 34.7101 78.0424 34.5492 77.6721C34.0485 76.4378 33.5299 75.2387 33.4405 73.8809C33.3868 73.0697 33.2616 72.1704 32.904 71.4651C32.2781 70.2484 32.0278 68.9611 31.6344 67.6915C31.4555 67.0919 31.3661 66.3689 30.9012 65.8928C30.6508 65.6283 30.7402 65.3109 30.7224 65.0817C30.5972 64.1471 29.7031 63.6005 29.6137 62.6659C29.6137 62.5072 29.4527 62.3837 29.3454 62.2603C28.7374 61.5902 28.2546 60.8672 27.8255 60.0561C27.432 59.2978 26.8956 58.6101 26.3055 57.9753C26.0015 57.6579 25.9478 57.2171 25.6438 56.9526C24.6424 56.018 23.8556 54.907 22.8006 53.9901C21.7992 53.126 20.8335 52.1738 20.0825 51.0629C19.7785 50.6221 19.8142 49.9872 19.3493 49.5993C19.7785 49.2819 19.4745 48.9469 19.3135 48.7C18.9201 48.1004 19.2241 47.5009 19.3672 46.9719C19.5997 46.0726 19.9573 45.1909 20.3865 44.3445C20.7441 43.6568 20.7799 42.8809 20.9051 42.1403C20.9229 42.0168 20.9051 41.8758 20.9587 41.7699C21.6203 40.6767 21.6203 39.3365 22.282 38.2256C22.3535 38.1021 22.3893 37.9611 22.3893 37.82C22.586 36.2859 23.4086 35.0515 24.3742 33.9053C24.8034 33.394 24.9107 32.7239 25.5187 32.2654C26.2697 31.7188 27.0923 31.4366 27.9327 31.1545C28.344 31.0134 28.7911 30.9958 29.113 30.6431C29.3454 30.3962 29.6316 30.5549 29.8819 30.5549C30.3111 30.5726 30.7581 30.4315 31.1515 30.5549L31.2231 30.6078ZM54.6129 58.8217C55.0958 58.7512 55.5249 58.8923 55.7932 58.4691C56.3654 57.5874 56.723 56.6175 56.7767 55.5771C56.8661 53.9372 57.1701 52.3502 57.7244 50.7984C57.939 50.1989 58.3324 49.6698 58.3146 48.9469C58.3146 48.3826 58.404 47.7654 58.6364 47.2188C59.012 46.39 59.2802 45.5612 59.2623 44.6442C59.2623 44.3621 59.316 44.0271 59.4769 43.8155C59.9597 43.1806 59.7272 42.44 59.7988 41.7523C59.9061 40.7648 59.9418 39.7597 60.067 38.7722C60.1028 38.4548 60.1207 38.155 60.0849 37.8553C59.9776 36.762 59.924 35.6863 60.2816 34.6107C60.371 34.3462 60.371 34.064 60.2816 33.7643C59.9955 32.9355 59.763 32.0714 59.8167 31.1721C59.8167 30.9958 59.8524 30.7313 59.6021 30.5549C59.4054 30.4139 59.4054 30.1494 59.4948 29.9906C59.6557 29.6909 59.5663 29.4087 59.4232 29.1971C59.012 28.6152 58.8868 27.9099 58.4934 27.2751C57.9033 26.3052 56.9913 25.5822 56.5621 24.5066C56.4906 24.3479 56.3475 24.1715 56.1866 24.101C55.06 23.572 54.3089 22.6021 53.3433 21.8968C52.628 21.3854 51.9485 20.6977 50.9829 20.8035C50.4643 20.8564 50.0172 20.6095 49.5523 20.6272C49.1231 20.6272 48.7297 20.2745 48.3184 20.5037C47.9071 20.733 47.4601 20.8035 47.0309 20.8917C45.3321 21.2267 43.8658 21.9673 42.6855 23.2017C41.9881 23.9247 41.5053 24.7711 40.9688 25.5999C40.2714 26.7284 39.9138 27.9804 39.3237 29.1442C39.0197 29.7438 39.3773 30.2728 39.27 30.8194C39.0912 31.8069 39.1985 32.812 39.27 33.7819C39.3237 34.8046 39.4667 35.8803 39.8602 36.8854C40.3609 38.155 40.4324 39.5834 41.1119 40.8001C41.5768 41.6112 41.702 42.5811 42.2206 43.3746C42.5961 43.9565 42.9359 44.5913 43.3293 45.1027C43.9194 45.861 44.438 46.7074 45.0996 47.4127C45.6897 48.0652 46.1904 48.8234 46.9415 49.2819C47.2991 49.4935 47.3528 49.8109 47.478 50.1283C47.5495 50.3223 47.621 50.4986 47.7462 50.675C48.3363 51.5566 49.3198 52.0328 50.053 52.8086C51.0544 53.8843 52.0916 54.8894 52.5207 56.3177C52.7174 56.9526 53.093 57.5168 53.4327 58.0635C53.6831 58.469 54.0586 58.9804 54.6308 58.8041L54.6129 58.8217ZM49.3914 59.7563C49.1589 61.502 49.4986 63.0009 49.8742 64.4998C50.6073 67.4093 51.6803 70.2484 52.0379 73.2637C52.1094 73.8456 52.3419 74.4275 52.6817 74.9213C52.8605 75.2034 53.1466 75.3621 53.4864 75.2916C53.844 75.221 53.9871 74.9565 53.9871 74.6039C53.9871 74.0396 54.0407 73.4929 53.9692 72.9287C53.8082 71.853 53.397 70.8479 53.3075 69.7546C53.2897 69.4901 53.2897 69.1727 53.1466 68.9258C52.5207 67.762 52.1989 66.4924 51.9664 65.2051C51.7697 64.1295 51.3226 63.142 51.0902 62.084C50.9113 61.2199 50.6968 60.3559 50.7504 59.5094C50.8219 58.6983 50.661 57.9577 50.5179 57.1994C50.4285 56.7409 49.9993 56.688 49.6775 57.0231C49.4271 57.3052 49.3914 57.6579 49.3914 58.0106C49.3735 58.6454 49.3914 59.2978 49.3914 59.7563ZM65.6284 70.7245C65.6462 69.2961 65.1813 67.9912 64.466 66.7921C63.3752 64.9582 62.4453 63.0538 61.5691 61.1141C60.8181 59.4389 60.4247 57.6226 59.5484 55.9827C59.4233 55.7358 59.3696 55.3479 58.9941 55.4361C58.6543 55.5066 58.6186 55.8416 58.5649 56.159C58.4397 56.7586 58.7258 57.2347 58.8689 57.7637C59.1193 58.7159 59.316 59.6858 59.7272 60.5851C59.8882 60.9554 60.2816 61.2728 60.1922 61.7489C60.067 62.3837 60.371 62.8246 60.9075 63.1067C61.1042 63.2125 61.2115 63.3359 61.2115 63.5123C61.2115 64.1118 61.4618 64.5703 61.891 64.9759C61.9804 65.064 62.0519 65.1698 62.0162 65.3109C61.9268 65.7341 62.2129 65.9986 62.4453 66.2984C62.7315 66.6687 63.1249 66.9861 63.3037 67.427C63.6434 68.291 63.7507 69.2256 64.323 70.0015C64.4124 70.1249 64.4481 70.3189 64.4124 70.4776C64.2693 71.0771 64.6806 71.4298 64.9846 71.8354C65.2171 72.1352 65.4138 71.9941 65.5568 71.7472C65.7357 71.4298 65.6462 71.0595 65.6641 70.7245H65.6284ZM36.8023 41.0822C37.1957 41.1351 37.4997 40.9941 37.7679 40.7296C38.0541 40.4474 38.3402 40.2006 38.6263 39.9184C38.7515 39.795 38.966 39.7068 38.8588 39.4776C38.7693 39.2836 38.5905 39.2307 38.3938 39.266C38.2508 39.2836 38.1614 39.1778 38.0541 39.1602C37.0705 38.8957 36.1407 39.5657 36.1407 40.4827C36.1407 40.9588 36.3195 41.188 36.8023 41.0999V41.0822ZM36.856 28.4565C36.0691 28.4565 35.8188 28.915 36.1585 29.4264C36.5341 29.9554 36.9096 30.5197 37.6249 30.6784C37.8574 30.7313 38.0898 30.9429 38.3044 30.7136C38.4832 30.502 38.5726 30.2552 38.5011 29.973C38.4296 29.6732 38.3402 29.4087 38.0004 29.2677C37.5176 29.0737 37.2672 28.4918 36.856 28.4742V28.4565ZM63.9653 36.8325C63.9653 36.5504 63.9653 36.2153 63.4825 36.2859C62.6957 36.3917 61.4618 37.7142 61.4082 38.4548C61.4082 38.6312 61.4797 38.7017 61.6585 38.7193C62.4632 38.8428 63.9117 37.6789 63.9474 36.8325H63.9653ZM37.6785 34.1698C38.3581 34.1698 38.5548 33.9582 38.2686 33.4116C37.9646 32.8297 37.3745 32.5299 36.7665 32.3359C36.5341 32.2654 36.2122 32.3359 35.9797 32.4594C35.7115 32.5828 35.4969 32.9355 35.783 33.1471C36.3552 33.6056 36.856 34.2051 37.6785 34.1698ZM39.6992 41.2586C39.6992 41.2586 39.5562 41.2586 39.5204 41.2586C38.8051 41.6641 38.2508 42.2284 37.7858 42.8809C37.607 43.1454 37.7858 43.357 38.0719 43.4452C38.4653 43.5686 39.431 43.163 39.6456 42.7927C39.8244 42.4929 39.9853 42.1755 40.1284 41.8581C40.343 41.3996 40.2357 41.2409 39.6992 41.2409V41.2586ZM57.5456 21.8086C57.5456 21.1385 57.4026 21.068 56.8125 21.262C56.1866 21.4736 55.972 22.0202 55.6143 22.4434C55.5428 22.5316 55.5786 22.6374 55.6322 22.7256C55.9005 23.1664 56.4012 23.2898 56.8482 22.9901C57.2953 22.6903 57.796 22.4258 57.5277 21.791L57.5456 21.8086ZM58.3682 24.7711C58.9047 24.7005 59.316 24.4537 59.6736 24.0305C59.9061 23.7483 60.0491 23.4838 59.7094 23.184C59.4054 22.9195 59.1014 22.8314 58.7795 23.1488C58.5828 23.3427 58.3861 23.4838 58.1179 23.572C57.6171 23.766 57.9569 24.1715 57.9211 24.4889C57.8854 24.7711 58.1357 24.7887 58.3682 24.7711ZM60.7644 47.6949C61.1399 47.6949 61.6049 47.2188 61.4797 46.8485C61.3188 46.3018 60.7286 46.3194 60.2816 46.2313C59.9955 46.1784 59.5842 46.3194 59.5663 46.7427C59.5484 47.1659 60.2458 47.6949 60.7465 47.6949H60.7644ZM61.0863 44.1681C60.9254 44.2563 60.4246 44.0094 60.6214 44.4855C60.8538 45.0145 61.3545 45.3849 61.9268 45.5436C62.3738 45.667 62.5526 45.2614 62.7136 44.9793C62.8924 44.6795 62.5169 44.6795 62.3917 44.5561C62.034 44.2034 61.5691 44.2034 61.0863 44.1505V44.1681Z" fill="#EFE452"/>
<path fill-rule="evenodd" clip-rule="evenodd" d="M77.8238 51.0982C77.8238 52.0857 78.1278 53.0379 78.5034 53.9372C78.7895 54.6425 79.0577 55.3655 79.1829 56.1238C79.2365 56.4588 79.5047 56.5999 79.6299 56.8644C79.9876 57.6403 80.3631 58.4161 80.7386 59.2097C80.9353 59.6329 81.2214 60.0384 81.4539 60.444C81.7937 61.0259 81.8294 61.8018 82.4732 62.225C82.5268 62.2603 82.5626 62.3837 82.5447 62.4543C82.4553 63.1949 82.9024 63.7768 83.1527 64.4116C83.4746 65.2404 83.4388 66.1397 83.7249 66.9685C83.9216 67.5328 84.1541 68.097 84.1005 68.7142C84.0826 69.014 84.2078 69.3667 83.9753 69.6135C83.7607 69.8604 84.0826 69.9662 84.0468 70.1425C83.8859 71.0771 84.0826 72.0117 83.868 72.9287C83.6534 73.8633 83.7249 74.8331 83.2421 75.7324C82.7951 76.5788 82.2944 77.3195 81.5254 77.9895C80.6671 78.7478 79.7551 79.3826 78.7895 79.9469C77.341 80.7933 75.821 81.5515 74.1759 82.01C73.0493 82.3274 71.9585 82.8035 70.7961 82.7683C69.455 82.733 68.2211 83.2267 66.9693 83.5265C66.0395 83.7381 64.9665 83.9321 64.2155 84.7785C63.9115 85.1312 63.2499 85.1841 62.7134 85.0959C62.1948 85.0077 61.7478 85.0077 61.2828 85.3075C60.9788 85.5015 60.6569 85.7307 60.2457 85.5368C60.1384 85.4839 60.0311 85.4839 59.9595 85.572C59.2442 86.489 58.0461 86.3655 57.1163 86.8416C56.7586 87.018 56.4189 87.2825 55.9897 87.4236C55.185 87.6881 54.3624 87.547 53.5577 87.7939C52.1629 88.2171 50.7145 88.0055 49.3018 88.1994C48.2109 88.3405 47.2811 87.8997 46.2618 87.8291C45.7969 87.7939 45.314 87.7233 44.8312 87.741C44.0086 87.7586 43.2218 87.4236 42.4171 87.3001C41.3263 87.1414 40.6647 86.2245 39.6096 86.0658C38.948 85.9776 38.5725 85.2193 37.8751 85.043C37.3207 84.9019 36.9094 84.4258 36.3193 84.3377C36.2299 84.3377 36.1405 84.2319 36.0868 84.1613C35.461 83.3678 34.8708 82.5567 34.0483 81.9395C33.7622 81.7279 33.7979 81.287 33.6191 80.952C33.1005 80.0174 32.5819 79.0652 32.6177 77.9543C32.6177 77.6016 32.1885 77.5134 32.1349 77.1608C32.0633 76.667 31.9918 76.0851 31.7236 75.7148C31.3302 75.1858 31.3302 74.5333 30.9725 74.022C30.8652 73.8809 30.8474 73.6516 30.9189 73.4753C31.0798 73.0874 31.0798 72.77 30.7401 72.4349C30.4897 72.1881 30.7579 71.7825 30.6149 71.4474C29.989 70.0896 29.7565 68.5908 29.2201 67.1977C28.6657 65.7518 28.0935 64.3234 27.1994 63.0538C26.4483 61.9782 25.6258 60.9554 24.8926 59.8797C24.1952 58.857 23.5157 57.8695 22.711 56.9173C22.103 56.2119 21.2267 55.8416 20.7439 55.101C20.2253 54.3251 19.5637 53.6727 18.9199 53.0379C18.3477 52.4912 18.008 51.8211 17.6324 51.1687C17.5073 50.9571 17.4178 50.7279 17.4 50.4281C17.3642 49.5993 17.2033 48.7705 16.8814 47.9946C16.8456 47.8888 16.8814 47.8007 16.9708 47.7301C17.0423 47.6596 17.1675 47.5185 17.1496 47.5009C16.8456 47.0601 17.3821 46.7074 17.2748 46.2842C17.2748 46.2489 17.2748 46.196 17.3106 46.1784C17.9185 45.6317 17.7755 44.7324 18.1868 44.1505C18.6338 43.5157 18.5444 42.828 18.7411 42.1932C19.2239 40.6943 19.5637 39.1602 20.2253 37.7142C20.4757 37.1852 20.6903 36.6209 20.6724 36.0037C20.6724 35.8979 20.7439 35.7569 20.8333 35.6863C21.2983 35.2984 21.4592 34.7165 21.799 34.2756C22.1566 33.8172 22.246 33.2705 22.6037 32.812C22.9971 32.3183 23.1759 31.6835 23.7481 31.3132C23.8554 31.2426 23.9806 31.1897 24.0343 31.0839C24.7853 29.8143 26.1443 29.6203 27.3782 29.1795C27.4855 29.1442 27.6643 29.1266 27.718 29.0561C28.1472 28.4036 28.8803 28.6858 29.4168 28.4741C30.2215 28.1567 30.9725 28.3683 31.7415 28.3683C32.0633 28.3683 32.3495 28.3683 32.2958 27.8746C32.2422 27.5396 32.3852 27.2222 32.6892 26.9577C33.1899 26.5344 33.1363 25.8291 33.4582 25.2825C34.2271 23.9423 34.6563 22.4611 35.6934 21.2267C36.3372 20.4508 36.8737 19.5691 37.3565 18.6698C37.5711 18.2642 37.8751 17.9821 38.1791 17.6823C38.8765 16.9241 39.6096 16.2011 40.5216 15.6721C40.7898 15.5134 41.0044 15.2842 41.2369 15.0902C41.8628 14.5964 42.5781 14.279 43.4006 14.2085C43.7762 14.1732 44.0265 13.8911 44.3484 13.75C45.1352 13.4326 45.8684 13.027 46.7804 13.2915C47.0307 13.3621 47.3526 13.2386 47.6387 13.1681C48.3898 13.027 49.1587 13.0623 49.9276 13.027C50.1065 13.027 50.2316 13.027 50.3747 12.9036C50.5177 12.7802 50.7323 12.7625 50.8396 12.8331C51.841 13.4326 53.0213 13.3973 54.0763 13.9616C55.1492 14.5435 56.1506 15.2489 57.2951 15.725C58.7972 16.3598 59.9417 17.4884 61.1398 18.5111C61.9623 19.2165 62.6061 20.0805 63.2141 20.9798C63.5002 21.403 63.8757 21.7381 64.1618 22.1613C64.5195 22.6727 64.7877 23.2369 65.1632 23.7483C65.4315 24.1363 65.7534 24.5066 65.9679 24.9474C66.2183 25.4588 66.3077 26.0054 66.5759 26.5168C67.023 27.3809 67.0409 28.4036 67.4343 29.2677C67.8456 30.1493 67.9886 31.0663 67.8992 31.9304C67.7919 33.0236 68.0959 34.064 68.1675 35.122C68.2211 36.1095 68.1496 37.1147 68.2747 38.1198C68.3642 38.7722 68.0602 39.5481 67.935 40.2535C67.8098 40.9059 67.6489 41.5583 67.7025 42.2284C67.7204 42.5106 67.7919 42.5458 68.0065 42.5282C68.1853 42.5282 68.382 42.5282 68.5609 42.4753C70.6531 42.1403 72.4949 42.828 74.2295 43.8684C74.3726 43.9565 74.5156 44.0271 74.6766 44.0623C74.8554 44.0976 75.1236 44.1681 75.1773 44.2916C75.4455 45.0145 76.125 45.4907 76.3754 46.196C76.6973 47.0953 77.0907 47.9594 77.4304 48.8411C77.7165 49.564 77.8775 50.3576 77.8775 51.1511L77.8238 51.0982ZM31.2408 30.6078C30.8295 30.4844 30.4003 30.6255 29.9711 30.6078C29.7208 30.6078 29.4347 30.4491 29.2022 30.696C28.8803 31.031 28.4333 31.0663 28.022 31.2074C27.1815 31.4895 26.3589 31.7716 25.6079 32.3183C24.9999 32.7591 24.8926 33.4468 24.4634 33.9582C23.5157 35.1044 22.6752 36.3388 22.4785 37.8729C22.4785 38.014 22.4249 38.1727 22.3712 38.2785C21.7274 39.3894 21.7274 40.7296 21.0479 41.8229C20.9943 41.9287 21.0122 42.0697 20.9943 42.1932C20.8691 42.9338 20.8155 43.7273 20.4757 44.3974C20.0465 45.2438 19.671 46.1255 19.4564 47.0248C19.3312 47.5538 19.0272 48.1533 19.4028 48.7529C19.5637 49.0174 19.8677 49.3348 19.4385 49.6522C19.8856 50.0401 19.8677 50.6573 20.1717 51.1158C20.9228 52.2267 21.8884 53.1789 22.8898 54.043C23.9448 54.9423 24.7138 56.0709 25.7331 57.0055C26.0371 57.2876 26.0907 57.7108 26.3947 58.0282C26.9848 58.6454 27.5213 59.3507 27.9147 60.109C28.326 60.9201 28.8267 61.6431 29.4347 62.3132C29.542 62.4366 29.7029 62.5424 29.7029 62.7188C29.7923 63.6357 30.6864 64.2 30.8116 65.1346C30.8474 65.3638 30.7401 65.6812 30.9904 65.9457C31.4554 66.4395 31.5448 67.1448 31.7236 67.7444C32.117 69.014 32.3673 70.3012 32.9932 71.518C33.3509 72.2057 33.476 73.1226 33.5297 73.9338C33.6191 75.3092 34.1556 76.5083 34.6384 77.725C34.7814 78.0953 35.157 78.3951 35.1212 78.836C35.0497 79.5237 35.5683 80.0527 35.9259 80.3524C36.5518 80.9167 37.0167 81.6221 37.6962 82.1158C38.7692 82.8741 39.6275 83.9497 40.9866 84.32C41.4515 84.4435 41.988 84.3906 42.3992 84.708C43.2039 85.3604 44.1517 85.6073 45.171 85.6602C46.3512 85.7131 47.4778 86.1187 48.6759 85.9952C49.4269 85.9071 50.1959 85.9247 50.929 85.7131C51.1079 85.6602 51.394 85.6426 51.537 85.7484C52.1271 86.1716 52.6636 85.9247 53.218 85.7484C53.6114 85.6249 53.9869 85.3604 54.3803 85.3251C55.3459 85.2193 56.24 84.8843 57.152 84.6022C57.5454 84.4787 57.7421 83.8968 58.1534 83.9674C58.6899 84.0379 59.0475 83.7734 59.441 83.5618C59.6555 83.4383 59.888 83.456 60.1205 83.456C60.3351 83.456 60.5496 83.456 60.7285 83.3325C61.2649 82.9799 61.9087 82.9799 62.4988 82.8388C63.2141 82.6625 64.0367 82.7506 64.6089 82.0982C64.7698 81.9218 65.1275 81.7984 65.3957 81.9219C65.8249 82.0982 66.1468 82.0276 66.4686 81.6926C66.5938 81.5515 66.8442 81.481 67.0409 81.4634C67.8456 81.4281 68.5787 81.0578 69.3656 80.9167C69.7768 80.8462 70.2418 80.8462 70.6531 80.7228C71.3505 80.5112 72.0836 80.4583 72.7632 80.1585C73.6752 79.7705 74.7123 79.7882 75.5707 79.2592C75.8568 79.0828 76.1071 78.7654 76.3933 78.7478C77.4125 78.642 77.8954 77.7956 78.6464 77.3371C79.0935 77.0549 79.469 76.6317 79.9339 76.473C80.4525 76.2791 80.828 75.944 81.0784 75.5561C81.8294 74.357 82.0619 73.0168 81.6148 71.659C81.4718 71.2006 81.9546 70.9184 81.8652 70.6716C81.6506 70.0896 82.0083 69.5077 81.74 68.9611C81.4003 68.2381 81.7758 67.4446 81.5433 66.7216C81.2393 65.8047 81.2036 64.8348 80.7386 63.9179C80.4167 63.283 80.3095 62.4895 79.8445 61.89C79.2544 61.1317 78.6822 60.3735 78.4497 59.386C78.3424 58.9275 78.2172 58.4161 77.9132 57.9929C77.4483 57.3758 77.2695 56.6175 76.9297 55.9474C76.2144 54.5367 76.125 52.9321 75.8031 51.4156C75.4813 49.8814 75.1057 48.3826 74.2116 47.0777C73.8182 46.5134 73.4963 45.8081 72.6559 45.5965C71.8333 45.4025 70.9928 45.3143 70.2418 44.8735C70.1345 44.8206 69.9557 44.8735 69.8126 44.9087C69.1689 45.0498 68.543 45.1203 67.8992 44.944C67.1839 44.7324 67.0945 44.8029 66.8084 45.5436C66.5938 46.1078 66.5581 46.8132 66.2183 47.254C65.4315 48.2768 64.9665 49.4582 64.3764 50.5868C64.2155 50.8866 64.0903 51.1863 63.7148 51.0982C63.3929 51.0276 63.375 50.6573 63.3393 50.3752C63.3214 50.2518 63.3393 50.1283 63.3393 50.0049C63.2499 48.4884 64.0724 47.2011 64.5553 45.8433C64.752 45.2791 64.9844 44.7148 65.1454 44.1329C65.5745 42.5635 65.7534 40.9412 65.9322 39.3365C66.0931 37.8376 66.2183 36.3035 66.0037 34.8399C65.807 33.5174 65.8606 32.142 65.3778 30.8547C65.3421 30.7665 65.3242 30.6431 65.3778 30.5549C65.5924 30.1141 65.3957 29.7261 65.2169 29.3206C65.0381 28.8974 64.8056 28.4741 64.7698 28.0157C64.7162 27.5219 64.4837 27.134 64.287 26.6931C63.9651 26.0054 63.3929 25.4588 63.0889 24.7887C62.6597 23.8541 61.8908 23.1664 61.5153 22.1966C61.1576 21.2972 60.3351 20.6801 59.6555 19.9923C58.7257 19.0401 57.8673 18.0879 56.5083 17.6471C55.3102 17.2591 54.3624 16.3069 53.1107 15.9542C52.2881 15.725 51.5907 15.1607 50.6787 15.2489C49.5163 15.3723 48.3361 15.4076 47.1738 15.2665C46.5479 15.196 45.9041 15.0902 45.3856 15.5663C45.1173 15.8132 44.7776 15.919 44.4378 16.0071C43.2934 16.3422 42.2562 16.8183 41.4157 17.7176C40.8435 18.3171 40.2355 18.8814 39.6275 19.4281C38.8407 20.1511 38.0539 20.8917 37.8035 22.0202C37.7678 22.1966 37.6247 22.3376 37.5174 22.4963C36.9452 23.4309 36.2657 24.3302 35.8186 25.3354C35.1391 26.8695 34.4417 28.4212 34.0304 30.0612C33.8516 30.7842 33.2615 31.3661 33.2257 32.1067C33.172 33.0942 32.9217 34.0464 32.9575 35.0691C32.9932 36.4093 32.8859 37.7142 33.4939 38.9662C33.5833 39.1425 33.6012 39.3365 33.6012 39.5657C33.6012 40.3945 33.9589 41.1704 34.1556 41.9463C34.3165 42.5635 34.6205 43.1806 34.8172 43.7978C35.1212 44.7677 35.4431 45.7552 36.0868 46.5487C36.516 47.0953 37.124 47.4833 37.1419 48.2768C37.1419 48.3473 37.2671 48.4531 37.3386 48.506C37.9645 48.8763 38.1791 49.5993 38.6261 50.1107C39.091 50.6397 39.7169 51.01 40.1282 51.6448C40.4859 52.2091 41.0938 52.6676 41.684 53.0202C42.3098 53.4082 42.7569 53.9901 43.3828 54.378C43.6868 54.572 43.8656 55.1363 43.6868 55.3303C43.347 55.7006 42.2383 55.8593 41.8628 55.5242C41.6124 55.3126 41.3978 55.1716 41.0581 55.1716C40.8971 55.1716 40.7362 55.0834 40.6468 54.9247C40.1997 54.1312 39.3593 53.6903 38.8765 52.9321C38.6976 52.6499 38.4115 52.4736 38.1075 52.8792C37.9108 53.126 37.5889 53.2671 37.2671 53.3729C36.6769 53.5845 36.1941 54.0254 36.0511 54.5896C35.8722 55.3303 35.8365 56.1238 35.8722 56.8997C35.9259 58.3809 36.5697 59.7034 37.0882 61.0612C37.5711 62.2956 38.1612 63.477 38.3579 64.7819C38.5009 65.6636 39.0732 66.3689 39.1268 67.2859C39.1447 67.7267 39.6633 68.0441 39.86 68.5026C40.1819 69.2609 40.6289 69.9838 40.5574 70.8479C40.5395 71.0948 40.5753 71.3064 40.6826 71.5532C41.1117 72.576 41.1475 73.6693 40.9687 74.7626C40.8971 75.1681 40.6468 75.5032 40.1997 75.3974C39.7527 75.2916 39.0732 75.4326 39.0195 74.6568C38.9659 74.0572 38.8407 73.4577 38.7513 72.8581C38.5009 71.2887 38.0002 69.8251 37.2671 68.3968C36.8021 67.4622 36.4802 66.4571 36.1405 65.4696C35.7113 64.2176 35.4073 62.9304 34.9066 61.7136C34.4596 60.6733 34.2092 59.5976 33.8337 58.5396C33.4403 57.4816 33.6727 56.3177 33.172 55.295C33.1005 55.1363 33.172 55.0128 33.2436 54.8894C33.4224 54.4662 33.5654 54.043 33.7979 53.6551C34.388 52.6323 35.3 51.8741 36.1584 51.0805C36.4266 50.816 36.4266 50.5339 36.2299 50.4105C35.5504 49.952 35.3537 49.1056 34.7099 48.6118C34.5311 48.4707 34.4238 48.2062 34.3344 47.977C34.1019 47.4304 33.941 46.8308 33.637 46.3194C33.1184 45.4378 32.8323 44.4679 32.3852 43.5686C31.8488 42.4929 31.8845 41.2233 31.4375 40.0947C31.1335 39.3012 30.8474 38.4901 30.8474 37.5908C30.8474 37.2381 30.8652 36.8501 30.7758 36.5151C30.5434 35.704 30.6149 34.9104 30.8116 34.1346C30.8652 33.923 30.8652 33.6937 30.7937 33.535C30.6149 33.2176 30.7043 32.9355 30.8116 32.6533C31.0619 32.0185 31.4017 31.4013 31.3123 30.6607L31.2408 30.6078Z" fill="#1E6E67"/>
<path fill-rule="evenodd" clip-rule="evenodd" d="M54.6308 58.8041C54.0586 58.9981 53.6831 58.469 53.4327 58.0635C53.093 57.5168 52.7353 56.9702 52.5207 56.3177C52.0737 54.8894 51.0544 53.8667 50.053 52.8086C49.3377 52.0327 48.3542 51.5743 47.7462 50.675C47.621 50.4986 47.5495 50.3223 47.478 50.1283C47.3528 49.8285 47.2991 49.5111 46.9415 49.2819C46.1726 48.8234 45.6897 48.0475 45.0996 47.4127C44.438 46.7074 43.9194 45.8786 43.3293 45.1027C42.9359 44.5913 42.5961 43.9389 42.2206 43.3746C41.702 42.5635 41.5768 41.6112 41.1119 40.8001C40.4145 39.5834 40.343 38.155 39.8601 36.8854C39.4667 35.8803 39.3058 34.8223 39.27 33.7819C39.2164 32.812 39.0912 31.8069 39.27 30.8194C39.3773 30.2552 39.0197 29.7438 39.3237 29.1442C39.9138 27.9804 40.2714 26.7284 40.9688 25.5999C41.4874 24.7534 41.9881 23.907 42.6855 23.2017C43.8836 21.9673 45.35 21.2267 47.0309 20.8917C47.4601 20.8035 47.925 20.733 48.3184 20.5037C48.7476 20.2745 49.1231 20.6272 49.5523 20.6272C50.0172 20.6272 50.4643 20.8564 50.9829 20.8035C51.9485 20.6977 52.6459 21.3854 53.3433 21.8968C54.3089 22.6021 55.0779 23.572 56.1866 24.101C56.3475 24.1715 56.4906 24.3479 56.5621 24.5066C56.9913 25.5646 57.9033 26.3052 58.4934 27.2751C58.8689 27.8922 58.9941 28.6152 59.4232 29.1971C59.5842 29.4264 59.6736 29.6909 59.4948 29.9906C59.4054 30.1493 59.4232 30.4315 59.6021 30.5549C59.8345 30.7136 59.8167 30.9958 59.8167 31.1721C59.7809 32.0714 59.9955 32.9355 60.2816 33.7643C60.3889 34.064 60.371 34.3462 60.2816 34.6107C59.9239 35.6863 59.9776 36.762 60.0849 37.8553C60.1206 38.155 60.0849 38.4548 60.067 38.7722C59.9418 39.7597 59.9061 40.7648 59.7988 41.7523C59.7272 42.44 59.9597 43.163 59.4769 43.8155C59.316 44.0271 59.2623 44.3621 59.2623 44.6442C59.2623 45.5612 58.9941 46.4076 58.6364 47.2188C58.3861 47.7654 58.2967 48.3826 58.3146 48.9469C58.3146 49.6698 57.939 50.1988 57.7244 50.7984C57.188 52.3502 56.8661 53.9372 56.7767 55.5771C56.723 56.6175 56.3654 57.5874 55.7932 58.469C55.5249 58.8923 55.0958 58.7512 54.6129 58.8217L54.6308 58.8041ZM54.4699 54.9599C54.7739 54.378 54.3805 53.6374 55.0958 53.2847C55.1136 53.2847 55.1136 53.1966 55.0958 53.1613C54.9706 52.7028 55.1852 52.2444 55.1673 51.8035C55.1315 51.204 55.6322 50.816 55.7216 50.3046C55.8468 49.6698 56.0435 49.0879 56.2581 48.4884C56.6157 47.5185 56.9555 46.5487 56.9734 45.4907C56.9734 45.332 57.0449 45.1732 57.0449 45.0145C57.0986 44.1329 57.4026 43.3041 57.6171 42.4577C57.796 41.7347 57.5277 41.0822 57.5993 40.3945C57.796 38.2961 58.0106 36.1801 57.8854 34.064C57.8496 33.3587 57.7066 32.671 57.6529 31.9656C57.5635 30.8547 57.4204 29.7614 56.9913 28.7387C56.7409 28.1567 56.1866 27.7335 55.8647 27.1516C55.4713 26.4639 55.1315 25.7057 54.452 25.1943C54.0586 24.8945 53.7725 24.4537 53.2181 24.3479C52.9141 24.295 52.6817 24.0657 52.4313 23.8718C51.9664 23.5015 51.5193 23.0606 50.8934 23.0077C49.6953 22.8843 48.5151 22.6021 47.2991 23.0782C45.3321 23.8365 43.5439 24.7182 42.8107 26.8871C42.6319 27.3985 42.4173 27.998 41.863 28.3331C41.7378 28.4036 41.7378 28.58 41.7378 28.7387C41.7735 29.6556 41.3801 30.5373 41.5768 31.4719C41.702 32.0714 41.5232 32.7062 41.4159 33.341C41.255 34.2756 41.6662 35.1397 41.9702 36.0037C42.0597 36.2859 42.1848 36.5327 42.0418 36.8325C41.9524 37.0265 42.0418 37.2028 42.0954 37.4144C42.31 38.2608 42.7392 39.0367 43.0074 39.8831C43.222 40.5709 43.4723 41.2762 43.83 41.911C44.277 42.7398 44.8135 43.5333 45.35 44.3092C45.6361 44.7324 45.9043 45.2791 46.3156 45.4907C47.2634 45.9315 47.4422 47.0072 48.2648 47.5714C48.9264 48.0123 49.6059 48.6295 49.8205 49.5288C49.8384 49.6169 50.0172 49.6698 50.1245 49.7404C50.7683 50.1283 51.3405 50.6573 51.7339 51.2392C52.5744 52.5265 53.7009 53.6021 54.5056 54.9952L54.4699 54.9599Z" fill="#1E6E67"/>
<path fill-rule="evenodd" clip-rule="evenodd" d="M49.4091 59.7563C49.4091 59.2802 49.4091 58.6454 49.4091 58.0106C49.4091 57.6579 49.4449 57.3052 49.6952 57.0231C50.0171 56.6704 50.4642 56.7409 50.5357 57.1994C50.6788 57.9577 50.8218 58.6983 50.7682 59.5094C50.6966 60.3559 50.9291 61.2375 51.1079 62.084C51.3225 63.142 51.7875 64.1471 51.9842 65.2051C52.2166 66.4924 52.5564 67.7444 53.1644 68.9258C53.2896 69.1727 53.2896 69.4901 53.3253 69.7546C53.4147 70.8479 53.826 71.853 53.987 72.9287C54.0764 73.493 54.0227 74.0396 54.0049 74.6039C54.0049 74.9566 53.8618 75.2211 53.5042 75.2916C53.1644 75.3621 52.8962 75.2034 52.6995 74.9213C52.3597 74.4099 52.1272 73.828 52.0557 73.2637C51.6802 70.2484 50.6251 67.427 49.892 64.4998C49.5164 63.0009 49.1767 61.4844 49.4091 59.7563Z" fill="white"/>
<path fill-rule="evenodd" clip-rule="evenodd" d="M65.6462 70.7245C65.6462 71.0771 65.7178 71.4298 65.539 71.7472C65.3959 72.0117 65.1992 72.1528 64.9667 71.8354C64.6627 71.4298 64.2514 71.0771 64.3945 70.4776C64.4303 70.3365 64.3945 70.1249 64.3051 70.0015C63.7329 69.2256 63.6434 68.2734 63.2858 67.427C63.107 66.9861 62.7136 66.6687 62.4275 66.2984C62.2129 65.9986 61.9089 65.7341 61.9983 65.3109C62.034 65.1699 61.9625 65.064 61.8731 64.9759C61.4439 64.5703 61.1936 64.1118 61.1936 63.5123C61.1936 63.3183 61.0863 63.2125 60.8896 63.1067C60.371 62.8246 60.0491 62.3837 60.1743 61.7489C60.2637 61.2728 59.8882 60.9554 59.7094 60.5851C59.2981 59.6681 59.1014 58.7159 58.851 57.7637C58.708 57.2347 58.4218 56.7586 58.547 56.159C58.6186 55.8416 58.6364 55.5066 58.9762 55.4361C59.3517 55.3655 59.4054 55.7535 59.5305 55.9827C60.4068 57.605 60.8002 59.4213 61.5512 61.1141C62.4275 63.0538 63.3573 64.9582 64.4481 66.7922C65.1634 67.9912 65.6284 69.2961 65.6105 70.7245H65.6462Z" fill="white"/>
<path fill-rule="evenodd" clip-rule="evenodd" d="M36.8201 41.0822C36.3373 41.1704 36.1584 40.9412 36.1584 40.4651C36.1584 39.5481 37.0883 38.878 38.0718 39.1425C38.1791 39.1778 38.2685 39.2836 38.4116 39.2483C38.6083 39.2131 38.7871 39.2836 38.8765 39.4599C38.9838 39.6892 38.7514 39.7773 38.6441 39.9008C38.3758 40.1829 38.0718 40.4474 37.7857 40.7119C37.5175 40.9764 37.2135 41.1175 36.8201 41.0646V41.0822Z" fill="white"/>
<path fill-rule="evenodd" clip-rule="evenodd" d="M36.856 28.4565C37.2673 28.4565 37.5176 29.0561 38.0004 29.25C38.3402 29.3911 38.4296 29.6556 38.5011 29.9554C38.5727 30.2375 38.5011 30.502 38.3044 30.696C38.0898 30.9429 37.8574 30.7136 37.6249 30.6607C36.9096 30.502 36.5341 29.9554 36.1586 29.4087C35.8009 28.915 36.0692 28.4565 36.856 28.4389V28.4565Z" fill="white"/>
<path fill-rule="evenodd" clip-rule="evenodd" d="M63.9653 36.8325C63.9296 37.6789 62.4811 38.8428 61.6764 38.7193C61.4976 38.7017 61.4082 38.6312 61.4261 38.4548C61.4618 37.7142 62.7136 36.3917 63.5004 36.2859C63.9832 36.2153 63.9653 36.5504 63.9832 36.8325H63.9653Z" fill="white"/>
<path fill-rule="evenodd" clip-rule="evenodd" d="M37.6785 34.1698C36.8738 34.2227 36.3552 33.6056 35.783 33.1471C35.5148 32.9355 35.7115 32.5828 35.9797 32.4594C36.2122 32.3536 36.534 32.2654 36.7665 32.3359C37.3745 32.5299 37.9646 32.8297 38.2686 33.4116C38.5547 33.9582 38.358 34.1698 37.6785 34.1698Z" fill="white"/>
<path fill-rule="evenodd" clip-rule="evenodd" d="M39.6991 41.2586C40.2177 41.2586 40.3429 41.4173 40.1283 41.8758C39.9853 42.1932 39.8243 42.5106 39.6455 42.8103C39.4309 43.1806 38.4832 43.5686 38.0719 43.4628C37.8036 43.3746 37.6069 43.163 37.7858 42.8985C38.2328 42.2461 38.805 41.6642 39.5203 41.2762C39.574 41.2409 39.6455 41.2762 39.6991 41.2762V41.2586Z" fill="white"/>
<path fill-rule="evenodd" clip-rule="evenodd" d="M57.5635 21.8086C57.8317 22.4434 57.3132 22.7256 56.884 23.0077C56.4369 23.3075 55.9362 23.1664 55.668 22.7432C55.6144 22.655 55.5607 22.5492 55.6501 22.4611C56.0078 22.0379 56.2223 21.4736 56.8482 21.2796C57.4562 21.0856 57.5993 21.1562 57.5814 21.8262L57.5635 21.8086Z" fill="white"/>
<path fill-rule="evenodd" clip-rule="evenodd" d="M58.386 24.7534C58.1535 24.7534 57.9032 24.7534 57.9389 24.4713C57.9747 24.1715 57.6349 23.7483 58.1357 23.5544C58.386 23.4662 58.6006 23.3251 58.7973 23.1311C59.1192 22.8137 59.4232 22.9019 59.7272 23.1664C60.0669 23.4662 59.9239 23.7307 59.6914 24.0128C59.3516 24.4184 58.9225 24.6829 58.386 24.7534Z" fill="white"/>
<path fill-rule="evenodd" clip-rule="evenodd" d="M60.7822 47.6949C60.2815 47.6949 59.5841 47.1659 59.602 46.7427C59.6199 46.3194 60.0312 46.1784 60.3173 46.2313C60.7465 46.3194 61.3366 46.3018 61.5154 46.8485C61.6227 47.2011 61.1578 47.6772 60.8001 47.6949H60.7822Z" fill="white"/>
<path fill-rule="evenodd" clip-rule="evenodd" d="M61.1042 44.1681C61.587 44.2387 62.0698 44.2387 62.4096 44.5737C62.5347 44.6971 62.9103 44.6795 62.7314 44.9969C62.5526 45.279 62.3738 45.6846 61.9446 45.5612C61.3724 45.4025 60.8717 45.0322 60.6392 44.5032C60.4425 44.0271 60.9432 44.2739 61.1042 44.1858V44.1681Z" fill="white"/>
<path fill-rule="evenodd" clip-rule="evenodd" d="M54.899 56.6175C55.2209 56.018 54.8096 55.2245 55.5606 54.8365C55.5785 54.8365 55.5785 54.7483 55.5606 54.7131C55.4176 54.2193 55.65 53.7609 55.6322 53.2671C55.5964 52.6499 56.115 52.2091 56.2223 51.6801C56.3474 51.01 56.562 50.3928 56.7945 49.758C57.1879 48.7353 57.5455 47.7125 57.5455 46.6016C57.5455 46.4252 57.6171 46.2665 57.6171 46.0902C57.6707 45.1556 57.9926 44.2916 58.2251 43.3922C58.4218 42.634 58.1357 41.9287 58.2072 41.2057C58.4218 38.9838 58.6364 36.762 58.5112 34.5225C58.4754 33.7819 58.3145 33.0589 58.2608 32.3183C58.1714 31.1545 58.0105 29.9906 57.5634 28.915C57.2952 28.2978 56.723 27.857 56.3653 27.2398C55.954 26.5168 55.5964 25.7233 54.8632 25.1767C54.434 24.8592 54.1479 24.4008 53.5578 24.295C53.2359 24.2421 52.9856 23.9952 52.7174 23.7836C52.2167 23.3956 51.7517 22.9372 51.0901 22.8666C49.8204 22.7256 48.5866 22.4434 47.2812 22.9372C45.189 23.7307 43.3292 24.6653 42.5424 26.9577C42.3636 27.5043 42.1311 28.1391 41.541 28.4742C41.4158 28.5623 41.3979 28.7387 41.3979 28.8974C41.4337 29.8672 41.0224 30.8018 41.237 31.7893C41.3801 32.4241 41.1834 33.1118 41.0761 33.7643C40.8972 34.7517 41.3264 35.6687 41.6662 36.5856C41.7735 36.8678 41.8986 37.1499 41.7377 37.4497C41.6483 37.6437 41.7377 37.8376 41.7913 38.0669C42.0238 38.9662 42.4709 39.795 42.757 40.6767C42.9895 41.3996 43.2577 42.1403 43.6153 42.8103C44.0981 43.692 44.6525 44.5208 45.2247 45.3496C45.5287 45.7904 45.8148 46.3723 46.244 46.5839C47.2454 47.0601 47.4242 48.1886 48.3183 48.7882C49.0157 49.2466 49.731 49.9167 49.9635 50.8513C49.9814 50.9395 50.1602 51.01 50.2854 51.0629C50.9649 51.4861 51.5729 52.0328 51.9842 52.6499C52.8783 54.0077 54.0585 55.1363 54.9169 56.6175H54.899Z" fill="#1E6E67"/>
</g>
<defs>
<clipPath id="clip0_125_12975">
<rect width="67.2727" height="75.4545" fill="white" transform="translate(16.8636 12.7273)"/>
</clipPath>
</defs>
</svg>
