<svg width="100" height="100" viewBox="0 0 100 100" fill="none" xmlns="http://www.w3.org/2000/svg">
<g clip-path="url(#clip0_125_12959)">
<path fill-rule="evenodd" clip-rule="evenodd" d="M19.0909 39.5351C19.5541 39.5351 19.4294 39.0743 19.5363 38.8616C20.4271 37.0362 22.0661 36.5577 23.8654 36.54C24.863 36.54 25.8607 36.8058 26.8583 36.9831C27.5709 37.1071 27.9985 37.6388 28.5329 38.0641C29.6731 38.9857 30.5282 40.0844 31.4368 41.1655C31.8287 41.644 32.185 42.1225 32.5591 42.6187C32.9332 43.1326 33.3252 43.6111 33.9487 43.9656C34.5366 44.3023 34.8216 45.0998 35.1245 45.7024C35.7302 46.9075 36.6566 47.8822 37.3157 49.0518C38.0283 50.2924 38.4024 51.657 38.4381 53.0925C38.4559 54.5634 37.5295 55.6268 36.4428 56.3002C35.4095 56.9382 34.1981 57.2926 32.8263 57.0623C31.7574 56.885 30.7776 56.6192 29.8334 56.0875C29.299 55.7863 29.0139 55.29 28.6042 54.9002C27.5175 53.8368 26.6801 52.5431 25.7181 51.3734C24.6314 50.0266 23.5981 48.6265 22.5292 47.2442C22.1195 46.7302 21.6207 46.2872 21.0862 45.8796C20.7121 45.596 20.7121 44.834 20.4449 44.3555C19.8035 43.2567 19.5719 42.0339 19.1088 40.8819V39.5705L19.0909 39.5351ZM24.5423 38.8616C23.8476 38.8616 23.1528 39.1452 22.939 39.7477C22.2086 41.6972 23.4556 43.2567 24.2395 44.834C24.6136 45.5783 25.54 46.0214 26.0388 46.7657C26.2704 47.1024 26.698 47.1201 26.8939 46.8543C27.2502 46.3935 27.8738 46.2695 28.1766 45.6846C28.4082 45.2416 28.8892 44.9226 29.4415 44.7985C30.2075 44.6213 30.261 44.3732 29.7443 43.7529C28.7289 42.4769 27.5887 41.325 26.6089 40.0135C26.1635 39.411 25.5044 38.7553 24.5423 38.8439V38.8616ZM34.4653 52.1355C34.4653 52.1355 34.4653 51.9937 34.4475 51.9228C34.109 50.2215 33.0936 48.8923 31.989 47.6164C31.7218 47.2974 31.2942 47.2796 30.9201 47.4569C30.3679 47.7227 29.8512 48.0417 29.4593 48.5202C29.0852 48.981 28.7645 49.619 29.0495 50.1152C29.869 51.5507 30.742 52.9862 32.381 53.6419C33.4499 54.0672 34.4653 53.3229 34.4653 52.1355Z" fill="#1E6E67"/>
<path fill-rule="evenodd" clip-rule="evenodd" d="M72.6073 79.0909C72.6073 78.6833 72.3223 78.6479 72.0194 78.5415C70.3983 77.9921 69.0621 77.0883 68.6167 75.3161C68.3139 74.1642 68.207 73.0122 68.4564 71.8248C68.688 70.6906 68.9196 69.5564 69.2403 68.4399C69.4719 67.6601 69.8816 66.9158 70.1667 66.1183C70.7367 64.4524 71.6988 63.0169 73.0349 61.8827C73.9078 61.1384 74.7986 60.4472 76.0812 60.1991C77.3639 59.951 78.4328 60.1105 79.3948 60.8194C80.4994 61.6169 80.7488 62.8929 80.8913 64.1689C81.0338 65.6044 80.8557 67.0398 80.4281 68.4045C79.6799 70.8147 79.1098 73.278 77.6133 75.4047C76.5623 76.8756 75.3508 78.0807 73.6406 78.7542C73.4624 78.8251 73.3021 78.9846 73.1418 79.1086H72.6429L72.6073 79.0909Z" fill="#9CD7ED"/>
<path fill-rule="evenodd" clip-rule="evenodd" d="M51.5678 20.9091C52.0844 21.4408 52.9217 21.4408 53.4027 22.1496C54.4182 23.656 55.398 25.1092 54.8814 27.041C54.8814 27.0941 54.8636 27.165 54.8814 27.2005C55.6296 28.5296 54.9526 29.9474 55.0595 31.3474C55.1842 32.7298 55.0952 34.2893 54.436 35.6894C54.0975 36.3982 54.1866 37.2844 54.0263 38.0819C53.7412 39.5528 52.1379 40.7402 50.6414 40.7225C49.1806 40.7047 47.7375 40.5984 46.3836 39.9958C45.956 39.8009 45.6354 39.5351 45.4216 39.0566C44.9406 37.9932 44.2636 37.0008 44.0498 35.8489C43.9251 35.2286 43.9608 34.5729 44.0142 33.9349C44.0676 33.2083 44.228 32.4285 44.1211 31.755C43.9073 30.5322 44.2992 29.4157 44.3527 28.2461C44.4061 26.9346 44.5843 25.6409 45.0118 24.3826C45.2256 23.7801 45.8491 23.4079 45.7779 22.6281C45.7423 22.3091 46.3658 22.1319 46.7399 21.9193C47.6841 21.3876 48.7886 21.299 49.7685 20.9091H51.5856L51.5678 20.9091ZM47.595 30.1423C48.7886 29.9828 49.8575 29.5398 51.0333 29.6107C51.4431 29.6461 51.7103 29.2385 51.6212 28.7954C51.5143 28.2815 51.6212 27.803 51.7637 27.3245C51.8884 26.9346 51.7994 26.5979 51.7281 26.208C51.6034 25.5523 51.2649 24.932 51.2649 24.2409C51.2649 23.975 51.1224 23.7978 50.9086 23.6383C50.4811 23.337 50.0535 23.2661 49.6081 23.5497C49.1627 23.851 48.468 23.9219 48.5748 24.7016C48.5927 24.8966 48.5749 25.0738 48.468 25.251C47.6841 26.7751 47.8266 28.4587 47.6128 30.1246L47.595 30.1423Z" fill="#1E6E67"/>
<path fill-rule="evenodd" clip-rule="evenodd" d="M73.5871 46.872C73.8722 47.7581 73.1417 48.4316 73.0883 49.2645C73.0883 49.3886 72.928 49.4949 72.8745 49.4595C72.447 49.0696 72.3044 49.5481 72.1263 49.7253C70.5586 51.3734 68.6702 51.6747 66.5502 51.1962C64.5015 50.7355 63.3079 49.4417 62.7734 47.4923C62.1677 45.2948 63.1119 42.9023 65.0003 41.6617C65.5169 41.325 66.1048 41.2364 66.6393 41.2541C67.1737 41.2541 67.7082 41.2541 68.2604 41.2009C69.0087 41.1478 69.7569 41.0946 70.3448 41.7503C70.8614 42.3352 71.6987 42.3529 72.251 43.044C73.1952 44.2137 73.6228 45.4365 73.6049 46.8897L73.5871 46.872Z" fill="#EFE452"/>
<path fill-rule="evenodd" clip-rule="evenodd" d="M55.9325 68.5817C54.0797 68.4045 52.2448 68.2272 50.784 66.8272C50.3564 66.4196 50.2851 65.8702 50.0892 65.3917C49.6794 64.3638 49.4656 63.1941 49.8398 62.1663C50.1248 61.3865 50.3564 60.4295 51.3184 60.0219C52.0488 59.7383 52.5298 59.0649 53.3849 58.8877C54.8992 58.5864 56.4313 58.3914 57.8922 58.7459C58.9967 59.0294 60.119 59.7383 60.5466 60.9611C61.0098 62.2549 61.7046 63.5131 61.3305 64.9841C61.2948 65.1081 61.3661 65.3385 61.2948 65.374C60.6713 65.7461 60.6179 66.5613 60.0834 66.9512C58.8364 67.8196 57.5002 68.4931 55.9325 68.5817ZM55.113 66.2423C56.0928 66.3664 56.5382 65.5157 57.1617 65.0372C57.4824 64.7891 57.8565 64.3992 57.8031 63.8853C57.714 62.9815 57.5715 62.0776 56.948 61.3865C56.6451 61.0498 56.1641 60.8194 55.6831 61.032C54.4895 61.546 53.1177 61.9181 53.3671 63.6904C53.3671 63.7435 53.3671 63.7967 53.3493 63.8499C53.0821 64.7714 54.2044 66.2778 55.1486 66.2601L55.113 66.2423Z" fill="#1E6E67"/>
<path fill-rule="evenodd" clip-rule="evenodd" d="M39.7029 77.2301C35.5342 77.2478 34.109 73.0477 35.6055 70.2653C35.9261 69.6627 36.3715 69.1311 36.8525 68.6348C37.3514 68.1209 37.8324 68.0323 38.5271 68.5108C39.5248 69.2019 40.1305 70.2121 40.9144 71.0805C41.716 71.9843 42.3752 73.0122 43.1591 73.9338C43.8538 74.7667 43.9073 74.9616 43.1234 75.6883C42.1614 76.5744 41.1281 77.3541 39.7207 77.2301H39.7029Z" fill="#E06765"/>
<path fill-rule="evenodd" clip-rule="evenodd" d="M24.5423 38.8616C25.5043 38.7907 26.1635 39.4287 26.6088 40.0313C27.5887 41.325 28.7288 42.4947 29.7443 43.7706C30.2431 44.4086 30.1897 44.639 29.4414 44.8163C28.8714 44.9403 28.3903 45.2593 28.1766 45.7024C27.8915 46.2872 27.2502 46.3935 26.8939 46.872C26.6979 47.1201 26.2704 47.1201 26.0388 46.7834C25.5399 46.0391 24.5957 45.5783 24.2394 44.8517C23.4556 43.2744 22.2085 41.7149 22.9389 39.7654C23.1705 39.1629 23.8475 38.8971 24.5423 38.8793V38.8616Z" fill="#FDFEFE"/>
<path fill-rule="evenodd" clip-rule="evenodd" d="M34.4654 52.1355C34.4654 53.3229 33.4499 54.0672 32.381 53.6419C30.742 52.9862 29.8691 51.533 29.0496 50.1152C28.7646 49.619 29.0852 48.981 29.4593 48.5202C29.8513 48.0417 30.3679 47.7227 30.9202 47.4569C31.3121 47.2796 31.7219 47.2974 31.9891 47.6164C33.0936 48.8924 34.1091 50.2215 34.4476 51.9228C34.4476 51.9937 34.4476 52.0823 34.4654 52.1355Z" fill="#E06765"/>
<path fill-rule="evenodd" clip-rule="evenodd" d="M47.5771 30.1423C47.7909 28.4764 47.6484 26.7928 48.4323 25.2687C48.5213 25.0915 48.5748 24.9143 48.5392 24.7194C48.4323 23.9396 49.1449 23.851 49.5724 23.5674C50 23.2839 50.4454 23.3547 50.8729 23.656C51.0867 23.8155 51.2292 23.9927 51.2292 24.2586C51.2292 24.9497 51.5499 25.57 51.6924 26.2257C51.7637 26.6156 51.8528 26.9523 51.728 27.3422C51.5855 27.8207 51.4786 28.2992 51.5855 28.8132C51.6746 29.2562 51.4074 29.6461 50.9976 29.6284C49.8218 29.5575 48.7529 30.0006 47.5593 30.1601L47.5771 30.1423Z" fill="#FDFEFE"/>
<path fill-rule="evenodd" clip-rule="evenodd" d="M55.1129 66.2423C54.1687 66.2423 53.0464 64.736 53.3136 63.8321C53.3136 63.779 53.3493 63.7258 53.3314 63.6726C53.082 61.9004 54.4716 61.546 55.6474 61.0143C56.1284 60.8016 56.6094 61.032 56.9123 61.3688C57.5358 62.0599 57.6783 62.9815 57.7674 63.8676C57.8208 64.3815 57.4467 64.7714 57.126 65.0195C56.5025 65.498 56.075 66.3487 55.0773 66.2246L55.1129 66.2423Z" fill="#FDFEFE"/>
</g>
<defs>
<clipPath id="clip0_125_12959">
<rect width="61.8182" height="58.1818" fill="white" transform="translate(19.0909 20.9091)"/>
</clipPath>
</defs>
</svg>
