<svg width="100" height="100" viewBox="0 0 100 100" fill="none" xmlns="http://www.w3.org/2000/svg">
<g clip-path="url(#clip0_125_12956)">
<path fill-rule="evenodd" clip-rule="evenodd" d="M76.708 68.5264C76.708 68.5264 78.6559 69.8198 81.0506 69.5363C83.4453 69.2528 92.1484 60.4827 92.1484 60.4827L93.9176 53.7323L87.1446 33.9241C87.1446 33.9241 85.0716 28.1128 83.7491 28.6443C82.4267 29.1758 80.2107 31.798 80.2107 31.798L78.1555 40.8871L76.708 68.5264Z" fill="#9CD7ED"/>
<path fill-rule="evenodd" clip-rule="evenodd" d="M57.4074 52.7578C57.4074 52.7578 61.4283 55.3091 64.3056 57.0632C67.1828 58.8172 69.22 61.6343 69.22 61.6343L73.5805 65.8865C73.5805 65.8865 76.3148 66.6306 75.0102 68.2429C73.7056 69.8552 60.4097 88.37 60.4097 88.37L55.6382 86.4211L49.3655 87.2892L42.8784 85.2871L22.0767 76.1095L14.3386 69.5186L12.8196 65.8688L6.17163 61.6166L11.4793 53.7323L17.6626 45.972L25.1862 40.8871L27.6167 43.0309L32.4597 42.588L38.8932 44.5369L38.786 48.4347C38.786 48.4347 32.4061 50.4368 31.173 51.8188C29.9399 53.183 36.3019 58.5337 42.9141 60.7484C49.5264 62.9631 56.3173 63.7958 58.2295 61.1913C60.1416 58.5869 55.6918 57.0454 55.6918 57.0454L54.1907 55.2914L57.461 52.7401L57.4074 52.7578Z" fill="#EFE452"/>
<path fill-rule="evenodd" clip-rule="evenodd" d="M4.54541 60.6067C4.72412 59.8271 5.45682 59.455 5.81424 58.8349C6.02869 58.4806 6.10018 58.0554 6.40398 57.7542C6.47546 57.6833 6.58269 57.5415 6.56482 57.453C6.42185 56.5139 7.1903 56.0001 7.54772 55.3091C7.90513 54.6359 8.54848 54.1221 8.85229 53.4488C9.20971 52.6515 9.83519 52.1023 10.3534 51.4822C10.8538 50.8798 11.1576 50.1179 11.8189 49.6041C11.9797 49.4801 12.069 49.2675 12.3371 49.3561C12.5516 49.4269 12.7303 49.232 12.6945 49.1257C12.5337 48.5588 13.1592 48.5056 13.32 48.4525C13.7668 48.293 13.9455 48.0095 14.1599 47.6552C14.571 47.0174 15.1071 46.5213 15.7862 46.1669C15.9113 46.096 16.0721 46.0429 16.1257 45.9366C16.6976 44.9267 17.6984 44.2534 18.5026 43.527C19.7178 42.4285 20.7364 41.082 22.2376 40.267C22.5414 40.1075 22.8809 40.0189 23.1669 39.9835C24.5965 39.8063 26.1334 39.5583 27.3486 40.4619C27.9205 40.8871 28.403 41.1883 29.0642 41.2946C29.4395 41.3478 29.7791 41.4186 30.1722 41.33C31.03 41.1529 31.87 41.4363 32.7278 41.5249C34.4612 41.7021 36.0517 42.4817 37.7495 42.7652C37.7852 42.7652 37.8388 42.7652 37.8746 42.7297C37.3742 42.0919 37.6065 41.33 37.6244 40.6391C37.6244 40.3201 37.7852 39.9481 37.678 39.6646C37.1597 38.1409 37.9818 36.8652 38.4107 35.5364C38.6252 34.8454 39.4472 34.8454 39.9833 34.7746C41.6096 34.5265 43.1822 34.8277 44.4868 35.9085C45.3267 36.6172 46.1845 37.2373 47.2746 37.5031C47.4712 37.5562 47.5963 37.6979 47.7035 37.8574C48.4899 39.0268 49.7766 39.4874 50.956 40.1252C51.4386 40.391 52.0462 40.3379 52.6002 40.1252C53.3507 39.8418 54.0834 39.5583 54.8519 39.3457C55.942 39.0445 57.05 39.1685 58.0687 39.576C58.9801 39.9304 59.9272 40.2138 60.6599 40.9757C61.339 41.6844 62.0896 42.3576 62.59 43.2081C63.412 44.5901 63.5729 46.8756 61.6607 47.8146C60.785 48.2399 59.8557 48.7891 59.3017 49.5864C58.8728 50.2065 58.1401 50.7026 58.1223 51.5707C58.1223 51.8011 57.9436 51.9074 57.8006 51.996C57.5147 52.1909 57.4074 52.3503 57.3896 52.7578C57.3538 53.3779 56.5496 53.5551 56.2637 54.1043C56.2101 54.1929 56.0671 54.2461 55.9778 54.317C55.3523 54.8662 55.3165 55.1497 56.0492 55.4686C56.9964 55.8761 57.5147 56.7088 58.1759 57.3644C59.0873 58.268 59.8021 59.4196 59.4626 60.8547C59.0873 62.5202 57.9078 63.7072 56.1922 64.0439C54.0298 64.4514 51.9389 64.097 49.8123 63.9376C48.5256 63.849 47.3283 63.4238 46.0416 63.3706C45.5412 63.3529 45.0408 63.1226 44.5583 62.9099C43.1822 62.3253 41.7883 61.8115 40.3586 61.3685C39.5544 61.1382 38.7145 60.9256 38.2141 60.1992C37.9282 59.7917 37.4635 60.0397 37.0883 59.774C35.7658 58.8349 34.2825 58.1085 33.0316 57.0986C32.281 56.4962 31.6376 55.7166 31.0122 54.9548C30.5654 54.4233 30.1007 53.9095 29.9042 53.2008C29.6361 52.244 30.0829 49.8876 30.9049 49.4446C31.6198 49.0726 32.4776 48.9486 33.2639 48.7537C34.8901 48.3462 36.4628 48.6651 38.0533 48.984C38.5358 49.0726 38.7145 49.0017 38.7502 48.4702C38.8217 47.5843 38.7502 46.7339 38.5358 45.8834C38.4643 45.5291 38.3213 45.3342 37.8924 45.3165C36.7308 45.2633 35.7837 44.4837 34.6578 44.2889C33.5856 44.094 32.5848 43.5979 31.4232 43.7042C30.7262 43.775 30.2437 43.9522 29.8327 44.5369C29.5646 44.9267 29.1893 45.2279 28.8319 45.5468C27.8669 46.3618 27.027 47.2831 26.2049 48.2221C25.6509 48.8423 24.9182 49.3206 24.3642 49.9407C23.7923 50.5786 23.1669 51.1632 22.6129 51.8542C22.1661 52.4212 21.9695 53.2539 21.0938 53.626C20.6113 53.8386 20.2896 54.689 19.8429 55.1851C18.9315 56.195 17.9128 57.0809 16.8584 57.9136C16.3759 58.3034 15.6611 58.5337 15.125 58.0731C14.5531 57.5593 14.8926 56.8151 15.2679 56.3899C15.9292 55.6458 16.4831 54.9016 16.8406 53.9626C16.9657 53.626 17.4303 53.4488 17.6984 53.1476C18.02 52.7933 18.5204 52.5629 18.4847 51.9783C18.4847 51.8365 18.5383 51.7479 18.6634 51.7125C19.271 51.5885 19.4318 50.8975 20.0037 50.7026C20.0752 50.6672 20.1645 50.5786 20.2003 50.49C20.7364 49.0371 22.0589 48.3107 23.0954 47.3363C23.4528 46.9996 23.7566 46.5921 24.0068 46.2023C24.6859 45.1393 25.6688 44.3066 26.3657 43.2435C26.4908 43.0486 26.4015 42.8183 26.2943 42.836C25.7403 42.8715 25.4365 42.3222 24.9361 42.2691C24.6323 42.2336 24.3285 42.2159 24.0425 42.3931C23.3992 42.7474 23.1669 43.651 22.2912 43.6687C22.1303 44.4837 21.3262 44.6964 20.8079 45.157C19.5927 46.2201 18.5204 47.4071 17.4303 48.5942C17.2873 48.7537 17.1086 48.86 16.8942 48.9131C16.5546 48.984 16.3044 49.108 16.3938 49.5332C16.4295 49.6573 16.3938 49.7813 16.2508 49.8344C15.4645 50.1888 15.0356 51.0747 14.2135 51.3581C13.9991 51.429 13.8919 51.5885 13.8204 51.7479C13.4987 52.4389 12.8375 52.935 12.5158 53.5551C12.1405 54.2992 11.4972 54.8308 11.1398 55.6458C10.7466 56.6025 10.2641 57.5947 9.51351 58.392C9.3348 58.5692 9.17396 58.7641 9.10248 59.0298C8.92377 59.8271 8.42339 60.4295 7.83365 60.9965C7.54772 61.2799 7.40475 61.6166 8.0481 61.6697C8.11958 61.6697 8.3519 61.7052 8.15532 61.9178C7.923 62.1658 7.95875 62.3253 8.28042 62.3784C9.3348 62.5202 10.0675 63.1403 10.7287 63.9198C11.1219 64.3982 11.6938 64.6285 12.2478 64.9297C13.8919 65.8333 15.2143 67.0558 15.7862 68.9162C15.8577 69.1288 15.9113 69.3237 16.0721 69.4831C16.8942 70.3159 17.6448 71.2195 18.5026 72.0345C19.4676 72.9558 20.5756 73.6113 21.6478 74.3555C22.3448 74.8338 23.0239 75.4008 23.7566 75.8437C25.0076 76.5879 26.0977 77.6155 27.5095 78.023C28.7783 78.395 29.7791 79.2632 31.0836 79.5644C32.1738 79.8124 33.1567 80.344 34.211 80.6983C35.873 81.2653 37.4635 82.0448 39.1077 82.7181C40.4301 83.2674 41.6989 83.9052 43.1107 84.2418C43.8613 84.419 44.5404 84.8442 45.2731 85.1454C45.8271 85.3757 46.399 85.5706 46.9708 85.7478C48.5614 86.2085 50.1697 85.8187 51.7602 85.9073C52.5644 85.9427 53.2971 85.7301 54.0298 85.6061C55.0127 85.4289 55.9599 85.482 56.9249 85.482C57.5325 85.482 58.158 85.7655 58.712 85.9959C59.2303 86.2085 59.8021 86.4388 60.2668 86.8109C60.6599 87.1298 61.0352 86.864 61.339 86.616C61.6071 86.3856 61.8751 86.1199 62.0717 85.8364C63.1618 84.2064 64.5379 82.8244 65.7531 81.3007C67.3972 79.2278 68.9163 77.0485 70.5604 74.9756C71.7935 73.3987 72.9193 71.751 73.7235 69.9261C73.9201 69.4831 74.3848 69.2705 74.492 68.7036C74.6171 68.1012 74.3669 67.8 73.9737 67.676C73.384 67.4811 72.9372 67.0027 72.3296 66.861C72.2045 66.8255 72.0437 66.7015 72.0258 66.5775C71.865 65.6916 70.9893 65.4258 70.5068 64.8234C70.4532 64.7526 70.3817 64.664 70.2923 64.6285C69.3273 64.3982 69.1486 63.4238 68.5231 62.8745C68.0048 62.4139 67.9512 61.5811 67.1828 61.3331C67.0756 61.2977 66.9505 61.1382 66.9147 61.0319C66.5394 59.8094 65.4136 59.331 64.5379 58.5514C63.0189 57.2049 61.2675 56.3013 59.4983 55.3623C59.0337 55.1142 58.7299 54.6713 58.2831 54.4055C57.8006 54.1043 58.015 53.4488 58.6048 53.183C59.9808 52.5806 61.2139 52.9704 62.1789 53.9449C63.001 54.7776 64.0733 55.0788 64.9847 55.6989C66.2714 56.5671 67.6117 57.2403 68.6125 58.516C69.4166 59.5259 70.0779 60.6953 71.0429 61.528C72.0437 62.4139 72.5798 63.8135 73.8129 64.2742C74.7779 64.6463 75.1532 65.479 75.9038 66.0105C76.9403 66.7546 76.9224 67.9949 76.7437 69.1819C76.5829 70.2627 76.0825 71.2372 75.4034 72.0699C74.0095 73.8062 72.9193 75.7197 71.6684 77.5446C70.3638 79.4227 68.7376 81.035 67.3615 82.8599C66.6109 83.852 65.914 84.8619 65.2527 85.9073C64.6451 86.8817 63.8946 87.7322 63.001 88.4586C62.5006 88.8661 62.0539 89.309 61.5892 89.752C61.2139 90.1063 60.8744 90.2126 60.3919 89.876C59.82 89.4862 59.123 89.2736 58.6048 88.8484C57.8185 88.1928 56.8713 88.0334 55.942 87.7853C55.5667 87.679 55.1914 87.7499 54.8162 87.7853C52.7789 88.0334 50.7416 88.122 48.7043 88.3346C47.5784 88.4586 46.4883 87.9093 45.3982 87.6613C43.7541 87.2892 42.2887 86.4919 40.6803 86.049C39.9655 85.8541 39.197 85.4643 38.5358 84.986C38.1605 84.7025 37.6065 84.6316 37.1419 84.4899C36.57 84.3127 35.9981 84.1887 35.5156 83.7989C35.3369 83.6394 35.1225 83.5331 34.8544 83.5863C34.497 83.6571 34.2289 83.48 34.0323 83.2496C33.7464 82.9307 33.389 82.6827 32.9958 82.6827C31.9236 82.6827 31.0479 82.0271 30.1186 81.6905C28.9391 81.2653 27.6882 80.8578 26.5802 80.2022C26.3121 80.0428 26.0083 79.9896 25.7403 79.8479C23.8459 78.9089 21.9874 77.9344 20.4147 76.4815C20.1109 76.1981 19.6642 76.0918 19.3067 75.8969C18.4132 75.4539 17.7877 74.5681 16.787 74.2846C16.5368 74.2137 16.2866 74.0188 16.2151 73.7708C15.8041 72.4597 14.4459 71.9813 13.7132 70.936C13.4451 70.5639 13.0698 70.2627 12.8732 69.8198C12.4265 68.8099 11.658 67.9772 11.0504 67.0736C10.9253 66.861 10.6572 66.6483 10.4428 66.6129C9.47777 66.4534 8.87016 65.8156 8.26255 65.1424C8.1732 65.036 8.0481 64.912 7.923 64.8943C7.31539 64.7526 7.02946 64.2919 6.65417 63.849C6.3325 63.4769 6.10018 62.9454 5.40321 62.9099C5.11728 62.9099 4.75986 62.5556 4.77773 62.0772C4.77773 61.9 4.95644 61.5634 4.56328 61.528V61.2445C4.70625 61.2977 4.77773 61.2268 4.77773 61.085C4.77773 60.9433 4.72412 60.837 4.56328 60.8016V60.6598L4.54541 60.6067ZM48.7937 55.6103C49.8302 55.6103 51.1348 54.9725 52.0283 54.2992C52.7967 53.7146 53.172 52.7578 54.0656 52.3326C54.2264 52.244 54.3873 51.9783 54.4051 51.7834C54.4766 51.1278 54.7268 50.614 55.3165 50.2774C55.5667 50.1356 55.799 49.923 55.7633 49.6041C55.7276 49.0194 56.1743 48.3816 56.4067 48.2576C57.1394 47.8324 57.604 47.0705 58.4976 46.8225C60.0344 46.415 60.4097 45.1393 59.4804 43.9345C58.9622 43.2435 58.3725 42.6588 57.6755 42.1096C57.0679 41.649 55.9778 41.2592 55.3523 41.6489C54.0298 42.464 52.6359 42.6766 51.1348 42.2868C50.9024 42.2336 50.688 42.3222 50.5271 42.4462C50.3127 42.6234 50.5271 42.7474 50.6701 42.8892C50.7952 43.0132 50.7059 43.1904 50.688 43.3498C50.5629 44.5192 49.7766 45.4051 49.4192 46.4681C48.9903 47.7792 48.3112 48.984 47.507 50.1179C46.9887 50.8443 46.4168 51.4999 45.6305 51.9251C45.3982 52.0491 45.1123 52.3503 44.8621 52.1023C44.6476 51.8897 44.6834 51.553 44.8621 51.2164C45.5233 50.0116 45.6305 48.5942 46.3275 47.3717C46.7564 46.6098 47.0781 45.6885 47.0959 44.6964C47.0959 44.2534 46.8636 43.8459 46.9708 43.4207C47.2032 42.5703 46.7028 41.9147 46.4168 41.1883C45.8629 39.7532 44.5761 38.9913 43.4503 38.1054C43.1643 37.8928 43.3609 37.4322 42.932 37.4145C42.521 37.4145 42.1278 37.3082 41.7526 37.1487C41.4845 37.0424 41.3058 37.2196 41.2343 37.3967C40.9662 37.9814 40.6982 38.6015 40.8411 39.2394C41.0556 40.2493 41.2164 41.2237 40.716 42.1805C40.6446 42.3222 40.716 42.4462 40.8233 42.5525C41.27 42.9778 41.3773 43.5093 41.3951 44.094C41.413 44.5369 41.3594 45.0684 41.5917 45.4051C42.378 46.5921 42.0742 47.9209 42.1814 49.1966C42.2708 50.3482 41.4309 51.2341 41.413 52.368C41.413 52.8996 41.4666 53.2539 41.9134 53.4842C42.1636 53.6083 42.3065 53.8032 42.5031 53.9803C43.2001 54.6182 43.9685 55.3977 44.88 55.3977C46.2203 55.3977 47.5248 56.0887 48.7937 55.6103ZM53.6903 62.2898C54.2622 62.4139 55.12 61.8292 55.9956 61.3154C56.3531 61.1028 56.639 60.589 56.4603 60.3055C55.9241 59.4905 55.6918 58.5337 54.9412 57.8073C53.6367 56.5139 53.4222 56.6557 51.9568 57.3112C51.5279 57.5061 51.1705 57.825 50.7059 57.9845C50.2591 58.1439 49.8838 57.8605 49.4728 57.825C47.8108 57.701 46.113 57.8782 44.4868 57.453C43.4682 57.1872 42.4138 57.0986 41.4487 56.5139C40.5195 55.947 39.8225 55.1674 39.0183 54.4941C38.2677 53.8563 37.9103 53.059 38.1605 52.1377C38.4464 51.0569 38.4643 50.9861 37.3921 50.9329C36.2305 50.8798 35.0867 50.2774 33.8894 50.9329C33.1031 51.3581 32.6742 52.5806 33.246 53.2716C34.1753 54.3878 34.908 55.6812 36.2662 56.3899C37.3563 56.9569 38.2499 57.8605 39.4472 58.3211C40.3586 58.6755 41.3773 58.9058 42.0742 59.7031C42.2708 59.9157 42.5567 59.9511 42.8069 59.9334C43.3431 59.8803 43.772 60.1283 44.2366 60.27C45.1838 60.5535 45.9165 61.4394 47.0245 61.2091C47.0602 61.2091 47.1138 61.2445 47.1674 61.2622C49.1153 61.8469 51.1348 62.0595 53.6903 62.3253V62.2898Z" fill="#1E6E67"/>
<path fill-rule="evenodd" clip-rule="evenodd" d="M4.54541 60.7484C4.70625 60.7661 4.75986 60.8901 4.75986 61.0319C4.75986 61.1559 4.68838 61.2268 4.54541 61.1913V60.7661V60.7484Z" fill="#1E6E67"/>
<path fill-rule="evenodd" clip-rule="evenodd" d="M95.4008 54.9548C95.7582 56.9391 94.686 58.7995 93.3278 60.5358C92.5951 61.4571 91.9517 62.4316 91.1118 63.2643C90.3612 64.0084 89.7 64.8589 88.8958 65.5676C88.7707 65.6739 88.7529 65.8156 88.7886 65.9573C88.8422 66.17 88.878 66.3117 88.5742 66.2763C88.4133 66.2585 88.324 66.4003 88.2704 66.542C87.8057 67.4456 87.0551 68.1366 86.3403 68.7921C85.4468 69.6249 84.589 70.5639 83.3023 70.8828C82.4087 71.0954 81.4973 70.8828 80.6038 70.9891C79.6566 71.1131 78.8345 70.8651 78.1554 70.1918C77.9053 69.9615 77.6729 69.7135 77.8159 69.3237C77.941 68.9693 78.2627 68.9693 78.5665 68.8985C79.1383 68.7567 79.7638 68.9339 80.2999 68.4555C80.5144 68.2606 81.122 68.4024 81.533 68.5087C82.5874 68.7921 83.2129 68.0126 83.7848 67.4988C84.4996 66.8432 84.8928 65.8865 85.7863 65.3195C86.3046 64.9829 86.3403 64.2388 86.7692 63.7604C87.7164 62.715 88.7886 61.776 89.6464 60.6067C90.0932 59.9865 90.951 59.579 91.4156 58.8703C92.613 57.0986 92.8096 55.1851 92.327 53.1299C92.0947 52.1554 91.7909 51.181 91.5407 50.2242C91.2369 49.108 91.0403 47.8855 90.5221 46.8579C89.7179 45.2987 89.5213 43.527 88.6278 42.021C88.5742 41.9324 88.5205 41.8438 88.5384 41.7552C88.6635 40.7808 87.9129 40.0898 87.7342 39.2216C87.5734 38.3712 86.8228 37.8574 86.6262 37.0778C86.376 36.0148 85.8399 35.0758 85.3395 34.1544C84.857 33.2686 84.6783 32.2409 83.892 31.4791C83.5167 31.107 83.0699 30.6464 83.0878 29.9731C83.0878 29.6365 82.8912 29.3707 82.4802 29.2113C80.6038 28.4671 78.7273 27.7407 76.9938 26.7131C76.8509 26.6422 76.6722 26.5714 76.5292 26.5891C75.868 26.7131 75.3855 26.4296 74.8315 26.093C73.7771 25.4729 72.6691 24.9236 71.5254 24.4807C69.917 23.8429 68.255 23.3999 66.6287 22.7975C64.9131 22.1597 63.4477 21.0258 61.7142 20.512C60.5169 20.1576 59.6234 19.1832 58.3724 18.9528C57.9792 17.9961 56.8891 18.315 56.2636 17.8189C55.8883 17.5177 55.4952 17.3937 55.0127 17.376C54.4944 17.3583 54.1549 16.9862 53.7975 16.685C53.4579 16.4015 53.1362 16.1535 52.6537 16.1889C52.475 16.1889 52.2427 16.1535 52.0997 16.0472C51.3134 15.3739 50.3126 15.179 49.3655 14.8246C48.6149 14.5412 47.9179 14.0805 47.1674 13.7439C46.4704 13.425 45.9521 13.4427 45.4339 13.9388C44.9335 14.4171 44.3616 14.3994 43.7719 14.1868C43.343 14.0451 42.9498 13.7439 43.0035 13.2832C43.0749 12.8049 43.1285 12.2733 43.8076 12.0784C44.3974 11.9013 44.8799 11.4406 45.4339 11.1748C45.8449 10.9622 46.1487 11.0685 46.5061 11.0154C47.3997 10.8914 48.186 11.0154 48.7757 11.7772C49.1153 12.2202 49.6693 12.2556 50.1339 12.4682C51.9389 13.2655 53.726 14.0628 55.5309 14.8601C56.0849 15.1081 56.6925 15.1967 57.175 15.7105C57.5325 16.0826 58.2116 16.1712 58.7119 16.3484C60.1416 16.8444 61.1603 17.9606 62.5363 18.4922C62.8044 18.5985 63.0367 18.7225 63.3405 18.7048C63.5013 18.7048 63.7515 18.7048 63.823 18.7934C64.4306 19.7678 65.6637 19.6261 66.4858 20.2816C67.1291 20.7954 68.0584 20.9726 68.8805 21.2029C70.1136 21.5573 71.3109 22.0002 72.4725 22.4786C73.2588 22.7975 74.0273 23.1873 74.8851 23.3645C75.0995 23.4176 75.2782 23.5062 75.4569 23.6302C75.9931 24.02 76.5828 24.3389 77.2619 24.4098C77.798 24.4807 78.2448 24.7464 78.6737 25.0476C80.0676 26.0575 81.7654 26.3765 83.3023 27.032C83.9992 27.3332 84.6962 27.5635 84.857 28.4317C84.857 28.5203 84.9464 28.6089 85.0179 28.662C86.2688 29.3707 86.5726 30.7172 87.2517 31.8157C88.0023 33.0382 88.6993 34.2785 89.3069 35.5718C89.986 37.0601 90.6829 38.5307 91.3799 40.0189C91.4514 40.1607 91.5229 40.3201 91.5586 40.4796C92.059 43.2435 93.1134 45.8303 94.2571 48.3639C94.3643 48.6119 94.4179 48.9131 94.4358 49.1966C94.4537 49.675 94.5252 50.1711 94.7575 50.5608C95.5438 51.8542 95.4366 53.2716 95.4187 55.0257L95.4008 54.9548Z" fill="#1E6E67"/>
<path fill-rule="evenodd" clip-rule="evenodd" d="M18.6098 62.5202C17.5196 62.9099 16.3938 62.9277 15.3036 63.1048C15.0713 63.1403 14.8569 63.1403 14.696 63.0694C14.3029 62.8745 13.9276 62.7682 13.4987 62.6973C12.9804 62.6087 12.766 62.1835 12.8732 61.6697C13.0162 61.0142 13.6595 60.837 14.1242 60.8724C15.6432 60.961 17.1086 60.6598 18.5919 60.5358C20.1824 60.4118 21.7908 60.589 23.2026 61.528C23.4528 61.7052 23.7923 61.8115 24.0782 61.7052C24.5786 61.5457 24.9718 61.7406 25.3471 61.9886C26.9376 63.0871 28.671 63.9198 30.4045 64.7348C31.8521 65.4081 33.2102 66.2408 34.7114 66.8078C35.5156 67.109 36.3198 67.5697 37.1061 67.8708C37.7316 68.1012 37.9103 68.6859 38.3928 68.863C38.9111 69.0579 39.4472 69.2351 39.9833 69.43C41.127 69.8375 42.1099 70.5639 43.2179 71.0068C44.0936 71.3612 44.9693 71.7687 45.7199 72.3179C46.4168 72.814 47.3997 73.0089 47.7214 73.9834C47.7929 74.2137 48.0252 74.3554 48.2575 74.4263C49.8838 74.9047 50.9024 76.1626 51.9568 77.3497C53.2614 78.8203 54.3336 80.4326 55.4237 82.0448C55.8169 82.6295 55.7454 82.8244 55.0484 82.7713C53.7439 82.6827 52.4214 82.4878 51.8317 81.0527C51.7781 80.9286 51.7066 80.7692 51.5994 80.6983C50.3841 79.7947 49.6872 78.4836 48.8115 77.3143C48.4541 76.8182 47.8465 76.4107 47.1853 76.2512C47.0423 76.2158 46.8993 76.2158 46.7921 76.1095C45.3803 74.7452 43.4681 74.2137 41.9134 73.0621C41.5023 72.7609 40.8947 72.8672 40.5552 72.4774C39.8403 71.6447 38.6966 71.6447 37.8209 71.0068C37.2669 70.5993 36.4091 70.3336 35.6764 70.0501C35.3369 69.9084 35.2833 69.554 34.9437 69.4654C33.1924 69.0756 31.8163 67.8354 30.0828 67.3925C29.9756 67.357 29.8684 67.2862 29.779 67.2153C28.7425 66.4003 27.5273 65.9574 26.2942 65.5321C25.8653 65.3904 25.4722 65.1601 25.1862 64.6994C24.7573 64.0084 23.8817 64.1147 23.2026 63.8844C22.2375 63.5478 21.2368 63.282 20.2896 62.9099C19.7177 62.6796 19.128 62.7328 18.5919 62.5024L18.6098 62.5202Z" fill="#1E6E67"/>
<path fill-rule="evenodd" clip-rule="evenodd" d="M41.4666 14.8778C42.4137 14.8778 43.0571 15.5688 42.8605 16.2775C42.6103 17.2697 42.1457 18.1555 41.4845 18.9351C41.0377 19.4489 40.9126 20.1222 40.5552 20.636C39.751 21.8231 39.751 23.3645 38.7323 24.4453C38.5894 24.587 38.4285 24.711 38.4107 24.9768C38.3392 25.8804 37.9282 26.6777 37.4993 27.4572C37.3563 27.7053 37.3205 27.9533 37.3563 28.2014C37.4814 28.9455 37.1597 29.5479 36.8916 30.2212C36.5878 30.9476 36.3555 31.7803 36.3376 32.5422C36.3019 33.4989 35.8909 34.3848 35.9802 35.3238C34.9973 36.2983 36.0875 37.4322 35.7122 38.4775C35.5513 38.9559 35.6049 39.5051 35.4798 40.0189C35.2654 40.9757 34.5148 41.1883 33.7821 40.5327C33.246 40.0544 32.8707 39.5051 32.7635 38.7787C32.6384 37.9106 32.4775 37.0424 32.4775 36.1742C32.4775 35.5718 32.9958 35.0049 32.8886 34.3671C32.7635 33.7115 33.0494 33.1091 32.9779 32.4713C32.9422 32.1701 32.8886 31.8512 33.0673 31.5677C33.8 30.4338 33.8715 29.0695 34.2825 27.8116C34.4969 27.1029 34.765 26.3765 34.9258 25.6146C35.0152 25.1717 35.1939 24.7287 35.6407 24.4453C35.7658 24.3744 35.8551 24.1618 35.8551 24.02C35.7479 22.7975 36.4091 21.8762 37.0704 20.9549C37.1418 20.8663 37.1954 20.7423 37.1776 20.636C37.0346 19.7856 37.6958 19.3426 38.0711 18.7579C38.4643 18.1201 38.786 17.4468 39.1255 16.7913C39.6616 15.7637 40.5194 15.1436 41.4666 14.8778Z" fill="#1E6E67"/>
<path fill-rule="evenodd" clip-rule="evenodd" d="M46.1666 15.6928C46.5419 15.6928 46.8636 15.8345 47.1853 15.9763C48.5792 16.6141 49.9374 17.3228 51.367 17.8366C52.7074 18.3327 53.8868 19.2186 55.3522 19.3958C55.5846 19.4312 55.799 19.6261 56.0313 19.7324C57.3895 20.3879 58.8907 20.7423 60.1774 21.575C61.4998 22.4255 62.9295 23.0633 64.2698 23.896C65.0025 24.3567 65.7888 24.7819 66.593 25.1185C66.9147 25.2603 67.1828 25.402 67.4151 25.6323C68.0048 26.1816 68.7196 26.4473 69.4524 26.7485C71.0607 27.4395 72.7585 27.971 74.206 28.9987C74.7064 29.353 75.2246 29.5656 75.7965 29.7428C76.3862 29.9377 76.8866 30.7704 76.6901 31.3019C76.5292 31.7271 75.7965 31.8512 75.171 31.7271C74.1345 31.5145 73.1159 31.2842 72.2223 30.735C71.6147 30.3452 71.025 29.9908 70.3638 29.7074C70.1136 29.601 69.8991 29.5125 69.6311 29.5125C69.5417 29.5125 69.3987 29.5302 69.363 29.477C68.5231 28.4317 67.1828 28.3608 66.0569 27.8825C65.6101 27.6876 65.2527 27.4218 64.931 27.0143C64.4306 26.3587 63.555 26.1639 62.858 25.7741C62.1432 25.3843 61.4641 24.9591 60.8386 24.4453C60.7135 24.339 60.6241 24.1618 60.4454 24.1972C59.8378 24.3567 59.3017 23.9492 58.9622 23.6834C57.8006 22.7798 56.3709 22.514 55.0842 21.9117C53.7975 21.2915 52.4572 20.8309 51.1347 20.2639C49.8659 19.7147 48.7043 18.9705 47.3282 18.6162C46.4347 18.3859 45.5054 17.9961 44.6297 17.5709C43.8255 17.1811 44.3438 16.6496 44.3795 16.1712C44.3974 15.6928 44.7906 15.8168 45.0765 15.7991C45.4518 15.7637 45.8271 15.7282 46.2024 15.6928H46.1666Z" fill="#1E6E67"/>
<path fill-rule="evenodd" clip-rule="evenodd" d="M79.1205 40.3201C78.9061 42.145 79.0312 43.9876 78.8167 45.8125C78.7452 46.3618 78.9954 46.9642 78.4593 47.4248C78.3878 47.4957 78.4414 47.7437 78.4593 47.9032C78.7095 48.9131 78.5486 49.923 78.3163 50.8975C78.1197 51.6593 78.4057 52.3857 78.3163 53.1476C78.084 54.8485 77.941 56.5848 77.7981 58.3034C77.7266 59.2247 77.4049 60.0574 76.9939 60.8547C76.8867 61.085 76.7794 61.3685 76.4399 61.3154C76.154 61.2799 76.0646 61.0142 76.0289 60.7838C75.9931 60.4649 75.8144 60.2169 75.6714 59.9334C75.3676 59.331 75.3319 58.7109 75.3855 58.0199C75.4927 56.9746 75.5821 55.9292 75.1353 54.8662C74.9209 54.3701 75.1353 53.5551 75.2068 52.8818C75.2247 52.6161 75.4749 52.3149 75.0817 52.0491C74.9209 51.9428 75.1174 51.8188 75.2604 51.7833C75.5106 51.7125 75.5285 51.4821 75.4927 51.3227C75.1889 50.4191 75.4749 49.5332 75.4391 48.6296C75.4034 47.354 75.5285 46.096 75.8501 44.8735C75.9395 44.5014 75.7072 44.2357 75.7429 43.9168C75.7965 43.0132 75.7072 42.0919 76.2612 41.2591C76.4935 40.9048 76.4756 40.391 76.5471 39.948C76.6365 39.3102 76.9224 38.7964 77.2798 38.2649C77.5479 37.8574 77.8696 37.7865 78.3163 37.8751C78.7631 37.9637 78.9597 38.2472 79.0312 38.6547C79.1205 39.1862 79.1741 39.7354 79.1563 40.2847L79.1205 40.3201Z" fill="#1E6E67"/>
<path fill-rule="evenodd" clip-rule="evenodd" d="M70.4174 67.4988C70.4174 67.4988 70.4174 67.7468 70.3459 67.8708C69.7026 68.9162 69.0949 69.9969 68.255 70.9182C67.8797 71.3257 67.6474 71.8927 67.3436 72.3888C66.8075 73.2747 65.9139 73.8594 65.4493 74.8161C65.3957 74.9401 65.1812 75.0287 65.1812 75.135C65.1097 75.8969 64.4664 76.2335 64.0554 76.7296C62.8044 78.2533 61.4105 79.6175 59.8914 80.8578C59.8557 80.8932 59.82 80.9286 59.7842 80.9463C59.3553 81.2653 58.9085 81.8322 58.3903 81.2653C57.9435 80.7869 58.426 80.3617 58.7477 79.9187C59.3374 79.086 59.8378 78.2001 60.374 77.332C61.3211 75.7551 62.4112 74.2846 63.3405 72.69C63.6622 72.1408 63.966 71.4852 64.6451 71.0954C65.0383 70.8828 65.0561 70.1741 65.485 69.802C66.5573 68.863 67.1649 67.5165 68.1478 66.4889C68.4159 66.2054 68.7375 66.0105 69.1128 65.9396C70.0242 65.7447 70.4174 66.1877 70.4353 67.5165L70.4174 67.4988Z" fill="#1E6E67"/>
<path fill-rule="evenodd" clip-rule="evenodd" d="M79.4422 32.2941C79.4422 31.8689 79.4422 31.4437 79.4422 31.0184C79.4422 30.6464 79.6388 30.5223 79.9962 30.6109C80.5502 30.7704 81.0148 30.9476 81.3007 31.55C81.9441 32.8788 82.373 34.2784 82.7125 35.6958C82.7662 35.9262 82.7661 36.1565 82.7483 36.4046C82.7125 37.0601 82.3551 37.3436 81.7118 37.255C80.8361 37.1132 79.9247 36.2805 79.7102 35.4301C79.5851 34.9163 79.7102 34.3493 79.46 33.8355C79.2456 33.3571 79.4243 32.8079 79.4243 32.2941H79.4422Z" fill="#1E6E67"/>
<path fill-rule="evenodd" clip-rule="evenodd" d="M54.1549 46.5921C53.8511 47.6375 53.3865 48.6119 52.6538 49.3915C51.8138 50.2597 50.9024 51.0569 49.8123 51.6239C49.6515 51.7125 49.4727 51.8897 49.294 51.7656C49.0975 51.6239 49.2404 51.4113 49.3119 51.2518C50.1876 49.4624 51.2062 47.7615 52.5465 46.2555C52.6538 46.1315 52.7967 46.0252 52.9218 45.9366C53.1899 45.7594 53.4579 45.5645 53.7796 45.7063C54.1549 45.8657 53.9583 46.3086 54.1549 46.5744V46.5921Z" fill="#1E6E67"/>
</g>
<defs>
<clipPath id="clip0_125_12956">
<rect width="90.9091" height="79.0909" fill="white" transform="translate(4.54541 10.9091)"/>
</clipPath>
</defs>
</svg>
