<svg width="100" height="100" viewBox="0 0 100 100" fill="none" xmlns="http://www.w3.org/2000/svg">
<g clip-path="url(#clip0_125_12950)">
<path fill-rule="evenodd" clip-rule="evenodd" d="M32.0814 65.8388L37.2865 63.571L40.9211 68.4521L36.0151 71.4708L32.0814 65.8388Z" fill="#EFE452"/>
<path d="M95.4546 45.7741L95.1554 46.6602C94.8563 46.6302 94.8413 46.8705 94.7665 47.0657C94.5123 47.6965 94.2131 48.3122 93.5849 48.6577C93.4353 48.7328 93.3755 48.8679 93.2858 49.0031C93.0016 49.4987 92.7623 50.0694 92.0593 50.0694C91.9396 50.0694 91.8948 50.1896 91.8798 50.2797C91.7901 50.7603 91.3264 50.9705 91.0273 51.1958C90.055 51.9317 89.2773 52.938 88.1705 53.4786C87.632 53.7339 87.3029 54.2596 86.8243 54.4849C85.9718 54.8904 85.194 55.416 84.3863 55.8816C83.5188 56.3772 82.6513 56.9028 81.8436 57.4886C81.5146 57.7289 81.0658 57.804 80.8415 58.0593C80.1834 58.8252 79.3009 59.2607 78.5231 59.8465C77.6706 60.4923 76.8629 61.1831 76.0253 61.8289C75.6514 62.1143 75.2176 62.3095 74.8736 62.6249C74.5595 62.8952 74.5296 63.511 73.9014 63.3308C73.8565 63.3308 73.7518 63.4209 73.7369 63.4809C73.6621 63.8564 73.3181 63.8264 73.0788 63.9015C72.8544 63.9615 72.6749 64.1267 72.4954 64.2018C71.8074 64.4722 71.4185 65.148 70.6557 65.3583C70.1023 65.5235 69.5489 65.8238 69.0104 66.0942C68.3374 66.4396 67.6344 66.74 66.9165 67.0103C66.4528 67.1905 65.9592 67.5359 65.5703 67.596C64.8973 67.7162 64.2391 67.8213 63.596 68.0466C63.2968 68.1517 63.0575 67.8964 62.7434 67.9865C61.9058 68.2568 61.0383 68.407 60.1559 68.4971C59.3033 68.5872 58.4956 68.9627 57.6132 68.7825C57.5533 68.7825 57.4935 68.8726 57.4187 68.9026C56.985 69.0829 56.5363 69.2631 56.0875 69.203C55.2649 69.0979 54.4871 69.3382 53.6795 69.3682C52.4829 69.4133 51.2863 69.8338 50.0748 69.4583C49.9402 69.4133 49.7308 69.3982 49.5214 69.6235C50.0598 69.9239 50.1795 70.4946 50.3889 70.9902C50.7329 71.8312 51.3162 72.5672 51.4359 73.5283C51.5855 74.6697 51.1816 75.5709 50.4039 76.3368C49.8504 76.8775 49.0128 76.8925 48.3996 77.4031C47.8163 77.8837 46.9637 77.9588 46.3654 78.3793C45.6774 78.8749 44.8997 79.2504 44.1817 79.6259C42.6112 80.4218 41.1903 81.5482 39.4553 81.9988C39.3805 82.0138 39.3057 82.0589 39.2608 82.1189C38.8121 82.7197 38.0643 82.8398 37.4809 83.2003C37.0322 83.4706 36.4489 83.4856 36.075 83.9362C35.8357 84.2215 35.5216 84.4318 35.1177 84.3867C34.9382 84.3717 34.8485 84.4919 34.7288 84.597C34.0109 85.2728 33.0537 85.4681 32.2161 85.9036C31.4532 86.2941 30.855 86.9699 29.9575 87.0901C29.9426 87.0901 29.9276 87.1201 29.9127 87.1351C29.7781 87.5106 29.3892 87.6307 29.105 87.6608C28.1776 87.7659 27.5794 88.4718 26.8315 88.8773C25.949 89.3428 25.0965 89.8084 24.1243 90.0187C23.87 90.0787 23.6606 90.274 23.3764 90.259C22.6884 90.2289 22.0004 90.2139 21.3124 90.1839C21.1329 90.1238 20.9384 90.0637 20.7589 90.0037C20.729 89.9586 20.7141 89.8835 20.6692 89.8685C19.0538 89.478 18.4107 87.9161 17.2291 87.03C17.1543 86.9699 17.1244 86.8798 17.0645 86.8047C16.541 86.1139 16.0774 85.378 15.4791 84.7472C14.9855 84.2215 14.4919 83.6959 14.0283 83.1402C13.774 82.8398 13.5347 82.4493 13.2056 82.2541C12.5625 81.8786 12.1437 81.2929 11.8445 80.6922C11.5155 80.0013 10.992 79.5057 10.4535 79.1152C9.73558 78.5896 9.39157 77.8236 8.89798 77.1628C8.49414 76.6071 8.195 75.9764 7.82107 75.4057C7.05826 74.2042 6.48989 72.8976 7.04331 71.4107C7.08818 71.2906 7.17792 71.1554 7.07322 71.0202C6.84886 70.7649 6.95356 70.5246 7.13305 70.2994C7.32749 70.044 7.28262 69.8338 7.07322 69.6085C6.80399 69.3081 6.66938 68.9627 6.62451 68.5572C6.56468 67.8664 6.13092 67.2957 5.83178 66.74C5.32324 65.7638 4.8147 64.8176 4.75487 63.7212C4.69505 62.7901 4.45573 61.874 4.59035 60.9278C4.59035 60.8978 4.56043 60.8677 4.53052 60.8227C4.56043 60.7476 4.57539 60.6725 4.6053 60.5974C4.78479 60.4772 5.06897 60.5073 5.09889 60.2219C5.24846 59.1406 6.20571 59.0054 6.95356 58.7501C7.20783 58.66 7.17792 58.3747 7.47706 58.3747C8.26979 58.3897 8.94285 57.879 9.75054 57.804C10.0347 57.7739 10.3488 57.4135 10.7078 57.4585C11.3509 57.5186 11.8744 57.1131 12.5026 57.038C13.3552 56.9329 14.1928 56.5574 15.0603 56.4673C15.6735 56.3922 16.2419 56.242 16.8103 56.0768C17.3786 55.8966 17.6927 55.4911 17.7077 54.9054C17.7974 52.0519 17.8872 49.1833 17.947 46.3298C18.0068 43.0107 18.1265 39.7066 18.4107 36.4026C18.5154 35.171 18.5902 33.9395 18.7397 32.708C18.7996 32.2725 18.8893 31.6867 19.4278 31.5666C20.3701 31.3563 21.3273 31.086 22.3145 31.101C22.6136 31.101 22.7034 30.9659 22.7333 30.6805C22.8679 29.3138 23.0324 29.1787 24.3337 29.1787C24.558 29.1787 24.8273 29.2387 24.8721 28.8933C24.9619 28.0222 25.3956 27.2413 25.62 26.4152C25.979 25.0936 27.2952 24.7932 28.2524 25.0035C29.9875 25.394 31.6926 25.9797 33.4126 26.4603C34.4596 26.7607 35.5365 26.986 36.5835 27.2863C37.3912 27.5266 38.2138 27.6317 39.0215 27.827C40.607 28.2175 42.1326 28.7581 43.733 29.0885C46.2907 29.6142 48.8184 30.3351 51.4509 30.4252C51.5855 30.4252 51.735 30.4552 51.8547 30.5153C53.141 31.1461 54.4423 30.8157 55.6987 30.5153C57.0298 30.1849 58.1965 29.494 59.3332 28.7281C60.0661 28.2175 60.9037 27.857 61.6067 27.3314C62.2499 26.8658 62.9229 26.4453 63.5212 25.9046C64.284 25.2138 65.1814 24.6881 66.0041 24.0874C68.7113 22.135 71.3288 20.0474 74.051 18.11C74.9334 17.4792 75.8757 16.9235 76.7133 16.2327C78.8821 14.4605 81.1855 12.8685 83.5338 11.3367C83.8628 11.1264 84.147 10.811 84.506 10.7059C85.4034 10.4355 86.2859 10.1502 87.2282 10.0601C88.3051 9.96997 89.1128 10.4656 89.741 11.2165C90.7879 12.4781 91.2367 14.04 91.805 15.5418C92.0144 16.1125 91.8649 16.8034 92.1042 17.284C92.5828 18.2902 92.4033 19.4016 92.7922 20.4229C93.0315 21.0536 92.9567 21.8947 93.1063 22.6306C93.3157 23.787 93.7495 24.8834 93.8392 26.0698C93.899 26.7757 93.914 27.4966 94.0037 28.2025C94.0935 28.9233 94.2879 29.6442 94.243 30.3801C94.1982 31.056 94.1982 31.7168 94.3029 32.3926C94.3776 32.8732 94.5422 33.3238 94.587 33.8194C94.6469 34.5853 94.5272 35.3813 94.6618 36.1322C94.961 37.7392 95.0058 39.3612 95.1405 40.9682C95.2152 41.9444 95.2152 42.9356 95.3199 43.9118C95.3947 44.5426 95.0806 45.2034 95.4097 45.8342L95.4546 45.7741ZM62.9827 49.5588C63.1024 49.0632 62.908 48.5826 62.8631 48.087C62.8481 47.7866 62.9229 47.4412 62.8182 47.1708C62.4443 46.2397 62.5191 45.2635 62.5789 44.3023C62.6238 43.5364 62.4742 42.7854 62.5789 42.0195C62.5789 41.9294 62.5789 41.8092 62.534 41.7341C62.0105 40.9081 62.4892 39.9469 62.0853 39.0458C61.8909 38.5953 61.8161 37.9194 61.8759 37.3037C61.9358 36.778 61.7413 36.2374 61.6665 35.6967C61.6217 35.4414 61.4721 35.2461 61.2477 35.1861C60.9935 35.111 60.814 35.3212 60.7093 35.5465C60.3952 36.2223 60.111 36.9282 60.0661 37.6791C59.9913 38.8506 60.3503 39.977 60.44 41.1334C60.5148 42.0645 60.6345 43.0107 60.7392 43.9569C60.8738 45.1884 60.7242 46.4199 60.9486 47.6815C61.2627 49.4386 61.0832 51.2559 61.3225 52.998C61.4571 53.9892 60.9785 55.0105 61.5469 55.9417C61.5768 56.0017 61.5319 56.0918 61.5469 56.1669C61.6815 56.993 61.4123 57.834 61.6815 58.645C61.861 59.1857 61.5319 59.7263 61.6815 60.2369C61.8161 60.6875 61.8909 61.1681 61.861 61.5886C61.7862 62.5949 62.0405 63.5711 61.9507 64.5623C61.9208 64.8176 61.9956 65.163 62.3246 65.178C62.6836 65.2081 63.1323 65.2682 63.3118 64.8777C63.611 64.2018 63.955 63.511 63.6857 62.715C63.6259 62.5198 63.6558 62.3095 63.6409 62.0992C63.596 61.3183 63.6558 60.5223 63.611 59.7413C63.5511 58.8102 63.0725 57.9842 63.1174 57.038C63.1622 56.1369 62.534 55.2208 63.252 54.3497C63.2819 54.3197 63.2669 54.2295 63.252 54.1845C62.893 53.4636 63.3118 52.6977 63.0874 51.9017C62.8781 51.1808 63.0127 50.3097 62.9827 49.4987C63.0276 49.4987 63.0874 49.5738 63.1174 49.4837H63.0874C63.0874 49.4837 63.0276 49.4837 62.9977 49.5137L62.9827 49.5588ZM51.8547 34.0747C51.2115 33.9395 50.5833 33.7743 49.9402 33.6842C49.0727 33.5641 48.1902 33.5941 47.3077 33.3838C46.5898 33.2186 45.8569 33.0835 45.139 33.0835C44.0172 33.0835 42.9552 32.738 41.8335 32.708C41.1305 32.678 40.3826 32.5578 39.6497 32.4076C38.498 32.1824 37.3015 32.1223 36.1348 32.0021C35.2075 31.912 34.2203 31.8069 33.278 31.5816C32.3955 31.3714 31.4383 31.4314 30.511 31.2812C28.8507 31.0259 27.1755 30.9058 25.5153 30.7256C25.3059 30.7105 25.261 30.7256 25.1713 30.9508C24.7824 31.9721 24.9619 33.0835 24.5879 34.1047C24.4533 34.4652 24.3935 34.8557 24.3187 35.2311C24.2589 35.5315 24.4384 35.7417 24.6926 35.6366C25.4106 35.3513 26.1734 35.4564 26.8913 35.3062C27.7589 35.126 28.6413 35.141 29.5088 35.111C30.4212 35.0809 31.3336 35.3513 32.2759 35.2311C34.0109 35.0058 35.7609 35.2311 37.4959 35.126C38.1091 35.0809 38.7224 35.0809 39.3207 34.9758C40.6668 34.7205 42.0129 34.6454 43.374 34.4952C43.748 34.4502 44.077 34.2699 44.4809 34.285C44.8099 34.285 45.1539 34.315 45.4979 34.285C46.9936 34.1798 48.5043 34.345 50 34.1348C50.6133 34.0447 51.2564 34.4351 51.8547 34.0447C52.1987 34.0447 52.5278 34.1798 52.9914 34.0146C52.5278 33.8945 52.1837 33.8795 51.8696 34.0747H51.8547ZM40.936 59.0655C40.936 59.0655 41.0108 59.0655 41.0407 59.0505V59.0054C41.0407 59.0054 40.9659 59.0655 40.9211 59.0955C41.0706 59.0505 41.0856 58.9454 41.0407 58.8252C40.8463 58.1944 40.3677 57.7439 40.0386 57.2332C39.7245 56.7376 39.7694 55.9417 39.3057 55.401C39.1262 55.1907 38.7523 55.1006 38.6326 54.8603C38.4232 54.4248 38.0344 54.3947 37.7053 54.4548C37.2117 54.5449 36.7032 54.5299 36.2096 54.575C35.7908 54.62 35.357 54.7101 34.9382 54.7852C34.2652 54.8904 33.637 55.386 32.9041 55.1006C32.8443 55.0706 32.7545 55.1156 32.6797 55.1156C31.9917 55.0556 31.3934 55.4761 30.6904 55.4911C30.3016 55.4911 29.8828 55.5061 29.4789 55.6413C28.5516 55.9417 27.6542 56.4072 26.6221 56.4222C26.1285 56.4222 25.605 56.5574 25.1114 56.6776C24.6029 56.8127 24.1093 56.9479 23.6008 56.9179C23.2568 56.9028 22.9427 56.9329 22.5987 57.0831C22.2098 57.2483 21.7461 57.3985 21.3423 57.3534C20.9085 57.3083 20.5495 57.3534 20.1607 57.5036C19.9662 57.5787 19.7419 57.6538 19.5474 57.6538C18.1714 57.5937 16.9299 58.2094 15.6137 58.3747C14.9107 58.4648 14.2975 58.8703 13.5646 58.8552C12.4877 58.8402 11.5155 59.3208 10.5133 59.6212C9.90011 59.8014 9.28687 60.0717 8.64371 60.252C8.01552 60.4172 7.26766 60.6425 7.31253 61.5736C7.31253 61.6337 7.28262 61.6937 7.23775 61.7238C6.84886 62.2344 6.99843 62.8201 7.14801 63.3308C7.37236 64.0667 7.79116 64.7425 7.97064 65.4784C8.15013 66.2293 8.64371 66.9052 8.56893 67.7462C8.55397 67.9865 8.77833 68.4971 9.00268 68.4371C9.27191 68.362 9.94498 68.4821 9.75054 67.7762C9.72062 67.6711 9.84028 67.611 9.93002 67.7162C10.0646 67.8664 10.1843 67.7462 10.289 67.6861C11.1415 67.2506 11.9941 66.8301 12.9065 66.5297C13.3552 66.3795 13.7291 66.0041 14.118 65.9139C14.821 65.7487 15.4791 65.4934 16.1073 65.2081C17.8872 64.4121 19.6521 63.5861 21.4769 62.8502C22.2397 62.5348 23.0175 62.1593 23.7803 61.8289C24.6029 61.4835 25.4106 61.063 26.2482 60.7476C27.4148 60.297 28.5516 59.7564 29.7033 59.2307C29.9875 59.0955 30.3464 59.0805 30.5857 58.8402C30.9746 58.4497 31.5131 58.3747 31.9917 58.2545C32.6947 58.0743 33.3378 57.7739 33.981 57.5036C34.7139 57.1882 35.4468 56.9329 36.2246 56.9629C36.8827 56.993 37.5557 56.993 38.169 57.2032C39.2309 57.5637 40.4574 57.7589 40.8762 59.0805L40.936 59.0655ZM37.8698 58.8252C37.5109 58.5999 37.0921 58.675 36.7181 58.8102C36.1348 59.0205 35.6113 59.3809 35.028 59.5461C33.6071 59.9666 32.3656 60.8077 30.9597 61.2432C30.1221 61.4985 29.434 62.0842 28.6413 62.3546C27.8486 62.6249 27.1307 63.0154 26.3678 63.3157C25.3059 63.7363 24.2888 64.307 23.182 64.6674C22.0004 65.0429 20.9235 65.6286 19.7867 66.1242C18.7696 66.5597 17.8573 67.2506 16.7056 67.4008C16.4663 67.4308 16.2269 67.566 16.0175 67.7012C15.4193 68.0766 14.821 68.4521 14.103 68.5422C13.8637 68.5722 13.5347 68.5872 13.3851 68.7374C12.6373 69.4884 11.3958 69.4133 10.7676 70.3294C10.1095 70.2543 10.0945 70.9452 9.73558 71.2155C9.48131 71.3957 9.42148 71.7712 9.51122 72.1316C9.60096 72.462 9.66079 72.8225 9.76549 73.1529C9.98985 73.7987 10.1394 74.4745 10.5732 75.0452C11.0518 75.646 11.4257 76.3218 11.8445 76.9676C12.5326 78.0039 13.3402 78.905 14.1928 79.7911C14.6565 80.2717 15.1052 80.7372 15.4791 81.3079C15.8829 81.9387 16.4513 82.4644 16.9299 83.0351C17.4086 83.5907 17.9021 84.1464 18.4107 84.6871C19.0389 85.3479 19.4128 86.219 20.1906 86.7446C20.2803 86.8047 20.3102 86.8498 20.3252 86.9549C20.385 87.2553 20.5795 87.4054 20.8786 87.4355C21.2376 87.4655 21.447 87.7058 21.432 88.0512C21.4021 88.5168 21.6564 88.4267 21.9705 88.4718C22.5837 88.5469 23.0623 88.1864 23.5709 88.0212C24.2589 87.7959 25.0067 87.5106 25.5602 86.9399C25.8892 86.5945 26.4127 86.6245 26.8016 86.3542C27.6542 85.7384 28.5964 85.2428 29.5387 84.8073C30.4661 84.3867 31.3485 83.9512 32.1861 83.3805C32.7096 83.0351 33.4126 83.02 33.8165 82.4644C33.8314 82.4343 33.9361 82.4944 33.981 82.4644C34.5045 82.179 34.9682 81.7435 35.6412 81.8186C35.6711 81.8186 35.716 81.7285 35.7609 81.6984C36.3592 81.3079 36.9126 80.7823 37.5707 80.572C39.0066 80.1065 40.1283 79.0702 41.4894 78.4844C42.1476 78.1991 42.7608 77.7786 43.389 77.4332C43.5984 77.328 43.8527 77.4332 44.0321 77.2379C44.6005 76.6672 45.2437 76.2617 46.0214 76.0665C46.3505 75.9764 46.6496 75.7661 46.9637 75.6009C47.4872 75.3456 47.8013 74.6848 48.5193 74.8199C48.5641 74.8199 48.7137 74.6697 48.6987 74.6097C48.609 74.2793 48.8932 74.099 49.0128 73.8587C49.2372 73.3932 49.1175 72.9877 48.8483 72.6272C48.5043 72.1466 48.3547 71.5759 48.0706 71.0653C47.7415 70.4495 47.4274 69.8488 46.9936 69.3081C46.3355 68.4821 45.4531 67.8513 45.0193 66.8751C44.7501 66.2894 44.4509 65.7187 43.9723 65.2982C43.1347 64.5623 42.5364 63.6462 41.8035 62.8201C41.4147 62.3846 41.2352 61.7538 40.7865 61.4234C39.9937 60.8227 39.4254 60.0117 38.6925 59.3809C38.4382 59.1556 38.2438 58.9003 37.8549 58.8703L37.8698 58.8252ZM68.2476 61.8289C68.5917 62.1593 69.0254 62.0242 69.4293 61.8289C69.9827 61.5436 70.5211 61.2432 71.0297 60.8827C71.4933 60.5674 72.0168 60.312 72.3309 59.7864C72.5403 59.426 73.0937 59.6963 73.1685 59.5461C73.4976 58.8853 74.2006 58.8703 74.6941 58.5399C74.9335 58.3747 75.0681 58.1344 75.3522 57.9842C75.8757 57.7138 76.4591 57.4735 76.8629 57.068C77.2817 56.6625 77.9548 56.5724 78.1941 55.9116C78.2689 55.7164 78.7176 55.5061 79.0317 55.3559C80.2582 54.7252 81.3052 53.8991 82.2175 52.8478C82.2923 52.7577 82.3821 52.6226 82.5017 52.5775C83.3543 52.2771 83.9227 51.5713 84.5508 51.0006C85.2688 50.3548 86.1064 49.8742 86.8243 49.1983C87.2431 48.8079 87.632 48.3873 88.0209 47.9818C88.3799 47.6064 88.5294 47.0957 88.9333 46.7503C89.5465 46.1946 89.8157 45.3987 89.8606 44.6327C89.9504 43.206 90.0102 41.7792 90.0401 40.3524C90.0401 39.5114 89.8756 38.6704 89.9952 37.8293C90.0401 37.529 89.8456 37.2736 89.6213 37.1535C89.3521 37.0033 89.2474 37.3037 89.1128 37.4689C88.7837 37.8894 88.6491 38.37 88.6491 38.8806C88.6491 40.4425 88.7987 42.0045 88.2752 43.5213C87.8863 44.6327 87.7816 45.8492 86.8841 46.7203C86.3158 47.276 85.7474 47.8467 85.1043 48.2672C84.4611 48.6727 84.147 49.4236 83.3692 49.694C82.9654 49.8291 82.6812 50.2496 82.2923 50.5049C80.7966 51.4661 79.4954 52.7127 78.0296 53.7189C77.3266 54.1995 76.6535 54.7552 76.0253 55.2808C74.9185 56.227 73.692 57.023 72.5403 57.8941C71.7027 58.5248 70.8502 59.2157 69.8181 59.6062C68.6515 60.0567 67.7989 59.5611 67.6942 58.5849C67.5447 57.3384 67.2455 56.1069 67.2904 54.8303C67.3353 53.7039 66.9015 52.6376 66.8716 51.5262C66.8566 50.8804 66.722 50.2647 66.5575 49.6339C66.4677 49.3035 66.2135 49.2134 65.9592 49.1533C65.6601 49.0782 65.675 49.3786 65.5703 49.5588C65.4806 49.739 65.4507 49.9192 65.4208 50.1145C65.2712 51.376 65.6451 52.5925 65.8246 53.809C65.9891 54.9054 66.2434 56.0017 66.393 57.0981C66.5126 58.0893 66.5575 59.0955 66.7669 60.0717C66.9314 60.8677 67.2455 61.6487 68.2925 61.8139L68.2476 61.8289ZM89.4268 31.1611C89.8606 30.5003 89.5315 29.6142 89.4717 28.7431C89.4418 28.3076 89.6363 27.9321 89.5914 27.5116C89.4867 26.6706 89.2773 25.8596 89.1277 25.0335C88.9931 24.3127 88.664 23.6218 88.5294 22.9009C88.3799 22.0899 87.8115 21.4591 87.7666 20.6031C87.7367 20.0324 87.3329 19.5368 86.7645 19.2664C86.6 19.1763 86.4354 19.0862 86.3307 19.3115C86.226 19.5217 85.882 19.747 86.1662 19.9573C86.4654 20.1826 86.4803 20.4679 86.5401 20.7533C86.7346 21.6544 86.929 22.5405 87.0786 23.4416C87.4226 25.5141 88.0059 27.5567 87.632 29.6893C87.3927 31.0259 87.1534 32.3025 86.1513 33.3538C83.6833 35.937 81.2603 38.5652 78.8073 41.1785C78.5381 41.4638 78.3736 41.9294 78.0744 42.0495C77.177 42.41 76.9975 43.5514 76.0403 43.7917C76.0104 43.7917 75.9954 43.8668 75.9655 43.8818C75.4869 44.1071 75.2027 44.6327 74.6343 44.7228C73.333 44.9181 72.0168 45.2034 70.6856 44.858C70.5211 44.8129 70.3416 44.858 70.1621 44.858C69.6835 44.858 69.1899 44.9481 68.7263 44.858C67.9186 44.6928 67.066 44.8129 66.2733 44.4975C66.0041 44.3924 65.6601 44.4525 65.3609 44.4225C65.2263 44.4225 65.0917 44.3924 65.0618 44.5877C65.002 44.9781 65.3759 45.714 65.7648 45.8192C66.3182 45.9543 66.8716 46.1045 67.44 46.1796C68.2028 46.2847 68.9955 46.1346 69.7433 46.3298C70.4015 46.51 71.0596 46.465 71.6878 46.45C72.5403 46.4199 73.3929 46.2247 74.2305 46.1496C74.9185 46.0895 75.4121 45.7291 75.8757 45.3536C76.6236 44.7378 77.4014 44.1822 78.2091 43.6565C78.4484 43.5063 78.7924 43.5213 78.927 43.236C79.1663 42.7404 79.5402 42.3649 80.0488 42.1547C80.1086 42.1396 80.1983 42.1096 80.1983 42.0796C80.2432 41.5089 80.7518 41.3136 81.0958 40.9982C81.8137 40.3224 82.6513 39.7517 83.3094 39.0458C84.0423 38.2649 84.9248 37.604 85.4931 36.6729C85.6726 36.3725 86.0466 36.4326 86.2111 36.1172C86.585 35.4264 87.1384 34.8857 87.7217 34.3901C87.976 34.1648 88.2303 33.9245 88.4696 33.6992C88.7388 33.4139 89.1128 33.0234 89.0828 32.708C89.038 32.1974 89.2175 31.8069 89.4418 31.1911L89.4268 31.1611ZM21.791 43.281C21.5666 43.8818 21.9106 44.3173 22.5987 44.2572C25.1563 44.0169 27.714 44.092 30.2567 44.0019C32.8592 43.8968 35.4468 43.8517 38.0493 43.8517C40.9211 43.8517 43.7779 44.1521 46.6347 44.3624C47.6966 44.4375 48.7735 44.3924 49.8205 44.6928C50.015 44.7529 50.2393 44.6928 50.4637 44.6928C51.9295 44.7228 53.2906 44.1371 54.7264 44.0169C55.0555 43.9869 55.3995 43.7917 55.4444 43.3862C55.4743 43.1158 55.5192 42.8155 55.1752 42.6953C54.6965 42.5451 54.2329 42.3799 53.7094 42.455C52.8718 42.5902 52.0192 42.6953 51.1667 42.7404C47.8462 42.9056 44.5407 42.7254 41.2501 42.47C40.5322 42.41 39.7993 42.6953 39.0814 42.44C38.872 42.3649 38.6626 42.44 38.4532 42.44C37.6903 42.47 36.9126 42.5602 36.1647 42.44C35.6113 42.3499 35.028 42.2748 34.5194 42.3799C33.2331 42.6352 31.9618 42.47 30.6755 42.5151C30.2567 42.5301 29.8379 42.425 29.4041 42.425C28.8507 42.425 28.3272 42.5902 27.7589 42.5602C27.011 42.5151 26.2332 42.5301 25.5153 42.6202C24.6627 42.7404 23.8551 42.7404 23.0175 42.5752C22.3294 42.44 22.0004 42.6803 21.7611 43.2961L21.791 43.281ZM50 49.3185C49.2821 49.3185 48.4594 49.1533 47.7265 49.2885C46.9637 49.4086 46.3206 49.3185 45.6325 49.1082C45.3035 49.0031 44.9445 48.883 44.6155 48.9731C43.9873 49.1383 43.374 49.0181 42.7907 48.8829C41.3399 48.5525 39.8741 48.6276 38.4232 48.7027C37.3314 48.7628 36.2395 48.7027 35.1476 48.6877C33.8165 48.6727 32.5002 48.7478 31.1691 48.8079C29.8828 48.8679 28.5815 49.1533 27.2952 48.9881C26.4277 48.8829 25.62 49.1833 24.7674 49.1983C23.9747 49.1983 23.182 49.3485 22.4192 49.5738C22.0303 49.694 21.776 49.9192 21.8807 50.3397C21.9854 50.7753 22.3294 50.9705 22.7632 50.8203C23.0175 50.7302 23.2418 50.7452 23.4961 50.7903C23.8251 50.8504 24.1692 50.9104 24.4833 50.8504C25.6798 50.6101 26.8913 50.6251 28.0879 50.535C28.2674 50.535 28.3571 50.3848 28.5516 50.3998C30.0323 50.52 31.5131 50.6852 33.0088 50.4599C33.996 50.3097 35.028 50.4899 36.0451 50.4599C37.2865 50.4449 38.5429 50.3548 39.7993 50.565C40.3826 50.6551 41.0108 50.6251 41.639 50.565C42.7757 50.4449 43.9274 50.4148 45.0791 50.52C45.9167 50.5951 46.7693 50.55 47.6218 50.6251C48.3099 50.6852 49.0128 50.58 49.7009 50.6251C50.5235 50.6852 51.3162 51.1357 52.1538 50.7302C52.2286 50.6852 52.3483 50.7302 52.438 50.7302C52.9615 50.8203 53.485 50.7152 54.0085 50.7152C54.3226 50.7152 54.5918 50.565 54.6367 50.2196C54.6816 49.8892 54.4871 49.6639 54.2179 49.5137C54.0085 49.3936 53.7692 49.4086 53.5299 49.4386C52.4679 49.5438 51.391 49.1833 50.3291 49.4837C50.2094 49.5137 50.1047 49.4837 49.9701 49.3185H50ZM85.2239 15.5268C85.3735 15.2114 85.3286 14.9862 85.1342 14.821C84.85 14.5807 84.5508 14.6708 84.2667 14.821C83.0252 15.5118 81.8586 16.2928 80.7218 17.1638C78.3138 18.9961 76.0253 20.9936 73.4677 22.6306C72.3459 23.3515 71.3288 24.2075 70.2818 25.0185C69.8929 25.3189 69.519 25.5442 69.1002 25.7845C68.7263 25.9947 68.2327 25.9797 67.9784 26.3251C67.4549 27.016 66.3331 26.9559 66.0639 27.9471C65.331 28.1424 64.7178 28.5479 64.1045 28.9834C63.6558 29.3138 63.1024 29.5541 62.6836 29.9296C62.3246 30.26 62.0255 30.6204 61.487 30.6655C61.143 30.6955 60.8289 30.8157 60.5298 31.0109C60.0512 31.3413 59.8717 32.0772 59.1089 32.0472C59.0341 32.0472 58.9743 32.3175 59.079 32.3325C59.6174 32.4076 59.9465 33.1586 60.5597 32.8732C60.9037 32.723 61.3375 33.0534 61.5469 32.678C61.7862 32.2575 62.3546 32.2424 62.534 31.7919C63.4016 31.882 63.7007 30.8307 64.5233 30.8157C64.7477 30.8157 64.7028 30.3801 64.9571 30.3201C65.6301 30.1549 66.1686 29.7043 66.7818 29.419C67.0212 29.3138 67.0212 28.9233 67.3652 28.9233C67.769 28.9233 68.0682 28.683 68.2626 28.3677C68.3972 28.1424 68.6365 27.9471 68.801 27.9171C69.6835 27.7819 70.1322 27.1211 70.6856 26.5654C70.7604 26.4753 70.7754 26.2651 70.9698 26.3402C71.598 26.5654 71.7177 25.8896 72.0916 25.6793C72.2561 25.5892 72.3309 25.3039 72.4954 25.2138C73.2732 24.7482 74.036 24.2826 74.7689 23.742C74.9334 23.6218 75.0681 23.4115 75.2476 23.3365C75.9954 23.0361 76.5488 22.4203 77.1321 21.9397C77.8351 21.369 78.5381 20.7683 79.286 20.2577C81.2753 18.891 83.0402 17.254 84.9547 15.7972C85.0743 15.707 85.1641 15.5569 85.209 15.5118L85.2239 15.5268ZM44.9445 31.1761C43.9723 30.6505 43.03 30.5303 42.1625 30.275C40.3078 29.7193 38.4083 29.3589 36.5237 28.9083C35.4169 28.638 34.3549 28.2175 33.2182 28.0523C32.934 28.0072 32.6498 28.0222 32.3656 27.8871C31.1391 27.3164 29.808 27.0761 28.5067 26.7156C28.1926 26.6405 27.9982 26.7907 27.9234 27.031C27.7289 27.6318 27.5644 28.2475 27.3849 28.8633C27.355 28.9834 27.3251 29.1937 27.5195 29.1636C28.0131 29.1036 28.4319 29.3889 28.9105 29.4039C30.0473 29.464 31.1691 29.6442 32.2908 29.7494C33.0088 29.8245 33.7417 29.7494 34.4596 29.8995C35.8955 30.1699 37.3463 30.3201 38.7972 30.5153C40.233 30.7105 41.6839 30.8908 43.1198 31.086C43.6582 31.1611 44.2116 31.2662 44.9146 31.1461L44.9445 31.1761ZM73.1984 38.0696C73.0339 38.5052 72.9741 38.9407 73.0189 39.3912C73.0788 40.022 73.3779 40.2773 74.0659 40.4576C74.6493 40.6077 74.8736 40.2473 75.098 39.8568C75.2775 39.5264 75.4569 39.166 75.5616 38.8055C75.8608 37.8143 75.6065 37.0183 74.9335 36.8081C74.2305 36.5828 73.5125 37.0934 73.1984 38.0696ZM45.7073 31.2963C46.2009 31.5966 46.8291 31.4314 47.3825 31.6267C46.859 31.2212 46.2458 31.3263 45.7073 31.2963ZM49.4765 31.9721C48.953 31.7018 48.3996 31.6417 47.8163 31.7018C48.3697 31.7919 48.9231 31.882 49.4765 31.9721Z" fill="#1E6E67"/>
<path fill-rule="evenodd" clip-rule="evenodd" d="M40.9211 59.0805C40.9211 59.0805 40.9809 59.0204 41.0258 58.9904V59.0355C41.0258 59.0355 40.966 59.0355 40.9211 59.0505V59.0805Z" fill="#1E6E67"/>
<path fill-rule="evenodd" clip-rule="evenodd" d="M34.3998 76.3068C34.2801 76.7123 33.9361 77.0427 33.5772 77.2079C33.1135 77.4331 32.6947 77.7335 32.2161 77.9588C31.7973 78.139 31.4233 78.4093 30.9447 78.4394C30.5259 78.4694 30.3464 78.92 30.0174 79.0852C29.5238 79.3255 29.0003 79.5057 28.5067 79.746C28.1926 79.8962 27.8636 80.0464 27.699 80.4368C27.5794 80.7222 27.2354 80.7522 26.9512 80.8123C26.0089 80.9775 25.1264 81.2328 24.3187 81.8336C23.6008 82.3742 22.7333 82.7347 21.8807 83.02C21.4918 83.1552 21.0132 83.2603 20.744 82.7797C20.5196 82.3742 20.8337 82.0588 21.0581 81.8035C21.7461 81.0076 22.5987 80.3768 23.541 79.9112C24.1841 79.5958 24.8123 79.2504 25.4704 78.965C26.5623 78.4995 27.5644 77.8687 28.6413 77.4031C29.8977 76.8474 31.0345 76.0514 32.3656 75.676C32.8443 75.5408 33.3229 75.3456 33.8314 75.3906C34.5793 75.4657 34.6541 75.5859 34.3848 76.3368L34.3998 76.3068Z" fill="#1E6E67"/>
<path fill-rule="evenodd" clip-rule="evenodd" d="M18.2611 79.2504C17.5133 79.0101 17.4983 78.95 17.977 78.3944C18.7547 77.5083 19.8466 77.0126 20.759 76.3068C21.8508 75.4657 23.197 75.1203 24.3786 74.4445C26.0837 73.4833 27.8636 72.6573 29.7631 72.1466C30.0324 72.0716 30.3913 71.8913 30.5708 72.1917C30.7653 72.5071 30.4362 72.7774 30.2118 72.9576C29.7781 73.3181 29.3742 73.7987 28.746 73.8437C28.5815 73.8437 28.5965 73.9789 28.5217 74.054C28.3721 74.2192 28.2076 74.4144 27.9982 74.5046C27.2055 74.85 26.5324 75.4207 25.7696 75.7961C25.1414 76.1115 24.5581 76.502 23.9 76.7573C23.3765 76.9526 22.8978 77.283 22.4192 77.5833C21.1927 78.3793 19.8615 78.92 18.4406 79.2504C18.3658 79.2504 18.2911 79.2504 18.2611 79.2504Z" fill="#1E6E67"/>
<path fill-rule="evenodd" clip-rule="evenodd" d="M22.15 70.4796C22.4342 70.5096 22.6286 70.5847 22.6286 70.87C22.6286 71.3056 22.4192 71.621 22.0901 71.8312C21.0731 72.492 20.0111 73.0327 18.8445 73.4382C18.2312 73.6485 17.6629 74.084 17.0496 74.3994C16.3765 74.7298 15.7334 75.1203 14.9706 74.5045C14.5518 74.1591 14.6266 73.8287 14.8808 73.5884C15.7184 72.7774 16.6009 72.0565 17.7676 71.7712C18.2911 71.636 18.7846 71.4107 19.2633 71.1704C20.056 70.7799 20.8038 70.2693 21.7611 70.3895C21.9107 70.4045 22.0602 70.4646 22.15 70.4796Z" fill="#1E6E67"/>
<path fill-rule="evenodd" clip-rule="evenodd" d="M27.5345 67.6711C28.2524 67.9414 28.3272 68.1968 27.7589 68.6323C27.0409 69.188 26.2632 69.6686 25.3657 69.9239C24.9021 70.0591 24.558 69.9239 24.4234 69.4433C24.2888 68.9927 24.4833 68.5272 24.8871 68.4521C25.5303 68.3469 25.8892 67.7612 26.5324 67.6861C26.8913 67.6411 27.2354 67.6261 27.5345 67.6711Z" fill="#1E6E67"/>
<path fill-rule="evenodd" clip-rule="evenodd" d="M36.8677 62.4747C37.0023 62.5498 37.1519 62.5949 37.3314 62.5798C37.4211 62.5798 37.5707 62.6099 37.6156 62.6699C38.0344 63.3458 38.7822 63.7062 39.1412 64.4722C39.3655 64.9528 39.8741 65.3132 40.1882 65.7638C40.6668 66.4396 41.2352 67.0554 41.6091 67.7913C41.7437 68.0616 41.8484 68.362 41.9382 68.6623C42.0129 68.8726 41.9531 69.0829 41.7736 69.218C41.4894 69.4433 41.2202 69.7286 40.9061 69.8338C40.2181 70.0741 39.6497 70.5096 39.0514 70.9001C38.2886 71.3807 37.466 71.7111 36.6284 71.9814C36.2694 72.1016 35.9404 72.0866 35.5814 71.7712C34.7737 71.0653 34.2652 70.1341 33.5921 69.3382C33.1284 68.7975 32.6947 68.2418 32.3208 67.611C32.1413 67.2957 31.9468 66.9502 31.6776 66.6949C31.3037 66.3345 31.3635 65.7788 31.0793 65.3733C31.0045 65.2681 31.1392 65.0128 31.3336 64.9077C31.887 64.6374 32.4703 64.4121 32.919 63.9916C33.1584 63.7663 33.4126 63.6461 33.7267 63.6311C34.0408 63.6161 34.2652 63.3758 34.4596 63.2106C34.9383 62.8352 35.4767 62.6549 36.0002 62.4146C36.2844 62.2795 36.5835 62.3846 36.8677 62.4597V62.4747ZM39.904 68.6173C40.0087 68.377 39.9638 68.2118 39.8741 68.0466C39.6647 67.6411 39.56 67.1905 39.1561 66.8902C38.7224 66.5447 38.5579 65.959 38.1391 65.5835C37.6604 65.148 37.1669 64.7125 36.8976 64.0817C36.778 63.7963 36.5835 63.9766 36.4639 64.0366C36.1199 64.2319 35.7908 64.4421 35.4618 64.6524C35.0579 64.8927 34.6541 65.148 34.1754 65.2681C33.9212 65.3282 33.7417 65.6736 33.4874 65.8238C33.1733 66.0041 33.1883 66.2444 33.3678 66.4246C33.7417 66.8151 33.637 67.551 34.325 67.7011C34.3699 67.7011 34.3998 67.7762 34.4297 67.8363C34.8186 68.6473 35.4618 69.2931 35.8805 70.0741C35.9703 70.2393 36.1647 70.4946 36.404 70.3444C36.6134 70.1942 36.8827 70.1942 37.0771 70.0741C37.8998 69.5334 38.872 69.3231 39.6946 68.8125C39.8143 68.7374 39.8591 68.6623 39.889 68.6173H39.904Z" fill="#A0CD64"/>
</g>
<defs>
<clipPath id="clip0_125_12950">
<rect width="90.9091" height="80.2139" fill="white" transform="translate(4.54547 10)"/>
</clipPath>
</defs>
</svg>
