<svg width="100" height="100" viewBox="0 0 100 100" fill="none" xmlns="http://www.w3.org/2000/svg">
<g clip-path="url(#clip0_125_12981)">
<path d="M22.2928 59.76C23.0485 57.4898 24.3491 55.5056 25.4387 53.4321C26.6338 51.1619 28.5847 49.428 29.4986 46.9969C29.5162 46.9433 29.5689 46.8718 29.604 46.8539C31.4143 46.1925 31.59 44.2263 32.6094 42.9392C33.1542 42.2421 33.7518 41.6343 34.3142 40.9551C35.1754 39.9004 36.0014 38.81 36.8274 37.7554C38.0401 36.2181 39.4286 34.7702 40.7291 33.3044C41.854 32.0352 43.1018 30.8912 44.3496 29.7829C45.4569 28.7998 46.5817 27.7273 48.0228 27.048C48.9719 26.6011 49.6925 25.6359 50.7646 25.2247C52.5045 24.5455 54.2445 24.3488 56.0547 24.8493C58.691 25.5822 61.3448 26.2257 63.8757 27.2804C64.6666 27.6021 65.4574 27.9775 65.9495 28.7283C66.0726 28.9071 66.2132 29.0322 66.3889 29.0501C67.5489 29.1394 68.287 30.0511 69.2361 30.5337C70.027 30.9448 70.4664 31.8029 71.3803 31.9995C71.7318 32.071 71.8372 32.5 72.0306 32.7681C73.8232 35.1813 75.862 37.38 76.9165 40.3294C79.0431 46.2998 78.5685 51.9484 74.7723 57.0072C72.1184 60.5465 68.3046 62.0838 63.9284 62.0659C63.5593 62.0659 63.2078 61.9229 62.8739 61.7441C61.4679 60.9934 60.1497 60.8861 58.7964 62.0659C57.6716 63.049 56.3183 63.7819 55.0529 64.6042C54.7014 64.8366 54.3675 65.1047 54.2269 65.4622C53.7348 66.6599 52.61 67.2498 51.6082 67.643C50.9755 67.8933 50.87 68.3223 50.5185 68.6619C49.8507 69.3233 49.1301 69.9311 48.3919 70.5031C47.2671 71.3968 46.4059 72.523 45.6678 73.7385C45.246 74.4357 44.0684 75.1149 43.2424 75.0255C43.0491 75.0077 42.8733 75.0255 42.7327 75.1685C42.3812 75.5797 41.8012 75.5082 41.5376 75.3115C40.694 74.7395 39.8152 74.8825 38.9189 74.8468C37.1965 74.7753 35.6851 73.9888 34.156 73.2738C33.1894 72.809 32.0821 72.6481 31.1682 72.094C30.1665 71.4862 29.0241 71.1645 28.1277 70.2349C27.618 69.6987 26.5987 69.502 25.8605 68.9837C24.7533 68.1793 24.0679 67.0889 23.5406 65.8555C23.0836 64.7651 23.2594 63.4423 22.2752 62.4949C21.871 62.1195 22.2225 61.2794 21.8007 60.7789V60.4035C22.117 60.2962 22.1873 60.0281 22.2752 59.76H22.2928ZM45.4744 61.19C47.2847 59.1701 49.341 57.3825 50.9931 55.2196C52.2585 53.5751 54.0336 52.3953 54.965 50.4111C55.3341 49.6604 56.3359 49.285 56.8632 48.5342C57.7068 47.3366 58.6031 46.1389 59.7104 45.1737C60.9933 44.0475 62.0654 42.7068 63.3133 41.5271C64.6138 40.2937 66.0374 39.1496 67.1095 37.6481C67.5489 37.0225 67.3731 36.1645 66.7932 35.6639C66.5822 35.4673 66.3889 35.4316 66.1429 35.5924C65.0532 36.379 63.8757 36.9688 62.9266 38.0056C62.0654 38.953 61.0636 39.8289 59.9213 40.5439C59.0952 41.0623 58.0759 41.5986 57.6892 42.7783C57.5486 43.1895 56.8456 43.404 56.4941 43.7615C55.1056 45.1915 53.8051 46.7288 52.4694 48.2303C52.5924 49.4995 51.0458 49.5531 50.7822 50.5899C50.7294 50.8223 50.0967 50.9116 49.8155 51.2155C49.0071 52.0735 48.5853 53.1461 47.9877 54.1292C47.3901 55.1124 46.7399 56.024 45.7205 56.6496C45.3163 56.8999 45.1229 57.5077 44.7714 57.883C43.7521 58.9913 43.1721 60.3498 42.4339 61.619C41.9418 62.477 41.1334 63.1384 41.2564 64.2646C43.4884 64.3539 44.3321 62.4591 45.492 61.1542L45.4744 61.19ZM28.1805 66.9637C30.3949 68.2329 32.5567 69.5736 34.9996 70.3422C35.439 70.4852 35.7905 70.8248 36.1947 71.0572C36.6517 71.3253 37.1438 71.4147 37.5832 71.0572C38.005 70.7176 38.0577 70.2528 37.9171 69.7702C37.7414 69.1267 37.548 68.501 37.3371 67.8754C37.1614 67.357 36.7923 67.0174 36.265 66.928C34.0857 66.5169 32.3458 65.2298 30.6058 63.9607C29.7446 63.335 28.7956 62.8703 27.8993 62.334C26.8975 61.7263 25.9484 62.1731 25.9484 63.2993C26.4932 64.4969 26.5987 66.0521 28.1629 66.9637H28.1805ZM47.4077 35.7533C49.6749 36.9331 51.9597 38.0771 54.4729 38.5955C55.5099 38.81 55.7559 38.5061 55.4396 37.523C55.0529 36.3075 53.9457 35.7176 52.979 35.4494C51.6082 35.0919 50.3955 34.3233 48.9895 34.0552C48.4447 33.9479 47.8998 33.8943 47.355 33.787C46.7574 33.6798 46.8277 34.2518 46.7223 34.4842C46.6871 35.1634 46.9683 35.5209 47.4077 35.7533Z" fill="#E06765"/>
<path fill-rule="evenodd" clip-rule="evenodd" d="M41.2563 64.3003C43.4884 64.3897 44.332 62.4949 45.492 61.19C47.3022 59.1701 49.3585 57.3825 51.0106 55.2196C52.276 53.5751 54.0511 52.3953 54.9826 50.4111C55.3517 49.6604 56.3534 49.285 56.8807 48.5342C57.7243 47.3366 58.6206 46.1389 59.7279 45.1736C61.0109 44.0475 62.083 42.7068 63.3308 41.5271C64.6314 40.2937 66.0549 39.1496 67.127 37.6481C67.5664 37.0225 67.3907 36.1645 66.8107 35.6639C66.5998 35.4673 66.4064 35.4316 66.1604 35.5924C65.0707 36.379 63.8932 36.9688 62.9441 38.0056C62.0829 38.953 61.0812 39.8289 59.9388 40.5439C59.1127 41.0623 58.0934 41.5986 57.7067 42.7783C57.5661 43.1895 56.8631 43.404 56.5116 43.7615C55.1232 45.1915 53.8226 46.7288 52.4869 48.2303C52.6099 49.4995 51.0633 49.5531 50.7997 50.5899C50.747 50.8223 50.1142 50.9116 49.833 51.2155C49.0246 52.0735 48.6028 53.1461 48.0052 54.1292C47.4077 55.1124 46.7574 56.024 45.738 56.6496C45.3338 56.8999 45.1405 57.5077 44.789 57.883C43.7696 58.9913 43.1896 60.3498 42.4515 61.619C41.9594 62.477 41.1509 63.1384 41.2739 64.2646L41.2563 64.3003Z" fill="#FDFEFE"/>
<path fill-rule="evenodd" clip-rule="evenodd" d="M25.9659 63.2993C26.5108 64.4969 26.6162 66.0521 28.1804 66.9637C30.3949 68.2329 32.5566 69.5735 34.9996 70.3422C35.439 70.4852 35.7905 70.8248 36.1947 71.0572C36.6517 71.3253 37.1438 71.4147 37.5831 71.0572C38.0049 70.7176 38.0577 70.2528 37.9171 69.7702C37.7413 69.1267 37.548 68.501 37.3371 67.8754C37.1613 67.357 36.7923 67.0174 36.265 66.928C34.0857 66.5169 32.3457 65.2298 30.6058 63.9607C29.7446 63.335 28.7955 62.8703 27.8992 62.334C26.8974 61.7263 25.9484 62.1731 25.9484 63.2993H25.9659Z" fill="#FDFEFE"/>
<path fill-rule="evenodd" clip-rule="evenodd" d="M46.7223 34.4842C46.6872 35.1634 46.9684 35.5209 47.4078 35.7533C49.6749 36.9331 51.9597 38.0771 54.473 38.5955C55.5099 38.81 55.756 38.5061 55.4396 37.523C55.053 36.3075 53.9457 35.7176 52.9791 35.4494C51.6082 35.0919 50.3955 34.3233 48.9895 34.0552C48.4447 33.9479 47.8999 33.8943 47.355 33.787C46.7575 33.6798 46.8278 34.2518 46.7223 34.4842Z" fill="#FDFEFE"/>
</g>
<defs>
<clipPath id="clip0_125_12981">
<rect width="56.3636" height="50.9091" fill="white" transform="translate(21.8182 24.5455)"/>
</clipPath>
</defs>
</svg>
