<svg width="802" height="402" viewBox="0 0 802 402" fill="none" xmlns="http://www.w3.org/2000/svg">
<g clip-path="url(#clip0_125_23075)">
<circle cx="121.5" cy="134.5" r="118.5" fill="white"/>
<path opacity="0.4" fill-rule="evenodd" clip-rule="evenodd" d="M111.974 64.941C112.473 66.9374 110.555 69.145 107.678 69.8744C104.801 70.6039 102.058 69.5865 101.54 67.5901C101.041 65.5937 102.959 63.3861 105.836 62.6566C108.713 61.9272 111.456 62.9446 111.974 64.941Z" fill="#E06765"/>
<path opacity="0.4" fill-rule="evenodd" clip-rule="evenodd" d="M156.127 52.3099C156.626 54.3063 154.708 56.5139 151.831 57.2433C148.954 57.9728 146.211 56.9554 145.693 54.959C145.194 52.9626 147.112 50.755 149.989 50.0255C152.866 49.2961 155.609 50.3135 156.127 52.3099Z" fill="#E06765"/>
<path fill-rule="evenodd" clip-rule="evenodd" d="M131.96 123.394C131.96 123.394 131.96 117.078 136.621 114.41C141.281 111.761 152.233 105.426 152.233 105.426L158.352 112.413H161.21L165.525 107.096L193.087 147.331L178.146 142.34C178.146 142.34 161.536 129.632 153.231 128.174C144.926 126.715 138.711 128.174 138.711 128.174L131.96 123.394Z" fill="#6BB3A9"/>
<path fill-rule="evenodd" clip-rule="evenodd" d="M183.382 237.65C183.382 237.65 190.095 210.506 188.1 204.863C186.106 199.2 188.465 200.198 188.465 200.198L219.019 204.882L202.198 223.694L183.363 237.669L183.382 237.65Z" fill="#6BB3A9"/>
<path fill-rule="evenodd" clip-rule="evenodd" d="M41.7553 223.694C41.7553 223.694 44.3638 186.185 48.9095 174.897C53.4552 163.61 71.7339 147.523 71.7339 147.523L59.6888 144.01L57.4063 140.344C57.4063 140.344 51.8057 134.355 51.3454 132.358C50.8659 130.362 51.3454 127.694 51.3454 127.694C51.3454 127.694 47.2216 126.926 47.5477 121.493C47.8738 116.061 51.3454 110.417 51.3454 110.417L53.2059 101.107L55.1622 98.4577L57.5981 92.7564C57.5981 92.7564 50.5398 79.2614 51.3646 60.4298C52.1701 41.5982 58.9407 32.6912 58.9407 32.6912C58.9407 32.6912 12.8507 58.7213 3.79767 116.329C-5.25538 179.6 41.7553 223.694 41.7553 223.694Z" fill="#6BB3A9"/>
<path fill-rule="evenodd" clip-rule="evenodd" d="M241.057 157.678L177.685 85.7882C177.685 85.7882 173.37 70.0856 166.273 62.9062C159.176 55.7268 155.187 52.9433 155.187 52.9433L147.592 24.0721L140.667 17.1422C140.667 17.1422 191.418 23.5154 219.901 64.2115C248.383 104.888 241.057 157.697 241.057 157.697V157.678Z" fill="#6BB3A9"/>
<path opacity="0.8" fill-rule="evenodd" clip-rule="evenodd" d="M42.7527 224.577C42.7527 224.577 72.8848 250.55 108.08 253.813C143.257 257.077 181.809 239.589 181.809 239.589C181.809 239.589 186.93 223.349 188.024 214.115C189.117 204.863 188.024 201.523 188.024 201.523H198.419L217.945 204.728C217.945 204.728 209.045 191.233 209.045 183.92V167.296L195.082 149.002L178.146 143.012C178.146 143.012 156.875 126.388 153.231 126.388C149.567 126.388 138.711 128.174 138.711 128.174C138.711 128.174 141.895 131.36 144.561 140.018C147.246 148.656 147.457 165.222 147.457 165.222L143.621 170.924L137.273 172.594L128.642 163.61C128.642 163.61 127.625 172.248 121.986 176.241C116.347 180.234 101.06 175.588 94.0981 165.107C87.1165 154.626 79.6554 139.883 79.6554 139.883C79.6554 139.883 56.831 159.943 51.3838 171.903C45.9366 183.881 42.7527 224.539 42.7527 224.539V224.577Z" fill="#E06765"/>
<path d="M121.986 257C54.7211 257 0 202.214 0 134.892C0 67.5709 54.7211 12.8038 121.986 12.8038C189.251 12.8038 243.972 67.5709 243.972 134.892C243.972 202.214 189.251 256.981 121.986 256.981V257ZM121.986 17.5837C57.3488 17.5645 4.75669 70.2007 4.75669 134.892C4.75669 199.584 57.3488 252.22 121.986 252.22C186.623 252.22 239.215 199.584 239.215 134.892C239.215 70.2007 186.623 17.5645 121.986 17.5645V17.5837Z" fill="#376B77"/>
<path fill-rule="evenodd" clip-rule="evenodd" d="M146.537 33.5167L139.593 14.2628L125.151 3.41687L69.2597 22.4404L55.1814 38.7381L57.3104 49.5456L146.537 33.5167Z" fill="white"/>
<path fill-rule="evenodd" clip-rule="evenodd" d="M58.96 87.4198C58.4805 83.1775 40.5279 47.3572 65.7306 23.4962C90.9334 -0.384025 115.024 0.863734 125.17 6.10432C125.17 6.10432 126.839 9.59805 118.361 11.2105C109.883 12.823 107.62 13.3221 107.62 13.3221L104.973 15.1842H98.9316C98.9316 15.1842 100.428 21.4806 91.6239 23.3042C82.8202 25.1279 84.4122 37.2599 84.4122 37.2599L83.2997 57.2816L84.4122 67.4365C84.4122 67.4365 71.5614 64.3075 73.2876 79.223C75.0139 94.1193 89.5333 91.7198 89.5333 91.7198L92.487 103.602L93.6954 122.799C93.6954 122.799 89.61 122.472 86.7905 126.369C83.971 130.266 81.2474 138.54 81.2474 138.54L71.1395 147.312L63.1797 144.99L57.464 140.325L51.403 133.261L51.3263 128.154L46.3586 119.785L48.948 112.548L53.3402 109.304V102.067L57.464 96.4613C57.464 96.4613 59.4779 91.6046 58.9792 87.3622L58.96 87.4198Z" fill="white"/>
<path fill-rule="evenodd" clip-rule="evenodd" d="M226.48 138.559C226.48 138.559 246.6 159.387 245.411 171.711C243.915 194.881 223.296 191.541 223.296 191.541L226.48 160.961V138.54V138.559Z" fill="white"/>
<path fill-rule="evenodd" clip-rule="evenodd" d="M39.2811 216.381C39.8373 216.668 40.2593 216.592 40.2784 215.901C40.4894 210.641 40.873 205.419 41.6786 200.217C42.0047 198.067 42.0814 195.86 42.3883 193.671C42.5609 192.424 43.1746 191.349 43.3089 190.101C43.6158 187.432 44.2487 184.803 44.4214 182.077C44.594 179.62 45.6105 177.258 46.7805 175.032C46.8956 174.821 47.0874 174.609 47.1258 174.379C47.6053 171.231 49.5808 168.85 51.3646 166.432C52.8223 164.435 54.2608 162.362 56.198 160.75C56.7542 160.289 57.2913 159.732 57.6749 159.137C59.9573 155.605 62.7384 152.534 65.884 149.769C66.1909 149.501 66.5361 149.232 66.4786 148.656C65.9607 148.118 65.1168 148.234 64.503 148.157C61.2616 147.811 59.2093 145.777 57.2721 143.492C56.4857 142.571 56.1788 141.477 56.1788 140.286C56.1788 139.672 55.987 138.923 56.8693 138.655C57.6365 138.405 58.538 138.386 58.9024 139.039C59.8998 140.862 61.9137 141.534 63.1988 143.031C64.6181 144.682 66.4402 144.817 68.761 144.394C72.3477 143.761 74.7261 141.419 77.5072 139.615C78.2361 139.154 78.5046 138.271 78.6964 137.503C79.9431 132.474 82.3023 128.097 85.8698 124.296C87.1548 122.933 88.4207 121.762 90.4155 121.743C91.432 121.743 91.7581 121.34 91.7389 120.226C91.6622 116.368 91.9115 112.49 91.7773 108.632C91.6622 105.1 90.7991 101.721 88.6893 98.784C87.7878 97.5363 88.3057 96.4421 89.8401 96.1925C92.0266 95.847 93.235 97.2291 94.1364 98.8224C96.4189 102.911 97.4354 107.288 97.1669 112.029C96.9751 115.619 97.5505 119.286 97.1669 122.837C96.6299 127.847 98.6821 132.032 100.734 136.178C102.346 139.442 104.398 142.571 106.738 145.335C110.229 149.443 113.93 153.455 118.534 156.411C119.78 157.218 121.008 158.043 122.312 158.734C124.499 159.886 125.151 159.559 125.803 157.218C126.666 154.089 127.376 150.94 128.047 147.773C128.853 144.01 129.332 140.248 129.409 136.428C129.447 134.508 129.025 132.665 128.718 130.784C128.431 129.037 128.507 127.348 128.929 125.64C129.102 124.929 129.37 124.181 129.313 123.47C129.121 120.764 130.694 118.633 131.576 116.291C132.439 113.968 134.722 112.797 136.87 111.78C140.054 110.263 143.334 108.92 146.556 107.499C146.863 107.365 147.227 107.269 147.419 107.058C150.814 102.969 154.688 99.2255 155.647 93.5626C155.954 91.7774 156.395 89.8769 157.431 88.2453C157.642 87.8997 157.834 87.4966 157.891 87.1127C158.601 81.7953 159.234 76.5163 157.393 71.2565C156.338 68.2427 155.321 65.1905 154.612 62.0999C154.19 60.3146 152.962 59.0093 152.579 57.1856C152.176 55.3044 151.524 53.4232 150.929 51.5419C150.104 48.8737 149.414 46.2054 148.953 43.4219C148.397 40.0626 147.17 36.8376 146.518 33.4782C146 30.7524 144.523 28.4872 143.506 26.0109C142.797 24.3024 141.607 22.7475 140.437 21.2886C138.213 18.4667 135.757 15.8368 132.631 13.9748C132.343 13.802 132.056 13.6293 131.845 13.3989C131.404 12.9382 131.288 12.3815 131.634 11.8248C131.979 11.2873 132.497 11.0762 133.13 11.2681C135.431 11.94 137.56 12.8614 139.574 14.2627C144.657 17.7949 147.496 22.9395 150.085 28.3528C152.406 33.1711 153.058 38.4309 154.247 43.5179C155.149 47.3571 155.935 51.2156 157.201 54.9589C157.45 55.7075 157.527 56.5714 158.275 57.0897C160.02 54.7285 161.574 54.5174 164.067 56.0723C167.846 58.4334 170.205 61.9079 172.027 65.8432C174.828 71.9092 177.225 78.1288 179.392 84.4252C180.064 86.3256 181.349 87.8997 182.653 89.3394C185.357 92.2957 187.851 95.4631 190.536 98.4385C192.742 100.876 194.948 103.295 197.249 105.637C200.682 109.112 204.288 112.433 207.645 115.984C210.579 119.094 213.687 122.012 216.698 125.006C219.748 128.058 222.74 131.226 226.019 134.067C228.609 136.313 230.738 139.096 233.039 141.649C233.308 141.956 233.481 142.379 233.807 142.59C236.358 144.183 237.202 147.159 239.196 149.213C239.407 149.443 239.465 149.846 239.676 150.057C242.591 152.975 244.298 156.603 245.852 160.347C246.101 160.961 246.331 161.556 246.504 162.209C247.31 165.011 247.77 167.891 247.904 170.809C247.923 171.308 248.019 171.845 247.866 172.287C246.466 176.126 246.619 180.349 244.202 184.035C242.342 186.895 240.059 188.911 237.432 190.888C234.497 193.115 231.217 194.17 227.765 194.938C226.672 195.188 226.384 195.84 226.346 196.608C226.288 198.47 225.617 200.083 224.83 201.753C223.929 203.634 222.797 205.035 220.745 205.592C220.534 205.65 220.265 205.765 220.131 205.957C218.578 207.877 216.487 207.55 214.684 206.859C210.273 205.189 205.65 204.556 201.104 203.615C199.743 203.327 198.342 203.193 197.115 202.444C196.597 202.137 196.041 202.022 195.446 202.118C194.238 202.31 193.03 202.502 191.783 202.444C190.805 202.386 190.268 202.924 190.574 204.037C191.764 208.472 191.514 213.002 191.054 217.475C190.766 220.239 189.692 222.869 188.829 225.499C188.215 227.342 188.081 229.376 186.854 231.027C186.681 231.258 186.643 231.68 186.719 231.987C187.275 234.252 185.99 236.153 185.53 238.207C185.3 239.301 184.571 239.723 183.324 239.57C179.565 239.109 179.373 239.013 180.754 235.404C181.56 233.292 181.234 231.027 182.078 228.916C182.768 227.188 183.42 225.422 183.861 223.637C184.705 220.201 185.684 216.86 185.588 213.156C185.434 206.168 183.919 199.449 182.711 192.654C182.461 191.272 182.423 189.87 182.308 188.469C182.25 187.74 182.615 187.183 183.248 186.857C183.9 186.511 184.322 186.991 184.763 187.356C185.319 187.836 185.895 188.162 186.182 188.968C187.18 191.809 188.925 194.382 189.059 197.511C189.098 198.586 189.788 198.662 190.574 198.662C193.03 198.701 195.485 198.586 197.94 198.95C198.342 199.008 198.784 198.989 199.148 199.123C203.368 200.774 207.875 201.062 212.363 202.233C212.497 201.292 212.21 200.678 211.826 200.044C209.122 195.572 207.491 190.811 206.916 185.513C206.552 182.192 206.398 178.871 206.206 175.569C206.149 174.897 206.264 174.283 206.321 173.63C206.552 170.194 206.782 166.816 203.886 164.071C202.006 162.266 200.414 160.155 198.937 157.947C198.093 156.699 196.942 155.586 195.983 154.338C195.638 153.877 195.178 153.436 195.005 152.918C194.238 150.556 192.627 149.462 190.191 149.002C186.067 148.214 182.289 146.295 178.28 145.085C177.973 144.99 177.628 144.874 177.398 144.663C172.737 139.998 166.772 137.061 161.689 132.934C158.102 130.016 153.576 128.596 148.992 128.02C146.92 127.751 144.753 128.193 142.662 128.673C141.512 128.941 141.416 129.498 142.01 130.439C143.084 132.109 144.082 133.798 144.695 135.698C146.594 141.669 148.148 147.639 148.205 153.993C148.244 157.793 147.592 161.498 147.4 165.261C147.285 167.392 146.172 169.33 145.213 171.173C144.676 172.229 143.391 173.189 142.106 173.458C139.459 174.033 136.832 174.341 134.3 172.575C132.305 171.154 130.905 169.292 129.409 167.2C128.642 168.85 128.162 170.405 127.51 171.864C125.86 175.531 123.156 177.854 119.512 179.332C117.728 180.042 115.925 179.716 114.141 179.696C111.073 179.696 108.311 178.602 105.434 177.546C102.269 176.395 99.9097 174.187 97.0902 172.594C96.323 172.152 96.112 171.288 95.575 170.674C94.0214 168.87 91.9691 167.545 90.5881 165.568C88.9961 163.303 87.1548 161.23 85.8698 158.734C84.1819 155.49 82.8009 152.188 81.8036 148.675C81.4391 147.37 80.8062 146.141 80.5569 144.74C80.3267 143.492 79.6362 143.358 78.658 144.26C74.2274 148.368 69.6625 152.322 65.6538 156.91C61.5876 161.575 57.9434 166.566 53.8197 171.154C53.0141 172.037 52.9565 173.093 52.5921 174.072C51.0002 178.545 49.6959 183.094 48.852 187.797C48.3341 190.677 48.4492 193.69 47.2984 196.455C47.049 197.05 46.9915 197.76 46.9915 198.413C46.9915 203.749 46.0133 208.99 45.4763 214.269C45.2461 216.611 44.7858 218.991 45.1118 221.391C45.1502 221.621 45.1118 221.89 45.0927 222.12C44.9968 223.157 44.594 224.155 43.635 224.558C42.5225 225.019 41.8704 223.982 41.1991 223.291C40.662 222.754 40.3552 222.082 40.0675 221.391C39.914 221.026 39.7798 220.584 39.2043 220.834V220.335C40.2976 219.817 40.2976 219.509 39.2043 218.358V216.381H39.2811ZM159.215 57.7039C159.042 57.4736 158.87 57.1089 158.524 57.3776C158.16 57.6464 158.467 57.9151 158.601 58.1647C158.966 59.4316 159.234 60.7178 159.733 61.9271C160.711 64.3651 161.325 66.9182 162.341 69.3753C163.166 71.3525 163.473 73.3489 165.41 74.8654C167.654 76.5931 168.863 79.3574 170.512 81.6801C171.164 82.6015 172.161 83.235 172.564 84.406C173.101 85.9417 173.638 87.4582 174.08 89.0323C174.789 91.4702 174.156 93.4858 173.408 95.655C172.296 98.8992 171.107 102.086 169.495 105.119C168.652 106.712 168.786 106.923 170.282 107.941C172.2 109.246 173.562 110.897 174.31 113.085C174.444 113.469 174.578 113.93 174.866 114.16C176.535 115.581 177.302 117.654 178.587 119.362C180.332 121.647 181.963 124.027 183.459 126.484C184.725 128.557 185.837 130.707 187.295 132.685C188.215 133.913 189.443 135.007 190.018 136.447C190.824 138.463 192.147 140.171 193.317 141.899C195.542 145.22 197.863 148.502 200.126 151.785C202.313 154.952 204.634 158.081 207.223 160.922C210.522 164.551 214.128 167.891 217.619 171.346C218.271 171.999 218.865 172.651 219.23 173.515C219.863 175.07 219.287 175.857 217.58 175.761C217.043 175.723 216.698 175.339 216.257 175.147C214.684 174.437 213.725 172.882 212.075 172.095C211.711 172.632 211.711 173.074 211.711 173.573C211.749 174.974 211.884 176.395 211.711 177.777C211.251 181.578 211.788 185.283 212.689 188.93C213.15 190.811 213.859 191.349 215.835 191.329C216.66 191.329 217.465 191.329 218.29 191.464C221.493 192.001 224.639 191.272 227.803 191.022C230.431 190.811 232.291 188.853 234.44 187.567C235.936 186.665 237.393 185.59 238.256 184.131C239.637 181.846 240.616 179.351 241.364 176.74C243.09 170.617 242.764 164.781 239.676 159.195C239.139 158.235 239.388 157.16 238.64 156.239C235.61 152.399 232.771 148.445 229.568 144.74C227.381 142.206 225.233 139.634 222.778 137.349C221.474 136.159 220.285 134.854 218.961 133.664C215.144 130.247 211.692 126.407 208.028 122.818C207.069 121.896 206.494 120.61 205.401 119.9C202.6 118.115 200.759 115.35 198.247 113.258C195.772 111.204 193.873 108.382 191.438 106.175C190.651 105.445 189.731 104.812 189.117 103.948C187.103 101.107 184.571 98.7072 182.461 95.9238C180.908 93.8698 179.047 91.9693 177.34 89.9921C175.288 87.6502 173.351 85.2698 173.715 81.8145C173.811 80.7779 173.389 79.7605 172.948 78.7623C171.452 75.3069 169.553 72.0436 168.287 68.4923C167.961 67.59 167.366 66.7262 166.714 65.9967C165.985 65.1905 165.525 64.2307 165.007 63.3093C163.626 60.8521 161.9 58.7022 159.157 57.6464L159.215 57.7039ZM91.0676 126.734C88.6125 128.001 87.7494 130.324 86.6178 132.378C85.3327 134.681 83.5106 136.927 84.4504 139.922C84.6998 140.709 84.8149 141.534 85.0834 142.302C86.1575 145.412 87.2699 148.502 88.3248 151.612C89.9552 156.392 92.4102 160.75 95.8051 164.397C98.7205 167.526 101.31 171.212 105.606 172.786C106.373 174.302 108.1 174.129 109.308 174.897C112.53 176.971 115.848 176.567 119.147 175.032C119.8 174.725 120.471 174.341 120.854 173.65C122.063 171.442 123.521 169.35 123.559 166.681C123.559 166.259 123.674 165.913 123.847 165.53C124.499 164.032 124.384 163.821 122.907 163.226C122.063 162.88 121.161 162.823 120.317 162.439C115.273 160.193 111.245 156.584 107.237 152.937C106.028 151.823 104.57 150.998 103.611 149.597C101.981 147.235 100.197 144.97 98.6246 142.571C96.2846 138.943 94.2132 135.142 93.2733 130.842C93.1391 130.228 92.7938 129.536 92.3335 129.133C91.5088 128.423 91.3745 127.463 91.0676 126.715V126.734ZM189.443 145.009C186.949 140.766 184.437 136.869 181.828 133.049C181.406 132.435 180.601 132.147 180.409 131.399C179.776 128.884 177.896 127.06 176.65 124.91C175.288 122.53 173.562 120.265 172.104 117.904C171.605 117.116 170.589 116.733 170.493 115.811C170.224 113.008 167.366 112.26 166.388 109.86C166.12 110.283 166.062 110.359 166.043 110.417C163.78 115.024 156.779 116.445 153.768 111.55C153.173 110.59 152.444 109.688 151.389 109.073C151.006 109.764 150.622 110.359 149.893 110.667C148.455 111.242 147.035 111.914 145.559 112.413C143.295 113.181 141.032 114.007 139.133 115.389C136.64 117.232 135.278 119.919 134.722 122.895C135.067 123.547 135.719 123.278 136.084 123.566C136.525 123.931 136.947 124.334 137.311 124.776C138.078 125.755 138.961 125.755 140.15 125.524C145.904 124.411 151.639 124.142 157.297 126.235C160.462 127.406 163.396 128.922 166.043 130.976C168.939 133.241 172.2 134.969 175.115 137.177C176.535 138.252 177.839 139.423 179.565 139.979C179.699 140.018 179.776 140.229 179.891 140.325C180.831 141.15 181.886 141.765 183.094 142.129C185.223 142.763 187.084 143.991 189.462 144.989L189.443 145.009ZM133.878 127.924C133.782 129.632 133.053 131.034 134.05 132.569C134.453 133.184 134.319 134.182 134.338 134.988C134.434 139.077 133.533 143.127 133.782 147.216C133.82 147.85 133.744 148.56 133.513 149.155C132.113 152.476 131.749 156.085 130.713 159.502C130.329 160.75 130.79 161.997 131.557 162.669C133.705 164.57 134.856 167.276 137.004 169.158C137.58 169.657 138.136 170.482 138.807 170.156C139.67 169.734 140.859 169.465 141.09 168.179C141.262 167.123 141.473 166.067 141.799 165.069C143.123 161.114 143.142 156.987 142.931 152.937C142.701 148.79 141.78 144.702 141.185 140.574C141.147 140.421 141.147 140.248 141.07 140.094C139.9 137.503 139.172 134.719 137.695 132.262C136.736 130.688 135.738 129.114 133.897 127.924H133.878ZM155.168 105.771C156.568 106.75 157.201 108.305 158.102 109.668C158.87 110.82 159.579 110.858 160.462 109.86C160.673 109.63 160.788 109.304 160.96 109.016C162.265 106.827 163.665 104.716 164.835 102.47C167.079 98.1889 169.054 93.889 168.556 88.7444C168.249 85.4426 166.139 83.7533 164.298 81.6225C163.703 82.16 163.684 82.5631 163.703 82.9855C163.837 85.1163 163.53 87.2278 162.744 89.1859C161.823 91.4894 161.114 93.8122 160.519 96.2117C160.404 96.6724 160.366 97.1523 160.155 97.613C158.831 100.531 157.067 103.161 155.149 105.791L155.168 105.771ZM214.55 194.574C215.701 196.992 216.449 198.989 217.638 200.736C218.347 201.772 218.923 201.791 219.709 200.832C220.591 199.776 220.687 198.413 221.148 197.184C221.685 195.725 221.301 195.226 219.767 195.149C218.156 195.073 216.544 195.111 214.55 194.574Z" fill="#1E6E67"/>
<path fill-rule="evenodd" clip-rule="evenodd" d="M107.045 -5.95637e-05C108.119 1.05574 109.557 0.691007 110.747 0.614222C112.588 0.51824 114.352 0.671811 116.117 1.05574C119.684 1.84278 123.348 2.2651 126.647 4.12714C127.913 4.83741 128.853 5.81642 129.812 6.79543C130.675 7.67846 130.253 8.44631 129.275 9.40612C126.82 11.7673 123.655 12.0936 120.605 12.8998C117.709 13.6485 114.794 13.9556 111.84 13.8597C110.631 13.8213 109.634 14.3396 109.155 15.2994C108.541 16.5663 107.563 16.8351 106.373 16.9887C103.42 17.3534 100.523 17.0462 97.6848 16.1824C97.1094 16.0096 96.3806 15.8945 96.4573 14.9347C96.5532 13.994 97.1669 13.6677 97.8958 13.4565C99.2768 13.0534 100.696 13.1686 102.058 13.4757C103.324 13.7637 104.187 13.7061 105.012 12.5351C106.143 10.9226 108.1 10.5195 109.845 10.4811C113.24 10.4235 116.539 9.90523 119.838 9.32934C121.219 9.09898 122.523 8.67667 123.866 7.65926C122.274 6.14275 120.356 5.33651 118.304 5.02937C115.216 4.58785 112.108 4.29991 109.001 4.06955C106.201 3.8392 103.401 4.29991 100.677 4.95258C97.6464 5.68204 94.6735 6.66105 91.6814 7.60167C86.9823 9.06059 82.7434 11.4601 78.7156 14.2628C76.6633 15.6833 74.5918 17.0846 72.6546 18.6587C71.3504 19.7337 70.2571 21.1351 69.2597 22.4596C68.3583 23.669 67.3225 24.7824 66.3635 25.8765C64.4839 27.9881 63.1221 30.3877 61.6644 32.7296C57.7708 38.9684 56.3323 46.0326 54.7403 53.0393C54.3184 54.9397 54.4718 56.9745 54.4143 58.9326C54.3951 59.8348 54.5677 60.737 54.491 61.6392C54.28 64.5379 54.9705 67.3597 55.2774 70.22C55.6993 74.0784 56.8885 77.7449 58.0393 81.4306C58.4613 82.7551 58.6531 84.1565 58.8257 85.5578C58.9792 86.7672 58.4038 87.1703 57.1762 86.8248C56.5049 86.6328 55.987 86.2681 55.5651 85.7498C54.2416 84.1949 53.2826 82.5248 52.4963 80.5476C51.6331 78.34 51.3071 75.9981 50.4056 73.7905C49.4466 71.4485 49.6576 68.6459 49.2164 66.0736C48.5451 62.1575 49.1397 58.2415 49.2356 54.3254C49.274 52.8281 49.5617 51.4076 50.1563 50.0063C50.8276 48.4322 50.4056 46.6469 51.0961 45.0152C51.7866 43.3644 52.151 41.5791 52.573 39.813C52.9374 38.3541 53.4744 36.972 54.4526 35.8202C55.3541 34.7644 55.3925 33.3823 55.9871 32.2113C57.7324 28.852 59.919 25.7998 62.1247 22.7667C62.4508 22.3444 62.8727 22.1333 63.3139 21.9221C63.6783 21.7301 64.1003 21.6342 64.3113 21.2502C66.0758 17.8141 68.9145 15.4722 72.1368 13.4757C73.2109 12.8039 73.9781 11.6905 75.0713 10.9418C76.3756 10.078 77.5648 9.07979 79.1567 8.75345C79.3869 8.71506 79.6746 8.63827 79.828 8.4655C81.4392 6.58427 83.8942 6.44989 85.9657 5.50928C90.7032 3.35929 95.786 2.32269 100.811 1.15172C101.751 0.921362 102.959 1.07493 103.554 -0.0384521H104.053C104.877 0.806185 105.702 0.710203 106.527 -0.0384521H107.026L107.045 -5.95637e-05Z" fill="#1E6E67"/>
<path fill-rule="evenodd" clip-rule="evenodd" d="M106.546 0C105.721 0.748655 104.897 0.844637 104.072 0H106.546Z" fill="#1E6E67"/>
<path fill-rule="evenodd" clip-rule="evenodd" d="M39.281 218.358C40.3743 219.529 40.3743 219.817 39.281 220.335V218.358Z" fill="#1E6E67"/>
<path fill-rule="evenodd" clip-rule="evenodd" d="M56.3323 96.4037C58.9984 96.5189 59.3628 97.2099 58.6148 98.976C58.0969 100.185 56.9845 100.896 56.3515 102.067C55.5459 103.564 55.3733 104.946 55.5651 106.559C56.1022 110.839 57.0036 110.225 52.6689 113.45C51.0961 114.621 49.7343 115.773 49.4275 118.038C49.1206 120.341 49.3316 122.299 50.9427 123.95C51.6907 124.718 52.2278 125.62 52.8799 126.446C53.6663 127.463 53.743 128.462 53.4361 129.671C53.0333 131.264 52.7073 132.857 54.165 134.259C54.8555 134.931 54.2609 135.986 53.2251 136.198C51.4222 136.562 49.0055 135.046 48.1999 132.973C47.8355 132.051 47.5094 131.053 47.9122 130.093C48.6219 128.404 47.8163 127.252 46.6655 126.196C45.3037 124.949 44.3447 123.547 43.9611 121.647C43.4241 118.959 44.4406 116.733 45.3421 114.333C46.2244 111.972 48.5068 111.223 49.9645 109.572C50.5207 108.939 50.9235 108.67 50.2714 107.806C49.5617 106.885 50.2714 105.733 50.2714 104.696C50.3097 102.738 50.7509 100.876 51.9209 99.2063C53.206 97.3635 55.2774 97.1523 56.3323 96.4421V96.4037Z" fill="#1E6E67"/>
<path fill-rule="evenodd" clip-rule="evenodd" d="M83.2804 68.0124C82.4172 68.665 81.5541 68.7802 80.6143 68.7994C77.7756 68.9146 76.6248 69.8552 75.896 72.4851C74.2848 78.3784 76.3755 83.7725 80.8637 87.0935C81.7268 87.727 82.4748 88.5524 83.4146 88.9939C85.16 89.8386 86.9438 90.7408 89.0344 89.9345C89.6098 89.7042 90.3387 89.7426 90.9908 89.781C91.6429 89.8386 92.3142 89.9921 92.4101 90.8752C92.506 91.7198 92.5444 92.3917 91.6046 92.9483C89.1495 94.3881 86.6177 93.8314 84.1435 93.3707C79.1566 92.43 75.7042 89.2819 72.9422 85.1739C71.3694 82.8511 70.1803 80.4324 69.9885 77.5721C69.9118 76.4971 70.2762 75.4029 70.1803 74.4431C69.9309 71.89 71.4078 70.2583 72.6353 68.4155C73.4985 67.1101 74.5725 66.2655 76.0686 65.824C77.4496 65.4209 78.8306 65.4593 80.2307 65.4401C81.9186 65.4401 83.1269 66.0351 83.2612 68.0316L83.2804 68.0124Z" fill="#1E6E67"/>
<path fill-rule="evenodd" clip-rule="evenodd" d="M144.561 73.9057C144.312 77.1499 144.273 79.7222 143.89 82.2369C143.18 86.9208 141.627 88.0726 136.947 87.919C132.056 87.7655 125.841 83.2735 125.189 78.3977C125.074 77.4954 125.151 77.0923 125.822 76.5932C126.8 75.883 127.836 75.6142 129.025 75.5758C131.499 75.499 133.859 74.8464 136.122 73.8098C137.33 73.2531 138.251 72.3124 139.363 71.6214C140.591 70.8343 141.703 70.0281 143.18 70.8535C144.062 71.3334 144.58 72.8115 144.542 73.9057H144.561ZM130.483 79.2615C132.324 81.4115 133.571 83.3695 135.911 84.0606C137.982 84.6941 139.939 83.5231 140.092 81.5267C140.207 79.991 140.111 78.4361 140.111 76.6316C136.927 77.457 134.089 78.8776 130.483 79.2615Z" fill="#1E6E67"/>
<path fill-rule="evenodd" clip-rule="evenodd" d="M79.8664 55.0741C79.924 51.8107 80.2309 48.5665 80.9214 45.3608C81.2474 43.8251 81.5543 42.2894 81.8228 40.7536C82.0722 39.2755 82.7051 37.9318 83.3189 36.5881C83.6641 35.8394 84.3162 35.3403 85.0451 35.4171C85.8123 35.4939 86.2343 36.2041 86.3685 37.0104C86.6371 38.6421 86.733 40.2545 86.6946 41.9246C86.6371 45.0152 84.9108 47.8179 85.3328 51.0045C85.4862 52.0987 84.5656 53.1353 84.7574 54.4982C85.0835 56.8593 85.6397 59.1053 86.5412 61.2745C86.8097 61.9272 86.7905 62.5798 86.5795 63.1941C86.1575 64.4227 84.6615 64.7874 83.8559 63.77C82.2256 61.7352 80.7679 59.5468 79.8856 57.0513C79.6746 56.4754 79.8473 55.746 79.8473 55.0933L79.8664 55.0741Z" fill="#1E6E67"/>
<path fill-rule="evenodd" clip-rule="evenodd" d="M135.259 58.9326C135.853 57.0129 134.645 55.362 133.283 53.6344C132.19 52.233 131.691 50.371 130.56 49.0273C128.814 46.9349 128.546 44.2666 127.414 41.963C127.165 41.4639 127.05 40.8688 126.954 40.3122C126.877 39.813 127.03 39.3523 127.472 38.9876C128.066 38.5269 128.546 38.8532 129.044 39.1604C129.754 39.5827 130.368 40.1586 130.809 40.8496C133.648 45.1688 136.448 49.5072 139.287 53.8263C140.84 56.1875 141.032 58.6638 140.15 61.3513C139.766 62.5223 139.037 63.1557 138.078 63.6164C136.525 64.3459 135.355 63.5973 135.278 61.8504C135.24 61.025 135.278 60.1995 135.278 58.9326H135.259Z" fill="#1E6E67"/>
<path fill-rule="evenodd" clip-rule="evenodd" d="M86.6945 237.42C86.0999 235.423 86.5603 233.062 86.2534 230.663C85.678 226.132 86.0999 221.544 87.1548 217.091C87.3275 216.361 87.7878 215.709 88.1522 215.037C88.4783 214.442 88.8427 213.866 89.5332 214.154C90.2045 214.442 90.6648 215.018 90.7415 215.881C90.9333 217.859 91.1443 219.836 91.2402 221.832C91.4512 225.556 91.6046 229.3 91.7581 233.043C91.854 235.423 91.8923 237.823 91.9307 240.203C91.9499 241.067 91.6814 241.739 90.9909 242.104C88.9578 243.217 86.4452 241.278 86.5219 238.629C86.5219 238.341 86.5986 238.034 86.6945 237.42Z" fill="#1E6E67"/>
<path fill-rule="evenodd" clip-rule="evenodd" d="M113.221 85.9993C114.218 81.4114 114.295 76.286 117.671 72.2164C118.092 71.7173 118.514 71.2182 118.956 70.7383C119.378 70.2775 119.857 69.9704 120.471 70.3351C121.008 70.6615 120.835 71.1798 120.739 71.6597C119.589 77.2842 118.572 82.9471 117.728 88.6292C117.575 89.589 117.249 90.5296 116.942 91.4703C116.75 92.0462 116.366 92.4877 115.714 92.4877C115.043 92.4877 114.717 92.0078 114.429 91.4703C113.566 89.8194 113.47 88.0149 113.24 85.9609L113.221 85.9993Z" fill="#1E6E67"/>
<path fill-rule="evenodd" clip-rule="evenodd" d="M70.4105 52.233C71.1201 52.233 71.6572 52.0986 72.0983 52.2522C72.8464 52.5209 73.1532 53.2312 73.2683 53.9991C73.3642 54.7093 72.8655 54.9973 72.3477 55.2852C69.6433 56.7633 66.9389 58.2222 63.9851 59.1629C63.3522 59.3548 62.7192 59.5852 62.1822 59.9499C60.5518 61.0633 59.1709 59.9307 57.8091 59.4316C56.9268 59.1053 57.272 57.704 58.4612 57.1281C60.3025 56.2258 62.163 55.3812 64.081 54.6517C65.462 54.1142 66.8813 53.7879 68.0513 52.8089C68.761 52.2138 69.6816 52.0986 70.3913 52.2714L70.4105 52.233Z" fill="#1E6E67"/>
<path fill-rule="evenodd" clip-rule="evenodd" d="M113.681 52.1563C113.681 54.4406 111.706 55.7844 109.385 55.0933C106.738 54.3063 104.82 49.7183 106.124 47.3188C107.121 45.476 109.864 45.1688 111.418 46.8005C112.818 48.2786 113.566 50.1023 113.681 52.1563Z" fill="#1E6E67"/>
<path fill-rule="evenodd" clip-rule="evenodd" d="M79.6746 78.7815C79.7513 77.6297 79.9239 76.5164 80.4034 75.4414C80.7486 74.6927 81.1706 74.2704 82.0529 74.2704C83.0311 74.2704 83.6257 74.6927 83.8942 75.5757C84.1052 76.286 84.1627 77.0155 84.3162 77.7449C84.6806 79.607 85.4094 81.1811 87.4617 81.7186C87.8453 81.8145 88.2289 82.0641 88.4974 82.3328C88.977 82.8127 89.303 83.4078 89.1112 84.1181C88.9194 84.8092 88.2673 84.8475 87.7302 84.9435C83.6257 85.577 79.4252 82.5632 79.6937 78.7815H79.6746Z" fill="#1E6E67"/>
<path fill-rule="evenodd" clip-rule="evenodd" d="M145.635 44.6313C145.347 45.6871 145.213 47.05 143.928 47.5875C142.643 48.1058 141.531 47.4915 140.629 46.5125C139.21 44.9768 138.481 43.2684 138.788 41.0992C139.095 39.0644 141.876 37.7782 143.506 39.5827C144.369 40.5233 145.635 43.134 145.635 44.6313Z" fill="#1E6E67"/>
<path fill-rule="evenodd" clip-rule="evenodd" d="M71.753 45.3608C71.753 46.5509 70.679 46.9349 69.9309 47.0308C68.4157 47.242 67.1882 48.1058 65.7688 48.4514C65.5387 48.509 65.1742 48.4898 65.0591 48.6433C63.87 50.2942 62.4315 49.2 61.0697 49.0464C60.1874 48.9505 59.823 48.2978 59.7079 47.5299C59.5928 46.8005 60.2641 46.6277 60.7244 46.3398C63.2562 44.7081 66.1524 44.0938 69.0486 43.5563C70.5639 43.2876 71.7339 44.1514 71.7339 45.3608H71.753Z" fill="#1E6E67"/>
<path fill-rule="evenodd" clip-rule="evenodd" d="M68.8377 86.6904C68.6459 87.3047 68.2048 87.8998 67.6869 88.4181C65.6346 90.4912 63.3138 92.1613 60.5519 93.1787C60.3217 93.2747 60.0915 93.4859 59.8806 93.4667C59.0558 93.4283 58.0968 93.3707 57.6173 92.7372C57.0802 92.0078 57.8858 91.3359 58.3653 90.856C60.7053 88.3989 63.333 86.3256 66.7854 85.6538C67.2649 85.5578 67.7636 85.4426 68.2431 85.6346C68.6651 85.7882 68.9336 86.0761 68.8377 86.6904Z" fill="#1E6E67"/>
<path fill-rule="evenodd" clip-rule="evenodd" d="M104.014 31.2323C104.973 31.3667 105.971 31.3283 106.872 31.8466C107.697 32.3265 107.678 33.0367 107.524 33.7662C107.371 34.4573 106.757 34.1885 106.297 34.1885C104.149 34.1501 102.307 34.9756 100.639 36.2233C99.8521 36.8184 99.0658 37.4135 98.2794 38.0086C97.8958 38.2965 97.5505 38.738 96.9943 38.3541C96.5148 38.0278 96.4956 37.5095 96.5532 37.0296C96.6107 36.5497 96.649 36.0122 96.8792 35.609C97.9149 33.6894 100.888 30.7332 104.033 31.2323H104.014Z" fill="#1E6E67"/>
<path fill-rule="evenodd" clip-rule="evenodd" d="M90.3964 25.3582C88.5168 25.0319 86.944 25.3006 85.4096 24.8207C84.6615 24.5904 84.2971 24.2256 84.2587 23.477C84.2204 22.6131 84.6424 21.9413 85.4671 21.9221C87.9413 21.8453 90.4348 20.9239 92.9282 22.0565C94.29 22.6707 94.9805 23.3426 94.6352 24.3216C94.2325 25.4542 93.1967 25.5694 92.2185 25.435C91.4897 25.3198 90.7417 25.3774 90.3772 25.3582H90.3964Z" fill="#1E6E67"/>
<path fill-rule="evenodd" clip-rule="evenodd" d="M84.1053 32.5952C83.2038 32.5952 82.6284 32.5952 82.053 32.5952C81.4584 32.5569 80.8638 32.4417 80.7104 31.7506C80.5761 31.0979 80.9789 30.5604 81.4968 30.3301C83.9135 29.2167 86.4644 28.66 89.1497 29.0247C89.61 29.0823 89.9552 29.3511 90.0128 29.7734C90.0895 30.4261 89.6484 30.906 89.1305 31.1171C87.4043 31.8082 85.774 32.96 84.0861 32.5952H84.1053Z" fill="#1E6E67"/>
<path fill-rule="evenodd" clip-rule="evenodd" d="M139.152 25.5694C137.906 25.627 136.928 25.6462 135.949 25.723C134.377 25.8382 132.861 26.1453 131.672 27.2971C131.25 27.7002 130.751 27.969 130.176 28.0841C129.466 28.2377 129.102 27.777 129.351 27.0859C130.425 24.1297 134.779 22.3636 137.599 23.765C137.944 23.9441 138.468 24.5456 139.172 25.5694H139.152Z" fill="#1E6E67"/>
<path fill-rule="evenodd" clip-rule="evenodd" d="M130.502 62.2535C130.444 62.695 130.444 63.0213 130.368 63.3285C130.099 64.3267 128.891 65.3249 128.085 65.2481C127.184 65.1521 126.378 64.1155 126.436 62.8678C126.474 61.9847 126.704 61.1017 126.934 60.2379C127.184 59.3164 127.913 58.9901 128.814 58.9901C129.773 58.9901 130.003 59.7196 130.195 60.4298C130.368 61.0441 130.425 61.6968 130.521 62.2343L130.502 62.2535Z" fill="#1E6E67"/>
<path fill-rule="evenodd" clip-rule="evenodd" d="M101.847 51.9451C101.847 51.9451 102.307 51.9835 102.691 52.0986C103.573 52.3866 103.784 53.2504 103.017 53.7495C101.348 54.8245 99.5645 55.6308 97.493 55.2276C97.0327 55.1509 96.4765 54.9781 96.4189 54.4022C96.3614 53.8839 96.6491 53.4424 97.0711 53.1736C98.4329 52.3674 99.9289 51.9835 101.866 51.9451H101.847Z" fill="#1E6E67"/>
<path fill-rule="evenodd" clip-rule="evenodd" d="M104.954 58.3951C104.59 59.9116 103.746 61.2937 102.48 62.4071C101.962 62.8678 101.387 62.6759 100.888 62.3687C100.293 62.004 100.293 61.3897 100.562 60.8522C101.291 59.4509 102.307 58.2607 103.688 57.4737C104.455 57.0321 105.012 57.4161 104.935 58.3951H104.954Z" fill="#1E6E67"/>
<path fill-rule="evenodd" clip-rule="evenodd" d="M214.531 194.554C216.525 195.111 218.156 195.054 219.748 195.13C221.282 195.207 221.646 195.706 221.129 197.165C220.687 198.375 220.572 199.757 219.69 200.812C218.904 201.772 218.328 201.753 217.619 200.716C216.429 198.95 215.681 196.973 214.531 194.554Z" fill="#1E6E67"/>
<path fill-rule="evenodd" clip-rule="evenodd" d="M158.601 58.1839C158.467 57.9344 158.16 57.6656 158.524 57.3969C158.889 57.1281 159.042 57.4736 159.215 57.7232C159.004 57.8768 158.812 58.0303 158.601 58.2031V58.1839Z" fill="#1E6E67"/>
</g>
<g clip-path="url(#clip1_125_23075)">
<path d="M773.5 226.5V361H668.5L681 302.5L678.5 283C660.1 280.2 652.5 259.167 651 249L630 204.5L619.5 197L610 175L616 163L625 155C620 144.5 611.5 123.5 617.5 123.5C623.5 123.5 633.667 146.833 638 158.5L649 166V194L657 211L694.5 144L699.5 113.5C673.1 111.5 673.167 91.3333 676.5 81.5L674 73L671 65.5C683.4 57.5 686.5 46.8333 686.5 42.5L689.5 28H750L785 182L773.5 226.5Z" fill="white"/>
<path d="M732.667 79.2051C732.667 79.2051 721.247 68.3677 715.877 57.2037C710.506 46.0397 705.388 27.2089 705.388 27.2089L686.562 42.4273C686.562 42.4273 684.041 26.4403 700.657 14.6422C717.273 2.8441 730.476 3.47819 730.476 3.47819C730.476 3.47819 764.367 -6.57133 786.198 24.4035C786.198 24.4035 799.576 48.653 798.529 70.9041C797.482 93.136 784.046 128.261 782.728 142.115C781.41 155.97 791.491 182.121 791.142 192.229C791.239 211.213 776.64 227.815 776.64 227.815C776.64 227.815 781.506 187.04 776.64 174.973C771.773 162.906 759.442 142.096 759.442 142.096C759.442 142.096 752.986 159.082 742.516 167.076C732.047 175.069 706.221 189.634 706.221 189.634L698.117 193.612L704.922 171.284C704.922 171.284 724.001 154.375 727.936 147.553C731.892 140.751 738.309 132.546 738.309 132.546L740.849 116.848L759.462 92.7325L742.536 72.7296L732.706 79.1666L732.667 79.2051Z" fill="#6BB3A9"/>
<path fill-rule="evenodd" clip-rule="evenodd" d="M729.216 175.972C728.693 177.375 730.748 179.988 732.531 181.737C734.315 183.485 737.999 189.769 740.733 195.341C743.466 200.933 745.58 209.58 745.929 214.595C746.278 219.591 746.103 227.277 747.073 227.796C748.042 228.314 750.679 225.182 749.981 216.977C749.283 208.773 748.585 197.609 743.99 189.404C739.414 181.199 734.044 176.76 736.06 178.759C738.077 180.757 732.008 175.088 732.008 175.088C732.008 175.088 729.72 174.57 729.197 175.953L729.216 175.972Z" fill="#A0CD64"/>
<path fill-rule="evenodd" clip-rule="evenodd" d="M747.557 162.349C747.034 163.751 749.089 166.365 750.873 168.113C752.656 169.862 756.321 176.145 759.074 181.718C761.808 187.309 763.921 195.956 764.289 200.971C764.638 205.967 764.464 213.653 765.433 214.172C766.403 214.691 769.04 211.559 768.342 203.354C767.644 195.149 766.926 183.985 762.351 175.78C757.775 167.575 752.404 163.137 754.421 165.135C756.437 167.133 750.369 161.465 750.369 161.465C750.369 161.465 748.081 160.946 747.557 162.349Z" fill="#A0CD64"/>
<path fill-rule="evenodd" clip-rule="evenodd" d="M710.778 190.211C710.254 191.613 712.309 194.227 714.093 195.975C715.877 197.724 719.561 204.007 722.294 209.579C725.028 215.171 727.142 223.837 727.51 228.833C727.859 233.829 727.684 241.515 728.654 242.034C729.623 242.553 732.26 239.421 731.562 231.216C730.864 223.011 730.166 211.847 725.571 203.642C720.995 195.437 715.625 190.998 717.641 192.997C719.658 194.995 713.589 189.327 713.589 189.327C713.589 189.327 711.301 188.808 710.778 190.191V190.211Z" fill="#A0CD64"/>
<path fill-rule="evenodd" clip-rule="evenodd" d="M694.976 202.374C694.453 203.776 696.508 206.39 698.292 208.138C700.075 209.887 703.74 216.17 706.493 221.743C709.227 227.334 711.34 236 711.708 240.996C712.057 245.992 711.883 253.678 712.852 254.197C713.822 254.716 716.459 251.584 715.761 243.379C715.063 235.174 714.365 224.01 709.77 215.805C705.194 207.6 699.823 203.162 701.84 205.16C703.856 207.158 697.788 201.49 697.788 201.49C697.788 201.49 695.5 200.971 694.976 202.355V202.374Z" fill="#A0CD64"/>
<path fill-rule="evenodd" clip-rule="evenodd" d="M687.783 232.791C690.517 238.383 690.827 242.687 691.176 247.702C691.525 252.698 691.351 260.384 692.32 260.903C693.289 261.422 695.926 258.289 695.228 250.085C694.53 241.88 694.782 234.655 690.207 226.469C685.631 218.264 685.049 227.219 687.783 232.791Z" fill="#A0CD64"/>
<path fill-rule="evenodd" clip-rule="evenodd" d="M671.322 363.243C674.017 363.627 676.829 363.857 679.64 363.954C682.606 364.05 685.573 364.319 688.52 364.607C692.068 364.934 695.616 364.895 699.145 365.414C701.685 365.779 704.283 365.606 706.823 366.01C708.839 366.355 710.913 366.067 712.91 366.682C713.996 367.009 715.179 366.797 716.342 366.682C718.087 366.509 719.832 366.817 721.577 367.066C725.881 367.643 730.205 367.931 734.548 367.912C734.916 367.912 735.207 368.104 735.498 368.315C735.75 368.488 736.002 368.853 736.312 368.68C738.232 367.624 740.015 368.796 741.857 368.892C743.214 368.969 744.572 368.892 745.929 369.026C748.255 369.276 750.582 369.295 752.909 369.68C755.487 370.122 758.124 370.045 760.742 370.198C763.747 370.371 766.752 370.756 769.718 371.275C770.746 371.467 771.618 372.331 772.472 373.119C772.995 373.6 772.956 374.214 772.394 374.733C771.87 375.233 771.328 375.905 770.727 375.809C769.234 375.559 767.702 375.963 766.228 375.617C764.697 375.271 763.126 375.194 761.556 375.214C760.451 375.214 759.365 374.983 758.26 374.849C758.163 374.849 758.066 374.752 757.969 374.772C754.867 375.483 751.92 373.715 748.798 374.368C747.577 374.618 746.317 373.945 745.037 373.965C741.974 374.003 738.91 373.888 735.905 373.273C732.59 372.581 729.216 372.812 725.862 372.504C724.098 372.351 722.314 372.12 720.549 371.909C719.25 371.755 717.932 371.909 716.652 371.813C714.869 371.716 713.085 371.409 711.301 371.14C709.324 370.852 707.307 370.852 705.31 370.967C704.108 371.044 702.887 370.852 701.685 370.736C698.699 370.429 695.713 369.853 692.688 369.853C690.11 369.853 687.589 369.257 685.011 369.218C682.393 369.161 679.776 368.949 677.158 368.642C674.774 368.354 672.35 368.315 669.926 368.181C668.879 368.123 667.929 367.662 666.979 367.066C666.514 366.778 666.146 366.317 666.281 365.299C666.398 364.28 666.766 363.569 667.367 363.454C668.181 363.262 669.035 362.877 669.849 363.204C670.275 363.377 670.702 363.454 671.264 363.281L671.322 363.243Z" fill="#A0CD64"/>
<path fill-rule="evenodd" clip-rule="evenodd" d="M674.366 340.454C677.061 340.838 679.853 341.069 682.684 341.165C685.65 341.261 688.597 341.53 691.564 341.818C695.112 342.145 698.66 342.106 702.189 342.625C704.729 342.99 707.327 342.817 709.867 343.221C711.883 343.547 713.957 343.278 715.954 343.874C717.04 344.201 718.223 343.989 719.386 343.874C721.131 343.72 722.896 344.009 724.621 344.258C728.925 344.835 733.249 345.123 737.592 345.104C737.96 345.104 738.251 345.296 738.542 345.507C738.794 345.68 739.046 346.045 739.356 345.873C741.276 344.816 743.059 345.988 744.901 346.084C746.258 346.161 747.616 346.084 748.973 346.218C751.299 346.468 753.626 346.487 755.953 346.872C758.531 347.314 761.168 347.237 763.786 347.391C766.791 347.563 769.796 347.948 772.762 348.486C773.79 348.678 774.662 349.543 775.516 350.33C776.058 350.811 776 351.426 775.438 351.945C774.914 352.444 774.372 353.117 773.771 353.021C772.278 352.771 770.765 353.174 769.272 352.828C767.741 352.483 766.17 352.406 764.6 352.425C763.495 352.425 762.409 352.194 761.304 352.06C761.207 352.06 761.11 351.964 761.013 351.983C757.911 352.694 754.964 350.926 751.842 351.579C750.621 351.829 749.361 351.157 748.081 351.176C745.018 351.214 741.954 351.099 738.949 350.484C735.634 349.792 732.26 350.023 728.906 349.716C727.142 349.562 725.377 349.331 723.593 349.12C722.294 348.966 720.976 349.101 719.696 349.024C717.913 348.928 716.129 348.62 714.345 348.351C712.348 348.063 710.351 348.063 708.335 348.178C707.133 348.255 705.911 348.063 704.709 347.929C701.723 347.621 698.738 347.045 695.713 347.045C693.134 347.045 690.614 346.449 688.035 346.391C685.437 346.334 682.8 346.122 680.183 345.815C677.798 345.527 675.375 345.488 672.951 345.354C671.904 345.296 670.935 344.835 670.004 344.239C669.558 343.951 669.17 343.49 669.306 342.471C669.422 341.453 669.791 340.742 670.372 340.627C671.187 340.435 672.04 340.05 672.854 340.377C673.281 340.531 673.707 340.627 674.269 340.454H674.366Z" fill="#A0CD64"/>
<path fill-rule="evenodd" clip-rule="evenodd" d="M687.706 318.068C689.974 318.414 692.339 318.606 694.724 318.664C697.225 318.721 699.726 318.952 702.227 319.202C705.213 319.49 708.238 319.413 711.204 319.893C713.356 320.22 715.547 320.028 717.699 320.412C719.406 320.72 721.151 320.412 722.837 321.008C723.749 321.315 724.757 321.104 725.746 320.989C727.238 320.796 728.712 321.085 730.166 321.296C733.792 321.834 737.456 322.065 741.121 321.988C741.431 321.988 741.663 322.161 741.915 322.372C742.129 322.545 742.323 322.91 742.594 322.737C744.242 321.661 745.735 322.814 747.286 322.872C748.43 322.929 749.574 322.833 750.718 322.949C752.676 323.16 754.654 323.16 756.612 323.525C758.783 323.929 761.013 323.832 763.223 323.948C765.763 324.082 768.303 324.428 770.804 324.928C771.677 325.101 772.394 325.965 773.111 326.734C773.557 327.214 773.519 327.81 773.034 328.348C772.588 328.848 772.123 329.539 771.618 329.443C770.358 329.213 769.059 329.635 767.818 329.309C766.519 328.982 765.201 328.924 763.883 328.963C762.952 328.982 762.041 328.771 761.11 328.636C761.032 328.636 760.955 328.54 760.877 328.559C758.24 329.309 755.778 327.579 753.141 328.252C752.094 328.521 751.047 327.868 749.962 327.887C747.383 327.964 744.785 327.887 742.245 327.31C739.453 326.657 736.584 326.926 733.772 326.676C732.279 326.542 730.787 326.33 729.294 326.138C728.208 326.004 727.083 326.138 725.998 326.1C724.485 326.023 722.992 325.735 721.48 325.504C719.813 325.235 718.107 325.274 716.4 325.408C715.373 325.485 714.365 325.331 713.337 325.216C710.817 324.947 708.296 324.39 705.737 324.447C703.565 324.486 701.433 323.909 699.261 323.89C697.051 323.89 694.841 323.679 692.63 323.391C690.614 323.141 688.559 323.122 686.523 323.006C685.631 322.968 684.836 322.507 684.041 321.93C683.653 321.642 683.343 321.2 683.479 320.162C683.595 319.144 683.905 318.433 684.41 318.298C685.108 318.106 685.825 317.703 686.523 318.01C686.891 318.164 687.24 318.241 687.725 318.068H687.706Z" fill="#A0CD64"/>
<path fill-rule="evenodd" clip-rule="evenodd" d="M691.622 293.28C693.774 293.626 696.043 293.799 698.311 293.857C700.696 293.914 703.081 294.145 705.446 294.375C708.296 294.664 711.166 294.568 713.996 295.029C716.032 295.355 718.126 295.144 720.181 295.509C721.81 295.817 723.477 295.509 725.067 296.086C725.94 296.393 726.909 296.182 727.84 296.047C729.255 295.855 730.651 296.143 732.047 296.335C735.498 296.854 738.988 297.066 742.478 296.989C742.769 296.989 743.001 297.162 743.234 297.373C743.447 297.546 743.622 297.911 743.874 297.738C745.444 296.662 746.86 297.796 748.333 297.853C749.419 297.892 750.524 297.815 751.61 297.93C753.471 298.142 755.371 298.122 757.232 298.487C759.307 298.891 761.42 298.776 763.534 298.891C765.957 299.025 768.361 299.352 770.746 299.852C771.58 300.025 772.258 300.87 772.937 301.639C773.363 302.119 773.325 302.715 772.859 303.253C772.433 303.752 771.967 304.444 771.502 304.348C770.3 304.117 769.059 304.54 767.877 304.233C766.655 303.906 765.395 303.848 764.115 303.887C763.223 303.906 762.351 303.695 761.478 303.579C761.401 303.579 761.323 303.483 761.246 303.503C758.745 304.252 756.399 302.542 753.878 303.234C752.889 303.503 751.881 302.849 750.854 302.888C748.391 302.984 745.929 302.907 743.505 302.35C740.849 301.716 738.115 301.985 735.44 301.735C734.024 301.6 732.59 301.408 731.174 301.216C730.127 301.081 729.08 301.216 728.033 301.178C726.599 301.101 725.164 300.812 723.729 300.601C722.139 300.351 720.53 300.371 718.902 300.524C717.932 300.62 716.963 300.447 715.993 300.332C713.589 300.082 711.204 299.525 708.761 299.583C706.687 299.64 704.67 299.064 702.596 299.064C700.502 299.064 698.369 298.872 696.275 298.603C694.356 298.353 692.398 298.334 690.459 298.238C689.625 298.199 688.85 297.738 688.113 297.162C687.744 296.873 687.454 296.431 687.57 295.394C687.686 294.375 687.996 293.664 688.462 293.53C689.121 293.338 689.819 292.934 690.478 293.242C690.827 293.395 691.157 293.472 691.622 293.299V293.28Z" fill="#A0CD64"/>
<path fill-rule="evenodd" clip-rule="evenodd" d="M725.455 248.701C726.793 248.97 728.208 249.104 729.623 249.085C731.116 249.085 732.609 249.22 734.083 249.393C735.866 249.585 737.669 249.393 739.434 249.796C740.713 250.065 742.032 249.796 743.292 250.104C744.3 250.353 745.347 250.008 746.336 250.526C746.879 250.815 747.48 250.565 748.062 250.411C748.953 250.181 749.826 250.411 750.698 250.584C752.851 251.007 755.022 251.122 757.232 250.93C757.426 250.93 757.562 251.103 757.698 251.295C757.833 251.468 757.93 251.814 758.105 251.641C759.113 250.507 759.966 251.602 760.897 251.641C761.575 251.641 762.273 251.526 762.952 251.622C764.115 251.775 765.298 251.698 766.461 252.006C767.741 252.352 769.079 252.179 770.397 252.237C771.909 252.294 773.402 252.563 774.895 252.967C775.399 253.12 775.806 253.947 776.214 254.696C776.466 255.157 776.427 255.772 776.117 256.31C775.826 256.829 775.535 257.521 775.225 257.444C774.488 257.232 773.693 257.713 772.956 257.444C772.2 257.156 771.405 257.136 770.61 257.213C770.048 257.271 769.505 257.079 768.962 256.983C768.904 256.983 768.865 256.887 768.827 256.906C767.237 257.732 765.821 256.08 764.212 256.848C763.572 257.136 762.971 256.522 762.331 256.579C760.78 256.733 759.229 256.752 757.736 256.252C756.088 255.695 754.363 256.041 752.695 255.868C751.804 255.772 750.931 255.618 750.039 255.465C749.399 255.369 748.721 255.542 748.062 255.522C747.17 255.484 746.278 255.253 745.386 255.061C744.397 254.85 743.389 254.927 742.361 255.119C741.741 255.234 741.14 255.1 740.539 255.023C739.046 254.831 737.553 254.369 736.041 254.485C734.742 254.6 733.482 254.081 732.183 254.139C730.864 254.196 729.546 254.062 728.227 253.851C727.025 253.658 725.804 253.697 724.602 253.658C724.078 253.658 723.613 253.217 723.167 252.659C722.954 252.39 722.779 251.948 722.876 250.93C722.973 249.911 723.186 249.201 723.497 249.047C723.923 248.835 724.369 248.413 724.757 248.701C724.97 248.855 725.183 248.912 725.474 248.701H725.455Z" fill="#A0CD64"/>
<path fill-rule="evenodd" clip-rule="evenodd" d="M689.179 268.186C691.486 268.532 693.89 268.743 696.314 268.801C698.854 268.878 701.394 269.108 703.934 269.358C706.978 269.646 710.041 269.569 713.066 270.05C715.256 270.376 717.486 270.184 719.658 270.569C721.383 270.876 723.167 270.569 724.892 271.164C725.823 271.491 726.851 271.26 727.839 271.164C729.352 270.991 730.845 271.26 732.338 271.491C736.021 272.029 739.744 272.26 743.486 272.202C743.796 272.202 744.048 272.394 744.3 272.586C744.533 272.759 744.727 273.124 744.998 272.951C746.666 271.875 748.178 273.028 749.768 273.105C750.931 273.163 752.094 273.067 753.258 273.182C755.255 273.412 757.252 273.393 759.249 273.758C761.459 274.162 763.727 274.066 765.957 274.2C768.555 274.335 771.114 274.7 773.674 275.18C774.565 275.353 775.302 276.218 776.02 276.986C776.465 277.467 776.427 278.063 775.942 278.601C775.477 279.1 775.011 279.792 774.507 279.696C773.228 279.446 771.909 279.869 770.63 279.561C769.311 279.235 767.973 279.177 766.616 279.215C765.666 279.215 764.736 279.004 763.785 278.889C763.708 278.889 763.611 278.793 763.533 278.812C760.858 279.561 758.357 277.832 755.662 278.504C754.595 278.773 753.529 278.101 752.443 278.139C749.806 278.216 747.17 278.139 744.61 277.563C741.76 276.91 738.852 277.179 735.983 276.91C734.451 276.775 732.939 276.564 731.426 276.372C730.321 276.237 729.177 276.372 728.072 276.314C726.54 276.237 725.009 275.949 723.477 275.699C721.771 275.43 720.045 275.449 718.32 275.603C717.273 275.68 716.245 275.507 715.218 275.392C712.639 275.123 710.099 274.565 707.501 274.604C705.291 274.642 703.119 274.066 700.909 274.047C698.679 274.027 696.411 273.835 694.181 273.547C692.126 273.297 690.052 273.259 687.977 273.163C687.085 273.124 686.251 272.663 685.456 272.087C685.069 271.798 684.739 271.356 684.875 270.319C684.991 269.3 685.321 268.589 685.825 268.455C686.542 268.263 687.26 267.859 687.958 268.186C688.326 268.34 688.694 268.417 689.179 268.244V268.186Z" fill="#A0CD64"/>
<path fill-rule="evenodd" clip-rule="evenodd" d="M755.099 227.91C755.662 228.122 756.263 228.179 756.864 228.102C757.504 228.026 758.143 228.102 758.764 228.218C759.52 228.333 760.295 228.083 761.032 228.371C761.556 228.583 762.137 228.256 762.68 228.506C763.107 228.717 763.572 228.314 763.96 228.794C764.173 229.063 764.445 228.775 764.716 228.602C765.104 228.333 765.472 228.525 765.841 228.66C766.752 228.986 767.682 229.006 768.632 228.717C768.71 228.679 768.768 228.871 768.826 229.063C768.865 229.217 768.904 229.563 768.981 229.371C769.466 228.199 769.776 229.255 770.184 229.236C770.474 229.236 770.785 229.063 771.056 229.121C771.541 229.217 772.064 229.102 772.549 229.351C773.092 229.62 773.654 229.409 774.236 229.39C774.876 229.39 775.515 229.582 776.136 229.928C776.349 230.043 776.485 230.85 776.62 231.58C776.698 232.042 776.659 232.637 776.504 233.194C776.368 233.713 776.194 234.424 776.078 234.367C775.767 234.194 775.418 234.693 775.108 234.463C774.798 234.213 774.468 234.232 774.119 234.347C773.887 234.424 773.654 234.251 773.421 234.194C773.421 234.194 773.383 234.117 773.363 234.136C772.646 235.039 772.103 233.444 771.386 234.29C771.095 234.616 770.862 234.021 770.591 234.117C769.912 234.347 769.253 234.424 768.632 233.982C767.954 233.502 767.198 233.925 766.48 233.829C766.093 233.771 765.744 233.656 765.356 233.56C765.084 233.483 764.794 233.694 764.503 233.713C764.115 233.713 763.747 233.521 763.378 233.367C762.971 233.194 762.525 233.329 762.079 233.56C761.808 233.694 761.556 233.598 761.304 233.56C760.664 233.444 760.063 233.022 759.384 233.233C758.822 233.406 758.318 232.945 757.756 233.06C757.193 233.175 756.631 233.118 756.088 232.964C755.584 232.829 755.061 232.925 754.537 232.925C754.304 232.925 753.51 232.483 753.354 231.945C751.745 232.022 752.249 230.754 752.346 229.717C752.424 228.698 754.13 228.525 754.266 228.371C754.46 228.141 754.673 227.699 754.828 227.968C754.905 228.102 755.002 228.16 755.138 227.968L755.099 227.91Z" fill="#A0CD64"/>
<path d="M682.005 95.2106C685.941 95.1338 690.09 91.1178 690.362 87.2363C690.439 86.045 690.032 85.065 688.927 84.6999C686.775 84.0274 684.603 83.2588 682.257 83.7007C681.676 83.7968 681.133 83.9505 680.978 84.6423C680.823 85.3725 681.055 86.0258 681.695 86.2948C682.568 86.6599 683.343 87.2748 684.41 87.2748C685.398 87.2748 685.592 87.9857 685.224 88.812C684.448 90.5798 683.227 91.8864 681.366 92.5781C680.571 92.8856 679.892 93.4044 680.222 94.4036C680.513 95.3067 681.269 95.2875 681.986 95.1914L682.005 95.2106Z" fill="#1E6E67"/>
<path d="M673.533 74.67C674.134 74.8045 674.871 75.1888 675.239 74.3626C675.549 73.7093 675.801 72.9791 675.239 72.3066C674.871 71.8646 674.463 71.4803 674.153 70.9999C673.048 69.309 673.067 66.5036 674.483 65.5236C676.829 63.8903 678.574 61.5845 680.978 60.0473C681.947 59.4324 682.703 58.6254 683.518 57.7991C685.534 55.7623 686.465 53.2259 687.279 50.5935C687.628 49.4406 688.035 48.3069 688.326 47.4614C688.326 45.3669 687.376 44.8289 685.786 45.7128C685.127 46.0779 684.642 46.6159 684.274 47.2692C683.673 48.3261 683.052 49.3829 682.51 50.459C680.978 53.5718 678.826 56.1274 675.801 57.9529C675.472 58.1642 675.084 58.3756 674.871 58.683C673.61 60.5085 671.904 61.9112 670.082 63.0833C668.492 64.1017 668.201 65.8119 667.949 67.1953C667.387 70.3658 670.275 73.9014 673.533 74.67Z" fill="#1E6E67"/>
<path d="M678.535 72.1911C677.721 72.1911 677.333 72.6138 677.333 73.3824C677.333 74.5161 678.244 75.3808 679.349 75.3424C680.125 75.3232 680.571 74.9581 680.532 74.2087C680.532 72.9405 679.698 72.1719 678.515 72.1719L678.535 72.1911Z" fill="#1E6E67"/>
<path d="M735.382 47.5379C735.634 48.0375 736.08 48.4218 736.448 48.8445C737.98 50.5739 739.55 50.9006 741.993 49.9398C741.605 48.8061 741.276 47.5956 740.461 46.6732C738.426 44.3482 736.952 41.6196 735.207 39.1025C734.839 38.5644 734.47 37.9688 733.966 37.6037C733.113 37.008 732.357 35.5669 731.097 36.4316C729.992 37.2002 730.632 38.5068 730.864 39.5828C731.523 42.6957 733.986 44.7901 735.362 47.4995L735.382 47.5379Z" fill="#1E6E67"/>
<path d="M723.283 33.761C723.089 32.7426 722.314 32.1469 721.383 32.1853C720.356 32.2046 720.685 33.2806 720.511 33.9147C720.394 34.3759 720.414 34.8755 720.375 35.5288C720.414 36.086 720.472 36.8354 720.549 37.5464C721.228 43.2533 723.341 48.5182 725.901 53.6102C727.491 56.7807 729.119 60.0089 732.105 62.2378C732.9 62.8335 733.656 63.4292 734.684 63.506C735.188 63.5252 735.692 63.5445 736.002 63.0833C736.332 62.5645 735.963 62.2186 735.692 61.7959C734.878 60.4893 733.598 59.4708 733.094 57.9913C732.357 55.8392 731.097 53.9369 730.186 51.8617C728.324 47.6535 726.23 43.5415 724.97 39.0644C724.466 37.2966 723.613 35.6056 723.283 33.761Z" fill="#1E6E67"/>
<path d="M720.685 303.849C719.541 304.906 718.514 306.078 717.622 307.327C714.306 311.939 711.127 316.646 707.656 321.143C703.72 326.235 699.707 331.269 694.937 335.65C693.599 336.88 692.998 338.34 692.921 340.108C695.538 340.031 696.256 339.993 697.807 338.609C700.579 336.131 703.72 333.921 705.93 330.904C708.432 327.465 711.476 324.429 713.783 320.835C714.558 319.606 715.683 318.683 716.497 317.453C718.126 315.032 719.018 312.265 720.724 309.94C721.829 308.442 722.062 306.655 722.546 304.944C722.701 304.445 722.74 303.964 722.255 303.638C721.693 303.253 721.189 303.388 720.704 303.83L720.685 303.849Z" fill="#1E6E67"/>
<path d="M684.002 43.3489C685.534 43.6755 687.066 43.7716 688.52 42.9261C691.04 41.4466 693.561 39.9286 695.577 37.8341C697.4 35.9895 699.532 34.5099 701.336 32.646C701.937 32.0311 702.576 31.3394 703.914 31.1472C703.953 32.8382 704.457 34.2793 705.116 35.6436C705.814 37.0847 705.465 38.6604 705.892 40.1591C706.997 43.8677 708.063 47.5954 709.672 51.0926C710.778 53.4944 711.941 55.8771 713.182 58.2214C714.268 60.239 715.625 62.026 717.001 63.7553C717.971 64.9851 718.591 66.3686 719.367 67.6752C720.801 70.0963 723.206 71.3837 725.358 72.9786C726.094 73.5166 726.812 73.9394 727.529 73.2476C728.111 72.6712 727.878 71.8833 727.529 71.2108C727.161 70.4806 726.851 69.6928 726.327 69.0971C725.086 67.7713 724.272 66.1764 723.167 64.7737C719.91 60.5848 717.195 56.1269 715.237 51.1886C714.461 49.2287 713.725 47.288 713.027 45.3088C711.669 41.5042 710.099 37.7765 709.634 33.6836C709.44 32.0119 708.916 30.3594 708.587 28.7069C707.986 25.6901 707.249 25.0176 703.468 25.6325C702.848 25.7478 702.286 26.0552 701.704 26.4203C700.405 27.2466 699.339 28.2842 698.195 29.2642C696.275 30.9167 694.511 32.6845 692.746 34.4907C691.428 35.8357 689.877 36.9502 688.365 38.1992C687.705 36.7773 687.919 35.6628 688.5 34.5099C689.353 32.819 689.877 31.0127 691.176 29.4947C692.999 27.3619 693.91 24.5757 696.139 22.6926C696.682 22.2506 696.954 21.5012 697.303 20.8671C697.729 20.0601 698.35 19.4068 699.086 18.888C699.687 18.4652 700.347 18.1002 700.773 17.5045C702.033 15.7559 703.972 14.8144 705.562 13.4309C707.617 11.6439 710.293 10.9329 712.542 9.45334C715.276 7.64712 718.203 6.28285 721.558 5.87933C722.915 5.72561 724.214 5.11072 725.513 4.61113C726.056 4.39976 726.812 4.20761 726.599 3.26607C726.405 2.4206 726.133 1.69043 725.164 1.51749C724.757 1.44063 724.349 1.45985 723.942 1.51749C720.259 1.90179 716.691 2.82412 713.337 4.34212C708.083 6.72479 703.158 9.68393 698.582 13.2195C695.887 15.2947 693.541 17.6774 691.544 20.4252C690.672 21.6165 689.761 22.7887 689.043 24.0761C688.597 24.8831 687.802 25.325 687.298 26.2282C686.174 28.2842 685.321 30.4939 683.847 32.3578C683.382 32.9727 683.207 33.6644 683.11 34.3946C682.82 36.3161 682.471 38.1992 681.908 40.0631C681.443 41.6003 682.335 43.0414 683.925 43.3873L684.002 43.3489Z" fill="#1E6E67"/>
<path d="M704.632 47.269C705.233 46.8462 705.31 46.1545 705.213 45.5012C705.097 44.5981 704.67 43.9255 703.778 43.4067C702.518 42.6766 701.2 42.4844 699.416 42.4268C699.106 42.446 698.369 42.5228 697.632 42.542C696.469 42.5613 696.062 43.1954 696.101 44.2714C696.139 45.309 696.837 45.3282 697.632 45.3475C699.494 45.4435 701.413 45.4051 702.906 46.8655C703.391 47.3458 703.953 47.7301 704.632 47.2498V47.269Z" fill="#1E6E67"/>
<path d="M696.217 54.6857C695.131 54.4551 694.356 55.07 693.735 55.877C692.243 57.8946 691.777 60.1044 692.669 62.487C693.328 64.2548 694.259 64.4854 695.81 63.3325C697.536 62.0451 697.885 60.162 698.078 58.3174C698.04 57.7985 698.02 57.395 697.981 56.9915C697.865 55.8578 697.4 54.9355 696.217 54.6665V54.6857Z" fill="#1E6E67"/>
<path d="M762.952 129.029C762.952 129.029 762.836 129.145 762.777 129.202C760.683 132.027 758.783 134.986 757.892 138.406C757.407 140.309 757.019 142.173 755.681 143.767C754.227 145.497 753.393 147.668 752.094 149.551C751.222 150.8 749.962 151.857 749.38 153.164C748.546 155.027 747.364 156.43 745.754 157.602C745.328 157.929 744.998 158.467 744.746 158.947C743.951 160.6 742.691 161.868 741.353 163.04C739.86 164.328 738.561 165.75 737.456 167.364C737.088 167.882 736.584 168.344 736.08 168.728C734.063 170.246 732.066 171.745 730.011 173.186C726.773 175.472 723.477 177.682 720.278 180.295C720.86 181.448 721.693 181.794 722.76 181.871C724.854 182.044 726.521 181.102 728.111 179.969C729.468 178.989 730.709 177.836 732.105 176.894C735.692 174.454 739.569 172.398 742.323 168.92C744.417 166.268 747.383 164.366 749.167 161.484C750.505 159.312 752.967 157.948 753.568 155.297C756.282 153.49 757.426 150.474 759.035 147.899C761.188 144.44 763.165 140.847 763.941 136.735C764.348 134.602 765.046 132.507 765.531 130.394C765.686 129.721 765.821 128.76 765.123 128.376C764.348 127.953 763.572 128.511 762.913 129.01L762.952 129.029Z" fill="#1E6E67"/>
<path d="M779.51 115.464C780.557 112.851 780.615 109.949 781.991 107.393C782.631 106.202 782.592 104.588 782.709 103.166C782.767 102.455 782.534 101.667 781.642 101.456C780.828 101.264 780.227 101.61 779.781 102.301C779.607 102.57 779.393 102.839 779.258 103.128C778.443 104.819 777.59 106.471 776.873 108.181C773.984 115.176 773.112 122.573 772.646 130.029C772.491 132.315 772.666 134.564 773.364 136.754C773.674 137.773 774.488 138.118 775.438 138.176C776.446 138.234 776.737 137.331 777.125 136.658C777.299 136.351 777.241 135.87 777.222 135.467C777.106 132.988 778.036 130.528 777.358 128.03C777.299 127.8 777.319 127.55 777.358 127.3C778.172 123.361 777.997 119.249 779.51 115.445V115.464Z" fill="#1E6E67"/>
<path d="M716.866 183.389C715.334 183.831 713.647 184.081 712.077 184.773C711.146 185.176 710.332 185.638 709.789 186.464C708.878 187.867 707.559 188.77 706.202 189.673C704.922 190.518 703.682 191.402 702.441 192.286C701.355 193.055 701.316 194.342 702.441 194.65C703.507 194.957 704.612 195.361 705.911 194.861C709.072 193.67 711.437 191.537 713.608 189.154C714.5 188.193 715.45 187.655 716.652 187.348C717.215 187.213 717.777 187.156 718.339 186.983C719.987 186.483 720.239 185.599 719.134 184.35C718.572 183.716 717.874 183.332 716.885 183.389H716.866Z" fill="#1E6E67"/>
<path d="M721.965 167.594C722.721 167.114 723.516 166.691 724.194 166.115C726.094 164.539 728.324 163.156 729.759 161.196C731.484 158.851 733.249 156.623 735.323 154.586C736.041 153.894 736.428 152.972 736.584 151.992C736.661 151.511 736.545 151.031 736.099 150.685C735.575 150.282 735.168 150.627 734.761 150.877C732.182 152.434 729.701 154.144 727.626 156.392C725.862 158.294 724.039 160.158 722.1 161.926C720.472 163.386 718.96 165 717.505 166.653C716.614 167.652 716.885 168.19 718.203 168.382C718.436 168.421 718.688 168.44 719.289 168.497C720.084 168.728 721.015 168.19 721.926 167.614L721.965 167.594Z" fill="#1E6E67"/>
<path d="M712.096 299.794C714.927 296.893 717.583 293.837 720.123 290.686C721.267 289.264 721.771 287.977 720.918 286.267C719.056 286.478 717.951 287.842 716.769 289.034C713.104 292.742 709.692 296.7 705.737 300.121C704.632 301.062 703.565 302.061 702.402 303.099C703.585 303.906 704.476 304.214 705.485 303.848C707.966 302.965 710.254 301.677 712.077 299.794H712.096Z" fill="#1E6E67"/>
<path d="M743.234 138.656C741.489 140.347 739.686 142 738.522 144.19C738.251 144.69 738.096 145.286 738.619 145.747C739.22 146.266 739.821 146.112 740.384 145.651C741.702 144.575 743.079 143.537 744.165 142.211C744.94 141.27 745.425 140.155 745.813 139.079C745.832 138.484 745.502 138.253 745.076 138.215C744.436 138.176 743.699 138.215 743.234 138.656Z" fill="#1E6E67"/>
<path fill-rule="evenodd" clip-rule="evenodd" d="M802 77.6482C800.992 78.2054 801.302 79.2238 801.302 80.0308C801.263 84.508 800.139 88.8121 799.48 93.1932C798.723 98.1507 797.269 102.935 795.679 107.605C793.469 114.08 791.84 120.729 789.475 127.166C788.506 129.798 788.486 132.738 787.633 135.428C786.218 139.963 786.373 144.574 786.179 149.225C786.102 151.511 786.528 153.51 787.323 155.566C787.459 155.931 787.556 156.353 787.536 156.757C787.381 160.043 788.176 163.136 789.204 166.211C789.63 167.517 789.475 168.997 789.863 170.284C791.065 174.416 791.007 178.797 792.48 182.851C792.112 185.445 792.81 187.981 793.139 190.499C793.566 193.727 793.547 196.936 793.508 200.183C793.508 201.009 793.372 201.797 793.178 202.585C792.887 203.68 792.674 204.776 792.752 205.928C792.849 207.831 791.879 209.56 791.239 211.251C789.669 215.363 787.342 219.11 784.298 222.377C784.085 222.607 783.814 222.742 783.484 222.972C782.767 221.915 783.174 220.974 783.581 220.128C784.744 217.727 784.977 215.017 786.237 212.673C786.722 211.789 786.644 210.771 786.722 209.81C786.993 206.774 787.517 203.776 788.002 200.76C788.331 198.742 788.06 196.628 788.002 194.572C787.905 191.997 787.052 189.519 786.955 186.963C786.858 184.753 786.955 182.505 786.586 180.334C786.102 177.298 785.132 174.339 784.861 171.284C784.55 167.959 783.271 164.866 782.825 161.599C782.825 161.522 782.844 161.426 782.825 161.369C781.061 158.544 781.72 155.22 780.905 152.203C780.673 151.319 780.828 150.416 780.867 149.532C781.041 146.4 781.254 143.249 781.429 140.117C781.429 139.886 781.351 139.579 781.448 139.406C783.019 136.831 782.398 133.833 783.077 131.105C784.201 126.551 785.113 121.958 787.09 117.673C787.943 115.829 787.808 113.734 788.544 111.832C789.708 108.834 790.929 105.818 791.647 102.685C792.267 99.9377 793.566 97.4013 793.799 94.5383C794.031 91.8097 794.865 89.158 795.311 86.4487C795.912 82.7402 796.513 79.0124 796.726 75.2655C796.901 72.1526 796.552 69.0206 796.416 65.9077C796.416 65.6771 796.203 65.4273 796.242 65.216C797.075 61.469 795.602 57.8758 795.311 54.2249C795.059 50.9968 794.477 47.7494 793.043 44.6173C792.015 42.4076 791.142 39.9865 790.425 37.6038C789.882 35.7976 789.223 34.1451 787.963 32.7616C787.614 32.3773 787.401 31.9738 787.304 31.4742C787.245 31.1667 787.304 30.7632 787.129 30.5326C784.395 26.8241 783.135 22.1164 779.102 19.2726C777.319 18.0236 775.806 16.3903 774.081 15.0644C772.413 13.777 770.552 12.7394 768.749 11.7018C765.666 9.934 762.642 8.07013 759.462 6.47528C757.155 5.32237 754.731 4.57298 752.249 4.26553C750.408 4.03495 748.527 3.86202 746.685 3.593C743.835 3.18949 741.14 3.7083 738.445 4.30397C737.185 4.59219 736.002 4.51533 734.819 4.24632C734.063 4.07338 733.462 3.57379 733.423 2.72832C733.385 1.76757 733.927 1.22954 734.839 1.03739C738.367 0.288001 741.954 -0.153948 745.56 0.153495C748.895 0.441722 752.211 0.902885 755.545 1.22954C758.376 1.49855 760.897 2.74754 763.34 3.93888C765.356 4.91885 767.547 5.80275 769.331 7.16702C772.549 9.64577 776.213 11.4328 779.509 13.8155C781.855 15.5064 783.736 17.6008 785.83 19.4839C787.42 20.9251 788.68 22.885 789.591 24.8257C791.104 28.1307 793.023 31.2436 794.497 34.587C795.873 37.6999 797.114 40.8704 798.2 44.0409C800.507 50.7277 801.612 57.6836 801.515 64.7932C801.515 65.1967 801.593 65.6003 801.632 66.0038C801.67 68.2904 801.38 70.577 802 72.8252V73.3247C801.632 74.4584 801.244 75.5921 802 76.745V77.725V77.6482Z" fill="#1E6E67"/>
<path fill-rule="evenodd" clip-rule="evenodd" d="M760.664 401.654C760.664 401.769 760.664 401.884 760.664 402H752.288V401.5C755.08 401.558 757.872 401.596 760.664 401.654Z" fill="#1E6E67"/>
<path fill-rule="evenodd" clip-rule="evenodd" d="M802 72.7677C801.38 70.5195 801.671 68.2137 801.632 65.9463C801.748 65.9463 801.884 65.9463 802 65.9463V72.7677Z" fill="#1E6E67"/>
<path fill-rule="evenodd" clip-rule="evenodd" d="M802 76.6683C801.244 75.5347 801.632 74.3817 802 73.248V76.6683Z" fill="#1E6E67"/>
<path fill-rule="evenodd" clip-rule="evenodd" d="M760.664 401.654C757.872 401.596 755.08 401.558 752.288 401.5C749.807 401.173 747.325 400.828 744.824 400.539C742.478 400.251 740.229 400.001 738.309 398.253C737.107 397.157 736.39 395.832 735.828 394.487C734.16 390.49 732.667 386.397 731.194 382.323C730.787 381.19 730.011 380.479 729.061 379.518C728.189 381.267 727.646 382.996 726.618 384.36C723.904 387.953 722.74 392.488 719.328 395.639C717.273 397.523 715.121 398.483 712.174 398.041C705.562 397.042 698.854 396.543 692.262 395.409C688.326 394.736 684.448 393.929 680.474 393.487C676.809 393.084 673.145 392.815 669.5 392.873C665.952 392.93 663.354 391.527 661.357 388.895C660.446 387.704 660.504 385.993 660.833 384.668C661.473 382.054 661.59 379.364 662.249 376.77C662.481 375.771 662.52 374.676 663.354 373.85C663.645 373.561 663.683 373.119 663.625 372.697C663.179 369.872 664.149 367.22 664.808 364.607C665.506 361.859 665.991 359.073 666.786 356.383C667.639 353.501 667.755 350.561 668.434 347.698C668.821 346.064 669.539 344.546 669.771 342.836C670.062 340.627 670.605 338.455 671.245 336.303C671.846 334.247 672.04 332.057 672.893 330.039C673.378 328.905 673.126 327.637 673.261 326.446C673.63 323.275 674.89 320.355 675.569 317.28C676.693 312.246 677.662 307.173 678.147 302.081C678.438 299.026 678.283 295.817 677.779 292.666C677.469 290.686 676.984 288.707 676.945 286.67C676.906 284.787 676.538 284.518 674.58 284.365C672.117 284.172 669.713 283.923 667.794 282.078C667.406 281.694 666.824 281.444 666.301 281.271C663.664 280.387 661.764 278.773 660.368 276.313C659.302 274.45 657.751 272.855 656.413 271.125C656.064 270.683 655.54 270.28 655.405 269.761C654.59 266.783 652.807 264.208 651.74 261.326C651.236 259.942 650.829 258.539 651.003 257.041C651.139 255.792 651.973 255.196 653.02 255.792C654.396 256.579 655.754 257.367 656.452 259.058C657.867 262.517 659.282 266.033 661.26 269.165C662.869 271.721 664.672 274.277 666.727 276.506C668.608 278.562 671.381 279.426 673.862 280.637C674.425 280.906 675.142 280.752 675.704 280.579C676.247 276.333 675.394 272.182 675.433 268.012C675.433 267.109 675.491 266.225 675.918 265.399C676.325 264.573 676.945 264.189 677.876 264.246C678.729 264.323 679.233 264.804 679.388 265.611C680.028 269.165 681.269 272.586 681.036 276.352C680.9 278.619 681.482 280.964 681.695 283.269C682.161 288.169 683.557 292.935 683.557 297.95C683.557 300.486 683.091 302.907 682.994 305.367C682.82 309.767 681.695 313.975 680.765 318.202C679.931 322.045 678.923 325.869 678.108 329.712C677.313 333.517 676.519 337.302 675.491 341.068C675.142 342.337 674.425 343.509 674.793 344.988C674.987 345.719 673.765 346.218 673.785 347.102C673.882 350.253 672.738 353.251 672.66 356.383C672.622 357.632 672.389 358.996 671.846 360.13C670.062 363.838 669.636 367.835 669.035 371.793C668.938 372.524 669.035 373.235 668.356 373.773C668.143 373.926 668.007 374.349 668.026 374.637C668.22 377.577 666.747 380.248 666.65 383.15C666.631 383.976 666.068 384.725 666.204 385.686C666.534 388.088 667.464 389.279 669.868 389.298C673.223 389.298 676.538 389.99 679.873 389.913C683.75 389.837 687.492 390.509 691.234 391.47C694.375 392.277 697.632 392.68 700.89 392.719C703.042 392.719 704.961 393.756 707.133 393.814C708.878 393.852 710.661 393.737 712.426 394.141C713.977 394.506 714.869 393.122 715.528 392.2C717.777 389.087 719.619 385.686 721.441 382.266C722.682 379.941 723.865 377.385 726.269 375.809C728.615 374.272 732.299 375.137 733.695 377.558C733.85 377.846 733.928 378.231 734.16 378.384C736.623 380.018 737.204 382.708 738.038 385.225C739.046 388.299 740.597 391.143 741.431 394.275C741.799 395.659 742.769 396.581 744.397 396.792C748.449 397.33 752.482 397.888 756.573 397.734C756.98 397.734 757.407 397.599 757.795 397.657C761.498 398.272 765.104 397.542 768.73 397.1C770.281 396.908 770.475 396.792 770.339 395.313C770.126 393.065 769.874 390.797 768.904 388.703C768.691 388.242 768.613 387.819 768.555 387.319C768.167 383.976 767.45 380.652 767.392 377.289C767.353 374.445 767.973 371.582 768.478 368.757C768.613 367.989 768.768 367.201 768.924 366.413C769.195 365.049 768.749 363.665 769.815 362.282C770.552 361.34 769.951 359.63 769.99 358.266C770.048 356.075 769.951 353.904 770.862 351.829C771.289 350.849 770.649 349.946 770.727 348.947C770.921 346.622 771.017 344.277 771.347 341.952C771.58 340.281 771.677 338.513 771.444 336.841C771.017 333.747 771.541 330.692 771.444 327.618C771.366 325.485 771.328 323.333 771.871 321.162C772.123 320.143 771.522 318.856 771.27 317.76C770.727 315.397 771.27 313.091 771.114 310.785C770.862 306.712 770.882 302.6 771.017 298.507C771.153 294.722 770.882 290.936 770.94 287.151C770.998 283.942 771.599 280.733 771.095 277.486C770.843 275.833 771.25 274.104 771.347 272.413C771.425 271.049 771.58 269.665 771.25 268.301C771.173 267.993 771.114 267.628 771.211 267.34C772.103 264.688 771.366 261.941 771.851 259.25C772.491 255.638 772.2 251.968 772.607 248.336C772.937 245.512 772.937 242.706 772.704 239.882C772.588 238.479 773.073 237.018 773.305 235.616C773.965 231.619 774.178 227.603 774.178 223.568C774.178 222.569 774.488 221.646 774.682 220.705C775.108 218.591 775.07 216.458 775.089 214.306C775.089 212.135 775.05 209.925 775.225 207.773C775.419 205.198 775.225 202.681 775.244 200.125C775.302 194.591 775.399 189.057 774.41 183.562C773.809 180.238 772.821 177.01 772.278 173.685C771.715 170.246 770.572 167.191 768.497 164.385C767.915 163.597 767.799 162.444 767.528 161.445C767.159 160.1 766.558 158.947 765.686 157.814C764.406 156.142 763.456 154.22 763.456 152.011C763.456 151.434 763.398 150.8 764.038 150.531C764.736 150.224 765.492 150.185 766.112 150.704C766.481 151.011 766.83 151.377 767.101 151.78C769.486 155.393 772.239 158.698 773.848 162.886C775.457 167.056 777.261 171.111 778.075 175.511C778.54 178.047 779.548 180.507 779.8 183.043C780.091 186.098 780.731 189.134 780.634 192.209C780.518 195.667 780.886 199.126 780.712 202.585C780.46 207.792 780.789 213 780.266 218.226C779.936 221.512 780.091 224.855 779.238 228.103C779.18 228.333 779.161 228.602 779.18 228.833C779.568 231.561 778.56 234.271 778.889 236.98C779.122 238.863 778.463 240.669 778.23 242.476C777.823 245.608 778.482 248.72 778.017 251.833C777.532 255.081 777.571 258.386 776.931 261.652C776.543 263.689 776.873 265.86 776.873 267.974C776.873 268.704 776.912 269.434 776.815 270.145C776.311 273.431 776.776 276.755 776.582 280.022C776.407 283 776.33 285.94 776.388 288.919C776.466 293.184 776.563 297.45 776.427 301.697C776.33 304.617 776.117 307.538 776.427 310.42C776.737 313.13 777.222 315.82 777.396 318.587C777.629 322.487 777.261 326.35 776.912 330.212C776.66 332.883 776.95 335.535 776.873 338.186C776.834 339.55 776.601 340.915 776.601 342.241C776.601 345.392 775.884 348.486 775.903 351.637C775.962 355.979 775.981 360.303 774.779 364.588C773.868 367.835 773.325 371.217 772.976 374.58C772.569 378.711 773.383 382.785 774.1 386.839C774.546 389.298 775.516 391.662 775.477 394.237C775.477 394.832 775.865 395.447 776.039 396.081C776.64 398.291 775.903 399.463 773.654 399.867C770.998 400.366 768.342 400.866 765.686 401.346C764.794 401.5 763.902 401.442 762.991 401.346C762.196 401.27 761.343 401.02 760.625 401.596L760.664 401.654Z" fill="#1E6E67"/>
<path fill-rule="evenodd" clip-rule="evenodd" d="M703.914 31.1284C702.576 31.3205 701.937 32.0123 701.336 32.6272C699.532 34.491 697.4 35.9514 695.577 37.8153C693.541 39.9097 691.04 41.4277 688.52 42.9073C687.066 43.7527 685.534 43.6759 684.002 43.33C682.413 42.9841 681.521 41.543 681.986 40.0058C682.548 38.1419 682.897 36.2396 683.188 34.3373C683.285 33.6071 683.46 32.9154 683.925 32.3005C685.398 30.4366 686.251 28.2269 687.376 26.1709C687.861 25.2678 688.675 24.8258 689.121 24.0188C689.838 22.7314 690.75 21.5593 691.622 20.3679C693.619 17.6009 695.946 15.2375 698.66 13.1622C703.236 9.62665 708.16 6.66751 713.415 4.28484C716.769 2.76684 720.336 1.84451 724.02 1.46021C724.427 1.42178 724.834 1.40256 725.241 1.46021C726.211 1.63315 726.482 2.36332 726.676 3.20879C726.889 4.15033 726.133 4.34248 725.59 4.55385C724.291 5.05344 722.992 5.66833 721.635 5.82205C718.281 6.20635 715.334 7.57063 712.62 9.39606C710.371 10.8756 707.695 11.5866 705.64 13.3736C704.069 14.7379 702.111 15.6986 700.851 17.4472C700.405 18.0621 699.765 18.408 699.164 18.8307C698.427 19.3495 697.807 20.0028 697.38 20.8099C697.031 21.444 696.76 22.1933 696.217 22.6353C693.987 24.5184 693.076 27.3238 691.254 29.4375C689.955 30.9555 689.412 32.7617 688.578 34.4526C687.996 35.6247 687.803 36.7392 688.442 38.1419C689.955 36.8929 691.506 35.7785 692.824 34.4334C694.588 32.6272 696.353 30.8402 698.272 29.2069C699.416 28.2269 700.482 27.1893 701.782 26.363C702.344 25.9979 702.925 25.6905 703.546 25.5752C707.307 24.9603 708.044 25.6329 708.664 28.6496C708.994 30.3214 709.517 31.9546 709.711 33.6264C710.177 37.7 711.747 41.4277 713.104 45.2515C713.802 47.2307 714.539 49.1906 715.315 51.1314C717.273 56.0696 719.987 60.5468 723.244 64.7165C724.33 66.1192 725.164 67.714 726.405 69.0399C726.948 69.6163 727.238 70.4234 727.607 71.1535C727.956 71.8261 728.169 72.6139 727.607 73.1903C726.87 73.9013 726.153 73.4594 725.435 72.9213C723.283 71.3265 720.879 70.0391 719.444 67.618C718.669 66.3113 718.068 64.9278 717.079 63.6981C715.702 61.9495 714.345 60.1817 713.259 58.1641C712.019 55.8199 710.836 53.4372 709.75 51.0353C708.122 47.5189 707.075 43.8104 705.969 40.1019C705.523 38.6031 705.872 37.0274 705.194 35.5863C704.535 34.222 704.031 32.7809 703.992 31.09L703.914 31.1284Z" fill="#1E6E67"/>
<path fill-rule="evenodd" clip-rule="evenodd" d="M720.278 180.315C723.477 177.701 726.773 175.492 730.011 173.205C732.066 171.745 734.083 170.246 736.08 168.747C736.584 168.363 737.107 167.902 737.456 167.383C738.561 165.769 739.86 164.347 741.353 163.059C742.71 161.887 743.951 160.619 744.746 158.967C744.979 158.467 745.328 157.948 745.754 157.621C747.344 156.449 748.527 155.047 749.38 153.183C749.962 151.857 751.222 150.819 752.094 149.57C753.393 147.687 754.227 145.516 755.681 143.787C757.038 142.192 757.407 140.347 757.892 138.426C758.764 134.986 760.683 132.046 762.777 129.221C762.836 129.164 762.894 129.106 762.952 129.049C763.611 128.549 764.387 127.973 765.162 128.414C765.86 128.799 765.705 129.76 765.569 130.432C765.085 132.565 764.387 134.64 763.979 136.773C763.223 140.885 761.246 144.478 759.074 147.937C757.465 150.512 756.321 153.529 753.607 155.335C753.006 157.987 750.524 159.351 749.206 161.522C747.422 164.424 744.455 166.307 742.361 168.958C739.608 172.436 735.731 174.512 732.144 176.933C730.748 177.874 729.507 179.008 728.15 180.007C726.56 181.141 724.893 182.102 722.799 181.909C721.732 181.813 720.899 181.487 720.317 180.334L720.278 180.315Z" fill="#1E6E67"/>
<path fill-rule="evenodd" clip-rule="evenodd" d="M692.921 340.107C692.999 338.34 693.6 336.879 694.937 335.65C699.707 331.268 703.72 326.234 707.656 321.142C711.127 316.646 714.306 311.938 717.622 307.326C718.533 306.077 719.541 304.886 720.685 303.849C721.17 303.407 721.674 303.272 722.236 303.656C722.721 303.983 722.682 304.463 722.527 304.963C722.042 306.673 721.81 308.46 720.705 309.959C718.998 312.284 718.106 315.051 716.478 317.472C715.664 318.683 714.539 319.605 713.763 320.854C711.476 324.447 708.432 327.483 705.911 330.923C703.701 333.939 700.579 336.13 697.787 338.628C696.236 340.011 695.519 340.05 692.902 340.127L692.921 340.107Z" fill="#1E6E67"/>
<path fill-rule="evenodd" clip-rule="evenodd" d="M688.326 47.4614C688.035 48.3261 687.628 49.4598 687.279 50.5935C686.465 53.2259 685.534 55.7623 683.518 57.7991C682.723 58.6254 681.947 59.4132 680.978 60.0473C678.574 61.5845 676.829 63.8903 674.483 65.5236C673.067 66.5228 673.067 69.309 674.153 70.9999C674.463 71.4803 674.89 71.8646 675.239 72.3066C675.801 72.9983 675.549 73.7093 675.239 74.3626C674.851 75.1888 674.134 74.8045 673.533 74.67C670.275 73.9014 667.387 70.3658 667.949 67.1953C668.201 65.8119 668.492 64.1017 670.082 63.0833C671.904 61.9112 673.591 60.5085 674.871 58.683C675.084 58.3756 675.472 58.145 675.801 57.9529C678.826 56.1466 680.978 53.591 682.51 50.459C683.052 49.3637 683.673 48.3069 684.274 47.2692C684.642 46.6159 685.127 46.0779 685.786 45.7128C687.376 44.8289 688.307 45.3669 688.326 47.4614Z" fill="#1E6E67"/>
<path fill-rule="evenodd" clip-rule="evenodd" d="M772.646 130.029C773.131 122.573 773.984 115.176 776.873 108.181C777.59 106.452 778.443 104.799 779.258 103.128C779.393 102.839 779.607 102.57 779.781 102.301C780.208 101.61 780.828 101.264 781.642 101.456C782.534 101.667 782.767 102.455 782.709 103.166C782.592 104.588 782.631 106.202 781.991 107.393C780.615 109.949 780.537 112.851 779.51 115.464C777.997 119.268 778.172 123.38 777.358 127.32C777.319 127.55 777.299 127.819 777.358 128.05C778.036 130.548 777.086 133.007 777.222 135.486C777.222 135.889 777.299 136.37 777.125 136.677C776.737 137.35 776.446 138.253 775.438 138.195C774.508 138.138 773.693 137.792 773.364 136.773C772.685 134.583 772.491 132.335 772.646 130.048V130.029Z" fill="#1E6E67"/>
<path fill-rule="evenodd" clip-rule="evenodd" d="M720.355 35.5089C720.414 34.8556 720.355 34.356 720.491 33.8949C720.666 33.2608 720.336 32.1847 721.364 32.1655C722.294 32.1463 723.07 32.7419 723.264 33.7411C723.613 35.5858 724.446 37.2575 724.951 39.0445C726.23 43.5024 728.305 47.6145 730.166 51.8418C731.077 53.917 732.337 55.8193 733.074 57.9714C733.578 59.451 734.858 60.4694 735.672 61.776C735.944 62.1988 736.312 62.5446 735.982 63.0634C735.672 63.5438 735.149 63.5246 734.664 63.4862C733.617 63.4093 732.861 62.8136 732.085 62.218C729.08 59.989 727.471 56.7609 725.881 53.5904C723.322 48.4984 721.189 43.2526 720.53 37.5265C720.452 36.7963 720.394 36.0662 720.355 35.5089Z" fill="#1E6E67"/>
<path fill-rule="evenodd" clip-rule="evenodd" d="M719.328 168.478C718.727 168.401 718.494 168.401 718.242 168.363C716.943 168.152 716.652 167.633 717.544 166.634C718.998 165 720.511 163.386 722.139 161.907C724.078 160.158 725.881 158.294 727.665 156.373C729.739 154.144 732.221 152.434 734.8 150.858C735.207 150.608 735.614 150.281 736.138 150.666C736.584 151.012 736.7 151.511 736.622 151.972C736.467 152.952 736.06 153.855 735.362 154.566C733.288 156.603 731.523 158.832 729.798 161.176C728.363 163.117 726.153 164.501 724.233 166.096C723.555 166.653 722.74 167.095 722.004 167.575C721.092 168.152 720.162 168.69 719.367 168.459L719.328 168.478Z" fill="#1E6E67"/>
<path fill-rule="evenodd" clip-rule="evenodd" d="M720.937 286.267C721.79 287.977 721.286 289.264 720.142 290.686C717.583 293.837 714.927 296.893 712.115 299.794C710.274 301.677 708.005 302.965 705.523 303.848C704.535 304.214 703.623 303.906 702.441 303.099C703.604 302.061 704.67 301.062 705.775 300.121C709.731 296.7 713.143 292.742 716.807 289.034C717.99 287.842 719.095 286.478 720.957 286.267H720.937Z" fill="#1E6E67"/>
<path fill-rule="evenodd" clip-rule="evenodd" d="M716.866 183.389C717.854 183.332 718.552 183.716 719.115 184.35C720.22 185.618 719.968 186.483 718.32 186.983C717.777 187.136 717.195 187.194 716.633 187.348C715.45 187.655 714.481 188.193 713.589 189.154C711.417 191.537 709.033 193.67 705.892 194.861C704.593 195.361 703.488 194.957 702.421 194.65C701.297 194.342 701.335 193.055 702.421 192.286C703.662 191.402 704.922 190.518 706.183 189.673C707.54 188.77 708.858 187.867 709.769 186.464C710.312 185.638 711.127 185.176 712.057 184.773C713.647 184.081 715.314 183.831 716.846 183.389H716.866Z" fill="#1E6E67"/>
<path fill-rule="evenodd" clip-rule="evenodd" d="M682.005 95.2103C681.288 95.2872 680.532 95.3064 680.241 94.4225C679.911 93.4041 680.59 92.9045 681.385 92.5971C683.246 91.9053 684.468 90.5795 685.243 88.8309C685.612 88.0046 685.418 87.2937 684.429 87.2937C683.362 87.2937 682.587 86.698 681.714 86.3137C681.075 86.0447 680.842 85.3914 680.997 84.6612C681.133 83.9695 681.695 83.8157 682.277 83.7197C684.623 83.2969 686.794 84.0463 688.946 84.7189C690.071 85.0647 690.478 86.0447 690.381 87.2553C690.11 91.1367 685.941 95.1527 682.025 95.2295L682.005 95.2103Z" fill="#1E6E67"/>
<path fill-rule="evenodd" clip-rule="evenodd" d="M741.993 49.9397C739.55 50.9196 737.98 50.593 736.448 48.8444C736.08 48.4217 735.634 48.0181 735.382 47.5378C733.986 44.8284 731.543 42.7148 730.884 39.6211C730.651 38.5259 729.992 37.2384 731.116 36.4698C732.376 35.5859 733.133 37.0271 733.986 37.642C734.49 38.0071 734.858 38.6027 735.227 39.1408C736.971 41.6579 738.426 44.3865 740.481 46.7115C741.276 47.6338 741.625 48.8252 742.012 49.9781L741.993 49.9397Z" fill="#1E6E67"/>
<path fill-rule="evenodd" clip-rule="evenodd" d="M698.098 58.3374C697.904 60.182 697.555 62.0651 695.829 63.3525C694.278 64.5054 693.348 64.2748 692.688 62.507C691.796 60.1244 692.262 57.9146 693.755 55.897C694.375 55.0708 695.151 54.4559 696.236 54.7057C697.438 54.9747 697.884 55.897 698.001 57.0307C698.04 57.4342 698.059 57.8378 698.098 58.3566V58.3374Z" fill="#1E6E67"/>
<path fill-rule="evenodd" clip-rule="evenodd" d="M699.397 42.4463C701.2 42.5231 702.518 42.6961 703.759 43.4263C704.651 43.9451 705.058 44.6176 705.194 45.5207C705.291 46.174 705.213 46.8658 704.612 47.2885C703.934 47.7689 703.352 47.3846 702.887 46.9042C701.394 45.4439 699.494 45.4823 697.613 45.3862C696.818 45.3478 696.12 45.3478 696.081 44.3102C696.043 43.2341 696.45 42.6 697.613 42.5808C698.35 42.5808 699.087 42.4847 699.397 42.4655V42.4463Z" fill="#1E6E67"/>
<path fill-rule="evenodd" clip-rule="evenodd" d="M745.832 139.079C745.444 140.155 744.959 141.269 744.184 142.211C743.098 143.537 741.721 144.555 740.403 145.651C739.841 146.112 739.24 146.265 738.639 145.747C738.096 145.285 738.27 144.69 738.542 144.19C739.705 142.019 741.508 140.366 743.253 138.656C743.738 138.195 744.455 138.176 745.095 138.214C745.522 138.253 745.851 138.483 745.832 139.079Z" fill="#1E6E67"/>
<path fill-rule="evenodd" clip-rule="evenodd" d="M680.551 74.2275C680.59 74.9769 680.163 75.3228 679.368 75.3612C678.244 75.3997 677.352 74.535 677.352 73.4013C677.352 72.6327 677.72 72.21 678.554 72.21C679.737 72.21 680.551 72.9786 680.571 74.2468L680.551 74.2275Z" fill="#1E6E67"/>
<path d="M750.136 92.7895C748.604 92.8279 747.79 93.5773 747.868 94.7878C747.926 95.5949 749.012 96.3058 750.059 96.229C750.931 96.1521 751.532 95.3643 751.474 94.2882C751.416 93.4428 751.241 92.6357 750.136 92.7895Z" fill="#1E6E67"/>
<path d="M761.168 90.6566C760.722 89.3307 759.83 88.4468 759.035 87.4477C755.468 83.0474 752.405 78.2436 748.275 74.3045C745.968 72.0948 743.466 70.0195 739.841 71.2877C737.844 71.9795 735.963 73.0555 734.47 74.4198C732.609 76.1299 730.67 77.8785 729.1 79.9153C728.479 80.7224 727.878 80.8377 726.87 80.1459C725.435 79.1659 721.616 79.5887 720.898 80.78C720.162 82.029 718.863 82.9513 718.552 84.3732C718.262 85.6991 717.312 86.3716 716.303 86.7367C713.221 87.8896 711.069 90.1186 709.614 92.7895C708.509 94.8455 707.559 96.8631 705.892 98.5732C704.961 99.5148 704.632 101.014 703.682 102.032C702.654 103.146 702.072 104.453 701.878 105.952C701.685 107.393 700.948 108.719 699.804 109.411C698.447 110.237 697.749 111.428 696.702 113.158C696.682 111.563 696.081 110.775 694.996 110.41C692.533 109.584 690.11 108.584 687.589 107.989C681.715 106.644 679.117 102.128 678.205 97.4203C677.313 92.7126 677.468 87.8896 678.089 83.1243C678.244 81.8945 677.914 80.8953 677.255 79.9345C676.829 79.3197 676.325 78.7048 675.491 78.7816C674.735 78.8777 674.56 79.6271 674.347 80.2228C673.513 82.5286 673.087 84.892 672.815 87.3516C672.369 91.406 672.815 95.4027 673.436 99.3418C673.998 102.877 676.577 105.568 679.136 107.796C680.881 109.314 683.149 110.487 685.437 111.447C687.415 112.274 689.528 112.427 691.486 113.158C692.979 113.734 694.414 114.464 696.12 114.041C696.314 115.367 695.694 116.29 695.442 117.289C695.286 117.923 695.015 118.499 695.093 119.172C695.345 121.209 694.685 123.207 694.278 125.09C693.735 127.646 693.464 130.278 692.94 132.834C692.242 136.293 691.758 139.828 691.04 143.306C690.75 144.728 690.633 146.4 689.896 147.476C688.326 149.839 687.802 152.702 686.019 154.835C685.011 156.046 685.088 157.698 684.061 158.659C682.199 160.408 681.598 162.809 680.416 164.904C680.008 165.615 679.659 166.364 679.233 167.037C677.158 170.265 675.026 173.455 673.339 176.913C672.117 179.431 670.411 181.717 669.17 184.234C668.24 186.098 667.212 187.981 666.029 189.595C664.808 191.248 663.916 193.093 662.947 194.822C661.783 196.878 660.29 198.742 659.418 200.99C658.991 202.047 657.964 202.892 657.712 204.141C657.595 204.679 657.072 205.025 656.374 205.083C654.997 202.45 653.931 199.645 652.496 197.012C651.352 194.899 651.178 192.593 651.818 190.172C652.341 188.212 652.71 186.156 652.651 184.177C652.593 182.524 652.651 180.968 653.078 179.392C653.155 179.065 653.272 178.796 653.194 178.451C652.283 175.049 652.496 171.514 651.934 168.074C651.701 166.633 651.701 165.077 650.887 163.866C648.774 160.715 646.04 158.352 641.891 158.582C640.553 158.659 639.913 158.159 639.332 156.93C637.955 153.932 636.598 150.915 635.551 147.783C634.853 145.67 633.515 143.921 632.72 141.903C631.867 139.732 630.995 137.599 630.006 135.466C628.203 131.642 626.303 127.896 623.918 124.398C622.018 121.593 619.148 120.382 615.93 121.228C614.96 121.478 614.359 121.977 614.03 122.919C613.39 124.821 613.293 126.743 613.681 128.683C614.282 131.719 615.212 134.659 616.298 137.561C617.636 141.116 619.051 144.632 620.215 148.244C620.699 149.762 621.262 151.28 621.688 152.856C622.037 154.086 621.611 154.393 620.719 154.854C619.943 155.277 618.838 155.296 618.412 156.123C617.306 158.275 615.523 159.773 613.797 161.349C613.429 161.695 613.138 162.06 612.983 162.54C612.207 165.096 610.365 167.075 609.183 169.4C608.078 171.552 607.787 173.647 608.058 175.876C608.64 180.795 610.307 185.445 612.188 189.98C613.196 192.439 614.592 194.783 616.608 196.59C618.916 198.626 621.552 200.279 623.821 202.373C624.461 202.95 625.353 203.257 626.128 203.699C626.69 204.026 627.194 204.333 627.485 205.025C628.746 208.176 630.141 211.27 631.499 214.402C632.294 216.228 632.972 218.187 633.786 219.994C635.318 223.376 636.869 226.757 638.285 230.197C638.808 231.465 639.564 232.656 640.417 233.733C641.29 234.847 642.86 234.501 643.267 233.156C643.481 232.484 643.655 231.619 643.403 231.004C642.434 228.679 642.143 226.143 640.96 223.875C639.584 221.223 638.149 218.572 637.257 215.69C636.986 214.844 636.83 213.941 636.443 213.153C635.008 210.348 633.651 207.504 632.74 204.468C632.313 203.084 631.479 201.816 630.335 201.201C628.241 200.106 626.4 198.723 624.48 197.397C621.843 195.571 619.323 193.784 618.082 190.652C617.655 189.576 616.686 188.692 616.86 187.347C617.985 187.136 619.013 187.539 620.06 187.501C621.843 187.443 622.347 187.021 622.638 185.272C622.696 184.965 622.561 184.619 623.104 184.407C626.283 184.792 628.862 183.831 630.122 180.468C630.704 178.912 630.743 178.912 632.623 179.238C632.138 181.967 632.158 183.12 632.701 184.254C633.03 184.926 633.457 185.637 634.291 185.56C634.95 185.503 634.989 184.734 635.163 184.215C636.268 181.064 637.354 177.913 639.603 175.319C640.01 174.838 640.223 174.185 640.456 173.589C641.115 171.879 640.766 170.784 639.157 169.919C638.304 169.458 637.47 168.92 636.481 168.709C635.939 168.593 635.415 168.305 634.911 168.036C633.282 167.152 633.069 165.634 633.147 164.039C633.205 162.464 634.717 162.31 635.667 162.175C637.994 161.868 640.379 161.695 642.705 162.348C644.915 162.982 646.117 164.385 646.35 166.672C646.583 168.92 647.009 171.149 647.184 173.397C647.378 175.991 647.649 178.527 647.242 181.198C646.641 185.157 646.68 189.211 646.195 193.189C646.137 193.746 646.273 194.265 646.35 194.803C646.777 197.531 648.483 199.664 649.588 202.085C650.887 204.871 652.787 206.793 656.607 205.486C655.792 207.062 655.463 208.388 654.571 209.445C652.089 212.385 651.062 216.151 648.812 219.206C648.677 219.398 648.541 219.648 648.541 219.878C648.58 221.396 647.804 222.703 647.358 224.087C645.904 228.698 645.167 233.425 645.206 238.248C645.206 241.111 645.943 243.878 647.261 246.453C649.607 251.045 653.504 254.101 657.77 256.771C658.255 257.079 658.797 257.31 659.34 257.463C661.628 258.097 663.916 258.731 666.204 259.327C668.123 259.827 670.023 260.096 672.02 259.654C673.707 259.269 675.471 259.135 676.499 261.076C676.674 261.402 677.1 261.614 677.468 261.806C681.598 263.958 685.844 263.362 690.013 262.075C692.32 261.364 694.588 260.557 696.915 259.923C700.308 259.02 703.875 259.058 707.191 257.771C711.049 256.272 714.907 254.888 718.475 252.64C721.131 250.969 723.613 248.759 726.928 248.125C727.607 247.99 728.208 247.433 728.828 247.049C729.391 246.703 729.856 246.165 730.457 245.992C733.637 245.05 736.312 243.129 739.143 241.553C741.915 240.016 744.824 238.767 747.422 236.922C748.546 236.134 749.205 235.039 749.69 233.867C750.039 233.022 749.535 232.484 748.566 232.484C747.538 232.484 746.627 232.81 745.774 233.291C741.722 235.539 737.786 237.998 733.52 239.92C730.185 241.419 726.967 243.186 723.729 244.897C720.53 246.587 717.273 248.163 714.306 250.296C710.371 253.121 705.756 254.715 701.025 255.503C696.43 256.253 692.01 257.482 687.57 258.827C685.709 259.385 683.77 259.98 681.792 259.404C680.202 258.943 679.853 257.828 681.133 256.829C682.413 255.83 682.975 254.312 683.576 253.063C684.739 250.7 686.251 248.336 686.678 245.704C687.008 243.609 687.938 241.764 688.384 239.728C689.354 235.327 690.653 230.966 690.207 226.392C690.11 225.47 690.401 224.644 690.653 223.779C691.564 220.762 693.289 218.091 694.22 215.036C695.732 210.194 696.799 205.236 698.427 200.433C699.183 198.242 699.959 196.013 700.502 193.784C701.045 191.632 701.626 189.403 702.363 187.366C703.623 183.965 704.321 180.411 705.737 177.086C706.861 174.473 707.288 171.668 708.393 169.035C710.409 164.212 712.581 159.428 713.822 154.297C714.132 153.029 714.578 151.703 715.799 151.05C717.37 150.204 718.804 149.167 720.433 148.398C722.702 147.341 724.931 146.169 726.986 144.67C728.712 143.421 729.933 141.538 731.872 140.654C733.578 139.867 734.722 138.637 735.924 137.292C738.445 134.448 740.384 131.258 742.09 127.896C742.652 126.8 742.769 125.59 743.331 124.475C744.669 121.804 745.25 118.999 743.719 116.155C743.466 115.675 743.466 115.367 743.932 114.925C747.034 111.966 749.981 108.853 753.18 105.99C755.953 103.512 758.473 100.841 760.489 97.7085C761.944 95.4219 762.06 93.0969 761.187 90.5413L761.168 90.6566ZM616.88 183.197C614.224 181.487 612.963 178.969 612.944 175.857C612.944 175.338 612.944 174.627 613.7 174.531C614.301 174.454 614.495 174.973 614.67 175.434C615.232 176.76 616.259 177.836 616.511 179.354C616.628 180.122 617.151 180.891 617.888 181.314C618.935 181.89 619.129 182.851 619.4 183.831C618.295 184.407 617.578 183.658 616.88 183.216V183.197ZM625.062 180.065C624.286 180.641 623.433 181.006 622.444 180.122C621.669 179.411 620.758 178.854 620.35 177.816C619.168 174.723 617.83 171.668 617.326 168.363C617.112 167.037 617.093 165.711 617.597 163.866C618.315 165.077 618.916 165.749 619.148 166.537C619.73 168.555 620.99 170.265 621.455 172.321C621.921 174.377 623.608 175.664 625.004 177.125C625.643 177.797 625.74 179.565 625.062 180.065ZM629.928 161.003C627.931 163.002 627.233 165.999 628.959 168.17C630.335 169.9 631.518 171.917 633.883 172.648C634.717 172.897 634.717 173.512 634.329 174.204C634.077 174.646 633.748 174.973 633.282 175.184C631.596 175.914 628.862 174.953 627.815 173.359C626.109 170.784 624.519 168.17 623.666 165.173C623.239 163.693 622.871 162.195 622.91 160.619C622.948 159.255 623.452 158.736 624.81 158.563C625.139 158.524 625.469 158.64 625.798 158.601C627.253 158.39 627.892 157.66 627.989 156.161C628.067 154.989 627.757 153.894 627.33 152.837C626.264 150.3 625.294 147.745 624.577 145.055C624.015 142.903 622.735 140.923 621.804 138.848C620.156 135.14 619.187 131.201 618.063 127.319C617.888 126.723 618.043 126.032 618.043 125.129C619.517 126.205 620.428 127.473 621.242 128.779C623.239 131.911 624.713 135.351 626.264 138.675C627.854 142.057 629.599 145.42 630.878 148.975C632.022 152.222 633.399 155.412 634.756 158.813C632.895 159.389 631.266 159.639 629.928 160.965V161.003ZM738.173 124.591C738.018 124.86 737.708 125.109 737.65 125.417C737.204 128.664 734.432 130.605 733.016 133.333C732.124 135.063 730.205 136.446 728.479 137.561C726.385 138.906 724.795 140.75 722.934 142.307C722.178 142.941 721.461 143.537 720.549 143.959C717.544 145.381 714.578 146.919 711.592 148.36C710.894 148.706 710.371 149.109 710.099 149.858C708.858 153.279 707.462 156.622 706.473 160.119C705.95 161.964 704.864 163.616 704.263 165.461C703.236 168.632 701.782 171.725 700.987 174.896C700.172 178.124 698.679 181.045 697.788 184.215C697.439 185.483 697.264 186.752 696.876 188.039C695.946 191.113 694.782 194.111 693.91 197.224C692.921 200.682 692.378 204.295 690.866 207.6C690.148 209.156 690.052 210.867 689.586 212.5C688.578 216.112 686.736 219.34 685.263 222.722C684.468 224.567 683.595 226.392 682.471 228.102C681.385 229.755 681.753 230.677 683.712 231.215C684.603 231.465 684.759 231.946 684.526 232.618C683.634 235.193 684.08 238.114 682.568 240.554C681.579 242.149 681.656 244.09 681.21 245.838C680.338 249.297 678.031 251.91 676.693 255.061C676.363 255.83 675.704 255.945 675.103 255.964C670.799 256.022 666.475 256.541 662.326 254.639C657.964 252.64 654.358 249.739 652.012 245.723C650.674 243.455 649.84 240.727 649.956 237.845C650.092 234.559 650.131 231.331 650.965 228.045C651.624 225.489 653.175 223.433 653.815 220.935C654.668 217.611 657.169 215.132 658.681 212.154C660.542 208.541 662.791 205.121 664.905 201.643C666.301 199.299 667.154 196.763 668.55 194.457C669.636 192.67 671.032 191.113 672.214 189.384C673.804 187.097 674.89 184.58 676.111 182.14C676.945 180.449 678.496 179.334 679.097 177.509C679.911 175.03 681.656 173.032 682.936 170.822C683.944 169.112 684.991 167.383 685.864 165.576C686.6 164.02 687.783 162.675 688.462 161.022C688.985 159.716 690.013 158.64 690.323 157.141C690.575 155.873 691.661 154.97 692.339 153.874C693.735 151.665 694.647 149.244 695.79 146.938C696.702 145.112 697.012 142.903 697.167 140.827C697.458 137.215 698.001 133.641 698.544 130.048C699.087 126.57 700.308 123.188 700.211 119.575C700.192 118.442 700.909 117.27 701.336 116.136C701.471 115.752 701.917 115.425 701.898 115.079C701.82 112.639 703.585 111.543 705.33 110.506C706.066 110.064 706.299 109.545 706.415 108.776C706.687 107.086 706.726 107.105 707.889 105.894C708.218 107.278 707.734 108.661 708.141 110.006C708.335 110.621 708.393 111.274 708.626 111.889C708.819 112.427 709.13 112.927 709.847 112.869C710.72 112.792 710.855 112.158 710.894 111.486C711.185 108.008 711.65 104.53 711.708 101.052C711.747 98.0544 713.124 95.9023 715.373 93.5773C715.45 96.6901 715.14 99.4763 715.683 102.09C716.226 104.607 715.508 107.412 717.06 109.91C718.184 109.161 718.281 108.181 718.436 107.239C719.057 103.146 719.696 99.0536 720.278 94.9608C720.646 92.3667 721.383 89.888 722.042 87.3708C722.391 86.045 723.109 85.065 724.485 84.6422C725.222 85.9297 724.621 87.2171 724.757 88.4661C725.086 91.233 725.086 94.0192 725.416 96.767C725.765 99.8222 725.183 102.743 725.067 105.702C725.028 106.509 724.951 107.316 725.028 108.123C725.532 112.696 725.726 117.308 725.746 121.92C725.746 122.976 725.881 124.033 726.211 125.032C726.812 126.954 727.878 127.492 729.759 126.762C730.36 126.531 730.922 126.147 731.446 125.782C733.152 124.629 734.761 123.399 736.235 121.977C736.642 121.574 737.068 121.17 737.572 120.94C738.503 120.536 739.085 121.036 738.968 122.073C738.871 122.957 738.639 123.822 738.173 124.61V124.591ZM755.759 95.4988C754.111 98.8038 751.106 100.937 748.779 103.646C747.654 104.953 746.239 106.009 745.076 107.316C743.854 108.7 742.323 109.776 741.043 111.14C738.736 113.638 736.312 116.059 734.276 118.807C733.365 120.037 732.241 120.824 730.864 121.266C729.817 115.752 730.166 110.237 730.341 104.761C730.418 101.859 730.554 98.9767 730.612 96.0753C730.631 94.8455 730.185 93.6349 730.205 92.5012C730.263 90.3491 730.321 88.1971 730.282 86.045C730.282 85.9104 730.379 85.6414 730.457 85.6414C732.531 85.334 732.086 83.0858 733.268 82.0482C733.675 81.7023 733.792 81.049 734.47 80.9722C735.207 80.8761 735.478 80.2804 735.866 79.7616C737.262 77.8785 739.298 76.6872 741.121 75.2845C741.683 74.8425 742.323 74.8041 742.904 75.3229C743.505 75.8801 744.184 76.3605 744.727 76.9562C746.452 78.8585 748.12 80.8184 749.865 82.7015C750.563 83.4317 750.543 84.4693 751.261 85.2187C752.715 86.7367 754.033 88.3892 755.352 90.0225C757.097 92.1554 757.019 92.9624 755.759 95.4988Z" fill="#1E6E67"/>
<path fill-rule="evenodd" clip-rule="evenodd" d="M750.136 92.7895C751.241 92.6357 751.416 93.4428 751.474 94.2882C751.532 95.3643 750.931 96.1521 750.059 96.229C749.012 96.3058 747.926 95.5949 747.868 94.7878C747.79 93.5773 748.604 92.8087 750.136 92.7895Z" fill="#1E6E67"/>
<path opacity="0.4" fill-rule="evenodd" clip-rule="evenodd" d="M703.585 72.7864C703.003 74.6695 700.211 75.515 697.342 74.6695C694.472 73.8048 692.611 71.5759 693.173 69.6928C693.735 67.8097 696.547 66.9642 699.416 67.8289C702.286 68.6936 704.147 70.9226 703.585 72.8056V72.7864Z" fill="#E06765"/>
</g>
<defs>
<clipPath id="clip0_125_23075">
<rect width="248" height="257" fill="white"/>
</clipPath>
<clipPath id="clip1_125_23075">
<rect width="194" height="402" fill="white" transform="translate(608)"/>
</clipPath>
</defs>
</svg>
