<svg width="200" height="200" viewBox="0 0 200 200" fill="none" xmlns="http://www.w3.org/2000/svg">
<g clip-path="url(#clip0_129_28471)">
<mask id="path-1-inside-1_129_28471" fill="white">
<path fill-rule="evenodd" clip-rule="evenodd" d="M199.373 141.081C198.329 135.827 191.829 129.834 191.829 129.834L187.472 125.012L179.316 116.434L171.572 108.89L162.002 98.6771L160.145 96.0499C160.145 96.0499 158.404 92.7896 157.212 92.4203C156.03 92.0405 153.244 92.4203 153.244 92.4203C153.244 92.4203 149.151 89.2023 146.872 87.2609C144.582 85.3195 140.752 81.1413 140.752 81.1413L140.32 80.2339L141.955 71.4872L143.548 63.7744L143.337 57.792L142.651 51.1449C142.651 51.1449 140.868 45.7533 139.94 45.2785C139.011 44.8143 138.294 46.0065 138.294 46.0065L136.637 41.8705L134.443 41.5224L134.443 40.9632C134.443 40.9632 133.778 39.6654 132.786 39.7181C131.784 39.7603 131.109 40.9421 131.109 40.9421L130.264 40.8154C130.264 40.8154 129.336 40.9209 128.977 42.6935C128.629 44.4766 129.769 49.1929 129.769 49.1929L126.086 50.1003C126.086 50.1003 126.878 45.1835 126.878 43.8436C126.878 42.5036 127.701 37.5552 122.71 28.9456C117.73 20.336 108.561 18.4579 108.561 18.4579C108.561 18.4579 110.851 16.6959 111.188 10.5658C111.536 4.44619 105.332 1.08042 105.332 1.08042C105.332 1.08042 96.7967 -2.49637 92.3548 4.53059C87.9128 11.5575 93.642 18.5845 93.642 18.5845L89.8436 20.0933C89.8436 20.0933 86.8261 21.7287 84.5048 23.4063C82.1731 25.0839 79.3243 28.9456 76.7921 35.0018C74.2598 41.0581 75.1989 50.4696 75.1989 50.4696C75.1989 50.4696 74.7557 49.8049 72.9832 49.6466C71.2106 49.4883 70.7991 51.9362 70.7991 51.9362L70.1977 50.1741C70.1977 50.1741 70.1027 48.5388 70.4826 46.513C70.8624 44.4872 71.4744 42.9784 71.0945 41.3008C70.7147 39.6232 68.5939 40.1824 68.5939 40.1824C68.5939 40.1824 68.5939 38.8002 67.2118 38.8424C65.8296 38.8846 65.0594 40.826 65.0594 40.826L63.329 41.4907L61.356 44.5716L60.5752 44.255L59.6573 44.6665L57.2938 50.7439C57.2938 50.7439 56.1121 58.2668 56.3442 60.9467C56.5764 63.6267 60.0054 78.8201 59.6256 79.833C59.2352 80.8459 47.2071 91.5868 47.2071 91.5868C47.2071 91.5868 44.9703 90.9959 43.4615 90.901C41.9527 90.8166 40.6127 93.0428 40.4017 93.8447C40.1801 94.6466 38.5447 96.8939 38.5447 96.8939L30.4416 105.472L26.7382 109.608L23.805 112.414L17.812 118.038L12.3361 124.284L8.75929 128.062C8.75929 128.062 4.5811 131.427 2.41814 135.426C0.265741 139.435 -0.768255 144.743 0.656127 150.018C2.08051 155.294 5.57288 156.317 11.2177 157.499C16.8624 158.68 27.8988 155.642 27.8988 155.642L38.9351 151.675L49.581 146.895L56.7768 144.437L56.9034 145.323L57.2938 153.321L57.0406 157.541L58.0324 167.67L58.9398 181.376C58.9398 181.376 59.8471 192.929 59.8471 193.446C59.8471 193.963 59.2879 201.507 59.2879 203.322C59.2879 205.137 60.227 209.146 60.132 212.396C60.0371 215.645 60.227 220.288 60.227 220.288C60.227 220.288 80.3688 232.01 99.6033 232.01C118.838 232.01 139.739 220.847 139.739 220.847L139.824 219.412L140.119 210.918C140.119 210.918 140.889 204.968 140.942 203.638C140.995 202.309 140.773 201.655 140.467 197.508C140.161 193.362 140.773 188.287 140.773 188.287L141.512 176.343L142.071 168.799L142.894 159.873L143.2 155.779L143.284 147.718L143.622 145.872C143.622 145.872 154.31 149.881 163.236 153.669C172.162 157.457 180.519 158.586 184.359 158.775C188.189 158.965 193.496 158.28 196.947 155.568C200.397 152.856 200.45 146.346 199.405 141.081L199.373 141.081ZM88.166 97.8541C86.4462 99.194 85.0007 100.291 83.5974 101.04C82.1942 101.79 80.1473 101.6 80.1473 101.6L76.9187 98.5821L76.0957 98.4977L72.2129 99.711L70.873 101.04L69.1004 101.768L60.1848 102.539L59.0242 99.711C59.0242 99.711 75.1883 84.0323 76.3911 79.622C77.6045 75.2116 77.2141 69.3664 77.2141 69.3664L76.5283 65.6208C76.5283 65.6208 78.2903 68.2058 79.4615 68.248C80.6326 68.2902 82.1309 67.6888 82.1309 67.6888C82.1309 67.6888 83.9878 72.4789 85.6232 74.6313C87.2586 76.7837 88.989 78.6407 89.2844 79.9807C89.5904 81.3207 89.5904 89.3394 89.5904 89.3394C89.5904 89.3394 89.8964 96.5352 88.166 97.8752L88.166 97.8541ZM140.151 103.541L140.583 104.797L140.583 105.229L135.15 104.406L129.937 102.982C129.937 102.982 128.597 101.779 128.175 101.557C127.743 101.346 126.086 100.608 124.852 100.608C123.617 100.608 121.961 102.201 121.961 102.201L120.716 103.066C120.716 103.066 116.063 101.906 114.955 100.545C113.858 99.1835 112.929 98.2128 112.781 95.6595C112.634 93.1061 112.254 83.6524 112.781 81.4684C113.309 79.2843 116.611 73.5762 116.611 73.5762L119.682 67.6255C119.682 67.6255 120.505 68.1003 121.402 67.9315C122.309 67.7627 123.343 67.5938 123.343 67.5938C123.343 67.5938 122.826 69.4403 122.699 71.9831C122.573 74.5258 122.573 79.0733 123.944 81.7216C125.316 84.3805 130.665 89.867 130.665 89.867L141.1 101.283L140.151 103.531L140.151 103.541Z"/>
</mask>
<path fill-rule="evenodd" clip-rule="evenodd" d="M199.373 141.081C198.329 135.827 191.829 129.834 191.829 129.834L187.472 125.012L179.316 116.434L171.572 108.89L162.002 98.6771L160.145 96.0499C160.145 96.0499 158.404 92.7896 157.212 92.4203C156.03 92.0405 153.244 92.4203 153.244 92.4203C153.244 92.4203 149.151 89.2023 146.872 87.2609C144.582 85.3195 140.752 81.1413 140.752 81.1413L140.32 80.2339L141.955 71.4872L143.548 63.7744L143.337 57.792L142.651 51.1449C142.651 51.1449 140.868 45.7533 139.94 45.2785C139.011 44.8143 138.294 46.0065 138.294 46.0065L136.637 41.8705L134.443 41.5224L134.443 40.9632C134.443 40.9632 133.778 39.6654 132.786 39.7181C131.784 39.7603 131.109 40.9421 131.109 40.9421L130.264 40.8154C130.264 40.8154 129.336 40.9209 128.977 42.6935C128.629 44.4766 129.769 49.1929 129.769 49.1929L126.086 50.1003C126.086 50.1003 126.878 45.1835 126.878 43.8436C126.878 42.5036 127.701 37.5552 122.71 28.9456C117.73 20.336 108.561 18.4579 108.561 18.4579C108.561 18.4579 110.851 16.6959 111.188 10.5658C111.536 4.44619 105.332 1.08042 105.332 1.08042C105.332 1.08042 96.7967 -2.49637 92.3548 4.53059C87.9128 11.5575 93.642 18.5845 93.642 18.5845L89.8436 20.0933C89.8436 20.0933 86.8261 21.7287 84.5048 23.4063C82.1731 25.0839 79.3243 28.9456 76.7921 35.0018C74.2598 41.0581 75.1989 50.4696 75.1989 50.4696C75.1989 50.4696 74.7557 49.8049 72.9832 49.6466C71.2106 49.4883 70.7991 51.9362 70.7991 51.9362L70.1977 50.1741C70.1977 50.1741 70.1027 48.5388 70.4826 46.513C70.8624 44.4872 71.4744 42.9784 71.0945 41.3008C70.7147 39.6232 68.5939 40.1824 68.5939 40.1824C68.5939 40.1824 68.5939 38.8002 67.2118 38.8424C65.8296 38.8846 65.0594 40.826 65.0594 40.826L63.329 41.4907L61.356 44.5716L60.5752 44.255L59.6573 44.6665L57.2938 50.7439C57.2938 50.7439 56.1121 58.2668 56.3442 60.9467C56.5764 63.6267 60.0054 78.8201 59.6256 79.833C59.2352 80.8459 47.2071 91.5868 47.2071 91.5868C47.2071 91.5868 44.9703 90.9959 43.4615 90.901C41.9527 90.8166 40.6127 93.0428 40.4017 93.8447C40.1801 94.6466 38.5447 96.8939 38.5447 96.8939L30.4416 105.472L26.7382 109.608L23.805 112.414L17.812 118.038L12.3361 124.284L8.75929 128.062C8.75929 128.062 4.5811 131.427 2.41814 135.426C0.265741 139.435 -0.768255 144.743 0.656127 150.018C2.08051 155.294 5.57288 156.317 11.2177 157.499C16.8624 158.68 27.8988 155.642 27.8988 155.642L38.9351 151.675L49.581 146.895L56.7768 144.437L56.9034 145.323L57.2938 153.321L57.0406 157.541L58.0324 167.67L58.9398 181.376C58.9398 181.376 59.8471 192.929 59.8471 193.446C59.8471 193.963 59.2879 201.507 59.2879 203.322C59.2879 205.137 60.227 209.146 60.132 212.396C60.0371 215.645 60.227 220.288 60.227 220.288C60.227 220.288 80.3688 232.01 99.6033 232.01C118.838 232.01 139.739 220.847 139.739 220.847L139.824 219.412L140.119 210.918C140.119 210.918 140.889 204.968 140.942 203.638C140.995 202.309 140.773 201.655 140.467 197.508C140.161 193.362 140.773 188.287 140.773 188.287L141.512 176.343L142.071 168.799L142.894 159.873L143.2 155.779L143.284 147.718L143.622 145.872C143.622 145.872 154.31 149.881 163.236 153.669C172.162 157.457 180.519 158.586 184.359 158.775C188.189 158.965 193.496 158.28 196.947 155.568C200.397 152.856 200.45 146.346 199.405 141.081L199.373 141.081ZM88.166 97.8541C86.4462 99.194 85.0007 100.291 83.5974 101.04C82.1942 101.79 80.1473 101.6 80.1473 101.6L76.9187 98.5821L76.0957 98.4977L72.2129 99.711L70.873 101.04L69.1004 101.768L60.1848 102.539L59.0242 99.711C59.0242 99.711 75.1883 84.0323 76.3911 79.622C77.6045 75.2116 77.2141 69.3664 77.2141 69.3664L76.5283 65.6208C76.5283 65.6208 78.2903 68.2058 79.4615 68.248C80.6326 68.2902 82.1309 67.6888 82.1309 67.6888C82.1309 67.6888 83.9878 72.4789 85.6232 74.6313C87.2586 76.7837 88.989 78.6407 89.2844 79.9807C89.5904 81.3207 89.5904 89.3394 89.5904 89.3394C89.5904 89.3394 89.8964 96.5352 88.166 97.8752L88.166 97.8541ZM140.151 103.541L140.583 104.797L140.583 105.229L135.15 104.406L129.937 102.982C129.937 102.982 128.597 101.779 128.175 101.557C127.743 101.346 126.086 100.608 124.852 100.608C123.617 100.608 121.961 102.201 121.961 102.201L120.716 103.066C120.716 103.066 116.063 101.906 114.955 100.545C113.858 99.1835 112.929 98.2128 112.781 95.6595C112.634 93.1061 112.254 83.6524 112.781 81.4684C113.309 79.2843 116.611 73.5762 116.611 73.5762L119.682 67.6255C119.682 67.6255 120.505 68.1003 121.402 67.9315C122.309 67.7627 123.343 67.5938 123.343 67.5938C123.343 67.5938 122.826 69.4403 122.699 71.9831C122.573 74.5258 122.573 79.0733 123.944 81.7216C125.316 84.3805 130.665 89.867 130.665 89.867L141.1 101.283L140.151 103.531L140.151 103.541Z" fill="white" stroke="#005671" stroke-width="2" mask="url(#path-1-inside-1_129_28471)"/>
<path fill-rule="evenodd" clip-rule="evenodd" d="M139.612 162.437C138.472 162.88 137.47 162.395 136.489 162.268C131.488 161.645 126.476 161.139 121.443 160.738C107.178 159.599 92.8921 159.947 78.6167 160.063C73.4361 160.105 68.2345 160.158 63.0751 160.759C62.6847 160.801 62.2837 160.833 61.9039 160.78C61.4502 160.706 60.6589 161.128 60.6167 160.4C60.5745 159.746 61.4608 159.883 61.8723 159.841C64.7843 159.504 67.7069 159.145 70.6296 159.039C74.3963 158.913 78.1524 158.744 81.9191 158.67C88.7562 158.533 95.6038 158.354 102.441 158.533C107.843 158.67 113.245 158.892 118.637 159.261C125.094 159.704 131.519 160.422 137.882 161.561C138.515 161.677 139.105 161.846 139.601 162.437L139.612 162.437Z" fill="#00ABDF"/>
<path fill-rule="evenodd" clip-rule="evenodd" d="M96.3531 123.62C101.481 123.472 107.052 123.757 112.612 124.189C118.974 124.685 125.326 125.34 131.625 126.416C133.82 126.785 136.035 126.975 138.24 127.249C138.525 127.291 138.81 127.323 139.085 127.408C139.422 127.513 139.918 127.545 139.823 128.083C139.707 128.758 139.222 128.304 138.926 128.283C134.653 127.977 130.422 127.302 126.17 126.774C122.372 126.3 118.542 126.015 114.722 125.656C107.105 124.939 99.4656 124.738 91.8267 124.949C85.5172 125.118 79.2077 125.361 72.9088 125.857C70.1655 126.078 67.4117 126.468 64.6473 126.215C64.2886 126.184 63.6767 126.416 63.7189 125.719C63.7505 125.245 64.2781 125.297 64.6262 125.266C67.7493 124.97 70.8619 124.633 73.985 124.432C81.2757 123.957 88.577 123.535 96.3425 123.62L96.3531 123.62Z" fill="#00ABDF"/>
<path fill-rule="evenodd" clip-rule="evenodd" d="M139.562 138.528C139.161 139.151 138.791 138.718 138.475 138.687C133.294 138.022 128.114 137.273 122.923 136.671C119.525 136.281 116.107 136.102 112.688 135.838C100.628 134.899 88.5581 135.363 76.4772 135.363C73.5441 135.363 70.6109 135.606 67.6777 135.542C66.8969 135.532 66.1162 135.395 65.3354 135.31C65.0294 135.268 64.7234 135.131 64.7656 134.762C64.8078 134.329 65.1877 134.202 65.5148 134.308C66.9497 134.804 68.3741 134.371 69.809 134.329C80.6027 134.002 91.3963 133.833 102.19 134.076C108.077 134.202 113.965 134.625 119.842 135.268C125.655 135.912 131.427 136.777 137.209 137.663C138.011 137.79 138.812 138.022 139.551 138.528L139.562 138.528Z" fill="#00ABDF"/>
<path fill-rule="evenodd" clip-rule="evenodd" d="M139.814 148.942C138.527 149.649 137.292 149.216 136.1 149.037C131.215 148.309 126.298 147.929 121.381 147.507C110.957 146.61 100.522 146.294 90.0767 146.568C81.6465 146.79 73.2162 146.568 64.7965 146.758C63.6254 146.79 62.4753 146.969 61.3464 147.233C61.0509 147.296 60.6183 147.697 60.4706 147.127C60.3651 146.726 60.7555 146.558 61.1353 146.463C62.6547 146.083 64.1951 145.798 65.7672 145.713C74.0497 145.26 82.3534 145.671 90.6359 145.386C96.0063 145.207 101.356 145.418 106.705 145.492C112.677 145.576 118.638 146.062 124.589 146.705C129.179 147.201 133.768 147.623 138.284 148.573C138.801 148.678 139.308 148.815 139.814 148.942Z" fill="#00ABDF"/>
<path fill-rule="evenodd" clip-rule="evenodd" d="M131.669 184.014C130.519 184.52 129.253 184.615 128.039 184.668C121.076 184.963 114.112 184.858 107.159 184.488C104.616 184.351 102.052 184.478 99.499 184.393C91.1004 184.13 82.7018 184.446 74.3138 184.52C70.5999 184.552 66.8754 184.657 63.1509 184.699C62.8027 184.699 62.4545 184.699 62.1169 184.647C61.8003 184.583 61.5682 184.351 61.6104 184.003C61.6632 183.592 61.9692 183.433 62.3595 183.454C70.9164 184.024 79.4521 183.075 88.009 183.043C94.846 183.011 101.673 183.106 108.499 183.391C115.294 183.676 122.089 183.782 128.884 183.687C129.812 183.676 130.74 183.687 131.669 183.687C131.669 183.803 131.669 183.908 131.669 184.024L131.669 184.014Z" fill="#00ABDF"/>
<path fill-rule="evenodd" clip-rule="evenodd" d="M138.442 173.094C137.577 173.895 136.574 173.758 135.593 173.716C132.48 173.579 129.378 173.452 126.266 173.252C121.349 172.946 116.443 172.566 111.526 172.271C109.194 172.133 106.852 172.049 104.52 172.017C97.5039 171.901 90.477 171.827 83.4605 172.028C77.8791 172.186 72.287 172.144 66.7056 172.218C65.1862 172.239 63.6775 172.155 62.1792 171.965C61.8416 171.922 61.3879 171.975 61.4195 171.49C61.4406 171.057 61.8732 171.194 62.1476 171.184C62.8439 171.163 63.5297 171.163 64.2261 171.184C71.8123 171.353 79.3879 170.962 86.9635 170.846C91.511 170.783 96.0584 170.604 100.606 170.751C106.567 170.931 112.529 171.068 118.479 171.659C122.647 172.07 126.846 172.207 131.024 172.503C133.504 172.672 135.983 172.893 138.452 173.094L138.442 173.094Z" fill="#00ABDF"/>
<path fill-rule="evenodd" clip-rule="evenodd" d="M62.0645 195.725C62.5498 195.219 63.0035 195.377 63.4044 195.366C68.5533 195.261 73.7022 195.271 78.8511 195.06C87.2075 194.702 95.5638 194.744 103.92 194.966C111.327 195.155 118.723 195.039 126.13 195.092C128.114 195.103 130.108 194.955 132.091 194.902C132.492 194.902 132.946 194.776 133.284 195.145C133.115 195.599 132.756 195.609 132.408 195.62C128.694 195.746 125.001 196.168 121.277 196.158C105.123 196.126 88.9695 196.126 72.8159 196.179C70.2626 196.179 67.7092 196.443 65.1559 196.358C64.143 196.327 63.0773 196.316 62.0645 195.725Z" fill="#00ABDF"/>
<path fill-rule="evenodd" clip-rule="evenodd" d="M123.375 115.126C126.667 115.126 129.937 115.548 133.208 116.107C134.854 116.392 136.5 116.54 138.146 116.941C138.748 117.089 139.317 117.331 139.834 117.827C139.961 117.943 140.066 118.154 139.961 118.365C139.919 118.471 139.739 118.513 139.655 118.481C137.534 117.711 135.361 117.637 133.198 117.374C131.689 117.184 130.191 116.814 128.682 116.73C126.424 116.593 124.166 116.308 121.898 116.403C121.444 116.424 120.99 116.276 120.537 116.192C120.241 116.139 119.787 116.297 119.84 115.59C119.893 114.979 120.326 115.137 120.631 115.137C121.549 115.126 122.467 115.137 123.385 115.137L123.375 115.126Z" fill="#00ABDF"/>
<path fill-rule="evenodd" clip-rule="evenodd" d="M58.8559 130.436C59.0352 124.77 58.0329 119.252 57.1782 113.712C57.0938 113.143 56.7984 112.436 57.5053 112.225C58.36 111.971 58.3494 112.921 58.4655 113.459C59.8793 120.032 60.9238 126.648 60.2591 133.453C60.0798 135.321 59.9743 137.209 59.6683 139.066C59.6155 139.394 59.5206 139.721 59.4151 140.037C59.2885 140.417 59.088 140.797 58.6659 140.691C58.2756 140.596 58.3178 140.174 58.3389 139.837C58.4233 138.581 58.4338 137.315 58.6343 136.08C58.9403 134.192 58.8137 132.303 58.8664 130.415L58.8559 130.436Z" fill="#00ABDF"/>
<path fill-rule="evenodd" clip-rule="evenodd" d="M63.3729 117.659C63.0247 117.659 62.6765 117.711 62.3389 117.638C62.0751 117.585 61.7164 117.511 61.7481 116.983C61.7692 116.488 62.0857 116.414 62.3811 116.424C63.9638 116.466 65.5148 116.118 67.0868 115.907C70.1572 115.485 73.217 115.042 76.2873 114.683C77.6906 114.514 79.115 114.335 80.5288 114.599C80.7504 114.641 81.0353 114.641 81.0564 115C81.0775 115.443 80.7715 115.348 80.5605 115.369C75.7914 115.854 71.054 116.762 66.3061 117.416C65.3354 117.553 64.3647 117.616 63.3835 117.711L63.3835 117.648L63.3729 117.659Z" fill="#00ABDF"/>
<path fill-rule="evenodd" clip-rule="evenodd" d="M4.6978 135.785C9.83613 136.376 14.9323 138.075 19.6274 141.018C20.5876 141.62 21.4422 142.369 21.9698 143.456C22.1702 143.867 22.2652 144.331 21.8221 144.595C21.4317 144.817 21.2945 144.352 21.0835 144.11C19.3215 142.105 16.9369 141.166 14.6474 140.1C11.3555 138.57 7.88421 137.663 4.34963 136.977C3.92759 136.893 3.47389 136.829 3.5372 136.239C3.58995 135.743 3.99089 135.69 4.68726 135.795L4.6978 135.785Z" fill="#00ABDF"/>
<path fill-rule="evenodd" clip-rule="evenodd" d="M35.0946 132.778C35.0946 133.306 35.0313 133.612 34.6831 133.675C34.2822 133.749 34.0922 133.39 33.9445 133.095C33.1215 131.428 32.1087 129.929 30.832 128.6C27.6245 125.297 23.9633 122.66 20.0911 120.307C19.764 120.106 19.1309 120.022 19.3314 119.494C19.5424 118.925 20.1016 119.178 20.5237 119.357C23.6784 120.739 26.4322 122.807 29.1016 124.992C31.254 126.743 33.3326 128.611 34.5459 131.28C34.7886 131.818 34.968 132.398 35.1051 132.789L35.0946 132.778Z" fill="#00ABDF"/>
<path fill-rule="evenodd" clip-rule="evenodd" d="M197.56 141.957C198.077 141.936 198.457 141.936 198.562 142.337C198.657 142.664 198.309 142.738 198.098 142.833C194.395 144.395 191.514 147.243 188.391 149.702C186.144 151.474 183.981 153.352 182.314 155.758C182.113 156.043 181.849 156.307 181.491 155.98C181.164 155.684 181.311 155.368 181.491 155.051C182.208 153.774 183.063 152.593 184.128 151.633C187.473 148.604 190.902 145.692 194.637 143.213C195.587 142.58 196.652 142.242 197.56 141.957Z" fill="#00ABDF"/>
<path fill-rule="evenodd" clip-rule="evenodd" d="M52.4513 112.489C52.4724 112.763 52.4513 112.974 52.2403 113.101C52.0293 113.238 51.8394 113.153 51.6811 112.995C51.5545 112.879 51.4279 112.763 51.3435 112.615C48.2942 107.35 43.7362 103.837 38.7773 100.798C38.6401 100.714 38.4818 100.629 38.3552 100.524C38.0914 100.323 38.007 100.038 38.1126 99.7219C38.2392 99.3315 38.5873 99.4054 38.8511 99.4476C39.1254 99.5003 39.3998 99.6375 39.653 99.7641C43.8839 101.969 47.5135 104.997 50.5522 108.775C51.4384 109.872 52.0504 111.149 52.4408 112.489L52.4513 112.489Z" fill="#00ABDF"/>
<path fill-rule="evenodd" clip-rule="evenodd" d="M27.8884 112.699C28.7008 113.1 29.566 113.417 30.3257 113.913C34.6094 116.762 38.1229 120.412 40.6551 125.055C40.6973 125.129 40.7501 125.192 40.7817 125.276C41.0033 125.74 41.3515 126.279 40.7606 126.637C40.2331 126.954 39.9693 126.405 39.7161 126.015C38.5449 124.126 37.2471 122.333 35.7911 120.687C33.4593 118.049 30.9798 115.58 27.709 114.208C27.3398 114.061 26.8439 113.902 26.9916 113.333C27.0971 112.942 27.4875 112.794 27.8884 112.71L27.8884 112.699Z" fill="#00ABDF"/>
<path fill-rule="evenodd" clip-rule="evenodd" d="M167.468 107.466C167.88 107.529 168.313 107.339 168.439 107.772C168.555 108.162 168.165 108.268 167.912 108.342C165.527 109.08 163.765 110.811 161.993 112.488C159.935 114.43 157.973 116.466 155.947 118.45C155.103 119.283 154.438 120.264 153.773 121.256C153.552 121.594 153.267 122.227 152.729 121.879C152.159 121.509 152.465 120.94 152.729 120.507C153.71 118.893 154.923 117.479 156.274 116.181C158.49 114.05 160.726 111.919 163.005 109.851C164.324 108.648 165.801 107.709 167.49 107.466L167.468 107.466Z" fill="#00ABDF"/>
<path fill-rule="evenodd" clip-rule="evenodd" d="M43.3042 93.9927C43.9267 94.2565 44.7602 94.5202 45.5199 94.9423C50.2151 97.6011 53.7602 101.516 56.5668 106.211C56.6512 106.358 56.725 106.517 56.7989 106.675C56.9571 107.034 57.1365 107.445 56.7039 107.698C56.3135 107.92 56.0181 107.646 55.7649 107.319C54.4882 105.62 53.2221 103.911 51.9032 102.254C49.4132 99.1205 46.4167 96.6515 42.8083 95.0689C42.5023 94.9317 42.0908 94.879 42.1858 94.4358C42.2807 93.9505 42.7239 93.9927 43.3042 94.0138L43.3042 93.9927Z" fill="#00ABDF"/>
<path fill-rule="evenodd" clip-rule="evenodd" d="M13.0753 127.197C13.74 127.492 14.5525 127.798 15.3227 128.199C18.8045 129.982 22.318 131.723 25.0823 134.709C26.2429 135.965 27.087 137.442 27.6884 139.077C27.815 139.404 28.1632 139.847 27.7201 140.111C27.2453 140.396 26.971 139.932 26.7705 139.541C25.3356 136.724 23.257 134.551 20.6931 132.852C18.3614 131.301 15.9346 129.919 13.4446 128.653C13.1492 128.505 12.8537 128.336 12.5689 128.167C12.3262 128.02 12.2523 127.777 12.3262 127.503C12.4106 127.186 12.6533 127.155 13.0753 127.186L13.0753 127.197Z" fill="#00ABDF"/>
<path fill-rule="evenodd" clip-rule="evenodd" d="M46.2792 118.175C46.2792 118.629 46.353 119.041 45.9204 119.136C45.5934 119.209 45.4245 118.925 45.2663 118.65C42.4492 113.786 38.06 110.79 33.6074 107.867C33.3964 107.73 33.1643 107.635 32.9533 107.508C32.6579 107.34 32.5629 107.076 32.679 106.749C32.795 106.453 33.0693 106.443 33.3015 106.464C34.1033 106.548 34.8103 106.939 35.4644 107.361C38.788 109.492 41.8689 111.94 44.5488 114.915C45.414 115.875 46.0787 116.941 46.2686 118.165L46.2792 118.175Z" fill="#00ABDF"/>
<path fill-rule="evenodd" clip-rule="evenodd" d="M22.1492 147.391C22.1281 147.803 21.896 147.908 21.6744 148.024C20.9781 148.415 20.2184 148.584 19.4693 148.837C15.2489 150.282 10.9652 151.569 7.05078 153.87C6.63929 154.112 6.04844 154.661 5.6686 153.901C5.29932 153.163 5.97458 152.836 6.45992 152.53C9.53026 150.62 12.8749 149.428 16.2512 148.278C17.7389 147.771 19.2372 147.328 20.7987 147.106C21.3157 147.033 21.7378 147.17 22.1387 147.381L22.1492 147.391Z" fill="#00ABDF"/>
<path fill-rule="evenodd" clip-rule="evenodd" d="M147.505 116.065C146.924 115.759 146.977 115.358 147.272 114.978C147.979 114.071 148.729 113.216 149.435 112.299C152.569 108.226 156.083 104.596 160.535 102.106C160.683 102.022 160.809 101.895 160.957 101.842C161.548 101.642 162.329 100.893 162.709 101.653C163.078 102.381 162.012 102.296 161.611 102.57C158.056 104.976 154.774 107.709 152.01 111.106C150.807 112.583 149.509 113.997 148.254 115.422C148.032 115.664 147.758 115.854 147.515 116.055L147.505 116.065Z" fill="#00ABDF"/>
<path fill-rule="evenodd" clip-rule="evenodd" d="M191.641 135.141C190.618 135.859 189.879 136.481 189.056 136.935C184.751 139.33 181.196 142.78 177.482 145.988C176.975 146.431 176.532 146.948 176.174 147.539C175.994 147.824 175.73 148.119 175.361 147.845C175.034 147.602 175.045 147.222 175.213 146.916C175.435 146.505 175.688 146.083 176.015 145.766C179.824 142.126 183.644 138.486 188.286 136.007C189.658 135.279 190.386 135.099 191.641 135.152L191.641 135.141Z" fill="#00ABDF"/>
<path fill-rule="evenodd" clip-rule="evenodd" d="M152.781 127.239C152.486 129.94 152.233 132.346 151.969 134.741C151.631 137.832 151.209 140.913 152.444 143.92C152.539 144.163 152.655 144.437 152.359 144.585C152.138 144.701 151.99 144.458 151.842 144.321C150.682 143.329 150.418 141.894 150.334 140.48C150.091 136.366 150.513 132.293 151.357 128.273C151.431 127.935 151.547 127.608 151.674 127.292C151.8 126.965 152.001 126.669 152.412 126.732C152.739 126.785 152.792 126.901 152.803 127.239L152.781 127.239Z" fill="#00ABDF"/>
<path fill-rule="evenodd" clip-rule="evenodd" d="M143.443 139.32C142.725 138.655 142.609 137.937 142.62 137.22C142.683 133.126 143.01 129.043 143.474 124.97C143.643 123.43 143.875 121.9 144.086 120.37C144.129 120.075 144.224 119.79 144.297 119.494C144.371 119.178 144.498 118.882 144.867 118.977C145.215 119.062 145.215 119.357 145.184 119.695C144.962 122.227 144.762 124.759 144.551 127.291C144.308 130.298 144.044 133.306 143.854 136.313C143.791 137.262 143.717 138.201 143.432 139.32L143.443 139.32Z" fill="#00ABDF"/>
<path fill-rule="evenodd" clip-rule="evenodd" d="M175.054 116.15C175.022 116.635 174.674 116.688 174.431 116.804C169.145 119.304 164.756 123.008 161.084 127.682C160.863 127.967 160.609 128.389 160.177 128.083C159.67 127.735 159.997 127.302 160.208 126.954C161.443 124.939 163.047 123.261 164.809 121.752C167.562 119.389 170.422 117.226 173.83 115.981C174.262 115.823 174.748 115.559 175.054 116.15Z" fill="#00ABDF"/>
<path fill-rule="evenodd" clip-rule="evenodd" d="M179.317 122.111C179.307 122.565 179.011 122.66 178.769 122.818C174.2 125.867 169.811 129.148 166.487 133.738C166.34 133.949 166.171 134.139 165.981 134.308C165.675 134.582 165.369 135.004 164.926 134.572C164.493 134.139 164.873 133.801 165.105 133.453C168.513 128.579 173.029 125.065 177.946 122.048C178.399 121.773 178.906 121.509 179.317 122.1L179.317 122.111Z" fill="#00ABDF"/>
<path fill-rule="evenodd" clip-rule="evenodd" d="M185.15 129.824C184.401 130.552 183.578 130.615 182.892 130.963C180.35 132.261 178.092 133.981 176.055 136.028C174.473 137.61 172.869 139.161 171.265 140.723C170.938 141.039 170.537 141.546 170.104 141.156C169.598 140.691 170.136 140.259 170.379 139.826C170.79 139.098 171.529 138.739 172.099 138.191C174.599 135.817 176.815 133.095 179.78 131.28C180.824 130.647 181.89 130.098 183.04 129.739C183.684 129.539 184.306 129.486 185.15 129.813L185.15 129.824Z" fill="#00ABDF"/>
<path fill-rule="evenodd" clip-rule="evenodd" d="M143.749 107.751C143.053 107.656 143.095 107.234 143.369 106.738C144.15 105.356 145.099 104.1 146.144 102.929C148.223 100.587 150.765 98.8988 153.392 97.3373C154.184 96.873 154.943 96.3455 155.724 95.8601C156.051 95.6597 156.431 95.4592 156.674 95.9551C156.895 96.4088 156.473 96.5038 156.22 96.7148C153.509 98.8355 150.449 100.418 147.98 102.898C146.756 104.132 145.669 105.483 144.667 106.918C144.424 107.255 144.213 107.656 143.749 107.751Z" fill="#00ABDF"/>
<path fill-rule="evenodd" clip-rule="evenodd" d="M53.0003 138.729C52.9265 139.457 52.8632 140.185 52.7893 140.913C52.7577 141.282 52.8421 141.799 52.2829 141.725C51.8292 141.662 51.7975 141.208 51.787 140.807C51.7342 139.647 51.7131 138.476 51.6498 137.315C51.4282 132.841 50.4154 128.558 49.2442 124.285C49.1492 123.926 48.8327 123.451 49.3075 123.272C49.8034 123.082 49.8245 123.715 49.9406 124.01C51.7975 128.716 52.8737 133.601 53.0003 138.718L53.0003 138.729Z" fill="#00ABDF"/>
<path fill-rule="evenodd" clip-rule="evenodd" d="M45.4778 142.126C45.4778 143.034 45.5306 143.941 45.4567 144.838C45.4251 145.218 45.3196 145.756 44.7287 145.693C44.1906 145.629 44.2856 145.165 44.2644 144.796C44.064 140.839 44.0112 136.872 42.6291 133.095C42.513 132.778 42.418 132.377 42.8506 132.23C43.2727 132.082 43.547 132.356 43.7475 132.715C44.6232 134.361 44.9292 136.197 45.2562 138.001C45.5095 139.362 45.5833 140.734 45.4673 142.116L45.4778 142.126Z" fill="#00ABDF"/>
<path fill-rule="evenodd" clip-rule="evenodd" d="M131.931 107.508C134.453 107.625 136.922 108.152 139.391 108.659C139.665 108.711 139.94 108.848 140.193 108.975C140.52 109.144 140.731 109.408 140.594 109.809C140.457 110.21 140.14 110.315 139.781 110.199C136.162 109.049 132.343 109.228 128.671 108.416C128.281 108.331 127.711 108.416 127.69 107.867C127.669 107.202 128.312 107.213 128.724 107.224C129.8 107.266 130.866 107.403 131.931 107.498L131.931 107.508Z" fill="#00ABDF"/>
<path fill-rule="evenodd" clip-rule="evenodd" d="M61.7575 108.88C61.5254 108.88 61.23 108.912 60.9557 108.88C60.713 108.849 60.4598 108.754 60.4492 108.416C60.4492 108.12 60.6075 107.92 60.8502 107.825C61.1983 107.688 61.5571 107.456 61.8947 107.466C64.5958 107.519 66.9275 106.042 69.4809 105.546C70.2933 105.388 71.1057 105.24 71.9076 105.071C72.3085 104.987 72.6884 104.955 72.8044 105.451C72.9099 105.915 72.4984 106.063 72.203 106.126C68.7001 106.865 65.3976 108.458 61.7575 108.901L61.7575 108.88Z" fill="#00ABDF"/>
<path fill-rule="evenodd" clip-rule="evenodd" d="M160.493 139.995C160.409 142.295 160.525 144.574 160.968 146.822C161.042 147.201 161.19 147.56 161.253 147.94C161.316 148.288 161.907 148.636 161.496 148.932C161.01 149.28 160.673 148.7 160.419 148.351C159.807 147.539 159.681 146.516 159.554 145.545C159.153 142.496 159.048 139.436 159.48 136.376C159.544 135.954 159.618 135.532 160.092 135.564C160.652 135.595 160.483 136.133 160.483 136.482C160.504 137.653 160.483 138.824 160.483 139.985L160.493 139.995Z" fill="#00ABDF"/>
<path fill-rule="evenodd" clip-rule="evenodd" d="M36.8355 145.481C36.9093 146.663 36.6772 147.929 36.4557 149.206C36.3713 149.702 36.1708 150.345 35.5588 150.24C34.8836 150.113 35.0735 149.417 35.1473 148.942C35.5905 146.093 35.3373 143.266 34.8203 140.459C34.7358 139.995 34.451 139.457 35.0735 139.256C35.696 139.056 35.9387 139.636 36.0864 140.132C36.6139 141.82 36.8566 143.572 36.8355 145.471L36.8355 145.481Z" fill="#00ABDF"/>
<path fill-rule="evenodd" clip-rule="evenodd" d="M166.403 145.197C166.424 144.891 166.424 144.5 166.488 144.12C166.551 143.783 166.804 143.635 167.131 143.635C167.479 143.635 167.627 143.846 167.68 144.194C167.954 146.241 168.228 148.277 168.513 150.324C168.545 150.535 168.672 150.746 168.387 150.862C168.165 150.947 167.975 150.841 167.838 150.673C167.648 150.398 167.427 150.124 167.321 149.807C166.846 148.341 166.435 146.853 166.393 145.207L166.403 145.197Z" fill="#00ABDF"/>
<path fill-rule="evenodd" clip-rule="evenodd" d="M26.9277 151.696C26.9699 152.73 26.9066 153.754 26.6112 154.756C26.5057 155.104 26.2841 155.389 25.8937 155.283C25.5034 155.189 25.3978 154.861 25.4822 154.482C25.841 152.783 25.5983 151.063 25.6616 149.354C25.6827 148.847 25.5772 148.172 26.2419 148.14C26.8433 148.109 26.5584 148.795 26.7062 149.153C27.0332 149.976 26.8644 150.852 26.9383 151.696L26.9277 151.696Z" fill="#00ABDF"/>
<path d="M123.004 55.3102C123.126 55.0084 123.273 54.6672 123.422 54.3216C123.522 54.0908 123.622 53.8579 123.717 53.6334C123.978 53.0126 124.197 52.4498 124.291 52.0525C124.425 51.4908 124.812 50.9493 125.116 50.5829C125.275 50.3914 125.426 50.2304 125.537 50.1171C125.555 50.0988 125.572 50.0817 125.588 50.0658L125.598 49.9789C125.617 49.8077 125.644 49.5598 125.677 49.2532C125.742 48.6399 125.828 47.7922 125.915 46.8546C126.089 44.9725 126.261 42.7518 126.261 41.3324C126.261 38.5501 125.61 34.5862 121.553 27.7988L121.301 27.3784C119.306 24.3059 116.163 22.2561 113.432 20.959C112.01 20.2839 110.714 19.8191 109.774 19.5234C109.304 19.3756 108.924 19.2703 108.662 19.2022C108.532 19.1682 108.431 19.1435 108.363 19.1275C108.33 19.1195 108.304 19.1136 108.288 19.1099L108.269 19.1058L108.265 19.1049L108.265 19.1048L108.265 19.1047L108.265 19.1047L107.572 18.9543L107.946 18.352L107.946 18.352L107.946 18.3519L107.947 18.3516L107.948 18.3498L107.952 18.3422L107.972 18.3112C107.988 18.2837 108.013 18.2428 108.046 18.1898C108.11 18.0837 108.202 17.9293 108.315 17.7375C108.54 17.3535 108.844 16.8205 109.16 16.2245C109.802 15.0119 110.454 13.6072 110.633 12.657C110.998 10.7245 110.684 8.01766 108.877 4.89714L108.877 4.89607C108.021 3.41054 106.44 2.15907 104.595 1.37284C102.752 0.587178 100.707 0.291937 98.9657 0.652092C95.4171 1.38594 91.721 4.13105 91.0144 9.49157C90.6629 12.1575 91.4295 14.3541 92.2922 15.8935C92.7235 16.6632 93.1769 17.2647 93.521 17.6722C93.6928 17.8757 93.8368 18.0302 93.9364 18.1325C93.9862 18.1836 94.0248 18.2216 94.0501 18.246C94.0628 18.2583 94.0722 18.2671 94.0779 18.2725L94.0839 18.2781L94.0842 18.2784L94.0845 18.2786L94.0847 18.2788L94.0847 18.2789L94.6708 18.8134L93.9348 19.1113L88.1 21.4725L88.0947 21.4755C88.0724 21.4884 88.0384 21.5083 87.9936 21.535C87.9041 21.5884 87.7716 21.6692 87.6028 21.7767C87.265 21.9917 86.7828 22.3133 86.2102 22.7362C85.064 23.5829 83.5622 24.8313 82.1353 26.4392C80.6817 28.0772 79.9341 29.0066 79.2999 30.1678C78.6584 31.3425 78.1265 32.7645 77.1366 35.4114L77.1335 35.4196C76.174 37.9852 75.7735 41.2846 75.6173 43.9728C75.5396 45.3109 75.5229 46.4861 75.5257 47.3263C75.5271 47.7463 75.5333 48.0822 75.5392 48.3125C75.5421 48.4276 75.5449 48.5163 75.547 48.5759L75.5495 48.6416L75.7694 50.2191C75.8173 50.278 75.8821 50.3585 75.9594 50.4558C76.1288 50.6693 76.3588 50.9654 76.6003 51.2951C77.0664 51.9312 77.6326 52.7674 77.8354 53.3698L77.8369 53.3741C77.8582 53.4394 77.8789 53.5034 77.8991 53.5659C77.9615 53.7585 78.0195 53.9379 78.0785 54.1033C78.1106 54.1933 78.1408 54.273 78.1695 54.3427C78.1798 54.3127 78.1904 54.2801 78.2013 54.245C78.2627 54.048 78.3271 53.7925 78.3927 53.4935C78.5235 52.8967 78.6519 52.1584 78.7654 51.4341C78.8787 50.7112 78.9761 50.0092 79.0452 49.4873C79.0797 49.2265 79.1071 49.0111 79.1259 48.861C79.1353 48.786 79.1425 48.7273 79.1473 48.6875L79.1528 48.6422L79.1542 48.6308L79.1546 48.628L79.1546 48.6273L79.1547 48.6272L79.6511 48.6864L79.1547 48.6271L79.165 48.5404L79.2042 48.4622L79.2042 48.4622L79.2044 48.4618L79.2052 48.4602L79.2085 48.4537L79.2216 48.4275L79.2721 48.3256C79.3159 48.2369 79.3791 48.1082 79.4563 47.9492C79.6106 47.6309 79.8203 47.1915 80.0418 46.7072C80.4908 45.7258 80.9681 44.6033 81.1511 43.917C81.2275 43.6216 81.2621 43.4559 81.2821 43.2494C81.3034 43.0298 81.3088 42.7577 81.3141 42.2451L81.3186 41.817L81.7423 41.7555C82.3675 41.6648 83.6104 41.275 85.3105 40.5831C86.9952 39.8975 89.0906 38.9312 91.4043 37.7141L91.5136 37.6566L91.5696 37.6566L91.7598 37.529C91.9636 37.3921 92.2586 37.1934 92.6233 36.9465C93.3527 36.4525 94.3603 35.7654 95.4735 34.9932C97.7041 33.4459 100.344 31.5666 102.022 30.2129C103.784 28.7913 105.737 28.0069 107.24 27.5772C107.994 27.3619 108.639 27.2342 109.098 27.1603C109.327 27.1232 109.511 27.0996 109.638 27.0851C109.702 27.0778 109.751 27.0728 109.786 27.0696L109.826 27.066L109.838 27.0651L109.841 27.0649L109.842 27.0648L109.843 27.0647C109.843 27.0647 109.843 27.0647 109.88 27.5634M123.004 55.3102L119.84 41.1847C119.154 40.731 117.888 39.3594 116.643 37.4602C115.758 36.1106 114.953 34.2708 114.232 32.6223C113.939 31.9511 113.659 31.3115 113.393 30.7498L113.846 30.537C113.846 30.5368 113.845 30.5367 113.845 30.5365C113.333 29.4465 112.373 28.5895 111.585 28.0195C111.185 27.7301 110.816 27.505 110.546 27.3519C110.411 27.2752 110.3 27.2162 110.222 27.1759C110.183 27.1558 110.153 27.1403 110.131 27.1296L110.105 27.1171L110.098 27.1136L110.096 27.1125L110.095 27.1121L110.095 27.112C110.095 27.1119 110.094 27.1118 109.88 27.5634M123.004 55.3102C122.99 55.2113 122.977 55.108 122.963 55.0012C122.853 54.1395 122.745 53.0646 122.745 52.1683C122.745 51.2164 122.662 50.0744 122.58 49.1789C122.539 48.7293 122.497 48.3383 122.466 48.0596C122.451 47.9201 122.438 47.8087 122.429 47.7319L122.418 47.6435L122.416 47.6203L122.415 47.6143L122.415 47.6127L122.415 47.6122L122.415 47.6121L121.918 47.6736M123.004 55.3102L121.918 47.6736M109.88 27.5634L109.843 27.0647L109.975 27.055L110.094 27.1118L109.88 27.5634ZM121.918 47.6736L122.415 47.612L122.398 47.4804L122.319 47.3742L121.918 47.6736ZM120.761 44.8199C120.572 44.4108 120.447 44.0475 120.409 43.7675L122.319 47.3741L122.319 47.374L122.318 47.3731L122.315 47.3686L122.301 47.3495C122.288 47.3325 122.269 47.3068 122.245 47.2735C122.197 47.2067 122.127 47.1091 122.043 46.9873C121.874 46.7434 121.646 46.4044 121.414 46.0233C121.181 45.6411 120.947 45.2229 120.761 44.8199ZM78.0241 54.6272C78.0189 54.6324 78.0163 54.6342 78.0163 54.6339C78.0163 54.6335 78.0189 54.6309 78.0241 54.6272ZM78.3263 54.6445C78.3308 54.6485 78.333 54.6511 78.333 54.6514C78.3329 54.6517 78.3307 54.6497 78.3263 54.6445Z" fill="#00ABDF" stroke="#005671"/>
<path fill-rule="evenodd" clip-rule="evenodd" d="M131.677 57.0218C131.73 56.6947 131.772 56.3677 131.835 56.0406C132.447 53.1496 132.542 50.2797 131.687 47.3993C131.286 46.0382 131.044 44.635 130.801 43.2317C130.622 42.1766 130.875 41.1531 131.434 40.2352C131.772 39.6865 132.183 39.2118 132.943 39.3806C133.65 39.5283 134.293 39.7499 134.452 40.5939C134.494 40.8261 134.599 41.0582 134.705 41.3536C135.517 41.3325 136.33 41.4064 136.9 42.1449C137.49 42.894 138.145 44.4872 138.102 45.152C137.607 45.1625 137.512 44.7405 137.343 44.4239C137.09 43.928 136.91 43.4005 136.625 42.9257C136.456 42.6408 136.203 42.3559 135.918 42.1977C135.127 41.744 134.388 42.1238 134.41 43.0312C134.431 43.928 134.578 44.8249 134.779 45.7006C135.021 46.7768 135.338 47.853 135.718 48.887C136.045 49.7627 136.15 50.649 136.045 51.5459C135.823 53.329 135.528 55.1121 135.243 56.8847C135.201 57.1379 135.022 57.3594 134.737 57.581C134.737 57.3383 134.705 57.0957 134.737 56.8636C134.969 55.2176 135.243 53.5716 135.465 51.9257C135.633 50.6701 135.38 49.4568 134.969 48.2539C134.526 46.9456 134.177 45.6056 133.819 44.2657C133.618 43.506 133.692 42.7674 134.072 42.05C134.473 41.2797 133.745 40.0347 132.88 39.9398C132.468 39.8976 132.225 40.1086 132.025 40.4146C131.455 41.2903 131.202 42.2504 131.403 43.2844C131.645 44.54 131.941 45.7956 132.194 47.0511C132.426 48.2012 132.679 49.3618 132.837 50.5224C133.122 52.6326 132.711 54.6689 132.078 56.6631C132.036 56.8108 131.909 56.9374 131.825 57.064C131.772 57.0429 131.708 57.0218 131.656 57.0113L131.677 57.0218Z" fill="#005671"/>
<path fill-rule="evenodd" clip-rule="evenodd" d="M61.7352 44.4133C61.7668 44.1179 61.7352 43.9385 61.7985 43.8013C62.0411 43.2316 62.2944 42.6513 62.5898 42.1026C63.2756 40.8048 63.761 40.52 65.2697 40.5305C65.3436 40.2879 65.4491 40.0346 65.5124 39.7709C65.639 39.2117 65.9978 38.8846 66.5253 38.6947C67.4327 38.3676 67.9497 38.5153 68.4773 39.3277C69.2264 40.4672 69.3319 41.7333 69.0892 43.0311C68.8571 44.2234 68.6461 45.4262 68.2873 46.5868C67.4643 49.2878 67.5277 51.9889 68.0341 54.7216C68.1185 55.1964 68.2135 55.6712 68.2979 56.146C68.2979 56.1776 68.2768 56.2093 68.1924 56.3781C68.0341 56.0932 67.8864 55.8928 67.802 55.6712C66.8735 52.7908 66.8313 49.8787 67.5382 46.9455C67.8653 45.595 68.1924 44.255 68.4878 42.8939C68.7199 41.8072 68.625 40.7415 68.0447 39.7709C67.8336 39.4227 67.6121 39.0428 67.0845 39.1167C66.5886 39.18 66.2404 39.4227 66.0505 39.8764C65.9134 40.1929 65.7867 40.52 65.639 40.8576C66.2826 41.7333 66.3882 42.6829 66.0716 43.7169C65.5968 45.2679 65.1748 46.8506 64.6789 48.391C64.4151 49.214 64.3518 50.0264 64.4573 50.8599C64.6683 52.5059 64.9321 54.1518 65.1748 55.7978C65.217 56.0932 65.2275 56.3992 65.2486 56.7579C64.7528 56.5997 64.7106 56.2198 64.6578 55.9033C64.394 54.2996 64.1408 52.6853 63.9298 51.071C63.7399 49.6571 64.1197 48.3383 64.5523 46.9983C64.9954 45.6161 65.2486 44.1812 65.5757 42.7673C65.5968 42.6724 65.5757 42.5563 65.5863 42.4508C65.6285 41.9233 65.4491 41.4907 64.9638 41.2374C64.5839 41.0475 63.8876 41.2374 63.5816 41.7017C63.244 42.2187 63.0118 42.8095 62.7164 43.3582C62.5159 43.738 62.4315 44.2234 61.7246 44.4027L61.7352 44.4133Z" fill="#005671"/>
<path fill-rule="evenodd" clip-rule="evenodd" d="M88.5249 119.146C87.3538 119.019 86.2037 118.745 85.1486 118.196C82.0466 116.603 79.0501 114.873 76.634 112.298C75.1885 110.768 73.9962 109.091 73.3104 107.075C72.9306 105.957 72.3925 104.902 71.9493 103.815C71.7911 103.425 71.5589 103.045 71.77 102.539C71.8544 102.665 71.9599 102.792 72.0232 102.929C72.7512 104.501 73.4792 106.073 74.1861 107.656C74.8509 109.133 75.8321 110.389 76.9294 111.56C78.2166 112.931 79.6832 114.102 81.2764 115.115C82.3315 115.78 83.3655 116.487 84.4628 117.088C85.4968 117.648 86.5941 118.091 87.6597 118.576C87.9657 118.713 88.2822 118.819 88.5882 118.945C88.5671 119.019 88.5355 119.093 88.5144 119.156L88.5249 119.146Z" fill="#005671"/>
<path fill-rule="evenodd" clip-rule="evenodd" d="M128.618 105.504C128.291 108.511 121.043 116.076 117.846 116.804C118.12 116.551 118.257 116.392 118.415 116.276C120.979 114.366 123.459 112.351 125.432 109.808C126.181 108.848 126.835 107.835 127.553 106.854C127.89 106.39 128.26 105.957 128.608 105.514L128.618 105.504Z" fill="#005671"/>
<path fill-rule="evenodd" clip-rule="evenodd" d="M70.2808 50.7438C69.7427 50.1213 69.69 49.4249 69.7744 48.7496C69.9115 47.589 70.1542 46.439 70.3547 45.2784C70.4918 44.4659 70.6607 43.6535 70.7873 42.8305C70.8295 42.5562 70.84 42.2713 70.7873 42.0076C70.6607 41.1635 70.4285 40.3827 69.3945 40.1506C70.112 39.718 70.3652 39.7286 70.7767 40.2245C71.3676 40.9208 71.5997 41.7543 71.4942 42.6512C71.3676 43.6746 71.1882 44.6981 70.9877 45.711C70.8295 46.5234 70.5551 47.3147 70.4285 48.1377C70.323 48.8446 70.3758 49.5726 70.3547 50.2901C70.3547 50.4484 70.3019 50.5961 70.2703 50.7543L70.2808 50.7438Z" fill="#005671"/>
<path fill-rule="evenodd" clip-rule="evenodd" d="M72.3301 53.603C73.1531 53.0438 73.4696 53.0016 73.9866 53.4553C74.4297 53.8352 74.8412 54.2783 75.1683 54.7531C76.3922 56.5995 76.7721 58.7625 77.384 60.8305C77.3102 60.8727 77.2363 60.9149 77.1519 60.9465C76.9514 60.5878 76.6982 60.2607 76.5505 59.8809C76.2023 59.0157 75.9491 58.1083 75.5692 57.2537C75.2105 56.4307 74.7885 55.6288 74.3242 54.8692C73.9233 54.2255 73.4379 53.6347 72.3301 53.5925L72.3301 53.603Z" fill="#005671"/>
<path fill-rule="evenodd" clip-rule="evenodd" d="M127.552 64.0066C127.658 64.3231 127.742 64.4603 127.721 64.5658C127.541 65.6103 128.153 66.2434 128.839 66.8659C130.57 68.4275 131.551 70.4321 132.152 72.6479C132.194 72.8167 132.205 72.9855 132.216 73.1543C132.216 73.1754 132.184 73.2071 132.11 73.3126C131.962 73.0066 131.825 72.7428 131.709 72.4685C130.897 70.4427 129.789 68.6385 128.185 67.1297C127.088 66.0957 126.94 65.3677 127.541 64.0066L127.552 64.0066Z" fill="#005671"/>
<path fill-rule="evenodd" clip-rule="evenodd" d="M105.216 81.9645C103.897 84.138 98.9277 84.1169 97.0918 82.0067C97.345 82.0067 97.5349 81.9645 97.7038 82.0067C98.3685 82.1966 99.0332 82.4181 99.6873 82.6292C100.996 83.0618 102.272 82.9984 103.538 82.4392C104.024 82.2282 104.509 81.9433 105.227 81.9539L105.216 81.9645Z" fill="#005671"/>
<path fill-rule="evenodd" clip-rule="evenodd" d="M67.6133 72.5422C67.8454 71.7509 67.9615 71.1495 68.183 70.5798C68.9111 68.765 69.8185 67.0768 71.3694 65.8002C71.9709 65.3043 72.4034 64.6923 72.2874 63.8271C72.2663 63.6794 72.3507 63.5211 72.4456 63.1519C72.8677 64.017 72.8571 64.6818 72.53 65.3465C72.3823 65.6524 72.1502 65.9373 71.9075 66.1694C70.1455 67.7626 68.9849 69.7357 68.1408 71.9303C68.0881 72.0569 68.0248 72.1835 67.9615 72.2996C67.9509 72.3312 67.9087 72.3418 67.6238 72.5422L67.6133 72.5422Z" fill="#005671"/>
<path fill-rule="evenodd" clip-rule="evenodd" d="M124.051 61.1367C124.177 60.9151 124.315 60.6935 124.431 60.4614C124.621 60.0921 124.895 59.7228 124.948 59.3325C125.211 57.5177 126.245 55.9878 126.773 54.268C127.037 53.3923 127.522 52.622 128.366 52.1578C128.524 52.0628 128.714 52.0101 128.968 52.0206C127.606 53.0863 127.3 54.6795 126.667 56.1144C126.224 57.1273 125.749 58.0874 125.591 59.2269C125.475 60.0394 125 60.799 124.061 61.1367L124.051 61.1367Z" fill="#005671"/>
<path fill-rule="evenodd" clip-rule="evenodd" d="M62.5371 65.9374C64.7317 64.3126 67.3589 63.6584 69.8595 62.4978C69.3742 63.3419 69.3847 63.3735 66.3882 64.6186C65.1327 65.1356 63.9615 65.8741 62.5371 65.9374Z" fill="#005671"/>
<path fill-rule="evenodd" clip-rule="evenodd" d="M130.191 63.3946C132.628 64.4708 135.224 65.1777 137.556 66.6021C137.25 67.1296 136.901 66.8975 136.627 66.7815C135.414 66.275 134.211 65.7475 132.998 65.2094C132.365 64.935 131.721 64.6607 131.109 64.3336C130.729 64.1332 130.413 63.8377 130.064 63.5845C130.107 63.5212 130.149 63.4473 130.191 63.384L130.191 63.3946Z" fill="#005671"/>
<path fill-rule="evenodd" clip-rule="evenodd" d="M128.513 54.0886C129.178 54.6689 129.231 55.3653 129.147 56.0828C129.009 57.3489 128.503 58.4884 127.775 59.5118C127.3 60.1765 126.773 60.8096 126.277 61.4532C126.213 61.411 126.139 61.3793 126.076 61.3371C126.15 61.1367 126.213 60.9362 126.308 60.7568C126.815 59.8495 127.342 58.9632 127.838 58.0452C128.44 56.9268 128.788 55.7451 128.429 54.4579C128.408 54.3735 128.471 54.2785 128.503 54.0992L128.513 54.0886Z" fill="#005671"/>
<path fill-rule="evenodd" clip-rule="evenodd" d="M75.8213 61.7486C73.7533 60.1132 72.2762 57.0745 73.2996 55.1648C73.7005 55.9667 73.4473 56.8002 73.7322 57.5071C74.0276 58.2351 74.3231 58.9737 74.6712 59.6806C75.0194 60.3875 75.4415 61.0628 75.8319 61.7486L75.8213 61.7486Z" fill="#005671"/>
<path fill-rule="evenodd" clip-rule="evenodd" d="M101.871 51.0077C102.03 50.7122 102.177 50.4907 102.262 50.2585C102.441 49.7943 102.198 49.3934 101.702 49.4039C101.27 49.425 100.848 49.5833 100.362 49.6993C100.415 50.1425 100.457 50.4696 100.5 50.8283C100.014 51.0182 99.8771 50.6595 99.74 50.3535C99.5712 49.9842 99.5501 49.6149 99.8455 49.2879C100.352 48.7181 101.84 48.486 102.473 48.8764C102.905 49.1507 103.042 49.5622 102.979 50.037C102.916 50.554 102.673 50.7544 101.85 50.9971L101.871 51.0077Z" fill="#005671"/>
<path fill-rule="evenodd" clip-rule="evenodd" d="M101.788 41.4907C101.819 41.7017 101.904 41.9339 101.883 42.1449C101.714 43.7697 101.524 45.4051 101.197 47.0194C100.722 45.3735 100.901 43.7275 101.155 42.0921C101.197 41.8178 101.271 41.4591 101.788 41.4907Z" fill="#005671"/>
<path fill-rule="evenodd" clip-rule="evenodd" d="M90.6557 46.9245C90.5713 47.2515 90.5291 47.5681 90.4025 47.8319C90.0965 48.4544 89.3685 48.4966 88.9359 47.9374C88.5139 47.3993 88.4505 46.2809 88.8726 45.7428C89.0625 45.5106 89.4212 45.2891 89.7061 45.2891C89.9171 45.2891 90.2126 45.595 90.3392 45.8377C90.508 46.1753 90.5607 46.5763 90.6451 46.9245L90.6557 46.9245Z" fill="#005671"/>
<path fill-rule="evenodd" clip-rule="evenodd" d="M115.556 118.186C114.005 119.051 112.486 120.011 110.692 120.349C110.534 120.38 110.344 120.254 109.975 120.148C111.937 119.367 113.699 118.661 115.461 117.954C115.493 118.027 115.524 118.112 115.556 118.186Z" fill="#005671"/>
<path fill-rule="evenodd" clip-rule="evenodd" d="M113.392 47.0298C113.392 46.8821 113.392 46.9138 113.392 46.956C113.371 47.8001 113.086 48.296 112.611 48.3171C112.052 48.3487 111.535 47.6523 111.535 46.8716C111.535 46.1436 111.947 45.4261 112.4 45.3944C113.023 45.3628 113.382 45.8798 113.392 47.0193L113.392 47.0298Z" fill="#005671"/>
<path fill-rule="evenodd" clip-rule="evenodd" d="M113.869 42.778C113.331 42.6409 112.845 42.4404 112.36 42.4193C111.906 42.4087 111.452 42.6092 110.999 42.7147C110.957 42.1239 111.199 41.8284 111.875 41.6807C112.729 41.4908 113.489 41.8707 113.869 42.778Z" fill="#005671"/>
<path fill-rule="evenodd" clip-rule="evenodd" d="M87.9648 42.8623C88.7562 41.459 90.0223 41.2269 90.9191 42.2292C90.3494 42.2292 89.8535 42.1554 89.3787 42.2503C88.9461 42.3347 88.5451 42.5985 87.9648 42.8623Z" fill="#005671"/>
<path fill-rule="evenodd" clip-rule="evenodd" d="M90.1074 119.958C91.3313 119.726 91.6584 119.789 92.3864 120.296C91.5951 120.528 90.9304 120.549 90.1074 119.958Z" fill="#005671"/>
<path fill-rule="evenodd" clip-rule="evenodd" d="M98.0092 62.8142C98.1253 61.5059 98.4207 59.9022 100.531 59.3113C102.071 58.8787 103.19 59.2691 103.738 60.4614C104.762 62.6665 104.646 64.6396 103.242 66.4754C102.631 67.2773 99.2014 67.0241 98.5578 65.9901C97.9248 64.9772 97.9353 63.9643 98.0092 62.8248L98.0092 62.8142Z" fill="#ED7255"/>
<path fill-rule="evenodd" clip-rule="evenodd" d="M99.6037 66.8869C99.4348 67.2351 98.0738 66.391 97.7572 65.0932C97.3457 63.2785 97.5568 61.5692 98.6752 60.0921C99.4032 59.1319 100.384 58.7099 101.608 58.731C102.769 58.7521 103.645 59.2902 104.204 60.2925C105.048 61.8013 105.122 63.3945 104.658 64.9455C104.204 66.4754 102.642 67.4778 101.228 67.2773C101.028 67.2456 100.585 67.0768 100.606 66.8974C100.627 66.7286 101.292 66.8552 101.556 66.813C103.223 66.5387 104.183 65.4414 104.204 63.7743C104.214 62.867 103.972 61.5164 103.602 60.6513C102.864 58.9314 100.764 58.8048 99.5087 60.071C98.3375 61.2421 98.0843 62.772 98.327 64.3863C98.5697 65.9901 99.783 66.5387 99.6142 66.8869L99.6037 66.8869Z" fill="#005671"/>
</g>
<defs>
<clipPath id="clip0_129_28471">
<rect width="200" height="200" fill="white"/>
</clipPath>
</defs>
</svg>
